<?xml version="1.0" encoding="UTF-8" standalone="no"?><svg id="_ARABICA" xmlns="http://www.w3.org/2000/svg" viewBox="0 0 1027 149.5"><defs><style type="text/css">.cls-1{fill:#231815;}</style></defs><title>%ARABICA_Logo_June_2017</title><rect class="cls-1" x="706.99" y="10.3" width="18.64" height="139.21"/><path class="cls-1" d="M893.32,383.85c-8.87,16.62-13.24,43,15.86,74.71l.53.58c7,7.66,36.75,29.91,72.69,35.92V477.72c-31.29-6.32-55.59-26.41-58.34-29.43l-.59-.64c-18.3-19.93-22.78-38.94-13.31-56.5l.21-.43c12.8-27.51,63.34-15.71,72-13.46V359.69a159,159,0,0,0-31.56-3.83C914.46,355.44,899.48,370.79,893.32,383.85Z" transform="translate(-131.99 -345.56)"/><path class="cls-1" d="M1047.33,355.86l-46.27,139.2H1116l-46.28-139.2Zm-21,121.87,32.19-96.83,32.19,96.83Z" transform="translate(-131.99 -345.56)"/><path class="cls-1" d="M380.31,355.86,334,495.06H448.94l-46.28-139.2Zm-21,121.87,32.2-96.83,32.19,96.83Z" transform="translate(-131.99 -345.56)"/><path class="cls-1" d="M533.39,411.57a30.34,30.34,0,0,0,13.26-24.7h0c0-17.06-15-31-33.37-31H467.42v139.2h18.63V417.88s29,0,29.92-.11l35.94,77.29h20.31Zm-20.11-11H486.05V373.18h27.23c8.13,0,14.73,6.14,14.73,13.69S521.41,400.55,513.28,400.55Z" transform="translate(-131.99 -345.56)"/><path class="cls-1" d="M655.74,355.86H633.38l-46.27,139.2H702ZM612.37,477.73l32.19-96.83,32.2,96.83Z" transform="translate(-131.99 -345.56)"/><path class="cls-1" d="M806.15,430.71h0c0,.05,0,.09,0,.14Z" transform="translate(-131.99 -345.56)"/><path class="cls-1" d="M727.09,355.86h-1.51v139.2h18.67c25.6,0,41.9-11.21,51-20.62,10.37-10.64,16.81-24.52,16.84-36.26,0,0,0-.06,0-.08v-7.25c0-.05,0-.09,0-.14,0-.68,0-1.35-.06-2-.64-11.17-6.28-18-14.38-22.09a29.6,29.6,0,0,0,7.68-19.75h0c0-17.06-15-31-33.36-31Zm17.13,17.32H772c8.12,0,14.73,6.14,14.73,13.69s-6.61,13.68-14.73,13.68h-27.8Zm49.29,64.92c0,11.66-14.17,39.63-49.26,39.63h0V417.88h17.16c17.84,0,25.46,2.55,28.69,4.69,1.84,1.21,3,2.7,3.34,6.14.06.65.1,1.35.1,2.15Z" transform="translate(-131.99 -345.56)"/><path class="cls-1" d="M1139.37,345.56c11.08,0,19.62,8.43,19.62,19.18a19.61,19.61,0,0,1-39.22,0C1119.77,353.77,1128.63,345.56,1139.37,345.56Zm0,34.79c8.65,0,15-6.85,15-15.52s-6.43-15.55-15.08-15.55-15,6.93-15,15.55A15.11,15.11,0,0,0,1139.37,380.35Zm-7.36-5.48v-19.5a40.29,40.29,0,0,1,7.16-.63c3.47,0,8.54.63,8.54,5.69,0,2.3-1.8,3.89-4,4.52v.33c1.9.62,2.84,2.2,3.37,4.74a17.27,17.27,0,0,0,1.48,4.85h-4.42c-.54-.74-1-2.45-1.49-4.85-.73-3.06-2.42-3.06-6.42-3.06v7.91Zm4.32-11c3.26,0,6.85,0,6.85-2.95,0-1.79-1.27-3.06-4.33-3.06a11.29,11.29,0,0,0-2.52.23Z" transform="translate(-131.99 -345.56)"/><path class="cls-1" d="M167.49,355.85A35.5,35.5,0,1,0,203,391.35,35.5,35.5,0,0,0,167.49,355.85Zm0,53.6a18.1,18.1,0,1,1,18.09-18.1A18.1,18.1,0,0,1,167.49,409.45Z" transform="translate(-131.99 -345.56)"/><path class="cls-1" d="M256.58,424.06a35.5,35.5,0,1,0,35.5,35.5A35.5,35.5,0,0,0,256.58,424.06Zm0,53.6a18.1,18.1,0,1,1,18.1-18.1A18.1,18.1,0,0,1,256.58,477.66Z" transform="translate(-131.99 -345.56)"/><polygon class="cls-1" points="118.16 10.3 20.69 149.5 41.93 149.5 139.4 10.3 118.16 10.3"/></svg>
