<svg viewBox="0 0 24 24" version="1.1" xmlns="http://www.w3.org/2000/svg" xmlns:xlink="http://www.w3.org/1999/xlink">
    <title>AdGuard</title>
        <path d="M11.5014739,0 C7.90634336,0 3.57155896,0.861 0,2.754 C0,6.846 -0.0471461596,17.034 11.5014739,24 C23.0530407,17.037 23,6.846 23,2.754 C19.4343356,0.861 15.0966044,0 11.5014739,0 Z" fill="#68BC71"></path>
        <path d="M11.4867397,23.994 C-0.0441993313,17.031 0.00294836053,6.84 0.00294836053,2.754 C3.56566531,0.864 7.89750287,0.003 11.4896865,0 L11.4896865,23.994 L11.4867397,23.994 Z" fill="#67B279"></path>
        <path d="M11.0800774,16.014 L18.0345921,6.474 C17.5247909,6.054 17.0798198,6.348 16.8322862,6.576 L16.8234457,6.576 L11.0270345,12.72 L8.84048792,10.044 C7.79731071,8.82 6.38283314,9.753 6.04984154,10.002 L11.0800774,16.017" fill="#FFFFFF"></path>
</svg>
