<?xml version="1.0" encoding="UTF-8"?>
<svg viewBox="0 0 9 8" version="1.1" xmlns="http://www.w3.org/2000/svg" xmlns:xlink="http://www.w3.org/1999/xlink">
    <title>AdGuard</title>
    <g id="Page-1" stroke="none" stroke-width="1" fill="none" fill-rule="evenodd">
        <g id="AdGuard" transform="translate(0.292350, 0.000000)" fill-rule="nonzero">
            <path d="M3.90244986,0 C2.6826732,0 1.21129986,0.286844667 0,0.91821 C0,2.28179 -0.0167188033,5.67886667 3.90244986,8 C7.82171653,5.67886667 7.80508379,2.28179 7.80508379,0.91821 C6.59371653,0.286844667 5.12234986,0 3.90244986,0 L3.90244986,0 Z" id="Path" fill="#68BC71"></path>
            <path d="M3.8984832,7.99763333 C-0.0167074699,5.67656667 5.94563044e-07,2.28132667 5.94563044e-07,0.91821 C1.2099832,0.287532333 2.67946986,0.000625213333 3.8984832,1.02078333e-06 C3.8984832,1.02078333e-06 3.8984832,7.99763333 3.8984832,7.99763333 Z" id="Path" fill="#67B279"></path>
            <path d="M3.76011653,5.33786667 L6.12001653,2.15726 C5.9470832,2.01865333 5.7953832,2.11648 5.7118832,2.19221667 L5.70884986,2.19246 L3.7411832,4.23936667 L2.9998132,3.3472 C2.6461332,2.93857333 2.1653132,3.25025667 2.0529932,3.33263 L3.76011653,5.33786667" id="Path" fill="#FFFFFF"></path>
        </g>
    </g>
</svg>