<svg viewBox="0 0 9 8" xmlns="http://www.w3.org/2000/svg"><g fill-rule="nonzero" fill="none"><path d="M4.195 0C2.975 0 1.504.287.292.918.292 2.282.276 5.678 4.195 8 8.115 5.679 8.097 2.282 8.097.918 6.887.287 5.415 0 4.195 0Z" fill="#68BC71"/><path d="M4.19 7.998C.277 5.677.293 2.28.293.918 1.502.288 2.972.001 4.191 0v7.998Z" fill="#67B279"/><path d="m4.052 5.338 2.36-3.18c-.173-.14-.324-.042-.408.034h-.003L4.034 4.24l-.742-.892c-.354-.408-.834-.097-.947-.014l1.707 2.005" fill="#FFF"/></g></svg>