<svg viewBox="0 0 24 24" xmlns="http://www.w3.org/2000/svg"><path d="M13.007.042A11.837 11.837 0 0 0 12 0h-.042a11.915 11.915 0 0 0-1.333.08v6.815c0 .337.276.613.612.613h1.441a.616.616 0 0 0 .614-.613V.068c-.095-.01-.19-.017-.285-.026m1.618.246V7.562a.533.533 0 0 1-.478.48v.002h-1.389a.533.533 0 0 0-.534.532v3.732a.53.53 0 0 1 .495-.53h2.657l.049.001.05-.001a.534.534 0 0 0 .419-.28c0-.003.002-.004.003-.008a.677.677 0 0 0 .032-.074c.004-.014.01-.03.012-.046a.525.525 0 0 0 .016-.118V3.616a9.325 9.325 0 0 1 5.327 8.426c0 4.697-3.473 8.584-7.993 9.23V16.04h2.085a.672.672 0 0 0 .1 0 .533.533 0 0 0 .481-.53V11.772a.532.532 0 0 1-.532.533h-2.667a.534.534 0 0 0-.534.533v3.196h-.533V12.84a.533.533 0 0 0-.532-.533H8.49a.534.534 0 0 1-.535-.533v3.738a.538.538 0 0 0 .585.53h2.084v5.231a9.325 9.325 0 0 1-7.991-9.23 9.326 9.326 0 0 1 5.322-8.426v7.633c0 .002.003.002.003.003.002.03.003.055.007.083.003.013.005.025.01.035a.492.492 0 0 0 .044.12c0 .004.002.005.003.008a.533.533 0 0 0 .468.281l.05-.001h2.654a.53.53 0 0 1 .496.53V8.576a.532.532 0 0 0-.532-.532H9.772l-.003-.002a.533.533 0 0 1-.477-.48V.306C3.968 1.535 0 6.302 0 12.001 0 18.613 5.351 23.976 11.958 24H12c6.628 0 12-5.373 12-12C24 6.276 19.991 1.487 14.625.289" fill="#12806a"/></svg>