<?xml version="1.0" encoding="UTF-8" standalone="no"?>
<!-- Created with Inkscape (http://www.inkscape.org/) -->

<svg
   xmlns:dc="http://purl.org/dc/elements/1.1/"
   xmlns:cc="http://creativecommons.org/ns#"
   xmlns:rdf="http://www.w3.org/1999/02/22-rdf-syntax-ns#"
   xmlns:svg="http://www.w3.org/2000/svg"
   xmlns="http://www.w3.org/2000/svg"
   xmlns:sodipodi="http://sodipodi.sourceforge.net/DTD/sodipodi-0.dtd"
   xmlns:inkscape="http://www.inkscape.org/namespaces/inkscape"
   version="1.1"
   id="svg10"
   xml:space="preserve"
   width="258.51761"
   height="51.889999"
   viewBox="0 0 258.51761 51.89"
   sodipodi:docname="2017 Annual Report.svg"
   inkscape:version="0.92.4 (5da689c313, 2019-01-14)"><metadata
     id="metadata16"><rdf:RDF><cc:Work
         rdf:about=""><dc:format>image/svg+xml</dc:format><dc:type
           rdf:resource="http://purl.org/dc/dcmitype/StillImage" /><dc:title></dc:title></cc:Work></rdf:RDF></metadata><defs
     id="defs14"><clipPath
       clipPathUnits="userSpaceOnUse"
       id="clipPath28"><path
         d="M 0,0 H 595.276 V 807.874 H 0 Z"
         id="path26"
         inkscape:connector-curvature="0" /></clipPath></defs><sodipodi:namedview
     pagecolor="#ffffff"
     bordercolor="#666666"
     borderopacity="1"
     objecttolerance="10"
     gridtolerance="10"
     guidetolerance="10"
     inkscape:pageopacity="0"
     inkscape:pageshadow="2"
     inkscape:window-width="988"
     inkscape:window-height="684"
     id="namedview12"
     showgrid="false"
     fit-margin-top="0"
     fit-margin-left="0"
     fit-margin-right="0"
     fit-margin-bottom="0"
     inkscape:zoom="1.574503"
     inkscape:cx="209.12423"
     inkscape:cy="43.922009"
     inkscape:window-x="217"
     inkscape:window-y="153"
     inkscape:window-maximized="0"
     inkscape:current-layer="g18" /><g
     id="g18"
     inkscape:groupmode="layer"
     inkscape:label="2017 Annual Report"
     transform="matrix(1.3333333,0,0,-1.3333333,-248.5381,665.50534)"><g
       id="g22"
       transform="translate(-14.290224,-11.432179)"><g
         id="g24"
         clip-path="url(#clipPath28)"><g
           id="g30"
           transform="translate(323.5406,489.9932)"><path
             d="m 0,0 0.05,-0.005 6.408,-0.061 v 14.932 l -0.173,2.965 c 0.031,0.059 0.069,0.104 0.118,0.145 0.049,0.035 0.206,0.021 0.463,-0.052 L 7.84,17.739 8.843,17.483 c 0.78,-0.185 1.199,-0.414 1.248,-0.675 C 10.129,16.572 9.892,16.27 9.38,15.894 l 0.013,-15.989 1.283,-0.012 v 15.036 l -0.16,2.923 c 0.074,0.139 0.258,0.198 0.548,0.169 0.588,-0.071 1.287,-0.218 2.096,-0.446 0.809,-0.226 1.236,-0.463 1.288,-0.709 0.043,-0.271 -0.237,-0.576 -0.844,-0.908 L 13.617,4.054 c 0.274,0.7 0.554,1.488 0.843,2.369 0.285,0.881 0.509,1.612 0.672,2.203 0.162,0.591 0.326,1.249 0.492,1.973 0.163,0.73 0.284,1.285 0.368,1.668 l 0.149,0.787 0.096,0.597 c 0.125,0.161 0.397,0.124 0.82,-0.103 l 1.079,-0.505 1.218,-0.69 c 0.71,-0.407 1.008,-0.762 0.894,-1.068 C 20.193,11.13 19.922,10.951 19.437,10.75 19.103,10.136 18.75,9.513 18.389,8.888 18.026,8.265 17.538,7.517 16.927,6.642 16.318,5.769 15.216,4.248 13.629,2.085 v -2.213 h 1.91 c 0.551,0.674 0.983,1.229 1.297,1.662 0.311,0.437 0.566,0.665 0.768,0.691 0.199,0.026 0.477,-0.085 0.845,-0.329 0.264,-0.198 0.552,-0.432 0.862,-0.712 l 0.742,-0.705 c 0.248,-0.232 0.391,-0.466 0.426,-0.703 0.081,-0.33 -0.026,-0.68 -0.301,-0.756 L 2.143,-0.899 0.785,-0.942 0.252,-0.287 Z"
             style="fill:#231f20;fill-opacity:1;fill-rule:nonzero;stroke:none"
             id="path32"
             inkscape:connector-curvature="0" /></g><g
           id="g34"
           transform="translate(325.2233,502.1563)"><path
             d="m 0,0 -0.26,0.505 c -0.064,0.11 -0.097,0.239 -0.105,0.382 -0.007,0.144 0.048,0.236 0.172,0.284 C -0.069,1.223 0.039,1.215 0.136,1.16 0.231,1.098 0.36,0.982 0.517,0.817 L 0.94,0.346 C 1.571,-0.373 2.08,-0.994 2.457,-1.52 2.839,-2.041 3.3,-2.807 3.838,-3.811 4.377,-4.82 4.611,-5.845 4.542,-6.885 4.49,-7.523 4.282,-8.078 3.921,-8.545 3.557,-9.01 3.121,-9.265 2.614,-9.305 2.108,-9.344 1.687,-9.211 1.357,-8.904 1.03,-8.598 0.835,-8.25 0.783,-7.855 c -0.056,0.387 -0.03,0.919 0.073,1.596 0.104,0.672 0.159,1.241 0.163,1.703 0.002,0.461 -0.048,1.03 -0.157,1.706 C 0.783,-2.389 0.714,-2.052 0.653,-1.845 0.592,-1.636 0.481,-1.302 0.319,-0.85 0.157,-0.395 0.051,-0.109 0,0"
             style="fill:#231f20;fill-opacity:1;fill-rule:nonzero;stroke:none"
             id="path36"
             inkscape:connector-curvature="0" /></g><g
           id="g38"
           transform="translate(309.9879,503.6885)"><path
             d="m 0,0 c 0.049,-0.278 0.133,-0.647 0.244,-1.112 0.14,-0.573 0.321,-1.2 0.539,-1.89 0.221,-0.683 0.645,-1.614 1.285,-2.785 0.942,1.136 1.562,1.972 1.856,2.513 l 0.248,0.455 c 0.22,0.399 0.39,0.613 0.508,0.638 0.116,0.027 0.262,-0.002 0.436,-0.08 0.119,-0.066 0.312,-0.215 0.571,-0.441 0.261,-0.233 0.592,-0.477 0.984,-0.731 0.401,-0.252 0.703,-0.504 0.902,-0.75 0.206,-0.242 0.276,-0.427 0.206,-0.548 -0.097,-0.158 -0.51,-0.224 -1.233,-0.206 -1.56,-0.618 -2.882,-1.115 -3.972,-1.5 0.245,-0.378 0.558,-0.82 0.945,-1.323 0.382,-0.505 1.026,-1.088 1.926,-1.749 0.897,-0.66 1.748,-1.138 2.551,-1.432 l 0.608,-0.228 0.696,-0.13 c 0.112,-0.075 0.173,-0.169 0.187,-0.288 0.009,-0.117 -0.03,-0.201 -0.115,-0.257 -0.087,-0.055 -0.277,-0.13 -0.573,-0.221 L 8.324,-12.226 C 8.079,-12.313 7.9,-12.392 7.776,-12.458 7.646,-12.527 7.477,-12.653 7.266,-12.841 7.049,-13.03 6.888,-13.196 6.776,-13.339 6.668,-13.481 6.555,-13.702 6.446,-14.001 6.34,-14.3 6.238,-14.462 6.154,-14.481 6.065,-14.503 5.9,-14.429 5.657,-14.254 l -0.574,0.388 c -0.26,0.171 -0.591,0.44 -1,0.803 -0.404,0.363 -0.772,0.722 -1.088,1.08 -0.317,0.357 -0.722,0.933 -1.214,1.74 -0.491,0.807 -0.924,1.759 -1.304,2.865 -0.376,1.104 -0.637,2.143 -0.785,3.115 -0.149,0.974 -0.243,1.746 -0.29,2.314 -0.048,0.567 -0.083,1.065 -0.113,1.487 -0.1,-0.277 -0.22,-0.603 -0.368,-0.967 -0.15,-0.368 -0.637,-1.249 -1.469,-2.642 0.451,-0.227 0.684,-0.428 0.694,-0.614 0.013,-0.182 -0.244,-0.411 -0.772,-0.683 v -5.834 c 0.528,0.261 1.49,0.731 2.892,1.424 l 0.369,0.182 c 0.275,0.138 0.472,0.16 0.604,0.064 0.128,-0.092 0.172,-0.205 0.128,-0.342 -0.038,-0.142 -0.1,-0.248 -0.184,-0.323 l -0.207,-0.197 -4.068,-3.957 -1.078,-1.068 c -0.233,-0.165 -0.406,-0.23 -0.521,-0.193 -0.098,0.02 -0.219,0.158 -0.36,0.418 l -0.583,0.972 c -0.148,0.266 -0.293,0.56 -0.428,0.883 -0.136,0.324 -0.2,0.533 -0.182,0.626 0.015,0.144 0.108,0.275 0.282,0.39 0.174,0.115 0.263,0.2 0.263,0.258 v 4.25 c -1.157,-0.915 -2.206,-1.661 -3.145,-2.245 -0.941,-0.578 -1.544,-0.941 -1.809,-1.076 l -0.433,-0.228 c -0.127,-0.071 -0.266,-0.108 -0.416,-0.104 -0.152,0.002 -0.297,0.063 -0.426,0.173 -0.132,0.112 0.032,0.349 0.492,0.706 l 0.338,0.262 c 0.311,0.236 0.598,0.465 0.858,0.678 0.261,0.216 0.833,0.828 1.723,1.834 0.888,1.007 1.545,1.805 1.968,2.4 0.42,0.592 0.885,1.363 1.39,2.318 0.502,0.953 0.822,1.637 0.967,2.055 L -3.813,0 h -3.115 c 0.046,-0.301 0.079,-0.606 0.098,-0.917 0.029,-0.381 -0.081,-0.803 -0.317,-1.271 -0.246,-0.467 -0.699,-0.791 -1.366,-0.975 -0.665,-0.186 -1.182,-0.078 -1.55,0.32 -0.372,0.395 -0.548,0.793 -0.536,1.187 0.009,0.415 0.191,0.804 0.546,1.162 l 0.919,0.8 c 0.173,0.201 0.324,0.481 0.452,0.841 l 0.103,0.291 0.032,0.649 c 0.03,0.107 0.101,0.187 0.215,0.244 0.107,0.051 0.244,0.014 0.408,-0.117 0.046,-0.043 0.118,-0.138 0.217,-0.289 L -7.413,1.47 -7.196,1.004 h 3.745 c 0.054,0.187 0.109,0.386 0.167,0.596 0.081,0.311 0.184,0.921 0.305,1.835 l 0.102,0.775 c 0.046,0.394 0.096,0.615 0.154,0.664 0.057,0.048 0.285,0.018 0.683,-0.082 0.084,-0.03 0.514,-0.113 1.281,-0.256 C 0.012,4.391 0.589,4.226 0.965,4.042 1.345,3.86 1.526,3.676 1.511,3.498 1.494,3.354 1.243,3.106 0.753,2.753 0.456,2.069 0.199,1.486 -0.023,1.004 H 3.832 C 4.189,1.438 4.437,1.713 4.575,1.837 4.738,1.98 4.893,2.065 5.035,2.087 5.178,2.105 5.41,2.01 5.728,1.796 6.815,1.027 7.483,0.511 7.733,0.256 7.983,0.003 8.104,-0.237 8.097,-0.462 8.072,-0.894 7.782,-1.126 7.226,-1.172 L 6.238,-1.14 C 5.431,-1.13 4.684,-1.414 4.007,-1.981 L 3.425,-2.467 C 3.116,-2.731 2.902,-2.814 2.79,-2.714 c -0.112,0.1 -0.114,0.27 -0.012,0.508 L 3.05,-1.56 C 3.159,-1.298 3.36,-0.779 3.662,0 Z"
             style="fill:#231f20;fill-opacity:1;fill-rule:nonzero;stroke:none"
             id="path40"
             inkscape:connector-curvature="0" /></g><g
           id="g42"
           transform="translate(278.902,493.9321)"><path
             d="m 0,0 -1.333,0.119 0.237,-0.298 0.554,-0.768 1.303,0.044 9.37,-0.082 c 0.293,0.078 0.471,0.461 0.28,0.797 C 10.368,-0.072 10.209,0.126 9.938,0.405 9.615,0.736 9.271,1.043 8.906,1.326 8.709,1.468 8.567,1.536 8.469,1.521 8.375,1.504 8.281,1.446 8.188,1.343 8.102,1.238 7.944,1.043 7.713,0.746 7.489,0.457 7.28,0.199 7.093,-0.034 H 5.358 V 4.732 H 5.466 C 5.455,4.717 5.451,4.698 5.447,4.678 5.434,4.556 5.477,4.449 5.587,4.355 L 5.982,4.035 C 6.219,3.803 6.369,3.482 6.44,3.066 6.512,2.654 6.569,2.374 6.611,2.23 6.651,2.086 6.769,1.947 6.966,1.81 7.165,1.66 7.489,1.591 7.944,1.601 8.394,1.612 8.748,1.832 8.996,2.263 9.121,2.48 9.163,2.746 9.135,3.066 9.104,3.387 8.899,3.733 8.519,4.109 8.232,4.394 7.733,4.595 7.022,4.717 L 9.511,4.691 C 9.739,4.757 9.91,5.046 9.84,5.322 9.827,5.38 9.794,5.449 9.737,5.522 9.646,5.65 9.201,6.025 8.406,6.641 8.12,6.859 7.884,6.951 7.703,6.918 7.525,6.885 7.116,6.472 6.482,5.671 H 5.348 l 0.01,3.193 c 0.024,0.02 0.047,0.042 0.067,0.065 L 9.87,8.884 c 0.293,0.078 0.471,0.455 0.287,0.789 -0.045,0.11 -0.15,0.25 -0.314,0.425 -0.272,0.286 -0.75,0.685 -1.449,1.193 C 8.163,11.456 7.99,11.529 7.881,11.511 7.772,11.492 7.624,11.374 7.445,11.152 7.26,10.929 6.977,10.523 6.581,9.932 H 0.598 L -1.106,10.05 -0.585,9.38 -0.254,8.922 1.048,8.968 2.603,8.955 V 5.671 L 0.686,5.685 -0.9,5.824 -0.288,5.046 h 0.028 l 0.217,-0.316 1.231,0.046 1.415,-0.014 0.013,-4.796 -1,0.005 z m 14.471,12.357 c 0,0.13 -0.229,0.385 -0.685,0.756 -0.458,0.375 -1.04,0.726 -1.749,1.047 -0.261,0.109 -0.453,0.15 -0.584,0.121 -0.133,-0.032 -0.295,-0.162 -0.485,-0.403 -0.191,-0.234 -0.428,-0.55 -0.721,-0.946 H -1.14 l -2.549,1.259 c -0.371,0.182 -0.592,0.25 -0.667,0.211 -0.076,-0.036 -0.142,-0.097 -0.194,-0.176 l 0.127,-3.14 0.012,-12.672 -0.13,-3.278 c 0.056,-0.158 0.125,-0.275 0.215,-0.346 0.083,-0.074 0.266,-0.118 0.55,-0.14 1.024,-0.088 1.678,-0.011 1.962,0.231 0.275,0.242 0.415,0.459 0.415,0.654 v 1.062 h 11.925 l -0.009,-1.03 c -0.007,-0.353 0.057,-0.6 0.193,-0.744 0.134,-0.148 0.426,-0.24 0.865,-0.283 0.444,-0.041 0.878,0.008 1.305,0.148 0.426,0.14 0.701,0.279 0.815,0.42 0.118,0.14 0.201,0.356 0.245,0.651 l -0.125,2.753 0.021,13.04 c 0.419,0.379 0.633,0.647 0.635,0.805 M 10.54,-2.397 H -1.409 l 0.021,14.32 H 10.54 Z"
             style="fill:#231f20;fill-opacity:1;fill-rule:nonzero;stroke:none"
             id="path44"
             inkscape:connector-curvature="0" /></g><g
           id="g46"
           transform="translate(268.3122,501.9248)"><path
             d="M 0,0 C 0.256,0.243 0.392,0.443 0.398,0.592 0.404,0.864 -0.064,1.293 -0.998,1.873 L -1.949,2.458 C -2.341,2.708 -2.622,2.823 -2.79,2.801 -2.954,2.784 -3.156,2.611 -3.401,2.29 -3.633,1.978 -3.909,1.619 -4.223,1.21 h -3.983 l -0.012,3.255 0.511,0.355 c 0.184,0.127 0.289,0.264 0.332,0.404 0.043,0.14 0.017,0.294 -0.084,0.46 -0.097,0.165 -0.696,0.368 -1.805,0.614 -1.1,0.242 -1.726,0.373 -1.88,0.388 -0.294,0.021 -0.481,-0.007 -0.572,-0.093 -0.085,-0.08 -0.124,-0.27 -0.108,-0.556 L -11.643,3.47 V 1.21 h -3.621 l -2.906,1.506 c -0.379,0.196 -0.618,0.273 -0.718,0.236 -0.107,-0.034 -0.187,-0.091 -0.246,-0.168 L -19.01,0.958 V -4.8 l -0.135,-2.364 c 0,-0.214 0.037,-0.387 0.124,-0.516 0.08,-0.129 0.511,-0.181 1.286,-0.147 0.776,0.033 1.311,0.188 1.608,0.464 0.302,0.275 0.45,0.534 0.45,0.772 v 0.915 h 4.049 l 0.009,-3.882 -0.205,-3.62 c 0.031,-0.204 0.1,-0.374 0.214,-0.518 0.106,-0.138 0.402,-0.227 0.877,-0.26 0.519,-0.045 1,0.002 1.43,0.144 0.436,0.139 0.734,0.294 0.889,0.459 0.153,0.166 0.268,0.349 0.355,0.56 l -0.147,3.095 v 4.022 h 4.294 v -0.831 c 0,-0.46 0.047,-0.759 0.144,-0.907 0.092,-0.148 0.328,-0.243 0.706,-0.288 0.257,-0.036 0.659,0.004 1.209,0.117 0.549,0.115 0.901,0.244 1.064,0.379 0.163,0.137 0.287,0.307 0.374,0.506 l -0.142,2.189 v 3.968 z m -11.643,-4.671 h -4.034 v 4.879 h 4.034 z m 7.731,0 h -4.294 v 4.879 h 4.294 z"
             style="fill:#231f20;fill-opacity:1;fill-rule:nonzero;stroke:none"
             id="path48"
             inkscape:connector-curvature="0" /></g><g
           id="g50"
           transform="translate(369.4489,491.2676)"><path
             d="m 0,0 -0.609,0.256 c -1.202,0.498 -2.051,1.009 -2.551,1.531 -0.5,0.527 -0.917,1.004 -1.259,1.426 1.035,0.43 1.719,0.768 2.052,1.009 0.333,0.243 0.626,0.467 0.885,0.673 0.741,0.12 1.128,0.277 1.153,0.486 0.017,0.108 -0.065,0.248 -0.246,0.416 -0.184,0.17 -0.469,0.34 -0.865,0.508 -0.389,0.167 -0.744,0.32 -1.064,0.464 C -2.821,6.908 -3.06,6.973 -3.219,6.958 -3.34,6.941 -3.417,6.908 -3.454,6.857 L -3.546,6.566 -3.683,6.181 C -3.733,6.043 -3.866,5.797 -4.065,5.447 -4.273,5.094 -4.441,4.842 -4.576,4.68 -4.712,4.522 -4.86,4.369 -5.01,4.219 l -0.577,1.185 c -0.094,0.16 -0.29,0.901 -0.586,2.215 h 1.334 V 7.527 c 0,-0.28 0.235,-0.447 0.703,-0.507 0.221,-0.034 0.52,-0.038 0.902,-0.004 0.383,0.031 0.669,0.103 0.862,0.217 0.188,0.11 0.347,0.29 0.456,0.541 l -0.101,2.302 v 4.203 c 0.448,0.402 0.663,0.686 0.65,0.843 -0.018,0.093 -0.133,0.225 -0.352,0.398 -0.213,0.173 -0.719,0.501 -1.513,0.984 -0.35,0.205 -0.613,0.3 -0.779,0.284 -0.167,-0.022 -0.354,-0.172 -0.562,-0.458 -0.17,-0.233 -0.332,-0.455 -0.49,-0.661 h -3.959 l -1.666,0.835 c -0.559,0.271 -0.881,0.387 -0.961,0.34 -0.087,-0.04 -0.15,-0.092 -0.196,-0.15 l 0.102,-2.337 V 6.602 c -0.191,0.27 -0.489,0.594 -0.892,0.97 -0.413,0.371 -0.687,0.551 -0.828,0.532 -0.144,-0.018 -0.271,-0.088 -0.381,-0.209 -0.113,-0.125 -0.244,-0.276 -0.4,-0.463 C -14.396,7.244 -14.614,7 -14.892,6.699 h -0.343 v 2.285 c 0.168,0.123 0.311,0.268 0.43,0.431 h 2.12 c 0.231,0 0.365,0.057 0.408,0.168 0.045,0.109 0.011,0.257 -0.104,0.437 -0.121,0.18 -0.364,0.445 -0.741,0.799 -0.37,0.349 -0.622,0.533 -0.754,0.547 -0.158,0.009 -0.309,-0.054 -0.456,-0.182 -0.148,-0.129 -0.301,-0.295 -0.46,-0.502 -0.159,-0.205 -0.345,-0.426 -0.553,-0.662 h -2.766 l -0.988,0.033 c 0.593,0.717 1.191,1.506 1.79,2.365 h 0.032 l 3.583,-0.066 1.325,-0.09 c 0.27,0.076 0.461,0.473 0.261,0.776 l -0.014,0.033 c -0.086,0.188 -0.434,0.568 -1.037,1.146 -0.273,0.242 -0.472,0.357 -0.602,0.34 -0.13,-0.019 -0.296,-0.141 -0.505,-0.364 -0.202,-0.22 -0.503,-0.574 -0.897,-1.056 l -1.618,0.039 c 0.27,0.409 0.668,1.101 1.194,2.077 0.549,0.19 0.822,0.374 0.829,0.546 0,0.279 -0.63,0.619 -1.892,1.017 l -0.911,0.28 c -0.465,0.166 -0.744,0.15 -0.839,-0.043 l -0.067,-0.453 -0.121,-0.616 c -0.07,-0.325 -0.223,-0.902 -0.459,-1.739 -0.23,-0.83 -0.493,-1.676 -0.782,-2.526 -0.291,-0.852 -0.625,-1.637 -0.989,-2.347 L -21.13,8.791 c -0.036,-0.082 -0.033,-0.181 0.01,-0.301 0.048,-0.123 0.127,-0.172 0.244,-0.138 0.12,0.035 0.213,0.082 0.278,0.148 l 0.388,0.398 0.748,0.776 c 0.028,0.03 0.079,0.082 0.146,0.15 l 0.386,-0.498 0.976,0.089 V 6.699 h -1.668 L -20.928,6.779 -21,6.785 V 6.782 h -0.003 l 0.405,-0.72 h 0.007 l 0.07,-0.121 1.349,0.07 1.218,-0.017 -0.012,-4.742 c -0.008,-0.318 -0.088,-0.559 -0.241,-0.72 -0.158,-0.16 -0.235,-0.242 -0.235,-0.242 -0.062,-0.108 -0.062,-0.259 -0.006,-0.453 0.057,-0.195 0.226,-0.546 0.51,-1.056 0.284,-0.511 0.511,-0.888 0.68,-1.128 0.17,-0.239 0.318,-0.37 0.45,-0.393 0.096,-0.03 0.173,-0.026 0.233,0.005 0.051,0.032 0.145,0.138 0.272,0.32 l 0.377,0.519 c 0.515,0.717 0.934,1.287 1.256,1.706 0.326,0.421 1.078,1.252 2.245,2.499 l 0.477,0.505 c 0.091,0.1 0.133,0.209 0.127,0.335 -0.008,0.123 -0.073,0.19 -0.194,0.205 -0.121,0.013 -0.212,0.006 -0.271,-0.024 l -0.75,-0.385 -1.247,-0.628 c -0.219,-0.112 -0.536,-0.278 -0.952,-0.495 v 4.139 l 1.882,-0.022 1.332,-0.111 c 0.115,0.032 0.214,0.122 0.278,0.24 l -0.012,-4.914 c -0.006,-0.293 -0.039,-0.492 -0.09,-0.588 -0.054,-0.096 -0.13,-0.207 -0.239,-0.324 -0.104,-0.118 -0.163,-0.211 -0.182,-0.277 -0.057,-0.192 0.122,-0.639 0.534,-1.346 l 0.817,-1.293 c 0.151,-0.248 0.287,-0.376 0.409,-0.39 0.09,-0.016 0.159,-0.004 0.202,0.025 0.046,0.035 0.132,0.123 0.263,0.266 l 0.417,0.485 0.783,0.843 0.974,1.087 0.916,0.96 0.02,0.02 V 0.621 c 0.154,0.166 0.372,0.415 0.662,0.748 0.031,-0.07 0.094,-0.215 0.183,-0.432 0.094,-0.216 0.376,-0.685 0.856,-1.415 0.481,-0.723 1.019,-1.316 1.628,-1.776 l 0.383,-0.281 c 0.132,-0.104 0.233,-0.164 0.308,-0.195 0.164,-0.081 0.287,-0.098 0.369,-0.057 0.078,0.039 0.217,0.266 0.42,0.672 0.198,0.409 0.456,0.723 0.768,0.933 0.316,0.213 0.549,0.34 0.708,0.382 l 0.615,0.163 C 0.201,-0.58 0.315,-0.479 0.304,-0.34 0.289,-0.199 0.192,-0.085 0,0 m -9.022,14.664 h 4.184 v -2.36 h -4.184 z m 0.011,-13.51 -0.011,6.465 h 1.575 L -7.391,6.924 C -7.315,5.959 -7.251,5.293 -7.196,4.917 -7.143,4.558 -7.055,4.12 -6.931,3.604 L -6.919,3.549 C -6.788,3.012 -6.647,2.469 -6.504,1.932 -7.094,1.744 -8.213,1.395 -9.011,1.154 m -0.011,10.142 h 4.184 V 8.625 h -4.184 z"
             style="fill:#231f20;fill-opacity:1;fill-rule:nonzero;stroke:none"
             id="path52"
             inkscape:connector-curvature="0" /></g><g
           id="g54"
           transform="translate(382.0651,506.1289)"><path
             d="m 0,0 0.326,-0.408 0.28,-0.386 1.352,0.071 7.172,-0.053 1.33,-0.109 c 0.282,0.08 0.489,0.468 0.19,0.801 C 10.499,0.107 10.249,0.36 9.898,0.671 L 9.001,1.502 C 8.731,1.73 8.509,1.844 8.345,1.84 8.177,1.837 7.958,1.685 7.693,1.389 7.429,1.098 7.054,0.61 6.565,-0.078 L 1.856,-0.07 -0.006,0.05 0.031,-0.004 Z m 12.425,-5.276 c -0.107,0.235 -0.404,0.596 -0.887,1.083 -0.684,0.687 -1.143,1.044 -1.378,1.068 C 9.917,-3.11 9.591,-3.366 9.181,-3.879 8.777,-4.399 8.445,-4.837 8.195,-5.199 H 0.464 l -1.27,0.107 0.012,0.023 c 0.414,0.028 0.653,0.135 0.716,0.323 0.082,0.263 -0.3,0.653 -1.14,1.179 -0.845,0.521 -1.327,0.82 -1.456,0.894 -0.284,0.129 -0.466,0.168 -0.551,0.118 -0.09,-0.053 -0.157,-0.133 -0.212,-0.248 l -0.17,-0.367 -0.407,-0.799 -0.019,-0.037 c -0.213,-0.406 -0.433,-0.815 -0.66,-1.229 -0.233,-0.428 -0.68,-1.126 -1.332,-2.091 -0.654,-0.967 -1.285,-1.772 -1.889,-2.413 l -0.429,-0.451 c -0.118,-0.119 -0.17,-0.222 -0.17,-0.322 0,-0.094 0.042,-0.191 0.132,-0.288 0.085,-0.099 0.298,-0.037 0.639,0.186 l 0.643,0.424 c 0.976,0.631 1.681,1.112 2.111,1.442 v -6.35 l -0.113,-2.47 c 0.066,-0.129 0.166,-0.239 0.296,-0.327 0.099,-0.066 0.355,-0.094 0.772,-0.085 0.114,0.001 0.244,0.008 0.383,0.017 0.643,0.041 1.064,0.156 1.269,0.35 0.205,0.195 0.338,0.402 0.396,0.627 l -0.124,2.06 v 7.084 c 0.348,0.332 0.514,0.563 0.502,0.691 -0.006,0.127 -0.116,0.254 -0.321,0.374 -0.205,0.117 -0.393,0.228 -0.565,0.326 l 0.1,0.09 1.051,1.045 c 0.049,0.044 0.13,0.107 0.242,0.195 l 0.185,-0.223 0.462,-0.636 1.351,0.07 4.7,-0.024 -0.024,-7.99 c -0.007,-0.272 -0.056,-0.51 -0.149,-0.719 -0.096,-0.201 -0.444,-0.275 -1.058,-0.218 -0.607,0.056 -0.958,0.093 -1.054,0.107 l -0.411,0.033 c -0.318,0.022 -0.55,0.006 -0.698,-0.043 -0.147,-0.051 -0.222,-0.15 -0.227,-0.304 -0.003,-0.152 0.046,-0.254 0.155,-0.31 0.104,-0.061 0.329,-0.121 0.67,-0.185 l 0.611,-0.127 c 0.191,-0.045 0.355,-0.152 0.496,-0.325 0.145,-0.173 0.24,-0.38 0.283,-0.614 l 0.037,-0.648 c 0.006,-0.211 0.045,-0.347 0.112,-0.408 0.07,-0.067 0.189,-0.112 0.363,-0.133 0.334,-0.048 0.972,0.021 1.918,0.212 0.956,0.188 1.516,0.442 1.693,0.76 0.181,0.316 0.266,0.697 0.266,1.134 v 9.435 c 0.057,0.054 0.153,0.165 0.295,0.324 l 1.959,-0.011 1.327,-0.108 c 0.278,0.078 0.481,0.487 0.263,0.796 m -19.971,0.687 c 0.14,0.026 0.371,0.124 0.689,0.296 l 0.475,0.262 c 0.036,0.017 0.329,0.201 0.87,0.548 l 1.452,0.85 0.027,0.02 1.834,1.243 c 0.226,0.151 0.581,0.384 1.065,0.692 0.545,-0.029 0.863,0.033 0.951,0.191 0.056,0.096 0.027,0.251 -0.074,0.473 -0.098,0.215 -0.467,0.612 -1.105,1.182 L -2.187,1.877 C -2.528,2.187 -2.761,2.321 -2.889,2.285 -3.01,2.253 -3.125,2.139 -3.232,1.955 L -3.402,1.642 -3.808,1.004 -4.033,0.644 -4.454,-0.034 c -0.29,-0.445 -0.67,-0.989 -1.142,-1.63 -0.47,-0.647 -0.929,-1.182 -1.367,-1.613 L -7.437,-3.739 C -7.702,-4 -7.852,-4.176 -7.893,-4.264 c -0.037,-0.093 -0.021,-0.172 0.041,-0.25 0.067,-0.075 0.167,-0.099 0.306,-0.075"
             style="fill:#231f20;fill-opacity:1;fill-rule:nonzero;stroke:none"
             id="path56"
             inkscape:connector-curvature="0" /></g><g
           id="g58"
           transform="translate(390.6783,475.2539)"><path
             d="M 0,0 V 0.359 H 0.826 L 0,2.299 V 3.754 L 0.005,3.77 C 0.048,3.881 0.091,3.967 0.13,4.032 0.169,4.099 0.229,4.133 0.306,4.137 0.384,4.142 0.441,4.118 0.48,4.068 0.52,4.02 0.568,3.934 0.628,3.81 L 2.724,-0.778 C 2.744,-0.819 2.787,-0.896 2.865,-1.01 2.938,-1.124 2.996,-1.209 3.041,-1.262 3.082,-1.314 3.138,-1.364 3.205,-1.405 3.272,-1.447 3.332,-1.474 3.386,-1.48 L 3.46,-1.494 C 3.498,-1.503 3.531,-1.514 3.56,-1.527 3.589,-1.546 3.607,-1.57 3.613,-1.601 3.617,-1.637 3.601,-1.67 3.574,-1.701 3.542,-1.732 3.505,-1.748 3.46,-1.748 H 0.882 c -0.086,0 -0.146,0.008 -0.181,0.022 -0.035,0.014 -0.053,0.051 -0.047,0.112 0.006,0.036 0.019,0.063 0.051,0.087 0.033,0.017 0.072,0.029 0.121,0.033 l 0.146,0.014 c 0.053,0.003 0.11,0.015 0.175,0.039 0.065,0.021 0.116,0.065 0.153,0.131 0.041,0.066 0.059,0.138 0.054,0.219 -0.007,0.085 -0.019,0.147 -0.032,0.187 L 0.925,0 Z M 0,3.754 V 2.299 L -0.024,2.357 -0.825,0.359 H 0 V 0 h -0.958 l -0.3,-0.917 c -0.043,-0.126 -0.053,-0.227 -0.032,-0.306 0.019,-0.08 0.057,-0.138 0.114,-0.179 0.058,-0.039 0.117,-0.065 0.177,-0.073 0.059,-0.012 0.114,-0.019 0.161,-0.019 h 0.088 c 0.035,0 0.066,-0.014 0.097,-0.043 0.031,-0.03 0.048,-0.061 0.043,-0.095 -0.006,-0.05 -0.031,-0.082 -0.077,-0.094 -0.043,-0.016 -0.11,-0.022 -0.194,-0.022 h -1.66 c -0.111,0 -0.189,0.008 -0.227,0.022 -0.04,0.014 -0.06,0.048 -0.06,0.103 0,0.053 0.017,0.086 0.052,0.102 0.035,0.011 0.081,0.018 0.14,0.027 l 0.095,0.014 c 0.039,0.003 0.1,0.019 0.181,0.056 0.083,0.035 0.149,0.074 0.206,0.119 0.053,0.045 0.109,0.102 0.159,0.165 0.053,0.066 0.099,0.128 0.137,0.191 0.037,0.06 0.067,0.119 0.087,0.171 z m -36.263,-5.557 v 0.362 c 0.024,-0.003 0.048,-0.003 0.07,-0.003 0.084,-0.003 0.172,0.004 0.259,0.018 0.093,0.018 0.2,0.053 0.321,0.11 0.123,0.054 0.233,0.144 0.333,0.265 0.099,0.124 0.177,0.285 0.237,0.476 0.059,0.194 0.099,0.354 0.122,0.485 0.021,0.129 0.038,0.343 0.052,0.642 0.017,0.298 0.023,0.495 0.026,0.593 0,0.101 -0.003,0.249 -0.01,0.448 -0.019,0.267 -0.032,0.489 -0.047,0.665 -0.018,0.172 -0.044,0.338 -0.076,0.496 -0.033,0.161 -0.081,0.304 -0.144,0.432 -0.061,0.125 -0.15,0.234 -0.263,0.324 -0.112,0.094 -0.248,0.158 -0.403,0.201 -0.157,0.043 -0.303,0.065 -0.436,0.065 h -0.041 v 0.353 h 0.03 c 0.22,-0.002 0.435,-0.023 0.646,-0.064 0.21,-0.041 0.406,-0.098 0.584,-0.173 0.179,-0.074 0.345,-0.165 0.498,-0.273 0.154,-0.109 0.291,-0.232 0.412,-0.371 0.118,-0.14 0.229,-0.305 0.325,-0.492 0.099,-0.187 0.171,-0.391 0.225,-0.608 0.051,-0.218 0.084,-0.416 0.099,-0.597 0.012,-0.18 0.018,-0.342 0.018,-0.488 -0.003,-0.204 -0.017,-0.391 -0.041,-0.565 -0.025,-0.176 -0.066,-0.344 -0.121,-0.51 -0.052,-0.165 -0.13,-0.337 -0.233,-0.515 -0.103,-0.179 -0.231,-0.344 -0.381,-0.495 -0.151,-0.15 -0.297,-0.265 -0.43,-0.342 -0.136,-0.077 -0.298,-0.155 -0.495,-0.234 -0.193,-0.08 -0.33,-0.127 -0.407,-0.142 -0.073,-0.013 -0.2,-0.029 -0.378,-0.041 -0.177,-0.013 -0.287,-0.022 -0.33,-0.022 z m 17.027,5.652 0.076,-1.468 c 0.005,-0.059 -0.001,-0.115 -0.013,-0.162 -0.009,-0.049 -0.024,-0.084 -0.043,-0.105 -0.02,-0.018 -0.054,-0.032 -0.096,-0.036 -0.05,-0.006 -0.084,0.007 -0.108,0.036 -0.022,0.033 -0.043,0.078 -0.058,0.134 l -0.031,0.109 c -0.029,0.095 -0.083,0.212 -0.154,0.354 -0.077,0.144 -0.158,0.262 -0.249,0.363 -0.088,0.102 -0.191,0.19 -0.312,0.27 -0.116,0.076 -0.254,0.146 -0.418,0.205 -0.162,0.06 -0.349,0.092 -0.556,0.094 -0.229,0.004 -0.422,-0.034 -0.591,-0.11 -0.164,-0.076 -0.296,-0.175 -0.398,-0.302 -0.101,-0.126 -0.182,-0.264 -0.243,-0.411 -0.06,-0.15 -0.115,-0.314 -0.158,-0.498 -0.046,-0.183 -0.075,-0.355 -0.093,-0.519 -0.015,-0.166 -0.024,-0.358 -0.021,-0.578 0,-0.152 0.003,-0.322 0.01,-0.512 0.005,-0.187 0.02,-0.369 0.047,-0.542 0.027,-0.173 0.069,-0.343 0.13,-0.509 0.061,-0.166 0.143,-0.314 0.25,-0.447 0.106,-0.127 0.237,-0.238 0.39,-0.328 0.155,-0.09 0.303,-0.153 0.438,-0.183 0.139,-0.032 0.292,-0.04 0.467,-0.023 0.177,0.016 0.334,0.053 0.471,0.11 0.133,0.059 0.264,0.137 0.381,0.229 0.12,0.094 0.233,0.203 0.345,0.33 0.11,0.129 0.204,0.25 0.281,0.367 0.072,0.119 0.144,0.193 0.202,0.223 0.062,0.032 0.108,0.037 0.147,0.009 0.043,-0.025 0.065,-0.068 0.07,-0.127 0.006,-0.06 -0.016,-0.138 -0.07,-0.234 -0.093,-0.168 -0.181,-0.314 -0.264,-0.437 -0.082,-0.122 -0.2,-0.256 -0.354,-0.407 -0.152,-0.147 -0.314,-0.258 -0.478,-0.335 -0.166,-0.075 -0.352,-0.132 -0.559,-0.164 -0.203,-0.035 -0.402,-0.05 -0.598,-0.048 -0.231,0 -0.468,0.026 -0.707,0.071 -0.24,0.047 -0.464,0.123 -0.671,0.222 -0.206,0.1 -0.409,0.25 -0.6,0.446 -0.192,0.2 -0.338,0.39 -0.438,0.578 -0.099,0.187 -0.172,0.369 -0.222,0.553 -0.047,0.182 -0.077,0.358 -0.098,0.531 -0.017,0.174 -0.026,0.338 -0.026,0.498 0,0.158 0.014,0.357 0.047,0.592 0.027,0.233 0.072,0.438 0.131,0.607 0.056,0.172 0.133,0.338 0.233,0.502 0.098,0.165 0.198,0.304 0.299,0.42 0.098,0.114 0.22,0.22 0.358,0.319 0.138,0.101 0.285,0.188 0.442,0.265 0.152,0.078 0.318,0.136 0.502,0.18 0.181,0.045 0.39,0.075 0.62,0.084 0.199,0.003 0.378,-0.003 0.537,-0.027 0.158,-0.021 0.314,-0.062 0.465,-0.114 0.154,-0.052 0.288,-0.109 0.403,-0.173 0.115,-0.063 0.208,-0.102 0.274,-0.116 0.064,-0.012 0.121,0 0.173,0.035 0.028,0.021 0.052,0.049 0.067,0.092 0.014,0.039 0.029,0.086 0.039,0.137 0.014,0.051 0.03,0.095 0.053,0.127 0.026,0.036 0.061,0.052 0.106,0.053 0.046,0.001 0.085,-0.012 0.115,-0.038 0.019,-0.023 0.03,-0.055 0.039,-0.091 0.011,-0.039 0.016,-0.071 0.019,-0.101 m 4.531,-2.229 v 1.406 c 0,0.068 -0.009,0.15 -0.027,0.246 -0.016,0.096 -0.051,0.182 -0.103,0.257 -0.055,0.075 -0.121,0.137 -0.202,0.186 -0.083,0.05 -0.161,0.082 -0.234,0.095 l -0.078,0.013 c -0.025,10e-4 -0.054,0.014 -0.085,0.036 -0.03,0.024 -0.039,0.059 -0.03,0.099 0.008,0.044 0.026,0.077 0.057,0.095 0.027,0.018 0.064,0.027 0.113,0.027 h 2.566 c 0.048,-0.002 0.082,-0.012 0.106,-0.027 0.023,-0.017 0.037,-0.047 0.038,-0.09 0.003,-0.041 -0.009,-0.074 -0.026,-0.1 -0.019,-0.023 -0.047,-0.034 -0.086,-0.039 L -12.787,3.813 C -12.867,3.802 -12.943,3.777 -13.011,3.74 -13.083,3.702 -13.146,3.647 -13.204,3.568 -13.262,3.49 -13.303,3.399 -13.328,3.29 -13.352,3.185 -13.363,3.088 -13.363,3.001 v -3.755 c 0,-0.082 0.006,-0.169 0.023,-0.263 0.019,-0.093 0.055,-0.172 0.11,-0.239 0.054,-0.066 0.125,-0.12 0.213,-0.156 0.083,-0.038 0.156,-0.062 0.213,-0.068 l 0.076,-0.014 c 0.026,-0.004 0.057,-0.018 0.089,-0.043 0.032,-0.021 0.049,-0.054 0.049,-0.095 -0.003,-0.042 -0.023,-0.069 -0.056,-0.089 -0.039,-0.019 -0.088,-0.027 -0.15,-0.027 h -2.533 c -0.048,0 -0.089,0.012 -0.122,0.034 -0.033,0.023 -0.044,0.061 -0.029,0.113 0.004,0.031 0.022,0.055 0.046,0.075 0.027,0.016 0.057,0.028 0.088,0.032 l 0.081,0.014 c 0.046,0.005 0.107,0.021 0.179,0.052 0.072,0.029 0.14,0.075 0.202,0.136 0.065,0.056 0.107,0.136 0.136,0.228 0.026,0.091 0.04,0.191 0.043,0.298 v 2.044 h -2.052 v -2.044 c 0,-0.091 0.012,-0.181 0.035,-0.264 0.024,-0.087 0.062,-0.166 0.122,-0.239 0.06,-0.075 0.129,-0.125 0.2,-0.157 0.077,-0.031 0.141,-0.049 0.201,-0.054 l 0.092,-0.014 c 0.024,-0.004 0.048,-0.02 0.078,-0.045 0.026,-0.027 0.037,-0.058 0.037,-0.098 0.003,-0.037 -0.009,-0.064 -0.037,-0.084 -0.03,-0.019 -0.067,-0.027 -0.113,-0.027 h -2.571 c -0.043,0 -0.084,0.012 -0.115,0.034 -0.032,0.023 -0.044,0.061 -0.033,0.113 0.006,0.027 0.021,0.05 0.049,0.074 0.027,0.017 0.056,0.029 0.082,0.033 l 0.089,0.014 c 0.036,0.003 0.084,0.019 0.148,0.049 0.064,0.032 0.131,0.076 0.197,0.128 0.07,0.056 0.123,0.131 0.156,0.233 0.035,0.097 0.053,0.201 0.055,0.304 v 3.792 c 0,0.066 -0.008,0.146 -0.026,0.25 -0.018,0.1 -0.056,0.198 -0.116,0.288 -0.06,0.09 -0.126,0.151 -0.198,0.186 -0.071,0.029 -0.135,0.051 -0.197,0.06 l -0.097,0.013 c -0.034,10e-4 -0.069,0.014 -0.097,0.036 -0.03,0.024 -0.042,0.059 -0.033,0.099 0.009,0.044 0.03,0.077 0.061,0.095 0.032,0.018 0.066,0.027 0.109,0.027 h 2.557 c 0.035,-0.002 0.069,-0.009 0.102,-0.018 0.028,-0.011 0.045,-0.044 0.048,-0.097 0.003,-0.054 -0.014,-0.089 -0.046,-0.107 -0.032,-0.018 -0.06,-0.029 -0.089,-0.034 L -16.199,3.813 C -16.262,3.802 -16.332,3.776 -16.404,3.737 -16.474,3.698 -16.543,3.635 -16.612,3.554 -16.68,3.469 -16.719,3.385 -16.733,3.301 -16.749,3.217 -16.757,3.133 -16.757,3.045 V 1.62 Z m 4.493,-2.374 c 0.004,-0.11 0.018,-0.21 0.031,-0.297 0.021,-0.083 0.057,-0.16 0.118,-0.227 0.058,-0.064 0.132,-0.113 0.223,-0.148 0.093,-0.031 0.17,-0.049 0.237,-0.054 l 0.123,-0.014 c 0.039,-0.004 0.07,-0.013 0.088,-0.02 0.02,-0.011 0.031,-0.044 0.037,-0.097 0.002,-0.053 -0.007,-0.092 -0.037,-0.11 -0.028,-0.019 -0.07,-0.027 -0.122,-0.027 h -2.741 c -0.047,0 -0.087,0.008 -0.121,0.029 -0.029,0.02 -0.039,0.061 -0.026,0.118 0.006,0.031 0.021,0.055 0.049,0.075 0.026,0.016 0.055,0.028 0.083,0.032 l 0.099,0.014 c 0.049,0.005 0.108,0.023 0.191,0.054 0.079,0.032 0.151,0.076 0.212,0.134 0.061,0.056 0.11,0.148 0.145,0.265 0.034,0.119 0.052,0.225 0.058,0.316 v 3.733 c 0,0.072 -0.01,0.16 -0.024,0.268 -0.014,0.109 -0.055,0.2 -0.118,0.274 -0.061,0.073 -0.14,0.131 -0.231,0.17 -0.092,0.04 -0.167,0.064 -0.228,0.076 l -0.089,0.013 c -0.03,10e-4 -0.06,0.013 -0.087,0.035 -0.028,0.023 -0.039,0.053 -0.028,0.097 0.008,0.042 0.028,0.074 0.057,0.096 0.029,0.02 0.067,0.029 0.11,0.029 l 2.66,-0.002 C -9.497,4.074 -9.459,4.062 -9.433,4.041 -9.401,4.018 -9.392,3.986 -9.393,3.942 -9.401,3.911 -9.414,3.883 -9.441,3.859 -9.466,3.837 -9.495,3.824 -9.528,3.823 L -9.635,3.81 C -9.71,3.798 -9.785,3.77 -9.86,3.723 -9.938,3.675 -10.001,3.615 -10.058,3.542 -10.114,3.471 -10.151,3.397 -10.178,3.317 -10.199,3.236 -10.212,3.145 -10.212,3.051 Z m 6.325,-0.56 c 0.003,-0.15 -0.016,-0.266 -0.059,-0.352 -0.042,-0.085 -0.092,-0.132 -0.157,-0.141 -0.067,-0.006 -0.13,0.013 -0.197,0.059 -0.036,0.018 -0.084,0.062 -0.144,0.131 -0.064,0.066 -0.11,0.123 -0.139,0.164 l -3.26,4.281 v -3.719 c -0.003,-0.101 0.011,-0.187 0.046,-0.259 0.034,-0.073 0.095,-0.134 0.179,-0.188 0.087,-0.053 0.173,-0.088 0.26,-0.106 0.087,-0.02 0.158,-0.031 0.224,-0.036 l 0.126,-0.014 c 0.03,-0.004 0.072,-0.014 0.112,-0.027 0.043,-0.016 0.064,-0.049 0.064,-0.104 0.003,-0.057 -0.016,-0.09 -0.05,-0.107 -0.038,-0.016 -0.084,-0.025 -0.138,-0.021 l -1.995,0.005 c -0.046,0 -0.088,0.012 -0.124,0.039 -0.036,0.024 -0.046,0.063 -0.029,0.118 0.011,0.027 0.029,0.048 0.058,0.065 0.026,0.016 0.06,0.028 0.101,0.032 l 0.11,0.014 c 0.042,0 0.103,0.013 0.178,0.031 0.078,0.018 0.155,0.05 0.232,0.094 0.072,0.045 0.13,0.108 0.167,0.199 0.04,0.086 0.057,0.173 0.057,0.25 v 3.81 c 0,0.092 -0.005,0.193 -0.022,0.298 -0.012,0.109 -0.044,0.202 -0.091,0.289 -0.05,0.085 -0.105,0.15 -0.181,0.191 C -8.63,3.724 -8.702,3.754 -8.77,3.771 -8.84,3.792 -8.899,3.803 -8.942,3.81 l -0.121,0.013 c -0.024,0 -0.051,0.007 -0.081,0.026 -0.031,0.016 -0.041,0.053 -0.037,0.109 0.006,0.054 0.03,0.084 0.064,0.099 0.036,0.011 0.094,0.021 0.179,0.023 l 1.747,0.01 2.867,-3.706 v 2.827 c 0,0.069 -0.019,0.147 -0.051,0.232 C -4.406,3.527 -4.456,3.598 -4.519,3.651 -4.583,3.71 -4.656,3.746 -4.737,3.77 -4.822,3.79 -4.892,3.803 -4.955,3.81 L -5.18,3.823 c -0.039,0 -0.072,0.011 -0.104,0.033 -0.028,0.023 -0.037,0.056 -0.028,0.102 0.003,0.039 0.027,0.068 0.063,0.088 0.037,0.021 0.082,0.032 0.131,0.032 h 1.972 c 0.045,0 0.082,-0.013 0.113,-0.036 C -3.004,4.02 -2.988,3.984 -2.988,3.94 -2.993,3.906 -3.004,3.881 -3.021,3.858 -3.042,3.836 -3.07,3.824 -3.105,3.823 L -3.271,3.81 C -3.33,3.803 -3.405,3.785 -3.501,3.754 -3.595,3.719 -3.666,3.676 -3.714,3.623 -3.763,3.57 -3.807,3.496 -3.838,3.404 -3.87,3.316 -3.887,3.244 -3.887,3.192 Z m -27.167,0.588 c 0.002,-0.13 0.017,-0.24 0.037,-0.326 0.022,-0.087 0.067,-0.163 0.13,-0.226 0.064,-0.066 0.136,-0.113 0.212,-0.148 0.079,-0.031 0.142,-0.049 0.187,-0.054 l 0.094,-0.014 c 0.024,-0.004 0.049,-0.018 0.082,-0.037 0.023,-0.021 0.041,-0.049 0.047,-0.086 0.001,-0.036 -0.006,-0.068 -0.03,-0.097 -0.027,-0.026 -0.056,-0.039 -0.09,-0.034 l -2.71,0.003 c -0.046,0 -0.088,0.013 -0.119,0.036 -0.033,0.023 -0.042,0.059 -0.027,0.111 0.003,0.011 0.017,0.032 0.045,0.059 0.027,0.029 0.05,0.043 0.067,0.045 l 0.136,0.014 c 0.04,0 0.097,0.013 0.164,0.036 0.069,0.02 0.144,0.061 0.22,0.121 0.078,0.059 0.131,0.143 0.166,0.251 0.03,0.105 0.048,0.217 0.049,0.334 v 3.796 c 0,0.056 -0.006,0.139 -0.025,0.256 -0.019,0.115 -0.055,0.204 -0.118,0.266 -0.061,0.063 -0.133,0.115 -0.214,0.154 -0.084,0.04 -0.154,0.064 -0.218,0.076 l -0.102,0.016 c -0.034,0.003 -0.064,0.014 -0.095,0.033 -0.027,0.022 -0.038,0.052 -0.027,0.099 0.009,0.044 0.03,0.077 0.064,0.098 0.032,0.019 0.069,0.029 0.109,0.029 h 5.027 l -0.005,-1.578 c -0.003,-0.051 -0.012,-0.094 -0.029,-0.126 -0.012,-0.035 -0.039,-0.057 -0.076,-0.068 -0.042,-0.011 -0.079,-0.008 -0.109,0.009 -0.037,0.019 -0.062,0.051 -0.078,0.096 l -0.058,0.166 c -0.031,0.086 -0.078,0.184 -0.132,0.292 -0.052,0.108 -0.123,0.218 -0.214,0.328 -0.086,0.112 -0.199,0.21 -0.334,0.296 -0.133,0.084 -0.278,0.147 -0.416,0.182 -0.143,0.035 -0.26,0.054 -0.346,0.054 h -0.979 c -0.048,-0.002 -0.091,-0.009 -0.129,-0.021 -0.039,-0.008 -0.074,-0.03 -0.103,-0.061 -0.03,-0.029 -0.045,-0.056 -0.051,-0.083 -0.002,-0.023 -0.002,-0.075 -0.002,-0.147 V 1.441 h 0.606 c 0.064,0 0.136,0.012 0.202,0.034 0.069,0.025 0.136,0.058 0.194,0.097 0.063,0.039 0.126,0.101 0.193,0.192 0.067,0.086 0.118,0.16 0.149,0.219 0.038,0.06 0.066,0.125 0.093,0.196 0.023,0.069 0.046,0.126 0.063,0.167 0.018,0.041 0.051,0.066 0.098,0.074 0.05,0.015 0.087,0 0.117,-0.027 0.03,-0.032 0.045,-0.084 0.045,-0.148 V 0.231 c 0,-0.041 -0.012,-0.075 -0.036,-0.104 -0.022,-0.027 -0.06,-0.043 -0.111,-0.044 -0.052,0 -0.092,0.02 -0.127,0.063 -0.016,0.016 -0.04,0.065 -0.065,0.15 -0.024,0.084 -0.071,0.182 -0.135,0.29 -0.066,0.107 -0.137,0.201 -0.212,0.274 -0.075,0.076 -0.161,0.131 -0.253,0.169 -0.094,0.036 -0.163,0.055 -0.219,0.055 h -0.602 z m -5.209,4.855 V 3.776 C -36.394,3.77 -36.52,3.745 -36.644,3.702 -36.777,3.654 -36.896,3.589 -37.004,3.5 -37.113,3.416 -37.213,3.284 -37.31,3.111 -37.405,2.94 -37.475,2.75 -37.518,2.553 c -0.047,-0.201 -0.081,-0.42 -0.104,-0.654 -0.023,-0.237 -0.04,-0.466 -0.049,-0.69 -0.008,-0.224 -0.012,-0.39 -0.008,-0.491 0,-0.14 0.005,-0.296 0.023,-0.469 0.017,-0.171 0.043,-0.347 0.081,-0.524 0.037,-0.178 0.08,-0.313 0.13,-0.405 0.053,-0.092 0.106,-0.177 0.16,-0.257 0.057,-0.076 0.136,-0.154 0.233,-0.236 0.103,-0.08 0.237,-0.146 0.406,-0.198 0.135,-0.041 0.265,-0.065 0.383,-0.07 v -0.362 c -0.09,-0.002 -0.217,0.009 -0.373,0.029 -0.169,0.019 -0.325,0.048 -0.467,0.088 -0.14,0.04 -0.309,0.108 -0.504,0.209 -0.198,0.1 -0.37,0.21 -0.517,0.328 -0.146,0.12 -0.282,0.268 -0.406,0.44 -0.13,0.174 -0.227,0.342 -0.295,0.506 -0.071,0.162 -0.124,0.32 -0.158,0.475 -0.033,0.153 -0.058,0.286 -0.07,0.395 -0.012,0.111 -0.02,0.233 -0.021,0.363 0,0.088 0,0.198 10e-4,0.322 0.003,0.126 0.014,0.271 0.047,0.437 0.024,0.166 0.072,0.332 0.125,0.498 0.056,0.169 0.134,0.332 0.226,0.5 0.096,0.164 0.197,0.307 0.312,0.422 0.112,0.115 0.233,0.223 0.36,0.318 0.126,0.096 0.254,0.181 0.389,0.252 0.131,0.072 0.285,0.136 0.465,0.194 0.176,0.056 0.332,0.101 0.461,0.121 0.128,0.022 0.267,0.035 0.425,0.035 M -59.474,0 v 0.359 h 0.825 l -0.825,1.94 v 1.455 l 0.006,0.016 c 0.041,0.111 0.084,0.197 0.121,0.262 0.041,0.067 0.102,0.101 0.179,0.105 0.077,0.005 0.136,-0.019 0.172,-0.069 0.042,-0.048 0.088,-0.134 0.148,-0.258 l 2.097,-4.588 c 0.019,-0.041 0.063,-0.118 0.14,-0.232 0.075,-0.114 0.133,-0.199 0.176,-0.252 0.043,-0.052 0.098,-0.102 0.165,-0.143 0.067,-0.042 0.129,-0.069 0.181,-0.075 l 0.075,-0.014 c 0.037,-0.009 0.07,-0.02 0.098,-0.033 0.029,-0.019 0.048,-0.043 0.054,-0.074 0.004,-0.036 -0.01,-0.069 -0.039,-0.1 -0.031,-0.031 -0.067,-0.047 -0.113,-0.047 h -2.58 c -0.085,0 -0.146,0.008 -0.181,0.022 -0.035,0.014 -0.052,0.051 -0.046,0.112 0.006,0.036 0.021,0.063 0.051,0.087 0.033,0.017 0.073,0.029 0.121,0.033 l 0.148,0.014 c 0.049,0.003 0.106,0.015 0.173,0.039 0.066,0.021 0.118,0.065 0.154,0.131 0.042,0.066 0.058,0.138 0.052,0.219 -0.007,0.085 -0.017,0.147 -0.033,0.187 L -58.547,0 Z m 9.073,-1.314 c 0,-0.15 -0.018,-0.266 -0.061,-0.352 -0.042,-0.085 -0.093,-0.132 -0.159,-0.141 -0.065,-0.006 -0.127,0.013 -0.193,0.059 -0.038,0.018 -0.082,0.062 -0.147,0.131 -0.062,0.066 -0.107,0.123 -0.136,0.164 l -3.26,4.281 v -3.719 c -0.003,-0.101 0.011,-0.187 0.044,-0.259 0.034,-0.073 0.097,-0.134 0.181,-0.188 0.086,-0.053 0.171,-0.088 0.258,-0.106 0.088,-0.02 0.16,-0.031 0.225,-0.036 l 0.128,-0.014 c 0.029,-0.004 0.068,-0.014 0.109,-0.027 0.042,-0.016 0.064,-0.049 0.066,-0.104 10e-4,-0.057 -0.016,-0.09 -0.05,-0.107 -0.04,-0.016 -0.082,-0.025 -0.14,-0.021 l -1.994,0.005 c -0.045,0 -0.088,0.012 -0.123,0.039 -0.037,0.024 -0.046,0.063 -0.029,0.118 0.009,0.027 0.029,0.048 0.055,0.065 0.028,0.016 0.062,0.028 0.103,0.032 l 0.111,0.014 c 0.04,0 0.1,0.013 0.179,0.031 0.077,0.018 0.154,0.05 0.227,0.094 0.074,0.045 0.132,0.108 0.17,0.199 0.038,0.086 0.059,0.173 0.059,0.25 v 3.81 c 0,0.092 -0.009,0.193 -0.024,0.298 -0.011,0.109 -0.046,0.202 -0.093,0.289 -0.048,0.085 -0.106,0.15 -0.176,0.191 -0.074,0.042 -0.144,0.072 -0.215,0.089 -0.069,0.021 -0.127,0.032 -0.172,0.039 l -0.12,0.013 c -0.025,0 -0.052,0.007 -0.081,0.026 -0.03,0.016 -0.04,0.053 -0.037,0.109 0.007,0.054 0.029,0.084 0.063,0.099 0.037,0.011 0.097,0.021 0.179,0.023 l 1.747,0.01 2.867,-3.706 v 2.827 c 0,0.069 -0.018,0.147 -0.052,0.232 -0.032,0.084 -0.078,0.155 -0.141,0.208 -0.066,0.059 -0.139,0.095 -0.221,0.119 -0.082,0.02 -0.154,0.033 -0.218,0.04 l -0.222,0.013 c -0.04,0 -0.073,0.011 -0.104,0.033 -0.029,0.023 -0.041,0.056 -0.032,0.102 0.008,0.039 0.029,0.068 0.065,0.088 0.039,0.021 0.082,0.032 0.131,0.032 h 1.974 c 0.044,0 0.081,-0.013 0.112,-0.036 0.027,-0.022 0.044,-0.058 0.044,-0.102 -0.003,-0.034 -0.015,-0.059 -0.035,-0.082 -0.017,-0.022 -0.046,-0.034 -0.08,-0.035 L -49.787,3.81 c -0.059,-0.007 -0.136,-0.025 -0.231,-0.056 -0.09,-0.035 -0.163,-0.078 -0.21,-0.131 -0.052,-0.053 -0.092,-0.127 -0.125,-0.219 -0.031,-0.088 -0.048,-0.16 -0.048,-0.212 z m 3.173,2.705 1.61,1.665 c 0.038,0.041 0.077,0.097 0.121,0.168 0.046,0.073 0.079,0.144 0.109,0.218 0.035,0.07 0.039,0.134 0.024,0.189 -0.024,0.053 -0.06,0.093 -0.114,0.123 -0.055,0.031 -0.111,0.049 -0.16,0.056 l -0.138,0.013 c -0.061,10e-4 -0.104,0.007 -0.133,0.022 -0.029,0.011 -0.043,0.044 -0.044,0.097 -0.003,0.055 0.021,0.09 0.058,0.109 0.044,0.017 0.093,0.027 0.145,0.027 h 2.288 c 0.041,-0.003 0.079,-0.011 0.114,-0.022 0.039,-0.015 0.058,-0.044 0.059,-0.093 0,-0.051 -0.016,-0.084 -0.052,-0.105 -0.037,-0.024 -0.075,-0.035 -0.111,-0.035 h -0.069 c -0.062,0 -0.159,-0.02 -0.289,-0.053 -0.13,-0.036 -0.242,-0.073 -0.33,-0.109 -0.087,-0.039 -0.199,-0.102 -0.336,-0.187 -0.137,-0.087 -0.229,-0.157 -0.281,-0.212 l -0.987,-1.049 1.529,-2.638 c 0.018,-0.042 0.084,-0.135 0.195,-0.284 l 0.147,-0.208 c 0.063,-0.087 0.118,-0.155 0.17,-0.207 0.047,-0.052 0.105,-0.102 0.169,-0.159 0.066,-0.055 0.133,-0.098 0.193,-0.135 0.063,-0.037 0.121,-0.057 0.174,-0.062 l 0.113,-0.014 c 0.024,-0.004 0.054,-0.013 0.09,-0.025 0.039,-0.012 0.064,-0.045 0.07,-0.098 0.01,-0.053 -0.011,-0.089 -0.057,-0.106 -0.049,-0.017 -0.115,-0.025 -0.205,-0.025 h -2.576 c -0.044,0 -0.081,0.009 -0.113,0.029 -0.029,0.02 -0.039,0.058 -0.033,0.105 0.004,0.054 0.031,0.093 0.08,0.107 l 0.088,0.013 0.072,0.014 c 0.038,0.005 0.084,0.019 0.139,0.042 0.054,0.021 0.087,0.062 0.109,0.119 0.017,0.055 0.017,0.119 -0.005,0.193 -0.023,0.074 -0.041,0.13 -0.059,0.169 l -1.288,2.215 -0.486,-0.475 v -1.521 c 0,-0.081 0.009,-0.17 0.033,-0.262 0.022,-0.094 0.06,-0.173 0.109,-0.242 0.052,-0.066 0.117,-0.122 0.202,-0.166 0.084,-0.042 0.151,-0.067 0.199,-0.072 l 0.089,-0.014 c 0.035,-0.004 0.067,-0.02 0.093,-0.045 0.028,-0.027 0.043,-0.058 0.043,-0.091 -0.003,-0.055 -0.023,-0.089 -0.058,-0.1 -0.033,-0.012 -0.081,-0.018 -0.144,-0.018 h -2.533 c -0.052,0 -0.093,0.009 -0.124,0.033 -0.034,0.023 -0.043,0.059 -0.028,0.114 0.004,0.027 0.024,0.05 0.051,0.074 0.031,0.017 0.061,0.029 0.086,0.033 l 0.111,0.014 c 0.048,0.003 0.1,0.016 0.155,0.044 0.057,0.028 0.12,0.076 0.187,0.149 0.069,0.07 0.118,0.147 0.148,0.229 0.027,0.08 0.04,0.179 0.043,0.292 v 3.79 c 0,0.073 -0.009,0.158 -0.021,0.256 -0.016,0.098 -0.052,0.188 -0.103,0.262 -0.059,0.08 -0.127,0.142 -0.205,0.188 -0.081,0.047 -0.15,0.073 -0.208,0.08 l -0.153,0.008 c -0.037,0 -0.066,0.012 -0.097,0.037 -0.03,0.024 -0.039,0.056 -0.03,0.096 0.009,0.043 0.03,0.075 0.057,0.094 0.03,0.02 0.07,0.029 0.113,0.029 l 2.629,-0.006 c 0.046,-10e-4 0.084,-0.011 0.106,-0.027 0.024,-0.021 0.037,-0.051 0.037,-0.09 -0.004,-0.054 -0.019,-0.089 -0.044,-0.102 -0.027,-0.015 -0.056,-0.025 -0.092,-0.026 L -46.711,3.81 c -0.075,-0.009 -0.144,-0.033 -0.216,-0.074 -0.071,-0.041 -0.133,-0.101 -0.182,-0.177 -0.049,-0.08 -0.083,-0.16 -0.098,-0.245 -0.015,-0.085 -0.021,-0.173 -0.021,-0.263 z M -59.474,3.754 V 2.299 l -0.025,0.058 -0.8,-1.998 h 0.825 V 0 h -0.961 l -0.298,-0.917 c -0.041,-0.126 -0.053,-0.227 -0.034,-0.306 0.018,-0.08 0.059,-0.138 0.117,-0.179 0.058,-0.039 0.118,-0.065 0.176,-0.073 0.06,-0.012 0.114,-0.019 0.161,-0.019 h 0.089 c 0.032,0 0.064,-0.014 0.097,-0.043 0.03,-0.03 0.045,-0.061 0.042,-0.095 -0.006,-0.05 -0.032,-0.082 -0.075,-0.094 -0.046,-0.016 -0.111,-0.022 -0.197,-0.022 h -1.659 c -0.114,0 -0.19,0.008 -0.224,0.022 -0.044,0.014 -0.063,0.048 -0.063,0.103 0,0.053 0.018,0.086 0.051,0.102 0.034,0.011 0.082,0.018 0.142,0.027 l 0.094,0.014 c 0.038,0.003 0.099,0.019 0.181,0.056 0.082,0.035 0.149,0.074 0.206,0.119 0.054,0.045 0.108,0.102 0.161,0.165 0.053,0.066 0.096,0.128 0.135,0.191 0.036,0.06 0.064,0.119 0.085,0.171 z m -5.456,-5.502 v 0.365 c 0.131,0.005 0.251,0.022 0.364,0.051 0.132,0.033 0.253,0.102 0.358,0.202 0.106,0.101 0.176,0.212 0.209,0.331 0.033,0.121 0.056,0.256 0.063,0.407 0.01,0.15 0.015,0.267 0.015,0.351 -0.006,0.162 -0.037,0.315 -0.092,0.459 -0.054,0.143 -0.142,0.263 -0.265,0.358 -0.118,0.09 -0.262,0.164 -0.428,0.214 -0.068,0.017 -0.143,0.034 -0.224,0.047 v 0.441 c 0.155,0.04 0.297,0.103 0.43,0.189 0.137,0.087 0.245,0.2 0.323,0.339 0.079,0.141 0.118,0.318 0.121,0.536 0.003,0.22 -0.015,0.399 -0.063,0.544 -0.061,0.183 -0.145,0.313 -0.254,0.398 -0.109,0.084 -0.228,0.144 -0.353,0.177 -0.068,0.018 -0.137,0.032 -0.204,0.041 V 4.08 h 0.249 c 0.218,-0.002 0.423,-0.013 0.616,-0.031 0.191,-0.02 0.365,-0.052 0.511,-0.099 0.148,-0.049 0.286,-0.12 0.413,-0.21 0.127,-0.091 0.228,-0.199 0.307,-0.316 0.078,-0.119 0.135,-0.266 0.175,-0.438 0.032,-0.172 0.032,-0.353 -0.012,-0.543 -0.037,-0.157 -0.095,-0.287 -0.173,-0.394 -0.078,-0.105 -0.175,-0.201 -0.288,-0.283 -0.113,-0.084 -0.271,-0.164 -0.468,-0.244 -0.199,-0.077 -0.352,-0.121 -0.464,-0.135 l -0.56,-0.094 c 0.272,-0.029 0.499,-0.059 0.681,-0.09 0.182,-0.032 0.366,-0.083 0.551,-0.155 0.186,-0.071 0.34,-0.157 0.461,-0.258 0.121,-0.102 0.226,-0.236 0.311,-0.413 0.087,-0.174 0.133,-0.372 0.137,-0.594 0.005,-0.222 -0.049,-0.441 -0.153,-0.654 -0.069,-0.134 -0.162,-0.255 -0.277,-0.365 -0.112,-0.108 -0.269,-0.208 -0.465,-0.295 -0.199,-0.086 -0.392,-0.144 -0.588,-0.175 -0.193,-0.026 -0.389,-0.042 -0.588,-0.042 z m 0,5.828 V 3.702 c -0.054,0.006 -0.106,0.009 -0.162,0.009 h -0.421 c -0.057,0 -0.118,-0.008 -0.187,-0.023 -0.07,-0.018 -0.115,-0.039 -0.145,-0.065 -0.027,-0.027 -0.051,-0.072 -0.067,-0.131 -0.019,-0.055 -0.029,-0.13 -0.029,-0.218 V 1.42 h 0.595 c 0.111,0 0.245,0.019 0.405,0.055 l 0.011,0.003 V 1.037 c -0.118,0.016 -0.248,0.026 -0.389,0.026 h -0.622 V -1.03 c 0,-0.1 0.01,-0.173 0.029,-0.217 0.016,-0.045 0.053,-0.081 0.104,-0.103 0.054,-0.023 0.145,-0.033 0.266,-0.033 h 0.54 0.072 v -0.365 h -3.004 c -0.048,-0.005 -0.087,0.006 -0.127,0.029 -0.035,0.025 -0.044,0.061 -0.035,0.114 0.006,0.035 0.024,0.057 0.054,0.074 0.029,0.012 0.076,0.027 0.14,0.037 0.062,0.011 0.127,0.027 0.196,0.047 0.069,0.021 0.139,0.058 0.211,0.114 0.075,0.055 0.127,0.124 0.164,0.209 0.033,0.085 0.047,0.2 0.047,0.343 v 3.916 c 0,0.089 -0.009,0.173 -0.032,0.255 -0.026,0.081 -0.059,0.151 -0.107,0.208 -0.045,0.056 -0.107,0.104 -0.18,0.139 -0.077,0.039 -0.152,0.061 -0.224,0.069 -0.072,0.009 -0.128,0.023 -0.161,0.043 -0.038,0.019 -0.05,0.053 -0.038,0.101 0.007,0.047 0.026,0.079 0.056,0.101 0.03,0.02 0.068,0.029 0.112,0.029 z m -64.644,-3.476 -0.086,-0.015 c -0.049,-0.011 -0.099,-0.037 -0.149,-0.078 -0.05,-0.04 -0.09,-0.084 -0.124,-0.128 -0.03,-0.046 -0.058,-0.113 -0.081,-0.207 -0.027,-0.093 -0.039,-0.156 -0.042,-0.188 l -0.164,-1.534 c -0.01,-0.075 -0.032,-0.134 -0.062,-0.168 -0.033,-0.037 -0.082,-0.058 -0.149,-0.065 -0.065,-0.007 -0.127,0.017 -0.184,0.073 -0.015,0.019 -0.041,0.054 -0.07,0.109 -0.029,0.056 -0.066,0.114 -0.109,0.176 -0.042,0.063 -0.09,0.118 -0.139,0.165 -0.045,0.047 -0.095,0.073 -0.144,0.076 -0.049,0.004 -0.11,-0.016 -0.185,-0.067 l -0.227,-0.167 c -0.112,-0.074 -0.286,-0.16 -0.526,-0.247 -0.245,-0.092 -0.547,-0.133 -0.921,-0.129 -0.342,0.004 -0.677,0.067 -1.003,0.193 -0.327,0.126 -0.601,0.316 -0.831,0.574 -0.226,0.257 -0.384,0.511 -0.471,0.763 -0.089,0.251 -0.141,0.493 -0.158,0.725 -0.021,0.228 -0.028,0.44 -0.028,0.631 0,0.202 0.013,0.404 0.036,0.61 0.028,0.203 0.072,0.402 0.138,0.587 0.069,0.188 0.148,0.359 0.243,0.511 0.089,0.152 0.198,0.292 0.312,0.42 0.115,0.128 0.235,0.238 0.354,0.325 0.121,0.092 0.262,0.174 0.419,0.249 0.157,0.078 0.334,0.142 0.53,0.188 0.199,0.05 0.432,0.077 0.704,0.082 0.17,0 0.32,-0.007 0.451,-0.03 0.127,-0.02 0.26,-0.055 0.395,-0.104 0.14,-0.051 0.273,-0.113 0.403,-0.188 0.13,-0.074 0.232,-0.121 0.31,-0.137 0.076,-0.019 0.139,-0.011 0.188,0.022 0.025,0.02 0.049,0.053 0.066,0.101 0.018,0.047 0.033,0.102 0.043,0.157 0.009,0.054 0.027,0.097 0.052,0.135 0.024,0.033 0.057,0.05 0.104,0.054 0.046,10e-4 0.083,-0.011 0.117,-0.037 0.013,-0.023 0.03,-0.055 0.041,-0.094 0.009,-0.041 0.015,-0.074 0.015,-0.098 V 2.381 c 0,-0.082 -0.006,-0.143 -0.014,-0.172 -0.009,-0.03 -0.022,-0.059 -0.042,-0.086 -0.022,-0.024 -0.053,-0.041 -0.091,-0.045 -0.043,-0.006 -0.077,0.009 -0.11,0.043 -0.031,0.035 -0.051,0.078 -0.06,0.127 l -0.028,0.121 c -0.02,0.087 -0.06,0.182 -0.117,0.287 -0.053,0.102 -0.13,0.205 -0.224,0.304 -0.093,0.098 -0.209,0.193 -0.341,0.281 -0.131,0.09 -0.29,0.168 -0.473,0.236 -0.181,0.065 -0.359,0.099 -0.534,0.097 -0.205,-0.004 -0.399,-0.062 -0.592,-0.17 -0.19,-0.106 -0.343,-0.26 -0.456,-0.464 -0.11,-0.205 -0.196,-0.409 -0.251,-0.608 -0.055,-0.199 -0.092,-0.381 -0.109,-0.543 -0.019,-0.161 -0.028,-0.35 -0.024,-0.564 0,-0.127 0.003,-0.298 0.011,-0.513 0.006,-0.214 0.016,-0.401 0.036,-0.558 0.022,-0.156 0.055,-0.332 0.108,-0.525 0.055,-0.193 0.127,-0.35 0.218,-0.469 0.091,-0.119 0.24,-0.217 0.439,-0.294 0.197,-0.078 0.411,-0.114 0.633,-0.113 0.27,0 0.491,0.051 0.658,0.148 0.166,0.095 0.287,0.218 0.363,0.357 0.072,0.144 0.11,0.297 0.11,0.459 v 0.201 c 0,0.061 -0.017,0.142 -0.056,0.244 -0.037,0.104 -0.081,0.178 -0.13,0.231 -0.049,0.051 -0.109,0.093 -0.176,0.123 -0.068,0.033 -0.12,0.051 -0.153,0.06 l -0.151,0.028 c -0.041,0.005 -0.076,0.016 -0.094,0.037 -0.021,0.023 -0.031,0.051 -0.027,0.085 0,0.046 0.018,0.08 0.053,0.102 0.033,0.024 0.071,0.036 0.118,0.036 h 2.337 c 0.052,0 0.096,-0.007 0.134,-0.026 m 0,0 c 0.039,-0.014 0.063,-0.047 0.075,-0.094 0.014,-0.047 0.003,-0.082 -0.025,-0.103 -0.03,-0.022 -0.057,-0.035 -0.083,-0.037"
             style="fill:#231f20;fill-opacity:1;fill-rule:nonzero;stroke:none"
             id="path60"
             inkscape:connector-curvature="0" /></g><g
           id="g62"
           transform="translate(255.028,473.7261)"><path
             d="m 0,0 c -0.031,0.014 -0.063,0.025 -0.102,0.033 l -0.073,0.014 c -0.054,0.007 -0.114,0.033 -0.18,0.075 -0.07,0.04 -0.124,0.091 -0.167,0.144 -0.043,0.053 -0.102,0.138 -0.176,0.252 -0.075,0.113 -0.122,0.19 -0.139,0.231 L -2.934,5.337 C -2.992,5.461 -3.042,5.547 -3.082,5.596 -3.119,5.646 -3.177,5.669 -3.255,5.664 -3.333,5.66 -3.391,5.627 -3.433,5.56 -3.473,5.494 -3.512,5.408 -3.556,5.297 L -3.563,5.282 -5.336,0.749 C -5.353,0.698 -5.385,0.639 -5.419,0.578 -5.457,0.516 -5.501,0.453 -5.555,0.388 -5.607,0.324 -5.661,0.268 -5.717,0.223 -5.771,0.178 -5.841,0.139 -5.921,0.104 -6.004,0.067 -6.065,0.05 -6.102,0.047 L -6.196,0.033 C -6.256,0.025 -6.304,0.018 -6.337,0.006 -6.371,-0.01 -6.391,-0.043 -6.391,-0.095 c 0,-0.055 0.023,-0.089 0.06,-0.104 0.04,-0.014 0.115,-0.021 0.229,-0.021 h 1.657 c 0.088,0 0.151,0.005 0.197,0.021 0.045,0.013 0.069,0.045 0.078,0.095 0,0.034 -0.013,0.064 -0.043,0.094 -0.032,0.03 -0.066,0.043 -0.097,0.043 h -0.087 c -0.051,0 -0.105,0.007 -0.163,0.02 -0.06,0.008 -0.118,0.033 -0.179,0.072 -0.056,0.041 -0.097,0.1 -0.115,0.18 -0.02,0.078 -0.009,0.18 0.034,0.306 l 0.301,0.917 h 1.884 L -2.241,0.623 C -2.225,0.583 -2.214,0.522 -2.209,0.437 -2.203,0.356 -2.22,0.283 -2.26,0.217 -2.297,0.154 -2.349,0.108 -2.415,0.086 -2.479,0.063 -2.538,0.05 -2.59,0.047 L -2.736,0.033 C -2.783,0.03 -2.823,0.018 -2.855,0 c -0.031,-0.023 -0.049,-0.051 -0.052,-0.087 -0.005,-0.06 0.01,-0.097 0.044,-0.112 0.037,-0.014 0.097,-0.021 0.185,-0.021 h 2.576 c 0.048,0 0.084,0.015 0.116,0.046 0.029,0.032 0.04,0.065 0.037,0.1 C 0.048,-0.043 0.027,-0.018 0,0 m -4.386,1.886 0.799,1.998 0.024,-0.06 0.827,-1.938 z"
             style="fill:#231f20;fill-opacity:1;fill-rule:nonzero;stroke:none"
             id="path64"
             inkscape:connector-curvature="0" /></g><g
           id="g66"
           transform="translate(267.3893,475.1245)"><path
             d="M 0,0 C -0.026,0.068 -0.06,0.106 -0.106,0.114 -0.151,0.122 -0.199,0.109 -0.239,0.081 -0.28,0.048 -0.308,0.02 -0.319,-0.009 -0.332,-0.04 -0.36,-0.105 -0.398,-0.207 c -0.043,-0.1 -0.089,-0.197 -0.142,-0.285 -0.049,-0.091 -0.11,-0.156 -0.176,-0.185 -0.066,-0.033 -0.121,-0.05 -0.167,-0.05 -0.093,-0.002 -0.166,0.023 -0.223,0.079 -0.058,0.055 -0.088,0.156 -0.088,0.299 -0.002,0.142 -0.009,0.322 -0.018,0.536 -0.009,0.216 -0.032,0.384 -0.066,0.507 -0.036,0.12 -0.096,0.228 -0.182,0.324 -0.084,0.095 -0.187,0.164 -0.305,0.217 -0.121,0.051 -0.224,0.084 -0.321,0.105 -0.093,0.02 -0.207,0.041 -0.338,0.063 l 0.432,0.101 c 0.119,0.024 0.266,0.07 0.442,0.133 0.179,0.065 0.332,0.145 0.468,0.237 0.134,0.087 0.248,0.207 0.335,0.353 0.119,0.203 0.171,0.414 0.158,0.637 -0.018,0.22 -0.063,0.413 -0.142,0.574 -0.077,0.16 -0.169,0.287 -0.275,0.381 -0.101,0.095 -0.233,0.175 -0.391,0.246 -0.156,0.07 -0.308,0.11 -0.45,0.126 -0.145,0.013 -0.289,0.019 -0.432,0.023 h -3.567 c -0.044,0 -0.081,-0.008 -0.113,-0.03 -0.028,-0.021 -0.047,-0.047 -0.053,-0.08 -0.011,-0.045 -0.002,-0.082 0.03,-0.111 0.031,-0.029 0.058,-0.04 0.084,-0.04 L -5.764,3.94 c 0.065,-0.01 0.131,-0.035 0.197,-0.074 0.063,-0.041 0.124,-0.101 0.176,-0.184 0.053,-0.079 0.09,-0.172 0.105,-0.271 0.018,-0.105 0.028,-0.187 0.031,-0.253 v -3.79 c 0,-0.082 -0.017,-0.186 -0.052,-0.311 -0.034,-0.127 -0.076,-0.209 -0.132,-0.248 -0.049,-0.041 -0.119,-0.074 -0.203,-0.11 -0.086,-0.031 -0.143,-0.05 -0.172,-0.05 l -0.084,-0.01 c -0.032,-0.002 -0.061,-0.013 -0.088,-0.031 -0.026,-0.024 -0.042,-0.049 -0.048,-0.076 -0.01,-0.053 0.003,-0.092 0.033,-0.113 0.033,-0.024 0.071,-0.035 0.114,-0.035 l 2.593,-0.003 c 0.042,-0.005 0.082,0.003 0.109,0.026 0.028,0.018 0.042,0.051 0.039,0.093 0,0.043 -0.017,0.075 -0.051,0.098 -0.032,0.021 -0.068,0.038 -0.106,0.041 l -0.099,0.01 c -0.045,0 -0.109,0.021 -0.189,0.059 -0.082,0.039 -0.148,0.089 -0.201,0.151 -0.05,0.061 -0.086,0.146 -0.112,0.252 -0.022,0.106 -0.035,0.194 -0.035,0.268 v 1.885 h 0.426 c 0.206,0 0.362,-0.01 0.472,-0.039 L -3.016,1.219 C -2.92,1.194 -2.841,1.153 -2.779,1.099 -2.707,1.043 -2.655,0.962 -2.62,0.868 -2.583,0.772 -2.56,0.643 -2.554,0.487 -2.542,0.329 -2.536,0.189 -2.528,0.064 l 0.011,-0.413 c 0.006,-0.203 0.024,-0.369 0.047,-0.495 0.026,-0.127 0.079,-0.259 0.157,-0.397 0.082,-0.135 0.198,-0.239 0.348,-0.303 0.151,-0.072 0.329,-0.105 0.536,-0.108 0.156,-0.005 0.302,0.008 0.434,0.041 0.134,0.033 0.256,0.09 0.37,0.17 0.111,0.078 0.209,0.179 0.293,0.305 0.084,0.123 0.145,0.256 0.187,0.396 0.042,0.14 0.09,0.297 0.136,0.472 C 0.022,-0.154 0.026,-0.066 0,0 M -2.629,1.772 C -2.759,1.704 -2.887,1.659 -3.016,1.634 L -3.059,1.626 C -3.206,1.608 -3.348,1.596 -3.491,1.596 h -0.448 v 1.787 c 0,0.137 0.012,0.234 0.029,0.287 0.017,0.054 0.057,0.098 0.121,0.139 0.063,0.037 0.174,0.058 0.326,0.061 l 0.3,0.005 c 0.047,0 0.096,-0.003 0.147,-0.009 0.067,-0.007 0.132,-0.018 0.206,-0.033 0.126,-0.027 0.241,-0.072 0.34,-0.139 0.1,-0.064 0.182,-0.145 0.243,-0.24 0.064,-0.1 0.106,-0.246 0.126,-0.441 C -2.086,2.838 -2.092,2.67 -2.119,2.51 -2.143,2.352 -2.202,2.208 -2.288,2.078 -2.375,1.949 -2.489,1.847 -2.629,1.772"
             style="fill:#231f20;fill-opacity:1;fill-rule:nonzero;stroke:none"
             id="path68"
             inkscape:connector-curvature="0" /></g><g
           id="g70"
           transform="translate(269.7585,474.501)"><path
             d="M 0,0 C 0.006,-0.111 0.017,-0.211 0.034,-0.298 0.052,-0.381 0.089,-0.458 0.149,-0.524 0.21,-0.59 0.282,-0.638 0.372,-0.673 0.464,-0.704 0.542,-0.724 0.61,-0.728 L 0.731,-0.741 C 0.773,-0.745 0.802,-0.753 0.822,-0.763 0.84,-0.771 0.853,-0.806 0.858,-0.857 0.861,-0.911 0.85,-0.95 0.822,-0.967 0.793,-0.987 0.753,-0.995 0.698,-0.995 h -2.74 c -0.049,0 -0.088,0.008 -0.119,0.03 -0.029,0.019 -0.041,0.06 -0.027,0.114 0.003,0.034 0.021,0.059 0.046,0.078 0.03,0.014 0.058,0.028 0.084,0.032 l 0.101,0.013 c 0.047,0.004 0.108,0.024 0.188,0.055 0.082,0.031 0.152,0.076 0.213,0.133 0.064,0.059 0.113,0.148 0.145,0.266 0.036,0.119 0.053,0.225 0.057,0.316 v 3.732 c 0,0.071 -0.008,0.161 -0.023,0.269 -0.014,0.108 -0.052,0.2 -0.115,0.273 -0.064,0.074 -0.142,0.132 -0.233,0.171 -0.093,0.039 -0.169,0.064 -0.227,0.075 l -0.09,0.014 c -0.03,0.001 -0.059,0.011 -0.088,0.034 -0.028,0.024 -0.037,0.055 -0.028,0.098 0.008,0.043 0.028,0.074 0.057,0.096 0.032,0.02 0.067,0.029 0.113,0.029 L 0.669,4.831 C 0.717,4.827 0.753,4.814 0.78,4.794 0.81,4.771 0.822,4.739 0.819,4.694 0.812,4.665 0.796,4.634 0.773,4.612 0.747,4.589 0.718,4.577 0.684,4.576 L 0.58,4.562 C 0.503,4.551 0.427,4.522 0.352,4.476 0.275,4.428 0.21,4.367 0.154,4.296 0.1,4.224 0.062,4.147 0.034,4.07 0.013,3.989 0,3.899 0,3.803 Z"
             style="fill:#231f20;fill-opacity:1;fill-rule:nonzero;stroke:none"
             id="path72"
             inkscape:connector-curvature="0" /></g><g
           id="g74"
           transform="translate(275.7126,479.1026)"><path
             d="m 0,0 0.076,-1.468 c 0.003,-0.058 0,-0.113 -0.01,-0.164 C 0.057,-1.679 0.039,-1.714 0.021,-1.733 0,-1.753 -0.03,-1.768 -0.078,-1.772 c -0.046,-0.004 -0.081,0.007 -0.104,0.039 -0.024,0.031 -0.045,0.076 -0.059,0.132 l -0.032,0.11 c -0.029,0.095 -0.084,0.212 -0.156,0.353 -0.075,0.144 -0.155,0.263 -0.245,0.364 -0.09,0.1 -0.195,0.189 -0.311,0.269 -0.118,0.076 -0.257,0.147 -0.422,0.205 -0.161,0.06 -0.348,0.092 -0.554,0.094 -0.228,0.004 -0.421,-0.034 -0.589,-0.111 -0.167,-0.075 -0.297,-0.176 -0.4,-0.301 -0.1,-0.125 -0.181,-0.263 -0.243,-0.41 -0.061,-0.151 -0.116,-0.315 -0.158,-0.498 -0.047,-0.184 -0.079,-0.356 -0.091,-0.52 -0.018,-0.168 -0.027,-0.357 -0.022,-0.578 0,-0.152 0.003,-0.322 0.009,-0.511 0.005,-0.188 0.022,-0.37 0.049,-0.543 0.024,-0.173 0.069,-0.343 0.13,-0.509 0.06,-0.167 0.143,-0.314 0.248,-0.447 0.106,-0.126 0.239,-0.238 0.389,-0.328 0.16,-0.092 0.305,-0.152 0.439,-0.184 0.138,-0.03 0.294,-0.04 0.467,-0.022 0.177,0.017 0.335,0.054 0.47,0.11 0.136,0.059 0.266,0.137 0.384,0.23 0.118,0.095 0.233,0.202 0.342,0.331 0.111,0.127 0.207,0.248 0.278,0.365 0.078,0.119 0.148,0.194 0.207,0.225 0.059,0.029 0.109,0.033 0.149,0.008 0.04,-0.025 0.063,-0.069 0.067,-0.127 0.006,-0.061 -0.018,-0.139 -0.07,-0.233 -0.09,-0.17 -0.179,-0.318 -0.263,-0.437 -0.082,-0.123 -0.203,-0.258 -0.356,-0.408 -0.152,-0.148 -0.313,-0.26 -0.478,-0.335 -0.164,-0.076 -0.351,-0.132 -0.557,-0.165 -0.204,-0.033 -0.404,-0.048 -0.598,-0.047 -0.233,0 -0.468,0.024 -0.709,0.07 -0.24,0.047 -0.464,0.123 -0.671,0.221 -0.206,0.101 -0.406,0.252 -0.599,0.447 -0.191,0.2 -0.338,0.391 -0.438,0.578 -0.1,0.188 -0.172,0.369 -0.219,0.552 -0.05,0.183 -0.081,0.36 -0.1,0.532 -0.019,0.172 -0.026,0.338 -0.026,0.498 0,0.157 0.015,0.358 0.045,0.591 0.028,0.235 0.075,0.438 0.131,0.608 0.057,0.172 0.136,0.338 0.234,0.502 0.1,0.164 0.198,0.305 0.298,0.419 0.099,0.115 0.22,0.22 0.358,0.321 0.142,0.1 0.289,0.187 0.442,0.264 0.152,0.077 0.321,0.137 0.505,0.18 0.18,0.047 0.389,0.074 0.62,0.085 0.199,0.004 0.381,-0.004 0.534,-0.028 0.158,-0.022 0.314,-0.061 0.466,-0.115 0.154,-0.051 0.287,-0.108 0.402,-0.173 0.118,-0.062 0.208,-0.101 0.275,-0.115 0.064,-0.012 0.122,0 0.173,0.035 0.03,0.022 0.05,0.051 0.069,0.092 0.011,0.039 0.026,0.086 0.04,0.137 0.011,0.052 0.029,0.096 0.053,0.129 0.024,0.034 0.058,0.05 0.103,0.051 0.046,0.001 0.085,-0.012 0.115,-0.038 0.018,-0.023 0.03,-0.054 0.039,-0.09 C -0.009,0.063 -0.003,0.029 0,0"
             style="fill:#231f20;fill-opacity:1;fill-rule:nonzero;stroke:none"
             id="path76"
             inkscape:connector-curvature="0" /></g><g
           id="g78"
           transform="translate(278.3199,475.2334)"><path
             d="m 0,0 c -0.005,-0.222 0.005,-0.398 0.031,-0.532 0.022,-0.131 0.078,-0.259 0.17,-0.381 0.093,-0.118 0.235,-0.215 0.426,-0.287 0.192,-0.073 0.395,-0.112 0.615,-0.119 0.171,-0.008 0.348,0.007 0.516,0.043 0.175,0.037 0.346,0.105 0.521,0.205 0.173,0.099 0.3,0.213 0.382,0.334 0.082,0.123 0.136,0.263 0.166,0.42 0.032,0.152 0.045,0.31 0.045,0.47 v 3.014 c 0,0.082 -0.013,0.168 -0.033,0.26 C 2.817,3.517 2.781,3.591 2.729,3.644 2.68,3.697 2.611,3.741 2.527,3.772 2.44,3.806 2.377,3.824 2.331,3.831 L 2.166,3.843 C 2.143,3.843 2.114,3.855 2.083,3.882 2.048,3.906 2.037,3.944 2.045,3.991 2.054,4.034 2.072,4.062 2.104,4.079 2.139,4.095 2.189,4.101 2.258,4.101 H 3.933 C 3.973,4.101 4.012,4.09 4.042,4.069 4.074,4.048 4.091,4.016 4.096,3.974 4.1,3.932 4.091,3.901 4.062,3.878 4.035,3.855 4.008,3.845 3.979,3.843 L 3.846,3.831 C 3.775,3.821 3.7,3.796 3.625,3.755 3.546,3.712 3.485,3.661 3.439,3.601 3.393,3.538 3.354,3.461 3.325,3.36 3.295,3.262 3.281,3.178 3.285,3.103 V 0.153 C 3.285,0.032 3.281,-0.099 3.272,-0.233 3.266,-0.37 3.231,-0.513 3.171,-0.663 3.104,-0.812 3.018,-0.951 2.9,-1.073 2.784,-1.2 2.646,-1.307 2.486,-1.397 2.325,-1.49 2.164,-1.556 1.992,-1.601 1.824,-1.646 1.647,-1.679 1.468,-1.694 1.288,-1.714 1.122,-1.726 0.969,-1.726 c -0.141,0 -0.309,0.01 -0.502,0.027 -0.196,0.012 -0.421,0.057 -0.675,0.122 -0.257,0.071 -0.466,0.183 -0.631,0.342 -0.164,0.159 -0.272,0.284 -0.323,0.379 -0.048,0.097 -0.082,0.179 -0.097,0.253 -0.016,0.073 -0.031,0.155 -0.045,0.252 -0.015,0.096 -0.021,0.186 -0.015,0.274 v 3.126 c 0,0.104 -0.009,0.202 -0.028,0.304 -0.015,0.097 -0.067,0.183 -0.151,0.261 -0.078,0.073 -0.167,0.127 -0.26,0.157 -0.092,0.031 -0.167,0.05 -0.23,0.06 L -2.12,3.843 c -0.03,0 -0.058,0.01 -0.089,0.033 -0.03,0.022 -0.045,0.056 -0.045,0.103 0,0.043 0.015,0.077 0.046,0.096 0.032,0.022 0.072,0.029 0.118,0.029 L 0.729,4.101 C 0.781,4.099 0.816,4.09 0.845,4.071 0.869,4.054 0.886,4.023 0.887,3.983 0.887,3.939 0.877,3.906 0.854,3.882 0.832,3.855 0.808,3.843 0.781,3.843 L 0.647,3.831 C 0.579,3.821 0.502,3.799 0.412,3.769 0.322,3.735 0.246,3.683 0.176,3.606 0.109,3.53 0.062,3.444 0.037,3.353 0.011,3.258 0,3.165 0,3.079 Z"
             style="fill:#231f20;fill-opacity:1;fill-rule:nonzero;stroke:none"
             id="path80"
             inkscape:connector-curvature="0" /></g><g
           id="g82"
           transform="translate(287.9919,473.5059)"><path
             d="m 0,0 h -5.258 c -0.049,-0.005 -0.091,0.006 -0.124,0.027 -0.028,0.022 -0.04,0.061 -0.028,0.119 0.006,0.032 0.022,0.056 0.049,0.076 0.027,0.016 0.056,0.028 0.086,0.032 l 0.086,0.014 c 0.033,0 0.081,0.019 0.152,0.052 0.074,0.034 0.146,0.075 0.213,0.129 0.068,0.055 0.118,0.127 0.145,0.217 0.028,0.09 0.044,0.196 0.048,0.316 V 4.77 c 0,0.048 -0.009,0.136 -0.029,0.262 -0.016,0.125 -0.046,0.216 -0.09,0.273 -0.043,0.054 -0.109,0.109 -0.199,0.166 -0.089,0.054 -0.155,0.083 -0.194,0.087 l -0.124,0.008 c -0.031,0 -0.061,0.012 -0.091,0.038 -0.033,0.027 -0.042,0.059 -0.034,0.102 0.01,0.041 0.031,0.071 0.058,0.093 0.03,0.02 0.067,0.029 0.114,0.029 L -2.646,5.826 C -2.603,5.822 -2.568,5.811 -2.542,5.793 -2.523,5.773 -2.509,5.745 -2.508,5.711 -2.505,5.672 -2.515,5.64 -2.538,5.613 -2.56,5.588 -2.587,5.572 -2.62,5.571 L -2.741,5.558 C -2.814,5.549 -2.889,5.523 -2.958,5.484 -3.028,5.443 -3.091,5.385 -3.148,5.311 -3.203,5.234 -3.242,5.15 -3.262,5.058 -3.281,4.965 -3.293,4.879 -3.293,4.799 V 0.857 0.651 c 0.006,-0.04 0.023,-0.085 0.059,-0.133 0.034,-0.047 0.077,-0.089 0.136,-0.12 0.057,-0.031 0.123,-0.044 0.2,-0.044 h 0.901 c 0.062,0 0.154,0.002 0.275,0.016 0.12,0.011 0.247,0.04 0.371,0.084 0.128,0.043 0.263,0.118 0.405,0.23 0.141,0.108 0.257,0.212 0.342,0.31 0.084,0.102 0.168,0.211 0.247,0.336 0.08,0.125 0.137,0.232 0.176,0.324 l 0.064,0.154 c 0.026,0.072 0.049,0.122 0.068,0.155 0.022,0.028 0.058,0.042 0.11,0.038 C 0.111,1.997 0.146,1.979 0.161,1.949 0.173,1.917 0.176,1.848 0.17,1.739 Z"
             style="fill:#231f20;fill-opacity:1;fill-rule:nonzero;stroke:none"
             id="path84"
             inkscape:connector-curvature="0" /></g><g
           id="g86"
           transform="translate(288.3317,479.334)"><path
             d="M 0,0 H 5.33 V -1.779 C 5.33,-1.854 5.321,-1.91 5.304,-1.951 5.287,-1.99 5.252,-2.016 5.2,-2.029 5.148,-2.039 5.107,-2.027 5.079,-1.993 5.049,-1.959 5.027,-1.92 5.016,-1.873 l -0.045,0.162 c -0.025,0.074 -0.065,0.182 -0.125,0.318 -0.061,0.136 -0.131,0.273 -0.214,0.407 -0.082,0.132 -0.194,0.251 -0.331,0.359 -0.135,0.104 -0.27,0.181 -0.405,0.229 -0.132,0.047 -0.237,0.07 -0.312,0.07 L 3.371,-0.33 v -4.449 c 0,-0.1 0.012,-0.198 0.039,-0.293 0.025,-0.098 0.074,-0.18 0.152,-0.252 0.075,-0.071 0.176,-0.129 0.302,-0.173 0.127,-0.044 0.228,-0.064 0.306,-0.064 L 4.287,-5.566 C 4.315,-5.567 4.351,-5.578 4.387,-5.6 4.418,-5.617 4.438,-5.65 4.441,-5.693 4.442,-5.738 4.424,-5.772 4.39,-5.797 4.354,-5.82 4.318,-5.833 4.291,-5.828 l -3.174,0.003 c -0.046,0 -0.087,0.013 -0.12,0.031 -0.033,0.022 -0.047,0.054 -0.042,0.1 0,0.034 0.015,0.062 0.047,0.083 0.028,0.019 0.058,0.033 0.089,0.037 l 0.118,0.013 c 0.05,0 0.107,0.012 0.174,0.028 0.066,0.016 0.146,0.039 0.233,0.075 0.087,0.03 0.165,0.079 0.227,0.142 0.066,0.066 0.114,0.154 0.145,0.269 0.033,0.11 0.053,0.21 0.055,0.297 v 4.42 L 1.84,-0.328 C 1.773,-0.328 1.688,-0.343 1.588,-0.371 1.489,-0.401 1.374,-0.452 1.244,-0.521 1.111,-0.589 1.006,-0.662 0.927,-0.74 0.849,-0.816 0.768,-0.924 0.683,-1.059 0.601,-1.197 0.54,-1.306 0.5,-1.391 L 0.348,-1.764 0.304,-1.873 C 0.28,-1.933 0.26,-1.973 0.237,-1.993 0.22,-2.016 0.187,-2.027 0.153,-2.025 c -0.051,0 -0.09,0.027 -0.115,0.076 C 0.012,-1.9 0,-1.842 0,-1.779 Z"
             style="fill:#231f20;fill-opacity:1;fill-rule:nonzero;stroke:none"
             id="path88"
             inkscape:connector-curvature="0" /></g><g
           id="g90"
           transform="translate(296.0915,475.2334)"><path
             d="M 0,0 C -0.003,-0.222 0.006,-0.398 0.03,-0.532 0.055,-0.663 0.109,-0.791 0.202,-0.913 0.293,-1.031 0.436,-1.128 0.626,-1.2 0.819,-1.273 1.024,-1.312 1.24,-1.319 c 0.174,-0.008 0.347,0.007 0.52,0.043 0.174,0.037 0.346,0.105 0.519,0.205 0.173,0.099 0.3,0.213 0.381,0.334 0.084,0.123 0.137,0.263 0.168,0.42 0.028,0.152 0.043,0.31 0.043,0.47 v 3.014 c 0,0.082 -0.015,0.168 -0.032,0.26 C 2.817,3.517 2.78,3.591 2.729,3.644 2.681,3.697 2.611,3.741 2.524,3.772 2.441,3.806 2.377,3.824 2.334,3.831 L 2.167,3.843 C 2.141,3.843 2.115,3.855 2.08,3.882 2.049,3.906 2.037,3.944 2.046,3.991 2.053,4.034 2.071,4.062 2.104,4.079 2.138,4.095 2.189,4.101 2.256,4.101 H 3.933 C 3.975,4.101 4.011,4.09 4.045,4.069 4.075,4.048 4.092,4.016 4.098,3.974 4.1,3.932 4.089,3.901 4.061,3.878 4.037,3.855 4.008,3.845 3.979,3.843 L 3.844,3.831 C 3.774,3.821 3.702,3.796 3.624,3.755 3.549,3.712 3.485,3.661 3.438,3.601 3.393,3.538 3.352,3.461 3.325,3.36 3.295,3.262 3.282,3.178 3.285,3.103 V 0.153 C 3.285,0.032 3.282,-0.099 3.275,-0.233 3.267,-0.37 3.231,-0.513 3.168,-0.663 3.104,-0.812 3.017,-0.951 2.899,-1.073 2.784,-1.2 2.646,-1.307 2.487,-1.397 2.325,-1.49 2.164,-1.556 1.992,-1.601 1.822,-1.646 1.647,-1.679 1.467,-1.694 1.287,-1.714 1.122,-1.726 0.97,-1.726 c -0.142,0 -0.308,0.01 -0.503,0.027 -0.196,0.012 -0.421,0.057 -0.676,0.122 -0.256,0.071 -0.465,0.183 -0.629,0.342 -0.165,0.159 -0.273,0.284 -0.324,0.379 -0.047,0.097 -0.082,0.179 -0.095,0.253 -0.017,0.073 -0.033,0.155 -0.048,0.252 -0.012,0.096 -0.018,0.186 -0.013,0.274 v 3.126 c 0,0.104 -0.011,0.202 -0.03,0.304 -0.017,0.097 -0.066,0.183 -0.147,0.261 -0.083,0.073 -0.171,0.127 -0.263,0.157 -0.094,0.031 -0.167,0.05 -0.227,0.06 l -0.134,0.012 c -0.031,0 -0.06,0.01 -0.09,0.033 -0.03,0.022 -0.042,0.056 -0.042,0.103 0,0.043 0.013,0.077 0.043,0.096 0.032,0.022 0.072,0.029 0.119,0.029 L 0.729,4.101 C 0.781,4.099 0.816,4.09 0.846,4.071 0.868,4.054 0.886,4.023 0.886,3.983 0.889,3.939 0.877,3.906 0.854,3.882 0.831,3.855 0.808,3.843 0.781,3.843 L 0.647,3.831 C 0.577,3.821 0.502,3.799 0.414,3.769 0.324,3.735 0.244,3.683 0.178,3.606 0.109,3.53 0.061,3.444 0.037,3.353 0.012,3.258 0,3.165 0,3.079 Z"
             style="fill:#231f20;fill-opacity:1;fill-rule:nonzero;stroke:none"
             id="path92"
             inkscape:connector-curvature="0" /></g><g
           id="g94"
           transform="translate(306.3796,475.1245)"><path
             d="M 0,0 C -0.025,0.068 -0.061,0.106 -0.107,0.114 -0.154,0.122 -0.197,0.109 -0.241,0.081 -0.281,0.048 -0.309,0.02 -0.32,-0.009 -0.332,-0.04 -0.358,-0.105 -0.4,-0.207 c -0.042,-0.1 -0.087,-0.197 -0.14,-0.285 -0.05,-0.091 -0.11,-0.156 -0.176,-0.185 -0.064,-0.033 -0.122,-0.05 -0.172,-0.05 -0.089,-0.002 -0.161,0.023 -0.219,0.079 -0.057,0.055 -0.089,0.156 -0.089,0.299 -0.003,0.142 -0.006,0.322 -0.018,0.536 -0.007,0.216 -0.028,0.384 -0.066,0.507 -0.035,0.12 -0.096,0.228 -0.179,0.324 -0.086,0.095 -0.187,0.164 -0.309,0.217 -0.118,0.051 -0.224,0.084 -0.32,0.105 -0.092,0.02 -0.205,0.041 -0.337,0.063 l 0.43,0.101 c 0.121,0.024 0.268,0.07 0.444,0.133 0.177,0.065 0.335,0.145 0.468,0.237 0.135,0.087 0.246,0.207 0.337,0.353 0.118,0.203 0.171,0.414 0.156,0.637 -0.014,0.22 -0.062,0.413 -0.142,0.574 -0.079,0.16 -0.168,0.287 -0.274,0.381 -0.102,0.095 -0.236,0.175 -0.392,0.246 -0.156,0.07 -0.309,0.11 -0.451,0.126 -0.143,0.013 -0.288,0.019 -0.432,0.023 H -5.848 C -5.894,4.214 -5.929,4.206 -5.96,4.184 -5.989,4.163 -6.006,4.137 -6.012,4.104 -6.025,4.059 -6.015,4.022 -5.983,3.993 -5.951,3.964 -5.923,3.953 -5.9,3.953 L -5.767,3.94 C -5.7,3.93 -5.634,3.905 -5.568,3.866 -5.503,3.825 -5.445,3.765 -5.392,3.682 -5.337,3.603 -5.302,3.51 -5.285,3.411 -5.271,3.306 -5.261,3.224 -5.258,3.158 v -3.79 c 0,-0.082 -0.015,-0.186 -0.052,-0.311 -0.031,-0.127 -0.076,-0.209 -0.127,-0.248 -0.052,-0.041 -0.122,-0.074 -0.206,-0.11 -0.085,-0.031 -0.144,-0.05 -0.172,-0.05 L -5.9,-1.361 c -0.029,-0.002 -0.06,-0.013 -0.086,-0.031 -0.026,-0.024 -0.043,-0.049 -0.049,-0.076 -0.009,-0.053 0.003,-0.092 0.033,-0.113 0.03,-0.024 0.069,-0.035 0.115,-0.035 l 2.593,-0.003 c 0.043,-0.005 0.078,0.003 0.108,0.026 0.029,0.018 0.042,0.051 0.04,0.093 0,0.043 -0.016,0.075 -0.052,0.098 -0.031,0.021 -0.067,0.038 -0.105,0.041 l -0.099,0.01 c -0.044,0 -0.109,0.021 -0.191,0.059 -0.082,0.039 -0.146,0.089 -0.197,0.151 -0.052,0.061 -0.09,0.146 -0.112,0.252 -0.024,0.106 -0.036,0.194 -0.036,0.268 v 1.885 h 0.423 c 0.206,0 0.363,-0.01 0.469,-0.039 l 0.029,-0.006 c 0.094,-0.025 0.174,-0.066 0.24,-0.12 0.069,-0.056 0.123,-0.137 0.157,-0.231 0.036,-0.096 0.056,-0.225 0.064,-0.381 0.012,-0.158 0.02,-0.298 0.026,-0.423 l 0.013,-0.413 c 0.008,-0.203 0.023,-0.369 0.045,-0.495 0.029,-0.127 0.081,-0.259 0.159,-0.397 0.081,-0.135 0.198,-0.239 0.348,-0.303 0.151,-0.072 0.329,-0.105 0.535,-0.108 0.155,-0.005 0.302,0.008 0.435,0.041 0.134,0.033 0.255,0.09 0.369,0.17 0.113,0.078 0.209,0.179 0.294,0.305 0.081,0.123 0.143,0.256 0.186,0.396 0.043,0.14 0.086,0.297 0.136,0.472 C 0.021,-0.154 0.021,-0.066 0,0 M -2.63,1.772 C -2.759,1.704 -2.887,1.659 -3.017,1.634 L -3.06,1.626 C -3.204,1.608 -3.349,1.596 -3.493,1.596 h -0.445 v 1.787 c 0,0.137 0.009,0.234 0.027,0.287 0.017,0.054 0.057,0.098 0.121,0.139 0.066,0.037 0.173,0.058 0.324,0.061 l 0.299,0.005 c 0.049,0 0.099,-0.003 0.15,-0.009 C -2.95,3.859 -2.884,3.848 -2.812,3.833 -2.685,3.806 -2.568,3.761 -2.472,3.694 -2.37,3.63 -2.29,3.549 -2.228,3.454 -2.165,3.354 -2.122,3.208 -2.104,3.013 -2.088,2.838 -2.094,2.67 -2.119,2.51 -2.146,2.352 -2.2,2.208 -2.29,2.078 -2.376,1.949 -2.489,1.847 -2.63,1.772"
             style="fill:#231f20;fill-opacity:1;fill-rule:nonzero;stroke:none"
             id="path96"
             inkscape:connector-curvature="0" /></g><g
           id="g98"
           transform="translate(312.9341,473.7261)"><path
             d="m 0,0 c -0.033,0.014 -0.063,0.025 -0.102,0.033 l -0.075,0.014 c -0.051,0.007 -0.115,0.033 -0.179,0.075 -0.069,0.04 -0.123,0.091 -0.166,0.144 -0.043,0.053 -0.102,0.138 -0.177,0.252 -0.074,0.113 -0.12,0.19 -0.138,0.231 L -2.934,5.337 C -2.992,5.461 -3.043,5.547 -3.082,5.596 -3.121,5.646 -3.18,5.669 -3.255,5.664 -3.335,5.66 -3.393,5.627 -3.433,5.56 -3.473,5.494 -3.514,5.408 -3.556,5.297 L -3.561,5.279 -5.336,0.749 C -5.354,0.698 -5.385,0.639 -5.421,0.578 -5.461,0.516 -5.503,0.453 -5.557,0.388 -5.606,0.324 -5.663,0.268 -5.717,0.223 -5.771,0.178 -5.841,0.139 -5.923,0.104 -6.005,0.067 -6.065,0.05 -6.103,0.047 L -6.198,0.033 C -6.258,0.025 -6.302,0.018 -6.337,0.006 -6.371,-0.01 -6.392,-0.043 -6.392,-0.095 c 0,-0.055 0.024,-0.089 0.061,-0.104 0.04,-0.014 0.115,-0.021 0.228,-0.021 h 1.658 c 0.085,0 0.151,0.005 0.196,0.021 0.045,0.013 0.072,0.045 0.078,0.095 0,0.034 -0.013,0.064 -0.042,0.094 -0.033,0.03 -0.066,0.043 -0.098,0.043 H -4.4 c -0.05,0 -0.099,0.007 -0.16,0.02 -0.058,0.008 -0.121,0.033 -0.178,0.072 -0.06,0.041 -0.095,0.1 -0.115,0.18 -0.021,0.078 -0.012,0.18 0.033,0.306 l 0.3,0.917 h 1.884 L -2.242,0.623 C -2.227,0.583 -2.216,0.522 -2.211,0.437 -2.203,0.356 -2.221,0.283 -2.26,0.217 -2.299,0.154 -2.352,0.108 -2.415,0.086 -2.481,0.063 -2.54,0.05 -2.589,0.047 L -2.735,0.033 C -2.786,0.03 -2.826,0.018 -2.856,0 c -0.03,-0.023 -0.048,-0.051 -0.051,-0.087 -0.006,-0.06 0.01,-0.097 0.044,-0.112 0.035,-0.014 0.096,-0.021 0.183,-0.021 h 2.578 c 0.047,0 0.082,0.015 0.112,0.046 0.03,0.032 0.045,0.065 0.039,0.1 C 0.046,-0.043 0.027,-0.018 0,0 m -4.388,1.886 0.801,1.998 0.026,-0.06 0.826,-1.938 z"
             style="fill:#231f20;fill-opacity:1;fill-rule:nonzero;stroke:none"
             id="path100"
             inkscape:connector-curvature="0" /></g><g
           id="g102"
           transform="translate(318.5591,473.5059)"><path
             d="m 0,0 h -5.256 c -0.049,-0.005 -0.091,0.006 -0.124,0.027 -0.032,0.022 -0.041,0.061 -0.029,0.119 0.006,0.032 0.023,0.056 0.051,0.076 0.024,0.016 0.056,0.028 0.085,0.032 l 0.084,0.014 c 0.034,0 0.086,0.019 0.155,0.052 0.074,0.034 0.144,0.075 0.211,0.129 0.069,0.055 0.118,0.127 0.145,0.217 0.031,0.09 0.045,0.196 0.048,0.316 V 4.77 c 0,0.048 -0.009,0.136 -0.025,0.262 -0.021,0.125 -0.05,0.216 -0.093,0.273 -0.045,0.054 -0.109,0.109 -0.199,0.166 -0.093,0.054 -0.156,0.083 -0.194,0.087 l -0.124,0.008 c -0.031,0 -0.063,0.012 -0.091,0.038 -0.033,0.027 -0.041,0.059 -0.034,0.102 0.01,0.041 0.029,0.071 0.056,0.093 0.032,0.02 0.069,0.029 0.112,0.029 L -2.645,5.826 C -2.602,5.822 -2.566,5.811 -2.544,5.793 -2.521,5.773 -2.506,5.745 -2.506,5.711 -2.503,5.672 -2.515,5.64 -2.535,5.613 -2.559,5.588 -2.585,5.572 -2.618,5.571 L -2.739,5.558 C -2.813,5.549 -2.887,5.523 -2.956,5.484 -3.026,5.443 -3.089,5.385 -3.146,5.311 -3.201,5.234 -3.242,5.15 -3.259,5.058 -3.28,4.965 -3.288,4.879 -3.288,4.799 V 0.857 c -0.003,-0.097 -0.003,-0.167 0,-0.206 0.003,-0.04 0.023,-0.085 0.055,-0.133 0.035,-0.047 0.08,-0.089 0.135,-0.12 0.057,-0.031 0.123,-0.044 0.202,-0.044 h 0.904 c 0.058,0 0.149,0.002 0.27,0.016 0.122,0.011 0.249,0.04 0.376,0.084 0.127,0.043 0.259,0.118 0.403,0.23 0.139,0.108 0.252,0.212 0.341,0.31 0.087,0.102 0.168,0.211 0.246,0.336 0.081,0.125 0.141,0.232 0.177,0.324 l 0.062,0.154 c 0.029,0.072 0.05,0.122 0.069,0.155 0.021,0.028 0.057,0.042 0.11,0.038 C 0.114,1.997 0.146,1.979 0.161,1.949 0.178,1.917 0.181,1.848 0.172,1.739 Z"
             style="fill:#231f20;fill-opacity:1;fill-rule:nonzero;stroke:none"
             id="path104"
             inkscape:connector-curvature="0" /></g><g
           id="g106"
           transform="translate(221.7867,510.4942)"><path
             d="M 0,0 C -0.54,0.046 -1.082,0.067 -1.633,0.067 H -1.702 C -2.228,0.066 -2.75,0.043 -3.267,0 c -0.2,-0.016 -0.398,-0.037 -0.596,-0.061 v -11.052 c 0,-0.547 0.447,-0.994 0.992,-0.994 h 2.337 c 0.547,0 0.996,0.447 0.996,0.994 v 11.07 C 0.308,-0.027 0.153,-0.015 0,0"
             style="fill:#12806a;fill-opacity:1;fill-rule:nonzero;stroke:none"
             id="path108"
             inkscape:connector-curvature="0" /></g><g
           id="g110"
           transform="translate(224.4098,510.0957)"><path
             d="m 0,0 v -4.566 -7.23 c -0.039,-0.411 -0.363,-0.738 -0.775,-0.779 v -0.003 h -2.252 c -0.479,0 -0.866,-0.387 -0.866,-0.863 v -6.051 c 0,0.457 0.354,0.828 0.802,0.859 h 4.309 c 0.028,-0.002 0.052,-0.002 0.079,-0.002 0.027,0 0.054,0 0.082,0.002 0.293,0.026 0.543,0.205 0.679,0.454 0.001,0.005 0.003,0.007 0.005,0.013 0.02,0.037 0.036,0.078 0.052,0.119 0.006,0.024 0.016,0.049 0.02,0.075 0.006,0.017 0.01,0.036 0.01,0.057 0.01,0.045 0.013,0.087 0.016,0.134 v 0.006 0.003 10e-4 0.002 0.005 12.366 c 5.108,-2.429 8.638,-7.633 8.638,-13.663 0,-7.618 -5.633,-13.921 -12.962,-14.968 v 8.484 h 3.381 c 0.028,-0.002 0.052,-0.004 0.079,-0.004 0.027,0 0.054,0.002 0.082,0.004 0.437,0.042 0.782,0.408 0.782,0.859 v 0.002 0.002 5.193 0.864 c 0,-0.479 -0.386,-0.864 -0.864,-0.864 h -4.324 c -0.479,0 -0.866,-0.388 -0.866,-0.865 v -5.183 h -0.864 v 5.183 c 0,0.477 -0.386,0.865 -0.864,0.865 h -4.325 c -0.478,0 -0.868,0.385 -0.868,0.864 v -6.061 c 0.007,-0.451 0.348,-0.817 0.789,-0.859 0.024,-0.002 0.051,-0.004 0.079,-0.004 0.025,0 0.053,0.002 0.081,0.004 h 3.379 v -8.484 c -7.328,1.047 -12.959,7.35 -12.959,14.968 0,6.03 3.528,11.234 8.631,13.663 v -12.374 -0.003 c 0,-0.003 0.004,-0.003 0.004,-0.006 0.003,-0.047 0.006,-0.089 0.012,-0.134 0.005,-0.021 0.008,-0.04 0.015,-0.057 0.003,-0.026 0.011,-0.051 0.02,-0.075 0.014,-0.041 0.032,-0.082 0.052,-0.119 10e-4,-0.006 0.003,-0.008 0.006,-0.013 0.136,-0.249 0.384,-0.428 0.68,-0.454 0.024,-0.002 0.051,-0.002 0.079,-0.002 0.025,0 0.053,0 0.081,0.002 h 4.303 c 0.452,-0.031 0.805,-0.402 0.805,-0.859 v 6.051 c 0,0.476 -0.386,0.863 -0.864,0.863 H -7.87 l -0.005,0.003 c -0.409,0.041 -0.735,0.368 -0.773,0.779 V -0.03 c -8.633,-1.993 -15.068,-9.724 -15.068,-18.964 0,-10.723 8.678,-19.42 19.391,-19.458 h 0.069 c 10.747,0 19.459,8.712 19.459,19.458 C 15.203,-9.709 8.702,-1.943 0,0"
             style="fill:#12806a;fill-opacity:1;fill-rule:nonzero;stroke:none"
             id="path112"
             inkscape:connector-curvature="0" /></g></g></g></g></svg>