<svg viewBox="0 0 8 8" xmlns="http://www.w3.org/2000/svg"><path d="M4.131 5.559c0-.263.113-.3.376-.15.45.262.901.488.901.488 0-.15.15-.263.414-.188.263.075.525.113.525.113s-.15-.338-.225-.489c-.113-.263 0-.413.113-.45 0 0-.15-.113-.263-.188-.226-.15-.188-.338.037-.413.3-.15.714-.3.714-.3-.113-.076-.263-.264-.113-.527.15-.225.413-.563.413-.563H6.31c-.263 0-.338-.225-.338-.376 0 0-.413.3-.714.489-.263.187-.488 0-.45-.3.075-.451.112-.977.112-.977-.15.15-.413.112-.563-.113-.188-.376-.376-.826-.376-.826s-.188.45-.375.826c-.113.225-.376.263-.526.15 0 0 .037.526.112.977.038.263-.187.45-.45.263-.3-.188-.751-.489-.751-.489 0 .15-.076.338-.338.376H.939s.263.338.413.563c.15.226 0 .451-.113.526 0 0 .376.188.714.3.225.113.3.264.038.414-.076.075-.263.188-.263.188.15.037.263.187.15.45-.075.15-.225.489-.225.489s.262-.076.525-.113c.263-.075.376.075.414.188 0 0 .45-.263.901-.489.225-.15.376-.075.376.15v.64c0 .375-.076.75-.188.976C1.99 6.986.563 5.634.563 3.83c0-1.84 1.54-3.343 3.456-3.343 1.915 0 3.455 1.503 3.455 3.343 0 1.728-1.352 3.155-3.08 3.343v.45C6.423 7.437 8 5.822 8 3.831 8 1.691 6.197 0 3.981 0 1.803 0 0 1.69 0 3.793c0 1.84 1.39 3.38 3.23 3.719.3.075.488.112.676.3.188-.375.225-1.127.225-1.54V5.56Z" fill="#F01428" fill-rule="nonzero"/></svg>