<svg viewBox="0 0 24 24" xmlns="http://www.w3.org/2000/svg"><path d="M17.277 10.031c2.17 0 3.201 1.949 3.201 3.19 0 .793-.313 2.378-1.803 2.378-1.19 0-1.95-1.21-1.575-2.2-.083.333.093.657.448.657.344 0 .532-.324.47-.73 0-.083-.105-.834-.94-.834-.698 0-.927.636-.927.948v4.193c0 4.483-4.88 7.798-9.448 5.744 3.431.96 7.363-1.449 7.363-5.443v-4.712c0-1.377 1.146-3.19 3.211-3.19Zm4.41-6.674c.032.302-.27 3.555-3.784 4.483-.72.189-4.578-.187-4.578 4.276v5.38c0 1.126-.271 3.118-2.377 4.526-2.169 1.439-5.683 1.209-7.487-2.034l.016.015c.205.198 2.433 2.237 5.323.559 1.95-1.132 2.07-3.448 2.075-3.591V11.48c.003-.385.114-2.828 2.366-4.62 1.71-1.345 3.295-1.252 4.39-1.387 2.805-.344 4.056-2.116 4.056-2.116ZM22.907 0s-.97 3.795-5.358 4.703c-.804.167-3.223-.115-5.496 2.252-1.804 1.877-1.991 3.608-1.991 5.891v4.036c0 1.762-1.418 3.544-3.587 3.544-2.096 0-3.566-1.668-3.566-3.544v-6.85c0-.564-.407-1.075-1.054-1.075H1v-.199h2.805c0-.5.428-1.47 1.523-1.47.427 0 .5.095 1.052-.02.72-.24 1.044-.658 1.19-.99 0 0 .28 1.188-.846 1.813-.636.345-1.615.074-1.615.074s-.793-.115-.897.593c.448 0 1.147.45 1.147 1.221v6.528c0 .468.375.958.948.958.512 0 .95-.406.95-.958v-4.579c0-6.756 5.255-9.56 8.31-9.79 2.533-.189 4.244.04 7.34-2.138Z" fill="#E60816"/></svg>