<svg viewBox="0 0 24 24" xmlns="http://www.w3.org/2000/svg"><path d="M13.143 23.467C8.198 21.965 4.605 17.401 4.605 12c0-5.458 3.67-10.06 8.69-11.524.514-.152.38-.476-.247-.476C6.373 0 .953 5.382.953 12s5.42 12 12.095 12c.628 0 .666-.362.095-.533m-6.237-8.671a8.32 8.32 0 0 1-.058-.97 9.52 9.52 0 0 1 9.528-9.528c4.982 0 6.465 2.225 6.656 2.073.209-.152-1.807-4.564-7.645-4.564a9.52 9.52 0 0 0-8.88 12.97c.17.456.436.456.399.019m3.993-6.866c2.472-1.083 5.591-1.121 8.653-.037 2.053.722 3.252 1.75 3.347 1.692.171-.076-1.198-2.225-3.652-3.157a8.71 8.71 0 0 0-8.481 1.293c-.266.21-.171.343.133.21" fill="#09c"/></svg>