<?xml version="1.0" encoding="UTF-8" standalone="no"?>
<!-- Created with Inkscape (http://www.inkscape.org/) -->
<svg
   xmlns:svg="http://www.w3.org/2000/svg"
   xmlns="http://www.w3.org/2000/svg"
   version="1.0"
   width="650.28998"
   height="169.16"
   id="svg2">
  <defs
     id="defs4">
    <clipPath
       id="clipPath2570">
      <path
         d="M 0,792 L 612,792 L 612,0 L 0,0 L 0,792 z"
         id="path2572" />
    </clipPath>
    <clipPath
       id="clipPath2562">
      <path
         d="M 211.834,373.42203 L 398.92102,373.42203 L 398.92102,415.66098 L 211.834,415.66098 L 211.834,373.42203 z"
         id="path2564" />
    </clipPath>
    <clipPath
       id="clipPath2554">
      <path
         d="M 211.834,373.42203 L 398.92102,373.42203 L 398.92102,415.66098 L 211.834,415.66098 L 211.834,373.42203 z"
         id="path2556" />
    </clipPath>
    <clipPath
       id="clipPath2546">
      <path
         d="M -440.75427,-22.35841 L -440.75427,-7.95842 L -395.82086,-7.95842 L -395.82086,-22.35841 L -440.75427,-22.35841 z"
         id="path2548" />
    </clipPath>
    <clipPath
       id="clipPath2474">
      <path
         d="M 133.2,14.39999 L 133.2,581.27997 L 571.44,581.27997 L 571.44,14.39999 L 133.2,14.39999 z"
         id="path2476" />
    </clipPath>
    <clipPath
       id="clipPath2466">
      <path
         d="M 306,-414 L 306,416.25 L 945,416.25 L 945,-414 L 306,-414 z"
         id="path2468" />
    </clipPath>
    <clipPath
       id="clipPath2458">
      <path
         d="M 0,0 L 612,0 L 612,792 L 0,792 L 0,0 z"
         id="path2460" />
    </clipPath>
  </defs>
  <g
     transform="translate(3.0359411,2.3886109)"
     id="layer1">
    <g
       transform="translate(12.856025,4.2849887)"
       id="g2913">
      <path
         d="M 302.19708,150.70651 L 302.19708,150.70651 L 302.19708,150.70651 L 302.19708,150.70651 L 302.19708,150.70651 z"
         id="path2510"
         style="fill:#1476c6;fill-opacity:1;fill-rule:nonzero;stroke:none" />
      <path
         d="M 302.19708,150.70651 L 302.19708,150.70651 L 302.19708,150.70651 L 302.19708,150.70651 z"
         id="path2512"
         style="fill:none;stroke:#ec008c;stroke-width:1.86500704;stroke-linecap:butt;stroke-linejoin:miter;stroke-miterlimit:2.61310005;stroke-dasharray:none;stroke-opacity:1" />
      <path
         d="M 193.22912,149.92418 L 229.2913,149.92418 L 229.2913,20.571009 L 193.22912,20.571009 L 193.22912,149.92418 L 193.22912,149.92418 z"
         id="path2514"
         style="fill:#1476c6;fill-opacity:1;fill-rule:nonzero;stroke:none" />
      <path
         d="M 64.663419,22.92328 C 64.663419,22.92328 67.014171,18.220142 67.014171,18.220142 C 66.22996,19.786699 65.445699,21.354989 64.663419,22.92328 C 64.663419,22.92328 64.663419,22.92328 64.663419,22.92328 z"
         id="path2516"
         style="fill:#1476c6;fill-opacity:1;fill-rule:nonzero;stroke:none" />
      <path
         d="M 118.75531,18.220142 C 118.75531,18.220142 121.10594,22.1393 121.10594,22.1393 C 120.3219,20.571009 119.53952,19.004452 118.75531,18.220142 C 118.75531,18.220142 118.75531,18.220142 118.75531,18.220142 z"
         id="path2518"
         style="fill:#1476c6;fill-opacity:1;fill-rule:nonzero;stroke:none" />
      <path
         d="M 121.10594,22.1393 C 121.10594,22.1393 118.75531,18.220142 118.75531,18.220142 C 112.48253,8.028235 102.29218,3.3256748 92.884599,3.3256748 C 85.829373,3.3256748 74.069233,8.028235 67.014171,18.220142 C 67.014171,18.220142 -5.893084,150.70651 -5.893084,150.70651 L 40.359259,149.92418 L 53.687483,126.40404 L 131.29779,126.40404 L 143.05786,149.92418 L 190.87842,149.92418 L 121.10594,22.1393 L 121.10594,22.1393 z M 70.150339,96.611222 L 92.100396,55.065392 L 114.83465,96.611222 L 70.150339,96.611222 L 70.150339,96.611222 z"
         id="path2520"
         style="fill:#1476c6;fill-opacity:1;fill-rule:nonzero;stroke:none" />
      <path
         d="M 431.5481,56.633518 C 431.5481,56.633518 431.5481,56.633518 431.5481,56.633518 C 431.5481,56.633518 431.5481,56.633518 432.3306,56.633518 C 432.3306,56.633518 431.5481,56.633518 431.5481,56.633518 L 431.5481,56.633518 z"
         id="path2522"
         style="fill:#1476c6;fill-opacity:1;fill-rule:nonzero;stroke:none" />
      <path
         d="M 495.04596,84.072244 C 491.9097,72.312212 489.55908,62.120306 460.5519,57.417333 C 451.93167,55.849372 440.17164,56.633518 431.5481,56.633518 C 422.92465,56.633518 411.9505,55.849372 403.32705,57.417333 C 373.53754,62.120306 371.96941,72.312212 368.05042,84.072244 C 367.26437,88.773402 367.26437,99.74772 367.26437,103.6663 C 367.26437,108.37472 368.83275,125.62154 369.61516,127.96894 C 372.7519,141.29726 382.9434,149.14185 403.32705,150.70668 C 408.81392,150.70668 420.5704,153.06043 431.5481,152.27142 C 442.52226,153.06043 455.85058,151.48892 461.33753,150.70668 C 484.85405,147.5701 491.12737,141.29726 494.26346,127.96894 C 494.26346,125.62154 496.61425,108.37472 496.61425,103.6663 C 496.61425,99.74772 495.83192,88.773402 495.04596,84.072244 C 495.04596,84.072244 495.04596,84.072244 495.04596,84.072244 z M 458.20136,113.85821 C 457.41904,119.34871 452.714,122.48512 444.09055,123.26745 C 441.73976,123.26745 436.25314,123.26745 431.5481,123.26745 C 431.5481,123.26745 431.5481,123.26745 431.5481,123.26745 L 431.5481,123.26745 C 431.5481,123.26745 431.5481,123.26745 431.5481,123.26745 C 426.84373,123.26745 421.35636,123.26745 419.00574,123.26745 C 410.38221,122.48512 406.46388,119.34871 404.89187,113.85821 C 404.89187,112.29322 404.10938,105.23814 404.10938,103.6663 C 404.10938,102.10156 404.10938,97.400732 404.10938,95.046398 C 405.67783,90.344911 406.46388,86.419315 419.00574,84.072244 C 422.92465,84.072244 428.41185,83.28975 431.5481,83.28975 C 431.5481,83.28975 431.5481,83.28975 431.5481,83.28975 L 431.5481,83.28975 C 431.5481,83.28975 431.5481,83.28975 431.5481,83.28975 C 435.4671,83.28975 440.17164,84.072244 444.09055,84.072244 C 456.63299,86.419315 457.41904,90.344911 458.98716,95.046398 C 459.76966,97.400732 459.76966,102.10156 459.76966,103.6663 C 459.76966,105.23814 458.98716,113.07571 458.20136,113.85821 C 458.20136,113.85821 458.20136,113.85821 458.20136,113.85821 z"
         id="path2524"
         style="fill:#1476c6;fill-opacity:1;fill-rule:nonzero;stroke:none" />
      <path
         d="M 624.39913,83.28975 C 624.39913,75.446977 619.69442,62.120306 591.47304,57.417333 C 582.06379,55.849372 576.57692,56.633518 567.95305,56.633518 C 556.97898,56.633518 545.2192,61.336408 538.94959,67.609239 C 538.94959,67.609239 538.94959,67.609239 538.16354,67.609239 C 538.16354,67.609239 538.16354,56.633518 538.16354,56.633518 L 502.10136,56.633518 L 502.10136,149.92418 L 538.16354,149.92418 C 538.16354,149.92418 538.16354,103.6663 538.16354,103.6663 C 538.16354,96.611222 541.30029,91.127323 549.1377,86.419315 C 553.06032,84.854656 556.97898,84.072244 563.24851,84.072244 C 570.30359,84.072244 572.65792,84.072244 576.57692,84.854656 C 585.9827,87.99099 588.33662,91.127323 588.33662,99.74772 C 588.33662,99.74772 588.33662,149.92418 588.33662,149.92418 L 624.39913,149.92418 L 624.39913,83.28975 C 624.39913,83.28975 624.39913,83.28975 624.39913,83.28975 z"
         id="path2526"
         style="fill:#1476c6;fill-opacity:1;fill-rule:nonzero;stroke:none" />
      <path
         d="M 302.19708,152.27142 C 291.22243,152.27142 278.67858,150.70651 273.19138,150.70651 C 252.80971,149.14185 242.61781,141.29726 240.26545,127.96894 C 239.48114,124.8322 237.12912,108.37472 237.12912,103.6663 C 237.12912,99.74772 237.91343,87.99099 238.69757,84.072244 C 241.83366,71.528232 244.1842,62.904451 273.19138,58.201478 C 281.81483,56.633518 293.57313,56.633518 302.19708,56.633518 C 310.82053,56.633518 321.79642,56.633518 331.20228,58.201478 C 342.17982,59.767952 349.23159,63.688761 353.15397,68.391321 C 353.15397,68.391321 327.28337,101.31923 327.28337,101.31923 C 327.28337,98.965308 327.28337,96.611222 326.49906,95.046398 C 324.93093,90.344911 324.1486,86.419315 311.60451,84.072244 C 307.68576,84.072244 306.11566,83.28975 302.19708,83.28975 C 298.278,83.28975 293.57313,84.072244 289.65282,84.072244 C 277.11029,86.419315 276.32796,90.344911 274.75975,95.046398 C 273.97561,97.400732 273.97561,102.10156 273.97561,103.6663 C 273.97561,105.23814 274.75975,113.07571 275.54382,113.85821 C 276.32796,119.34871 281.03052,122.48512 289.65282,123.26745 C 292.00674,123.26745 297.49386,123.26745 302.19708,123.26745 C 306.90145,123.26745 312.38882,123.26745 314.74092,123.26745 C 327.28337,122.48512 346.88097,118.56663 360.99154,102.10156 C 360.99154,102.10156 359.42342,126.40404 359.42342,129.54062 C 356.29022,142.07951 351.58584,149.14185 331.20228,150.70651 C 325.71508,150.70651 313.17263,152.27142 302.19708,152.27142 C 302.19708,152.27142 302.19708,152.27142 302.19708,152.27142 z"
         id="path2528"
         style="fill:#1476c6;fill-opacity:1;fill-rule:nonzero;stroke:none" />
    </g>
  </g>
</svg>
