<svg viewBox="0 0 24 24" xmlns="http://www.w3.org/2000/svg"><path d="M7.582 14.742h1.373V9.817H7.582v4.925ZM2.687 9.906l.09-.179-.09.18Zm2.06-.179.089.15c-.03-.06-.06-.12-.09-.15Zm.089.15-.09-.15a1.159 1.159 0 0 0-.985-.567c-.268 0-.716.18-.985.567L0 14.772l1.761-.03.508-.895h2.955l.448.895h1.82L4.837 9.877Zm-1.94 2.835.835-1.582.866 1.582H2.896Zm13.76-1.522h.03-.03Zm2.419 1.045c-.12-.448-.21-.836-1.314-1.015-.328-.06-.776-.03-1.104-.03-.329 0-.746-.03-1.075.03-1.134.179-1.194.567-1.343 1.015-.03.179-.03.597-.03.746 0 .18.06.836.09.925.119.508.507.806 1.283.866.209 0 .657.09 1.075.06.418.03.925-.03 1.134-.06.895-.12 1.134-.358 1.254-.866 0-.09.09-.746.09-.925 0-.15-.03-.567-.06-.746Zm-1.403 1.134c-.03.209-.21.328-.538.358h-.955c-.328-.03-.477-.149-.537-.358 0-.06-.03-.328-.03-.388v-.328c.06-.18.09-.329.567-.418.15 0 .358-.03.478-.03.149 0 .328.03.477.03.478.09.508.239.567.418.03.09.03.268.03.328s-.03.358-.06.388ZM24 12.205c0-.299-.18-.806-1.254-.985-.358-.06-.567-.03-.895-.03-.418 0-.866.18-1.105.418h-.03v-.418h-1.373v3.552h1.373v-1.761c0-.269.12-.478.418-.657.15-.06.299-.09.538-.09.268 0 .358 0 .507.03.358.12.448.24.448.568v1.91H24v-2.537Zm-12.269 2.627c-.418 0-.895-.06-1.104-.06-.776-.06-1.164-.358-1.254-.866-.03-.12-.12-.746-.12-.925 0-.15.03-.597.06-.746.12-.478.21-.806 1.314-.985.328-.06.776-.06 1.104-.06.329 0 .747 0 1.105.06.418.06.686.209.836.388l-.985 1.254c0-.09 0-.18-.03-.24-.06-.178-.09-.328-.568-.417-.149 0-.209-.03-.358-.03s-.328.03-.477.03c-.478.09-.508.239-.567.418-.03.09-.03.268-.03.328s.03.358.06.388c.03.209.208.328.537.358h.955c.478-.03 1.224-.179 1.761-.806 0 0-.06.926-.06 1.045-.119.478-.298.747-1.074.806-.21 0-.687.06-1.105.06Z" fill="#1476c6"/></svg>