<svg viewBox="0 0 24 24" xmlns="http://www.w3.org/2000/svg"><path d="M2.615 16.658c-.098-.011-.25-.098-.358-.184-1.027-1.007.292-2.165 1.818-2.835v-1.915c.357.227.552.237.563.27l1.168-1.158-.39-.995c3.42-1.18 4.794-1.634 7.575-2.1l-.498-.465.812-.465c1.872.617 3.636.78 3.332 2.348.076-1.06-1.244-1.472-3.256-2.034l-.39.238.747.617c-3.333.573-5.378 1.223-7.813 2.066l.336.866-1.223 1.201c.206.054 2.338.768 4.555-.779 0 0 .044-.033.044-.043-.064-.109-.217-.228-.4-.39.65.044 1.07.617.995 1.212h-.303c.022-.195-.022-.4-.086-.54-1.72 1.254-3.712 1.438-5.41.843v1.482c-.823.293-2.295 1.2-2.284 2.078.054.422.27.573.466.682"/><path d="M9.642 16.16c-1.84.931-3.604 1.678-6.32 1.786-3.538-.076-4.09-2.424-2.413-4.88C2.49 10.588 5 8.348 8.993 6.952c1.157-.41 2.856-.876 4.5-.898 2.36-.022 4.654.714 4.502 2.976-.087 1.731-2.586 4.177-3.906 5.93-.563.767-.66 1.266.302 1.223 3.496-.228 6.666-1.44 9.609-2.695-1.99 1.353-12.281 6.449-12.324 2.976.01-.444.216-.91.551-1.407.325-.498.78-1.017 1.245-1.547.703-.801 2.445-2.716 3.03-3.864.984-2.174-1.223-2.283-3.128-2.953l-.812.464.499.466c-2.781.465-4.155.92-7.575 2.1l.39.995-1.169 1.158c-.032-.033-.205-.043-.562-.27v1.914c-1.526.671-2.846 1.829-1.819 2.835.109.087.26.173.358.184 1.872 1.06 6.968-.378 6.958-.378" fill="#f60"/></svg>