<?xml version="1.0" encoding="UTF-8" standalone="no"?>
<!DOCTYPE svg PUBLIC "-//W3C//DTD SVG 1.1//EN" "http://www.w3.org/Graphics/SVG/1.1/DTD/svg11.dtd">
<!-- Created with Vectornator (http://vectornator.io/) -->
<svg stroke-miterlimit="10" style="fill-rule:nonzero;clip-rule:evenodd;stroke-linecap:round;stroke-linejoin:round;" version="1.1" viewBox="0 0 24 24" xml:space="preserve" xmlns="http://www.w3.org/2000/svg" xmlns:xlink="http://www.w3.org/1999/xlink">
<defs/>
<g id="Untitled">
<g opacity="1">
<path d="M8.0066 11.0616L16.0132 11.0616L16.0132 11.0616L16.0132 12.8586L16.0132 12.8586L8.0066 12.8586L8.0066 12.8586L8.0066 11.0616L8.0066 11.0616Z" fill="#ed6b1e" fill-rule="nonzero" opacity="1" stroke="none"/>
<path d="M20.0065 4.51253L14.7154 4.51253L15.9932 6.32949L19.8668 7.50752C20.5855 7.72715 21.0448 8.40601 21.0248 9.10485L21.0248 9.10485L21.0248 14.8952L21.0248 14.8952C21.0248 15.614 20.5656 16.2728 19.8668 16.4925L16.0132 17.6705L14.7154 19.4875L20.0065 19.4875C22.2228 19.4875 23.9998 17.6905 23.9998 15.4942L23.9998 8.50585C24.0198 6.30952 22.2228 4.51253 20.0065 4.51253" fill="#ed6b1e" fill-rule="nonzero" opacity="1" stroke="none"/>
<path d="M3.99332 4.51253L9.28446 4.51253L8.0066 6.32949L4.15305 7.50752C3.43425 7.72715 2.97502 8.40601 2.99499 9.10485L2.99499 9.10485L2.99499 14.8952L2.99499 14.8952C2.99499 15.614 3.45422 16.2728 4.15305 16.4925L8.0066 17.6705L9.28446 19.4875L3.99332 19.4875C1.79699 19.4875 0 17.6905 0 15.4942L0 8.50585C0 6.30952 1.79699 4.51253 3.99332 4.51253" fill="#ed6b1e" fill-rule="nonzero" opacity="1" stroke="none"/>
</g>
</g>
</svg>
