<svg viewBox="0 0 24 24" xmlns="http://www.w3.org/2000/svg"><path d="M8.007 11.062h8.006v1.797H8.007v-1.797Zm12-6.55h-5.292l1.278 1.817 3.874 1.179a1.64 1.64 0 0 1 1.158 1.597v5.79c0 .719-.46 1.378-1.158 1.598l-3.854 1.178-1.298 1.817h5.291A3.992 3.992 0 0 0 24 15.494V8.506c.02-2.196-1.777-3.993-3.994-3.993m-16.013 0h5.291L8.007 6.329 4.153 7.508a1.64 1.64 0 0 0-1.158 1.597v5.79c0 .719.46 1.378 1.158 1.598l3.854 1.178 1.277 1.817h-5.29A4.005 4.005 0 0 1 0 15.494V8.506a4.005 4.005 0 0 1 3.993-3.993" fill="#ed6b1e"/></svg>