<?xml version="1.0" encoding="UTF-8" standalone="no"?>
<!DOCTYPE svg PUBLIC "-//W3C//DTD SVG 1.1//EN" "http://www.w3.org/Graphics/SVG/1.1/DTD/svg11.dtd">
<!-- Created with Vectornator (http://vectornator.io/) -->
<svg stroke-miterlimit="10" style="fill-rule:nonzero;clip-rule:evenodd;stroke-linecap:round;stroke-linejoin:round;" version="1.1" viewBox="0 0 68.04 68.04" xml:space="preserve" xmlns="http://www.w3.org/2000/svg" xmlns:xlink="http://www.w3.org/1999/xlink">
<defs/>
<g id="layer1">
<path d="M28.2073 7.95998C26.9367 7.95998 26.9921 9.17521 26.9921 9.17522L26.9921 16.7367L9.03364 16.7367L9.03364 19.7072L26.9921 19.7072L26.9921 24.9733L12.1392 24.9733L12.1392 27.8088L40.8998 27.8088C39.8478 31.4638 38.3901 34.9532 36.714 38.0708C27.3869 34.9671 17.4466 32.4716 11.1941 34.02C7.19535 35.0136 4.60546 36.7528 3.09249 38.6109C-3.8516 47.1318 1.11978 60.08 15.7849 60.08C24.4559 60.08 32.8054 55.1524 39.2795 47.1175C48.9356 51.7988 68.04 59.81 68.04 59.81L68.04 48.4678C68.04 48.4678 65.662 48.2615 55.0775 44.6871C52.1363 43.6935 48.2662 42.1052 43.8703 40.5012C46.5102 35.8728 48.5606 30.7016 49.9465 24.9733L35.4987 24.9733L35.4987 19.7072L53.1871 19.7072L53.1871 16.7367L35.4987 16.7367L35.4987 7.95998L28.2073 7.95998ZM12.4093 38.3408C19.202 37.6639 25.5128 40.359 32.9332 44.0119C27.7174 50.8741 21.0809 55.0841 14.4347 55.0841C2.99959 55.0841-0.398323 46.0114 5.25291 41.0414C7.13874 39.3617 10.5721 38.5248 12.4093 38.3408Z" fill="#1677ff" fill-rule="nonzero" opacity="1" stroke="none"/>
</g>
</svg>
