<svg viewBox="0 0 24 24" xmlns="http://www.w3.org/2000/svg"><path d="M9.95 2.808c-.449 0-.429.428-.429.428v2.668H3.186V6.95h6.335V8.81h-5.24v1h10.146a18.54 18.54 0 0 1-1.477 3.62C9.66 12.334 6.154 11.454 3.95 12c-1.411.35-2.324.964-2.858 1.62-2.45 3.005-.696 7.572 4.477 7.572 3.058 0 6.004-1.738 8.287-4.572C17.261 18.27 24 21.097 24 21.097v-4s-.839-.074-4.572-1.334c-1.038-.35-2.403-.911-3.954-1.477.932-1.633 1.655-3.457 2.144-5.477h-5.096V6.95h6.239V5.904h-6.24V2.808H9.95ZM4.377 13.524c2.396-.239 4.622.712 7.24 2-1.84 2.421-4.181 3.906-6.525 3.906-4.034 0-5.233-3.2-3.24-4.953.666-.593 1.877-.888 2.525-.953Z" fill="#1677ff"/></svg>