<svg clip-rule="evenodd" fill-rule="evenodd" viewBox="0 0 560 400" xmlns="http://www.w3.org/2000/svg"><path d="m342.597 244.195c-30.218 22.274-74.017 34.157-111.726 34.157-52.877 0-100.479-19.557-136.492-52.084-2.829-2.557-.294-6.044 3.101-4.051 38.865 22.612 86.92 36.216 136.559 36.216 33.477 0 70.305-6.927 104.168-21.3 5.115-2.172 9.393 3.35 4.39 7.062m12.563-14.373c-3.848-4.934-25.532-2.332-35.265-1.177-2.966.362-3.418-2.218-.747-4.075 17.271-12.155 45.61-8.646 48.914-4.571 3.306 4.096-.859 32.503-17.089 46.062-2.49 2.083-4.867.973-3.757-1.788 3.643-9.1 11.815-29.494 7.944-34.451" fill="#f90"/><path d="m320.574 138.761v-11.816c0-1.788 1.358-2.988 2.988-2.988h52.898c1.698 0 3.056 1.222 3.056 2.988v10.117c-.022 1.699-1.449 3.917-3.984 7.424l-27.411 39.138c10.186-.25 20.937 1.266 30.173 6.474 2.083 1.177 2.647 2.896 2.807 4.594v12.608c0 1.72-1.902 3.735-3.894 2.693-16.275-8.533-37.892-9.461-55.886.091-1.834.996-3.758-.996-3.758-2.717v-11.974c0-1.924.022-5.206 1.946-8.126l31.758-45.541h-27.638c-1.697 0-3.055-1.2-3.055-2.965m-192.966 73.723h-16.094c-1.539-.114-2.761-1.269-2.874-2.74v-82.596c0-1.652 1.38-2.965 3.101-2.965h15.007c1.562.068 2.807 1.268 2.92 2.762v10.797h.294c3.916-10.436 11.272-15.301 21.187-15.301 10.072 0 16.366 4.865 20.892 15.301 3.893-10.436 12.743-15.301 22.228-15.301 6.745 0 14.125 2.783 18.629 9.031 5.093 6.948 4.052 17.044 4.052 25.894l-.024 52.13c0 1.652-1.38 2.988-3.101 2.988h-16.07c-1.607-.114-2.898-1.404-2.898-2.988v-43.777c0-3.486.317-12.177-.453-15.483-1.199-5.545-4.798-7.107-9.461-7.107-3.893 0-7.968 2.603-9.62 6.768s-1.494 11.136-1.494 15.822v43.777c0 1.652-1.38 2.988-3.101 2.988h-16.07c-1.63-.114-2.898-1.404-2.898-2.988l-.023-43.777c0-9.212 1.517-22.771-9.914-22.771-11.566 0-11.114 13.218-11.114 22.771v43.777c0 1.652-1.38 2.988-3.101 2.988m297.45-90.043c23.881 0 36.805 20.507 36.805 46.582 0 25.193-14.282 45.18-36.805 45.18-23.45 0-36.216-20.507-36.216-46.062 0-25.713 12.924-45.7 36.216-45.7m.135 16.862c-11.86 0-12.607 16.163-12.607 26.235 0 10.095-.159 31.643 12.472 31.643 12.472 0 13.061-17.383 13.061-27.977 0-6.971-.294-15.301-2.399-21.911-1.812-5.748-5.41-7.99-10.527-7.99m67.635 73.181h-16.026c-1.607-.114-2.898-1.404-2.898-2.988l-.022-82.62c.136-1.516 1.471-2.693 3.101-2.693h14.917c1.404.068 2.557 1.019 2.874 2.309v12.63h.294c4.506-11.294 10.821-16.681 21.935-16.681 7.22 0 14.26 2.602 18.787 9.732 4.21 6.61 4.21 17.724 4.21 25.714v51.993c-.181 1.449-1.516 2.604-3.101 2.604h-16.139c-1.471-.114-2.693-1.2-2.852-2.604v-44.863c0-9.031 1.041-22.25-10.072-22.25-3.917 0-7.516 2.626-9.304 6.609-2.263 5.048-2.557 10.073-2.557 15.641v44.479c-.024 1.652-1.427 2.988-3.147 2.988m-214.423-39.454c0 6.27.158 11.499-3.012 17.068-2.557 4.526-6.631 7.31-11.136 7.31-6.18 0-9.801-4.708-9.801-11.657 0-13.716 12.291-16.206 23.949-16.206zm16.228 39.227c-1.063.951-2.602 1.018-3.802.385-5.341-4.437-6.315-6.497-9.236-10.73-8.827 9.009-15.097 11.703-26.528 11.703-13.559 0-24.084-8.352-24.084-25.08 0-13.06 7.062-21.956 17.158-26.302 8.737-3.848 20.938-4.527 30.264-5.59v-2.083c0-3.825.294-8.353-1.971-11.657-1.946-2.965-5.703-4.189-9.031-4.189-6.134 0-11.589 3.148-12.924 9.667-.272 1.448-1.336 2.874-2.807 2.942l-15.595-1.676c-1.313-.294-2.785-1.357-2.4-3.371 3.577-18.924 20.688-24.628 35.99-24.628 7.832 0 18.063 2.082 24.242 8.013 7.832 7.311 7.085 17.067 7.085 27.682v25.081c0 7.538 3.123 10.842 6.066 14.917 1.019 1.448 1.246 3.191-.067 4.277-3.282 2.739-9.123 7.832-12.337 10.685zm-227.213-39.227c0 6.27.159 11.499-3.01 17.068-2.557 4.526-6.61 7.31-11.136 7.31-6.18 0-9.778-4.708-9.778-11.657 0-13.716 12.291-16.206 23.924-16.206zm16.23 39.227c-1.063.951-2.603 1.018-3.803.385-5.342-4.437-6.292-6.497-9.234-10.73-8.829 9.009-15.076 11.703-26.529 11.703-13.536 0-24.084-8.352-24.084-25.08 0-13.06 7.085-21.956 17.158-26.302 8.737-3.848 20.937-4.527 30.262-5.59v-2.083c0-3.825.295-8.353-1.946-11.657-1.969-2.965-5.726-4.189-9.031-4.189-6.134 0-11.612 3.148-12.947 9.667-.272 1.448-1.336 2.874-2.785 2.942l-15.619-1.676c-1.311-.294-2.76-1.357-2.399-3.371 3.6-18.924 20.689-24.628 35.99-24.628 7.832 0 18.063 2.082 24.243 8.013 7.832 7.311 7.085 17.067 7.085 27.682v25.081c0 7.538 3.123 10.842 6.066 14.917 1.041 1.448 1.268 3.191-.045 4.277-3.283 2.739-9.122 7.832-12.337 10.685z" fill="#221f1f"/></svg>