<svg viewBox="0 0 24 24" xmlns="http://www.w3.org/2000/svg"><path d="M14.89 14.04c-1.396 1.028-3.417 1.576-5.157 1.576a9.331 9.331 0 0 1-6.3-2.404c-.13-.118-.014-.279.143-.187 1.794 1.044 4.012 1.672 6.303 1.672 1.545 0 3.245-.32 4.808-.983.236-.1.433.154.202.326m.58-.664c-.178-.227-1.178-.107-1.628-.054-.137.017-.157-.102-.034-.188.797-.561 2.105-.399 2.257-.211.153.19-.04 1.5-.788 2.126-.115.096-.225.045-.174-.083.168-.42.546-1.36.367-1.59" fill="#f90" fill-rule="evenodd"/><path d="M13.873 9.174v-.546c0-.082.062-.138.138-.138h2.441c.078 0 .141.057.141.138v.467c-.001.079-.067.18-.184.343l-1.265 1.806c.47-.011.966.059 1.393.299.096.054.122.134.13.212v.582c0 .08-.089.172-.18.124a2.813 2.813 0 0 0-2.58.004c-.085.046-.173-.046-.173-.125v-.553a.66.66 0 0 1 .09-.375l1.465-2.102h-1.275c-.079 0-.141-.055-.141-.136m-8.906 3.402h-.743a.14.14 0 0 1-.133-.126V8.638a.14.14 0 0 1 .143-.137h.693a.14.14 0 0 1 .135.127v.499h.013c.18-.482.52-.707.978-.707.465 0 .755.225.964.707.18-.482.588-.707 1.026-.707.311 0 .652.129.86.417.235.32.187.787.187 1.195l-.001 2.406a.14.14 0 0 1-.143.138h-.742a.141.141 0 0 1-.134-.138v-2.02c0-.161.015-.562-.02-.715-.056-.256-.222-.328-.437-.328-.18 0-.368.12-.444.313-.076.192-.07.513-.07.73v2.02a.14.14 0 0 1-.142.138h-.742a.14.14 0 0 1-.134-.138v-2.02c0-.425.07-1.051-.458-1.051-.534 0-.513.61-.513 1.05v2.021a.14.14 0 0 1-.143.138M18.695 8.42c1.102 0 1.699.947 1.699 2.15 0 1.163-.66 2.085-1.699 2.085-1.082 0-1.672-.946-1.672-2.125 0-1.187.597-2.11 1.672-2.11m.006.779c-.547 0-.582.746-.582 1.21 0 .466-.007 1.46.576 1.46.576 0 .603-.801.603-1.29 0-.322-.014-.707-.11-1.012-.085-.265-.25-.368-.487-.368m3.122 3.377h-.74a.141.141 0 0 1-.134-.138V8.625a.14.14 0 0 1 .142-.124h.689a.142.142 0 0 1 .133.106v.583h.013c.208-.521.5-.77 1.013-.77.333 0 .658.12.867.45.194.305.194.818.194 1.186v2.4a.143.143 0 0 1-.143.12h-.745a.14.14 0 0 1-.132-.12v-2.07c0-.417.048-1.028-.465-1.028-.18 0-.346.122-.429.306-.104.232-.118.464-.118.721v2.053a.143.143 0 0 1-.145.138m-9.897-1.82c0 .289.008.53-.139.787-.118.209-.306.337-.514.337-.285 0-.452-.217-.452-.538 0-.633.567-.748 1.105-.748v.161Zm.75 1.81a.155.155 0 0 1-.176.018c-.247-.205-.292-.3-.426-.496-.408.416-.697.54-1.225.54-.626 0-1.111-.385-1.111-1.157 0-.603.326-1.014.792-1.214.403-.178.966-.209 1.396-.258v-.096c0-.177.014-.386-.09-.538-.09-.137-.264-.194-.417-.194-.284 0-.535.146-.597.447-.012.066-.062.132-.13.135l-.72-.077c-.06-.014-.128-.063-.11-.156.165-.873.955-1.136 1.661-1.136.362 0 .834.096 1.119.37.361.337.327.787.327 1.277v1.158c0 .348.144.5.28.688.047.067.057.148-.003.198-.152.126-.421.361-.57.493v-.002Zm-10.487-1.81c0 .289.007.53-.14.787-.117.209-.304.337-.513.337-.286 0-.452-.217-.452-.538 0-.633.568-.748 1.105-.748v.161Zm.749 1.81a.155.155 0 0 1-.176.018c-.246-.205-.29-.3-.426-.496-.408.416-.696.54-1.224.54-.625 0-1.112-.385-1.112-1.157 0-.603.327-1.014.792-1.214.403-.178.966-.209 1.397-.258v-.096c0-.177.013-.386-.09-.538-.091-.137-.264-.194-.417-.194-.283 0-.536.146-.598.447-.012.066-.061.132-.128.135l-.721-.077c-.06-.014-.127-.063-.11-.156.165-.873.954-1.136 1.66-1.136.362 0 .834.096 1.12.37.36.337.326.787.326 1.277v1.158c0 .348.144.5.28.688.048.067.059.148-.002.198-.151.126-.42.361-.57.493l-.001-.002Z" fill="#221f1f" fill-rule="evenodd"/></svg>