<svg viewBox="0 0 8 8" version="1.1" xmlns="http://www.w3.org/2000/svg">
    <title>Group</title>
    <defs>
        <linearGradient x1="-0.0404907662%" y1="7.06901269%" x2="-0.0404907662%" y2="99.765116%" id="linearGradient-1">
            <stop stop-color="#EB2023" offset="0%"></stop>
            <stop stop-color="#E92026" offset="9.63%"></stop>
            <stop stop-color="#E31E27" offset="20.39%"></stop>
            <stop stop-color="#E01E26" offset="29.86%"></stop>
            <stop stop-color="#D81F27" offset="40.43%"></stop>
            <stop stop-color="#CF2027" offset="50%"></stop>
            <stop stop-color="#C62127" offset="60%"></stop>
            <stop stop-color="#B92025" offset="70%"></stop>
            <stop stop-color="#AE1F23" offset="80%"></stop>
            <stop stop-color="#A01D22" offset="90%"></stop>
            <stop stop-color="#901C1C" offset="100%"></stop>
        </linearGradient>
        <linearGradient x1="11.4513613%" y1="88.8959073%" x2="98.9913888%" y2="39.3035862%" id="linearGradient-2">
            <stop stop-color="#6C221F" offset="0%"></stop>
            <stop stop-color="#7F2620" offset="24.91%"></stop>
            <stop stop-color="#982B24" offset="49.83%"></stop>
            <stop stop-color="#B53125" offset="74.91%"></stop>
            <stop stop-color="#CB3327" offset="100%"></stop>
        </linearGradient>
        <linearGradient x1="22.5335343%" y1="67.7887127%" x2="98.6834833%" y2="37.1852287%" id="linearGradient-3">
            <stop stop-color="#E7EBEE" offset="0%"></stop>
            <stop stop-color="#DFE4E8" offset="24.91%"></stop>
            <stop stop-color="#CAD1D7" offset="49.83%"></stop>
            <stop stop-color="#A8B5BD" offset="74.91%"></stop>
            <stop stop-color="#93A6AD" offset="100%"></stop>
        </linearGradient>
        <linearGradient x1="44.0720586%" y1="0.0300020859%" x2="44.0720586%" y2="99.9435675%" id="linearGradient-4">
            <stop stop-color="#05AEE9" offset="0%"></stop>
            <stop stop-color="#00A9E0" offset="9.63%"></stop>
            <stop stop-color="#07A3DC" offset="20.39%"></stop>
            <stop stop-color="#089DD5" offset="29.86%"></stop>
            <stop stop-color="#0A92CC" offset="40.43%"></stop>
            <stop stop-color="#0F87C3" offset="50%"></stop>
            <stop stop-color="#127CB8" offset="60%"></stop>
            <stop stop-color="#0E70AD" offset="70%"></stop>
            <stop stop-color="#0F63A3" offset="80%"></stop>
            <stop stop-color="#135393" offset="90%"></stop>
            <stop stop-color="#184485" offset="100%"></stop>
        </linearGradient>
    </defs>
    <g id="Page-1" stroke="none" stroke-width="1" fill="none" fill-rule="evenodd">
        <g id="Group" transform="translate(0.849837, -0.003880)" fill-rule="nonzero">
            <path d="M3.47460622,5.69039464 L4.37434682,7.18551084 C4.65325748,7.63359971 5.11274212,7.83695475 5.68524247,7.83695475 L8,7.83695475 L5.29011056,4.55304443 L4.9056478,4.33411179 L3.89110631,4.66517355 L3.37701112,5.40911272 L3.47460622,5.69039464 Z" id="Path" fill="url(#linearGradient-1)"></path>
            <path d="M5.29010907,4.55304592 L4.72438756,3.86729511 L3.2291981,4.67152629 L3.38777893,5.48330929 L3.47460622,5.69039464 C3.44060283,5.14022382 4.38524471,4.50144204 5.29010907,4.55304592 L5.29010907,4.55304592 Z" id="Path" fill="url(#linearGradient-2)"></path>
            <path d="M3.47460622,5.69039464 L2.66564451,4.35280222 C2.56819741,4.20106602 2.54149616,4.06829385 2.54149616,3.91361227 C2.54149616,3.74347719 2.61402717,3.65018801 2.89258199,3.50245573 C3.21708169,3.3470864 3.87040196,3.27952366 4.54388236,3.27952366 C5.63823457,3.27952366 5.90056441,3.63074255 6.01229881,4.00972722 C6.01229881,4.00972722 5.85778768,3.94832136 5.49434772,3.94832136 C4.34144682,3.94832136 3.41987605,4.50796223 3.41987605,5.35533046 C3.41987605,5.53314894 3.47460622,5.69039464 3.47460622,5.69039464 L3.47460622,5.69039464 Z" id="Path" fill="url(#linearGradient-3)"></path>
            <path d="M-6.3554994e-15,0 L1.08814449,0 C1.54704752,0 1.73526452,0.187726603 1.92090544,0.371909785 C2.13338068,0.565062159 2.77779605,1.43723882 4.14009374,3.13952261 L2.66566992,3.13952261 C2.06275295,3.13952261 1.87205257,3.03680823 1.63886999,2.68120118 L-6.3554994e-15,0 Z" id="Path" fill="url(#linearGradient-4)"></path>
        </g>
    </g>
</svg>