<svg viewBox="0 0 8 8" xmlns="http://www.w3.org/2000/svg"><defs><linearGradient x1="-.04%" y1="7.069%" x2="-.04%" y2="99.765%" id="a"><stop stop-color="#EB2023" offset="0%"/><stop stop-color="#E92026" offset="9.63%"/><stop stop-color="#E31E27" offset="20.39%"/><stop stop-color="#E01E26" offset="29.86%"/><stop stop-color="#D81F27" offset="40.43%"/><stop stop-color="#CF2027" offset="50%"/><stop stop-color="#C62127" offset="60%"/><stop stop-color="#B92025" offset="70%"/><stop stop-color="#AE1F23" offset="80%"/><stop stop-color="#A01D22" offset="90%"/><stop stop-color="#901C1C" offset="100%"/></linearGradient><linearGradient x1="11.451%" y1="88.896%" x2="98.991%" y2="39.304%" id="b"><stop stop-color="#6C221F" offset="0%"/><stop stop-color="#7F2620" offset="24.91%"/><stop stop-color="#982B24" offset="49.83%"/><stop stop-color="#B53125" offset="74.91%"/><stop stop-color="#CB3327" offset="100%"/></linearGradient><linearGradient x1="22.534%" y1="67.789%" x2="98.683%" y2="37.185%" id="c"><stop stop-color="#E7EBEE" offset="0%"/><stop stop-color="#DFE4E8" offset="24.91%"/><stop stop-color="#CAD1D7" offset="49.83%"/><stop stop-color="#A8B5BD" offset="74.91%"/><stop stop-color="#93A6AD" offset="100%"/></linearGradient><linearGradient x1="44.072%" y1=".03%" x2="44.072%" y2="99.944%" id="d"><stop stop-color="#05AEE9" offset="0%"/><stop stop-color="#00A9E0" offset="9.63%"/><stop stop-color="#07A3DC" offset="20.39%"/><stop stop-color="#089DD5" offset="29.86%"/><stop stop-color="#0A92CC" offset="40.43%"/><stop stop-color="#0F87C3" offset="50%"/><stop stop-color="#127CB8" offset="60%"/><stop stop-color="#0E70AD" offset="70%"/><stop stop-color="#0F63A3" offset="80%"/><stop stop-color="#135393" offset="90%"/><stop stop-color="#184485" offset="100%"/></linearGradient></defs><g fill-rule="nonzero" fill="none"><path d="m3.475 5.69.9 1.496c.278.448.738.651 1.31.651H8L5.29 4.553l-.384-.219-1.015.331-.514.744.098.281Z" fill="url(#a)" transform="translate(.85 -.004)"/><path d="m5.29 4.553-.566-.686-1.495.805.159.811.087.207c-.034-.55.91-1.189 1.815-1.137Z" fill="url(#b)" transform="translate(.85 -.004)"/><path d="m3.475 5.69-.81-1.337a.75.75 0 0 1-.124-.44c0-.17.073-.263.352-.41.324-.156.977-.223 1.65-.223 1.095 0 1.358.35 1.47.73 0 0-.155-.062-.519-.062-1.153 0-2.074.56-2.074 1.407 0 .178.055.335.055.335Z" fill="url(#c)" transform="translate(.85 -.004)"/><path d="M0 0h1.088c.459 0 .647.188.833.372.212.193.857 1.065 2.22 2.768H2.665c-.603 0-.794-.103-1.027-.459L0 0Z" fill="url(#d)" transform="translate(.85 -.004)"/></g></svg>