<svg viewBox="0 0 24 24" xmlns="http://www.w3.org/2000/svg"><defs><linearGradient gradientTransform="matrix(.02342 0 0 .02342 26.623 -34.672)" gradientUnits="userSpaceOnUse" id="a" x1="-108.903" x2="-1137.2" y1="2124.83" y2="2110.65"><stop offset="0" stop-color="#3e82f4"/><stop offset="1" stop-color="#93dcf7"/></linearGradient></defs><path d="M13.762 4.29a6.51 6.51 0 0 0-5.669 3.332 3.571 3.571 0 0 0-1.558-.36 3.571 3.571 0 0 0-3.516 3A4.918 4.918 0 0 0 0 14.796a4.918 4.918 0 0 0 4.92 4.913c.207-.001.413-.016.617-.044H19.21c.072.005.144.009.216.01.068-.001.137-.005.205-.01h.328v-.024A4.592 4.592 0 0 0 24 15.077v-.009a4.594 4.594 0 0 0-3.727-4.508 6.51 6.51 0 0 0-6.511-6.27Z" fill="url(#a)"/></svg>