<?xml version="1.0" encoding="UTF-8" standalone="no"?>
<!DOCTYPE svg PUBLIC "-//W3C//DTD SVG 1.1//EN" "http://www.w3.org/Graphics/SVG/1.1/DTD/svg11.dtd">
<!-- Created with Vectornator (http://vectornator.io/) -->
<svg stroke-miterlimit="10" style="fill-rule:nonzero;clip-rule:evenodd;stroke-linecap:round;stroke-linejoin:round;" version="1.1" viewBox="0 0 24 24" xml:space="preserve" xmlns="http://www.w3.org/2000/svg" xmlns:xlink="http://www.w3.org/1999/xlink">
<defs/>
<g id="Untitled">
<g opacity="1">
<path d="M20.4838 20.9961C20.0495 21.7273 19.6099 22.2693 19.0812 22.7744C18.4778 23.3027 18.3213 23.7755 16.9393 23.9527C15.9777 24.1284 15.136 23.7685 14.8052 23.6257C13.8434 23.1805 13.3313 23.0289 12.7459 23.0298C12.1809 23.0295 11.6837 23.1747 10.7303 23.6169C10.4391 23.7639 9.62763 24.1174 8.64919 23.9413C7.63759 23.7624 7.11768 23.3752 6.75225 23.0484C5.97398 22.3659 5.38482 21.7075 4.86375 20.9574C4.86375 20.9574 20.4838 20.9961 20.4838 20.9961Z" fill="#1996d7" fill-rule="evenodd" opacity="1" stroke="none"/>
<path d="M2.66626 8.91243C3.12915 7.895 3.71482 7.20431 4.3127 6.73298C5.83171 5.48949 8.30239 5.40338 9.43765 5.70188C10.3666 5.9422 11.0355 6.50401 12.0951 6.50634C13.1867 6.50692 13.8201 5.94598 14.6935 5.7077C15.8369 5.41501 18.3152 5.50986 19.9261 6.75567C20.4108 7.11121 20.8464 7.61337 21.0919 7.87988C20.5202 8.31047 20.1592 8.61334 19.8793 8.91039C19.8793 8.91039 2.66626 8.91243 2.66626 8.91243Z" fill="#9fc54d" fill-rule="evenodd" opacity="1" stroke="none"/>
<path d="M19.8793 8.9101C19.6055 9.20657 19.4132 9.49228 19.1956 9.89261C18.9293 10.3698 18.6212 10.9964 18.5485 11.9632L1.91301 11.974C1.9229 11.8009 1.93891 11.6275 1.95869 11.4617C2.10998 10.4378 2.3599 9.59527 2.66626 8.91243C2.66626 8.91243 19.8793 8.9101 19.8793 8.9101Z" fill="#f3e253" fill-rule="evenodd" opacity="1" stroke="none"/>
<path d="M18.5488 11.9635C18.529 12.1972 18.5293 12.5981 18.5441 12.8518C18.5924 13.5596 18.8351 14.3478 19.1507 14.9832L2.2249 14.9515C2.00059 13.9289 1.8653 12.8701 1.91301 11.9743C1.91301 11.9743 18.5488 11.9635 18.5488 11.9635Z" fill="#e09346" fill-rule="evenodd" opacity="1" stroke="none"/>
<path d="M19.1507 14.9832C19.2994 15.2826 19.4638 15.5459 19.6288 15.7536C20.7469 17.1784 21.2223 17.1816 22.0965 17.625C22.0285 17.7725 21.9711 17.9145 21.9121 18.0527L3.20858 18.0166C2.85101 17.2235 2.47918 16.1092 2.2249 14.9515C2.2249 14.9515 19.1507 14.9832 19.1507 14.9832Z" fill="#d35b43" fill-rule="evenodd" opacity="1" stroke="none"/>
<path d="M21.9121 18.0527C21.3651 19.3226 20.9284 20.2563 20.4838 20.9961L4.86375 20.9574C4.34093 20.2027 3.87949 19.3587 3.34503 18.3035C3.29948 18.2079 3.25399 18.1122 3.20857 18.0166C3.20857 18.0166 21.9121 18.0527 21.9121 18.0527Z" fill="#8f559d" fill-rule="evenodd" opacity="1" stroke="none"/>
<path d="M16.4886 1.83555C16.3984 2.48901 16.074 3.31499 15.564 3.84509C14.9984 4.43949 14.1369 5.09032 13.6199 5.41414C13.3296 5.59074 12.5938 5.62013 11.9773 5.67919C11.8996 5.14211 11.8787 4.66933 12.0675 4.16804C12.2784 3.57451 12.5673 2.71682 13.0162 2.1262C13.5786 1.38605 14.2062 0.881846 14.5562 0.704662C15.024 0.471035 15.8017 0.115213 16.4773 0C16.5026 0.59294 16.589 1.27171 16.4886 1.83555Z" fill="#9fc54d" fill-rule="evenodd" opacity="1" stroke="none"/>
</g>
</g>
</svg>
