<svg viewBox="0 0 8 7" xmlns="http://www.w3.org/2000/svg" xmlns:xlink="http://www.w3.org/1999/xlink"><defs><path d="M.553 0C.127 0 0 .256 0 .573v.67C0 .924.127.668.553.668H6.78c.427 0 .554.256.554.573v-.67C7.334.257 7.207 0 6.78 0H.553Z" id="a"/><path d="M.553 0C.127 0 0 .256 0 .573v.67C0 .924.127.668.553.668H6.78c.427 0 .554.256.554.573v-.67C7.334.257 7.207 0 6.78 0H.553Z" id="c"/><path d="M.553 0C.127 0 0 .256 0 .573v.67C0 .924.127.668.553.668H6.78c.427 0 .554.256.554.573v-.67C7.334.257 7.207 0 6.78 0H.553Z" id="e"/><linearGradient x1="0%" y1="100%" x2="0%" y2="48.168%" id="g"><stop stop-color="#CBC9BE" offset="0%"/><stop stop-color="#C8C5BB" stop-opacity="0" offset="100%"/></linearGradient><linearGradient x1="0%" y1="100%" x2="0%" y2="48.168%" id="h"><stop stop-color="#CBC9BE" offset="0%"/><stop stop-color="#C8C5BB" stop-opacity="0" offset="100%"/></linearGradient></defs><g fill="none" fill-rule="evenodd"><path d="M.822 0C.282 0 0 .329 0 .822v4.363c0 .493.283.822.822.822h6.356c.54 0 .822-.329.822-.822V.822C8 .329 7.717 0 7.178 0H.822Z" fill="#D9D6CC" fill-rule="nonzero"/><path d="M.886.337C.46.337.333.592.333.91v2.089l1.882.003c.502.001.708.203.918.486.053.072.118.17.181.233a.966.966 0 0 0 1.372 0c.063-.063.128-.16.181-.233.21-.283.416-.485.918-.486L7.667 3V.909c0-.317-.127-.572-.553-.572H.886Z" fill="#F16D5E" fill-rule="nonzero"/><path d="M.886.337C.46.337.333.592.333.91v.669c0-.317.127-.573.553-.573h6.228c.426 0 .553.256.553.573v-.67c0-.317-.127-.572-.553-.572H.886Z" fill="#3295C9" fill-rule="nonzero"/><g transform="translate(.333 .337)"><mask id="b" fill="#fff"><use xlink:href="#a"/></mask><path d="M.553.67C.127.67 0 .924 0 1.241v.67c0-.318.127-.574.553-.574H6.78c.427 0 .554.256.554.573v-.669c0-.317-.127-.573-.554-.573H.553Z" fill-opacity=".318" fill="#000" fill-rule="nonzero" mask="url(#b)"/></g><path d="M.886 1.006c-.426 0-.553.256-.553.573v.67c0-.318.127-.574.553-.574h6.228c.426 0 .553.256.553.573V1.58c0-.317-.127-.573-.553-.573H.886Z" fill="#FCAD00" fill-rule="nonzero"/><g transform="translate(.333 .337)"><mask id="d" fill="#fff"><use xlink:href="#c"/></mask><path d="M.553 1.338c-.426 0-.553.256-.553.573v.67c0-.318.127-.573.553-.573H6.78c.427 0 .554.255.554.573v-.67c0-.317-.127-.573-.554-.573H.553Z" fill-opacity=".314" fill="#000" fill-rule="nonzero" mask="url(#d)"/></g><path d="M.886 1.675c-.426 0-.553.256-.553.573v.67c0-.318.127-.573.553-.573h6.228c.426 0 .553.255.553.572v-.669c0-.317-.127-.573-.553-.573H.886Z" fill="#50BE3D" fill-rule="nonzero"/><g transform="translate(.333 .337)"><mask id="f" fill="#fff"><use xlink:href="#e"/></mask><path d="M.553 2.008c-.426 0-.553.255-.553.573v.669c0-.318.127-.573.553-.573H6.78c.427 0 .554.255.554.573v-.67c0-.317-.127-.572-.554-.572H.553Z" fill-opacity=".314" fill="#000" fill-rule="nonzero" mask="url(#f)"/></g><path fill="url(#g)" fill-rule="nonzero" d="M0 2.508h.333v.49H0z"/><path fill="url(#h)" fill-rule="nonzero" d="M7.667 2.508H8v.49h-.333z"/></g></svg>