<svg viewBox="0 0 24 24" xmlns="http://www.w3.org/2000/svg"><defs><linearGradient gradientTransform="translate(0 .583) scale(1.14286)" gradientUnits="userSpaceOnUse" id="a" x1="10.5" x2="10.5" y1="0" y2="19.979"><stop offset="0" stop-color="#ff7355"/><stop offset="1" stop-color="#ff2d69"/></linearGradient></defs><path d="M12 .583c1.84 0 3.334 1.53 3.334 3.417 0 1.887-1.494 3.418-3.334 3.418S8.666 5.888 8.666 4C8.666 2.114 10.16.583 12 .583ZM3.509 13.21c-.683.39-.677 1.024.009 1.414.685.39 1.79.39 2.473 0 .681-.39.679-1.025-.007-1.414-.687-.391-1.794-.391-2.477 0h.002Zm18.88 2.226-6.987 3.238c-1.113.5-2.089.742-3.407.742a8.052 8.052 0 0 1-3.398-.742l-6.988-3.238C1.01 15.146 0 14.659 0 13.868c0-.793 1.029-1.292 1.61-1.568l6.987-3.223a8.152 8.152 0 0 1 2.197-.646v5.635c0 .537.54.894 1.208.894.667 0 1.207-.35 1.207-.893v-5.65c.764.108 1.45.325 2.193.66L22.39 12.3c.58.276 1.61.775 1.61 1.568 0 .79-1.011 1.278-1.61 1.568Zm-6.565 7.037c-1.437.674-2.411.944-3.82.944a7.808 7.808 0 0 1-3.4-.754C7.84 22.31 2.32 19.736 1.61 19.39c-.897-.436-1.22-.726-1.412-.996A1.073 1.073 0 0 1 0 17.802v-.992s0-.59.56-.324c0 0 7.125 3.334 8.037 3.758.958.446 2.08.754 3.398.754s2.294-.247 3.406-.754c1.114-.509 8.039-3.758 8.039-3.758.56-.266.56.324.56.324v.992a1.034 1.034 0 0 1-.197.588c-.24.324-.51.553-1.413.998-.717.354-5.132 2.407-6.566 3.084Z" fill="url(#a)"/></svg>