<svg viewBox="0 0 24 24" xmlns="http://www.w3.org/2000/svg"><defs><linearGradient gradientTransform="translate(-5.665 -5.99) scale(1.47393)" gradientUnits="userSpaceOnUse" id="a" x1="3.844" x2="20.127" y1="12.205" y2="12.205"><stop offset="0" stop-color="#ffa80b"/><stop offset="1" stop-color="#f27218"/></linearGradient></defs><path d="M6.034 1.887C4.252 1.82 2.387 2.347.92 3.36.068 4.012 0 4.663 0 5.249v13.957c0 .586.4.62.921.23 2.939-2.157 6.568-2.004 8.66-.369 2.026 1.505 2.026 3.535 2.026 2.948V7.69c0-2.547-.334-2.812-.921-3.73-1.146-1.342-2.87-2.007-4.652-2.073Zm11.93 0c-1.783.065-3.463.734-4.606 2.073-.587.918-.922 1.183-.922 3.73v14.325c0 .587 0-1.443 2.027-2.948 2.091-1.635 5.675-1.788 8.613.369.521.39.921.356.921-.23.006-3.134 0-10.66 0-13.865 0-.586-.068-1.282-.92-1.934-1.473-1.078-3.331-1.585-5.114-1.52Z" fill="url(#a)"/></svg>