<svg viewBox="0 0 8 8" xmlns="http://www.w3.org/2000/svg"><defs><linearGradient x1="50.794%" y1="93.362%" x2="50.794%" y2="12.41%" id="a"><stop stop-color="#0CBD2A" offset="0%"/><stop stop-color="#5BF675" offset="100%"/></linearGradient></defs><g fill-rule="nonzero" fill="none"><path d="M1.762 0h4.476C7.211 0 8 .789 8 1.762v4.476C8 7.211 7.211 8 6.238 8H1.762A1.762 1.762 0 0 1 0 6.238V1.762C0 .789.789 0 1.762 0Z" fill="url(#a)"/><path d="M4 1.385c-1.622 0-2.936 1.095-2.936 2.446.001.858.542 1.653 1.426 2.094-.116.259-.29.502-.513.719a3.144 3.144 0 0 0 1.192-.469c.27.067.55.1.831.101 1.622 0 2.936-1.095 2.936-2.445C6.936 2.48 5.622 1.385 4 1.385Z" fill="#FFF"/></g></svg>