<svg width="512" height="512" fill="none" xmlns="http://www.w3.org/2000/svg"><rect width="512" height="512" rx="112" fill="url(#a)"/><circle cx="345" cy="214" r="92" fill="url(#b)"/><g filter="url(#c)"><path d="M321 387.876c42.918-2.364 77-38.341 77-82.376 0-45.564-36.489-82.5-81.5-82.5-5.586 0-11.04.569-16.31 1.652C288.048 188.794 254.27 163 214.5 163c-49.37 0-89.507 39.751-90.482 89.16C96.192 260.995 76 287.355 76 318.5c0 37.875 29.861 68.674 67 69.484V388h178v-.124Z" fill="url(#d)"/></g><defs><linearGradient id="a" x1="256" y1="0" x2="256" y2="512" gradientUnits="userSpaceOnUse"><stop stop-color="#2654AA"/><stop offset="1" stop-color="#49A2F7"/></linearGradient><linearGradient id="b" x1="345" y1="122" x2="345" y2="306" gradientUnits="userSpaceOnUse"><stop stop-color="#FFC600"/><stop offset="1" stop-color="#FEE400"/></linearGradient><linearGradient id="d" x1="237" y1="163" x2="237" y2="388" gradientUnits="userSpaceOnUse"><stop stop-color="#fff"/><stop offset="1" stop-color="#fff" stop-opacity=".5"/></linearGradient><filter id="c" x="46" y="133" width="382" height="285" filterUnits="userSpaceOnUse" color-interpolation-filters="sRGB"><feFlood flood-opacity="0" result="BackgroundImageFix"/><feGaussianBlur in="BackgroundImageFix" stdDeviation="15"/><feComposite in2="SourceAlpha" operator="in" result="effect1_backgroundBlur_3_4"/><feBlend in="SourceGraphic" in2="effect1_backgroundBlur_3_4" result="shape"/><feColorMatrix in="SourceAlpha" values="0 0 0 0 0 0 0 0 0 0 0 0 0 0 0 0 0 0 127 0" result="hardAlpha"/><feOffset dx="3" dy="2"/><feGaussianBlur stdDeviation="5"/><feComposite in2="hardAlpha" operator="arithmetic" k2="-1" k3="1"/><feColorMatrix values="0 0 0 0 1 0 0 0 0 1 0 0 0 0 1 0 0 0 0.4 0"/><feBlend in2="shape" result="effect2_innerShadow_3_4"/></filter></defs></svg>