<?xml version="1.0" encoding="UTF-8"?>
<svg viewBox="0 0 8 8" version="1.1" xmlns="http://www.w3.org/2000/svg" xmlns:xlink="http://www.w3.org/1999/xlink">
    <title>Apple Messages</title>
    <defs>
        <linearGradient x1="50.7936478%" y1="93.361933%" x2="50.7936478%" y2="12.4104664%" id="linearGradient-1">
            <stop stop-color="#0CBD2A" offset="0%"></stop>
            <stop stop-color="#5BF675" offset="100%"></stop>
        </linearGradient>
    </defs>
    <g id="Page-1" stroke="none" stroke-width="1" fill="none" fill-rule="evenodd">
        <g id="Apple-Messages" fill-rule="nonzero">
            <path d="M1.76190465,0 L6.23809535,0 C7.21116842,0 8,0.788831581 8,1.76190465 L8,6.23809535 C8,7.21116842 7.21116842,8 6.23809535,8 L1.76190465,8 C0.788831581,8 0,7.21116842 0,6.23809535 L0,1.76190465 C0,0.788831581 0.788831581,0 1.76190465,0 Z" id="rect826" fill="url(#linearGradient-1)"></path>
            <path d="M4,1.38487448 C2.37832342,1.38487448 1.06368758,2.47987884 1.06368758,3.8306242 C1.0651311,4.68882021 1.60649496,5.48359849 2.49018765,5.92487424 C2.37447721,6.18392004 2.20093614,6.42683562 1.97675028,6.64356257 C2.41150015,6.56724431 2.8196089,6.40691798 3.16931273,6.17506203 C3.43895299,6.24180007 3.71870749,6.27591977 4,6.27637513 C5.62167719,6.27636444 6.93631253,5.18137007 6.93631253,3.8306242 C6.93631253,2.4798788 5.62167662,1.38487448 4,1.38487448 L4,1.38487448 Z" id="path922" fill="#FFFFFF"></path>
        </g>
    </g>
</svg>