<svg viewBox="0 0 24 24" xmlns="http://www.w3.org/2000/svg"><defs><linearGradient gradientTransform="translate(-14.955 -15.755) scale(1.40072)" gradientUnits="userSpaceOnUse" id="a" x1="12.518" x2="25.969" y1="19.815" y2="19.815"><stop offset="0" stop-color="#fa233b"/><stop offset="1" stop-color="#fb5c74"/></linearGradient></defs><path d="M20.544.003c-.084.014-.865.161-.963.175L9.12 2.28c-.28.057-.489.167-.657.307-.196.168-.308.42-.35.7a1.418 1.418 0 0 0-.044.35v13.088c0 .309-.009.624-.219.876s-.48.338-.788.394l-.656.131c-.869.168-1.422.285-1.926.482-.49.196-.888.45-1.182.744-.574.602-.784 1.432-.7 2.188.07.659.327 1.275.831 1.751.336.308.81.545 1.313.657.519.112 1.07.037 1.883-.131.434-.084.847-.214 1.225-.438a3.03 3.03 0 0 0 .963-.876c.252-.364.428-.791.526-1.225.098-.449.087-.865.087-1.313V8.627c0-.617.166-.764.657-.876 0 0 8.698-1.754 9.104-1.838.56-.112.876.024.876.612v7.792c0 .308-.009.623-.219.875s-.48.338-.788.394c-.224.042-.432.09-.657.132-.868.168-1.465.285-1.97.481-.49.196-.843.45-1.137.744a2.729 2.729 0 0 0-.745 2.145c.07.659.358 1.275.876 1.751.336.308.809.559 1.313.657.518.112 1.07.08 1.882-.088.435-.084.848-.2 1.226-.438.378-.224.71-.555.963-.919.252-.364.383-.747.482-1.182.098-.448.13-.865.13-1.313V.923c.015-.603-.314-.962-.875-.92Z" fill="url(#a)"/></svg>