<svg width="183" height="21" xmlns="http://www.w3.org/2000/svg"><g fill="#000" fill-rule="nonzero"><path d="m36.404 17-1.08-3.278h-4.668L29.576 17h-2.339l4.5-12.683h2.558L38.795 17h-2.39ZM32.96 6.559l-1.775 5.414h3.603l-1.766-5.414h-.062Zm12.365.966c2.364 0 3.867 1.837 3.867 4.817 0 2.97-1.494 4.807-3.832 4.807-1.353 0-2.408-.65-2.918-1.696h-.044v4.614H40.21V7.684h2.135v1.608h.044c.528-1.081 1.582-1.767 2.936-1.767Zm-.668 7.831c1.415 0 2.294-1.168 2.294-3.014 0-1.837-.879-3.015-2.294-3.015-1.362 0-2.268 1.204-2.276 3.015.008 1.828.914 3.014 2.276 3.014Zm11.337-7.83c2.364 0 3.867 1.836 3.867 4.816 0 2.97-1.494 4.807-3.832 4.807-1.354 0-2.408-.65-2.918-1.696h-.044v4.614h-2.189V7.684h2.136v1.608h.044c.527-1.081 1.582-1.767 2.936-1.767Zm-.668 7.83c1.415 0 2.294-1.168 2.294-3.014 0-1.837-.88-3.015-2.294-3.015-1.363 0-2.268 1.204-2.277 3.015.01 1.828.914 3.014 2.277 3.014Zm9.797-1.898h2.17c.168 1.169 1.31 1.872 2.892 1.872 1.53 0 2.593-.756 2.593-1.81 0-.915-.633-1.477-2.285-1.82l-1.362-.281c-2.54-.519-3.727-1.714-3.727-3.568 0-2.233 1.96-3.745 4.711-3.745 2.804 0 4.658 1.53 4.711 3.797h-2.17c-.106-1.195-1.108-1.916-2.558-1.916-1.407 0-2.409.668-2.409 1.732 0 .861.633 1.415 2.215 1.749l1.371.281c2.672.554 3.788 1.626 3.788 3.507 0 2.426-1.907 3.955-4.957 3.955-2.935 0-4.878-1.433-4.983-3.753Zm12.303-7.954h2.189v2.18h1.758V9.37h-1.758v4.843c0 .765.351 1.116 1.125 1.116.202 0 .483-.018.624-.044v1.67c-.237.053-.668.088-1.134.088-2.013 0-2.804-.712-2.804-2.523v-5.15H76.09V7.684h1.336v-2.18Zm9.658 11.68c-2.733 0-4.509-1.819-4.509-4.842 0-3.006 1.793-4.852 4.51-4.852 2.715 0 4.508 1.837 4.508 4.852 0 3.023-1.775 4.843-4.509 4.843Zm0-1.73c1.389 0 2.285-1.126 2.285-3.112 0-1.978-.896-3.112-2.285-3.112-1.38 0-2.285 1.134-2.285 3.112 0 1.986.897 3.111 2.285 3.111ZM93.278 17V7.684h2.1V9.31h.045c.316-1.134 1.134-1.785 2.232-1.785.282 0 .528.053.686.088v1.978c-.185-.07-.519-.123-.888-.123-1.24 0-1.986.8-1.986 2.11V17h-2.189Zm12.286-2.786h2.048c-.281 1.758-1.916 2.97-4.122 2.97-2.795 0-4.482-1.836-4.482-4.807 0-2.944 1.705-4.887 4.394-4.887 2.646 0 4.298 1.837 4.298 4.667v.712h-6.513v.132c0 1.494.914 2.496 2.347 2.496 1.02 0 1.793-.51 2.03-1.283Zm-2.153-5.027c-1.23 0-2.118.94-2.206 2.24h4.35c-.044-1.318-.887-2.24-2.144-2.24Zm15.545 8.024c-3.62 0-5.897-2.487-5.897-6.557 0-4.043 2.294-6.548 5.897-6.548 2.945 0 5.186 1.837 5.467 4.562h-2.232c-.3-1.59-1.591-2.637-3.235-2.637-2.18 0-3.577 1.793-3.577 4.623 0 2.848 1.389 4.632 3.586 4.632 1.679 0 2.883-.905 3.234-2.434h2.224c-.396 2.715-2.47 4.359-5.467 4.359Zm11.363-.026c-2.733 0-4.509-1.82-4.509-4.843 0-3.006 1.793-4.852 4.51-4.852 2.715 0 4.508 1.837 4.508 4.852 0 3.023-1.775 4.843-4.509 4.843Zm0-1.732c1.389 0 2.285-1.125 2.285-3.111 0-1.978-.896-3.112-2.285-3.112-1.38 0-2.285 1.134-2.285 3.112 0 1.986.897 3.111 2.285 3.111ZM136.514 17V7.684h2.1v1.6h.045c.5-1.108 1.494-1.776 2.927-1.776 2.056 0 3.225 1.318 3.225 3.471V17h-2.188v-5.581c0-1.318-.616-2.057-1.864-2.057-1.256 0-2.056.906-2.056 2.242V17h-2.189Zm10.326 0V7.684h2.1v1.6h.045c.5-1.108 1.494-1.776 2.926-1.776 2.057 0 3.226 1.318 3.226 3.471V17h-2.188v-5.581c0-1.318-.616-2.057-1.864-2.057-1.257 0-2.056.906-2.056 2.242V17h-2.189Zm16.496-2.786h2.048c-.281 1.758-1.916 2.97-4.122 2.97-2.795 0-4.483-1.836-4.483-4.807 0-2.944 1.705-4.887 4.395-4.887 2.645 0 4.298 1.837 4.298 4.667v.712h-6.513v.132c0 1.494.914 2.496 2.347 2.496 1.02 0 1.793-.51 2.03-1.283Zm-2.153-5.027c-1.23 0-2.119.94-2.206 2.24h4.35c-.044-1.318-.888-2.24-2.144-2.24Zm14.184 1.819H173.3c-.175-.993-.87-1.74-2.039-1.74-1.38 0-2.267 1.16-2.267 3.076 0 1.951.896 3.076 2.285 3.076 1.107 0 1.828-.633 2.03-1.688h2.066c-.176 2.083-1.784 3.455-4.122 3.455-2.725 0-4.483-1.82-4.483-4.843 0-2.98 1.758-4.852 4.465-4.852 2.461 0 3.981 1.556 4.13 3.516Zm2.196-5.502h2.188v2.18h1.758V9.37h-1.758v4.843c0 .765.352 1.116 1.125 1.116.203 0 .484-.018.624-.044v1.67c-.237.053-.668.088-1.133.088-2.013 0-2.804-.712-2.804-2.523v-5.15h-1.336V7.684h1.336v-2.18ZM19.554 12.766a1.219 1.219 0 0 0-.646-.445 1.7 1.7 0 0 0-.371-.058c-.14-.008-.278-.007-.417-.007H15.37L11.732 5.82a3.337 3.337 0 0 0-.892 1.81 3.804 3.804 0 0 0 .452 2.47l4.37 7.733c.07.123.138.246.214.365.068.108.147.209.235.3.39.393.99.471 1.464.191.475-.28.708-.849.57-1.39a1.794 1.794 0 0 0-.137-.358c-.063-.127-.133-.25-.202-.373l-1.008-1.783h1.322c.139 0 .278 0 .417-.007a1.7 1.7 0 0 0 .371-.058c.39-.11.702-.41.831-.802.13-.391.06-.823-.185-1.152Zm-12.25-.51 5.068-8.968c.069-.123.139-.245.202-.372.058-.114.103-.234.136-.358a1.254 1.254 0 0 0-.569-1.391 1.198 1.198 0 0 0-1.464.192c-.088.09-.167.191-.235.3-.076.118-.145.241-.214.364l-.32.568-.32-.568c-.07-.123-.14-.246-.216-.365a1.765 1.765 0 0 0-.234-.3 1.198 1.198 0 0 0-1.464-.19c-.475.28-.708.848-.57 1.39.034.124.08.244.137.358.063.127.133.25.202.372L8.478 5.12l-4.032 7.136H1.683c-.14 0-.278 0-.417.007a1.7 1.7 0 0 0-.371.058 1.24 1.24 0 0 0-.895 1.2c0 .56.366 1.05.895 1.199a1.7 1.7 0 0 0 .371.058c.14.008.278.007.417.007h10.86c.034-.07.062-.144.084-.22.344-1.15-.51-2.31-1.688-2.31H7.304ZM2.68 15.38l-.67 1.187c-.07.123-.14.246-.203.373a1.794 1.794 0 0 0-.136.358 1.254 1.254 0 0 0 .568 1.39c.475.28 1.074.202 1.464-.191.09-.091.168-.192.235-.3.077-.119.145-.242.215-.365l.973-1.723c-.076-.118-.802-1.164-2.446-.73Z"/></g></svg>