<svg viewBox="0 0 24 24" xmlns="http://www.w3.org/2000/svg"><path d="M18.55 12.753c-.03-3.037 2.48-4.496 2.593-4.565-1.412-2.065-3.607-2.348-4.389-2.38-1.867-.191-3.645 1.1-4.594 1.1-.95 0-2.412-1.074-3.961-1.042-2.038.029-3.917 1.184-4.968 3.008-2.114 3.665-.539 9.108 1.526 12.087 1.01 1.457 2.209 3.098 3.79 3.037 1.522-.06 2.095-.984 3.931-.984 1.836 0 2.354.984 3.96.955 1.637-.031 2.673-1.488 3.675-2.95 1.152-1.693 1.63-3.33 1.659-3.416-.038-.015-3.188-1.222-3.223-4.85m-3.02-8.92C16.37 2.817 16.935 1.407 16.78 0c-1.207.05-2.669.805-3.535 1.821-.776.898-1.456 2.334-1.27 3.712 1.34.104 2.718-.686 3.555-1.7"/></svg>