<svg viewBox="0 0 24 24" xmlns="http://www.w3.org/2000/svg"><defs><linearGradient gradientTransform="translate(-4.395 -4.268) scale(.04123)" gradientUnits="userSpaceOnUse" id="a" x1="106.594" x2="688.688" y1="394.556" y2="394.556"><stop offset="0" stop-color="#18bffb"/><stop offset="1" stop-color="#2072f3"/></linearGradient></defs><path d="M10.104 1.403a1.505 1.505 0 0 0-1.408 2.25l1.53 2.655-4.898 8.49H1.5c-.833 0-1.501.668-1.501 1.5 0 .833.668 1.5 1.501 1.5h13.647c.656-1.228-.189-3-1.698-3H8.795l6.436-11.142a1.502 1.502 0 1 0-2.605-1.5l-.67 1.155-.655-1.16a1.505 1.505 0 0 0-1.197-.748Zm4.068 5.754c-.887.738-1.786 2.915-.529 5.084 1.23 2.132 3.08 5.331 5.546 9.607.42.721 1.332.965 2.054.553.721-.42.963-1.333.551-2.054l-1.463-2.54h2.17c.832 0 1.499-.668 1.499-1.5 0-.834-.667-1.502-1.5-1.502h-3.905c-1.967-3.405-3.438-5.958-4.423-7.648ZM4.059 18.334a3.395 3.395 0 0 0-.868.157L2.12 20.348a1.503 1.503 0 1 0 2.605 1.5l1.443-2.503c-.585-.705-1.284-1.043-2.11-1.01Z" fill="url(#a)"/></svg>