<?xml version="1.0" encoding="UTF-8"?>
<svg viewBox="0 0 9 8" version="1.1" xmlns="http://www.w3.org/2000/svg" xmlns:xlink="http://www.w3.org/1999/xlink">
    <title>Apple HomeKit</title>
    <g id="Page-1" stroke="none" stroke-width="1" fill="none" fill-rule="evenodd">
        <g id="Apple-HomeKit" transform="translate(0.175331, 0.400000)" fill-rule="nonzero">
            <path d="M7.91949132,3.02725797 L7.17613951,2.440179 L7.17613951,2.440179 L7.17613951,1.10552462 C7.17613951,1.01471744 7.140239,0.989375906 7.07582926,0.989375906 L6.3958313,0.989375906 C6.32191848,0.989375906 6.27651489,1.00415847 6.27651489,1.10552462 L6.27651489,1.72956001 L6.27651489,1.72956001 C5.29347437,0.953475393 4.22807385,0.111925129 4.18794975,0.0802482058 C4.10770154,0.0168943591 4.05807436,0 4,0 C3.94298154,0 3.89335436,0.0168943591 3.81205025,0.0802482058 C3.73180205,0.143602053 0.188210224,2.94278618 0.0805086844,3.02725797 C-0.0504225987,3.13073592 -0.0134661882,3.27961746 0.132247659,3.27961746 L0.823860486,3.27961746 L0.823860486,7.03438878 C0.823860486,7.27724519 0.921003051,7.37438776 1.15224459,7.37438776 L6.84775541,7.37438776 C7.07899695,7.37438776 7.17613951,7.27724519 7.17613951,7.03438878 L7.17613951,3.27856157 L7.86775234,3.27856157 C8.01346619,3.27856157 8.0504226,3.13073592 7.91949132,3.02725797 Z M6.59328412,6.50644006 C6.59328412,6.67432775 6.50670053,6.79047647 6.33142156,6.79047647 L1.66752254,6.79047647 C1.49224357,6.79047647 1.40565998,6.67432775 1.40565998,6.50644006 L1.40565998,2.99769285 C1.40565998,2.79390464 1.49435536,2.66402925 1.59677742,2.58378105 L3.83950359,0.813041033 C3.89863385,0.766581545 3.94931692,0.746519494 3.9989441,0.746519494 C4.04857128,0.746519494 4.09925436,0.766581545 4.15838462,0.81409693 L6.40111079,2.58483695 C6.50247694,2.66508515 6.59222823,2.79496054 6.59222823,2.99874874 L6.59222823,6.50644006 L6.59328412,6.50644006 Z" id="Shape" fill="#FA9012"></path>
            <path d="M6.40322258,2.58378105 L4.15944051,0.811985135 C4.10031026,0.765525648 4.04751539,0.745463596 4,0.745463596 C3.95142872,0.745463596 3.89968974,0.765525648 3.84055949,0.813041033 L1.59677742,2.58378105 C1.49541126,2.66402925 1.40565998,2.79390464 1.40565998,2.99769285 L1.40565998,6.50644006 C1.40565998,6.67432775 1.49224357,6.79047647 1.66752254,6.79047647 L6.33142156,6.79047647 C6.50670053,6.79047647 6.59328412,6.67432775 6.59328412,6.50644006 L6.59328412,2.99769285 C6.59328412,2.79390464 6.50458874,2.66402925 6.40322258,2.58378105 Z M6.01254053,5.97954723 C6.01254053,6.13582005 5.92384514,6.20867698 5.79396976,6.20867698 L2.20708614,6.20867698 C2.07721075,6.20867698 1.98851537,6.13582005 1.98851537,5.97954723 L1.98851537,3.23949336 C1.98851537,3.08744413 2.02441588,3.00086054 2.13211742,2.91533285 C2.19335947,2.86676156 3.82472102,1.57856668 3.86801282,1.54477796 C3.91130461,1.50993335 3.9577641,1.49303899 4,1.49303899 C4.0422359,1.49303899 4.08869539,1.51098924 4.13198718,1.54477796 C4.17527898,1.57962258 5.80664053,2.86781746 5.86788258,2.91533285 C5.97558412,3.00086054 6.01148463,3.08850003 6.01148463,3.23949336 L6.01254053,5.97954723 Z" id="Shape" fill="#FFAB1F"></path>
            <path d="M5.86788258,2.91533285 C5.80664053,2.86781746 4.17527898,1.57856668 4.13198718,1.54477796 C4.08869539,1.50993335 4.0422359,1.49303899 4,1.49303899 C3.9577641,1.49303899 3.91130461,1.51098924 3.86801282,1.54477796 C3.82472102,1.57962258 2.19335947,2.86781746 2.13211742,2.91533285 C2.02441588,3.00086054 1.98851537,3.08850003 1.98851537,3.23949336 L1.98851537,5.97954723 C1.98851537,6.13582005 2.07721075,6.20867698 2.20708614,6.20867698 L5.79396976,6.20867698 C5.92384514,6.20867698 6.01254053,6.13582005 6.01254053,5.97954723 L6.01254053,3.23949336 C6.01148463,3.08850003 5.97558412,3.00086054 5.86788258,2.91533285 Z M5.42968514,5.45265441 C5.42968514,5.5783062 5.35999591,5.62687748 5.26496514,5.62687748 L2.73503486,5.62687748 C2.64000409,5.62687748 2.57031486,5.5783062 2.57031486,5.45265441 L2.57031486,3.48234977 C2.57031486,3.39471029 2.57031486,3.32502105 2.66640153,3.24794054 C2.72975537,3.19725746 3.86167743,2.30396822 3.89546615,2.27757079 C3.92925487,2.25117335 3.96304359,2.23744669 4,2.23744669 C4.03801231,2.23850258 4.07496872,2.25328515 4.10453385,2.27757079 C4.13832257,2.30396822 5.27024463,3.19725746 5.33359847,3.24794054 C5.42968514,3.32502105 5.42968514,3.39471029 5.42968514,3.48234977 L5.42968514,5.45265441 Z" id="Shape" fill="#FFBE41"></path>
            <path d="M5.33359847,3.24794054 C5.27024463,3.19725746 4.13832257,2.30396822 4.10453385,2.27757079 C4.07496872,2.25222925 4.03801231,2.23850258 4,2.23744669 C3.96304359,2.23744669 3.92925487,2.25117335 3.89546615,2.27757079 C3.86167743,2.30396822 2.72869948,3.19725746 2.66640153,3.24794054 C2.57031486,3.32502105 2.57031486,3.39471029 2.57031486,3.48234977 L2.57031486,5.45265441 C2.57031486,5.5783062 2.64000409,5.62687748 2.73503486,5.62687748 L5.26390924,5.62687748 C5.35894001,5.62687748 5.42862924,5.5783062 5.42862924,5.45265441 L5.42862924,3.48234977 C5.42968514,3.39365439 5.42968514,3.32396516 5.33359847,3.24794054 Z M4.84788565,4.92681748 C4.84788565,5.02396004 4.79931437,5.04507799 4.73173693,5.04507799 L3.26931897,5.04507799 C3.20174153,5.04507799 3.15317025,5.02290415 3.15317025,4.92681748 L3.15317025,3.72415029 C3.15317025,3.65657285 3.18379128,3.59110721 3.23553025,3.54887131 C3.26509538,3.52458567 3.90074564,3.02725797 3.92291949,3.00930772 C3.96726718,2.97235131 4.03273282,2.97235131 4.07708051,3.00930772 C4.10031026,3.02725797 4.73490462,3.52458567 4.76446975,3.54887131 C4.81726462,3.59216311 4.84788565,3.65657285 4.84682975,3.72415029 L4.84788565,4.92681748 Z" id="Shape" fill="#FFD260"></path>
            <path d="M4,5.04402209 L4.73068103,5.04402209 C4.79825847,5.04402209 4.84682975,5.02184825 4.84682975,4.92576158 L4.84682975,3.72415029 C4.84682975,3.65657285 4.81620872,3.59110721 4.76446975,3.54887131 C4.73490462,3.52458567 4.09925436,3.02725797 4.07708051,3.00930772 C4.03273282,2.97235131 3.96726718,2.97235131 3.92291949,3.00930772 C3.90074564,3.02725797 3.26509538,3.52458567 3.23553025,3.54887131 C3.18273538,3.59216311 3.15211435,3.65657285 3.15317025,3.72415029 L3.15317025,4.92576158 C3.15317025,5.02290415 3.20174153,5.04402209 3.26931897,5.04402209 L4,5.04402209 Z" id="Path" fill="#FFE780"></path>
        </g>
    </g>
</svg>