<svg viewBox="0 0 9 8" xmlns="http://www.w3.org/2000/svg"><g fill-rule="nonzero" fill="none"><path d="M8.095 3.427 7.35 2.84V1.506c0-.091-.035-.117-.1-.117h-.68c-.074 0-.12.015-.12.117v.624L4.364.48C4.283.417 4.233.4 4.175.4c-.057 0-.106.017-.188.08C3.907.544.364 3.343.256 3.427c-.131.104-.094.253.052.253h.691v3.754c0 .243.097.34.329.34h5.695c.231 0 .328-.097.328-.34V3.68h.692c.146 0 .183-.148.052-.252Zm-1.326 3.48c0 .167-.087.283-.262.283H1.843c-.175 0-.262-.116-.262-.284V3.398a.5.5 0 0 1 .191-.414l2.243-1.771c.059-.046.11-.066.16-.066.049 0 .1.02.159.067l2.242 1.77c.102.081.192.211.192.415v3.507Z" fill="#FA9012"/><path d="M6.579 2.984 4.335 1.212a.262.262 0 0 0-.16-.067c-.048 0-.1.02-.16.068l-2.243 1.77a.503.503 0 0 0-.191.415v3.508c0 .168.087.284.262.284h4.664c.175 0 .262-.116.262-.284V3.398a.503.503 0 0 0-.19-.414ZM6.188 6.38c0 .156-.089.229-.219.229H2.382c-.13 0-.218-.073-.218-.23V3.64c0-.152.036-.238.143-.324l1.736-1.37a.214.214 0 0 1 .132-.052.22.22 0 0 1 .132.052l1.736 1.37c.108.086.144.174.144.324v2.74Z" fill="#FFAB1F"/><path d="m6.043 3.315-1.736-1.37a.214.214 0 0 0-.132-.052.22.22 0 0 0-.132.052C4 1.98 2.37 3.268 2.307 3.315c-.107.086-.143.174-.143.324v2.74c0 .157.089.23.218.23H5.97c.13 0 .219-.073.219-.23V3.64c-.001-.15-.037-.238-.145-.324Zm-.438 2.538c0 .125-.07.174-.165.174H2.91c-.095 0-.164-.049-.164-.174v-1.97c0-.088 0-.158.096-.235l1.229-.97a.167.167 0 0 1 .104-.04.174.174 0 0 1 .105.04l1.229.97c.096.077.096.147.096.234v1.97Z" fill="#FFBE41"/><path d="M5.509 3.648c-.063-.05-1.195-.944-1.23-.97a.167.167 0 0 0-.104-.04.167.167 0 0 0-.104.04l-1.23.97c-.095.077-.095.147-.095.234v1.97c0 .126.07.175.164.175h2.53c.094 0 .164-.049.164-.174v-1.97c.001-.09.001-.159-.095-.235Zm-.486 1.679c0 .097-.048.118-.116.118H3.445c-.068 0-.116-.022-.116-.118V4.124c0-.067.03-.133.082-.175l.687-.54a.121.121 0 0 1 .154 0l.688.54a.223.223 0 0 1 .082.175l.001 1.203Z" fill="#FFD260"/><path d="M4.175 5.444h.731c.068 0 .116-.022.116-.118V4.124a.228.228 0 0 0-.082-.175l-.688-.54a.121.121 0 0 0-.154 0l-.687.54a.223.223 0 0 0-.082.175v1.202c0 .097.048.118.116.118h.73Z" fill="#FFE780"/></g></svg>