<?xml version="1.0" encoding="UTF-8" standalone="no"?>
<!DOCTYPE svg PUBLIC "-//W3C//DTD SVG 1.1//EN" "http://www.w3.org/Graphics/SVG/1.1/DTD/svg11.dtd">
<!-- Created with Vectornator (http://vectornator.io/) -->
<svg stroke-miterlimit="10" style="fill-rule:nonzero;clip-rule:evenodd;stroke-linecap:round;stroke-linejoin:round;" version="1.1" viewBox="0 0 24 24" xml:space="preserve" xmlns="http://www.w3.org/2000/svg" xmlns:xlink="http://www.w3.org/1999/xlink">
<defs/>
<g id="Untitled">
<g opacity="1">
<path d="M5.32084 1.56447C2.38159 1.56529-0.000551669 3.94855 9.58328e-08 6.88781C0.000551769 9.82706 2.38359 12.2094 5.32284 12.2091C8.26209 12.2089 10.6447 9.82606 10.6447 6.88681C10.6447 3.94677 8.26087 1.56364 5.32084 1.56447ZM5.32084 9.60045C3.82194 9.60128 2.60625 8.38671 2.6057 6.88781C2.60515 5.38891 3.81994 4.17344 5.31884 4.17316C6.81774 4.17289 8.03298 5.38791 8.03299 6.88681C8.03299 8.38493 6.81896 9.59962 5.32084 9.60045Z" fill="#231815" fill-rule="nonzero" opacity="1" stroke="none"/>
<path d="M18.6777 11.7909C15.7382 11.7909 13.3553 14.1737 13.3553 17.1132C13.3553 20.0526 15.7382 22.4355 18.6777 22.4355C21.6171 22.4355 24 20.0526 24 17.1132C24 14.1737 21.6171 11.7909 18.6777 11.7909ZM18.6777 19.8268C17.179 19.8268 15.964 18.6119 15.964 17.1132C15.964 15.6145 17.179 14.3995 18.6777 14.3995C20.1764 14.3995 21.3913 15.6145 21.3913 17.1132C21.3913 18.6119 20.1764 19.8268 18.6777 19.8268Z" fill="#231815" fill-rule="nonzero" opacity="1" stroke="none"/>
<path d="M17.7136 1.56597L3.10045 22.4355L6.28486 22.4355L20.8981 1.56597L17.7136 1.56597Z" fill="#231815" fill-rule="nonzero" opacity="1" stroke="none"/>
</g>
</g>
</svg>
