<svg xmlns="http://www.w3.org/2000/svg" viewBox="0 0 21 20" class="we-artwork__image" aria-hidden="true"><defs><linearGradient id="a" x1="50%" x2="50%" y1="0%" y2="100%"><stop offset="0%" stop-color="#FF7355"/><stop offset="100%" stop-color="#FF2D69"/></linearGradient></defs><path fill="url(#a)" fill-rule="evenodd" d="M10.5 0c1.61 0 2.917 1.339 2.917 2.99 0 1.651-1.307 2.99-2.917 2.99-1.61 0-2.917-1.339-2.917-2.99C7.583 1.339 8.89 0 10.5 0zM3.07 11.048c-.597.341-.592.896.008 1.238.6.341 1.567.341 2.164 0 .596-.342.594-.897-.006-1.238-.601-.342-1.57-.342-2.167 0zm16.521 1.948l-6.114 2.833c-.974.437-1.828.65-2.981.65a7.046 7.046 0 01-2.974-.65l-6.114-2.833C.884 12.742 0 12.316 0 11.624c0-.694.9-1.13 1.408-1.372l6.114-2.82a7.133 7.133 0 011.923-.565v4.93c0 .47.472.783 1.057.783.583 0 1.056-.307 1.056-.782V6.854c.668.095 1.268.285 1.919.578l6.114 2.82c.508.242 1.409.678 1.409 1.372 0 .692-.885 1.118-1.409 1.372zm-5.745 6.157c-1.257.59-2.11.826-3.342.826a6.833 6.833 0 01-2.975-.659c-.669-.309-5.499-2.561-6.121-2.864-.785-.382-1.068-.635-1.236-.872A.939.939 0 010 15.066v-.868s0-.516.49-.283c0 0 6.234 2.917 7.032 3.288.839.39 1.82.66 2.974.66 1.153 0 2.007-.216 2.98-.66.975-.445 7.034-3.288 7.034-3.288.49-.233.49.283.49.283v.868a.905.905 0 01-.172.515c-.21.283-.447.484-1.237.873-.627.31-4.49 2.106-5.745 2.699z"/></svg>