<svg viewBox="0 0 24 24" xmlns="http://www.w3.org/2000/svg"><path d="M12.41 0h.232c.53.03 1.047.279 1.397.692.257.286.377.663.553 1.001.579 1.242 1.172 2.476 1.747 3.72.133-.113.268-.224.403-.334-.319-.632-.62-1.273-.937-1.905a2.07 2.07 0 0 1 .215-2.106c.318-.428.812-.71 1.333-.767a1.934 1.934 0 0 1 1.758.767c.12.157.208.336.293.515.149.317.313.625.463.94.298-.248.6-.492.898-.74.664-.602 1.729-.654 2.435-.1.482.358.788.952.799 1.564A2.028 2.028 0 0 1 23.5 4.65c-.155.176-.343.316-.522.464l-1.305 1.07c.29.597.578 1.196.88 1.787.188.37.28.797.227 1.214a2.019 2.019 0 0 1-1.093 1.579 1.901 1.901 0 0 1-1.5.083 1.976 1.976 0 0 1-1.086-.974c-.187-.375-.366-.754-.55-1.13-.186.142-.354.306-.548.437-.148.1-.358.05-.468-.086-.129-.156-.108-.414.053-.538.282-.238.569-.47.855-.702.178-.16.477-.081.567.14.253.52.512 1.036.768 1.554.196.382.599.638 1.018.65a1.21 1.21 0 0 0 1.09-.62c.19-.333.22-.762.067-1.117-.32-.682-.666-1.35-.996-2.027-.06-.13-.147-.263-.123-.413.01-.123.103-.212.19-.285.589-.48 1.175-.963 1.764-1.443a1.27 1.27 0 0 0 .448-.755c.106-.527-.166-1.101-.635-1.339a1.18 1.18 0 0 0-1.28.11c-.451.364-.897.736-1.348 1.1-.171.153-.459.09-.56-.117-.272-.536-.52-1.086-.8-1.62a1.2 1.2 0 0 0-1.216-.607c-.469.06-.881.434-.999.906-.084.303-.045.636.097.915.347.714.71 1.42 1.049 2.137a.377.377 0 0 1-.107.461c-.25.216-.512.42-.767.63.19.416.43.815.538 1.263a2.093 2.093 0 0 1-.498 1.849 1.96 1.96 0 0 1-1.444.635 1.957 1.957 0 0 1-1.603-.846c-.19-.269-.3-.583-.444-.875-.229-.476-.45-.955-.677-1.43l-.954 2.025c-.313.658-.994 1.108-1.706 1.125a1.962 1.962 0 0 1-1.725-.918 2.098 2.098 0 0 1-.115-2.038l1.165-2.471c-.152-.824-.293-1.65-.448-2.472-.12-.588-.712-1.015-1.29-.93-.382.035-.693.301-.921.6l-1.34 1.786a.396.396 0 0 1-.552.103c-.59-.38-1.18-.765-1.768-1.149a1.815 1.815 0 0 0-.63-.294 1.162 1.162 0 0 0-1.193.416 1.25 1.25 0 0 0-.242.99l.94 5.652c.046.327.228.632.493.82.369.273.893.289 1.28.05a1.22 1.22 0 0 0 .561-.833c.05-.253-.013-.508-.054-.757-.096-.59-.198-1.181-.295-1.772-.055-.237.131-.498.371-.502.204-.008.353.157.518.256.36.236.844.232 1.208.007.218-.12.351-.34.507-.527a.389.389 0 0 1 .58-.027c.097.09.117.229.14.354.1.628.207 1.253.309 1.88.033.215.104.428.242.595.106.127.226.275.184.456-.04.294-.421.449-.642.253A2.024 2.024 0 0 1 6.6 8.271c-.071-.414-.135-.829-.207-1.242a2.012 2.012 0 0 1-1.72.29c.063.346.117.693.175 1.04.054.287.097.583.053.877a2.045 2.045 0 0 1-1.17 1.593 1.937 1.937 0 0 1-1.83-.128 2.041 2.041 0 0 1-.918-1.376C.662 7.41.345 5.495.025 3.58a2.085 2.085 0 0 1 .471-1.668 1.948 1.948 0 0 1 1.21-.673c.548-.083 1.105.1 1.563.405.505.33 1.01.66 1.517.986.376-.5.752-1 1.127-1.502.218-.285.48-.543.796-.707.371-.2.805-.265 1.217-.196.688.109 1.3.622 1.541 1.294.161.538.212 1.105.33 1.655.345-.704.663-1.422 1.009-2.125.313-.604.945-1 1.604-1.048Zm-.003.833a1.163 1.163 0 0 0-.67.314c-.224.207-.327.506-.457.777-.8 1.695-1.598 3.39-2.395 5.086-.086.176-.182.35-.223.545-.076.329-.003.688.185.965.218.327.604.53.99.517.404-.003.794-.24.997-.6.462-.958.906-1.928 1.366-2.887a.39.39 0 0 1 .49-.168c.206.075.262.315.351.495l1.181 2.507c.252.525.902.791 1.436.587.46-.159.797-.631.794-1.132.018-.323-.148-.608-.275-.89l-2.414-5.122c-.106-.204-.182-.43-.336-.603a1.184 1.184 0 0 0-1.02-.39Z" fill="#FFF"/></svg>