<svg viewBox="0 0 24 24" xmlns="http://www.w3.org/2000/svg"><path d="M15.6606 19.9712L15.6152 19.9589L15.616 19.7878C15.6171 19.5392 15.6384 19.4387 15.811 18.8725C15.9246 18.4997 15.9472 18.3577 15.9377 18.0772C15.9282 17.7919 15.9453 17.6983 16.0766 17.3193C16.1741 17.0381 16.2191 16.8371 16.212 16.7149L16.2087 16.6599L16.1183 16.612C15.9922 16.5455 15.8194 16.4925 15.5165 16.4273C15.2184 16.3633 15.1342 16.3377 14.9431 16.253C14.739 16.1626 14.6523 16.1349 14.4343 16.0907C14.0973 16.0221 13.9844 15.9848 13.3166 15.7209C12.6903 15.4735 12.489 15.374 11.9451 15.0422C11.7557 14.9266 11.7463 14.9195 11.7523 14.8946C11.7627 14.8526 11.7975 14.823 11.8843 14.7829C11.978 14.7395 12.0061 14.7103 11.9851 14.678C11.9594 14.6383 11.8725 14.6024 11.7184 14.5671C11.5637 14.5318 11.5057 14.5104 11.5057 14.4884C11.5057 14.4699 11.5528 14.4022 11.6002 14.3523C11.6809 14.2669 11.8063 14.1954 12.0439 14.0993C12.2046 14.0343 12.3011 13.9864 12.5461 13.8499C12.8635 13.6731 12.9764 13.6282 13.4801 13.4798C13.6241 13.4377 13.7672 13.3928 13.9094 13.345C14.1571 13.2571 14.1936 13.2482 14.5691 13.184C15.0915 13.0946 15.1565 13.065 15.5004 12.7606C15.5823 12.6883 15.7139 12.5765 15.7932 12.5125C16.2174 12.169 16.5369 11.8696 16.6717 11.6898C16.8129 11.5015 16.878 11.4538 16.9934 11.4538C17.0976 11.4538 17.1805 11.5047 17.2549 11.6143C17.3529 11.7589 17.3748 11.9399 17.3096 12.0681C17.2876 12.1118 17.1946 12.1977 17.1697 12.1977C17.1598 12.1977 17.1338 12.1913 17.1116 12.1836C17.0741 12.1723 17.0358 12.1637 16.9971 12.158C16.8203 12.1311 16.6615 12.1905 16.5156 12.3379C16.4636 12.3903 16.4127 12.4538 16.3862 12.5001C16.3448 12.5713 16.3374 12.5784 16.2688 12.6137C16.069 12.7166 15.9226 12.8355 15.5649 13.1851C15.2337 13.509 15.1777 13.5559 15.1229 13.5559C15.1004 13.5559 15.0209 13.563 14.9463 13.5716C14.4425 13.6299 13.979 13.7576 13.1853 14.057C12.7732 14.2124 12.512 14.3049 12.3404 14.3561C12.2715 14.3768 12.213 14.3955 12.2103 14.3976C12.2028 14.4044 12.2616 14.4492 12.3256 14.4855C12.4495 14.5555 12.6097 14.5965 12.882 14.6281L13.0198 14.644L13.0803 14.7015C13.1838 14.8002 13.2058 14.8133 13.2672 14.8133C13.384 14.8133 13.5168 14.8429 13.7612 14.9225C14.0373 15.013 14.0521 15.016 14.2235 15.018C14.3403 15.0195 14.3516 15.0214 14.4146 15.0513C14.4516 15.0688 14.5306 15.1145 14.5908 15.153C14.8199 15.3002 14.8779 15.3194 15.2088 15.3562C15.5628 15.3957 15.6438 15.4184 15.9046 15.552C16.1258 15.6653 16.2051 15.6949 16.3272 15.7093C16.4845 15.7281 16.5674 15.747 16.68 15.7895C16.8074 15.8374 16.885 15.8537 16.9506 15.846C16.9949 15.8409 16.9988 15.8421 17.0043 15.8649C17.0077 15.8784 17.0057 15.9182 16.9995 15.9534C16.981 16.0601 16.9828 16.068 17.0541 16.1663C17.0901 16.2162 17.1533 16.3248 17.1943 16.4078C17.3121 16.6462 17.3724 16.8334 17.5071 17.3786C17.5597 17.5916 17.6163 17.8145 17.6331 17.874C17.6499 17.9334 17.6605 17.9871 17.6567 17.9933C17.6457 18.0111 17.5314 18.0614 17.4864 18.0682C17.3931 18.0822 17.3139 18.0303 17.2523 17.9146C17.2353 17.8827 17.1976 17.7839 17.1689 17.6955C17.1057 17.5012 17.076 17.4275 17.0381 17.3728C17.0112 17.3334 17.0086 17.32 16.9889 17.1111C16.9291 16.4779 16.8642 16.2811 16.6847 16.1905C16.6047 16.1502 16.5305 16.135 16.323 16.1164C16.0685 16.0935 15.9675 16.0626 15.8789 15.9811C15.8468 15.9515 15.8256 15.9401 15.8033 15.9401C15.6885 15.9401 15.3981 15.8589 15.0237 15.7222C14.6429 15.5831 14.5541 15.554 14.3074 15.4864C14.0292 15.4103 13.936 15.3792 13.6679 15.2726C13.4174 15.1731 12.8346 14.9281 12.6863 14.8598C12.5302 14.7881 12.4762 14.7718 12.3749 14.7657C12.2591 14.759 12.2473 14.7645 12.2656 14.8172C12.2836 14.8696 12.3433 14.9294 12.413 14.9649C12.4445 14.9809 12.5372 15.0162 12.6193 15.0434C12.7013 15.0706 12.8996 15.1404 13.0601 15.1984C14.0504 15.5564 15.2387 15.9307 15.8266 16.0702C16.3957 16.2051 16.5949 16.264 16.6519 16.314C16.7411 16.3924 16.7645 16.4851 16.7776 16.8149C16.7939 17.2238 16.8275 17.3968 17.0348 18.1365C17.2205 18.7994 17.2818 19.093 17.3141 19.4735L17.319 19.5313L17.226 19.5961C17.0879 19.6925 16.9733 19.7312 16.9232 19.6984C16.8917 19.6777 16.8556 19.6156 16.8116 19.5065C16.7917 19.4573 16.7678 19.4099 16.7401 19.3646L16.7038 19.3098L16.7163 19.2421C16.7406 19.111 16.7411 19.0433 16.7183 18.9804C16.6368 18.7565 16.6112 18.5172 16.601 17.8866C16.5976 17.6765 16.5905 17.4455 16.5852 17.3736C16.5759 17.2474 16.5489 17.0569 16.5388 17.0465C16.5295 17.0369 16.485 17.102 16.4746 17.1408C16.4663 17.1706 16.4678 17.203 16.4806 17.2795C16.4952 17.3669 16.4959 17.4017 16.4857 17.5575C16.4561 18.0155 16.3956 18.4133 16.2331 19.2204C16.1342 19.7112 16.1389 19.6698 16.1561 19.8878C16.1584 19.9166 16.1561 19.9181 16.068 19.947C15.9897 19.9725 15.9588 19.9773 15.8416 19.9801C15.7545 19.9825 15.6895 19.9793 15.6606 19.9712ZM0.200645 16.4354C0.134255 16.3413 0.098119 16.2119 0.098119 16.0697L0.098119 15.9712L0.180981 15.932C0.421497 15.8189 0.630415 15.6481 0.942363 15.3101C1.37953 14.8368 1.64626 14.5919 1.72476 14.5919C1.73854 14.5919 1.7735 14.599 1.80291 14.6074C1.85501 14.6225 1.85636 14.624 1.8735 14.6787C1.8972 14.754 1.89031 14.8296 1.85535 14.8827C1.84056 14.9051 1.78644 14.9577 1.73534 14.9997C1.61063 15.1019 1.52105 15.2106 1.35818 15.4572C1.12943 15.8034 1.10321 15.8414 1.03312 15.93C0.956314 16.0268 0.856645 16.1253 0.797146 16.1636C0.766461 16.1818 0.732136 16.1929 0.696637 16.1962C0.607557 16.2063 0.547217 16.2389 0.43612 16.3372C0.341997 16.4204 0.275271 16.4625 0.23695 16.463C0.227706 16.463 0.211402 16.4507 0.200645 16.4354ZM0.10417 15.7211C0.132407 15.4878 0.170056 15.3377 0.211739 15.2921C0.22384 15.2787 0.257118 15.2604 0.285691 15.2515C0.361158 15.2273 0.444523 15.1728 0.570748 15.0649C0.743026 14.9175 0.813954 14.879 0.935473 14.8666C1.00035 14.8602 1.00522 14.8513 0.978668 14.7877C0.958499 14.7393 0.922026 14.7266 0.865049 14.7484C0.819164 14.7659 0.796473 14.7825 0.579825 14.9573C0.411748 15.0928 0.328551 15.1363 0.22468 15.1431L0.149886 15.1478L0.13913 15.1088C0.133247 15.0874 0.128205 15.0231 0.128205 14.9656L0.128205 14.8614L0.160812 14.8681C0.178796 14.8716 0.204847 14.8755 0.218629 14.8767L0.243841 14.8787L0.246701 14.7756C0.249562 14.6731 0.249724 14.6726 0.278804 14.6575C0.318806 14.6368 0.425534 14.6227 0.542514 14.6223L0.639999 14.6223L0.723532 14.5618C0.896314 14.437 1.13616 14.3417 1.5466 14.2349C1.6656 14.204 1.77148 14.1761 1.78191 14.1731C1.79838 14.168 1.79989 14.1712 1.79367 14.1963C1.78039 14.2501 1.69904 14.4106 1.64543 14.4887C1.57349 14.5929 1.4229 14.7481 1.23969 14.9064C1.15683 14.978 0.977999 15.1489 0.842362 15.2859C0.520664 15.6113 0.408222 15.6935 0.208716 15.7484C0.0986268 15.7787 0.0972821 15.7785 0.104173 15.7214L0.10417 15.7211ZM8.10558 15.4722C7.97179 15.4537 7.84053 15.4217 7.68808 15.3696C7.48253 15.2997 7.19024 15.1479 7.19024 15.1115C7.19024 15.0837 7.25798 14.999 7.30168 14.972C7.40471 14.9081 7.50236 14.9128 7.78036 14.9953C7.99751 15.0597 8.11483 15.0852 8.22122 15.0915C8.39568 15.1015 8.48577 15.0738 8.67082 14.9525C8.80327 14.8656 8.86495 14.8341 8.9547 14.8081C9.00512 14.7935 9.01101 14.7889 9.01101 14.7646C9.01101 14.7203 9.05 14.5923 9.08681 14.5151C9.1058 14.4758 9.15959 14.3866 9.20614 14.317C9.31506 14.1551 9.36363 14.0707 9.39758 13.9852C9.42615 13.9126 9.45355 13.7885 9.45355 13.7311C9.45355 13.6986 9.45557 13.6966 9.48801 13.6966C9.53624 13.6966 9.55271 13.705 9.56969 13.7376C9.5907 13.7785 9.58784 13.8284 9.55977 13.9124C9.53809 13.9768 9.53624 13.9931 9.54465 14.0499C9.57776 14.2802 9.52767 14.5556 9.40968 14.7906C9.33388 14.9417 9.15723 15.1896 9.0458 15.3019C8.97706 15.371 8.76225 15.449 8.56443 15.4765C8.46157 15.4908 8.22525 15.4886 8.10558 15.4722ZM8.25147 14.8671C8.20172 14.8536 8.03869 14.8272 7.88927 14.8083C7.50589 14.7595 7.44269 14.741 7.27966 14.6314C7.142 14.539 7.10822 14.5281 6.83375 14.4857C6.6408 14.4561 6.54937 14.4323 6.44718 14.3849C6.34566 14.3381 6.17759 14.2247 6.02329 14.0991C5.80059 13.9178 5.66697 13.822 5.52411 13.7416C5.41954 13.682 5.31594 13.6207 5.21334 13.5578C4.9587 13.401 4.79432 13.3099 4.67583 13.2598C4.57028 13.2154 4.42338 13.1685 4.3543 13.1572C4.32203 13.1522 4.31379 13.1438 4.27799 13.0809C4.22707 12.9914 4.15143 12.9124 4.08134 12.8755C4.03159 12.8495 4.0168 12.847 3.92571 12.8468C3.79461 12.8468 3.7341 12.8665 3.47325 12.9956C3.36249 13.0503 3.25139 13.1031 3.22668 13.1132C3.20164 13.123 3.11121 13.163 3.02549 13.2018C2.93977 13.2404 2.84011 13.2799 2.80414 13.2892C2.73355 13.3077 2.61875 13.3062 2.57118 13.2865L2.54429 13.2754L2.61841 13.0523C2.70581 12.7891 2.75456 12.6853 2.83019 12.6016C2.92465 12.4974 3.08281 12.4362 3.29004 12.4234C3.60855 12.4039 4.09983 12.5355 4.53599 12.7574C4.70373 12.8426 4.78861 12.8994 4.91668 13.0125C5.12325 13.195 5.18443 13.2317 5.34695 13.2698C5.56058 13.3203 5.63974 13.372 6.1201 13.7757C6.28482 13.9142 6.44281 14.0263 6.55021 14.0811C6.60349 14.1084 6.62685 14.1136 6.72534 14.1203C6.86754 14.1302 6.95662 14.1544 7.13478 14.2321C7.31563 14.3109 7.37294 14.3279 7.50202 14.3406C7.70338 14.3608 7.7575 14.3721 7.87431 14.418C7.96003 14.4517 8.00877 14.465 8.06222 14.4687C8.17685 14.4768 8.20206 14.457 8.36291 14.2334C8.37938 14.2104 8.45367 14.1267 8.52779 14.0474C8.60191 13.9679 8.69133 13.8645 8.72612 13.8174C8.87873 13.6122 8.96075 13.3831 8.96075 13.1619C8.96075 13.0406 8.94781 12.9633 8.88848 12.7259C8.82495 12.4713 8.80982 12.3851 8.80982 12.2779C8.80982 12.18 8.82831 12.0968 8.86797 12.0167C8.89436 11.9632 8.8952 11.9556 8.89571 11.7903C8.89654 11.5308 8.93218 11.3899 9.09488 11.0045C9.13354 10.9137 9.17058 10.8223 9.20597 10.7302L9.23287 10.6561L9.1769 10.6606C9.10261 10.6668 9.0542 10.7016 8.97218 10.808C8.89856 10.9033 8.8552 10.9361 8.78427 10.9496C8.74528 10.9569 8.72948 10.9558 8.712 10.9445C8.67502 10.9206 8.67317 10.8852 8.70376 10.7929C8.74108 10.6808 8.72931 10.623 8.68225 10.6865C8.65233 10.727 8.50795 10.8467 8.39736 10.9227C8.34475 10.9586 8.18626 11.0551 8.04524 11.1368C7.69413 11.3402 7.62808 11.386 7.48185 11.5284C7.36201 11.6452 7.35193 11.6524 7.26403 11.6874C7.141 11.7365 7.01645 11.7666 6.75761 11.8101C6.4339 11.8646 6.38281 11.8793 6.10884 11.9967C5.78311 12.1365 5.68664 12.161 5.46494 12.1607C5.2846 12.1603 4.97601 12.1318 4.96492 12.1143C4.95984 12.1043 4.95713 12.0933 4.95702 12.082C4.95685 12.0521 4.90458 11.9471 4.84827 11.8639C4.7286 11.6864 4.67684 11.5343 4.59398 11.117C4.51263 10.7067 4.49817 10.6559 4.4143 10.491C4.33295 10.3309 4.31531 10.2608 4.28825 9.98967C4.26135 9.71823 4.23211 9.59519 4.17261 9.50225C4.15631 9.47704 4.09513 9.41149 4.03647 9.3572C3.92167 9.2503 3.89949 9.21736 3.88049 9.12442C3.86268 9.03786 3.84755 9.01281 3.76116 8.92827C3.68553 8.85432 3.68149 8.84759 3.53325 8.55682C3.29895 8.09646 3.19878 7.93797 3.04465 7.78401L2.97171 7.71123L2.94095 7.72922C2.88918 7.75947 2.84784 7.82385 2.83002 7.9015C2.82128 7.94015 2.80952 8.05243 2.80397 8.15092C2.79288 8.34606 2.77321 8.46825 2.74346 8.52657C2.72548 8.5617 2.72514 8.56926 2.73842 8.63817C2.77405 8.82558 2.76749 9.05298 2.71791 9.34073C2.70413 9.42107 2.65236 9.65419 2.60312 9.85891C2.49387 10.3122 2.47454 10.4167 2.4616 10.6233C2.44311 10.9203 2.41756 11.0255 2.34747 11.0956C2.29924 11.1437 2.24881 11.1617 2.16091 11.1617L2.09872 11.1617L2.07721 11.1138C2.04763 11.0489 2.04191 10.886 2.06376 10.7289C2.11351 10.369 2.14175 10.086 2.14679 9.89907L2.152 9.69789L2.20074 9.54696C2.28394 9.28896 2.33823 9.03987 2.36075 8.81348C2.3742 8.67784 2.37487 8.51598 2.36209 8.51598C2.35688 8.51598 2.32562 8.54086 2.29268 8.57145C2.18309 8.67263 2.12813 8.81062 2.04006 9.20408C1.98123 9.46679 1.91199 9.72546 1.86694 9.85C1.81652 9.98933 1.70425 10.2063 1.65315 10.2631C1.59853 10.3238 1.54054 10.3509 1.48507 10.3414C1.45112 10.3357 1.44507 10.33 1.42894 10.2882C1.4044 10.2246 1.40675 10.1265 1.43432 10.055C1.44608 10.0246 1.48777 9.9453 1.52676 9.87891C1.68475 9.60998 1.69215 9.58242 1.68441 9.2856C1.67399 8.89684 1.69114 8.8444 1.92779 8.54607C2.03939 8.40522 2.08931 8.31076 2.09704 8.22689C2.10091 8.1842 2.09872 8.1642 2.08981 8.15865C2.08275 8.15445 2.04578 8.14857 2.00762 8.14588C1.94342 8.14134 1.933 8.14353 1.86577 8.1768C1.81501 8.20202 1.76173 8.24185 1.68962 8.30858C1.55684 8.43161 1.51146 8.46825 1.45768 8.49514C1.38742 8.5306 1.27095 8.55565 1.09901 8.57195C0.782688 8.60204 0.71966 8.62691 0.48032 8.81734C0.359474 8.91331 0.306193 8.94457 0.228542 8.96441C0.154925 8.98323 0.0802998 8.97617 0.043155 8.94693C-0.00810827 8.90659-0.0143269 8.79448 0.02786 8.67044L0.0488697 8.60859L0.106015 8.60153C0.291616 8.57656 0.47258 8.52464 0.643185 8.44741C0.765881 8.39076 0.893282 8.31429 1.14926 8.14369C1.58407 7.85393 1.77114 7.76367 2.05889 7.70502C2.20679 7.67476 2.21453 7.66417 2.15503 7.57072C2.0957 7.47761 2.10981 7.44349 2.21049 7.43727C2.2989 7.43189 2.34445 7.40752 2.42176 7.32449C2.62513 7.10599 2.63942 7.09423 2.75691 7.04885C2.88851 6.99792 3.07877 6.94313 3.2013 6.92077C3.27424 6.90733 3.30164 6.90632 3.34214 6.91556C3.47661 6.94565 3.61813 7.07507 3.70401 7.246C3.79797 7.43324 3.79276 7.62736 3.69073 7.74216C3.66502 7.77124 3.64754 7.783 3.63661 7.7788C3.62149 7.77308 3.57913 7.69224 3.49577 7.50988C3.43123 7.36886 3.38131 7.33474 3.28231 7.36365C3.23962 7.37592 3.22348 7.38634 3.21172 7.40903C3.18012 7.47004 3.19239 7.4887 3.2971 7.53811C3.37206 7.57341 3.38349 7.58887 3.42837 7.71627C3.44551 7.76468 3.47123 7.82216 3.48551 7.84384C3.51106 7.8825 3.59006 7.93897 3.72099 8.01293C3.84973 8.08537 3.94772 8.22269 4.07983 8.51581C4.22169 8.83095 4.25278 8.89835 4.37598 9.15954C4.61767 9.67251 4.80289 10.1166 4.9155 10.4532C4.97685 10.6361 4.99786 10.7233 5.06341 11.066C5.134 11.4334 5.20274 11.614 5.32006 11.7395C5.4078 11.8333 5.48276 11.8688 5.60512 11.874C5.75538 11.8807 5.82933 11.855 6.1238 11.695C6.30566 11.5961 6.36784 11.5753 6.64853 11.5193C6.91073 11.4671 6.99191 11.4415 7.10368 11.377C7.22385 11.3075 7.59816 11.0506 7.66909 10.9887C7.80052 10.8744 7.88658 10.7484 7.91918 10.6228C7.94725 10.5152 7.93633 10.3416 7.8933 10.2083C7.87868 10.1631 7.84321 10.1475 7.71833 10.131C7.59194 10.1145 7.5511 10.0947 7.53832 10.0434C7.52824 10.0028 7.54942 9.95017 7.6232 9.83369C7.65816 9.77839 7.66388 9.76192 7.66018 9.72781C7.64572 9.59133 7.51765 9.48712 7.29041 9.42695C7.23797 9.41283 7.12284 9.3856 7.03426 9.36611C6.81762 9.31837 6.72988 9.28762 6.64164 9.22862C6.5139 9.14324 6.45676 9.06626 6.31524 8.78826C6.15741 8.479 6.08363 8.41765 5.83504 8.39009C5.62882 8.36723 5.58259 8.34303 5.44544 8.18571C5.32359 8.04621 5.28712 8.02184 5.16341 7.99814C5.05416 7.9773 5.02643 7.96066 4.90239 7.84183C4.81667 7.75997 4.74205 7.70266 4.57969 7.59408C4.33934 7.43324 4.13361 7.30667 3.9773 7.22314L3.8699 7.16583L3.87629 7.13154C3.88251 7.09876 3.87864 7.09339 3.77427 6.99036C3.65309 6.87102 3.55879 6.79875 3.3208 6.6421C3.24528 6.5931 3.17151 6.54147 3.09961 6.4873L3.04062 6.43923L2.96834 6.44142C2.87069 6.44444 2.85187 6.43587 2.83725 6.38192C2.80766 6.27065 2.75203 6.23469 2.54563 6.19267C2.46782 6.17687 2.38327 6.15468 2.35773 6.14325C2.33184 6.13182 2.26394 6.07972 2.20511 6.02594C2.08511 5.91635 2.04208 5.89349 1.89585 5.86139C1.74593 5.82861 1.70895 5.80508 1.61214 5.68071C1.55365 5.60558 1.50188 5.57314 1.42591 5.5639C1.27885 5.54608 1.16203 5.50389 0.841851 5.35363C0.717474 5.29514 0.540995 5.22169 0.449898 5.19043C0.170388 5.09446 0.0718954 5.0316 0.042482 4.93042C0.0290363 4.88437 0.0290363 4.87226 0.0429849 4.81932C0.0564311 4.76789 0.0920631 4.69326 0.103324 4.69326C0.105341 4.69326 0.135258 4.70973 0.169882 4.7299C0.353589 4.83747 0.597299 4.93546 0.922693 5.03177C1.78324 5.28691 1.82022 5.30338 2.12006 5.5644C2.29957 5.72071 2.40848 5.80071 2.51202 5.85215C2.59572 5.89383 2.59942 5.89467 2.72833 5.90038C2.89321 5.90778 2.90263 5.91248 3.0665 6.06812C3.14746 6.14711 3.23659 6.21726 3.33239 6.27738C3.40971 6.32696 3.51156 6.39503 3.55862 6.42881C3.68804 6.52159 3.74384 6.55554 3.97293 6.68076C4.32992 6.87573 4.36488 6.90548 4.53296 7.1549C4.68843 7.38584 4.74793 7.42853 4.9434 7.44887C4.99786 7.45458 5.05719 7.46349 5.07551 7.46887C5.16022 7.49357 5.23384 7.56618 5.34779 7.73728C5.3925 7.80435 5.44696 7.87544 5.46914 7.89527C5.50914 7.93141 5.50931 7.93141 5.60461 7.93141C5.74647 7.93141 5.84378 7.96032 5.96295 8.03747C6.05488 8.09713 6.12598 8.16504 6.29002 8.34975C6.36868 8.43833 6.45575 8.53161 6.48348 8.55716C6.54382 8.61245 6.5539 8.65077 6.53222 8.74204C6.52415 8.77532 6.51961 8.8044 6.52214 8.80692C6.52466 8.80927 6.53894 8.80708 6.55407 8.80187C6.5739 8.79515 6.59138 8.7733 6.61676 8.72422C6.63609 8.68657 6.65878 8.65161 6.66719 8.6464C6.69307 8.6301 6.71374 8.63565 6.72584 8.66237C6.74147 8.69649 6.80602 8.72338 6.89341 8.73178C7.02771 8.74506 7.04065 8.75128 7.13208 8.84641C7.1778 8.89431 7.26032 8.99818 7.31528 9.07735C7.37041 9.15651 7.42991 9.23803 7.44756 9.25837L7.47949 9.29535L7.5837 9.29637C7.74505 9.29755 7.80993 9.32696 8.01498 9.4905C8.19012 9.63034 8.16877 9.62227 8.36962 9.62597C8.56342 9.62966 8.63905 9.64244 8.89536 9.71538L9.04613 9.75824L9.10159 9.87119C9.13185 9.93338 9.16647 9.99388 9.17824 10.0056L9.19975 10.027L9.26379 9.99657C9.36245 9.94968 9.46296 9.93338 9.69104 9.92699L9.89323 9.92127L9.94819 9.96279C10.1269 10.0976 10.3862 10.1413 10.8593 10.1162C11.2385 10.0962 11.571 10.0912 11.6785 10.104C11.858 10.1251 11.9883 10.1695 12.0826 10.2415L12.1288 10.2768L12.1629 10.2036C12.2159 10.09 12.2236 10.0855 12.3678 10.0826L12.4888 10.0801L12.5934 10.0275C12.6556 9.99625 12.767 9.92431 12.8687 9.84951C13.1952 9.60984 13.3463 9.55639 13.6096 9.58698C13.7758 9.60648 13.8781 9.60631 14.0277 9.58698C14.3945 9.53731 14.7472 9.41307 15.0641 9.22192C15.1429 9.17418 15.176 9.15973 15.2056 9.15973C15.2752 9.15973 15.3622 9.13839 15.4392 9.10258C15.4807 9.08326 15.569 9.04712 15.6352 9.02241C15.8117 8.95619 15.8861 8.91383 15.9683 8.83282C16.0255 8.77652 16.0492 8.7429 16.0863 8.66676C16.1472 8.54171 16.166 8.44843 16.1656 8.27447C16.1653 8.07951 16.129 7.87983 16.0505 7.63881L16.0187 7.54133L15.9663 7.52116C15.8549 7.47864 15.7735 7.40989 15.6177 7.22635L15.5253 7.11744L15.4345 7.12349C15.3424 7.12954 15.3142 7.12635 15.0187 7.07609C14.8041 7.03962 14.7269 7.05929 14.4785 7.21308C14.3985 7.26229 14.3179 7.31076 14.237 7.35846C13.8894 7.56284 13.7954 7.65075 13.719 7.84302C13.6497 8.01749 13.5971 8.0948 13.5284 8.12337C13.5028 8.1338 13.4998 8.14069 13.4953 8.19716C13.4822 8.35633 13.4225 8.42978 13.3218 8.41095C13.2776 8.40255 13.2273 8.3607 13.209 8.31649C13.1887 8.26792 13.1915 8.1222 13.2158 7.97765C13.2267 7.91126 13.2388 7.81966 13.2425 7.77378L13.2492 7.69075L13.2127 7.70587C13.1374 7.73747 12.9729 7.71848 12.8525 7.66436L12.7951 7.63864L12.7514 7.6689C12.7275 7.68537 12.6537 7.74722 12.5873 7.80622C12.4576 7.92135 12.3797 7.96757 12.2928 7.98135C12.1856 7.99833 12.1029 7.97177 11.8854 7.85076C11.6911 7.74268 11.5871 7.71629 11.4656 7.74453C11.4298 7.75294 11.4 7.75899 11.3994 7.75798C11.3703 7.70134 11.2972 7.59948 11.1889 7.46469C11.1133 7.37056 11.033 7.26249 11.0103 7.22434C10.9699 7.15711 10.9693 7.15459 10.9856 7.12887C11.0262 7.06433 11.0276 7.05878 11.0089 7.01979C10.9779 6.96437 10.9449 6.91015 10.9098 6.85726C10.8652 6.78835 10.8207 6.71103 10.8114 6.68582C10.802 6.66044 10.7775 6.55809 10.7568 6.45858C10.6578 5.98041 10.6217 5.84259 10.5506 5.6698C10.5141 5.58173 10.4749 5.52291 10.3608 5.38458C10.2037 5.19415 10.1225 5.02154 9.95542 4.52286L9.85289 4.21696L9.87642 4.17259C9.8892 4.14822 9.92785 4.10368 9.96214 4.07376C10.023 4.02014 10.0253 4.01913 10.0869 4.01913C10.143 4.01913 10.1537 4.0225 10.1914 4.05308C10.2667 4.11426 10.3511 4.14855 10.5652 4.20553C10.8334 4.27663 10.9195 4.3289 10.9792 4.4568C11.0161 4.53597 11.0128 4.54689 10.9444 4.56605C10.8291 4.59849 10.7222 4.58622 10.5153 4.51697C10.3748 4.46991 10.3133 4.46201 10.2934 4.48807C10.2838 4.50519 10.2787 4.52454 10.2788 4.5442C10.2786 4.57681 10.2845 4.58622 10.3262 4.61984C10.441 4.71161 10.4346 4.70085 10.7044 5.25651C10.7514 5.35332 10.8097 5.46206 10.8341 5.49803C10.8622 5.53652 10.8816 5.5806 10.8911 5.62728C10.8978 5.66224 10.9264 5.75284 10.9541 5.8283C11.0054 5.96747 11.0331 6.08109 11.0331 6.15252C11.0331 6.18059 11.0444 6.21034 11.0733 6.2574C11.1261 6.34379 11.1931 6.47909 11.2903 6.69507C11.5172 7.1998 11.6627 7.39678 11.8994 7.51998L11.9777 7.56083L12.0863 7.50637C12.1681 7.46664 12.2513 7.42976 12.3357 7.39578C12.769 7.22282 13.0349 7.2361 13.1526 7.43662L13.1786 7.48133L13.2021 7.45275C13.2152 7.43712 13.2526 7.38586 13.2852 7.3388C13.4153 7.15156 13.4848 7.09744 13.6684 7.04063C13.8153 6.99508 13.916 6.94735 13.9581 6.90365C13.996 6.86466 13.9939 6.85037 13.947 6.81827C13.8753 6.76919 13.8069 6.79406 13.6334 6.93205C13.5006 7.03794 13.4376 7.06971 13.3697 7.06534L13.3216 7.06214L13.3243 7.01878C13.3285 6.95491 13.3596 6.89726 13.4445 6.7986C13.5773 6.64347 13.6183 6.56514 13.6185 6.46648L13.6185 6.41841L13.5563 6.42178C13.4645 6.42699 13.3899 6.409 13.2109 6.33807C13.0381 6.26967 12.9403 6.24799 12.8512 6.25841L12.7983 6.26462L12.7845 6.22597C12.744 6.11218 12.6534 6.02495 12.4665 5.9194C12.2497 5.7967 12.2144 5.77384 12.1486 5.71182C12.0633 5.63132 12.0293 5.56005 12.0212 5.44526L12.0159 5.36458L12.0727 5.37147C12.1581 5.38223 12.2935 5.42105 12.4061 5.46727C12.5394 5.52173 12.6808 5.60173 12.9544 5.77721C13.2386 5.95974 13.2058 5.9394 13.3141 5.99957C13.4748 6.08865 13.5803 6.12832 13.7067 6.14664C13.8632 6.16933 13.9084 6.18479 13.981 6.23992L14.1003 6.33034C14.1701 6.38329 14.2239 6.39925 14.3785 6.4127C14.5256 6.42547 14.5703 6.43825 14.6718 6.49623C14.8036 6.5717 14.8281 6.57557 15.0004 6.548C15.13 6.52716 15.2133 6.5364 15.4693 6.59977C15.7028 6.65759 15.8614 6.68498 15.9621 6.68498C16.0396 6.68498 16.0404 6.68515 16.0529 6.7154C16.0734 6.76482 16.1228 6.81961 16.2095 6.88936C16.2477 6.91921 16.2838 6.95161 16.3176 6.98634C16.3322 7.00382 16.3803 7.09156 16.4242 7.18097C16.4762 7.28786 16.5366 7.39048 16.6048 7.48788C16.7571 7.7052 16.7516 7.68369 16.7527 8.0632C16.7534 8.26725 16.7578 8.397 16.7653 8.42759C16.7719 8.45381 16.7956 8.51499 16.8181 8.5634C16.8408 8.61231 16.8615 8.67433 16.8645 8.70223C16.8753 8.8019 16.8131 8.95938 16.7077 9.09939C16.6405 9.18864 16.4959 9.32579 16.4068 9.38512C16.2979 9.45706 16.2502 9.47202 16.093 9.48277C15.8759 9.4979 15.8169 9.52193 15.6051 9.68194C15.5387 9.73203 15.4586 9.78699 15.427 9.8038C15.3572 9.84094 15.312 9.89237 15.2591 9.99406C15.1898 10.1272 15.1703 10.2248 15.1424 10.5781C15.1237 10.8151 15.1113 10.8818 15.0471 11.0902C14.9811 11.3047 14.9695 11.3659 14.9511 11.5955C14.9264 11.9052 14.9058 12.009 14.8503 12.1037C14.8248 12.1512 14.78 12.1853 14.7274 12.197C14.6642 12.214 14.616 12.1977 14.5644 12.1416C14.4793 12.0495 14.4328 11.8936 14.4254 11.6765C14.4187 11.4782 14.4393 11.3597 14.5346 11.0496C14.5573 10.9756 14.596 10.839 14.6204 10.7459C14.675 10.5385 14.7289 10.3879 14.8358 10.1455C14.9432 9.90178 14.9669 9.84296 14.9612 9.83355C14.9587 9.82935 14.9404 9.82296 14.9207 9.81926C14.8661 9.809 14.7849 9.83758 14.7002 9.89691C14.5387 10.01 14.2644 10.2263 14.2104 10.2831C14.1029 10.3964 14.064 10.51 14.0104 10.8665C13.9513 11.262 13.9353 11.3136 13.821 11.4834C13.7057 11.6545 13.6973 11.6752 13.6975 11.7889C13.6976 11.8592 13.7067 11.9217 13.7351 12.0473C13.78 12.2446 13.7854 12.3622 13.7534 12.4434L13.7339 12.493L13.6284 12.5258C13.5158 12.5609 13.4511 12.5678 13.425 12.5473C13.3931 12.5224 13.3455 12.4325 13.3166 12.3419C13.2151 12.0251 13.2771 11.6158 13.4971 11.1513C13.5562 11.0233 13.6119 10.8937 13.664 10.7627C13.78 10.4694 13.8072 10.419 13.8884 10.3484C14.0175 10.2359 14.0692 10.1842 14.0813 10.1551C14.1003 10.109 14.0891 10.0952 14.0321 10.0952C13.9904 10.0952 13.9612 10.1063 13.8482 10.1648C13.7012 10.2408 13.6516 10.2576 13.5727 10.2583C13.5217 10.2588 13.52 10.2598 13.5003 10.3003C13.489 10.323 13.4112 10.4571 13.3275 10.5983C13.0905 10.9965 12.9725 11.242 12.9257 11.4331C12.8964 11.5528 12.886 11.6528 12.8739 11.9362C12.8576 12.314 12.8352 12.4523 12.771 12.5728C12.7159 12.676 12.6006 12.7602 12.4971 12.7727C12.4724 12.7756 12.4624 12.7693 12.4347 12.733C12.3626 12.6387 12.3545 12.5212 12.4006 12.2359C12.4169 12.1347 12.4376 11.9636 12.4463 11.8557C12.4774 11.4708 12.4991 11.3914 12.6329 11.1716C12.7011 11.0595 12.723 10.9997 12.723 10.9262C12.723 10.8595 12.7248 10.857 12.9154 10.6633C13.0287 10.5482 13.07 10.4991 13.0889 10.4571C13.1164 10.3958 13.1326 10.3166 13.1176 10.3166C13.0998 10.3166 12.8897 10.5037 12.7835 10.6141C12.328 11.0877 11.9912 11.6915 11.8789 12.2357C11.8671 12.2925 11.8483 12.4192 11.8369 12.5174C11.8053 12.7905 11.7841 12.8636 11.7184 12.926C11.6663 12.9756 11.5668 12.9732 11.4415 12.9194L11.3923 12.8982L11.398 12.7668C11.4019 12.6806 11.4165 12.5676 11.4404 12.4391C11.4925 12.1584 11.5054 12.0505 11.5056 11.8898L11.5058 11.7479L11.5888 11.6215C11.6345 11.552 11.7012 11.4467 11.7372 11.3879C11.8438 11.2131 11.9196 11.1205 12.0582 10.9955C12.1293 10.9316 12.2085 10.8526 12.2342 10.8196C12.2804 10.7608 12.3327 10.6598 12.345 10.6059C12.3525 10.5724 12.3397 10.5706 12.2623 10.5936C12.191 10.6148 12.112 10.6904 12.0191 10.8262C11.9779 10.8862 11.8572 11.0405 11.7506 11.1691C11.4207 11.5674 11.292 11.7506 11.1738 11.9915C11.0293 12.2861 10.9691 12.5323 10.9556 12.8856L10.9493 13.0554L10.9054 13.0747C10.8449 13.1016 10.7383 13.1228 10.6635 13.1231C10.6047 13.1231 10.6 13.1214 10.5859 13.0942C10.5586 13.0416 10.5301 12.9186 10.5198 12.8107C10.5022 12.6234 10.5386 12.3308 10.6065 12.1157C10.6371 12.0182 10.6494 11.999 10.7481 11.892C10.8434 11.7886 10.8619 11.7499 10.862 11.6538C10.8622 11.5893 10.8662 11.572 10.8923 11.5266C10.9375 11.4477 11.0294 11.3551 11.2204 11.1956C11.4407 11.0118 11.5155 10.9181 11.5454 10.7882C11.556 10.742 11.56 10.6084 11.5506 10.6084C11.5402 10.6084 11.3789 10.7025 11.3089 10.7497C10.9335 11.0025 10.6173 11.3872 10.4092 11.8447C10.3249 12.0305 10.3065 12.0871 10.2285 12.4028C10.1897 12.5599 10.1416 12.7354 10.1216 12.7927C10.0262 13.0677 9.91609 13.187 9.77356 13.1702C9.70264 13.1618 9.61608 13.1184 9.60263 13.0845C9.59692 13.0698 9.58986 13.0058 9.58717 12.9421C9.57876 12.7399 9.61893 12.5962 9.78533 12.2337C9.91945 11.9412 9.93945 11.8686 9.92483 11.7273C9.91307 11.6114 9.92483 11.5642 9.99021 11.4698C10.1119 11.2933 10.3633 11.0193 10.4391 10.9807C10.4858 10.9594 10.5335 10.9405 10.582 10.924C10.7556 10.8637 10.8217 10.8042 10.8217 10.7084C10.8217 10.6843 10.8145 10.6754 10.7818 10.6588C10.6429 10.5879 10.4373 10.5926 10.1452 10.6734L9.89374 10.743C9.82161 10.7627 9.74872 10.7796 9.67524 10.7934C9.58902 10.808 9.57641 10.8133 9.54095 10.8472C9.42161 10.9623 9.32447 11.1726 9.28211 11.4072C9.22984 11.6983 9.23303 11.9686 9.29774 12.7159C9.31119 12.8707 9.32497 13.0519 9.32867 13.1182C9.33253 13.1914 9.34043 13.2475 9.34884 13.2608C9.35623 13.2727 9.3885 13.2922 9.42044 13.3043C9.48548 13.3285 9.5038 13.3409 9.5038 13.3603C9.5038 13.3675 9.47439 13.4171 9.43825 13.4704C9.35842 13.588 9.29001 13.7275 9.18194 13.9934C9.04075 14.3403 8.96512 14.4834 8.85133 14.6183C8.74847 14.7402 8.59081 14.8405 8.44291 14.8783C8.36845 14.8975 8.3624 14.8972 8.2513 14.8671L8.25147 14.8671ZM1.92981 14.4126C1.9925 14.3013 2.08343 14.1862 2.2105 14.0578C2.40798 13.8583 2.60127 13.7156 3.04045 13.4453C3.3287 13.268 3.51443 13.145 3.65141 13.0406L3.77074 12.9495L3.82016 12.9554C3.88873 12.9636 3.96571 13.0024 4.03479 13.0641C4.1037 13.1255 4.1042 13.1329 4.04655 13.2502C4.02067 13.303 3.99227 13.3399 3.93731 13.3922C3.84839 13.4766 3.79663 13.5078 3.54149 13.6314C3.43459 13.6832 3.31593 13.7462 3.27761 13.7717C3.21206 13.8153 3.10583 13.9186 3.10583 13.939C3.10583 13.944 3.07945 13.9482 3.04701 13.9482C2.95221 13.9482 2.90683 13.9677 2.80515 14.0524C2.53505 14.2771 2.23924 14.4188 1.93989 14.4666L1.89552 14.4736L1.92981 14.4126ZM5.20846 12.6399C5.04156 12.6192 4.85786 12.5712 4.76373 12.5236L4.7165 12.4997L4.736 12.4559C4.74659 12.4317 4.76272 12.3648 4.77146 12.3073C4.78222 12.2387 4.79331 12.1985 4.80374 12.1903C4.83651 12.1646 4.86626 12.176 4.92492 12.2364L4.98206 12.2952L5.07013 12.3073C5.20846 12.3261 5.43587 12.3222 5.57386 12.2987C5.72261 12.2732 5.80597 12.252 6.04716 12.1777C6.15305 12.1453 6.27709 12.1091 6.32297 12.0975C6.41877 12.0733 6.60668 12.0436 6.61441 12.0513C6.625 12.0619 6.57475 12.192 6.53979 12.2446C6.42113 12.4233 6.15506 12.5582 5.79689 12.6211C5.65907 12.6453 5.33569 12.6555 5.20846 12.6399ZM17.0788 10.348C17.022 10.3295 16.9867 10.3032 16.9264 10.2344C16.838 10.1341 16.7983 10.0978 16.7548 10.0774C16.7341 10.0678 16.7171 10.0542 16.7171 10.0472C16.7163 10.0129 16.7536 9.95607 16.8274 9.8791C16.9417 9.75976 16.9554 9.7174 16.922 9.58866C16.902 9.51168 16.908 9.45235 16.941 9.40243C16.9551 9.38126 17.0133 9.32344 17.0704 9.27419C17.1995 9.16292 17.224 9.12208 17.2148 9.03384C17.2065 8.95653 17.1985 8.92274 17.1326 8.69198C17.0983 8.57034 17.067 8.44788 17.0386 8.32473C17.0171 8.22792 16.9655 8.00589 16.9242 7.83143C16.701 6.89037 16.6351 6.41304 16.6502 5.84494C16.6536 5.71216 16.6595 5.59283 16.663 5.57972C16.6692 5.55669 16.6719 5.55619 16.7509 5.56073C16.803 5.56375 16.8771 5.57871 16.9566 5.60224C17.1402 5.65636 17.197 5.65098 17.3049 5.56963C17.3755 5.51635 17.4145 5.4977 17.4692 5.49131C17.5965 5.47652 17.7637 5.60325 18.0911 5.96192C18.25 6.13605 18.3572 6.22294 18.6858 6.44464C18.8258 6.53926 18.9777 6.64633 19.0233 6.68297C19.0687 6.71944 19.2781 6.91962 19.4882 7.12753C19.6984 7.33561 19.9521 7.57999 20.0516 7.67092C20.1512 7.76168 20.3802 7.98219 20.5602 8.16086L20.8877 8.48575L20.9777 8.48558C21.1246 8.48541 21.202 8.45566 21.4021 8.32322C21.5352 8.23498 21.6014 8.20422 21.8545 8.11279C22.1424 8.00858 22.1959 7.98152 22.3251 7.87328C22.4189 7.79462 22.4603 7.7684 22.5967 7.70117C22.7462 7.62722 23.1958 7.43595 23.3813 7.3672C23.5485 7.30535 23.817 7.25947 23.8627 7.28502C23.8778 7.29342 23.877 7.2993 23.8534 7.34653C23.8087 7.43645 23.7496 7.47225 23.5206 7.54822C23.3564 7.60285 23.1117 7.7084 22.9685 7.78639C22.8667 7.84202 22.8694 7.84992 22.9897 7.85126C23.0894 7.85211 23.1431 7.83345 23.3632 7.72117C23.4694 7.66705 23.585 7.61293 23.6198 7.60117C23.703 7.57259 23.7949 7.56419 23.856 7.57965C23.9069 7.59226 24 7.64587 24 7.66235C24 7.68957 23.8845 7.78924 23.7714 7.85967C23.6566 7.9311 23.5768 7.99984 23.5371 8.06136C23.5225 8.08422 23.5206 8.08438 23.4524 8.07262C23.3704 8.05833 23.2373 8.06522 23.1499 8.08825C23.0787 8.10987 23.0083 8.13386 22.9388 8.16019C22.7514 8.22977 22.6393 8.25515 22.3453 8.29448C22.2181 8.31129 22.0764 8.33414 22.0308 8.3449C21.9308 8.36843 21.7829 8.42558 21.794 8.436C21.8352 8.47499 22.0651 8.48793 22.2258 8.4602C22.3455 8.43953 22.672 8.35431 22.803 8.3096C23.0245 8.23397 23.1435 8.21767 23.2205 8.25313C23.2906 8.28523 23.3247 8.34524 23.3257 8.43751L23.326 8.48474L23.2581 8.50491C22.8235 8.63265 22.1539 8.74593 21.411 8.81736C21.2953 8.82845 21.195 8.8424 21.1878 8.84829C21.1728 8.86073 21.1531 8.94308 21.1531 8.99283C21.1531 9.06393 21.1375 9.08443 21.0545 9.12225C20.7935 9.24075 20.5511 9.27722 20.3133 9.23368C20.2099 9.21486 20.2301 9.23082 20.0364 9.01519C19.9109 8.87568 19.7702 8.74038 19.428 8.43028C18.9903 8.03413 18.8577 7.89412 18.6231 7.58032C18.4656 7.36956 18.3695 7.26165 18.1839 7.08702C17.7472 6.67641 17.5361 6.44497 17.4259 6.25673C17.3992 6.21084 17.3778 6.18698 17.356 6.17773C17.3387 6.17051 17.2929 6.13185 17.2544 6.09201C17.1802 6.01487 17.1166 5.97066 17.08 5.97066C17.0511 5.97066 17.0144 6.04882 16.9976 6.1463C16.9694 6.31034 17.026 6.62784 17.1803 7.17156C17.261 7.45561 17.276 7.53562 17.3003 7.81664C17.3287 8.14439 17.3356 8.17666 17.4718 8.61651C17.5961 9.01821 17.6422 9.23722 17.6422 9.42496C17.6422 9.48714 17.6378 9.50647 17.6119 9.55421C17.5649 9.64127 17.5439 9.71287 17.5061 9.91658C17.4671 10.126 17.4447 10.1963 17.397 10.2589C17.3466 10.3255 17.2919 10.3502 17.1897 10.3536C17.1427 10.3549 17.0928 10.3526 17.0788 10.348ZM20.4834 8.77148C20.5223 8.75635 20.4771 8.64374 20.3906 8.5402C20.3289 8.46642 20.1132 8.27414 19.7699 7.9869C19.2137 7.5215 19.0522 7.36233 18.8159 7.04719C18.6105 6.77322 18.5439 6.70969 18.0849 6.3485C18.002 6.28177 17.9225 6.21081 17.8469 6.13588C17.7444 6.03235 17.7301 6.01285 17.6846 5.91755C17.6356 5.81553 17.5977 5.76964 17.5625 5.76964C17.5533 5.76964 17.541 5.76494 17.5353 5.75922C17.5188 5.74275 17.4961 5.75737 17.4777 5.7962L17.4605 5.83217L17.5032 5.88864C17.6353 6.06378 17.7983 6.24328 18.2357 6.69624C18.6528 7.1282 18.713 7.18501 18.95 7.37376C19.2156 7.5852 19.4025 7.76706 19.7052 8.10842C19.9272 8.35885 20.2916 8.7266 20.3484 8.75736C20.383 8.77618 20.4521 8.78341 20.4834 8.77131L20.4834 8.77148ZM11.7221 7.08181C11.6914 7.07655 11.6609 7.07027 11.6306 7.06299C11.6125 7.05643 11.5133 6.88314 11.4276 6.70851C11.3462 6.54262 11.2209 6.23572 11.1429 6.01184L11.0995 5.88696L11.1382 5.85368C11.2378 5.76746 11.3494 5.75015 11.4605 5.80359C11.5106 5.8278 11.5614 5.87351 11.7574 6.07083C11.9347 6.24967 12.0075 6.31622 12.049 6.33774C12.0977 6.36295 12.112 6.37808 12.1681 6.46497C12.246 6.58548 12.2707 6.64801 12.2777 6.7428L12.2833 6.81575L12.2381 6.81575C12.1792 6.81575 12.1354 6.80045 12.0779 6.75995C12.0083 6.71087 11.9737 6.69507 11.9303 6.69339C11.8811 6.69154 11.8749 6.69557 11.8332 6.75776C11.7918 6.81911 11.7935 6.84348 11.8458 6.9292C11.871 6.97071 11.8814 6.99979 11.8821 7.03139C11.8826 7.05576 11.8802 7.07845 11.8767 7.08181C11.8629 7.09576 11.7984 7.09576 11.7221 7.08181Z" fill="#010101"/></svg>
