<svg xmlns="http://www.w3.org/2000/svg" viewBox="0 0 8 8"><path fill="#010101" d="m5.22 6.337-.015-.004v-.057c0-.083.008-.116.065-.305a.673.673 0 0 0 .043-.265.543.543 0 0 1 .046-.253.608.608 0 0 0 .045-.201l-.001-.018-.03-.016a.8.8 0 0 0-.2-.062.776.776 0 0 1-.192-.058.66.66 0 0 0-.17-.054 1.787 1.787 0 0 1-.372-.123 2.325 2.325 0 0 1-.457-.227c-.063-.038-.067-.04-.065-.049.004-.014.016-.024.044-.037.032-.015.041-.024.034-.035-.009-.013-.038-.025-.089-.037-.051-.012-.07-.019-.07-.026 0-.006.015-.029.03-.046a.41.41 0 0 1 .149-.084 1.29 1.29 0 0 0 .167-.083c.106-.059.143-.074.311-.123.048-.014.096-.03.143-.045a.948.948 0 0 1 .22-.054c.175-.03.196-.04.31-.141l.098-.083c.142-.114.248-.214.293-.274.047-.063.069-.079.107-.079.035 0 .063.017.088.054.032.048.04.108.018.151-.007.015-.038.043-.047.043a.084.084 0 0 1-.02-.005.267.267 0 0 0-.037-.008c-.06-.009-.112.01-.16.06a.296.296 0 0 0-.044.054c-.014.024-.016.026-.04.038a.946.946 0 0 0-.234.19c-.11.108-.129.124-.147.124a2.348 2.348 0 0 0-.646.167 4.73 4.73 0 0 1-.325.113c-.002.003.017.018.039.03a.485.485 0 0 0 .185.047l.046.006.02.019c.035.033.042.037.062.037.04 0 .084.01.165.036.092.03.097.032.154.032.04 0 .043.001.064.011a.69.69 0 0 1 .059.034c.076.05.095.056.206.068.118.013.145.02.232.065.073.038.1.048.14.053a.44.44 0 0 1 .118.026.198.198 0 0 0 .09.02c.015-.002.016-.002.018.006a.1.1 0 0 1-.002.03c-.006.035-.005.037.019.07a.7.7 0 0 1 .046.08c.04.08.06.142.105.324.017.071.036.145.042.165.005.02.009.038.008.04a.162.162 0 0 1-.057.025c-.031.005-.058-.013-.078-.051a.645.645 0 0 1-.028-.073.425.425 0 0 0-.044-.108c-.009-.013-.01-.017-.016-.087-.02-.211-.042-.277-.101-.307a.307.307 0 0 0-.121-.025c-.085-.007-.119-.018-.148-.045-.01-.01-.018-.013-.025-.013a1.1 1.1 0 0 1-.26-.073 2.38 2.38 0 0 0-.239-.079 1.574 1.574 0 0 1-.213-.07 11.54 11.54 0 0 1-.327-.138.247.247 0 0 0-.104-.032c-.039-.002-.043 0-.036.017a.102.102 0 0 0 .049.05c.01.005.041.017.068.026l.147.051c.33.12.727.245.923.291.19.045.256.065.275.081.03.026.037.057.042.167.005.137.016.194.085.44.062.222.083.32.093.446l.002.02-.031.021c-.046.032-.084.045-.1.034-.011-.006-.023-.027-.038-.064a.322.322 0 0 0-.024-.047l-.012-.018.004-.023c.008-.043.008-.066 0-.087-.026-.075-.035-.154-.038-.365a4.563 4.563 0 0 0-.006-.17.664.664 0 0 0-.015-.11c-.003-.003-.018.019-.021.032-.003.01-.003.02.002.046a.32.32 0 0 1 .001.093 3.88 3.88 0 0 1-.084.554c-.033.164-.031.15-.026.223.001.01 0 .01-.029.02a.206.206 0 0 1-.075.01c-.03.001-.051 0-.06-.003ZM.067 5.16a.213.213 0 0 1-.034-.122v-.033l.027-.013a.822.822 0 0 0 .254-.207c.146-.158.235-.24.26-.24.006 0 .017.003.027.005.017.005.018.006.023.024a.08.08 0 0 1-.006.068.268.268 0 0 1-.04.04.612.612 0 0 0-.125.152 2.032 2.032 0 0 1-.109.157.413.413 0 0 1-.078.078.08.08 0 0 1-.034.011c-.03.003-.05.014-.087.047-.031.028-.053.042-.066.042-.003 0-.009-.004-.012-.01ZM.035 4.92c.01-.078.022-.128.036-.143a.067.067 0 0 1 .024-.014.297.297 0 0 0 .095-.062c.058-.05.081-.062.122-.066.021-.002.023-.005.014-.026-.007-.017-.019-.02-.038-.014a.409.409 0 0 0-.095.07c-.056.045-.083.06-.118.062L.05 4.73l-.004-.013a.258.258 0 0 1-.003-.048v-.035l.01.002a.228.228 0 0 0 .02.003H.08l.001-.034c.001-.034.001-.034.01-.039a.25.25 0 0 1 .089-.012h.032l.028-.02a.814.814 0 0 1 .275-.109l.078-.02c.005-.002.006-.001.004.007a.476.476 0 0 1-.05.098.877.877 0 0 1-.135.14c-.027.023-.087.08-.132.126-.107.108-.145.135-.211.154-.037.01-.038.01-.035-.01Zm2.667-.083a.73.73 0 0 1-.305-.12c0-.01.022-.038.037-.047.034-.021.067-.02.16.008.072.021.11.03.146.032.059.003.089-.006.15-.047a.317.317 0 0 1 .095-.048c.017-.005.019-.006.019-.014 0-.015.013-.058.025-.083a.733.733 0 0 1 .04-.066.586.586 0 0 0 .064-.111.306.306 0 0 0 .018-.085c0-.01 0-.011.012-.011.016 0 .021.003.027.013.007.014.006.03-.003.059a.075.075 0 0 0-.005.046.435.435 0 0 1-.045.246.852.852 0 0 1-.122.17.347.347 0 0 1-.16.06.767.767 0 0 1-.153-.002Zm.048-.202a1.349 1.349 0 0 0-.12-.02c-.128-.016-.15-.022-.203-.059-.046-.03-.058-.034-.15-.048a.434.434 0 0 1-.128-.034.8.8 0 0 1-.141-.095 1.154 1.154 0 0 0-.167-.12l-.103-.06a1.472 1.472 0 0 0-.18-.1.614.614 0 0 0-.107-.034c-.01-.002-.013-.004-.025-.025a.181.181 0 0 0-.066-.069c-.016-.009-.021-.01-.051-.01-.044 0-.064.007-.151.05a2.399 2.399 0 0 1-.223.098.158.158 0 0 1-.078 0l-.009-.005.025-.074a.397.397 0 0 1 .07-.15c.032-.035.085-.055.154-.06a.915.915 0 0 1 .542.197c.069.06.09.073.143.086.072.016.098.034.258.168a.868.868 0 0 0 .143.102c.018.01.026.01.059.013a.358.358 0 0 1 .136.037c.06.027.08.032.123.036.067.007.085.011.124.026a.201.201 0 0 0 .062.017c.039.003.047-.004.1-.078.006-.008.03-.036.056-.062a1.17 1.17 0 0 0 .066-.077.37.37 0 0 0 .078-.218.527.527 0 0 0-.024-.146.581.581 0 0 1-.026-.15.19.19 0 0 1 .019-.086c.009-.018.01-.02.01-.076 0-.086.011-.133.066-.262l.037-.091.009-.025-.019.002c-.025.002-.04.013-.068.049-.025.032-.04.043-.063.047-.013.003-.018.002-.024-.002-.012-.008-.013-.02-.003-.05.013-.037.009-.057-.007-.036a.613.613 0 0 1-.095.08l-.117.07a.749.749 0 0 0-.188.131c-.04.039-.043.041-.073.053a.78.78 0 0 1-.168.041.686.686 0 0 0-.217.062.442.442 0 0 1-.214.055.807.807 0 0 1-.167-.016.239.239 0 0 0-.039-.083c-.04-.06-.057-.11-.085-.249a.628.628 0 0 0-.06-.209.37.37 0 0 1-.042-.167c-.009-.09-.018-.131-.038-.162a.387.387 0 0 0-.046-.049c-.038-.035-.045-.046-.052-.077-.005-.03-.01-.037-.04-.066-.024-.024-.026-.027-.075-.123-.078-.154-.112-.207-.163-.258L.99 2.251l-.01.006a.089.089 0 0 0-.038.057.722.722 0 0 0-.008.083.376.376 0 0 1-.02.125c-.007.012-.007.015-.002.038a.665.665 0 0 1-.007.234 3.92 3.92 0 0 1-.038.173 1.267 1.267 0 0 0-.047.254c-.007.1-.015.134-.039.158C.766 3.395.75 3.4.72 3.4H.7l-.008-.016a.296.296 0 0 1-.004-.128c.017-.12.026-.215.028-.277l.001-.067.017-.05c.027-.086.045-.17.053-.245a.34.34 0 0 0 0-.099.118.118 0 0 0-.023.018c-.036.034-.055.08-.084.211-.02.088-.043.174-.058.216a.618.618 0 0 1-.071.137c-.018.02-.037.03-.056.026-.011-.001-.013-.003-.019-.017a.12.12 0 0 1 .002-.078.58.58 0 0 1 .03-.059c.054-.09.056-.099.053-.198-.003-.13.003-.147.082-.246.037-.047.053-.078.056-.106.001-.015 0-.021-.002-.023a.114.114 0 0 0-.028-.004c-.021-.002-.025-.001-.047.01a.259.259 0 0 0-.059.044.353.353 0 0 1-.077.062.362.362 0 0 1-.12.026c-.105.01-.126.018-.206.081a.21.21 0 0 1-.084.05c-.024.006-.05.003-.062-.006-.017-.014-.019-.051-.005-.093l.007-.02.02-.003a.642.642 0 0 0 .178-.05c.041-.02.084-.045.17-.102.144-.097.206-.127.302-.146.05-.01.052-.014.032-.045-.02-.031-.015-.043.019-.045.03-.001.044-.01.07-.037.068-.073.073-.077.112-.092a.954.954 0 0 1 .148-.043.101.101 0 0 1 .047-.002c.045.01.092.054.12.11.032.063.03.128-.004.166-.008.01-.014.014-.018.012a.375.375 0 0 1-.047-.09c-.021-.046-.038-.058-.07-.048-.015.004-.02.007-.024.015-.011.02-.007.027.028.043.025.012.029.017.044.06a.257.257 0 0 0 .019.042.266.266 0 0 0 .078.056c.043.024.076.07.12.168.047.105.058.127.099.214.08.171.142.32.18.432.02.06.027.09.049.204.023.122.046.183.085.224.03.032.055.044.095.045.05.003.075-.006.173-.06a.471.471 0 0 1 .175-.058.429.429 0 0 0 .152-.047c.04-.024.165-.11.188-.13a.252.252 0 0 0 .084-.122.28.28 0 0 0-.009-.138c-.005-.015-.017-.02-.058-.026-.042-.005-.056-.012-.06-.029-.004-.013.003-.031.028-.07.012-.018.014-.024.012-.035-.004-.046-.047-.08-.123-.1a2.437 2.437 0 0 0-.085-.02.35.35 0 0 1-.131-.047c-.043-.028-.062-.054-.109-.146-.053-.103-.077-.124-.16-.133-.069-.008-.084-.016-.13-.068-.04-.047-.053-.055-.094-.063-.036-.007-.046-.012-.087-.052a.709.709 0 0 0-.107-.082 2.52 2.52 0 0 0-.201-.124l-.036-.02.002-.01c.002-.011 0-.013-.034-.048a.857.857 0 0 0-.151-.116 1.284 1.284 0 0 1-.074-.051l-.02-.016H.99c-.032.001-.038-.001-.043-.02-.01-.036-.029-.048-.097-.062a.445.445 0 0 1-.063-.017.293.293 0 0 1-.051-.04.174.174 0 0 0-.103-.054c-.05-.01-.062-.019-.095-.06-.02-.025-.036-.036-.062-.04a.613.613 0 0 1-.194-.07C.239 1.446.18 1.422.15 1.41c-.093-.032-.126-.053-.136-.086-.004-.016-.004-.02 0-.037.005-.017.017-.042.02-.042l.023.012c.06.036.142.068.25.1.287.086.3.091.4.178.06.052.096.079.13.096.028.014.03.014.072.016.055.003.059.004.113.056.027.026.057.05.089.07.026.016.06.039.075.05.043.031.062.042.138.084.12.065.131.075.187.158.052.077.072.091.137.098a.375.375 0 0 1 .044.007c.028.008.053.032.09.09a.39.39 0 0 0 .041.052c.013.012.013.012.045.012.047 0 .08.01.12.035.03.02.054.043.109.105.026.03.055.06.064.069.02.018.024.03.016.061a.073.073 0 0 0-.003.022s.006 0 .01-.002c.007-.002.013-.01.022-.026a.105.105 0 0 1 .016-.026c.009-.005.016-.003.02.006.005.011.027.02.056.023.045.004.049.006.08.038.015.016.042.05.06.077.019.026.039.054.045.06l.01.013h.035c.054 0 .075.01.144.065.058.046.05.044.118.045.064.001.09.005.175.03l.05.014.019.038c.01.02.021.04.025.044l.008.008.02-.01a.332.332 0 0 1 .143-.024l.068-.002.018.014c.06.045.146.06.304.051.126-.006.237-.008.273-.004a.27.27 0 0 1 .135.046l.015.012.011-.025c.018-.037.02-.039.069-.04h.04l.035-.018a.777.777 0 0 0 .092-.06c.108-.08.159-.097.247-.087.055.006.089.006.139 0a.904.904 0 0 0 .345-.122c.027-.016.038-.02.048-.02a.196.196 0 0 0 .077-.02l.066-.026a.272.272 0 0 0 .11-.063.167.167 0 0 0 .04-.056.258.258 0 0 0 .027-.13.676.676 0 0 0-.039-.212l-.01-.033-.018-.007c-.037-.014-.064-.037-.116-.098l-.03-.036-.031.002a.511.511 0 0 1-.139-.016c-.071-.012-.097-.006-.18.046a5.023 5.023 0 0 1-.08.048c-.116.068-.148.098-.173.162-.023.058-.04.084-.064.093-.008.004-.01.006-.01.025-.005.053-.025.077-.058.07a.057.057 0 0 1-.038-.03.288.288 0 0 1 .002-.113l.01-.068.001-.028-.012.005c-.025.01-.08.004-.12-.014l-.019-.008-.015.01a.91.91 0 0 0-.054.045c-.043.039-.07.054-.098.059-.036.005-.064-.003-.136-.044-.065-.036-.1-.045-.14-.035a.191.191 0 0 1-.022.004.733.733 0 0 0-.07-.097 1.059 1.059 0 0 1-.06-.08c-.013-.023-.014-.024-.008-.032.013-.022.014-.024.008-.037a.836.836 0 0 0-.033-.054.469.469 0 0 1-.033-.057.904.904 0 0 1-.018-.076 1.36 1.36 0 0 0-.07-.263.345.345 0 0 0-.062-.095c-.053-.063-.08-.12-.136-.287l-.034-.102.008-.015a.15.15 0 0 1 .029-.033c.02-.018.02-.018.041-.018.019 0 .023.001.035.011.025.02.053.032.125.051.09.024.118.041.138.084.012.026.01.03-.012.036-.038.011-.074.007-.143-.016-.047-.016-.067-.018-.074-.01a.038.038 0 0 0-.005.019c0 .01.002.014.016.025.038.03.036.027.126.212a.913.913 0 0 0 .043.081.11.11 0 0 1 .02.043.607.607 0 0 0 .02.067.357.357 0 0 1 .027.108c0 .01.003.02.013.035.018.029.04.074.072.146.076.168.125.234.203.275l.027.014.036-.019c.027-.013.055-.025.083-.036.144-.058.233-.054.272.013l.009.015.008-.01a.769.769 0 0 0 .027-.037c.044-.063.067-.08.128-.1a.254.254 0 0 0 .097-.045c.012-.013.012-.018-.004-.029-.024-.016-.047-.008-.105.038-.044.035-.065.046-.087.044H4.44V2.02c.002-.021.012-.04.04-.074.045-.051.058-.077.059-.11V1.82h-.021c-.03.003-.056-.003-.115-.027-.058-.023-.09-.03-.12-.027l-.018.002-.005-.012c-.013-.038-.043-.067-.106-.103a.457.457 0 0 1-.105-.069.12.12 0 0 1-.043-.089l-.002-.027.02.003a.502.502 0 0 1 .11.032c.045.018.092.045.183.103.095.06.084.054.12.074a.36.36 0 0 0 .13.05c.053.007.068.012.092.03l.04.03c.023.018.041.023.093.028a.187.187 0 0 1 .098.028c.044.025.052.026.11.017.042-.007.07-.004.155.017.078.02.131.029.165.029.026 0 .026 0 .03.01a.167.167 0 0 0 .052.058c.013.01.025.02.036.032.005.006.021.035.036.065.017.036.037.07.06.102.05.073.049.066.05.192 0 .068 0 .111.003.121.003.01.01.03.018.046a.195.195 0 0 1 .016.046c.003.033-.018.086-.053.132a.522.522 0 0 1-.1.096c-.036.024-.052.029-.105.032-.072.005-.092.013-.162.067a.645.645 0 0 1-.06.04c-.023.013-.038.03-.056.064-.023.044-.03.077-.039.194a.606.606 0 0 1-.031.171.596.596 0 0 0-.032.168c-.009.104-.015.138-.034.17a.062.062 0 0 1-.04.031c-.022.006-.038 0-.055-.019-.029-.03-.044-.082-.047-.155a.546.546 0 0 1 .037-.209l.028-.1c.019-.07.037-.12.072-.2a.478.478 0 0 0 .042-.105l-.013-.005c-.019-.003-.046.006-.074.026-.054.038-.145.11-.163.129-.036.038-.049.076-.067.194-.02.132-.025.15-.063.206-.038.057-.041.064-.041.102 0 .023.003.044.012.086.015.066.017.105.006.132l-.006.017-.035.01c-.038.012-.06.015-.068.008a.176.176 0 0 1-.036-.069c-.034-.105-.013-.242.06-.397a2.61 2.61 0 0 0 .056-.13c.038-.097.047-.114.074-.137a.296.296 0 0 0 .065-.065c.006-.015.002-.02-.017-.02-.014 0-.023.004-.06.024-.05.025-.066.03-.093.03-.017 0-.017.001-.024.015l-.058.1a1.12 1.12 0 0 0-.133.277.793.793 0 0 0-.018.168c-.005.126-.013.172-.034.212a.132.132 0 0 1-.091.067c-.009 0-.012-.001-.021-.013-.024-.032-.027-.071-.011-.166.005-.034.012-.09.015-.127.01-.128.017-.155.062-.228.023-.037.03-.057.03-.082 0-.022 0-.023.064-.087a.289.289 0 0 0 .058-.069c.01-.02.015-.047.01-.047a1.165 1.165 0 0 0-.413.64 1.37 1.37 0 0 0-.014.094c-.01.09-.018.115-.04.136-.017.016-.05.016-.092-.002l-.017-.007.002-.044a.834.834 0 0 1 .014-.11.885.885 0 0 0 .022-.182v-.048l.028-.042.05-.078a.51.51 0 0 1 .106-.13.655.655 0 0 0 .06-.06.232.232 0 0 0 .036-.07c.002-.012-.002-.012-.028-.005-.023.008-.05.033-.08.078-.014.02-.055.071-.09.114a1.31 1.31 0 0 0-.192.274.675.675 0 0 0-.073.298l-.002.057-.015.007a.236.236 0 0 1-.08.016c-.02 0-.022 0-.026-.01a.32.32 0 0 1-.022-.094.674.674 0 0 1 .028-.232c.01-.033.015-.039.048-.075.031-.034.038-.047.038-.08 0-.02.001-.026.01-.042a.485.485 0 0 1 .11-.11c.073-.061.097-.092.107-.136a.187.187 0 0 0 .002-.06.784.784 0 0 0-.08.048.877.877 0 0 0-.36.55c-.013.053-.03.111-.036.13-.032.092-.069.132-.116.126-.024-.002-.053-.017-.057-.028a.258.258 0 0 1-.005-.048c-.003-.067.01-.115.066-.236.044-.097.051-.122.046-.169-.004-.038 0-.054.022-.085a.81.81 0 0 1 .15-.163.513.513 0 0 1 .047-.02c.058-.02.08-.04.08-.071 0-.008-.002-.011-.013-.017-.046-.023-.115-.022-.212.005l-.084.023a.923.923 0 0 1-.073.017c-.029.005-.033.007-.045.018a.357.357 0 0 0-.086.187c-.017.097-.016.187.005.436.005.052.01.112.01.134a.163.163 0 0 0 .007.048.06.06 0 0 0 .024.014c.022.008.028.012.028.019a.914.914 0 0 0-.107.211.713.713 0 0 1-.11.208.28.28 0 0 1-.137.087c-.025.006-.027.006-.064-.004ZM.643 4.484a.568.568 0 0 1 .094-.118c.066-.066.13-.114.276-.204.097-.059.158-.1.204-.135l.04-.03.016.002a.138.138 0 0 1 .072.036c.023.02.023.023.004.062a.153.153 0 0 1-.037.047.426.426 0 0 1-.132.08 1.07 1.07 0 0 0-.087.047.213.213 0 0 0-.058.056c0 .001-.009.003-.02.003-.03 0-.046.006-.08.034a.604.604 0 0 1-.288.138l-.015.003.011-.02Zm1.093-.59a.526.526 0 0 1-.148-.04l-.016-.007.007-.015a.266.266 0 0 0 .011-.05c.004-.022.008-.036.011-.038.011-.009.021-.005.04.015l.02.02.029.004a.67.67 0 0 0 .326-.043l.092-.027a.517.517 0 0 1 .097-.016c.003.004-.013.047-.025.065-.04.06-.128.104-.248.125a.979.979 0 0 1-.196.007Zm3.957-.764c-.019-.007-.03-.015-.05-.038a.195.195 0 0 0-.058-.053c-.007-.003-.013-.007-.013-.01 0-.011.013-.03.037-.056.038-.04.043-.054.032-.096-.007-.026-.005-.046.006-.063a.343.343 0 0 1 .043-.042c.043-.037.051-.051.048-.08a.602.602 0 0 0-.027-.114 2.622 2.622 0 0 1-.031-.123 16.088 16.088 0 0 0-.039-.164c-.074-.314-.096-.473-.09-.662 0-.045.002-.084.003-.089.002-.007.003-.008.03-.006a.33.33 0 0 1 .068.014c.061.018.08.016.116-.011.024-.018.037-.024.055-.026.042-.005.098.037.207.157a.912.912 0 0 0 .199.16c.046.032.097.068.112.08.015.012.085.079.155.148.07.07.155.151.188.181s.11.104.17.164l.109.108h.03c.049 0 .074-.01.141-.054a.567.567 0 0 1 .15-.07.399.399 0 0 0 .158-.08.354.354 0 0 1 .09-.058c.05-.024.2-.088.262-.111.056-.02.145-.036.16-.027.005.002.005.004-.003.02-.015.03-.034.042-.11.067a1.351 1.351 0 0 0-.185.08c-.034.018-.033.02.007.021.033 0 .051-.006.125-.043.035-.018.074-.036.085-.04a.151.151 0 0 1 .079-.007c.017.004.048.022.048.027 0 .01-.038.043-.076.066a.253.253 0 0 0-.078.067c-.005.008-.006.008-.029.004a.278.278 0 0 0-.1.005 1.104 1.104 0 0 0-.07.024.768.768 0 0 1-.199.045c-.042.006-.09.013-.104.017-.034.008-.083.027-.08.03.014.013.091.018.145.008.04-.007.148-.035.192-.05.074-.025.114-.03.14-.019.023.011.034.031.034.062v.016l-.022.006c-.145.043-.368.08-.616.104a.505.505 0 0 0-.074.01c-.005.005-.012.032-.012.049 0 .024-.005.03-.033.043a.407.407 0 0 1-.247.037c-.034-.006-.028 0-.092-.073a2.738 2.738 0 0 0-.203-.195 1.654 1.654 0 0 1-.268-.283 1.08 1.08 0 0 0-.147-.164c-.145-.137-.216-.214-.252-.277-.01-.015-.016-.023-.024-.026a.167.167 0 0 1-.034-.029c-.024-.026-.045-.04-.058-.04-.01 0-.022.026-.027.058-.01.055.01.16.06.342a.875.875 0 0 1 .04.215.9.9 0 0 0 .058.266.94.94 0 0 1 .057.27.07.07 0 0 1-.01.043.366.366 0 0 0-.036.12c-.013.07-.02.094-.036.115-.017.022-.035.03-.07.031l-.036-.001Zm1.135-.526c.013-.005-.002-.042-.031-.077a2.465 2.465 0 0 0-.207-.184c-.185-.156-.24-.209-.318-.314-.069-.091-.09-.112-.244-.233a1.031 1.031 0 0 1-.079-.07.201.201 0 0 1-.054-.073c-.016-.034-.03-.05-.04-.05a.015.015 0 0 1-.01-.003c-.005-.005-.013 0-.02.012l-.005.012.014.02c.044.058.099.117.245.268.139.144.159.163.238.226.088.07.15.131.251.245.074.084.196.206.215.216a.07.07 0 0 0 .045.005Zm-2.92-.563a.471.471 0 0 1-.031-.006.667.667 0 0 1-.068-.119 2.504 2.504 0 0 1-.095-.232L3.7 1.643l.013-.011c.033-.03.07-.035.107-.017a.472.472 0 0 1 .1.089c.058.06.083.082.096.089.017.008.021.013.04.042.026.04.034.061.037.093l.001.024H4.08a.085.085 0 0 1-.053-.018c-.023-.017-.035-.022-.05-.023-.016 0-.018.001-.032.022-.013.02-.013.028.005.057a.066.066 0 0 1 .012.034c0 .008 0 .016-.002.017-.005.005-.026.005-.052 0Z"/></svg>