<?xml version="1.0" encoding="UTF-8" standalone="no"?>
<svg
   xmlns:dc="http://purl.org/dc/elements/1.1/"
   xmlns:cc="http://creativecommons.org/ns#"
   xmlns:rdf="http://www.w3.org/1999/02/22-rdf-syntax-ns#"
   xmlns:svg="http://www.w3.org/2000/svg"
   xmlns="http://www.w3.org/2000/svg"
   xmlns:sodipodi="http://sodipodi.sourceforge.net/DTD/sodipodi-0.dtd"
   xmlns:inkscape="http://www.inkscape.org/namespaces/inkscape"
   width="405.179584161"
   height="246.804142926" viewBox="0 0 752.961 458.64575"
   version="1.1"
   id="svg4"
   sodipodi:docname="Arcteryx.svg"
   inkscape:version="0.92.4 (5da689c313, 2019-01-14)">
  <metadata
     id="metadata10">
    <rdf:RDF>
      <cc:Work
         rdf:about="">
        <dc:format>image/svg+xml</dc:format>
        <dc:type
           rdf:resource="http://purl.org/dc/dcmitype/StillImage" />
        <dc:title></dc:title>
      </cc:Work>
    </rdf:RDF>
  </metadata>
  <defs
     id="defs8" />
  <sodipodi:namedview
     pagecolor="#ffffff"
     bordercolor="#666666"
     borderopacity="1"
     objecttolerance="10"
     gridtolerance="10"
     guidetolerance="10"
     inkscape:pageopacity="0"
     inkscape:pageshadow="2"
     inkscape:window-width="1920"
     inkscape:window-height="1001"
     id="namedview6"
     showgrid="false"
     fit-margin-top="0"
     fit-margin-left="0"
     fit-margin-right="0"
     fit-margin-bottom="0"
     inkscape:zoom="0.1548018"
     inkscape:cx="1251.41"
     inkscape:cy="762.25977"
     inkscape:window-x="-9"
     inkscape:window-y="-9"
     inkscape:window-maximized="1"
     inkscape:current-layer="svg4" />
  <path
     d="m 177.56777,458.15691 c -4.0614,-1.20032 -7.22028,-3.14079 -10.66195,-6.55841 -3.05357,-3.02649 -5.12338,-5.82437 -10.27686,-13.89599 -3.42061,-5.35507 -5.02411,-7.68063 -9.42548,-13.65241 -3.68535,-5.00302 -6.57045,-9.06744 -7.96337,-11.2245 -1.22744,-1.89534 -3.33938,-5.53854 -3.25213,-5.61074 0.0301,-0.0239 0.98075,-0.14144 2.12096,-0.26178 13.27929,-1.41993 20.52364,-6.04693 23.74269,-15.17757 1.08003,-3.0596 1.37786,-5.15353 1.36583,-9.58799 -0.009,-3.58303 -0.0541,-4.18175 -0.48737,-6.22443 -1.49219,-7.02476 -4.91279,-12.72274 -9.51572,-15.84855 -4.7714,-3.24012 -13.46282,-5.23472 -20.38827,-4.67516 -2.47897,0.19859 -5.53254,0.80933 -7.03075,1.402 l -0.88148,0.34895 0.0301,3.94407 c 0.0421,4.84964 -0.22564,16.67285 -0.69796,30.86669 -0.96271,28.90217 -0.98076,41.07441 -0.0842,53.11724 0.31889,4.30504 0.48737,5.08428 1.67571,7.68955 0.48435,1.07104 0.9266,2.10595 0.98075,2.30447 0.0541,0.19859 0.14742,0.5325 0.21059,0.74311 l 0.10831,0.38509 -10.15051,0.13236 c -5.58068,0.0722 -10.31599,0.0813 -10.52056,0.0148 -0.36101,-0.11431 -0.33995,-0.19557 0.5325,-2.3075 a 29.151885,29.151885 0 0 0 2.10591,-8.24314 c 0.5656,-5.91161 0.69796,-17.31965 0.34297,-30.06945 -0.11131,-4.01029 -0.21059,-17.01583 -0.22865,-28.89915 -0.0301,-22.00985 -0.0451,-22.71381 -0.75211,-28.36068 -0.44525,-3.60109 -1.4982,-8.33038 -2.33756,-10.52054 -0.11132,-0.29181 -0.0782,-0.32189 0.21059,-0.20161 0.19254,0.0813 8.41162,0.2106 18.2643,0.28884 17.45503,0.13835 19.60607,0.21061 24.48879,0.81228 16.35394,2.01562 24.98217,8.72152 28.35465,22.02785 0.91155,3.5921 1.07401,5.0452 1.071,9.65112 -0.003,3.99525 -0.0391,4.49161 -0.48436,6.5885 -1.6727,7.88216 -5.53555,13.25523 -13.09578,18.21621 -2.3105,1.51624 -5.98983,3.46873 -8.76362,4.65105 l -1.83215,0.77917 3.64625,5.4092 c 8.53497,12.66558 16.2697,23.3095 23.23426,31.97084 2.72264,3.38746 7.69561,9.24796 8.0115,9.44648 0.1053,0.0633 0.19254,0.2317 0.19254,0.37306 0,0.21061 -0.24067,0.23768 -1.30867,0.14742 -1.08304,-0.0903 -1.3538,-0.0605 -1.55236,0.18052 -0.21059,0.25574 -0.73406,0.29482 -3.86887,0.28576 -3.3123,-0.009 -3.75154,-0.0478 -5.12941,-0.45426 z m 64.438,0.34297 c -21.91956,-3.60109 -36.76026,-12.23536 -45.04553,-26.20657 -4.78343,-8.06269 -7.17214,-17.82811 -7.17214,-29.31734 0,-16.63075 5.41521,-30.64708 15.68907,-40.60807 10.40021,-10.08133 24.94005,-15.52666 42.8313,-16.04412 8.08672,-0.23162 13.97727,0.48442 26.3781,3.20701 3.17091,0.69798 6.88334,1.48924 8.25519,1.75693 l 2.491,0.49341 0.0451,4.21788 c 0.0331,3.05355 0.13237,4.66609 0.35199,5.83934 0.16847,0.89052 0.58364,3.03858 0.92359,4.77147 a 86.270328,86.270328 0 0 1 0.82432,4.94285 c 0.22864,1.91938 0.13537,5.12639 -0.16848,5.86043 -0.10229,0.24977 -0.18953,0.35205 -0.19555,0.22868 -0.021,-0.38509 -1.39291,-3.13784 -2.34659,-4.70223 -4.97597,-8.17994 -13.83887,-14.18483 -24.31429,-16.48031 -4.44349,-0.97473 -5.81533,-1.10105 -11.79313,-1.09803 -6.02291,0 -7.74676,0.18347 -11.97363,1.25452 -5.38513,1.36579 -10.83042,3.99222 -15.07836,7.27445 -6.72088,5.19556 -11.7871,12.57532 -14.597,21.2697 -3.65526,11.3118 -3.23107,24.47375 1.13419,35.13574 6.43808,15.71913 19.66323,26.25472 35.83065,28.54113 3.19497,0.4513 11.0049,0.4513 14.40746,0 6.79008,-0.90254 12.50613,-2.55719 17.82507,-5.16253 3.36345,-1.6486 5.46936,-3.06859 7.09995,-4.79544 l 2.47896,-2.61736 c 1.3538,-1.41999 2.32854,-1.94947 3.60412,-1.94947 1.068,0 1.13118,0.0933 1.13118,1.61254 0,2.90916 -1.00181,6.21241 -4.03734,13.31836 -1.1372,2.65947 -2.11795,5.04218 -2.18113,5.2949 -0.13538,0.53552 0.20156,0.44828 -4.85564,1.27862 a 456.84523,456.84523 0 0 1 -15.74923,2.26532 c -4.21183,0.53854 -4.25997,0.54156 -12.78592,0.5145 -4.70522,-0.012 -8.76061,-0.0569 -9.0073,-0.0963 z m 332.16603,-0.24667 c -3.73951,-0.9206 -6.93749,-2.79788 -9.94293,-5.84841 -1.80808,-1.83517 -3.35744,-3.85683 -7.26541,-9.49471 a 1540.9464,1540.9464 0 0 0 -6.74796,-9.63305 c -8.49586,-12.01576 -14.04946,-20.11148 -16.76308,-24.44064 l -1.01686,-1.62154 2.03071,-0.21363 c 12.06388,-1.27258 19.12171,-5.15346 22.87024,-12.56928 2.04574,-4.04635 2.83697,-7.13906 2.97235,-11.62765 0.15042,-5.00309 -0.50242,-8.14388 -2.54816,-12.3226 -1.46812,-2.99647 -2.97837,-5.12647 -5.2347,-7.38278 -2.69558,-2.69258 -5.36106,-4.49759 -8.79972,-5.95674 -6.22749,-2.64745 -13.51998,-2.93321 -20.59586,-0.81228 l -1.30566,0.39113 v 0.84834 c -0.006,1.71482 -0.37004,15.02721 -0.71902,26.14647 -0.80326,25.81551 -0.98677,37.74101 -0.73406,48.25551 0.2136,8.93515 0.45728,13.58317 0.83634,15.99899 0.14441,0.92356 0.74008,3.15281 1.32372,4.94889 0.58665,1.79904 1.02288,3.30929 0.97474,3.3604 -0.0512,0.0513 -4.19678,0.0993 -9.21488,0.10833 -5.60174,0.012 -9.60899,0.0933 -10.37916,0.21363 -0.69194,0.10826 -1.2846,0.17145 -1.31469,0.14137 -0.0301,-0.0302 0.4272,-1.22443 1.02288,-2.65343 1.91638,-4.60893 2.07282,-5.57467 2.36765,-14.53083 0.13538,-4.18175 0.12635,-8.37249 -0.0391,-15.77931 -0.12635,-5.67696 -0.22864,-20.89973 -0.23465,-34.84085 -0.009,-22.31368 -0.0421,-25.0755 -0.33093,-27.96962 -0.52648,-5.32491 -1.28762,-9.20888 -2.30749,-11.78406 -0.2858,-0.72202 -0.51745,-1.32973 -0.51745,-1.35384 0,-0.0239 0.83034,0.0302 1.84418,0.12034 1.01384,0.0842 9.74738,0.16851 19.4045,0.18053 12.92431,0.0211 18.12291,0.0903 19.71438,0.25869 5.06623,0.54157 8.8629,1.28467 12.15414,2.37371 2.27439,0.75211 6.07707,2.61132 7.70164,3.7696 6.31774,4.48556 10.47843,12.31958 11.57351,21.78117 0.2858,2.46693 0.13537,8.55906 -0.26475,10.73411 a 26.098308,26.098308 0 0 1 -4.22687,9.9941 c -3.3785,4.72324 -7.92426,8.27323 -15.14454,11.83826 -2.12698,1.05297 -3.89896,1.9314 -3.93505,1.95847 -0.2106,0.15043 7.66252,12.05786 11.94354,18.07175 7.74676,10.8816 17.62952,23.52012 21.85941,27.95458 l 1.33274,1.39588 -1.33876,-0.1143 c -1.10109,-0.0903 -1.38991,-0.0605 -1.63058,0.18052 -0.46029,0.46326 -7.42185,0.40315 -9.37433,-0.0752 z m -157.68493,-1.56438 c 0,-0.0993 0.19254,-0.61672 0.4272,-1.14921 0.67089,-1.51631 1.48317,-4.21184 1.89533,-6.2787 1.31168,-6.61556 1.51927,-14.21493 0.90253,-32.95155 -0.25271,-7.65652 -0.1083,-24.35341 0.27076,-31.69099 0.65284,-12.48506 0.56559,-21.51644 -0.25872,-27.19038 -0.48436,-3.35442 -0.92661,-4.80752 -2.16609,-7.13603 -1.25753,-2.35565 -1.30567,-2.59627 -0.48436,-2.48499 1.89834,0.25574 18.77273,0.43619 40.69531,0.43619 h 25.16268 v 7.5633 c 0,4.16065 -0.0301,7.56323 -0.0662,7.56323 -0.0331,0 -0.66186,-0.27676 -1.39291,-0.61376 -2.69858,-1.24545 -5.75818,-2.02469 -10.09937,-2.57223 -2.63841,-0.33089 -9.87975,-0.39106 -27.73791,-0.22861 l -9.32018,0.0842 v 17.05794 c 0,9.38638 0.0211,17.06693 0.0451,17.06996 0.024,0.007 3.08366,0.12632 6.7991,0.26776 22.22042,0.84531 31.0472,0.43014 38.69469,-1.82315 0.39109,-0.11733 0.42118,-0.0872 0.31287,0.30382 -0.35198,1.26359 -0.48435,4.42244 -0.30084,7.13006 0.10831,1.56439 0.24669,3.95307 0.30686,5.3039 l 0.11132,2.4549 -0.56258,0.12337 c -0.66186,0.14741 -0.86945,0.0902 -3.00243,-0.8063 a 13.402647,13.402647 0 0 0 -3.33036,-0.92356 c -2.48498,-0.355 -13.79675,-0.30692 -20.84856,0.0902 -5.85745,0.32491 -14.1698,0.42424 -16.73902,0.19859 l -1.48618,-0.12935 v 37.44316 l 4.36527,0.11431 c 2.40074,0.0633 7.03977,0.20758 10.30995,0.32189 7.25037,0.24976 18.33952,0.10832 22.23847,-0.28576 6.47118,-0.65285 10.61682,-1.61556 13.75764,-3.19499 l 1.06199,-0.5325 -0.11432,2.15706 c -0.20759,3.83877 -1.38991,13.61023 -1.68173,13.89901 -0.0512,0.0513 -9.86772,0.0661 -21.81728,0.033 -19.7956,-0.0541 -40.06655,0.15043 -44.28138,0.44224 -1.08304,0.0752 -1.66669,0.0541 -1.66669,-0.0661 z m 195.00776,0.0604 c 0,-0.0661 0.19555,-0.49939 0.43021,-0.96876 1.33275,-2.63535 2.34058,-7.73173 2.81892,-14.26307 0.18051,-2.42475 0.61673,-26.82329 0.59567,-33.13201 -0.006,-1.53436 -0.10229,-3.26718 -0.21059,-3.84783 -0.3911,-2.00065 -2.01566,-4.80451 -5.74012,-9.89779 -0.95669,-1.30267 -4.30209,-6.09818 -7.43388,-10.64996 -12.34668,-17.94839 -18.56214,-26.36003 -24.98218,-33.80896 l -1.66668,-1.93141 1.66368,0.13237 c 2.22926,0.18052 14.60301,0.1685 19.26611,-0.0148 l 3.7365,-0.14439 -0.19856,0.50543 c -0.1083,0.27979 -0.24067,1.36278 -0.29483,2.41273 l -0.0933,1.90441 1.66668,3.04751 c 3.07163,5.60476 6.57948,11.23054 11.46521,18.39371 3.54395,5.18952 10.83343,15.43331 11.03499,15.49953 0.0902,0.0302 0.26475,-0.13237 0.38509,-0.36104 0.12033,-0.22861 2.69557,-4.05535 5.71605,-8.50486 8.75459,-12.87619 11.83524,-17.87022 15.44237,-25.0213 l 2.07584,-4.12157 -0.0812,-1.55236 a 18.471886,18.471886 0 0 0 -0.20458,-2.09091 l -0.12334,-0.5415 1.49821,0.14137 c 0.82431,0.0752 8.96518,0.18355 18.0868,0.2407 l 16.58859,0.1053 0.0963,2.36767 c 0.11432,2.86403 0.47233,4.24192 1.84718,7.11199 1.20339,2.51804 2.58426,4.63298 6.10716,9.39236 3.28222,4.42244 3.62819,4.93687 7.84303,11.61261 1.81108,2.8731 4.09751,6.41704 5.0783,7.87914 l 1.78701,2.65342 0.40913,-0.49334 c 1.46815,-1.76902 4.35622,-5.88454 8.17699,-11.65774 a 451.86324,451.86324 0 0 1 6.3388,-9.36536 c 5.88153,-8.23407 7.831,-12.48808 8.21608,-17.9183 l 0.11733,-1.62153 11.18239,0.0478 c 11.06809,0.045 11.17937,0.0478 11.11926,0.40617 -0.0903,0.52343 -0.61376,1.04089 -2.70762,2.66249 -3.26121,2.53308 -6.12524,6.36889 -14.33225,19.21493 -3.9712,6.21248 -5.337,8.24919 -10.30396,15.35816 -4.17872,5.97481 -6.72389,9.80155 -8.58914,12.90023 l -1.54632,2.57223 1.68171,2.45491 c 0.92658,1.35377 4.66306,6.99467 8.30634,12.54221 13.50795,20.55675 20.27992,29.90404 27.40998,37.81321 l 1.78701,1.97955 h -12.3858 -12.38278 l 0.12935,-0.45123 c 0.0696,-0.24977 0.1053,-1.38393 0.0782,-2.5271 l -0.045,-2.06982 -1.82308,-3.33038 c -4.48564,-8.21003 -8.82681,-14.92795 -17.59943,-27.23248 l -4.07349,-5.71605 -0.4061,0.49335 c -0.96876,1.17929 -3.46576,4.88576 -7.33162,10.88461 -2.28041,3.5379 -5.43025,8.18901 -7.00066,10.33103 -3.61616,4.93385 -4.76539,6.69977 -5.96877,9.16972 -1.4591,2.9874 -1.91337,4.71424 -2.02469,7.68358 l -0.0902,2.46095 -1.4621,0.10228 c -0.80627,0.0605 -6.21546,0.1233 -12.02177,0.15037 l -10.55966,0.045 1.82612,-1.8893 c 6.19741,-6.41704 12.03381,-14.08853 20.95988,-27.55135 8.91705,-13.43878 14.78653,-22.21744 15.60784,-23.33959 l 0.81228,-1.10408 -2.57222,-4.11855 c -9.49768,-15.20772 -16.79919,-26.09536 -23.53511,-35.09061 -3.33036,-4.45253 -7.1541,-9.272 -7.34965,-9.272 -0.14139,0 -2.11795,2.55416 -5.08428,6.57345 -4.69318,6.35687 -10.12645,14.46462 -19.7956,29.52795 a 1520.4077,1520.4077 0 0 1 -7.38876,11.45016 l -1.03791,1.54631 -0.10831,7.45793 c -0.0571,4.10055 -0.1805,8.87497 -0.27677,10.60786 -0.32191,5.91758 -0.4272,15.74922 -0.20157,19.17584 0.4272,6.53732 1.38389,11.27265 3.05659,15.09637 0.21059,0.48139 0.33093,0.95372 0.26775,1.05298 -0.0752,0.12337 -2.5271,0.14136 -7.34062,0.0569 -6.63664,-0.12035 -12.55426,0.0485 -13.92913,0.39113 -0.22563,0.0541 -0.40614,0.045 -0.40614,-0.0183 z M 0,456.04498 c 0,-0.32491 0.30686195,-0.67387 1.2846084,-1.45304 0.7761802,-0.61376 1.0920675,-1.17936 4.2599658,-7.54523 7.9814198,-16.04102 11.5374078,-24.00741 29.3775188,-65.82486 8.507898,-19.94601 14.864753,-34.21513 15.767289,-35.39746 0.415166,-0.54451 0.60169,-0.64377 1.197363,-0.64377 h 0.703977 l 1.269567,2.65644 c 5.806309,12.13309 9.398399,20.28597 19.007387,43.17123 11.672789,27.78009 15.225771,35.76447 21.69394,48.70682 3.188958,6.37795 5.324954,10.40027 8.243154,15.52968 l 0.58665,1.03484 H 82.861749 l -0.009,-2.20514 c -0.02102,-4.81357 -1.013848,-8.17095 -5.069235,-17.15122 -1.164269,-2.57518 -2.331547,-5.19557 -2.596292,-5.82437 -0.261736,-0.62874 -3.474763,-7.9874 -7.136047,-16.35694 -7.340617,-16.77809 -11.299737,-26.01705 -14.398441,-33.61037 l -2.045747,-5.01209 -0.502411,1.0018 c -1.913375,3.78161 -8.092732,18.07478 -15.532629,35.92088 -7.355662,17.64457 -8.309341,19.84078 -10.87254,25.00028 -1.284609,2.59023 -2.659471,5.54452 -3.05057,6.56741 -1.347785,3.49284 -1.916382,6.5705 -1.814095,9.77751 l 0.06017,1.89225 H 9.9519543 c -8.0776897,0 -9.94894585,-0.045 -9.94894585,-0.23465 z m 356.10426,-1.38386 c 0.42119,-0.84237 0.96873,-2.34356 1.22144,-3.33334 0.82732,-3.26423 1.00482,-5.39717 1.1763,-14.22399 0.0903,-4.55776 0.26174,-10.87554 0.37906,-14.04642 0.23466,-6.23955 0.15042,-21.34801 -0.21058,-38.17425 -0.11132,-5.29187 -0.15043,-12.77686 -0.0842,-16.80824 l 0.11732,-7.26237 -11.93752,0.0872 c -6.70284,0.0478 -12.84609,0.17448 -14.00735,0.28878 -6.3027,0.61074 -9.83763,1.40495 -13.48689,3.02656 -0.21058,0.0903 -0.23165,-0.26179 -0.12936,-2.21428 0.33394,-6.38393 0.69496,-9.8045 1.31169,-12.45497 l 0.30686,-1.30563 h 88.16264 v 7.85202 c 0,6.2155 -0.0451,7.83401 -0.22263,7.75577 -2.22625,-0.95969 -2.98739,-1.24847 -4.28704,-1.62456 -1.67571,-0.48434 -4.97597,-1.07097 -7.82197,-1.38991 -1.65465,-0.18649 -22.75291,-0.54149 -22.9605,-0.38804 -0.25571,0.19255 -0.361,6.7028 -0.5716,34.52198 -0.24669,33.24336 -0.24067,38.98049 0.0451,43.57438 0.4302,6.91039 1.50423,12.73778 3.03853,16.45318 l 0.49339,1.19441 h -21.29682 z m -59.61545,-83.68608 c -0.0602,-0.66789 -0.15343,-8.1649 -0.21059,-16.65781 l -0.10529,-15.43935 h 20.23182 l -0.94766,1.75692 c -1.52829,2.84 -3.71243,6.51033 -8.53498,14.35939 -5.00906,8.14683 -6.97057,11.45613 -8.83581,14.90081 -0.68292,1.26358 -1.29665,2.29547 -1.36584,2.29547 -0.0692,0 -0.17449,-0.54754 -0.23165,-1.21543 z m 156.37324,-85.44301 -0.81228,-0.2196 0.015,-3.06262 c 0.0181,-4.44951 0.40013,-6.24854 3.48981,-16.38401 2.03371,-6.67271 2.43685,-9.21485 2.26837,-14.23601 -0.17148,-5.1053 0.13538,-6.78104 2.48498,-13.5651 1.7449,-5.03311 2.55117,-8.63125 2.42481,-10.81839 l -0.0602,-0.98374 -1.61855,-0.85741 c -2.25634,-1.19132 -5.34903,-2.13899 -10.77025,-3.30627 -5.337,-1.14626 -6.84423,-1.60354 -10.26484,-3.11977 -3.65225,-1.61858 -5.20462,-2.11495 -9.10657,-2.90614 -6.03195,-1.22745 -8.05362,-1.89534 -20.0062,-6.61865 -11.20949,-4.42842 -14.81361,-6.20939 -24.54895,-12.14806 -3.39053,-2.06982 -3.559,-2.19621 -3.4507,-2.64147 0.18653,-0.75211 0.80927,-1.28158 2.36164,-2.00058 1.67871,-0.77621 2.18112,-1.29964 1.80506,-1.87727 -0.46029,-0.71 -2.01566,-1.35385 -4.77441,-1.98561 -2.76777,-0.63175 -3.80569,-1.01382 -3.80569,-1.40797 0,-0.33089 0.84237,-1.5433 1.69075,-2.43684 1.44406,-1.52825 3.68836,-2.80688 7.94231,-4.52767 2.87608,-1.16433 4.60293,-2.02174 8.98925,-4.46455 5.67996,-3.16491 7.70164,-3.96819 16.71796,-6.62463 a 200.87424,200.87424 0 0 0 7.68359,-2.4128 c 4.43445,-1.57338 5.08728,-1.73282 11.80816,-2.8821 9.35026,-1.60044 10.51453,-2.12992 16.66982,-7.57827 1.46512,-1.2936 3.82074,-3.29425 5.24073,-4.44044 7.59332,-6.14928 13.31239,-11.50737 15.72517,-14.7264 2.52709,-3.36947 3.69136,-4.22386 5.75817,-4.22386 1.86524,0 3.34841,0.91154 4.68115,2.8731 1.75393,2.58728 2.14502,5.82733 0.97775,8.1228 -0.39411,0.78219 -2.05778,2.31951 -2.50303,2.31951 -0.1775,0 -0.64381,-0.1143 -1.04093,-0.25272 a 14.371368,14.371368 0 0 0 -2.04875,-0.45728 c -3.1649,-0.48132 -6.00788,0.58065 -8.61922,3.21903 -0.9296,0.93868 -1.84117,2.07587 -2.3165,2.90319 -0.74008,1.27554 -0.87245,1.40193 -2.0999,2.03369 -3.57704,1.84121 -6.19741,3.97113 -12.59939,10.22874 -5.92966,5.79731 -6.93147,6.63665 -7.91222,6.63665 -0.40314,0 -1.82614,0.12632 -3.16189,0.27978 -9.01632,1.04391 -17.31363,3.33038 -31.51953,8.6884 -7.37672,2.78284 -12.05185,4.43749 -15.12348,5.35507 -1.23347,0.37005 -2.28041,0.70396 -2.32854,0.74304 -0.13538,0.12035 0.91757,0.92363 2.06379,1.57345 2.21723,1.2515 5.08429,1.98554 9.95798,2.55114 l 2.46692,0.28583 1.08304,1.02886 c 1.85321,1.766 2.24732,2.00065 3.34541,2.00065 2.09087,0 4.46754,0.52948 8.84183,1.95552 4.94288,1.61851 5.20763,1.67264 8.27624,1.70877 2.09088,0.0274 2.29245,0.0605 3.42062,0.5957 0.66186,0.31282 2.07583,1.13114 3.15285,1.82005 4.10052,2.63543 5.13844,2.97841 11.06207,3.63723 6.3358,0.70697 7.78587,1.11315 12.45499,3.50485 3.95912,2.02772 5.37911,2.55719 7.56325,2.81595 2.8159,0.33694 4.29907,0.67387 6.31473,1.43497 2.2804,0.85741 3.67031,1.14928 4.84361,1.01087 0.79423,-0.0903 0.86342,-0.0689 0.9627,0.33995 0.0602,0.2407 0.024,0.95365 -0.0872,1.58246 -0.33093,1.91038 -0.29783,2.05175 0.97775,3.8117 0.64381,0.89354 1.77498,2.83697 2.50905,4.32311 2.10893,4.26603 3.18896,7.61743 5.59873,17.37687 0.94164,3.81171 1.95549,7.80091 2.25633,8.86591 0.30085,1.06492 0.49038,2.02468 0.42119,2.13596 -0.19556,0.31887 -2.2413,1.21846 -3.04757,1.34176 -1.66969,0.24969 -3.08667,-0.67991 -4.19077,-2.74973 -0.30385,-0.57158 -0.97774,-2.34053 -1.49219,-3.92298 -1.13117,-3.4778 -1.66367,-4.79551 -2.34057,-5.77622 -0.48135,-0.70402 -0.52949,-0.94465 -0.88148,-4.68416 -1.07101,-11.33282 -2.23227,-14.85575 -5.4453,-16.47728 -1.43202,-0.72202 -2.75874,-0.9928 -6.47418,-1.32678 -4.55479,-0.40913 -6.36287,-0.96265 -7.94833,-2.4218 -0.57461,-0.52947 -0.95367,-0.73404 -1.3538,-0.73404 -2.05477,0 -7.25337,-1.4531 -13.95319,-3.89894 -6.81715,-2.49104 -8.40561,-3.01144 -12.82201,-4.2209 -4.97899,-1.36277 -6.64868,-1.91938 -11.44716,-3.82675 -4.48259,-1.78096 -14.9159,-6.16727 -17.56935,-7.38875 -2.79485,-1.2846 -3.76057,-1.57641 -5.57466,-1.68473 -2.07282,-0.12028 -2.28341,-0.0211 -1.95549,0.9206 0.3219,0.93868 1.3899,2.00965 2.63841,2.64443 0.56258,0.28582 2.22324,0.91758 3.69137,1.40495 1.46812,0.48737 5.01809,1.73591 7.89116,2.77377 17.72579,6.40804 38.99554,13.10782 49.51909,15.60483 10.18662,2.41582 13.75164,3.4688 14.7715,4.36529 1.59748,1.40193 2.01566,3.06262 2.25032,8.96516 0.29182,7.31959 0.89351,10.41532 4.60293,23.65551 3.32434,11.86532 4.42242,17.12106 5.00004,23.93219 l 0.0872,1.0349 -1.66367,1.15828 c -2.47295,1.72685 -4.52471,2.41878 -5.42124,1.83215 -0.56257,-0.37004 -1.20939,-1.48319 -1.9976,-3.43569 a 17.412911,17.412911 0 0 0 -1.27859,-2.53912 l -0.64983,-0.98078 0.22263,-1.2124 c 0.43622,-2.34658 0.44524,-3.55899 0.0361,-4.68416 -1.45909,-4.0072 -1.91638,-8.2913 -2.0999,-19.57899 -0.0602,-3.76053 -0.18652,-7.89419 -0.28279,-9.18175 -0.16546,-2.25934 -0.64983,-5.66796 -0.83033,-5.85445 -0.16547,-0.17153 -0.96271,0.9928 -1.14923,1.68775 -0.14741,0.5325 -0.12034,1.11308 0.1083,2.48197 0.26174,1.56438 0.27377,2.18714 0.0903,4.97596 -0.52949,8.19801 -1.61253,15.319 -4.5217,29.76563 -1.76897,8.78464 -1.68473,8.04455 -1.37788,11.94651 0.0421,0.51444 0,0.54157 -1.57642,1.05903 -1.40194,0.45728 -1.9555,0.54149 -4.05239,0.5926 -1.55837,0.0422 -2.72264,-0.0148 -3.2401,-0.15944 z m -276.7233,-63.28876 c -1.18833,-1.68473 -1.83515,-4.00122 -1.83515,-6.54639 v -1.76297 l 1.48317,-0.70093 c 4.30509,-2.02469 8.0446,-5.08126 13.62828,-11.13128 7.82498,-8.47182 12.59939,-12.85511 14.00433,-12.85511 0.2467,0 0.87246,0.12633 1.39894,0.27676 0.93261,0.27078 0.95668,0.29785 1.26355,1.27561 0.42418,1.3478 0.30084,2.70157 -0.32492,3.65227 -0.26474,0.40013 -1.23346,1.34175 -2.14803,2.09386 -2.23227,1.82912 -3.83577,3.77564 -6.75097,8.18901 -4.0945,6.19744 -4.56381,6.87735 -5.81834,8.46275 -1.37486,1.73289 -3.15887,3.49586 -4.22386,4.18174 a 4.3231433,4.3231433 0 0 1 -1.79905,0.58368 c -1.59448,0.18052 -2.67452,0.76413 -4.6631,2.52408 -1.68474,1.48916 -2.87909,2.24127 -3.56501,2.25034 -0.16547,0 -0.45729,-0.21961 -0.64984,-0.49342 z m -1.72684,-12.78593 c 0.50542,-4.1757 1.17931,-6.86223 1.92541,-7.67753 0.2166,-0.2407 0.81227,-0.56863 1.32371,-0.72807 1.3508,-0.43324 2.84299,-1.40797 5.10233,-3.33937 3.08367,-2.63838 4.35324,-3.32736 6.52835,-3.54999 1.16126,-0.11431 1.2485,-0.27374 0.77316,-1.41093 -0.36101,-0.86648 -1.01384,-1.09508 -2.03371,-0.70402 -0.82131,0.31289 -1.22745,0.61074 -5.10533,3.73951 -3.00846,2.42481 -4.49764,3.20405 -6.35687,3.32433 l -1.33876,0.0843 -0.19253,-0.69798 c -0.1053,-0.38206 -0.19555,-1.5343 -0.19555,-2.56323 v -1.86519 l 0.58364,0.12028 c 0.3219,0.0633 0.78821,0.13244 1.0349,0.15346 l 0.45127,0.0358 0.0512,-1.84424 c 0.0512,-1.83509 0.0541,-1.84416 0.57462,-2.11487 0.71601,-0.37005 2.62637,-0.62276 4.72025,-0.62881 h 1.74491 l 1.4952,-1.08299 c 3.09268,-2.2353 7.38574,-3.94112 14.73238,-5.85144 2.12998,-0.55358 4.0253,-1.05297 4.21183,-1.1071 0.29483,-0.0903 0.3219,-0.033 0.21059,0.4151 -0.23767,0.96272 -1.69376,3.83582 -2.65345,5.23472 -1.28762,1.86526 -3.98319,4.64205 -7.2624,7.476 -1.48317,1.28165 -4.68416,4.34117 -7.11198,6.79313 -5.75818,5.8243 -7.77083,7.29547 -11.34186,8.2792 -1.97053,0.54157 -1.9946,0.53854 -1.87125,-0.48434 z m 143.22029,-4.45548 c -2.39473,-0.33096 -4.74433,-0.90254 -7.47299,-1.83517 -3.67933,-1.25149 -8.91103,-3.96811 -8.91103,-4.62096 0,-0.49643 1.21241,-2.01266 1.9946,-2.49701 1.84418,-1.14324 3.59209,-1.05902 8.56807,0.41813 3.88692,1.15223 5.98682,1.60951 7.89116,1.72086 3.12278,0.18052 4.73531,-0.31591 8.04761,-2.48801 2.37066,-1.55532 3.47476,-2.1179 5.08127,-2.58425 0.90254,-0.26172 1.00784,-0.34298 1.00784,-0.77917 0,-0.79126 0.69795,-3.08364 1.3568,-4.46455 0.33996,-0.70395 1.30266,-2.30145 2.136,-3.54697 1.94948,-2.89714 2.81892,-4.40739 3.42663,-5.93867 0.51144,-1.29965 1.00181,-3.5199 1.00181,-4.54876 0,-0.58066 0.0361,-0.61679 0.61674,-0.61679 0.86342,0 1.15825,0.15044 1.4621,0.73411 0.37606,0.73102 0.32492,1.62456 -0.17749,3.12877 -0.3881,1.15224 -0.42119,1.44404 -0.27077,2.46095 0.59267,4.12157 -0.30385,9.0524 -2.41578,13.25819 -1.35681,2.70459 -4.5187,7.14208 -6.5133,9.15172 -1.23045,1.23645 -5.07525,2.63241 -8.6162,3.12582 -1.84117,0.25567 -6.07106,0.21659 -8.21307,-0.0782 z m 2.61134,-10.83041 c -0.89051,-0.2407 -3.8087,-0.71302 -6.48322,-1.05298 -6.86227,-0.87245 -7.99345,-1.20341 -10.91165,-3.1649 -2.46392,-1.65465 -3.06861,-1.85021 -7.98142,-2.60829 -3.4537,-0.52955 -5.09029,-0.95674 -6.91943,-1.80508 -1.81711,-0.8364 -4.82556,-2.86706 -7.58731,-5.11438 -3.9862,-3.24609 -6.37792,-4.96091 -8.9351,-6.39897 a 201.65342,201.65342 0 0 1 -5.56262,-3.29123 c -4.55781,-2.80688 -7.50007,-4.43748 -9.62103,-5.33398 -1.88931,-0.79428 -4.5187,-1.63363 -5.75517,-1.83517 -0.57762,-0.0903 -0.72503,-0.24069 -1.36584,-1.36586 -0.91156,-1.60347 -2.26536,-3.01749 -3.51988,-3.67631 -0.8905,-0.46628 -1.15525,-0.51141 -2.78582,-0.51444 -2.34659,0 -3.42963,0.35198 -8.09875,2.66249 -1.98257,0.98072 -3.97115,1.92536 -4.4134,2.10589 -0.44826,0.17447 -2.06681,0.89052 -3.60111,1.58547 -1.53431,0.69193 -3.31833,1.39891 -3.96213,1.56438 -1.26355,0.33096 -3.31833,0.30383 -4.16971,-0.0485 l -0.48136,-0.19852 1.32673,-3.99222 c 1.56439,-4.71122 2.43685,-6.5705 3.79064,-8.06867 1.69075,-1.86525 4.5217,-2.96034 8.23112,-3.18894 5.70102,-0.34903 14.49472,2.00662 22.30165,5.97775 3.00244,1.5253 4.5217,2.54215 6.81414,4.56684 3.69738,3.26718 4.79246,3.92305 7.70163,4.60591 3.82374,0.90254 5.24072,1.82919 13.83887,9.05549 2.94828,2.47895 5.77623,4.48557 7.69863,5.46635 0.95368,0.48737 1.37185,0.58058 3.1348,0.70093 2.54515,0.1775 4.13963,0.61074 7.32859,2.00065 3.23709,1.41092 4.26297,1.71482 6.57347,1.94342 3.60412,0.36105 4.57284,0.56259 6.66371,1.38394 1.53431,0.60469 2.40676,0.84236 3.36345,0.90851 2.05177,0.14439 2.50303,-0.21061 5.38212,-4.21183 0.29482,-0.41215 1.62456,-1.91032 2.95129,-3.33031 1.32672,-1.42302 2.92722,-3.27323 3.54997,-4.1156 2.73167,-3.67329 4.19979,-7.77384 4.19979,-11.73295 0,-2.1721 -0.23165,-3.55597 -1.29363,-7.80393 -1.13719,-4.55776 -1.40795,-6.10113 -1.40795,-8.02051 0,-1.75095 0.33093,-3.24012 1.04092,-4.67516 0.47233,-0.95667 0.48737,-1.09206 0.49639,-4.05233 0.015,-4.64507 0.65284,-7.16619 3.56502,-14.06456 a 148.41589,148.41589 0 0 0 1.98859,-4.90974 l 0.48135,-1.32678 -1.00182,0.0813 c -1.32973,0.11128 -2.19617,0.73404 -3.66429,2.63838 -1.3177,1.70582 -2.09388,2.29245 -3.36345,2.53315 -0.69796,0.13237 -0.98075,0.11128 -1.29363,-0.0903 -0.66186,-0.4272 -0.69495,-1.06198 -0.14742,-2.7136 0.66788,-2.00669 0.45729,-3.0416 -0.38507,-1.90434 -0.53551,0.72497 -3.11977,2.86698 -5.09933,4.22681 -0.94164,0.64384 -3.77861,2.37068 -6.3027,3.83279 -6.28465,3.64025 -7.46698,4.46152 -10.08433,7.00971 -2.14503,2.09084 -2.32553,2.22019 -3.89895,2.84597 -2.20218,0.8785 -4.43145,1.41697 -9.06447,2.19621 -5.79427,0.97473 -6.70884,1.23947 -11.61261,3.33938 -5.83038,2.50299 -7.55723,2.9422 -11.52538,2.93622 -3.22806,-0.007 -8.75157,-0.51745 -8.95013,-0.83034 a 1.3056675,1.3056675 0 0 1 -0.1414,-0.57763 c -0.003,-0.53552 -0.93864,-2.41575 -1.94647,-3.90499 -2.14202,-3.17692 -3.06862,-5.89951 -4.55179,-13.36953 -1.45609,-7.34363 -1.71482,-8.25214 -3.21603,-11.20348 -1.45609,-2.86706 -1.77197,-4.12157 -2.25634,-8.97416 -0.48135,-4.8587 -1.00482,-7.06089 -2.06981,-8.72453 -0.29182,-0.45124 -1.3869,-1.62456 -2.43685,-2.59628 -2.05476,-1.9134 -2.45188,-2.50305 -2.79184,-4.1667 -0.31889,-1.54937 -0.58966,-1.99764 -2.136,-3.51089 -1.3538,-1.32371 -1.426,-1.44405 -4.07946,-6.64867 -4.19378,-8.24014 -5.98681,-11.07712 -8.74556,-13.83286 l -1.30567,-1.30265 -0.55054,0.3219 c -0.92661,0.54152 -1.66668,1.69376 -1.98559,3.08366 -0.15643,0.69194 -0.36702,2.70159 -0.4663,4.46454 -0.19856,3.49281 -0.55055,5.67995 -1.08304,6.72389 -0.32191,0.62876 -0.32792,0.76415 -0.0903,1.99761 0.63779,3.35442 0.52047,7.42484 -0.36703,12.57535 -0.24669,1.43799 -1.1733,5.61074 -2.05477,9.27503 -1.95549,8.11379 -2.30147,9.98502 -2.53312,13.68242 -0.33093,5.31592 -0.78821,7.19924 -2.04274,8.45376 -0.86342,0.86043 -1.76596,1.18232 -3.33938,1.18232 h -1.11312 l -0.38508,-0.85741 c -0.52949,-1.16124 -0.63177,-4.07644 -0.24068,-6.88937 0.8905,-6.44108 1.39592,-11.5073 1.48617,-14.85273 l 0.0933,-3.60109 0.87245,-2.70158 c 1.48918,-4.618 2.46091,-9.07651 2.86405,-13.12888 0.24067,-2.42782 0.25271,-5.32497 0.024,-5.32497 -0.0933,0 -0.65283,0.44526 -1.24249,0.99279 -1.96151,1.81109 -2.94527,4.28103 -4.5217,11.3238 -1.05296,4.70223 -2.29244,9.33225 -3.0987,11.5615 -0.90254,2.49399 -2.91218,6.37789 -3.82675,7.39473 -0.97775,1.08609 -2.01566,1.57044 -3.00846,1.40193 -0.6077,-0.10228 -0.71601,-0.20456 -1.00482,-0.95364 -0.43923,-1.13719 -0.39711,-2.89412 0.0963,-4.17275 0.2106,-0.54452 0.95669,-1.96451 1.65465,-3.15281 2.82795,-4.81357 2.96031,-5.30692 2.82193,-10.61988 -0.18653,-6.95851 0.12033,-7.89715 4.35623,-13.23715 1.99761,-2.52108 2.89112,-4.21183 3.02951,-5.71305 0.0692,-0.76414 0.0301,-1.12215 -0.12936,-1.22143 -0.12635,-0.0752 -0.78821,-0.1805 -1.47113,-0.22864 -1.14923,-0.0812 -1.33575,-0.0421 -2.53914,0.55355 -0.90855,0.45127 -1.86223,1.16428 -3.15285,2.35863 -2.37668,2.20218 -3.18896,2.85802 -4.15166,3.33938 -1.25754,0.63478 -3.34239,1.08304 -6.42003,1.37486 -5.66191,0.53851 -6.79008,0.98376 -11.07411,4.39234 -2.16307,1.71782 -3.11676,2.2774 -4.50666,2.63239 -1.3177,0.33695 -2.65345,0.21059 -3.31832,-0.31288 -0.91758,-0.72202 -1.02889,-2.72866 -0.27377,-4.9489 l 0.37606,-1.10711 1.02287,-0.12635 a 34.452775,34.452775 0 0 0 9.61501,-2.75875 c 2.19617,-1.01385 4.47657,-2.3827 9.05844,-5.43627 7.78286,-5.18657 11.13127,-6.80211 16.28174,-7.85206 2.64743,-0.54152 2.78582,-0.73105 1.72083,-2.40375 -1.06198,-1.66668 -0.80927,-2.2774 0.99279,-2.38871 1.58244,-0.0963 2.39773,-0.53249 3.78162,-2.01867 3.64022,-3.91098 3.89594,-4.12158 5.99885,-4.93386 2.35562,-0.91156 5.76118,-1.89231 7.95434,-2.29244 1.30567,-0.24068 1.79605,-0.25872 2.52108,-0.0933 2.40676,0.53851 4.93988,2.85502 6.4772,5.91461 1.68172,3.35142 1.58846,6.82618 -0.23767,8.88095 -0.46029,0.52046 -0.77317,0.73106 -0.96872,0.65584 -0.27076,-0.10228 -1.02889,-1.54935 -2.52108,-4.81352 -1.15525,-2.52409 -2.04876,-3.13481 -3.82073,-2.61735 -0.76415,0.21961 -1.05296,0.40614 -1.26355,0.81228 -0.56559,1.09207 -0.34598,1.426 1.52829,2.31049 1.34177,0.63177 1.54634,0.90855 2.3496,3.18896 0.30686,0.86643 0.76716,1.89532 1.02288,2.28342 0.45728,0.69193 1.87125,1.70277 4.21483,3.02649 2.30448,1.29665 4.0584,3.75455 6.42305,9.00129 2.53912,5.64084 3.09569,6.84723 5.30089,11.52236 4.32614,9.18181 7.64145,17.13013 9.65712,23.15604 1.09808,3.27323 1.47414,4.83459 2.64744,10.96883 1.26355,6.57648 2.494,9.80753 4.5939,12.05484 1.57041,1.67869 2.91218,2.31347 5.10233,2.40676 2.68955,0.12034 4.01327,-0.33996 9.28408,-3.20399 3.25514,-1.76895 4.36827,-2.14201 9.39238,-3.14381 4.69319,-0.93565 6.14626,-1.39293 8.14689,-2.54819 2.15104,-1.2425 8.85086,-5.84237 10.12042,-6.94954 2.35261,-2.04571 3.89294,-4.30203 4.47658,-6.54934 0.50241,-1.92543 0.30686,-5.03318 -0.4633,-7.41885 -0.26174,-0.80932 -0.89652,-1.0891 -3.1318,-1.38393 -2.26236,-0.29482 -2.99341,-0.64982 -3.22205,-1.56741 -0.18051,-0.72799 0.19855,-1.66969 1.51927,-3.75455 0.62575,-0.98978 0.72804,-1.2846 0.66186,-1.89527 -0.25873,-2.44288 -2.55117,-4.30814 -6.61859,-5.38516 -0.93864,-0.25271 -2.99943,-0.74008 -4.58489,-1.08903 -3.87788,-0.85439 -5.4483,-1.40495 -7.02774,-2.46095 -2.28642,-1.52826 -3.30929,-2.90614 -5.8424,-7.88211 -2.82494,-5.53555 -4.14565,-6.63364 -8.59515,-7.12702 -3.69137,-0.40915 -4.51869,-0.84237 -6.97359,-3.65828 -2.18113,-2.49702 -2.83396,-2.93324 -5.04817,-3.35743 -1.9555,-0.37305 -2.45189,-0.67088 -4.67213,-2.79786 -1.53431,-1.46512 -2.87006,-2.49099 -5.77623,-4.43445 -4.30208,-2.87909 -7.98442,-5.14446 -10.78228,-6.63965 l -1.9224,-1.02589 0.11432,-0.61372 c 0.11131,-0.58665 0.0421,-0.68292 -1.82613,-2.5271 -2.16909,-2.136 -3.85683,-3.42963 -8.1168,-6.23351 a 68.926609,68.926609 0 0 1 -3.95912,-2.77078 l -1.05597,-0.86042 -1.29363,0.0391 c -1.74791,0.0541 -2.08485,-0.0993 -2.34659,-1.065 -0.52949,-1.99159 -1.52529,-2.6354 -5.21966,-3.38751 -1.39291,-0.2828 -2.90616,-0.67991 -3.36345,-0.88449 -0.4633,-0.20457 -1.67872,-1.13719 -2.73167,-2.0999 -2.14804,-1.9615 -2.9182,-2.37065 -5.53555,-2.94527 -2.68354,-0.58665 -3.3454,-1.00783 -5.07827,-3.23408 -1.04694,-1.34478 -1.97354,-1.92541 -3.33336,-2.09088 -2.6324,-0.31889 -4.72327,-1.07401 -10.45436,-3.76357 -2.22626,-1.04694 -5.38513,-2.36163 -7.01571,-2.9212 -5.00305,-1.71783 -6.76601,-2.84299 -7.29249,-4.65408 -0.24067,-0.82431 -0.24067,-1.04092 0.009,-1.98858 0.24068,-0.92059 0.87847,-2.25634 1.08003,-2.25634 0.0361,0 0.57161,0.29483 1.19135,0.65584 3.28824,1.92541 7.65049,3.67934 13.47485,5.40318 15.40327,4.56683 16.06513,4.86166 21.4322,9.53378 3.21303,2.79786 5.1625,4.22988 7.01571,5.15046 1.4982,0.7461 1.5644,0.76114 3.87187,0.86343 2.9513,0.13238 3.11977,0.21661 6.05301,3.00243 a 28.529136,28.529136 0 0 0 4.75936,3.74553 c 1.3839,0.88749 3.20701,2.10591 4.04938,2.71061 2.3165,1.66067 3.31531,2.26837 7.41583,4.50967 6.38995,3.4898 7.01571,4.0223 10.02416,8.48684 2.78282,4.1336 3.8478,4.89775 7.34664,5.26178 0.97473,0.10229 2.03671,0.26173 2.36463,0.358 1.51626,0.44224 2.83397,1.7419 4.87369,4.80449 0.80026,1.20038 1.77499,2.47295 2.1721,2.82795 0.71602,0.64682 0.71903,0.64682 2.42481,0.64682 2.53914,0 4.28103,0.51745 6.41402,1.89833 1.64562,1.068 2.9182,2.28341 5.85445,5.5897 1.40795,1.58546 2.96633,3.25515 3.46273,3.71243 1.08003,0.98978 1.26054,1.6757 0.87245,3.30929 -0.14441,0.59568 -0.22564,1.11614 -0.18051,1.16127 0.0451,0.0421 0.30084,0.003 0.57161,-0.0903 0.35499,-0.12033 0.66787,-0.51144 1.12214,-1.3899 0.34598,-0.67389 0.75212,-1.29965 0.90254,-1.39292 0.4633,-0.29181 0.83334,-0.19253 1.04995,0.28581 0.27979,0.61072 1.43503,1.09207 2.99942,1.24249 2.40376,0.23766 2.63541,0.34898 4.27201,2.05176 0.8183,0.85741 2.29544,2.71663 3.2792,4.13367 0.98678,1.41697 2.05177,2.87605 2.36766,3.24005 l 0.5716,0.66191 1.86524,0.0183 c 2.88812,0.0211 4.04938,0.54754 7.71969,3.47477 3.1348,2.50305 2.75273,2.35867 6.34782,2.42481 3.46875,0.0661 4.82255,0.29483 9.41044,1.60052 l 2.69858,0.76715 0.99279,2.02167 c 0.54152,1.11315 1.16126,2.19614 1.37185,2.40675 l 0.38508,0.38206 1.14623,-0.54452 c 1.76596,-0.83934 3.56501,-1.13114 7.64748,-1.24545 l 3.61916,-0.10235 0.98377,0.74311 c 3.19798,2.4128 7.84001,3.19499 16.3088,2.7467 6.78706,-0.35802 12.73778,-0.44821 14.66319,-0.2196 3.21302,0.37904 5.54457,1.17332 7.23231,2.46095 l 0.82733,0.63175 0.61071,-1.30871 c 0.94767,-2.03369 1.08605,-2.11488 3.6673,-2.16606 l 2.16609,-0.045 1.87125,-0.94162 c 1.11313,-0.55956 3.10773,-1.84719 4.92785,-3.18599 5.84542,-4.29 8.55002,-5.24674 13.26124,-4.6992 2.97537,0.34902 4.80751,0.346 7.48503,0 a 48.526306,48.526306 0 0 0 18.55011,-6.5343 c 1.41096,-0.85446 2.00362,-1.11315 2.53311,-1.11315 1.2455,0 2.80388,-0.38206 4.18175,-1.02289 0.74309,-0.34593 2.32252,-0.9928 3.50785,-1.43505 3.15888,-1.18533 4.49162,-1.94346 5.96275,-3.39353 1.02288,-1.00783 1.44707,-1.60952 2.11193,-2.97235 1.08906,-2.23829 1.42601,-3.90797 1.41999,-7.02172 -0.006,-3.48981 -0.65584,-7.06384 -2.06078,-11.37797 l -0.56861,-1.7449 -0.93863,-0.36101 c -1.9946,-0.76114 -3.45069,-1.99159 -6.23953,-5.27682 l -1.65464,-1.94947 -1.62457,0.1083 c -1.64863,0.1083 -2.15405,0.0512 -7.4429,-0.84839 -3.84179,-0.65283 -5.22267,-0.30084 -9.66916,2.45189 a 269.3195,269.3195 0 0 1 -4.32314,2.60231 c -6.22148,3.65827 -7.9032,5.2317 -9.27205,8.67337 -1.23948,3.12276 -2.18113,4.50665 -3.41158,5.01809 -0.45729,0.18653 -0.51144,0.30987 -0.59267,1.32071 -0.23465,2.849 -1.30266,4.1637 -3.10472,3.82675 -0.79122,-0.15043 -1.69075,-0.89953 -2.01867,-1.69075 -0.36402,-0.86944 -0.31288,-3.47777 0.12034,-6.06504 0.19555,-1.18834 0.41216,-2.82794 0.47834,-3.64925 l 0.12034,-1.48617 -0.65283,0.27076 c -1.34779,0.56559 -4.29306,0.22563 -6.44711,-0.74309 l -1.02889,-0.46029 -0.7822,0.54152 c -0.4272,0.29482 -1.74791,1.40194 -2.93624,2.45791 -2.32253,2.06078 -3.71544,2.8881 -5.27082,3.1348 -1.91939,0.30385 -3.39954,-0.17148 -7.29248,-2.33757 -3.47776,-1.93443 -5.34,-2.40676 -7.51511,-1.90134 -0.64079,0.15042 -1.17329,0.25873 -1.18533,0.24068 -0.52046,-1.01385 -1.82913,-2.83697 -3.76657,-5.24975 -1.35381,-1.68473 -2.79185,-3.61916 -3.19799,-4.30208 -0.72202,-1.20338 -0.73406,-1.24851 -0.44224,-1.7088 0.72805,-1.15525 0.75211,-1.25453 0.41817,-1.95249 a 44.615321,44.615321 0 0 0 -1.77498,-2.90917 c -0.79724,-1.23346 -1.59448,-2.61735 -1.75995,-3.06861 -0.16846,-0.45428 -0.6077,-2.28643 -0.97774,-4.06743 -1.77198,-8.55905 -2.4188,-11.02597 -3.69137,-14.11866 -0.65283,-1.57643 -1.3538,-2.62938 -3.39654,-5.10534 -2.8129,-3.40857 -4.26599,-6.49825 -7.25638,-15.42433 l -1.83516,-5.47538 0.42119,-0.79423 c 0.22864,-0.43622 0.92058,-1.23346 1.53431,-1.76897 C 351.95254,0.01805 351.99465,0 353.09574,0 c 1.00483,0 1.19737,0.0602 1.87126,0.6077 1.34779,1.09508 2.85803,1.7088 6.69079,2.72867 4.80149,1.27258 6.34182,2.2082 7.40982,4.49763 0.66186,1.41698 0.60169,1.61253 -0.62275,1.9555 -2.0638,0.58063 -3.97717,0.36101 -7.68057,-0.87848 -2.51507,-0.84236 -3.61616,-0.98376 -3.97116,-0.51744 a 2.0276956,2.0276956 0 0 0 -0.26174,1.00482 c -0.003,0.58364 0.10229,0.75211 0.84839,1.3538 2.05477,1.64261 1.94045,1.45007 6.76901,11.39601 0.84237,1.73287 1.8863,3.67934 2.32253,4.32314 a 5.9266474,5.9266474 0 0 1 1.01986,2.3135 c 0.12034,0.62576 0.63178,2.24732 1.12817,3.59811 0.91758,2.491 1.41397,4.52471 1.41397,5.8033 0,0.50241 0.20157,1.03491 0.71902,1.87727 0.94465,1.54635 2.14503,3.96815 3.88391,7.83401 4.06141,9.03437 6.66673,12.56028 10.90262,14.76547 l 1.40195,0.73106 1.94345,-0.97474 a 70.746723,70.746723 0 0 1 4.46454,-1.97956 c 7.75579,-3.0957 12.51516,-2.85803 14.62107,0.73105 l 0.46631,0.80025 0.42118,-0.51144 c 0.23467,-0.27979 0.90254,-1.19736 1.48618,-2.03973 2.32854,-3.35141 3.57404,-4.32013 6.85927,-5.33699 2.62938,-0.81529 4.43144,-1.66969 5.18656,-2.45189 0.67691,-0.69796 0.6408,-0.95368 -0.19856,-1.52829 -1.2846,-0.87847 -2.50904,-0.43321 -5.61376,2.03672 -2.37668,1.89532 -3.50485,2.46393 -4.72026,2.38571 l -0.86042,-0.0572 0.0482,-0.77617 c 0.0752,-1.14322 0.63177,-2.17512 2.15104,-3.94107 2.37667,-2.7768 3.11074,-4.17874 3.11375,-5.9447 V 42.9456 l -1.11313,0.0602 c -1.64262,0.0933 -2.97837,-0.22864 -6.18236,-1.49821 -3.0927,-1.22444 -4.84361,-1.61253 -6.43809,-1.426 l -0.94766,0.1113 -0.24669,-0.69194 c -0.72504,-2.03672 -2.3466,-3.5981 -5.69199,-5.48741 -3.8809,-2.19617 -4.51268,-2.60532 -5.68898,-3.71544 -1.5283,-1.44104 -2.136,-2.71663 -2.28041,-4.7714 l -0.0963,-1.44405 1.01685,0.12334 c 1.52829,0.19254 3.9531,0.88749 5.96876,1.71482 2.38571,0.97474 4.91581,2.40676 9.81357,5.54758 5.08729,3.26718 4.50064,2.90316 6.43809,3.98018 2.87607,1.59448 4.76538,2.30448 7.02774,2.6324 2.80086,0.40614 3.61014,0.68292 4.90978,1.66969 l 2.13601,1.61854 c 1.2485,0.94766 2.2112,1.23347 4.97898,1.47414 2.63239,0.22864 3.43265,0.45728 5.24975,1.4952 2.35862,1.3508 2.79785,1.41999 5.88152,0.9266 2.31951,-0.37305 3.8117,-0.20758 8.39358,0.92661 4.17873,1.03491 7.01871,1.52528 8.82077,1.52528 1.3869,0 1.40194,0.003 1.62456,0.54453 0.36704,0.88449 1.25152,1.86524 2.80388,3.11375 a 19.214973,19.214973 0 0 1 1.93444,1.73587 c 0.26173,0.31288 1.12214,1.88329 1.90735,3.48379 a 40.523828,40.523828 0 0 0 3.23408,5.49343 c 2.72566,3.88992 2.62638,3.50485 2.64744,10.29793 0.012,3.65225 0.0903,5.97478 0.22563,6.52232 0.11734,0.46931 0.54153,1.56439 0.94466,2.43082 0.40614,0.87547 0.77618,1.98558 0.83033,2.48498 0.19254,1.78401 -0.92058,4.60294 -2.80689,7.10898 -1.20337,1.5975 -3.79064,4.0524 -5.38512,5.11437 -1.94947,1.28763 -2.80388,1.55539 -5.61677,1.74793 -3.88692,0.27072 -4.94289,0.70093 -8.73354,3.56496 -1.18834,0.89657 -2.62337,1.8803 -3.18895,2.18117 -1.24851,0.66487 -2.05779,1.58541 -3.00544,3.40553 -1.23949,2.38271 -1.58847,4.13064 -2.08788,10.4544 -0.33393,4.24192 -0.55656,5.43626 -1.70578,9.1667 -1.18232,3.83884 -1.38991,4.93392 -1.71783,9.04347 -0.44224,5.54452 -0.81228,7.40078 -1.80507,9.09753 a 3.3183209,3.3183209 0 0 1 -2.19918,1.66969 c -1.13118,0.30382 -1.9946,0.012 -2.91819,-0.9928 -1.52228,-1.6486 -2.35562,-4.43749 -2.48799,-8.32441 -0.12034,-3.54991 0.2497,-5.67091 1.95549,-11.22147 0.40614,-1.32376 1.09809,-3.7696 1.53431,-5.43626 0.97775,-3.71245 1.94346,-6.40805 3.85684,-10.7462 1.92239,-4.36227 2.34659,-5.41525 2.2443,-5.58368 -0.0451,-0.0752 -0.37305,-0.18952 -0.72504,-0.25574 -0.97775,-0.18354 -2.43082,0.32794 -3.94708,1.38991 -2.89113,2.02469 -7.80092,5.89657 -8.76663,6.91341 -1.92541,2.02771 -2.62036,4.0614 -3.58006,10.4423 -1.05897,7.07889 -1.34477,8.00252 -3.39052,11.04103 -2.0638,3.06262 -2.21422,3.43266 -2.21121,5.46937 0.003,1.25754 0.16547,2.37666 0.67389,4.62398 0.80326,3.53192 0.89953,5.63788 0.32792,7.09091 l -0.34898,0.8875 -1.88931,0.58669 c -2.01566,0.62874 -3.17391,0.75211 -3.64022,0.38509 -0.5716,-0.44526 -1.423,-2.05478 -1.94045,-3.67638 -1.8171,-5.67091 -0.70699,-12.99647 3.23107,-21.31181 a 140.47959,140.47959 0 0 0 2.9874,-6.95558 c 2.07583,-5.2497 2.56319,-6.15224 4.01628,-7.41582 2.31049,-2.01267 3.23709,-2.93925 3.4537,-3.45973 0.33996,-0.8243 0.13839,-1.07097 -0.88148,-1.07097 -0.74609,0 -1.26957,0.19852 -3.29124,1.24545 -2.63239,1.35982 -3.51988,1.66069 -4.93085,1.67271 -0.91457,0.009 -0.94465,0.0267 -1.29664,0.7521 -0.20157,0.40618 -1.59448,2.80688 -3.09269,5.33398 -4.24192,7.12704 -6.35385,11.52242 -7.19321,14.94299 -0.52346,2.14202 -0.70999,3.93205 -0.9266,9.00432 -0.29182,6.76297 -0.69194,9.23896 -1.84117,11.39602 -0.98677,1.84719 -3.05057,3.35442 -4.90377,3.57705 -0.44225,0.0513 -0.61975,-0.0605 -1.11614,-0.70999 -1.29062,-1.68776 -1.43503,-3.79069 -0.61072,-8.89902 0.29183,-1.81112 0.66187,-4.87367 0.81831,-6.80515 0.55656,-6.88929 0.94464,-8.30929 3.33937,-12.24436 1.22143,-2.00662 1.61254,-3.07767 1.61254,-4.39236 0,-1.19434 0.0331,-1.23947 3.44467,-4.70517 2.02769,-2.06082 2.76778,-2.93932 3.10472,-3.69143 0.49339,-1.09803 0.7822,-2.515 0.51444,-2.515 -0.31889,0 -4.07945,3.34837 -5.98079,5.32491 -8.1529,8.47786 -14.18184,19.28416 -16.19148,29.02554 -0.2106,1.01684 -0.54754,3.28525 -0.75212,5.04218 -0.56559,4.88872 -0.94465,6.19736 -2.12096,7.31354 -0.93262,0.88749 -2.71362,0.84539 -4.95491,-0.11733 l -0.88148,-0.37904 0.10229,-2.35262 c 0.0692,-1.54337 0.33092,-3.56503 0.75813,-5.86648 0.93262,-5.02411 1.16427,-6.95559 1.16727,-9.83164 l 0.003,-2.53912 1.48618,-2.26236 c 0.81829,-1.24552 2.01265,-3.12877 2.65645,-4.18174 1.90736,-3.12877 3.26417,-4.78644 5.74614,-7.02476 1.27258,-1.14317 2.68956,-2.55719 3.14985,-3.14684 0.82733,-1.0529 1.76295,-2.86101 1.98257,-3.82675 0.13538,-0.59864 -0.0933,-0.63175 -1.48016,-0.2196 -1.27558,0.37904 -2.68955,1.73288 -4.35322,4.16368 -0.73707,1.07406 -2.89714,3.83581 -4.8045,6.13726 -5.90558,7.13006 -8.21006,10.40926 -10.325,14.72036 -2.58727,5.2738 -3.66429,9.6812 -3.90497,16.00496 l -0.11432,3.03851 -0.78521,0.346 c -1.08304,0.48132 -2.9904,0.86043 -4.32916,0.86641 -1.05295,0 -1.13719,-0.0302 -1.3899,-0.51746 -0.48737,-0.94162 -0.9988,-3.14381 -1.18232,-5.07522 -0.31589,-3.35147 0.33695,-8.58914 1.55236,-12.44 0.54754,-1.7449 0.76715,-2.08781 2.53311,-4.00424 1.7058,-1.85014 2.03673,-2.54215 2.03973,-4.26294 0.003,-1.15526 0.0752,-1.46513 0.54152,-2.27741 0.80928,-1.41099 2.4549,-3.06859 5.8725,-5.92363 3.94408,-3.29122 5.28284,-4.96696 5.81834,-7.29251 0.18954,-0.82733 0.26174,-3.21903 0.0933,-3.21903 -0.18653,0 -3.07465,1.68473 -4.32616,2.53012 -6.72088,4.52472 -12.37977,11.41106 -16.10423,19.60008 -1.51025,3.32433 -1.83817,4.33815 -3.23409,9.98805 -0.69495,2.81285 -1.55537,5.95371 -1.91337,6.97955 -1.7088,4.92183 -3.67933,7.05787 -6.2305,6.757 -1.26957,-0.15043 -2.81892,-0.92658 -3.0596,-1.5343 -0.10228,-0.26171 -0.22864,-1.40797 -0.27677,-2.54818 -0.15042,-3.61916 0.56859,-6.19139 3.54696,-12.68063 2.40074,-5.23465 2.75875,-6.5343 2.49702,-9.06442 -0.2106,-2.07284 0,-2.91823 1.17028,-4.60894 2.17812,-3.15886 6.67876,-8.06269 8.03557,-8.75462 a 27.888336,27.888336 0 0 1 2.55718,-1.01382 c 3.10773,-1.08004 4.29005,-2.14504 4.29005,-3.85986 0,-0.43021 -0.12936,-0.58965 -0.713,-0.88749 -2.48799,-1.26956 -6.16732,-1.18535 -11.39601,0.26171 l -4.50064,1.24552 a 49.6635,49.6635 0 0 1 -3.91099,0.90254 c -1.54333,0.26171 -1.76896,0.355 -2.40374,0.96271 -2.13601,2.06075 -3.87489,5.82437 -4.63302,10.02419 -0.93563,5.2106 -0.87847,10.04822 0.27978,23.42373 0.24068,2.77082 0.48738,6.01389 0.55356,7.20226 0.0692,1.30864 0.21059,2.31346 0.36102,2.55114 0.13237,0.21363 0.70999,0.56258 1.28159,0.77924 1.16427,0.43317 1.49219,0.6558 1.49219,1.0018 0,0.12934 -0.52647,1.01684 -1.17329,1.97056 -1.42901,2.10588 -2.65346,4.60289 -4.58789,9.36226 -2.5271,6.20946 -3.8809,8.7696 -5.91762,11.18542 -1.84117,2.1811 -4.6631,3.97718 -7.31053,4.65407 -1.33275,0.34297 -1.44105,0.33693 -3.42964,-0.20154 z m -113.15385,-8.13489 c 1.12216,-1.99158 2.74973,-4.0524 5.02412,-6.35082 3.53492,-3.57101 6.99464,-6.12524 14.85573,-10.96279 5.15949,-3.1739 8.48382,-5.37608 10.93571,-7.24436 l 2.13601,-1.63061 0.88448,0.10531 c 1.22745,0.14741 2.60532,0.84237 3.84179,1.94652 1.23347,1.09803 1.24249,1.2304 0.21059,3.33031 -0.4633,0.94465 -0.97173,1.60649 -1.95549,2.54214 -1.59147,1.51026 -2.51808,2.06982 -7.0849,4.281 -1.91338,0.92666 -4.03734,2.05478 -4.72327,2.51206 -1.17329,0.77924 -3.07463,2.62945 -3.07463,2.99345 0,0.0903 -0.47233,0.16548 -1.05296,0.16548 -1.69677,0 -2.50905,0.34895 -4.32916,1.86518 -4.83459,4.02231 -10.12946,6.55848 -15.48751,7.41287 l -0.79423,0.12632 z m 58.68585,-31.73014 c -2.98739,-0.37004 -6.27563,-1.23041 -7.96036,-2.08184 l -0.84537,-0.42719 0.34898,-0.78522 c 0.18952,-0.43317 0.47834,-1.63053 0.63478,-2.65947 0.19254,-1.22745 0.3911,-1.94645 0.57762,-2.09386 0.58665,-0.4603 1.11914,-0.25574 2.16909,0.8243 l 1.02287,1.05298 1.57643,0.21658 c 2.47596,0.337 6.54639,0.26776 9.01633,-0.15339 2.66248,-0.45728 4.15467,-0.83639 8.4718,-2.16612 1.89532,-0.58058 4.11556,-1.22745 4.93686,-1.43504 1.71482,-0.43317 5.07827,-0.96567 5.21666,-0.82732 0.18953,0.18959 -0.71,2.5181 -1.33575,3.45972 -2.12397,3.19802 -6.88635,5.61377 -13.29736,6.73894 -2.46692,0.43323 -8.25518,0.61671 -10.53258,0.33693 z m 212.47181,-41.02317 c -1.01686,-0.33096 -1.64863,-0.80328 -2.72866,-2.03376 -1.58244,-1.79601 -2.29244,-2.44583 -3.07163,-2.8099 -0.37004,-0.17145 -0.6739,-0.41517 -0.6739,-0.5415 -0.015,-0.61376 0.65284,-1.6306 1.97355,-3.00842 2.04575,-2.13603 2.29244,-2.89419 1.69376,-5.19865 -0.35801,-1.37782 -0.2497,-2.43987 0.33996,-3.33334 0.25271,-0.37904 1.29363,-1.41395 2.3165,-2.29547 2.31049,-1.99158 2.74972,-2.72266 2.58426,-4.30206 -0.14741,-1.3839 -0.29182,-1.9886 -1.47113,-6.11919 a 140.47358,140.47358 0 0 1 -1.68173,-6.57347 c -0.38508,-1.73286 -1.30868,-5.70703 -2.04875,-8.8298 -3.99522,-16.84432 -5.17454,-25.38831 -4.90377,-35.55688 0.0602,-2.37668 0.16546,-4.51267 0.22864,-4.74733 0.11131,-0.41216 0.15944,-0.42118 1.57341,-0.33995 0.93263,0.0541 2.25935,0.3219 3.68235,0.74308 3.28523,0.96872 4.30208,0.87245 6.23351,-0.58364 1.26355,-0.95368 1.96151,-1.28762 2.94226,-1.40194 2.2774,-0.26474 5.27081,2.00363 11.13127,8.42366 2.84298,3.11676 4.76238,4.67212 10.6439,8.64027 2.50604,1.69376 5.22568,3.61014 6.04096,4.26598 0.81229,0.65284 4.56082,4.23591 8.32138,7.95736 3.76357,3.72446 8.30332,8.09875 10.08433,9.72632 1.78401,1.62456 5.88152,5.57165 9.10357,8.76963 l 5.86347,5.81534 1.60952,-0.003 c 2.62938,-0.003 4.01628,-0.53551 7.59634,-2.90617 2.38269,-1.57944 3.56802,-2.12998 8.09874,-3.76658 5.15348,-1.86524 6.11017,-2.3496 8.42367,-4.28704 1.67871,-1.40796 2.41879,-1.87727 4.86165,-3.08065 2.67451,-1.32372 10.72212,-4.74734 14.04345,-5.9778 2.99341,-1.10711 7.79791,-1.92841 8.6162,-1.47113 0.27076,0.15043 0.25572,0.25572 -0.16546,1.1011 -0.80025,1.60951 -1.85923,2.25032 -5.95673,3.61014 -2.93926,0.97774 -7.31957,2.86705 -9.88276,4.26297 -1.82313,0.9958 -1.77499,1.13719 0.37906,1.16126 1.78401,0.0151 2.74671,-0.31889 6.68477,-2.32854 1.90135,-0.96872 3.97116,-1.93744 4.59391,-2.14803 1.48918,-0.51144 3.1348,-0.66186 4.22687,-0.38508 0.91156,0.22563 2.57825,1.18533 2.57825,1.48015 0,0.48737 -2.06681,2.27138 -4.0915,3.53192 -2.05477,1.2786 -3.48378,2.50905 -4.19378,3.61014 -0.26174,0.40915 -0.29482,0.41216 -1.51626,0.20157 -1.46812,-0.25571 -3.85082,-0.13237 -5.41521,0.27978 a 59.687657,59.687657 0 0 0 -3.77861,1.28762 c -3.35442,1.2455 -5.36106,1.69978 -10.62284,2.40375 -2.27739,0.30085 -4.81352,0.71 -5.62881,0.90254 -1.79003,0.42119 -4.43746,1.44405 -4.23891,1.63058 0.73707,0.69796 4.85263,0.92961 7.72871,0.43322 2.14202,-0.37004 7.98744,-1.89532 10.33102,-2.69557 3.96514,-1.35381 6.09512,-1.64562 7.47299,-1.01084 1.25453,0.57461 1.86524,1.64863 1.88329,3.30027 l 0.006,0.84537 -1.21541,0.36101 c -7.77986,2.28643 -19.76553,4.31412 -33.06288,5.59272 -2.06981,0.19855 -3.86586,0.44825 -3.99522,0.55355 -0.26775,0.22263 -0.61974,1.69677 -0.61974,2.58727 0,1.27259 -0.27979,1.63961 -1.76596,2.3165 -4.67212,2.12099 -9.01031,2.77384 -13.26727,1.9946 -1.8502,-0.33693 -1.48918,-0.0513 -4.95492,-3.91098 -2.24731,-2.49701 -4.76538,-4.91882 -10.89059,-10.46941 -7.834,-7.09091 -10.20767,-9.59695 -14.40746,-15.21373 -2.81893,-3.77259 -4.53976,-5.70402 -7.86108,-8.8298 -7.81596,-7.34964 -11.59457,-11.49228 -13.56812,-14.86175 -0.47834,-0.8213 -0.86042,-1.2485 -1.25151,-1.41397 -0.30987,-0.12936 -1.12817,-0.8213 -1.81711,-1.53431 -1.32973,-1.38088 -2.46693,-2.1721 -3.12277,-2.1721 -0.51745,0 -1.17329,1.39893 -1.47414,3.14383 -0.50542,2.93625 0.50843,8.61921 3.27019,18.35155 1.44405,5.08428 1.7118,6.5163 2.14803,11.54643 0.50843,5.86648 0.63177,6.44411 3.06862,14.31722 2.22625,7.19019 3.05057,11.11022 3.05057,14.47069 0,1.11307 -0.0782,1.45908 -0.54152,2.31346 -0.84237,1.55841 -1.21843,2.83999 -1.89533,6.48622 -0.69796,3.7485 -1.09808,5.00604 -1.95248,6.12819 -0.90254,1.19139 -1.88028,1.63363 -3.70942,1.6938 -0.84236,0.0239 -1.73588,-0.0183 -1.98558,-0.0993 z m 60.93918,-28.2193 c 0.69796,-0.27076 -0.11132,-2.28642 -1.66067,-4.13963 -1.1041,-1.3207 -4.96394,-4.76237 -11.11021,-9.90381 -9.95496,-8.33041 -12.84608,-11.17941 -17.07596,-16.82025 -3.67633,-4.90378 -4.86767,-6.04097 -13.08375,-12.50613 a 55.259218,55.259218 0 0 1 -4.25997,-3.80569 c -1.83515,-1.85321 -2.09087,-2.20219 -2.90616,-3.90797 -0.87546,-1.82614 -1.55537,-2.64744 -2.18414,-2.64744 -0.16546,0 -0.38508,-0.0842 -0.48736,-0.18653 -0.29484,-0.29482 -0.70098,-0.0331 -1.0319,0.66186 l -0.30686,0.64381 0.76414,1.01084 c 2.36465,3.1348 5.28284,6.34783 13.11082,14.4556 7.46698,7.73172 8.54401,8.74858 12.78592,12.12707 4.75335,3.78463 8.09875,7.03977 13.51697,13.14993 3.97417,4.4826 10.49649,11.06508 11.51334,11.61563 0.61974,0.33695 1.85622,0.46631 2.41579,0.24971 z M 382.36503,54.82 a 25.078443,25.078443 0 0 1 -1.6366,-0.33695 c -0.32491,-0.11732 -2.09989,-3.21904 -3.63421,-6.34482 -1.45609,-2.96934 -3.70039,-8.46277 -5.09631,-12.47003 l -0.77618,-2.23528 0.69194,-0.59567 c 1.78402,-1.54333 3.78163,-1.85321 5.77021,-0.89652 0.89652,0.43322 1.80507,1.25152 5.31293,4.78344 3.17391,3.20099 4.47657,4.39233 5.21965,4.77742 0.87246,0.45126 1.12817,0.72203 2.133,2.2774 1.39291,2.15706 1.83515,3.2762 1.96151,4.97296 l 0.0993,1.30567 H 391.601 c -1.05295,0 -1.83816,-0.27377 -2.86705,-0.9988 -1.2455,-0.87847 -1.86524,-1.16126 -2.64142,-1.19135 -0.88148,-0.0331 -0.99279,0.0391 -1.73889,1.15224 -0.74008,1.09808 -0.70999,1.53431 0.22564,3.06862 0.45126,0.74308 0.63779,1.26355 0.64982,1.82914 0.009,0.43622 -0.0331,0.84236 -0.0963,0.90253 -0.24669,0.2497 -1.40193,0.2497 -2.76777,0 z"
     id="path2"
     inkscape:connector-curvature="0"
     style="fill:#010101;stroke-width:0.30084506" />
</svg>
