<svg xmlns="http://www.w3.org/2000/svg" viewBox="0 0 8 8"><path fill="#010101" d="M5.2202,5.31735667 L5.20506667,5.31325667 L5.20533333,5.25622333 C5.2057,5.17335667 5.2128,5.13985667 5.27033333,4.95112333 C5.3082,4.82685667 5.31573333,4.77952333 5.31256667,4.68602333 C5.3094,4.59092333 5.3151,4.55972333 5.35886667,4.43339 C5.39136667,4.33965667 5.40636667,4.27265667 5.404,4.23192333 L5.4029,4.21359 L5.37276667,4.19762333 C5.33073333,4.17545667 5.27313333,4.15779 5.17216667,4.13605667 C5.0728,4.11472333 5.04473333,4.10619 4.98103333,4.07795667 C4.913,4.04782333 4.8841,4.03859 4.81143333,4.02385667 C4.6991,4.00099 4.66146667,3.98855667 4.43886667,3.90059 C4.2301,3.81812333 4.163,3.78495667 3.9817,3.67435667 C3.91856667,3.63582333 3.91543333,3.63345667 3.91743333,3.62515667 C3.9209,3.61115667 3.9325,3.60129 3.96143333,3.58792333 C3.99266667,3.57345667 4.00203333,3.56372333 3.99503333,3.55295667 C3.98646667,3.53972333 3.9575,3.52775667 3.90613333,3.51599 C3.85456667,3.50422333 3.83523333,3.49709 3.83523333,3.48975667 C3.83523333,3.48359 3.85093333,3.46102333 3.86673333,3.44439 C3.89363333,3.41592333 3.93543333,3.39209 4.01463333,3.36005667 C4.0682,3.33839 4.10036667,3.32242333 4.18203333,3.27692333 C4.28783333,3.21799 4.32546667,3.20302333 4.49336667,3.15355667 C4.54136667,3.13952333 4.58906667,3.12455667 4.63646667,3.10862333 C4.71903333,3.07932333 4.7312,3.07635667 4.85636667,3.05495667 C5.0305,3.02515667 5.05216667,3.01529 5.1668,2.91382333 C5.1941,2.88972333 5.23796667,2.85245667 5.2644,2.83112333 C5.4058,2.71662333 5.5123,2.61682333 5.55723333,2.55689 C5.6043,2.49412333 5.626,2.47822333 5.66446667,2.47822333 C5.6992,2.47822333 5.72683333,2.49519 5.75163333,2.53172333 C5.7843,2.57992333 5.7916,2.64025667 5.76986667,2.68299 C5.76253333,2.69755667 5.73153333,2.72619 5.72323333,2.72619 C5.71993333,2.72619 5.71126667,2.72405667 5.70386667,2.72149 C5.69136667,2.71772333 5.6786,2.71485667 5.6657,2.71295667 C5.60676667,2.70399 5.55383333,2.72379 5.5052,2.77292333 C5.48786667,2.79039 5.4709,2.81155667 5.46206667,2.82699 C5.44826667,2.85072333 5.4458,2.85309 5.42293333,2.86485667 C5.35633333,2.89915667 5.30753333,2.93879 5.1883,3.05532333 C5.0779,3.16329 5.05923333,3.17892333 5.04096667,3.17892333 C5.03346667,3.17892333 5.00696667,3.18129 4.9821,3.18415667 C4.81416667,3.20359 4.65966667,3.24615667 4.3951,3.34595667 C4.25773333,3.39775667 4.17066667,3.42859 4.11346667,3.44565667 C4.0905,3.45255667 4.071,3.45879 4.0701,3.45949 C4.0676,3.46175667 4.0872,3.47669 4.10853333,3.48879 C4.14983333,3.51212333 4.20323333,3.52579 4.294,3.53632333 L4.33993333,3.54162333 L4.3601,3.56079 C4.3946,3.59369 4.40193333,3.59805667 4.4224,3.59805667 C4.46133333,3.59805667 4.5056,3.60792333 4.58706667,3.63445667 C4.6791,3.66462333 4.68403333,3.66562333 4.74116667,3.66629 C4.7801,3.66679 4.78386667,3.66742333 4.80486667,3.67739 C4.8172,3.68322333 4.84353333,3.69845667 4.8636,3.71129 C4.93996667,3.76035667 4.9593,3.76675667 5.0696,3.77902333 C5.1876,3.79219 5.2146,3.79975667 5.30153333,3.84429 C5.37526667,3.88205667 5.4017,3.89192333 5.4424,3.89672333 C5.49483333,3.90299 5.52246667,3.90929 5.56,3.92345667 C5.60246667,3.93942333 5.62833333,3.94485667 5.6502,3.94229 C5.66496667,3.94059 5.66626667,3.94099 5.6681,3.94859 C5.66923333,3.95309 5.66856667,3.96635667 5.6665,3.97809 C5.66033333,4.01365667 5.66093333,4.01629 5.6847,4.04905667 C5.6967,4.06569 5.71776667,4.10189 5.73143333,4.12955667 C5.7707,4.20902333 5.7908,4.27142333 5.8357,4.45315667 C5.85323333,4.52415667 5.8721,4.59845667 5.8777,4.61829 C5.8833,4.63809 5.88683333,4.65599 5.88556667,4.65805667 C5.8819,4.66399 5.8438,4.68075667 5.8288,4.68302333 C5.7977,4.68769 5.7713,4.67039 5.75076667,4.63182333 C5.7451,4.62119 5.73253333,4.58825667 5.72296667,4.55879 C5.7019,4.49402333 5.692,4.46945667 5.67936667,4.45122333 C5.6704,4.43809 5.66953333,4.43362333 5.66296667,4.36399 C5.64303333,4.15292333 5.6214,4.08732333 5.56156667,4.05712333 C5.5349,4.04369 5.51016667,4.03862333 5.441,4.03242333 C5.35616667,4.02479 5.3225,4.01449 5.29296667,3.98732333 C5.28226667,3.97745667 5.2752,3.97365667 5.26776667,3.97365667 C5.2295,3.97365667 5.1327,3.94659 5.0079,3.90102333 C4.88096667,3.85465667 4.85136667,3.84495667 4.76913333,3.82242333 C4.6764,3.79705667 4.64533333,3.78669 4.55596667,3.75115667 C4.47246667,3.71799 4.2782,3.63632333 4.22876667,3.61355667 C4.17673333,3.58965667 4.15873333,3.58422333 4.12496667,3.58219 C4.08636667,3.57995667 4.08243333,3.58179 4.08853333,3.59935667 C4.09453333,3.61682333 4.11443333,3.63675667 4.13766667,3.64859 C4.14816667,3.65392333 4.17906667,3.66569 4.20643333,3.67475667 C4.23376667,3.68382333 4.29986667,3.70709 4.35336667,3.72642333 C4.68346667,3.84575667 5.07956667,3.97052333 5.27553333,4.01702333 C5.46523333,4.06199 5.53163333,4.08162333 5.55063333,4.09829 C5.58036667,4.12442333 5.58816667,4.15532333 5.59253333,4.26525667 C5.59796667,4.40155667 5.60916667,4.45922333 5.67826667,4.70579 C5.74016667,4.92675667 5.7606,5.02462333 5.77136667,5.15145667 L5.773,5.17072333 L5.742,5.19232333 C5.69596667,5.22445667 5.65776667,5.23735667 5.64106667,5.22642333 C5.63056667,5.21952333 5.61853333,5.19882333 5.60386667,5.16245667 C5.59723333,5.14605667 5.58926667,5.13025667 5.58003333,5.11515667 L5.56793333,5.09689 L5.5721,5.07432333 C5.5802,5.03062333 5.58036667,5.00805667 5.57276667,4.98709 C5.5456,4.91245667 5.53706667,4.83269 5.53366667,4.62249 C5.53253333,4.55245667 5.53016667,4.47545667 5.5284,4.45149 C5.5253,4.40942333 5.5163,4.34592333 5.51293333,4.34245667 C5.50983333,4.33925667 5.495,4.36095667 5.49153333,4.37389 C5.48876667,4.38382333 5.48926667,4.39462333 5.49353333,4.42012333 C5.4984,4.44925667 5.49863333,4.46085667 5.49523333,4.51279 C5.48536667,4.66545667 5.4652,4.79805667 5.41103333,5.06709 C5.37806667,5.23069 5.37963333,5.21689 5.38536667,5.28955667 C5.38613333,5.29915667 5.38536667,5.29965667 5.356,5.30929 C5.3299,5.31779 5.3196,5.31939 5.28053333,5.32032333 C5.2515,5.32112333 5.22983333,5.32005667 5.2202,5.31735667 Z M0.0668816654,4.13875667 C0.0447516654,4.10739 0.0327063321,4.06425667 0.0327063321,4.01685667 L0.0327063321,3.98402333 L0.0603269988,3.97095667 C0.140498999,3.93325667 0.210138332,3.87632333 0.314120999,3.76365667 C0.459843332,3.60589 0.548753332,3.52425667 0.574919999,3.52425667 C0.579513332,3.52425667 0.591166666,3.52662333 0.600969999,3.52942333 C0.618336666,3.53445667 0.618786666,3.53495667 0.624499999,3.55319 C0.632399999,3.57829 0.630103332,3.60349 0.618449999,3.62119 C0.613519999,3.62865667 0.595479999,3.64619 0.578446666,3.66019 C0.536876666,3.69425667 0.507016665,3.73049 0.452726665,3.81269 C0.376476665,3.92809 0.367736665,3.94075667 0.344373332,3.97029 C0.318771332,4.00255667 0.285548332,4.03539 0.265715332,4.04815667 C0.255486999,4.05422333 0.244045332,4.05792333 0.232212332,4.05902333 C0.202518999,4.06239 0.182405665,4.07325667 0.145373332,4.10602333 C0.113998999,4.13375667 0.0917569988,4.14779 0.0789833321,4.14795667 C0.0759019988,4.14795667 0.0704673321,4.14385667 0.0668816654,4.13875667 Z M0.0347233321,3.90065667 C0.0441356654,3.82289 0.0566853321,3.77285667 0.0705796654,3.75765667 C0.0746133321,3.75319 0.0857059988,3.74709 0.0952303321,3.74412333 C0.120385999,3.73605667 0.148174332,3.71789 0.190249332,3.68192333 C0.247675332,3.63279 0.271317999,3.61995667 0.311824332,3.61582333 C0.333449999,3.61369 0.335073332,3.61072333 0.326222665,3.58952333 C0.319499665,3.57339 0.307341999,3.56915667 0.288349665,3.57642333 C0.273054665,3.58225667 0.265490999,3.58779 0.193274999,3.64605667 C0.137249332,3.69122333 0.109516999,3.70572333 0.0748933321,3.70799 L0.0499619988,3.70955667 L0.0463766654,3.69655667 C0.0444156654,3.68942333 0.0427349988,3.66799 0.0427349988,3.64882333 L0.0427349988,3.61409 L0.0536039988,3.61632333 C0.0595986654,3.61749 0.0682823321,3.61879 0.0728763321,3.61919 L0.0812803321,3.61985667 L0.0822336654,3.58549 C0.0831873321,3.55132333 0.0832413321,3.55115667 0.0929346654,3.54612333 C0.106268665,3.53922333 0.141844665,3.53452333 0.180837999,3.53439 L0.213332999,3.53439 L0.241177332,3.51422333 C0.298771332,3.47262333 0.378719999,3.44085667 0.515533332,3.40525667 C0.555199999,3.39495667 0.590493332,3.38565667 0.593969999,3.38465667 C0.599459999,3.38295667 0.599963332,3.38402333 0.597889999,3.39239 C0.593463332,3.41032333 0.566346666,3.46382333 0.548476666,3.48985667 C0.524496666,3.52459 0.474299999,3.57632333 0.413229999,3.62909 C0.385609999,3.65295667 0.325999665,3.70992333 0.280787332,3.75559 C0.173554665,3.86405667 0.136073999,3.89145667 0.0695719988,3.90975667 C0.0328755988,3.91985667 0.0324273654,3.91979 0.0347243321,3.90075667 L0.0347233321,3.90065667 Z M2.70186,3.81769 C2.65726333,3.81152333 2.61351,3.80085667 2.56269333,3.78349 C2.49417667,3.76019 2.39674667,3.70959 2.39674667,3.69745667 C2.39674667,3.68819 2.41932667,3.65995667 2.43389333,3.65095667 C2.46823667,3.62965667 2.50078667,3.63122333 2.59345333,3.65872333 C2.66583667,3.68019 2.70494333,3.68869 2.74040667,3.69079 C2.79856,3.69412333 2.82859,3.68489 2.89027333,3.64445667 C2.93442333,3.61549 2.95498333,3.60499 2.9849,3.59632333 C3.00170667,3.59145667 3.00367,3.58992333 3.00367,3.58182333 C3.00367,3.56705667 3.01666667,3.52439 3.02893667,3.49865667 C3.03526667,3.48555667 3.05319667,3.45582333 3.06871333,3.43262333 C3.10502,3.37865667 3.12121,3.35052333 3.13252667,3.32202333 C3.14205,3.29782333 3.15118333,3.25645667 3.15118333,3.23732333 C3.15118333,3.22649 3.15185667,3.22582333 3.16267,3.22582333 C3.17874667,3.22582333 3.18423667,3.22862333 3.18989667,3.23949 C3.1969,3.25312333 3.19594667,3.26975667 3.18659,3.29775667 C3.17936333,3.31922333 3.17874667,3.32465667 3.18155,3.34359 C3.19258667,3.42035667 3.17589,3.51215667 3.13656,3.59049 C3.11129333,3.64085667 3.05241,3.72349 3.01526667,3.76092333 C2.99235333,3.78395667 2.92075,3.80995667 2.85481,3.81912333 C2.82052333,3.82389 2.74175,3.82315667 2.70186,3.81769 Z M2.75049,3.61599 C2.73390667,3.61149 2.67956333,3.60269 2.62975667,3.59639 C2.50196333,3.58012333 2.48089667,3.57395667 2.42655333,3.53742333 C2.38066667,3.50662333 2.36940667,3.50299 2.27791667,3.48885667 C2.2136,3.47899 2.18312333,3.47105667 2.14906,3.45525667 C2.11522,3.43965667 2.05919667,3.40185667 2.00776333,3.35999 C1.93353,3.29955667 1.88899,3.26762333 1.84137,3.24082333 C1.80651333,3.22095667 1.77198,3.20052333 1.73778,3.17955667 C1.6529,3.12729 1.59810667,3.09692333 1.55861,3.08022333 C1.52342667,3.06542333 1.47446,3.04979 1.45143333,3.04602333 C1.44067667,3.04435667 1.43793,3.04155667 1.42599667,3.02059 C1.40902333,2.99075667 1.38381,2.96442333 1.36044667,2.95212333 C1.34386333,2.94345667 1.33893333,2.94262333 1.30857,2.94255667 C1.26487,2.94255667 1.2447,2.94912333 1.15775,2.99215667 C1.12083,3.01039 1.08379667,3.02799 1.07556,3.03135667 C1.06721333,3.03462333 1.03707,3.04795667 1.00849667,3.06089 C0.979923332,3.07375667 0.946703332,3.08692333 0.934713332,3.09002333 C0.911183332,3.09619 0.872916666,3.09569 0.857059999,3.08912333 L0.848096666,3.08542333 L0.872803332,3.01105667 C0.901936666,2.92332333 0.918186666,2.88872333 0.943396666,2.86082333 C0.974883332,2.82609 1.02760333,2.80569 1.09668,2.80142333 C1.20285,2.79492333 1.36661,2.83879 1.51199667,2.91275667 C1.56791,2.94115667 1.59620333,2.96009 1.63889333,2.99779 C1.70775,3.05862333 1.72814333,3.07085667 1.78231667,3.08355667 C1.85352667,3.10039 1.87991333,3.11762333 2.04003333,3.25219 C2.09494,3.29835667 2.14760333,3.33572333 2.18340333,3.35399 C2.20116333,3.36309 2.20895,3.36482333 2.24178,3.36705667 C2.28918,3.37035667 2.31887333,3.37842333 2.37826,3.40432333 C2.43854333,3.43059 2.45764667,3.43625667 2.50067333,3.44049 C2.56779333,3.44722333 2.58583333,3.45099 2.62477,3.46629 C2.65334333,3.47752333 2.66959,3.48195667 2.68740667,3.48319 C2.72561667,3.48589 2.73402,3.47929 2.78763667,3.40475667 C2.79312667,3.39709 2.81789,3.36919 2.84259667,3.34275667 C2.86730333,3.31625667 2.89711,3.28179 2.90870667,3.26609 C2.95957667,3.19769 2.98691667,3.12132333 2.98691667,3.04759 C2.98691667,3.00715667 2.98260333,2.98139 2.96282667,2.90225667 C2.94165,2.81739 2.93660667,2.78865667 2.93660667,2.75292333 C2.93660667,2.72029 2.94277,2.69255667 2.95599,2.66585667 C2.96478667,2.64802333 2.96506667,2.64549 2.96523667,2.59039 C2.96551333,2.50389 2.97739333,2.45692333 3.03162667,2.32845667 C3.04451333,2.29819 3.05686,2.26772333 3.06865667,2.23702333 L3.07762333,2.21232333 L3.05896667,2.21382333 C3.03420333,2.21589 3.01806667,2.22749 2.99072667,2.26295667 C2.96618667,2.29472333 2.95173333,2.30565667 2.92809,2.31015667 C2.91509333,2.31259 2.90982667,2.31222333 2.904,2.30845667 C2.89167333,2.30049 2.89105667,2.28869 2.90125333,2.25792333 C2.91369333,2.22055667 2.90977,2.20129 2.89408333,2.22245667 C2.88411,2.23595667 2.83598333,2.27585667 2.79912,2.30119 C2.78158333,2.31315667 2.72875333,2.34532333 2.68174667,2.37255667 C2.56471,2.44035667 2.54269333,2.45562333 2.49395,2.50309 C2.45400333,2.54202333 2.45064333,2.54442333 2.42134333,2.55609 C2.38033333,2.57245667 2.33881667,2.58249 2.25253667,2.59699 C2.14463333,2.61515667 2.12760333,2.62005667 2.03628,2.65919 C1.92770333,2.70579 1.89554667,2.71395667 1.82164667,2.71385667 C1.76153333,2.71372333 1.65867,2.70422333 1.65497333,2.69839 C1.65328,2.69505667 1.65237667,2.69139 1.65234,2.68762333 C1.65228333,2.67765667 1.63486,2.64265667 1.61609,2.61492333 C1.5762,2.55575667 1.55894667,2.50505667 1.53132667,2.36595667 C1.50421,2.22919 1.49939,2.21225667 1.47143333,2.15729 C1.44431667,2.10392333 1.43843667,2.08055667 1.42941667,1.99018 C1.42045,1.8997 1.41070333,1.85868667 1.39087,1.82770667 C1.38543667,1.81930333 1.36504333,1.79745333 1.34549,1.77935667 C1.30722333,1.74372333 1.29983,1.73274333 1.29349667,1.70176333 C1.28756,1.67291 1.28251667,1.66456 1.25372,1.63638 C1.22851,1.61173 1.22716333,1.60948667 1.17775,1.51256333 C1.09965,1.35911 1.06626,1.30628 1.01488333,1.25496 L0.990569999,1.2307 L0.980316666,1.23669667 C0.963059999,1.24678 0.949279999,1.26824 0.943339999,1.29412333 C0.940426666,1.30700667 0.936506666,1.34443333 0.934656666,1.37726333 C0.930959999,1.44231 0.924403332,1.48304 0.914486666,1.50248 C0.908493332,1.51419 0.908379999,1.51671 0.912806666,1.53968 C0.924683332,1.60215 0.922496666,1.67795 0.905969999,1.77386667 C0.901376666,1.80064667 0.884119999,1.87835333 0.867706666,1.94659333 C0.831289999,2.09769 0.824846666,2.13252333 0.820533332,2.20139 C0.814369999,2.30039 0.805853332,2.33545667 0.782489999,2.35882333 C0.766413332,2.37485667 0.749603332,2.38085667 0.720303332,2.38085667 L0.699573332,2.38085667 L0.692403332,2.36489 C0.682543332,2.34325667 0.680636666,2.28895667 0.687919999,2.23659 C0.704503332,2.11662333 0.713916666,2.02229 0.715596666,1.95998 L0.717333332,1.89292 L0.733579999,1.84261 C0.761313332,1.75661 0.779409999,1.67358 0.786916666,1.59811667 C0.791399999,1.55290333 0.791623332,1.49895 0.787363332,1.49895 C0.785626666,1.49895 0.775206666,1.50724333 0.764226666,1.51744 C0.727696666,1.55116667 0.709376666,1.59716333 0.680019999,1.72831667 C0.660409999,1.81588667 0.637329999,1.90211 0.622313332,1.94362333 C0.605506666,1.99006667 0.568083332,2.06239 0.551049999,2.08132333 C0.532843332,2.10155667 0.513513332,2.11059 0.495023332,2.10742333 C0.483706665,2.10552333 0.481689999,2.10362333 0.476313332,2.08969 C0.468133332,2.06849 0.468916665,2.03579 0.478106665,2.01195667 C0.482026665,2.00182333 0.495923332,1.97539 0.508919999,1.95326 C0.561583332,1.86361667 0.564049999,1.85443 0.561469999,1.75549 C0.557996666,1.62590333 0.563713332,1.60842333 0.642596666,1.50898 C0.679796666,1.46203 0.696436666,1.43054333 0.699013332,1.40258667 C0.700303332,1.38835667 0.699573332,1.38169 0.696603332,1.37984 C0.694249999,1.37844 0.681926666,1.37648 0.669206666,1.37558333 C0.647806666,1.37407 0.644333332,1.3748 0.621923332,1.38589 C0.605003332,1.39429667 0.587243332,1.40757333 0.563206666,1.42981667 C0.518946666,1.47082667 0.503819999,1.48304 0.485893332,1.49200333 C0.462473332,1.50382333 0.423649999,1.51217333 0.366336665,1.51760667 C0.260895999,1.52763667 0.239886665,1.53592667 0.160106665,1.59940333 C0.119824665,1.63139333 0.102064332,1.64181333 0.0761806654,1.64842667 C0.0516416654,1.6547 0.0267665988,1.65234667 0.0143849988,1.6426 C-0.00270275791,1.62915333 -0.00477563458,1.59178333 0.00928666542,1.55043667 L0.0162898988,1.52982 L0.0353383321,1.52746667 C0.0972053321,1.51914333 0.157526665,1.50183667 0.214394999,1.47609333 C0.255293665,1.45721 0.297760665,1.43172 0.383086665,1.37485333 C0.528023332,1.27826667 0.590379999,1.24818 0.686296666,1.22863 C0.735596666,1.21854333 0.738176666,1.21501333 0.718343332,1.18386333 C0.698566666,1.15282667 0.703269999,1.14145333 0.736829999,1.13938 C0.766299999,1.13758667 0.781483332,1.12946333 0.807253332,1.10178667 C0.875043332,1.02895333 0.879806666,1.02503333 0.918969999,1.00990667 C0.962836666,0.99293 1.02625667,0.974666667 1.0671,0.967213333 C1.09141333,0.962733333 1.10054667,0.962396667 1.11404667,0.965476667 C1.15887,0.975506667 1.20604333,1.01864667 1.23467,1.07562333 C1.26599,1.13803667 1.26425333,1.20274333 1.23024333,1.24101 C1.22167333,1.25070333 1.21584667,1.25462333 1.21220333,1.25322333 C1.20716333,1.25131667 1.19304333,1.22437 1.16525667,1.16358333 C1.14374333,1.11657667 1.12710333,1.10520333 1.09410333,1.11484 C1.07987333,1.11893 1.07449333,1.12240333 1.07057333,1.12996667 C1.06004,1.15030333 1.06413,1.15652333 1.09903333,1.17299333 C1.12402,1.18476 1.12783,1.18991333 1.14279,1.23238 C1.14850333,1.24851667 1.15707667,1.26767667 1.16183667,1.27490333 C1.17035333,1.28779 1.19668667,1.30661333 1.24033,1.33126667 C1.28324333,1.35541333 1.31590667,1.40118667 1.35994333,1.49889333 C1.40723,1.60394 1.41759333,1.62640667 1.45866,1.71347 C1.53922333,1.88446 1.60096333,2.03249 1.6385,2.14469 C1.65895,2.20565667 1.66595333,2.23472333 1.68780333,2.34895667 C1.71133333,2.47142333 1.73424667,2.53162333 1.77335333,2.57345667 C1.8026,2.60472333 1.82758667,2.61655667 1.86837333,2.61829 C1.91846,2.62052333 1.94311,2.61195667 2.04126667,2.55862333 C2.10188667,2.52565667 2.12261333,2.51872333 2.21617667,2.50005667 C2.30357667,2.48265667 2.33063667,2.47412333 2.36789333,2.45262333 C2.40795,2.42945667 2.53272,2.34382333 2.55636333,2.32319 C2.60017333,2.28509 2.62886,2.24309 2.63972667,2.20122333 C2.64908333,2.16535667 2.64544333,2.10749 2.6311,2.06305667 C2.62622667,2.04799 2.61440333,2.04279 2.57277667,2.03729 C2.53064667,2.03179 2.51703333,2.02519 2.51277333,2.00809 C2.50941333,1.99455667 2.51647333,1.97701333 2.54106667,1.93818667 C2.55272,1.91975333 2.55462667,1.91426333 2.55339333,1.90289333 C2.54857333,1.8574 2.50588333,1.82266333 2.43013667,1.80260667 C2.41265667,1.7979 2.37428,1.78882333 2.34475333,1.78232667 C2.27254,1.76641333 2.24329333,1.75616333 2.21388,1.73649667 C2.1713,1.70803667 2.15225333,1.68237667 2.10508,1.58971 C2.05247,1.48662333 2.02787667,1.46617333 1.94501333,1.45698667 C1.87627333,1.44936667 1.86086333,1.4413 1.81514667,1.38886 C1.77453,1.34236 1.76237333,1.33423667 1.72113667,1.32633667 C1.68472,1.31939 1.67547667,1.31384333 1.63413,1.27423333 C1.60555667,1.24694667 1.58068333,1.22784333 1.52656333,1.19165 C1.44644667,1.13803667 1.37787,1.09584667 1.32576667,1.06800333 L1.28996667,1.0489 L1.29209667,1.03747 C1.29417,1.02654333 1.29288,1.02475333 1.25809,0.99041 C1.21769667,0.95063 1.18626333,0.92654 1.10693333,0.874323333 C1.08176,0.85799 1.05717,0.84078 1.03320333,0.822723333 L1.01354,0.8067 L0.989446666,0.80743 C0.956896666,0.808436667 0.950623332,0.80558 0.945749999,0.787596667 C0.935886666,0.750506667 0.917343332,0.73852 0.848543332,0.724513333 C0.822606666,0.719246667 0.794423332,0.71185 0.785909999,0.70804 C0.777279999,0.70423 0.754646666,0.686863333 0.735036666,0.668936667 C0.695036666,0.632406667 0.680693332,0.624786667 0.631949999,0.614086667 C0.581976666,0.60316 0.569649999,0.595316667 0.537379999,0.55386 C0.517883332,0.528816667 0.500626665,0.518003333 0.475303332,0.514923333 C0.426283332,0.508983333 0.387343332,0.49492 0.280616999,0.444833333 C0.239157999,0.425336667 0.180331665,0.400853333 0.149965999,0.390433333 C0.0567959988,0.358443333 0.0239651321,0.33749 0.0141606654,0.303763333 C0.00967876542,0.288413333 0.00967876542,0.284376667 0.0143282988,0.26673 C0.0188103654,0.249586667 0.0306876988,0.22471 0.0344413321,0.22471 C0.0351136654,0.22471 0.0450859988,0.2302 0.0566273321,0.236923333 C0.117862999,0.27278 0.199099665,0.305443333 0.307564332,0.337546667 C0.594413332,0.422593333 0.606739999,0.428083333 0.706686666,0.51509 C0.766523332,0.567193333 0.802826666,0.59386 0.837339999,0.611006667 C0.865239999,0.6249 0.866473332,0.62518 0.909443332,0.627083333 C0.964403332,0.62955 0.967543332,0.631116667 1.02216667,0.682996667 C1.04915333,0.709326667 1.07886333,0.73271 1.11079667,0.75275 C1.13657,0.769276667 1.17052,0.791966667 1.18620667,0.803226667 C1.22934667,0.834153333 1.24794667,0.84547 1.32431,0.88721 C1.44330667,0.9522 1.45496,0.962116667 1.51098667,1.04525667 C1.56281,1.12223667 1.58264333,1.13646667 1.6478,1.14324667 C1.66595333,1.14515 1.68573,1.14812 1.69183667,1.14991333 C1.72007333,1.15814667 1.74461333,1.18235 1.78259667,1.23938333 C1.7975,1.26174 1.81565333,1.28543667 1.82304667,1.29204667 C1.83638,1.30409333 1.83643667,1.30409333 1.86820333,1.30409333 C1.91549,1.30409333 1.94792667,1.31373 1.98765,1.33944667 C2.01829333,1.35933333 2.04199333,1.38197 2.09667333,1.44354 C2.12289333,1.47306667 2.15191667,1.50416 2.16116,1.51267667 C2.18127333,1.53110667 2.18463333,1.54388 2.17740667,1.57430333 C2.17471667,1.58539667 2.17320333,1.59509 2.17404667,1.59593 C2.17488667,1.59671333 2.17964667,1.59598333 2.18469,1.59424667 C2.1913,1.59200667 2.19712667,1.58472333 2.20558667,1.56836333 C2.21203,1.55581333 2.21959333,1.54416 2.22239667,1.54242333 C2.23102333,1.53699 2.23791333,1.53884 2.24194667,1.54774667 C2.24715667,1.55912 2.26867333,1.56808333 2.29780333,1.57088333 C2.34257,1.57531 2.34688333,1.57738333 2.37736,1.60909333 C2.3926,1.62506 2.42010667,1.65968333 2.43842667,1.68607333 C2.45680333,1.71246 2.47663667,1.73963333 2.48252,1.74641333 L2.49316333,1.75874 L2.5279,1.75908 C2.58168333,1.75947333 2.60331,1.76927667 2.67166,1.82379 C2.73004,1.87040333 2.72292333,1.86771333 2.78987333,1.86894667 C2.85447333,1.87017667 2.87968333,1.87443667 2.96512,1.89875 L3.01537667,1.91303667 L3.03386333,1.95068667 C3.04395,1.97141667 3.05549,1.99158333 3.05941333,1.99549 L3.06658333,2.00262333 L3.08793,1.99248 C3.12081667,1.97685 3.15432,1.97141667 3.23034667,1.96928667 L3.29774333,1.96738 L3.31606333,1.98122 C3.37563333,2.02615667 3.46206667,2.04072333 3.61976667,2.03235667 C3.74616667,2.02569 3.857,2.02402333 3.89283333,2.02829 C3.95266667,2.03532333 3.9961,2.05012333 4.02753333,2.07412333 L4.04293333,2.08589 L4.0543,2.06149 C4.07196667,2.02362333 4.07453333,2.02212333 4.1226,2.02115667 L4.16293333,2.02032333 L4.1978,2.00279 C4.21853333,1.99237333 4.25566667,1.96839333 4.28956667,1.94346 C4.3984,1.86357 4.44876667,1.84575333 4.53653333,1.85595 C4.59193333,1.86245 4.62603333,1.86239333 4.6759,1.85595 C4.79816667,1.83939333 4.91573333,1.79798 5.02136667,1.73426333 C5.04763333,1.71835 5.05866667,1.71353333 5.06853333,1.71353333 C5.09173333,1.71353333 5.12073333,1.70642 5.1464,1.69448333 C5.16023333,1.68804333 5.18966667,1.67599667 5.21173333,1.66776 C5.27056667,1.64568667 5.29536667,1.63156667 5.32276667,1.60456333 C5.34183333,1.58579667 5.34973333,1.57459 5.3621,1.54921 C5.3824,1.50752667 5.38866667,1.47643333 5.38853333,1.41844667 C5.38843333,1.35346 5.37633333,1.2869 5.35016667,1.20656 L5.33956667,1.17406667 L5.3221,1.16734333 C5.28496667,1.15317 5.25783333,1.13025333 5.2059,1.06907333 L5.1751,1.03277 L5.14483333,1.03478667 C5.11413333,1.03680333 5.10473333,1.03574 5.00623333,1.01898667 C4.9347,1.00683 4.90896667,1.01338667 4.82616667,1.06465 C4.7995,1.08105333 4.77263333,1.09721 4.74566667,1.11311 C4.6298,1.18123667 4.59846667,1.21054 4.573,1.27463 C4.5499,1.33278667 4.53236667,1.35855667 4.50946667,1.36808 C4.50093333,1.37155667 4.49993333,1.37385333 4.49843333,1.39267667 C4.49406667,1.44573333 4.47416667,1.47021667 4.4406,1.46394 C4.42586667,1.46114 4.4091,1.44719 4.403,1.43245333 C4.39623333,1.41626333 4.39716667,1.36769 4.40526667,1.31950667 C4.4089,1.29737667 4.41293333,1.26684333 4.41416667,1.25155 L4.4164,1.22387333 L4.40423333,1.22891333 C4.37913333,1.23944667 4.3243,1.23311667 4.28416667,1.21507667 L4.26503333,1.20650333 L4.25046667,1.21659 C4.2425,1.22208 4.2179,1.24269667 4.19576667,1.26236333 C4.15253333,1.30074 4.12656667,1.31614667 4.0976,1.32074 C4.06186667,1.3264 4.0343,1.31754667 3.9618,1.27721 C3.89703333,1.24118333 3.86236667,1.23238667 3.82186667,1.2418 C3.80993333,1.24460333 3.8,1.24662 3.7998,1.24628333 C3.7901,1.22740333 3.76573333,1.19345 3.72963333,1.14852 C3.70443333,1.11714333 3.67766667,1.08112 3.6701,1.06840333 C3.65663333,1.04599333 3.65643333,1.04515333 3.66186667,1.03658 C3.6754,1.01506667 3.67586667,1.01321667 3.66963333,1.00022 C3.6593,0.981746667 3.6483,0.963673333 3.6366,0.946043333 C3.62173333,0.923073333 3.6069,0.8973 3.6038,0.888896667 C3.60066667,0.880436667 3.5925,0.84632 3.5856,0.81315 C3.5526,0.65376 3.54056667,0.60782 3.51686667,0.550223333 C3.5047,0.520866667 3.49163333,0.50126 3.4536,0.45515 C3.40123333,0.391673333 3.37416667,0.334136667 3.31847333,0.16791 L3.28429667,0.0659433333 L3.29214,0.0511533333 C3.2964,0.04303 3.30928333,0.0281833333 3.32071333,0.01821 C3.341,0.000336666667 3.34176667,2.96059473e-16 3.3623,2.96059473e-16 C3.381,2.96059473e-16 3.38456667,0.00112333333 3.39713333,0.0113166667 C3.42223333,0.03171 3.45036667,0.04314 3.52173333,0.0621333333 C3.61113333,0.0858333333 3.63983333,0.103256667 3.65973333,0.14589 C3.67203333,0.17228 3.67093333,0.17592 3.64813333,0.182306667 C3.6097,0.19312 3.57406667,0.18903 3.5051,0.165946667 C3.45826667,0.15026 3.43776667,0.147626667 3.43113333,0.156313333 C3.42793333,0.16202 3.42623333,0.16847 3.42626667,0.175023333 C3.4262,0.185893333 3.42816667,0.18903 3.44206667,0.200236667 C3.48033333,0.230826667 3.4782,0.22724 3.56813333,0.41246 C3.5838,0.44473 3.60323333,0.480976667 3.61136667,0.492966667 C3.62073333,0.505796667 3.6272,0.52049 3.63036667,0.53605 C3.6326,0.547703333 3.64213333,0.577903333 3.65136667,0.603056667 C3.66846667,0.649446667 3.6777,0.68732 3.6777,0.71113 C3.6777,0.720486667 3.68146667,0.730403333 3.6911,0.74609 C3.7087,0.774886667 3.73103333,0.819986667 3.76343333,0.89198 C3.83906667,1.06022333 3.88756667,1.12588333 3.96646667,1.16695 L3.99256667,1.18056667 L4.02876667,1.16241333 C4.05603333,1.14917 4.08376667,1.13687667 4.1119,1.12555 C4.25633333,1.06789667 4.34496667,1.07232333 4.3842,1.13916333 L4.39286667,1.15406667 L4.4007,1.14454 C4.40506667,1.13933 4.41753333,1.12224333 4.4284,1.10655667 C4.47176667,1.04414333 4.49493333,1.02610333 4.55613333,1.00716667 C4.6051,0.991983333 4.63866667,0.976073333 4.6527,0.961506667 C4.66533333,0.94851 4.66463333,0.943746667 4.649,0.933046667 C4.6251,0.916686667 4.6023,0.924976667 4.54446667,0.970973333 C4.5002,1.00627 4.4792,1.01686 4.45656667,1.01540333 L4.44053333,1.01433667 L4.44143333,0.999883333 C4.44283333,0.978593333 4.4532,0.959376667 4.4815,0.92649 C4.52576667,0.87478 4.53943333,0.84867 4.5395,0.815783333 L4.5395,0.79976 L4.51876667,0.800883333 C4.48816667,0.80262 4.4633,0.796623333 4.40363333,0.77298 C4.34603333,0.75018 4.31343333,0.742953333 4.28373333,0.746426667 L4.2661,0.748496667 L4.2615,0.735613333 C4.248,0.697683333 4.2178,0.668606667 4.1555,0.633423333 C4.08323333,0.592523333 4.07146667,0.584903333 4.04953333,0.56423 C4.0211,0.537396667 4.00976667,0.51364 4.00706667,0.475376667 L4.0053,0.448483333 L4.02423333,0.45078 C4.0527,0.454366667 4.09783333,0.467306667 4.13536667,0.482713333 C4.1798,0.500866667 4.22693333,0.527533333 4.31813333,0.586026667 C4.41286667,0.64687 4.40193333,0.64009 4.43803333,0.660146667 C4.4916,0.68984 4.52676667,0.703063333 4.5689,0.70917 C4.62106667,0.716733333 4.63613333,0.721886667 4.66033333,0.740263333 L4.7001,0.770403333 C4.72336667,0.788053333 4.7413,0.793373333 4.79283333,0.797856667 C4.84186667,0.802113333 4.85676667,0.806373333 4.8906,0.8257 C4.93453333,0.850856667 4.9427,0.852146667 5.00013333,0.842956667 C5.04333333,0.83601 5.0711,0.83909 5.15643333,0.860213333 C5.23426667,0.879486667 5.28713333,0.888616667 5.3207,0.888616667 C5.34653333,0.888616667 5.3468,0.888673333 5.35096667,0.898756667 C5.3578,0.91523 5.37426667,0.933493333 5.40316667,0.956743333 C5.4159,0.966693333 5.42793333,0.977493333 5.4392,0.98907 C5.44406667,0.994896667 5.4601,1.02414333 5.47473333,1.05394667 C5.49206667,1.08957667 5.5122,1.12378333 5.53493333,1.15625 C5.5857,1.22869 5.58386667,1.22152 5.58423333,1.34802333 C5.58446667,1.41604 5.58593333,1.45929 5.58843333,1.46948667 C5.59063333,1.47822667 5.59853333,1.49862 5.60603333,1.51475667 C5.6136,1.53106 5.6205,1.55173333 5.6215,1.56103333 C5.6251,1.59425667 5.60436667,1.64675 5.56923333,1.69342 C5.54683333,1.72317 5.49863333,1.76888667 5.46893333,1.78866333 C5.43263333,1.81264333 5.41673333,1.81763 5.36433333,1.82121333 C5.29196667,1.82625667 5.2723,1.83426667 5.2017,1.88760333 C5.17956667,1.9043 5.15286667,1.92262 5.14233333,1.92822333 C5.11906667,1.94060333 5.104,1.95774667 5.08636667,1.99164333 C5.06326667,2.03602333 5.05676667,2.06855667 5.04746667,2.18632333 C5.04123333,2.26532333 5.0371,2.28755667 5.0157,2.35702333 C4.9937,2.42852333 4.98983333,2.44892333 4.9837,2.52545667 C4.97546667,2.62869 4.9686,2.66329 4.9501,2.69485667 C4.9416,2.71069 4.92666667,2.72205667 4.90913333,2.72595667 C4.88806667,2.73162333 4.872,2.72619 4.8548,2.70749 C4.82643333,2.67679 4.81093333,2.62482333 4.80846667,2.55245667 C4.80623333,2.48635667 4.8131,2.44685667 4.84486667,2.34349 C4.85243333,2.31882333 4.86533333,2.27329 4.87346667,2.24225667 C4.89166667,2.17312333 4.90963333,2.12292333 4.94526667,2.04212333 C4.98106667,1.96088333 4.98896667,1.94127667 4.98706667,1.93814 C4.98623333,1.93674 4.98013333,1.93461 4.97356667,1.93337667 C4.95536667,1.92995667 4.9283,1.93948333 4.90006667,1.95926 C4.84623333,1.99695667 4.7548,2.06905667 4.7368,2.08799 C4.70096667,2.12575667 4.688,2.16362333 4.67013333,2.28245667 C4.65043333,2.41429 4.6451,2.43149 4.607,2.48809 C4.56856667,2.54512333 4.56576667,2.55202333 4.56583333,2.58992333 C4.56586667,2.61335667 4.5689,2.63419 4.57836667,2.67605667 C4.59333333,2.74182333 4.59513333,2.78102333 4.58446667,2.80809 L4.57796667,2.82462333 L4.5428,2.83555667 C4.50526667,2.84725667 4.4837,2.84955667 4.475,2.84272333 C4.46436667,2.83442333 4.4485,2.80445667 4.43886667,2.77425667 C4.40503333,2.66865667 4.4257,2.53222333 4.49903333,2.37739 C4.51873333,2.33472333 4.5373,2.29152333 4.55466667,2.24785667 C4.59333333,2.15009 4.6024,2.13329 4.62946667,2.10975667 C4.6725,2.07225667 4.68973333,2.05502333 4.69376667,2.04532333 C4.7001,2.02995667 4.69636667,2.02535667 4.67736667,2.02535667 C4.66346667,2.02535667 4.65373333,2.02905667 4.61606667,2.04855667 C4.56706667,2.07389 4.55053333,2.07949 4.52423333,2.07972333 C4.50723333,2.07989 4.50666667,2.08022333 4.5001,2.09372333 C4.49633333,2.10129 4.4704,2.14599 4.4425,2.19305667 C4.3635,2.32579 4.32416667,2.40762333 4.30856667,2.47132333 C4.2988,2.51122333 4.29533333,2.54455667 4.2913,2.63902333 C4.28586667,2.76495667 4.2784,2.81105667 4.257,2.85122333 C4.23863333,2.88562333 4.2002,2.91369 4.1657,2.91785667 C4.15746667,2.91882333 4.15413333,2.91672333 4.1449,2.90462333 C4.12086667,2.87319 4.11816667,2.83402333 4.13353333,2.73892333 C4.13896667,2.70519 4.14586667,2.64815667 4.14876667,2.61219 C4.15913333,2.48389 4.16636667,2.45742333 4.21096667,2.38415667 C4.2337,2.34679 4.241,2.32685667 4.241,2.30235667 C4.241,2.28012333 4.2416,2.27929 4.30513333,2.21472333 C4.3429,2.17635667 4.35666667,2.15999 4.36296667,2.14599 C4.37213333,2.12555667 4.37753333,2.09915667 4.37253333,2.09915667 C4.3666,2.09915667 4.29656667,2.16152333 4.26116667,2.19832333 C4.10933333,2.35619 3.99706667,2.55745667 3.95963333,2.73885667 C3.9557,2.75779 3.94943333,2.80002333 3.94563333,2.83275667 C3.9351,2.92379 3.92803333,2.94815667 3.90613333,2.96895667 C3.88876667,2.98549 3.8556,2.98469 3.81383333,2.96675667 L3.79743333,2.95969 L3.79933333,2.91589 C3.80063333,2.88715667 3.8055,2.84949 3.81346667,2.80665667 C3.83083333,2.71309 3.83513333,2.67712333 3.8352,2.62355667 L3.83526667,2.57625667 L3.86293333,2.53412333 C3.87816667,2.51095667 3.9004,2.47585667 3.9124,2.45625667 C3.94793333,2.39799 3.9732,2.36712333 4.0194,2.32545667 C4.0431,2.30415667 4.0695,2.27782333 4.07806667,2.26682333 C4.09346667,2.24722333 4.1109,2.21355667 4.115,2.19559 C4.1175,2.18442333 4.11323333,2.18382333 4.08743333,2.19149 C4.06366667,2.19855667 4.03733333,2.22375667 4.00636667,2.26902333 C3.99263333,2.28902333 3.9524,2.34045667 3.91686667,2.38332333 C3.8069,2.51609 3.764,2.57715667 3.7246,2.65745667 C3.67643333,2.75565667 3.65636667,2.83772333 3.65186667,2.95549 L3.64976667,3.01209 L3.63513333,3.01852333 C3.61496667,3.02749 3.57943333,3.03455667 3.5545,3.03465667 C3.5349,3.03465667 3.53333333,3.03409 3.52863333,3.02502333 C3.51953333,3.00749 3.51003333,2.96649 3.5066,2.93052333 C3.50073333,2.86809 3.51286667,2.77055667 3.5355,2.69885667 C3.5457,2.66635667 3.5498,2.65995667 3.5827,2.62429 C3.61446667,2.58982333 3.62063333,2.57692333 3.62066667,2.54489 C3.62073333,2.52339 3.62206667,2.51762333 3.63076667,2.50249 C3.64583333,2.47619 3.67646667,2.44532333 3.74013333,2.39215667 C3.81356667,2.33089 3.8385,2.29965667 3.84846667,2.25635667 C3.852,2.24095667 3.85333333,2.19642333 3.8502,2.19642333 C3.84673333,2.19642333 3.79296667,2.22779 3.76963333,2.24352333 C3.6445,2.32779 3.5391,2.45602333 3.46973333,2.60852333 C3.44163333,2.67045667 3.4355,2.68932333 3.4095,2.79455667 C3.39656667,2.84692333 3.38053333,2.90542333 3.37386667,2.92452333 C3.34206667,3.01619 3.30536333,3.05595667 3.25785333,3.05035667 C3.23421333,3.04755667 3.20536,3.03309 3.20087667,3.02179 C3.19897333,3.01689 3.19662,2.99555667 3.19572333,2.97432333 C3.19292,2.90692333 3.20631,2.85902333 3.26177667,2.73819 C3.30648333,2.64069 3.31315,2.61649 3.30827667,2.56939 C3.30435667,2.53075667 3.30827667,2.51502333 3.33007,2.48355667 C3.37063333,2.42472333 3.45443333,2.33339 3.4797,2.32052333 C3.49526667,2.31342333 3.51116667,2.30712333 3.52733333,2.30162333 C3.5852,2.28152333 3.60723333,2.26169 3.60723333,2.22975667 C3.60723333,2.22172333 3.60483333,2.21875667 3.59393333,2.21322333 C3.54763333,2.18959 3.4791,2.19115667 3.38173333,2.21809 L3.29791333,2.24129 C3.27387,2.24785667 3.24957333,2.25349 3.22508,2.25809 C3.19634,2.26295667 3.19213667,2.26472333 3.18031667,2.27602333 C3.14053667,2.31439 3.10815667,2.38449 3.09403667,2.46269 C3.07661333,2.55972333 3.07767667,2.64982333 3.09924667,2.89892333 C3.10373,2.95052333 3.10832333,3.01092333 3.10955667,3.03302333 C3.11084333,3.05742333 3.11347667,3.07612333 3.11628,3.08055667 C3.11874333,3.08452333 3.1295,3.09102333 3.14014667,3.09505667 C3.16182667,3.10312333 3.16793333,3.10725667 3.16793333,3.11372333 C3.16793333,3.11612333 3.15813,3.13265667 3.14608333,3.15042333 C3.11947333,3.18962333 3.09667,3.23612333 3.06064667,3.32475667 C3.01358333,3.44039 2.98837333,3.48809 2.95044333,3.53305667 C2.91615667,3.57369 2.86360333,3.60712333 2.81430333,3.61972333 C2.78948333,3.62612333 2.78746667,3.62602333 2.75043333,3.61599 L2.75049,3.61599 Z M0.643269999,3.46449 C0.664166666,3.42739 0.694476666,3.38902333 0.736833332,3.34622333 C0.802659999,3.27972333 0.867089999,3.23215667 1.01348333,3.14205667 C1.10956667,3.08295667 1.17147667,3.04195667 1.21713667,3.00715667 L1.25691333,2.97679 L1.27338667,2.97875667 C1.29624333,2.98149 1.32190333,2.99442333 1.34493,3.01499 C1.3679,3.03545667 1.36806667,3.03792333 1.34885,3.07702333 C1.34022333,3.09462333 1.33075667,3.10692333 1.31243667,3.12435667 C1.28279667,3.15249 1.26554333,3.16289 1.18049667,3.20409 C1.14486333,3.22135667 1.10531,3.24235667 1.09253667,3.25085667 C1.07068667,3.26539 1.03527667,3.29982333 1.03527667,3.30662333 C1.03527667,3.30829 1.02648333,3.30969 1.01567,3.30969 C0.984069999,3.30969 0.968943332,3.31619 0.935049999,3.34442333 C0.845016666,3.41932333 0.746413332,3.46655667 0.646629999,3.48249 L0.631839999,3.48482333 L0.643269999,3.46449 Z M1.73615333,2.87359 C1.68052,2.86669 1.61928667,2.85069 1.58791,2.83482333 L1.57216667,2.82685667 L1.57866667,2.81225667 C1.58219667,2.80419 1.58757333,2.78189 1.59048667,2.76272333 C1.59407333,2.73985667 1.59777,2.72645667 1.60124667,2.72372333 C1.61217,2.71515667 1.62208667,2.71895667 1.64164,2.73909 L1.66068667,2.75869 L1.69004333,2.76272333 C1.73615333,2.76899 1.81195667,2.76769 1.85795333,2.75985667 C1.90753667,2.75135667 1.93532333,2.74429 2.01572,2.71952333 C2.05101667,2.70872333 2.09236333,2.69665667 2.10765667,2.69279 C2.13959,2.68472333 2.20222667,2.67482333 2.20480333,2.67739 C2.20833333,2.68092333 2.19158333,2.72429 2.17993,2.74182333 C2.14037667,2.80139 2.05168667,2.84635667 1.93229667,2.86732333 C1.88635667,2.87539 1.77856333,2.87879 1.73615333,2.87359 Z M5.69293333,2.10962333 C5.674,2.10345667 5.66223333,2.09469 5.64213333,2.07175667 C5.61266667,2.03832333 5.59943333,2.02622333 5.58493333,2.01942333 C5.57803333,2.01622333 5.57236667,2.01169 5.57236667,2.00935667 C5.5721,1.99792333 5.58453333,1.97898 5.60913333,1.95332333 C5.64723333,1.91354333 5.6518,1.89942333 5.64066667,1.85651 C5.634,1.83085 5.636,1.81107333 5.647,1.79443333 C5.6517,1.78737667 5.6711,1.76810333 5.69013333,1.75168667 C5.73316667,1.71459667 5.74133333,1.70098333 5.73826667,1.67157 C5.7355,1.6458 5.73283333,1.63453667 5.71086667,1.55761667 C5.69943333,1.51707 5.689,1.47625 5.67953333,1.4352 C5.67236667,1.40293 5.65516667,1.32892 5.6414,1.27076667 C5.567,0.95708 5.54503333,0.79797 5.55006667,0.608603333 C5.5512,0.564343333 5.55316667,0.524566667 5.55433333,0.520196667 C5.5564,0.51252 5.5573,0.512353333 5.58363333,0.513866667 C5.601,0.514873333 5.6257,0.51986 5.6522,0.527703333 C5.7134,0.545743333 5.73233333,0.54395 5.7683,0.516833333 C5.79183333,0.499073333 5.80483333,0.492856667 5.82306667,0.490726667 C5.8655,0.485796667 5.92123333,0.52804 6.03036667,0.647596667 C6.08333333,0.70564 6.11906667,0.734603333 6.2286,0.808503333 C6.27526667,0.840043333 6.3259,0.875733333 6.3411,0.887946667 C6.35623333,0.900103333 6.42603333,0.96683 6.49606667,1.03613333 C6.56613333,1.10549333 6.6507,1.18695333 6.68386667,1.21726333 C6.71706667,1.24751667 6.7934,1.32102 6.8534,1.38057667 L6.96256667,1.48887333 L6.99256667,1.48881667 C7.04153333,1.48876 7.06733333,1.47884333 7.13403333,1.43469667 C7.1784,1.40528333 7.20046667,1.39503 7.28483333,1.36455333 C7.3808,1.32981667 7.39863333,1.32079667 7.4417,1.28471667 C7.47296667,1.25849667 7.48676667,1.24975667 7.53223333,1.22734667 C7.58206667,1.20269667 7.73193333,1.13894 7.79376667,1.11602333 C7.8495,1.09540667 7.939,1.08011333 7.95423333,1.08863 C7.95926667,1.09143 7.959,1.09339 7.95113333,1.10913333 C7.93623333,1.13910667 7.91653333,1.15104 7.8402,1.17636333 C7.78546667,1.19457333 7.7039,1.22975667 7.65616667,1.25575333 C7.62223333,1.27429667 7.62313333,1.27693 7.66323333,1.27737667 C7.69646667,1.27766 7.71436667,1.27144 7.78773333,1.23401333 C7.82313333,1.21597333 7.86166667,1.19793333 7.87326667,1.19401333 C7.901,1.18448667 7.93163333,1.18168667 7.952,1.18684 C7.96896667,1.19104333 8,1.20891333 8,1.21440667 C8,1.22348 7.9615,1.25670333 7.9238,1.28018 C7.88553333,1.30399 7.85893333,1.32690333 7.8457,1.34741 C7.84083333,1.35503 7.8402,1.35508333 7.81746667,1.35116333 C7.79013333,1.3464 7.74576667,1.34869667 7.71663333,1.35637333 C7.6929,1.36358 7.66943333,1.37157667 7.64626667,1.38035333 C7.5838,1.40354667 7.54643333,1.41200667 7.44843333,1.42511667 C7.40603333,1.43072 7.3588,1.43833667 7.3436,1.44192333 C7.31026667,1.44976667 7.26096667,1.46881667 7.26466667,1.47229 C7.2784,1.48528667 7.35503333,1.4896 7.4086,1.48035667 C7.4485,1.47346667 7.55733333,1.44506 7.601,1.43015667 C7.67483333,1.40494667 7.7145,1.39951333 7.74016667,1.41133333 C7.76353333,1.42203333 7.7749,1.44203667 7.77523333,1.47279333 L7.77533333,1.48853667 L7.7527,1.49526 C7.60783333,1.53784 7.38463333,1.5756 7.137,1.59941 C7.09843333,1.60310667 7.065,1.60775667 7.0626,1.60972 C7.0576,1.61386667 7.05103333,1.64131667 7.05103333,1.6579 C7.05103333,1.6816 7.04583333,1.68843333 7.01816667,1.70104 C6.93116667,1.74054 6.85036667,1.75269667 6.7711,1.73818333 C6.73663333,1.73191 6.74336667,1.73723 6.6788,1.66535333 C6.63696667,1.61885 6.59006667,1.57375 6.476,1.47038333 C6.3301,1.33833333 6.2859,1.29166333 6.2077,1.18706333 C6.1552,1.11681 6.12316667,1.08084 6.0613,1.02263 C5.91573333,0.88576 5.84536667,0.808613333 5.80863333,0.745866667 C5.79973333,0.73057 5.7926,0.722616667 5.78533333,0.719533333 C5.77956667,0.717126667 5.7643,0.70424 5.75146667,0.69096 C5.72673333,0.665246667 5.70553333,0.65051 5.69333333,0.65051 C5.6837,0.65051 5.67146667,0.676563333 5.66586667,0.709056667 C5.65646667,0.763736667 5.67533333,0.86957 5.72676667,1.05081 C5.75366667,1.14549333 5.75866667,1.17216333 5.76676667,1.26583667 C5.77623333,1.37508667 5.77853333,1.38584333 5.82393333,1.53246 C5.86536667,1.66636 5.88073333,1.73936333 5.88073333,1.80194333 C5.88073333,1.82267 5.87926667,1.82911333 5.87063333,1.84502667 C5.85496667,1.87404667 5.84796667,1.89791333 5.83536667,1.96581667 C5.82236667,2.03562333 5.8149,2.05905667 5.799,2.07992333 C5.7822,2.10212333 5.76396667,2.11035667 5.7299,2.11149 C5.71423333,2.11192333 5.6976,2.11115667 5.69293333,2.10962333 Z M6.8278,1.58411667 C6.84076667,1.57907333 6.8257,1.54153667 6.79686667,1.50702333 C6.7763,1.48243 6.7044,1.41833667 6.58996667,1.32259 C6.40456667,1.16745667 6.35073333,1.1144 6.27196667,1.00935333 C6.2035,0.91803 6.1813,0.896853333 6.0283,0.776456667 C6.00066667,0.754213333 5.97416667,0.73056 5.94896667,0.705583333 C5.9148,0.671073333 5.91003333,0.664573333 5.89486667,0.632806667 C5.87853333,0.5988 5.8659,0.583503333 5.85416667,0.583503333 C5.8511,0.583503333 5.847,0.581936667 5.8451,0.58003 C5.8396,0.57454 5.83203333,0.579413333 5.8259,0.592356667 L5.82016667,0.604346667 L5.8344,0.62317 C5.87843333,0.68155 5.93276667,0.741383333 6.07856667,0.89237 C6.2176,1.03635667 6.23766667,1.05529333 6.31666667,1.11821 C6.4052,1.18869 6.4675,1.24931 6.5684,1.36309667 C6.6424,1.44657333 6.76386667,1.56915667 6.7828,1.57941 C6.79433333,1.58568333 6.81736667,1.58809333 6.8278,1.58406 L6.8278,1.58411667 Z M3.90736667,1.02089333 C3.89713333,1.01914 3.88696667,1.01704667 3.87686667,1.01462 C3.87083333,1.01243333 3.83776667,0.95467 3.8092,0.89646 C3.78206667,0.841163333 3.7403,0.738863333 3.7143,0.664236667 L3.69983333,0.62261 L3.71273333,0.611516667 C3.74593333,0.582776667 3.78313333,0.577006667 3.82016667,0.59482 C3.83686667,0.60289 3.8538,0.618126667 3.91913333,0.6839 C3.97823333,0.743513333 4.0025,0.765696667 4.01633333,0.77287 C4.03256667,0.781273333 4.03733333,0.786316667 4.05603333,0.81528 C4.082,0.85545 4.09023333,0.876293333 4.09256667,0.90789 L4.09443333,0.932206667 L4.07936667,0.932206667 C4.05973333,0.932206667 4.04513333,0.927106667 4.02596667,0.913606667 C4.00276667,0.897246667 3.99123333,0.89198 3.97676667,0.89142 C3.96036667,0.890803333 3.9583,0.892146667 3.9444,0.912876667 C3.9306,0.933326667 3.93116667,0.94145 3.9486,0.970023333 C3.957,0.98386 3.96046667,0.993553333 3.9607,1.00408667 C3.96086667,1.01221 3.96006667,1.01977333 3.9589,1.02089333 C3.9543,1.02554333 3.9328,1.02554333 3.90736667,1.02089333 Z" transform="translate(0 1.02)"/></svg>