<svg viewBox="0 0 24 24" xmlns="http://www.w3.org/2000/svg"><path d="M4.641 21.474A11.989 11.989 0 0 0 12 23.995c3.032 0 5.796-1.126 7.905-2.973.026-.023.013-.038-.012-.023-.947.632-3.645 2.012-7.893 2.012-3.692 0-6.025-.823-7.343-1.559-.025-.012-.035.006-.016.022m8.174.613c2.953 0 6.197-.805 8.138-2.398.531-.434 1.037-1.012 1.49-1.789.261-.447.516-.977.724-1.5.01-.025-.007-.037-.026-.009-1.804 2.656-7.03 4.313-12.427 4.313-3.814 0-7.919-1.22-9.526-3.549-.015-.021-.031-.012-.022.013 1.497 3.181 6.039 4.92 11.649 4.92m-3.227-5.279c-6.142 0-9.038-2.86-9.563-4.812C.02 11.968 0 11.975 0 12c0 .657.066 1.505.179 2.068.054.274.277.704.604 1.047 1.487 1.55 5.195 3.722 11.616 3.722 8.749 0 10.75-2.914 11.158-3.873C23.849 14.28 24 13.04 24 12c0-.252-.006-.453-.016-.65 0-.032-.018-.035-.025-.004-.437 2.345-7.912 5.463-14.371 5.463M1.157 6.854C.805 7.552.415 8.731.299 9.341c-.051.26-.03.386.062.581.736 1.562 4.46 4.061 13.145 4.061 5.299 0 9.415-1.302 10.082-3.677.123-.437.13-.9-.028-1.521-.177-.696-.507-1.506-.786-2.076-.01-.018-.026-.015-.022.007.104 3.115-8.585 5.123-12.97 5.123-4.748 0-8.71-1.892-8.71-4.28 0-.23.048-.46.107-.699.006-.021-.013-.025-.022-.006M19.925 3.03c.05.079.075.163.075.276 0 1.333-4.079 3.69-10.572 3.69-4.771 0-5.664-1.769-5.664-2.895 0-.402.154-.814.494-1.232.018-.025.003-.034-.019-.016-.62.526-1.189 1.117-1.689 1.755-.238.301-.386.569-.386.729 0 2.332 5.848 4.024 11.317 4.024 5.827 0 8.428-1.903 8.428-3.574 0-.598-.233-.947-.828-1.623-.386-.44-.751-.798-1.138-1.15-.018-.016-.031-.003-.018.016m-1.787-1.333A11.867 11.867 0 0 0 12 .005c-2.267 0-4.418.635-6.223 1.741-.542.333-.846.6-.846.944 0 1.011 2.364 2.1 6.56 2.1 4.15 0 7.37-1.192 7.37-2.34 0-.273-.239-.465-.723-.754" fill="#00a8e0"/></svg>