<svg viewBox="0 0 24 24" xmlns="http://www.w3.org/2000/svg"><path d="M8.53649 0.508476C3.59626 1.99536-0.00160337 6.57913-0.000533482 12.0043C0.000536402 17.4284 3.60161 22.01 8.5429 23.4937L8.53649 0.508476ZM11.9962 6.39665e-07C11.7158 6.39665e-07 11.4385 0.0107056 11.1623 0.0299737L11.1634 1.26102C11.3251 1.25031 11.4931 1.24389 11.658 1.24389C15.7814 1.24282 19.1256 4.58484 19.1267 8.7083C19.1277 12.8007 15.8339 16.1256 11.7511 16.1748L11.7533 23.9968C11.8368 23.9979 11.9192 24 12.0037 24C18.631 23.9979 24.0005 18.623 24.0005 11.9957C23.9963 5.36949 18.6225-0.00214015 11.9962 6.39665e-07" fill="#d71635"/></svg>
