<svg viewBox="0 0 24 24" xmlns="http://www.w3.org/2000/svg"><path d="M1.282 10.418c3.982-.648 7.103-3.9 7.758-7.834L9.26.693c.053-.301-.153-.72-.538-.69-3.008.233-5.848 1.213-7.427 1.85A2.058 2.058 0 0 0 0 3.76v6.17a.6.6 0 0 0 .697.585l.585-.094v-.002Zm9.678-7.834c.656 3.934 3.778 7.186 7.758 7.835l.584.094A.598.598 0 0 0 20 9.927V3.758a2.058 2.058 0 0 0-1.295-1.906c-1.581-.64-4.419-1.619-7.427-1.85-.387-.03-.585.393-.54.688l.22 1.892.002.002Zm7.755 9.562c-5.442 1.061-7.968 4.635-7.968 11.4 0 .34.341.576.628.387 2.503-1.668 8.01-6.021 8.577-11.466.021-.685-.845-.363-1.237-.32Zm-17.431 0c5.442 1.06 7.968 4.635 7.968 11.4 0 .34-.34.576-.627.387C6.122 22.265.615 17.912.048 12.467c-.022-.685.845-.363 1.236-.32Z"/></svg>