<?xml version="1.0" encoding="UTF-8"?>
<svg viewBox="0 0 24 24" version="1.1" xmlns="http://www.w3.org/2000/svg" xmlns:xlink="http://www.w3.org/1999/xlink">
    <title>Authing</title>
    <path d="M10.5013554,0 L20.9900191,6.30434387 L20.9970427,6.58467657 L21,6.86591994 C21,14.3027654 16.7430967,20.7586437 10.5,24 C4.25690329,20.7586437 0,14.3027654 0,6.86591994 C0,6.67795891 0.00455916352,6.49109068 0.00998087147,6.30434387 L10.5013554,0 Z M10.5013554,2.42710137 L2.131717,7.45639439 C2.12740427,7.60525758 2.12370766,7.75436361 2.12370766,7.90431959 C2.12370766,13.8369912 5.51966837,18.9872204 10.5,21.5728987 C15.4803317,18.9872204 18.8764155,13.8369912 18.8764155,7.90431959 C18.8764155,7.75436361 18.8725957,7.60525758 18.8684063,7.45639439 L10.5013554,2.42710137 Z M8.69680155,5.38570259 L10.5146756,8.80263488 L8.37359382,12.6496433 L10.5155381,15.9761163 L12.6576057,12.6496433 L10.5165239,8.80263488 L12.3734589,5.40452297 L17.0997095,8.40886381 L17.0997095,8.76632973 C17.0997095,13.3799958 14.4565037,17.3976019 10.5692623,19.4235255 C6.68214417,17.414601 4.03893832,13.3969948 4.03893832,8.76632973 L4.03893832,8.40886381 L8.69680155,5.38570259 Z" fill="#396AFF"/>
</svg>
