<svg viewBox="0 0 24 24" xmlns="http://www.w3.org/2000/svg"><path d="M10.501 0 20.99 6.304l.007.28.003.282C21 14.303 16.743 20.759 10.5 24 4.257 20.759 0 14.303 0 6.866c0-.188.005-.375.01-.562L10.501 0Zm0 2.427-8.37 5.03c-.004.148-.007.297-.007.447 0 5.933 3.396 11.083 8.376 13.669 4.98-2.586 8.376-7.736 8.376-13.669 0-.15-.003-.299-.008-.448l-8.367-5.029ZM8.697 5.386l1.818 3.417-2.141 3.847 2.142 3.326 2.142-3.326-2.141-3.847 1.856-3.398L17.1 8.409v.357c0 4.614-2.643 8.632-6.53 10.658-3.888-2.01-6.531-6.027-6.531-10.658V8.41l4.658-3.023Z" fill="#396AFF"/></svg>