<svg viewBox="0 0 24 24" xmlns="http://www.w3.org/2000/svg"><path d="m7.002 14.597-2.199.945 2.037.87 2.36-.87-2.198-.945Zm-3.305 1.18-.074 4.25 3.217 1.418v-4.413l-3.143-1.254Zm6.61 0-2.906 1.108v4.161l2.907-1.18v-4.088Zm3.469-13.222-2.214.945 2.051.87 2.362-.87-2.2-.945Zm-3.07 1.255v4.25l2.745.797.089-3.866-2.834-1.18Zm6.14.236-2.598 1.107V9.33l2.597-1.181V4.046ZM3.378 8.537l-2.198.945 2.036.87 2.361-.87-2.199-.945ZM.074 9.717 0 13.968l3.217 1.417v-4.412L.074 9.718Zm6.61 0-2.906 1.108v4.16l2.907-1.18V9.718Zm3.779-1.337-2.199.945 2.036.87 2.361-.87-2.198-.945ZM7.157 9.561l-.074 4.25 3.217 1.417v-4.412L7.157 9.56Zm6.611 0-2.907 1.107v4.161l2.907-1.18V9.56Zm6.926-7.006-2.198.945 2.036.87 2.361-.87-2.199-.945ZM17.39 3.736l-.074 4.25 3.217 1.417V4.99l-3.143-1.255Zm6.611 0-2.907 1.107v4.161L24 7.824V3.736Z" fill="#f7a80d"/></svg>