<svg viewBox="0 0 24 24" xmlns="http://www.w3.org/2000/svg"><defs><linearGradient gradientTransform="matrix(.27275 0 0 -.27275 292.112 42.002)" gradientUnits="userSpaceOnUse" id="a" x1="-1032.17" x2="-1059.21" y1="145.312" y2="65.426"><stop offset="0" stop-color="#114a8b"/><stop offset="1" stop-color="#0669bc"/></linearGradient><linearGradient gradientTransform="matrix(.27275 0 0 -.27275 292.112 42.002)" gradientUnits="userSpaceOnUse" id="b" x1="-1023.72" x2="-1029.98" y1="108.083" y2="105.968"><stop offset="0" stop-opacity=".3"/><stop offset=".071" stop-opacity=".2"/><stop offset=".321" stop-opacity=".1"/><stop offset=".623" stop-opacity=".05"/><stop offset="1" stop-opacity="0"/></linearGradient><linearGradient gradientTransform="matrix(.27275 0 0 -.27275 292.112 42.002)" gradientUnits="userSpaceOnUse" id="c" x1="-1027.17" x2="-997.482" y1="147.642" y2="68.561"><stop offset="0" stop-color="#3ccbf4"/><stop offset="1" stop-color="#2892df"/></linearGradient></defs><path d="M8 .693h7.103L7.73 22.537c-.155.46-.587.77-1.072.77H1.13a1.13 1.13 0 0 1-1.072-1.492L6.928 1.463c.155-.46.587-.77 1.073-.77Z" fill="url(#a)"/><path d="M18.32 15.344H7.06a.521.521 0 0 0-.357.903L13.94 23c.21.197.488.306.776.306h6.377l-2.772-7.963Z" fill="#0078d4"/><path d="M8 .693a1.123 1.123 0 0 0-1.075.785L.068 21.796a1.13 1.13 0 0 0 1.066 1.51h5.67c.43-.076.785-.378.93-.79l1.367-4.03 4.885 4.556c.204.17.461.263.727.265h6.353l-2.786-7.963-8.123.002L15.128.693H8.001Z" fill="url(#b)"/><path d="M17.072 1.462A1.13 1.13 0 0 0 16 .693H8.085c.486 0 .917.31 1.072.77l6.869 20.352a1.13 1.13 0 0 1-1.072 1.492h7.915a1.13 1.13 0 0 0 1.072-1.492L17.07 1.462Z" fill="url(#c)"/></svg>