<svg viewBox="0 0 24 24" xmlns="http://www.w3.org/2000/svg"><path d="M9.15 0C7.705 0 6.52 1.647 6.52 3.7s1.186 3.7 2.63 3.7c1.441 0 2.628-1.647 2.628-3.7S10.591 0 9.15 0Zm7.302.584c-1.37-.315-3.06 1.88-3.213 3.31-.188 1.75.213 3.454 2.142 3.7 1.93.254 3.16-1.75 3.408-3.31.253-1.558-.973-3.389-2.337-3.7ZM3.404 5.55C1.29 5.738.97 8.763.97 8.763c-.286 1.415.703 4.458 3.31 3.895 2.613-.561 2.317-3.699 2.24-4.382-.128-1.053-1.435-2.873-3.116-2.726Zm16.748 1.753c-2.306 0-2.629 2.102-2.629 3.602 0 1.432.058 3.373 2.921 3.31 2.86-.063 2.63-3.24 2.63-3.991 0-.747-.62-2.921-2.922-2.921Zm-8.666 2.434c-1.275.148-2.36 1.013-2.921 1.947-1.118 1.874-2.867 3.094-3.116 3.408-.25.308-3.665 2.047-2.92 5.356.745 3.306 3.407 3.31 3.407 3.31s1.952.208 4.187-.292c2.24-.499 4.09.097 4.09.097s5.29 1.716 6.718-1.655c1.43-3.368-.779-5.063-.779-5.063s-3.03-2.373-4.771-4.869c-1.183-1.84-2.62-2.387-3.895-2.24Zm-1.85 3.895h1.558v8.179H7.786c-1.468-.294-2.069-1.289-2.142-1.46-.073-.173-.513-.969-.292-2.338.633-2.05 2.434-2.24 2.434-2.24h1.85v-2.141Zm2.337 2.337h1.655v3.894c.097.414.585.487.585.487h1.557V15.97h1.753v5.842h-3.895c-1.517-.392-1.655-1.46-1.655-1.46v-4.382Zm-3.797 1.168c-.66.197-1.002.655-1.071.876-.076.221-.248.78-.098 1.266.29 1.097 1.266 1.169 1.266 1.169h1.363v-3.311h-1.46Z" fill="#2319dc"/></svg>