<svg viewBox="0 0 24 24" xmlns="http://www.w3.org/2000/svg"><path d="M1.584 12.275C.237 12.262.213 10.714.582 9.58h.036l.286.278c.26.26.585.59.734.948l.009-.018c.082-.12.133-.396.143-.563-.25-.173-.507-.427-.609-.743-.161-.503.016-1.308.099-1.817.046-.284-.03-.56-.054-.796h.027c.533.207.682.707.796 1.333.058.315.017.666.161.886l.027-.018c.068-.154.453-.68.457-.814l-.135-.367c-.14-.36-.317-.846-.232-1.369.125-.77.425-1.385.617-2.112.202.064.276.392.34.6.238.766.099 1.54.018 2.335.29-.222.435-.606.716-.832-.156-.489-.242-1.356-.054-1.87.139-.377.354-.688.484-1.1L4.796 2.3h.01l.017.006.197.314c.145.243.276.532.358.823.237.836-.118 1.493-.33 2.076l.008.027c.466-.243.66-.725 1.074-1.02.655-.468 1.61-.528 2.711-.493-.054.233-.295.44-.43.609-.475.6-1.674 1.55-2.782 1.002-.181.122-.602.397-.698.582l.036.053c.862-.12 1.965-.221 2.586.197.097.066.216.142.25.269-.424.143-.903.208-1.387.295l-.653.045-.51.009-.626-.09-.394-.116c-.23.305-.522.57-.734.895.283-.038.53-.13.787-.197.244-.063.469-.072.734-.116.119-.02.286-.04.412-.018.267.044.74.131.68.43l-.51.16-1.396.475c-.397.1-.77.027-1.154 0l-.34.51a3.31 3.31 0 0 0-.394.984c.85-.479 1.575-1.525 2.944-1.03v.037c-.15.046-.274.153-.394.232-.529.35-.893.876-1.414 1.217-.214.14-.517.253-.868.242-.149-.005-.311-.044-.438-.018-.12.297-.331 1.478-.126 1.826.247-.169.404-.531.564-.788.392-.627.857-1.21 1.88-1.208l-.412.626c-.301.452-.532 1.015-.958 1.343-.187.144-.41.265-.626.376-.101.051-.288.087-.35.178-.088.134.186 1.036.26 1.12v-.019l.332-.653c.32-.543.695-1.206 1.422-1.333l-.268.796c-.144.57-.226 1.19-.43 1.718l-.384.922c-.03.168.203.42.25.555h.01c0-.888.494-2.262 1.225-2.345v.197l-.027.456c-.065.39-.067.787-.17 1.137a7.312 7.312 0 0 1-.304.859l-.206.43c.183.242.292.492.537.67-.017-.61.032-1.143.179-1.62l.313-.912h.027l.018.01c.103.295.28.527.367.894.157.666.034 1.831-.054 2.479.276.221.445.5.788.67l-.251-.626c-.175-.569-.18-1.523 0-2.094h.009c.184.09.4.467.519.645.48.722.712 1.391.707 2.595.326.158.543.185 1.02.17l-.018-.027c-.672-.293-.885-1.721-.913-2.685.249.053.493.27.68.403.568.403 1.422 1.294 1.217 2.38.681.09 1.119.595 1.414 1.083.102.169.298.502.152.743a.26.26 0 0 1-.304-.098l-.17-.394a1.982 1.982 0 0 0-.626-.69c-.079-.052-.35-.259-.492-.16-.131.06-.344.439-.492.555a2.5 2.5 0 0 1-1.915.483c-.24-.04-.582-.024-.707-.18.077-.307 1.083-.876 1.413-.984-.078-.071-.823-.363-.957-.384-.107.14-.281.221-.439.313-.584.34-1.395.355-2.13.134-.225-.068-.558-.12-.688-.286.042-.142.26-.246.376-.323.49-.324 1.177-.443 1.995-.447v-.009l-.125-.134-.439-.358-.42.188c-.276.101-.54.14-.877.188-.635.088-1.326-.576-1.584-.904-.11-.14-.293-.31-.322-.52.902-.273 1.731.068 2.434.26v-.009c-.135-.218-.411-.6-.609-.751-.32.091-.767-.012-1.011-.08-.782-.22-1.294-.72-1.673-1.343-.086-.14-.2-.308-.233-.492.982-.058 1.522.272 2.103.626-.052-.138-.235-.566-.34-.626l-.35-.107a2.71 2.71 0 0 1-1.548-1.557l-.223-.815L0 12.284c.696-.011 1.093.346 1.432.698l.215.241c.004-.305-.047-.642-.063-.948ZM19.214 2.3h-.03c-.343.626-.82 1.31-.571 2.342.08.33.235.58.34.877a2.792 2.792 0 0 0-.009.027c-.464-.247-.66-.724-1.074-1.02-.65-.465-1.614-.537-2.711-.493.056.234.294.438.43.609.406.513.935.928 1.673 1.11.236.058.58.068.823.008l.295-.116c.08.02.618.489.69.573v.009c-.015.02-.016.03-.036.045l-.815-.099c-.602-.096-1.339.027-1.709.25-.132.08-.208.192-.313.296v.027c.61.217 1.924.466 2.747.33.296-.048.555-.139.814-.187.153.114.649.703.725.877l.018.018-.447-.099c-.472-.132-2.089-.543-2.175.188l.788.25c.54.211 1.011.379 1.691.466.201.026.412-.05.582-.071.29.27.644 1.022.742 1.494-.83-.473-1.607-1.53-2.944-1.03v.037c.15.049.273.152.394.232.53.35.893.876 1.414 1.217.201.132.446.195.734.242.188.03.414-.078.554-.018.098.065.098.286.126.42.088.426.108.982.027 1.406-.202-.089-.449-.59-.573-.788-.39-.622-.858-1.216-1.88-1.208l.412.626c.3.452.532 1.015.958 1.343.2.154.445.29.68.402.095.046.26.077.304.17.11.23-.208.876-.25 1.092l-.018.01c-.055-.179-.163-.342-.25-.493-.356-.611-.692-1.369-1.504-1.512l.268.796c.152.597.24 1.245.457 1.79.205.52.549.889.107 1.387v.018l-.098-.752c-.18-.72-.457-1.345-1.11-1.593h-.027c.001.983.173 1.825.456 2.515.075.18.135.386.251.528-.037.235-.369.583-.537.707.002-.41.027-.828-.063-1.19l-.268-.895-.161-.448h-.036c-.145.28-.294.553-.376.904-.143.612-.06 1.882.054 2.47-.193.27-.477.53-.787.68l.134-.296c.085-.209.148-.444.197-.68.123-.593-.03-1.217-.072-1.736l-.009-.009c-.158.05-.412.472-.51.618-.46.69-.75 1.438-.725 2.613-.207.208-.634.199-1.02.179.202-.233.45-.376.582-.69.16-.382.202-.854.286-1.315l.063-.644v-.063c-.25.055-.492.27-.68.403-.56.397-1.43 1.303-1.217 2.38-.683.1-1.167.61-1.441 1.128-.052.099-.298.563-.125.698.189.148.347-.178.393-.287.186-.434.604-1.065 1.19-1.073.168.182.306.42.502.573a2.608 2.608 0 0 0 2.013.483c.207-.038.409-.084.582-.143l.027-.054c-.272-.508-.947-.631-1.396-.967h-.018l.948-.384c.215.164.432.341.698.456.525.226 1.344.15 1.88-.009.17-.05.654-.164.689-.313-.557-.505-1.286-.756-2.372-.743v-.009c.15-.198.4-.302.555-.492l.43.188c.274.1.54.143.876.188.64.085 1.323-.573 1.584-.904.11-.14.294-.31.322-.52-.837-.247-1.783.018-2.425.26h-.009c.12-.283.429-.446.555-.715.114-.077.372.004.573-.027l.564-.108c.708-.216 1.692-1.074 1.834-1.825-.998-.042-1.503.275-2.103.626.096-.229.215-.417.322-.626.825-.188 1.527-.753 1.835-1.459.13-.296.185-.63.286-.957l.206-.537c-.697-.002-1.078.336-1.423.689l-.224.25c-.003-.305.05-.642.063-.948.96-.019 1.352-.806 1.163-1.87l-.152-.815-.035-.009c-.28.21-.558.52-.761.806l-.269.402-.008.018c-.055-.17-.132-.374-.144-.572.213-.263.483-.362.609-.752.162-.503-.017-1.308-.099-1.817-.045-.284.03-.56.054-.796-.797.093-.773 1.443-.957 2.192l-.036.027c-.132-.203-.408-.6-.474-.832.16-.491.484-1.038.366-1.736-.13-.774-.441-1.378-.617-2.112-.202.062-.276.393-.34.6-.23.74-.097 1.56-.018 2.335-.152-.113-.602-.634-.68-.805-.057-.053.013-.29.036-.403.062-.317.13-.754.062-1.127-.086-.478-.303-.753-.456-1.146-.193-.494-.281-1.038-.447-1.563Zm-7.51 7.3v6.657l-2.424-.009c-.509 0-1.057.031-1.414-.116-.693-.287-1.3-1.328-.976-2.354.155-.487.464-.767.806-1.065v-.008c-.136-.049-.248-.174-.331-.278-.497-.621-.561-1.53-.01-2.156.806-.913 2.736-.688 4.35-.672Zm.591 6.657V9.599c1.322-.019 3.034-.209 3.929.331.545.33 1.063 1.106.725 1.996-.139.363-.366.566-.645.787l.018.01c.241.257.525.438.68.787.083.185.138.388.18.617.068.38-.06.778-.162 1.038-.202.517-.525.862-1.074 1.03-.34.103-.866.053-1.288.053l-2.363.009Zm-2.72-5.816-.501.053c-.448.106-1.031.443-.904 1.065.2.98 1.612.798 2.506.582v-1.593c-.344-.049-.692-.105-1.101-.107Zm4.618 0-.287.017-.582.09v1.172c0 .103-.036.359.018.42.175.09.41.085.627.126.79.152 1.648.008 1.834-.6.062-.202.015-.431-.054-.59-.22-.51-.823-.64-1.556-.635ZM9.52 13.214l-.375.027c-.444.087-.798.214-.994.546a.928.928 0 0 0-.107.51c.162 1.253 1.506 1.02 2.63.841v-1.825c-.36-.047-.725-.097-1.154-.099Zm4.671 0-.223.01-.644.089v1.825c.868.135 2.09.342 2.514-.366.1-.168.152-.451.098-.69-.164-.735-.844-.873-1.744-.868Z" fill="#201e1e"/></svg>