<svg viewBox="0 0 24 24" xmlns="http://www.w3.org/2000/svg"><path d="M12 0C5.372 0 0 5.372 0 12c0 6.627 5.372 12 12 12 6.627 0 12-5.373 12-12 0-6.628-5.373-12-12-12ZM2.58 12c0-4.722 3.474-8.628 8.005-9.31v4.407l-1.963.007c-1.475 0-2.37 1.083-2.37 2.557v4.62c0 1.474 1.209 2.612 2.683 2.612h1.642l.008 4.424C6.054 20.634 2.58 16.721 2.58 12Zm6.523 2.31s-.131-.014-.196-.128c-.064-.112-.047-.17-.047-.17v-4.008s-.007-.142.071-.228c.073-.082.209-.085.209-.085h5.664s.09-.013.195.044c.09.048.14.237.14.237v4.112s-.05.114-.098.154c-.046.04-.14.07-.14.07l-1.498.003-4.3-.002Zm4.276 7.015-.01-4.463h1.768c1.476 0 2.56-1.107 2.56-2.581V9.66c0-1.474-1.176-2.55-2.65-2.55l-1.677.002V2.679c4.553.663 8.05 4.584 8.05 9.321a9.421 9.421 0 0 1-8.042 9.325Z" fill="#b30738"/></svg>