<svg clip-rule="evenodd" fill-rule="evenodd" viewBox="0 0 560 400" xmlns="http://www.w3.org/2000/svg" xmlns:xlink="http://www.w3.org/1999/xlink"><clipPath id="a"><path clip-rule="evenodd" d="m0 0h560v400h-560z"/></clipPath><clipPath id="b"><path clip-rule="evenodd" d="m50 134.956h460v130.088h-460z"/></clipPath><path d="m0 0h560v400h-560z" fill="none"/><g clip-path="url(#a)"><g clip-path="url(#b)"><path d="m115.146 134.956c-35.927 0-65.047 29.116-65.047 65.043 0 35.925 29.12 65.045 65.047 65.045 35.923 0 65.045-29.12 65.045-65.045 0-35.927-29.122-65.043-65.045-65.043zm-51.061 65.043c0-25.594 18.829-46.765 43.388-50.463v23.889l-10.637.037c-7.997 0-12.848 5.871-12.848 13.861v25.038c0 7.994 6.553 14.16 14.545 14.16l8.899.003.041 23.981c-24.559-3.705-43.388-24.917-43.388-50.506zm35.357 12.519s-.711-.073-1.065-.69c-.347-.606-.253-.927-.253-.927v-21.721s-.035-.769.386-1.236c.396-.443 1.13-.462 1.13-.462h30.706s.49-.068 1.056.242c.485.26.759 1.284.759 1.284v22.29s-.274.619-.534.835c-.249.212-.752.378-.752.378l-8.126.015zm23.175 38.029-.047-24.191h9.582c7.997 0 13.869-6.001 13.869-13.994v-25.038c0-7.99-6.371-13.825-14.363-13.825l-9.088.009-.004-24.032c24.685 3.595 43.637 24.845 43.637 50.524 0 25.669-18.913 46.95-43.586 50.547z" fill="#b30738"/><path d="m484.692 259.441.287-.657c.193-.198 1.338-.494 1.806-1.079.443-.582 9.972-22.143 9.972-22.143l.584-.148 8.749 20.093c.584 1.324.98 2.217 1.316 2.541.351.308 1.227.684 1.816.737.35.027.147.536.147.536l-9.614-.014s-.637-.487 0-.734c.391-.152 1.936-.622 2.186-1.603.105-.434-.099-1.462-.541-2.635-.306-.826-1.178-2.64-1.665-2.986-.437-.306-2.247-.142-3.91-.191-1.514-.044-3.52-.101-4.153.242-.797.427-1.668 3.739-1.857 4.255-.174.499 0 1.662.439 2.006.735.572 2.2 1.025 2.733 1.175l.148.584zm14.554-9.851c.246-.319-.661-2.114-1.516-4.009-.633-1.414-1.707-4.16-2.051-4.054-.244.071-1.123 2.246-1.806 3.81-.738 1.688-1.631 3.802-1.276 4.152.211.213 1.861.347 3.229.296 1.568-.054 3.199.104 3.42-.195zm-267.573 4.729c.511-2.505-.051-4.156-1.513-5.379-.698-.582-2.554-1.465-4.063-1.465-2.078 0-3.445-.197-3.445 2.12l.023 5.653c0 3.171 3.961 2.834 3.961 2.834 3.228 0 4.646-1.861 5.036-3.763zm62.52 4.202c.036.043 1.224-.296 1.766-1.127.284-.439.633-1.039.633-2.538v-14.959c0-.93-.287-1.825-.683-2.201-.382-.377-.991-.773-2.344-.876 0 0-1.032-.64 0-.927l9.039-.021s.834.261.104.653c-.654.345-1.229.099-1.752.687-.364.409-.584 1.206-.598 2.477v7.39c0 .294.286.727.39.736.485.049.782-.552 1.028-.683.98-.833 2.489-2.462 3.86-3.765 2.456-2.337 3.696-3.553 4.106-4.108.538-.729.641-1.758.347-2.102-.347-.389-1.079-.389-1.714-.586 0 0-.586-.392.095-.633h8.067s.293.731-.147.927c-1.116.103-1.527.34-2.197.685-.643.328-1.978 1.261-3.127 2.394 0 0-5.897 5.073-5.674 5.673.342.925 3.747 4.913 6.061 8.109.992 1.377 1.977 3.093 2.543 3.525.547.395 1.414 1.221 2.15 1.221.854 0 .442.781.442.781s-4.59-.171-5.377-.099c-.541.049-1.187-.93-1.187-.93-1.792-2.345-6.932-9.53-7.316-9.973-.198-.145-2.301 1.419-2.35 2.742v4.348c0 1.306.305 1.97.683 2.35.636.631 2.244.829 2.244.78.743.196.248.688.248.688h-9.727c0 .001-.34-.49.387-.638zm-30.136.01c.659-.253 1.862-1.008 2.327-1.526.439-.517.775-.97.775-2.838 0 0-.099-11.338-.099-13.001 0-1.369-.481-3.179-1.117-3.666-.643-.493-1.401-.798-2.202-.83 0 0-.632-.686.051-.833h6.109l14.474 15.987s.56.699.875.538l.134-.777c.064-1.225.014-10.629.014-10.629 0-1.01.193-2.133-.491-2.917-.875-1-2.617-1.178-3.13-1.368-.391-.146-.391-.587.048-.731h7.725c.538.046.151.586.151.586-.881.244-1.739.437-2.15.976-.489.634-.742 1.587-.742 3.456v18.626h-.647s-15.893-17.266-16.849-18.219c-.435-.44-.584.145-.584.734 0 .584-.043 11.877-.043 11.877 0 1.938.389 3.128 1.625 3.778.481.253 1.725.565 2.282.668.242.051.364.752.364.752h-8.899c-.001-.002-.236-.554-.001-.643zm-26.365.701.287-.661c.198-.195 1.348-.49 1.81-1.076.439-.589 9.968-22.146 9.968-22.146l.593-.148 8.751 20.094c.582 1.319.968 2.217 1.316 2.54.345.311 1.221.685 1.806.736.354.028.152.537.152.537l-9.734.243s-.338-.536.296-.78c.395-.152 1.764-.832 2.004-1.812.112-.437-.099-1.465-.538-2.635-.307-.828-1.169-2.643-1.658-2.986-.438-.307-2.253-.144-3.913-.192-1.518-.048-3.523-.102-4.152.244-.8.428-1.675 3.735-1.86 4.25-.175.502 0 1.663.437 2.004.74.575 2.202 1.03 2.739 1.174l.145.588zm14.564-9.853c.237-.322-.665-2.111-1.514-4.006-.643-1.419-1.711-4.166-2.058-4.061-.247.079-1.123 2.248-1.811 3.812-.74 1.695-1.626 3.804-1.267 4.158.212.207 1.862.338 3.227.294 1.566-.057 3.202.105 3.423-.197zm-21.752-7.467c.019-1.576-.903-3.03-1.913-3.874-.585-.487-1.707-1.075-2.979-1.075-1.761 0-2.92.242-2.92 1.907l-.017 6.205c-.145 1.467 3.368 1.095 3.368 1.095 2.944 0 4.409-.406 4.461-4.258zm-14.817 16.593c1.175-.324 2.037-.613 2.399-1.063.389-.487.524-.796.542-2.118v-15.662c-.008-.938-.25-1.476-.791-2.064-1.051-1.147-2.299-.393-2.488-.83-.147-.326-.104-.915-.104-.915h9.86c2.822 0 4.689.122 6.371.966 1.272.637 2.789 2.148 2.789 4.427 0 3.152-2.543 4.269-3.566 5.003 1.954.538 5.178 1.665 5.178 5.331 0 3.809-2.102 6.209-4.105 6.841-1.375.441-3.091.702-5.05.717h-11.036v-.633zm141.721.209c0 .069 1.22-.391 1.758-.829.387-.319.684-.965.684-2.497l.051-14.809c0-1.238-.155-1.81-.59-2.496-.441-.673-1.517-.828-2.785-1.026 0 0-.924-.683-.273-.964-.072-.012 6.858.037 10.196.085 3.425.055 6.837-.278 7.187-.048.442.296.207 3.587.293 4.205.046.34-.219 1.037-.538 1.076-.391.048-.485-.651-.485-1.076 0-.882-.746-1.9-.929-2.151-.472-.625-1.372-.749-1.805-.749h-5.262c-.467 0-.602-.009-.76.163-.12.158-.322.547-.34 1.028v6.497c0 .391.019.945.241 1.028.546.193 4.057.148 4.057.148.593 0 1.276-.59 1.474-.927.302-.529.808-1.166 1.073-1.96.149-.436.927-.781.927.199 0 .616.103 7.626.103 7.626-.395.539-.734-.146-.734-.146-.265-1.36-.501-1.852-.934-2.296-.408-.446-1.028-.98-1.909-.98l-3.026-.044c-1.125-.101-1.173 1.121-1.224 1.56l-.049 6.26c.049.631.198 1.477.59 1.853.395.345 1.395 1.053 2.734 1.174.644.051.198.769.198.769h-10.172c0-.001-.49-.328.249-.673zm-24.348-19.99c2.164-2.068 5.296-2.966 8.459-2.981 3.163 0 5.785.495 7.963 2.588 2.341 2.251 3.557 5.036 3.576 8.801 0 3.813-1.23 6.923-3.671 9.189-2.165 2.009-5.219 3.203-8.315 3.219-3.3 0-6.463-.89-8.648-3.123-2.201-2.266-3.013-5.304-3.03-8.899 0-3.744 1.295-6.509 3.666-8.794zm3.031 17.009c1.94 2.206 3.28 2.686 5.961 2.686 1.861 0 3.733-1.094 5.185-2.828 1.221-1.467 1.81-4.059 1.81-7.876 0-3.833-1.06-6.386-2.493-8.161-1.663-2.055-3.464-2.524-5.525-2.54-2.095 0-4.202.536-5.576 2.099-1.496 1.707-2.175 4.433-2.196 8.165 0 3.697 1.755 7.235 2.834 8.455zm122.652 2.789c0 .05 1.565-.49 2.153-1.367.363-.554.599-1.077.599-2.935l-.208-14.615c-.099-1.127-.947-1.914-1.318-2.105-.487-.244-1.287-.187-1.715-.537 0 0-.978-.728-.148-.88-.062.025 5.916-.193 5.997.025.652.416 9.99 10.778 13.855 15.228 1.272 1.512 1.759 1.268 1.706-.198l.053-10.946c0-1.566-.785-2.109-1.122-2.351-.714-.507-1.376-.878-2.547-1.084 0 0-.976-.331 0-.65h7.677c.538-.026.538.416 0 .561-.683 0-1.507.553-1.95 1.071-.449.521-.669 1.685-.669 3.54l-.023 17.875c-.045.833-.831.394-.831.394s-14.562-15.891-16.298-17.832c-.023-.019-.269-.503-.692-.196-.263.188-.296.281-.269.717l.044 11.981c0 1.927.662 2.983 1.227 3.567.364.379.963.695 2.25.83.782-.045.64.775.64.775l-8.945.008c.002.002-.153-.684.534-.877zm-13.588.238c.343-.092 1.083-.499 1.518-.826.41-.329.639-.979.655-2.356l.073-15.096c-.05-.98-.05-2.153-.535-2.641-.713-.709-1.509-1.011-2.96-1.084 0 0-.612-.331 0-.65h9.708c.777.126-.104.65-.104.65-.778.01-1.405.42-1.707.792-.445.533-.427 1.63-.495 2.445v15.584c0 1.359.454 2.16.887 2.503.407.311.901.564 2.344.686.928.145 0 .631 0 .631l-9.384-.006c-.736-.236 0-.632 0-.632zm-30.502-.091c-.062.007 1.46-.989 1.803-1.371.346-.359.637-.964.637-2.491l.099-14.571c0-1.255-.255-1.959-.541-2.442-.34-.589-1.136-.678-2.442-.78 0 0-1.861-.443-.147-.882h9.14c.984.048.154.627.154.627-.739.01-1.327.255-1.695.705-.327.418-.651 1.164-.58 2.459v5.154s-.071 1.224.998 1.173c1.571-.07 8.593.133 9.677.051 1.276-.097 1.517-.879 1.517-1.468.05-1.464 0-4.76 0-4.76 0-1.256-.336-2.213-.71-2.609-.382-.372-1.221-.598-2.533-.704-.913-.135-.278-.65-.278-.65l9.728.009s.49.552-.292.651c-.784-.051-1.103.305-1.495.694-.381.38-.57 1.19-.57 2.459l.014 15.518c0 1.274.25 1.679.637 2.055.376.341.796.935 2.097 1.077.683.096.98.779.198.828l-8.899.198s-1.173-.538.148-.98c0 .051 1.026-.339 1.421-.975.256-.428.439-1.564.439-2.348 0 0 .051-5.424.051-6.261 0-.581-.198-1.363-.98-1.219 0 0-9.538-.025-10.315-.099-.538-.045-.884.244-.884 1.272v6.16c0 1.27.682 2.311 1.076 2.689.383.361 1.088.71 2.4.832 1.124.148.287.732.287.732l-10.398-.008c.001-.001-.596-.528.238-.725zm-9.733-21.901c1.24.644 2.25 1.168 2.79 1.125.335-.035.61-.715.727-1.125.544-.736.738.584.738.54l.435 6.594s-.435.642-.877 0c-.462-1.565-1.687-3.286-2.54-4.202-1.273-1.371-3.572-2.744-6.017-2.788-2.781-.048-4.711 1.094-6.157 2.884-1.224 1.516-1.956 4.061-1.956 6.7 0 3.123 1.325 6.748 3.181 8.505 1.8 1.706 3.728 2.569 6.258 2.59 1.819 0 2.847-.495 4.397-1.371.877-.478 2.066-1.77 3.126-2.782.633-.538.98.195.98.195.099.534-1.922 2.645-3.567 3.958-1.226.98-4.403 2.105-6.014 2.105-3.779 0-5.962-.197-9.29-3.18-1.879-1.688-2.929-5.182-2.95-8.531 0-3.423 1.089-6.295 3.247-8.629 2.272-2.443 5.228-3.66 8.907-3.66 1.27 0 3.365.436 4.582 1.072m-96.021-67.354c.152-.288.192.245.915 1.037.726.787.279 1.03.711 1.665.431.645.435.302.326 1.035-.101.727-.245.58-.892 1.109-.639.521-.098.287-.729-.352-.623-.643-.076-1.564-.699-2.109-.63-.543-.678-.543-.526-1.419.158-.876.739-.674.894-.967zm-2.471 2.41c.297-.191.822.694 1.203 1.626.372.931.378.733.707 1.764.331 1.032.237.54-.603 1.504-.844.971-1.962.855-3.096 1.867-1.136 1.012-1.626.713-2.654 1.433-1.033.72-.885.479-1.757.127-.876-.352-.822-.601-.228-1.324.589-.723.494-.334.935-.718.443-.388-.53-.446-.043-.832.495-.382.438.151 1.229-.713.793-.872.557-1.024.853-1.555s.646-1.161 1.485-1.545c.834-.378 1.678-1.443 1.969-1.634zm6.424-20.805c.292-.141.93-.131 1.609-.029.4.065-.297-.102 1.418-.177.876-.037 1.362.408 2.14.856 1.819 1.053 3.097 1.421 3.487 1.997.334.485.59 1.437.461 2.152-.104.581-.163 1.704-.908 2.329-.637.543-1.01 1.038-1.329 1.353-.301.29-.189 1.165-.706 1.355-.633.238-1.118-.205-1.895-.215-.836-.014-1.475.467-1.716.218-.175-.179-.364-.478-.67-.688-.291-.2-.724-.055-.777-.402-.089-.54-.768-1.974-1.29-2.502-.194-.198.296-1.226.023-1.565-.293-.347-.238-.883-.284-1.223-.043-.356-.04-.653-.034-1.026.005-.34-.45-.886-.23-1.32.152-.288.377-.956.701-1.113zm-7.907 6.145c-.18-.929.891-.669 1.871-1.196.986-.527.491-.387.779.395.285.787-.295.05-.552 1.12-.251 1.07-.251.876-.943 1.358-.688.473-.589-.056-.919-.599-.335-.544-.047-.148-.236-1.078zm-11.716-5.894c-.198-.458 1.002-2.04 4.169-6.001 2.815-3.517 8.663-5.851 11.064-6.695.513-.184 2.21-.678 2.795-.802.441-.091 2.219-.167 2.637-.309.835-.28 2.236-.179 2.494-.31.609-.292 1.253-.458 1.961-.61.814-.172 1.852.267 2.587.128 1.429-.264 2.553.55 3.352.971 2.762 1.45 5.777 6.562 6.913 9.455 1.137 2.893 3.474 11.024 3.882 17.668.265 4.267.104 15.421-.06 17.13-.296 3.043-.42 10.189-.633 11.556-.252 1.649-.443 4.489-1.041 5.506-1.106 1.879-5.598 5.23-6.569 6.113-.788.726-4.186 3.683-4.581 3.658-.49-.035-1.06-1.04-2.125-2.077-1.895-1.855-6.835-3.599-8.921-4.745-2.047-1.131-8.758-1.755-12.859-2.013-2.925-.181-7.408-.575-7.553-.92-.161-.386-.485-.252-.929-.259-.4-.002-.44.488-.538.677-.155.291.193.149.039.979-.161.828.235.294.324.98.095.688.387.395.134 1.026-.246.633 1.017 1.088 1.249 1.774.281.814.267 1.857-.605 1.895-.947.043-1.775.416-2.785.064-.734-.255-3.242-2.528-3.369-3.95-.113-1.209-.279-4.008-.377-4.882-.18-1.559-.765-5.669-.93-7.722-.177-2.054-.372-1.616.026-2.442.401-.823-.623-.947-.27-2.05.256-.784-.07-2.285.382-3.263.203-.439-.323-.439-.283-.885.061-.589.113-.976.265-1.558.122-.448.06-.977.023-1.807-.039-.83-.034-1.172.32-1.756.211-.361-.193-.541-.136-1.266.032-.424.541-4.246.75-5.705.217-1.453.535-5.335.805-5.846.75-1.405 1.178-4.571 1.485-5.695.325-1.182 1.362-2.242 1.602-3.154.104-.386.735-.719.985-.567.336.202.475 1.229.471 1.614-.009.571-.386 3.038-.63 3.556-.306.63-.629 2.913-.674 3.264-.094.608-.117 1.315-.17 1.752-.058.44-.355 1.024-.508 1.507l-.021 1.61c-.15.535-.103.881-.356 1.313-.237.419.135.831-.014 1.174-.189.42.184.832-.111 1.313-.31.503.206.616.035 1.27-.208.784-.171 1.416-.369 1.8-.197.389.369.902.175 1.617-.255.973-.08 6.497-.231 7.611-.164 1.117-.108 4.632.024 5.271.094.439.132 1.318.523 1.27.485-.053.57-1.633 1.041-1.544.297.053.104.954.18 1.56.136 1.128.046.168.315 2.153l.142 4.202c.184.686.083 1.315.814 1.325.633.009.396-.484.894-1.109.493-.632.526-.724.93-.43.339.249 2.729.227 3.512.094 1.012-.181 1.715-1.017 2.413-1.534.835-.623 4.091-3.708 5.722-5.104.738-.63 2.771-3.041 3.563-3.813 1.31-1.276 3.337-3.385 3.652-3.76.25-.291.354-.681.066-1.221-.17-.327-.434-.396-.778-.203-.844.471-1.922 1.877-2.762 2.408-1.467.923-3.314 2.173-4.332 2.776-1.127.665-2.752 1.428-3.78 2.001-1.33.745-2.822 1.226-3.046 1.332-.489.241-.664.384-1.119.032-.387-.294-.269-.119.112-1.364.258-.828-.399-1.73.528-2.921.593-.773 1.155-2.766 2.097-3.926.335-.418 2.155-2.686 2.527-3.291.302-.48.899-.747.989-.91.302-.592.675-1.314.849-1.411.617-.321 1.236-1.237 1.329-1.35.207-.232.284-.384.159-.776-.051-.149-.362-.694-.734-.252-.391.481-1.122.618-1.419.812-.551.355-.405 1.021-.943 1.061-.791.062-.718-1.229-.617-1.663.126-.513-.283-.642-.035-1.178.581-1.225.41-1.359.562-1.598.147-.246.282-.058.588-.433.199-.246-.184-.587.058-.881.503-.584.646-1.284 1.145-1.598.541-.332 1.483-1.59 1.582-1.928.125-.419.166-.844.31-1.27l-.724-.494c-.242-.297-.042-.49.058-1.026.055-.29-.524-.644-.52-1.03.005-.442-.046-.635-.58-.593-.538.04-1.711 1.255-2.649 1.433-.984.181-1.758-.514-1.254-1.48.62-1.205 2.084-2.95 2.38-3.296.441-.494.356-.963.311-1.453-.046-.502-.499-1.615-.649-2.795-.086-.683-.831-3.215-.982-3.521-.094-.195-.315-.803.256-1.024.246-.096.731.447 1.064.939.509.744 1.294 2.116 1.528 2.608.296.61.58 1.233.713 1.714.092.347.329.982.819 1.04.48.05.782.006 1.079-.283.502-.49 3.103-1.512 4.218-1.902.538-.187.835-.283 1.41.069.328.195.722 1.327.915 1.423.395.209.584.157.48.449-.067.191 0 .093-.492.677-.499.577-.064.78-.554 1.56-.502.771-.907 1.835-1.109 2.318-.193.473-.642.676-.985 1.019-.4.387-.26.922-.452 1.019-.614.296-.599.202-.792.625-.197.433-.305 1.113.175 2.003.235.44.674.541.764.886.18.655.63.642.872.985.409.596.333.558.57.939.436.685.382.397.922.788.336.245.619 1.035 1 1.431.635.642 1.451 1.138 2.031 1.83.467.555.482.836.424 1.323-.089.823.093.343-.207.922-.221.435-.014 1.026-.019 1.319-.004.54-.008.926-.354 1.414-.352.481-1.339 1.739-1.541 2.224-.168.403-.305.823-.108 1.021.264.276.48.398.826.161.625-.44 2.479-3.483 4.066-5.518.848-1.081 2.591-3.97 2.991-4.745.408-.796 1.639-2.294 1.886-2.613.148-.193.585-.189.679.154l.034.835c.136.262.485.101.535.538.04.442.086.637-.061.876-.113.189.273.29.044.685-.203.343.036 1.027-.509 1.655-.777.894-2.687 3.428-3.474 4.45-1.088 1.403-4.26 5.168-4.75 5.604-.269.229-.593.743-.453 1.067.237.541 1.145 2.062 1.678 2.507.688.573 2.126 1.438 2.765 1.451.75.009 1.244-.211 1.518-.422 1.18-.916 2.128-2.904 2.532-3.876.561-1.349 1.471-4.131 1.523-4.563.083-.686-.227-1.424-.174-1.667.069-.3.489-.237.584.06.122.39.23 1.124.319 1.611.157.813-1.078 4.966-1.294 6.378-.265 1.707-2.325 4.618-2.503 5.049-.104.239-.058.63-.548.67-.57.055-.777-.107-1.117-.203-1.268-.36-2.332-1.251-3.145-1.995-.824-.74-2.75-3.107-2.992-3.502-.174-.295-.814-.738-1.111-.495-.537.434-1.338 1.635-1.734 1.927-.303.225-.897.458-1.231.813-.494.532-1.085 1.21-1.674 1.737-.442.393-2.323 1.78-2.667 2.118-.541.532-1.188 1.399-1.583 1.687-.395.29-1.72 1.1-2.116 1.54-.443.483-1.069 1.47-1.585 1.686-.342.14-.786.719-.451 1.017.339.296 1.47-.218 2.2-.358.581-.111 1.467-.132 2.106-.171.386-.032.75-.442 1.661-.715.791-.233 1.32.112 1.663.02.426-.115.687-.283 1.375-.471.765-.207 1.806-.074 2.245-.262.315-.14.302-.239.89-.626.382-.25.893-.018 1.316-.128.862-.226 1.713-.493 2.55-.801.811-.296 3.43-.933 3.82-.976.373-.042.935-.866 1.571-1.103.81-.301 2.351-.024 2.983-.404.377-.226 1.24.271 1.644.998.529.934-.067 1.412-.212 1.948-.39 1.343-.758 1.946-1.202 2.427-.451.48-.608 1.357-1.338 1.55-.842.207-1.281.331-2.197-.081-1.649-.755-2.539-.032-3.51-.236-1.45-.313-2.008.413-2.691.351-.34-.023-1.438-.206-1.755-.016-.95.549-1.713.416-2.351.605-.534.156-.735.673-.448.922.504.427 2.182.855 3.553.773 2.192-.127 3.8.34 4.681.402 1.312.087 2.233.805 2.871.814.718.006 1.02.352 1.748.556.485.139 1.069.311 1.607.263.59-.041 1.033.402 1.264.308.885-.329.887-.251 1.373-.373.391-.09 1.186-1.113 1.724-1.489.694-.482 2.126-1.832 2.422-2.658.31-.841.41-1.212.711-2.286.264-.902-.127-.973.228-2.434.314-1.262-.005-3.316.248-4.096l.256-1.171c.207-.591.004-1.03-.032-1.265l.405-1.315c.004-.339-.378-.64-.125-1.319.313-.857.067-1.759.313-2.046.249-.292-.277-.782-.128-1.224.228-.66.246-3.372.103-4.779-.167-1.76.096-4.152.16-5.03.031-.446-.574-.785-.376-1.173.274-.529-.028-1.366-.118-2.05-.121-.913-.409-2.59-.448-3.616-.064-1.756-1.705-11.969-2.751-14.579-1.463-3.682-5.378-7.534-6.976-8.237-1.527-.673-3.507-.581-4.77-.597-.979-.014-4.453.535-7.537 1.517-2.742.877-5.67 2.234-6.626 2.8-1.129.669-2.412 2.217-3.262 3.082-.904.944-1.14 2.065-1.393 2.571-.695 1.41.009 3.175.154 3.662.232.832.025 1.418-.315 1.561-.764.315-.439.334-1.86.511-.464.058-1.317-.354-1.36-.697-.107-.848-.85-2.26-1.227-3.138m216.173 17.768c-.818.447-3.312 3.228-3.949 3.513-.616.276-1.503-.403-2.044-.315-1.424.223-4.812 1.035-7.196 1.472-2 .365-5.332 1.607-6.222 2.072-.637.331-.661.785-.305 1.118 1.209 1.136 2.223 1.683 2.803 2.426.39.504-.207.727-.364 1.558-.193 1.009-.849 5.793-.542 8.387.273 2.264 1.459 9.078 1.773 10.955.269 1.663.509 3.936.721 4.791.299 1.199-.136 3.319-.58 3.804-1.635 1.771-4.205 4.386-4.892 4.623-1.035.359-2.395.311-3.361-.481-1.258-1.031-1.724-2.901-2.101-3.877-.65-1.684-2.499-2.965-3.812-3.908-2.301-1.667-7.362-4.236-8.12-6.051-.109-.257-.284-.789.257-.976 1.014-.356 1.499.899 2.178 1.394 1.279.941 2.376 1.2 3.301 1.502 1.45.481 4.052 1.122 4.668 1.327 1.477.49 2.236.715 3.365.338.764-.257 2.034-2.661 2.098-3.689.143-2.484-.424-5.422-.362-6.641.182-3.507.104-4.163.472-6.826.271-1.951-.25-3.419-.188-4.296.073-1.091.082-2.687.381-3.46.249-.653-.551-.619-1.117-.453-2.696.796-3.954 2.047-6.284 3.142-1.621.762-4.519 2.536-5.702 2.955-.821.302-1.481 1.447-1.962 1-.545-.503-1.318-.356-1.79-1.242-.695-1.29.42-2.482 1.309-3.008 1.17-.694 2.241-.264 5.83-2.026 3.583-1.762 7.466-4.106 10.359-5.24 2.83-1.115 10.539-3.427 11.666-3.666 1.117-.244 3.566-.464 3.958-.636 1.518-.666 2.889-.646 3.375-.737.675-.13 1.655.114 2.244.168.71.073.917.556.135.984zm-30.453-8.423c1.035-.527 1.313.696 1.658.702 1.018.011 1.94.128 3.222-.297.977-.336 7.165-3.431 9.266-3.945 3.602-.871 8.625-2.283 10.377-2.169.591.04.633.449.04.785-.66.378-.844 1.308-1.387 1.835-.352.346-.207 1.415-.514 1.799-.354.473-.885.724-1.518.715l-1.705-.018c-.725-.009-2.171.913-2.7 1.039-.193.046-.692-.375-1.164-.501-1.118-.303-5.365 1.384-7.009 2.107-1.715.764-4.765 2.266-6.293 3.881-.593.625-1.2 1.793-2.162 1.242-.881-.499-1.239-2.507-1.473-3.387-.204-.765-.101-3.043 1.362-3.788zm-5.512-24.084c.925.157 2.632 4.326 3.589 6.193.306.608.508 1.579.692 3.134.089.733.755 2.109.584 3.767-.081.826.161 2.317-.129 3.019-.207.488-.988.964-.992 1.652-.01.405-.652 1.308-1.048 1.692-.626.601-1.008 2.195-1.407 2.719-.741.963-2.622.931-3.966 1.314-.985.284-2.169.907-3.2 1.623-1.028.722-2.884 1.364-4.171 2.242-.984.672-3.006 2.698-3.6 3.178-.411.329-1.114.886-.457 1.459.678.596 2.582.273 5.156 1.429 1.699.763 3.194 1.803 4.057 3.222.718 1.177.363 2.207-.423 2.681-.633.381-1.063 1.518-2.419 2.652-.689.579-1.188 2.053-2.285 2.995-.839.722-3.876 3.955-5.034 4.82-.637.485-.628 1.283.419 1.665.97.355 3.983 2.48 4.977 3.919 1.056 1.523 1.523 4.809 1.716 7.487.126 1.762-1.084 4.432-1.592 6.281-.251.919-.435 1.314-1.625 1.099-.304-.054-.844-.773-1.348-1.288-.722-.736-1.73-1.035-2.226-1.585-.58-.643-1.38-1.009-1.785-1.632-.481-.738-.425-4.119-.175-5.617.207-1.267.405-2.159.721-3.116.255-.776.749-3.328-.198-3.517-.541-.099-2.558.998-3.635 1.52-1.195.582-2.557 1.382-3.15 2.061-.664.752-1.046 1.791-1.152 2.574-.102.763-.643 1.292-.988 1.108-.725-.398-1.443-.058-1.956.073-.727.187-1.213-.482-2.038-.807-1.412-.555-.766-.127-1.991-1.148-.769-.645-2.489-3.167-1.838-4.947.351-.976.013-1.421 1.007-2.334 2.403-2.231 3.342-3.473 5.782-6.128 1.284-1.398 3.462-3.668 4.798-4.772.534-.448 1.032-1.244 1.437-2.18.251-.58 1.661-1.634.759-2.236-.971-.644-2.219-.715-2.925-.425-.684.283-1.132-.506-1.942-.952-.726-.401-1.536.143-2.092-.267-.679-.499-1.015-.846-1.64-1.288-.588-.416-1.683-1.014-1.151-2.116.401-.823.069-2.001.957-2.672 1.139-.863 1.923-1.732 2.718-2.406 1.528-1.299 5.737-6.177 8.559-9.414 2.969-3.408 8.436-11.51 10.56-13.684.449-.456.256-1.521 2.524-2.701 1.376-.713 2.461-.534 3.566-.346m-65.808 10.764c.179.828-.545 3.902-1.408 6.526-.862 2.619-1.061 3.495-1.829 5.882-.34 1.061-1.028.57-1.423 1.01-.444.48.541-.387-1.338 1.444-1.136 1.108-3.535 2.59-4.191 3.317-.34.386-1.07.184-1.212-.55-.085-.483-.083-.931-.122-1.907-.028-.828.702-1.851.863-2.281.25-.684.66-2.045.669-2.923.018-1.661 1.801-3.88 3.19-5.523 1.382-1.642 6.801-4.995 6.801-4.995zm-8.67 26.008c.736-.534.674.886 1.361.748.43-.085.791-.616 1.083-.957.247-.296.62-.506.872.739.138.685.265 1.331-.122 1.805-.593.72-3.981 1.948-4.565 2.187-.417.168-.547.347-.727-.497-.231-1.073 1.041-1.646 1.101-2.131.099-.893.394-1.463.997-1.894zm7.331 15.024c.685.106 2.452-.895 3.192-1.47.532-.423 1.022.203.725.737-.324.572-1.493 1.933-1.738 2.566-.149.368-.547.626-.84.524-.654-.234-1.288-.518-1.898-.85-.68-.389-.07-1.606.559-1.507zm-15.726 1.029c.232-.539 1.598 1.046 2.47 1.252.938.219 1.999.661 3.163.966 1.602.417 3.302 1.358 4.514 2.202.831.577 1.941.802 2.907 1.791.358.368.232.878-.064 1.217-.341.393-.547.871-1.19 1.303-1.667 1.128-7.219 4.061-7.959 4.685-.943.801-2.737.357-3.322-.187-.51-.48-1.05-1.213-1.193-2.209-.224-1.567-.328-4.495-.216-5.907.107-1.333.135-3.366.89-5.114zm-17.821.807c.005-.343 1.765-1.15 2.745-1.626.952-.46 1.819-.858 2.649-.945.419-.047.89.317.725.841-.253.824-4.057 4.489-5.391 5.936-.283.309-.825-.791-.858-1.474-.042-.784.12-1.99.13-2.732zm-3.029-8.14c.545-.062.768.719.325 1.37-.297.437-1.123.669-1.321.422-.324-.408-.036-.778.454-1.121.435-.292.151-.625.542-.671zm4.373-14.394c.975-.082 1.004.378 1.069.451.243.302.771 1.536 1.15 1.966.337.396.6.849 1.157 1.042.293.096.325 1.419.267 2.006-.06.627-1.6.887-2.36 1.478-.494.389-.782.695-1.085 1.113-.4.529-.499.821-1.045 1.302-.448.4.099 2.503-.237 3.464-.152.436.435.395.926.403.238.004.323-.456.639-.725.398-.335 1.481-1.111 2.021-1.435.398-.244-.116-1.571.458-1.707.396-.092.422 1.35.666 1.911.187.442.82 2.082.646 2.741-.158.585-.265 1.233-.459 1.61-.201.381-2.559 1.396-2.323 2.406.141.589 1.886-.237 2.782-.16.682.059 1.985-.076 2.591-.065.579.007 1.711.875 2.362 2.029.338.591-2.065 2.696-3.324 4.308-1.24 1.594-6.069 5.679-7.056 6.643-.508.497-.174 2.296-.57 2.534-.476.287-.89.004-1.413.126-.392.095-1.071.362-1.282.818-.198.436-.24.781.137.975.48.249 5.589-2.323 8.054-4.533 2.583-2.321 6.118-5.884 7.417-7.531.989-1.252.615-6.575 1.757-11.785.521-2.395 1.68-10.129 2.505-13.781.949-4.172 4.214-10.65 4.83-11.608.246-.382-.018-.762.211-1.118.251-.386.35-.68 1.222-.278.354.166.918.841 1.259.704.768-.327-.396.331 2.371-2.37 2.766-2.697 5.423-4.032 6.9-5.137 1.474-1.107 2.465-2.362 3.204-2.693.604-.272 1.179-.012 1.405.607.239.634.297 1.566-.032 2.73-.205.732-.746 1.756-1.406 3.3-.26.612-1.06 3.71-1.625 5.401-.576 1.683-1.25 5.712-1.649 6.421-.593 1.062.107 1.322-.313 2.483-.14.376-.918 2.153-1.408 3.154-.503 1.021-1.958 4.225-2.254 4.513-.372.368-.112 1.15.085 1.465.232.391 1.576 1.225 2.494 3.45.282.683.193 1.393-.369 2.137-.395.535-1.997 1.042-2.898 1.483-1.177.568-5.895 2.951-7.47 4.253-.345.285-.919.212-.777-.303.255-.925-.053-3.757.302-4.734.519-1.435.301-.872 1.495-2.518.634-.879 1.954-4.076 3.387-5.667.138-.154.43-.973-.032-1.271-.39-.249-.876.264-1.374.421-.291.094-.351.825-.692.97-.526.217-1.032-.326-1.514.079-.346.29-.979 1.684-1.105 2.624-.053.389-.719.901-.895 1.159-.201.292-.072 1.56-.18 2.44-.128 1.062-1.132 3.775-1.377 4.911-.155.731-.455 2.36-.378 3.311.039.543.283.92.669.84.444-.092.75-.844 1.185-.908.541-.094 2.291-.12 3.068.082.364.094 1.026.55 2.197.318.669-.129 1.704-.414 2.492-.405.782.006 4.587.004 6.201.023.585.009 3.876-1.613 4.905-2.084.85-.392 2.896-2.314 4.291-3.758.793-.814 2.654-1.378 3.625-.928.494.231.188 1.679-.566 2.238-.59.433-2.012 1.194-2.705 1.675-1.105.771-2.875 2.962-3.714 4.393-.396.683-1.691 2.518-2.337 3.682-.129.226-.134.803.377 1.322.475.495 4.515 1.569 6.409 2.224.172.06.438.399.828.256.265-.097.637-.233.679.449.016.326 2.668.402 2.968.626 1.02.74 4.908 1.612 6.171 2.417.481.297.631.421 1.061.936.287.348 1.021.329.922.84-.108.541-7.602 2.394-10.278 2.265-2.306-.105-4.681-.393-6.873-1.154-1.941-.672-5.665-3.489-6.201-3.494-.881-.009-.786.188-1.378.764-.163.16-.469.703-.894 1.113-.49.481-2.22 2.175-2.569 2.652-.499.678-1.672.943-2.409 1.532-.543.436-1.582 1.593-2.223 2.021-1.178.794-2.654 1.776-3.535 2.156-.9.383-2.48-.195-3.804-.389-1.465-.21-3.253-1.744-3.916-3.077-.401-.782-.383-2.744-.59-3.91-.136-.782.485-3.188-.009-3.507-.674-.449-1.033.061-1.366.418-.543.577-1.196 1.695-2.916 2.894-.764.526-.768.896-1.633 1.736-.644.628-2.144 1.52-3.2 2.398-1.037.866-2.906 1.392-4.118 1.611-.444.078-1.663.834-2.36 1.14-.637.29-2.668.996-3.922 1.369-.784.234-1.155-1.474-1.334-2.65-.18-1.178.274-2.39.967-2.769 1.145-.642 2.96-2.749 3.948-3.811.251-.271-.26-.909-.721-.884-1.61.076-2.63-.619-2.63-.619 1.179-.183 3.172-.245 3.874-1.124.11-.138.443-.435.443-.828.01-.573-.175-.711-.225-1.074-.048-.279.329-.759.203-1.026-.139-.292-.416-.985-.915-.687-1.027.602-2.791 2.36-3.262 3.275-.297.582-.359 1.214-.359 1.214-.296.293-.828.04-.828.04-.937.965-2.426 2.605-3.162 3.232-.552.469-1.302.807-1.914.512-.722-.347-1.208-1.867-1.532-2.359-.287-.442.113-1.072.557-1.362.665-.427 2.403-1.333 2.897-1.77.544-.474 2.867-2.793 3.41-3.221.867-.699 2.072-1.48 2.76-2.215.494-.531-.118-1.18-.476-.883-.296.238-.734.134-.927-.303-.472-1.107-1.462-3.827-1.451-4.852.004-.635.014-.987.262-1.557.754-1.747 3.251-5.017 4.025-5.614.736-.578.297-1.125.072-1.56-.292-.543-1.735-2.318-1.677-2.954.087-.938 1.484-1.78 2.868-2.743 1.372-.965 2.757-2.023 3.728-2.107zm4.67-14.634c.35-.726 2.744-.892 3.819-.683.965.191 2.129 2.098 2.498 3.006.239.591.646 1.834.462 2.3-.251.633-1.263.631-2.255.902-.351.092-1.271.423-1.913.756-.837.428-1.856 1.325-2.22 1.679-.396.383-1.055.561-1.375.474-.193-.053-.184-.61.163-.976.641-.678 1.444-2.57 1.26-3.303-.098-.377-.481-.543-.515-1.716-.018-.587-.214-1.827.076-2.439zm-.329-13.132c.392-.097.662.573 1.264.843.437.203.626.598 1.064.601.603.009.621.94.963 1.235.286.246.673 1.173 1.007 1.474.382.346.529.792.91 1.086.42.323.544 1.422.029 2.05-.396.48-1.031 1.138-1.875 1.391-.787.232-2.507.296-3.471.888-.791.478-2.252 1.635-3.066 2.5-1.532 1.64-3.272 4.498-4.666 6.922-.953 1.643-4.493 7.703-5.544 10.081-.439.994-2.695 5.816-3.507 7.569-1.054 2.282-3.629 7.255-4.156 8.589-.711 1.798-.297 3.311-.782 3.995-.443.627-1.329.57-1.853.172-.536-.398-1.381-1.199-1.591-2.019-.18-.736.201-2.447.437-3.314.147-.584.466-.98.938-1.21.292-.142.793-.007 1.221-.18.329-.133 1.739-2.466 2.441-3.779.925-1.732 3.376-6.922 3.955-8.148.348-.751 1.762-3.929 2.8-5.87.651-1.213 3.831-9.96 5.373-12.094.354-.487 1.992-3.958 2.996-5.522.896-1.405 4.519-7.123 5.113-7.26m-138.013 56.798c.288 0 .481.244.573.735.129.68.044.677.129 1.259l-.014 1.21c.14.584.081.908.126 1.505.09 1.021.122 1.938-.075 2.569-.207.625.034.822.03 1.453-.011.579-.35 1.492-.417 2.367-.06.726.655 1.47.646 2.337-.004.532-.241.528-.731.478-.531-.058-1.159-.405-1.348-.843-.189-.439-.755-1.899-.745-2.43.007-.582.175-1.645.269-2.324.108-.727-.072-1.594-.068-2.282l1.002-2.509c.009-.821-.184-.917-.171-1.938.015-1.016.406-1.593.794-1.587zm7.974-37.657c-.039-.54 1.894-1.727 2.842-2.343.875-.571 1.551-1.366 2.299-1.767 1.072-.565 2.043-.388 2.668-.354.971.06 2.147-.458 2.668.177.472.591.334 1.072.17 1.75-.129.532-2.919 4.908-4.252 6.486-1.385 1.661-4.817 5.597-5.155 5.803-.395.239-.708-.34-.807-1.171-.094-.729-.193-1.343-.033-1.697.198-.435-.042-.714-.13-1.111-.09-.442-.529-2.047-.444-3.255.055-.875.239-1.747.174-2.518zm-23.093 13.964c.126-.297 1.416-.953 1.998-1.426.411-.336 1.422-1.003 1.813-1.336 1.128-.964.981-.78 2.008-1.48.486-.333 1.167-.57 1.255.449.099 1.214-.043 3.393-.005 4.17.037.775-.161.966-.213 1.596-.046.539.184.829.228 1.167.05.339-.072.436-.156 1.061-.053.389.229.976-.118 1.647-.345.678-2.211 2.155-2.795 2.344-.583.185-.179-.875-1.14-1.565-.967-.692-1.194-1.665-1.622-2.348-.524-.849-.372-1.262-.99-2.003-.627-.726-.613-1.458-.264-2.276zm-12.209-11.722c.596-.186 1.764 2.088 2.904 3.319 1.146 1.228 2.857 2.779 3.209 3.091.382.345 1.289 1.714 1.631 1.72.18 0 1.283-.949 2.197-1.575.98-.665 3.195-2.176 3.869-2.622.543-.359 2.231-1.587 3.268-2.383 1.044-.794 3.304-2.263 3.38-2.475.044-.126-.045-.63.31-1.596.216-.59-.256-.853-.279-.977-.046-.24.251-.962.306-1.349.108-.721-.069-2.212.03-2.52.249-.773.338-2.388.372-2.856.113-1.325-.043-1.893.126-2.422.57-1.764.627-3.19.495-4.501-.107-1.107-.368-1.212-.062-2.907.282-1.528 1.675-3.16 2.305-3.893.416-.486 1.678-.567 2.631.367.359.352 1.206.741 2.017 1.578.791.802 2.263 2.624 2.776 3.084.814.741 2.387 2.747 3.393 4.016.764.97 1.175 2.727 1.267 3.362.134.954-.073 2.226.578 2.35.932.182 2.755-1.39 5.669-1.939 1.933-.361 5.091-.273 7.175-.25.923.014 2.718-.074 2.867.36.274.789-.201 3.188-1.393 5.861-1.047 2.362-1.622 2.815-2.813 4.326-.982 1.254-1.127 2.038-2.914 4.376-1.725 2.26-5.157 5.56-4.487 6.199.575.545 2.277-.267 2.56 1 .23 1.022-.895 1.684-1.295 2.697-.557 1.409-.223 2.425-1.491 3.035l-2.578.846c-.882.568-.547 2.029-1.106 3.087-.992 1.876-.481 3.673-1.085 5.19-.914 2.282-.693 1.39-1.443 3.765-.16.511-.526 3.121-.734 4.039-.174.78-.771 1.405-.789 1.686-.073.8-.466 2.868-.432 3.098.045.294-.498.679-.449 1.206.043.485-.475 1.708-.566 2.562-.354 3.363-.054 3.81.076 5.675.131 1.866-.221 2.275-.423 2.77-.175.45-.879.557-1.365.698-.531.149-.494.719-.828.828-.395.134-.952-.285-1.141.039-.378.653-.777 1.474-1.263 1.516-.501.045-.674-.253-.816-1.024-.033-.204-.523-.255-.613-.685-.142-.687-.295-.266-.91-1.4-.517-.948-.076-1.282-.136-2.131-.04-.657-.915-1.25-.692-2.281.117-.553-.031-1.676-.147-2.601-.132-1.069-.172-1.814-.172-2.086.011-.494-.153-.013-.026-1.552.112-1.355-.311-2.472-.307-2.861.005-.488-.184-.828-.57-.835-.311-.003-.471.172-.633.948-.169.775-.188 2.325-.094 3.259.091.876.633 3.309.674 4.085.053 1.032-.054.534-.027 1.936.014.686.338 2.387.58 3.322.25.934.791.895.965 1.546.185.678.373 1.267.614 1.655.303.502 1.489.79 1.342 1.081-.186.357-.692 1.058-1.083 1.102-.782.086-2.211-1.527-2.493-2.235-.509-1.266-.854-5.801-1.119-7.451-.459-2.782-.936-4.004-1.271-7.092-.348-3.208-1.12-11.571-1.097-13.344.013-1.164-.754-1.562-1.178-1.583-.511-.028-1.161.515-1.202 1.07-.044.676.112 2.273-.603 2.56-.584.235-4.733-.931-7.96-3.055-5.274-3.477-7.146-12.111-8.018-13.765-1.187-2.24-1.217-6.909-.976-7.813.253-.928.608-1.982 1.493-2.251" fill="#231f20"/></g></g></svg>