<svg xmlns="http://www.w3.org/2000/svg" width="200" height="40" xml:space="preserve"><g fill="#003C78"><path d="M77.003 25.49c-6.561-1.269-11.434-4.744-11.475-4.798-.036-.052-.587-.313-.501-.675.253-1.056 1.784-3.238 1.945-3.541.158-.305.045-.84-.317-.912-2.382-.475-2.446-.555-2.446-.555-.672-.055-.713.276-.713.276l.041 1.693c-.45 1.479-.716 1.387-.716 1.387s-1.929-1.441-2.062-1.56c-.133-.119-1.627-.251-1.627-.251s.155-.254.291-.371c2.208-1.89 2.791-3.594 2.802-3.646.015-.053-.026-1.02-.026-1.02l-.751-.99 1.957-.529s1.141-.34 1.361-.092c.376.426.516 2.391.516 2.391.672 1.441 2.82 2.004 2.959 2.043l3.788 1.098c.91-.715.77-1.685.77-1.685.217-.536-1.78-1.373-2.536-1.549-2.756-.633-3.217-1.115-3.965-1.664-.756-.555-.178-1.11-.178-1.11s1.45-.429 1.861-.515c.575-.118 3.909-.278 3.909-.278.929.082.929-.275.929-.275l-.276-2.222c.099-.277-.154-.84-.376-.772-4.07 1.19-6.643 1.406-6.643 1.406-.356.04-.375-1.753-.259-2.557.14-.952-.738-1.541-1.32-1.568-.583-.025-1.507-.608-1.507-.608-2.3 3.113.74 3.839.945 3.921.812.318.661.422.911.733.318.396-.605.695-1.19.853-5.392 1.468-7.335 1.515-7.909 1.489-1.211-.062-.812 1.108-.812 1.108s.413.506.654 1.051c.415.952 2.449.249 2.854.139 2.26-.614 2.242-.414 2.242-.414.374.414-.3 1.584-.3 1.584-1.467 1.942-3.528 3.074-3.944 3.232-.417.157-.574.04-.574.04-.219.534.396 1.378.651 1.406.179.02 2.064-.039 2.064-.039l.258-.099c.219 0 .159.317.159.317.117 1.387.965 1.743 1.444 1.862 1.587.397 2.026 1.189 2.026 1.189-3.551 4.817-10.053 4.345-10.053 4.345.198.197.754.516 1.844.731 3.587.715 6.901-1.208 7.156-1.426.258-.219 2.21-1.712 2.48-2.004.474-.515.753-.237.753-.237l4.143 3.489c5.553 4.679 8.943.456 8.943.456l-.18-.277M96.044 9.491c.614-1.05-.312-2.271-.872-2.618C93.188 5.645 92.95 4.99 92.95 4.99c-1.129.554-1.142 1.824-.831 2.575 1.029 2.5 3.716 2.28 3.925 1.926"/><path d="M106.77 13.118c-.02.179-.057 8.188-.057 8.188-.084.218-1.689.298-1.689.298-.137.673 1.648 2.756 1.648 2.756s-.025.145-.617.16c-2.695.059-3.248-.338-3.248-.338.178-.02 1.047-1.03 1.047-1.03v-2.499c1.449-.516 1.924-1.25 1.924-1.25.238-1.367-.236-1.447-.236-1.447l-1.191.218c-.553.041-.477-.277-.477-.277l-.02-1.012c0-.118 2.023-1.009 2.023-1.009s.197-.535.08-1.331c-.117-.791-2.063-.099-2.063-.099l-.119-1.347s.953-.16 1.248-.317c.299-.158 1.488-.337 1.488-.337.28.04.28.494.259.673m-4.897 10.906c-1.824-.12-2.299-.457-2.299-.457.037-.12.175-2.835.175-2.835 2.183-.099 2.183.1 2.183.1.179 1.646-.059 3.192-.059 3.192m-2.52-8.329s-.514-1.367-.117-1.586c0 0 .614.158 2.32-.454 0 0 .256.553.18 1.188-.039.278-.262.238-.262.238s-1.227.438-1.584.754c-.205.183-.418.455-.537-.14m2.065 2.995s-1.626.257-1.728.179c0 0-.039-1.607-.039-1.766 0 0 .518.259.852.278.337.02.635.099 1.112-.02 0 0 .219-.021.219.516 0 .717.076.761-.416.813m6.898 5.473s-.258-.159-.1-.517c.158-.355.34-1.229.277-1.388 0 0-.473-5.532-.059-8.149.174-1.079.336-2.895.494-3.013 0 0-.295-.973-2.695-.853-.811.04-1.799.726-2.381.317-.395-.277-.314-.536-.018-.852.297-.318 3.607-3.848 4.322-3.987 0 0 .771-1.031-.934-2.002-1.002-.573-1.248-.932-2.537-.1-.746.485-2.875 2.38-4.263 2.619-.705.121-.813-.498-.89-.557l-.281-.196s-1.207 1.108-1.088 2.695c.059.806 2.175.09 2.775-.398.442-.357 3.192-2.02 2.64-.534l-1.707 1.902-1.348.357s-.733.297-.121.933c0 0 1.053.694.954.992 0 0-.156.416-1.586 1.09-.306.144-.674.455-.736.554l-.028.055-1.059-.629-.795-.019s.278 1.922.257 2.161c-.019.235-.078 7.612.477 8.724l-2.716-.218s-4.026-4.226-1.014-10.034c.379-.729.895-1.624-.495-2.238-.611-.273-1.965-.438-2.22-.696 0 0-.913-.337-.813.873l.652 1.429s-.117.833-.495 2.794c-.081.427-.516 2.954 1.667 6.484 0 0 .397.674.277.912-.121.237-.239.099-.239.099l-2.79-.277s-.637-.179-.772.477c-.103.475-.598 2.082.275 2.259 0 0 5.295-1.148 13.246.974 1.41.378 3.488.752 7.533.633 0 0 5.154-.712 5.154-3.767.001-.001-1.091-.872-6.82 1.091M167.828 9.668c2.125-.057 3.152-1.108 3.152-1.108s.627-.559 1.289-1.233a60.684 60.684 0 0 0 1.648-1.762l.592-.355v-.28c-.969-1.029-2.654-1.465-2.654-1.465-.041-.08-.297.057-.297.057-.535 1.071-2.131 2.611-2.537 2.976-1.607 1.427-2.104 2.736-2.104 2.736s.351.452.911.434M174.709 10.266c.201-.398.021-.654.021-.654-1.803-.734-3.213-.716-3.213-.716l-.615.199c-4.521 6.719-9.555 8.92-9.555 8.92-.178.219.357 1.508.357 1.508s.299.138.73.159c1.646.079 5.254-2.797 5.254-2.797.537-.038.756.774.756.774-.098.259-.207 6.174-.219 6.584-.039 1.367.533 2.278 1.051 2.278.516 0 1.469-.873 1.469-.873l-.08-4.777c-.08-.277-.635-5.53-.635-5.53 3.529-3.015 4.48-4.68 4.679-5.075M175.781 7.269c.494 1.468 1.209 2.223 1.209 2.223 3.074 1.367 7.037-1.429 7.236-1.587.199-.16.318-1.071.318-1.071-.119-.198-1.033-.912-1.033-.912l-.473-.139c-3.393.537-7.299.458-7.299.458l-.139.613c.002 0 .037-.014.181.415"/><path d="M187.043 10.006s-5.256 1.189-6.662 1.27c-.793.044-5.252.554-5.252.554s-1.926.198-2.043 2.003c-.033.476-.043 1.586.098 1.765 0 0 1.727-.496 3.904-.972.742-.16 1.807-.218 1.982-.198 0 0 .338 8.348.201 8.665 0 0 .1 1.228-1.309.773 0 0-1.449-.912-2.834-.872 0 0-.063.219.254.517.32.296 2.361 1.96 3.291 3.149.324.414 3.709 1.727 3.889-2.002.027-.642-.695-7.077-.754-7.475-.061-.396-.18-2.915.018-3.033 0 0 5.492-.733 6.564-1.963.354-.407-.038-1.545-1.347-2.181M137.813 21.307s-2.578.418-2.598.338.303-.452.691-.754c1.131-.873 1.609-1.527 1.609-1.527.732-1.544-.139-1.485-.139-1.485-.736-.259-1.219.42-1.367.634-1.24 1.775-1.311 1.605-1.311 1.605-.197-1.011-.057-3.171-.057-3.171l1.881-1.033c.555-.177.676-1.327.295-1.564-.301-.192-2.102.039-2.102.039s-.236.119-.334.02c-.1-.099.039-.853.039-.853l1.588-.733c.416-.336.277-1.289.277-1.289-.318-.415-1.191-.556-1.191-.556l-2.281.04s-.598.162-.535-.179c.141-.753 1.766-2.219 1.766-2.219.854.018 1.99.887 2.201 1.069a22.397 22.397 0 0 0 1.805 1.429c.156-3.986-1.688-4.699-2.023-4.877-.336-.181-.316-.518-.316-.518.992-.674.91-.892.91-.892-1.031-2.676-2.873-2.042-2.873-2.042-.02.1-1.109 2.247-1.486 2.934-2.855 5.197-7.652 8.942-7.813 9.121-.156.179-1.844.992-1.844.992.852 2.061 2.838 1.73 3.232 1.645 1.268-.278 4.4-4.32 4.4-4.32.098.236.607.246.854.295.891.179 1.604.259 1.604.259l.08 1.13-1.861.536s-.832.215-.875 1.169c-.084 1.936 1.35 1.369 1.35 1.369l1.564-.478c.102.08.238 2.479.238 2.479l-1.725-1.031c-.971.535-1.01 1.466-1.01 1.466.436 1.29 1.268 1.332 1.646 1.509.295.139.264.477.037.593-4.063 2.143-4.34 2.004-4.34 2.004l-.279.713c-.02 1.845 2.5 1.225 2.635 1.151 4.086-2.182 6.941-2.914 6.941-2.914.518.019.93-.993.93-.993l.381-.614c.32-.576-.594-.497-.594-.497M142.906 21.863c-.807.364-1.266.079-1.266.079s-.77-1.429-.504-3.78c0 0 .17-.081.328-.055 0 0 1.576.265 3.609 1.429.001 0 .189 1.269-2.167 2.327m-1.605-10.569.22-.294 2.971-.12s.219.137.082.515c-.141.375-.537 1.843-1.744 1.803 0 0-1.607.298-1.646-.218l.117-1.686zm.554-3.985c.061-.398 2.6-.436 2.896-.356.299.08.355.934.355.934-.258 1.267-.477 1.129-.477 1.129-1.523.357-2.893.06-2.893.06-.136-.357.119-1.767.119-1.767m7.694 12.014c-1.348-.454-2.895-1.465-2.895-1.465.061-.061 4.918-2.935 4.918-2.935-1.191-1.447-2.697-2.26-2.697-2.26-2.637 4.261-6.383 4.56-7.002 4.581-.609.017-.713-.013-.729-.537-.061-1.826.256-1.864.256-1.864s.434-.019.773.297c.635.596 2.063.139 2.063.139l.953-.833c1.01-1.128 1.133-1.528 1.209-2.518.178-2.36.605-3.261.871-3.985.693-1.884.615-2.319.615-2.319-.119-2.063-2.15-1.401-2.4-1.307-1.564.593-3.535.824-4.145 1.01-1.623.496-1.406.813-1.406.813l-.1 1.604s-.273 8.468-.297 9.083c-.236 6.543.258 9.774.258 9.774-.039.555.713.853.713.853 2.381-.139 4.291-4.473 4.443-4.977.771-2.597.951-2.318.951-2.318 1.844.751 4.064 3.39 4.203 3.51.139.116.357.059.535-.299.176-.357 1.387-1.884 1.387-1.884-.038-.496-1.68-1.891-2.477-2.163M42.512 31.875H44.4c.749 0 1.213.165 1.213.708 0 .524-.517.737-1.164.737h-1.938v-1.445m-1.579 5.437h3.337c1.612 0 2.04-.228 2.492-.591.416-.337.681-.831.681-1.354 0-.651-.252-1.291-1.221-1.592.337-.137.975-.401.975-1.349 0-.68-.495-1.681-2.429-1.681h-3.835v6.567zm1.58-2.891h2.1c.588 0 1.181.22 1.181.797 0 .672-.459.966-1.26.966h-2.02v-1.763zM50.199 35.963h2.906l.503 1.349h1.785l-2.769-6.566h-1.899l-2.806 6.566h1.732l.548-1.349zm1.448-3.734h.021l.976 2.604H50.64l1.007-2.604zM61.253 30.745h1.538v6.567h-1.648l-3.205-4.682h-.021v4.682h-1.539v-6.567h1.735l3.117 4.573h.023zM66.142 37.312h-1.651v-6.567h1.651v2.67l3.006-2.67h2.128l-3.215 2.689 3.399 3.878h-2.114l-2.437-2.883-.767.661zM78.043 34.029c0 3.075 2.743 3.448 3.785 3.448 1.041 0 3.787-.373 3.787-3.448 0-3.076-2.746-3.449-3.787-3.449-1.042 0-3.785.373-3.785 3.449m1.651 0c0-1.837 1.247-2.295 2.134-2.295s2.136.458 2.136 2.295c0 1.835-1.25 2.291-2.136 2.291s-2.134-.456-2.134-2.291M88.573 37.312h-1.648v-6.567h5.61v1.157h-3.962v1.486h3.468v1.157h-3.468zM104.271 32.896c-.131-.394-.383-1.132-1.742-1.132-.791 0-1.954.437-1.954 2.293 0 1.177.559 2.236 1.954 2.236.906 0 1.547-.429 1.742-1.232h1.646c-.33 1.423-1.447 2.417-3.422 2.417-2.095 0-3.6-1.174-3.6-3.439 0-2.292 1.592-3.458 3.62-3.458 2.361 0 3.311 1.347 3.402 2.315h-1.646M106.818 34.029c0 3.075 2.742 3.448 3.785 3.448 1.041 0 3.783-.373 3.783-3.448 0-3.076-2.742-3.449-3.783-3.449-1.042 0-3.785.373-3.785 3.449m1.649 0c0-1.837 1.248-2.295 2.137-2.295.887 0 2.135.458 2.135 2.295 0 1.835-1.248 2.291-2.135 2.291-.889 0-2.137-.456-2.137-2.291M123.268 37.312h-1.539v-5.495h-.024l-1.469 5.495h-1.611l-1.436-5.495h-.021v5.495h-1.541v-6.567h2.408l1.424 5.176h.021l1.405-5.176h2.383zM132.406 37.312h-1.537v-5.495h-.023l-1.471 5.495h-1.607l-1.44-5.495h-.023v5.495h-1.535v-6.567h2.402l1.426 5.176h.023l1.4-5.176h2.385zM140.293 35.013c0 1.727-1.25 2.465-3.242 2.465-.725 0-1.801-.146-2.502-.793-.43-.399-.596-.93-.615-1.589v-4.351h1.68v4.258c0 .916.635 1.317 1.408 1.317 1.131 0 1.592-.456 1.592-1.252v-4.323h1.68v4.268M146.703 30.745h1.539v6.567h-1.65l-3.201-4.682h-.024v4.682h-1.539v-6.567h1.735l3.117 4.573h.023zM149.693 30.745h1.648v6.568h-1.648zM157.898 32.896c-.135-.394-.385-1.132-1.746-1.132-.789 0-1.951.437-1.951 2.293 0 1.177.559 2.236 1.951 2.236.91 0 1.549-.429 1.746-1.232h1.645c-.328 1.423-1.447 2.417-3.422 2.417-2.096 0-3.6-1.174-3.6-3.439 0-2.292 1.59-3.458 3.621-3.458 2.361 0 3.313 1.347 3.4 2.315h-1.644M162.461 35.963h2.904l.506 1.349h1.785l-2.771-6.566h-1.896l-2.807 6.566h1.73l.549-1.349zm1.447-3.734h.023l.973 2.604h-2.006l1.01-2.604zM171.08 37.312h-1.652v-5.41h-2.377v-1.157h6.41v1.157h-2.381zM174.303 30.745h1.648v6.568h-1.648zM177.133 34.029c0 3.075 2.74 3.448 3.783 3.448 1.041 0 3.785-.373 3.785-3.448 0-3.076-2.744-3.449-3.785-3.449-1.043 0-3.783.373-3.783 3.449m1.65 0c0-1.837 1.246-2.295 2.133-2.295.889 0 2.135.458 2.135 2.295 0 1.835-1.246 2.291-2.135 2.291-.887 0-2.133-.456-2.133-2.291M190.816 30.745h1.538v6.567h-1.645l-3.205-4.682h-.024v4.682h-1.539v-6.567h1.735l3.119 4.573h.021zM195.111 35.289c.014.364.23 1.059 1.666 1.059.775 0 1.643-.155 1.643-.85 0-.512-.592-.648-1.42-.813l-.84-.164c-1.271-.248-2.504-.483-2.504-1.928 0-.73.471-2.014 3.027-2.014 2.412 0 3.057 1.312 3.07 2.113h-1.578c-.049-.291-.18-.985-1.613-.985-.621 0-1.365.192-1.365.785 0 .512.5.622.83.684l1.91.395c1.076.22 2.063.584 2.063 1.765 0 1.97-2.412 2.142-3.102 2.142-2.871 0-3.365-1.374-3.365-2.188h1.578M22.569 9.244c-2.238 0-4.324.65-6.079 1.776l-5.966 3.866V1.497L0 10.375v16.79c0 4.987 3.247 9.221 7.752 10.712l2.007.626c-4.113-2.05-6.93-6.203-6.93-10.995 0-6.824 5.707-12.356 12.746-12.356 6.569 0 11.975 4.822 12.666 11.015l-7.263-.002a5.645 5.645 0 0 0-11.106 1.422 5.644 5.644 0 0 0 11.245.704l7.176-.004a12.092 12.092 0 0 1-2.547 6.666s4.446-5.208 5.973-7.564c1.383-2.138 2.137-4.346 2.137-6.857 0-6.235-5.052-11.288-11.287-11.288"/></g></svg>