<svg viewBox="0 0 24 24" xmlns="http://www.w3.org/2000/svg"><path d="M22.285 16.313c-.107 0-.203 0-.29-.01-.181-.011-.364-.022-.546-.022-.118 0-.118 0-.128-.118l-.172-1.95-.171-1.619-.118-.997-.107-.868-.193-1.35c-.065-.482-.14-.954-.236-1.436-.01-.075-.01-.086.075-.097a5.373 5.373 0 0 1 1.018-.096h.118c.053.01.086.043.096.107l.043.74.3 3.997.15 1.833.097 1.05.064.836ZM9.145 7.75h.194c.096 0 .117.032.117.128l.086 1.297.193 2.69.118 1.404.086 1.083.171 1.864c0 .086-.01.097-.096.097l-.772-.032c-.053.01-.086-.021-.086-.075l-.032-.375a27.409 27.409 0 0 1-.085-.976l-.172-1.693-.182-1.533-.129-1.082-.14-.986c-.063-.44-.138-.89-.213-1.329l-.054-.3c-.01-.054 0-.075.054-.086.3-.053.589-.107.943-.096Zm10.782 4.319c.268 0 .3.01.343.268.054.321.097.643.129.964l.118 1.04.225 2.208c.01.053 0 .075-.054.075l-.836.096c-.085.01-.107 0-.117-.085l-.483-2.465-.3-1.64-.043-.225c-.01-.043.011-.075.054-.086.332-.075.654-.129.964-.15Zm-12.185 0c.289-.01.321.021.353.29.075.439.129.867.172 1.307l.14 1.286.085.868.075.697c0 .096-.01.118-.097.128l-.793.075c-.085.01-.107 0-.118-.085l-.653-3.366-.172-.954c-.01-.053.01-.085.065-.096.332-.075.643-.129.943-.15Zm4.094 3.322v1.372c.01.064-.022.096-.086.086h-.257c-.182 0-.365.01-.547.021-.096.011-.107.011-.118-.107l-.171-1.929-.086-.954-.128-1.457c-.011-.118.01-.14.107-.15.3-.033.6-.033.9-.022l.225.032c.086.032.096.043.096.129l.033.579.01.643c.011.59.022 1.168.022 1.757ZM24 15.456V16.774c0 .053-.021.085-.075.075h-.386c-.15 0-.3.01-.44.021-.085.011-.096 0-.107-.096l-.225-2.508-.117-1.243-.043-.633c-.011-.085.01-.107.096-.107a4.484 4.484 0 0 1 1.072-.01c.14.01.16.053.171.192l.033 1.426.021 1.565Zm-4.383-5.67c.107 0 .203.01.278.021.054.011.075.033.086.086l.14 1.49c.031.129.01.15-.119.15l-.364.021c-.075.011-.107.022-.107-.096l-.15-1.211-.043-.343c-.01-.064.01-.097.075-.107l.204-.01Zm-12.143 0c.085 0 .171.01.246.021.043.011.065.033.075.086l.043.375.107 1.168c.011.086.011.097-.075.097l-.418.021c-.085.011-.096 0-.107-.085l-.096-.858-.086-.718c-.01-.053.01-.086.064-.086.075-.01.161-.02.247-.02Zm4.276 1.072v.74c.01.117-.01.117-.107.117-.14 0-.268-.01-.397-.021-.085-.011-.096-.011-.085-.097l-.033-.91c0-.204 0-.408-.01-.611-.011-.097 0-.108.096-.108.15 0 .3.011.45.032.086 0 .086.022.086.108v.75Zm12.175.01v.74c0 .096-.01.107-.107.107l-.407-.021c-.065-.011-.097-.043-.086-.097l-.032-1.532c0-.086.01-.097.096-.097.14 0 .268.011.397.022.16.01.139.043.139.16v.718Zm-16.783.58c.01.128 0 .15-.13.16l-.256.064c-.086.032-.097.011-.107-.064l-.268-1.511c-.033-.097-.011-.118.085-.129l.375-.064c.086-.01.108-.01.108.075.032.182.064.364.085.546l.108.858v.064Zm11.403-1.469c.16-.032.332-.054.504-.075.053-.01.075.021.085.075l.086.59c.043.289.075.578.086.867v.086c.01.043-.01.075-.054.086l-.343.075c-.053.01-.075-.01-.085-.064l-.28-1.597v-.043Zm-7.61 1.158c0 .17-.01.332-.02.482 0 .053-.022.075-.076.085l-.332.033c-.054.01-.075-.022-.075-.075a7.013 7.013 0 0 1-.043-.472c-.022-.29-.043-.59-.054-.89l-.021-.214c-.01-.043.01-.064.053-.064l.44-.032c.075 0 .096.01.096.096l.032 1.05Zm12.154-.172c.01.204.01.418 0 .622.01.096-.01.117-.107.117l-.3.033c-.054.01-.086-.022-.086-.075-.01-.268-.032-.547-.053-.815l-.043-.75c-.011-.054.01-.075.053-.075l.429-.032c.075 0 .086.01.086.096.021.29.032.59.021.879ZM6.724 14.62a.676.676 0 0 1 .128.675c-.064.236-.182.44-.354.61-.278.29-.6.526-.953.708a6.477 6.477 0 0 1-1.919.665c-.482.096-.964.16-1.447.193-.15.01-.3.01-.45.01h-.321c-.086 0-.107-.021-.118-.107l-.075-1.04-.204-2.047-.225-1.95-.128-1.04-.14-.996C.443 9.754.347 9.207.25 8.66.175 8.22.1 7.78.004 7.343c-.011-.054 0-.097.053-.108l1.49-.621a1.43 1.43 0 0 1 .279-.097c.064-.01.096.011.085.075 0 .172 0 .343-.01.525l-.011.14c-.01.621-.01 1.243 0 1.875.01.547.043 1.104.075 1.65.054.858.14 1.716.225 2.562 0 .086.01.086.107.075.182-.032.354-.043.536-.043.568 0 1.136.065 1.683.204.482.118.943.279 1.404.482.225.108.428.236.621.386a.93.93 0 0 1 .183.172Zm12.078-.097c.225.182.3.429.236.718-.054.236-.161.44-.322.622-.257.29-.557.514-.89.697a6.64 6.64 0 0 1-2.057.728c-.396.075-.793.14-1.19.172-.225.021-.471.032-.718.021h-.29c-.063.01-.095-.021-.095-.086-.022-.3-.043-.6-.076-.9l-.171-1.833-.182-1.596-.225-1.8c-.032-.312-.075-.633-.129-.944l-.193-1.2a31.599 31.599 0 0 0-.31-1.704l-.011-.075c-.022-.054 0-.097.053-.108.526-.214 1.04-.45 1.565-.653.14-.054.31-.118.3.01-.043.397-.032.793-.043 1.18-.01.32-.01.642.011.953v.247c0 .385.01.771.043 1.146.021.504.053 1.018.096 1.522l.097 1.083c.01.203.032.396.064.6 0 .118.021.107.118.096.193-.032.386-.043.579-.043.675.011 1.329.118 1.972.3.44.118.857.28 1.264.494.183.096.343.214.504.353ZM3.305 16.41c.16-.097.44-.29.825-.59.386-.31.621-.514.718-.622a18.941 18.941 0 0 0-1.8-.686l.257 1.898Zm13.686-1.158c.032-.032.021-.054-.01-.075l-.258-.107c-.45-.193-.9-.365-1.361-.515l-.065-.021c-.021-.01-.042 0-.075.01l.258 1.855c.032 0 .053-.011.064-.022.418-.3.836-.61 1.254-.943l.193-.182Z" fill="#07a3d7"/></svg>