<svg viewBox="0 0 8 8" xmlns="http://www.w3.org/2000/svg"><path d="M2.371.009c-.218.047-.375.227-.376.43 0 .109.024.152.247.45.083.11.15.21.15.22 0 .01-.016.019-.04.019-.089 0-.933.058-1.041.071a1.353 1.353 0 0 0-.998.604c-.174.264-.206.395-.258 1.06l-.03.378c-.037.43-.032 1.846.007 2.419.031.45.062.72.096.842.112.407.433.75.849.912.198.077.703.124 1.866.173.414.018 2.08.013 2.528-.007.399-.018.536-.027 1.082-.07.452-.035.664-.105.922-.305.288-.222.468-.546.515-.926.118-.958.143-2.135.066-3.154-.066-.873-.11-1.07-.295-1.344a1.82 1.82 0 0 0-.341-.344c-.246-.175-.492-.243-.99-.273a10.38 10.38 0 0 0-.505-.03c-.204-.008-.251-.014-.251-.03 0-.012.04-.073.09-.136.18-.227.284-.383.304-.456.03-.11-.015-.25-.112-.357-.1-.112-.285-.178-.41-.146-.15.037-.2.096-.59.683a9.283 9.283 0 0 0-.212.33c-.032.059-.037.062-.1.061l-.622.006-.555.007-.046-.075c-.155-.255-.45-.695-.56-.837-.12-.153-.24-.207-.39-.175m.632 1.86c-.619.02-1.174.053-1.558.094-.216.023-.297.056-.407.164-.162.158-.186.256-.23.932C.744 4.087.756 5.33.84 6.133c.02.193.061.287.18.41.175.183.2.187 1.62.264 1.206.066 3.758-.004 4.09-.111a.573.573 0 0 0 .254-.175c.127-.145.143-.201.181-.658.049-.577.059-.84.058-1.533 0-.591-.005-.787-.033-1.162-.056-.783-.078-.878-.238-1.033-.144-.14-.227-.168-.564-.194a34.087 34.087 0 0 0-3.384-.072m-.145 1.336c-.313.087-.518.153-.836.269-.412.15-.556.218-.612.292-.036.047-.041.067-.04.15 0 .115.024.19.081.255.079.09.194.105.35.045a24.914 24.914 0 0 1 1.173-.423c.175-.058.229-.092.268-.175.07-.148-.03-.386-.18-.428-.068-.019-.091-.017-.204.015M4.91 3.19c-.06.018-.155.126-.177.2a.362.362 0 0 0 .003.225c.038.09.089.118.387.217a27.097 27.097 0 0 1 .944.338c.237.09.263.096.349.07.104-.03.171-.121.195-.264.026-.151-.043-.259-.21-.329a5.63 5.63 0 0 0-.4-.16 21.753 21.753 0 0 0-.813-.268.544.544 0 0 0-.278-.03M2.823 4.609c-.044.045-.048.096-.018.212a.885.885 0 0 0 .23.432c.17.173.426.219.644.116a.66.66 0 0 0 .254-.21c.017-.028.037-.05.045-.05.007 0 .057.046.11.102a.618.618 0 0 0 .206.155c.102.049.12.053.241.053.17 0 .262-.035.38-.142a.83.83 0 0 0 .232-.384c.061-.179.062-.224.007-.28-.058-.058-.12-.057-.177.003-.023.025-.042.056-.042.068 0 .08-.115.307-.19.377-.137.125-.352.092-.481-.074a1.532 1.532 0 0 1-.121-.193c-.072-.14-.124-.177-.203-.148-.044.016-.06.036-.12.157-.085.171-.198.294-.295.32a.319.319 0 0 1-.336-.108 1.32 1.32 0 0 1-.148-.316c-.014-.05-.037-.092-.056-.105a.126.126 0 0 0-.162.015" fill="#24ADE5" fill-rule="evenodd"/></svg>