<svg viewBox="0 0 24 24" xmlns="http://www.w3.org/2000/svg"><path d="M7.34091 10.0845L12.0023 5.42496L16.6656 10.0882L19.3764 7.37557L12.0023-0.000379256L4.62824 7.37368L7.34091 10.0845ZM-1.77636e-15 12.0004L2.71168 9.28873L5.42335 12.0004L2.71168 14.7121L-1.77636e-15 12.0004ZM7.34091 13.9155L12.0023 18.5769L16.6656 13.9137L19.3783 16.6225L19.3764 16.6244L12.0023 24.0004L4.62824 16.6282L4.62445 16.6244L7.34091 13.9155ZM18.5766 12.0011L21.2883 9.2894L24 12.0011L21.2883 14.7128L18.5766 12.0011ZM14.7529 11.9991L12.0023 9.24658L9.96827 11.2806L9.73321 11.5138L9.25172 11.9953L9.24793 11.9991L9.25172 12.0047L12.0023 14.7534L14.7529 12.0009L14.7548 11.9991L14.7529 11.9991Z" fill="#f3ba2f" fill-rule="nonzero" opacity="1" stroke="none"/></svg>
