<svg viewBox="0 0 24 24" xmlns="http://www.w3.org/2000/svg"><path d="M19.572 5.032a.364.364 0 1 1 .727 0 .364.364 0 0 1-.727 0Zm-1.778 1.112a.422.422 0 1 1 .843 0 .422.422 0 0 1-.843 0ZM16.01 7.259a.483.483 0 1 1 .965 0 .483.483 0 0 1-.965 0ZM14.226 8.37a.544.544 0 1 1 1.087 0 .544.544 0 0 1-1.087 0ZM12.44 9.486a.605.605 0 1 1 1.21 0 .605.605 0 0 1-1.21 0Zm-1.784 1.112a.666.666 0 1 1 1.332 0 .666.666 0 0 1-1.332 0Zm-1.78 1.112a.724.724 0 1 1 1.447 0 .724.724 0 0 1-1.448 0Zm.057 1.747a.666.666 0 1 1 1.332 0 .666.666 0 0 1-1.332 0Zm.061 1.748a.605.605 0 1 1 1.21 0 .605.605 0 0 1-1.21 0Zm.062 1.744a.544.544 0 1 1 1.087 0 .544.544 0 0 1-1.087 0Zm.06 1.747a.483.483 0 1 1 .966 0 .483.483 0 0 1-.965 0Zm.062 1.745a.422.422 0 1 1 .843 0 .422.422 0 0 1-.843 0Zm.058 1.747a.364.364 0 1 1 .727 0 .364.364 0 0 1-.727 0Zm8.02-18.711a.364.364 0 1 1 .726 0 .364.364 0 0 1-.727 0Zm-1.782 1.112a.422.422 0 1 1 .843 0 .422.422 0 0 1-.843 0Zm-1.781 1.115a.483.483 0 1 1 .965 0 .483.483 0 0 1-.965 0ZM11.91 6.816a.544.544 0 1 1 1.087 0 .544.544 0 0 1-1.087 0Zm-1.784 1.112a.605.605 0 1 1 1.21 0 .605.605 0 0 1-1.21 0ZM8.342 9.043a.666.666 0 1 1 1.332 0 .666.666 0 0 1-1.332 0ZM6.56 10.155a.724.724 0 1 1 1.448 0 .724.724 0 0 1-1.448 0Zm.058 1.747a.666.666 0 1 1 1.331 0 .666.666 0 0 1-1.331 0Zm.06 1.748a.605.605 0 1 1 1.21 0 .605.605 0 0 1-1.21 0Zm.062 1.744a.544.544 0 1 1 1.087 0 .544.544 0 0 1-1.087 0Zm.06 1.748a.483.483 0 1 1 .966 0 .483.483 0 0 1-.965 0Zm.062 1.744a.422.422 0 1 1 .843 0 .422.422 0 0 1-.843 0Zm.058 1.747a.363.363 0 1 1 .727 0 .363.363 0 0 1-.727 0Zm8.02-18.711a.364.364 0 1 1 .727 0 .364.364 0 0 1-.728 0Zm-1.782 1.112a.422.422 0 1 1 .844 0 .422.422 0 0 1-.844 0Zm-1.78 1.112a.483.483 0 1 1 .965 0 .483.483 0 0 1-.966 0ZM9.593 5.26a.544.544 0 1 1 1.088 0 .544.544 0 0 1-1.088 0ZM7.81 6.373a.605.605 0 1 1 1.21 0 .605.605 0 0 1-1.21 0ZM6.026 7.488a.666.666 0 1 1 1.332 0 .666.666 0 0 1-1.332 0ZM4.245 8.6a.724.724 0 1 1 1.448 0 .724.724 0 0 1-1.448 0Zm.058 1.747a.666.666 0 1 1 1.332 0 .666.666 0 0 1-1.332 0Zm.061 1.745a.605.605 0 1 1 1.21 0 .605.605 0 0 1-1.21 0Zm.061 1.747a.544.544 0 1 1 1.088 0 .544.544 0 0 1-1.088 0Zm.061 1.748a.483.483 0 1 1 .966 0 .483.483 0 0 1-.966 0Zm.061 1.744a.422.422 0 1 1 .843 0 .422.422 0 0 1-.843 0Zm.058 1.747a.363.363 0 1 1 .727 0 .363.363 0 0 1-.727 0ZM12.625.364a.364.364 0 1 1 .727 0 .364.364 0 0 1-.727 0Zm-1.781 1.115a.422.422 0 1 1 .843 0 .422.422 0 0 1-.843 0ZM9.06 2.59a.483.483 0 1 1 .965 0 .483.483 0 0 1-.965 0ZM7.279 3.706a.544.544 0 1 1 1.087 0 .544.544 0 0 1-1.087 0ZM5.494 4.818a.605.605 0 1 1 1.21 0 .605.605 0 0 1-1.21 0ZM3.71 5.933a.666.666 0 1 1 1.332 0 .666.666 0 0 1-1.332 0ZM1.93 7.045a.724.724 0 1 1 1.447 0 .724.724 0 0 1-1.448 0Zm.057 1.747a.666.666 0 1 1 1.332 0 .666.666 0 0 1-1.332 0Zm.061 1.745a.605.605 0 1 1 1.21 0 .605.605 0 0 1-1.21 0Zm.061 1.747a.544.544 0 1 1 1.088 0 .544.544 0 0 1-1.088 0Zm.062 1.744a.483.483 0 1 1 .965 0 .483.483 0 0 1-.965 0Zm.06 1.748a.422.422 0 1 1 .844 0 .422.422 0 0 1-.843 0Zm.059 1.747a.363.363 0 1 1 .727 0 .363.363 0 0 1-.727 0Zm8.905-4.362a.724.724 0 1 1 1.448 0 .724.724 0 0 1-1.448 0Zm.058 1.747a.666.666 0 1 1 1.332 0 .666.666 0 0 1-1.332 0Zm.061 1.745a.605.605 0 1 1 1.21 0 .605.605 0 0 1-1.21 0Zm.061 1.747a.544.544 0 1 1 1.088 0 .544.544 0 0 1-1.088 0Zm.061 1.745a.483.483 0 1 1 .966 0 .483.483 0 0 1-.966 0Zm.062 1.747a.422.422 0 1 1 .843 0 .422.422 0 0 1-.843 0Zm.058 1.745a.364.364 0 1 1 .727 0 .364.364 0 0 1-.727 0Zm6.568-15.068a.724.724 0 1 1 1.448 0 .724.724 0 0 1-1.448 0Zm.058 1.745a.666.666 0 1 1 1.332 0 .666.666 0 0 1-1.332 0Zm.06 1.747a.605.605 0 1 1 1.21 0 .605.605 0 0 1-1.21 0Zm.062 1.745a.544.544 0 1 1 1.088 0 .544.544 0 0 1-1.088 0Zm.061 1.747a.483.483 0 1 1 .965 0 .483.483 0 0 1-.965 0Zm.061 1.744a.422.422 0 1 1 .843 0 .422.422 0 0 1-.843 0Zm.058 1.748a.364.364 0 1 1 .727 0 .364.364 0 0 1-.727 0Zm2.139-12.23a.724.724 0 1 1 1.448 0 .724.724 0 0 1-1.448 0Zm.058 1.748a.666.666 0 1 1 1.332 0 .666.666 0 0 1-1.332 0Zm.06 1.744a.605.605 0 1 1 1.21 0 .605.605 0 0 1-1.21 0Zm.062 1.748a.544.544 0 1 1 1.088 0 .544.544 0 0 1-1.088 0Zm.061 1.744a.483.483 0 1 1 .965 0 .483.483 0 0 1-.965 0Zm.061 1.748a.421.421 0 1 1 .843 0 .421.421 0 0 1-.843 0Zm.058 1.744a.364.364 0 1 1 .727 0 .364.364 0 0 1-.727 0Zm-5.175-7.167a.724.724 0 1 1 1.448 0 .724.724 0 0 1-1.448 0Zm.058 1.748a.666.666 0 1 1 1.332 0 .666.666 0 0 1-1.332 0Zm.061 1.744a.605.605 0 1 1 1.21 0 .605.605 0 0 1-1.21 0Zm.061 1.748a.544.544 0 1 1 1.088 0 .544.544 0 0 1-1.088 0Zm.061 1.744a.483.483 0 1 1 .966 0 .483.483 0 0 1-.966 0Zm.061 1.747a.422.422 0 1 1 .844 0 .422.422 0 0 1-.844 0Zm.059 1.745a.364.364 0 1 1 .727 0 .364.364 0 0 1-.727 0Zm-2.677-8.89a.724.724 0 1 1 1.448 0 .724.724 0 0 1-1.448 0Zm.058 1.747a.666.666 0 1 1 1.332 0 .666.666 0 0 1-1.332 0Zm.061 1.748a.605.605 0 1 1 1.21 0 .605.605 0 0 1-1.21 0Zm.062 1.744a.544.544 0 1 1 1.087 0 .544.544 0 0 1-1.087 0Zm.06 1.747a.483.483 0 1 1 .966 0 .483.483 0 0 1-.965 0Zm.062 1.745a.422.422 0 1 1 .843 0 .422.422 0 0 1-.843 0Zm.058 1.747a.364.364 0 1 1 .727 0 .364.364 0 0 1-.727 0Z"/></svg>