<svg xmlns="http://www.w3.org/2000/svg" viewBox="0 0 930.24 241.85"><defs><style>.cls-1{fill:#fff}.cls-2{fill:#231815}</style></defs><g id="图层_2" data-name="图层 2"><g id="图层_1-2" data-name="图层 1"><circle cx="120.93" cy="120.93" r="120.93"/><path class="cls-1" d="M105.1 59.41c38.55-1.17 39.45 8.46 39.45 8.46 10.67 18.21-14.72 32.71-14.72 32.71v24.28C174.69 108 169.63 76 169.63 76c1-45.19-65.43-40.08-65.43-40.08H79.81V105h25.29ZM171.32 124.86l-18.22 14.5s9.3 26.31-12.55 33c0 0-8.93 5-37.49 3.73v-46H79.81v69.11h22.71s66.77 8.69 75.88-41.09c0 0 2.02-19.11-7.08-33.25Z"/><path d="M381.83 164.76V90.94h-12.06V79.09h25.38v85.67h10.37v11.84h-35.75v-11.84ZM427.62 164.76v-44.17H417.1v-11.84h23.84v56h10.51v11.85H417.1v-11.84Zm-1.9-79.08a7.85 7.85 0 0 1 2.28-5.6 7.67 7.67 0 0 1 5.79-2.39 7.84 7.84 0 0 1 5.67 2.31 7.59 7.59 0 0 1 2.39 5.67 7.73 7.73 0 0 1-2.39 5.72 7.83 7.83 0 0 1-5.67 2.35 7.73 7.73 0 0 1-5.72-2.39 7.83 7.83 0 0 1-2.35-5.67ZM487 108.75V117q12.84-9.26 23.42-9.25a18.2 18.2 0 0 1 10.9 3.11 14.38 14.38 0 0 1 5.64 7.65q1.34 4.52 1.33 13.21v33.09h11.43v11.79H515v-44.37q0-7.71-2.31-10.06a7.67 7.67 0 0 0-5.68-2.35q-8.84 0-20 8.62v36.32h11.71v11.84h-36.95v-11.84h11.92v-44.17h-11.92v-11.84ZM559.5 164.76V90.94h-12.2V79.09h25.52V140l25.38-20.26h-11.29v-11h37.5v11H614l-25.45 21.17 23.91 23.84h11.91v11.85H607l-34.14-34.14v22.3h11.71v11.84H547.3v-11.84ZM644.62 164.76V90.94h-12.06V79.09h25.37v85.67h10.38v11.84h-35.75v-11.84ZM680.66 142.67q0-15.69 10.38-25.76a35 35 0 0 1 25.3-10.06 35.41 35.41 0 0 1 25.17 9.92Q752 126.7 752 142.67t-10.48 25.94a35.27 35.27 0 0 1-25.2 10q-15.14 0-25.41-10.1t-10.25-25.84Zm14.09 0q0 10.05 6.27 16.47a21.49 21.49 0 0 0 30.71-.07q6.19-6.49 6.2-16.4t-6.31-16.43a20.55 20.55 0 0 0-15.28-6.46 20.18 20.18 0 0 0-15.49 6.6 23.09 23.09 0 0 0-6.1 16.26ZM835.45 164.76v11.84h-23.27v-8.27q-9.67 9.39-21.59 9.39a23.53 23.53 0 0 1-16.09-6 20.73 20.73 0 0 1 .42-31.13 25.93 25.93 0 0 1 17.49-6.24 33.57 33.57 0 0 1 18.44 5.75v-6.73a25.41 25.41 0 0 0-1-8 10.3 10.3 0 0 0-4.59-5 17.72 17.72 0 0 0-9.43-2.24q-10 0-14.51 8l-12.76-3.36q8.48-15.84 29.3-15.85a37.93 37.93 0 0 1 13.21 2.07 19.38 19.38 0 0 1 8.31 5.33 17.51 17.51 0 0 1 3.68 7 54.9 54.9 0 0 1 .95 12.06v31.41Zm-24.6-13.39q-8.62-6.74-17.46-6.73a13.61 13.61 0 0 0-9.25 3.22 10.52 10.52 0 0 0-3.71 8.34 10.74 10.74 0 0 0 3.26 8q3.25 3.24 8.86 3.23 9.68 0 18.3-8.13ZM930.24 164.76v11.84h-25.51v-9.95q-10 11.07-24.26 11.07a33.66 33.66 0 0 1-23.27-9q-10-9-10-25.73t10.31-26.42q10.31-9.68 23.27-9.68 13.74 0 24 10.94V90.94h-13V79.09H918v85.67ZM861.4 142.6q0 11.22 6.35 17.25a21.7 21.7 0 0 0 30.35-.32q6.63-6.34 6.63-17.56t-6.77-17a22.86 22.86 0 0 0-15.18-5.75 19.79 19.79 0 0 0-15.21 6.78 23.8 23.8 0 0 0-6.17 16.6Z"/><path class="cls-2" d="M311.77 87.39c25.44-.77 26 5.58 26 5.58 7.05 12-9.71 21.59-9.71 21.59v16c29.61-11.13 26.27-32.28 26.27-32.28.67-29.83-43.19-26.46-43.19-26.46h-16.1v45.6h16.7ZM355.47 130.59l-12 9.57s6.14 17.36-8.28 21.82c0 0-5.9 3.29-24.75 2.46v-30.38h-15.37v45.6h15s44.08 5.73 50.09-27.12c-.01 0 1.32-12.6-4.69-21.95Z"/></g></g></svg>