<svg viewBox="0 0 24 24" xmlns="http://www.w3.org/2000/svg"><path d="M19.5718 5.03157C19.5718 4.83079 19.7346 4.66802 19.9353 4.66802C20.1361 4.66802 20.2989 4.83079 20.2989 5.03157C20.2989 5.23235 20.1361 5.39511 19.9353 5.39511C19.7346 5.39511 19.5718 5.23235 19.5718 5.03157ZM17.7938 6.14358C17.7938 5.91075 17.9825 5.72199 18.2154 5.72199C18.4482 5.72199 18.637 5.91075 18.637 6.14358C18.637 6.37642 18.4482 6.56517 18.2154 6.56517C17.9825 6.56517 17.7938 6.37642 17.7938 6.14358ZM16.0097 7.25866C16.0097 6.99208 16.2258 6.77597 16.4924 6.77597C16.7589 6.77597 16.9751 6.99208 16.9751 7.25866C16.9751 7.52524 16.7589 7.74135 16.4924 7.74135C16.2258 7.74135 16.0097 7.52524 16.0097 7.25866ZM14.2256 8.37067C14.2256 8.07035 14.469 7.82689 14.7693 7.82689C15.0697 7.82689 15.3131 8.07035 15.3131 8.37067C15.3131 8.671 15.0697 8.91446 14.7693 8.91446C14.469 8.91446 14.2256 8.671 14.2256 8.37067ZM12.4414 9.48574C12.4414 9.15167 12.7123 8.88085 13.0463 8.88085C13.3804 8.88085 13.6512 9.15167 13.6512 9.48574C13.6512 9.81981 13.3804 10.0906 13.0463 10.0906C12.7123 10.0906 12.4414 9.81981 12.4414 9.48574ZM10.6573 10.5978C10.6573 10.2299 10.9555 9.93177 11.3233 9.93177C11.6911 9.93177 11.9893 10.2299 11.9893 10.5978C11.9893 10.9656 11.6911 11.2637 11.3233 11.2637C10.9555 11.2637 10.6573 10.9656 10.6573 10.5978ZM8.87627 11.7098C8.87627 11.3099 9.20043 10.9857 9.60031 10.9857C10.0002 10.9857 10.3243 11.3099 10.3243 11.7098C10.3243 12.1096 10.0002 12.4338 9.60031 12.4338C9.20043 12.4338 8.87627 12.1096 8.87627 11.7098ZM8.93432 13.4572C8.93432 13.0894 9.23249 12.7912 9.60031 12.7912C9.96812 12.7912 10.2663 13.0894 10.2663 13.4572C10.2663 13.825 9.96812 14.1232 9.60031 14.1232C9.23249 14.1232 8.93432 13.825 8.93432 13.4572ZM8.99542 15.2047C8.99542 14.8706 9.26624 14.5998 9.60031 14.5998C9.93438 14.5998 10.2052 14.8706 10.2052 15.2047C10.2052 15.5388 9.93438 15.8096 9.60031 15.8096C9.26624 15.8096 8.99542 15.5388 8.99542 15.2047ZM9.05652 16.9491C9.05652 16.6488 9.29998 16.4053 9.60031 16.4053C9.90063 16.4053 10.1441 16.6488 10.1441 16.9491C10.1441 17.2494 9.90063 17.4929 9.60031 17.4929C9.29998 17.4929 9.05652 17.2494 9.05652 16.9491ZM9.11762 18.6965C9.11762 18.43 9.33373 18.2139 9.60031 18.2139C9.86689 18.2139 10.083 18.43 10.083 18.6965C10.083 18.9631 9.86689 19.1792 9.60031 19.1792C9.33373 19.1792 9.11762 18.9631 9.11762 18.6965ZM9.17872 20.4409C9.17872 20.2081 9.36747 20.0193 9.60031 20.0193C9.83314 20.0193 10.0219 20.2081 10.0219 20.4409C10.0219 20.6738 9.83314 20.8625 9.60031 20.8625C9.36747 20.8625 9.17872 20.6738 9.17872 20.4409ZM9.23676 22.1884C9.23676 21.9876 9.39953 21.8248 9.60031 21.8248C9.80109 21.8248 9.96385 21.9876 9.96385 22.1884C9.96385 22.3892 9.80109 22.5519 9.60031 22.5519C9.39953 22.5519 9.23676 22.3892 9.23676 22.1884ZM17.2561 3.47658C17.2561 3.2758 17.4189 3.11304 17.6197 3.11304C17.8204 3.11304 17.9832 3.2758 17.9832 3.47658C17.9832 3.67736 17.8204 3.84012 17.6197 3.84012C17.4189 3.84012 17.2561 3.67736 17.2561 3.47658ZM15.4751 4.58859C15.4751 4.35576 15.6638 4.16701 15.8966 4.16701C16.1295 4.16701 16.3182 4.35576 16.3182 4.58859C16.3182 4.82143 16.1295 5.01018 15.8966 5.01018C15.6638 5.01018 15.4751 4.82143 15.4751 4.58859ZM13.694 5.70367C13.694 5.43709 13.9101 5.22098 14.1767 5.22098C14.4433 5.22098 14.6594 5.43709 14.6594 5.70367C14.6594 5.97025 14.4433 6.18636 14.1767 6.18636C13.9101 6.18636 13.694 5.97025 13.694 5.70367ZM11.9099 6.81568C11.9099 6.51536 12.1533 6.2719 12.4537 6.2719C12.754 6.2719 12.9975 6.51536 12.9975 6.81568C12.9975 7.11601 12.754 7.35947 12.4537 7.35947C12.1533 7.35947 11.9099 7.11601 11.9099 6.81568ZM10.1258 7.9277C10.1258 7.59363 10.3966 7.32281 10.7307 7.32281C11.0647 7.32281 11.3355 7.59363 11.3355 7.9277C11.3355 8.26177 11.0647 8.53259 10.7307 8.53259C10.3966 8.53259 10.1258 8.26177 10.1258 7.9277ZM8.34165 9.04277C8.34165 8.67496 8.63982 8.37678 9.00764 8.37678C9.37545 8.37678 9.67363 8.67496 9.67363 9.04277C9.67363 9.41058 9.37545 9.70876 9.00764 9.70876C8.63982 9.70876 8.34165 9.41058 8.34165 9.04277ZM6.56059 10.1548C6.56059 9.75491 6.88475 9.43075 7.28462 9.43075C7.6845 9.43075 8.00866 9.75491 8.00866 10.1548C8.00866 10.5547 7.6845 10.8788 7.28462 10.8788C6.88475 10.8788 6.56059 10.5547 6.56059 10.1548ZM6.61864 11.9022C6.61864 11.5344 6.91681 11.2363 7.28462 11.2363C7.65244 11.2363 7.95061 11.5344 7.95061 11.9022C7.95061 12.2701 7.65244 12.5682 7.28462 12.5682C6.91681 12.5682 6.61864 12.2701 6.61864 11.9022ZM6.67974 13.6497C6.67974 13.3156 6.95055 13.0448 7.28462 13.0448C7.61869 13.0448 7.88951 13.3156 7.88951 13.6497C7.88951 13.9838 7.61869 14.2546 7.28462 14.2546C6.95055 14.2546 6.67974 13.9838 6.67974 13.6497ZM6.74084 15.3941C6.74084 15.0938 6.9843 14.8503 7.28462 14.8503C7.58495 14.8503 7.82841 15.0938 7.82841 15.3941C7.82841 15.6944 7.58495 15.9379 7.28462 15.9379C6.9843 15.9379 6.74084 15.6944 6.74084 15.3941ZM6.80194 17.1415C6.80194 16.875 7.01804 16.6589 7.28462 16.6589C7.55121 16.6589 7.76731 16.875 7.76731 17.1415C7.76731 17.4081 7.55121 17.6242 7.28462 17.6242C7.01804 17.6242 6.80194 17.4081 6.80194 17.1415ZM6.86304 18.8859C6.86304 18.6531 7.05179 18.4644 7.28462 18.4644C7.51746 18.4644 7.70621 18.6531 7.70621 18.8859C7.70621 19.1188 7.51746 19.3075 7.28462 19.3075C7.05179 19.3075 6.86304 19.1188 6.86304 18.8859ZM6.92108 20.6334C6.92108 20.4326 7.08384 20.2699 7.28462 20.2699C7.4854 20.2699 7.64817 20.4326 7.64817 20.6334C7.64817 20.8342 7.4854 20.9969 7.28462 20.9969C7.08384 20.9969 6.92108 20.8342 6.92108 20.6334ZM14.9404 1.92159C14.9404 1.72081 15.1032 1.55805 15.304 1.55805C15.5048 1.55805 15.6675 1.72081 15.6675 1.92159C15.6675 2.12237 15.5048 2.28513 15.304 2.28513C15.1032 2.28513 14.9404 2.12237 14.9404 1.92159ZM13.1594 3.03361C13.1594 2.80077 13.3481 2.61202 13.581 2.61202C13.8138 2.61202 14.0025 2.80077 14.0025 3.03361C14.0025 3.26644 13.8138 3.45519 13.581 3.45519C13.3481 3.45519 13.1594 3.26644 13.1594 3.03361ZM11.3783 4.14562C11.3783 3.87904 11.5944 3.66293 11.861 3.66293C12.1276 3.66293 12.3437 3.87904 12.3437 4.14562C12.3437 4.4122 12.1276 4.62831 11.861 4.62831C11.5944 4.62831 11.3783 4.4122 11.3783 4.14562ZM9.5942 5.26069C9.5942 4.96037 9.83766 4.7169 10.138 4.7169C10.4383 4.7169 10.6818 4.96037 10.6818 5.26069C10.6818 5.56102 10.4383 5.80448 10.138 5.80448C9.83766 5.80448 9.5942 5.56102 9.5942 5.26069ZM7.81008 6.37271C7.81008 6.03864 8.0809 5.76782 8.41497 5.76782C8.74904 5.76782 9.01986 6.03864 9.01986 6.37271C9.01986 6.70678 8.74904 6.9776 8.41497 6.9776C8.0809 6.9776 7.81008 6.70678 7.81008 6.37271ZM6.02597 7.48778C6.02597 7.11997 6.32414 6.82179 6.69196 6.82179C7.05977 6.82179 7.35794 7.11997 7.35794 7.48778C7.35794 7.8556 7.05977 8.15377 6.69196 8.15377C6.32414 8.15377 6.02597 7.8556 6.02597 7.48778ZM4.24491 8.5998C4.24491 8.19993 4.56907 7.87577 4.96894 7.87577C5.36881 7.87577 5.69297 8.19993 5.69297 8.5998C5.69297 8.99967 5.36881 9.32383 4.96894 9.32383C4.56907 9.32383 4.24491 8.99967 4.24491 8.5998ZM4.30295 10.3473C4.30295 9.97944 4.60113 9.68126 4.96894 9.68126C5.33676 9.68126 5.63493 9.97944 5.63493 10.3473C5.63493 10.7151 5.33676 11.0132 4.96894 11.0132C4.60113 11.0132 4.30295 10.7151 4.30295 10.3473ZM4.36405 12.0916C4.36405 11.7576 4.63487 11.4868 4.96894 11.4868C5.30301 11.4868 5.57383 11.7576 5.57383 12.0916C5.57383 12.4257 5.30301 12.6965 4.96894 12.6965C4.63487 12.6965 4.36405 12.4257 4.36405 12.0916ZM4.42515 13.8391C4.42515 13.5388 4.66862 13.2953 4.96894 13.2953C5.26927 13.2953 5.51273 13.5388 5.51273 13.8391C5.51273 14.1394 5.26927 14.3829 4.96894 14.3829C4.66862 14.3829 4.42515 14.1394 4.42515 13.8391ZM4.48625 15.5866C4.48625 15.32 4.70236 15.1039 4.96894 15.1039C5.23552 15.1039 5.45163 15.32 5.45163 15.5866C5.45163 15.8531 5.23552 16.0692 4.96894 16.0692C4.70236 16.0692 4.48625 15.8531 4.48625 15.5866ZM4.54735 17.331C4.54735 17.0981 4.73611 16.9094 4.96894 16.9094C5.20178 16.9094 5.39053 17.0981 5.39053 17.331C5.39053 17.5638 5.20178 17.7525 4.96894 17.7525C4.73611 17.7525 4.54735 17.5638 4.54735 17.331ZM4.6054 19.0784C4.6054 18.8776 4.76816 18.7149 4.96894 18.7149C5.16972 18.7149 5.33249 18.8776 5.33249 19.0784C5.33249 19.2792 5.16972 19.442 4.96894 19.442C4.76816 19.442 4.6054 19.2792 4.6054 19.0784ZM12.6247 0.363544C12.6247 0.162764 12.7875 0 12.9883 0C13.1891 0 13.3518 0.162764 13.3518 0.363544C13.3518 0.564323 13.1891 0.727088 12.9883 0.727088C12.7875 0.727088 12.6247 0.564323 12.6247 0.363544ZM10.8437 1.47862C10.8437 1.24578 11.0324 1.05703 11.2653 1.05703C11.4981 1.05703 11.6869 1.24578 11.6869 1.47862C11.6869 1.71145 11.4981 1.90021 11.2653 1.90021C11.0324 1.90021 10.8437 1.71145 10.8437 1.47862ZM9.05957 2.59063C9.05957 2.32405 9.27568 2.10795 9.54226 2.10795C9.80884 2.10795 10.0249 2.32405 10.0249 2.59063C10.0249 2.85722 9.80884 3.07332 9.54226 3.07332C9.27568 3.07332 9.05957 2.85722 9.05957 2.59063ZM7.27851 3.7057C7.27851 3.40538 7.52198 3.16191 7.8223 3.16191C8.12263 3.16191 8.36609 3.40538 8.36609 3.7057C8.36609 4.00603 8.12263 4.24949 7.8223 4.24949C7.52198 4.24949 7.27851 4.00603 7.27851 3.7057ZM5.4944 4.81772C5.4944 4.48365 5.76522 4.21283 6.09929 4.21283C6.43336 4.21283 6.70418 4.48365 6.70418 4.81772C6.70418 5.15179 6.43336 5.42261 6.09929 5.42261C5.76522 5.42261 5.4944 5.15179 5.4944 4.81772ZM3.71029 5.93279C3.71029 5.56498 4.00846 5.26681 4.37627 5.26681C4.74409 5.26681 5.04226 5.56498 5.04226 5.93279C5.04226 6.30061 4.74409 6.59878 4.37627 6.59878C4.00846 6.59878 3.71029 6.30061 3.71029 5.93279ZM1.92923 7.04481C1.92923 6.64494 2.25339 6.32078 2.65326 6.32078C3.05313 6.32078 3.37729 6.64494 3.37729 7.04481C3.37729 7.44468 3.05313 7.76884 2.65326 7.76884C2.25339 7.76884 1.92923 7.44468 1.92923 7.04481ZM1.98727 8.79226C1.98727 8.42444 2.28544 8.12627 2.65326 8.12627C3.02107 8.12627 3.31925 8.42444 3.31925 8.79226C3.31925 9.16007 3.02107 9.45825 2.65326 9.45825C2.28544 9.45825 1.98727 9.16007 1.98727 8.79226ZM2.04837 10.5367C2.04837 10.2026 2.31919 9.93177 2.65326 9.93177C2.98733 9.93177 3.25815 10.2026 3.25815 10.5367C3.25815 10.8707 2.98733 11.1415 2.65326 11.1415C2.31919 11.1415 2.04837 10.8707 2.04837 10.5367ZM2.10947 12.2841C2.10947 11.9838 2.35293 11.7403 2.65326 11.7403C2.95359 11.7403 3.19705 11.9838 3.19705 12.2841C3.19705 12.5844 2.95359 12.8279 2.65326 12.8279C2.35293 12.8279 2.10947 12.5844 2.10947 12.2841ZM2.17057 14.0285C2.17057 13.7619 2.38668 13.5458 2.65326 13.5458C2.91984 13.5458 3.13595 13.7619 3.13595 14.0285C3.13595 14.2951 2.91984 14.5112 2.65326 14.5112C2.38668 14.5112 2.17057 14.2951 2.17057 14.0285ZM2.23167 15.776C2.23167 15.5431 2.42042 15.3544 2.65326 15.3544C2.8861 15.3544 3.07485 15.5431 3.07485 15.776C3.07485 16.0088 2.8861 16.1976 2.65326 16.1976C2.42042 16.1976 2.23167 16.0088 2.23167 15.776ZM2.28972 17.5234C2.28972 17.3226 2.45248 17.1599 2.65326 17.1599C2.85404 17.1599 3.0168 17.3226 3.0168 17.5234C3.0168 17.7242 2.85404 17.887 2.65326 17.887C2.45248 17.887 2.28972 17.7242 2.28972 17.5234ZM11.195 13.1609C11.195 12.761 11.5192 12.4369 11.919 12.4369C12.3189 12.4369 12.6431 12.761 12.6431 13.1609C12.6431 13.5608 12.3189 13.8849 11.919 13.8849C11.5192 13.8849 11.195 13.5608 11.195 13.1609ZM11.2531 14.9083C11.2531 14.5405 11.5512 14.2424 11.919 14.2424C12.2869 14.2424 12.585 14.5405 12.585 14.9083C12.585 15.2762 12.2869 15.5743 11.919 15.5743C11.5512 15.5743 11.2531 15.2762 11.2531 14.9083ZM11.3142 16.6528C11.3142 16.3187 11.585 16.0479 11.919 16.0479C12.2531 16.0479 12.5239 16.3187 12.5239 16.6528C12.5239 16.9868 12.2531 17.2576 11.919 17.2576C11.585 17.2576 11.3142 16.9868 11.3142 16.6528ZM11.3753 18.4002C11.3753 18.0999 11.6187 17.8564 11.919 17.8564C12.2194 17.8564 12.4628 18.0999 12.4628 18.4002C12.4628 18.7005 12.2194 18.944 11.919 18.944C11.6187 18.944 11.3753 18.7005 11.3753 18.4002ZM11.4364 20.1446C11.4364 19.878 11.6525 19.6619 11.919 19.6619C12.1856 19.6619 12.4017 19.878 12.4017 20.1446C12.4017 20.4112 12.1856 20.6273 11.919 20.6273C11.6525 20.6273 11.4364 20.4112 11.4364 20.1446ZM11.4975 21.8921C11.4975 21.6592 11.6862 21.4705 11.919 21.4705C12.1519 21.4705 12.3406 21.6592 12.3406 21.8921C12.3406 22.1249 12.1519 22.3136 11.919 22.3136C11.6862 22.3136 11.4975 22.1249 11.4975 21.8921ZM11.5555 23.6365C11.5555 23.4357 11.7183 23.2729 11.919 23.2729C12.1198 23.2729 12.2826 23.4357 12.2826 23.6365C12.2826 23.8372 12.1198 24 11.919 24C11.7183 24 11.5555 23.8372 11.5555 23.6365ZM18.1237 8.56925C18.1237 8.16937 18.4479 7.84521 18.8478 7.84521C19.2476 7.84521 19.5718 8.16937 19.5718 8.56925C19.5718 8.96912 19.2476 9.29328 18.8478 9.29328C18.4479 9.29328 18.1237 8.96912 18.1237 8.56925ZM18.1818 10.3136C18.1818 9.94583 18.4799 9.64766 18.8478 9.64766C19.2156 9.64766 19.5137 9.94583 19.5137 10.3136C19.5137 10.6815 19.2156 10.9796 18.8478 10.9796C18.4799 10.9796 18.1818 10.6815 18.1818 10.3136ZM18.2429 12.0611C18.2429 11.727 18.5137 11.4562 18.8478 11.4562C19.1818 11.4562 19.4526 11.727 19.4526 12.0611C19.4526 12.3952 19.1818 12.666 18.8478 12.666C18.5137 12.666 18.2429 12.3952 18.2429 12.0611ZM18.304 13.8055C18.304 13.5052 18.5474 13.2617 18.8478 13.2617C19.1481 13.2617 19.3915 13.5052 19.3915 13.8055C19.3915 14.1058 19.1481 14.3493 18.8478 14.3493C18.5474 14.3493 18.304 14.1058 18.304 13.8055ZM18.3651 15.553C18.3651 15.2864 18.5812 15.0703 18.8478 15.0703C19.1143 15.0703 19.3304 15.2864 19.3304 15.553C19.3304 15.8195 19.1143 16.0356 18.8478 16.0356C18.5812 16.0356 18.3651 15.8195 18.3651 15.553ZM18.4262 17.2974C18.4262 17.0645 18.6149 16.8758 18.8478 16.8758C19.0806 16.8758 19.2693 17.0645 19.2693 17.2974C19.2693 17.5302 19.0806 17.7189 18.8478 17.7189C18.6149 17.7189 18.4262 17.5302 18.4262 17.2974ZM18.4842 19.0448C18.4842 18.844 18.647 18.6813 18.8478 18.6813C19.0485 18.6813 19.2113 18.844 19.2113 19.0448C19.2113 19.2456 19.0485 19.4084 18.8478 19.4084C18.647 19.4084 18.4842 19.2456 18.4842 19.0448ZM20.6227 6.81568C20.6227 6.41581 20.9469 6.09165 21.3467 6.09165C21.7466 6.09165 22.0708 6.41581 22.0708 6.81568C22.0708 7.21556 21.7466 7.53972 21.3467 7.53972C20.9469 7.53972 20.6227 7.21556 20.6227 6.81568ZM20.6808 8.56313C20.6808 8.19532 20.9789 7.89715 21.3467 7.89715C21.7146 7.89715 22.0127 8.19532 22.0127 8.56313C22.0127 8.93095 21.7146 9.22912 21.3467 9.22912C20.9789 9.22912 20.6808 8.93095 20.6808 8.56313ZM20.7419 10.3075C20.7419 9.97347 21.0127 9.70265 21.3467 9.70265C21.6808 9.70265 21.9516 9.97347 21.9516 10.3075C21.9516 10.6416 21.6808 10.9124 21.3467 10.9124C21.0127 10.9124 20.7419 10.6416 20.7419 10.3075ZM20.803 12.055C20.803 11.7547 21.0464 11.5112 21.3467 11.5112C21.6471 11.5112 21.8905 11.7547 21.8905 12.055C21.8905 12.3553 21.6471 12.5988 21.3467 12.5988C21.0464 12.5988 20.803 12.3553 20.803 12.055ZM20.8641 13.7994C20.8641 13.5328 21.0802 13.3167 21.3467 13.3167C21.6133 13.3167 21.8294 13.5328 21.8294 13.7994C21.8294 14.066 21.6133 14.2821 21.3467 14.2821C21.0802 14.2821 20.8641 14.066 20.8641 13.7994ZM20.9252 15.5468C20.9252 15.314 21.1139 15.1253 21.3467 15.1253C21.5796 15.1253 21.7683 15.314 21.7683 15.5468C21.7683 15.7797 21.5796 15.9684 21.3467 15.9684C21.1139 15.9684 20.9252 15.7797 20.9252 15.5468ZM20.9832 17.2912C20.9832 17.0905 21.146 16.9277 21.3467 16.9277C21.5475 16.9277 21.7103 17.0905 21.7103 17.2912C21.7103 17.492 21.5475 17.6548 21.3467 17.6548C21.146 17.6548 20.9832 17.492 20.9832 17.2912ZM15.808 10.1242C15.808 9.72436 16.1322 9.4002 16.5321 9.4002C16.932 9.4002 17.2561 9.72436 17.2561 10.1242C17.2561 10.5241 16.932 10.8483 16.5321 10.8483C16.1322 10.8483 15.808 10.5241 15.808 10.1242ZM15.8661 11.8717C15.8661 11.5039 16.1643 11.2057 16.5321 11.2057C16.8999 11.2057 17.1981 11.5039 17.1981 11.8717C17.1981 12.2395 16.8999 12.5377 16.5321 12.5377C16.1643 12.5377 15.8661 12.2395 15.8661 11.8717ZM15.9272 13.6161C15.9272 13.282 16.198 13.0112 16.5321 13.0112C16.8661 13.0112 17.137 13.282 17.137 13.6161C17.137 13.9502 16.8661 14.221 16.5321 14.221C16.198 14.221 15.9272 13.9502 15.9272 13.6161ZM15.9883 15.3635C15.9883 15.0632 16.2318 14.8198 16.5321 14.8198C16.8324 14.8198 17.0759 15.0632 17.0759 15.3635C17.0759 15.6639 16.8324 15.9073 16.5321 15.9073C16.2318 15.9073 15.9883 15.6639 15.9883 15.3635ZM16.0494 17.1079C16.0494 16.8414 16.2655 16.6253 16.5321 16.6253C16.7987 16.6253 17.0148 16.8414 17.0148 17.1079C17.0148 17.3745 16.7987 17.5906 16.5321 17.5906C16.2655 17.5906 16.0494 17.3745 16.0494 17.1079ZM16.1105 18.8554C16.1105 18.6226 16.2992 18.4338 16.5321 18.4338C16.7649 18.4338 16.9537 18.6226 16.9537 18.8554C16.9537 19.0882 16.7649 19.277 16.5321 19.277C16.2992 19.277 16.1105 19.0882 16.1105 18.8554ZM16.1685 20.5998C16.1685 20.399 16.3313 20.2363 16.5321 20.2363C16.7329 20.2363 16.8956 20.399 16.8956 20.5998C16.8956 20.8006 16.7329 20.9633 16.5321 20.9633C16.3313 20.9633 16.1685 20.8006 16.1685 20.5998ZM13.4924 11.7098C13.4924 11.3099 13.8165 10.9857 14.2164 10.9857C14.6163 10.9857 14.9404 11.3099 14.9404 11.7098C14.9404 12.1096 14.6163 12.4338 14.2164 12.4338C13.8165 12.4338 13.4924 12.1096 13.4924 11.7098ZM13.5504 13.4572C13.5504 13.0894 13.8486 12.7912 14.2164 12.7912C14.5842 12.7912 14.8824 13.0894 14.8824 13.4572C14.8824 13.825 14.5842 14.1232 14.2164 14.1232C13.8486 14.1232 13.5504 13.825 13.5504 13.4572ZM13.6115 15.2047C13.6115 14.8706 13.8823 14.5998 14.2164 14.5998C14.5505 14.5998 14.8213 14.8706 14.8213 15.2047C14.8213 15.5388 14.5505 15.8096 14.2164 15.8096C13.8823 15.8096 13.6115 15.5388 13.6115 15.2047ZM13.6726 16.9491C13.6726 16.6488 13.9161 16.4053 14.2164 16.4053C14.5167 16.4053 14.7602 16.6488 14.7602 16.9491C14.7602 17.2494 14.5167 17.4929 14.2164 17.4929C13.9161 17.4929 13.6726 17.2494 13.6726 16.9491ZM13.7337 18.6965C13.7337 18.43 13.9498 18.2139 14.2164 18.2139C14.483 18.2139 14.6991 18.43 14.6991 18.6965C14.6991 18.9631 14.483 19.1792 14.2164 19.1792C13.9498 19.1792 13.7337 18.9631 13.7337 18.6965ZM13.7948 20.4409C13.7948 20.2081 13.9836 20.0193 14.2164 20.0193C14.4492 20.0193 14.638 20.2081 14.638 20.4409C14.638 20.6738 14.4492 20.8625 14.2164 20.8625C13.9836 20.8625 13.7948 20.6738 13.7948 20.4409ZM13.8529 22.1884C13.8529 21.9876 14.0156 21.8248 14.2164 21.8248C14.4172 21.8248 14.5799 21.9876 14.5799 22.1884C14.5799 22.3892 14.4172 22.5519 14.2164 22.5519C14.0156 22.5519 13.8529 22.3892 13.8529 22.1884Z" fill="#000000" fill-rule="nonzero" opacity="1" stroke="none"/></svg>
