<svg id="图层_1" xmlns="http://www.w3.org/2000/svg" viewBox="0 0 320 320"><title>heiheihei</title><path d="M143.56,169.76c0,4.4-2.63,7.65-9.08,7.65h-8.23V150.32h8.27c4.17,0,7.69,1.81,7.69,6.91,0,3.29-1.51,5.57-3.67,6.11v.16C141.36,163.84,143.56,165.85,143.56,169.76ZM133.94,153h-4.68v9.39h4.83c3.44,0,5.07-1.47,5.07-4.87C139.16,154.3,137.15,153,133.94,153ZM140.43,170c0-3.83-2.7-4.83-5.87-4.83h-5.3v9.58h5.45C138.65,174.7,140.43,173.27,140.43,170Z"/><path d="M152.37,148.07v24.35c0,1.86.62,2.67,2.21,2.67a3.88,3.88,0,0,0,1.74-.42v2.55a7.05,7.05,0,0,1-2.63.46c-2.9,0-4.29-1.7-4.29-4.44V148.07Z"/><path d="M162.62,148a2.19,2.19,0,1,1,0,4.37,2.19,2.19,0,0,1,0-4.37Zm-1.32,8.35h3v21h-3Z"/><path d="M187.35,177.41h-3v-13.8c0-3.21-1.59-5-4.53-5a5.67,5.67,0,0,0-5.33,3.74v15h-3v-21h2.29l.61,2.21h.16a7.94,7.94,0,0,1,6-2.63c4.21,0,6.72,2.28,6.84,7Z"/><path d="M196.66,177.41h-3V148.07h3Zm.58-10.94,7.54-10.09h3.75l-7.77,10v.16L209,177.41h-3.82l-7.93-10.78Z"/><path d="M216.22,148.07v24.35c0,1.86.62,2.67,2.2,2.67a3.81,3.81,0,0,0,1.74-.42v2.55a7,7,0,0,1-2.63.46c-2.89,0-4.29-1.7-4.29-4.44V148.07Z"/><path d="M223,166.94c0-6.5,2.44-10.94,8.81-10.94s8.62,4.33,8.62,10.74-2.47,11-8.85,11S223,173.39,223,166.94Zm8.81,8.19c4.06,0,5.53-2.67,5.53-8.16s-1.7-8.38-5.76-8.38-5.49,2.66-5.49,8.11C226.11,172.35,227.81,175.13,231.83,175.13Z"/><path d="M259.39,162.45V172c0,1.89.58,3.17,2.05,3.17H262v2.2a2.29,2.29,0,0,1-1.08.23,3.77,3.77,0,0,1-3.83-2.55h-.15a7.6,7.6,0,0,1-6.26,2.82c-3.91,0-6.07-2.74-6.07-5.6,0-4.64,4.56-6.92,12-6.8v-2.28c0-3.44-1.66-4.45-4.45-4.45a5.3,5.3,0,0,0-4.79,2.55l-2.2-1.74a8.2,8.2,0,0,1,7.07-3.44C256.72,156.07,259.39,158.05,259.39,162.45Zm-2.78,5.34c-5.07-.2-9.05,1-9.05,4.21,0,1.85,1.36,3.36,3.79,3.36a6.5,6.5,0,0,0,5.26-2.86Z"/><path d="M279,148.07h3v29.34h-2.24l-.66-2.13H279a6.55,6.55,0,0,1-5.49,2.55c-4.76,0-7.77-3.13-7.77-10,0-7.61,4.06-11.44,10-11.44a17.43,17.43,0,0,1,3.36.35Zm0,23.77V159.51a12.11,12.11,0,0,0-3.2-.5c-4.64,0-7.08,2.67-7.08,8.47s2.59,7.77,5.38,7.77A5.06,5.06,0,0,0,279,171.84Z"/><circle cx="98.8" cy="140.12" r="1.19"/><circle cx="93.17" cy="143.76" r="1.38"/><circle cx="87.53" cy="147.41" r="1.58"/><circle cx="81.89" cy="151.05" r="1.78"/><circle cx="76.25" cy="154.7" r="1.98"/><circle cx="70.61" cy="158.34" r="2.18"/><circle cx="64.97" cy="161.98" r="2.37"/><circle cx="64.97" cy="167.7" r="2.18"/><circle cx="64.97" cy="173.42" r="1.98"/><circle cx="64.97" cy="179.13" r="1.78"/><circle cx="64.97" cy="184.85" r="1.58"/><circle cx="64.97" cy="190.56" r="1.38"/><circle cx="64.97" cy="196.28" r="1.19"/><circle cx="91.22" cy="135.03" r="1.19"/><circle cx="85.58" cy="138.67" r="1.38"/><circle cx="79.95" cy="142.32" r="1.58"/><circle cx="74.31" cy="145.96" r="1.78"/><circle cx="68.67" cy="149.6" r="1.98"/><circle cx="63.03" cy="153.25" r="2.18"/><circle cx="57.39" cy="156.89" r="2.37"/><circle cx="57.39" cy="162.61" r="2.18"/><circle cx="57.39" cy="168.33" r="1.98"/><circle cx="57.39" cy="174.04" r="1.78"/><circle cx="57.39" cy="179.76" r="1.58"/><circle cx="57.39" cy="185.47" r="1.38"/><circle cx="57.39" cy="191.19" r="1.19"/><circle cx="83.64" cy="129.94" r="1.19"/><circle cx="78" cy="133.58" r="1.38"/><circle cx="72.37" cy="137.22" r="1.58"/><circle cx="66.73" cy="140.87" r="1.78"/><circle cx="61.09" cy="144.51" r="1.98"/><circle cx="55.45" cy="148.16" r="2.18"/><circle cx="49.81" cy="151.8" r="2.37"/><circle cx="49.81" cy="157.52" r="2.18"/><circle cx="49.81" cy="163.23" r="1.98"/><circle cx="49.81" cy="168.95" r="1.78"/><circle cx="49.81" cy="174.67" r="1.58"/><circle cx="49.81" cy="180.38" r="1.38"/><circle cx="49.81" cy="186.1" r="1.19"/><circle cx="76.06" cy="124.84" r="1.19"/><circle cx="70.42" cy="128.49" r="1.38"/><circle cx="64.78" cy="132.13" r="1.58"/><circle cx="59.15" cy="135.78" r="1.78"/><circle cx="53.51" cy="139.42" r="1.98"/><circle cx="47.87" cy="143.07" r="2.18"/><circle cx="42.23" cy="146.71" r="2.37"/><circle cx="42.23" cy="152.43" r="2.18"/><circle cx="42.23" cy="158.14" r="1.98"/><circle cx="42.23" cy="163.86" r="1.78"/><circle cx="42.23" cy="169.57" r="1.58"/><circle cx="42.23" cy="175.29" r="1.38"/><circle cx="42.23" cy="181.01" r="1.19"/><circle cx="72.56" cy="166.73" r="2.37"/><circle cx="72.56" cy="172.45" r="2.18"/><circle cx="72.56" cy="178.16" r="1.98"/><circle cx="72.56" cy="183.88" r="1.78"/><circle cx="72.56" cy="189.59" r="1.58"/><circle cx="72.56" cy="195.31" r="1.38"/><circle cx="72.56" cy="201.02" r="1.19"/><circle cx="95.24" cy="151.7" r="2.37"/><circle cx="95.24" cy="157.41" r="2.18"/><circle cx="95.24" cy="163.13" r="1.98"/><circle cx="95.24" cy="168.84" r="1.78"/><circle cx="95.24" cy="174.56" r="1.58"/><circle cx="95.24" cy="180.27" r="1.38"/><circle cx="95.24" cy="185.99" r="1.19"/><circle cx="103.42" cy="145.96" r="2.37"/><circle cx="103.42" cy="151.68" r="2.18"/><circle cx="103.42" cy="157.39" r="1.98"/><circle cx="103.42" cy="163.11" r="1.78"/><circle cx="103.42" cy="168.82" r="1.58"/><circle cx="103.42" cy="174.54" r="1.38"/><circle cx="103.42" cy="180.25" r="1.19"/><circle cx="87.66" cy="156.79" r="2.37"/><circle cx="87.66" cy="162.51" r="2.18"/><circle cx="87.66" cy="168.22" r="1.98"/><circle cx="87.66" cy="173.94" r="1.78"/><circle cx="87.66" cy="179.65" r="1.58"/><circle cx="87.66" cy="185.37" r="1.38"/><circle cx="87.66" cy="191.08" r="1.19"/><circle cx="80.08" cy="161.98" r="2.37"/><circle cx="80.08" cy="167.7" r="2.18"/><circle cx="80.08" cy="173.42" r="1.98"/><circle cx="80.08" cy="179.13" r="1.78"/><circle cx="80.08" cy="184.85" r="1.58"/><circle cx="80.08" cy="190.56" r="1.38"/><circle cx="80.08" cy="196.28" r="1.19"/></svg>
