<svg viewBox="0 0 24 24" xmlns="http://www.w3.org/2000/svg"><path d="M11.225 1.094c-.783-.105-.98-.028-.987-.79.014-.183.197-.585.564.007a1.2 1.2 0 0 0 .536.353c-.155-.056 1.016.212 1.792.056.197.135 0 .381-.064.452-.021.021-.762.204-1.474.155l-.078-.212a13.5 13.5 0 0 0-.289-.02m5.424 9.91c-.042-.31-.091-.593-.14-.86-.382-1.299-.854-2.681-2.16-3.274-.55-.211-1.593-.162-1.741-1.46L12.6 1.49l-1.658.339v.254l-.028.748s0 .352.014.782c.035 2.004.14 3.273-2.039 4.092-1.347.507-1.431 1.114-1.573 2.659-.007.113-.02.218-.028.324 0-.042-.444 4.331 1.023 11.293 0 0 .226 1.136.254 1.298.014.085.099.197.331.36 2.497.6 3.034.162 4.345.338 1.326.177 2.519-.684 2.54-.698.134-.035.564-.938.62-2.06.515-3.047.388-7.9.247-10.213" fill="#00a1df"/></svg>