<?xml version="1.0" encoding="utf-8"?>
<!-- Generator: Adobe Illustrator 19.2.1, SVG Export Plug-In . SVG Version: 6.00 Build 0)  -->
<svg version="1.1" id="layer" xmlns="http://www.w3.org/2000/svg" xmlns:xlink="http://www.w3.org/1999/xlink" x="0px" y="0px"
	 viewBox="0 0 652 652" style="enable-background:new 0 0 652 652;" xml:space="preserve">
<style type="text/css">
	.st0{fill:#595757;}
	.st1{fill:#00A1DF;}
</style>
<path class="st0" d="M-68.3,549.6c3.5,1.8,6.4,5.8,6.4,10.7c0,7-4.3,15.5-18.7,15.5h-19.8v-52.3h19.8c14.4,0,18.7,8.7,18.7,15.6
	C-61.9,543-64.6,547.8-68.3,549.6z M-72.7,539.2c0-1.4-0.9-6-7.2-6h-10.1v12.1h10.3C-73.6,545.1-72.7,540.9-72.7,539.2z
	 M-72.7,560.3c0-1.9-0.9-5.5-7-5.6h-10.3v11.4h10.1C-73.6,566.1-72.7,561.7-72.7,560.3z M-37.5,566.1h19.6v9.7h-30.2v-52.3h10.6
	V566.1z M26,555.5v-32h10.7v32c0,8.8-5.4,20.9-20.8,20.9s-20.8-12-20.8-20.9v-32H5.8v32c0,3.1,2.1,11.2,10.2,11.2S26,558.6,26,555.5
	z M63.2,554.9v11.2h25v9.7H52.7v-52.3h35.6v9.7h-25v12h19.6v9.7H63.2z M158.4,549.6c3.5,1.8,6.4,5.8,6.4,10.7
	c0,7-4.3,15.5-18.7,15.5h-19.8v-52.3h19.8c14.4,0,18.7,8.7,18.7,15.6C164.9,543,162.2,547.8,158.4,549.6z M154.1,539.2
	c0-1.4-0.9-6-7.2-6h-10.1v12.1h10.3C153.2,545.1,154.1,540.9,154.1,539.2z M154.1,560.3c0-1.9-0.9-5.5-7-5.6h-10.3v11.4h10.1
	C153.2,566.1,154.1,561.7,154.1,560.3z M227.5,549.6c0,11.2-6.1,27.1-25.9,27.1c-20,0-26-15.8-26-27.1c0-10.9,6.1-27,26-27
	C221.5,522.6,227.5,538.7,227.5,549.6z M216.8,549.6c0-4.3-1.9-17.1-15.1-17.1c-13.4,0-15.2,12.9-15.2,17.1
	c0,4.3,1.9,17.3,15.2,17.3C214.8,566.9,216.8,553.9,216.8,549.6z M248.4,533.3h-14.1v-9.7h39.1v9.7h-14.3v42.6h-10.7V533.3z
	 M296,533.3h-14.1v-9.7H321v9.7h-14.3v42.6H296V533.3z M344.3,566.1h19.6v9.7h-30.2v-52.3h10.6V566.1z M388.2,554.9v11.2h25v9.7
	h-35.6v-52.3h35.6v9.7h-25v12h19.6v9.7H388.2z M487.8,539.3c-2.8-3.5-8.6-6.7-13.5-6.7c-13.4,0-15.2,12.7-15.2,17
	c0,4.3,1.9,16.9,15.3,16.9c5,0,10.5-2.8,14.1-6.1l6,7.3c-5.4,5.4-11.7,8.8-20.1,8.8c-20,0-26-15.7-26-26.9c0-10.9,6.1-26.8,26-26.8
	c9,0,15.2,3.9,20.4,9.8L487.8,539.3z M557.5,549.6c0,11.2-6.1,27.1-25.9,27.1c-20,0-26-15.8-26-27.1c0-10.9,6.1-27,26-27
	C551.4,522.6,557.5,538.7,557.5,549.6z M546.7,549.6c0-4.3-1.9-17.1-15.1-17.1c-13.4,0-15.2,12.9-15.2,17.1
	c0,4.3,1.9,17.3,15.2,17.3C544.8,566.9,546.7,553.9,546.7,549.6z M581.1,554.9v20.9h-10.5v-52.3h35.6v9.7h-25v12h19.6v9.7H581.1z
	 M630.5,554.9v20.9h-10.5v-52.3h35.6v9.7h-25v12H650v9.7H630.5z M679.8,554.9v11.2h25v9.7h-35.6v-52.3h35.6v9.7h-25v12h19.6v9.7
	H679.8z M729.2,554.9v11.2h25v9.7h-35.6v-52.3h35.6v9.7h-25v12h19.6v9.7H729.2z"/>
<path class="st1" d="M315.3,92.2c-11.1-1.5-13.9-0.4-14-11.2c0.2-2.6,2.8-8.3,8,0.1c2.3,2.7,5.2,4.2,7.6,5c-2.2-0.8,14.4,3,25.4,0.8
	c2.8,1.9,0,5.4-0.9,6.4c-0.3,0.3-10.8,2.9-20.9,2.2c-0.1-0.3-1.1-3-1.1-3C319.5,92.5,315.6,92.2,315.3,92.2 M392.2,232.7
	c-0.6-4.4-1.3-8.4-2-12.2c-5.4-18.4-12.1-38-30.6-46.4c-7.8-3-22.6-2.3-24.7-20.7c0-4.9-0.1-55.6-0.1-55.6l-23.5,4.8
	c0,0,0,3.6,0,3.6c0,0-0.4,10.7-0.4,10.6c0,0,0,5,0.2,11.1c0.5,28.4,2,46.4-28.9,58c-19.1,7.2-20.3,15.8-22.3,37.7
	c-0.1,1.6-0.3,3.1-0.4,4.6c0-0.6-6.3,61.4,14.5,160.1c0,0,3.2,16.1,3.6,18.4c0.2,1.2,1.4,2.8,4.7,5.1c35.4,8.5,43,2.3,61.6,4.8
	c18.8,2.5,35.7-9.7,36-9.9c1.9-0.5,8-13.3,8.8-29.2C396,334.3,394.2,265.5,392.2,232.7"/>
</svg>
