<svg viewBox="0 0 24 24" xmlns="http://www.w3.org/2000/svg"><path d="M17.384 11.634h-4.826v1.291h.646v6.596l-.742.11.243 1.33 2.799-.536v2.083h1.277V20.17l.658-.133-.07-1.24-.588.096v-5.968h.6v-1.291m-1.877 1.291v1.278H14.46v-1.277h1.043m0 3.74H14.46v-1.278h1.043v1.277m-1.04 1.174h1.043v1.277l-1.043.185V17.84m9.406.307v-1.17h-6.793v1.17h1.462a22.387 22.387 0 0 1-.614 1.897h3.9c-.09.582-.203.939-.34 1.06-.09.073-.24.11-.454.11-.496 0-.98-.026-1.451-.075.124.18.225.391.307.631.072.238.115.464.133.673.625.026 1.161.02 1.605-.012.229-.012.417-.052.562-.122a1.02 1.02 0 0 0 .428-.287c.163-.165.293-.451.391-.857.102-.397.192-.97.27-1.727.011-.124.023-.298.032-.524h-3.566l.223-.767h3.905m-2.74-6.97h-1.325v.97h-2.242v4.282h5.808v-4.282H21.13v-.97m.924 1.967v.683h-.927v-.683h.927m-2.248 0v.683h-.99v-.683h.99m1.324 2.288v-.672h.927v.672h-.927m-1.324-.672v.672h-.99v-.672h.99m-13.44-3.464-1.617-.16-.058.901H.307v1.278h4.224l-.096.62h-2.85v6.946H0v1.304h11.127V20.88H9.568v-6.943H5.854l.134-.62h4.826v-1.278H6.237l.127-.744m1.733 5.535v.609H2.984v-.609h5.113m0-1.7v.64H2.984v-.64h5.113m-5.113 4.015v-.646h5.113v.646H2.984m0 1.738v-.678h5.113v.678H2.984M17.966 2.387a3.078 3.078 0 0 0-.46-.382 2.553 2.553 0 0 0-.53-.276 2.64 2.64 0 0 0-.569-.18c-.2-.037-.4-.057-.6-.057-.341 0-.662.052-.964.153-.29.102-.541.247-.753.43a2 2 0 0 0-.492.64 1.891 1.891 0 0 0-.174.799c0 .243.037.47.116.678.072.19.176.368.313.53.127.145.278.275.446.39.162.102.336.195.524.276l.921.397c.383.165.632.29.747.37.09.076.16.157.212.244a.659.659 0 0 1 .075.327.809.809 0 0 1-.07.334.616.616 0 0 1-.216.249.933.933 0 0 1-.345.165 1.804 1.804 0 0 1-.467.058c-.298 0-.608-.073-.927-.218a3.119 3.119 0 0 1-.831-.55l-.794.953c.165.162.348.307.545.435.2.127.405.234.62.318.217.084.437.15.663.197.229.044.46.064.69.064.388 0 .744-.055 1.066-.165.307-.107.573-.26.8-.46.216-.189.381-.415.497-.679.116-.252.174-.518.174-.805 0-.243-.035-.466-.101-.672a1.653 1.653 0 0 0-.275-.524 2.057 2.057 0 0 0-.447-.397 2.882 2.882 0 0 0-.567-.301l-.907-.391c-.382-.154-.634-.273-.753-.36a.635.635 0 0 1-.229-.237.557.557 0 0 1-.09-.313c0-.235.09-.414.27-.545.18-.133.423-.197.727-.197a2 2 0 0 1 .779.154c.229.09.458.229.684.423l.692-.875M4.838 3.34c0-.319-.064-.59-.192-.811a1.335 1.335 0 0 0-.524-.53 2.31 2.31 0 0 0-.794-.287 5.335 5.335 0 0 0-.99-.084H.058v6.973h2.46a4.22 4.22 0 0 0 1.06-.128c.327-.084.608-.211.843-.376.252-.171.44-.383.567-.64.07-.134.12-.273.154-.424.035-.156.052-.318.052-.486a1.99 1.99 0 0 0-.101-.64 1.39 1.39 0 0 0-.27-.478 1.616 1.616 0 0 0-.408-.334 2.02 2.02 0 0 0-.519-.205v-.044c.142-.052.272-.127.397-.229.11-.1.209-.223.293-.364.08-.137.142-.284.185-.44.046-.154.067-.31.067-.473m-2.04-.603c.157.035.287.084.383.154.107.07.185.156.237.26.047.11.07.241.07.392a1 1 0 0 1-.07.382.73.73 0 0 1-.223.287c-.107.075-.237.139-.397.185a2.129 2.129 0 0 1-.562.064h-.805V2.685h.831c.206.003.383.02.536.052M1.431 5.498h.959c.246 0 .458.02.631.058.183.035.333.09.455.165.128.075.22.177.275.301.07.12.102.264.102.435 0 .18-.035.336-.102.472a.9.9 0 0 1-.275.333c-.124.084-.275.15-.455.197a2.753 2.753 0 0 1-.631.064H1.43V5.498m6.463-3.763c-.189.075-.36.174-.519.293a2.763 2.763 0 0 0-.455.408 3.12 3.12 0 0 0-.634 1.124 4.61 4.61 0 0 0-.165.71 5.656 5.656 0 0 0 0 1.616c.038.252.093.49.165.716.072.22.162.431.27.626.107.188.228.362.364.524.137.156.287.295.455.414.157.119.33.22.519.307.188.084.388.148.6.186.208.043.425.063.651.063.226 0 .446-.02.664-.063a2.667 2.667 0 0 0 1.118-.493c.162-.119.313-.258.455-.414a3.56 3.56 0 0 0 .634-1.15c.072-.226.127-.464.165-.716a5.726 5.726 0 0 0 0-1.616 4.455 4.455 0 0 0-.165-.704 3.327 3.327 0 0 0-.634-1.13 3.778 3.778 0 0 0-.455-.408 2.307 2.307 0 0 0-.519-.287 2.414 2.414 0 0 0-.6-.191 3.869 3.869 0 0 0-.663-.058c-.226 0-.443.02-.652.058a2.536 2.536 0 0 0-.6.185m-.422 3.349c0-.37.04-.707.122-1.011.075-.29.188-.539.338-.747.145-.209.32-.365.525-.473.208-.11.437-.165.69-.165.254 0 .489.055.703.165.206.108.38.264.524.473.148.208.261.457.34.747.075.301.115.64.115 1.01 0 .366-.037.705-.116 1.012-.075.292-.188.55-.339.773a1.58 1.58 0 0 1-.524.487 1.448 1.448 0 0 1-.704.174c-.246 0-.478-.058-.69-.174a1.58 1.58 0 0 1-.524-.487 2.546 2.546 0 0 1-.338-.773 3.948 3.948 0 0 1-.122-1.011m15.318-3.355a2.496 2.496 0 0 0-.568-.18 3.15 3.15 0 0 0-.593-.057c-.342 0-.664.052-.965.153-.29.102-.545.247-.762.43-.209.187-.37.399-.487.64a1.891 1.891 0 0 0-.173.799c0 .243.037.47.115.678.073.19.177.368.313.53.128.145.278.275.446.39.157.102.33.195.519.276l.927.397c.382.165.631.29.747.37.09.076.16.157.212.244a.658.658 0 0 1 .075.327.807.807 0 0 1-.07.334.716.716 0 0 1-.217.249.979.979 0 0 1-.345.165 1.832 1.832 0 0 1-.472.058c-.292 0-.6-.073-.92-.218a3.195 3.195 0 0 1-.838-.55l-.794.953c.171.162.354.307.55.435.198.127.403.234.62.318.218.084.438.15.664.197.229.044.46.064.69.064.388 0 .744-.055 1.065-.165a2.37 2.37 0 0 0 .8-.46c.217-.189.382-.415.498-.679.116-.252.174-.518.174-.805 0-.243-.035-.466-.101-.672a1.85 1.85 0 0 0-.276-.524 2.059 2.059 0 0 0-.446-.397 2.88 2.88 0 0 0-.567-.301l-.907-.391c-.383-.154-.635-.273-.753-.36a.635.635 0 0 1-.23-.237.557.557 0 0 1-.089-.313c0-.235.09-.414.27-.545.179-.133.422-.197.727-.197a2 2 0 0 1 .779.154c.229.09.457.229.683.423l.696-.875a3.068 3.068 0 0 0-.461-.382 2.529 2.529 0 0 0-.536-.276Z" fill="#4cb4b4"/></svg>