<svg viewBox="0 0 8 8" xmlns="http://www.w3.org/2000/svg"><defs><linearGradient x1="69.949%" y1="35.256%" x2="33.826%" y2="64.04%" id="a"><stop stop-color="#E6EBEF" offset="0%"/><stop stop-color="#BBCEE5" offset="7.64%"/><stop stop-color="#85A9D8" offset="18.54%"/><stop stop-color="#5D8FCF" offset="27.96%"/><stop stop-color="#457EC9" offset="35.43%"/><stop stop-color="#3C78C7" offset="40%"/><stop stop-color="#2E5C99" offset="90%"/></linearGradient></defs><g fill-rule="nonzero" fill="none"><path d="M7.45.737c-.227.224-.716.417-.957.507-.329.124-.475.167-.659.227-.208.068-.625.194-.625.194.863.258 1.472.336 1.472.336s.283-.088.732-.328c.243-.124.363-.207.448-.286a.435.435 0 0 0 .134-.222c.001-.008.005-.029.005-.05l-.001-.026c0-.015-.003-.024-.003-.024s-.005-.026-.012-.044a.29.29 0 0 0-.079-.11c-.03-.025-.082-.086-.27-.152C7.57.737 7.467.717 7.467.717l-.018.02Z" fill="url(#a)" transform="translate(.868 .281)"/><path d="M8.868 1.391s-.001-.024-.007-.044a.171.171 0 0 0-.025-.054.462.462 0 0 0-.14-.134 1.01 1.01 0 0 0-.404-.14c-.208-.027-.448-.022-.47-.023-.077 0-.574.003-.702.006-.567.011-1.262.013-1.443.013C3.799 1.023 2.98.983 2.07.8 1.297.647.868.5.868.5 1.551.477 5.534.31 6.261.293c.475-.014.813-.017 1.083-.001.139.008.268.02.43.047.145.025.277.067.354.096.162.06.298.146.365.235 0 0 .02.02.047.057l.078.113a2.516 2.516 0 0 1 .21.38c.014.035.02.056.025.07.01.038.013.071.014.078v.023Z" fill="#CE210F"/></g></svg>