<svg viewBox="0 0 8 8" version="1.1" xmlns="http://www.w3.org/2000/svg" xmlns:xlink="http://www.w3.org/1999/xlink">
    <title>Group</title>
    <defs>
        <linearGradient x1="69.9493411%" y1="35.2558976%" x2="33.8263543%" y2="64.0400713%" id="linearGradient-1">
            <stop stop-color="#E6EBEF" offset="0%"></stop>
            <stop stop-color="#BBCEE5" offset="7.64%"></stop>
            <stop stop-color="#85A9D8" offset="18.54%"></stop>
            <stop stop-color="#5D8FCF" offset="27.96%"></stop>
            <stop stop-color="#457EC9" offset="35.43%"></stop>
            <stop stop-color="#3C78C7" offset="40%"></stop>
            <stop stop-color="#2E5C99" offset="90%"></stop>
        </linearGradient>
    </defs>
    <g id="Page-1" stroke="none" stroke-width="1" fill="none" fill-rule="evenodd">
        <g id="Group" transform="translate(0.868000, 0.281389)" fill-rule="nonzero">
            <path d="M7.44907904,0.736736084 C7.22318592,0.961239849 6.73380531,1.15395185 6.49303789,1.24417834 C6.16408716,1.3677494 6.01812294,1.41147328 5.83407398,1.47137909 C5.62575214,1.53896723 5.20902673,1.66507182 5.20902673,1.66507182 C6.07230787,1.92283843 6.68068283,2.0005607 6.68068283,2.0005607 C6.68068283,2.0005607 6.96411168,1.91294947 7.41311921,1.67283587 C7.6562567,1.54926482 7.77590487,1.46606684 7.86147292,1.38654658 C7.8930195,1.3580239 7.97450121,1.27319138 7.99476948,1.16465808 C7.99607711,1.15673057 8,1.13597194 8,1.11554022 C8,1.11554022 8,1.10115628 7.99869237,1.08865207 C7.99820201,1.07426814 7.99566847,1.06462436 7.99566847,1.06462436 C7.99566847,1.06462436 7.99084659,1.03888039 7.98447189,1.02081875 C7.97785201,1.00275711 7.95006487,0.94701937 7.90503335,0.910814358 C7.87495786,0.886378018 7.82297956,0.825491486 7.63468081,0.759292705 C7.57068865,0.737062992 7.46705896,0.716549542 7.46705896,0.716549542 L7.44907904,0.736736084 Z" id="Path" fill="url(#linearGradient-1)"></path>
            <path d="M7.99991827,1.10981933 C7.99991827,1.10981933 7.99861064,1.08579163 7.99272631,1.06544163 C7.9881496,1.04729826 7.98005864,1.02997216 7.96788133,1.01174707 C7.95317049,0.99008944 7.93331086,0.964672378 7.90397091,0.936558328 C7.88182292,0.915636244 7.85755003,0.897165967 7.82829181,0.877551514 C7.71052336,0.800401331 7.55851134,0.756922626 7.42398889,0.738534076 C7.21550359,0.71082866 6.97637071,0.715732273 6.95373236,0.714915005 C6.87682736,0.713852555 6.37992788,0.717938899 6.25218875,0.720227252 C5.68492241,0.731914198 4.99048903,0.733467008 4.80856498,0.733467008 C2.93056279,0.742048332 2.11313045,0.701593522 1.20334672,0.519179105 C0.429393076,0.365450826 0,0.219404876 0,0.219404876 C0.682664705,0.195785805 4.66586983,0.0305340347 5.3925036,0.0112464888 C5.86823582,-0.00215672098 6.20601306,-0.0050171621 6.47628388,0.0105926737 C6.61489268,0.0183567282 6.74385771,0.0301254002 6.90584041,0.0576673619 C7.05106909,0.0825123362 7.18297629,0.124683411 7.25979956,0.153206095 C7.42161881,0.213111905 7.55802098,0.299742408 7.62544567,0.388497809 C7.62544567,0.388497809 7.64538703,0.408929532 7.67243863,0.44521627 C7.7027593,0.487387345 7.73798359,0.53928392 7.74991572,0.558653192 C7.84839662,0.707886492 7.8951444,0.801627234 7.91140805,0.83431799 C7.92897933,0.868643283 7.94450744,0.904276207 7.95962692,0.939173588 C7.97441948,0.973825789 7.98046727,0.9948296 7.98520743,1.00945871 C7.99558675,1.04615409 7.99812028,1.07958038 7.99861064,1.08709926 L7.99991827,1.10981933 Z" id="Path" fill="#CE210F"></path>
        </g>
    </g>
</svg>