<svg viewBox="0 0 24 24" xmlns="http://www.w3.org/2000/svg"><path d="m24 9.798-.541-.404-1.231 1.642-1.23-1.642-.542.404 1.35 1.802-1.35 1.8.541.405 1.231-1.642 1.23 1.643L24 13.4 22.65 11.6 24 9.798" fill="#c0555b"/><path d="m7.318 8.007.484-.487.484.487-.484.486-.484-.486m-5.165 5.088c-.8 0-1.451-.656-1.451-1.461s.651-1.46 1.451-1.46 1.452.655 1.452 1.46c0 .805-.65 1.46-1.452 1.46m0-3.602c-.418 0-.794.15-1.157.295l-.158.063-.158.061V7.66H.187A.187.187 0 0 0 0 7.846v3.757c0 .351.073.677.216.968a2.17 2.17 0 0 0 1.937 1.205 2.14 2.14 0 0 0 2.131-2.142 2.139 2.139 0 0 0-2.13-2.142m3.221.609v-.608h-.494a.188.188 0 0 0-.188.187v4.1h.69v-2.203a1.489 1.489 0 0 1 1.457-1.41l.221-.002v-.673l-.231.002a2.151 2.151 0 0 0-1.455.607m4.902 2.743a.63.63 0 0 1-.268-.352c-.031-.1-.031-.2-.031-.306v-2.014h1.25v-.68h-1.25V7.66h-.493a.187.187 0 0 0-.186.186v1.648h-.753v.68h.753v2.15c0 .075.017.74.63 1.105.471.281 1.018.408 1.04.413l.216.05.151-.663-.215-.05a3.283 3.283 0 0 1-.844-.334M8.142 9.493h-.495a.188.188 0 0 0-.187.187v4.1h.682m5.588-.723a1.458 1.458 0 0 1-1.453-1.46c0-.804.652-1.458 1.453-1.458s1.454.654 1.454 1.459c0 .804-.652 1.459-1.454 1.459m0-3.6c-.419 0-.795.15-1.159.296l-.158.062-.158.062v-2.25h-.494a.187.187 0 0 0-.187.187v3.753c0 .35.073.676.216.967a2.173 2.173 0 0 0 1.94 1.204 2.14 2.14 0 0 0 0-4.28" fill="#4c97a6"/><path d="M18.412 9.458A2.147 2.147 0 0 0 16.27 11.6c0 1.181.965 2.143 2.142 2.143a2.147 2.147 0 0 0 2.142-2.143 2.147 2.147 0 0 0-2.142-2.142Zm0 .681c.801 0 1.461.656 1.461 1.461 0 .806-.66 1.46-1.461 1.46-.802 0-1.461-.655-1.461-1.46 0-.805.66-1.46 1.461-1.46Z" fill="#eb123f"/></svg>