<svg stroke-miterlimit="10" style="fill-rule:nonzero;clip-rule:evenodd;stroke-linecap:round;stroke-linejoin:round" viewBox="0 0 24 24" xml:space="preserve" xmlns="http://www.w3.org/2000/svg"><defs><filter color-interpolation-filters="sRGB" filterUnits="userSpaceOnUse" height="31.151" id="b" width="36.364" x="0" y="2.607"><feDropShadow dx="6.364" dy="6.364" flood-color="#fff" flood-opacity="1" in="SourceGraphic" result="Shadow" stdDeviation="3"/></filter></defs><clipPath id="a"><path d="M0 0h24v24H0z"/></clipPath><g clip-path="url(#a)"><path d="M2.962 3.859s1.794-1.642 5.738.27c-.136.56-.559 1.016-.559 1.016s-1.37-.643-1.726-.22c-.373.406-1.016.356-1.016.356-.643-.322-2.437-1.422-2.437-1.422ZM8.564 5.23s0-.457.796-.457c-.322-.102-.592-.102-.592-.102.203-.304.237-.474.93-.474.694 0 1 .677 1 .677-.17.187-.136.627-.035.762-.457-.101-1.303-.61-1.37-.406h-.729Zm2.302-.457s2.031.762 4.367.66c2.335-.101 3.74 1.693 3.74 1.693s.897.71 2.167.981c-.999 0-1.1.034-1.338.085-.236.034-1.032-.288-1.574-.66-.558-.372-3.266-.525-3.266-.525h-2.099s-1.523-.033-1.828-1.167c-.304-1.135-.17-1.067-.17-1.067Zm9.63 3.656s.864.372 1.067.897c.677.27 1.37.372 1.608.508.253.135.558.186.829.236-.22-.101-.288-.355-.49-.474-.39-.236-.745-.033-1.118-.406-.27-.287-.44-.677-.863-.761-.305-.068-.745-.136-1.032 0ZM9.242 5.789h-.728s-.186-.407.88-.407c-.152.17-.236.22-.152.406Zm1.066-.153s-.812-.068-.88.034c-.067.102.034.17.034.17l.813.033.033-.237Zm.153.423s.575-.186 1.066.745c-.034.39-.39.897-.457.897-.068 0-.474.27-.61.524 0-.457.102-.626.271-.863.17-.237.136-.897.068-.998-.067-.102-.338-.305-.338-.305Zm-.525-2.098s.914-.051 1.286.406c.373.457.728.135.728.135s.051-.406-.27-.643c.457.322.693.694.727.778.05.102.61.423.61-.406.355.373.406.406.457.542.033.152.49.643.914.287.406-.372.457-.829-.457-1.201.135.457.084.83-.322.423-.423-.423-.83-.61-1.37-.423-.644-.22-1.474-.321-2.303.102Zm.305 4.434s.254.135.49-.322c.271 0 .796-.169.83-.914.135.643.135 1.608.101 1.744l-.033.135s.338.101.473-.203c.373.203 6.026 3.47 6.026 3.47l-.102.135-6.228-3.148s-.49-.119-.728-.119c.27-.101.27-.338.27-.338s-.609.203-.642.203c.034-.305 0-.508-.136-.508-.135 0 .102.508-.321.508-.406 0-.034-.304 0-.643Zm1.557-.068v-.829c0-.135.44.372.508.694-.204.068-.373.034-.508.135Zm.135.305s.203-.525.66-.068c.44.44.17.372.17.372s-.694-.304-.83-.304ZM1.66 3.436l-.119.237L7.33 6.77l.135-.203-5.805-3.131ZM0 2.606l.796.83s.575.237.575-.237c0-.49-.897-.406-1.371-.592Zm2.674 4.096s-.71.237-.812-.643c.474.373.643.542.812.643Zm-.88-.846s.728.44.965.559c-.186-.39.406-.39-.965-.559Zm.812 1.05s-.474.067-.507.626c.406.135.61.237.61.474-.306.101-.576-.102-.678-.204-.423.034-1.168.068-1.168.068s.999.356 1.473.356c-.102.237-.305.304-.305.507 0 .204-.034.931-.034.931s.17-.169.136.034-.203.17-.203.17-.322.524-.068.693c.237.17.575-.287.575-.287s.39-.034.491-.034c.102 0 .136-.44.034-.643-.102-.203.034-.559.034-.559.101.423.237.423.372.423s.44-1.235.44-1.235.355-.965-.643-1.219c-.305 0-.457 0-.457.186-.135-.033-.102-.287-.102-.287Zm.254 3.554s-.321-.119-.49.17c.27.1.423.033.49-.17Zm.237-.322s.339.034.373-.304c.237.135.457.372.338.507-.101.153-.71.491-.27.999.457.525.863.152.998.152-.406-.118-.897 0-.677-.457.203-.44.339-.508.339-.508-.17-.135-.17-.558-.17-.558s-.457-.373-.863-.373c.068.272.101.44-.068.542Zm.931-1.574s-.034.339-.287.406c.186.322.118.491.118.491.27.034.237-.39.237-.39l-.068-.507Zm-.355-1.49s.389.56.423 1.033c.034.491.17.288.17.288s.1 1.777.1 2.031c0 .237.17.237.17.237.88-.355 1.574-1.32 2.471-1.557-.406-.745-.982-1.743-1.405-1.913-.406-.186-1.235-.423-1.93-.118Zm-.102-.202s-.135.135-.474-.203c-.338-.339-.338-.254-.338-.254s.44-.153.541-.119c.102.034.102.474.271.576Zm.322-.102s-.119.119-.339-.237c-.237-.372-.237-.27-.237-.27s.356-.136.423-.102c.068.05.034.49.153.61Zm1.49.17c-.069-.305-.069-.39-.069-.576 0-.186-.084-.237-.473-.27.084.22.152.321.118.422-.017.119-.068.068-.288-.355-.186-.136-.304-.068-.304-.068s.237.406.27.66c.305.017.644.119.745.186Zm-1.558-.83h.017c-.017-.017-.017 0-.017 0Zm.626.508c-.033-.085-.118-.152-.152-.237-.017-.101.017-.203-.05-.27-.051-.051-.322-.018-.407 0 .017.016.05.1.119.355a.63.63 0 0 0 .118.27h.39c.016-.034.016-.067-.018-.118Zm-.017 4.35c.508-.254.965-.61 1.439-.914.339-.22.83-.627 1.252-.627.271 0 .102.407-.186.407.186.135.254.203.135.236-.101.034-.304.271-.507.17-.203-.102-.339.101-.27.253.067.136-.238.373-.593.271-.339-.101-.271.271-.271.44-.339.17-.999.034-.999.034v-.27Zm-.067.169c0 .068-.068.135-.153.135-.084 0-.152-.068-.152-.135 0-.068.068-.119.152-.119.085 0 .153.051.153.119Zm2.962-.863s-.796.49-.965.626c-.17.135-.66.406-.762.406-.101 0 .491.22 1.033.22.068-.254-.068-.49.694-1.252Zm.067.288s-.457.304-.457.71l.491.102s.27-.305.44-.305c-.27-.169-.406-.237-.474-.508Zm-.169 1.1s.305-.17.474-.39c.17-.203.339.034.339.034s-.034.559-.102.694a7.762 7.762 0 0 1-.71-.339ZM5.535 6.955s.101-.474 0-.694c.236.119.338.271.338.271l-.034.542-.304-.119Zm.304.119s.39.338.423.457c.237-.119.423-.372.423-.44-.118-.136-.237-.322-.237-.322-.033.305-.118.423-.203.423-.084 0 .017-.575.017-.575l-.321-.119s.067.576-.102.576Zm.593.643s.118.118.152.203c.305-.254.423-.558.423-.558l-.186-.136s-.187.322-.339.423l-.05.068Zm.287.355s.356-.338.356-.457c.203.22.203.305.203.305s-.305.322-.406.322c-.119 0-.153-.17-.153-.17ZM9.867 9.09s-.067-.254-.152.135c-.102.39-.17.373-.254.339 0 .186-.355.541-.897 1.185 0 0 .136.017.288 0 .017-.017.034-.017.05-.034a.569.569 0 0 0 .474-.541c.098-.146.194-.293.288-.44.05.98-1.083 1.32-1.286 1.404-.204.068-.204.559-.237.982 0 0 .321.017.49.068 0-.305.525-.644.525-.644-.457 0-.694.407-.694.407s-.135.101-.152 0c-.017-.085.05-.407.152-.66 1.473-.508 1.388-1.236 1.456-1.44.068-.202-.05-.761-.05-.761Zm-.321 1.862s.203-.491.338-.525c.153-.05.305-1.033.305-1.185.152-.068.322-.033.406-.152.102.339.119 1.1.034 1.1-.102 0-.288.119-.372.305-.085.17-.339.22-.339.22s-.05.27-.372.237Zm.49-.119s.288-.135.39-.254c.085-.118.355-.135.355-.135s.322.508.576.592c-.339.254-.474.457-.593.711-.118.254-.304.457-.304.457l-.254.034s-.474-.05-.728.22c-.05-.474-.068-1.168.406-1.32.491-.17.153-.305.153-.305Zm1.135-.304s.05-.339-.288-.61c0-.49.017-.626.22-.626s.66.101.66.355c0 .237-.39.88-.592.88Zm-.322-.457s.034.27.186.304c-.254.068-.406-.118-.406-.118s.203-.017.22-.186Zm.93.101s-.168.88-.473 1.117c-.288.254.22.152.22.152s-.034.22-.44.542c-.39.322-.085.694-.085.694s.119.406-.287.17c.067.32.084.388-.153.372.136.236.643.524.948.033.288-.474.559-1.117.643-1.27-.27.086-.237.153-.592.051-.372-.101.558-.304.795-.846.22-.305.322-.389.322-.389-.237-.068-.322-.017-.22-.22-.254.034-.288.186-.457.135-.17-.05.186-.304.186-.304s.17-.068.457-.034c-.254-.254-.609-.203-.812-.203h-.051Zm-2.707 2.59s.49 0 .795-.322c.406-.068.627 0 .66.254.034.237-.253.305-.253.406 0 .102.321.508.152.508-.187 0-.356.152-.796-.237-.457-.373-.558-.203-.558-.203v-.406Zm.948 1.117s-.237-.102-.356-.305c-.118-.186-.66-.118-.694.017-.033.152-.237.982-.389 1.151-.152.152-.27.948-.338 1.066-.085.136.524.339.524.339s.186-.694.576-1.083c.372-.407.677-1.067.677-1.185Zm-.728-1.557s-.339-.102-.474-.254c-.135-.152.254-.203.39-.136.152.068.1.254.084.39Zm-.271.93s-.338.542-.39.762c-.05.237-.236-.05-.236-.05s.322-.678.389-.728c.068-.051.237.017.237.017Zm-.71 1.084s.372-.017.22.254c-.136.27-.34.084-.34.084s.12-.135.12-.338Zm-.018.66s-.389 1.066-.389 1.388c0 .321-.423-.17-.575-.17.203-.406.643-1.218.795-1.218h.17Zm.339 1.337s-.406-.136-.491-.203c-.068-.068-.237.575.152.592.39.017.406-.085.39-.322l-.051-.067Zm2.082-2.759s-1.05 1.473-1.219 1.591c.322.135.83.372.999.203.152-.152.744-1.184.778-1.421.017-.22-.321-.271-.558-.373ZM8.97 16.096s.136-.542.39-.542c.253 0 .896-.101 1.201.204.288.067.474.169.643.254.152.084.322.236.643.236.305 0 .593.085.593.085-.559.05-1.016.017-1.168.068-.17.05-.559.237-.762.237-.203 0-1.303-.119-1.54-.237l-.22-.119c.796.034 1.252.187 1.456.034.22-.17-1.236-.22-1.236-.22Zm-1.574-.322s-1.523.085-1.692.051c.423.186 1.438.339 1.523.339.102 0 .17-.39.17-.39ZM3.808 9.563s.322.034.423.287c.085.254-.237-.033-.237-.033l-.186-.254ZM7.21 8.36s-.372-.101-.39-.034c-.016.068.187.322.187.508s0-.372.186-.406l.017-.068Zm-.66 3.893s-2.115-.118-2.42-.118c-.288 0-.711.88-.796 1.116l-.084.254c-.051-.033-.136.051-.237.187-.085.135-.339.169-.339.169s-.88.152-1.354-.034c-.49-.17-.643.643-.728.643-.101 0 .068.71.068.71s.237 2.049.39 2.066c.135.017.355-.068.524.338.152.424 1.032.424 1.032.424l.017-.373s-.152 0-.321-.186c-.153-.186-.339-.576-.728-.728-.39-.152.135-.186.135-.186s-.169-.22-.507-.457c-.339-.22-.186-1.151-.085-1.219a1.05 1.05 0 0 0 .254-.423c.017-.152 1.456.085 1.743-.102.27-.186.39.017.102-.338-.271-.372 1.235-.05 1.235-.05s.846.016 1.219.186c.389.169 1.93.728 2.132.897.204.169.593-1.625.83-1.93.237-.305-1.828-.795-1.828-.795s-.778 1.59-.897 1.59c-.102 0-.136-.084.643-1.64Zm-.88 2.928s-.66-.203-.728-.423c-.068-.237.931.423 1.083.423.136 0 0 .39-.101.44-.085.05.49-.05.575-.068.085-.017.931.051.931-.44-.406-.05-.812.034-1.337-.524-.677-.068-1.066-.339-1.286-.474-.237-.153-.999-.034-.999-.034s-.085.254.762.237c.27.118.372.22.254.22-.119 0-1.185-.102-2.082.068 0 0-.49.05-.728-.017-.254-.068-.643.406-.643.406s-.22.44-.05.694c.152.254 1.116 1.337 1.167 1.692.44.254.83.423.931.559.119.135.355.119.44.203.102.085 1.1-.237 1.1-.237s-.067-.863-1.117-.88c-.169.152-.186.423-.389.322-.203-.119.05-.22.05-.356 0-.135-.253-.118-.32-.135-.069-.017-.322-.22-.356-.372-.017-.136-.61-.627-.61-.627s-.253-.406.525-.236c.779.152.762.575 2.319.389.609-.271.609-.83.609-.83Zm5.196.118s.575-1.201.575-1.438c0-.254.864-1.388.83-1.591.592-.034 3.96.355 4.535.964.593.627.931 2.065.931 2.929-.372.067-1.032.304-1.37.71-.305 0-.931-.169-1.134-.169-.203 0-.44.034-.796-.304-.575-.034-.744-.034-.93-.034-.17 0-.542-.203-.542-.203s-.457-.305-1.134-.305c-.39-.22-.593-.355-.965-.423V15.3Zm1.506-3.3s3.3.102 4.435 1.066c-.474-.626-2.539-1.303-4.367-1.303-.17.135-.068.237-.068.237Zm1.32 4.536s.271.592.373.762c.101.169 1.133.795 1.963.863.813.068 2.607.101 2.742.169.135.068.694 1.337.965 1.574.034.355-.034.559.44.66.49.102.186.541.795.728.627.169.17-.187.525-.187.339 0 .034.102.474.034.457-.067-.305-.964-.474-1.032-.17-.068-.525.288-.525.288s-.304.236-.236-.457c-.305-.34-.339-.17-.407-.44-.067-.271-.795-1.998-1.134-2.438-.355-.457-.423.136-1.218-.068-.779-.22-.745-.423-.745-.423s-.355.271-.524.305c-.17.05-.271.423-.271.423s-.406-.203-.728-.27c-.305-.069-.541.067-.541.067s-.204.135-.796-.322c-.474-.236-.44-.236-.677-.236Zm3.775 0s.27.101.474.237c.22.152.558.068.558.068s-.406-.711-1.032-.305Zm.406 1.896s.288 1.201.288 1.709c.27.254.474.22.541.457.068.237.339.406.559.237.203-.17.203.27.203.27l.44.288s.135-.626 0-.694c-.135-.068-.474-.524-.61-.761-.067.169-.22.068-.287-.237-.068-.305-.305-.931-.305-1.1 0-.17-.83-.17-.83-.17Zm-4.079-1.405s-.186-.39-1.066-.525c.034.237.169.136.27.237.102.102.474.254.474.39 0 .135.322.236.322-.102Zm3.317-3.994c-.05.017.305.321.339.338.203.101.524.152.71-.017.085.119.22.22.306.339.118.186.203.406.253.626.153.71.711 1.574 1.896 1.574.372.068.576.135.694.186-.034-.22-.237-.389-.575-.44.338-.135.474-.22.829-.203.328.034.63.191.846.44 0 0 .407 0-.507-.761-.576-.204-.965-.254-1.05-.39.39-.05.779-.135 1.185.186.423.322.372.457.779.457-.322-.44-.255-.406-.39-.694-.135-.27-.575-.355-1.218-.236-.627.101-.61 0-.61 0l.068.203s-.71.084-.982-.711c-.169-.203-.203-.271-.203-.271.305.135.423.372.423.39.068.118.356.202.474.236.423.119.813-.135 1.236-.101.321.017.592.169.88.27-.153-.372-.288-.507-.61-.643-.237 0-.321.085-.643.119-.321.017-.914.067-1.81-.897-.983-.576-2.32 0-2.32 0ZM4.486 11.882c0 .084-.101.135-.237.135-.118 0-.22-.05-.22-.135 0-.068.102-.136.22-.136.136 0 .237.068.237.136Zm.356-.119c0 .068-.051.119-.136.119-.068 0-.135-.051-.135-.119 0-.05.067-.102.135-.102.085 0 .136.051.136.102Zm.473.017c0 .068-.067.135-.118.135-.068 0-.118-.067-.118-.135s.05-.119.118-.119c.05 0 .118.051.118.119Zm.491 0c0 .068-.068.135-.169.135-.085 0-.169-.067-.169-.135s.085-.119.169-.119c.102 0 .17.051.17.119Zm.525.05c0 .052-.085.102-.186.102-.102 0-.203-.05-.203-.101 0-.068.101-.102.203-.102.101 0 .186.034.186.102Zm.49.052c0 .084-.084.135-.168.135-.102 0-.17-.05-.17-.135 0-.068.068-.136.17-.136.084 0 .169.068.169.136Zm.475.27a.152.152 0 0 1-.153.153c-.084 0-.169-.068-.169-.153 0-.067.085-.135.17-.135.084 0 .152.068.152.135Zm.423.085a.146.146 0 0 1-.135.136c-.068 0-.119-.068-.119-.136s.05-.118.119-.118c.067 0 .135.05.135.118Zm.423.203c0 .05-.068.085-.152.085-.085 0-.153-.034-.153-.085 0-.034.068-.068.153-.068.084 0 .152.034.152.068Zm-.017.119c0 .067.102.101.22.101.118 0 .22-.034.22-.101 0-.051-.102-.102-.22-.102-.118 0-.22.05-.22.101Zm.813.203c0 .05-.068.101-.119.101-.068 0-.118-.05-.118-.101 0-.068.05-.119.118-.119.05 0 .119.051.119.119Zm1.59-6.466s-1.286-.27-2.555-.101c-.203.474-.373.744-.44.93.406.035.643 0 .643.204 0 .203-.61.643-.847.863-.033.508.271 2.115.407 2.37.555-.253 1.913-.924 2.777-4.206.005.009.013.02.021.03.022.027.052.059.086.093-.237.817-.516 1.676-.94 2.427-.426.753-1 1.398-1.826 1.783l.024.052c.84-.39 1.42-1.044 1.852-1.807.43-.76.71-1.63.95-2.455l.005-.016-.012-.012a1.554 1.554 0 0 1-.095-.1c-.014-.019-.026-.024-.025-.027l-.027-.018a.065.065 0 0 0 .002-.01Z" filter="url(#b)"/></g></svg>