<?xml version="1.0" encoding="UTF-8" standalone="no"?>
<!DOCTYPE svg PUBLIC "-//W3C//DTD SVG 1.1//EN" "http://www.w3.org/Graphics/SVG/1.1/DTD/svg11.dtd">
<!-- Created with Vectornator (http://vectornator.io/) -->
<svg stroke-miterlimit="10" style="fill-rule:nonzero;clip-rule:evenodd;stroke-linecap:round;stroke-linejoin:round;" version="1.1" viewBox="0 0 24 24" xml:space="preserve" xmlns="http://www.w3.org/2000/svg" xmlns:xlink="http://www.w3.org/1999/xlink">
<defs>
<filter color-interpolation-filters="sRGB" filterUnits="userSpaceOnUse" height="31.1508" id="Filter" width="36.364" x="3.55271e-15" y="2.6066">
<feDropShadow dx="6.36396" dy="6.36396" flood-color="#ffffff" flood-opacity="1" in="SourceGraphic" result="Shadow" stdDeviation="3"/>
</filter>
</defs>
<clipPath id="ArtboardFrame">
<rect height="24" width="24" x="0" y="0"/>
</clipPath>
<g clip-path="url(#ArtboardFrame)" id="Untitled">
<path d="M2.96185 3.85903C2.96185 3.85903 4.75606 2.21706 8.69952 4.12985C8.56403 4.68839 8.14097 5.14525 8.14097 5.14525C8.14097 5.14525 6.77011 4.50221 6.41465 4.92527C6.04229 5.33143 5.3991 5.28059 5.3991 5.28059C4.75606 4.95921 2.96185 3.85903 2.96185 3.85903ZM8.56418 5.23003C8.56418 5.23003 8.56418 4.77289 9.35988 4.77289C9.03808 4.67135 8.76754 4.67135 8.76754 4.67135C8.97062 4.36659 9.00456 4.19745 9.69845 4.19745C10.3925 4.19745 10.6971 4.87443 10.6971 4.87443C10.5278 5.06075 10.5616 5.50071 10.6633 5.63605C10.2063 5.53451 9.36003 5.02681 9.29228 5.23003C9.29228 5.23003 8.56418 5.23003 8.56418 5.23003ZM10.8659 4.77303C10.8659 4.77303 12.897 5.53465 15.2326 5.43311C17.5683 5.33157 18.9731 7.12564 18.9731 7.12564C18.9731 7.12564 19.8701 7.83642 21.1395 8.10739C20.1412 8.10739 20.0394 8.14119 19.8025 8.19203C19.5655 8.22583 18.7699 7.90431 18.2284 7.53209C17.6699 7.15972 14.9619 7.00734 14.9619 7.00734L12.8634 7.00734C12.8634 7.00734 11.3398 6.97354 11.0354 5.83956C10.7306 4.70529 10.8659 4.77303 10.8659 4.77303ZM20.4965 8.42891C20.4965 8.42891 21.3597 8.80127 21.5627 9.32587C22.2399 9.59655 22.9336 9.69823 23.1706 9.83357C23.4243 9.96877 23.7292 10.0198 24 10.0705C23.7799 9.96877 23.7123 9.71485 23.5091 9.59641C23.1199 9.35953 22.7645 9.56261 22.3921 9.19025C22.1213 8.90267 21.952 8.51312 21.529 8.42877C21.2242 8.36117 20.7841 8.29343 20.4965 8.42891ZM9.24116 5.78843L8.51334 5.78843C8.51334 5.78843 8.32701 5.38227 9.39326 5.38227C9.24116 5.55155 9.15652 5.60225 9.24116 5.78843ZM10.3074 5.63619C10.3074 5.63619 9.49508 5.56845 9.42734 5.66999C9.3596 5.77153 9.46114 5.83913 9.46114 5.83913L10.2736 5.87293C10.2736 5.87293 10.3074 5.63619 10.3074 5.63619ZM10.4599 6.05926C10.4599 6.05926 11.0354 5.87293 11.5262 6.80398C11.4924 7.1931 11.1369 7.7008 11.0692 7.7008C11.0013 7.7008 10.5951 7.97162 10.4598 8.2254C10.4598 7.7684 10.5613 7.59912 10.7305 7.36224C10.8997 7.12536 10.8659 6.46527 10.7983 6.36373C10.7306 6.26248 10.4599 6.05926 10.4599 6.05926ZM9.93504 3.96057C9.93504 3.96057 10.849 3.90987 11.2214 4.36673C11.5938 4.82359 11.9492 4.50221 11.9492 4.50221C11.9492 4.50221 12.0001 4.09605 11.6784 3.85903C12.1356 4.18069 12.3724 4.55305 12.4062 4.63741C12.4569 4.73909 13.0155 5.06047 13.0155 4.23139C13.3711 4.60375 13.4216 4.63741 13.4726 4.77275C13.5063 4.92513 13.9634 5.41593 14.3866 5.06047C14.7928 4.68811 14.8436 4.2311 13.9296 3.85874C14.065 4.31575 14.0143 4.68811 13.608 4.2818C13.1849 3.85874 12.7785 3.67242 12.2371 3.85874C11.5938 3.63905 10.7644 3.53751 9.93504 3.96057ZM10.2397 8.39497C10.2397 8.39497 10.4936 8.53045 10.7305 8.07344C11.0013 8.07344 11.5262 7.90416 11.5598 7.15944C11.6952 7.80234 11.6952 8.76719 11.6615 8.90252L11.6276 9.03786C11.6276 9.03786 11.9661 9.1394 12.1015 8.83478C12.4738 9.03786 18.1269 12.3045 18.1269 12.3045L18.0253 12.4398L11.7969 9.29179C11.7969 9.29179 11.3062 9.17335 11.069 9.17335C11.3398 9.07181 11.3398 8.83478 11.3398 8.83478C11.3398 8.83478 10.7305 9.03786 10.6968 9.03786C10.7305 8.7331 10.6968 8.53016 10.5613 8.53016C10.426 8.53016 10.6629 9.03786 10.2397 9.03786C9.8335 9.03815 10.2059 8.73353 10.2397 8.39497ZM11.7968 8.32737L11.7968 7.498C11.7968 7.36252 12.2371 7.87036 12.3045 8.19189C12.1015 8.25963 11.9322 8.22568 11.7968 8.32737ZM11.9322 8.63185C11.9322 8.63185 12.1354 8.10739 12.5923 8.5641C13.0324 9.00421 12.7616 8.93647 12.7616 8.93647C12.7616 8.93647 12.0677 8.63185 11.9322 8.63185ZM1.65873 3.43597L1.54015 3.67285L7.32851 6.77018L7.46399 6.56696L1.65873 3.43597ZM3.55271e-15 2.6066L0.795564 3.43597C0.795564 3.43597 1.37115 3.67285 1.37115 3.19894C1.37115 2.70814 0.473902 2.79278 3.55271e-15 2.6066ZM2.67427 6.70244C2.67427 6.70244 1.96349 6.93932 1.86181 6.0594C2.33571 6.43176 2.50485 6.6009 2.67427 6.70244ZM1.79407 5.85617C1.79407 5.85617 2.52189 6.29642 2.75877 6.41486C2.57259 6.02546 3.16508 6.02546 1.79407 5.85617ZM2.60639 6.90552C2.60639 6.90552 2.13249 6.97326 2.09883 7.5318C2.50485 7.66714 2.70822 7.76868 2.70822 8.0057C2.40345 8.10724 2.13263 7.90388 2.03095 7.80234C1.60789 7.83614 0.863165 7.87022 0.863165 7.87022C0.863165 7.87022 1.86167 8.22568 2.33571 8.22568C2.23403 8.46271 2.03095 8.53045 2.03095 8.73339C2.03095 8.93661 1.99715 9.66429 1.99715 9.66429C1.99715 9.66429 2.16643 9.49501 2.13263 9.69809C2.09897 9.90117 1.92955 9.86723 1.92955 9.86723C1.92955 9.86723 1.60789 10.392 1.86167 10.5614C2.09869 10.7304 2.43725 10.2737 2.43725 10.2737C2.43725 10.2737 2.82651 10.2399 2.92805 10.2399C3.02959 10.2399 3.06354 9.79977 2.96185 9.59669C2.86031 9.39361 2.99565 9.03815 2.99565 9.03815C3.09719 9.46121 3.23253 9.46121 3.36801 9.46121C3.5035 9.46121 3.80812 8.22568 3.80812 8.22568C3.80812 8.22568 4.16344 7.26098 3.16508 7.00706C2.86031 7.00706 2.70793 7.00706 2.70793 7.19338C2.57259 7.15958 2.60639 6.90552 2.60639 6.90552ZM2.86045 10.4599C2.86045 10.4599 2.53879 10.3414 2.36951 10.6291C2.64033 10.7307 2.79271 10.6629 2.86045 10.4599ZM3.09733 10.1383C3.09733 10.1383 3.43604 10.1723 3.46969 9.83371C3.70657 9.96891 3.9267 10.2059 3.80826 10.3413C3.70672 10.4937 3.09747 10.8321 3.53758 11.3399C3.99458 11.8647 4.40074 11.4923 4.53594 11.4923C4.12992 11.3739 3.63912 11.4923 3.85896 11.0353C4.06204 10.5951 4.19752 10.5275 4.19752 10.5275C4.02838 10.3921 4.02838 9.96877 4.02838 9.96877C4.02838 9.96877 3.57123 9.59641 3.16522 9.59641C3.23267 9.86751 3.26647 10.0367 3.09733 10.1383ZM4.02824 8.56425C4.02824 8.56425 3.99444 8.90281 3.74052 8.97041C3.92684 9.29193 3.85896 9.46121 3.85896 9.46121C4.12978 9.49487 4.09584 9.07195 4.09584 9.07195C4.09584 9.07195 4.02824 8.56425 4.02824 8.56425ZM3.67292 7.0748C3.67292 7.0748 4.06204 7.63348 4.09598 8.10739C4.12978 8.59819 4.26526 8.39497 4.26526 8.39497C4.26526 8.39497 4.3668 10.1723 4.3668 10.4261C4.3668 10.6631 4.53594 10.6631 4.53594 10.6631C5.416 10.3076 6.11003 9.34291 7.00699 9.10589C6.60083 8.36117 6.02539 7.36266 5.60218 7.19324C5.19602 7.00706 4.36666 6.77018 3.67292 7.0748ZM3.57124 6.87172C3.57124 6.87172 3.43604 7.00706 3.09733 6.66864C2.75877 6.33008 2.75877 6.41472 2.75877 6.41472C2.75877 6.41472 3.19887 6.26248 3.30027 6.29628C3.40195 6.33008 3.40195 6.77018 3.57124 6.87172ZM3.89276 6.77018C3.89276 6.77018 3.77432 6.88862 3.55434 6.53316C3.31717 6.1608 3.31717 6.26248 3.31717 6.26248C3.31717 6.26248 3.67278 6.127 3.74023 6.1608C3.80812 6.21164 3.77432 6.65174 3.89276 6.77018ZM5.3822 6.93946C5.31446 6.6347 5.31446 6.55034 5.31446 6.36402C5.31446 6.17784 5.22982 6.127 4.84056 6.0932C4.9252 6.31346 4.9928 6.415 4.959 6.51626C4.9421 6.6347 4.89112 6.584 4.67128 6.1608C4.4851 6.02546 4.36652 6.09291 4.36652 6.09291C4.36652 6.09291 4.60354 6.49907 4.63734 6.753C4.9421 6.77018 5.28066 6.87172 5.3822 6.93946ZM3.82516 6.1101L3.84206 6.1101C3.82516 6.0932 3.82516 6.1101 3.82516 6.1101ZM4.4513 6.61794C4.4175 6.5333 4.33286 6.46556 4.29906 6.38106C4.28216 6.27952 4.31596 6.17798 4.24836 6.11024C4.19766 6.05968 3.9267 6.09334 3.8422 6.11024C3.8591 6.12714 3.8929 6.21178 3.96064 6.4657C3.97754 6.55048 4.01134 6.65202 4.07908 6.73652L4.46834 6.73652C4.4851 6.70244 4.4851 6.66864 4.4513 6.61794ZM4.4344 10.9677C4.9421 10.7138 5.3991 10.3583 5.873 10.0537C6.21157 9.83371 6.70237 9.42741 7.12543 9.42741C7.39625 9.42741 7.22697 9.83357 6.93925 9.83357C7.12543 9.96877 7.19303 10.0367 7.07445 10.0705C6.97291 10.1041 6.76983 10.3411 6.56689 10.2396C6.36366 10.138 6.22818 10.3411 6.29607 10.4935C6.36381 10.629 6.05919 10.8659 5.70372 10.7643C5.36516 10.6628 5.4329 11.0352 5.4329 11.2044C5.09448 11.3737 4.4344 11.2382 4.4344 11.2382C4.4344 11.2382 4.4344 10.9677 4.4344 10.9677ZM4.36666 11.1368C4.36666 11.2046 4.29892 11.2722 4.21428 11.2722C4.12964 11.2722 4.06204 11.2043 4.06204 11.1368C4.06204 11.0691 4.12992 11.0184 4.21428 11.0184C4.29906 11.0184 4.36666 11.0692 4.36666 11.1368ZM7.32851 10.2737C7.32851 10.2737 6.53309 10.7645 6.36381 10.9C6.19467 11.0354 5.70387 11.306 5.60232 11.306C5.50064 11.306 6.09313 11.5262 6.63477 11.5262C6.70251 11.2723 6.56703 11.0354 7.32851 10.2737ZM7.39639 10.5615C7.39639 10.5615 6.93939 10.8662 6.93939 11.2723L7.43019 11.3739C7.43019 11.3739 7.70087 11.0691 7.87029 11.0691C7.59933 10.9 7.46399 10.8322 7.39639 10.5615ZM7.22711 11.6614C7.22711 11.6614 7.53187 11.4924 7.70101 11.2723C7.87029 11.0691 8.03972 11.306 8.03972 11.306C8.03972 11.306 8.00592 11.8648 7.93803 12.0001C7.66707 11.8983 7.22711 11.6614 7.22711 11.6614ZM5.53458 6.95636C5.53458 6.95636 5.63612 6.48246 5.53458 6.26248C5.77146 6.38092 5.87315 6.53316 5.87315 6.53316L5.83935 7.07466C5.83935 7.07466 5.53458 6.95636 5.53458 6.95636ZM5.83921 7.0748C5.83921 7.0748 6.22832 7.41322 6.26227 7.53194C6.49929 7.4135 6.68533 7.15958 6.68533 7.0917C6.56689 6.95622 6.44845 6.77018 6.44845 6.77018C6.41465 7.0748 6.33001 7.19324 6.24522 7.19324C6.16058 7.19324 6.26212 6.6178 6.26212 6.6178C6.12678 6.56696 5.9406 6.49936 5.9406 6.49936C5.9406 6.49936 6.00849 7.0748 5.83921 7.0748ZM6.43155 7.71798C6.43155 7.71798 6.54999 7.83642 6.58393 7.92106C6.88869 7.66728 7.00699 7.36252 7.00699 7.36252L6.82081 7.22718C6.82081 7.22718 6.63449 7.5487 6.4821 7.65024C6.4821 7.65024 6.43155 7.71798 6.43155 7.71798ZM6.71927 8.07344C6.71927 8.07344 7.07473 7.73488 7.07473 7.61644C7.27795 7.83642 7.27795 7.92106 7.27795 7.92106C7.27795 7.92106 6.97319 8.24287 6.87179 8.24287C6.75307 8.24273 6.71927 8.07344 6.71927 8.07344ZM9.8673 9.08899C9.8673 9.08899 9.79956 8.83507 9.71506 9.22447C9.61338 9.61359 9.54592 9.59683 9.46114 9.56289C9.46114 9.74921 9.10582 10.1044 8.56418 10.7477C8.56418 10.7477 8.69966 10.7646 8.8519 10.7477C8.8688 10.7308 8.8857 10.7308 8.90245 10.7139C9.29172 10.6293 9.37636 10.3079 9.37636 10.1726C9.47441 10.0272 9.57033 9.88046 9.66408 9.73231C9.71478 10.7139 8.58093 11.0526 8.37771 11.1373C8.17449 11.205 8.17449 11.6958 8.14083 12.1189C8.14083 12.1189 8.46249 12.1358 8.63178 12.1866C8.63178 11.882 9.15623 11.5434 9.15623 11.5434C8.69923 11.5434 8.46235 11.9496 8.46235 11.9496C8.46235 11.9496 8.32687 12.0511 8.30997 11.9496C8.29307 11.8649 8.36067 11.5434 8.46235 11.2896C9.9349 10.7818 9.85012 10.0541 9.918 9.8509C9.98588 9.64753 9.8673 9.08899 9.8673 9.08899ZM9.54578 10.9507C9.54578 10.9507 9.74886 10.4597 9.8842 10.4261C10.0366 10.3754 10.189 9.39347 10.189 9.24123C10.3413 9.17349 10.5106 9.20757 10.5951 9.08899C10.6968 9.42755 10.7136 10.1892 10.6289 10.1892C10.5274 10.1892 10.3413 10.3076 10.2566 10.4938C10.1719 10.6631 9.91814 10.7138 9.91814 10.7138C9.91814 10.7138 9.8673 10.9846 9.54578 10.9507ZM10.0366 10.8322C10.0366 10.8322 10.3243 10.6969 10.4258 10.5783C10.5105 10.4599 10.7812 10.4431 10.7812 10.4431C10.7812 10.4431 11.1028 10.9507 11.3566 11.0354C11.018 11.2894 10.8827 11.4924 10.7643 11.7462C10.6458 12.0001 10.4595 12.2032 10.4595 12.2032L10.2056 12.237C10.2056 12.237 9.73168 12.1863 9.4779 12.457C9.4272 11.9831 9.41001 11.2892 9.88392 11.1368C10.3751 10.9677 10.0366 10.8322 10.0366 10.8322ZM11.1706 10.5276C11.1706 10.5276 11.2213 10.1892 10.8828 9.91821C10.8828 9.42741 10.8997 9.29193 11.1028 9.29193C11.306 9.29193 11.7629 9.39347 11.7629 9.64739C11.763 9.88441 11.3736 10.5276 11.1706 10.5276ZM10.849 10.0706C10.849 10.0706 10.8828 10.3413 11.0354 10.3752C10.7814 10.4431 10.6292 10.2568 10.6292 10.2568C10.6292 10.2568 10.8321 10.2399 10.849 10.0706ZM11.7799 10.1721C11.7799 10.1721 11.6108 11.0521 11.306 11.2892C11.0183 11.543 11.526 11.4415 11.526 11.4415C11.526 11.4415 11.4922 11.6614 11.0858 11.983C10.6967 12.3046 11.0011 12.677 11.0011 12.677C11.0011 12.677 11.1196 13.0831 10.7136 12.8461C10.7813 13.1676 10.7983 13.2352 10.5613 13.2185C10.6968 13.4554 11.2044 13.7429 11.5091 13.2521C11.7968 12.7782 12.0677 12.1352 12.1523 11.9828C11.8815 12.0675 11.9154 12.1351 11.5598 12.0334C11.1876 11.9318 12.1185 11.7286 12.3554 11.1871C12.5755 10.8823 12.6771 10.798 12.6771 10.798C12.44 10.7301 12.3554 10.7811 12.4571 10.5779C12.2032 10.6118 12.1694 10.7642 12.0001 10.7133C11.8308 10.6628 12.1863 10.4086 12.1863 10.4086C12.1863 10.4086 12.3554 10.3407 12.6434 10.3748C12.3895 10.1209 12.0342 10.1717 11.8308 10.1717L11.7799 10.1717L11.7799 10.1721ZM9.07188 12.7618C9.07188 12.7618 9.56268 12.7618 9.8673 12.4401C10.2735 12.3724 10.4936 12.4401 10.5274 12.694C10.5612 12.9309 10.2735 12.9986 10.2735 13.1002C10.2735 13.2017 10.5951 13.6077 10.4258 13.6077C10.2395 13.6077 10.0704 13.7601 9.63014 13.3709C9.17313 12.9985 9.07159 13.1678 9.07159 13.1678C9.07159 13.1678 9.07188 12.7618 9.07188 12.7618ZM10.0197 13.8789C10.0197 13.8789 9.7828 13.7773 9.66422 13.5742C9.54578 13.3879 9.00442 13.4558 8.97034 13.5911C8.93654 13.7434 8.73346 14.5727 8.58108 14.742C8.42869 14.8944 8.31025 15.6898 8.24266 15.8083C8.15801 15.9436 8.76711 16.1467 8.76711 16.1467C8.76711 16.1467 8.95344 15.4528 9.3427 15.0635C9.71506 14.6572 10.0197 13.9973 10.0197 13.8789ZM9.29186 12.3217C9.29186 12.3217 8.95344 12.2201 8.81796 12.0677C8.68262 11.9155 9.07188 11.8647 9.20722 11.9324C9.3596 12.0001 9.30876 12.1863 9.29186 12.3217ZM9.02104 13.2526C9.02104 13.2526 8.68262 13.7941 8.63192 14.0142C8.58108 14.2511 8.3949 13.9635 8.3949 13.9635C8.3949 13.9635 8.71656 13.2865 8.78401 13.2357C8.8519 13.1848 9.02104 13.2526 9.02104 13.2526ZM8.31025 14.3357C8.31025 14.3357 8.68262 14.319 8.53023 14.5896C8.39489 14.8605 8.19167 14.6744 8.19167 14.6744C8.19167 14.6744 8.31025 14.5388 8.31025 14.3357ZM8.29336 14.9958C8.29336 14.9958 7.90424 16.062 7.90424 16.3836C7.90424 16.7051 7.48118 16.2144 7.32865 16.2144C7.53188 15.8083 7.97184 14.9958 8.12436 14.9958C8.12436 14.9958 8.29336 14.9958 8.29336 14.9958ZM8.63192 16.3329C8.63192 16.3329 8.22576 16.1974 8.14097 16.1298C8.07309 16.0619 7.90409 16.7052 8.29321 16.7221C8.68247 16.739 8.69937 16.6373 8.68247 16.4003C8.68247 16.4003 8.63192 16.3329 8.63192 16.3329ZM10.7137 13.5742C10.7137 13.5742 9.66422 15.0466 9.49522 15.1652C9.81674 15.3004 10.3246 15.5374 10.4936 15.3683C10.646 15.2159 11.2383 14.1835 11.2721 13.9466C11.2891 13.7265 10.9506 13.6756 10.7137 13.5742ZM8.97034 16.096C8.97034 16.096 9.10582 15.5543 9.3596 15.5543C9.61324 15.5543 10.2564 15.4528 10.5612 15.7577C10.8488 15.8254 11.0351 15.9267 11.2042 16.0116C11.3565 16.0963 11.5259 16.2485 11.8473 16.2485C12.152 16.2485 12.4396 16.3331 12.4396 16.3331C11.8811 16.3838 11.4243 16.35 11.2718 16.4009C11.1025 16.4516 10.7131 16.6379 10.5102 16.6379C10.3073 16.6379 9.20693 16.5195 8.97005 16.4009L8.75007 16.2824C9.54564 16.3162 10.0024 16.4688 10.2056 16.3162C10.426 16.1467 8.97034 16.096 8.97034 16.096ZM7.39639 15.7745C7.39639 15.7745 5.873 15.8591 5.70386 15.825C6.12693 16.0113 7.14247 16.1636 7.22711 16.1636C7.32851 16.1637 7.39639 15.7745 7.39639 15.7745ZM3.80812 9.56275C3.80812 9.56275 4.12978 9.59655 4.23118 9.85033C4.31582 10.1043 3.9943 9.81667 3.9943 9.81667C3.9943 9.81667 3.80812 9.56275 3.80812 9.56275ZM7.21007 8.36117C7.21007 8.36117 6.83771 8.25963 6.82095 8.32737C6.80391 8.39511 7.00713 8.64889 7.00713 8.83507C7.00713 9.02125 7.00713 8.46271 7.19331 8.42891C7.19331 8.42891 7.21007 8.36117 7.21007 8.36117ZM6.55013 12.2541C6.55013 12.2541 4.43454 12.1355 4.12978 12.1355C3.84206 12.1355 3.419 13.0154 3.33421 13.2524L3.24957 13.5063C3.19887 13.4727 3.11423 13.557 3.01269 13.6927C2.92791 13.828 2.67413 13.8617 2.67413 13.8617C2.67413 13.8617 1.79407 14.014 1.32017 13.828C0.829222 13.6589 0.676983 14.471 0.592342 14.471C0.490802 14.471 0.660083 15.1818 0.660083 15.1818C0.660083 15.1818 0.897247 17.2298 1.04934 17.2467C1.18468 17.2636 1.40481 17.179 1.57395 17.5854C1.72633 18.0085 2.60639 18.0085 2.60639 18.0085L2.62343 17.6361C2.62343 17.6361 2.47105 17.6361 2.30177 17.4499C2.14939 17.2636 1.96335 16.8742 1.57395 16.7221C1.18468 16.5697 1.70943 16.5358 1.70943 16.5358C1.70943 16.5358 1.54015 16.3158 1.20173 16.0788C0.863163 15.8588 1.01554 14.9279 1.11709 14.8602C1.20173 14.7924 1.33707 14.5724 1.37101 14.4371C1.38776 14.2847 2.82651 14.5217 3.11409 14.3354C3.38491 14.1492 3.50335 14.3525 3.21563 13.997C2.94495 13.6246 4.45116 13.9464 4.45116 13.9464C4.45116 13.9464 5.29742 13.9632 5.66978 14.1326C6.05904 14.3019 7.59919 14.8605 7.80241 15.0296C8.00563 15.1987 8.39489 13.4048 8.63192 13.1002C8.8688 12.7954 6.80391 12.3046 6.80391 12.3046C6.80391 12.3046 6.02553 13.8956 5.90695 13.8956C5.80526 13.8957 5.77146 13.811 6.55013 12.2541ZM5.66992 15.182C5.66992 15.182 5.00998 14.9789 4.9421 14.7589C4.87436 14.522 5.873 15.182 6.02539 15.182C6.16073 15.182 6.02539 15.5714 5.92385 15.6222C5.8392 15.6728 6.41465 15.5715 6.49929 15.5543C6.58407 15.5374 7.43033 15.605 7.43033 15.1144C7.02417 15.0635 6.61773 15.1482 6.09327 14.5896C5.416 14.5219 5.02674 14.2511 4.80676 14.1157C4.56974 13.9633 3.80812 14.0819 3.80812 14.0819C3.80812 14.0819 3.72347 14.3357 4.56974 14.319C4.84056 14.4374 4.9421 14.5389 4.82366 14.5389C4.70522 14.5389 3.63883 14.4374 2.74187 14.6067C2.74187 14.6067 2.25107 14.6574 2.01405 14.5898C1.76013 14.522 1.37101 14.9959 1.37101 14.9959C1.37101 14.9959 1.15088 15.436 1.32031 15.6898C1.47255 15.9437 2.43739 17.027 2.48809 17.3823C2.92819 17.6363 3.31731 17.8054 3.41914 17.941C3.53758 18.0762 3.77446 18.0595 3.85924 18.1441C3.96078 18.2288 4.95943 17.9072 4.95943 17.9072C4.95943 17.9072 4.89154 17.0441 3.84234 17.0272C3.6732 17.1794 3.65616 17.4502 3.45308 17.3488C3.25 17.2302 3.50392 17.1287 3.50392 16.9932C3.50392 16.858 3.25 16.8748 3.18226 16.858C3.11438 16.841 2.8606 16.6379 2.8268 16.4857C2.8099 16.3502 2.21755 15.8594 2.21755 15.8594C2.21755 15.8594 1.96363 15.4532 2.74201 15.6225C3.52054 15.7749 3.50364 16.1979 5.06082 16.0118C5.66992 15.7405 5.66992 15.182 5.66992 15.182ZM10.8659 15.3004C10.8659 15.3004 11.4414 14.0988 11.4414 13.8618C11.4414 13.6079 12.3046 12.4742 12.2708 12.2708C12.8632 12.2372 16.2314 12.6263 16.8065 13.2355C17.3989 13.8617 17.7375 15.3004 17.7375 16.1636C17.3651 16.2315 16.705 16.4683 16.3667 16.8744C16.062 16.8744 15.4357 16.7054 15.2327 16.7054C15.0298 16.7054 14.7926 16.7392 14.4372 16.4006C13.8616 16.3669 13.6926 16.3669 13.5061 16.3669C13.3371 16.3669 12.9648 16.1637 12.9648 16.1637C12.9648 16.1637 12.5078 15.859 11.8308 15.859C11.4415 15.639 11.2384 15.5035 10.8661 15.4359L10.8661 15.3004L10.8659 15.3004ZM12.3723 12.0001C12.3723 12.0001 15.6726 12.1017 16.8068 13.0664C16.3329 12.4401 14.268 11.7631 12.44 11.7631C12.2707 11.8983 12.3723 12.0001 12.3723 12.0001ZM13.6925 16.5359C13.6925 16.5359 13.9631 17.1283 14.0647 17.2976C14.1664 17.4668 15.1985 18.0931 16.028 18.1609C16.8405 18.2286 18.6346 18.2624 18.7699 18.33C18.9054 18.3979 19.4639 19.6671 19.7347 19.904C19.7685 20.2594 19.7009 20.4628 20.1747 20.564C20.6656 20.6656 20.361 21.1054 20.9704 21.2919C21.5967 21.461 21.1395 21.1055 21.495 21.1055C21.8336 21.1055 21.5288 21.2072 21.9691 21.1393C22.4261 21.0716 21.6643 20.1746 21.495 20.1069C21.3259 20.039 20.9704 20.3945 20.9704 20.3945C20.9704 20.3945 20.6656 20.6313 20.7335 19.9375C20.4288 19.5989 20.395 19.7683 20.3274 19.4974C20.2598 19.2265 19.5318 17.5002 19.1935 17.0601C18.8381 16.6031 18.7705 17.1955 17.9749 16.9922C17.1965 16.7723 17.2303 16.5692 17.2303 16.5692C17.2303 16.5692 16.8749 16.84 16.7057 16.8738C16.5364 16.9245 16.4349 17.2969 16.4349 17.2969C16.4349 17.2969 16.0289 17.0938 15.7071 17.0262C15.4025 16.9584 15.1657 17.0941 15.1657 17.0941C15.1657 17.0941 14.9625 17.2293 14.37 16.7723C13.8955 16.5359 13.9293 16.5359 13.6925 16.5359ZM17.4668 16.5359C17.4668 16.5359 17.7375 16.6375 17.9408 16.7728C18.1608 16.9251 18.4994 16.8407 18.4994 16.8407C18.4994 16.8407 18.0932 16.1298 17.4668 16.5359ZM17.8729 18.4317C17.8729 18.4317 18.1607 19.6334 18.1607 20.141C18.4313 20.3949 18.6346 20.3611 18.702 20.5981C18.7699 20.8351 19.0407 21.0041 19.2608 20.8351C19.4639 20.6659 19.4639 21.1058 19.4639 21.1058L19.9042 21.3934C19.9042 21.3934 20.0394 20.7671 19.9042 20.6994C19.7688 20.6315 19.4301 20.1748 19.2949 19.9378C19.2269 20.107 19.0747 20.0056 19.0072 19.7009C18.9395 19.3961 18.7024 18.77 18.7024 18.6007C18.7023 18.4315 17.8729 18.4317 17.8729 18.4317ZM13.794 17.0269C13.794 17.0269 13.6077 16.6376 12.7276 16.5021C12.7616 16.7393 12.8968 16.6376 12.9984 16.7393C13.1 16.8408 13.4723 16.9931 13.4723 17.1284C13.4725 17.2638 13.794 17.3653 13.794 17.0269ZM17.1115 13.0326C17.0606 13.0495 17.4161 13.3541 17.4499 13.371C17.6531 13.4725 17.9743 13.5234 18.1608 13.3541C18.2454 13.4725 18.3808 13.5744 18.4656 13.6928C18.5841 13.879 18.6688 14.0988 18.7193 14.3191C18.8717 15.0299 19.4304 15.893 20.6152 15.893C20.9874 15.9608 21.1907 16.0282 21.3091 16.0792C21.2753 15.8592 21.0722 15.69 20.7337 15.6391C21.0722 15.5036 21.2076 15.419 21.563 15.4359C21.8909 15.4695 22.1936 15.627 22.4093 15.8761C22.4093 15.8761 22.8155 15.8761 21.9016 15.1145C21.326 14.9114 20.9368 14.8606 20.8521 14.7251C21.2414 14.6746 21.6305 14.5898 22.0369 14.9114C22.46 15.233 22.4093 15.3684 22.8155 15.3684C22.4937 14.9283 22.5615 14.9623 22.4262 14.6744C22.2909 14.4036 21.8506 14.3191 21.2076 14.4375C20.5814 14.5391 20.5983 14.4375 20.5983 14.4375L20.6661 14.6406C20.6661 14.6406 19.9551 14.7253 19.6845 13.9298C19.5153 13.7266 19.4812 13.659 19.4812 13.659C19.786 13.7944 19.9043 14.0314 19.9043 14.0483C19.972 14.1667 20.2598 14.2514 20.3782 14.2852C20.8013 14.4036 21.1907 14.1498 21.6136 14.1836C21.9354 14.2005 22.2062 14.3528 22.4937 14.4543C22.3414 14.0819 22.2062 13.9467 21.8844 13.8113C21.6474 13.8113 21.5627 13.8959 21.2414 13.9297C20.9196 13.9467 20.3272 13.9974 19.4303 13.0327C18.4485 12.457 17.1115 13.0326 17.1115 13.0326ZM4.4851 11.8817C4.4851 11.9663 4.38356 12.017 4.24822 12.017C4.12978 12.017 4.02824 11.9663 4.02824 11.8817C4.02824 11.8138 4.12978 11.7462 4.24822 11.7462C4.3837 11.7461 4.4851 11.8138 4.4851 11.8817ZM4.84056 11.7631C4.84056 11.8309 4.78972 11.8816 4.70508 11.8816C4.63734 11.8816 4.5696 11.8309 4.5696 11.7631C4.5696 11.7124 4.63748 11.6614 4.70508 11.6614C4.78986 11.6614 4.84056 11.7124 4.84056 11.7631ZM5.31446 11.7799C5.31446 11.8478 5.24672 11.9154 5.19602 11.9154C5.12828 11.9154 5.07758 11.8476 5.07758 11.7799C5.07758 11.7121 5.12828 11.6614 5.19602 11.6614C5.24686 11.6614 5.31446 11.7124 5.31446 11.7799ZM5.80526 11.7799C5.80526 11.8478 5.73738 11.9154 5.63598 11.9154C5.55134 11.9154 5.46699 11.8476 5.46699 11.7799C5.46699 11.7121 5.55163 11.6614 5.63598 11.6614C5.73781 11.6614 5.80526 11.7124 5.80526 11.7799ZM6.33001 11.8309C6.33001 11.8816 6.24522 11.9324 6.14368 11.9324C6.04214 11.9324 5.9406 11.8818 5.9406 11.8309C5.9406 11.7631 6.04214 11.7292 6.14368 11.7292C6.24522 11.7292 6.33001 11.7631 6.33001 11.8309ZM6.82095 11.8817C6.82095 11.9663 6.73617 12.017 6.65167 12.017C6.55013 12.017 6.48239 11.9663 6.48239 11.8817C6.48239 11.8138 6.55027 11.7462 6.65167 11.7462C6.73631 11.7461 6.82095 11.8138 6.82095 11.8817ZM7.29471 12.1524C7.29471 12.2372 7.22683 12.3048 7.14233 12.3048C7.05783 12.3048 6.97319 12.237 6.97319 12.1524C6.97319 12.0846 7.05797 12.0172 7.14233 12.0172C7.22711 12.017 7.29471 12.0846 7.29471 12.1524ZM7.71791 12.237C7.71791 12.3048 7.65017 12.3725 7.58257 12.3725C7.51498 12.3725 7.46413 12.3046 7.46413 12.237C7.46413 12.1691 7.51483 12.1186 7.58257 12.1186C7.65031 12.1186 7.71791 12.1693 7.71791 12.237ZM8.14097 12.4401C8.14097 12.4908 8.07309 12.5247 7.98859 12.5247C7.90409 12.5247 7.83635 12.4911 7.83635 12.4401C7.83635 12.4063 7.90424 12.3724 7.98859 12.3724C8.07295 12.3724 8.14097 12.4063 8.14097 12.4401ZM8.12407 12.5585C8.12407 12.6263 8.22561 12.6601 8.34405 12.6601C8.46249 12.6601 8.56404 12.6263 8.56404 12.5585C8.56404 12.5078 8.46249 12.457 8.34405 12.457C8.22561 12.457 8.12407 12.5077 8.12407 12.5585ZM8.93654 12.7618C8.93654 12.8125 8.8688 12.8634 8.8181 12.8634C8.75036 12.8634 8.69966 12.8127 8.69966 12.7618C8.69966 12.694 8.75036 12.6433 8.8181 12.6433C8.8688 12.6432 8.93654 12.694 8.93654 12.7618ZM10.5274 6.29628C10.5274 6.29628 9.24102 6.02546 7.97169 6.19474C7.76861 6.66864 7.59933 6.93932 7.53159 7.12564C7.93761 7.15958 8.17463 7.12564 8.17463 7.32872C8.17463 7.53194 7.56525 7.9719 7.32837 8.19189C7.29471 8.69973 7.59919 10.3075 7.73467 10.5617C8.2898 10.3093 9.6476 9.63844 10.5116 6.3555C10.5173 6.36501 10.5247 6.37552 10.5332 6.38631C10.5546 6.41287 10.585 6.44454 10.6194 6.47919C10.3818 7.2962 10.1032 8.15496 9.67885 8.90593C9.25295 9.65932 8.67963 10.3042 7.85268 10.6892L7.87683 10.7412C8.71627 10.3505 9.29754 9.69681 9.72884 8.93377C10.1587 8.17342 10.4395 7.30415 10.6791 6.47877L10.6836 6.46258L10.6717 6.45065C10.6388 6.41866 10.6074 6.38525 10.5775 6.35053C10.563 6.33249 10.5508 6.32681 10.5521 6.3244L10.5245 6.30593C10.5257 6.3028 10.5267 6.29957 10.5274 6.29628Z" fill="#000000" fill-rule="nonzero" filter="url(#Filter)" stroke="none"/>
</g>
</svg>
