<svg viewBox="0 0 8 8" xmlns="http://www.w3.org/2000/svg"><path d="M4 8c-1.563 0-2.427-.129-2.99-.447-.414-.234-.671-.587-.671-.92v-4.41c0-.494.362-1.06.942-1.474C1.763.407 2.627 0 4 0c2.39 0 3.661 1.292 3.661 2.224V6.63c0 .336-.257.689-.674.922C6.427 7.872 5.563 8 4 8" fill="#f5ebdc"/><path d="M6.794 7.204c-.545.308-1.48.396-2.774.396s-2.23-.088-2.775-.396C.917 7.02.752 6.77.752 6.588c0-.102.054-.16.176-.16H7.11c.122 0 .176.058.176.16 0 .18-.165.432-.493.616m.317-4.775H.928c-.122 0-.176-.063-.176-.176C.752 1.583 1.76.4 4.02.4c2.238 0 3.267 1.183 3.267 1.853 0 .113-.054.176-.176.176" fill="#ff8732"/><path d="M2.069 5.194a.106.106 0 0 1-.021-.057c0-.023.013-.04.038-.063.058-.054.203-.19.283-.314a.473.473 0 0 0 .086-.25c0-.183-.166-.326-.346-.326-.116 0-.225.065-.298.185-.099.159-.216.343-.292.417-.018.018-.029.023-.044.023-.025 0-.035-.017-.035-.044v-.21c0-.205-.122-.37-.342-.37-.222 0-.342.165-.342.37v1.29c0 .205.12.371.342.371.22 0 .342-.165.342-.37v-.298c0-.025.01-.044.035-.044.034 0 .042.034.05.05.05.115.19.36.32.505a.433.433 0 0 0 .312.157c.195 0 .359-.17.359-.352 0-.113-.048-.197-.14-.297a3.868 3.868 0 0 1-.307-.373m2.616-1.129c.329 0 .536-.21.536-.515 0-.195-.117-.329-.352-.329h-.067c-.124 0-.22.059-.22.19 0 .118.103.174.18.174.04 0 .065.013.065.042 0 .038-.044.063-.094.063-.158 0-.264-.11-.264-.318 0-.23.146-.314.26-.314.138 0 .161.071.258.071a.187.187 0 0 0 .186-.189.2.2 0 0 0-.08-.163.642.642 0 0 0-.396-.113c-.325 0-.642.214-.642.708 0 .473.317.693.63.693M.997 4.052h.296c.279 0 .449-.186.449-.418 0-.187-.111-.273-.137-.294-.01-.008-.02-.016-.02-.025 0-.01.006-.014.016-.027.04-.046.08-.12.08-.226 0-.251-.17-.386-.434-.386h-.25c-.165 0-.245.097-.245.227v.923c0 .13.08.226.245.226m.124-1.015c0-.027.017-.049.052-.049h.028c.09 0 .117.063.117.118 0 .05-.027.121-.117.121h-.028c-.035 0-.052-.02-.052-.048v-.142m0 .49c0-.027.017-.048.052-.048h.038c.1 0 .13.067.13.127 0 .055-.03.132-.13.132h-.038c-.035 0-.052-.02-.052-.048v-.163m5.353.536c.134 0 .207-.1.207-.226v-.222c0-.028.013-.04.034-.04.025 0 .033.015.037.04.02.106.07.25.126.324.072.095.139.124.206.124.109 0 .203-.086.203-.193a.268.268 0 0 0-.067-.172.82.82 0 0 1-.142-.221c-.007-.017-.003-.032.016-.047.065-.05.141-.16.141-.337 0-.266-.22-.416-.487-.416h-.237c-.165 0-.245.096-.245.226v.934c0 .125.073.226.208.226m.184-.99c0-.028.017-.049.053-.049h.029c.088 0 .115.063.115.117 0 .053-.027.122-.115.122h-.03c-.035 0-.052-.02-.052-.048v-.143M3.025 4.184c-.234 0-.362.176-.362.396v1.24c0 .22.128.396.362.396.235 0 .363-.176.363-.396V4.58c0-.22-.128-.396-.363-.396m3.73.807h-.103c-.185 0-.327.085-.327.274 0 .172.155.253.27.253.057 0 .097.017.097.061 0 .054-.067.09-.139.09-.237 0-.398-.161-.398-.46 0-.334.22-.455.39-.455.207 0 .24.105.386.105a.278.278 0 0 0 .28-.275.285.285 0 0 0-.119-.236c-.128-.095-.32-.164-.593-.164-.49 0-.965.308-.965 1.024 0 .685.476 1.006.946 1.006.492 0 .805-.304.805-.748 0-.28-.176-.475-.53-.475m-.793-.939c.117 0 .21-.069.21-.194 0-.124-.093-.193-.21-.193h-.189c-.036 0-.052-.021-.052-.048v-.04c0-.027.016-.048.052-.048h.145c.1 0 .18-.061.18-.168 0-.107-.08-.167-.18-.167h-.145c-.036 0-.052-.021-.052-.049v-.033c0-.027.016-.048.052-.048h.189c.117 0 .21-.07.21-.195 0-.124-.093-.193-.21-.193h-.397c-.165 0-.245.096-.245.226v.924c0 .13.08.226.245.226h.397m-3.604.01c.34 0 .52-.202.52-.458v-.706c0-.125-.073-.226-.207-.226s-.208.1-.208.226v.683c0 .05-.029.109-.105.109-.075 0-.1-.059-.1-.109v-.683c0-.125-.076-.226-.21-.226s-.208.1-.208.226v.706c0 .256.179.459.518.459m1.473 0c.109 0 .203-.086.203-.193a.268.268 0 0 0-.067-.172c-.06-.08-.115-.148-.142-.222-.007-.016-.002-.031.017-.046.065-.05.14-.16.14-.337 0-.266-.22-.417-.487-.417h-.237c-.165 0-.245.097-.245.227v.934c0 .125.073.226.208.226.134 0 .207-.1.207-.226v-.222c0-.027.013-.04.034-.04.025 0 .033.015.037.04.02.107.07.251.126.324.072.095.139.124.206.124m-.344-.8h-.03c-.035 0-.052-.021-.052-.048v-.143c0-.027.017-.048.052-.048h.03c.088 0 .115.063.115.117 0 .053-.027.122-.115.122m1.55.921c-.216 0-.334.162-.334.365V5c0 .038-.012.055-.035.055-.017 0-.03-.01-.044-.04l-.292-.566c-.111-.215-.226-.266-.359-.266-.22 0-.341.166-.341.373v1.295c0 .203.117.364.333.364.216 0 .333-.161.333-.364v-.453c0-.037.013-.054.036-.054.017 0 .03.01.044.04l.292.565c.11.216.23.266.358.266.22 0 .342-.166.342-.373V4.55c0-.203-.117-.365-.333-.365" fill="#d62300"/></svg>