<svg viewBox="0 0 24 24" xmlns="http://www.w3.org/2000/svg"><path d="M21.2492 22.6808C19.4316 23.7067 16.3133 24 11.9999 24C7.68656 24 4.56816 23.7067 2.75082 22.6808C1.65958 22.0664 1.10758 21.2288 1.10758 20.6282C1.10758 20.2864 1.28949 20.0906 1.69451 20.0906L22.3049 20.0906C22.7102 20.0906 22.8921 20.2863 22.8921 20.6282C22.8924 21.2288 22.3401 22.0663 21.2494 22.6808L21.2492 22.6808M22.305 6.76427L1.69456 6.76427C1.28922 6.76427 1.10762 6.55493 1.10762 6.17813C1.10762 3.944 4.47029 0 11.9999 0C19.4599 0 22.8924 3.944 22.8924 6.17813C22.8924 6.55493 22.7106 6.76427 22.305 6.76427L22.305 6.76427" fill="#ff8732"/><path d="M5.49776 15.9792C5.43482 15.8816 5.42816 15.8187 5.42816 15.7909C5.42816 15.7141 5.47002 15.6584 5.55376 15.5816C5.74953 15.3997 6.2322 14.9461 6.49776 14.5344C6.70042 14.2203 6.78416 13.9341 6.78416 13.697C6.78416 13.0896 6.23216 12.6146 5.63051 12.6146C5.24598 12.6146 4.88251 12.8312 4.63798 13.229C4.3094 13.7594 3.91771 14.3738 3.66629 14.6184C3.60331 14.6813 3.56842 14.6952 3.51962 14.6952C3.43558 14.6952 3.40069 14.6392 3.40069 14.5486L3.40069 13.8507C3.40069 13.1666 2.99536 12.6149 2.26118 12.6149C1.52011 12.6149 1.1214 13.1664 1.1214 13.8507L1.1214 18.1509C1.1214 18.8349 1.5198 19.3869 2.26118 19.3869C2.99536 19.3869 3.40069 18.8355 3.40069 18.1509L3.40069 17.16C3.40069 17.076 3.43558 17.0133 3.51962 17.0133C3.63162 17.0133 3.65958 17.1252 3.68762 17.1809C3.84838 17.5649 4.31638 18.3814 4.75024 18.8633C5.0438 19.1844 5.40731 19.387 5.79189 19.387C6.44202 19.387 6.98762 18.8214 6.98762 18.214C6.98762 17.8371 6.82656 17.5579 6.51909 17.223C6.1274 16.7963 5.66576 16.2377 5.49776 15.9795L5.49776 15.9792M14.2164 12.2165C15.314 12.2165 16.0062 11.5184 16.0062 10.4992C16.0062 9.85013 15.6142 9.4032 14.8316 9.4032L14.6081 9.4032C14.1953 9.4032 13.8737 9.59893 13.8737 10.0387C13.8737 10.4296 14.2164 10.6181 14.475 10.6181C14.6078 10.6181 14.6921 10.66 14.6921 10.7579C14.6921 10.8832 14.5454 10.9672 14.3774 10.9672C13.8529 10.9672 13.4964 10.597 13.4964 9.90587C13.4964 9.13813 13.986 8.8592 14.3634 8.8592C14.8247 8.8592 14.9017 9.09653 15.2234 9.09653C15.594 9.09653 15.8458 8.78933 15.8458 8.46827C15.8458 8.23093 15.7407 8.0496 15.5799 7.92373C15.2863 7.7072 14.874 7.54693 14.2588 7.54693C13.1748 7.54693 12.1194 8.25893 12.1194 9.9064C12.1188 11.4835 13.1746 12.2165 14.2164 12.2165L14.2164 12.2165M1.92522 12.1747L2.91136 12.1747C3.84122 12.1747 4.40736 11.5534 4.40736 10.7784C4.40736 10.1571 4.03669 9.87093 3.95296 9.80107C3.91829 9.77307 3.88336 9.74533 3.88336 9.71733C3.88336 9.68267 3.90416 9.66853 3.93936 9.62667C4.07189 9.47307 4.20473 9.2288 4.20473 8.87253C4.20473 8.0352 3.63833 7.588 2.75749 7.588L1.92549 7.588C1.37322 7.588 1.10762 7.9096 1.10762 8.34213L1.10762 11.4205C1.10762 11.8536 1.37322 12.1747 1.92522 12.1747L1.92522 12.1747M2.33802 8.78907C2.33802 8.6984 2.39407 8.62827 2.51269 8.62827L2.60362 8.62827C2.90416 8.62827 2.99536 8.8376 2.99536 9.01947C2.99536 9.18693 2.90464 9.42427 2.60362 9.42427L2.51296 9.42427C2.39402 9.42427 2.33798 9.35467 2.33798 9.26373L2.33802 8.78907L2.33802 8.78907M2.33802 10.4227C2.33802 10.332 2.39407 10.2619 2.51269 10.2619L2.6386 10.2619C2.97433 10.2619 3.07193 10.4851 3.07193 10.6877C3.07193 10.8696 2.97407 11.1277 2.6386 11.1277L2.513 11.1277C2.39407 11.1277 2.33802 11.0579 2.33802 10.9669L2.33802 10.4227M20.1799 12.2093C20.6273 12.2093 20.8719 11.8741 20.8719 11.4555L20.8719 10.7155C20.8719 10.6248 20.914 10.5829 20.9839 10.5829C21.0677 10.5829 21.0954 10.6317 21.1092 10.7155C21.1724 11.0715 21.3401 11.5531 21.5287 11.7976C21.7666 12.112 21.99 12.2099 22.214 12.2099C22.5772 12.2099 22.8922 11.9235 22.8922 11.5672C22.8922 11.3299 22.7943 11.1552 22.6684 10.9949C22.4306 10.6949 22.284 10.4996 22.1933 10.2552C22.1722 10.1992 22.1861 10.1501 22.2493 10.1016C22.4661 9.93409 22.7178 9.56396 22.7178 8.97782C22.7178 8.09116 21.9835 7.58849 21.0954 7.58849L20.3058 7.58849C19.7534 7.58849 19.4879 7.90929 19.4879 8.34236L19.4879 11.456C19.4879 11.8746 19.7325 12.2093 20.1802 12.2093L20.1799 12.2093M20.7951 8.908C20.7951 8.81733 20.8511 8.74693 20.9698 8.74693L21.0676 8.74693C21.3615 8.74693 21.4522 8.95653 21.4522 9.13813C21.4522 9.3128 21.3615 9.54293 21.0676 9.54293L20.9698 9.54293C20.8508 9.54293 20.7951 9.4736 20.7951 9.3824L20.7951 8.90773L20.7951 8.908M8.68602 12.6144C7.90309 12.6144 7.47638 13.2005 7.47638 13.9336L7.47638 18.0667C7.47638 18.8 7.90309 19.3861 8.68602 19.3861C9.46891 19.3861 9.89536 18.7998 9.89536 18.0667L9.89536 13.9336C9.89536 13.201 9.46922 12.6144 8.68602 12.6144M21.1164 15.3021L20.774 15.3021C20.1588 15.3021 19.6834 15.5883 19.6834 16.2163C19.6834 16.7888 20.2007 17.0611 20.5852 17.0611C20.774 17.0611 20.9068 17.1171 20.9068 17.2635C20.9068 17.4448 20.683 17.5635 20.4454 17.5635C19.6553 17.5635 19.1169 17.0259 19.1169 16.0275C19.1169 14.9176 19.8511 14.5128 20.4172 14.5128C21.1094 14.5128 21.2212 14.8621 21.7035 14.8621C22.2627 14.8621 22.6403 14.4082 22.6403 13.9475C22.6403 13.6056 22.4865 13.3402 22.2419 13.1587C21.8152 12.8443 21.1724 12.6138 20.2632 12.6138C18.6344 12.6138 17.0472 13.6399 17.0472 16.0275C17.0472 18.3101 18.6339 19.3784 20.2003 19.3784C21.843 19.3784 22.8847 18.3662 22.8847 16.8861C22.8852 15.9512 22.2983 15.3021 21.1164 15.3021M18.4738 12.1747C18.8658 12.1747 19.1732 11.9443 19.1732 11.5254C19.1732 11.1133 18.8655 10.883 18.474 10.883L17.8447 10.883C17.7261 10.883 17.67 10.8134 17.67 10.7224L17.67 10.5896C17.67 10.499 17.7261 10.4291 17.845 10.4291L18.3274 10.4291C18.6632 10.4291 18.9288 10.2267 18.9288 9.87044C18.9288 9.51471 18.6631 9.31204 18.3274 9.31204L17.8448 9.31204C17.7261 9.31204 17.6701 9.24218 17.6701 9.15124L17.6701 9.03951C17.6701 8.94884 17.7261 8.87898 17.8451 8.87898L18.4741 8.87898C18.8656 8.87898 19.1733 8.64858 19.1733 8.22991C19.1733 7.81764 18.8656 7.58724 18.4741 7.58724L17.1528 7.58724C16.6009 7.58724 16.335 7.90831 16.335 8.34138L16.335 11.4198C16.335 11.8526 16.6006 12.1739 17.1528 12.1739L18.4741 12.1739L18.4741 12.1748L18.4738 12.1748M6.46282 12.2093C7.59536 12.2093 8.19669 11.532 8.19669 10.6808L8.19669 8.328C8.19669 7.90933 7.95216 7.57387 7.50447 7.57387C7.057 7.57387 6.81247 7.90933 6.81247 8.328L6.81247 10.6037C6.81247 10.7709 6.7146 10.9664 6.46287 10.9664C6.21113 10.9664 6.12687 10.7709 6.12687 10.6037L6.12687 8.328C6.12687 7.90933 5.8754 7.57387 5.42771 7.57387C4.98029 7.57387 4.73571 7.90933 4.73571 8.328L4.73571 10.6805C4.73602 11.5323 5.33042 12.2091 6.46291 12.2091L6.46282 12.2093M11.3708 12.2093C11.7344 12.2093 12.0493 11.9232 12.0493 11.5669C12.0493 11.3296 11.9514 11.1549 11.8255 10.9947C11.6229 10.7293 11.441 10.4989 11.3503 10.2549C11.3293 10.1989 11.3432 10.1499 11.4064 10.1011C11.6232 9.93387 11.8749 9.56373 11.8749 8.97733C11.8749 8.09067 11.1405 7.588 10.2525 7.588L9.46211 7.588C8.91011 7.588 8.64424 7.90907 8.64424 8.34213L8.64424 11.4557C8.64424 11.8744 8.88909 12.2099 9.33651 12.2099C9.78398 12.2099 10.0288 11.8744 10.0288 11.4557L10.0288 10.716C10.0288 10.6253 10.0706 10.5832 10.1405 10.5832C10.2245 10.5832 10.2522 10.632 10.2661 10.716C10.3291 11.0717 10.4967 11.5533 10.6856 11.7981C10.9234 12.1117 11.1468 12.2093 11.3708 12.2093L11.3708 12.2093M10.2242 9.54267L10.126 9.54267C10.0071 9.54267 9.95136 9.47307 9.95136 9.38213L9.95136 8.90773C9.95136 8.81707 10.0074 8.74693 10.126 8.74693L10.2239 8.74693C10.5178 8.74693 10.6084 8.95653 10.6084 9.13813C10.6084 9.31227 10.5178 9.54267 10.2239 9.54267L10.2242 9.54267M15.3906 12.6144C14.6706 12.6144 14.2791 13.1517 14.2791 13.8291L14.2791 15.3368C14.2791 15.4621 14.237 15.5184 14.1602 15.5184C14.1042 15.5184 14.0623 15.4837 14.0135 15.3859L13.0418 13.5013C12.6711 12.7821 12.2866 12.6147 11.8463 12.6147C11.1122 12.6147 10.7066 13.1659 10.7066 13.8574L10.7066 18.1718C10.7066 18.8491 11.098 19.3865 11.818 19.3865C12.5383 19.3865 12.9295 18.8488 12.9295 18.1718L12.9295 16.664C12.9295 16.5387 12.9716 16.4821 13.0485 16.4821C13.1045 16.4821 13.1466 16.5171 13.1951 16.6149L14.1668 18.4997C14.5375 19.2189 14.9359 19.3864 15.3626 19.3864C16.0967 19.3864 16.5023 18.8349 16.5023 18.1437L16.5023 13.8293C16.5023 13.152 16.1108 12.6147 15.3906 12.6147L15.3906 12.6144" fill="#d62300"/></svg>
