<?xml version="1.0" encoding="utf-8"?>
<!-- Generator: Adobe Illustrator 16.0.3, SVG Export Plug-In . SVG Version: 6.00 Build 0)  -->
<svg version="1.1" id="Burger_King_Logo_2020" xmlns="http://www.w3.org/2000/svg" xmlns:xlink="http://www.w3.org/1999/xlink"
	 x="0px" y="0px" width="569.221px" height="620px" viewBox="0 0 569.221 620" enable-background="new 0 0 569.221 620"
	 xml:space="preserve">
<path fill="#F5EBDC" d="M284.608,610c-117.216,0-182.052-9.66-224.262-33.558C29.321,558.898,10,532.462,10,507.544V176.782
	c0-37.122,27.204-79.578,70.687-110.598C116.8,40.504,181.63,10,284.608,10c179.261,0,274.614,96.864,274.614,166.782V507.28
	c0,25.171-19.326,51.612-50.604,69.155C466.667,600.34,401.83,610,284.608,610"/>
<path fill="#FF8732" d="M494.188,550.318C453.292,573.4,383.129,580,286.078,580c-97.05,0-167.214-6.6-208.104-29.682
	c-24.553-13.824-36.973-32.67-36.973-46.184c0-7.69,4.093-12.096,13.206-12.096h463.733c9.12,0,13.213,4.404,13.213,12.096
	c0.006,13.514-12.421,32.358-36.961,46.184H494.188 M517.942,192.196H54.208c-9.12,0-13.206-4.71-13.206-13.188
	C41.002,128.74,116.662,40,286.078,40c167.851,0,245.082,88.74,245.082,139.008C531.16,187.486,527.068,192.196,517.942,192.196
	L517.942,192.196"/>
<path fill="#D62300" d="M139.78,399.532c-1.416-2.196-1.566-3.612-1.566-4.236c0-1.728,0.942-2.981,2.826-4.71
	c4.405-4.092,15.265-14.298,21.24-23.563c4.56-7.067,6.444-13.506,6.444-18.84c0-13.666-12.42-24.354-25.957-24.354
	c-8.652,0-16.83,4.872-22.332,13.824c-7.393,11.934-16.206,25.758-21.863,31.26c-1.417,1.417-2.202,1.729-3.3,1.729
	c-1.891,0-2.676-1.26-2.676-3.299v-15.703c0-15.391-9.12-27.805-25.639-27.805c-16.674,0-25.645,12.408-25.645,27.805v96.756
	c0,15.39,8.964,27.81,25.645,27.81c16.519,0,25.639-12.408,25.639-27.81V426.1c0-1.89,0.785-3.3,2.676-3.3
	c2.52,0,3.149,2.516,3.78,3.77c3.617,8.64,14.147,27.012,23.909,37.854c6.605,7.225,14.784,11.784,23.437,11.784
	c14.628,0,26.904-12.726,26.904-26.394c0-8.479-3.624-14.762-10.542-22.297c-8.813-9.6-19.2-22.169-22.98-27.978V399.532
	 M335.95,314.872c24.695,0,40.271-15.708,40.271-38.64c0-14.604-8.82-24.66-26.43-24.66h-5.028c-9.288,0-16.524,4.404-16.524,14.298
	c0,8.796,7.71,13.038,13.53,13.038c2.988,0,4.884,0.942,4.884,3.144c0,2.82-3.3,4.71-7.081,4.71
	c-11.802,0-19.823-8.329-19.823-23.88c0-17.274,11.017-23.55,19.507-23.55c10.38,0,12.113,5.34,19.35,5.34
	c8.339,0,14.004-6.912,14.004-14.136c0-5.34-2.364-9.42-5.981-12.252c-6.606-4.872-15.883-8.478-29.725-8.478
	c-24.39,0-48.138,16.02-48.138,53.088C288.754,298.378,312.509,314.872,335.95,314.872L335.95,314.872 M59.398,313.93h22.188
	c20.922,0,33.66-13.979,33.66-31.416c0-13.98-8.34-20.418-10.224-21.99c-0.78-0.63-1.566-1.254-1.566-1.884
	c0-0.78,0.468-1.098,1.26-2.04c2.982-3.456,5.971-8.952,5.971-16.968c0-18.84-12.744-28.902-32.563-28.902h-18.72
	c-12.426,0-18.402,7.236-18.402,16.968v69.264C41.002,306.706,46.978,313.93,59.398,313.93L59.398,313.93 M68.686,237.754
	c0-2.04,1.261-3.618,3.93-3.618h2.046c6.762,0,8.814,4.71,8.814,8.802c0,3.768-2.041,9.108-8.814,9.108h-2.04
	c-2.676,0-3.937-1.566-3.937-3.612L68.686,237.754L68.686,237.754 M68.686,274.51c0-2.04,1.261-3.618,3.93-3.618h2.833
	c7.554,0,9.75,5.022,9.75,9.582c0,4.092-2.202,9.9-9.75,9.9h-2.826c-2.676,0-3.937-1.572-3.937-3.618V274.51 M470.129,314.71
	c10.066,0,15.569-7.542,15.569-16.962v-16.65c0-2.041,0.947-2.982,2.521-2.982c1.884,0,2.508,1.098,2.819,2.982
	c1.422,8.01,5.195,18.846,9.438,24.348c5.353,7.074,10.38,9.277,15.42,9.277c8.172,0,15.259-6.445,15.259-14.461
	c0-5.34-2.202-9.27-5.035-12.876c-5.352-6.75-8.65-11.146-10.69-16.644c-0.475-1.26-0.162-2.364,1.26-3.457
	c4.878-3.768,10.542-12.096,10.542-25.284c0-19.95-16.523-31.26-36.504-31.26H472.96c-12.427,0-18.401,7.218-18.401,16.962v70.056
	c0,9.42,5.502,16.95,15.576,16.95L470.129,314.71 M483.97,240.43c0-2.04,1.26-3.624,3.931-3.624h2.201
	c6.612,0,8.652,4.716,8.652,8.802c0,3.93-2.04,9.108-8.652,9.108h-2.201c-2.677,0-3.931-1.56-3.931-3.612v-10.68V240.43
	 M211.516,323.824c-17.616,0-27.217,13.188-27.217,29.682V446.5c0,16.5,9.601,29.688,27.217,29.688
	c17.615,0,27.21-13.193,27.21-29.688v-92.994C238.726,337.023,229.138,323.824,211.516,323.824 M491.2,384.298h-7.705
	c-13.841,0-24.539,6.438-24.539,20.568c0,12.882,11.641,19.008,20.291,19.008c4.248,0,7.236,1.26,7.236,4.554
	c0,4.08-5.034,6.75-10.38,6.75c-17.778,0-29.892-12.096-29.892-34.56c0-24.972,16.519-34.08,29.256-34.08
	c15.576,0,18.09,7.86,28.943,7.86c12.581,0,21.077-10.213,21.077-20.58c0-7.692-3.461-13.664-8.964-17.748
	c-9.6-7.074-24.064-12.26-44.52-12.26c-36.648,0-72.36,23.088-72.36,76.808c0,51.359,35.7,75.396,70.944,75.396
	c36.96,0,60.4-22.775,60.4-56.076C530.997,398.902,517.792,384.298,491.2,384.298 M431.74,313.93c8.82,0,15.738-5.184,15.738-14.609
	c0-9.271-6.924-14.454-15.732-14.454h-14.159c-2.67,0-3.931-1.566-3.931-3.612v-2.988c0-2.04,1.261-3.612,3.937-3.612h10.854
	c7.555,0,13.531-4.554,13.531-12.57c0-8.004-5.977-12.564-13.531-12.564h-10.858c-2.671,0-3.931-1.572-3.931-3.618v-2.514
	c0-2.04,1.26-3.612,3.937-3.612h14.153c8.809,0,15.732-5.184,15.732-14.604c0-9.276-6.924-14.46-15.732-14.46h-29.729
	c-12.419,0-18.402,7.224-18.402,16.968v69.265c0,9.737,5.977,16.967,18.402,16.967h29.729v0.019h-0.007 M161.494,314.71
	c25.482,0,39.012-15.24,39.012-34.392V227.38c0-9.42-5.502-16.968-15.575-16.968c-10.068,0-15.57,7.548-15.57,16.968v51.204
	c0,3.762-2.202,8.16-7.866,8.16s-7.56-4.398-7.56-8.16V227.38c0-9.42-5.658-16.968-15.731-16.968
	c-10.067,0-15.57,7.548-15.57,16.968v52.932c0.007,19.165,13.381,34.393,38.862,34.393L161.494,314.71 M271.924,314.71
	c8.18,0,15.265-6.438,15.265-14.454c0-5.34-2.202-9.27-5.034-12.876c-4.56-5.97-8.652-11.154-10.692-16.644
	c-0.474-1.26-0.161-2.364,1.261-3.462c4.878-3.762,10.542-12.09,10.542-25.284c0-19.95-16.524-31.26-36.504-31.26h-17.784
	c-12.42,0-18.402,7.224-18.402,16.968v70.056c0,9.42,5.509,16.969,15.576,16.969c10.068,0,15.576-7.549,15.576-16.969V281.11
	c0-2.04,0.941-2.988,2.514-2.988c1.89,0,2.514,1.098,2.826,2.988c1.417,8.004,5.189,18.84,9.438,24.348
	C261.856,312.514,266.884,314.71,271.924,314.71L271.924,314.71 M246.124,254.71h-2.208c-2.676,0-3.93-1.566-3.93-3.612v-10.674
	c0-2.04,1.26-3.618,3.93-3.618h2.202c6.612,0,8.652,4.716,8.652,8.802c0,3.918-2.04,9.102-8.652,9.102H246.124 M362.368,323.824
	c-16.199,0-25.008,12.09-25.008,27.33v33.924c0,2.82-0.948,4.086-2.676,4.086c-1.26,0-2.202-0.78-3.3-2.982l-21.864-42.402
	c-8.34-16.182-16.992-19.949-26.898-19.949c-16.518,0-25.644,12.402-25.644,27.96v97.074c0,15.239,8.808,27.331,25.008,27.331
	c16.206,0,25.008-12.097,25.008-27.331v-33.925c0-2.819,0.948-4.092,2.677-4.092c1.26,0,2.208,0.786,3.3,2.988l21.863,42.408
	c8.34,16.182,17.305,19.95,26.904,19.95c16.519,0,25.645-12.409,25.645-27.96V351.16c0-15.24-8.81-27.33-25.015-27.33V323.824"/>
</svg>
