<svg viewBox="0 0 8 8" xmlns="http://www.w3.org/2000/svg"><path d="M3.99996 8C2.43708 8 1.5726 7.8712 1.0098 7.55256C0.596133 7.31864 0.33852 6.96616 0.33852 6.63392L0.33852 2.22376C0.33852 1.7288 0.70124 1.16272 1.28101 0.74912C1.76252 0.40672 2.62692 0 3.99996 0C6.39011 0 7.66148 1.29152 7.66148 2.22376L7.66148 6.6304C7.66148 6.96601 7.4038 7.31856 6.98676 7.55247C6.42741 7.8712 5.56292 8 3.99996 8" fill="#f5ebdc"/><path d="M6.79436 7.20424C6.24908 7.512 5.31357 7.6 4.01956 7.6C2.72556 7.6 1.79004 7.512 1.24484 7.20424C0.917467 7.01992 0.751867 6.76864 0.751867 6.58845C0.751867 6.48592 0.80644 6.42717 0.927947 6.42717L7.11105 6.42717C7.23265 6.42717 7.28723 6.48589 7.28723 6.58845C7.28731 6.76864 7.12161 7.01989 6.79441 7.20424L6.79436 7.20424M7.11108 2.42928L0.92796 2.42928C0.80636 2.42928 0.75188 2.36648 0.75188 2.25344C0.75188 1.5832 1.76068 0.4 4.01956 0.4C6.25757 0.4 7.28732 1.5832 7.28732 2.25344C7.28732 2.36648 7.23276 2.42928 7.11108 2.42928L7.11108 2.42928" fill="#ff8732"/><path d="M2.06892 5.19376C2.05004 5.16448 2.04804 5.1456 2.04804 5.13728C2.04804 5.11424 2.0606 5.09753 2.08572 5.07448C2.14445 5.01992 2.28925 4.88384 2.36892 4.76031C2.42972 4.66608 2.45484 4.58023 2.45484 4.50911C2.45484 4.32689 2.28924 4.18439 2.10875 4.18439C1.99339 4.18439 1.88435 4.24935 1.81099 4.36871C1.71241 4.52783 1.59491 4.71215 1.51948 4.78551C1.50059 4.8044 1.49012 4.80856 1.47548 4.80856C1.45027 4.80856 1.4398 4.79176 1.4398 4.76457L1.4398 4.5552C1.4398 4.34999 1.3182 4.18447 1.09795 4.18447C0.875627 4.18447 0.756013 4.34991 0.756013 4.5552L0.756013 5.84528C0.756013 6.05048 0.875533 6.21608 1.09795 6.21608C1.3182 6.21608 1.4398 6.05064 1.4398 5.84528L1.4398 5.548C1.4398 5.5228 1.45027 5.504 1.47548 5.504C1.50908 5.504 1.51747 5.53755 1.52588 5.55427C1.57411 5.66947 1.71451 5.91443 1.84467 6.05899C1.93273 6.15532 2.04179 6.21611 2.15716 6.21611C2.3522 6.21611 2.51588 6.04643 2.51588 5.86419C2.51588 5.75113 2.46756 5.66736 2.37532 5.56689C2.25781 5.43889 2.11932 5.27131 2.06892 5.19385L2.06892 5.19376M4.68452 4.06496C5.01379 4.06496 5.22147 3.85552 5.22147 3.54976C5.22147 3.35504 5.10387 3.22096 4.86907 3.22096L4.80203 3.22096C4.67819 3.22096 4.58171 3.27968 4.58171 3.4116C4.58171 3.52888 4.68451 3.58544 4.76211 3.58544C4.80195 3.58544 4.82723 3.598 4.82723 3.62736C4.82723 3.66496 4.78323 3.69016 4.73281 3.69016C4.57545 3.69016 4.46851 3.57911 4.46851 3.37176C4.46851 3.14144 4.6154 3.05776 4.7286 3.05776C4.867 3.05776 4.89011 3.12896 4.9866 3.12896C5.09779 3.12896 5.17332 3.0368 5.17332 2.94048C5.17332 2.86928 5.1418 2.81488 5.09357 2.77712C5.00549 2.71216 4.8818 2.66408 4.69724 2.66408C4.37204 2.66408 4.0554 2.87768 4.0554 3.37192C4.05524 3.84504 4.37197 4.06496 4.68452 4.06496L4.68452 4.06496M0.99716 4.0524L1.293 4.0524C1.57196 4.0524 1.7418 3.86601 1.7418 3.63352C1.7418 3.44712 1.6306 3.36128 1.60548 3.34032C1.59508 3.33192 1.5846 3.3236 1.5846 3.3152C1.5846 3.3048 1.59084 3.30056 1.6014 3.288C1.64116 3.24192 1.68101 3.16864 1.68101 3.06176C1.68101 2.81056 1.51109 2.6764 1.24684 2.6764L0.99724 2.6764C0.83156 2.6764 0.75188 2.77288 0.75188 2.90264L0.75188 3.82616C0.75188 3.95608 0.83156 4.0524 0.99716 4.0524L0.99716 4.0524M1.121 3.03672C1.121 3.00952 1.13781 2.98848 1.1734 2.98848L1.20068 2.98848C1.29084 2.98848 1.3182 3.05128 1.3182 3.10584C1.3182 3.15608 1.29099 3.22728 1.20068 3.22728L1.17348 3.22728C1.1378 3.22728 1.12099 3.2064 1.12099 3.17912L1.121 3.03672L1.121 3.03672M1.121 3.5268C1.121 3.4996 1.13781 3.47856 1.1734 3.47856L1.21117 3.47856C1.31189 3.47856 1.34117 3.54552 1.34117 3.60632C1.34117 3.66088 1.31181 3.73832 1.21117 3.73832L1.17349 3.73832C1.13781 3.73832 1.121 3.71736 1.121 3.69008L1.121 3.5268M6.47357 4.0628C6.60779 4.0628 6.68116 3.96224 6.68116 3.83664L6.68116 3.61464C6.68116 3.58743 6.69379 3.57488 6.71477 3.57488C6.73989 3.57488 6.74821 3.58952 6.75236 3.61464C6.77132 3.72144 6.82163 3.86592 6.8782 3.93928C6.94957 4.0336 7.0166 4.06297 7.0838 4.06297C7.19276 4.06297 7.28725 3.97704 7.28725 3.87016C7.28725 3.79896 7.25789 3.74656 7.22012 3.69848C7.14876 3.60848 7.10479 3.54987 7.07759 3.47656C7.07125 3.45976 7.07543 3.44504 7.09439 3.43047C7.15943 3.38023 7.23495 3.26919 7.23495 3.09335C7.23495 2.82735 7.01464 2.67655 6.74823 2.67655L6.51132 2.67655C6.34563 2.67655 6.26597 2.77279 6.26597 2.90271L6.26597 3.83679C6.26597 3.96239 6.33933 4.06279 6.47365 4.06279L6.47357 4.0628M6.65812 3.0724C6.65812 3.0452 6.67492 3.02408 6.71053 3.02408L6.73988 3.02408C6.82804 3.02408 6.85524 3.08696 6.85524 3.14144C6.85524 3.19384 6.82804 3.26288 6.73988 3.26288L6.71053 3.26288C6.67484 3.26288 6.65812 3.24208 6.65812 3.21472L6.65812 3.07232L6.65812 3.0724M3.0254 4.18432C2.79052 4.18432 2.66251 4.36016 2.66251 4.58008L2.66251 5.82C2.66251 6.04 2.79052 6.21584 3.0254 6.21584C3.26027 6.21584 3.3882 6.03993 3.3882 5.82L3.3882 4.58008C3.3882 4.36031 3.26036 4.18432 3.0254 4.18432M6.75452 4.99064L6.65179 4.99064C6.46724 4.99064 6.3246 5.07648 6.3246 5.26488C6.3246 5.43664 6.47981 5.51832 6.59515 5.51832C6.65179 5.51832 6.69163 5.53512 6.69163 5.57904C6.69163 5.63344 6.62451 5.66904 6.55323 5.66904C6.31619 5.66904 6.15467 5.50776 6.15467 5.20824C6.15467 4.87528 6.37492 4.75384 6.54475 4.75384C6.75243 4.75384 6.78595 4.85864 6.93065 4.85864C7.0984 4.85864 7.21168 4.72247 7.21168 4.58424C7.21168 4.48168 7.16553 4.40205 7.09216 4.3476C6.96416 4.25328 6.77131 4.18413 6.49856 4.18413C6.00992 4.18413 5.53376 4.49197 5.53376 5.20824C5.53376 5.89303 6.00976 6.21352 6.47968 6.21352C6.97248 6.21352 7.28501 5.90985 7.28501 5.46584C7.28515 5.18536 7.10908 4.99064 6.75452 4.99064M5.96172 4.0524C6.07932 4.0524 6.17156 3.98328 6.17156 3.85761C6.17156 3.734 6.07924 3.66489 5.9618 3.66489L5.77301 3.66489C5.73741 3.66489 5.7206 3.64401 5.7206 3.61673L5.7206 3.57689C5.7206 3.54969 5.73741 3.52873 5.77309 3.52873L5.91781 3.52873C6.01855 3.52873 6.09823 3.46801 6.09823 3.36113C6.09823 3.25441 6.01853 3.19361 5.91781 3.19361L5.77304 3.19361C5.73743 3.19361 5.72063 3.17265 5.72063 3.14537L5.72063 3.11185C5.72063 3.08465 5.73743 3.06369 5.77312 3.06369L5.96183 3.06369C6.07928 3.06369 6.17159 2.99457 6.17159 2.86897C6.17159 2.74529 6.07927 2.67617 5.96183 2.67617L5.56544 2.67617C5.39985 2.67617 5.32008 2.77249 5.32008 2.90241L5.32008 3.82595C5.32008 3.95577 5.39977 4.05217 5.56544 4.05217L5.96183 4.05217L5.96183 4.05243L5.96173 4.05243M2.35844 4.0628C2.6982 4.0628 2.8786 3.8596 2.8786 3.60424L2.8786 2.8984C2.8786 2.7728 2.80524 2.67216 2.67093 2.67216C2.53669 2.67216 2.46333 2.7728 2.46333 2.8984L2.46333 3.58112C2.46333 3.63128 2.43397 3.68992 2.35845 3.68992C2.28293 3.68992 2.25765 3.63128 2.25765 3.58112L2.25765 2.8984C2.25765 2.7728 2.18221 2.67216 2.04791 2.67216C1.91368 2.67216 1.84031 2.7728 1.84031 2.8984L1.84031 3.60416C1.8404 3.85969 2.01872 4.06273 2.35847 4.06273L2.35844 4.0628M3.83084 4.0628C3.93991 4.0628 4.03437 3.97696 4.03437 3.87008C4.03437 3.79888 4.00501 3.74648 3.96725 3.6984C3.90645 3.6188 3.85189 3.54968 3.82469 3.47648C3.81837 3.45968 3.82255 3.44496 3.84151 3.43032C3.90655 3.38016 3.98207 3.26912 3.98207 3.0932C3.98207 2.8272 3.76175 2.6764 3.49535 2.6764L3.25823 2.6764C3.09263 2.6764 3.01287 2.77272 3.01287 2.90264L3.01287 3.83672C3.01287 3.96232 3.08632 4.06297 3.22055 4.06297C3.35479 4.06297 3.42823 3.96232 3.42823 3.83672L3.42823 3.6148C3.42823 3.5876 3.44077 3.57496 3.46175 3.57496C3.48695 3.57496 3.49527 3.5896 3.49943 3.6148C3.51832 3.72152 3.56861 3.866 3.62527 3.93944C3.6966 4.03352 3.76364 4.0628 3.83084 4.0628L3.83084 4.0628M3.48684 3.2628L3.4574 3.2628C3.42172 3.2628 3.405 3.24192 3.405 3.21464L3.405 3.07232C3.405 3.04512 3.4218 3.02408 3.4574 3.02408L3.48676 3.02408C3.57492 3.02408 3.60212 3.08696 3.60212 3.14144C3.60212 3.19368 3.57492 3.2628 3.48676 3.2628L3.48684 3.2628M5.03676 4.18432C4.82077 4.18432 4.70332 4.34552 4.70332 4.54872L4.70332 5.00104C4.70332 5.03864 4.69068 5.05552 4.66764 5.05552C4.65084 5.05552 4.63828 5.04512 4.62364 5.01576L4.33212 4.4504C4.22092 4.23464 4.10556 4.18441 3.97348 4.18441C3.75324 4.18441 3.63156 4.34977 3.63156 4.55721L3.63156 5.85153C3.63156 6.05472 3.749 6.21595 3.965 6.21595C4.18108 6.21595 4.29844 6.05465 4.29844 5.85153L4.29844 5.3992C4.29844 5.36161 4.31108 5.34464 4.33413 5.34464C4.35093 5.34464 4.36357 5.35512 4.37813 5.38448L4.66964 5.94992C4.78084 6.16568 4.90037 6.21592 5.02836 6.21592C5.24861 6.21592 5.37029 6.05047 5.37029 5.84312L5.37029 4.5488C5.37029 4.3456 5.25283 4.1844 5.03676 4.1844L5.03676 4.18432" fill="#d62300"/></svg>
