<svg stroke-miterlimit="10" style="fill-rule:nonzero;clip-rule:evenodd;stroke-linecap:round;stroke-linejoin:round" viewBox="0 0 1024 1024" xml:space="preserve" xmlns="http://www.w3.org/2000/svg" xmlns:vectornator="http://vectornator.io"><defs><filter color-interpolation-filters="sRGB" filterUnits="userSpaceOnUse" height="126.378" id="a" width="654.56" x="195.584" y="459.675"><feDropShadow dx="12.728" dy="12.728" flood-color="#fff" flood-opacity="1" in="SourceGraphic" result="Shadow" stdDeviation="4.5"/></filter></defs><g filter="url(#a)" vectornator:shadowAngle=".785" vectornator:shadowColor="#ffffff" vectornator:shadowOffset="18" vectornator:shadowOpacity="1" vectornator:shadowRadius="9" fill-rule="evenodd" vectornator:layerName="Untitled"><path d="M717.259 492.373c7.04.591 8.732 2.452 11.465 6.697l5.815 10.583c3.036 4.368 5.596 6.716 11.541 6.716v1.602h-7.288c-3.295 0-9.614.407-13.143-3.914l-7.594-12.531c-2.665-3.694-3.468-6.69-12.318-6.69h-13.791l.014 16.888c0 2.988 1.311 4.126 3.745 4.126h1.328v2.121h-20.207v-2.121h1.321c2.431 0 3.745-1.138 3.745-4.126v-44.535c0-2.992-1.314-4.134-3.745-4.134h-1.321v-2.117h33.692c19.556 0 25.019 8.005 25.019 15.703 0 8.739-6.892 13.856-18.278 15.732m-25.313-26.797v23.517l15.141.01c11.976 0 17.608-4.472 17.608-11.897 0-7.291-5.484-11.63-17.911-11.63h-14.838ZM800.207 467.196c0-3 1.304-4.134 3.745-4.134h1.329v-2.117h-20.226v2.117h1.325c2.438 0 3.749 1.134 3.749 4.134v44.527c0 2.989-1.311 4.127-3.749 4.127h-1.325v2.121h20.226v-2.121h-1.329c-2.434 0-3.745-1.138-3.745-4.127v-44.527ZM231.617 490.736c12.524 0 17.752 5.121 17.752 11.282 0 5.736-3.81 9.585-18.058 9.585h-20.578v-20.867h20.884Zm-20.884-24.802h16.786c12.564 0 16.787 2.726 16.787 8.714 0 6.057-3.669 10.691-17.374 10.691l-16.257-.004.058-19.401Zm-10.075 45.788c0 2.988-1.315 4.13-3.749 4.13h-1.325v2.117h39.947c15.937 0 25.054-5.167 25.054-16.103 0-8.195-5.163-13.128-18.004-14.698 6.205-1.62 11.703-5.923 11.703-12.596 0-9.689-9.672-13.632-22.512-13.632h-36.188v2.117h1.325c2.434 0 3.749 1.142 3.749 4.134v44.531ZM410.449 460.939v2.117h-1.325c-2.431 0-3.745 1.141-3.745 4.133l.007 44.459 28.842.008c4.753-.198 8.487-2.708 10.651-6.147l1.981.745L440.969 518l-50.681-.029v-2.121h1.325c2.434 0 3.745-1.137 3.745-4.126v-44.535c0-2.992-1.311-4.133-3.745-4.133h-1.325v-2.117h20.161ZM357.835 460.945v2.118h-1.325c-2.964 0-3.302 1.548-4.602 3.957l-26.113 50.951h-8.372l-26.408-50.937c-1.304-2.412-1.653-3.971-4.62-3.971h-1.318v-2.118l20.921-.007v2.117h-1.315c-2.79 0-3.874 1.909-2.592 4.455l21.381 41.167 21.076-41.167c1.285-2.546.212-4.455-2.578-4.455h-1.318v-2.117l17.183.007ZM546.788 490.851v2.117h-2.326c-2.427 0-3.738 1.138-3.738 4.137l.004 10.565c-3.561 5.93-14.936 12.275-32.299 12.275-24.612 0-40.297-13.607-40.297-30.387 0-13.86 14.76-29.883 39.904-29.883 14.195 0 24.565 4.955 27.449 6.863 0 .209 3.057 12.711 3.05 12.736-.007.029-2.175.81-2.175.81-.014.007-6.578-15.66-27.11-15.728-17.705-.065-29.779 12.74-29.779 25.234 0 13.788 11.901 25.141 29.779 25.076 11.169-.047 21.749-5.822 21.716-10.014l.025-7.547c0-2.999-1.303-4.137-3.741-4.137h-2.315v-2.117h21.853ZM644.488 515.85v2.121h-21.13v-2.121h1.322c2.783 0 3.863-1.894 2.571-4.436l-4.937-8.786h-33.595l-4.577 8.786c-1.286 2.542-.22 4.436 2.571 4.436h1.314l-.011 2.121h-17.499v-2.121h1.314c2.081 0 3.053-.756 4.245-2.985l27.348-51.872h7.684l27.233 50.846c.212.364.396.706.59 1.019 1.185 2.233 2.154 2.992 4.228 2.992h1.329Zm-25.231-19.573-13.827-26.733-.018.04-13.381 26.693h27.226ZM264.262 564.071h-2.809v-8.512H250.51v8.512h-2.812v-19.545h2.812v8.512h10.943v-8.512h2.809v19.545ZM284.917 554.299c0 5.3 4.04 10.024 10.428 10.024 6.618 0 10.575-4.756 10.575-10.024 0-5.445-4.069-10.025-10.514-10.025-6.337 0-10.489 4.609-10.489 10.025m2.895 0c0-4.3 3.237-7.447 7.594-7.447 4.379 0 7.623 3.147 7.623 7.447 0 4.27-3.244 7.446-7.623 7.446-4.357 0-7.594-3.176-7.594-7.446M339.342 547.048h-6.763v17.024h-2.808v-17.024h-6.766v-2.521h16.337v2.521ZM370.254 547.048h-8.278v5.901h7.994v2.521h-7.994v6.078h8.534v2.524h-11.346v-19.545h11.09v2.521ZM393.464 561.55h8.826v2.52h-11.631v-19.545h2.805v17.025ZM431.197 548.827c-1.66-1.573-3.266-2.034-4.584-2.034-1.807 0-3.096.943-3.096 2.319 0 3.752 8.451 3.698 8.451 9.916 0 3.065-2.316 5.297-5.47 5.297-2.124 0-3.835-.569-5.473-1.808v-3.55c1.437 1.833 3.244 2.837 5.156 2.837 2.179 0 3.187-1.375 3.187-2.462 0-4.044-8.451-4.498-8.451-9.856 0-3.183 2.344-5.214 5.93-5.214 1.484 0 2.971.458 4.35 1.369v3.186ZM481.988 549.14c0-1.058.918-1.869 2.124-1.869 1.29 0 2.233.865 2.233 2.013 0 1.005-.457 1.858-2.549 3.183-.832-.806-1.808-2.124-1.808-3.327m8.228 5.214c-.429.972-1.289 2.351-2.092 3.151l-2.755-3.151c2.524-1.775 3.586-3.32 3.586-5.214 0-2.376-1.944-4.242-4.699-4.242-3.039 0-5.012 1.779-5.012 4.498 0 1.667 1.055 3.331 2.207 4.53-2.725 1.577-4.612 3.41-4.612 5.757 0 2.607 2.258 4.642 4.926 4.642 1.775 0 3.752-.713 6.186-2.924l2.236 2.668h3.608l-3.95-4.591c1.455-1.631 2.636-3.547 3.179-5.124h-2.808Zm-3.983 5.102c-1.343 1.344-2.751 2.291-4.184 2.291-1.26 0-2.319-.947-2.405-2.064 0-1.516 1.228-2.52 3.406-3.896l3.183 3.669ZM539.291 544.526v19.546h2.808v-8.484h1.171c1.433 0 2.61.457 5.192 4.465l2.571 4.019h3.352c-1.339-1.866-1.822-2.521-2.661-3.871-1.483-2.434-2.574-4.242-4.357-5.416 2.096-.828 3.266-2.52 3.266-4.785 0-3.381-2.459-5.474-6.413-5.474h-4.929Zm2.808 2.406h1.804c2.723 0 3.814 1.12 3.843 2.952.025 1.632-.839 3.18-3.843 3.18h-1.804v-6.132ZM584.821 547.048h-8.281v5.901h7.993v2.521h-7.993v6.078h8.533v2.524h-11.338v-19.545h11.086v2.521ZM614.531 548.827c-1.656-1.573-3.269-2.034-4.584-2.034-1.804 0-3.093.943-3.093 2.319 0 3.752 8.455 3.698 8.455 9.916 0 3.065-2.33 5.297-5.477 5.297-2.117 0-3.835-.569-5.466-1.808v-3.55c1.426 1.833 3.23 2.837 5.146 2.837 2.182 0 3.186-1.375 3.186-2.462 0-4.044-8.451-4.498-8.451-9.856 0-3.183 2.352-5.214 5.931-5.214 1.487 0 2.978.458 4.353 1.369v3.186ZM634.705 554.299c0 5.3 4.04 10.024 10.428 10.024 6.618 0 10.575-4.756 10.575-10.024 0-5.445-4.076-10.025-10.518-10.025-6.333 0-10.485 4.609-10.485 10.025m2.895 0c0-4.3 3.233-7.447 7.59-7.447 4.386 0 7.623 3.147 7.623 7.447 0 4.27-3.237 7.446-7.623 7.446-4.357 0-7.59-3.176-7.59-7.446M676.388 544.526v19.546h2.812v-8.484h1.174c1.437 0 2.611.457 5.185 4.465l2.585 4.019h3.349c-1.35-1.866-1.836-2.521-2.664-3.871-1.488-2.434-2.582-4.242-4.357-5.416 2.092-.828 3.262-2.52 3.262-4.785 0-3.381-2.463-5.474-6.409-5.474h-4.937Zm2.812 2.406h1.804c2.722 0 3.813 1.12 3.839 2.952.025 1.632-.832 3.18-3.839 3.18H679.2v-6.132ZM722.791 547.048h-6.759v17.024h-2.812v-17.024h-6.755v-2.521h16.326v2.521ZM751.899 548.827c-1.66-1.573-3.258-2.034-4.583-2.034-1.804 0-3.094.943-3.094 2.319 0 3.752 8.452 3.698 8.452 9.916 0 3.065-2.316 5.297-5.474 5.297-2.121 0-3.838-.569-5.469-1.808v-3.55c1.429 1.833 3.237 2.837 5.16 2.837 2.178 0 3.179-1.375 3.179-2.462 0-4.044-8.447-4.498-8.447-9.856 0-3.183 2.34-5.214 5.919-5.214 1.495 0 2.985.458 4.357 1.369v3.186ZM818.507 460.479h-.346c-.068.144-.202.166-.299.166-.191 0-.317-.133-.641-.277a2.298 2.298 0 0 0-.922-.177c-1.145 0-2.106.872-2.106 2.071 0 1.512 1.483 2.013 2.168 2.268.72.263 1.479.49 1.479 1.207 0 .54-.45 1.296-1.541 1.296-.767 0-1.634-.529-2.023-1.347h-.4l.112 1.79h.317c0-.011.01-.022.01-.033a.352.352 0 0 1 .328-.194c.166 0 .338.054.583.122.306.094.684.206 1.217.206 1.534 0 2.546-1.063 2.546-2.319 0-1.516-1.235-1.956-2.585-2.445-.299-.101-1.178-.389-1.178-1.095 0-.461.328-.983 1.113-.983.626 0 1.494.267 1.772 1.412h.396v-1.668ZM819.857 460.307v.368c.371 0 .572.306.572.839v4.897c0 .122 0 .684-.572.684v.371h1.71v-.371c-.237 0-.576-.112-.576-.674v-5.296h.04l2.315 6.341h.713l2.251-6.179h.072v5.239c0 .14-.022.508-.512.569v.371h2.546v-.371c-.133-.018-.501-.112-.501-.569v-5.268c0-.112.008-.511.501-.583v-.368h-2.333l-1.858 5.103h-.044l-1.858-5.103h-2.466Z"/></g></svg>