<svg viewBox="0 0 24 24" xmlns="http://www.w3.org/2000/svg"><path d="M4.76 9.343a1.99 1.99 0 0 1-3.852-.689V8.23c0-1.097.89-1.986 1.99-1.986.854 0 1.582.54 1.863 1.294h.946A2.896 2.896 0 0 0 0 8.227v.43a2.894 2.894 0 0 0 2.894 2.887 2.899 2.899 0 0 0 2.813-2.201h-.946Zm16.346 3.11a2.896 2.896 0 0 0-2.894 2.893v.431A2.894 2.894 0 0 0 24 15.77v-.424a2.896 2.896 0 0 0-2.894-2.894m1.99 3.318c0 1.097-.89 1.986-1.99 1.986a1.99 1.99 0 0 1-1.99-1.986v-.424c0-1.097.89-1.986 1.99-1.986a1.99 1.99 0 0 1 1.99 1.986v.424Zm-9.14-10.438h.907v6.212h-.908V5.332Zm.954 7.12h-1.005l-2.394 6.216h3.845l-.346-.909h-2.175l1.574-4.083 1.92 4.992h.974l-2.393-6.216ZM9.14 10.64h.909v6.216H9.14v-6.216Zm.955 7.12H9.09l-.35.909h1.705l-.35-.909ZM6.697 9.731h3.844l-.35-.908h-2.17l1.343-3.49H8.39L6.697 9.73Zm3.125-4.399 1.693 4.4h.974l-1.694-4.4h-.973Zm-4.938 7.12v4.792L.912 12.452H0v6.216h.908v-4.8l3.976 4.8h.908v-6.216h-.908Z" fill="#06f"/></svg>