<?xml version="1.0" encoding="UTF-8" standalone="no"?>
<!DOCTYPE svg PUBLIC "-//W3C//DTD SVG 1.1//EN" "http://www.w3.org/Graphics/SVG/1.1/DTD/svg11.dtd">
<!-- Created with Vectornator (http://vectornator.io/) -->
<svg height="100%" stroke-miterlimit="10" style="fill-rule:nonzero;clip-rule:evenodd;stroke-linecap:round;stroke-linejoin:round;" version="1.1" viewBox="0 0 612 792" width="100%" xml:space="preserve" xmlns="http://www.w3.org/2000/svg" xmlns:vectornator="http://vectornator.io" xmlns:xlink="http://www.w3.org/1999/xlink">
<defs/>
<g id="Untitled" vectornator:layerName="Untitled">
<g opacity="1">
<clipPath id="ClipPath">
<path d="M0 0L612 0L612 792L0 792L0 0Z"/>
</clipPath>
<g clip-path="url(#ClipPath)">
<path d="M345.363 271.731L355.336 271.731L355.336 281.641L339.472 281.641L339.472 271.731L345.363 271.731ZM349.449 274.699L345.363 274.699L345.363 278.668L349.449 278.668L349.449 274.699ZM326.898 271.731L336.871 271.731L336.871 281.641L321.008 281.641L321.008 271.731L326.898 271.731ZM330.984 274.699L326.898 274.699L326.898 278.668L330.984 278.668L330.984 274.699ZM331.566 259.738L350.66 259.738L350.66 269.641L325.679 269.641L325.679 259.738L331.566 259.738ZM344.773 262.703L331.566 262.703L331.566 266.68L344.773 266.68L344.773 262.703ZM319.597 299.305L325.738 299.324L332.418 288.594L335.226 288.594L335.226 299.324L341.117 299.324L341.117 288.594L343.922 288.594L350.601 299.324L356.742 299.305L350.074 288.594L356.101 288.594L356.101 285.633L341.117 285.633L341.117 283.426L335.226 283.426L335.226 285.633L320.242 285.633L320.242 288.594L326.269 288.594L319.597 299.305ZM315.066 299.324L305.008 299.324L305.008 296.363L309.179 296.363L309.179 286.516L304.105 287.774L304.105 284.172L309.179 282.914L309.179 270.395L304.105 270.395L304.105 267.434L309.179 267.434L309.179 259.285L315.066 259.285L315.066 267.434L320.14 267.434L320.14 270.395L315.066 270.395L315.066 281.457L320.14 280.203L320.14 283.805L315.066 285.063L315.066 299.324ZM256.121 284.25L296.078 284.25L296.078 297.395L296.074 297.395L296.074 299.289L250.211 299.289L250.211 284.25L256.121 284.25ZM256.121 290.25L290.172 290.25L290.172 287.293L256.121 287.293L256.121 290.25ZM290.172 293.289L256.121 293.289L256.121 296.254L290.172 296.254L290.172 293.289ZM283.18 279.309L291.785 279.309L291.785 276.531L283.18 276.531L283.18 279.309ZM283.18 273.488L291.785 273.488L291.785 270.723L283.18 270.723L283.18 273.488ZM269.02 279.309L277.277 279.309L277.277 276.531L269.02 276.531L269.02 279.309ZM269.02 273.488L277.277 273.488L277.277 270.723L269.02 270.723L269.02 273.488ZM263.109 270.723L254.504 270.723L254.504 273.488L263.109 273.488L263.109 270.723ZM263.109 276.531L254.504 276.531L254.504 279.309L263.109 279.309L263.109 276.531ZM269.02 267.684L277.277 267.684L277.277 264.715L269.02 264.715L269.02 267.684ZM298.641 264.715L283.18 264.715L283.18 267.684L297.691 267.684L297.691 282.348L248.598 282.348L248.598 267.684L263.109 267.684L263.109 264.715L247.652 264.715L247.652 261.676L263.109 261.676L263.109 258.879L269.02 258.879L269.02 261.676L277.277 261.676L277.277 258.879L283.18 258.879L283.18 261.676L298.641 261.676L298.641 264.715ZM433.527 260.914L463.351 260.914L463.351 263.602L433.527 263.602L433.527 260.914ZM458.258 275.008L458.258 299.164C458.258 299.434 458.035 299.656 457.765 299.656L442.859 299.656L442.859 296.805L452.554 296.805L452.554 275.008L433.039 275.008L433.039 272.32L464.898 272.32L464.898 275.008L458.258 275.008ZM425.633 259L430.875 259L420.133 270.57L414.89 270.57L425.633 259ZM425.633 270.336L430.875 270.336L425.683 275.93L425.953 275.824L425.953 299.656L420.41 299.656L420.41 281.606L420.133 281.906L414.89 281.906L425.633 270.336ZM383.011 259.203L388.554 259.203L388.554 275.133L402.609 275.133L402.609 262.176L408.312 262.176L408.312 277.488C408.312 277.762 408.09 277.985 407.82 277.985L388.554 277.985L388.554 296.805L403.871 296.805L403.871 282.059L409.574 282.059L409.574 299.164C409.574 299.434 409.351 299.656 409.082 299.656L362.769 299.656C362.5 299.656 362.277 299.434 362.277 299.164L362.277 282.059L367.531 282.059L367.531 296.805L383.011 296.805L383.011 277.985L363.828 277.985C363.558 277.985 363.336 277.762 363.336 277.488L363.336 262.176L368.593 262.176L368.593 275.133L383.011 275.133L383.011 259.203Z" fill="#1b1918" fill-rule="evenodd" opacity="1" stroke="none"/>
<path d="M171.766 274.77C175.031 271.52 178.836 269.961 183.395 269.961L205.395 269.961L205.395 267.871L183.395 267.871C178.34 267.871 173.93 269.707 170.301 273.297C166.684 276.902 164.863 281.317 164.863 286.387L164.863 305.66C164.863 310.715 166.684 315.098 170.301 318.735C173.953 322.332 178.367 324.172 183.395 324.172L205.395 324.172L205.395 322.09L183.395 322.09C178.852 322.09 175.062 320.504 171.766 317.227C168.57 314.047 166.945 310.152 166.945 305.66L166.945 286.387C166.945 281.914 168.57 277.981 171.766 274.77M224.012 269.961L224.012 249L183.395 249C173.086 249 164.152 252.703 156.895 260.004C149.66 267.297 146 276.18 146 286.387L146 305.66C146 315.977 149.676 324.875 156.918 332.113C164.148 339.344 173.062 343.008 183.395 343.008L224.012 343.008L224.012 322.07L213.566 322.07L213.566 332.61L183.395 332.61C175.82 332.61 169.559 330.031 164.266 324.731C158.992 319.465 156.422 313.207 156.422 305.66L156.422 286.387C156.422 278.914 158.992 272.688 164.285 267.352C169.598 262.012 175.844 259.418 183.395 259.418L213.566 259.418L213.566 269.961L224.012 269.961Z" fill="#009035" fill-rule="evenodd" opacity="1" stroke="none"/>
<path d="M458.992 329.672C457.34 330.957 455.246 331.602 452.695 331.602C450.156 331.602 448.062 330.981 446.418 329.703C444.617 328.293 443.722 326.363 443.722 323.91C443.722 321.496 444.637 319.586 446.472 318.16C448.156 316.832 450.242 316.176 452.695 316.176C455.137 316.176 457.16 316.813 458.785 318.086C460.687 319.559 461.648 321.496 461.648 323.91C461.648 326.352 460.758 328.274 458.992 329.672M452.695 313.613C449.539 313.613 446.867 314.5 444.695 316.258C442.207 318.242 440.965 320.781 440.965 323.891C440.965 327.024 442.187 329.574 444.637 331.539C446.797 333.293 449.488 334.164 452.695 334.164C455.914 334.164 458.582 333.301 460.742 331.578C463.191 329.629 464.414 327.067 464.414 323.891C464.414 320.801 463.183 318.266 460.715 316.258C458.57 314.5 455.898 313.613 452.695 313.613M408.504 325.445L412.898 317.317C413.058 317.02 413.297 316.86 413.644 316.86C413.969 316.86 414.219 317.02 414.379 317.317L418.664 325.445C418.84 325.766 418.84 326.074 418.652 326.379C418.465 326.668 418.211 326.817 417.863 326.817L409.293 326.817C408.941 326.817 408.676 326.668 408.492 326.379C408.328 326.067 408.328 325.762 408.504 325.445M405.738 330.613C406.137 329.844 406.758 329.457 407.64 329.457L419.597 329.457C420.453 329.457 421.074 329.844 421.461 330.613C422.57 332.703 423.219 333.891 423.371 334.164L426.703 334.164C419.59 320.887 415.918 314.043 415.683 313.613L411.551 313.613L400.547 334.164L403.902 334.164L405.738 330.613ZM369.918 334.164L384.332 334.164L384.332 331.52L369.918 331.52C369.039 331.52 368.301 331.211 367.676 330.594C367.054 329.969 366.746 329.231 366.746 328.371L366.746 319.387C366.746 318.547 367.054 317.789 367.676 317.184C368.301 316.567 369.039 316.258 369.918 316.258L384.332 316.258L384.332 313.613L369.918 313.613C368.289 313.613 366.91 314.176 365.777 315.309C364.637 316.449 364.066 317.805 364.066 319.387L364.066 328.371C364.066 329.977 364.637 331.348 365.777 332.473C366.91 333.602 368.289 334.164 369.918 334.164M342.012 329.672C340.363 330.953 338.269 331.602 335.711 331.602C333.176 331.602 331.082 330.981 329.437 329.703C327.64 328.293 326.746 326.363 326.746 323.91C326.746 321.496 327.66 319.586 329.496 318.16C331.179 316.832 333.265 316.176 335.711 316.176C338.156 316.176 340.179 316.813 341.804 318.086C343.711 319.559 344.672 321.496 344.672 323.91C344.672 326.352 343.781 328.274 342.012 329.672M335.711 313.613C332.558 313.613 329.887 314.5 327.719 316.258C325.23 318.242 323.984 320.781 323.984 323.891C323.984 327.024 325.203 329.574 327.66 331.539C329.816 333.293 332.512 334.164 335.711 334.164C338.933 334.164 341.601 333.301 343.762 331.578C346.215 329.629 347.437 327.067 347.437 323.891C347.437 320.801 346.203 318.266 343.734 316.258C341.594 314.5 338.922 313.613 335.711 313.613M291.941 325.445L296.336 317.317C296.496 317.02 296.734 316.86 297.078 316.86C297.41 316.86 297.656 317.02 297.82 317.317L302.102 325.445C302.277 325.766 302.277 326.074 302.086 326.379C301.902 326.668 301.645 326.817 301.297 326.817L292.73 326.817C292.379 326.817 292.109 326.668 291.934 326.379C291.766 326.067 291.766 325.762 291.941 325.445M289.176 330.613C289.574 329.844 290.195 329.457 291.078 329.457L303.035 329.457C303.891 329.457 304.516 329.844 304.898 330.613C306.008 332.703 306.656 333.891 306.808 334.164L310.14 334.164C303.027 320.887 299.359 314.043 299.121 313.613L294.988 313.613L283.984 334.164L287.336 334.164L289.176 330.613ZM254.395 334.164L268.812 334.164L268.812 331.52L254.395 331.52C253.516 331.52 252.777 331.211 252.152 330.594C251.531 329.969 251.223 329.231 251.223 328.371L251.223 319.387C251.223 318.547 251.531 317.789 252.152 317.184C252.777 316.567 253.516 316.258 254.395 316.258L268.812 316.258L268.812 313.613L254.395 313.613C252.77 313.613 251.387 314.176 250.254 315.309C249.113 316.449 248.543 317.805 248.543 319.387L248.543 328.371C248.543 329.977 249.113 331.348 250.254 332.473C251.387 333.602 252.77 334.164 254.395 334.164" fill="#1b1918" fill-rule="evenodd" opacity="1" stroke="none"/>
<path d="M171.891 474.189C175.168 470.922 178.992 469.357 183.574 469.357L205.676 469.357L205.676 467.254L183.574 467.254C178.492 467.254 174.062 469.102 170.418 472.708C166.781 476.329 164.953 480.766 164.953 485.861L164.953 505.227C164.953 510.305 166.781 514.708 170.418 518.361C174.086 521.977 178.523 523.825 183.574 523.825L205.676 523.825L205.676 521.736L183.574 521.736C179.008 521.736 175.203 520.141 171.891 516.844C168.676 513.653 167.047 509.739 167.047 505.227L167.047 485.861C167.047 481.364 168.676 477.415 171.891 474.189M224.383 469.357L224.383 448.293L183.574 448.293C173.215 448.293 164.238 452.016 156.949 459.352C149.68 466.68 146 475.607 146 485.861L146 505.227C146 515.59 149.691 524.532 156.973 531.805C164.234 539.071 173.191 542.751 183.574 542.751L224.383 542.751L224.383 521.711L213.891 521.711L213.891 532.301L183.574 532.301C175.961 532.301 169.672 529.715 164.352 524.387C159.051 519.094 156.473 512.809 156.473 505.227L156.473 485.861C156.473 478.352 159.051 472.098 164.371 466.736C169.711 461.372 175.988 458.762 183.574 458.762L213.891 458.762L213.891 469.357L224.383 469.357Z" fill="#009035" fill-rule="evenodd" opacity="1" stroke="none"/>
<path d="M277.242 465.742L269.09 465.742L269.09 467.742L277.242 467.742L277.242 465.742ZM277.242 470.59L269.09 470.59L269.09 473.184L277.242 473.184L277.242 470.59ZM277.242 476.035L269.09 476.035L269.09 478.637L277.242 478.637L277.242 476.035ZM308.57 494.516L308.57 485.063L303.547 486.27L303.547 482.809L308.57 481.602L308.57 469.578L303.547 469.578L303.547 466.731L308.57 466.731L308.57 458.906L314.398 458.906L314.398 466.731L319.422 466.731L319.422 469.578L314.398 469.578L314.398 480.203L319.422 478.996L319.422 482.457L314.398 483.664L314.398 497.363L304.441 497.363L304.441 494.516L308.57 494.516ZM330.16 473.711L326.113 473.711L326.113 477.524L330.16 477.524L330.16 473.711ZM335.984 480.379L320.281 480.379L320.281 470.86L335.984 470.86L335.984 480.379ZM348.437 473.711L344.394 473.711L344.394 477.524L348.437 477.524L348.437 473.711ZM354.266 480.379L338.562 480.379L338.562 470.86L354.266 470.86L354.266 480.379ZM349.637 462.192L349.637 468.852L324.906 468.852L324.906 459.34L349.637 459.34L349.637 462.192ZM343.809 462.192L330.735 462.192L330.735 466.007L343.809 466.007L343.809 462.192ZM291.566 470.59L283.07 470.59L283.07 473.184L291.566 473.184L291.566 470.59ZM291.566 476.035L283.07 476.035L283.07 478.637L291.566 478.637L291.566 476.035ZM254.762 478.637L263.258 478.637L263.258 476.035L254.762 476.035L254.762 478.637ZM254.762 473.184L263.258 473.184L263.258 470.59L254.762 470.59L254.762 473.184ZM248.934 478.637L248.934 467.742L263.258 467.742L263.258 465.742L247.996 465.742L247.996 462.891L263.258 462.891L263.258 458.906L269.09 458.906L269.09 462.891L277.242 462.891L277.242 458.906L283.07 458.906L283.07 462.891L298.332 462.891L298.332 465.742L283.07 465.742L283.07 467.742L297.395 467.742L297.395 481.485L248.934 481.485L248.934 478.637ZM256.355 494.516L289.969 494.516L289.969 491.743L256.355 491.743L256.355 494.516ZM256.355 488.895L289.969 488.895L289.969 486.122L256.355 486.122L256.355 488.895ZM250.523 494.516L250.523 483.27L295.801 483.27L295.801 495.59L295.797 495.59L295.797 497.363L250.523 497.363L250.523 494.516ZM318.887 497.344L324.965 497.363L331.574 487.059L334.359 487.059L334.359 497.363L340.191 497.363L340.191 487.059L342.969 487.059L349.578 497.363L355.66 497.344L349.059 487.059L355.023 487.059L355.023 484.211L340.191 484.211L340.191 482.094L334.359 482.094L334.359 484.211L319.523 484.211L319.523 487.059L325.488 487.059L318.887 497.344ZM377.879 458.906L375.402 463.395L362.191 463.395L362.191 466.246L373.828 466.246L371.203 471.004L360.332 471.004L360.332 473.856L369.629 473.856L365.434 481.465L398.434 481.465L384.5 489.07L365.434 485.141L365.434 489.223L404.898 497.363L404.898 493.277L390.68 490.348L408.805 480.453L408.805 478.613L372.836 478.613L375.461 473.856L410.656 473.856L410.656 471.004L377.031 471.004L379.656 466.246L408.805 466.246L408.805 463.395L381.23 463.395L383.703 458.906L377.879 458.906ZM463.887 467.106L430.723 467.106L423.137 477.711L438.629 477.711L438.629 469.156L444.457 469.156L444.457 477.711L462.855 477.711L462.855 480.567L444.457 480.567L444.457 488.008L464.898 488.008L464.898 490.856L444.457 490.856L444.457 497.363L438.629 497.363L438.629 490.856L415.262 490.856L415.262 488.008L438.629 488.008L438.629 480.567L415.262 480.567L424.895 467.106L416.273 467.106L416.273 464.254L426.934 464.254L430.762 458.906L436.59 458.906L432.766 464.254L463.887 464.254L463.887 467.106Z" fill="#1b1918" fill-rule="evenodd" opacity="1" stroke="none"/>
<path d="M457.035 527.625C455.39 528.914 453.316 529.563 450.781 529.563C448.258 529.563 446.18 528.942 444.547 527.656C442.754 526.238 441.867 524.301 441.867 521.836C441.867 519.406 442.777 517.488 444.597 516.055C446.273 514.723 448.344 514.063 450.781 514.063C453.203 514.063 455.215 514.703 456.828 515.985C458.719 517.461 459.672 519.406 459.672 521.836C459.672 524.285 458.789 526.219 457.035 527.625M450.781 511.488C447.644 511.488 444.988 512.379 442.832 514.149C440.363 516.141 439.129 518.692 439.129 521.817C439.129 524.965 440.34 527.527 442.777 529.5C444.922 531.262 447.594 532.141 450.781 532.141C453.976 532.141 456.629 531.27 458.769 529.539C461.207 527.578 462.422 525.004 462.422 521.817C462.422 518.711 461.199 516.164 458.742 514.149C456.613 512.379 453.961 511.488 450.781 511.488M405.851 523.379L410.215 515.211C410.379 514.91 410.613 514.75 410.957 514.75C411.277 514.75 411.527 514.91 411.687 515.207L415.945 523.379C416.121 523.699 416.121 524.008 415.933 524.317C415.746 524.606 415.496 524.754 415.148 524.754L406.637 524.754C406.289 524.754 406.023 524.606 405.84 524.317C405.676 524 405.676 523.695 405.851 523.379M403.105 528.567C403.5 527.797 404.121 527.406 404.996 527.406L416.871 527.406C417.719 527.406 418.34 527.797 418.722 528.567C419.824 530.672 420.469 531.86 420.617 532.141L423.93 532.141C416.863 518.797 413.219 511.922 412.984 511.488L408.875 511.488L397.949 532.141L401.281 532.141L403.105 528.567ZM368.558 532.141L382.875 532.141L382.875 529.481L368.558 529.481C367.683 529.481 366.949 529.172 366.332 528.551C365.715 527.922 365.406 527.184 365.406 526.317L365.406 517.289C365.406 516.445 365.715 515.684 366.332 515.074C366.949 514.453 367.683 514.149 368.558 514.149L382.875 514.149L382.875 511.488L368.558 511.488C366.941 511.488 365.57 512.055 364.445 513.192C363.311 514.34 362.742 515.699 362.742 517.289L362.742 526.317C362.742 527.934 363.311 529.309 364.445 530.438C365.57 531.57 366.941 532.141 368.558 532.141M342.285 527.625C340.644 528.914 338.566 529.563 336.027 529.563C333.508 529.563 331.43 528.942 329.797 527.656C328.008 526.238 327.121 524.301 327.121 521.836C327.121 519.406 328.027 517.488 329.851 516.055C331.523 514.723 333.597 514.063 336.027 514.063C338.453 514.063 340.465 514.703 342.078 515.985C343.972 517.461 344.926 519.406 344.926 521.836C344.926 524.285 344.043 526.219 342.285 527.625M336.027 511.488C332.894 511.488 330.238 512.379 328.086 514.149C325.613 516.141 324.379 518.692 324.379 521.817C324.379 524.965 325.586 527.527 328.027 529.5C330.172 531.262 332.844 532.141 336.027 532.141C339.226 532.141 341.879 531.27 344.023 529.539C346.457 527.578 347.672 525.004 347.672 521.817C347.672 518.711 346.449 516.164 343.996 514.149C341.867 512.379 339.215 511.488 336.027 511.488M291.102 523.379L295.469 515.211C295.629 514.91 295.867 514.75 296.207 514.75C296.535 514.75 296.781 514.91 296.941 515.207L301.195 523.379C301.371 523.699 301.371 524.008 301.18 524.317C301 524.606 300.742 524.754 300.398 524.754L291.887 524.754C291.539 524.754 291.27 524.606 291.094 524.317C290.93 524 290.93 523.695 291.102 523.379M288.355 528.567C288.75 527.797 289.371 527.406 290.246 527.406L302.121 527.406C302.969 527.406 303.594 527.797 303.973 528.567C305.078 530.672 305.723 531.86 305.871 532.141L309.183 532.141C302.113 518.797 298.473 511.922 298.234 511.488L294.129 511.488L283.199 532.141L286.527 532.141L288.355 528.567ZM253.809 532.141L268.129 532.141L268.129 529.481L253.809 529.481C252.934 529.481 252.203 529.172 251.582 528.551C250.965 527.922 250.656 527.184 250.656 526.317L250.656 517.289C250.656 516.445 250.965 515.684 251.582 515.074C252.203 514.453 252.934 514.149 253.809 514.149L268.129 514.149L268.129 511.488L253.809 511.488C252.191 511.488 250.82 512.055 249.695 513.192C248.562 514.34 247.996 515.699 247.996 517.289L247.996 526.317C247.996 527.934 248.562 529.309 249.695 530.438C250.82 531.57 252.191 532.141 253.809 532.141" fill="#1b1918" fill-rule="evenodd" opacity="1" stroke="none"/>
</g>
</g>
</g>
</svg>
