<svg stroke-miterlimit="10" style="fill-rule:nonzero;clip-rule:evenodd;stroke-linecap:round;stroke-linejoin:round" viewBox="0 0 612 792" xml:space="preserve" xmlns="http://www.w3.org/2000/svg" xmlns:vectornator="http://vectornator.io"><g vectornator:layerName="Untitled"><clipPath id="a"><path d="M0 0h612v792H0V0Z"/></clipPath><g clip-path="url(#a)" fill-rule="evenodd"><path d="M345.363 271.731h9.973v9.91h-15.864v-9.91h5.891Zm4.086 2.968h-4.086v3.969h4.086v-3.969Zm-22.551-2.968h9.973v9.91h-15.863v-9.91h5.89Zm4.086 2.968h-4.086v3.969h4.086v-3.969Zm.582-14.961h19.094v9.903h-24.981v-9.903h5.887Zm13.207 2.965h-13.207v3.977h13.207v-3.977Zm-25.176 36.602 6.141.019 6.68-10.73h2.808v10.73h5.891v-10.73h2.805l6.679 10.73 6.141-.019-6.668-10.711h6.027v-2.961h-14.984v-2.207h-5.891v2.207h-14.984v2.961h6.027l-6.672 10.711Zm-4.531.019h-10.058v-2.961h4.171v-9.847l-5.074 1.258v-3.602l5.074-1.258v-12.519h-5.074v-2.961h5.074v-8.149h5.887v8.149h5.074v2.961h-5.074v11.062l5.074-1.254v3.602l-5.074 1.258v14.261Zm-58.945-15.074h39.957v13.145h-.004v1.894h-45.863V284.25h5.91Zm0 6h34.051v-2.957h-34.051v2.957Zm34.051 3.039h-34.051v2.965h34.051v-2.965Zm-6.992-13.98h8.605v-2.778h-8.605v2.778Zm0-5.821h8.605v-2.765h-8.605v2.765Zm-14.16 5.821h8.257v-2.778h-8.257v2.778Zm0-5.821h8.257v-2.765h-8.257v2.765Zm-5.911-2.765h-8.605v2.765h8.605v-2.765Zm0 5.808h-8.605v2.778h8.605v-2.778Zm5.911-8.847h8.257v-2.969h-8.257v2.969Zm29.621-2.969H283.18v2.969h14.511v14.664h-49.093v-14.664h14.511v-2.969h-15.457v-3.039h15.457v-2.797h5.911v2.797h8.257v-2.797h5.903v2.797h15.461v3.039Zm134.886-3.801h29.824v2.688h-29.824v-2.688Zm24.731 14.094v24.156c0 .27-.223.492-.493.492h-14.906v-2.851h9.695v-21.797h-19.515v-2.688h31.859v2.688h-6.64ZM425.633 259h5.242l-10.742 11.57h-5.243L425.633 259Zm0 11.336h5.242l-5.192 5.594.27-.106v23.832h-5.543v-18.05l-.277.3h-5.243l10.743-11.57Zm-42.622-11.133h5.543v15.93h14.055v-12.957h5.703v15.312a.496.496 0 0 1-.492.497h-19.266v18.82h15.317v-14.746h5.703v17.105c0 .27-.223.492-.492.492h-46.313a.495.495 0 0 1-.492-.492v-17.105h5.254v14.746h15.48v-18.82h-19.183a.496.496 0 0 1-.492-.497v-15.312h5.257v12.957h14.418v-15.93Z" fill="#1b1918"/><path d="M171.766 274.77c3.265-3.25 7.07-4.809 11.629-4.809h22v-2.09h-22c-5.055 0-9.465 1.836-13.094 5.426-3.617 3.605-5.438 8.02-5.438 13.09v19.273c0 5.055 1.821 9.438 5.438 13.075 3.652 3.597 8.066 5.437 13.094 5.437h22v-2.082h-22c-4.543 0-8.333-1.586-11.629-4.863-3.196-3.18-4.821-7.075-4.821-11.567v-19.273c0-4.473 1.625-8.406 4.821-11.617m52.246-4.809V249h-40.617c-10.309 0-19.243 3.703-26.5 11.004C149.66 267.297 146 276.18 146 286.387v19.273c0 10.317 3.676 19.215 10.918 26.453 7.23 7.231 16.144 10.895 26.477 10.895h40.617V322.07h-10.446v10.54h-30.171c-7.575 0-13.836-2.579-19.129-7.879-5.274-5.266-7.844-11.524-7.844-19.071v-19.273c0-7.473 2.57-13.699 7.863-19.035 5.313-5.34 11.559-7.934 19.11-7.934h30.171v10.543h10.446Z" fill="#009035"/><path d="M458.992 329.672c-1.652 1.285-3.746 1.93-6.297 1.93-2.539 0-4.633-.621-6.277-1.899-1.801-1.41-2.696-3.34-2.696-5.793 0-2.414.915-4.324 2.75-5.75 1.684-1.328 3.77-1.984 6.223-1.984 2.442 0 4.465.637 6.09 1.91 1.902 1.473 2.863 3.41 2.863 5.824 0 2.442-.89 4.364-2.656 5.762m-6.297-16.059c-3.156 0-5.828.887-8 2.645-2.488 1.984-3.73 4.523-3.73 7.633 0 3.133 1.222 5.683 3.672 7.648 2.16 1.754 4.851 2.625 8.058 2.625 3.219 0 5.887-.863 8.047-2.586 2.449-1.949 3.672-4.511 3.672-7.687 0-3.09-1.231-5.625-3.699-7.633-2.145-1.758-4.817-2.645-8.02-2.645m-44.191 11.832 4.394-8.128c.16-.297.399-.457.746-.457.325 0 .575.16.735.457l4.285 8.128c.176.321.176.629-.012.934-.187.289-.441.438-.789.438h-8.57a.894.894 0 0 1-.801-.438.92.92 0 0 1 .012-.934m-2.766 5.168c.399-.769 1.02-1.156 1.902-1.156h11.957c.856 0 1.477.387 1.864 1.156a258.623 258.623 0 0 0 1.91 3.551h3.332a14714.307 14714.307 0 0 0-11.02-20.551h-4.132l-11.004 20.551h3.355l1.836-3.551Zm-35.82 3.551h14.414v-2.644h-14.414c-.879 0-1.617-.309-2.242-.926-.622-.625-.93-1.363-.93-2.223v-8.984c0-.84.308-1.598.93-2.203.625-.617 1.363-.926 2.242-.926h14.414v-2.645h-14.414c-1.629 0-3.008.563-4.141 1.696-1.14 1.14-1.711 2.496-1.711 4.078v8.984c0 1.606.571 2.977 1.711 4.102 1.133 1.129 2.512 1.691 4.141 1.691m-27.906-4.492c-1.649 1.281-3.743 1.93-6.301 1.93-2.535 0-4.629-.621-6.274-1.899-1.797-1.41-2.691-3.34-2.691-5.793 0-2.414.914-4.324 2.75-5.75 1.683-1.328 3.769-1.984 6.215-1.984 2.445 0 4.468.637 6.093 1.91 1.907 1.473 2.868 3.41 2.868 5.824 0 2.442-.891 4.364-2.66 5.762m-6.301-16.059c-3.153 0-5.824.887-7.992 2.645-2.489 1.984-3.735 4.523-3.735 7.633 0 3.133 1.219 5.683 3.676 7.648 2.156 1.754 4.852 2.625 8.051 2.625 3.222 0 5.89-.863 8.051-2.586 2.453-1.949 3.675-4.511 3.675-7.687 0-3.09-1.234-5.625-3.703-7.633-2.14-1.758-4.812-2.645-8.023-2.645m-43.77 11.832 4.395-8.128c.16-.297.398-.457.742-.457.332 0 .578.16.742.457l4.282 8.128c.175.321.175.629-.016.934a.88.88 0 0 1-.789.438h-8.567c-.351 0-.621-.149-.796-.438a.912.912 0 0 1 .007-.934m-2.765 5.168c.398-.769 1.019-1.156 1.902-1.156h11.957c.856 0 1.481.387 1.863 1.156 1.11 2.09 1.758 3.278 1.91 3.551h3.332a12083.216 12083.216 0 0 0-11.019-20.551h-4.133l-11.004 20.551h3.352l1.84-3.551Zm-34.781 3.551h14.417v-2.644h-14.417c-.879 0-1.618-.309-2.243-.926-.621-.625-.929-1.363-.929-2.223v-8.984c0-.84.308-1.598.929-2.203.625-.617 1.364-.926 2.243-.926h14.417v-2.645h-14.417c-1.625 0-3.008.563-4.141 1.696-1.141 1.14-1.711 2.496-1.711 4.078v8.984c0 1.606.57 2.977 1.711 4.102 1.133 1.129 2.516 1.691 4.141 1.691" fill="#1b1918"/><path d="M171.891 474.189c3.277-3.267 7.101-4.832 11.683-4.832h22.102v-2.103h-22.102c-5.082 0-9.512 1.848-13.156 5.454-3.637 3.621-5.465 8.058-5.465 13.153v19.366c0 5.078 1.828 9.481 5.465 13.134 3.668 3.616 8.105 5.464 13.156 5.464h22.102v-2.089h-22.102c-4.566 0-8.371-1.595-11.683-4.892-3.215-3.191-4.844-7.105-4.844-11.617v-19.366c0-4.497 1.629-8.446 4.844-11.672m52.492-4.832v-21.064h-40.809c-10.359 0-19.336 3.723-26.625 11.059C149.68 466.68 146 475.607 146 485.861v19.366c0 10.363 3.691 19.305 10.973 26.578 7.261 7.266 16.218 10.946 26.601 10.946h40.809v-21.04h-10.492v10.59h-30.317c-7.613 0-13.902-2.586-19.222-7.914-5.301-5.293-7.879-11.578-7.879-19.16v-19.366c0-7.509 2.578-13.763 7.898-19.125 5.34-5.364 11.617-7.974 19.203-7.974h30.317v10.595h10.492Z" fill="#009035"/><path d="M277.242 465.742h-8.152v2h8.152v-2Zm0 4.848h-8.152v2.594h8.152v-2.594Zm0 5.445h-8.152v2.602h8.152v-2.602Zm31.328 18.481v-9.453l-5.023 1.207v-3.461l5.023-1.207v-12.024h-5.023v-2.847h5.023v-7.825h5.828v7.825h5.024v2.847h-5.024v10.625l5.024-1.207v3.461l-5.024 1.207v13.699h-9.957v-2.847h4.129Zm21.59-20.805h-4.047v3.813h4.047v-3.813Zm5.824 6.668h-15.703v-9.519h15.703v9.519Zm12.453-6.668h-4.043v3.813h4.043v-3.813Zm5.829 6.668h-15.704v-9.519h15.704v9.519Zm-4.629-18.187v6.66h-24.731v-9.512h24.731v2.852Zm-5.828 0h-13.074v3.815h13.074v-3.815Zm-52.243 8.398h-8.496v2.594h8.496v-2.594Zm0 5.445h-8.496v2.602h8.496v-2.602Zm-36.804 2.602h8.496v-2.602h-8.496v2.602Zm0-5.453h8.496v-2.594h-8.496v2.594Zm-5.828 5.453v-10.895h14.324v-2h-15.262v-2.851h15.262v-3.985h5.832v3.985h8.152v-3.985h5.828v3.985h15.262v2.851H283.07v2h14.325v13.743h-48.461v-2.848Zm7.421 15.879h33.614v-2.773h-33.614v2.773Zm0-5.621h33.614v-2.773h-33.614v2.773Zm-5.832 5.621V483.27h45.278v12.32h-.004v1.773h-45.274v-2.847Zm68.364 2.828 6.078.019 6.609-10.304h2.785v10.304h5.832v-10.304h2.778l6.609 10.304 6.082-.019-6.601-10.285h5.964v-2.848h-14.832v-2.117h-5.832v2.117h-14.836v2.848h5.965l-6.601 10.285Zm58.992-38.438-2.477 4.489h-13.211v2.851h11.637l-2.625 4.758h-10.871v2.852h9.297l-4.195 7.609h33L384.5 489.07l-19.066-3.929v4.082l39.464 8.14v-4.086l-14.218-2.929 18.125-9.895v-1.84h-35.969l2.625-4.757h35.195v-2.852h-33.625l2.625-4.758h29.149v-2.851H381.23l2.473-4.489h-5.824Zm86.008 8.2h-33.164l-7.586 10.605h15.492v-8.555h5.828v8.555h18.398v2.856h-18.398v7.441h20.441v2.848h-20.441v6.507h-5.828v-6.507h-23.367v-2.848h23.367v-7.441h-23.367l9.633-13.461h-8.622v-2.852h10.661l3.828-5.348h5.828l-3.824 5.348h31.121v2.852ZM457.035 527.625c-1.645 1.289-3.719 1.938-6.254 1.938-2.523 0-4.601-.621-6.234-1.907-1.793-1.418-2.68-3.355-2.68-5.82 0-2.43.91-4.348 2.73-5.781 1.676-1.332 3.747-1.992 6.184-1.992 2.422 0 4.434.64 6.047 1.922 1.891 1.476 2.844 3.421 2.844 5.851 0 2.449-.883 4.383-2.637 5.789m-6.254-16.137c-3.137 0-5.793.891-7.949 2.661-2.469 1.992-3.703 4.543-3.703 7.668 0 3.148 1.211 5.71 3.648 7.683 2.145 1.762 4.817 2.641 8.004 2.641 3.195 0 5.848-.871 7.988-2.602 2.438-1.961 3.653-4.535 3.653-7.722 0-3.106-1.223-5.653-3.68-7.668-2.129-1.77-4.781-2.661-7.961-2.661m-44.93 11.891 4.364-8.168c.164-.301.398-.461.742-.461.32 0 .57.16.73.457l4.258 8.172c.176.32.176.629-.012.938-.187.289-.437.437-.785.437h-8.511a.89.89 0 0 1-.797-.437.929.929 0 0 1 .011-.938m-2.746 5.188c.395-.77 1.016-1.161 1.891-1.161h11.875c.848 0 1.469.391 1.851 1.161 1.102 2.105 1.747 3.293 1.895 3.574h3.313a15701.769 15701.769 0 0 0-10.946-20.653h-4.109l-10.926 20.653h3.332l1.824-3.574Zm-34.547 3.574h14.317v-2.66h-14.317c-.875 0-1.609-.309-2.226-.93-.617-.629-.926-1.367-.926-2.234v-9.028c0-.844.309-1.605.926-2.215a3.006 3.006 0 0 1 2.226-.925h14.317v-2.661h-14.317c-1.617 0-2.988.567-4.113 1.704-1.134 1.148-1.703 2.507-1.703 4.097v9.028c0 1.617.569 2.992 1.703 4.121 1.125 1.132 2.496 1.703 4.113 1.703m-26.273-4.516c-1.641 1.289-3.719 1.938-6.258 1.938-2.519 0-4.597-.621-6.23-1.907-1.789-1.418-2.676-3.355-2.676-5.82 0-2.43.906-4.348 2.73-5.781 1.672-1.332 3.746-1.992 6.176-1.992 2.426 0 4.438.64 6.051 1.922 1.894 1.476 2.848 3.421 2.848 5.851 0 2.449-.883 4.383-2.641 5.789m-6.258-16.137c-3.133 0-5.789.891-7.941 2.661-2.473 1.992-3.707 4.543-3.707 7.668 0 3.148 1.207 5.71 3.648 7.683 2.145 1.762 4.817 2.641 8 2.641 3.199 0 5.852-.871 7.996-2.602 2.434-1.961 3.649-4.535 3.649-7.722 0-3.106-1.223-5.653-3.676-7.668-2.129-1.77-4.781-2.661-7.969-2.661m-44.925 11.891 4.367-8.168c.16-.301.398-.461.738-.461.328 0 .574.16.734.457l4.254 8.172c.176.32.176.629-.015.938a.867.867 0 0 1-.782.437h-8.511a.876.876 0 0 1-.793-.437.936.936 0 0 1 .008-.938m-2.747 5.188c.395-.77 1.016-1.161 1.891-1.161h11.875c.848 0 1.473.391 1.852 1.161 1.105 2.105 1.75 3.293 1.898 3.574h3.312c-7.07-13.344-10.71-20.219-10.949-20.653h-4.105l-10.93 20.653h3.328l1.828-3.574Zm-34.546 3.574h14.32v-2.66h-14.32c-.875 0-1.606-.309-2.227-.93-.617-.629-.926-1.367-.926-2.234v-9.028c0-.844.309-1.605.926-2.215.621-.621 1.352-.925 2.227-.925h14.32v-2.661h-14.32c-1.618 0-2.989.567-4.114 1.704-1.133 1.148-1.699 2.507-1.699 4.097v9.028c0 1.617.566 2.992 1.699 4.121 1.125 1.132 2.496 1.703 4.114 1.703" fill="#1b1918"/></g></g></svg>