<svg version="1.2" xmlns="http://www.w3.org/2000/svg" viewBox="0 0 1546 714" width="1546" height="714">
	<title>601888-svg</title>
	<style>
		.s0 { fill: #9f7b40 } 
	</style>
	<g id="#9f7b40ff">
		<path id="Layer" class="s0" d="m1377.2 2.2c55.5-3.2 111.5-0.7 166.3 9.2 1.3 34.5 1.4 69.2 2.5 103.7v5.5c-12.4-4.3-25.6-4.8-38.6-6-20-1.4-40.1-2.6-60.2-2.7-12.5-0.2-25 2.5-36.2 8-7.8 3.9-16.6 7.5-21.6 15-5.9 8.1-6.9 18.5-7.9 28.1-3.3 47.5-2.6 95.1-3.2 142.6 52.9 0.8 105.9 1.6 158.8 2.3 0 37.2 0 74.4 0 111.7-52.9 0.6-105.8 1.3-158.8 2-0.7 93-1.4 186-2 278.9q-82.7-0.1-165.4 0.1c0.6-149 1.1-297.9 2.1-446.9 0.6-36.7 0.1-73.5 3.4-110.2 1.3-19.7 8.6-38.4 17.4-56 5.4-10.6 11.1-21.3 19.3-30.1 11.4-12.6 24.3-24.2 39.7-31.8 13.5-6.5 27.6-11.8 42-16 13.9-3.5 28.1-6 42.4-7.4z"/>
		<path id="Layer" fill-rule="evenodd" class="s0" d="m951.6 4.6q85 0 170 0c0 232 0 464 0 696q-85-0.2-170 0c0-9 0.2-17.9-0.7-26.8-11.2 4-21.7 9.5-32.6 14.1-19.4 8.2-39.7 14.7-60.3 19.2-21.3 4.1-43 5.8-64.7 6.9h-7.3c-34.4-1.3-69.1-7.3-100.7-21.7-9.4-5.2-18.6-10.8-27.3-17.2-11-7.2-19.9-16.9-28.6-26.6-13.6-15.4-24.9-32.8-33.7-51.4-11.2-21.4-16.6-45.2-22.2-68.5-3-12.2-3.9-24.8-4.8-37.2-2.1-32.2-2-64.7 3.4-96.6 4.1-25.4 12.2-50 22.7-73.4 7.4-16.9 18.1-32.1 29.3-46.5 15.1-19.4 33.4-36 53.3-50.1 16.5-11.2 34.5-19.9 52.9-27.5 21.1-8.7 44.2-10.4 66.8-10.9 16.9-0.5 33.8-0.6 50.6 0.1 34.8 1.1 68.4 11 102 18.8 0.8-7.2 1-14.4 1.1-21.6 1-59.7 0.8-119.4 0.8-179.1zm-94.3 298.4q-3.7 0-7.3 0v1.2q-2.9 0-5.7 0l-0.1 1.1c-2.9 0-5.7 0.8-8.5 1.6q-2 0.7-4.1 1.1v0.8c-0.7 0-2 0.1-2.6 0.2q-1.8 0.8-3.7 1.4-3.1 1.1-6.3 2.1l-0.1 0.6c-0.6 0.3-2 0.9-2.7 1.2-1.6 0.5-3.1 1.1-4.7 1.7q-2.1 1.6-4.3 2.9c-2.1 0.9-4.1 1.9-5.9 3.2-2.1 1.4-3.8 3.1-5.9 4.4-9.7 6.7-18.6 14.5-25.1 24.3q-1.2 1.8-2.2 3.7c-0.4 0.4-1.1 1.3-1.5 1.7-1.3 2.5-2.9 4.9-4.3 7.3-0.2 0.6-0.8 1.7-1.1 2.3-0.2 0.6-0.8 1.7-1.1 2.3-0.3 0.6-0.9 1.7-1.2 2.3-0.3 0.7-0.8 2-1.1 2.6l-0.5 0.1c-0.6 1.8-1.2 3.5-1.8 5.3q-0.7 1.9-1.1 3.9h-0.6q-0.4 2-0.9 4.1-0.7 1.7-1.4 3.4c-0.5 2.5-1.2 4.9-1.6 7.4h-0.8c-0.2 1.9 0 3.9-1.2 5.5q-0.1 1.8-0.2 3.7h-1c-0.1 2.1 0 4.3-0.8 6.4-0.4 1.6-0.7 3.2-1.3 4.8-0.3 1.9-0.1 4.1-1.3 5.8q-0.2 3-0.2 5.9h-1.1c0 2.9 0.3 5.8-0.7 8.6-1.3 3.8 0.8 8.3-1.5 11.9-0.1 6.9-0.3 13.9 0.1 20.8 0.2 0.5 0.7 1.5 0.9 1.9q0 4.8 0 9.6h1.2q0 3 0.1 5.9c1.3 2.3 1.1 5 2 7.4q0.2 1.5 0.5 3.1c0.6 1.5 0.9 3.1 1.3 4.7q0.6 2 1 4.2h0.7c0.2 2.5 1 4.9 1.7 7.4q0.7 2 1.1 4.1h0.8c0 0.6 0.1 1.9 0.2 2.5q0.8 1.8 1.4 3.7 0.5 1.7 1 3.6 1.2 2.2 2.5 4.6c0.5 1.4 0.9 2.8 1.4 4.3 0.3 0.6 1 1.7 1.3 2.3q1 2.3 2.2 4.6c1.1 1.9 2.4 3.7 3.5 5.7 1.6 2.9 3.4 5.6 5.6 8 1.4 2.6 3.8 4.6 5.8 6.8 2.4 5.2 8 7.6 12.4 10.9 1.6 0.9 3.2 2 4.8 3q2.3 1.1 4.6 2.3 1.7 0.5 3.4 1c0.6 0.3 2 0.9 2.7 1.2l0.1 0.5c0.7 0.3 2.1 0.8 2.8 1.1q1.8 0.5 3.6 1.1 1.8 0.6 3.6 1.4c0.6 0.1 1.9 0.2 2.5 0.3v0.9c1.9 0.1 3.9 0 5.6 1.1 2.3 0.3 4.9-0.3 6.9 1.2 3.5 0.2 7 0.2 10.5 0.2l0.1 1.1c6.8-0.3 13.8 1 20.5-1.1 4-0.2 8.1 0.4 11.9-0.9 5.1-0.6 10.4-0.8 15.3-2.5q2.1-0.2 4.1-0.3c1.7-1.1 3.8-1 5.8-1.2 1.5-0.6 3.1-1 4.7-1.3 1.9-0.6 3.8-0.8 5.7-1.1 1.5-0.5 3.1-0.8 4.7-1.2q1.8-0.6 3.6-1.2c1.5-0.4 3-0.7 4.5-1 1.5-0.7 3-1.2 4.5-1.8 2.6-0.6 5.1-1.3 7.7-1.6v-0.8c0.8 0 2.5 0 3.3 0l0.1-1.2c0.7 0 1.9-0.1 2.6-0.2q1.7-0.8 3.6-1.5 2-0.6 4.1-0.9v-0.8c1.7-0.4 5.2 0.7 4.5-2.2 0.2-85.7 0.1-171.4 0.1-257.2-2.2-0.1-4.6 0.4-6.6-0.9-2-0.3-4-0.2-5.8-1.1-1.9-0.3-4.1-0.2-5.8-1.4q-2.9-0.1-5.9-0.1v-1.2q-3.5 0-6.9 0v-1c-2.3-0.2-4.7 0.4-6.7-1-2.3-0.3-4.8 0.2-6.9-1.2-2.3-0.2-4.8 0.3-6.9-1.2-2.7-0.2-5.5-0.2-8.2-0.2l-0.1-1.1q-14.3 0-28.6 0c-1.9 0-3.8-0.1-5.3 1.1z"/>
		<path id="Layer" class="s0" d="m246.3 186.4c19.7-2.4 39.5-2.2 59.3-3 28.9-0.1 57.8 1.7 86.3 6.4 35.4 7.7 70 19.3 104.3 31.1 0 36.6 0.2 73.1-0.6 109.6-0.4 11.9 0.1 23.8-1.9 35.5-17.7-9.8-34-22-51.7-32-4.9-2.6-9.9-5.2-14.8-7.9-12.7-6.9-26.4-11.6-40.1-16-15.6-5.1-31.8-8.9-48.2-9.9-22.8-2.1-45.5 2.7-67.2 9.1-29.1 8.9-55.4 27.5-72.6 52.6-11.7 16.1-17.3 35.6-20.3 55-2.1 19.4-2.6 39-0.2 58.4 1.6 13.2 3.6 26.6 9.1 38.8 6.3 14.4 14.3 28.4 25.6 39.6 9.3 9.2 19.4 17.9 30.9 24.3 16.9 8.9 35.3 15.3 54.4 17.5 11.8 1.6 23.7 3.1 35.7 2.2 14.7-1.1 29.3-2.9 43.5-6.9 22.9-6.4 45.6-15 65.2-28.7 18.4-12.3 35.7-26.2 52.9-40.2-0.8 51.4-1.5 102.8-2.3 154.2-11.2 3.9-22.6 7.7-33.8 11.7-20.1 7-40.8 12.1-61.5 16.8-29.8 6.4-60.4 8.3-90.8 9.4h-5.1c-27.4-1.2-54.8-3.3-81.7-8.5-38.9-8.3-76.1-23.8-111-42.8-18.9-10.4-35.9-24.2-50-40.5-16.1-18.9-30.6-39.6-39.2-63-13.2-31.8-18.9-66.1-20.5-100.4v-4c0.8-21.2 3.4-42.4 7.5-63.3 7.8-32.5 19.7-64.3 37.7-92.7 7.7-11.5 17-21.9 26.7-31.8 12.5-12.6 26.1-24.1 41.2-33.5 25.3-15.3 52.9-26.2 81.1-35 17.2-4.8 34.7-8.2 52.1-12.1z"/>
	</g>
</svg>