<svg version="1.2" xmlns="http://www.w3.org/2000/svg" width="1546" height="714"><style>.s0{fill:#9f7b40}</style><g id="#9f7b40ff"><path id="Layer" class="s0" d="M1377.2 2.2c55.5-3.2 111.5-.7 166.3 9.2 1.3 34.5 1.4 69.2 2.5 103.7v5.5c-12.4-4.3-25.6-4.8-38.6-6-20-1.4-40.1-2.6-60.2-2.7-12.5-.2-25 2.5-36.2 8-7.8 3.9-16.6 7.5-21.6 15-5.9 8.1-6.9 18.5-7.9 28.1-3.3 47.5-2.6 95.1-3.2 142.6 52.9.8 105.9 1.6 158.8 2.3v111.7c-52.9.6-105.8 1.3-158.8 2-.7 93-1.4 186-2 278.9q-82.7-.1-165.4.1c.6-149 1.1-297.9 2.1-446.9.6-36.7.1-73.5 3.4-110.2 1.3-19.7 8.6-38.4 17.4-56 5.4-10.6 11.1-21.3 19.3-30.1 11.4-12.6 24.3-24.2 39.7-31.8 13.5-6.5 27.6-11.8 42-16 13.9-3.5 28.1-6 42.4-7.4z"/><path fill-rule="evenodd" class="s0" d="M951.6 4.6h170v696q-85-.2-170 0c0-9 .2-17.9-.7-26.8-11.2 4-21.7 9.5-32.6 14.1-19.4 8.2-39.7 14.7-60.3 19.2-21.3 4.1-43 5.8-64.7 6.9H786c-34.4-1.3-69.1-7.3-100.7-21.7-9.4-5.2-18.6-10.8-27.3-17.2-11-7.2-19.9-16.9-28.6-26.6-13.6-15.4-24.9-32.8-33.7-51.4-11.2-21.4-16.6-45.2-22.2-68.5-3-12.2-3.9-24.8-4.8-37.2-2.1-32.2-2-64.7 3.4-96.6 4.1-25.4 12.2-50 22.7-73.4 7.4-16.9 18.1-32.1 29.3-46.5 15.1-19.4 33.4-36 53.3-50.1 16.5-11.2 34.5-19.9 52.9-27.5 21.1-8.7 44.2-10.4 66.8-10.9 16.9-.5 33.8-.6 50.6.1 34.8 1.1 68.4 11 102 18.8.8-7.2 1-14.4 1.1-21.6 1-59.7.8-119.4.8-179.1zM857.3 303H850v1.2h-5.7l-.1 1.1c-2.9 0-5.7.8-8.5 1.6q-2 .7-4.1 1.1v.8c-.7 0-2 .1-2.6.2q-1.8.8-3.7 1.4-3.1 1.1-6.3 2.1l-.1.6c-.6.3-2 .9-2.7 1.2-1.6.5-3.1 1.1-4.7 1.7q-2.1 1.6-4.3 2.9c-2.1.9-4.1 1.9-5.9 3.2-2.1 1.4-3.8 3.1-5.9 4.4-9.7 6.7-18.6 14.5-25.1 24.3q-1.2 1.8-2.2 3.7c-.4.4-1.1 1.3-1.5 1.7-1.3 2.5-2.9 4.9-4.3 7.3-.2.6-.8 1.7-1.1 2.3-.2.6-.8 1.7-1.1 2.3-.3.6-.9 1.7-1.2 2.3-.3.7-.8 2-1.1 2.6l-.5.1c-.6 1.8-1.2 3.5-1.8 5.3q-.7 1.9-1.1 3.9h-.6q-.4 2-.9 4.1l-1.4 3.4c-.5 2.5-1.2 4.9-1.6 7.4h-.8c-.2 1.9 0 3.9-1.2 5.5q-.1 1.8-.2 3.7h-1c-.1 2.1 0 4.3-.8 6.4-.4 1.6-.7 3.2-1.3 4.8-.3 1.9-.1 4.1-1.3 5.8q-.2 3-.2 5.9H742c0 2.9.3 5.8-.7 8.6-1.3 3.8.8 8.3-1.5 11.9-.1 6.9-.3 13.9.1 20.8.2.5.7 1.5.9 1.9v9.6h1.2q0 3 .1 5.9c1.3 2.3 1.1 5 2 7.4q.2 1.5.5 3.1c.6 1.5.9 3.1 1.3 4.7q.6 2 1 4.2h.7c.2 2.5 1 4.9 1.7 7.4q.7 2 1.1 4.1h.8c0 .6.1 1.9.2 2.5q.8 1.8 1.4 3.7.5 1.7 1 3.6 1.2 2.2 2.5 4.6c.5 1.4.9 2.8 1.4 4.3.3.6 1 1.7 1.3 2.3q1 2.3 2.2 4.6c1.1 1.9 2.4 3.7 3.5 5.7 1.6 2.9 3.4 5.6 5.6 8 1.4 2.6 3.8 4.6 5.8 6.8 2.4 5.2 8 7.6 12.4 10.9 1.6.9 3.2 2 4.8 3q2.3 1.1 4.6 2.3l3.4 1c.6.3 2 .9 2.7 1.2l.1.5c.7.3 2.1.8 2.8 1.1q1.8.5 3.6 1.1 1.8.6 3.6 1.4c.6.1 1.9.2 2.5.3v.9c1.9.1 3.9 0 5.6 1.1 2.3.3 4.9-.3 6.9 1.2 3.5.2 7 .2 10.5.2l.1 1.1c6.8-.3 13.8 1 20.5-1.1 4-.2 8.1.4 11.9-.9 5.1-.6 10.4-.8 15.3-2.5q2.1-.2 4.1-.3c1.7-1.1 3.8-1 5.8-1.2 1.5-.6 3.1-1 4.7-1.3 1.9-.6 3.8-.8 5.7-1.1 1.5-.5 3.1-.8 4.7-1.2l3.6-1.2c1.5-.4 3-.7 4.5-1 1.5-.7 3-1.2 4.5-1.8 2.6-.6 5.1-1.3 7.7-1.6v-.8h3.3l.1-1.2c.7 0 1.9-.1 2.6-.2q1.7-.8 3.6-1.5 2-.6 4.1-.9v-.8c1.7-.4 5.2.7 4.5-2.2.2-85.7.1-171.4.1-257.2-2.2-.1-4.6.4-6.6-.9-2-.3-4-.2-5.8-1.1-1.9-.3-4.1-.2-5.8-1.4q-2.9-.1-5.9-.1v-1.2H920v-1c-2.3-.2-4.7.4-6.7-1-2.3-.3-4.8.2-6.9-1.2-2.3-.2-4.8.3-6.9-1.2-2.7-.2-5.5-.2-8.2-.2l-.1-1.1h-28.6c-1.9 0-3.8-.1-5.3 1.1z"/><path class="s0" d="M246.3 186.4c19.7-2.4 39.5-2.2 59.3-3 28.9-.1 57.8 1.7 86.3 6.4 35.4 7.7 70 19.3 104.3 31.1 0 36.6.2 73.1-.6 109.6-.4 11.9.1 23.8-1.9 35.5-17.7-9.8-34-22-51.7-32-4.9-2.6-9.9-5.2-14.8-7.9-12.7-6.9-26.4-11.6-40.1-16-15.6-5.1-31.8-8.9-48.2-9.9-22.8-2.1-45.5 2.7-67.2 9.1-29.1 8.9-55.4 27.5-72.6 52.6-11.7 16.1-17.3 35.6-20.3 55-2.1 19.4-2.6 39-.2 58.4 1.6 13.2 3.6 26.6 9.1 38.8 6.3 14.4 14.3 28.4 25.6 39.6 9.3 9.2 19.4 17.9 30.9 24.3 16.9 8.9 35.3 15.3 54.4 17.5 11.8 1.6 23.7 3.1 35.7 2.2 14.7-1.1 29.3-2.9 43.5-6.9 22.9-6.4 45.6-15 65.2-28.7 18.4-12.3 35.7-26.2 52.9-40.2-.8 51.4-1.5 102.8-2.3 154.2-11.2 3.9-22.6 7.7-33.8 11.7-20.1 7-40.8 12.1-61.5 16.8-29.8 6.4-60.4 8.3-90.8 9.4h-5.1c-27.4-1.2-54.8-3.3-81.7-8.5-38.9-8.3-76.1-23.8-111-42.8-18.9-10.4-35.9-24.2-50-40.5-16.1-18.9-30.6-39.6-39.2-63C7.3 527.4 1.6 493.1 0 458.8v-4c.8-21.2 3.4-42.4 7.5-63.3 7.8-32.5 19.7-64.3 37.7-92.7 7.7-11.5 17-21.9 26.7-31.8 12.5-12.6 26.1-24.1 41.2-33.5 25.3-15.3 52.9-26.2 81.1-35 17.2-4.8 34.7-8.2 52.1-12.1z"/></g></svg>