<svg viewBox="0 0 9 6" xmlns="http://www.w3.org/2000/svg"><path d="M3.728.007c.378.035.702.126 1.036.293l.16.08.053-.03A2.784 2.784 0 0 1 6.355 0c.255 0 .467.025.697.082.52.128.964.375 1.347.749.207.202.37.409.5.637l.02.034-.323.167-.414.215-.09.047-.068-.103A2.016 2.016 0 0 0 6.537.935a2.278 2.278 0 0 0-.604.035 1.627 1.627 0 0 0-.217.062c0 .002.022.031.049.064.345.424.56.94.63 1.509.016.136.018.483.004.618a2.898 2.898 0 0 1-.621 1.515c-.078.095-.075.089-.05.098a2.065 2.065 0 0 0 .995.063c.52-.096.987-.403 1.288-.845a3.09 3.09 0 0 1 .056-.081.935.935 0 0 1 .154.068c.162.081.67.344.676.35.009.009-.153.249-.252.374-.094.118-.34.364-.458.457a2.917 2.917 0 0 1-3.192.305l-.074-.04-.09.048c-.453.24-.97.353-1.496.329a3 3 0 0 1-1.202-.328 2.832 2.832 0 0 1-.722-.535 2.75 2.75 0 0 1-.423-.529l-.049-.08.07-.037c.135-.072.752-.388.756-.388.003 0 .029.035.057.077.321.48.824.79 1.412.876.103.015.412.012.524-.004.125-.019.274-.053.37-.084.005-.002-.006-.021-.033-.053a2.945 2.945 0 0 1-.51-.905 2.923 2.923 0 0 1 .474-2.757.778.778 0 0 0 .062-.084c0-.01-.178-.058-.295-.078a2.332 2.332 0 0 0-.628-.009 2.11 2.11 0 0 0-.772.285 2.037 2.037 0 0 0-.608.593l-.071.107-.091-.048a113.446 113.446 0 0 0-.736-.381 3.619 3.619 0 0 1 .153-.245c.139-.199.385-.463.567-.607A2.929 2.929 0 0 1 3.238.007c.11-.01.384-.01.49 0ZM4.92 1.555l-.048.051A1.982 1.982 0 0 0 4.41 3.37c.072.319.236.64.457.893l.05.058.023-.02a2.05 2.05 0 0 0 .53-1.173c.013-.13.006-.396-.015-.514A1.93 1.93 0 0 0 4.97 1.61l-.051-.055Z" fill="#000" fill-rule="nonzero"/></svg>