<?xml version="1.0" encoding="UTF-8" standalone="no"?>
<!-- Created with Inkscape (http://www.inkscape.org/) -->

<svg
   xmlns:dc="http://purl.org/dc/elements/1.1/"
   xmlns:cc="http://creativecommons.org/ns#"
   xmlns:rdf="http://www.w3.org/1999/02/22-rdf-syntax-ns#"
   xmlns:svg="http://www.w3.org/2000/svg"
   xmlns="http://www.w3.org/2000/svg"
   xmlns:sodipodi="http://sodipodi.sourceforge.net/DTD/sodipodi-0.dtd"
   xmlns:inkscape="http://www.inkscape.org/namespaces/inkscape"
   width="218.48914"
   height="62.754681"
   viewBox="0 0 57.808582 16.603842"
   version="1.1"
   id="svg5924"
   inkscape:version="0.92.0 r15299"
   sodipodi:docname="china taiping.svg">
  <defs
     id="defs5918">
    <clipPath
       id="clipPath5573"
       clipPathUnits="userSpaceOnUse">
      <path
         inkscape:connector-curvature="0"
         id="path5571"
         d="m 62.099,750.008 c 0,-11.357 8.096,-20.822 18.833,-22.946 v 0 c 0.271,5.091 0.668,10.96 0.933,15.981 v 0 c -4.041,-1.59 -8.083,-2.581 -12.587,-2.978 v 0 c -0.861,-0.065 -2.123,0.199 -2.457,0.788 v 0 c -0.529,1.131 0.793,1.926 1.656,2.123 v 0 c 4.113,1.064 7.488,2.118 11.138,3.903 v 0 c 0.859,0.53 2.25,1.394 2.447,1.923 v 0 c 0.197,0.526 0.262,2.513 0.262,3.705 v 0 c -2.65,-1.788 -6.626,-2.911 -9.803,-3.046 v 0 c -1.059,-0.064 -3.379,-0.064 -3.51,0.729 v 0 c -0.134,0.403 0.196,0.662 0.463,0.79 v 0 c 3.576,1.458 7.089,2.775 10.267,4.568 v 0 c 2.583,1.392 4.175,3.111 5.769,3.111 v 0 c 1.588,0 3.178,-1.719 5.762,-3.111 v 0 c 3.175,-1.793 6.695,-3.11 10.333,-4.568 v 0 c 0.2,-0.128 0.532,-0.387 0.466,-0.79 v 0 c -0.2,-0.793 -2.515,-0.793 -3.579,-0.729 v 0 c -3.178,0.135 -7.158,1.258 -9.804,3.046 v 0 c 0,-1.192 0.062,-3.179 0.263,-3.705 v 0 c 0.197,-0.529 1.659,-1.393 2.455,-1.923 v 0 c 3.649,-1.785 7.016,-2.839 11.122,-3.903 v 0 c 0.868,-0.197 2.191,-0.992 1.661,-2.123 v 0 c -0.327,-0.589 -1.525,-0.853 -2.448,-0.788 v 0 c -4.504,0.397 -8.545,1.388 -12.593,2.978 v 0 c 0.262,-5.021 0.665,-10.887 0.929,-15.977 v 0 c 10.728,2.129 18.815,11.591 18.815,22.942 v 0 c 0,12.542 -9.869,22.779 -22.263,23.369 v 0 c 0.415,-0.72 0.544,-2.354 0.733,-2.61 v 0 c 0.465,-0.859 3.381,-2.246 4.571,-2.711 v 0 c 1.394,-0.595 2.849,-0.999 4.175,-1.593 v 0 c 0.662,-0.33 1.259,-1.19 0.467,-1.653 v 0 c -1.458,-0.789 -4.105,-0.137 -5.703,0.272 v 0 c -0.659,0.191 -1.321,0.389 -1.986,0.593 v 0 c 1.724,-1.394 3.706,-2.651 5.561,-3.708 v 0 c 1.462,-0.798 2.72,-1.397 4.179,-2.181 v 0 c 0.657,-0.401 1.119,-1.127 0.525,-1.92 v 0 c -0.194,-0.209 -0.525,-0.338 -0.987,-0.338 v 0 c -2.255,0.129 -4.642,1.393 -6.758,2.446 v 0 c -1.996,0.994 -3.974,2.255 -5.773,3.708 v 0 c -0.056,0.071 -0.123,0.071 -0.123,0.071 v 0 c 0,0 -0.072,0 -0.133,-0.071 v 0 c -1.794,-1.453 -3.777,-2.714 -5.762,-3.708 v 0 c -2.12,-1.053 -4.509,-2.317 -6.764,-2.446 v 0 c -0.462,0 -0.794,0.129 -0.999,0.338 v 0 c -0.587,0.793 -0.125,1.519 0.537,1.92 v 0 c 1.46,0.784 2.717,1.383 4.174,2.181 v 0 c 1.854,1.057 3.911,2.314 5.567,3.708 v 0 c -0.661,-0.204 -1.324,-0.402 -1.99,-0.593 v 0 c -1.588,-0.409 -4.238,-1.061 -5.697,-0.272 v 0 c -0.793,0.463 -0.198,1.323 0.466,1.653 v 0 c 1.326,0.594 2.782,0.998 4.168,1.593 v 0 c 1.193,0.465 4.112,1.852 4.572,2.711 v 0 c 0.194,0.256 0.322,1.891 0.738,2.611 v 0 c -12.405,-0.58 -22.288,-10.819 -22.288,-23.37 m 21.484,9.778 c -0.926,0.188 -1.453,0.784 -0.988,1.122 v 0 c 0.726,0.598 1.852,0.656 2.915,0.656 v 0 c 1.056,0 2.184,-0.058 2.911,-0.656 v 0 c 0.465,-0.338 -0.063,-0.934 -0.989,-1.122 v 0 c -0.928,-0.201 -1.263,-0.138 -1.922,-0.138 v 0 c -0.255,0 -0.461,-0.009 -0.671,-0.009 v 0 c -0.337,0 -0.684,0.023 -1.256,0.147 m 7.496,-10.787 c -0.207,0.794 0.66,1.125 1.454,0.725 v 0 c 1.982,-0.993 3.772,-1.451 6.159,-1.779 v 0 c 0.529,-0.075 0.93,-0.333 0.991,-0.797 v 0 c 0.138,-0.662 -0.792,-0.93 -1.261,-0.93 v 0 c -2.578,0.13 -6.887,0.995 -7.343,2.781 m -19.746,-1.851 c 0.059,0.464 0.457,0.722 0.99,0.797 v 0 c 2.385,0.328 4.176,0.786 6.17,1.779 v 0 c 0.784,0.4 1.647,0.069 1.449,-0.725 v 0 c -0.461,-1.786 -4.764,-2.651 -7.352,-2.781 v 0 c -0.468,0 -1.393,0.268 -1.257,0.93" />
    </clipPath>
    <clipPath
       id="clipPath5583"
       clipPathUnits="userSpaceOnUse">
      <path
         inkscape:connector-curvature="0"
         id="path5581"
         d="m 62.098999,773.37775 v -46.31499 h 46.793171 v 46.31499 z" />
    </clipPath>
    <linearGradient
       id="linearGradient5589"
       spreadMethod="pad"
       gradientTransform="matrix(0,16.604399,16.5077,0,86.132653,167.68859)"
       gradientUnits="userSpaceOnUse"
       y2="0"
       x2="1"
       y1="0"
       x1="0">
      <stop
         id="stop5585"
         offset="0"
         style="stop-opacity:1;stop-color:#1969bc" />
      <stop
         id="stop5587"
         offset="1"
         style="stop-opacity:1;stop-color:#27b244" />
    </linearGradient>
  </defs>
  <sodipodi:namedview
     id="base"
     pagecolor="#ffffff"
     bordercolor="#666666"
     borderopacity="1.0"
     inkscape:pageopacity="0.0"
     inkscape:pageshadow="2"
     inkscape:zoom="4.1243437"
     inkscape:cx="108.74457"
     inkscape:cy="30.877676"
     inkscape:document-units="mm"
     inkscape:current-layer="layer1"
     showgrid="false"
     fit-margin-top="0"
     fit-margin-left="0"
     fit-margin-right="0"
     fit-margin-bottom="0"
     units="px"
     inkscape:window-width="1280"
     inkscape:window-height="744"
     inkscape:window-x="-4"
     inkscape:window-y="-4"
     inkscape:window-maximized="1" />
  <metadata
     id="metadata5921">
    <rdf:RDF>
      <cc:Work
         rdf:about="">
        <dc:format>image/svg+xml</dc:format>
        <dc:type
           rdf:resource="http://purl.org/dc/dcmitype/StillImage" />
        <dc:title></dc:title>
      </cc:Work>
    </rdf:RDF>
  </metadata>
  <g
     inkscape:label="Layer 1"
     inkscape:groupmode="layer"
     id="layer1"
     transform="translate(-86.132761,-167.6135)">
    <g
       id="g6065"
       transform="translate(0.13229242,-0.13228837)">
      <path
         d="m 86.132761,176.1225 c 0,4.0065 2.856089,7.34554 6.643863,8.09484 v 0 c 0.0956,-1.79599 0.235656,-3.86645 0.329142,-5.63774 v 0 c -1.425575,0.56091 -2.851503,0.91052 -4.440414,1.05057 v 0 c -0.303741,0.0229 -0.748947,-0.0702 -0.866775,-0.27799 v 0 c -0.186619,-0.39899 0.279753,-0.67945 0.5842,-0.74895 v 0 c 1.450975,-0.37535 2.6416,-0.74718 3.929239,-1.37689 v 0 c 0.303036,-0.18697 0.79375,-0.49177 0.863247,-0.67839 v 0 c 0.0695,-0.18556 0.09243,-0.88653 0.09243,-1.30704 v 0 c -0.934861,0.63077 -2.337505,1.02693 -3.45828,1.07456 v 0 c -0.373592,0.0226 -1.192036,0.0226 -1.23825,-0.25718 v 0 c -0.04727,-0.14216 0.06914,-0.23353 0.163336,-0.27869 v 0 c 1.261533,-0.51435 2.500841,-0.97896 3.621969,-1.61149 v 0 c 0.911225,-0.49107 1.472847,-1.09749 2.035175,-1.09749 v 0 c 0.560211,0 1.121128,0.60642 2.032706,1.09749 v 0 c 1.120069,0.63253 2.361847,1.09714 3.645251,1.61149 v 0 c 0.0706,0.0452 0.18768,0.13653 0.16439,0.27869 v 0 c -0.0706,0.27976 -0.88723,0.27976 -1.262586,0.25718 v 0 c -1.121128,-0.0476 -2.525183,-0.44379 -3.458633,-1.07456 v 0 c 0,0.42051 0.02187,1.12148 0.09278,1.30704 v 0 c 0.0695,0.18662 0.585259,0.49142 0.86607,0.67839 v 0 c 1.287286,0.62971 2.475089,1.00154 3.923589,1.37689 v 0 c 0.30621,0.0695 0.77294,0.34996 0.58597,0.74895 v 0 c -0.11536,0.20779 -0.53799,0.30092 -0.8636,0.27799 v 0 c -1.588912,-0.14005 -3.014487,-0.48966 -4.442531,-1.05057 v 0 c 0.09243,1.77129 0.234597,3.84069 0.32773,5.63633 v 0 c 3.7846,-0.75107 6.637511,-4.08905 6.637511,-8.09343 v 0 c 0,-4.42454 -3.481561,-8.03592 -7.853889,-8.24406 v 0 c 0.146403,0.254 0.191912,0.83044 0.258587,0.92075 v 0 c 0.164041,0.30303 1.192741,0.79234 1.612547,0.95638 v 0 c 0.491772,0.2099 1.005064,0.35242 1.472847,0.56197 v 0 c 0.233539,0.11642 0.444147,0.41981 0.164747,0.58314 v 0 c -0.51435,0.27835 -1.448153,0.0483 -2.011891,-0.0959 v 0 c -0.232481,-0.0674 -0.46602,-0.13723 -0.700617,-0.2092 v 0 c 0.608189,0.49177 1.307394,0.93521 1.961797,1.3081 v 0 c 0.515761,0.28152 0.959556,0.49283 1.474258,0.76941 v 0 c 0.231775,0.14146 0.394759,0.39758 0.185209,0.67733 v 0 c -0.06844,0.0737 -0.185209,0.11924 -0.348192,0.11924 v 0 c -0.795514,-0.0455 -1.637594,-0.49142 -2.384072,-0.86289 v 0 c -0.704145,-0.35066 -1.401939,-0.79552 -2.036586,-1.3081 v 0 c -0.01976,-0.025 -0.04339,-0.025 -0.04339,-0.025 v 0 c 0,0 -0.0254,0 -0.04692,0.025 v 0 c -0.632884,0.51258 -1.332442,0.95744 -2.032706,1.3081 v 0 c -0.747889,0.37147 -1.590675,0.81738 -2.386189,0.86289 v 0 c -0.162983,0 -0.280105,-0.0455 -0.352425,-0.11924 v 0 c -0.20708,-0.27975 -0.0441,-0.53587 0.189442,-0.67733 v 0 c 0.515056,-0.27658 0.958497,-0.48789 1.472494,-0.76941 v 0 c 0.65405,-0.37289 1.379714,-0.81633 1.963914,-1.3081 v 0 c -0.233186,0.072 -0.467078,0.14182 -0.702028,0.2092 v 0 c -0.560211,0.14428 -1.495072,0.3743 -2.009774,0.0959 v 0 c -0.279753,-0.16333 -0.06985,-0.46672 0.164394,-0.58314 v 0 c 0.467783,-0.20955 0.981428,-0.35207 1.470378,-0.56197 v 0 c 0.420864,-0.16404 1.450622,-0.65335 1.6129,-0.95638 v 0 c 0.06844,-0.0903 0.113594,-0.66711 0.26035,-0.92111 v 0 c -4.376209,0.20461 -7.862711,3.81671 -7.862711,8.24442 m 7.579077,-3.44946 c -0.326672,-0.0663 -0.512586,-0.27658 -0.348544,-0.39582 v 0 c 0.256117,-0.21096 0.653344,-0.23142 1.028347,-0.23142 v 0 c 0.372533,0 0.770467,0.0205 1.026936,0.23142 v 0 c 0.164042,0.11924 -0.02223,0.3295 -0.348897,0.39582 v 0 c -0.327378,0.0709 -0.445558,0.0487 -0.678039,0.0487 v 0 c -0.08996,0 -0.16263,0.003 -0.236714,0.003 v 0 c -0.118886,0 -0.2413,-0.008 -0.443089,-0.0519 m 2.644423,3.80541 c -0.07303,-0.2801 0.232833,-0.39687 0.512938,-0.25576 v 0 c 0.699206,0.35031 1.330678,0.51188 2.172759,0.62759 v 0 c 0.186619,0.0265 0.328083,0.11748 0.349602,0.28116 v 0 c 0.04868,0.23354 -0.2794,0.32809 -0.444852,0.32809 v 0 c -0.909461,-0.0459 -2.429581,-0.35102 -2.590447,-0.98108 m -6.96595,0.65299 c 0.02081,-0.16368 0.161219,-0.2547 0.34925,-0.28116 v 0 c 0.841375,-0.11571 1.4732,-0.27728 2.176639,-0.62759 v 0 c 0.276577,-0.14111 0.581024,-0.0243 0.511174,0.25576 v 0 c -0.16263,0.63006 -1.680633,0.93522 -2.593622,0.98108 v 0 c -0.1651,0 -0.491419,-0.0945 -0.443441,-0.32809"
         style="fill:url(#linearGradient5589);stroke:none;stroke-width:0.35277778"
         id="path5591"
         inkscape:connector-curvature="0" />
      <path
         d="m 122.93594,174.91648 h -0.39441 l -0.19367,-0.61912 h -0.7941 l 0.15451,0.61912 h -0.93345 v -1.11866 h 2.00449 v -0.84878 h -2.00449 v -0.83503 h 2.02636 v -0.84949 h -5.00874 v 0.84949 h 1.90747 v 0.83503 h -1.90112 v 0.84878 h 1.90112 v 1.11866 h -1.90747 v 0.85513 h 5.1435 z"
         style="fill:#1969bc;fill-opacity:1;fill-rule:nonzero;stroke:none;stroke-width:0.35277778"
         id="path5603"
         inkscape:connector-curvature="0" />
      <path
         d="m 116.13533,169.92131 v 7.19596 h 7.08131 c 0.60678,0 0.97084,-0.0564 1.09008,-0.1651 0.11783,-0.11324 0.19579,-0.23177 0.23248,-0.35384 0.0388,-0.12453 0.0554,-0.26035 0.0554,-0.41169 v -6.26533 z m 7.3847,6.06002 v 0 c 0,0.12488 -0.0448,0.18379 -0.0804,0.22683 -0.0367,0.0434 -0.11535,0.0614 -0.24341,0.0614 h -5.99052 v -5.50404 h 6.31437 z"
         style="fill:#1969bc;fill-opacity:1;fill-rule:nonzero;stroke:none;stroke-width:0.35277778"
         id="path5607"
         inkscape:connector-curvature="0" />
      <path
         d="m 142.55175,173.33544 -0.75706,-2.05564 -1.391,-0.0264 1.02094,2.55375 c 0.1598,0.36583 0.52352,0.57644 0.68262,0.67875 h -2.27965 v -3.54295 l 3.59022,-0.002 v -0.94544 h -8.40987 v 0.94544 l 3.58775,0.002 v 3.54295 h -2.26836 c 0.15275,-0.10231 0.46249,-0.31292 0.62054,-0.67875 l 1.02058,-2.55375 -1.38924,0.0264 -0.75918,2.05564 c -0.13158,0.34184 -0.60078,0.96979 -0.99448,1.15041 h -0.0522 v 0.97155 l 3.82235,0.003 v 1.67393 h 1.2319 v -1.67393 l 3.82305,-0.003 v -0.97155 h -0.13088 c -0.39123,-0.18062 -0.8382,-0.83679 -0.96802,-1.15041"
         style="fill:#1969bc;fill-opacity:1;fill-rule:nonzero;stroke:none;stroke-width:0.35277778"
         id="path5611"
         inkscape:connector-curvature="0" />
      <path
         d="m 111.66006,170.86989 v -0.94544 h -1.24107 v 0.94544 h -3.60892 v 5.10222 h 3.60892 v 1.15465 h 1.24107 v -1.15465 h 2.82046 c 0.21378,0 0.37959,-0.0476 0.50059,-0.13123 0.1203,-0.0864 0.20426,-0.18238 0.25153,-0.29033 0.048,-0.10654 0.0734,-0.2219 0.0734,-0.35031 v -4.33035 z m -1.24107,4.15325 v 0 h -2.54 v -3.20393 h 2.54 z m 3.80294,-0.24765 v 0 c 0,0.10584 -0.0176,0.17322 -0.0543,0.20214 -0.036,0.0293 -0.14287,0.0455 -0.32208,0.0455 h -2.18546 v -3.20393 h 2.56187 z"
         style="fill:#1969bc;fill-opacity:1;fill-rule:nonzero;stroke:none;stroke-width:0.35277778"
         id="path5615"
         inkscape:connector-curvature="0" />
      <path
         d="m 130.50276,169.89236 h -1.23261 v 1.0481 h -3.79659 v 0.99589 h 3.56235 l -2.46204,3.58493 c -0.10583,0.15875 -0.3429,0.34255 -0.36971,0.36971 -0.15487,0.10372 -0.2861,0.20814 -0.49812,0.23566 -0.048,0 -0.1457,0.0138 -0.23248,0.007 v 0.98778 h 0.31362 c 0.0776,0 0.23918,-0.0116 0.3369,-0.0289 0.16087,-0.0247 0.60502,-0.20708 0.76306,-0.33867 0.18239,-0.15522 0.49848,-0.44414 0.65264,-0.6544 l 1.23261,-1.70215 v 0.75953 c 0.18273,0 0.34078,0 0.47095,0.079 0.1069,0.0268 0.18133,0.13229 0.34008,0.31503 l 0.94474,1.33456 1.25695,0.0275 -1.33668,-1.88807 c -0.52281,-0.68262 -0.62971,-0.75777 -0.99377,-0.78493 h -0.57715 l 1.04811,-1.46544 2.30258,3.11679 c 0.10583,0.13088 0.34113,0.46849 0.60254,0.75459 0.31397,0.31539 0.76165,0.47273 0.96873,0.47273 0.21061,0.0286 0.34113,0.008 0.50024,0.008 v -0.96696 c -0.13124,0 -0.20991,-0.0109 -0.34361,-0.0646 -0.26105,-0.10477 -0.57362,-0.54469 -0.7553,-0.756 l -2.49025,-3.4029 h 3.61279 v -0.99589 h -3.82058 z"
         style="fill:#1969bc;fill-opacity:1;fill-rule:nonzero;stroke:none;stroke-width:0.35277778"
         id="path5619"
         inkscape:connector-curvature="0" />
      <path
         d="m 108.45686,179.78537 c -0.29774,0 -0.51082,0.084 -0.64241,0.25259 -0.133,0.16369 -0.19755,0.43815 -0.19755,0.82409 0,0.32984 0.0614,0.56338 0.18203,0.69779 0.12559,0.13829 0.34466,0.2099 0.65793,0.2099 h 1.19274 v 0.52353 h -1.22555 c -0.27869,0 -0.4893,-0.0205 -0.63676,-0.061 -0.1464,-0.0388 -0.29104,-0.10831 -0.43321,-0.20567 -0.17604,-0.11959 -0.30974,-0.27729 -0.39794,-0.47026 -0.0903,-0.19685 -0.1337,-0.43391 -0.1337,-0.71578 0,-0.53411 0.13229,-0.9264 0.39582,-1.18745 0.26529,-0.25294 0.67239,-0.38135 1.22766,-0.38135 h 1.20368 v 0.51364 z"
         style="fill:#1969bc;fill-opacity:1;fill-rule:nonzero;stroke:none;stroke-width:0.35277778"
         id="path5623"
         inkscape:connector-curvature="0" />
      <path
         d="m 110.89753,179.27168 v 1.2252 h 1.33244 v -1.2252 h 0.71896 v 3.02154 h -0.71896 v -1.26577 h -1.33244 v 1.26577 h -0.71931 v -3.02154 z"
         style="fill:#1969bc;fill-opacity:1;fill-rule:nonzero;stroke:none;stroke-width:0.35277778"
         id="path5627"
         inkscape:connector-curvature="0" />
      <path
         inkscape:connector-curvature="0"
         id="path5629"
         style="fill:#1969bc;fill-opacity:1;fill-rule:nonzero;stroke:none;stroke-width:0.35277778"
         d="m 114.41637,182.29329 h -0.75847 v -3.02154 h 0.75847 z" />
      <path
         d="m 115.13275,179.27168 h 0.91581 l 1.41076,2.16817 -0.036,-2.16817 h 0.73907 v 3.02154 h -0.83679 l -1.48202,-2.28776 0.0342,2.28776 h -0.74507 z"
         style="fill:#1969bc;fill-opacity:1;fill-rule:nonzero;stroke:none;stroke-width:0.35277778"
         id="path5633"
         inkscape:connector-curvature="0" />
      <path
         d="m 120.61004,179.27168 h -0.77364 l -1.45274,3.02154 h 0.77047 l 0.3048,-0.72108 h 1.49366 l 0.32173,0.72108 h 0.80222 z m -0.91405,1.76036 v 0 l 0.49918,-1.15958 0.52741,1.15958 z"
         style="fill:#1969bc;fill-opacity:1;fill-rule:nonzero;stroke:none;stroke-width:0.35277778"
         id="path5637"
         inkscape:connector-curvature="0" />
      <path
         d="m 124.91677,179.79908 h -1.10666 v -0.5274 h 2.98485 v 0.5274 h -1.12677 v 2.49414 h -0.75142 z"
         style="fill:#1969bc;fill-opacity:1;fill-rule:nonzero;stroke:none;stroke-width:0.35277778"
         id="path5641"
         inkscape:connector-curvature="0" />
      <path
         d="m 128.66507,179.27168 h -0.77399 l -1.45274,3.02154 h 0.76729 l 0.30833,-0.72108 h 1.49472 l 0.32314,0.72108 h 0.79869 z m -0.91228,1.76036 v 0 l 0.50094,-1.15958 0.52529,1.15958 z"
         style="fill:#1969bc;fill-opacity:1;fill-rule:nonzero;stroke:none;stroke-width:0.35277778"
         id="path5645"
         inkscape:connector-curvature="0" />
      <path
         inkscape:connector-curvature="0"
         id="path5647"
         style="fill:#1969bc;fill-opacity:1;fill-rule:nonzero;stroke:none;stroke-width:0.35277778"
         d="m 131.24564,182.29329 h -0.75495 v -3.02154 h 0.75495 z" />
      <path
         d="m 134.89897,179.77029 c -0.0434,-0.0765 -0.0889,-0.14534 -0.14499,-0.19967 -0.06,-0.0515 -0.12665,-0.10195 -0.2092,-0.14535 -0.0861,-0.0504 -0.20814,-0.0871 -0.37112,-0.11324 -0.16369,-0.0243 -0.375,-0.0402 -0.63324,-0.0402 h -1.5755 v 3.02118 h 0.72108 v -1.05904 h 0.88406 c 0.28363,0 0.50482,-0.0141 0.65687,-0.042 0.14852,-0.0303 0.28222,-0.0776 0.40111,-0.14816 0.12417,-0.0822 0.2226,-0.1905 0.2988,-0.32526 0.0628,-0.13018 0.0942,-0.28399 0.0942,-0.46108 0,-0.18768 -0.0402,-0.34996 -0.12206,-0.48719 m -0.83114,0.82409 v 0 c -0.0617,0.0377 -0.12842,0.067 -0.20144,0.0815 -0.0801,0.0166 -0.17463,0.0257 -0.29633,0.0257 H 132.686 v -0.88688 h 0.84172 c 0.25294,0 0.4311,0.0325 0.54011,0.0995 0.0998,0.0709 0.15098,0.18662 0.15098,0.34326 0,0.14569 -0.0511,0.25964 -0.15098,0.3369"
         style="fill:#1969bc;fill-opacity:1;fill-rule:nonzero;stroke:none;stroke-width:0.35277778"
         id="path5651"
         inkscape:connector-curvature="0" />
      <path
         inkscape:connector-curvature="0"
         id="path5653"
         style="fill:#1969bc;fill-opacity:1;fill-rule:nonzero;stroke:none;stroke-width:0.35277778"
         d="m 136.27766,182.29329 h -0.75495 v -3.02154 h 0.75495 z" />
      <path
         d="m 136.99696,179.27168 h 0.91405 l 1.41146,2.16817 -0.0349,-2.16817 h 0.74012 v 3.02154 h -0.83925 l -1.48026,-2.28776 0.03,2.28776 h -0.74119 z"
         style="fill:#1969bc;fill-opacity:1;fill-rule:nonzero;stroke:none;stroke-width:0.35277778"
         id="path5657"
         inkscape:connector-curvature="0" />
      <path
         d="m 141.96544,181.0319 v -0.53128 h 1.71132 v 1.79246 h -1.55081 c -0.28081,0 -0.49283,-0.0201 -0.64487,-0.0607 -0.15135,-0.0392 -0.30304,-0.10865 -0.45015,-0.20602 -0.17427,-0.11959 -0.30515,-0.27693 -0.3944,-0.47166 -0.0903,-0.19509 -0.13547,-0.43251 -0.13547,-0.71791 0,-0.53057 0.13547,-0.92251 0.40287,-1.18357 0.26317,-0.25294 0.67028,-0.3817 1.22202,-0.3817 h 1.55081 v 0.514 h -1.55081 c -0.28222,0 -0.49283,0.0801 -0.62265,0.24094 -0.13264,0.16052 -0.19755,0.42087 -0.19755,0.77823 0,0.33055 0.0649,0.56727 0.19755,0.71755 0.12982,0.14781 0.33761,0.22366 0.62265,0.22366 h 0.81139 v -0.71402 z"
         style="fill:#1969bc;fill-opacity:1;fill-rule:nonzero;stroke:none;stroke-width:0.35277778"
         id="path5661"
         inkscape:connector-curvature="0" />
    </g>
  </g>
</svg>
