<svg viewBox="0 0 24 24" xmlns="http://www.w3.org/2000/svg"><path d="M15.17 4.282s-.418-.464-.972-.464c0 0-1.212 0-2.034 2.618 0 0-.703 2.288-.703 5.684 0 0 0 3.2.658 5.46 0 0 .658 2.288 1.615 2.288 0 0 .673 0 1.242-1.257 0 0 .568-1.256.808-3.305l1.794-.449s-.463 3.814-1.9 6.282c0 0-1.48 2.483-3.35 2.483 0 0-2.243 0-3.829-3.365 0 0-1.585-3.366-1.585-8.137 0 0 0-4.772 1.585-8.167 0 0 1.586-3.38 3.83-3.38 0 0 2.243 0 3.843 3.44l-1.002.269m6.312 4.592s-3.096 2.558-8.032 3.8c0 0-4.95 1.226-8.885.418 0 0-3.933-.838-4.517-3.246 0 0-.493-2.004 1.676-4.218 0 0 2.138-2.199 5.982-3.664l.255.987s-2.244.957-3.485 2.169c0 0-1.272 1.27-.988 2.363 0 0 .374 1.39 3.007 1.81 0 0 2.617.403 6.013-.434 0 0 3.365-.838 5.52-2.438 0 0 2.123-1.616 1.764-3.022 0 0-.3-1.211-2.453-1.735L17.01.378s2.797.105 4.652 1.032c0 0 1.9.927 2.288 2.498 0 0 .614 2.393-2.468 4.966" fill="#02489d"/></svg>