<svg viewBox="0 0 8 8" xmlns="http://www.w3.org/2000/svg" xmlns:xlink="http://www.w3.org/1999/xlink"><defs><radialGradient cx="49.978%" cy="47.609%" fx="49.978%" fy="47.609%" r="54.448%" gradientTransform="matrix(.83717 0 0 1 .081 0)" id="b"><stop stop-color="#FFF" offset="0%"/><stop stop-color="#FFF" offset="7%"/><stop stop-color="#F2D4DA" offset="38%"/><stop stop-color="#EFCBD1" offset="42%"/><stop stop-color="#DB8D98" offset="69%"/><stop stop-color="#CF6675" offset="90%"/><stop stop-color="#CA5767" offset="100%"/></radialGradient><radialGradient cx="46.016%" cy="18.991%" fx="46.016%" fy="18.991%" r="92.216%" gradientTransform="matrix(.9316 0 0 1 .031 0)" id="e"><stop stop-color="#CA5767" offset="0%"/><stop stop-color="#CA5767" offset="21%"/><stop stop-color="#CC5D6C" offset="31%"/><stop stop-color="#D16C7B" offset="43%"/><stop stop-color="#D98793" offset="58%"/><stop stop-color="#E5ABB4" offset="73%"/><stop stop-color="#F2D4DA" offset="87%"/><stop stop-color="#F2D4DA" offset="100%"/></radialGradient><radialGradient cx="51.056%" cy="31.266%" fx="51.056%" fy="31.266%" r="97.619%" gradientTransform="matrix(1 0 0 .9368 0 .02)" id="h"><stop stop-color="#CA5767" offset="0%"/><stop stop-color="#CB5B6B" offset="11%"/><stop stop-color="#D06877" offset="22%"/><stop stop-color="#D77E8B" offset="34%"/><stop stop-color="#E09CA7" offset="47%"/><stop stop-color="#EDC3CA" offset="59%"/><stop stop-color="#F2D4DA" offset="64%"/><stop stop-color="#F4DBE0" offset="75%"/><stop stop-color="#FAF0F2" offset="91%"/><stop stop-color="#FFF" offset="100%"/></radialGradient><radialGradient cx="40.23%" cy="11.993%" fx="40.23%" fy="11.993%" r="70.369%" gradientTransform="matrix(.96857 0 0 1 .013 0)" id="k"><stop stop-color="#FFF" offset="0%"/><stop stop-color="#F2D4DA" offset="41%"/><stop stop-color="#EFCBD1" offset="45%"/><stop stop-color="#DB8D98" offset="71%"/><stop stop-color="#CF6675" offset="90%"/><stop stop-color="#CA5767" offset="100%"/></radialGradient><radialGradient cx="98.468%" cy="54.832%" fx="98.468%" fy="54.832%" r="92.319%" gradientTransform="matrix(1 0 0 .82419 0 .096)" id="n"><stop stop-color="#FFF" offset="0%"/><stop stop-color="#FFF" offset="7%"/><stop stop-color="#F2D4DA" offset="43%"/><stop stop-color="#EFCBD1" offset="46%"/><stop stop-color="#DB8D98" offset="72%"/><stop stop-color="#CF6675" offset="90%"/><stop stop-color="#CA5767" offset="100%"/></radialGradient><radialGradient cx="130.969%" cy="-.34%" fx="130.969%" fy="-.34%" r="163.457%" gradientTransform="matrix(.87426 0 0 1 .165 0)" id="q"><stop stop-color="#CA5767" offset="0%"/><stop stop-color="#CA5767" offset="31%"/><stop stop-color="#CD606F" offset="37%"/><stop stop-color="#D57886" offset="48%"/><stop stop-color="#E1A0AA" offset="61%"/><stop stop-color="#F2D4DA" offset="76%"/><stop stop-color="#F2D4DA" offset="100%"/></radialGradient><radialGradient cx="49.845%" cy="52.069%" fx="49.845%" fy="52.069%" r="62.074%" gradientTransform="matrix(.91197 0 0 1 .044 0)" id="t"><stop stop-color="#FFF" offset="0%"/><stop stop-color="#FFF" offset="9%"/><stop stop-color="#F2D4DA" offset="37%"/><stop stop-color="#EEC8CF" offset="40%"/><stop stop-color="#E1A0AA" offset="50%"/><stop stop-color="#D7808D" offset="59%"/><stop stop-color="#D06978" offset="69%"/><stop stop-color="#CB5C6B" offset="78%"/><stop stop-color="#CA5767" offset="85%"/><stop stop-color="#CA5767" offset="100%"/></radialGradient><path d="M4.243.003c-.13.035-.264.049-.397.04a1.032 1.032 0 0 0-.434.023c-.133.045-.21.163-.335.225-.126.062-.29.02-.42.1-.246.15-.24.527-.358.765-.133.26-.074.667-.319.865a.105.105 0 0 1-.036.017h-.047c-.115 0-.452-.196-.6-.203-.079 0-.117.038-.186.045a.429.429 0 0 1-.093 0 .565.565 0 0 0-.093 0 .975.975 0 0 0-.317.1.798.798 0 0 0-.256.185c-.1.108-.087.148-.145.267-.123.267-.247.382-.194.689.045.265.23.536.379.768.172.267.524.296.763.53.087.084.186.185.263.271.077.087.295.308.31.39.015.082-.119.36-.156.437-.072.166-.157.21-.059.41.118.237.454.387.65.556.26.227.65.143.97.093.321-.05.63-.1.888-.37.135-.138.193-.28.418-.203.168.057.23.176.41.202.18.026.317.014.474.074.178.069.217.14.416.06.234-.092.65-.194.812-.427.05-.072.041-.165.077-.235.024-.05.112-.126.126-.165.04-.16.045-.328.012-.49-.022-.076-.107-.107-.127-.16-.027-.072 0-.165-.03-.238-.067-.185-.23-.354-.112-.435.02-.01.263 0 .402-.085.257-.151.337-.464.544-.656.125-.114.226-.16.287-.334.05-.145.093-.306.14-.464.104-.355-.023-.541-.326-.704-.138-.074-.221-.203-.359-.263a2.378 2.378 0 0 0-.45-.116c-.171-.03-.323-.025-.485-.066a1.187 1.187 0 0 0-.452-.015c-.165.024-.295.102-.345-.12-.03-.141.028-.308 0-.455-.04-.218-.175-.606-.398-.712-.13-.063-.278-.018-.423-.097A.537.537 0 0 0 4.324 0h-.081" id="a"/><path d="M2.198 0c-.022 0-.044 0-.069.01-.129.036-.263.05-.396.04-.026 0-.118-.006-.153-.007a.858.858 0 0 0-.278.034c-.137.04-.214.159-.34.22C.839.36.674.319.543.399c-.245.15-.238.527-.356.764-.099.196-.093.47-.186.68.007.076.021.15.043.223.037.118.264.11.222.336l.01.037c.185.607 1.266.457 1.577.22.156-.122.456-.22.578-.371.104-.135.447-.242.533-.385.134-.225.308-.525.291-.73a1.206 1.206 0 0 0-.732-1.06C2.382.045 2.337 0 2.214 0h-.016" id="d"/><path d="m2.07.002-.072.01a1.24 1.24 0 0 1-.413.045c-.025 0-.128-.009-.158-.012a.864.864 0 0 0-.29.035C.995.123.917.242.79.308.66.374.487.328.35.411.214.494.053.789.002 1.163c-.016.125.07.241.053.382-.073.608.1.47.225.716.242.458.218.598.098.573.134.162.258.371.158.5.413.092.938-.025 1.14-.18.165-.127.39-.25.517-.409.113-.14.314-.58.406-.73.142-.23.295-.278.405-.707.185-.716-.18-1.02-.565-1.185A1.391 1.391 0 0 0 2.084 0h-.012" id="g"/><path d="M2.179.018c-.255.065-.714.005-.937.157a1.348 1.348 0 0 0-.476.538c-.232.255-.483.477-.624.675a.827.827 0 0 0-.085.764c.278.557.983.735 1.519.565.52-.117 1.157-.265 1.23-.957.036-.343.132-.696.018-1.012C2.74.516 2.72 0 2.315 0a.633.633 0 0 0-.136.018" id="j"/><path d="M.005.99c-.005.25.196.522.307.736.16.312.305.325.587.477.227.115.411.3.522.53.346.665.722.045 1.02-.198a.981.981 0 0 0 .295-.874 1.182 1.182 0 0 0-.362-.592l.102.067c-.129-.125-.03-.283-.087-.436-.05-.134-.13-.298-.202-.448-.107-.222-.23-.167-.34-.11a.257.257 0 0 1-.16.047 4.86 4.86 0 0 1-.481-.137A.747.747 0 0 0 .928 0C.448 0 .015.464 0 .986" id="m"/><path d="M1.501.011c-.144.04-.279.109-.397.201C.99.305.92.53.805.597.54.721.532.783.387 1.016.267 1.2.118 1.47 0 1.677c-.001.08.005.159.02.237.024.129.172.336.169.449l.005-.045c.122.657 1.462.857 1.214.536-.636-.828.356-1.233.481-1.08.777.968 1.092.4 1.166.3.155-.19.266-.411.325-.65C3.628.053 2.857.243 2.423.053a.608.608 0 0 0-.07 0c-.136.02-.275.017-.41-.01L1.867.025A.955.955 0 0 0 1.5.011" id="p"/><path d="M3.486.002a.899.899 0 0 0-.103.12.45.45 0 0 1-.192.207.59.59 0 0 0-.186.122c-.05.06-.095.121-.138.185-.088.126-.259.155-.412.157h-.108c-.211.137-.433.215-.636.166-.124-.031-.278-.254-.399-.236-.12.017.067.079-.026.185-.093.107-.232.02-.32-.073C.904.773.861.709.855.71.83.719.86.784.856.815.85.88.79.92.784.988a.36.36 0 0 0 .011.137.494.494 0 0 1 .027.16c0 .118 0 .08-.007.196-.01.23-.106.327-.162.557-.062.248.196.38-.114.845-.103.154-.567.371-.538.557.13-.022.204-.169.297-.264.224-.224.835-.464 1.189-.477.37-.017.015.397.12.477.103.081-.103.296.012.242.115-.055.279-.6.347-.732.043-.088.632-1.454.65.608 0 .197.117.291.063.482-.026.092-.371.584.197.528.075-.43-.25-.735-.08-.946.088-.112.403-.132.397-.278-.013-.32.134-.312.27-.304.085 0 .165.009.2-.064a.928.928 0 0 1 .093-.166c-.006 0-.013-.01-.016-.048-.015-.142.111-.144.053-.278.135.032.171-.101.284-.132a.958.958 0 0 1 .309 0c.185.03.278.334.318.316.043-.065-.062-.228-.16-.318a2.535 2.535 0 0 1-.24-.311c-.093-.124-.034-.293-.174-.363a.16.16 0 0 0-.118-.008.352.352 0 0 1-.279-.063c-.742.525-.114-.266-.158-.463-.093-.256-.29-.33-.08-.878h-.007" id="s"/></defs><g fill="none" fill-rule="evenodd"><path d="M4.542 0a.377.377 0 0 1 .192.065.6.6 0 0 0 .314.105.495.495 0 0 1 .219.042c.242.114.38.523.421.75a.815.815 0 0 1 0 .237.708.708 0 0 0 0 .217c.027.118.072.12.103.12a.557.557 0 0 0 .106-.017c.029-.006.056-.013.093-.017a1.086 1.086 0 0 1 .461.014c.089.02.18.033.27.039.068.005.138.013.211.026.158.024.314.064.464.118a.733.733 0 0 1 .201.141c.049.048.103.09.163.124.348.185.45.405.347.757-.012.034-.02.072-.032.108-.033.118-.07.242-.109.354a.563.563 0 0 1-.215.278c-.026.02-.054.044-.082.07a1.34 1.34 0 0 0-.21.278 1.068 1.068 0 0 1-.342.384.704.704 0 0 1-.366.088h-.023c-.058.029.005.152.047.227a.891.891 0 0 1 .072.149.428.428 0 0 1 .017.133.31.31 0 0 0 .012.103c.011.017.025.032.041.045.04.03.07.07.087.118.036.173.032.352-.012.524a.382.382 0 0 1-.068.093.557.557 0 0 0-.061.076.503.503 0 0 0-.025.086.383.383 0 0 1-.055.155c-.138.198-.433.302-.67.385-.06.02-.115.04-.162.06a.452.452 0 0 1-.167.038.399.399 0 0 1-.186-.054c-.029-.013-.06-.03-.1-.044a1.069 1.069 0 0 0-.3-.056c-.053 0-.106-.008-.165-.016a.557.557 0 0 1-.251-.114l-.03-.02h-.01a.332.332 0 0 1-.226-.066c-.131.18-.313.316-.523.39-.15.08-.314.132-.482.157l-.105.033c-.137.043-.28.064-.423.063-.053 0-.108 0-.16-.008a.758.758 0 0 1-.464-.133 1.173 1.173 0 0 1-.337-.243 1.039 1.039 0 0 1-.358-.354.318.318 0 0 1 .011-.36.981.981 0 0 0 .046-.092l.013-.029c.057-.116.103-.238.136-.363-.11-.034-.209-.134-.298-.307a1.424 1.424 0 0 0-.133-.219 1.178 1.178 0 0 0-.078-.084l-.057-.052a1.256 1.256 0 0 0-.346-.22 1.323 1.323 0 0 1-.312-.193.742.742 0 0 1-.164-.214c-.144-.223-.284-.457-.325-.691A.707.707 0 0 1 .25 2.68c.022-.048.047-.096.074-.141.014-.025.025-.05.036-.07a.873.873 0 0 0 .037-.093.464.464 0 0 1 .116-.191.843.843 0 0 1 .268-.198 1.007 1.007 0 0 1 .435-.108c.022.006.045.01.068.01h.013a.172.172 0 0 0 .07-.024.237.237 0 0 1 .115-.02h.01c.107.006.486.2.594.203a.218.218 0 0 0 .039 0 .075.075 0 0 0 .027-.015.435.435 0 0 0 .113-.164c0-.005.005-.012.008-.017l.015-.038c0-.014.009-.027.011-.041a2.04 2.04 0 0 0 .051-.228c.006-.022.008-.044.012-.064v-.018l.005-.024v-.1c0-.006 0-.012.006-.019a.098.098 0 0 1 .005-.018v-.005c0-.007.005-.013.007-.019 0-.005.005-.012.007-.017v-.005a.151.151 0 0 1 .008-.018c0-.005.005-.01.008-.017 0-.005.005-.012.008-.017.053-.09.095-.186.127-.286.053-.2.108-.404.284-.513a.51.51 0 0 1 .238-.06.525.525 0 0 0 .185-.04.749.749 0 0 0 .132-.093.588.588 0 0 1 .238-.14h.007l.03-.008.022-.005h.006L3.71.055H4.042a.983.983 0 0 0 .301-.026c.065-.016.132-.026.199-.029" fill="#CA5766"/><g transform="translate(.192 .05)"><mask id="c" fill="#fff"><use xlink:href="#a"/></mask><path fill="url(#b)" fill-rule="nonzero" mask="url(#c)" d="M-.044 0h8.016v6.711H-.044z"/></g><g transform="translate(2.306 .043)"><mask id="f" fill="#fff"><use xlink:href="#d"/></mask><path fill="url(#e)" fill-rule="nonzero" mask="url(#f)" d="M0 0h3.268v3.045H0z"/></g><g transform="translate(2.541 .119)"><mask id="i" fill="#fff"><use xlink:href="#g"/></mask><path fill="url(#h)" fill-rule="nonzero" mask="url(#i)" d="M-.018.001h3.204v3.42H-.018z"/></g><g transform="translate(1.818 3.913)"><mask id="l" fill="#fff"><use xlink:href="#j"/></mask><path fill="url(#k)" fill-rule="nonzero" mask="url(#l)" d="M-.043 0h2.981v2.887H-.043z"/></g><g transform="translate(.194 2.09)"><mask id="o" fill="#fff"><use xlink:href="#m"/></mask><path fill="url(#n)" fill-rule="nonzero" mask="url(#o)" d="M0 .004h2.801v3.398H0z"/></g><g transform="translate(4.342 1.618)"><mask id="r" fill="#fff"><use xlink:href="#p"/></mask><path fill="url(#q)" fill-rule="nonzero" mask="url(#r)" d="M-.002 0h3.63v3.174h-3.63z"/></g><g transform="translate(1.95 1.827)"><mask id="u" fill="#fff"><use xlink:href="#s"/></mask><path fill="url(#t)" fill-rule="nonzero" mask="url(#u)" d="M-.026-.002h4.774v4.354H-.026z"/></g><path d="M3.1 4.465c-.077-.055 0-.252.093-.35.092-.097.233-.258.195-.278-.037-.02-.195.018-.245 0-.05-.019.278-.148.312-.165.035-.018-.233-.093-.33-.105-.1-.012-.3.018-.28-.024.022-.043.137-.099.16-.123.024-.024-.153-.117-.165-.16-.012-.042.037-.086.221-.043.138.022.278.037.417.044.054.01.106.029.154.054.03.019.051-.048.077-.038.026.01.084.048.093.01a.217.217 0 0 0-.077-.151.7.7 0 0 1-.151-.167c-.01-.033-.05-.112 0-.13.05-.017.085 0 .111-.012.026-.013.07-.08.136-.05.042.016.081.04.117.068.027.02.06.025.092.015.031-.01.082-.071.14-.036.057.035.161.119.255.1a.234.234 0 0 0 .174-.122c.04-.091.087-.18.14-.264.032-.032.115-.098.103-.072a.875.875 0 0 0-.093.302c0 .093-.015.117.015.14.03.02.07.02.1 0 .034-.016.088-.053.093-.03.006.022-.185.153-.244.21-.058.058-.115.169-.086.214.029.046.138.025.194.025.055 0 .174.008.16.036-.016.028-.216.161-.216.185 0 .024.122.067.186.069.098.008.196.022.293.043.063.015.116.013.129.048.013.035.032.066.009.069a.88.88 0 0 1-.204-.036 1.798 1.798 0 0 0-.333-.068c-.054 0-.21 0-.238.05-.027.05.093.092.113.112.02.02.12.121.06.13-.058.01-.105-.032-.127-.04a1.137 1.137 0 0 1-.137-.087c-.023-.018-.122-.125-.17-.12a.539.539 0 0 0-.201.059.785.785 0 0 0-.15.14c-.032.04-.167.125-.222.17-.056.046-.361.288-.416.33-.055.041-.195.092-.258.05" fill="#FFF"/><path d="M3.98 2.652a.22.22 0 0 1 .006-.16c.016-.043.146-.283.278-.238.052.01.094.05.108.1.027.093.03.243-.045.317a.242.242 0 0 1-.35-.019M3.345 2.944a.146.146 0 0 0 .093-.092c.012-.05.112-.055.117-.075.004-.019-.103-.285-.162-.308-.058-.024-.093.018-.155.013-.048 0-.093-.025-.121.03-.045.08-.128.185-.063.277.066.093.165.18.286.156M4.863 3.154a.058.058 0 0 1-.083.01c.072-.08.155-.15.246-.207.034-.038.006-.197.025-.251.018-.054.185-.166.255-.128a.216.216 0 0 1 .093.064.415.415 0 0 1-.013.384c-.019.061-.128.051-.177.056-.065.006-.128-.044-.186-.006a.928.928 0 0 0-.16.078M4.132 3.381c.022-.04 0-.098 0-.14 0-.043.019-.087-.021-.107a.408.408 0 0 0 0 .246c0 .01.015 0 .016 0M2.636 3.597a.416.416 0 0 1 .293-.185c0-.015-.03-.027-.042-.027a.315.315 0 0 1-.186-.12c-.093-.116-.151-.21-.309-.161-.158.048-.172.325-.125.458a.208.208 0 0 0 .371.037M5.923 3.392c.171-.064.31.02.226.162-.043.073-.029.159-.078.232a.186.186 0 0 1-.205.065.577.577 0 0 1-.2-.11c-.053-.055-.068-.099-.154-.121-.14-.037-.292 0-.429-.054.155-.079.333.006.497 0 .07 0 .12-.13.343-.17M5.078 3.566a.117.117 0 0 0-.122 0c.04.01.082.01.122 0M2.974 4.06c-.156-.186-.485.167-.51.19-.025.024-.086.07-.093.093-.02.074.15.172.204.203.07.041.13.145.225.071.096-.074.103-.137.128-.248a.507.507 0 0 1 .137-.267c.083-.06.16-.13.23-.206-.151-.01-.21.112-.321.16M5.3 3.26c-.03-.13-.24.005-.293-.007.06.017.148.012.228.024.022.006.07.008.065-.018M4.393 3.94c.06.033.08.115.141.151.062.033.122.07.18.11.028.022.059.121.012.143-.069.034-.093-.098-.127.012s-.169.162-.195.279c-.016.08-.074.193-.022.271a.093.093 0 0 0 .07.04c.045-.001.09.012.127.037a.186.186 0 0 0 .19.026.228.228 0 0 0 .145-.163 2.032 2.032 0 0 1-.038-.258c0-.093.042-.14 0-.227a.4.4 0 0 0-.129-.154c-.047-.035-.064-.101-.098-.15a2.116 2.116 0 0 0-.194-.21.172.172 0 0 0-.135-.063.326.326 0 0 0-.192.118c-.06.059-.125.114-.193.164-.063.061-.05.154-.082.23a.828.828 0 0 0-.085.213c.043-.025.073-.092.1-.131a.852.852 0 0 1 .061-.087c.023-.03.06-.03.087-.054.076-.074.083-.165.132-.247a.219.219 0 0 1 .244-.05M5.82 4.68a.402.402 0 0 1-.01-.142.223.223 0 0 0-.034-.161c-.032-.062-.131-.21-.22-.17-.031.013-.06.051-.099.03-.038-.022-.058-.066-.114-.086-.056-.02-.104-.024-.156-.038a.608.608 0 0 0-.107-.022c.034.072.152.117.21.165.126.105.066.225.059.36a.215.215 0 0 0 .012.137c.028.041.133.049.157.063.062.03.132.038.199.023a.238.238 0 0 0 .104-.16M4.413 5.905c.038-.009.092.031.172.063a.7.7 0 0 0 .218.054c.084.016.16.06.214.126.03.076.03.16 0 .237a.395.395 0 0 0-.07.316c.034.154.1.211-.013.2a1.135 1.135 0 0 1-.26-.065.389.389 0 0 1-.227-.115c-.07-.087-.115-.071-.23-.141-.115-.07-.186-.218-.128-.278.057-.06.234-.221.255-.256.021-.036.056-.134.071-.138M6.697 4.998c0-.035.084-.093.093-.113a.857.857 0 0 0-.007-.218c-.016-.057-.026-.121.017-.15a.307.307 0 0 1 .232-.035c.072.031.13.059.195.083.066.024.238.116.267.177.03.061.072.133.026.2-.045.066-.045.117-.08.147a1.289 1.289 0 0 0-.17.154c-.048.061-.084.186-.142.217-.059.032-.174.064-.207.023a.263.263 0 0 1-.043-.164c.008-.035.093-.102.069-.16-.024-.057-.079-.065-.142-.087-.063-.023-.104-.038-.104-.074M1.319 5.513c-.03-.033-.062-.062-.047-.093a.633.633 0 0 0 .065-.165 1.449 1.449 0 0 0 0-.229.396.396 0 0 1 .032-.133c.01-.037 0-.104.064-.127a.391.391 0 0 1 .196-.005c.059.01.178.04.211.106.034.064.054.139.093.165.039.026.157.078.16.092.002.015-.024.041-.065.114a.992.992 0 0 0-.044.294c-.005.035 0 .172-.05.203-.048.03-.12 0-.185-.034a1.168 1.168 0 0 1-.2-.105c-.034-.032-.034-.072-.057-.083-.023-.011-.136.032-.168 0M3.824 4.84a.294.294 0 0 1 .036.145.337.337 0 0 1-.035.162.507.507 0 0 1-.147.092c-.028.01-.111.04-.159 0a.457.457 0 0 1-.113-.109.327.327 0 0 1 .038-.306c.04-.046.113-.05.16-.093.04-.038.082-.073.127-.106 0 .046-.033.101 0 .143.032.042.07.04.093.068M4.876 3.795a.69.69 0 0 0-.148-.026c.037.054.132.046.19.068a.426.426 0 0 1 .066.04c.063.038.186.08.199.1.056.04.126.057.194.045.026-.009.074-.02.062-.054-.05-.101-.193-.065-.27-.114-.024-.015-.024-.035-.062-.041a.769.769 0 0 1-.106-.01.857.857 0 0 0-.125 0M4.19 2.876a.26.26 0 0 1-.01.06.305.305 0 0 0 .012.218.118.118 0 0 0 .017-.093.337.337 0 0 1 .01-.102.362.362 0 0 0-.026-.082" fill="#A12132"/><path d="M3.926 3.676c.026.032-.01.083-.03.112-.02.028-.061.048-.137.127a3.534 3.534 0 0 0-.178.2c-.02.026-.068.101-.087.085-.018-.017.037-.12.051-.142a.835.835 0 0 1 .122-.15.762.762 0 0 0 .165-.151c0-.017-.053-.012-.075-.007-.023.004-.131.044-.162.05-.03.007-.066-.011-.022-.048a.169.169 0 0 1 .078-.048c.022 0 .087-.006.101-.021.014-.015.016-.057 0-.066-.016-.01-.035 0-.054 0-.018 0-.236-.039-.272-.045-.037-.007-.246-.063-.279-.07-.032-.006-.041-.032.019-.032s.167.02.207.02c.04 0 .084-.006.125-.004a.928.928 0 0 0 .192.013c.035-.013.083-.033.093-.056a.064.064 0 0 0-.009-.07.776.776 0 0 1-.139-.132.304.304 0 0 0-.074-.11c-.026-.013-.07-.02-.087-.047-.018-.025-.028-.092 0-.08.048.021.092.048.133.08.014.017.037.064.064.092a.685.685 0 0 0 .115.104c.04.023.074.055.099.093.087.006.106 0 .163 0a.8.8 0 0 1 .165.02c.019.01.08.04.101.019.022-.02.078-.142.1-.172.023-.03.13-.16.15-.195a.495.495 0 0 1 .156-.126c.01.007.037.023-.01.064-.07.063-.135.13-.195.202-.018.032-.093.15-.105.176-.012.025-.052.054-.041.07.011.015.087.036.103.051.016.016.064.104.03.128a.084.084 0 0 1-.103-.03.562.562 0 0 0-.078-.086.586.586 0 0 0-.361-.07c-.036.01-.11.035-.111.076a.25.25 0 0 0 .08.176" fill="#A12132"/><path d="M4.028 3.305c-.02 0-.093-.063-.113-.107a1.444 1.444 0 0 0-.087-.154c-.017-.022-.025-.067-.042-.08-.016-.013-.092-.101-.068-.112.024-.011.093.063.106.084.013.021.082.12.1.146.02.025.074.112.088.138.014.026.036.085.016.085" fill="#A12132"/></g></svg>