<?xml version="1.0" encoding="UTF-8" standalone="no"?>
<!-- Created with Inkscape (http://www.inkscape.org/) -->

<svg
   xmlns:dc="http://purl.org/dc/elements/1.1/"
   xmlns:cc="http://creativecommons.org/ns#"
   xmlns:rdf="http://www.w3.org/1999/02/22-rdf-syntax-ns#"
   xmlns:svg="http://www.w3.org/2000/svg"
   xmlns="http://www.w3.org/2000/svg"
   xmlns:sodipodi="http://sodipodi.sourceforge.net/DTD/sodipodi-0.dtd"
   xmlns:inkscape="http://www.inkscape.org/namespaces/inkscape"
   width="168.21124"
   height="96.480316"
   id="svg2"
   version="1.1"
   inkscape:version="0.48.1 r9760"
   sodipodi:docname="China Unicom.svg">
  <defs
     id="defs4" />
  <sodipodi:namedview
     id="base"
     pagecolor="#ffffff"
     bordercolor="#666666"
     borderopacity="1.0"
     inkscape:pageopacity="0.0"
     inkscape:pageshadow="2"
     inkscape:zoom="2.8"
     inkscape:cx="160.25416"
     inkscape:cy="31.448829"
     inkscape:document-units="px"
     inkscape:current-layer="layer1"
     showgrid="false"
     fit-margin-top="10"
     fit-margin-left="0"
     fit-margin-right="10"
     fit-margin-bottom="0"
     inkscape:window-width="1366"
     inkscape:window-height="712"
     inkscape:window-x="0"
     inkscape:window-y="26"
     inkscape:window-maximized="1" />
  <metadata
     id="metadata7">
    <rdf:RDF>
      <cc:Work
         rdf:about="">
        <dc:format>image/svg+xml</dc:format>
        <dc:type
           rdf:resource="http://purl.org/dc/dcmitype/StillImage" />
        <dc:title></dc:title>
      </cc:Work>
    </rdf:RDF>
  </metadata>
  <g
     inkscape:label="Layer 1"
     inkscape:groupmode="layer"
     id="layer1"
     transform="translate(-281.04044,-630.11384)">
    <path
       id="path4265"
       style="fill:#d91920;fill-opacity:1;fill-rule:nonzero;stroke:none"
       d="m 414.82544,691.19415 c -1.49375,1.495 -3.915,1.495 -5.41375,0 -1.44125,-1.44 -2.70625,-2.71 -2.70625,-2.71 l 4.09375,-4.095 -5.14875,-5.1475 -4.095,4.0975 -4.0975,-4.0975 -5.15,5.1475 4.0975,4.095 c 0,0 -1.27,1.27 -2.7075,2.71 -1.49625,1.495 -3.92375,1.495 -5.4175,0 -1.495,-1.49375 -1.495,-3.92125 0,-5.415 1.5725,-1.57 13.21875,-13.32875 13.21875,-13.32875 0,0 11.75625,11.75875 13.32625,13.32875 1.4975,1.49375 1.4975,3.92125 0,5.415 z m -26.545,-42.26 c -1.495,-1.495 -1.495,-3.92125 0,-5.415 1.49375,-1.49625 3.92125,-1.49625 5.4175,0 1.4375,1.44 2.7075,2.7075 2.7075,2.7075 l -4.0975,4.0975 5.15,5.145 4.0975,-4.095 4.095,4.095 5.14875,-5.145 -4.09375,-4.0975 c 0,0 1.265,-1.2675 2.70625,-2.7075 1.49875,-1.49625 3.92,-1.49625 5.41375,0 1.4975,1.49375 1.4975,3.92 0,5.415 -1.57,1.56875 -13.32625,13.3275 -13.32625,13.3275 0,0 -11.64625,-11.75875 -13.21875,-13.3275 z m 18.42,18.4225 c 0,0 12.07,-12.06625 13.275,-13.2725 4.34,-4.3425 4.34,-11.375 0,-15.71625 -4.33625,-4.33875 -11.37375,-4.33875 -15.7125,0 -1.705,1.7025 -2.7075,2.7075 -2.7075,2.7075 0,0 -1.0075,-1.005 -2.7075,-2.7075 -4.34375,-4.33875 -11.37625,-4.33875 -15.7175,0 -4.34,4.34125 -4.34,11.37375 0,15.71625 1.20625,1.20625 13.275,13.2725 13.275,13.2725 0,0 -12.06875,12.06875 -13.275,13.2725 -4.34,4.34 -4.34,11.375 0,15.715 4.34125,4.34 11.37375,4.34 15.7175,0 1.7,-1.70125 2.7075,-2.71 2.7075,-2.71 0,0 1.0025,1.00875 2.7075,2.71 4.33875,4.34 11.37625,4.34 15.7125,0 4.34,-4.34 4.34,-11.375 0,-15.715 -1.205,-1.20375 -13.275,-13.2725 -13.275,-13.2725 z m 29.1475,2.7075 c -1.495,1.49375 -3.92125,1.49375 -5.4175,0 -1.215,-1.21625 -2.7075,-2.7075 -2.7075,-2.7075 0,0 1.4925,-1.4925 2.7075,-2.7075 1.49625,-1.49625 3.9225,-1.49625 5.4175,0 0.7475,0.7475 1.12125,1.72625 1.12125,2.7075 0,0.98125 -0.37375,1.96 -1.12125,2.7075 z m 5.15,-10.565 c -4.34125,-4.3425 -11.37875,-4.3425 -15.7175,0 -1.2425,1.24375 -2.7075,2.7075 -2.7075,2.7075 l -4.09625,-4.09375 -5.1475,5.14625 4.0975,4.0975 -4.0975,4.095 5.1475,5.1475 4.09625,-4.095 c 0,0 1.465,1.46625 2.7075,2.71 4.33875,4.33875 11.37625,4.33875 15.7175,0 2.16875,-2.17 3.25375,-5.0125 3.25375,-7.8575 0,-2.84625 -1.085,-5.6875 -3.25375,-7.8575 z m -68.43,10.565 c -1.4975,1.49375 -3.92375,1.49375 -5.4175,0 -0.7475,-0.7475 -1.11875,-1.72625 -1.11875,-2.7075 0,-0.98125 0.37125,-1.96 1.11875,-2.7075 1.49375,-1.49625 3.92,-1.49625 5.4175,0 1.215,1.215 2.7075,2.7075 2.7075,2.7075 0,0 -1.4925,1.49125 -2.7075,2.7075 z m 11.9525,6.535 5.15,-5.1475 -4.1,-4.095 4.1,-4.0975 -5.15,-5.14625 -4.095,4.09375 c 0,0 -1.46375,-1.46375 -2.7075,-2.7075 -4.34,-4.3425 -11.37875,-4.3425 -15.7175,0 -2.16875,2.17 -3.25375,5.01125 -3.25375,7.8575 0,2.845 1.085,5.6875 3.25375,7.8575 4.33875,4.33875 11.3775,4.33875 15.7175,0 1.24375,-1.24375 2.7075,-2.71 2.7075,-2.71 l 4.095,4.095"
       inkscape:connector-curvature="0" />
    <path
       id="path4267"
       style="fill:#231f20;fill-opacity:1;fill-rule:nonzero;stroke:none"
       d="m 342.43669,699.7879 c -0.68125,0.71875 -1.575,1.06375 -2.665,1.06375 -1.02875,0 -1.8825,-0.36875 -2.56,-1.10125 -0.6625,-0.73125 -0.99125,-1.68 -0.99125,-2.85125 0,-1.08 0.33625,-1.99625 1.0125,-2.74375 0.6875,-0.73875 1.53375,-1.09 2.5575,-1.09 1.09125,0 1.965,0.35125 2.64625,1.085 0.67625,0.735 1.01,1.68375 1.01,2.81375 0,1.14 -0.33375,2.08125 -1.01,2.82375 z m 0.8375,-8.9625 0,1.42625 c -1.185,-1.16625 -2.5275,-1.7475 -4.03125,-1.7475 -1.73125,0 -3.175,0.615 -4.3275,1.8225 -1.1525,1.2225 -1.73125,2.76375 -1.73125,4.6 0,1.84625 0.57875,3.415 1.73125,4.64875 1.165,1.23 2.62875,1.835 4.41375,1.835 1.4175,0 2.725,-0.53875 3.945,-1.64625 l 0,1.2875 2.99875,0 0,-12.22625 -2.99875,0"
       inkscape:connector-curvature="0" />
    <path
       id="path4269"
       style="fill:#231f20;fill-opacity:1;fill-rule:nonzero;stroke:none"
       d="m 302.05419,685.29415 3.10375,0 0,6.945 c 0,0 1.15875,-1.6025 3.57,-1.6025 2.23375,0 4.265,1.485 4.265,5.22375 l 0,7.26625 -2.82875,0 0,-7.47125 c 0,-1.2825 -0.5175,-2.905 -2.35125,-2.905 -1.74625,0 -2.645,1.31 -2.655,2.905 l 0,7.47125 -3.10375,0 0,-17.8325"
       inkscape:connector-curvature="0" />
    <path
       id="path4271"
       style="fill:#231f20;fill-opacity:1;fill-rule:nonzero;stroke:none"
       d="m 300.93544,700.08165 c -0.68875,0.97625 -1.55,1.75875 -2.61125,2.35875 -1.25125,0.71 -2.655,1.075 -4.17125,1.075 -2.24125,0 -4.15,-0.8 -5.735,-2.37 -1.58625,-1.575 -2.3775,-3.47625 -2.3775,-5.735 0,-2.4125 0.89375,-4.4275 2.685,-6.0225 1.57125,-1.41375 3.375,-2.11 5.41375,-2.11 1.475,0 2.85625,0.36125 4.15875,1.0925 1.0675,0.60625 1.94875,1.3775 2.6325,2.34125 l -2.6625,1.91 c -0.1875,-0.4575 -0.45875,-0.85 -0.77125,-1.22375 -0.88625,-1.02125 -2.01,-1.5325 -3.39125,-1.5325 -1.34125,0 -2.45625,0.51125 -3.355,1.55625 -0.88875,1.03625 -1.33375,2.35875 -1.33375,3.975 0,1.67125 0.44,3.00625 1.32625,4.04625 0.875,1.0275 1.99125,1.53875 3.35125,1.53875 1.3525,0 2.475,-0.5175 3.37625,-1.56875 0.33125,-0.375 0.59875,-0.79375 0.7975,-1.2525 0,0 1.97875,1.42375 2.6675,1.92125"
       inkscape:connector-curvature="0" />
    <path
       id="path4273"
       style="fill:#231f20;fill-opacity:1;fill-rule:nonzero;stroke:none"
       d="m 327.45919,690.63665 c -2.955,-0.0425 -3.91375,1.6025 -3.91375,1.6025 l -0.14625,-1.44125 -2.665,0 0,12.3125 3.08875,0 0,-7.47 c 0.0162,-1.58 0.92875,-2.90375 2.66375,-2.90375 1.84,0 2.37,1.63125 2.37,2.90375 l 0,7.47 2.86625,0 0,-7.25 c 0,-3.75 -2.04125,-5.21 -4.26375,-5.22375"
       inkscape:connector-curvature="0" />
    <path
       id="path4275"
       style="fill:#d91920;fill-opacity:1;fill-rule:nonzero;stroke:none"
       d="m 315.32169,703.1104 2.89625,0 0,-12.3525 -2.89625,0 0,12.3525 z"
       inkscape:connector-curvature="0" />
    <path
       id="path4277"
       style="fill:#d91920;fill-opacity:1;fill-rule:nonzero;stroke:none"
       d="m 316.74919,689.50415 c -1.00625,0 -1.67625,-0.745 -1.67625,-1.63 0,-0.95 0.7,-1.65875 1.7025,-1.65875 1.03625,0 1.67875,0.70875 1.705,1.65875 0,0.885 -0.66875,1.63 -1.705,1.63 l -0.0263,0"
       inkscape:connector-curvature="0" />
    <path
       id="path4279"
       style="fill:#d91920;fill-opacity:1;fill-rule:nonzero;stroke:none"
       d="m 316.74919,707.69165 c -1.00625,0 -1.67625,-0.73 -1.67625,-1.61375 0,-0.9475 0.7,-1.665 1.7025,-1.665 1.03625,0 1.67875,0.7175 1.705,1.665 0,0.88375 -0.66875,1.61375 -1.705,1.61375 l -0.0263,0"
       inkscape:connector-curvature="0" />
    <path
       id="path4281"
       style="fill:#231f20;fill-opacity:1;fill-rule:nonzero;stroke:none"
       d="m 360.63294,708.8804 c -1.8375,-0.0412 -3.11125,0.71625 -4.19,1.91 -0.72875,-1.3225 -1.935,-1.875 -3.20375,-1.91 -2.60125,-0.065 -3.74125,1.58875 -3.74125,1.58875 l -0.10125,-1.49125 -2.79875,0 0,12.31375 3.1175,0 0,-7.43375 c 0.0113,-1.58 0.83875,-2.87625 2.4475,-2.87625 1.67875,0 2.16375,1.615 2.16375,2.8925 l 0,7.4175 2.8275,0 0,-7.26875 0,0.015 c 0.007,-2.0675 0.9725,-3.05625 2.40125,-3.05625 1.685,0 2.1625,1.615 2.1625,2.8925 l 0,7.4175 2.82875,0 0,-7.21375 c 0,-3.725 -1.875,-5.14875 -3.91375,-5.1975"
       inkscape:connector-curvature="0" />
    <path
       id="path4283"
       style="fill:#d91920;fill-opacity:1;fill-rule:nonzero;stroke:none"
       d="m 315.32169,721.29165 2.89625,0 0,-12.31375 -2.89625,0 0,12.31375 z"
       inkscape:connector-curvature="0" />
    <path
       id="path4285"
       style="fill:#231f20;fill-opacity:1;fill-rule:nonzero;stroke:none"
       d="m 338.92294,710.84915 c -0.99125,0 -1.81375,0.405 -2.46625,1.20125 -0.655,0.80375 -0.98875,1.835 -0.98875,3.08875 0,1.2775 0.32625,2.3275 0.97625,3.12 0.65375,0.795 1.465,1.19375 2.465,1.19375 1,0 1.81875,-0.39875 2.4775,-1.20625 0.6675,-0.805 0.98875,-1.845 0.98875,-3.1075 0,-1.265 -0.32125,-2.29625 -0.97,-3.1025 -0.6475,-0.7825 -1.47,-1.1875 -2.4825,-1.1875 z m -0.225,-2.15125 c 1.155,0 2.24,0.2975 3.25,0.87 1.01875,0.58125 1.81375,1.36625 2.3775,2.34 0.575,0.99875 0.86125,2.0675 0.86125,3.20125 0,1.15 -0.28625,2.24375 -0.8675,3.24625 -0.5675,1.0025 -1.35,1.79125 -2.33875,2.345 -0.99125,0.58 -2.08375,0.85125 -3.2675,0.85125 -1.76375,0 -3.25875,-0.61875 -4.5,-1.86875 -1.245,-1.24 -1.85625,-2.75625 -1.85625,-4.54375 0,-1.90625 0.705,-3.50375 2.09625,-4.7725 1.24,-1.10625 2.645,-1.66875 4.245,-1.66875"
       inkscape:connector-curvature="0" />
    <path
       id="path4287"
       style="fill:#231f20;fill-opacity:1;fill-rule:nonzero;stroke:none"
       d="m 308.72794,708.8154 c -2.93625,-0.0375 -3.90625,1.59375 -3.90625,1.59375 l -0.14875,-1.43125 -2.665,0 0,12.31375 3.1,0 0,-7.46 c 0.007,-1.5875 0.915,-2.8975 2.66125,-2.8975 1.8275,0 2.355,1.615 2.355,2.8975 l 0,7.46 2.86875,0 0,-7.24 c 0,-3.75375 -2.03125,-5.1975 -4.265,-5.23625"
       inkscape:connector-curvature="0" />
    <path
       id="path4289"
       style="fill:#231f20;fill-opacity:1;fill-rule:nonzero;stroke:none"
       d="m 292.81669,721.45665 c 2.94875,0.04 3.91125,-1.6025 3.91125,-1.6025 l 0.14875,1.4375 2.6675,0 0,-12.31375 -3.095,0 0,7.46125 c -0.0125,1.58875 -0.9125,2.905 -2.6625,2.905 -1.83375,0 -2.55875,-1.625 -2.55875,-2.905 l 0,-7.46125 -3.095,0 0,7.2425 c 0,3.7525 2.45625,5.20875 4.68375,5.23625"
       inkscape:connector-curvature="0" />
    <path
       id="path4291"
       style="fill:#231f20;fill-opacity:1;fill-rule:nonzero;stroke:none"
       d="m 332.12919,718.8779 c -0.54875,0.77375 -1.23625,1.4 -2.07125,1.86375 -0.9975,0.57375 -2.1075,0.84375 -3.315,0.84375 -1.76625,0 -3.28,-0.61125 -4.5475,-1.86 -1.25875,-1.25625 -1.8775,-2.77 -1.8775,-4.5575 0,-1.9025 0.70875,-3.49125 2.1325,-4.77125 1.2375,-1.1075 2.665,-1.6625 4.2875,-1.6625 1.16375,0 2.26,0.2825 3.29375,0.8625 0.84625,0.4775 1.545,1.0925 2.08625,1.84875 l -2.30375,1.65625 c -0.14625,-0.33125 -0.33375,-0.635 -0.5675,-0.9 -0.6375,-0.77 -1.45375,-1.15375 -2.445,-1.15375 -0.97625,0 -1.77625,0.3975 -2.43,1.15375 -0.64125,0.77125 -0.97,1.76 -0.97,2.96625 0,1.23375 0.32875,2.24625 0.9625,3.0025 0.6375,0.77125 1.44625,1.145 2.42625,1.145 0.97375,0 1.7875,-0.37375 2.4375,-1.15875 0.24375,-0.27875 0.44,-0.58625 0.58625,-0.9325 l 2.315,1.65375"
       inkscape:connector-curvature="0" />
    <path
       id="path4293"
       style="fill:#231f20;fill-opacity:1;fill-rule:nonzero;stroke:none"
       d="m 423.41044,709.2554 c -1.1575,-1.5275 -2.34625,-2.36 -2.34625,-2.36 l -1.15875,0.835 1.94625,2.66625 1.55875,-1.14125 z m 7.235,2.3375 2.3325,0 0,0.99376 -2.3325,0 0,-0.99376 z m 2.3325,0 z m 0,3.40625 -2.3325,0 0,-0.99503 2.3325,0 0,0.99503 z m -4.3425,-2.4125 -2.33125,0 0,-0.99376 2.33125,0 0,0.99376 z m 0,2.4125 -2.33125,0 0,-0.99503 2.33125,0 0,0.99503 z m 0.6875,-5.45 c -0.955,-0.64875 -2.02375,-1.14375 -2.02375,-1.14375 l -0.79625,1.01625 0.79875,0.695 -3.0075,0 0,8.84875 0.62,0 c 0.63125,0 1.39,-0.42375 1.39,-1.33 l 0,-1.21875 2.33125,0 0,2.54875 0.62,0 c 0.785,0 1.33375,-0.3925 1.39,-1.33375 l 0,-1.215 2.3325,0 0,0.59375 c 0,0.295 -0.3225,0.48125 -0.58875,0.48125 l -0.93375,0 0.4225,1.47375 1.45375,0 c 0.9775,0 1.76875,-0.79 1.76875,-1.76875 l 0,-5.86875 c 0,-0.6675 -0.54125,-1.21125 -1.20625,-1.21125 l -2.34,0 3.07625,-1.85625 0,-1.695 -10.45,0 0,1.475 7.64,0 -2.4975,1.50875 z m -5.285,10.10625 c -0.52875,0 -0.9575,-0.4275 -0.9575,-0.9575 l 0,-7.64 -3.32375,0 0,1.475 1.10625,0 0,6.74875 c 0,1.15 1.0125,1.84875 1.7875,1.84875 l 12.68,0 0,-1.475 -11.2925,0"
       inkscape:connector-curvature="0" />
    <path
       id="path4295"
       style="fill:#231f20;fill-opacity:1;fill-rule:nonzero;stroke:none"
       d="m 415.32294,714.78915 2.54625,0 0,-1.47625 -2.85375,0 0,-2.2675 2.85375,0 0,-1.47375 -1.85125,0 1.6925,-2.1125 -1.6025,-1.15 -2.11375,3.2625 -1.51125,0 1.2325,-0.88875 c -1.0675,-1.47 -1.95875,-2.36875 -1.95875,-2.36875 l -1.1825,0.69625 1.51375,2.56125 -1.85375,0 0,1.47375 2.45375,0 0,2.2675 -2.45375,0 0,1.47625 2.1825,0 -2.5825,6.62125 1.11125,0 c 0.58625,0 1.185,-0.405 1.4275,-0.93625 l 1.57625,-3.95 2.1825,4.88625 2.15875,0 -2.9675,-6.62125 z m -8.125,-1.115 -1.7925,0 0,-1.81875 1.7925,0 0,1.81875 z m -0.005,3.2725 -1.7875,0.5 0,-2.30125 1.7925,0 -0.005,1.80125 z m 3.1075,-0.8725 -0.99875,0.28 0,-8.26125 c 0,-0.90875 -0.5525,-1.47625 -1.24375,-1.47625 l -5.25625,0 0,1.47625 4.39625,0 0,2.28875 -1.7925,0 0,-1.51875 -1.99375,0 0,9.1425 -0.88,0.25125 0,1.66 4.66125,-1.31 0,2.9875 0.8275,0 c 0.68875,0 1.12625,-0.41125 1.28125,-1.1975 l 0,-2.3775 0.99875,-0.28125 0,-1.66375"
       inkscape:connector-curvature="0" />
    <path
       id="path4297"
       style="fill:#231f20;fill-opacity:1;fill-rule:nonzero;stroke:none"
       d="m 380.22169,714.9129 c 0,0.53 -0.42875,0.95375 -0.9525,0.95375 l -2.975,0 0,-6.02 3.9275,0 0,5.06625 z m 0.9225,-6.5425 -4.85,0 0,-2.05625 -2.51375,0 0,2.05625 -3.1575,0 0,1.47625 3.1575,0 0,6.02 -3.93,0 0,-7.49625 -2.51625,0 0,8.9725 6.44625,0 0,4.25125 0.40875,0 c 1.41125,-0.0425 2.04875,-0.6675 2.105,-1.74 l 0,-2.51125 4.265,0 c 1.17375,0 2.13125,-0.92625 2.18,-2.08875 l 0,-5.375 c -0.0487,-0.84 -0.74375,-1.50875 -1.595,-1.50875"
       inkscape:connector-curvature="0" />
    <path
       id="path4299"
       style="fill:#231f20;fill-opacity:1;fill-rule:nonzero;stroke:none"
       d="m 397.08169,716.7554 -1.11625,0 0.735,-0.91125 c -1.00125,-0.90125 -1.75,-1.385 -1.75,-1.385 l -0.905,0.9025 1.2675,1.39375 -1.71,0 0,-2.47 3.4175,0 0,-1.47375 -3.4175,0 0,-1.8325 3.4175,0 0,-1.47125 -8.84625,0 0,1.47125 3.10375,0 0,1.8325 -3.10375,0 0,1.47375 3.10375,0 0,2.47 -3.1625,0 0,1.47625 8.96625,0 0,-1.47625 z m 1.49875,-10.19 -10.465,0 0,1.475 9.74,0 0,10.7025 c 0,0.5275 -0.42875,0.955 -0.9575,0.955 l -9.55625,0 0,-13.1325 -2.32625,0 0,14.60875 13.06125,0 c 1.16375,0 2.10625,-0.94125 2.10625,-2.105 l 0,-10.90875 c -0.002,-0.88125 -0.72,-1.595 -1.6025,-1.595"
       inkscape:connector-curvature="0" />
  </g>
</svg>
