<svg viewBox="0 0 8 8" xmlns="http://www.w3.org/2000/svg"><g fill="none" fill-rule="evenodd"><path d="M8.326 2.786c-2.633.073-5.18.67-5.418 1.518a.833.833 0 0 0-.027.23c0 .835 1.742 1.12 3.628 1.355.032.004.03-.022.02-.04l-.055-.098c-.007-.013-.015-.022-.042-.03-1.032-.262-2.08-.646-2.08-1.004 0-.676 1.756-1.346 3.755-1.653a.276.276 0 0 0 .142-.06l.23-.185c.033-.028.02-.037.008-.037l-.161.004Z" fill="#1B1D80"/><path d="M5.413 6.87C4.046 6.529 2.69 5.38 2.904 4.318c.312-1.552 2.399-3.055 5.003-3.76.058-.018.08-.057.005-.057H4.358c-.616 0-.749.08-.987.402-.127.172-1.19 1.638-1.67 2.3a.39.39 0 0 1-.344.163H.5c1.017 2.871 2.108 3.548 3.201 3.548h1.726c.025 0 .05-.026-.014-.042" fill="#DF0011"/></g></svg>