<svg viewBox="0 0 8 8" xmlns="http://www.w3.org/2000/svg"><path d="M4 0a4 4 0 1 1 0 8 4 4 0 0 1 0-8Zm0 .331A3.669 3.669 0 1 0 4 7.67 3.669 3.669 0 0 0 4 .33ZM4 .58c.482 0 .94.1 1.355.28.064.033.147.097.147.195 0 .182-.25.143-.566.394-.29.232-.441.558-.441.923v5.012a3.481 3.481 0 0 1-.989 0V2.372c0-.365-.15-.691-.441-.923-.315-.25-.566-.212-.566-.394 0-.101.087-.165.152-.198.414-.178.87-.277 1.35-.277Zm1.498.947v5.548a3.428 3.428 0 0 1-.68.246V2.473c0-.336.12-.572.353-.757.113-.09.256-.156.327-.19Zm-2.995 0c.071.032.214.1.327.189.232.185.353.421.353.757v4.849a3.404 3.404 0 0 1-.68-.247V1.527Zm-.334-.416v2.683c-.39-.01-.533-.246-.576-.337-.036-.076-.059-.155-.126-.155-.113 0-.205.327-.205.73 0 .403.092.73.205.73.067 0 .09-.08.126-.155.043-.092.186-.328.576-.338v2.62A3.417 3.417 0 0 1 .579 4c0-1.215.635-2.282 1.59-2.889Zm3.663 0a3.418 3.418 0 0 1 1.582 2.682c-.372-.018-.51-.247-.553-.336-.035-.076-.058-.155-.126-.155-.113 0-.204.327-.204.73 0 .403.091.73.204.73.068 0 .09-.08.126-.155.043-.09.18-.316.548-.337a3.418 3.418 0 0 1-1.577 2.618Z" fill="#D91920" fill-rule="nonzero"/></svg>