<svg viewBox="0 0 8 8" version="1.1" xmlns="http://www.w3.org/2000/svg">
    <title>Group</title>
    <g id="Page-1" stroke="none" stroke-width="1" fill="none" fill-rule="evenodd">
        <g id="Group" transform="translate(0.499999, 0.500002)">
            <path d="M7.82591601,2.28615466 C5.19314783,2.35915373 2.64518293,2.9566484 2.40843344,3.80392426 C2.38675001,3.88076795 2.38134267,3.95675727 2.38134267,4.03416873 C2.38134267,4.86861297 4.12326266,5.15403392 6.00900705,5.38912336 C6.04134293,5.3929085 6.03993702,5.36716957 6.02939271,5.3486224 C6.02198466,5.33548257 5.99375835,5.28560528 5.97437845,5.25124705 C5.96680818,5.23783685 5.95869717,5.22902289 5.93230936,5.22145262 C4.90021068,4.95884523 3.85243071,4.57519457 3.85243071,4.21749372 C3.85243071,3.54087347 5.60803668,2.87066632 7.60723784,2.56428652 C7.6732344,2.55157928 7.70473215,2.53919647 7.74906151,2.50398388 C7.80450836,2.45980593 7.92651954,2.36013246 7.97811636,2.31893395 C8.01175001,2.29097801 7.99979979,2.28216405 7.98709254,2.28242841 C7.93350582,2.28351588 7.87990288,2.28459735 7.82588356,2.28621955 L7.82591601,2.28615466 Z" id="Fill-1" fill="#1B1D80"></path>
            <path d="M4.91347752,6.37088676 C3.54585123,6.02815586 2.19048282,4.8803499 2.40400067,3.81694344 C2.71601047,2.26538787 4.80258504,0.762447744 7.40656279,0.0561713559 C7.46528739,0.0387781948 7.48695278,0 7.41169468,0 L3.85771839,0 C3.24239339,0 3.10898039,0.0795523261 2.87066136,0.402038631 C2.74366231,0.573546607 1.68006385,2.0401322 1.20043247,2.70121487 C1.13871467,2.77991178 1.05148306,2.86459656 0.857349952,2.86459656 L0,2.86459656 C0,2.8648827 0,2.86502577 0.000712676274,2.86545498 C1.01670443,5.73603639 2.10809745,6.41294394 3.20134327,6.41294394 L4.92744607,6.41294394 C4.95181948,6.41294394 4.97619303,6.38671164 4.91347823,6.37088676" id="Fill-3" fill="#DF0011"></path>
        </g>
    </g>
</svg>