<svg viewBox="0 0 8 8" xmlns="http://www.w3.org/2000/svg"><g fill-rule="nonzero" fill="none"><path fill="#0093D0" d="M0 5.706h5.71L8 0H5.71z"/><path d="M5.323 2.196a.263.263 0 1 1 .379-.236.262.262 0 0 1-.152.236v.076c.08.009.178.04.24.071.027-.004.063-.004.099-.004.33 0 .56.218.56.516a.366.366 0 0 1-.351.357c-.187 0-.356-.183-.32-.37 0 0-.019.062-.019.142v.945c-.008.107-.151.7-.82.7-.667 0-.81-.593-.819-.7v-.945a.507.507 0 0 0-.022-.142c.036.178-.138.37-.32.37a.366.366 0 0 1-.353-.357c0-.298.232-.516.562-.516.035 0 .07 0 .098.004a.661.661 0 0 1 .24-.071v-.076a.263.263 0 0 1 .116-.499.262.262 0 0 1 .111.499v.098c.023.009.045.013.067.027.04-.09.12-.156.214-.187v-.08a.262.262 0 0 1 .111-.5.263.263 0 0 1 .116.5v.08a.356.356 0 0 1 .214.187c.022-.01.044-.018.067-.027l-.018-.098Z" fill="#FFF"/><path d="M6.339 2.86c0-.245-.165-.441-.508-.441-.227 0-.495.191-.495.677v.721c.098-.066.236-.124.308-.124V3.02c0-.258.187-.334.271-.334a.223.223 0 0 0-.08.174c0 .138.112.25.25.25.142 0 .25-.103.254-.25ZM3.519 2.86c0-.245.165-.441.508-.441.227 0 .499.191.499.677v.721c-.098-.066-.236-.124-.308-.124V3.02c0-.258-.187-.334-.271-.334.049.045.08.098.08.174 0 .138-.116.25-.25.25a.248.248 0 0 1-.258-.25Z" fill="#ED1B2F"/><path d="M4.931 4.526c.57 0 .7-.477.717-.602v-.16a.776.776 0 0 0-.44.28.665.665 0 0 0-.277-.396.67.67 0 0 0-.276.397.776.776 0 0 0-.441-.281v.16a.688.688 0 0 0 .717.602ZM4.971 2v.2c.098.014.183.08.214.16a.622.622 0 0 0-.254.335.622.622 0 0 0-.254-.334.279.279 0 0 1 .214-.16V2a.186.186 0 0 1-.143-.178c0-.103.085-.183.183-.183a.18.18 0 0 1 .183.183c0 .084-.063.16-.143.178Z" fill="#ED1B2F"/><path d="M4.468 2.143v.209c.25.049.427.312.427.557v.677a.651.651 0 0 0-.267.316c-.009-.009-.018-.022-.031-.031v-.873c0-.263-.143-.53-.392-.615 0 0 .08-.036.183-.036v-.209a.182.182 0 0 1-.143-.178.18.18 0 0 1 .183-.183.18.18 0 0 1 .182.183c0 .089-.062.16-.142.183ZM5.474 2.143v.204c.103 0 .183.036.183.036-.254.09-.392.356-.392.615v.873l-.031.031a.615.615 0 0 0-.267-.316v-.677c0-.245.178-.508.427-.557v-.214a.182.182 0 0 1-.142-.178.18.18 0 0 1 .182-.183.18.18 0 0 1 .183.183.178.178 0 0 1-.143.183Z" fill="#ED1B2F"/></g></svg>