<svg viewBox="0 0 24 24" xmlns="http://www.w3.org/2000/svg"><path d="M15.74 18.69c-.419.42-1.098.42-1.52 0-.404-.403-.759-.76-.759-.76l1.15-1.15-1.446-1.444-1.15 1.15-1.15-1.15-1.445 1.445 1.15 1.15-.76.76a1.076 1.076 0 0 1-1.52-1.52C8.73 16.731 12 13.43 12 13.43l3.74 3.741c.42.42.42 1.1 0 1.52ZM8.29 6.83a1.075 1.075 0 1 1 1.52-1.52l.76.76-1.15 1.15 1.446 1.443 1.15-1.149 1.15 1.15 1.444-1.445-1.149-1.15.76-.76a1.074 1.074 0 1 1 1.52 1.52L12 10.57s-3.269-3.3-3.71-3.74ZM13.46 12l3.726-3.725a3.12 3.12 0 0 0-4.41-4.412l-.76.76-.76-.76a3.12 3.12 0 0 0-4.412 4.412L10.57 12s-3.387 3.388-3.726 3.725a3.119 3.119 0 1 0 4.412 4.411l.76-.76s.281.283.76.76a3.118 3.118 0 1 0 4.41-4.41L13.46 12Zm8.181.76c-.42.42-1.1.42-1.52 0l-.76-.76.76-.76a1.075 1.075 0 0 1 1.52 1.52Zm1.446-2.965a3.118 3.118 0 0 0-4.412 0l-.76.76-1.15-1.15-1.445 1.445L16.47 12l-1.15 1.15 1.445 1.444 1.15-1.15.76.761a3.12 3.12 0 0 0 4.412-4.41ZM3.879 12.76A1.076 1.076 0 0 1 2.045 12a1.075 1.075 0 0 1 1.835-.76l.76.76-.76.76Zm3.355 1.834L8.68 13.15 7.529 12l1.15-1.15-1.445-1.445-1.15 1.15-.759-.76a3.118 3.118 0 1 0-4.412 4.41 3.12 3.12 0 0 0 4.412 0l.76-.76 1.15 1.15" fill="#d91920"/></svg>