<?xml version="1.0" encoding="UTF-8" standalone="no"?>
<!-- Created with Inkscape (http://www.inkscape.org/) -->
<!DOCTYPE svg PUBLIC "-//W3C//DTD SVG 1.1//EN" "http://www.w3.org/Graphics/SVG/1.1/DTD/svg11.dtd">
<svg
   xmlns:svg="http://www.w3.org/2000/svg"
   xmlns="http://www.w3.org/2000/svg"
   xmlns:xlink="http://www.w3.org/1999/xlink"
   version="1.1"
   width="400"
   height="135"
   id="svg2816">
  <defs
     id="defs2820">
    <radialGradient
       cx="310.07864"
       cy="661.12384"
       r="18.3445"
       fx="310.07864"
       fy="661.12384"
       id="radialGradient3846"
       xlink:href="#linearGradient3740"
       gradientUnits="userSpaceOnUse"
       gradientTransform="matrix(1.1926402,2.071135,1.83304,-1.0555353,-1219.4433,403.45797)" />
    <linearGradient
       id="linearGradient3740">
      <stop
         id="stop3742"
         style="stop-color:#f7f7f8;stop-opacity:1"
         offset="0" />
      <stop
         id="stop3752"
         style="stop-color:#b9b9ba;stop-opacity:1"
         offset="0.34340364" />
      <stop
         id="stop3750"
         style="stop-color:#7b7b7c;stop-opacity:1"
         offset="0.68680727" />
      <stop
         id="stop3744"
         style="stop-color:black;stop-opacity:1"
         offset="1" />
    </linearGradient>
    <radialGradient
       cx="310.07864"
       cy="661.12384"
       r="18.3445"
       fx="310.07864"
       fy="661.12384"
       id="radialGradient4021"
       xlink:href="#linearGradient3740"
       gradientUnits="userSpaceOnUse"
       gradientTransform="matrix(1.1926402,2.071135,1.83304,-1.0555353,-1219.4433,403.45797)" />
  </defs>
  <g
     transform="matrix(0.24184017,0,0,0.24184017,-95.398094,65.526452)"
     id="g4014">
    <path
       d="m 1079.7218,99.638571 c -11.2009,7.9e-5 -20.3451,3.637749 -27.4745,10.951429 -7.1296,7.31382 -10.6954,17.48802 -10.6954,30.42062 0,11.67991 3.0331,21.66378 9.0942,29.97231 6.061,8.30857 15.6834,12.42442 28.9476,12.42442 8.2164,0 15.3215,-2.18383 21.1985,-6.66052 5.8766,-4.47666 9.9382,-11.26504 12.2964,-20.3658 l -10.6312,-2.75386 c -1.5847,6.89004 -4.365,12.07192 -8.3257,15.4985 -3.9611,3.4266 -9.0972,5.1235 -15.4345,5.12347 -7.7375,3e-5 -14.0206,-2.70763 -18.8288,-8.19755 -4.8083,-5.48991 -7.2368,-13.89443 -7.2368,-25.16907 0,-9.7639 2.2838,-17.57268 6.8525,-23.37584 4.5687,-5.80303 11.2668,-8.70981 20.1096,-8.7099 5.4161,9e-5 9.9665,1.4539 13.5773,4.29091 3.6107,2.83713 6.3008,7.04334 8.0694,12.68059 l 10.5032,-2.43365 c -2.2476,-7.7374 -6.1837,-13.65978 -11.784,-17.67598 -5.6006,-4.01602 -12.3529,-6.02 -20.2378,-6.020079 z m 47.0721,1.408959 0,81.01491 10.7592,0 0,-38.16987 42.0765,0 0,38.16987 10.8234,0 0,-81.01491 -10.8234,0 0,33.23852 -42.0765,0 0,-33.23852 -10.7592,0 z m 83.5125,0 0,81.01491 10.7594,0 0,-81.01491 -10.7594,0 z m 29.9724,0 0,81.01491 10.1828,0 0,-63.5951 0.1926,0 42.3326,63.5951 11.0155,0 0,-81.01491 -10.247,0 0,63.5951 -0.1927,0 -42.3327,-63.5951 -10.9513,0 z m 104.5827,0 -31.1251,81.01491 11.3358,0 8.9661,-24.65671 33.8149,0 9.5424,24.65671 12.1042,0 -33.1104,-81.01491 -11.5279,0 z m 119.6331,0 0,81.01491 50.6584,0 0,-9.60651 -39.963,0 0,-71.4084 -10.6954,0 z m 71.6647,0 0,81.01491 10.7593,0 0,-81.01491 -10.7593,0 z m 33.1104,0 0,81.01491 10.6952,0 0,-36.69688 38.1058,0 0,-9.6065 -38.1058,0 0,-25.10502 43.9338,0 0,-9.60651 -54.629,0 z m 70.5757,0 0,81.01491 60.5212,0 0,-9.60651 -49.8258,0 0,-27.41058 44.8304,0 0,-9.60651 -44.8304,0 0,-24.7848 47.9685,0 0,-9.60651 -58.6639,0 z m -289.54,8.45372 0.2561,0 c 1.0314,3.97934 1.9702,7.16605 2.818,9.54247 0.8471,2.37658 4.5752,12.30604 11.2075,29.84423 l -27.5387,0 9.0941,-24.27245 c 1.7317,-4.64242 3.1311,-9.66111 4.163,-15.11425 z"
       id="path2833"
       style="font-size:55.23018646px;font-style:normal;font-variant:normal;font-weight:normal;font-stretch:normal;text-indent:0;text-align:start;text-decoration:none;line-height:125%;letter-spacing:normal;word-spacing:normal;text-transform:none;direction:ltr;block-progression:tb;writing-mode:lr-tb;text-anchor:start;color:black;fill:black;fill-opacity:1;fill-rule:nonzero;stroke:none;stroke-width:1px;marker:none;visibility:visible;font-family:Arial Unicode MS;-inkscape-font-specification:Arial Unicode MS" />
    <path
       d="m 1122.4014,69.701195 c -4.7584,-2.774089 -6.4532,-12.814724 -6.7175,-39.798458 l -0.218,-22.2643133 -17.9175,0.024031 c -22.4006,0.029933 -26.8886,1.2801296 -38.039,10.5959713 -10.0673,8.41101 -13.5842,8.590838 -19.0439,0.97372 -3.6419,-5.080868 -3.6267,-5.836753 0.4188,-21.079379 2.8892,-10.885011 4.2534,-23.051734 4.3795,-39.059646 0.1665,-21.039475 -0.3253,-24.205092 -5.1634,-33.293571 -5.4261,-10.193102 -5.534,-16.234937 -0.3668,-20.523537 2.1566,-1.789765 6.1187,-1.311833 16.1089,1.94314 15.5645,5.071234 40.1081,7.564651 49.0837,4.986495 5.9031,-1.695646 6.3672,-2.576406 6.9783,-13.243018 0.8352,-14.57856 4.5509,-18.85438 16.385,-18.85438 13.3427,0 16.295,4.26516 18.2388,26.34922 0.5552,6.30752 0.5946,6.325332 15.3122,6.91372 8.1156,0.324433 22.3442,-0.276877 31.6191,-1.336264 19.1746,-2.190168 23.6629,-0.598254 30.6578,10.873587 5.8283,9.558718 5.1478,16.117419 -3.0917,29.800655 -9.8453,16.349693 -11.5858,27.300262 -5.3881,33.897581 5.5471,5.9044596 4.5665,13.20717847 -2.7051,20.1478379 -4.4298,4.2280811 -6.0028,4.4063911 -25.7967,2.9241525 -11.5937,-0.8681753 -25.348,-1.6824084 -30.5651,-1.8093906 l -9.4857,-0.2308614 -0.1286,26.6386646 c -0.1518,31.251338 -2.5778,37.698382 -14.1483,37.589338 -3.7412,-0.0352 -8.4241,-1.009617 -10.4065,-2.165231 l -2e-4,-6.4e-5 z m -14.4638,-96.763181 c 6.1153,-3.272869 9.4497,-13.477185 6.3352,-19.387737 -3.7643,-7.143717 -5.887,-8.027871 -19.3593,-8.063748 -15.3251,-0.04089 -21.1243,4.673361 -20.1456,16.375874 0.4832,5.775728 1.9826,8.408332 5.917,10.388529 6.2606,3.150924 21.9116,3.545509 27.2527,0.687082 z m 78.1567,-1.149585 c 3.4985,-4.215581 3.7702,-19.178735 0.4091,-22.539821 -1.4911,-1.491155 -9.3679,-2.984102 -17.8799,-3.388953 -18.9207,-0.8999 -22.5777,1.347837 -23.1981,14.258345 -0.3868,8.054873 0.2747,9.709499 4.8215,12.060461 7.5789,3.91872 32.4964,3.647597 35.8474,-0.390032 z m 727.3756,88.180775 c -6.4764,-4.517796 -5.9513,-8.384829 1.6742,-12.328169 11.8265,-6.115676 18.0283,-22.39684 12.4802,-32.763405 -1.9913,-3.721185 -4.6608,-4.0773 -30.5651,-4.0773 l -28.3829,0 0,-7.377782 c 0,-4.05778043 -0.4556,-7.3777826 -1.0125,-7.3777826 -0.5569,0 -7.9083,6.9757988 -16.3365,15.5017536 -23.3829,23.654225 -44.3809,29.806031 -61.1005,17.900693 -5.1722,-3.682905 -5.8681,-5.521427 -5.8681,-15.504115 0,-6.2291459 0.9579,-11.9176271 2.1284,-12.6410713 1.1706,-0.72344432 4.6185,0.6434269 7.662,3.0375174 7.2612,5.7116259 12.6143,5.4922953 29.3366,-1.2020727 13.8042,-5.526212 28.3271,-16.7412214 28.3271,-21.8749984 0,-3.633158 -24.704,-1.352791 -37.2496,3.438426 -8.6881,3.317978 -9.4153,3.302864 -13.3722,-0.278143 -5.1134,-4.627577 -5.2468,-9.084369 -0.4487,-15.007484 6.5099,-8.036767 13.5424,-10.228959 36.2932,-11.313387 19.611,-0.934765 22.1985,-1.508061 22.8779,-5.068959 0.7211,-3.780439 -0.3491,-3.94275 -18.321,-2.778409 -17.038,1.103843 -19.666,0.781117 -24.4809,-3.006236 l -5.3938,-4.242836 4.3815,-6.153387 c 4.3324,-6.084428 4.6139,-6.153365 25.0919,-6.153365 15.3708,0 20.99,-0.728609 21.7948,-2.826071 2.6459,-6.89517 -1.7551,-8.140055 -26.1808,-7.405417 l -23.9892,0.721505 -0.6806,-8.335545 c -1.0005,-12.253565 2.3138,-13.772464 30.0678,-13.779234 l 23.3113,-0.006 4.2158,-7.89908 c 3.0994,-5.80721 5.7872,-8.0792 10.1491,-8.57922 7.9263,-0.90865 16.2002,4.73413 16.2002,11.04848 l 0,5.00132 41.9384,0.74692 c 38.0059,0.676882 42.3639,1.132139 46.4769,4.85509 3.1512,2.852356 4.3461,6.074213 3.9092,10.53969 l -0.6293,6.432161 -44.6823,0 c -32.61,0 -45.3865,0.702407 -47.288,2.599783 -1.4332,1.429899 -1.8809,3.327043 -0.995,4.215876 0.886,0.888854 18.8456,1.86445 39.9102,2.167993 45.3188,0.65306 47.7853,1.04012 47.7853,7.49842 0,9.328615 -2.6075,9.867151 -47.776,9.867151 -39.5575,0 -42.8729,0.291317 -44.8249,3.938724 -1.1593,2.166286 -1.5088,4.537716 -0.7767,5.269845 0.732,0.732108 22.365,1.331121 48.0734,1.331121 35.0649,0 49.3162,-0.774668 57.0456,-3.100861 6.4139,-1.930302 11.0496,-2.354567 12.2802,-1.12389 2.5903,2.590277 -4.0166,17.27453 -10.5222,23.386201 -4.496,4.223802 -6.4486,4.533647 -21.8968,3.474788 -15.4139,-1.056498 -17.1647,-0.781012 -19.1995,3.020907 -1.2313,2.300877 -1.6682,5.670142 -0.9709,7.4872481 1.0746,2.8007745 4.3284,3.1212021 21.3696,2.1045226 22.3893,-1.335758 24.5206,-0.1597817 19.9051,10.9827358 -3.3641,8.1214415 -11.5988,11.1821465 -27.7955,10.3311295 l -13.3686,-0.702428 -1.1686,15.809534 c -0.6427,8.695254 -2.3008,17.877864 -3.6847,20.405808 -6.5856,12.031456 -25.1997,17.133319 -35.7245,9.791625 l 0,-3.2e-4 z m -5.7865,-69.6310059 22.1231,0.520724 0,-5.7433091 c 0,-4.916322 -1.0835,-5.946598 -7.5254,-7.1551 -4.1389,-0.77648 -15.1048,-0.973003 -24.3686,-0.436743 -13.4082,0.776185 -17.7366,1.868581 -21.2246,5.356586 -6.0401,6.040148 -3.8,11.7552108 3.5171,8.9732176 2.9454,-1.1198415 15.3108,-1.8017712 27.4784,-1.5153755 z M 1291.7641,55.945045 c -15.9872,-6.934399 -17.495,-11.480125 -10.495,-31.640105 3.7736,-10.868043 4.3759,-18.2113397 4.737,-57.771305 0.2276,-24.926365 -0.4077,-51.039541 -1.4117,-58.029253 -1.4265,-9.928932 -1.1946,-13.201322 1.0596,-14.961212 1.9535,-1.52493 11.057,-1.7271 28.1808,-0.62589 48.0193,3.08809 114.9415,1.47142 142.9069,-3.45226 9.7464,-1.71596 15.1522,2.32462 18.6272,13.922891 1.8427,6.151237 1.5472,13.448328 -1.3738,33.910818 -3.0674,21.488972 -3.4688,33.520217 -2.2829,68.4311888 1.1354,33.4159162 0.8653,42.8239172 -1.2793,44.5642302 -1.8474,1.499018 -13.5279,1.635086 -36.4456,0.424539 -18.5498,-0.979833 -51.8458,-1.825137 -73.9909,-1.878489 -38.9922,-0.09401 -40.5768,0.06935 -50.1751,5.172859 -5.4511,2.898414 -10.098,5.232724 -10.3265,5.18734 -0.2285,-0.04532 -3.7073,-1.510296 -7.7307,-3.255352 z m 156.2815,-37.766932 c -13.3695,0 2.4475,-98.166034 0.1602,-100.454306 -1.1687,-1.168704 -27.075,-2.117887 -61.8665,-2.266708 -51.7075,-0.221186 -60.7538,0.214293 -66.4513,3.198943 -3.6273,1.900222 -7.1999,5.030426 -7.9387,6.955985 -0.7388,1.92558 -1.9473,23.569612 -2.6851,48.097872 -0.9869,32.8051414 -0.6756,45.841704 1.1779,49.304877 l 2.5196,4.708037 66.8021,-0.556474 66.802,-0.556475 1.4808,-8.431751 0,0 -10e-4,0 z m -130.5969,0.936578 c -4.7037,-1.864935 -4.7351,-2.073199 -1.3267,-8.801126 6.7938,-13.4103419 8.426,-14.2687996 27.1291,-14.2687996 10.5431,0 18.1454,-0.9762071 19.6987,-2.5295254 3.6644,-3.664566 3.1345,-13.650774 -0.8048,-15.162418 -5.5626,-2.134583 -23.0735,-1.431754 -25.5299,1.024689 -1.6669,1.666958 -3.8012,1.323322 -7.7171,-1.242545 -6.6784,-4.375847 -8.6641,-10.04972 -5.5521,-15.864509 2.1496,-4.016928 4.0101,-4.382908 20.2897,-3.99138 14.3053,0.344058 18.6306,-0.276519 21.4285,-3.074533 2.7289,-2.728936 2.9844,-4.314063 1.153,-7.15491 -1.9661,-3.049491 -5.023,-3.537225 -18.5983,-2.967197 -17.0906,0.717648 -24.34,-2.260194 -24.266,-9.967595 0.086,-8.973365 1.5822,-9.23536 50.2404,-8.798574 29.122,0.261405 48.0391,-0.405842 50.6169,-1.78536 3.1593,-1.690841 5.1222,-1.35258 8.4463,1.45551 3.5563,3.004338 4.045,4.977169 2.7342,11.036087 l -1.5962,7.377783 -18.0747,-0.747475 c -20.486,-0.847194 -27.6884,1.529351 -26.654,8.794865 0.6016,4.225593 1.9424,4.627598 16.4644,4.936158 8.6953,0.184655 16.9953,0.421903 18.4445,0.526984 4.1444,0.300529 3.0774,9.676953 -1.581,13.89266 -5.8189,5.266071 -5.2801,7.377782 1.8824,7.377782 7.6183,0 9.9189,5.138268 5.393,12.0456221 -3.3436,5.1030853 -3.3261,5.1245019 3.6412,4.4458514 6.3276,-0.6163822 7.0671,-0.1028674 7.6898,5.3414723 0.3788,3.3128984 -0.394,8.6373588 -1.7173,11.8321712 l -2.406,5.80876 -45.7115,-0.238513 c -25.1412,-0.131114 -50.9284,0.402005 -57.3049,1.184851 -6.3766,0.782846 -13.7617,0.563789 -16.4116,-0.486786 z m 90.0363,-28.6240469 c 5.9725,-7.5926871 5.4883,-10.7285601 -1.9076,-12.3529371 -11.9482,-2.624299 -19.0807,3.533979 -15.8568,13.6911827 2.0228,6.3735187 12.3078,5.5987251 17.7644,-1.3382456 z m 451.054,58.2290009 c -6.1588,-3.780649 -6.8991,-5.201906 -6.3238,-12.141848 0.6108,-7.369456 1.0463,-7.815812 6.9753,-7.151938 13.8857,1.554688 26.9264,0.4527 31.7064,-2.679316 6.7835,-4.444756 9.3984,-4.150993 9.3984,1.055866 0,7.0969 -3.7487,12.063602 -13.2134,17.506087 -13.2498,7.619268 -20.3127,8.463328 -28.5429,3.411149 z M 1699.3411,37.251682 c -10.5323,-3.755965 -27.2913,-15.264483 -40.2578,-27.6452454 -13.1713,-12.5764632 -34.1672,-26.2092986 -40.3647,-26.2092986 -2.6217,0 -11.927,4.789172 -20.6785,10.6425991 -20.4619,13.6857866 -45.4163,25.1923449 -54.6348,25.1923449 -12.906,0 -24.6635,-13.4119234 -24.6635,-28.1341199 0,-5.6784261 1.629,-8.6944001 7.4628,-13.8164791 7.1623,-6.288779 7.7093,-6.424762 13.5968,-3.380268 8.5388,4.415603 14.0397,3.96267 27.4228,-2.257833 17.5583,-8.161156 27.7063,-19.403147 33.5303,-37.144774 2.2857,-6.963257 2.0483,-8.68013 -2.2289,-16.111855 -6.0563,-10.523036 -3.2981,-15.091254 9.1122,-15.091254 21.561,0 37.1604,21.888764 27.8802,39.121051 -2.996,5.563058 -3.3965,8.193153 -1.6714,10.973987 4.0257,6.48876 22.646,19.376755 34.3883,23.801675 25.677,9.675962 65.2548,9.642657 81.7144,-0.06872 11.1902,-6.60244 12.7937,-3.518148 8.2313,15.8341131 -4.2102,17.8585759 -11.6377,29.3086629 -26.235,40.4422639 -10.1154,7.715284 -18.8707,8.749628 -32.6045,3.851856 l 0,-4.3e-5 z"
       id="path2864"
       style="fill:black" />
    <g
       transform="matrix(5.588224,0,0,5.588224,-1244.0819,-2002.6473)"
       id="g3893">
      <path
         d="m 342.25412,338.893 c 0,-12.66625 10.26625,-22.93125 22.93,-22.93125 12.665,0 22.93125,10.265 22.93125,22.93125 0,12.66375 -10.26625,22.93125 -22.93125,22.93125 -12.66375,0 -22.93,-10.2675 -22.93,-22.93125"
         id="path34-7"
         style="fill:url(#radialGradient4021);fill-opacity:1" />
      <path
         d="m 344.02537,403.69725 c 23.66875,0 42.89875,-18.945 43.3875,-42.49625 l -20.5625,0 c -0.48125,12.19375 -10.51375,21.9325 -22.825,21.9325 -12.6175,0 -22.84875,-10.2275 -22.84875,-22.84625 0,-12.235 9.61875,-22.22375 21.705,-22.81875 l 0,-20.5625 c -23.445,0.61 -42.2675,19.79 -42.2675,43.38125 0,23.975 19.43625,43.41 43.41125,43.41"
         id="path54"
         style="fill:#00a86d;fill-opacity:1;fill-rule:nonzero;stroke:none" />
    </g>
  </g>
</svg>
