<svg viewBox="0 0 24 24" xmlns="http://www.w3.org/2000/svg"><path d="M20.74 9.392 13.848 2.5c-1.427-1.431-3.15-1.342-3.756-1.241C4.672 2.15.536 6.869.536 12.553.536 18.876 5.651 24 11.957 24c6.16 0 11.18-4.924 11.413-11.042.002-.07-.022-.281-.17-.376-.183-.114-.546-.071-.546-.071h-4.419s-.42 0-.55.06c-.086.04-.203.13-.203.13l-5.386 5.396a.226.226 0 0 1-.318 0l-5.415-5.426a.225.225 0 0 1 0-.32l5.415-5.425c.087-.09.23-.09.318 0l4.968 4.978s.259.232.504.295c.225.06.56-.17.56-.17l2.613-2.637Zm2.518-3.536-3.699-3.69C15.43-1.827 10.656.921 10.656.921s2.029-1.091 4.62 1.645l6.111 6.15 1.803-1.788s.217-.273.268-.52c.046-.231-.2-.553-.2-.553" fill="#3147a4"/></svg>