<svg clip-rule="evenodd" fill-rule="evenodd" stroke-miterlimit="3.864" viewBox="0 0 560 400" xmlns="http://www.w3.org/2000/svg"><g transform="matrix(2.31385 0 0 2.31385 -1438.69 -1534.25)"><g fill="#231f20"><path d="m800.105 760.502h2.676c1.282 0 2.556.159 2.556 1.452 0 .697-.439 1.597-1.796 1.597h-3.436zm0-3.819h2.325c2.103 0 2.41.975 2.41 1.486 0 .575-.353 1.319-1.913 1.319h-2.822zm-1.372 7.881h5.244c.759 0 2.701-.696 2.701-2.548 0-1.649-1.531-2.027-1.826-2.162.88-.33 1.374-1.061 1.374-1.89 0-1.745-1.926-2.293-2.833-2.293h-4.66z"/><path d="m812.1 762.487c0 .207-.802 1.292-2.467 1.256-.671-.014-1.371-.306-1.345-1.101.018-.473.51-.778.73-.864.715-.27 2.09-.242 3.082-.574zm1.273-3.393c-.031-.633-.82-1.048-1.783-1.233-.482-.097-.907-.108-1.317-.108-.701 0-1.182.121-1.575.28-.803.318-1.167.89-1.271 1.258l-.044.558h1.154c.029-.291.118-1.182 1.563-1.182.816 0 1.882.209 1.987.657v.759c0 .34-.454.463-.615.486-.73.149-1.445.04-2.83.379-.792.199-1.522.611-1.611 1.671-.103 1.257.967 2.002 2.674 2.002 1.007 0 1.841-.548 2.44-.928.041.428.585.928 1.141.928.407 0 .656-.035.947-.11v-.807c-.087.039-.188.039-.276.039-.307 0-.584-.195-.584-.38z"/><path d="m814.656 758.081v6.407h1.23v-3.404c-.031-1.72 1.079-2.257 2.102-2.257.847 0 1.548.415 1.533 1.209v4.452h1.227v-4.979c-.162-.951-.831-1.268-1.212-1.44-.188-.07-.701-.157-1.258-.168-.551-.014-1.15.058-1.518.291-.289.122-.614.391-.847.695h-.027v-.806z" fill-rule="nonzero"/><path d="m821.7 755.593v8.895h1.227v-2.404l1.225-1.012 2.528 3.416h1.506l-3.113-4.186 2.672-2.221h-1.575l-3.243 2.672v-5.16z" fill-rule="nonzero"/><path d="m693.145 758.338c-.627-1.806-2.088-2.915-4.338-2.892-1.326.015-2.497.548-2.95.917-1.24.986-1.681 2.488-1.692 3.744-.018 1.256.452 2.756 1.692 3.746.453.365 1.624.901 2.95.915 2.425.024 4.091-1.5 4.545-3.539h-1.401c-.541 1.697-1.508 2.514-3.069 2.514-.847 0-1.709-.28-2.295-.855-.626-.621-1.05-1.695-1.02-2.781-.03-1.085.394-2.159 1.02-2.78.586-.573 1.448-.854 2.295-.854 1.475 0 2.379.744 2.849 1.865z" fill-rule="nonzero"/><path d="m694.127 764.488h1.225v-4.16c0-.561.208-.732.47-.954.451-.303.83-.487 1.213-.547.393-.061.8-.014 1.298.17.232.086.702.306.643 1.121v4.37h1.227v-4.867c.03-.197-.131-1.173-1.256-1.503-.436-.159-.861-.217-1.241-.217-.381 0-.731.071-1.038.168-.612.208-1.066.538-1.316.782v-3.258h-1.225z" fill-rule="nonzero"/><path d="m701.283 756.863h1.23v-1.27h-1.23zm0 7.625h1.23v-6.407h-1.23z"/><path d="m703.677 758.081v6.407h1.23v-3.404c-.03-1.72 1.078-2.257 2.103-2.257.846 0 1.55.415 1.532 1.209v4.452h1.23v-4.979c-.164-.951-.836-1.268-1.212-1.44-.192-.072-.704-.157-1.259-.168-.556-.014-1.153.058-1.519.291-.291.122-.611.391-.847.695h-.028v-.806z" fill-rule="nonzero"/><path d="m715.555 762.521c0 .207-.804 1.292-2.468 1.257-.672-.012-1.374-.305-1.345-1.099.016-.476.513-.781.73-.866.719-.266 2.09-.242 3.083-.574zm1.271-3.392c-.029-.636-.818-1.048-1.783-1.232-.481-.098-.907-.109-1.315-.109-.701 0-1.182.123-1.576.281-.804.317-1.17.889-1.272 1.255l-.043.563h1.155c.029-.294.115-1.185 1.561-1.185.819 0 1.883.207 1.987.659v.756c0 .342-.453.464-.614.487-.728.149-1.445.039-2.83.378-.793.196-1.524.611-1.611 1.674-.099 1.255.966 2.001 2.675 2.001 1.008 0 1.84-.553 2.441-.929.044.428.582.929 1.139.929.406 0 .655-.036.948-.111v-.805c-.087.037-.19.037-.277.037-.308 0-.585-.195-.585-.379z"/><path d="m731.471 758.338c-.631-1.806-2.09-2.915-4.34-2.892-1.33.015-2.498.548-2.953.917-1.237.986-1.677 2.488-1.695 3.744-.012 1.256.458 2.756 1.695 3.746.455.365 1.623.901 2.953.915 2.424.024 4.09-1.5 4.542-3.539h-1.402c-.539 1.697-1.504 2.514-3.068 2.514-.847 0-1.71-.28-2.292-.855-.629-.621-1.051-1.695-1.024-2.781-.027-1.085.395-2.159 1.024-2.78.582-.573 1.445-.854 2.292-.854 1.477 0 2.382.744 2.847 1.865z" fill-rule="nonzero"/><path d="m737.62 761.327c0 1.05-.584 2.416-2.208 2.416-1.606 0-2.202-1.366-2.202-2.416 0-1.049.596-2.403 2.202-2.403 1.624 0 2.208 1.354 2.208 2.403zm1.253 0c0-2.853-2.057-3.426-3.461-3.426-1.399 0-3.46.573-3.46 3.426 0 2.854 2.061 3.441 3.46 3.441 1.404 0 3.461-.587 3.461-3.441"/><g fill-rule="nonzero"><path d="m739.667 758.081v6.407h1.224v-3.404c-.026-1.72 1.084-2.257 2.105-2.257.846 0 1.549.415 1.535 1.209v4.452h1.224v-4.979c-.159-.951-.83-1.268-1.21-1.44-.194-.072-.703-.157-1.255-.168-.555-.014-1.159.058-1.52.291-.294.122-.614.391-.85.695h-.029v-.806z"/><path d="m746.358 762.596c0 .598.159 1.745 1.942 2.087.438.085.961.085 1.476.085.51-.037 1.006-.124 1.399-.27.806-.304 1.271-.915 1.375-1.537.101-.622-.16-1.257-.835-1.585-.54-.28-1.15-.402-1.765-.489-.763-.156-1.373-.278-1.798-.474-.422-.185-.541-.551-.364-.879.19-.341.745-.683 1.49-.683 1.709 0 1.752.695 1.752 1.026h1.2c-.018-.72-.323-1.976-2.852-1.976-1.502 0-2.817.693-2.817 1.915 0 .937.525 1.377 1.125 1.56.659.257 1.882.451 2.847.647.614.17.834.488.834.818 0 .317-.22.622-.482.78-.204.122-.584.208-.968.293-.392 0-.785 0-1.079-.072-.86-.221-1.282-.623-1.328-1.246z"/><path d="m754.757 756.351h-1.229v1.73h-1.067v.941h1.067v4.844c0 .243.263.828 1.112.902.48.038.817 0 1.33-.074v-.902c-.687.099-1.213.074-1.213-.329v-4.441h1.213v-.941h-1.213z"/><path d="m756.418 764.488h1.23v-3.33c0-1.114.42-1.709 1.284-2.039.336-.097.716-.146 1.17-.146v-1.072h-.689c-.552.035-1.285.45-1.74 1.182h-.025v-1.002h-1.23z"/><path d="m766.588 764.488v-6.407h-1.226v3.478c0 .829-.176 1.782-1.504 2.173-.307.07-.598.097-.862.07-.264-.01-.498-.07-.689-.168-.377-.197-.597-.55-.581-1.026v-4.527h-1.229v5.101c.148.696.645 1.185 1.213 1.439.19.073.688.147 1.226.147.559 0 1.156-.074 1.549-.27.293-.122.615-.389.847-.696h.03v.686z"/><path d="m772.55 762.279c-.047.244-.192.562-.364.83-.176.34-.776.659-1.463.693-.671.027-1.431-.219-1.898-.986-.247-.415-.338-1.074-.278-1.72.058-.647.263-1.27.599-1.587.51-.487 1.037-.646 1.506-.67.45-.012.83.11 1.05.209.513.206.686.523.819 1.194h1.212c-.087-.744-.35-1.451-.95-1.768-.526-.38-1.33-.587-2.162-.573-.83.022-1.694.277-2.31.865-.771.732-1.066 1.633-1.091 2.475-.032.855.217 1.647.523 2.173.482.842 1.563 1.304 2.688 1.354 1.125.038 2.291-.355 2.89-1.196.207-.293.382-.756.412-1.293z"/><path d="m776.167 756.351h-1.225v1.73h-1.071v.941h1.071v4.844c0 .243.261.828 1.108.902.483.038.818 0 1.328-.074v-.902c-.686.099-1.211.074-1.211-.329v-4.441h1.211v-.941h-1.211z"/></g><path d="m778.057 756.863h1.229v-1.27h-1.229zm0 7.625h1.229v-6.407h-1.229z"/><path d="m785.622 761.327c0 1.05-.585 2.416-2.209 2.416-1.605 0-2.202-1.366-2.202-2.416 0-1.049.597-2.403 2.202-2.403 1.624 0 2.209 1.354 2.209 2.403zm1.254 0c0-2.853-2.059-3.426-3.463-3.426-1.401 0-3.46.573-3.46 3.426 0 2.854 2.059 3.441 3.46 3.441 1.404 0 3.463-.587 3.463-3.441"/><path d="m787.668 758.081v6.407h1.224v-3.404c-.029-1.72 1.084-2.257 2.105-2.257.846 0 1.546.415 1.535 1.209v4.452h1.225v-4.979c-.159-.951-.831-1.268-1.214-1.44-.19-.072-.7-.157-1.252-.168-.556-.014-1.158.058-1.519.291-.295.122-.614.391-.851.695h-.029v-.806z" fill-rule="nonzero"/></g><path d="m669.087 745.279-11.172-11.17c-2.313-2.32-5.104-2.175-6.088-2.012-8.782 1.446-15.485 9.091-15.485 18.304 0 10.247 8.289 18.552 18.51 18.552 9.984 0 18.118-7.98 18.496-17.895.004-.115-.036-.456-.276-.61-.296-.184-.885-.115-.885-.115h-7.161s-.68 0-.891.098c-.139.063-.33.21-.33.21l-8.728 8.746c-.142.142-.374.142-.516 0l-8.775-8.795c-.144-.141-.144-.374 0-.518l8.775-8.793c.142-.145.374-.145.516 0l8.051 8.068s.42.377.817.479c.365.096.908-.276.908-.276z" fill="#3147a4" fill-rule="nonzero"/><path d="m673.167 739.547-5.995-5.981c-6.694-6.468-14.429-2.014-14.429-2.014s3.288-1.769 7.489 2.665l9.903 9.966 2.921-2.897s.352-.442.435-.843c.075-.374-.324-.896-.324-.896" fill="#3147a4"/><path d="m697.196 748.454h5.664v-9.628h-5.664zm9.3-9.676v11.356h-9.276v2.125h-3.653v-2.125h-9.277v-11.356c0-.902.731-1.635 1.632-1.635h7.645v-1.785h3.629v1.785h7.676c.903 0 1.624.733 1.624 1.635zm-18.549 9.676h5.62v-9.628h-5.62z" fill="#231f20"/><path d="m697.196 748.454h5.664v-9.628h-5.664zm9.3-9.676v11.356h-9.276v2.125h-3.653v-2.125h-9.277v-11.356c0-.902.731-1.635 1.632-1.635h7.645v-1.785h3.629v1.785h7.676c.903 0 1.624.733 1.624 1.635zm-18.549 9.676h5.62v-9.628h-5.62z" fill="none" stroke="#231f20" stroke-width=".3"/><path d="m730.233 747.708h-4.797v-3.966h4.521v-1.683h-4.521v-2.136h4.776v-1.66h-13.18v1.66h4.67v2.136h-4.406v1.683h4.406v3.966h-4.67v1.636h13.201zm2.812-12.504h-18.842c-.896 0-1.616.73-1.616 1.628v15.405h22.071v-15.405c0-.898-.718-1.628-1.613-1.628zm-16.784 1.622h14.775v13.84h-14.775zm12.357 7.525h-2.528l.937 1.687s.27.644.813.941c.462.252 1.183.195 1.183.195h1.144v-1.553l-.832-.005z" fill="#231f20" fill-rule="nonzero"/><path d="m730.233 747.708h-4.797v-3.966h4.521v-1.683h-4.521v-2.136h4.776v-1.66h-13.18v1.66h4.67v2.136h-4.406v1.683h4.406v3.966h-4.67v1.636h13.201zm2.812-12.504h-18.842c-.896 0-1.616.73-1.616 1.628v15.405h22.071v-15.405c0-.898-.718-1.628-1.613-1.628zm-16.784 1.622h14.775v13.84h-14.775zm12.357 7.525h-2.528l.937 1.687s.27.644.813.941c.462.252 1.183.195 1.183.195h1.144v-1.553l-.832-.005z" fill="none" stroke="#231f20" stroke-width=".3"/><path d="m763.531 738.942h-1.33v-1.268c0-.928-.746-1.685-1.675-1.685l-4.556-.003v-.98h-3.414v.98h-4.545v1.719h4.545v1.236h-5.12v1.733h5.12v1.177h-4.545v1.71h4.545v1.244h-4.931v1.734h4.931v1.186h-5.38v1.745h5.374v1.218h-3.533c-1.379 0-2.659-.407-3.739-1.1.697-1.007 1.107-2.223 1.107-3.537l.02-4.597-2.117-.011c1.825-1.174 2.758-3.283 2.758-5.614 0-.036-6.966-.016-6.966-.016l-.019 1.746h4.035c-.313 1.96-1.82 3.52-3.753 3.905v1.701h3.533v2.506c0 .748-.203 1.445-.535 2.063-.554-.788-.95-1.695-1.14-2.676l-1.899.02c.155 1.571.753 3.005 1.664 4.183-.564.385-1.211.653-1.921.733v2.34c1.436 0 2.765-.485 3.832-1.294 1.315.884 2.896 1.406 4.603 1.406h14.8l.012-1.765-7.322.006v-1.217h6.241v-1.745h-6.241v-1.186h6.241v-1.734h-6.241v-1.244h6.302l-.014-2.887h1.273v-1.733zm-7.561 1.732h2.655v1.179h-2.655zm0-2.968h2.655v1.236h-2.655z" fill="#231f20" fill-rule="nonzero"/><path d="m763.531 738.942h-1.33v-1.268c0-.928-.746-1.685-1.675-1.685l-4.556-.003v-.98h-3.414v.98h-4.545v1.719h4.545v1.236h-5.12v1.733h5.12v1.177h-4.545v1.71h4.545v1.244h-4.931v1.734h4.931v1.186h-5.38v1.745h5.374v1.218h-3.533c-1.379 0-2.659-.407-3.739-1.1.697-1.007 1.107-2.223 1.107-3.537l.02-4.597-2.117-.011c1.825-1.174 2.758-3.283 2.758-5.614 0-.036-6.966-.016-6.966-.016l-.019 1.746h4.035c-.313 1.96-1.82 3.52-3.753 3.905v1.701h3.533v2.506c0 .748-.203 1.445-.535 2.063-.554-.788-.95-1.695-1.14-2.676l-1.899.02c.155 1.571.753 3.005 1.664 4.183-.564.385-1.211.653-1.921.733v2.34c1.436 0 2.765-.485 3.832-1.294 1.315.884 2.896 1.406 4.603 1.406h14.8l.012-1.765-7.322.006v-1.217h6.241v-1.745h-6.241v-1.186h6.241v-1.734h-6.241v-1.244h6.302l-.014-2.887h1.273v-1.733zm-7.561 1.732h2.655v1.179h-2.655zm0-2.968h2.655v1.236h-2.655z" fill="none" stroke="#231f20" stroke-width=".31"/><g fill="#231f20"><path d="m834.616 735.518h14.086v1.75h-14.086z" fill-rule="nonzero" stroke="#231f20" stroke-width=".3"/><path d="m831.66 742.758-.013 9.705h-3.42v-7.079c-.639.383-1.332.723-2.019 1.02l-1.425-2.235c3.107-1.485 6.064-4.028 7.465-6.807l2.098 1.827c-.745 1.274-1.658 2.53-2.686 3.569z" fill-rule="nonzero" stroke="#231f20" stroke-width=".3"/><path d="m843.566 752.452c1.674 0 3.015-1.356 3.015-3.034l.005-6.745h2.636v-1.749h-15.465v1.749h9.114v7.045c0 .551-.448 1.001-.996 1.001h-4.042v1.737z" fill-rule="nonzero" stroke="#231f20" stroke-width=".3"/><path d="m831.465 736.032c-1.355 2.676-3.487 4.894-6.092 6.356l-1.313-2.312c2.225-1.497 4.013-3.17 5.417-5.815z" fill-rule="nonzero" stroke="#231f20" stroke-width=".3"/><path d="m776.283 745.928s-1.44 1.395-2.98 2.451l-.012-8.95-6.261.04v1.708h2.77l-.001 8.806c-.974.305-1.754.49-1.754.49l1.757 2.186s1.733-.426 3.56-1.361c1.763-.9 2.922-2.075 2.922-2.075v-3.295zm5.182-6.921.005-2.116 4.916-.018v2.134c.025.786-.224 2.781 3.195 2.791h2.135v-1.605l-.564-.015c-1.356.089-1.236-.485-1.235-.881l-.001-2.529c0-.885-.729-1.602-1.634-1.602h-1.535l-8.735-.004.009 4.136c0 .326.124.97-1.233.881l-.598-.019v1.638h2.075c3.548.199 3.169-2.005 3.2-2.791zm5.928 9.721c1.594-1.111 3.025-2.441 4.25-3.955l.01-2.177h-15.666v1.961h11.711c-1.073 1.089-2.292 2.029-3.616 2.811-1.247-.635-2.434-1.376-3.537-2.244l-4.212-.009c1.332 1.439 2.855 2.699 4.524 3.752-1.589.546-3.28.873-5.036.941l.002 2.556c2.974 0 5.782-.644 8.316-1.79 2.604 1.094 5.45 1.719 8.434 1.756v-2.597c-1.801-.141-3.533-.484-5.18-1.005zm-19.133-11.299h6.953v-1.846h-6.953z"/></g><path d="m776.283 745.928s-1.44 1.395-2.98 2.451l-.012-8.95-6.261.04v1.708h2.77l-.001 8.806c-.974.305-1.754.49-1.754.49l1.757 2.186s1.733-.426 3.56-1.361c1.763-.9 2.922-2.075 2.922-2.075v-3.295zm5.182-6.921.005-2.116 4.916-.018v2.134c.025.786-.224 2.781 3.195 2.791h2.135v-1.605l-.564-.015c-1.356.089-1.236-.485-1.235-.881l-.001-2.529c0-.885-.729-1.602-1.634-1.602h-1.535l-8.735-.004.009 4.136c0 .326.124.97-1.233.881l-.598-.019v1.638h2.075c3.548.199 3.169-2.005 3.2-2.791zm5.928 9.721c1.594-1.111 3.025-2.441 4.25-3.955l.01-2.177h-15.666v1.961h11.711c-1.073 1.089-2.292 2.029-3.616 2.811-1.247-.635-2.434-1.376-3.537-2.244l-4.212-.009c1.332 1.439 2.855 2.699 4.524 3.752-1.589.546-3.28.873-5.036.941l.002 2.556c2.974 0 5.782-.644 8.316-1.79 2.604 1.094 5.45 1.719 8.434 1.756v-2.597c-1.801-.141-3.533-.484-5.18-1.005zm-19.133-11.299h6.953v-1.846h-6.953z" fill="none" stroke="#231f20" stroke-width=".3"/><path d="m813.711 748.967c-.661.509-2.159.9-2.768.931l.006-6.204h8.982l.01-6.93c0-.92-.738-1.663-1.653-1.663l-10.566.005-.002 14.983h-.684v2.358l1.684.002c1.664 0 3.46-.324 4.996-.913l-.005-2.57zm4.077-.02c1.233-1.175 2.224-2.595 2.905-4.179l-2.552-.014c-.528 1.005-1.233 1.909-2.076 2.677-.073-.087-.354-.457-.424-.545-.458-.617-.773-1.264-1.02-2.094h-2.624c.275.881.814 2.169 1.231 2.871 1.867 3.003 4.689 4.74 7.567 4.794v-2.421c-.99-.034-2.055-.463-3.007-1.089zm-6.861-6.959h5.709v-1.715h-5.709zm0-3.434h5.709v-1.745h-5.709z" fill="#231f20"/><path d="m813.711 748.967c-.661.509-2.159.9-2.768.931l.006-6.204h8.982l.01-6.93c0-.92-.738-1.663-1.653-1.663l-10.566.005-.002 14.983h-.684v2.358l1.684.002c1.664 0 3.46-.324 4.996-.913l-.005-2.57zm4.077-.02c1.233-1.175 2.224-2.595 2.905-4.179l-2.552-.014c-.528 1.005-1.233 1.909-2.076 2.677-.073-.087-.354-.457-.424-.545-.458-.617-.773-1.264-1.02-2.094h-2.624c.275.881.814 2.169 1.231 2.871 1.867 3.003 4.689 4.74 7.567 4.794v-2.421c-.99-.034-2.055-.463-3.007-1.089zm-6.861-6.959h5.709v-1.715h-5.709zm0-3.434h5.709v-1.745h-5.709z" fill="none" stroke="#231f20" stroke-width=".3"/><path d="m802.638 749.542v-4.038h3.97v-1.72h-3.97v-1.945h3.652v-1.732l-6.66.014c.468-.505.915-1.105 1.318-1.672l5.602-.025v-1.652h-4.55c.283-.526.573-1.076.8-1.636l-2.547-.908c-.922 2.573-2.81 4.838-4.865 6.083l1.685 2.002c.249-.17.514-.315.753-.501h1.901v1.972h-2.506v1.72h2.551l-.01 4.829c-.569.09-1.141.145-1.734.164l1.688 2.111c2.551-.241 4.891-1.194 6.822-2.659l.005-2.808c-1.146 1.01-2.463 1.826-3.905 2.401z" fill="#231f20" fill-rule="nonzero" stroke="#231f20" stroke-width=".3"/></g></svg>