<svg xmlns="http://www.w3.org/2000/svg" width="218.489" height="62.755" viewBox="0 0 57.809 16.604"><defs><linearGradient id="a" spreadMethod="pad" gradientTransform="matrix(0 16.6044 16.5077 0 86.133 167.689)" gradientUnits="userSpaceOnUse" y2="0" x2="1" y1="0" x1="0"><stop offset="0" style="stop-opacity:1;stop-color:#1969bc"/><stop offset="1" style="stop-opacity:1;stop-color:#27b244"/></linearGradient></defs><path d="M86.133 176.123a8.255 8.255 0 0 0 6.644 8.094c.095-1.796.235-3.866.329-5.637-1.426.56-2.852.91-4.44 1.05-.304.023-.75-.07-.867-.278-.187-.399.28-.68.584-.749 1.45-.375 2.641-.747 3.929-1.377.303-.187.794-.491.863-.678.07-.186.093-.887.093-1.307-.935.63-2.338 1.027-3.459 1.074-.373.023-1.192.023-1.238-.257-.047-.142.07-.233.163-.278 1.262-.515 2.501-.98 3.622-1.612.912-.491 1.473-1.097 2.036-1.097.56 0 1.12.606 2.032 1.097 1.12.633 2.362 1.097 3.646 1.612.07.045.187.136.164.278-.07.28-.887.28-1.263.257-1.12-.047-2.525-.443-3.458-1.074 0 .42.022 1.121.093 1.307.07.187.585.491.866.678 1.287.63 2.475 1.002 3.923 1.377.306.07.773.35.586.75-.115.207-.538.3-.863.277a15.637 15.637 0 0 1-4.443-1.05c.092 1.77.235 3.84.328 5.636a8.254 8.254 0 0 0-1.216-16.337c.146.253.191.83.258.92.164.303 1.193.793 1.613.957.491.21 1.005.352 1.472.562.234.116.445.42.165.583-.514.278-1.448.048-2.012-.096a47.226 47.226 0 0 1-.7-.21c.608.492 1.307.936 1.961 1.309.516.281.96.493 1.475.77.231.14.394.397.185.676-.069.074-.185.12-.348.12-.796-.046-1.638-.492-2.384-.863a11.269 11.269 0 0 1-2.037-1.308c-.02-.025-.043-.025-.043-.025s-.026 0-.047.025c-.633.512-1.333.957-2.033 1.308-.748.371-1.59.817-2.386.863-.163 0-.28-.046-.353-.12-.207-.28-.044-.535.19-.677.515-.276.958-.488 1.472-.77.654-.372 1.38-.816 1.964-1.307-.233.072-.467.141-.702.209-.56.144-1.495.374-2.01.096-.28-.164-.07-.467.165-.583.468-.21.981-.353 1.47-.562.421-.164 1.45-.654 1.613-.957.069-.09.114-.667.26-.92a8.254 8.254 0 0 0-7.862 8.243m7.579-3.449c-.327-.066-.513-.277-.349-.396.256-.21.654-.231 1.029-.231.372 0 .77.02 1.027.231.164.12-.023.33-.35.396-.327.07-.445.049-.677.049-.09 0-.163.003-.237.003-.119 0-.241-.008-.443-.052m2.644 3.805c-.073-.28.233-.397.513-.256.7.35 1.33.512 2.173.628.187.027.328.118.35.281.048.234-.28.328-.445.328-.91-.046-2.43-.35-2.59-.98m-6.967.652c.021-.163.162-.254.35-.28.84-.117 1.473-.278 2.176-.629.277-.14.581-.024.511.256-.162.63-1.68.935-2.593.981-.165 0-.492-.094-.444-.328" style="fill:url(#a);stroke:none;stroke-width:.35277778" transform="translate(-86 -167.746)"/><path d="M122.936 174.916h-.394l-.194-.619h-.794l.154.62h-.933v-1.12h2.004v-.848h-2.004v-.835h2.026v-.85h-5.009v.85h1.908v.835h-1.901v.849h1.9v1.118h-1.907v.856h5.144z" style="fill:#1969bc;fill-opacity:1;fill-rule:nonzero;stroke:none;stroke-width:.35277778" transform="translate(-86 -167.746)"/><path d="M116.135 169.921v7.196h7.082c.606 0 .97-.056 1.09-.165a.832.832 0 0 0 .232-.354c.039-.124.056-.26.056-.411v-6.266zm7.385 6.06a.316.316 0 0 1-.08.227c-.037.044-.116.062-.244.062h-5.99v-5.504h6.314zM142.552 173.335l-.757-2.055-1.391-.027 1.02 2.554c.16.366.524.577.683.679h-2.28v-3.543l3.59-.002v-.945h-8.409v.945l3.588.002v3.543h-2.269c.153-.102.463-.313.62-.679l1.021-2.554-1.389.027-.759 2.055c-.132.342-.6.97-.994 1.15h-.053v.972l3.823.003v1.674h1.232v-1.674l3.823-.003v-.971h-.131c-.391-.18-.838-.837-.968-1.15M111.66 170.87v-.946h-1.241v.946h-3.609v5.102h3.609v1.155h1.241v-1.155h2.82c.214 0 .38-.047.501-.131a.72.72 0 0 0 .252-.29.839.839 0 0 0 .073-.35v-4.331zm-1.241 4.153h-2.54v-3.204h2.54zm3.803-.248c0 .106-.018.174-.054.203-.036.029-.143.045-.322.045h-2.186v-3.204h2.562zM130.503 169.892h-1.233v1.048h-3.796v.996h3.562l-2.462 3.585c-.106.159-.343.343-.37.37-.155.104-.286.208-.498.236-.048 0-.146.013-.232.007v.987h.313c.078 0 .24-.011.337-.028.161-.025.605-.208.763-.34.183-.154.499-.443.653-.654l1.232-1.702v.76c.183 0 .341 0 .471.079.107.027.182.132.34.315l.945 1.334 1.257.028-1.337-1.888c-.522-.683-.63-.758-.993-.785h-.577l1.048-1.466 2.302 3.117c.106.131.341.469.603.755.314.315.761.473.968.473.211.028.342.008.5.008v-.967a.788.788 0 0 1-.343-.065c-.261-.105-.574-.545-.755-.756l-2.49-3.403h3.612v-.996h-3.82zM108.457 179.785c-.298 0-.511.084-.643.253-.133.164-.197.438-.197.824 0 .33.061.563.182.698.126.138.345.21.658.21h1.193v.523h-1.226c-.279 0-.49-.02-.637-.06a1.41 1.41 0 0 1-.433-.206 1.127 1.127 0 0 1-.398-.47 1.705 1.705 0 0 1-.134-.716c0-.535.133-.927.396-1.188.266-.253.673-.381 1.228-.381h1.204v.513zM110.898 179.272v1.225h1.332v-1.225h.719v3.021h-.719v-1.266h-1.332v1.266h-.72v-3.021zM114.416 182.293h-.758v-3.021h.758zM115.133 179.272h.916l1.41 2.168-.036-2.168h.74v3.021h-.837l-1.482-2.288.034 2.288h-.745zM120.61 179.272h-.774l-1.452 3.021h.77l.305-.72h1.494l.321.72h.803zm-.914 1.76.5-1.16.527 1.16zM124.917 179.8h-1.107v-.528h2.985v.527h-1.127v2.494h-.751zM128.665 179.272h-.774l-1.453 3.021h.768l.308-.72h1.495l.323.72h.799zm-.912 1.76.5-1.16.526 1.16zM131.246 182.293h-.755v-3.021h.755zM134.899 179.77a.875.875 0 0 0-.145-.2 1.11 1.11 0 0 0-.21-.145 1.09 1.09 0 0 0-.37-.113 4.39 4.39 0 0 0-.634-.04h-1.575v3.021h.721v-1.059h.884c.284 0 .505-.014.657-.042.148-.03.282-.078.401-.148a.93.93 0 0 0 .299-.325c.063-.13.094-.284.094-.462 0-.187-.04-.35-.122-.487m-.831.824a.616.616 0 0 1-.202.082c-.08.016-.174.026-.296.026h-.884v-.887h.842c.253 0 .43.032.54.1.1.07.15.186.15.342 0 .146-.05.26-.15.337M136.278 182.293h-.755v-3.021h.755zM136.997 179.272h.914l1.411 2.168-.034-2.168h.74v3.021h-.84l-1.48-2.288.03 2.288h-.741zM141.965 181.032v-.531h1.712v1.792h-1.551c-.28 0-.493-.02-.645-.06a1.503 1.503 0 0 1-.45-.207 1.132 1.132 0 0 1-.394-.471 1.698 1.698 0 0 1-.136-.718c0-.53.136-.923.403-1.184.263-.253.67-.381 1.222-.381h1.55v.514h-1.55c-.282 0-.493.08-.623.24-.132.161-.197.421-.197.779 0 .33.065.567.197.717.13.148.338.224.623.224h.811v-.714z" style="fill:#1969bc;fill-opacity:1;fill-rule:nonzero;stroke:none;stroke-width:.35277778" transform="translate(-86 -167.746)"/></svg>