<svg viewBox="0 0 8 8" version="1.1" xmlns="http://www.w3.org/2000/svg" xmlns:xlink="http://www.w3.org/1999/xlink">
    <title>Group</title>
    <defs>
        <path d="M4.24266297,0.00278299834 C4.11344823,0.03806142 3.97931159,0.0518511685 3.84562188,0.0436003074 C3.70126944,0.0202317185 3.55359815,0.0278208214 3.4124018,0.0658642941 C3.27881788,0.111319934 3.20182159,0.22913353 3.07658667,0.29128716 C2.95135174,0.35344079 2.78715484,0.311695814 2.65635392,0.3914751 C2.4105224,0.541757011 2.41794372,0.918389453 2.29920246,1.15587198 C2.16561854,1.41654616 2.22498917,1.82286391 1.98008532,2.02138446 C1.96920418,2.0292124 1.95692268,2.03488079 1.94390634,2.03808245 C1.92814662,2.03890037 1.91235509,2.03890037 1.89659537,2.03808245 C1.78156477,2.03808245 1.44482197,1.8423449 1.29639539,1.83492357 C1.21847144,1.83492357 1.18043713,1.87295789 1.11086217,1.88037921 C1.08003105,1.88373563 1.04892668,1.88373563 1.01809556,1.88037921 C0.98722564,1.87783615 0.956198865,1.87783615 0.925328947,1.88037921 C0.814672571,1.89506022 0.707359113,1.92863489 0.608067136,1.97963949 C0.511198378,2.02378258 0.424143613,2.08686574 0.352031288,2.16517271 C0.252771014,2.27278198 0.264830673,2.31267162 0.207315374,2.43234055 C0.0839357809,2.69858073 -0.0403714784,2.81361133 0.0125054901,3.12066881 C0.0579611297,3.38598132 0.242566687,3.65685982 0.391920931,3.88877635 C0.563539162,4.15594419 0.916052286,4.18470184 1.15539014,4.4184737 C1.24166309,4.50289132 1.34092337,4.60400693 1.41791965,4.69027987 C1.49491594,4.77655282 1.71291748,4.99826502 1.72776014,5.07989964 C1.74260279,5.16153426 1.60901887,5.4398341 1.57191223,5.51683038 C1.50048194,5.68288262 1.41513666,5.72648292 1.51346926,5.92685881 C1.63128286,6.16434133 1.96709799,6.31369558 2.16283554,6.48345847 C2.42258206,6.70980901 2.81220182,6.62631906 3.1331743,6.57622509 C3.45414677,6.52613112 3.76305959,6.47603715 4.02095077,6.20515864 C4.15639002,6.06786405 4.21390532,5.92685881 4.43932819,6.00292743 C4.60723576,6.05951506 4.66938938,6.17918399 4.84935661,6.20515864 C5.02932384,6.23113329 5.16569076,6.21907363 5.323394,6.27937193 C5.50057822,6.34801922 5.54046787,6.41944951 5.73898841,6.33967023 C5.97276028,6.24690361 6.38835469,6.14486034 6.55069626,5.91201615 C6.6017179,5.83965819 6.59244124,5.74689158 6.62769255,5.67731662 C6.65181187,5.62722265 6.73994015,5.55115403 6.75385514,5.51219205 C6.79451374,5.35188735 6.79863513,5.18449573 6.7659148,5.02238434 C6.74365082,4.94631572 6.6592332,4.91477507 6.63882455,4.86189811 C6.61192223,4.78954015 6.63882455,4.69677354 6.60913923,4.62441558 C6.54234727,4.43888236 6.37815037,4.27004712 6.49689163,4.18934017 C6.51637262,4.17820818 6.76034881,4.18934017 6.89857106,4.10399489 C7.15646224,3.95278531 7.23624152,3.64016183 7.44311107,3.44813495 C7.56834599,3.33403202 7.6694616,3.28857638 7.7297599,3.11417515 C7.77985387,2.96853157 7.82252651,2.80804533 7.86983748,2.65034209 C7.97373608,2.29504597 7.84664583,2.10858508 7.54422667,1.94624351 C7.40600442,1.87203022 7.32251447,1.74308463 7.18521989,1.68278633 C7.03939258,1.62953766 6.88870058,1.59069951 6.73530182,1.56682807 C6.56368359,1.53714275 6.41154635,1.54178108 6.25013244,1.50096377 C6.10188089,1.46713438 5.94851138,1.46209555 5.79835905,1.48612112 C5.63323448,1.51024043 5.50336122,1.58816439 5.45326725,1.36645219 C5.42265427,1.22451927 5.48109723,1.05846704 5.45326725,0.910968124 C5.41244994,0.692966588 5.27793836,0.305202152 5.05529849,0.199448215 C4.92449757,0.136366919 4.77699865,0.180894892 4.63228274,0.102043273 C4.54259447,0.0370940409 4.43502372,0.00145313119 4.32429759,-1.44188279e-16 L4.24266297,-1.44188279e-16" id="path-1"></path>
        <radialGradient cx="49.9778961%" cy="47.6086536%" fx="49.9778961%" fy="47.6086536%" r="54.447885%" gradientTransform="translate(0.499779,0.476087),scale(0.837172,1.000000),translate(-0.499779,-0.476087)" id="radialGradient-3">
            <stop stop-color="#FFFFFF" offset="0%"></stop>
            <stop stop-color="#FFFFFF" offset="7%"></stop>
            <stop stop-color="#F2D4DA" offset="38%"></stop>
            <stop stop-color="#EFCBD1" offset="42%"></stop>
            <stop stop-color="#DB8D98" offset="69%"></stop>
            <stop stop-color="#CF6675" offset="90%"></stop>
            <stop stop-color="#CA5767" offset="100%"></stop>
        </radialGradient>
        <path d="M2.19764103,-7.7243721e-17 C2.1763047,-7.7243721e-17 2.15404072,-7.7243721e-17 2.12899373,0.00927666114 C2.00028687,0.045566712 1.86628302,0.059375071 1.7328803,0.0500939702 C1.70690565,0.0500939702 1.61506671,0.0436003074 1.57981539,0.0426726413 C1.48579429,0.0387767104 1.39177259,0.0503727197 1.30151556,0.0769962875 C1.16514864,0.117813597 1.08815235,0.235627193 0.962917427,0.297780823 C0.837682501,0.359934452 0.673485599,0.318189477 0.542684677,0.397968763 C0.296853157,0.548250674 0.304274486,0.924883116 0.185533223,1.16236564 C0.0872006148,1.35810319 0.0927666114,1.63269236 0,1.8423449 C0.00668718336,1.9178063 0.0209840477,1.99239864 0.0426726413,2.06498477 C0.0797792858,2.18279837 0.307057484,2.17444937 0.265312509,2.4007999 L0.27458917,2.43790655 C0.460122393,3.04460019 1.54085342,2.89524594 1.85162156,2.65776342 C2.00839714,2.53623916 2.30803329,2.43790655 2.42955755,2.28669697 C2.53438382,2.15218539 2.87669262,2.04457612 2.96296557,1.90171553 C3.09747716,1.67722033 3.27095072,1.37665651 3.25425273,1.1716423 C3.23534244,0.706569286 2.95047884,0.293896166 2.52232417,0.111319934 C2.38224658,0.0463833057 2.33679094,-7.7243721e-17 2.21433902,-7.7243721e-17 L2.19764103,-7.7243721e-17" id="path-4"></path>
        <radialGradient cx="46.0164632%" cy="18.9911639%" fx="46.0164632%" fy="18.9911639%" r="92.2157221%" gradientTransform="translate(0.460165,0.189912),scale(0.931592,1.000000),translate(-0.460165,-0.189912)" id="radialGradient-6">
            <stop stop-color="#CA5767" offset="0%"></stop>
            <stop stop-color="#CA5767" offset="21%"></stop>
            <stop stop-color="#CC5D6C" offset="31%"></stop>
            <stop stop-color="#D16C7B" offset="43%"></stop>
            <stop stop-color="#D98793" offset="58%"></stop>
            <stop stop-color="#E5ABB4" offset="73%"></stop>
            <stop stop-color="#F2D4DA" offset="87%"></stop>
            <stop stop-color="#F2D4DA" offset="100%"></stop>
        </radialGradient>
        <path d="M2.06972231,0.00185533223 L1.99829202,0.0120596595 C1.86416782,0.0499929924 1.7246089,0.065046538 1.5854806,0.056587633 C1.55950594,0.056587633 1.45746267,0.048238638 1.42684969,0.0454556396 C1.3291246,0.0404175025 1.23125398,0.0520239547 1.13741786,0.0797792858 C0.99455728,0.123379593 0.916633327,0.242120856 0.788615403,0.30798515 C0.660597479,0.373849444 0.487123916,0.328393805 0.350756997,0.410956089 C0.214390078,0.493518373 0.0529761741,0.789443863 0.00195453782,1.16329331 C-0.0138157861,1.28760057 0.0715294964,1.4044865 0.0548315063,1.54549175 C-0.0175264506,2.15311305 0.155019447,2.0148908 0.280254372,2.26072232 C0.522375228,2.71898938 0.498255909,2.85906696 0.377659314,2.83401998 C0.512170901,2.99636155 0.635550494,3.20508643 0.53629022,3.33310435 C0.949101641,3.42587096 1.47416066,3.30898503 1.67546421,3.15406479 C1.84058878,3.02697453 2.06693931,2.9045226 2.1931019,2.74496403 C2.30627717,2.60581412 2.50665305,2.16424505 2.59941966,2.0148908 C2.74135257,1.7848296 2.89441748,1.73659097 3.00388208,1.30800922 C3.18941531,0.591850981 2.82484252,0.287576495 2.43893342,0.123379593 C2.32663081,0.0663633051 2.20710724,0.0248577326 2.0836373,1.23589954e-16 L2.07157764,1.23589954e-16" id="path-7"></path>
        <radialGradient cx="51.0555877%" cy="31.2655275%" fx="51.0555877%" fy="31.2655275%" r="97.6189925%" gradientTransform="translate(0.510556,0.312655),scale(1.000000,0.936805),translate(-0.510556,-0.312655)" id="radialGradient-9">
            <stop stop-color="#CA5767" offset="0%"></stop>
            <stop stop-color="#CB5B6B" offset="11%"></stop>
            <stop stop-color="#D06877" offset="22%"></stop>
            <stop stop-color="#D77E8B" offset="34%"></stop>
            <stop stop-color="#E09CA7" offset="47%"></stop>
            <stop stop-color="#EDC3CA" offset="59%"></stop>
            <stop stop-color="#F2D4DA" offset="64%"></stop>
            <stop stop-color="#F4DBE0" offset="75%"></stop>
            <stop stop-color="#FAF0F2" offset="91%"></stop>
            <stop stop-color="#FFFFFF" offset="100%"></stop>
        </radialGradient>
        <path d="M2.17867793,0.0176256562 C1.92449741,0.0834899503 1.46530269,0.0231916529 1.24173515,0.175328896 C1.03735637,0.308329905 0.872884958,0.494281985 0.765842436,0.713375242 C0.533925908,0.967555757 0.282528391,1.19019562 0.141523141,1.38778851 C-0.0106566647,1.6131833 -0.042223006,1.89901479 0.0571055249,2.15218539 C0.335405359,2.70878505 1.04043161,2.88689695 1.57569495,2.71713405 C2.09611564,2.60024812 2.73342227,2.45182154 2.80578022,1.75978262 C2.8419592,1.41654616 2.93750881,1.06403303 2.82433354,0.747698888 C2.73991593,0.51578236 2.71950727,0 2.31504485,0 C2.26908386,0.000903539856 2.22335823,0.00681365421 2.17867793,0.0176256562" id="path-10"></path>
        <radialGradient cx="40.2300031%" cy="11.9926093%" fx="40.2300031%" fy="11.9926093%" r="70.3688946%" gradientTransform="translate(0.402300,0.119926),scale(0.968565,1.000000),translate(-0.402300,-0.119926)" id="radialGradient-12">
            <stop stop-color="#FFFFFF" offset="0%"></stop>
            <stop stop-color="#F2D4DA" offset="41%"></stop>
            <stop stop-color="#EFCBD1" offset="45%"></stop>
            <stop stop-color="#DB8D98" offset="71%"></stop>
            <stop stop-color="#CF6675" offset="90%"></stop>
            <stop stop-color="#CA5767" offset="100%"></stop>
        </radialGradient>
        <path d="M0.00463833057,0.989833937 C-3.29573209e-16,1.24030379 0.201303547,1.51210996 0.311695814,1.72640083 C0.471254386,2.03809665 0.616897966,2.05108397 0.898908465,2.20322121 C1.12648817,2.31758373 1.31004419,2.50374802 1.42118449,2.73291857 C1.76720395,3.39805517 2.14290872,2.77837421 2.44161721,2.53532568 C2.67917419,2.31087739 2.78942517,1.98290683 2.73568737,1.66053654 C2.67700556,1.43150591 2.55097939,1.22534002 2.37389759,1.06868556 L2.47594086,1.13640518 C2.34699527,1.01117026 2.44532788,0.852539352 2.38874024,0.700402109 C2.33864627,0.565890523 2.25886699,0.40169362 2.1874367,0.252339376 C2.07982743,0.0296995084 1.95644784,0.0853594752 1.8479109,0.141947108 C1.80119145,0.175179531 1.74470005,0.191833063 1.68742466,0.18925808 C1.52468623,0.151795257 1.36398683,0.105969608 1.20596595,0.0519634951 C1.11736037,0.0170603301 1.02289654,-0.000572917663 0.927666114,-3.29573209e-16 C0.447135067,-3.29573209e-16 0.0148426578,0.46384725 -3.29573209e-16,0.986123272" id="path-13"></path>
        <radialGradient cx="98.4677045%" cy="54.8321048%" fx="98.4677045%" fy="54.8321048%" r="92.319311%" gradientTransform="translate(0.984677,0.548321),scale(1.000000,0.824188),translate(-0.984677,-0.548321)" id="radialGradient-15">
            <stop stop-color="#FFFFFF" offset="0%"></stop>
            <stop stop-color="#FFFFFF" offset="7%"></stop>
            <stop stop-color="#F2D4DA" offset="43%"></stop>
            <stop stop-color="#EFCBD1" offset="46%"></stop>
            <stop stop-color="#DB8D98" offset="72%"></stop>
            <stop stop-color="#CF6675" offset="90%"></stop>
            <stop stop-color="#CA5767" offset="100%"></stop>
        </radialGradient>
        <path d="M1.50120426,0.0111858719 C1.35688911,0.0514781559 1.22195788,0.119889549 1.10416316,0.212489419 C0.990060231,0.30525603 0.91862994,0.528823564 0.805454674,0.597470856 C0.540142165,0.720850449 0.53179317,0.783004079 0.387077256,1.01584827 C0.267408328,1.2013815 0.118054083,1.47133234 0.000240486586,1.67727421 C-0.00140923481,1.75662792 0.0054325565,1.8359305 0.0206491411,1.91382907 C0.043840794,2.04277466 0.192267372,2.24964421 0.188556708,2.36281947 L0.194122705,2.3182915 C0.315646966,2.97507911 1.6561245,3.17452732 1.40843765,2.85355485 C0.772058694,2.02607667 1.76373377,1.62068658 1.8889687,1.77467916 C2.6663529,2.74223491 2.98083171,2.17450325 3.055045,2.07431531 C3.21031747,1.88476389 3.32125048,1.66289786 3.37972814,1.42494903 C3.62834266,0.052003181 2.85745212,0.242174734 2.42330438,0.052003181 C2.39982331,0.0506386223 2.37628282,0.0506386223 2.35280175,0.052003181 C2.21659049,0.0722175375 2.07793101,0.0690804451 1.94277333,0.0427265198 L1.86670471,0.0241731975 C1.84076689,0.0216519151 1.81503817,0.0173121304 1.78970842,0.0111858719 C1.73815059,0.00322273481 1.68602673,-0.000500398249 1.63386051,5.38785423e-05 C1.58941421,0.000187791337 1.54505129,0.00391055387 1.50120426,0.0111858719" id="path-16"></path>
        <radialGradient cx="130.968822%" cy="-0.339666764%" fx="130.968822%" fy="-0.339666764%" r="163.457469%" gradientTransform="translate(1.309688,-0.003397),scale(0.874265,1.000000),translate(-1.309688,0.003397)" id="radialGradient-18">
            <stop stop-color="#CA5767" offset="0%"></stop>
            <stop stop-color="#CA5767" offset="31%"></stop>
            <stop stop-color="#CD606F" offset="37%"></stop>
            <stop stop-color="#D57886" offset="48%"></stop>
            <stop stop-color="#E1A0AA" offset="61%"></stop>
            <stop stop-color="#F2D4DA" offset="76%"></stop>
            <stop stop-color="#F2D4DA" offset="100%"></stop>
        </radialGradient>
        <path d="M3.48567729,0.00185533223 C3.44791044,0.0386478711 3.41345395,0.078691908 3.38270635,0.121524261 C3.3426534,0.209600973 3.27532782,0.282455697 3.19067946,0.329321471 C3.12171933,0.357756506 3.0587663,0.398990737 3.00514624,0.450845732 C2.95594336,0.510296461 2.90980917,0.572221541 2.86692399,0.636378955 C2.77879571,0.76161388 2.60810514,0.791299196 2.45504023,0.793154528 C2.41793359,0.793154528 2.38175461,0.793154528 2.34743096,0.793154528 C2.13592309,0.929521447 1.91421089,1.00837307 1.71105201,0.959206762 C1.58674475,0.927666114 1.43275217,0.705026247 1.31215558,0.722651903 C1.19155898,0.740277559 1.37894754,0.801503523 1.28618093,0.908185126 C1.19341432,1.01486673 1.0542644,0.927666114 0.965208453,0.834899503 C0.904910155,0.772745873 0.862237514,0.708736911 0.855743851,0.710592244 C0.830696866,0.718941239 0.860382182,0.783877867 0.855743851,0.815418515 C0.851105521,0.880355143 0.790807223,0.920244786 0.78431356,0.987964412 C0.779150971,1.03401916 0.782930839,1.08063754 0.795445554,1.125259 C0.813231365,1.17689731 0.822322355,1.23112976 0.822347871,1.28574523 C0.822347871,1.40263117 0.822347871,1.36459685 0.814926542,1.48148278 C0.805649881,1.71154398 0.709172605,1.80802126 0.652584972,2.03808245 C0.591359009,2.28576931 0.849250189,2.41749789 0.539409706,2.88318628 C0.435511101,3.03717886 -0.0283219558,3.25425273 0.00136335989,3.43978595 C0.131236616,3.41752197 0.204522239,3.27095072 0.298216517,3.17632878 C0.52178405,2.95183358 1.13311602,2.71249572 1.48655681,2.69858073 C1.85762325,2.68188274 1.50232713,3.09562182 1.60622574,3.17632878 C1.71012434,3.25703573 1.50418247,3.47225427 1.61921306,3.41752197 C1.73424366,3.36278966 1.8975129,2.81824966 1.96616019,2.6855934 C2.00883283,2.59839279 2.59790081,1.2319406 2.61552647,3.29414237 C2.61552647,3.49080759 2.73334007,3.58542953 2.67860777,3.77560109 C2.65263312,3.8683677 2.30754132,4.36003074 2.87620065,4.30437077 C2.9513416,3.87393369 2.62665846,3.56873154 2.7954937,3.35815133 C2.88362198,3.24590373 3.19902846,3.22642275 3.19253479,3.0798515 C3.17954747,2.76073436 3.32704638,2.76815569 3.4634133,2.77557701 C3.54783092,2.77557701 3.6276102,2.78485368 3.66286151,2.71249572 C3.68801252,2.65411268 3.71909808,2.59846952 3.75562813,2.54644348 C3.75006213,2.54644348 3.7426408,2.53623916 3.7398578,2.49820485 C3.72501514,2.35627193 3.85117773,2.3544166 3.79273477,2.21990501 C3.92817402,2.25237333 3.964353,2.11878941 4.0766006,2.08817642 C4.17889393,2.07147024 4.28322009,2.07147024 4.38551342,2.08817642 C4.57104664,2.11878941 4.66381325,2.42213622 4.70370289,2.4035829 C4.7473032,2.33864627 4.64247693,2.1763047 4.54414432,2.08632109 C4.45610065,1.98880479 4.37577019,1.8845923 4.3038788,1.77462528 C4.21111219,1.65124568 4.26955515,1.48241045 4.13040524,1.41190783 C4.0932374,1.39431254 4.05073342,1.39165604 4.01166397,1.4044865 C3.91415109,1.42374357 3.81304341,1.40082583 3.73336414,1.3414052 C2.99123125,1.86553656 3.61926121,1.07516503 3.57473323,0.877572144 C3.48196662,0.622463963 3.28530141,0.548250674 3.49495395,0 C3.49495395,0 3.49495395,0 3.48846028,0" id="path-19"></path>
        <radialGradient cx="49.8445394%" cy="52.069039%" fx="49.8445394%" fy="52.069039%" r="62.0737268%" gradientTransform="translate(0.498445,0.520690),scale(0.911970,1.000000),translate(-0.498445,-0.520690)" id="radialGradient-21">
            <stop stop-color="#FFFFFF" offset="0%"></stop>
            <stop stop-color="#FFFFFF" offset="9%"></stop>
            <stop stop-color="#F2D4DA" offset="37%"></stop>
            <stop stop-color="#EEC8CF" offset="40%"></stop>
            <stop stop-color="#E1A0AA" offset="50%"></stop>
            <stop stop-color="#D7808D" offset="59%"></stop>
            <stop stop-color="#D06978" offset="69%"></stop>
            <stop stop-color="#CB5C6B" offset="78%"></stop>
            <stop stop-color="#CA5767" offset="85%"></stop>
            <stop stop-color="#CA5767" offset="100%"></stop>
        </radialGradient>
    </defs>
    <g id="Page-1" stroke="none" stroke-width="1" fill="none" fill-rule="evenodd">
        <g id="Group" transform="translate(0.144854, 0.000000)">
            <path d="M4.39668713,0 C4.4654277,0.00368979471 4.53184232,0.0261488446 4.58871401,0.064936628 C4.68159865,0.128752896 4.79059535,0.165085128 4.90319283,0.169762899 C4.97839275,0.166867728 5.05326388,0.181144002 5.12212203,0.211507874 C5.36424288,0.325610806 5.50153747,0.734711563 5.54328244,0.961062095 C5.55487162,1.03979877 5.55487162,1.11980794 5.54328244,1.19854462 C5.53212092,1.27047215 5.53212092,1.34369096 5.54328244,1.41561849 C5.57018476,1.53435975 5.6156404,1.53528742 5.64625338,1.53528742 L5.64625338,1.53528742 C5.68195936,1.53313259 5.71737447,1.52754073 5.75200732,1.51858943 C5.78076497,1.51302343 5.80859495,1.5056021 5.84477393,1.50189144 C5.90895086,1.49181898 5.97371496,1.48593133 6.03865615,1.48426578 C6.12867496,1.4836687 6.21841893,1.49426347 6.30582399,1.51580643 C6.39498399,1.53572148 6.48554406,1.54874725 6.5767025,1.55476841 C6.64442212,1.5603344 6.71399708,1.56775573 6.7872827,1.58074306 C6.94543587,1.60490763 7.10080577,1.64468233 7.25111576,1.69948432 C7.32567611,1.73481898 7.39373416,1.78249097 7.45241931,1.84048957 C7.50103978,1.88838293 7.55559811,1.92984726 7.61476088,1.96386916 C7.96356334,2.14940239 8.06467894,2.36925926 7.961708,2.72084471 C7.95057601,2.75516836 7.94129935,2.79320267 7.93016736,2.82938165 C7.89677138,2.94719525 7.8605924,3.07057484 7.82163042,3.18282244 C7.78145524,3.29619405 7.7060333,3.39372241 7.60641188,3.46112227 C7.58043723,3.48153093 7.55260725,3.50472258 7.5238496,3.53069723 C7.44215522,3.61394754 7.37167579,3.7075043 7.31419706,3.80899707 C7.23310153,3.96300113 7.1155877,4.09484591 6.97188826,4.19305084 C6.8602951,4.25501356 6.73395721,4.28547574 6.60638781,4.28117912 L6.58319616,4.28117912 C6.52475319,4.30993677 6.58783449,4.43331636 6.63050713,4.50845732 C6.6588468,4.55562241 6.68275894,4.60530998 6.70193742,4.65688389 C6.7147376,4.69990373 6.72068562,4.74467044 6.71956308,4.78954015 C6.7177889,4.82429693 6.7218655,4.85910484 6.73162274,4.89251109 C6.74240044,4.90998219 6.7562252,4.92537796 6.77244005,4.93796673 C6.81244491,4.96782337 6.84277298,5.00879852 6.85964066,5.05578032 C6.89552234,5.22913538 6.89139789,5.4083904 6.847581,5.57991168 C6.82952583,5.61413021 6.8063796,5.64540889 6.77893371,5.67267829 C6.75633597,5.69619187 6.7358485,5.72164601 6.71770775,5.74874691 C6.70711706,5.77672965 6.69904526,5.80560186 6.69358843,5.83501986 C6.68647926,5.89008288 6.66748762,5.94294295 6.63792846,5.9899401 C6.50063387,6.18753298 6.20470838,6.29235925 5.96722586,6.37492154 C5.90878289,6.39533019 5.85312293,6.41573885 5.80581195,6.43429217 C5.75314952,6.4578198 5.69646887,6.47104529 5.63883205,6.47325415 C5.57343377,6.47050867 5.50971596,6.45171192 5.45329883,6.41852185 C5.42454118,6.40553452 5.39300053,6.3897642 5.35403856,6.37492154 C5.25703535,6.34206157 5.1558122,6.32331654 5.05347474,6.31926157 C5.00059777,6.31926157 4.94679313,6.31091258 4.88835017,6.30256358 C4.79638604,6.28651775 4.70993491,6.24759879 4.63695265,6.18938832 L4.60726734,6.16897966 L4.59706301,6.16897966 C4.51640813,6.17521234 4.43625153,6.1517921 4.37164014,6.10311537 C4.24019297,6.28266463 4.05795196,6.41869915 3.84843645,6.4936628 C3.69749238,6.5724172 3.53445344,6.62540485 3.36605007,6.65043837 C3.3243051,6.6634257 3.29090912,6.67270236 3.2612238,6.68290669 C3.12433194,6.725695 2.98162789,6.74697543 2.83820805,6.74602083 C2.78533109,6.74602083 2.72967112,6.74602083 2.67772182,6.73763899 C2.51278888,6.74512157 2.34992369,6.69854213 2.21388876,6.60498274 C2.08807409,6.54464777 1.97403831,6.46234095 1.87714596,6.36193421 C1.73052234,6.27497584 1.60754779,6.15327563 1.51906684,6.00756576 C1.44842367,5.89704191 1.45284377,5.75449373 1.53019883,5.64855897 C1.54728411,5.61847587 1.56276683,5.58751044 1.57658214,5.55579236 L1.58956946,5.52703471 C1.64653091,5.41087567 1.69189691,5.28938179 1.72500872,5.16431726 C1.61461645,5.12999361 1.51628384,5.02980567 1.42722789,4.85725978 C1.38967153,4.78044875 1.34527343,4.70717636 1.29457164,4.63833057 C1.27509065,4.61513892 1.24726067,4.58452594 1.21572002,4.55391296 C1.18417937,4.52329997 1.16748138,4.51031265 1.15913239,4.50196365 C1.05661126,4.41022296 0.939714792,4.33594826 0.813112927,4.28210678 C0.70076278,4.23256618 0.595857128,4.16762459 0.501417112,4.08915223 C0.434043781,4.02836137 0.37839086,3.9557296 0.33722021,3.87486136 C0.193431962,3.65222149 0.0533543792,3.41752197 0.0125370701,3.1837501 C-0.0205983318,3.01014973 0.0124984339,2.83043429 0.105303682,2.6800274 C0.127072088,2.63152175 0.151858413,2.58442773 0.179516971,2.53902216 C0.193431962,2.51397517 0.204563956,2.48985585 0.214768283,2.46851953 C0.231466273,2.43141289 0.242598267,2.40451057 0.251874928,2.37575292 C0.274371223,2.30355268 0.314179895,2.23794799 0.367833192,2.1846537 C0.443173704,2.10162135 0.534316188,2.03444713 0.635928699,1.98706082 C0.740686838,1.93344092 0.854029623,1.89859037 0.970816166,1.88408988 C1.00394169,1.87888604 1.03750601,1.87702136 1.07100411,1.87852388 C1.09306734,1.88485657 1.11579431,1.88859251 1.13872373,1.88965588 L1.15263872,1.88965588 C1.17705391,1.88633178 1.20046701,1.87778916 1.22128602,1.86460889 C1.25760095,1.84814167 1.29748923,1.84112133 1.33724428,1.84420024 L1.34652094,1.84420024 C1.45413021,1.8506939 1.83354565,2.04457612 1.94115492,2.04828678 C1.95411622,2.04944968 1.9671556,2.04944968 1.9801169,2.04828678 C1.99001094,2.04524501 1.99916983,2.04019183 2.00701922,2.03344412 C2.05694829,1.98821253 2.09569102,1.93200381 2.12019448,1.86924722 C2.12019448,1.86368122 2.12483281,1.85718756 2.12854348,1.85162156 L2.12854348,1.85162156 C2.13410947,1.83863424 2.1387478,1.82564691 2.14338614,1.81358725 L2.14338614,1.81358725 C2.14338614,1.79967226 2.15173513,1.78668494 2.15451813,1.77276994 C2.17587287,1.69773898 2.19290804,1.62154532 2.20553976,1.54456408 C2.21110576,1.52322776 2.21296109,1.50096377 2.21759942,1.48148278 L2.21759942,1.46292946 L2.22223775,1.43881014 C2.22223775,1.43881014 2.22223775,1.41840149 2.22223775,1.41840149 C2.22257426,1.41284058 2.22257426,1.40726441 2.22223775,1.4017035 L2.22223775,1.4017035 C2.22223775,1.3961375 2.22223775,1.39149917 2.22223775,1.38593318 L2.22223775,1.37943951 C2.22223775,1.37294585 2.22223775,1.36737985 2.22223775,1.36088619 L2.22223775,1.36088619 C2.22223775,1.35532019 2.22223775,1.3497542 2.22223775,1.3441882 L2.22223775,1.3386222 C2.22223775,1.33305621 2.22223775,1.32656254 2.22780375,1.32006888 L2.22780375,1.32006888 C2.22910156,1.31403193 2.23096512,1.30813065 2.23336975,1.30244322 L2.23336975,1.29687723 C2.23336975,1.29038357 2.23800808,1.2838899 2.23986341,1.27832391 L2.23986341,1.27832391 C2.23986341,1.27275791 2.24542941,1.26626425 2.24728474,1.26069825 L2.24728474,1.25605992 C2.24968555,1.25001116 2.25247435,1.2441237 2.25563373,1.23843426 L2.25563373,1.23843426 C2.25563373,1.23286827 2.26027207,1.22730227 2.26305506,1.22080861 L2.26305506,1.22080861 C2.26305506,1.21617028 2.26862106,1.20874895 2.27140406,1.20411062 C2.32371011,1.11361103 2.3663099,1.01783925 2.39849432,0.918389453 C2.45137129,0.718941239 2.50610359,0.513927027 2.68236015,0.405390092 C2.75544813,0.36629941 2.83695918,0.345603245 2.91984267,0.345091795 C2.98365445,0.342880136 3.04652773,0.329048015 3.1053759,0.304274486 C3.15249471,0.278181053 3.19665994,0.247078777 3.23710448,0.211507874 C3.29730105,0.152662015 3.36942857,0.107424141 3.44861236,0.0788516197 C3.45734685,0.0758158833 3.46635711,0.0736409929 3.47551468,0.0723579569 L3.48200834,0.0723579569 L3.51169365,0.0640089619 L3.51169365,0.0640089619 L3.53395764,0.0593706313 L3.5404513,0.0593706313 L3.56549829,0.0547323008 L3.57291962,0.0547323008 L3.59147294,0.0547323008 L3.59889427,0.0547323008 L3.62115826,0.0547323008 L3.63136258,0.0547323008 L3.64620524,0.0547323008 L3.72783986,0.0547323008 C3.75566984,0.0547323008 3.78628282,0.0547323008 3.82060647,0.0547323008 L3.82060647,0.0547323008 L3.85585778,0.0547323008 L3.86142378,0.0547323008 L3.89667509,0.0547323008 C3.92285418,0.0576337561 3.94919084,0.0588731283 3.97552671,0.0584429652 C4.05063023,0.0570840161 4.12533071,0.0471239517 4.19816658,0.0287576495 C4.26328581,0.0129362441 4.32975513,0.00330751008 4.39668713,0" id="Path" fill="#CA5766"></path>
            <g id="Clipped" transform="translate(0.047343, 0.049166)">
                <mask id="mask-2" fill="white">
                    <use xlink:href="#path-1"></use>
                </mask>
                <g id="Path"></g>
                <rect id="Rectangle" fill="url(#radialGradient-3)" fill-rule="nonzero" mask="url(#mask-2)" x="-0.0440821428" y="-1.02991628e-16" width="8.0159629" height="6.71073667"></rect>
            </g>
            <g id="Clipped" transform="translate(2.161012, 0.042673)">
                <mask id="mask-5" fill="white">
                    <use xlink:href="#path-4"></use>
                </mask>
                <g id="Path"></g>
                <rect id="Rectangle" fill="url(#radialGradient-6)" fill-rule="nonzero" mask="url(#mask-5)" x="0" y="-7.7243721e-17" width="3.26816772" height="3.04460019"></rect>
            </g>
            <g id="Clipped" transform="translate(2.396540, 0.118741)">
                <mask id="mask-8" fill="white">
                    <use xlink:href="#path-7"></use>
                </mask>
                <g id="Path"></g>
                <rect id="Rectangle" fill="url(#radialGradient-9)" fill-rule="nonzero" mask="url(#mask-8)" x="-0.0175264506" y="0.000927666114" width="3.20415876" height="3.42030496"></rect>
            </g>
            <g id="Clipped" transform="translate(1.673469, 3.912896)">
                <mask id="mask-11" fill="white">
                    <use xlink:href="#path-10"></use>
                </mask>
                <g id="Path"></g>
                <rect id="Rectangle" fill="url(#radialGradient-12)" fill-rule="nonzero" mask="url(#mask-11)" x="-0.0430824155" y="6.59146419e-16" width="2.98059123" height="2.88689695"></rect>
            </g>
            <g id="Clipped" transform="translate(0.049644, 2.090945)">
                <mask id="mask-14" fill="white">
                    <use xlink:href="#path-13"></use>
                </mask>
                <g id="Path"></g>
                <rect id="Rectangle" fill="url(#radialGradient-15)" fill-rule="nonzero" mask="url(#mask-14)" x="-6.59146419e-16" y="0.00372485718" width="2.800624" height="3.39804098"></rect>
            </g>
            <g id="Clipped" transform="translate(4.196998, 1.617796)">
                <mask id="mask-17" fill="white">
                    <use xlink:href="#path-16"></use>
                </mask>
                <g id="Path"></g>
                <rect id="Rectangle" fill="url(#radialGradient-18)" fill-rule="nonzero" mask="url(#mask-17)" x="-0.00161484564" y="5.38785423e-05" width="3.62995751" height="3.17354578"></rect>
            </g>
            <g id="Clipped" transform="translate(1.805280, 1.826575)">
                <mask id="mask-20" fill="white">
                    <use xlink:href="#path-19"></use>
                </mask>
                <g id="Shape"></g>
                <rect id="Rectangle" fill="url(#radialGradient-21)" fill-rule="nonzero" mask="url(#mask-20)" x="-0.0264666235" y="-0.00185533223" width="4.77376983" height="4.35353708"></rect>
            </g>
            <path d="M2.95509399,4.46485701 C2.8780977,4.41012471 2.95509399,4.21253183 3.0478606,4.11512688 C3.14062721,4.01772194 3.28070479,3.8572357 3.24359815,3.83682705 C3.2064915,3.81641839 3.0478606,3.85538037 2.99776663,3.83682705 C2.94767266,3.81827373 3.27606646,3.68932814 3.31039011,3.67170248 C3.34471375,3.65407682 3.07754591,3.57893587 2.9792133,3.56687621 C2.8808807,3.55481655 2.67957715,3.58542953 2.70091347,3.54275689 C2.72224979,3.50008425 2.83728039,3.44442428 2.86047204,3.42030496 C2.88366369,3.39618565 2.70740713,3.30341903 2.69534747,3.26074639 C2.68328781,3.21807375 2.73245412,3.17447344 2.91613201,3.21714608 C3.05442613,3.23895126 3.19376657,3.2535046 3.33358176,3.26074639 C3.38710389,3.2710491 3.43872694,3.28950825 3.48664667,3.31547869 C3.51725965,3.33403202 3.53859597,3.26724006 3.56457062,3.27744438 C3.59054527,3.28764871 3.64806057,3.32475535 3.65733723,3.28764871 C3.65349715,3.22855703 3.62568306,3.17359906 3.58034095,3.13551147 C3.52124694,3.08838689 3.47018163,3.03199575 3.42913137,2.96853157 C3.41892704,2.93606325 3.3790374,2.85721163 3.42913137,2.83958598 C3.47922534,2.82196032 3.51447665,2.83958598 3.5404513,2.82659865 C3.56642595,2.81361133 3.61095393,2.74774703 3.67589056,2.77650468 C3.71804618,2.79345393 3.75744078,2.81659044 3.79277649,2.84515197 C3.81968331,2.8643167 3.85399989,2.86980735 3.8855431,2.85999463 C3.91615608,2.8497903 3.96717772,2.78856434 4.02469302,2.82381565 C4.08220831,2.85906696 4.18610692,2.94255692 4.2798012,2.92307593 C4.35405504,2.91286851 4.4189118,2.86767576 4.45420243,2.80155167 C4.49429866,2.71055322 4.54079863,2.62251327 4.59335234,2.53809449 C4.62582066,2.50562618 4.70931061,2.43976188 4.69725095,2.46573653 C4.64820823,2.5600681 4.61677218,2.66254962 4.60448434,2.76815569 C4.60448434,2.8609223 4.58964168,2.88504162 4.61932699,2.90823327 C4.64985179,2.92781754 4.68899013,2.92781754 4.71951493,2.90823327 C4.75291092,2.89246294 4.80671555,2.8553563 4.81228155,2.87762029 C4.81784754,2.89988427 4.62674832,3.0306852 4.56830536,3.0882005 C4.50986239,3.14571579 4.45327476,3.25703573 4.48203241,3.30249137 C4.51079006,3.34794701 4.62025466,3.32661069 4.67591463,3.32661069 C4.73157459,3.32661069 4.85031586,3.33495968 4.8354732,3.36278966 C4.82063054,3.39061965 4.62025466,3.52420357 4.62025466,3.54832289 C4.62025466,3.57244221 4.74177892,3.61511485 4.80578788,3.61697018 C4.90431788,3.62487702 5.0022353,3.63913083 5.09893038,3.65964282 C5.16201167,3.67541315 5.21488864,3.67263015 5.22787597,3.70788146 C5.24086329,3.74313277 5.26034428,3.77374575 5.23715263,3.77652875 C5.16797277,3.77285782 5.099469,3.76102535 5.03306608,3.74127744 C4.9244735,3.70792471 4.81296416,3.6849395 4.70003395,3.67263015 C4.64622931,3.67263015 4.4903814,3.67263015 4.46255142,3.72272412 C4.43472144,3.77281809 4.55531803,3.81549073 4.57479902,3.83497172 C4.59428001,3.85445271 4.69446795,3.95649598 4.63602498,3.96577264 C4.57758202,3.9750493 4.53027105,3.93330433 4.50800706,3.925883 C4.46019153,3.89983144 4.41430865,3.87037959 4.37071248,3.83775472 C4.34844849,3.82012906 4.24918821,3.71344746 4.20187724,3.71808579 C4.13128077,3.72408524 4.06255987,3.74394495 3.99964603,3.77652875 C3.94389903,3.81678455 3.89368432,3.86419223 3.85029179,3.917534 C3.81782347,3.95649598 3.68331189,4.04184126 3.62765192,4.0872969 C3.57199195,4.13275254 3.2667898,4.3748734 3.2120575,4.41661837 C3.1573252,4.45836335 3.01724761,4.50938498 2.95416632,4.46671234" id="Path" fill="#FFFFFF"></path>
            <path d="M3.83544913,2.65219742 C3.81700283,2.59991376 3.81899089,2.54259124 3.84101512,2.49171118 C3.85678545,2.44903854 3.98758637,2.20877302 4.11931496,2.25422866 C4.17144479,2.2641953 4.21326417,2.30313058 4.22692423,2.3544166 C4.25382655,2.44718321 4.25753721,2.59746512 4.18239625,2.67075074 C4.13420346,2.71640844 4.06937737,2.74027521 4.00308357,2.7367676 C3.93678978,2.73326 3.87484417,2.70268573 3.83173846,2.65219742" id="Path" fill="#A12132"></path>
            <path d="M3.19999784,2.94441225 C3.24388477,2.9299562 3.27830841,2.89553256 3.29276445,2.85164564 C3.30482411,2.80155167 3.40501205,2.79691334 3.40965038,2.77743235 C3.41428871,2.75795136 3.30667944,2.49171118 3.24823648,2.46851953 C3.18979351,2.44532788 3.15546987,2.48707285 3.09331624,2.48150686 C3.0450776,2.48150686 3.00054962,2.45738754 2.97179198,2.51119217 C2.927264,2.59189912 2.84377405,2.69672539 2.90963835,2.78949201 C2.97550264,2.88225862 3.07383525,2.96853157 3.19535951,2.94533991" id="Path" fill="#A12132"></path>
            <path d="M4.7176596,3.15406479 C4.70814349,3.16653483 4.69394701,3.17457711 4.67835885,3.17632859 C4.66277069,3.17808006 4.64714347,3.17338876 4.63509732,3.16334145 C4.70760642,3.08415951 4.79026655,3.01491216 4.88092884,2.95739957 C4.91525249,2.91936526 4.8874225,2.75980669 4.90597582,2.70600206 C4.92452915,2.65219742 5.09150905,2.53994982 5.16108401,2.57798413 C5.19712274,2.59074114 5.22913321,2.61282837 5.25385062,2.64199309 C5.28473266,2.70700751 5.29816019,2.77894069 5.29281259,2.85071797 C5.28594177,2.91176123 5.26835584,2.97111375 5.24086329,3.02604687 C5.22230997,3.08727283 5.11284537,3.0770685 5.06367906,3.08170683 C4.99874244,3.0882005 4.93566114,3.03810652 4.87814584,3.07614084 C4.82227121,3.09689924 4.76852733,3.12299453 4.7176596,3.15406479" id="Path" fill="#A12132"></path>
            <path d="M3.98673467,3.38134299 C4.00873467,3.34145334 3.98673467,3.28301038 3.98673467,3.24033774 C3.98673467,3.1976651 4.00573467,3.15406479 3.96573467,3.13365613 C3.94023354,3.21420825 3.94023354,3.2998632 3.96573467,3.38041532 C3.96573467,3.39061965 3.98073467,3.38041532 3.98173467,3.38041532" id="Path" fill="#A12132"></path>
            <path d="M2.49126093,3.59748919 C2.55725583,3.49586779 2.66431464,3.42810905 2.78440342,3.41195597 C2.78440342,3.39711331 2.75379044,3.38505365 2.74173078,3.38505365 C2.66735173,3.36858025 2.6014484,3.32574309 2.55619756,3.26445706 C2.46343094,3.14942646 2.40498798,3.05573218 2.24728474,3.10397082 C2.0895815,3.15220946 2.07473884,3.42865396 2.12204981,3.56223788 C2.1497616,3.63642484 2.21723238,3.68841054 2.2960331,3.69629061 C2.37483381,3.70417068 2.45126273,3.66657496 2.49311626,3.59934452" id="Path" fill="#A12132"></path>
            <path d="M5.77798197,3.39247498 C5.9496002,3.32753835 6.08782245,3.41195597 6.0043325,3.55388888 C5.9607322,3.62717451 5.97557485,3.71251979 5.92640855,3.78580541 C5.87886266,3.84888781 5.79658801,3.87494765 5.72139434,3.85074204 C5.64790397,3.827687 5.57977313,3.79015196 5.52101846,3.74034977 C5.46814149,3.68561747 5.45329883,3.64201717 5.36702588,3.61975318 C5.2269483,3.58264653 5.07481106,3.61975318 4.93844414,3.56594854 C5.09336438,3.48709692 5.27147627,3.57244221 5.43474551,3.56594854 C5.50524813,3.56594854 5.55441444,3.43607529 5.77798197,3.39618565" id="Path" fill="#A12132"></path>
            <path d="M4.93287814,3.56620293 C4.89513077,3.54340373 4.84910126,3.54340373 4.81135388,3.56620293 C4.85133547,3.57615943 4.89289655,3.57615943 4.93287814,3.56620293" id="Path" fill="#A12132"></path>
            <path d="M2.82893139,4.05946692 C2.67308349,3.87393369 2.34376202,4.22737448 2.31871503,4.25056614 C2.29366805,4.27375779 2.23336975,4.3201411 2.22594842,4.34333275 C2.20646743,4.41661837 2.37623033,4.51495098 2.43003496,4.54556396 C2.49960992,4.58730894 2.55990822,4.69120754 2.65545783,4.61699425 C2.75100744,4.54278096 2.75842877,4.47969967 2.78347575,4.3693074 C2.80091406,4.26852573 2.84845489,4.17538451 2.91984267,4.10213956 C3.00320432,4.04133453 3.08027501,3.97234384 3.14990387,3.89619768 C2.99869429,3.88506569 2.93932366,4.00844528 2.82893139,4.05668392" id="Path" fill="#A12132"></path>
            <path d="M5.15551801,3.25911456 C5.12583269,3.13011456 4.91525249,3.26511456 4.86237552,3.25311456 C4.92267381,3.27011456 5.00987443,3.26511456 5.08965371,3.27711456 C5.1119177,3.28311456 5.16108401,3.28511456 5.15551801,3.25911456" id="Path" fill="#A12132"></path>
            <path d="M4.24826055,3.93979799 C4.30855885,3.97319397 4.32803983,4.05482859 4.3892658,4.09100756 C4.4515161,4.12398476 4.51162449,4.16085538 4.56923302,4.20139983 C4.59706301,4.22273615 4.62767599,4.32199643 4.58129268,4.34426041 C4.51264539,4.37765639 4.48852607,4.24592781 4.45420243,4.35632007 C4.41987878,4.46671234 4.28536719,4.51773398 4.25939254,4.63461991 C4.24269455,4.71532686 4.18517925,4.82757446 4.23712856,4.90642608 C4.25347056,4.92947144 4.27942353,4.94381387 4.30763118,4.94538806 C4.35259341,4.94480903 4.39664343,4.95808881 4.43379377,4.98342237 C4.48763587,5.02710826 4.5613439,5.03712682 4.62489299,5.00939702 C4.6973495,4.9827929 4.75144745,4.92136555 4.76868124,4.84612778 C4.75080709,4.76104656 4.73841272,4.67490574 4.73157459,4.5882366 C4.73157459,4.49546999 4.77331957,4.44815902 4.73157459,4.3609584 C4.70239585,4.29949198 4.65801364,4.24648877 4.602629,4.20696583 C4.55531803,4.17171452 4.53862004,4.10585022 4.5042964,4.05668392 C4.44446362,3.98251368 4.37968875,3.91247005 4.31041418,3.84703138 C4.27726994,3.80642444 4.22738568,3.78319068 4.17497493,3.78395008 C4.09898656,3.79912121 4.03089943,3.84089447 3.98294804,3.90176368 C3.92259435,3.96099079 3.85811425,4.01586087 3.78999349,4.06596058 C3.72691219,4.12718654 3.74082718,4.21995315 3.70835887,4.29602178 C3.67013622,4.36283252 3.64141149,4.43464434 3.62301359,4.50938498 C3.6666139,4.484338 3.69629921,4.41661837 3.72227386,4.37765639 C3.74117443,4.34763214 3.76193275,4.31881834 3.78442749,4.29138345 C3.80761914,4.26169813 3.84379812,4.26077046 3.87070044,4.23665114 C3.94676906,4.16336552 3.95419039,4.07152658 4.00335669,3.98989196 C4.06633581,3.92405393 4.16350658,3.90410252 4.24733288,3.93979799" id="Path" fill="#A12132"></path>
            <path d="M5.6759387,4.67914788 C5.66422765,4.63311906 5.66077271,4.58537803 5.66573437,4.53814263 C5.675392,4.48192771 5.66310599,4.42415022 5.63141073,4.37672873 C5.59894241,4.3145751 5.49968214,4.16614852 5.41062619,4.20696583 C5.38001321,4.21995315 5.35032789,4.25798747 5.31229358,4.23665114 C5.27425927,4.21531482 5.25385062,4.17078685 5.19819065,4.15130586 C5.14253068,4.13182487 5.09429205,4.12718654 5.04234274,4.11327155 C5.00721906,4.10261528 4.97120206,4.09516348 4.93473347,4.09100756 C4.96905712,4.16336552 5.08687072,4.2078935 5.14531368,4.25613213 C5.27147627,4.3609584 5.21117798,4.48062733 5.20375665,4.61513892 C5.19240753,4.66128096 5.19664787,4.70988174 5.21581631,4.75336117 C5.24364629,4.79417848 5.34940023,4.80159981 5.37351955,4.81644247 C5.43530176,4.84599375 5.50524672,4.85383805 5.57204009,4.83870645 C5.62733002,4.80225836 5.66496899,4.74445565 5.6759387,4.67914788" id="Path" fill="#A12132"></path>
            <path d="M4.26774154,5.90459482 C4.30577585,5.89624582 4.36050815,5.93613547 4.44028743,5.96767611 C4.50953423,5.99753739 4.58314913,6.01601943 4.65828897,6.02240842 C4.74214046,6.03787971 4.81794415,6.08218057 4.87257984,6.14764334 C4.9027541,6.22392875 4.9027541,6.30884045 4.87257984,6.38512587 C4.80493312,6.47564114 4.77927055,6.59078503 4.80207722,6.70146001 C4.83640087,6.85452492 4.90133749,6.91204022 4.78908989,6.90183589 C4.70020986,6.89021908 4.61301969,6.86811014 4.52934338,6.8359716 C4.44281375,6.82424585 4.36275295,6.78372528 4.30206518,6.720941 C4.23156256,6.63374038 4.18703459,6.64951071 4.07200399,6.57993575 C3.95697339,6.51036079 3.88647076,6.36193421 3.94398606,6.30163592 C4.00150136,6.24133762 4.17775792,6.08085138 4.19909424,6.04560007 C4.22043057,6.01034876 4.25475421,5.91201615 4.27052454,5.90830548" id="Path" fill="#A12132"></path>
            <path d="M6.55258318,4.99826502 C6.55258318,4.96301371 6.63607313,4.90549841 6.64534979,4.88508976 C6.65216987,4.81240305 6.64967591,4.73914284 6.63792846,4.66708822 C6.62215814,4.60957292 6.61195381,4.54556396 6.65555412,4.51773398 C6.72514775,4.47575365 6.80854635,4.46307706 6.88747064,4.48248267 C6.95890094,4.51309565 7.01641623,4.54092563 7.08228053,4.56504495 C7.14814482,4.58916427 7.31976305,4.68100321 7.34944837,4.74222918 C7.37913369,4.80345514 7.42087866,4.87488543 7.37542302,4.94167739 C7.32996738,5.00846935 7.32996738,5.05856332 7.29471607,5.0891763 C7.2336664,5.1353624 7.17685407,5.18689709 7.12495317,5.24316888 C7.07671453,5.30439484 7.04146322,5.4287021 6.98302025,5.46024275 C6.92457729,5.4917834 6.80954669,5.52425171 6.77615071,5.4834344 C6.74421131,5.43490429 6.72920893,5.37717774 6.73347807,5.3192375 C6.7408994,5.28398619 6.82624468,5.21719423 6.80212536,5.15967893 C6.77800604,5.10216363 6.72327374,5.09381463 6.66019245,5.07155065 C6.59711115,5.04928666 6.55629384,5.03351634 6.55629384,4.99826502" id="Path" fill="#A12132"></path>
            <path d="M1.17397505,5.51311972 C1.14336206,5.47972374 1.11182142,5.45096609 1.12759174,5.42035311 C1.15688644,5.36863521 1.17874691,5.31304715 1.19252837,5.25522854 C1.19857667,5.17897044 1.19857667,5.10235311 1.19252837,5.02609501 C1.19518836,4.9800709 1.20586211,4.9348644 1.22406902,4.89251109 C1.23334568,4.85633211 1.22406902,4.78861248 1.28807798,4.7663485 C1.35179881,4.74794158 1.41915167,4.74602634 1.48381553,4.7607825 C1.54318616,4.77098683 1.66192742,4.80159981 1.6953234,4.86653644 C1.72871938,4.93147306 1.74912804,5.00568635 1.78809001,5.031661 C1.82705199,5.05763566 1.94486559,5.10958496 1.94764858,5.12442762 C1.95043158,5.13927027 1.92445693,5.16524493 1.88271196,5.23760288 C1.85348487,5.33287863 1.83878631,5.43201571 1.83911165,5.53167304 C1.83447332,5.56692435 1.83911165,5.70421894 1.78994535,5.73483192 C1.74077904,5.7654449 1.66842108,5.73483192 1.60441212,5.70050827 C1.53438663,5.67212992 1.46728019,5.63702331 1.40403624,5.595682 C1.3697126,5.56414135 1.37064026,5.52425171 1.34744861,5.51311972 C1.32425696,5.50198772 1.21108169,5.54466037 1.17954104,5.51311972" id="Path" fill="#A12132"></path>
            <path d="M3.67960122,4.84056179 C3.70357589,4.88497599 3.71571574,4.93481324 3.71485253,4.9852777 C3.71697611,5.04109636 3.70518072,5.09656656 3.68052889,5.1466916 C3.63709052,5.18590212 3.58718592,5.21728866 3.53302997,5.23945821 C3.50519999,5.24873488 3.42171004,5.27842019 3.37439907,5.23945821 C3.33062939,5.2097872 3.29233693,5.17275023 3.2612238,5.12999361 C3.22186399,5.02801642 3.23614037,4.91310893 3.29925811,4.8238638 C3.33914776,4.77840816 3.41243338,4.77469749 3.45974435,4.73109718 C3.49938614,4.69306404 3.54153499,4.65773339 3.58590694,4.62534325 C3.58590694,4.67079889 3.55343863,4.72645885 3.58590694,4.76820383 C3.61837526,4.8099488 3.6554819,4.80809347 3.67867355,4.83592345" id="Path" fill="#A12132"></path>
            <path d="M4.73157459,3.79508207 C4.683197,3.78102556 4.63342412,3.77231531 4.58314802,3.76910742 C4.62025466,3.82291206 4.7148766,3.81456306 4.77331957,3.83682705 C4.79646926,3.84840273 4.81851529,3.86206506 4.83918386,3.87764436 C4.90226516,3.914751 5.02471709,3.95649598 5.03770441,3.97690463 C5.09379024,4.01784694 5.16410038,4.03425264 5.2325143,4.02236027 C5.25848895,4.01308361 5.30579992,4.00195162 5.29374026,3.96762797 C5.24364629,3.86651237 5.10078571,3.90269134 5.02471709,3.85445271 C4.9996701,3.83868238 4.9996701,3.81920139 4.96256346,3.81270773 C4.92683057,3.81209808 4.89118364,3.80899835 4.85588185,3.80343107 C4.81450071,3.80042257 4.77295574,3.80042257 4.73157459,3.80343107" id="Path" fill="#A12132"></path>
            <path d="M4.04482828,2.87576495 C4.04421405,2.89610921 4.041196,2.91632957 4.03582828,2.93606325 C4.01251654,3.00775957 4.01639893,3.08470206 4.04682828,3.15406479 C4.06517877,3.12633336 4.07126951,3.09309705 4.06382828,3.06129818 C4.06193974,3.02701615 4.06530666,2.99265901 4.07382828,2.95925491 C4.06853807,2.93091426 4.05981619,2.90321816 4.04782828,2.87669262" id="Path" fill="#A12132"></path>
            <path d="M3.78164449,3.67634081 C3.80761914,3.70788146 3.77144017,3.7589031 3.75103151,3.78766075 C3.73062286,3.81641839 3.68980555,3.83589938 3.61373693,3.914751 C3.53766831,3.99360262 3.45788902,4.0872969 3.4365527,4.11419922 C3.41521638,4.14110153 3.36790541,4.21624249 3.34935208,4.1995445 C3.33079876,4.18284651 3.38645873,4.07987557 3.40037372,4.05761158 C3.43498624,4.00330673 3.47576545,3.95318877 3.52189798,3.90825734 C3.58408813,3.86626408 3.63973078,3.81531042 3.68702255,3.75704776 C3.68702255,3.74034977 3.63414558,3.7449881 3.61188159,3.74962643 C3.58961761,3.75426477 3.48108067,3.79415441 3.45046769,3.80064807 C3.41985471,3.80714173 3.3846034,3.78858841 3.4282037,3.75240943 C3.44923394,3.72945286 3.47620222,3.71275821 3.50612766,3.7041708 C3.52839164,3.7041708 3.59332827,3.69767713 3.60724326,3.68283447 C3.62115826,3.66799182 3.62301359,3.62624684 3.60724326,3.61697018 C3.59147294,3.60769352 3.57199195,3.61697018 3.55343863,3.61697018 C3.53488531,3.61697018 3.31688377,3.5780082 3.28070479,3.57151454 C3.24452581,3.56502088 3.03487327,3.50936091 3.00240496,3.50286725 C2.96993664,3.49637359 2.96065998,3.47039893 3.02095828,3.47039893 C3.08125658,3.47039893 3.18793818,3.49080759 3.22782782,3.49080759 C3.26771747,3.49080759 3.31224544,3.48431393 3.35306275,3.48616926 C3.41644827,3.49714468 3.48080351,3.50149721 3.54508963,3.49915658 C3.58034095,3.48616926 3.62857958,3.4657606 3.63785625,3.44256895 C3.64914223,3.41977808 3.64586497,3.39246762 3.62950725,3.37299399 C3.577857,3.33500533 3.53111703,3.29075817 3.49035733,3.2412654 C3.4740641,3.19944488 3.44872081,3.16174674 3.41614404,3.13087314 C3.39016939,3.11788581 3.34656909,3.11046448 3.32894343,3.08448983 C3.31131777,3.05851518 3.30111345,2.99172322 3.32894343,3.00471054 C3.376709,3.02507728 3.42161542,3.05158455 3.46252735,3.08356216 C3.47644234,3.10118782 3.49963399,3.14757113 3.52653631,3.17632878 C3.56082289,3.2152047 3.59941371,3.25006092 3.64156691,3.28022738 C3.68129307,3.30283866 3.71501439,3.33465123 3.73989952,3.37299399 C3.82710013,3.37855999 3.84565346,3.37299399 3.90316875,3.37299399 C3.95876971,3.37404334 4.01411002,3.38088315 4.06829332,3.39340265 C4.08684664,3.40267931 4.14807261,3.43236462 4.16940893,3.41195597 C4.19074525,3.39154731 4.24733288,3.27002305 4.26959687,3.24033774 C4.29186086,3.21065242 4.39854246,3.0798515 4.41895111,3.04460019 C4.46184888,2.99269686 4.51487804,2.95008414 4.57479902,2.91936526 C4.58593101,2.92585893 4.61190567,2.94162925 4.56552236,2.98337422 C4.49596982,3.04614899 4.43058522,3.11339287 4.36978481,3.18467777 C4.35215915,3.21714608 4.2770182,3.33588735 4.26495854,3.36093433 C4.25289888,3.38598132 4.21300924,3.41473897 4.22414123,3.43050929 C4.23527322,3.44627962 4.31134184,3.46668827 4.32711217,3.48245859 C4.34288249,3.49822892 4.39112113,3.5863572 4.35679748,3.60954885 C4.3200038,3.62568848 4.27693326,3.61365977 4.25382655,3.5807912 C4.23095408,3.54909433 4.20483816,3.51986937 4.17590259,3.49359059 C4.06618052,3.43232338 3.93967575,3.407933 3.81504047,3.42401563 C3.77886149,3.43329229 3.70464821,3.45926694 3.70372054,3.50008425 C3.70563337,3.56715033 3.73437315,3.63064521 3.78349983,3.67634081" id="Path" fill="#A12132"></path>
            <path d="M3.8827601,3.30527437 C3.86235145,3.30527437 3.78999349,3.24219307 3.7705125,3.1976651 C3.74462049,3.14460015 3.71549897,3.09317279 3.68331189,3.04367252 C3.6666139,3.0223362 3.6582649,2.97688056 3.64156691,2.96389324 C3.62486892,2.95090591 3.5488003,2.86277763 3.57291962,2.85164564 C3.59703894,2.84051364 3.66568623,2.91472693 3.67867355,2.93606325 C3.69166088,2.95739957 3.76123584,3.05665985 3.77978916,3.08170683 C3.79834248,3.10675382 3.85307478,3.19395443 3.86698978,3.21992908 C3.88090477,3.24590373 3.90316875,3.30527437 3.8827601,3.30527437" id="Path" fill="#A12132"></path>
        </g>
    </g>
</svg>