<svg viewBox="0 0 24 24" xmlns="http://www.w3.org/2000/svg"><path d="M15.642 18.64a8.035 8.035 0 1 0-7.284 0l-1.476 1.931a10.435 10.435 0 0 1 3.136-19.338 1.043 1.043 0 0 1 .938-1.185 11.479 11.479 0 0 1 2.088 0 1.043 1.043 0 0 1 .938 1.185 10.435 10.435 0 0 1 3.136 19.338l-1.476-1.93Zm2.805 4.04c.195.04.336.211.336.41V24H5.217v-.91c0-.199.14-.37.336-.41l4.438-.887a1.46 1.46 0 0 0 1.174-1.432v-5.934c0-.466-.309-.875-.757-1.003l-2.06-.59V10.94a1.46 1.46 0 0 1 1.345-1.457 29.216 29.216 0 0 1 4.614 0 1.46 1.46 0 0 1 1.345 1.457v1.896l-2.06.588a1.043 1.043 0 0 0-.757 1.004v5.934a1.46 1.46 0 0 0 1.174 1.432l4.438.888Z" fill="#e60012"/></svg>