<svg xmlns="http://www.w3.org/2000/svg" viewBox="0 0 8 8"><defs><radialGradient id="a" cx="43.569%" cy="69.493%" r="95.597%" fx="43.569%" fy="69.493%"><stop offset="0%" stop-color="#F7F7F8"/><stop offset="34.34%" stop-color="#B9B9BA"/><stop offset="68.681%" stop-color="#7B7B7C"/><stop offset="100%"/></radialGradient></defs><g fill="none"><path fill="url(#a)" d="M4,2 C4,0.895284819 4.89541825,0 5.99994549,0 C7.10458175,0 8,0.895284819 8,2 C8,3.10449714 7.10458175,4 5.99994549,4 C4.89541825,4 4,3.10449714 4,2"/><path fill="#00A86D" d="M4.00109449,8 C6.18257751,8 7.95495327,6.25374102 8,4.08290006 L6.10481142,4.08290006 C6.06045594,5.20686129 5.13578825,6.10453243 4.00109449,6.10453243 C2.83817451,6.10453243 1.89518858,5.16181067 1.89518858,3.99867498 C1.89518858,2.87091153 2.78172209,1.95019659 3.89567822,1.89535235 L3.89567822,8.8817842e-16 C1.73481761,0.0562268662 0,1.82414702 0,3.99867498 C0,6.20857517 1.79138524,8 4.00109449,8"/></g></svg>