<svg stroke-miterlimit="10" style="fill-rule:nonzero;clip-rule:evenodd;stroke-linecap:round;stroke-linejoin:round" viewBox="0 0 24 24" xml:space="preserve" xmlns="http://www.w3.org/2000/svg"><path d="M23.39 14.735c-2.113-2.794-5.277-5.645-6.142-6.383-.596-.51-1.234-.737-1.83-.737-.595 0-1.191.27-1.702.695-.085.085-.227.227-.411.368-1.248 1.064-5.135 4.639-5.234 4.738-.27.27-.695.454-1.106.454-.37 0-.78-.184-1.192-.553-.27-.27-1.603-1.334-3.163-3.078C1.645 9.189.865 8.225.865 8.225s-.184.368-.27.595c-.084.227 0 .327.043.412.51.737 2.894 3.574 6.142 6.383.596.51 1.234.737 1.83.737.596 0 1.191-.27 1.702-.695.085-.085.27-.227.411-.369a140.73 140.73 0 0 0 4.724-4.27c.227-.226.411-.368.51-.453a1.63 1.63 0 0 1 1.107-.454c.369 0 .78.184 1.191.553.695.596 1.83 1.646 3.163 3.021a47.487 47.487 0 0 1 1.745 2.015s.184-.37.27-.639c.099-.141 0-.27-.043-.326" fill="#95c122"/><path d="M10.823 4.466c-1.107.78-5.603 4.95-6.468 5.957 0 0 .638.695 1.56 1.461.227.227.553.184.78-.085 1.745-1.745 5.277-4.865 5.73-5.234 1.334-1.149 2.894-1.234 4.313-.184 3.446 2.567 6.51 6.652 7.02 7.432 0 0 .086-.369.143-.695 0 0 .042-.326-.085-.596-3.263-4.68-6.695-7.574-8.029-8.297-1.432-.766-3.22-1.05-4.964.24" fill="#0e84c7"/><path d="M7.149 1.983C4.95 3.771 2.07 6.437 1.333 7.217c0 0 .554.695 1.376 1.518.185.142.326.085.51-.042 2.2-2.114 4.582-4.312 5.958-5.376 2.34-1.788 5.05-1.972 7.76.142 1.006.78 1.886 1.56 3.162 2.893C21.745 8.14 22.81 9.657 24 11.345c0 0 0-.454-.142-1.05a.834.834 0 0 0-.142-.41c-.227-.455-1.29-2.242-2.794-3.987-2.979-3.49-4.865-4.539-6.1-5.177-1.56-.837-4.68-1.078-7.673 1.262M13.163 19.558c1.107-.78 5.603-4.95 6.468-5.958 0 0-.638-.695-1.56-1.46-.227-.228-.553-.185-.78.085-1.787 1.702-5.32 4.822-5.773 5.177-1.334 1.149-2.894 1.234-4.312.184C3.759 15.02.695 10.934.184 10.154c0 0-.085.368-.141.695 0 0-.043.326.085.595 3.262 4.681 6.695 7.575 8.028 8.298 1.518.823 3.262 1.05 5.007-.184" fill="#0e84c7"/><path d="M16.794 21.983c2.199-1.787 5.093-4.454 5.83-5.234 0 0-.553-.695-1.376-1.517-.184-.142-.326-.085-.454.042-2.198 2.114-4.581 4.312-5.957 5.362-2.34 1.787-5.05 1.972-7.759-.142-1.007-.78-1.887-1.56-3.163-2.894C2.24 15.842 1.19 14.324 0 12.636c0 0 0 .411.142 1.05.042.085.042.269.142.41.227.455 1.29 2.242 2.794 4.043 2.979 3.49 4.865 4.54 6.1 5.178 1.56.78 4.723 1.05 7.616-1.334" fill="#0e84c7"/></svg>