<svg viewBox="0 0 24 24" xmlns="http://www.w3.org/2000/svg"><path d="M6.263 8.71a.523.523 0 0 0-.523.52v5.538a.523.523 0 0 0 1.045 0V9.23a.523.523 0 0 0-.522-.52Zm11.475 0a.522.522 0 0 0-.523.52v5.538a.523.523 0 0 0 1.045 0V9.23a.523.523 0 0 0-.523-.52ZM3.392 10.675a.523.523 0 0 0-.523.52v2.532c0 .29.235.521.523.521a.522.522 0 0 0 .523-.52v-2.532a.523.523 0 0 0-.523-.521Zm5.74 0a.521.521 0 0 0-.522.52v2.532a.522.522 0 0 0 1.044 0v-2.531a.523.523 0 0 0-.523-.521Zm5.737 0a.523.523 0 0 0-.523.52v2.532a.522.522 0 0 0 1.044 0v-2.531a.521.521 0 0 0-.521-.521Zm5.74 0a.523.523 0 0 0-.524.52v2.532a.522.522 0 0 0 1.046 0v-2.531a.523.523 0 0 0-.523-.521ZM.522 12.111a.523.523 0 0 0-.523.521v1.096a.522.522 0 0 0 1.046 0v-1.096a.523.523 0 0 0-.523-.52Zm11.475 0a.522.522 0 0 0-.523.52v1.097a.524.524 0 0 0 .73.481.524.524 0 0 0 .32-.48v-1.097c0-.215-.133-.4-.32-.479h-.003a.528.528 0 0 0-.204-.042Zm11.48 0a.523.523 0 0 0-.524.521v1.096a.522.522 0 0 0 1.046 0v-1.096a.523.523 0 0 0-.523-.52Z" fill="#049fd9"/></svg>