<svg viewBox="0 0 24 24" xmlns="http://www.w3.org/2000/svg"><path d="M16.508 16.845c.147-.506.09-.972-.156-1.317-.224-.316-.604-.5-1.062-.522l-8.66-.112a.167.167 0 0 1-.133-.07.193.193 0 0 1-.021-.155.239.239 0 0 1 .203-.155l8.737-.112c1.033-.049 2.16-.886 2.553-1.914l.5-1.3a.261.261 0 0 0 .013-.169 5.676 5.676 0 0 0-5.547-4.444 5.692 5.692 0 0 0-5.389 3.86 2.589 2.589 0 0 0-1.793-.5 2.559 2.559 0 0 0-2.22 3.18A3.635 3.635 0 0 0 0 16.75c0 .177.013.35.035.527a.172.172 0 0 0 .168.147h15.983a.217.217 0 0 0 .204-.155l.117-.425Z" fill="#f38020"/><path d="M19.266 11.281c-.077 0-.16 0-.238.009-.056 0-.104.042-.126.099l-.337 1.174c-.147.506-.09.972.155 1.317.225.316.605.5 1.063.522l1.843.112c.057 0 .105.03.134.07.03.042.035.104.022.155a.239.239 0 0 1-.204.155l-1.921.112c-1.04.049-2.16.886-2.553 1.914l-.142.358c-.029.07.022.142.1.142h6.593a.172.172 0 0 0 .168-.126c.113-.407.177-.837.177-1.279a4.74 4.74 0 0 0-4.734-4.734" fill="#faae40"/></svg>