<svg clip-rule="evenodd" fill-rule="evenodd" viewBox="0 0 560 400" xmlns="http://www.w3.org/2000/svg"><path d="m222.005 260.958c-18.605-11.985-43.854-14.088-84.574-2.791-43.411 10.202-57.885 16.741-76.893 3.614-7.302-6.449-9.92-16.832-7.965-31.789 4.534-24.381 16.788-47.844 38.554-73.87 12.149-13.539 23.419-25.158 38.299-29.823 11.405-2.927 10.339 6.036 8.959 7.318-1.456 0-3.902.229-5.793 1.463-1.534 1.19-5.746 5.032-5.972 10.201-.327 7.913 7.861 6.266 11.393 1.921 3.807-4.895 9.434-14.27 5.008-23.008-1.855-3.11-5.06-5.259-9.04-5.991-13.626-.779-26.316 5.717-38.028 12.898-25.614 17.793-46.103 42.448-57.697 69.436-6.684 16.283-12.729 39.608-3.668 58.592 7.01 13.173 21.562 20.17 38.923 18.707 12.177-1.28 26.902-5.215 36.805-7.592 9.904-2.38 60.596-19.805 77.252 10.523 0 0 5.539-10.752 19.381-10.981 11.38-1.05 27.798 3.294 39.753 12.075-3.984-5.99-15.276-14.819-24.697-20.903zm-79.405-101.772c-9.482-6.221-28.538 5.672-43.801 26.071-13.958 18.299-19.984 39.565-13.425 49.4 9.756 11.572 27.869-5.26 35.572-14.27l.994-1.053c5.238-5.626 9.284-12.396 13.201-18.892 0 0 3.6-5.946 3.772-6.221 2.225-.41 4.905-1.051 7.925-1.92-.043.136-11.554 19.485-10.38 29.088.366 2.93.087 13.633 10.537 16.88 13.927 2.335 25.048-8.462 34.86-18.067 0 0 1.672-1.6 2.617-2.513-.239.958-.551 2.236-.551 2.236-4.078 14.18 1.419 17.156 4.857 18.253 10.39 3.021 22.804-12.074 22.844-12.074-.322 4.755-1.263 8.688 3.75 11.845 4.73 1.693 9.518-.889 13.158-3.313 13.11-9.239 23.671-23.7 32.201-36.2h-5.441c-.065 0-13.427 19.368-22.103 23.577-.014 0-1.594.811-2.503.169-1.127-.96-.682-2.958.013-4.373.044-.092 33.503-58.123 33.503-58.123h-15.798s-1.725 2.792-1.866 2.975c-.106-.091-.359-.571-.534-.801-9.788-13.539-31.952 7.286-48.639 31.436-6.425 9.286-14.604 19.742-23.085 27.289 0 0-12.565 11.517-17.933 3.242-1.963-3.476-1.359-8.56-.252-11.898 6.25-17.793 17.021-33.942 29.278-43.685 3.459-2.697 7.221-3.477 9.086-2.333 1.779 1.054 2.066 3.659.941 5.443-2.855-.091-5.142.777-7.001 2.698-3.662 3.842-4.935 7.548-3.77 11.025 5.656 8.05 16.938-7.868 16.393-17.565-.195-3.477-2.05-6.77-4.818-8.372-4.126-2.469-10.42-1.83-14.493.139-5.453 2.057-14.084 9.238-19.122 14.819-6.342 6.999-17.22 14.774-20.622 13.904 1.112-2.974 10.3-21.773.635-28.816zm76.163 27.81c3.073-4.253 12.017-15.643 14.198-17.564 7.334-6.451 10.265-3.613 10.519-1.601-6.845 12.258-14.923 26.301-22.518 38.926.016-.045-2.377 3.613-2.377 3.613-3.354 5.121-6.732 9.513-12.241 12.577-.786.23-2.081.322-2.942-.321-1.038-.686-1.447-1.83-1.33-3.019.33-3.933 4.334-15.96 16.691-32.611zm-85.941 7.364s-.138.413-.206.548c-.017 0-6.888 11.205-6.888 11.205-4.146 5.536-9.323 12.49-15.794 15.828-1.918.64-4.57 1.053-5.921-.639-2.865-3.431-1.388-8.188-.189-12.03l.425-1.372c3.439-9.33 8.894-17.565 14.206-25.204.066-.045.215-.09.268-.09l.043.137c3.333 6.403 9.582 9.374 14.255 10.749.028 0 .059.045.059.137 0 .137-.076.321-.258.731zm6.509-13.218c-.031.092-3.06 7.044-3.06 7.044-.438.366-1.131.183-1.925 0l-1.36-.23c-4.27-1.325-7.491-4.162-8.485-7.546-1.369-6.587 4.258-11.756 6.737-13.63 2.378-1.648 6.077-2.517 8.224-.824 1.324 1.556 1.826 3.568 1.826 5.765.001 2.971-.917 6.31-1.957 9.421zm199.713 21.222c-1.524-3.292-5.14-5.397-8.994-5.168-12.514 1.144-24.755 11.435-31.182 26.208-3.373 7.594-5.213 13.86-6.42 23.831 3.892-4.481 11.829-11.845 20.837-15.871 0 0 1.225-9.559 7.475-18.067 2.365-3.523 7.098-9.195 12.412-7.686 4.644 1.556 3.012 14.41-3.16 26.848-4.566 9.15-11.553 18.3-18.623 24.611-6.251 5.306-15.499 11.709-23.59 6.77-5.097-3.018-7.696-9.332-7.147-17.473 2.435-23.098 12.95-42.767 27.997-65.18 15.515-20.812 32.617-42.172 55.656-53.563 4.7-2.379 9.052-2.927 12.814-1.464 0 0-21.628 11.893-31.937 33.895-2.623 5.581-6.27 13.126-2.597 19.805 1.919 3.476 5.327 3.751 8.071 3.567 12.637-2.928 20.801-14.728 27.472-25.522 3.867-8.188 7.305-16.33 7.305-25.386 0-1.098-.057-2.561-.149-3.66 6.036-3.2 18.417 2.47 18.417 2.47 9.675 3.203 30.274 18.985 37.223 22.002 3.389-3.933 8.959-9.879 12.096-12.852l-4.541-2.791c-7.268-4.437-14.952-8.646-22.513-12.808-17.175-9.375-31.155-6.083-38.269-3.521-2.797 1.006-5.352 1.875-5.352 1.875-5.28-5.763-13.94-5.215-20.32-3.659-22.946 6.586-44.251 22.64-67.091 50.497-16.793 21.819-27.209 40.665-32.761 59.28-4.28 12.533-5.58 30.966 4.865 41.899 8.881 9.283 20.656 7.271 28.971 3.934 18.017-8.874 34.21-27.994 42.279-49.996 1.947-6.54 4.108-15.78.756-22.825zm41.429-68.93c-2.385 27.353-23.647 43.41-28.908 44.688-3.188.64-8.628-.777-3.771-12.256 7.151-15.462 19.361-28.589 32.461-35.313.32 1.144.311 1.874.218 2.881zm126.124 3.475c-11.437 6.496-23.293 10.703-37.645 9.24-3.976 4.484-7.85 9.103-11.419 13.86 20.143 5.123 41.498-6.267 53.408-17.106 12.599-10.933 19.059-24.699 19.059-24.699s-9.444 10.793-23.403 18.705zm-216.142 22.778h-15.002l-8.463 13.75h15zm178.437 102.544c-1.613 1.098-3.879.254-3.032-2.261 2.111-6.404 10.502-19.454 10.502-19.454l23.373-41.454h-16.009c-.762 1.25-2.389 4.12-2.389 4.12-.74-1.233-2.955-3.976-3.867-4.57-3.911-2.471-9.649-1.303-13.608.938-17.212 10.064-29.77 29.949-39.675 45.456 0 0-10.425 17.237-16.212 18.519-4.518.366-4.052-5.72-3.856-7.138 1.747-10.248 5.803-19.99 9.89-28.818 8.314-5.763 17.801-13.31 26.423-21.588 18.711-17.887 34.485-38.15 36.791-42.678 0 0-2.496.504-5.442.594-14.395 20.08-43.853 49.264-52.784 53.609 3.957-9.517 29.518-54.935 51.269-76.662l3.423-3.294c5.293-5.169 10.777-10.475 15.051-11.344.451-.046 1.032 0 1.534 1.054.191 4.024-1.307 6.998-3.026 10.382l-2.409 4.941s3.412-.641 5.653-1.374c2.6-4.892 5.48-10.383 4.418-16.922-.354-2.105-1.878-3.705-3.868-4.072-6.489-1.235-13.56 3.567-19.251 7.456l-.229.136c-29.251 22.917-53.951 55.942-75.546 101.042-1.565 1.188-7.612 2.607-8.639 1.92 2.132-4.39 4.817-10.292 6.16-16.695.233-1.831.449-3.705.449-5.534 0-3.937-.945-7.641-4.471-10.201-4.135-2.058-9.246-1.097-12.692.457-15.436 6.403-26.973 22.231-35.298 35.265-4.478 8.281-8.942 17.151-10.178 27.307-.871 7.958.902 13.081 5.427 15.643 4.652 2.377 10.508-.094 12.809-1.282 15.638-8.233 26.565-24.745 35.177-39.84.343-.045 5.045-.181 8.603-1.097l.146.047c-.204.684-2.042 6.175-2.042 6.175-5.459 16.007-7.983 26.895-2.827 33.343 7.368 9.103 19.567-.318 29.49-12.762-2.13 14.911 5.597 17.245 11.489 16.102 6.767-1.828 14.307-9.057 17.807-12.761-1.124 4.345-.819 12.122 5.337 12.898 4.219.78 7.377-1.515 11.03-3.482 13.106-7.136 28.794-30.916 32.867-37.791h-5.341c-5.79 8.752-13.158 20.225-22.427 25.67zm-117.636-1.592c-.831-1.236-1.107-2.586-1.134-4.046-.16-8.969 9.49-25.031 16.301-33.781h.014c2.854 6.25 9.318 10.268 13.22 11.961-4.846 10.796-21.467 33.916-28.401 25.866zm31.136-30.692c-.461.322-8.612-2.424-10.187-9.971-1.336-6.497 3.138-11.574 7.467-14.133 1.858-1.465 4.657-1.966 6.71-1.237 1.905 1.283 2.422 3.571 2.422 6.037 0 1.513-.201 3.066-.378 4.484l-.039.321c-1.365 5.071-3.38 9.944-5.995 14.499zm65.374 27.81c-.007 0-1.547 1.372-1.547 1.372-2.199 1.967-4.462 4.07-7.193 3.018-.754-.274-1.285-1.28-1.412-2.06-.125-5.626 2.408-10.839 4.866-15.916l.63-1.327c7.067-11.8 15.282-25.705 27.347-35.355 2.034-1.467 4.24-2.7 6.569-1.738.535.502 1.159 1.371 1.159 2.24 0 .275-.245 1.006-.386 1.235-3.37 5.445-6.578 11.161-9.699 16.65-6.099 10.841-12.426 22.045-20.334 31.881z" fill="#ed1c16"/></svg>