<svg viewBox="0 0 24 24" xmlns="http://www.w3.org/2000/svg"><defs><radialGradient cx="100.047%" cy="50.138%" fx="100.047%" fy="50.138%" r="78.948%" gradientTransform="scale(-1 -.7016) rotate(.8 87.092 -143.415)" id="a"><stop stop-color="#6447FF" offset="0%"/><stop stop-color="#6348FE" offset="6.667%"/><stop stop-color="#614DFC" offset="13.333%"/><stop stop-color="#5C54F8" offset="20%"/><stop stop-color="#565EF3" offset="26.667%"/><stop stop-color="#4E6CEC" offset="33.333%"/><stop stop-color="#447BE4" offset="40%"/><stop stop-color="#3A8DDB" offset="46.667%"/><stop stop-color="#2F9FD1" offset="53.333%"/><stop stop-color="#25B1C8" offset="60%"/><stop stop-color="#1BC0C0" offset="66.667%"/><stop stop-color="#13CEB9" offset="73.333%"/><stop stop-color="#0DD8B4" offset="80%"/><stop stop-color="#08DFB0" offset="86.667%"/><stop stop-color="#06E4AE" offset="93.333%"/><stop stop-color="#05E5AD" offset="100%"/></radialGradient><radialGradient cx="118.929%" cy="69.522%" fx="118.929%" fy="69.522%" r="159.828%" gradientTransform="matrix(-.60663 -.27471 .17332 -.96153 1.79 1.69)" id="b"><stop stop-color="#6447FF" offset="0%"/><stop stop-color="#6348FE" offset="6.667%"/><stop stop-color="#614DFC" offset="13.333%"/><stop stop-color="#5C54F8" offset="20%"/><stop stop-color="#565EF3" offset="26.667%"/><stop stop-color="#4E6CEC" offset="33.333%"/><stop stop-color="#447BE4" offset="40%"/><stop stop-color="#3A8DDB" offset="46.667%"/><stop stop-color="#2F9FD1" offset="53.333%"/><stop stop-color="#25B1C8" offset="60%"/><stop stop-color="#1BC0C0" offset="66.667%"/><stop stop-color="#13CEB9" offset="73.333%"/><stop stop-color="#0DD8B4" offset="80%"/><stop stop-color="#08DFB0" offset="86.667%"/><stop stop-color="#06E4AE" offset="93.333%"/><stop stop-color="#05E5AD" offset="100%"/></radialGradient><radialGradient cx="118.929%" cy="69.52%" fx="118.929%" fy="69.52%" r="159.825%" gradientTransform="scale(-.631 -1) rotate(15.945 4.616 -10.975)" id="c"><stop stop-color="#6447FF" offset="0%"/><stop stop-color="#6348FE" offset="6.667%"/><stop stop-color="#614DFC" offset="13.333%"/><stop stop-color="#5C54F8" offset="20%"/><stop stop-color="#565EF3" offset="26.667%"/><stop stop-color="#4E6CEC" offset="33.333%"/><stop stop-color="#447BE4" offset="40%"/><stop stop-color="#3A8DDB" offset="46.667%"/><stop stop-color="#2F9FD1" offset="53.333%"/><stop stop-color="#25B1C8" offset="60%"/><stop stop-color="#1BC0C0" offset="66.667%"/><stop stop-color="#13CEB9" offset="73.333%"/><stop stop-color="#0DD8B4" offset="80%"/><stop stop-color="#08DFB0" offset="86.667%"/><stop stop-color="#06E4AE" offset="93.333%"/><stop stop-color="#05E5AD" offset="100%"/></radialGradient><radialGradient cx="130.604%" cy="71.985%" fx="130.604%" fy="71.985%" r="118.509%" gradientTransform="scale(-1 -.9793) rotate(23.552 3.49 -6.272)" id="d"><stop stop-color="#6447FF" offset="0%"/><stop stop-color="#6348FE" offset="6.667%"/><stop stop-color="#614DFC" offset="13.333%"/><stop stop-color="#5C54F8" offset="20%"/><stop stop-color="#565EF3" offset="26.667%"/><stop stop-color="#4E6CEC" offset="33.333%"/><stop stop-color="#447BE4" offset="40%"/><stop stop-color="#3A8DDB" offset="46.667%"/><stop stop-color="#2F9FD1" offset="53.333%"/><stop stop-color="#25B1C8" offset="60%"/><stop stop-color="#1BC0C0" offset="66.667%"/><stop stop-color="#13CEB9" offset="73.333%"/><stop stop-color="#0DD8B4" offset="80%"/><stop stop-color="#08DFB0" offset="86.667%"/><stop stop-color="#06E4AE" offset="93.333%"/><stop stop-color="#05E5AD" offset="100%"/></radialGradient><radialGradient cx="130.604%" cy="71.984%" fx="130.604%" fy="71.984%" r="118.509%" gradientTransform="scale(-1 -.9793) rotate(23.552 3.49 -6.272)" id="e"><stop stop-color="#6447FF" offset="0%"/><stop stop-color="#6348FE" offset="6.667%"/><stop stop-color="#614DFC" offset="13.333%"/><stop stop-color="#5C54F8" offset="20%"/><stop stop-color="#565EF3" offset="26.667%"/><stop stop-color="#4E6CEC" offset="33.333%"/><stop stop-color="#447BE4" offset="40%"/><stop stop-color="#3A8DDB" offset="46.667%"/><stop stop-color="#2F9FD1" offset="53.333%"/><stop stop-color="#25B1C8" offset="60%"/><stop stop-color="#1BC0C0" offset="66.667%"/><stop stop-color="#13CEB9" offset="73.333%"/><stop stop-color="#0DD8B4" offset="80%"/><stop stop-color="#08DFB0" offset="86.667%"/><stop stop-color="#06E4AE" offset="93.333%"/><stop stop-color="#05E5AD" offset="100%"/></radialGradient><radialGradient cx="38.589%" cy="49.366%" fx="38.589%" fy="49.366%" r="69.785%" gradientTransform="matrix(1 0 0 .2526 0 .369)" id="f"><stop stop-color="#05E5AD" offset="0%"/><stop stop-color="#05E5AD" stop-opacity="0" offset="32%"/><stop stop-color="#6447FF" offset="90.278%"/></radialGradient></defs><path d="M7.951 4c1.142 0 2.225.242 3.207.675-2.174 1.233-3.691 4.027-3.691 7.276 0 3.25 1.518 6.044 3.69 7.277A7.952 7.952 0 1 1 7.952 4Z" fill="#05E5AD"/><path d="M7.951 4c1.142 0 2.225.242 3.207.675-2.174 1.233-3.691 4.027-3.691 7.276 0 3.25 1.518 6.044 3.69 7.277A7.952 7.952 0 1 1 7.952 4Z" fill="url(#a)"/><path d="M14.222 7.065a7.983 7.983 0 0 0-3.065-2.39A5.02 5.02 0 0 1 13.65 4c.838 0 1.637.216 2.365.603-.711.53-1.328 1.385-1.794 2.462h.001Z" fill="url(#b)"/><path d="M14.22 16.838c.467 1.077 1.084 1.931 1.795 2.462a4.998 4.998 0 0 1-2.365.603 5.012 5.012 0 0 1-2.493-.675 7.995 7.995 0 0 0 3.065-2.39h-.001Z" fill="url(#c)"/><path d="M7.466 11.951c0-3.25 1.519-6.043 3.691-7.276a7.993 7.993 0 0 1 3.065 2.39c-.585 1.349-.933 3.044-.933 4.886 0 1.843.35 3.538.933 4.887a7.982 7.982 0 0 1-3.065 2.39c-2.174-1.233-3.69-4.027-3.69-7.277Z" fill="#7962FE"/><path d="M19.039 15.852c.225 1.198.55 2.203.943 2.913-.664.722-1.443 1.137-2.277 1.137-.599 0-1.169-.214-1.69-.603 1.283-.682 2.347-1.905 3.024-3.446v-.001Z" fill="url(#d)"/><path d="M16.016 4.603c.52-.388 1.09-.603 1.69-.603.832 0 1.61.416 2.276 1.137-.391.71-.717 1.715-.943 2.914-.677-1.541-1.74-2.764-3.023-3.446v-.002Z" fill="url(#e)"/><path d="M14.222 16.837a7.92 7.92 0 0 0 1.68-4.886 7.92 7.92 0 0 0-1.68-4.886c.467-1.076 1.083-1.931 1.795-2.462 1.282.682 2.346 1.905 3.023 3.446a21.313 21.313 0 0 0-.34 3.9c0 1.418.124 2.749.34 3.901-.677 1.541-1.74 2.764-3.023 3.446-.712-.53-1.328-1.384-1.795-2.462v.003Z" fill="#7962FE"/><path d="M14.222 16.838c-.585-1.348-.933-3.044-.933-4.886s.35-3.538.933-4.886a7.92 7.92 0 0 1 1.68 4.886 7.92 7.92 0 0 1-1.68 4.886Z" fill="#321BB2"/><path d="M19.982 5.137c.4-.721.866-1.137 1.367-1.137C22.813 4 24 7.56 24 11.951c0 4.392-1.187 7.952-2.651 7.952-.5 0-.968-.416-1.367-1.137 1.283-1.393 2.141-3.922 2.141-6.815 0-2.892-.858-5.423-2.14-6.814Z" fill="#05E6AD"/><path d="M19.982 5.137c.4-.721.866-1.137 1.367-1.137C22.813 4 24 7.56 24 11.951c0 4.392-1.187 7.952-2.651 7.952-.5 0-.968-.416-1.367-1.137 1.283-1.393 2.141-3.922 2.141-6.815 0-2.892-.858-5.423-2.14-6.814Z" fill="url(#f)"/><path d="M19.836 11.952c0-1.418-.29-2.748-.797-3.9.225-1.2.55-2.205.944-2.914 1.283 1.39 2.14 3.923 2.14 6.814s-.857 5.424-2.14 6.814c-.392-.71-.717-1.715-.944-2.913a9.727 9.727 0 0 0 .797-3.9Z" fill="#7962FE"/><path d="M19.04 15.852a21.312 21.312 0 0 1-.341-3.9c0-1.418.124-2.75.34-3.901a9.726 9.726 0 0 1 .797 3.9 9.7 9.7 0 0 1-.797 3.901Z" fill="#321BB2"/></svg>