<svg width="251" height="96.11" viewBox="0 0 188.25 72.082" version="1.2" xmlns="http://www.w3.org/2000/svg"><path style="fill:#730723;fill-opacity:1;fill-rule:nonzero;stroke:none" d="M508.203 49.984h12.215c-4.18 1.95-7.047 5.989-6.645 10.54.586 6.656 6.645 9.23 6.645 17.078 0 5.23-3.39 9.816-7.133 11.8l-11.113-3.066c3.84-1.793 6.387-5.516 6.219-9.578-.258-6.317-6.22-9.211-6.22-16.363 0-4.852 2.696-8.735 6.032-10.41M534.336 82.953V58.398h-7.445v-8.414h24.757v8.414h-7.515v24.555zM425.895 66.523c0 9.497 7.695 17.184 17.199 17.184 4.73 0 9.015-1.902 12.125-4.984l-6.676-6.66a7.758 7.758 0 0 1-5.45 2.226c-4.284 0-7.773-3.477-7.773-7.762s3.489-7.761 7.774-7.761c2.125 0 4.047.851 5.449 2.226l6.676-6.664a17.182 17.182 0 0 0-12.125-4.98c-9.504 0-17.2 7.68-17.2 17.175M477.297 49.348c-9.504 0-17.2 7.687-17.2 17.187 0 9.508 7.696 17.2 17.2 17.2 9.515 0 17.207-7.692 17.207-17.2 0-9.5-7.692-17.187-17.207-17.187M477 74.289c-4.281 0-7.773-3.48-7.773-7.758 0-4.285 3.492-7.761 7.773-7.761 4.297 0 7.773 3.476 7.773 7.761 0 4.278-3.476 7.758-7.773 7.758M577.488 49.984h-11.914l-10.441 32.97h10.066l1.348-5.68h9.953l1.34 5.68h10.09zm-9.226 20.047 2.996-12.633h.52l2.995 12.633zM496.941 97.586h10.028v2.633h-6.957v2.601h5.77v2.633h-5.77v5.3h-3.07zM511.168 97.586h10.031v2.633h-6.957v2.601h5.77v2.633h-5.77v5.3h-3.074zM473.977 106.3a3.93 3.93 0 0 1-7.247-2.109 3.931 3.931 0 0 1 3.93-3.933c1.215 0 2.3.55 3.02 1.418l2.039-2.031a6.781 6.781 0 0 0-5.059-2.258 6.802 6.802 0 0 0-6.8 6.804 6.8 6.8 0 0 0 6.8 6.801c2.176 0 4.11-1.058 5.356-2.648zM528.5 108.11v-2.653h5.77v-2.637h-5.77v-2.601h6.781v-2.633h-9.855v13.172h10.125v-2.649zM549.996 100.219v-2.637h-9.86v13.176h10.13v-2.649h-7.055v-2.656h5.77v-2.633h-5.77v-2.601zM485.867 97.379a6.798 6.798 0 0 0-6.8 6.8 6.8 6.8 0 1 0 6.8-6.8m.012 10.703a3.916 3.916 0 1 1 .004-7.832 3.916 3.916 0 0 1-.004 7.832" transform="matrix(1.15716 0 0 1.15716 -492.452 -56.728)"/></svg>