<?xml version="1.0" encoding="UTF-8"?>
<svg viewBox="0 0 9 9" version="1.1" xmlns="http://www.w3.org/2000/svg" xmlns:xlink="http://www.w3.org/1999/xlink">
    <title>CPIC</title>
    <g id="Page-1" stroke="none" stroke-width="1" fill="none" fill-rule="evenodd">
        <path d="M2.09465201,8.54054686 L0.542475144,8.54054686 L0.542475144,4.84855635 C0.542475144,4.80399263 0.540209193,4.76245018 0.536432606,4.71864179 C0.529634752,4.63631221 0.525102848,4.55322732 0.522836897,4.46938711 C0.497156112,3.19969888 1.111229,2.12941439 2.09465201,1.47908628 L2.09465201,8.54054686 Z M4.53130533,0.806098643 C6.81765052,0.848396407 8.48992282,2.54181759 8.52164614,4.5041317 C8.55336946,6.46644581 6.764023,8.16515421 4.55925206,8.16515421 C4.07962563,8.16515421 3.62039277,8.09113313 3.19363855,7.95366539 L3.19363855,8.53979155 L2.5992039,8.53979155 L2.5992039,5.94301098 C3.05163891,6.42716931 3.72915845,6.73609405 4.48296502,6.73609405 C5.83875941,6.73609405 6.94529913,5.7375647 6.94529913,4.51395082 C6.94529913,3.29033694 5.83875941,2.29180759 4.48296502,2.29180759 C3.72840313,2.29180759 3.05163891,2.60073233 2.5992039,3.08564598 L2.5992039,1.19810827 C3.13547912,0.949608913 3.75030733,0.809875229 4.41045457,0.805343326 Z M4.48296502,2.77898719 C5.47771779,2.77898719 6.30025823,3.46632585 6.39693883,4.3417385 L5.44146256,4.3417385 C5.35157981,3.93839911 4.95503828,3.63325096 4.48296502,3.63325096 C3.94442385,3.63325096 3.50482924,4.02979249 3.50482924,4.51546146 C3.50482924,5.00113042 3.94442385,5.39767196 4.48296502,5.39767196 C4.9557936,5.39767196 5.35157981,5.0925238 5.44146256,4.68918442 L6.39693883,4.68918442 C6.29950291,5.56459706 5.47771779,6.25193572 4.48296502,6.25193572 C3.42249966,6.25193572 2.5591716,5.47169304 2.5591716,4.51621677 C2.55841678,3.55922987 3.42249966,2.77898719 4.48296502,2.77898719 Z" id="CPIC" fill="#0075C2"></path>
    </g>
</svg>