<svg height="-2096" viewBox="91.98 369.85 410.98 102.41" width="2500" xmlns="http://www.w3.org/2000/svg"><path clip-rule="evenodd" d="m113.13 472.26h-20.55v-48.88c0-.59-.03-1.14-.08-1.72-.09-1.09-.15-2.19-.18-3.3-.34-16.81 7.79-30.98 20.81-39.59zm31.46-102.41h-.8c-8.74.06-16.88 1.91-23.98 5.2v24.99c5.99-6.42 14.95-10.51 24.94-10.51 17.95 0 32.6 13.22 32.6 29.42s-14.65 29.42-32.6 29.42c-9.98 0-18.95-4.09-24.94-10.5v34.38h7.87v-7.76c5.65 1.82 11.73 2.8 18.08 2.8 29.19 0 52.88-22.49 52.46-48.47s-22.56-48.4-52.83-48.96c-.27 0-.54-.01-.8-.01zm.16 26.13c13.17 0 24.06 9.1 25.34 20.69h-12.65c-1.19-5.34-6.44-9.38-12.69-9.38-7.13 0-12.95 5.25-12.95 11.68s5.82 11.68 12.95 11.68c6.26 0 11.5-4.04 12.69-9.38h12.65c-1.29 11.59-12.17 20.69-25.34 20.69-14.04 0-25.47-10.33-25.47-22.98-.01-12.67 11.43-23 25.47-23zm98.32 46.89.16-4.37c-27.86-6.9-33.7 29.48-6.66 27.9 2.07-.12 5.7-.44 7.77-1.24v-3.79s-15.02 4.5-17.67-5.92c-1.21-4.73-.24-9.95 4.94-12.52 3.05-1.52 8.52-1.1 11.46-.06zm43.09-4.23h6v27.97h-6zm38.56 4.23.15-4.37c-27.85-6.9-33.69 29.48-6.65 27.9 2.07-.12 5.7-.44 7.76-1.24v-3.79s-15.01 4.5-17.67-5.92c-1.2-4.73-.23-9.95 4.95-12.52 3.05-1.52 8.52-1.1 11.46-.06zm-65.7-.53v24.27h-6v-27.91c2.71-.89 25.14-5.29 24.98 8.69-.04 3.84-1.66 12.52-15.63 11.74l-1.95-4.5s8.94 1.12 10.64-3.52c3.47-9.41-9.18-10.44-12.04-8.77zm-40.22-51.71h19.64c1.17-6.3 1.18-11.1 1.18-11.1l6.56.23c-.06 3.69-.52 7.42-1.16 10.87h23.62v5.18h-16.86c4.22 18.48 16.96 22.91 16.96 22.91v6.95c-20.91-9.43-23.16-27.84-23.35-29.86h-1.49c-1.57 6.37-3.36 10.89-3.36 10.89 2.64.92 7.91 13.41 7.91 13.41h-7.46c-2.37-5.95-4.09-8.05-4.09-8.05-6.37 10.06-17.95 13.45-17.95 13.45v-6.59c10.64-3.55 15.79-13.91 18.3-23.11h-18.45zm69.28-1.77-6.83.08s3.16 12.02 4.99 14.52h7.27c0 .01-3.24-4.27-5.43-14.6zm26.45 0c-2.19 10.33-5.43 14.6-5.43 14.6h7.27c1.84-2.5 4.99-14.52 4.99-14.52zm-35.93-8.57h45.48v5.3h-19.61l-.01 21.11h22.06v5.3h-22.06v14.1h-6.37v-14.1h-21.94v-5.3h21.94v-21.11h-19.5v-5.3zm150.64 17.6h2.73c5.19 0 9.44-3.92 9.44-8.7v-8.7h-28.89v17.41h10.82v3.9h-14.34v4.69h7.48c-1.81 11.37-7.58 13.45-7.58 13.45l.27 5.75c10.94-3.39 12.9-18.26 13.01-19.2h1.17v19.04h5.9v-19.04h1.71c.11.94 2.07 15.81 13.01 19.2l.27-5.75s-6.22-1.75-7.58-13.45h7.14v-4.69h-14.55v-3.91zm-11.12-13.09h17.3v4.26c0 2.34-2.09 4.26-4.65 4.26h-12.65zm-25.99 17.19.26-6.27s9.15-5.06 11.63-15.18h6.41s-.47 5.36-5.1 11.31v33.75h-5.88v-27.98c-2.04 1.56-4.46 3.04-7.32 4.37zm80.36-1.07c8.98-5.93 10.31-15.43 10.31-15.43h5.2c3.66 10.83 14.96 15.84 14.96 15.84v-6.03c-10.41-6.23-10.3-14.75-10.3-14.75h-13.86c-.33 8.48-7.98 16.08-7.98 16.08zm7.26-5.73h13.15v4.57h-13.15zm-.55 8.47h-5.31s1.51 2.54 2.46 13.82h4.94c0 .01-.58-10.23-2.09-13.82zm8.16 0c1.52 3.59 2.1 13.82 2.1 13.82h-4.94c-.95-11.29-2.47-13.82-2.47-13.82zm1.58 16.94c2.29-4.83 5.47-11.63 5.89-16.84h5.14c-1.52 5.79-3.23 11.5-6.17 16.84h8.86v4.83h-32.67v-4.83zm-34.47-40.05h17.51s.4 11.81-4.18 16.63c0 0 6.28 8.92.91 20.13h-6.27s5.75-10.6-.39-20.24c0 0 4.44-6.27 3.66-11.45h-5.7v39.89h-5.54zm-107.46 26.24-6.64-.24s-2.69 12.38-5.76 18.75h6.65c-.01-.01 3.19-8.97 5.75-18.51zm22.67-15.8v7.26h12.97v4.62h-12.97v8.8h15.53v4.62h-15.53v10.26h-6.59v-10.26h-15.33v-4.62h15.33v-8.8h-12.78v-4.62h12.78v-7.26h-14.41v-4.62h6.34l-2.56-6.37h6.35l2.34 6.37h10.52l2.34-6.37h6.36l-2.57 6.37h5.9v4.62zm-28.39-10.33-6.61-.08 6.01 10.44h6.09zm0 12.5-6.61-.08 6.01 10.44h6.09z" fill="#0075c2" fill-rule="evenodd"/></svg>