<svg viewBox="0 0 9 9" xmlns="http://www.w3.org/2000/svg"><path d="M2.095 8.54H.542V4.85c0-.045-.002-.087-.006-.13a4.509 4.509 0 0 1-.013-.25 3.44 3.44 0 0 1 1.572-2.99v7.062ZM4.53.807c2.287.042 3.959 1.736 3.99 3.698.032 1.962-1.757 3.661-3.962 3.661-.48 0-.939-.074-1.365-.211v.586h-.595V5.943c.453.484 1.13.793 1.884.793 1.356 0 2.462-.998 2.462-2.222S5.84 2.292 4.483 2.292c-.755 0-1.431.309-1.884.794V1.198A4.372 4.372 0 0 1 4.41.805ZM4.483 2.78c.995 0 1.817.687 1.914 1.563H5.44c-.09-.404-.486-.709-.958-.709-.539 0-.978.397-.978.882 0 .486.44.883.978.883.473 0 .869-.305.958-.709h.956c-.097.876-.92 1.563-1.914 1.563-1.06 0-1.924-.78-1.924-1.736 0-.957.863-1.737 1.924-1.737Z" fill="#0075C2" fill-rule="evenodd"/></svg>