<?xml version="1.0" encoding="UTF-8"?>
<svg viewBox="0 0 8 8" version="1.1" xmlns="http://www.w3.org/2000/svg" xmlns:xlink="http://www.w3.org/1999/xlink">
    <title>CTIC</title>
    <g id="Page-1" stroke="none" stroke-width="1" fill="none" fill-rule="evenodd">
        <path d="M4,-7.10542736e-15 C6.20917844,-7.10542736e-15 7.99986765,1.79095391 7.99986765,4 C7.99986765,6.20917844 6.20917844,8 4,8 C1.79095391,8 2.70546331e-16,6.20917844 0,4 C-2.70530122e-16,1.79095391 1.79095391,-7.10542736e-15 4,-7.10542736e-15 Z M4,0.331403236 C1.97386097,0.331403236 0.331403236,1.97399332 0.331403236,4 C0.331403236,6.02600668 1.97386097,7.66846441 4,7.66846441 C6.02600668,7.66846441 7.66833206,6.02600668 7.66833206,4 C7.66833206,1.97399332 6.02600668,0.331403236 4,0.331403236 Z M4,0.579876253 C4.48148761,0.579876253 4.9396817,0.679667803 5.35512689,0.859266122 C5.41865467,0.893147603 5.50203487,0.95654303 5.50203487,1.05540813 C5.50203487,1.236727 5.25096781,1.19847798 4.93610826,1.4488833 C4.64546868,1.68075969 4.49472256,2.00686894 4.49472256,2.37241836 L4.49472256,7.3840982 C4.33338848,7.40725937 4.16808391,7.41970023 4,7.41970023 C3.83244549,7.41970023 3.66767032,7.40725937 3.50633623,7.3840982 L3.50633623,2.37241836 C3.50633623,2.00686894 3.35572246,1.68075969 3.06468584,1.4488833 C2.75035569,1.19847798 2.49889157,1.236727 2.49889157,1.05540813 C2.49889157,0.953896039 2.58637462,0.889971214 2.65096119,0.856486782 C3.06468584,0.678609006 3.52089468,0.579876253 4,0.579876253 Z M5.49832909,1.52651954 L5.49832909,7.0750091 C5.28326109,7.17982993 5.05548754,7.26268074 4.81805248,7.32131158 L4.81805248,2.47321576 C4.81805248,2.13704794 4.9386229,1.90133342 5.17129339,1.71604407 C5.28405519,1.62617874 5.42699269,1.55947457 5.49832909,1.52651954 Z M2.50281018,1.52649307 C2.57414658,1.5594481 2.71695173,1.62615227 2.82958118,1.71588525 C3.06238401,1.90130695 3.18295444,2.13715382 3.18295444,2.47318929 L3.18295444,7.32154981 C2.94565172,7.26331602 2.71787817,7.18020051 2.50281018,7.07537968 Z M2.16862654,1.1112734 L2.16862654,3.79386613 C1.77925421,3.78393991 1.63631671,3.54809304 1.59277372,3.45650716 C1.55730404,3.38133263 1.53414287,3.30205526 1.46664461,3.30205526 C1.35375045,3.30205526 1.26203223,3.62869391 1.26203223,4.03156589 C1.26203223,4.43457023 1.35375045,4.76107653 1.46664461,4.76107653 C1.53414287,4.76107653 1.55730404,4.68193151 1.59277372,4.60662462 C1.63631671,4.5149064 1.77925421,4.27919187 2.16862654,4.26913331 L2.16862654,6.88859531 C1.213857,6.28203739 0.579902723,5.21516779 0.579902723,3.99993435 C0.579902723,2.78470092 1.213857,1.71769897 2.16862654,1.1112734 Z M5.83203626,1.11184197 C6.73188075,1.68385667 7.3462473,2.66496377 7.41348086,3.79297886 C7.04171101,3.77444992 6.90367045,3.54641167 6.86092155,3.45654634 C6.82558422,3.3813718 6.8025554,3.30209443 6.73505714,3.30209443 C6.62203064,3.30209443 6.53057711,3.62873308 6.53057711,4.03160507 C6.53057711,4.43447705 6.62203064,4.76111571 6.73505714,4.76111571 C6.8025554,4.76111571 6.82558422,4.68170599 6.86092155,4.6066638 C6.90340575,4.51719551 7.04065222,4.29048076 7.40924567,4.27023128 C7.32308613,5.37177646 6.71507236,6.32681071 5.83203626,6.88797274 Z" id="ctic" fill="#D91920" fill-rule="nonzero"></path>
    </g>
</svg>