<svg viewBox="0 0 24 24" xmlns="http://www.w3.org/2000/svg"><path d="M23.995 5.283v5.283l-.715.714-.719.72.72.72.714.714v10.561H0V13.439l.714-.714.72-.72-.72-.72L0 10.572V.005h24v5.278h-.005ZM1.16 5.612v4.445l.972.972.976.976-.976.977-.972.97v8.892h21.667v-8.891l-.971-.971-.976-.977.976-.976.971-.972v-8.89H1.161v4.445Zm8.696-.925.755.755V9.04l-.75.75-.755.756h-4.02v-6.62h4.02l.75.76ZM6.254 7.24v2.143h2.354l.386-.416.385-.411V5.92l-.39-.417-.391-.416H6.254V7.24Zm11.836-.005c.75 1.809 1.362 3.29 1.362 3.3 0 .01-.283.015-.632.015h-.632l-.165-.39-.164-.391H14.498l-.154.38-.155.38-.642.01c-.509.006-.643 0-.627-.035.01-.026.617-1.496 1.351-3.264l1.352-3.263c.016-.031.15-.041.565-.036l.54.01 1.362 3.284Zm-2.482-.113c-.303.735-.566 1.362-.576 1.398-.02.061.046.067 1.151.067.94 0 1.167-.01 1.157-.047-.026-.102-1.136-2.754-1.157-2.754-.015 0-.267.606-.575 1.336Zm-5.5 6.912v.58L8.378 16.76l-1.722 2.138 1.722.01 1.732.005v1.166H5.088v-.595l.005-.586 1.737-2.128 1.737-2.127-1.742-.01-1.737-.011v-1.162h5.021v.576Zm5.967 1.778 1.65 2.364.01-2.364.006-2.354h1.166v6.62h-1.326l-1.475-2.143-1.475-2.138-.01 2.143-.005 2.138H13.377v-6.62h1.044l1.654 2.354Z"/></svg>