<svg viewBox="0 0 8 8" xmlns="http://www.w3.org/2000/svg"><path d="M4.32402 3.63635C5.49332 3.04535 6.14264 1.70977 5.81131 0.38565L4.86003 0.622012C5.11321 1.63427 4.49816 2.65792 3.48664 2.91174C2.47486 3.16376 1.45052 2.54821 1.19753 1.53783L0.246305 1.7749C0.567781 3.063 1.71414 3.92412 2.982 3.94525C1.51275 4.62606 0.694954 6.31673 1.11455 8L2.24899 7.71603C1.93705 6.46761 2.6622 5.21075 3.86899 4.90984C5.07565 4.60783 6.30596 5.3756 6.61835 6.62518L7.75369 6.34076C7.34331 4.70246 5.89377 3.60981 4.32402 3.63635M4.38605 0.970791C4.55691 1.65881 4.13879 2.35347 3.453 2.52515C2.76605 2.69696 2.07033 2.27958 1.89916 1.5922C1.72753 0.904823 2.14507 0.20991 2.83208 0.0384202C3.51871-0.132876 4.21391 0.284703 4.38605 0.970791" fill="#f68712"/></svg>
