<svg stroke-miterlimit="10" style="fill-rule:nonzero;clip-rule:evenodd;stroke-linecap:round;stroke-linejoin:round" viewBox="0 0 68.04 68.04" xml:space="preserve" xmlns="http://www.w3.org/2000/svg" xmlns:vectornator="http://vectornator.io"><clipPath id="a"><path d="M0 0h68.04v68.04H0z"/></clipPath><g clip-path="url(#a)" vectornator:layerName="layer1"><path d="M34.02 68.039V54.865c13.984 0 24.792-13.84 19.456-28.539A19.735 19.735 0 0 0 41.71 14.563C27.012 9.23 13.178 20.037 13.176 34.016c0 0 0 .005-.002.005H0C0 11.744 21.521-5.6 44.862 1.689c10.2 3.182 18.306 11.288 21.49 21.488C73.641 46.52 56.295 68.039 34.02 68.039m.03-13.141H20.916V41.765s0-.003.002-.003h13.131l.003.003v13.133ZM20.913 64.99h-10.09l-.003-.002V54.897h10.096v10.09l-.003.003ZM10.827 54.898h-8.46l-.004-.002V46.44s.002-.007.005-.007h8.454c.003 0 .005.002.005.002v8.462Z" fill="#0069ff"/></g></svg>