<svg stroke-miterlimit="10" style="fill-rule:nonzero;clip-rule:evenodd;stroke-linecap:round;stroke-linejoin:round" viewBox="0 0 24 24" xml:space="preserve" xmlns="http://www.w3.org/2000/svg" xmlns:vectornator="http://vectornator.io"><path d="M8.28 12.914c-.002.05.01.104.025.127.014.02.028.055.033.076.006.023.018.04.027.04.022-.001.019-.022-.017-.089a.346.346 0 0 1-.035-.123c-.006-.108-.033-.134-.034-.03M8.065 9.74c-.027 0-.053.006-.057.018-.004.012.014.02.043.02.027.001.053-.008.056-.017.004-.012-.013-.02-.042-.02m.027-1.273c.044-.003.037-.044-.01-.077-.052-.035-.052-.035-.06-.01-.008.032.039.09.07.087m.163-.054c.003-.007-.006-.035-.02-.061-.016-.027-.027-.036-.025-.021.001.012-.004.02-.015.011-.03-.017-.016.018.02.054.017.017.036.026.04.017M9.443 9.56c.008-.023.006-.037-.01-.058-.017-.024-.02-.035-.014-.057.005-.024.002-.028-.024-.028-.049 0-.084.063-.07.129.01.04.02.05.082.068.035.011.046.01.037-.006a.068.068 0 0 1 0-.048m-1.027 2.936c.013-.017.02-.035.016-.038-.006-.006-.02.001-.033.02-.012.018-.02.035-.016.039.006.006.02-.003.033-.02m.796-2.622c.002-.01-.005-.018-.015-.018-.012 0-.021-.014-.023-.035-.002-.02.006-.03.02-.026a.044.044 0 0 0 .036-.002c.011-.008.008-.019-.019-.052-.03-.038-.037-.04-.053-.021-.016.022-.018.02-.02-.016 0-.023-.006-.04-.012-.04a.34.34 0 0 1-.066-.07c-.032-.04-.049-.069-.04-.069.01.001.022-.01.026-.025.004-.014.018-.024.029-.018.023.004.031-.021.022-.067-.014-.06-.085-.06-.152-.002-.074.064-.086.097-.05.158a.603.603 0 0 0 .092.154c.023.033.035.049.06.08l-.01.062a.222.222 0 0 0 .001.096c.027.066.163.127.212.094.018-.013-.002-.132-.026-.152a.037.037 0 0 1-.012-.03m-.894.009c-.006 0-.01.007-.003.019.005.01.013.02.017.02.003 0 .005-.01.003-.019 0-.012-.01-.02-.017-.02m.063-1.286a.09.09 0 0 0-.028-.038c-.02-.016-.025-.016-.02.002.012.043.054.074.048.036m.445.255c.01-.015.012-.03.008-.037-.004-.005-.012.005-.019.023-.01.036.01.106.024.086.006-.007.002-.018-.009-.028-.015-.016-.015-.023-.004-.044m.049 1.106c-.002 0 0 .014.008.03.007.015.019.029.025.029.008 0 .004-.011-.008-.029a.11.11 0 0 0-.025-.03m.15-1.337c.007 0 .01-.008.007-.018-.002-.01-.007-.018-.009-.018-.003 0-.006.007-.006.018-.001.008.003.017.008.018M8.768 9.92c-.014 0-.017.005-.006.01.01.008.02.006.024 0 .005-.006-.005-.012-.018-.01m-.28-.405c-.034-.022-.06-.045-.062-.055-.001-.008.006-.01.017-.004.016.009.035-.046.021-.064-.003-.003.007-.018.023-.031l.027-.025-.031-.002a.102.102 0 0 0-.054.015.48.48 0 0 1-.073.035c-.046.021-.049.026-.026.05.013.013.039.02.055.015.02-.007.028-.003.022.012-.003.011-.017.02-.03.02a.094.094 0 0 0-.049.017c-.018.014-.03.01-.053-.02-.029-.036-.03-.04-.01-.057.016-.016.012-.018-.022-.022-.024 0-.044-.01-.046-.02-.005-.058-.088.009-.1.081-.004.019-.011.03-.017.022-.015-.019-.06.157-.048.19.02.057.145.074.216.028.05-.031.097-.028.166.013.063.037.211.055.241.03.07-.091-.107-.186-.167-.228m2.21-1.336c.002.001 0-.006-.005-.014-.004-.008-.01-.016-.014-.017-.003 0-.001.004.005.015l.014.016m-.121 1.052c-.005-.008-.004.002.005.022.006.019.01.025.008.011a.114.114 0 0 0-.013-.034m-.205.02c-.005-.001-.006.005-.002.016.003.009.013.02.02.02.007 0 .007-.008 0-.017-.005-.011-.013-.02-.018-.02m2.152 3.556.002-.013c-.001.001-.005.008-.008.017l-.002.013c.002-.001.005-.01.008-.017m-.026.054c-.005-.002-.007.005-.01.017-.003.02.006.018.012-.003.002-.009 0-.015-.002-.014m-.042-.341c-.002.008-.003.017-.001.02 0 .002.002-.002.003-.013.002-.023 0-.026-.002-.007m-.008.036-.004-.008c-.003-.003-.007.001-.009.008 0 .007.001.011.006.01.003-.002.007-.006.007-.01m-.034-.143c-.002-.015-.005-.02-.006-.012-.003.023-.001.062.003.05.003-.006.004-.023.003-.038m-.018-.084c-.002-.003-.004 0-.005.007v.02c.002.004.003.002.005-.007a.054.054 0 0 0 0-.02m-.027.053a.08.08 0 0 1-.03.04l-.02.013.01.012c.004.007.011.009.016.002a.343.343 0 0 0 .038-.083c.003-.022-.003-.014-.014.016m-.066.746c-.004-.052-.01-.049-.008.004 0 .023.004.04.007.04.002-.003.004-.022.001-.044m-.025-.473.018.007c.005.002.007-.004.003-.033-.002-.02-.005-.034-.008-.029-.002.004-.003 0-.001-.007a.136.136 0 0 0-.001-.041c-.006-.03-.001-.058.01-.07.006-.007.006-.015-.003-.029-.008-.01-.013-.026-.011-.034.005-.026-.008-.052-.043-.084-.019-.017-.04-.034-.044-.041-.007-.01-.012-.005-.04.045-.03.055-.031.057-.034.032a.253.253 0 0 1 .002-.06.339.339 0 0 0 .003-.043c-.002-.015-.03-.01-.047.01l-.02.023a.08.08 0 0 0 .012.008c.006.004.011.017.012.026.001.01.007.019.014.02.01.001.007.004-.007.01-.015.005-.018.008-.012.019.004.006.004.022.002.032-.002.011-.002.02 0 .02.004 0 .008-.008.008-.014.002-.008.014-.001.027.012.011.014.024.025.027.024.007-.002.013.077.008.101-.002.01-.007.019-.01.02-.004.001-.01.012-.015.026-.007.02-.005.022.012.008.016-.012.02-.01.024.011.005.031.04.02.048-.016a.12.12 0 0 1 .018-.041c.019-.027.03-.012.034.044 0 .02.008.04.014.043m-.197-.101c.017-.036.021-.055.015-.053-.004.001-.007.008-.009.014a.61.61 0 0 1-.012.042c-.007.024-.006.024.006-.004m-.045.355-.01.016c-.003.009-.004.015-.002.014.004-.002.008-.01.01-.017l.002-.013m.129-.101c.012-.079.01-.094-.002-.064-.008.019-.028.09-.057.19a.923.923 0 0 1-.04.115c-.017.04-.031.053-.03.031a.106.106 0 0 0-.016-.04c-.027-.048-.028-.053-.007-.105a1.384 1.384 0 0 1 .035-.082c.005-.015 0-.02-.014-.018a.041.041 0 0 1-.035-.014c-.016-.018-.024-.018-.018-.002.007.013-.007.045-.021.049a.067.067 0 0 0-.037.041.182.182 0 0 1-.018.04.136.136 0 0 0-.017.044.045.045 0 0 1-.022.03c-.012.008-.017.005-.014-.006.003-.011.003-.025 0-.03-.007-.013-.031.003-.036.023-.002.008-.007.014-.01.015a.211.211 0 0 0-.046.08c-.001.01-.008.019-.016.021-.008.003-.013.011-.016.026 0 .01-.005.021-.008.022-.004.002-.005-.006-.004-.016.003-.024-.02.013-.033.05a.427.427 0 0 1-.058.11.695.695 0 0 1-.071.057.526.526 0 0 0-.107.1c-.005.002-.01.01-.014.02-.002.009-.008.014-.013.011-.01-.01-.06.128-.061.17-.001.028-.004.037-.015.05-.01.011-.015.03-.026.09a1.686 1.686 0 0 1-.022.116c-.006.022-.01.043-.007.046a.337.337 0 0 1-.048.122c-.021.018-.024.032-.007.05.02.023.028.019.076-.03a.179.179 0 0 1 .081-.053c.031-.01.043-.018.053-.038.02-.038.057-.07.16-.138.023-.014.04-.02.044-.016.002.005.01.009.018.007.013-.002.014.075.002.109-.011.028 0 .014.041-.048.043-.065.046-.06.009.01-.027.052-.033.074-.007.03.02-.035.019-.017 0 .024-.01.02-.012.023-.003.015.016-.016.016.006 0 .046-.015.04-.014.058.004.06.007.001.016.005.018.01.003.008.011.002.027-.02.02-.027.021-.028.022-.01 0 .02.002.02.035-.02a.288.288 0 0 1 .046-.048c.009-.004.015-.012.023-.036.015-.037.102-.214.125-.253.01-.017.025-.048.035-.07l.035-.09a.578.578 0 0 0 .028-.086 1.08 1.08 0 0 1 .02-.073.275.275 0 0 0 .013-.087c0-.025.002-.056.004-.065.003-.01.002-.02 0-.023-.003-.002-.003-.027 0-.054a.186.186 0 0 0-.002-.071.121.121 0 0 1-.001-.064l.01-.063a.495.495 0 0 1 .012-.06c.007-.029.007-.04 0-.047-.006-.01-.006-.027.003-.09m-.003 1.073c.002-.006-.002-.003-.01.006-.01.012-.014.01-.011-.006.001-.013-.001-.018-.005-.014-.003.004 0-.01.006-.034a.18.18 0 0 0 .01-.051c-.002-.016-.005-.01-.012.018a.399.399 0 0 1-.058.179c-.007.004-.013.026-.01.036.002.01 0 .016-.01.04-.012.022-.014.03-.013.035a.506.506 0 0 0 .063-.114.08.08 0 0 1 .013-.024.326.326 0 0 0 .038-.072m-.127.202c-.003.003-.006-.002-.005-.007 0-.01-.01.007-.033.051-.021.04-.05.084-.07.112a.861.861 0 0 0-.089.136c-.004.01 0 .016.01.015.02-.002.04-.03.07-.09.02-.04.049-.084.047-.07a.66.66 0 0 1 .038-.07c.03-.053.042-.083.032-.077m-.29.146-.033.015-.012.05c-.015.062-.012.08.009.045.008-.013.016-.022.016-.019 0 .004.008-.009.018-.03.035-.073.035-.076.001-.062m-.068-.188c-.008.004-.012.008-.01.01.003.002.01 0 .014-.006.005-.006.004-.007-.004-.004m-.31-4.845c-.005-.01-.01-.017-.013-.018-.002 0-.002.005.002.014.003.009.009.017.012.018.004 0 .002-.007-.002-.014m.304-.088c-.002-.009-.006-.014-.008-.015-.002-.001-.002.003 0 .012l.008.016c.003 0 .003-.006 0-.013m-3.94-.53c.014-.014.012-.018-.01-.018-.015 0-.027.007-.026.018 0 .023.014.024.036 0m-.19.07c.01 0 .02-.009.02-.018 0-.01-.006-.019-.012-.02-.007 0-.016.009-.02.02-.003.009.002.018.012.018m-.304.135c.017.01.045-.018.046-.046.001-.015-.004-.017-.04-.002-.026.01-.03.035-.006.048m-.05-.024c-.01 0-.014.01-.012.019.005.01.014.015.02.01.018-.018.015-.029-.007-.029m1.142 1.424c.02 0 .04-.009.042-.019.003-.01-.009-.019-.03-.02-.018 0-.038.008-.041.019-.003.011.01.02.03.02m-.415-.035a.109.109 0 0 0 .052.001c.013-.006 0-.01-.027-.01-.029 0-.04.003-.025.009m-.613-.157c.03.015.06.03.065.034.005.004.014-.018.017-.045.009-.047.006-.05-.065-.049-.04 0-.074.009-.075.016 0 .009.026.028.058.043m-.222-.292c.007 0 .014-.017.015-.039.002-.037-.013-.05-.031-.027-.012.016 0 .066.016.066m-.045.108c-.002.038 0 .069.007.069.034 0 .058-.03.06-.08.004-.06-.006-.073-.04-.064-.015.004-.025.03-.027.075m-.286.033c.005.011.014.015.021.01.022-.018.019-.03-.006-.03-.011 0-.018.01-.015.02m4.436 1.602c.015.04.04.1.057.137.02.045.036.097.057.2a.807.807 0 0 0 .035.136c.01-.001.078.119.087.155.02.09.052.223.088.218.011-.002.012-.007.009-.047a.59.59 0 0 1 .007-.098c.01-.058-.067-.141-.105-.159-.014-.006-.024-.022-.03-.046a.273.273 0 0 0-.033-.073c-.03-.041-.034-.055-.043-.172-.007-.091 0-.135.014-.08.003.015.01.027.018.026.005 0 .033.028.058.061a.409.409 0 0 0 .062.073c.009.006.019.027.025.052.006.023.013.041.016.041.01-.002.024-.067.02-.084-.002-.01.001-.019.009-.02.006 0 .018-.018.024-.04.01-.035.009-.05-.008-.12a.569.569 0 0 0-.118-.23c-.068-.098-.08-.138-.065-.213.014-.065.054-.08.07-.026a.197.197 0 0 0 .023.05c.01.016.011.021 0 .022-.027 0-.024.072.003.092.02.013.028-.002.028-.043 0-.026-.004-.042-.013-.055-.031-.044-.03-.079.002-.106.02-.02.027-.038.022-.056-.006-.019-.004-.022.003-.009.017.031.058 0 .071-.055a.384.384 0 0 0 .015-.127l-.006-.027a.31.31 0 0 1-.001-.063c.002-.103-.011-.156-.039-.16-.005-.002-.009-.002-.013-.002l.007-.017c.011-.021-.005-.071-.05-.15a.485.485 0 0 0-.072-.112c-.016-.013-.005-.107.013-.118.02-.013.01-.033-.022-.048-.018-.009-.03-.007-.03.008-.003.026-.022.014-.033-.019a.062.062 0 0 0-.024-.03c-.022-.01-.04-.06-.023-.059.007 0 .018-.024.024-.054.007-.034.017-.047.026-.039.014.012.015.015.015.044 0 .046.018.07.031.041.006-.015.019-.018.035-.01.023.013.026.018.034.054.01.046.018.06.037.063.016.002.037.033.034.05 0 .009.027.096.045.139.002.005.014.002.026-.008.02-.015.02-.02.003-.076a.423.423 0 0 0-.067-.135.429.429 0 0 1-.045-.08.14.14 0 0 0 .011-.09.174.174 0 0 1 0-.063c.005-.034.01-.035.027-.018.03.03.039-.005.03-.166a.538.538 0 0 0-.033-.206.6.6 0 0 1-.028-.09c-.011-.072-.102-.199-.107-.148-.001.02-.007.024-.014.005-.012-.03-.018-.04-.014-.02.004.02.003.018-.007-.006-.008-.02-.018-.03-.032-.036l-.02-.01.01-.025a.583.583 0 0 0 .012-.062c.011-.132-.04-.155.032-.123.02.01.036.012.036.006-.002-.018.048.016.054.036.002.01.01.014.024.013a.1.1 0 0 1 .028 0c.01.003.008.001-.005-.012-.012-.012-.015-.022-.014-.061 0-.039.004-.045.024-.037.018.007.024.013.03.03.015.035.027.042.03.019.002-.013.006-.019.01-.012.003.007 0-.003-.008-.021-.006-.017-.007-.029-.003-.027.016.008.036.073.03.111a.224.224 0 0 0-.002.059.066.066 0 0 1-.007.035c-.01.015.001.073.027.133.011.027.04.083.061.127.023.043.045.089.05.1.014.028.015-.027.002-.058-.005-.012-.006-.025-.003-.03.004-.002.003-.017-.004-.034-.006-.018-.006-.031 0-.033.008-.003.006-.011-.006-.034-.015-.03-.018-.058-.002-.042.004.006.005.002 0-.006-.003-.01-.009-.018-.011-.019a.099.099 0 0 1-.016-.031c-.01-.022-.014-.03-.02-.033-.012-.004-.016-.016-.026-.067-.005-.028-.004-.041.002-.039.007.004.013.003.014-.001.001-.005.005-.002.01.007.004.01.008.01.008 0 .002-.02.015-.016.035.01.006.007.01.009.013.005a5.51 5.51 0 0 0-.372-.52c0-.002-.002-.003-.003-.005l-.014-.017-.005-.004c-.006-.002-.013-.011-.017-.023l-.002-.002a1.265 1.265 0 0 0-.035-.042.332.332 0 0 0-.065-.036c-.068-.033-.032-.02-.06-.057-.025-.033-.084-.062-.073-.037.005.013.002.01-.006-.005-.01-.018-.019-.028-.046-.04l-.047-.023c-.006-.002-.018-.008-.026-.01-.011-.002-.01.002.005.03.02.028.02.03.002.017-.01-.007-.017-.008-.014 0 .002.008-.003.008-.013 0a.285.285 0 0 0-.061-.033c-.033-.013-.045-.014-.045.004 0 .022-.02.009-.07-.045-.02-.023-.022-.027-.013-.023.015.005-.009-.028-.026-.035-.013-.004-.013-.006-.008-.014.006-.006.005-.008-.012-.02a.655.655 0 0 0-.068-.038c-.043-.02-.05-.021-.04-.002.01.019.005.02-.027.01a.216.216 0 0 1-.069-.035.327.327 0 0 0-.09-.045 1.042 1.042 0 0 1-.108-.045c-.03-.017-.039-.018-.03-.004.008.012 0 .018-.02.017-.036.001-.061-.016-.035-.023.008-.003.026-.01.039-.018l.045-.018c.018-.008.018-.017 0-.05a.106.106 0 0 0-.02-.016.706.706 0 0 1-.038-.026.21.21 0 0 0-.063-.028c-.042-.009-.095-.036-.098-.05-.006-.026-.066-.052-.092-.037-.01.003-.015.014-.013.022.002.008-.006.012-.015.01-.01-.003-.015 0-.01.006.005.008-.014.008-.042 0-.09-.023-.235-.015-.253.013l-.012.015.024.017c.015.013-.004.015-.063.01a1.02 1.02 0 0 0-.092-.004c-.013.003.038.068.066.084.024.013.029.018.02.022-.007.003-.031-.006-.053-.02-.02-.01-.057-.03-.077-.037-.034-.016-.035-.016-.01.013.026.028.025.028-.007.013-.04-.018-.041-.004-.003.025.02.016.02.017-.007.01-.024-.008-.033-.015-.043-.045a.25.25 0 0 0-.024-.05c-.007-.008-.007-.001-.001.014.006.017.003.027-.004.026-.009-.002-.018.005-.021.012-.007.012-.004.018.019.041.02.023.023.03.022.051-.002.04.019.062.067.07.05.008.087.04.089.079.001.02 0 .02-.01-.006-.011-.032-.048-.059-.076-.054-.014.002-.015.011-.003.04s.01.045-.01.068c-.027.033-.098.036-.118.003-.008-.013 0-.015.025-.005.031.012.039.006.05-.035.01-.043.01-.05-.01-.072a.216.216 0 0 1-.038-.082.212.212 0 0 0-.032-.071c-.01-.011-.014-.02-.012-.04.002-.032-.018-.06-.048-.064-.02-.004-.026-.009-.02-.02.005-.011.003-.015-.012-.017-.011-.002-.017.004-.014.014.002.009 0 .015-.01.014-.007-.001-.014.012-.014.03a.086.086 0 0 1-.019.052c-.01.012-.014.023-.008.024.005.002.015.015.019.029.005.014.003.025-.002.024-.006 0 .011.018.038.04.076.065.058.08-.033.027a.994.994 0 0 0-.148-.069 1.545 1.545 0 0 1-.098-.035c-.02-.01-.018-.007.01.017.049.037.06.06.044.083-.01.011-.017.01-.027-.006-.01-.016-.03-.018-.089-.011-.057.008-.081.005-.09-.01-.006-.011-.017-.016-.025-.01a.142.142 0 0 1-.041.016c-.054.008-.113.04-.116.061-.002.024-.046.026-.077.007-.022-.016-.02-.044.006-.042.022.002.019-.025-.007-.043-.026-.017-.09-.019-.073-.001.008.009.016.028.015.043 0 .015.006.033.013.041.026.024.005.06-.028.044-.017-.009-.044-.005-.066.008-.045.027-.047.028-.023.065.018.028.015.03-.029.018a.323.323 0 0 1-.073-.025c-.018-.01-.024-.007-.023.007.002.011.014.027.026.033.025.011.036.043.013.042a.217.217 0 0 1-.109-.073.121.121 0 0 1-.013-.052c.001-.014-.01-.03-.028-.037-.06-.027-.019-.028.084-.001.091.023.11.022.138 0 .02-.015.03-.035.024-.05a.353.353 0 0 0-.111-.079.838.838 0 0 0-.266-.093c-.052-.014-.058-.017-.039-.029.024-.014.023-.014-.013-.032-.02-.009-.043-.013-.049-.01-.006.004-.012 0-.014-.01 0-.013-.007-.015-.018-.008a.112.112 0 0 1-.04.016.068.068 0 0 0-.035.025c-.007.012-.014.016-.015.008 0-.007.007-.024.016-.036.013-.019.01-.021-.024-.006a.138.138 0 0 0-.05.034c-.005.008-.021.01-.034.005-.014-.004-.036.003-.051.015-.016.013-.035.017-.048.007-.03-.02-.04-.02-.033 0 .004.009 0 .016-.007.014-.006 0-.025 0-.04.002-.02.002-.023.005-.01.02.026.026-.014.042-.042.016-.02-.016-.023-.016-.016 0 .005.016 0 .018-.017.009-.02-.01-.023-.008-.01.006.008.011.024.016.035.01.042-.02.015.023-.046.069a.29.29 0 0 0-.084.104c-.011.028-.03.052-.038.052-.009 0-.016.01-.016.02-.001.009-.006.015-.011.009-.005-.005-.024.008-.04.028-.019.02-.04.032-.048.027-.01-.005-.017 0-.018.017 0 .014-.01.027-.02.027a.233.233 0 0 0-.07.03c-.055.036-.074.092-.046.14.011.02.01.027-.007.047-.019.02-.017.023.01.013.027-.01.028-.01.006.017-.027.03-.022.04.035.057.032.009.056.001.095-.027.027-.022.051-.048.051-.059.001-.015.007-.013.018.002.01.013.016.035.016.048 0 .014.004.026.011.026.007 0 .01.011.01.024 0 .015.01.041.023.06.013.019.02.037.017.043-.003.005-.001.024.005.04.012.034.062.033.062-.001.001-.01.015-.017.032-.017.052 0 .079-.035.073-.095-.004-.044 0-.057.03-.075a.25.25 0 0 0 .052-.05c.015-.022.014-.027-.006-.05-.012-.014-.03-.026-.039-.026-.008 0-.015-.014-.016-.033 0-.057.035-.11.09-.14.063-.036.084-.059.074-.08-.014-.034.046-.072.098-.065.06.008.074.034.039.063-.124.104-.138.118-.13.147a.323.323 0 0 1 .01.068c0 .06.058.09.146.076a5.01 5.01 0 0 1 .105-.017c.036-.006.076.02.064.042-.004.008-.044.015-.09.015-.102.004-.138.016-.137.043 0 .01.01.024.024.03.016.006.022.02.02.045-.006.051-.021.059-.052.026-.049-.05-.085-.008-.082.093.003.049-.002.061-.022.061-.015 0-.026.007-.026.018.001.025-.055.023-.072-.002-.008-.01-.043-.005-.1.019-.05.02-.097.03-.105.022a.207.207 0 0 0-.085-.013c-.075 0-.114-.032-.099-.075a.064.064 0 0 1 .031-.038c.02-.01.024-.018.014-.037-.009-.015-.01-.035-.004-.046.013-.03-.026-.023-.048.01-.012.016-.027.023-.034.016-.01-.01-.013.006-.01.06.008.136.007.148-.027.15-.094.005-.103.008-.113.049-.007.028-.013.032-.019.015-.005-.017-.018-.008-.045.036a.196.196 0 0 1-.078.072c-.022.008-.044.025-.05.04a.182.182 0 0 1-.054.059c-.036.023-.05.025-.068.008-.02-.017-.025-.014-.03.02-.003.032-.012.04-.038.04-.067-.008-.091.001-.095.03-.003.015.006.028.022.028.054-.001.113.088.104.159a.448.448 0 0 1-.023.095c-.018.045-.023.048-.14.042a.752.752 0 0 1-.134-.013c-.008-.005-.03.001-.048.013-.03.02-.035.032-.04.108a.608.608 0 0 1-.034.144c-.02.046-.025.067-.016.085a.146.146 0 0 1 .004.068c-.007.043-.004.047.037.035.034-.011.05-.004.067.026.02.033.032.036.064.018a.278.278 0 0 1 .094-.02c.033-.001.057-.011.065-.03.005-.017.018-.031.028-.031.024 0 .069-.08.07-.12 0-.04.069-.122.126-.148.035-.016.05-.034.056-.072.01-.063.062-.093.109-.06.023.015.045.009.101-.027a.387.387 0 0 1 .088-.047c.009-.002.043.036.076.083a.673.673 0 0 0 .155.147c.097.06.124.1.104.18-.01.043-.007.04.033-.01.036-.046.04-.058.021-.073-.019-.014-.019-.024-.003-.043.015-.02.024-.02.05 0 .018.015.035.02.04.015.01-.012-.089-.09-.113-.09-.01 0-.02-.009-.019-.019 0-.011-.01-.019-.024-.019-.011 0-.048-.035-.08-.077a.28.28 0 0 0-.068-.077c-.008 0-.013-.021-.013-.047.002-.054.056-.085.068-.039.004.015.018.023.031.017.014-.006.03.01.045.047.013.028.041.06.063.067.02.008.065.035.098.062.044.035.06.061.06.1 0 .033.021.077.061.127.033.041.054.08.046.081-.019.01.05.095.075.095.014.001.017-.01.012-.028-.007-.02.004-.036.028-.048.06-.03.036-.076-.03-.062-.007.002-.009-.01-.005-.025.005-.018 0-.036-.007-.042-.027-.022-.018-.053.012-.039.015.006.034 0 .044-.018.033-.058.136-.02.122.044-.003.016.002.028.012.028s.017.017.015.049c-.002.027.002.049.008.049.007 0 .014.014.015.03 0 .017.02.04.045.051.022.015.055.033.074.045.027.017.04.015.058-.01.02-.029.027-.029.065-.002.048.034.106.041.114.014.003-.009.026-.02.052-.023l.046-.007a.872.872 0 0 1-.02.265c-.028.125-.073.162-.14.115-.034-.024-.047-.025-.085-.004-.053.03-.086.03-.162.001a2.812 2.812 0 0 0-.144-.046c-.05-.015-.092-.032-.092-.042 0-.008-.019-.02-.04-.026-.056-.02-.126.025-.125.078a.161.161 0 0 1-.019.071c-.018.028-.028.026-.09-.01a.343.343 0 0 0-.106-.036.062.062 0 0 1-.052-.035c-.016-.036-.124-.089-.146-.073-.014.01-.153-.063-.152-.08 0-.005.017-.027.036-.047.03-.03.032-.04.016-.068-.016-.025-.015-.037.002-.065.02-.03.02-.031-.003-.02-.015.007-.028.005-.027-.007 0-.014-.02-.017-.055-.01a2.858 2.858 0 0 1-.216.025c-.114.009-.264.03-.341.111-.019.019-.166.008-.182-.017-.016-.03-.027-.02-.054.044a.226.226 0 0 1-.082.095c-.065.042-.137.152-.135.212 0 .049-.05.113-.135.166-.054.036-.163.17-.17.212a.178.178 0 0 1-.037.061c-.018.025-.054.08-.078.126-.043.078-.046.088-.032.12.016.033.015.071-.003.188-.011.07-.061.203-.079.21-.01.006-.013.023-.004.052a.231.231 0 0 1 .002.098c-.01.041-.005.055.02.066.02.006.034.02.032.03-.001.008.02.052.045.096a.344.344 0 0 1 .045.12c.005.085.134.182.205.25.037.037.048.038.199 0a.308.308 0 0 1 .14-.001c.052.015.085.009.17-.03.084-.04.216-.095.307-.04.024.019.042.045.041.06-.002.05.033.069.117.054.07-.011.083-.005.129.038.032.028.049.06.045.079a.54.54 0 0 0-.015.122.326.326 0 0 1-.02.115c-.02.032.013.09.113.195.089.098.16.225.185.357l.026.13c.012.055.008.077-.02.108a.458.458 0 0 0-.072.256c.013.093.09.194.148.274a.404.404 0 0 1 .047.144c.017.114.048.184.087.216.037.027.131.206.12.226-.016.024.022.087.062.103.026.01.044.01.068-.002a.342.342 0 0 1 .119-.027c.142-.011.28-.061.367-.186.025-.032.067-.081.091-.107a.189.189 0 0 0 .056-.123c.012-.072.013-.076.08-.109.068-.034.07-.04.077-.099a.486.486 0 0 0-.003-.125c-.01-.058-.008-.065.025-.092a.618.618 0 0 0 .08-.076.275.275 0 0 1 .091-.071.284.284 0 0 0 .087-.065c.037-.04.04-.056.055-.192.012-.112.01-.155-.008-.169-.011-.012-.019-.054-.018-.103a.442.442 0 0 0-.01-.123c-.011-.031-.003-.057.038-.133a.886.886 0 0 1 .098-.15 8.66 8.66 0 0 0 .133-.154.767.767 0 0 1 .13-.128.56.56 0 0 0 .192-.332 1.38 1.38 0 0 1 .036-.14.452.452 0 0 0 .004-.115c-.005-.087-.008-.093-.03-.077a1.186 1.186 0 0 1-.166.058 4.788 4.788 0 0 1-.145.041l-.043-.05c-.027-.03-.038-.054-.028-.059.021-.011-.087-.138-.17-.201a.235.235 0 0 1-.089-.125.319.319 0 0 0-.067-.117c-.03-.028-.05-.068-.065-.135a.328.328 0 0 0-.064-.145.262.262 0 0 1-.05-.084.547.547 0 0 0-.047-.106 6.332 6.332 0 0 0-.137-.268c-.02-.034-.032-.063-.024-.063.006.002.028.03.048.064.045.08.077.095.071.033-.003-.03 0-.035.008-.016.007.016.044.076.08.133.038.055.07.111.072.123 0 .012.02.035.04.054.046.036.083.11.092.179.004.031.026.065.064.101a.23.23 0 0 1 .063.075.41.41 0 0 0 .058.103.405.405 0 0 1 .06.12c.01.075.065.22.086.23.01.004.035-.004.055-.02a.12.12 0 0 1 .054-.028.127.127 0 0 0 .05-.019c.018-.01.034-.016.039-.013a.106.106 0 0 0 .038-.03.349.349 0 0 1 .082-.058.177.177 0 0 0 .072-.07.111.111 0 0 1 .073-.06c.031-.007.049-.023.046-.038-.002-.016.007-.027.021-.027.014 0 .024-.01.022-.02-.002-.011.009-.029.024-.042.014-.012.023-.027.018-.037-.014-.02-.006-.075.01-.075.007 0 .02-.029.029-.061.005-.025.009-.038.015-.062a1.678 1.678 0 0 0-.035-.044.184.184 0 0 0-.073-.055c-.045-.015-.065-.043-.086-.11l-.014-.055c-.012.027-.018.04-.032.065-.056.106-.169.105-.17-.004 0-.055-.033-.076-.037-.022-.002.042-.005.04-.034-.03a.233.233 0 0 0-.049-.085.286.286 0 0 1-.06-.087c-.038-.075-.038-.075-.017-.096.041-.036.073-.022.115.057.044.07.141.184.23.165.012-.011.025-.013.031-.007.005.005.009.002.006-.01-.008-.04.02-.025.041.024.012.025.026.05.033.057.098.038.254.059.355.025.004-.006.03.02.06.054.066.083.124.135.136.12.004-.006.01-.002.013.008.002.01-.007.02-.02.02-.024 0-.022.004.023.059.055.066.091.061.09-.008 0-.04 0-.04.024.01.014.031.024.063.023.074.022.12.073.242.127.349a.764.764 0 0 1 .05.106.754.754 0 0 0 .049.1c.024.042.055.106.07.144.04.098.06.1.088.012.033-.102.008-.218-.02-.319-.018-.074-.018-.089-.003-.099.01-.005.016-.017.015-.026-.003-.008 0-.016.006-.016.011 0 .038-.062.064-.162.01-.031.023-.06.03-.06.017 0 .026-.037.015-.075-.005-.019-.002-.033.004-.035.005 0 .024-.006.041-.01a.187.187 0 0 1 .042-.01c.006-.002.01-.016.007-.035-.008-.049.023-.019.058.056a.29.29 0 0 0 .061.088c.017.012.028.03.029.046 0 .014.006.027.01.027.016 0 .052.09.054.134 0 .03.006.042.017.049.028.017.038.01.05-.034l.01-.044c.012.03.017.044.03.073m-.417.495c-.041-.073-.052-.082-.052-.039 0 .044.027.157.043.184.013.02.02.022.037.003.028-.028.02-.06-.028-.148m-.703 4.082c.004.003.011 0 .016-.006.005-.005.002-.007-.007-.004-.008.004-.013.008-.009.01m-.502-4.297c.007.012.017.015.023.01.016-.018.01-.03-.014-.03-.011 0-.014.01-.009.02m-.063 2.101c.007 0 .01-.008.009-.016-.002-.01-.007-.015-.01-.015s-.006.008-.009.017c-.002.008.003.015.01.014m-.04 1.728c-.007.022.018.02.045-.003.012-.01.009-.015-.01-.017-.02 0-.03.006-.035.02m-.485-1.708c-.033.045-.038.066-.04.126-.004.101.024.136.088.116a.188.188 0 0 0 .06-.027c.073-.105.129-.276.18-.418a.4.4 0 0 1 .02-.045.098.098 0 0 0 .012-.053c-.002-.027.001-.03.018-.025.017.008.02 0 .02-.055.003-.057-.014-.154-.025-.153-.001 0-.009.006-.014.012-.007.006-.013.025-.016.04a.127.127 0 0 1-.031.055.564.564 0 0 0-.056.067.217.217 0 0 1-.08.062c-.08.033-.113.09-.106.178.006.063.002.075-.03.12M6.94 17c.008 0 .01-.007.008-.018-.002-.01-.005-.019-.007-.019l-.007.018c-.002.011 0 .019.007.019m-.498.097c.001.007.006.013.011.014.004 0 .005-.006.002-.012-.004-.008-.009-.014-.01-.014-.003 0-.003.004-.003.012m3.97-.73c-.034.016-.045.018-.052.012-.004-.002-.018 0-.031.006-.013.004-.022.005-.019 0 .007-.011-.002-.009-.01.003a.09.09 0 0 1-.024.016c-.011.005-.018.006-.016.004.003-.005-.001-.006-.01-.004-.028.007-.05.003-.04-.007.004-.006.003-.009-.002-.006a.46.46 0 0 1-.082.021l-.058.013c-.008.002-.006-.002.007-.02.012-.014.014-.02.008-.018a.077.077 0 0 0-.022.024c-.012.02-.017.023-.051.035a.138.138 0 0 0-.057.033c-.024.024-.049.032-.05.016 0-.007-.006-.007-.012-.002a.789.789 0 0 1-.156.064c-.033.01-.067.009-.072-.004-.005-.01-.053.01-.08.036-.019.017-.027.02-.09.021-.061.001-.076.003-.108.022-.012.008-.018.012-.02.015l-.003.003a.111.111 0 0 1-.04.027.472.472 0 0 0-.165.065.28.28 0 0 0-.062.038.674.674 0 0 1-.099.055.31.31 0 0 0-.073.04c-.01.01-.019.014-.02.012 0-.003-.013.008-.027.025-.031.036-.083.068-.101.063-.013-.004.005-.038.022-.042a.098.098 0 0 0 .03-.022c.017-.019.017-.02.003-.011-.02.012-.033.004-.02-.011a.042.042 0 0 1 .02-.013.21.21 0 0 0 .069-.068c.002-.006-.026-.01-.067-.007-.113.006-.217 0-.216-.008 0-.005-.006-.014-.013-.02-.027-.023-.153.007-.16.04-.004.013-.01.015-.029.014-.02-.001-.025.001-.026.011-.001.012-.007.014-.029.011a.13.13 0 0 0-.059.01.325.325 0 0 1-.054.02.315.315 0 0 0-.125.058c-.02.022-.057.034-.058.018 0-.007-.007-.008-.017-.004-.01.005-.025-.002-.037-.017-.018-.022-.025-.023-.04-.011-.039.033-.07.044-.175.065a.647.647 0 0 1-.182.01.667.667 0 0 0-.243.002c-.007.009-.022.01-.036.004A.731.731 0 0 0 7.1 17a.29.29 0 0 1-.162.015c-.045-.006-.08-.017-.078-.023.007-.021-.028-.013-.05.011-.02.023-.02.025-.037 0-.015-.02-.021-.022-.045-.011-.014.007-.034.01-.042.003-.015-.008-.015-.008 0 .013.017.02.017.02-.003.032a.085.085 0 0 1-.036.008c-.007 0-.017.004-.02.009-.004.006-.019.012-.034.012-.015.001-.028.008-.03.018 0 .012.007.015.033.013.03-.004.027 0-.018.02-.029.013-.052.03-.053.036 0 .008-.022.011-.052.007-.098-.013-.411-.01-.424.046a.368.368 0 0 0 .113.054c.006-.001.032-.001.059.002.046.003.048.003.03.015l-.02.014.026.006a.061.061 0 0 1 .028.015c-.003.005-.01.007-.022.01a5.403 5.403 0 0 0 4.15-.959m-4.5-.536a.107.107 0 0 0-.04-.022c-.029-.01-.029-.008-.002.011.034.026.057.032.042.011m-.066 1.358a.113.113 0 0 1-.022-.037c-.005-.026-.093-.056-.142-.051a.043.043 0 0 0-.035.029c-.003.018-.016.027-.047.027h-.023c.073.023.147.045.22.065h.05c.017-.008.017-.01-.001-.033m-.284-8.783c.016-.006.025-.003.023.004-.003.009.002.016.01.016s.012.007.01.015c-.003.008.008.016.023.017.022 0 .038-.013.067-.061a.255.255 0 0 0 .039-.081c0-.01.02-.031.045-.05.049-.032.062-.054.046-.068-.007-.005-.002-.01.01-.01.015-.003.018-.008.015-.028-.003-.021.005-.027.044-.038a.199.199 0 0 0 .074-.043c.024-.027.025-.026.01.003-.014.027-.014.03.007.014a.306.306 0 0 1 .07-.032.254.254 0 0 0 .09-.056c.023-.024-.152-.04-.145-.04.007 0 .213-.016.213-.03.001-.024.005-.026.017-.01.02.025.15-.004.263-.057.068-.033.076-.04.057-.052a.199.199 0 0 0-.062-.016c-.024-.004-.03-.007-.015-.012.016-.006.023-.016.024-.037 0-.02.004-.024.021-.013.01.006.022.02.023.03.003.021.083.031.088.012.005-.029-.027-.083-.056-.094-.034-.013-.054-.064-.026-.064.01 0 .014.008.011.018-.003.017.049.054.064.042.019-.016.012-.038-.021-.057-.02-.013-.032-.028-.029-.033.004-.005.02 0 .036.011.03.02.097.005.1-.023 0-.01.013-.023.031-.028l.03-.011c-.011-.002-.018-.002-.03-.002-.036-.003-.036-.038 0-.038.013 0 .025-.005.026-.01.005-.026-.02-.06-.043-.06-.051 0-.044-.025.004-.03.001.005.003.01.007.01s.01-.006.014-.012c.028 0 .043.006.041.015-.002.013.004.011.014-.003.024-.03.02-.043-.015-.045-.017 0-.03-.01-.032-.022-.002-.011-.012-.015-.026-.008-.01.004-.013.007-.023.012l.027-.037c.015-.02.033-.035.04-.035.008 0 .02-.012.024-.026.007-.013.02-.025.033-.025.011 0 .03-.007.04-.015a.376.376 0 0 1 .126-.072l.056-.02-.055-.016a.15.15 0 0 0-.1.007.153.153 0 0 1-.072.01c-.014-.005-.046.001-.07.015-.024.012-.046.019-.046.014-.002-.005 0-.008.005-.008s.02-.013.032-.028c.021-.023.018-.026-.035-.016-.036.006-.053.004-.047-.006.005-.01.028-.018.052-.018.022 0 .046-.008.05-.017.006-.01-.006-.017-.032-.017a.154.154 0 0 1-.067-.015.856.856 0 0 0-.324-.005c-.032.004-.06.016-.063.023-.002.007-.056.015-.117.017-.068.002-.1.009-.084.014.025.01.037.03.019.032-.006 0-.01.006-.011.016-.002.02-.004.02-.076 0-.08-.023-.091-.021-.091.009 0 .028-.012.032-.044.014-.015-.01-.026-.007-.035.005-.008.013-.014.012-.02-.001-.01-.024-.208.03-.22.057-.005.014-.019.022-.046.026a.409.409 0 0 0-.157.072c-.008.007.002.011.02.008.018-.002.03.002.025.01-.008.018-.03.03-.098.051-.12.04-.151.053-.156.064-.009.016.076.035.092.02.007-.006.008-.002.004.006-.004.01-.027.02-.052.026-.036.007-.04.01-.024.015.01.004.022.016.026.025.006.01.041.008.109-.007.104-.022.176-.01.18.03 0 .01.006.019.013.018.007 0 .015.028.02.06.006.054.003.067-.014.085-.04.042-.038.058.006.044.027-.008.05-.005.065.012.02.025.021.069 0 .049-.006-.005-.025-.009-.042-.008-.019.002-.027-.004-.019-.015.007-.01.004-.012-.006-.006s-.018.018-.019.026c0 .009-.006.016-.01.016-.006.001-.014.011-.02.026-.012.028.014.043.05.027l.026-.011-.013-.023c-.012-.021-.012-.021.015-.013.015.004.027.017.024.026 0 .008.007.006.018-.005.017-.018.015-.013-.008.025-.018.028-.036.046-.048.047-.012 0-.039.02-.06.04-.037.036-.041.043-.035.061.006.016.004.022-.008.03-.01.006-.012.02-.004.046a.127.127 0 0 1 0 .064c-.01.03-.01.03.033.003.034-.018.034-.018.002.018-.031.038-.032.04-.013.117.019.085.04.107.085.093m-.173 8.689c-.001-.005-.003-.01-.006-.013-.013-.014-.036-.02-.036-.007l-.005.003.047.017m-.178-.666c-.007-.001-.011.002-.009.009.002.006.01.013.017.015.007.002.011-.002.01-.008a.024.024 0 0 0-.018-.016m.083.383-.03-.022c-.015-.012-.027-.024-.026-.029.002-.004-.001-.007-.006-.01-.005 0-.012-.014-.016-.03-.004-.02-.01-.03-.027-.038-.012-.006-.02-.016-.02-.023 0-.014-.072-.079-.091-.081-.012-.001-.021-.009-.033-.028a.092.092 0 0 1-.013-.03c.023-.028.038-.038.05-.03.01.007.017.002.017-.01 0-.026.038-.047.07-.04.01.003.018 0 .016-.007-.002-.006.007-.014.02-.016l.025-.005a.25.25 0 0 1-.028-.007c-.015-.004-.028-.004-.03-.001-.001.002-.013.008-.028.009a.275.275 0 0 0-.103.032.149.149 0 0 1-.041.03c-.018.01-.03.023-.028.031.003.008.01.013.014.011.007-.002.01.006.02.033.008.03.005.034-.014.028-.027-.007-.03-.013.039.08.016.021.03.044.033.05.01.018-.022.024-.098.01-.075-.01-.083-.015-.1-.037-.016-.02-.022-.023-.033-.018-.007.005-.009.01-.002.012.005.002.012.01.016.017.003.01-.005.007-.028-.004l-.055-.028a.341.341 0 0 1-.045-.024c-.017-.01-.026-.012-.03 0-.003.012-.013.01-.061-.012a.322.322 0 0 1-.064-.035.118.118 0 0 0-.043-.02.131.131 0 0 1-.045-.023 1.363 1.363 0 0 1-.359-.14c-.017-.011-.024-.012-.02-.005.004.008.022.02.048.03.024.01.045.021.047.027.003.006-.012.002-.033-.008s-.033-.015-.023-.008c.01.006.023.018.03.025a.083.083 0 0 0 .02.016l.017.013c.209.14.428.268.657.378.012.004.018.004.013-.002a.182.182 0 0 0-.055-.03c-.02-.007-.042-.018-.047-.027-.007-.01 0-.009.025.004.082.04.177.076.182.07.005-.005-.008-.015-.039-.028-.055-.024-.128-.077-.118-.087.005-.003.033.009.066.027.07.04.138.064.179.062.017 0 .056.002.09.006.038.003.06 0 .061-.01 0-.01.009-.012.015-.005.006.005.017-.001.025-.014.008-.016.008-.026 0-.029a.028.028 0 0 1-.017-.012c-.003-.007.01-.005.025 0l.028.012m-.202.144c-.018 0-.032.003-.034.008l.04.018c.011 0 .023 0 .034-.004.033-.01.014-.02-.04-.022m-.912-.551c-.04-.016-.059-.023-.044-.015.013.007.025.017.025.02 0 .004.01.01.018.012l.058.02c.068.024.017-.009-.057-.038m.012-1.292c-.006-.001-.01.004-.007.013.002.007.01.016.015.016.007.002.01-.005.007-.012-.002-.01-.008-.016-.015-.017m.22 1.403a.03.03 0 0 0-.013-.013c-.003-.002-.005.001-.002.008a.04.04 0 0 0 .013.014c.004.002.004-.003.002-.009m.073-.903c-.008-.002-.014.007-.015.017 0 .019.004.02.018.01.019-.013.02-.023-.003-.028m.065.012c-.013-.002-.027.005-.032.017-.006.02-.005.02.017.015.035-.008.044-.027.014-.032m.198.996c-.014-.004-.02-.002-.015.006a.072.072 0 0 0 .025.018c.008.002.014 0 .014-.005 0-.007-.01-.014-.024-.019m.202-.116c.007-.005.01-.013.007-.019-.006-.017-.016-.017-.022-.004-.007.019.002.033.015.024m-.157.045c.007.005.014.006.015.004.002-.003-.004-.008-.013-.01-.01-.002-.01 0-.002.006m-.01.03c0 .005.013.01.031.013.042.005.043 0 .002-.012-.018-.006-.033-.006-.033-.001m.147.091c-.029.006-.025.01.027.02.088.021.09-.005.007-.098-.05-.055-.06-.062-.083-.059-.008.001-.008.01.002.027.008.014.011.028.007.032-.005.006 0 .01.016.015.033.009.027.018-.009.014l-.043-.004a.113.113 0 0 1-.025-.004c-.009-.001-.008.002.002.014.012.012.023.016.044.014.018 0 .037.003.046.012.016.012.016.013.008.017m.107-.262c-.008.007-.006.01.006.013.008.001.013-.003.01-.009-.005-.014-.006-.014-.016-.004M3.54 11.28c-.005.015.096.044.116.03a.174.174 0 0 1 .059-.013.26.26 0 0 0 .051-.007c.003-.003-.008-.026-.024-.048-.032-.046-.133-.07-.125-.029.009.044-.013.077-.043.064-.015-.006-.03-.004-.034.003m.013-.403c.006 0 .013-.01.017-.019.004-.01.003-.018-.004-.018-.004-.001-.012.006-.017.017-.003.01-.001.019.004.02m-.1.412c-.012-.026-.056-.03-.056-.005 0 .01.015.02.032.022.024.002.03-.003.023-.016m.026-.142c-.012.022-.006.028.034.032.052.004.089-.022.062-.046a.395.395 0 0 1-.046-.053c-.096-.126-.122-.143-.182-.122a.173.173 0 0 0-.06.043c-.022.027-.022.028.003.017a.14.14 0 0 0 .045-.027c.02-.02.05-.017.042.005-.003.01.004.02.016.02.014.002.025.01.023.021 0 .01.01.02.023.02.012.002.02.015.018.03-.002.016.005.03.016.03.016.002.016.012.006.03m.36.156c-.016-.002-.03.005-.035.016-.003.01.006.02.022.022.016 0 .032-.008.035-.017.003-.011-.007-.02-.022-.021m.053.534c-.006 0-.014.006-.017.018-.003.01 0 .02.006.02.007.001.015-.008.018-.017.003-.012 0-.02-.007-.02m.782-2.391a.135.135 0 0 1-.03-.028c-.004-.006-.004.002 0 .017.004.016.017.03.03.028.017-.002.017-.004 0-.017m.11-.195c-.01-.03-.05-.04-.045-.011.001.007.014.02.027.027.024.01.026.01.018-.016m.289-.003c-.025.007-.04.001-.044-.017-.002-.015-.012-.023-.02-.015-.021.015.004-.022.048-.073.05-.056 0-.039-.051.017a.559.559 0 0 0-.065.083c-.013.02-.027.036-.032.036-.005 0-.014.013-.02.028-.006.015-.016.028-.022.028-.005 0-.013.007-.018.018-.005.011.026.015.074.014.065-.003.078-.001.06.02-.039.045-.002.024.058-.034.033-.031.05-.05.04-.045-.015.011-.014.004.004-.028.023-.04.02-.04-.012-.032m.007.106c.02-.029.005-.02-.029.019-.03.032-.031.035-.018.047.008.008.022.002.032-.011.01-.013.015-.029.01-.03-.005-.004-.003-.016.005-.025m-.816-.333c-.008.001-.015.005-.017.009-.002.003 0 .01.004.017.004.005.012 0 .017-.008.005-.011.002-.018-.004-.018m.158-.197c-.007 0-.017.008-.022.019-.005.009 0 .012.01.006a.184.184 0 0 0 .022-.019c.001-.003-.004-.006-.01-.006m.104-.387a.055.055 0 0 0-.034.02c-.008.01-.005.015.006.014a.06.06 0 0 0 .035-.019c.009-.01.005-.017-.007-.015m.075.025c-.007 0-.02.008-.028.019-.006.008-.007.017 0 .016.006-.001.019-.01.026-.019.008-.01.008-.017.002-.016m.014-.082c.006-.01.002-.016-.008-.015-.01.001-.012-.005-.007-.015.007-.013-.02-.04-.05-.049-.006 0-.004-.012.003-.022a.108.108 0 0 0 .01-.017l-.022.012a.197.197 0 0 0-.047.052.469.469 0 0 1-.055.069c-.024.022-.024.022-.002.012.013-.007.024-.004.024.007.002.015.01.013.045-.013.037-.027.047-.03.06-.017.021.019.037.018.049-.004m.07.011c-.01.001-.015.006-.01.01.003.005.011.003.016-.002.006-.006.004-.01-.007-.008m.16-.34c-.015.013-.025.025-.02.024.005 0 .02-.012.032-.027.03-.032.026-.032-.01.002m.08.072c.003.002.013.002.02-.002.008-.006.005-.008-.006-.007-.012 0-.018.005-.015.009m.004-.041-.037.016c-.045.017-.083.073-.046.07.028-.004.048-.02.07-.06a.164.164 0 0 0 .013-.026M2.95 9.206a.294.294 0 0 0 .026-.04c.017-.029.02-.037.01-.036a.037.037 0 0 0-.02.015c-.007.011-.02.062-.016.061m-.106-.214c.014-.014.016-.016.008-.014a.045.045 0 0 0-.017.016.15.15 0 0 1-.03.027c-.028.018-.04.042-.016.027.019-.011.053-.043.042-.04-.002 0 .004-.008.013-.016m1.25 6.633c-.002-.022.004-.037.014-.035.014.004.017.008.012.023-.005.015-.003.02.011.022.017.004.018.006.009.024-.006.013-.013.021-.018.02-.004 0-.01.002-.012.01-.002.004.011.01.03.015.02.004.035.012.033.02 0 .008.01.016.026.019.02.004.024 0 .014-.013-.01-.016-.01-.016.008 0 .013.012.038.021.064.021.047.002.063-.018.021-.026a.295.295 0 0 1-.12-.092c-.002-.008-.017-.024-.033-.034-.02-.012-.025-.017-.01-.014.015.002.014-.003-.005-.037-.026-.044-.028-.065-.004-.06.01.002.016-.012.015-.03 0-.017.01-.04.023-.048.03-.016.027-.06-.005-.066-.056-.011-.084-.097-.034-.104.014-.002.025-.012.026-.023a.269.269 0 0 0-.004-.088c-.002-.008.002-.012.01-.01.009.002.009 0-.003-.012a.166.166 0 0 1-.032-.047c-.017-.035-.015-.035.036-.018.05.018.054.017.054-.018a.141.141 0 0 0-.009-.058c-.008-.013.002-.02.034-.014.08.01.123 0 .142-.037.02-.038.019-.074-.002-.078-.007 0-.016-.016-.02-.033a.111.111 0 0 0-.035-.05c-.015-.011-.03-.028-.032-.038-.002-.01.004-.01.017.004a.256.256 0 0 0 .088.041c.06.017.07.015.095-.02a.233.233 0 0 0 .034-.093c.01-.066.03-.111.042-.097.006.008.008.02.004.032a3.26 3.26 0 0 1 .042-.085.192.192 0 0 0 .015-.123c-.008-.042-.004-.087.005-.103.024-.042.155-.108.206-.105.04.004.09-.032.086-.06a.29.29 0 0 1 .021-.077c.014-.034.021-.067.018-.07a.213.213 0 0 1 .003-.074.879.879 0 0 0-.002-.172c-.011-.08-.009-.114.01-.14.053-.085.122-.178.148-.279a.413.413 0 0 0-.02-.126c-.019-.063-.03-.08-.059-.083a.357.357 0 0 1-.123-.09c-.07-.07-.1-.09-.15-.095a.228.228 0 0 1-.093-.03c-.019-.014-.042-.019-.062-.009-.027.013-.03.008-.035-.026-.002-.032-.02-.052-.088-.091a4.03 4.03 0 0 0-.083-.05l-.027.054c-.015.03-.033.047-.04.039-.006-.009.002-.031.016-.05.031-.04.02-.073-.03-.091-.028-.012-.041-.004-.056.034-.018.044-.02.046-.026.011a.185.185 0 0 1 .026-.094c.028-.05.028-.058.004-.084a.318.318 0 0 1-.044-.091c-.01-.036-.039-.098-.057-.138-.03-.059-.047-.07-.12-.09-.081-.017-.089-.024-.121-.108-.022-.06-.043-.091-.063-.094-.027-.003-.028-.012-.014-.041.015-.027.011-.04-.01-.052-.015-.007-.027-.029-.028-.046-.001-.028-.009-.029-.059-.011-.039.015-.06.015-.068-.002-.009-.01-.03-.018-.05-.018-.024.004-.038-.007-.044-.035-.004-.024-.016-.043-.024-.044a.017.017 0 0 1-.015-.017c0-.007-.002-.002-.005.01-.001.013-.012.023-.022.022-.011-.001-.028.006-.04.018-.03.031-.03-.003 0-.044.036-.054.027-.062-.024-.022-.025.02-.051.034-.059.033a.037.037 0 0 0-.027.01c-.007.009-.017.015-.023.014l-.021.004c-.005-.001-.015.012-.02.026a.354.354 0 0 1-.052.08c-.045.053-.045.053-.056.015-.016-.058-.04-.069-.086-.042-.038.024-.045.022-.059-.002a.226.226 0 0 1-.019-.079c-.003-.047 0-.061.047-.172.047-.11.052-.123.045-.156-.006-.026-.02-.036-.07-.039-.091-.006-.09-.006-.067-.033a.457.457 0 0 0 .043-.087c.014-.035.027-.06.03-.055.001.006.014-.013.027-.04a.853.853 0 0 1 .045-.08c.04-.062.038-.074-.014-.066-.058.008-.084.03-.106.088-.016.043-.07.104-.076.086-.002-.005-.02-.003-.04.005-.053.022-.073-.015-.062-.123a.515.515 0 0 1 .052-.202.65.65 0 0 1 .057-.12.18.18 0 0 0 .03-.062c.02-.063.074-.142.096-.141.008 0 .027-.014.043-.03.032-.033.09-.035.144-.004.028.016.029.016.042-.024.013-.04.017-.042.068-.04.03.001.057.013.06.028.004.017.014.02.032.007.03-.021.045.052.018.102a.169.169 0 0 0-.018.078c0 .024-.002.05-.006.058-.006.018.001.066.013.067.005 0 .02-.02.035-.045a.836.836 0 0 0 .06-.228.444.444 0 0 1 .018-.079c.015-.036.069-.112.08-.111.006 0 .03-.02.054-.046.022-.025.047-.045.054-.045.005 0 .022-.013.034-.027.014-.014.032-.027.042-.027.013 0 .02-.01.025-.032.004-.018.01-.026.012-.016.004.005.011.004.02-.007.007-.01.008-.019.002-.02-.008 0-.005-.007.01-.023.012-.015.02-.034.02-.043a.318.318 0 0 1 .046-.134c.013-.016.012-.005-.001.038-.018.053-.017.057.004.028a.215.215 0 0 0 .031-.062c.004-.017.013-.026.024-.025.014 0 .03-.017.046-.047.02-.035.033-.046.052-.046.018 0 .025-.005.02-.017-.005-.01.013-.02.05-.027.046-.011.058-.019.057-.037 0-.045.055-.116.113-.141.028-.015.064-.034.08-.045a.249.249 0 0 1 .04-.022l.047-.017c.033-.01.035-.01.004.017a.135.135 0 0 1-.04.03c-.013 0-.033.052-.026.065.003.007.024-.001.048-.02a.274.274 0 0 1 .062-.04c.042-.01.115-.059.125-.083.008-.019.01-.019.009-.002-.001.015.007.017.02.006.017-.013.02-.019.012-.019s-.008-.015 0-.033c.009-.027.004-.025-.03.014-.034.038-.05.047-.076.043-.043-.008-.062-.052-.042-.099.012-.026.01-.037-.005-.039-.017-.002-.014-.006.013-.015a.083.083 0 0 0 .047-.039c.008-.02 0-.028-.04-.026-.053.004-.117.04-.188.109-.032.03-.028.024.015-.024a.763.763 0 0 1 .174-.143c.03-.022.058-.026.133-.02.084.01.102.006.145-.026a.528.528 0 0 1 .102-.058c.045-.016.054-.025.074-.07.018-.045.017-.055-.01-.075-.02-.017-.024-.03-.01-.04.014-.011.016-.016.007-.017-.014-.004-.027-.01-.028-.016a.063.063 0 0 0-.022-.007c-.012-.003-.022-.013-.021-.021a.08.08 0 0 0-.011-.036.057.057 0 0 1 .004-.047.379.379 0 0 0 .005-.13l-.006-.1-.049.055c-.057.065-.11.092-.115.061-.002-.012-.013-.017-.024-.013-.016.008-.015-.001.012-.057.03-.061.03-.065.003-.073-.016-.006-.025-.016-.022-.023.011-.023-.02-.052-.054-.046a.182.182 0 0 1-.06-.006c-.017-.005-.035-.001-.041.006a.5.5 0 0 0-.042.087.267.267 0 0 1-.06.108c-.032.033-.032.035-.02.053.013.02-.004.082-.036.128a.303.303 0 0 1-.075.064l-.057.037-.019.065c-.03.093-.039.11-.074.134-.028.018-.033.012-.039-.035a.17.17 0 0 1 .003-.074c.061-.117.061-.12.012-.117-.025.002-.044-.005-.042-.013.002-.01-.004-.016-.013-.015-.009 0-.023-.015-.032-.035-.008-.02-.03-.033-.057-.032-.035 0-.04-.004-.028-.04.008-.025.006-.045-.006-.048-.02-.01-.005-.04.062-.122.054-.065.13-.13.155-.133.009-.001.019-.009.02-.016.006-.021.051-.054.078-.058.026-.003.159-.133.15-.148-.002-.004.007-.005.022-.002.016.002.027.014.028.021 0 .012.003.01.009-.006a.042.042 0 0 1 .034-.028.185.185 0 0 0 .056-.03l.029-.02-.004-.023c-.005-.023.005-.052.017-.048.004.002.013-.004.02-.014.008-.01.002-.025-.009-.036L4.71 8.04a.228.228 0 0 1 .07-.01c.06-.005.08-.012.086-.028.01-.026.013-.025.03.001.007.013.009.03.003.037-.006.006 0 .007.014.001.013-.004.02-.002.016.006-.004.009.005.023.022.03.045.027.024.088-.047.127-.018.01-.026.019-.028.035-.001.016-.01.023-.038.032-.021.008-.044.01-.053.006-.013-.008-.053.021-.069.052-.004.008.023.01.064.002.052-.01.074-.008.075.009.004.01.011.022.02.02.009 0 .01.006.005.013-.017.021.004.06.023.044.01-.007.017-.005.02.004.001.008.013.02.027.027.015.004.032.013.04.016.023.017.025-.028.002-.061-.034-.044-.016-.058.024-.019.031.027.036.029.058.003.02-.026.025-.038.024-.07 0-.022-.006-.038-.013-.038-.006.001-.016-.01-.02-.025-.01-.025-.008-.028.02-.052.03-.026.04-.019.054.034.006.033.034.038.048.009.006-.013.013-.021.015-.016.002.005.023-.01.047-.033l.043-.041-.034-.008c-.018-.004-.033-.014-.03-.025.002-.01-.01-.02-.028-.024-.067-.012-.082-.062-.024-.073.015-.002.015-.005 0-.014-.016-.008-.016-.012.001-.014.013-.002.021-.01.024-.021.002-.01-.008-.013-.023-.004-.016.008-.02.005-.01-.008.012-.017.008-.019-.026-.017-.01 0-.017-.004-.012-.011.01-.022-.03-.04-.05-.021-.011.01-.022.002-.029-.021-.006-.02-.019-.037-.028-.036-.01.001-.012-.005-.005-.012.02-.024-.013-.044-.057-.038-.026.004-.042.012-.05.024-.007.014-.01.015-.005 0 .004-.017-.007-.016-.046-.003-.065.022-.093.044-.11.083-.01.017-.01.03-.005.03.007 0 .008.004.003.014-.013.02-.016.02-.027.001-.005-.007-.003-.023.004-.036.007-.01.014-.025.018-.033a.163.163 0 0 1 .035-.033c.029-.02.029-.023-.006-.017-.045.008-.083.032-.128.086-.038.042-.039.043-.04.075 0 .024.012.035.05.037.025.003.04.008.031.013-.02.01-.04.04-.025.037.004 0-.007.015-.029.035-.019.02-.039.033-.043.029-.004-.006-.01.002-.02.019-.016.035-.035.043-.035.017-.003-.018 0-.024.017-.038.016-.014.019-.021.011-.035-.01-.012-.014-.011-.039.012-.04.038-.042.037-.024 0 .01-.022.008-.03-.005-.028-.02.003-.014-.019.01-.033.013-.008.009-.082-.005-.08-.005 0 .006-.013.026-.034.023-.022.04-.033.046-.028a.299.299 0 0 0 .103-.075c.007-.011-.121.02-.14.036a.083.083 0 0 0-.03.046c-.014.042-.026.058-.056.079a.137.137 0 0 0-.046.05c-.02.032-.01.048.023.05.002 0-.001.006-.01.016-.006.009-.008.016-.001.014.019-.003-.011.028-.044.044a.076.076 0 0 0-.042.043c-.01.022-.015.026-.023.022-.006-.004-.005-.015.003-.025.007-.01.012-.026.01-.035-.002-.011 0-.017.006-.017a.093.093 0 0 0 .026-.004c.015-.004.015-.004.013-.024-.002-.034-.023-.035-.061-.006-.031.025-.036.029-.022.027.02-.004.017.01-.014.04-.034.035-.147.044-.16.016-.006-.022-.073-.002-.082.023-.002.005.013.002.033-.009.022-.012.039-.018.037-.014 0 .004-.017.014-.034.023a.087.087 0 0 0-.048.043.161.161 0 0 1-.027.04c-.007.005-.005-.001.003-.013.02-.033-.012-.038-.09-.018-.045.014-.058.014-.049.002a.092.092 0 0 1 .031-.022c.03-.01.008-.025-.026-.016a.133.133 0 0 1-.06-.005c-.017-.008-.04-.005-.06.005-.019.01-.03.01-.028.002.002-.01-.002-.01-.015.004-.028.027-.037.027-.032 0 .004-.018.001-.02-.016-.003a.2.2 0 0 1-.054.032.48.48 0 0 0-.137.074c-.02.018-.03.02-.048.016-.035-.009-.003-.04-.08-.013a.12.12 0 0 1-.033.005.166.166 0 0 0-.03.004.087.087 0 0 1-.021.004l-.02.012-.038.027a.92.92 0 0 0-.064.046 4.87 4.87 0 0 0-.126.155c.011-.013-.001.01-.018.032a.052.052 0 0 1-.02.013l-.053.068.02-.014c.016-.012.017-.011.004.007l-.023.03a.226.226 0 0 1-.05.041 7.006 7.006 0 0 0-.114.163c.006-.002.003.005-.01.025-.019.027-.018.03 0 .017.011-.007.02-.007.02 0-.001.005.002.005.007 0a.06.06 0 0 1 .022-.017c.014-.006.012-.004-.015.03a.631.631 0 0 1-.07.074 1.18 1.18 0 0 0-.055.052c-.006.008-.011.012-.01.008 0-.004-.006 0-.017.01l-.014.02a.55.55 0 0 1 .03-.021.482.482 0 0 0 .061-.05.39.39 0 0 1 .043-.035c.004 0 .011-.008.015-.013a.26.26 0 0 1 .04-.038l.054-.048c.02-.02.022-.022.014-.02-.012.004.01-.024.03-.039a.188.188 0 0 0 .026-.023.33.33 0 0 1 .082-.071C3 8.82 3 8.823 2.986 8.83c-.02.014-.075.073-.065.07.004-.001.002.003-.01.015-.03.028-.003.014.03-.015a.234.234 0 0 1 .04-.03c.009-.003.015-.01.024-.025.014-.026.02-.03.026-.013.002.007-.005.02.017.019.01-.001-.009.04-.008.056.002.02.013.019.034-.008.008-.01.004-.004-.01.017-.023.032-.054.104-.044.102a.425.425 0 0 0 .045-.09c.002-.007.005-.012.01-.012.004-.002.01-.01.016-.021.005-.013.006-.013.002 0a.103.103 0 0 1-.013.032c-.006.008-.012.02-.018.03-.004.007-.006.014-.002.013.003-.001.011-.012.018-.025.008-.015.014-.021.015-.019.004.008-.024.055-.034.057-.006.001-.015.01-.02.019-.006.008-.006.01.001.005.006-.005.004.004-.004.023a.201.201 0 0 0-.019.052c0 .014.003.01.018-.015.01-.015.014-.025.01-.022-.005.005-.004-.004.001-.02.008-.026.01-.028.022-.031.008-.002.01.002.003.008-.013.014-.022.079-.007.068.006-.004-.004.012-.025.045-.036.057-.037.07.001.03.016-.018.015-.015-.007.018-.023.03-.026.036-.013.027.01-.008.01 0 .002.022a.318.318 0 0 1-.017.037c-.017.022-.02.037-.008.034.009-.001.01.006.005.016-.008.014-.017.012-.028-.007 0-.004-.006-.001-.011.007-.012.02.01.125.025.114.008-.006.012-.02.01-.036-.003-.028.01-.067.02-.068.004-.001.003.005-.002.013-.004.009-.003.019.002.022.011.01.008.033-.01.075-.012.03-.018.03-.042.006-.006-.006-.008-.006-.02.034a.753.753 0 0 1-.076.145c-.058.098-.118.195-.16.302 0 .004-.006.019-.011.03-.02.036-.028.09-.015.079.008-.008.005-.001-.004.014a.32.32 0 0 0-.031.096.669.669 0 0 1-.02.083c-.003.007 0 .018.01.023.024.014.023.047-.007.162a.807.807 0 0 0-.026.147c0 .04-.001.047-.02.066-.023.022-.024.014-.003.1a.135.135 0 0 1-.008.06c-.012.029-.008.153.006.136.011-.014.019-.06.01-.068-.005-.005 0-.039.01-.076a.817.817 0 0 0 .018-.076c0-.005.003-.043.009-.086a.95.95 0 0 0 .01-.094c0-.01.008-.043.019-.072.022-.056.023-.056.034-.039.009.012.006.039-.005.082a.68.68 0 0 0-.019.15c0 .047 0 .09-.004.097a.843.843 0 0 0 0 .102c.003.106-.006.185-.034.229a.179.179 0 0 0-.02.047.263.263 0 0 0 .033.125.138.138 0 0 1 .022.036.378.378 0 0 0 .05.077c.041.051.047.054.078.032.04-.026.05-.015.063.07.008.05.066.116.108.12.01.002.016.01.013.017a.205.205 0 0 0 .005.072.24.24 0 0 1-.002.093c-.008.024-.01.043-.005.044.028.012.045.044.037.07-.009.027-.008.027.024.04.01.003.025.021.032.04.017.04.041.044.044.01.002-.032.054-.088.064-.07a.393.393 0 0 1 .005.09c-.002.081-.024.32-.06.333-.003.001-.011.02-.012.048 0 .028-.006.049-.013.048-.017-.004-.035.148-.024.2.004.023.014.04.024.041.023.001.024.047.001.077-.028.039-.01.141.036.204.018.026.055.104.082.174.029.072.07.168.094.215a.455.455 0 0 1 .041.106c-.001.029.07.117.148.184a.375.375 0 0 1 .153.262c.024.136.051.273.057.412a.408.408 0 0 0 .013.1c.006.014.008.027.002.033-.005.005-.001.033.012.07a.57.57 0 0 1 .019.251.24.24 0 0 0 .014.124c.01.027.018.056.014.065-.003.01 0 .043.007.074a.685.685 0 0 1 .013.083c0 .02.004.025.013.023.008-.002.009-.022.005-.042-.005-.024-.002-.038.007-.036.015.002.026.041.038.125 0 .008.005.036.008.062.006.036.002.044-.016.033-.012-.008-.03-.005-.038.006-.01.01-.01.019-.002.018.045.003.058.022.075.11 0 .002-.01-.008-.024-.023s-.026-.023-.028-.019c-.003.003.004.014.013.021.01.01.02.03.026.056.008.036.009.038.014.019.003-.013.008-.023.012-.022.011.002.016.062.007.073-.004.005 0 .009.01.009.014 0 .03.017.06.066.022.035.035.064.029.062-.006-.001-.004.006.002.016.006.009.022.015.035.012.013 0 .022.002.022.01-.001.005.005.012.013.014.009.002.014-.014.012-.036m-1.364-3.18a.076.076 0 0 0-.01-.031c-.005-.007-.007 0-.006.016.002.016.007.03.011.03.004.002.007-.005.005-.015m-.75-1.426c-.002-.002-.007.008-.014.026-.006.02-.007.03-.003.025a.068.068 0 0 0 .014-.024.068.068 0 0 0 .004-.027m1.688-2.918.015.012c.016.014.069-.006.087-.034a.333.333 0 0 1 .082-.065c.01-.006.014-.01.024-.014l-.038.034-.038.036c.008 0 .01 0 .019.002.027.002.027.007.003.015-.013.005-.025.014-.029.021-.003.009.023.005.06-.005.035-.01.063-.014.058-.007-.004.006-.02.013-.035.014a.226.226 0 0 0-.063.022 2.345 2.345 0 0 1-.038.021l.006.014c.005.008.018.01.03.01.013-.005.022 0 .02.01-.007.02.12-.024.16-.056.016-.014.029-.017.038-.011.029.018.113-.017.095-.04-.002-.003.008-.01.022-.014a.349.349 0 0 0 .027-.01l-.012-.014c-.008-.007-.02-.014-.028-.012-.009.001-.009-.017.003-.051.014-.045.02-.054.038-.071a.23.23 0 0 0 .027-.03c.01-.015-.04.002-.056.02a.083.083 0 0 1-.03.02c-.018.005-.019.007-.03.04-.016.043-.034.053-.024.012.01-.031-.002-.03-.038 0-.018.015-.022.016-.018.004s-.004-.012-.03 0c-.026.014-.031.013-.021 0 .007-.012.004-.015-.013-.007-.015.007-.02.006-.01-.005.014-.017-.008-.034-.033-.024a.287.287 0 0 1-.049.013.198.198 0 0 0-.06.022c-.018.011-.029.02-.029.026 0 .007-.013.022-.046.055l-.046.046m.201-.22.024-.004c.013 0 .03-.009.04-.019.01-.008.014-.01.01-.005s.007-.003.024-.018c.02-.018.028-.023.021-.012-.01.019.04-.013.063-.04.026-.033-.048 0-.12.054l-.062.044m.091-.018c.015-.014.017-.016.005-.013a.07.07 0 0 0-.027.02c-.017.02-.003.016.022-.007m.1-.059c-.029.009-.042.017-.073.048l-.036.036.015-.004a.126.126 0 0 1 .028-.004.078.078 0 0 0 .032-.018c.01-.008.018-.008.018-.003 0 .007-.003.012-.015.015-.016.007-.017.008-.016.018.002.008.019.003.066-.023a.366.366 0 0 1 .09-.04.152.152 0 0 0 .084-.058c.006-.011-.003-.01-.022-.001-.027.012-.032.009-.027-.01.008-.026.002-.026-.024-.003-.014.012-.017.019-.017.034 0 .019 0 .019-.024.026-.015.004-.03.001-.035-.007-.006-.008-.026-.01-.045-.006m.047-.07c.001.003.008 0 .013-.006.005-.005.004-.007-.003-.003-.008.002-.012.007-.01.01m.054-.004a.143.143 0 0 0 .046-.026c.009-.01 0-.011-.023-.004a.106.106 0 0 0-.046.027c-.005.006.005.01.023.003m.044-.05c.03-.01.041-.016.037-.02-.003-.006-.007-.007-.009-.006l-.037.02c-.03.017-.029.017.009.006m.06.118c.017-.016.022-.024.009-.02-.006 0-.013.009-.016.015-.002.009 0 .01.007.004m.02.077c.01-.002.007.003-.003.014-.012.012-.021.016-.028.008-.006-.006-.014-.005-.021.004-.007.009-.007.017.001.02.008.001.02.014.028.026.008.017.018.019.026.008a.07.07 0 0 1 .033-.023c.03-.006.06-.05.038-.056-.016-.004-.015-.006.01-.029.02-.02.025-.025.02-.029-.006-.005-.04.006-.079.022-.022.011-.042.04-.024.035m.01-.14c-.002.007.002.012.01.01.01-.003.015.001.013.009-.004.009.009.006.032-.004.03-.015.033-.015.017.007-.016.02-.015.025.004.02a.135.135 0 0 0 .082-.072c.012-.025.008-.027-.022-.02-.026.008-.037.014-.035.022.002.017-.016.02-.022.006-.003-.008-.007-.007-.017.01-.012.019-.015.02-.024.006-.014-.015-.032-.012-.038.006m.016-.04c.01-.003.012-.005.01-.015-.001-.015-.01-.012-.016.005-.004.007 0 .012.005.01m.066-.088c.02-.004.02-.006-.004.011-.017.012-.01.012.025.004.025-.007.047-.009.044 0-.006.016.026.008.036-.008.013-.02 0-.039-.025-.037-.012 0-.035 0-.05.002-.018 0-.03.006-.037.017-.006.009 0 .013.011.01m.15.106c-.005-.015-.01-.013-.046.013-.01.009-.017.013-.028.021l.012.007c.027.018.073-.011.063-.041m.023-.045c.016-.004.03.002.03.012s-.002.02-.005.021c-.003.001-.008.01-.01.021-.003.015.025.012.14-.01.083-.017.162-.035.177-.045a.427.427 0 0 1 .023-.016L4.9 7.634c-.005-.011-.042-.007-.126.016-.103.026-.117.028-.122.008-.004-.012-.027-.022-.055-.02l-.058-.001c-.006-.002-.018.003-.024.01-.016.02-.001.029.038.02m-.013-.068c.002 0 .006.005.005.01 0 .005.014.003.034-.002.032-.01.034-.011.01-.01-.016.001-.017-.005-.004-.022.011-.016.01-.02-.002-.017a.138.138 0 0 1-.035.002c-.01-.002-.02.003-.025.012-.009.013 0 .028.017.027m-.016-.076c.002.002.01-.001.018-.005.006-.005.005-.008-.006-.004-.009.002-.015.006-.012.009m.148.09c-.001 0-.006.006-.011.016-.006.007-.006.014-.001.012.003 0 .01-.008.011-.016.004-.008.003-.013.001-.012m.008-.016c.013-.003.016-.006.014-.016-.003-.016-.02-.012-.025.006-.002.007.002.012.01.01m-.016-.094c.03-.008.032-.008.01.004-.034.02-.034.03-.003.039.018.005.044-.004.126-.047.018-.01.021-.008.01.002-.024.02-.02.03.016.02.016-.006.025-.006.019 0-.005.008-.007.016-.004.018.002.004-.016.01-.04.01-.029.002-.043.008-.038.014.006.008 0 .013-.03.026-.082.039-.048.042.09.01.17-.039.189-.042.165-.053-.016-.007-.015-.008.008-.023a.1.1 0 0 0 .03-.028c.005-.007.021-.016.038-.019a.143.143 0 0 0 .058-.032c.026-.024.026-.024.01-.023-.028.006-.014-.019.013-.027a.944.944 0 0 0 .192-.085.954.954 0 0 1 .1-.048c.025-.012.043-.023.04-.029-.002-.005.026-.02.063-.03a.215.215 0 0 0 .075-.035c-.124-.05-.347.024-.465.062a.409.409 0 0 0-.103.046.068.068 0 0 1-.046.015.097.097 0 0 0-.053.014.354.354 0 0 1-.074.032c-.05.015-.067.03-.054.047.012.019.051.02.068-.002a.068.068 0 0 1 .027-.02c.01-.002.01 0-.009.016-.014.013-.009.014.02.006.07-.019.11-.024.1-.012a.285.285 0 0 1-.082.024c-.051.01-.07.019-.075.031-.003.011-.008.014-.016.009-.005-.005-.017-.008-.023-.009-.007.001-.016-.002-.019-.003-.02-.014-.058-.024-.072-.018-.044.014-.057.021-.061.032-.001.005-.012.014-.022.02a.103.103 0 0 0-.032.026c-.018.024 0 .033.043.02m1.292-.476c-.004.013.052.012.06-.002.005-.007-.006-.012-.024-.01-.02.003-.035.008-.036.012M7.062 8.13a.303.303 0 0 0-.09-.091c-.003 0-.008.008-.012.017-.001.008-.033.02-.069.026a.242.242 0 0 0-.084.022c-.012.01-.026.004-.032-.015-.01-.02-.023-.025-.043-.017-.046.02-.058.046-.019.046.03-.001.033.002.018.026-.013.022-.015.027 0 .027.02-.001.02.028-.002.041-.008.004.02.014.06.019.086.01.25-.026.274-.1m-.574.485c.006 0 .016-.01.021-.02.005-.01.005-.018-.002-.017-.005 0-.015.008-.02.019-.005.009-.006.018.001.018m-.018.279a.042.042 0 0 1 .013-.037c.01-.007.016-.028.015-.045-.004-.04-.09-.038-.107.002-.007.015-.025.028-.039.03-.02 0-.03.01-.035.036-.003.02 0 .04.007.046.009.006.004.017-.017.04-.024.027-.027.033-.014.05.008.009.028.012.045.006.018-.008.047-.018.067-.025.036-.012.072-.07.065-.103m.3.1c.028-.028.021-.068-.01-.067-.013 0-.027-.02-.032-.047-.006-.024-.02-.05-.03-.055-.011-.006-.021-.028-.022-.048-.001-.018-.012-.04-.024-.045-.02-.011-.02-.014 0-.045.04-.057.035-.083-.01-.073-.046.009-.05.004-.015-.032.02-.023.02-.025-.011-.026a.087.087 0 0 0-.048.016.379.379 0 0 0-.042.075c-.023.05-.026.063-.013.054.013-.007.014.002.007.03-.006.023-.008.03-.001.017.02-.043.034-.026.02.026-.017.047-.014.049.02.039.028-.01.037-.007.034.013-.002.015 0 .029.008.028.005 0 .005.013 0 .029-.007.015-.025.029-.04.029-.027 0-.03.005-.021.03.01.025.007.03-.015.04-.015.006-.03.02-.032.03 0 .01.002.013.009.007.006-.004.028-.003.05.007.033.01.034.014.01.016a.152.152 0 0 0-.067.043c-.028.032-.032.038-.012.03a.403.403 0 0 1 .095-.025c.039-.007.088-.015.108-.02a.716.716 0 0 0 .054-.008c.01 0 .014-.012.012-.024-.003-.01.005-.03.019-.044m.316-1.84c.002.008.011.018.019.018.007 0 .01.006.007.015-.009.026.059.044.086.026a.056.056 0 0 1 .049-.004c.019.01.013.014-.03.026-.046.012-.049.014-.024.027.02.007.023.012.01.014-.012.002-.001.015.027.032.043.028.047.028.056.002.005-.015.015-.03.022-.029.006 0 .02-.015.03-.034.009-.019.024-.034.034-.033.025 0 .057.034.051.055-.01.027.081.028.096-.001.006-.01.006-.016-.001-.012-.004.003-.03-.009-.058-.025a.44.44 0 0 0-.084-.045c-.019-.006-.037-.019-.04-.028a.011.011 0 0 0-.017-.005c-.007.004-.016 0-.02-.01-.006-.02-.049-.027-.051-.009-.001.009-.002.021-.001.028 0 .007-.007.007-.014-.002-.024-.023-.152-.029-.146-.006m.31 0a.31.31 0 0 1 .078.022c.024.014.138-.02.126-.039-.01-.016-.131-.037-.137-.024a.208.208 0 0 1-.075-.001c-.087-.009-.081.023.008.042m1.023.099c-.001.024.008.025.053.008l.045-.015-.048-.003c-.027-.002-.05.004-.05.01m.171.68c0 .008.004.02.01.026.014.013.048-.003.043-.022-.004-.021-.05-.026-.053-.004m.11-.12a.094.094 0 0 1 .045.028c.01.015.041.027.07.03.02 0 .031.002.052.003a2.14 2.14 0 0 0-.044-.038.188.188 0 0 1-.05-.059c-.006-.028.069-.136.093-.132.008 0 .015-.005.015-.013 0-.015.049-.029.16-.044.034-.004.06-.014.056-.023-.006-.017-.068-.027-.09-.012a.17.17 0 0 1-.064.004c-.078-.009-.171.024-.19.067-.01.02-.023.037-.03.035-.01 0-.013.011-.01.025.005.013.001.024-.006.023-.007 0-.016.014-.02.032-.003.018-.015.032-.025.03-.03-.002.007.039.038.044M8.7 7.302c.006.021.015.022.024.004.006-.012.004-.016-.01-.017-.011-.002-.017.003-.014.013m.057-.007c.01.017.07.022.073.005.001-.004-.018-.012-.041-.016-.026-.004-.04 0-.032.01m.113.015a.055.055 0 0 0 .032-.006c.013-.007.013-.01 0-.012a.055.055 0 0 0-.032.007c-.014.006-.013.01 0 .011m.815.213c.023.004.04.01.037.015-.006.016.028.038.1.064.061.024.064.023.05-.005-.012-.027-.018-.033-.046-.045-.017-.008-.033-.019-.037-.027-.01-.036-.113-.076-.127-.047-.006.008-.005.017-.001.02.004 0 .003.008-.004.013-.009.006-.001.009.029.012m.212.144c.027.003.04.005.067.01.037.007.067.01.067.007 0-.011-.02-.026-.046-.035-.016-.006-.03-.015-.031-.021-.005-.022-.037-.013-.047.012l-.01.027m.414.278c-.008-.003-.01.001-.007.01.004.008.012.017.017.02.005 0 .009-.005.007-.013a.027.027 0 0 0-.017-.017m.536.168c.023.021.124.053.122.04-.004-.015-.018-.026-.07-.051a.567.567 0 0 1-.062-.035.02.02 0 0 0-.018-.007c-.011.005.001.03.028.053m.096.087c-.001.006.003.012.016.022.026.022.045.027.032.01-.02-.023-.048-.043-.048-.033m.064-.025c.01.01.028.02.044.028l-.027-.028a.317.317 0 0 0-.016-.01c-.014-.005-.014-.003-.001.01m.725 1.343c.002.01.005.011.007.008.004-.008 0-.02-.006-.02-.002-.002-.003.003 0 .013m0 .32A.166.166 0 0 1 11.7 9.8c-.04-.059-.045-.061-.029-.017.022.055.03.09.022.088-.01-.001-.003.052.012.079.01.02.013.02.012.006 0-.014-.002-.02-.007-.02-.004-.001-.008-.006-.008-.012-.002-.017.019-.014.038.007.013.013.017.012.015-.008 0-.013.004-.023.009-.022.02.004-.004-.05-.029-.063m.062.293a.252.252 0 0 0-.036-.102.65.65 0 0 0-.032-.059c-.002 0 .002.008.008.02.007.011.007.014-.002.007-.013-.012-.008.015.014.074a.28.28 0 0 1 .015.144c-.007.02-.008.02-.018-.005-.008-.026-.01-.026-.005-.006.017.082.014.096-.014.093-.027-.004-.041.025-.045.098-.004.035.005.066.013.054.004-.008.008 0 .017.038.019.07.034.068.024 0-.007-.048-.01-.055-.024-.072-.018-.024-.02-.044-.004-.029.007.005.01.002.006-.006-.003-.008 0-.016.008-.017.017-.001.021.012.01.03-.006.01-.005.022.003.04.01.024.012.024.014 0 0-.014.005-.02.01-.015.013.018.006-.02-.01-.047-.013-.022-.013-.025-.001-.024.01.001.016.01.022.03.012.039.027.039.02 0-.004-.025 0-.033.016-.031.012.002.021-.007.021-.017 0-.016.003-.018.01-.002.013.025.01-.004-.005-.054a.887.887 0 0 1-.036-.142m.033 1.395c-.027-.01-.054-.072-.05-.116a.302.302 0 0 0-.011-.077c-.012-.04-.017-.049-.032-.052-.012-.001-.018.007-.015.023a.797.797 0 0 0 .012.064c.006.022.008.042.006.045-.005.004 0 .02.012.05.011.026.021.042.023.037.002-.005.006.004.01.02.003.017.01.026.019.026.006 0 .017.005.023.011.006.008.009.005.006-.007-.003-.011.006-.004.019.015.023.035.023.035.011.002-.007-.022-.018-.036-.034-.041m.033.094c.001.004.007.011.014.015.005.005.008.003.004-.006-.008-.016-.021-.021-.018-.009m.036.016c.009.017.011.028.009.035-.002.008 0 .019.01.039.014.024.014.023.01-.01-.01-.066-.017-.09-.03-.09-.01.002-.012.005 0 .026m-.135 1.109c-.002.008.007.011.02.01.028-.009.033-.03.005-.027-.01 0-.023.01-.025.017m.137-1.013c.001.013.004.02.006.014.001-.005.006 0 .01.01s.009.015.01.008c0-.006-.005-.021-.013-.033-.013-.021-.015-.02-.012.001m-.003.023c-.01-.06-.02-.09-.039-.098-.01-.005-.01.002-.004.031.009.035.01.039.019.02.01-.02.01-.02.008.02 0 .034.001.044.011.057.01.014.011.007.005-.03m-.084-.145c.017.03.017.03.01-.003a.11.11 0 0 0-.021-.044c-.006-.005-.01-.002-.009.004.002.008.01.026.02.043m-.01.17a.199.199 0 0 0 .004-.065c-.004 0-.01.027-.014.06-.012.081-.002.086.01.006m-.174-.902c-.001 0-.006.005-.008.01a.18.18 0 0 0-.002.057c.004.038.01.056.023.083l.017.036v-.036a.693.693 0 0 0-.03-.15m-.144-1.586a.298.298 0 0 0 .035.098c.008.013.04.09.073.173.05.126.058.147.058.134 0-.009.007-.01.014-.002.012.011.01.006-.013-.028a.575.575 0 0 1-.032-.057c-.014-.034-.02-.073-.01-.07.01.002.007-.013-.01-.041a1.278 1.278 0 0 1-.077-.155.369.369 0 0 0-.03-.06c-.019-.033-.023-.04-.015-.02.006.016.01.028.007.028m.135 3.41c.004.003.01 0 .014-.005s0-.009-.008-.005c-.008.002-.01.006-.006.01m-.077-.193c.013-.016.012-.025-.001-.023-.006.001-.01.01-.01.017.002.009.006.011.01.006m-.042 0c.003 0 .005-.018.005-.039 0-.037-.005-.044-.017-.025-.007.01.002.066.012.064m-.013.25c.015 0 .04.003.055.008.036.01.116.002.119-.013.002-.008-.01-.015-.024-.017-.017 0-.03-.012-.03-.027-.002-.017-.01-.02-.046-.01-.03.01-.05.008-.056-.006-.013-.023-.057-.018-.067.01-.01.027.013.052.05.055m-.183-.433c.002-.01 0-.016-.006-.015-.004 0-.007.008-.007.017.001.007.005.015.007.015s.004-.009.006-.017m.002.148c.005.004.008.002.01-.008.002-.008.001-.02-.003-.024-.002-.004-.008-.002-.01.007-.001.009 0 .02.003.025m.032-.155a.188.188 0 0 0 .008.06c.006.026.01.07.011.099 0 .07.05.201.072.192.013-.005.021-.023.037-.079.02-.068.02-.073 0-.132a.185.185 0 0 1-.012-.084.07.07 0 0 0-.004-.05.63.63 0 0 1-.026-.051c-.007-.014-.016-.025-.02-.024-.005 0-.023-.036-.04-.081-.018-.046-.07-.085-.08-.084a.069.069 0 0 1-.031-.007c-.01-.004-.014 0-.013.01.002.01.046.063.066.116a.45.45 0 0 1 .032.114m.343.432c-.003 0-.008.007-.01.017-.002.007 0 .014.002.013.004 0 .01-.01.011-.017.002-.01.001-.014-.003-.013m.08-.335c-.002-.006.006-.026.016-.043a.275.275 0 0 0 .028-.067c.007-.026.014-.04.025-.046.014-.006.026-.036.014-.034-.003 0-.006-.025-.008-.056-.002-.032 0-.058.004-.06.002 0 .005-.008.005-.014 0-.01 0-.016.004-.016.006-.002.008-.013.005-.026-.002-.011 0-.023.006-.026.01 0 .01-.002-.005-.018a.501.501 0 0 1-.032-.043c-.023-.037-.03-.03-.036.034-.004.03-.01.057-.015.058-.005 0-.011.02-.016.044a.3.3 0 0 1-.048.065.12.12 0 0 0-.032.052c-.003.02-.01.025-.027.02-.018-.003-.025.003-.032.021-.013.036-.022.125-.013.13.004.004.005.028.002.054-.004.038-.002.046.013.043.01-.002.017.002.015.01-.002.007.012.009.029.005.02-.006.033 0 .033.012.001.014.005.015.019 0a.211.211 0 0 0 .044-.099m-.03.319c-.007-.003-.012.001-.012.01 0 .006-.004.012-.009.01-.006-.001-.015.008-.02.02-.006.018-.004.02.008.007a.083.083 0 0 1 .027-.016c.015-.003.019-.025.005-.032m.001.061.009.02c.01.022.02.015.019-.011 0-.009-.006-.015-.014-.012-.006 0-.008.002-.014.003m.165-.09a.24.24 0 0 0-.066.085c-.008.03-.005.027.031-.022a.21.21 0 0 1 .04-.046.04.04 0 0 0 .014-.019c.007-.015-.002-.016-.019.002m.073-.495c-.014.021-.053.028-.064.01-.006-.013-.043.05-.05.085a.152.152 0 0 1-.014.043.385.385 0 0 0-.033.14c.004.012 0 .035-.009.067-.012.036-.013.045-.004.038a.265.265 0 0 0 .03-.081.24.24 0 0 1 .023-.069c.002.003.004.01.002.019a.306.306 0 0 0-.003.049c.001.023.004.027.012.013.015-.026.024-.025.01.001-.01.02-.012.04-.003.039.006-.002.016-.052.014-.071a.967.967 0 0 1-.002-.063v-.046l.027-.037c.022-.03.025-.037.016-.036a.094.094 0 0 0-.032.027c-.019.022-.021.022-.026-.002a.11.11 0 0 1 .004-.05c.007-.023.015-.027.046-.026.031 0 .042-.008.056-.03.02-.036.02-.052 0-.02m0 .601-.016.017c-.013.015-.013.017-.002.013.007 0 .014-.01.016-.017.003-.008.004-.014.003-.013m.006-.373c.002-.01-.002-.013-.009-.011-.006.001-.01.008-.01.016 0 .007.003.013.008.011.005 0 .01-.01.011-.016m-.05-.605c-.001-.008-.008-.004-.015.01-.007.014-.01.037-.007.052.003.017.006.019.007.008 0-.01.006-.022.014-.026.01-.006.015 0 .023.03.011.043.024.06.04.057.007-.002.008-.01 0-.035-.01-.023-.01-.03 0-.022.005.003.01 0 .01-.007a.538.538 0 0 0-.044-.133.146.146 0 0 0-.01.04c-.006.04-.013.049-.018.026m.089.783a.086.086 0 0 0-.01.026c-.001.009.001.006.008-.005a.088.088 0 0 0 .01-.026c-.001-.004-.005-.002-.008.005m-.016-.199c0 .009.005.011.01.01a.035.035 0 0 1 .024 0c.01.006.012.003.013-.014.001-.014-.006-.018-.023-.014-.014.004-.025.012-.024.019m.015-.128a.77.77 0 0 0 .03-.102c-.002.011-.004.009-.003-.007 0-.023 0-.024-.006-.006a.81.81 0 0 0-.02.115m.058-.032c.003.004.008.001.01-.003.003-.005 0-.009-.005-.006-.006.002-.009.007-.004.01m.369.234c0 .008.002.011.004.006.002-.004.001-.012-.001-.013-.003-.006-.004-.006-.003.007m.53-.491a5.754 5.754 0 1 1-11.51 0 5.754 5.754 0 0 1 11.51 0m-2.098-1.884c-.004 0-.005.006-.002.017.003.01.012.018.019.02.006 0 .006-.01.001-.019-.006-.01-.013-.018-.018-.018m-.156-1.112.001.055c.004.064-.015.148-.036.165-.014.01-.014.01.002.015.01.004.025-.01.032-.026.008-.017.018-.03.022-.03.015.003.015-.076-.001-.127a.352.352 0 0 0-.02-.052m-.714.467c.01.005.023.006.029.003.003-.005-.004-.01-.02-.011-.016-.001-.02.002-.009.008m.036-1.58c.02.02.02.02.01.002-.015-.026-.046-.055-.037-.035a.178.178 0 0 0 .027.034m-.107 1.545c0 .002-.013.007-.028.012-.033.016-.042.032-.032.065.011.037.022.032.024-.009 0-.02.012-.035.025-.035.014.001.021-.007.019-.016-.004-.011-.007-.019-.008-.017m.13.28c-.014 0-.026.005-.025.016 0 .01.01.02.024.02.013.001.024-.007.024-.017 0-.01-.01-.018-.024-.019m-.443-1.772c0 .019.002.024.01.025.006.001.012.013.015.024.003.017.008.022.012.019.005-.005 0-.026-.01-.05-.019-.047-.026-.05-.027-.018m.48-.09c-.003-.001-.003.004 0 .013.004.009.012.017.015.018.004.002.003-.006 0-.014-.004-.009-.01-.016-.014-.017m.043 1.508c-.004 0 0 .01.01.019.01.01.024.02.029.02.005 0 0-.009-.01-.018a.102.102 0 0 0-.03-.02M5.097 7.333c.015-.018.01-.016-.026.006l-.026.016.02-.002c.01-.001.025-.011.032-.02m-1.035 2.32c.034 0 .06-.01.074-.027.021-.023.027-.058.005-.036-.005.006-.03.015-.054.019-.068.015-.086.044-.025.044m-.413-1.235c-.017.017-.025.026-.043.042l-.043.043.016-.004a.068.068 0 0 0 .03-.02.075.075 0 0 1 .024-.019c.007 0 .002.006-.008.018-.01.013-.003.009.015-.01a.344.344 0 0 1 .056-.038c.04-.017.052-.046.014-.031-.026.01-.03.01-.013-.003.033-.026-.01-.012-.081.027l-.057.032.045-.019.045-.018m.095.868c-.018.021-.022.027-.01.026.007 0 .02-.013.026-.027a.091.091 0 0 0 .011-.026.18.18 0 0 0-.027.027m-.046-.126c-.013.023-.025.083-.014.072a.123.123 0 0 0 .016-.049c.004-.02.002-.031-.002-.022m.109-.15-.02.012a.06.06 0 0 0-.026.022.136.136 0 0 0-.012.088c.004.011 0 .038-.009.062-.015.034-.014.037.002.014a.402.402 0 0 0 .044-.115c.011-.047.022-.083.02-.083m-.08.034c-.022.03-.028.038-.022.045.003.005 0 .016-.007.026-.008.008-.013.02-.011.027.002.004.01-.008.023-.03a.912.912 0 0 0 .033-.073c.012-.032.012-.032-.016.005m.063-.206c.002-.001-.005.01-.019.025-.014.016-.02.026-.015.025a.472.472 0 0 0 .081-.09c.012-.022-.004-.013-.03.014-.012.014-.02.026-.017.026m-.122-.25c-.006-.007-.008-.005-.012.01-.004.017-.013.027-.048.054l-.042.032.034-.006a.168.168 0 0 0 .056-.02c.01-.01.037-.03.058-.047a.27.27 0 0 1 .05-.033c.005 0 .017-.01.024-.019.02-.024-.008-.013-.047.018-.035.029-.06.032-.073.012m.042.142a.112.112 0 0 0-.052.03c-.034.031-.034.031.028-.005.047-.027.048-.029.024-.024m.333-.248c.01-.018-.011-.013-.027.005-.007.009-.01.018-.007.022.005.008.02-.005.034-.027m-.198 1.031c-.03.03-.12.21-.12.237 0 .034.046-.022.082-.1a.284.284 0 0 1 .08-.113c.056-.055.057-.056.062-.013.003.029 0 .04-.017.058a.18.18 0 0 0-.031.042c-.004.008.001.007.012-.004.017-.018.021-.015.019.017l-.004.042.041-.063a.765.765 0 0 0 .046-.079c.002-.008.008 0 .012.014.012.042.038.003.03-.044-.005-.04-.029-.051-.035-.018-.001.008-.007.017-.011.017-.006 0-.007-.006-.003-.016.02-.04-.122-.019-.163.023m.002-.1c.021-.013.034-.017.026-.008-.016.022.006.04.053.04h.04l.015-.05c.01-.026.011-.046.004-.041-.009.005-.015-.002-.016-.014-.004-.045-.034-.04-.123.023-.047.034-.09.065-.094.07-.02.02.057.004.095-.02m.11-.166c.012-.022.006-.038-.008-.023-.019.019-.026.04-.013.04.007 0 .017-.008.02-.017m-.056.47c-.038.016-.054.044-.024.044a.4.4 0 0 0 .147-.076c.018-.023.003-.02-.123.033m1.087-.738c.008.002.023-.007.03-.016.015-.02.015-.02-.02 0-.021.013-.024.016-.01.016m-.378.172c.005-.001.014-.014.02-.028.013-.027.006-.036-.014-.016-.014.014-.018.044-.006.044m.246-.186c.005 0 .01-.01.012-.018.002-.011-.004-.018-.008-.018-.006 0-.01.008-.012.018-.001.009.003.018.008.018m.139-1.564c.005-.005.003-.009-.006-.005-.009.001-.013.006-.01.009.003.004.01 0 .016-.004m-.71.813c.005-.01.005-.015 0-.014-.003 0-.009.007-.012.016-.002.007-.003.015-.002.015a.054.054 0 0 0 .013-.017m.227 6.466c.008-.012.011-.025.008-.03-.01-.01-.029.021-.025.04.002.008.01.003.017-.01m.35-7.206c.03-.005.051-.026.04-.038-.01-.009-.013-.008-.017.007-.003.007-.016.02-.03.025-.017.008-.015.009.007.006M4.46 9.14c-.009.001-.023.01-.03.021-.025.03-.017.032.015.004.026-.022.027-.025.015-.025m-.026-.817c.005.005.01.003.012-.008.006-.022-.015-.034-.026-.015-.004.008-.005.014 0 .014.003 0 .01.003.014.009m.21-.334c-.011.002-.017.006-.014.01.002.002.011.001.019-.003.007-.006.005-.009-.005-.007m.261-.093c.018-.002.035-.01.04-.016a.069.069 0 0 1 .023-.019c.01-.006.005-.008-.01-.008-.016.003-.033 0-.037-.005-.006-.004-.01-.004-.01.004-.001.005-.009.02-.02.032-.012.013-.008.018.015.012m.187.05a.073.073 0 0 0 .024-.017c.007-.012-.02-.004-.032.011-.007.01-.004.012.008.006m-.108.27a.188.188 0 0 1 .034-.015c.011 0 .012-.004.005-.015-.016-.019-.03-.015-.044.014-.01.018-.009.023.005.016m2.89.069c-.005 0-.01.01-.01.02.002.01.007.013.012.008.007-.005.01-.014.01-.02 0-.004-.005-.007-.012-.008m.005-.394c-.01 0-.016.007-.015.017 0 .009.006.018.011.018.006 0 .013-.008.015-.017.002-.01-.003-.018-.01-.018m.594 4.873a.312.312 0 0 1 .063-.01c.013-.003.02-.01.013-.015-.004-.005.008-.039.028-.074.03-.055.032-.065.011-.074-.041-.016-.104-.01-.117.014a.32.32 0 0 0-.025.095c-.011.068-.009.073.027.064m-.492-4.456c-.003 0-.004.008-.003.02 0 .01-.005.015-.014.01-.01-.006-.02 0-.021.015-.002.016-.01.024-.015.016-.007-.006-.015-.002-.018.009-.002.01.002.018.012.018.028.001.07-.037.068-.065-.002-.012-.005-.024-.009-.024m-5.123.616c-.005 0-.015.009-.022.018-.016.018-.011.017.015-.005.017-.016.018-.016.007-.013m4.452-.403a.13.13 0 0 0-.022.035c0 .015.048-.007.056-.026.01-.026-.01-.033-.034-.009m4.18 1.238c.004 0 .004-.008.003-.015-.002-.01-.007-.017-.011-.018-.006 0-.007.005-.004.015.004.009.009.017.012.018M7.818 8.354a.03.03 0 0 0 .008.03c.006.005.01-.002.01-.017-.002-.033-.01-.039-.018-.013m.748 4.906c.001-.023-.004-.043-.01-.048-.006-.005-.015.032-.016.082 0 .049-.004.102-.003.118a.119.119 0 0 0 .014.055c.015.022.018.014.023-.06a.357.357 0 0 0-.003-.097.101.101 0 0 1-.006-.05m.154-.934c-.002.03.008.064.023.077.023.023.024.023.008-.002a.255.255 0 0 1-.02-.078c-.002-.019-.006-.03-.011-.049 0 .02.003.032 0 .052m.024-.549c.009-.005.014-.016.014-.022-.001-.004-.008-.007-.017-.007-.008 0-.014.01-.014.022.001.01.01.013.017.007m-2.346.274c-.013-.006-.025-.009-.026-.004 0 .004.011.018.024.032.014.014.025.017.026.004 0-.01-.01-.024-.024-.032m-.007.088c-.006.01-.003.02.005.02.011 0 .02-.01.021-.02.001-.011-.002-.02-.006-.02-.005 0-.014.009-.02.02m.915-.482c-.051-.024-.055-.02-.029.034.016.035.075.036.075.002 0-.006-.02-.022-.046-.037M9.48 7.914c-.002 0 0 .007.002.017.004.008.01.017.016.018.004 0 .002-.007-.003-.017a.058.058 0 0 0-.015-.018M3.992 15.54c0 .006.004.014.01.015.006.001.009-.005.006-.011-.002-.01-.007-.016-.01-.016-.002 0-.005.004-.006.012m-.099-.223c-.006-.001-.006.004 0 .013s.014.017.017.018c.002 0 .002-.007 0-.014a.026.026 0 0 0-.017-.017m-.277-1.744a.08.08 0 0 0 .032.035c.02.008.02.005.002-.022-.023-.037-.045-.044-.034-.013m-.158-1.747c-.014.019-.02.076-.008.077.004.001.014-.009.022-.023.017-.03.004-.08-.014-.054m-.444-1.998c.004-.008.009-.022.007-.027 0-.004-.005-.002-.01.008a.054.054 0 0 0-.008.027c.002.004.006.002.011-.008m-.006 1.83c-.013-.002-.014 0-.008.03.005.033.023.028.023-.008.001-.01-.006-.02-.015-.022m1.038 3.953c-.013.015-.012.016.008.013.011-.002.022-.008.023-.013.002-.019-.016-.019-.031 0m1.517-7.648c.006-.006.002-.01-.008-.009-.01.001-.016.007-.01.011.005.006.013.003.018-.002m.24 9.194c-.009-.002-.01 0-.002.006.006.006.013.006.015.003.001-.004-.004-.009-.013-.01m-.48-9.703c-.002.004 0 .009.004.015.004.003.01 0 .015-.009.004-.01.001-.015-.004-.014-.007 0-.015.005-.016.008m1.479-.235c.01-.005.02-.012.02-.015.003-.014-.024-.007-.032.008-.005.009 0 .012.012.007m4.625 4.42c.006.003.005-.003-.001-.016-.013-.03-.02-.036-.013-.012a.06.06 0 0 0 .014.027M6.409 7.791c.01-.005.015-.016.014-.024-.002-.021-.006-.02-.019.008-.008.018-.006.024.005.016M22.539 12c0 6.915-5.486 12-12.444 12h-7.2v-4.8h7.2c3.976 0 7.175-3.223 7.175-7.2 0-3.976-3.199-7.2-7.175-7.2h-7.2V0h7.2c6.958 0 12.443 5.085 12.443 12" vectornator:layerName="Untitled"/></svg>