<svg viewBox="0 0 24 24" xmlns="http://www.w3.org/2000/svg"><path d="M20.33 1.507A20.003 20.003 0 0 0 15.38 0c-.234.414-.446.84-.634 1.276a18.631 18.631 0 0 0-5.495 0A13.46 13.46 0 0 0 8.615 0 20.143 20.143 0 0 0 3.66 1.511C.527 6.1-.323 10.573.102 14.983A20.04 20.04 0 0 0 6.175 18a14.49 14.49 0 0 0 1.3-2.075 12.976 12.976 0 0 1-2.048-.968c.172-.123.34-.25.502-.374a14.401 14.401 0 0 0 12.142 0c.164.133.332.26.502.374-.654.382-1.34.706-2.052.97.373.726.808 1.42 1.3 2.073a19.95 19.95 0 0 0 6.077-3.015c.498-5.115-.851-9.547-3.568-13.478ZM8.013 12.271c-1.183 0-2.161-1.063-2.161-2.37 0-1.308.944-2.38 2.157-2.38 1.214 0 2.184 1.072 2.164 2.38-.021 1.307-.954 2.37-2.16 2.37Zm7.974 0c-1.186 0-2.16-1.063-2.16-2.37 0-1.308.944-2.38 2.16-2.38 1.215 0 2.178 1.072 2.157 2.38-.02 1.307-.951 2.37-2.157 2.37Z" fill="#5865F2"/></svg>