<svg viewBox="0 0 8 8" xmlns="http://www.w3.org/2000/svg"><defs><radialGradient cx="98.23%" cy="99.794%" fx="98.23%" fy="99.794%" r="263.192%" gradientTransform="matrix(.36247 -.0001 .00003 1 .626 0)" id="a"><stop stop-color="#01147B" offset="0%"/><stop stop-color="#011098" offset="2.549%"/><stop stop-color="#010ABD" offset="6.431%"/><stop stop-color="#0006DA" offset="10.32%"/><stop stop-color="#0003EE" offset="14.16%"/><stop stop-color="#0001FB" offset="17.94%"/><stop stop-color="#00F" offset="21.59%"/><stop stop-color="#0FF" stop-opacity="0" offset="100%"/></radialGradient></defs><g fill-rule="nonzero" fill="none"><path d="M3.634 3.432a.694.694 0 0 1 .206.049c.051.021.081.05.108.1a.304.304 0 0 1 .006.262.317.317 0 0 1-.143.137.524.524 0 0 1-.178.049.635.635 0 0 1-.338-.06.42.42 0 0 1-.171-.145.147.147 0 0 1 .006-.156c.054-.073.167-.088.252-.085.065.003.183.022.244.044a.49.49 0 0 1 .092.042c.008.008.012.02.01.03-.015.043-.12.067-.15.071-.082.013-.123-.019-.216-.055a.28.28 0 0 0-.078-.02c-.042-.005-.092.007-.1.053-.005.024.023.046.044.055.049.022.09.029.138.03.144.002.306-.022.424-.105.016-.011.032-.029.032-.05 0-.042-.074-.068-.074-.068a1.227 1.227 0 0 0-.301-.056 6.088 6.088 0 0 1-.235-.022.408.408 0 0 1-.091-.022.116.116 0 0 1-.062-.069.215.215 0 0 1 .033-.164c.079-.113.263-.156.402-.173.134-.018.35-.016.48.053.021.011.03.02.027.043-.008.04-.04.066-.075.079a.778.778 0 0 1-.155.019c-.157.01-.348.004-.5.045a.147.147 0 0 0-.039.016c-.023.025.045.033.059.036a.02.02 0 0 0 .01.002l.333.035m-.94-.705s.025-.038.047-.068c.04-.053.11-.127.164-.173l.036-.03s-.03.003-.047.007a.36.36 0 0 0-.13.072c-.048.043-.102.11-.078.17a.214.214 0 0 0 .008.022m.272.073a.528.528 0 0 0 .218-.065c.066-.036.163-.109.152-.194a.071.071 0 0 0-.044-.058c-.03-.013-.044-.011-.082 0a.24.24 0 0 0-.066.028 1.002 1.002 0 0 0-.242.215c-.015.017-.027.037-.038.052-.006.008-.013.015-.011.019a.408.408 0 0 0 .113.003m-.197.145c-.008.008-.015.028-.025.044a.087.087 0 0 1-.019.022c-.02.014-.038.016-.057-.002a.141.141 0 0 1-.044-.097c0-.016.002-.034-.001-.048-.005-.022-.027-.045-.04-.067a.266.266 0 0 1-.026-.098c-.005-.09.042-.172.102-.236a.68.68 0 0 1 .23-.158.45.45 0 0 1 .295-.027c.03.01.07.035.091.062l.013.014c.004.003.014.003.023.005a.24.24 0 0 1 .088.04c.035.03.054.059.062.1.017.082-.03.173-.084.228a.854.854 0 0 1-.302.208.49.49 0 0 1-.192.035l-.055-.008a.494.494 0 0 1-.046-.011c-.006-.005-.011-.006-.013-.006m.106.182a.03.03 0 0 1 .014.005c.041.016.058.054.07.096.023.098.032.315.037.4l.008.19c.002.053.006.124-.005.173-.004.017-.015.04-.033.049-.02.012-.064.014-.09.008-.061-.013-.08-.052-.09-.112a2.973 2.973 0 0 1 .002-.544c.005-.04.02-.165.04-.217.006-.016.022-.052.047-.048m-1.848.24s-.09.006-.153.013a1.682 1.682 0 0 0-.314.064c-.025.01-.078.032-.082.058-.004.027.013.05.032.071.011.013.072.073.09.087.072.061.22.154.33.2.037.016.098.038.098.038s-.004-.177-.003-.35c0-.091.002-.181.002-.181m1.657.07a.7.7 0 0 1-.01.147.501.501 0 0 1-.028.098 1.51 1.51 0 0 1-.05.1.87.87 0 0 1-.142.176c-.156.134-.397.21-.603.236-.14.017-.301.014-.45-.013-.051-.009-.128-.026-.128-.026s0 .03-.002.052a.204.204 0 0 1-.013.044c-.01.022-.028.033-.053.04a.155.155 0 0 1-.093-.006c-.047-.02-.065-.064-.073-.115l-.014-.111-.064-.032a1.738 1.738 0 0 1-.383-.263.75.75 0 0 1-.144-.172C.404 3.54.397 3.493.42 3.438c.031-.077.141-.136.217-.169a1.68 1.68 0 0 1 .39-.107l.004-.003a.94.94 0 0 0 .003-.107c0-.029.02-.208.027-.248a.44.44 0 0 1 .034-.12c.012-.015.029-.013.045-.004.082.052.107.23.113.32l.006.138s.095-.003.153-.001c.057.001.12.01.178.019.076.012.222.044.306.086.07.035.134.095.156.158a.162.162 0 0 1-.013.15.206.206 0 0 1-.16.105.256.256 0 0 1-.114-.025c-.008-.006-.008-.019-.001-.027.001-.003.036-.02.055-.031a.076.076 0 0 0 .025-.02c.016-.013.031-.03.03-.048-.002-.024-.029-.04-.052-.049a1.909 1.909 0 0 0-.456-.09c-.044-.003-.105-.004-.105-.004l.013.612s.05.01.09.016c.025.003.122.013.147.013.199.005.42-.013.6-.098a.603.603 0 0 0 .209-.148.427.427 0 0 0 .1-.318c-.01-.13-.102-.285-.176-.38-.194-.249-.526-.455-.82-.575a2.592 2.592 0 0 0-.91-.205 1.486 1.486 0 0 0-.35.027l-.037.011a.068.068 0 0 0-.029.013l-.005.004.011.005c.01.005.05.006.071.011.02.003.038.013.046.027.008.013.008.024 0 .035-.02.025-.098.02-.13.015C.054 2.42.01 2.411.002 2.38c-.01-.036.008-.07.026-.104.038-.066.09-.1.169-.121.11-.03.25-.052.355-.055.236-.01.46.033.69.102.13.04.302.106.428.167.09.044.233.123.312.176.025.018.173.125.195.144.048.04.11.094.156.14.089.087.197.22.25.326.012.025.021.05.039.079.006.01.03.07.033.087.005.017.01.042.01.044.009.001.02.052.018.072ZM5.66 3.3c-.11.025-.401.04-.401.04l-.037.114s.145-.012.252-.001c0 0 .035-.005.038.039.002.04-.003.083-.003.083s-.001.027-.04.034c-.039.006-.313.017-.313.017l-.044.15s-.016.034.02.025c.035-.01.322-.063.36-.055.04.01.085.063.07.111-.015.06-.302.243-.475.23 0 0-.091.007-.169-.118-.072-.118.027-.342.027-.342s-.046-.104-.013-.14c0 0 .02-.017.078-.022l.07-.145s-.08.005-.127-.053c-.044-.055-.047-.082-.014-.096.036-.018.37-.08.598-.071 0 0 .08-.008.149.13-.002 0 .031.057-.026.07Zm-.861.56c-.03.068-.108.142-.204.097-.094-.046-.247-.356-.247-.356s-.058-.115-.07-.114c0 0-.012-.022-.02.104s.002.372-.049.41c-.047.04-.105.023-.135-.022-.027-.044-.038-.151-.024-.337.018-.186.062-.385.117-.446.055-.062.099-.018.116 0 0 0 .074.067.196.263l.022.036s.11.186.123.186c0 0 .01.008.017.002.011-.004.006-.063.006-.063s-.023-.204-.124-.546c0 0-.016-.042-.005-.083s.05-.022.05-.022.157.079.234.334a.93.93 0 0 1-.003.556Zm1.684-.154c-.071.125-.273.385-.54.323a2.8 2.8 0 0 0-.205.755s-.01.063-.062.04c-.052-.018-.137-.103-.154-.223-.02-.157.052-.422.193-.726a.424.424 0 0 1-.045-.303s.036-.255.293-.485c0 0 .031-.027.049-.019.019.008.01.092-.005.132-.016.041-.13.238-.13.238s-.072.134-.053.24c.134-.207.441-.624.63-.493.063.045.093.145.093.252a.567.567 0 0 1-.064.27Zm-.055-.327s-.011-.082-.092.007c-.07.078-.194.221-.294.415a.507.507 0 0 0 .238-.098c.05-.044.167-.165.148-.324Zm1.53-.02h-.49a3.81 3.81 0 0 0-.062-.496.037.037 0 0 0-.036-.03h-.114a.033.033 0 0 0-.025.013.03.03 0 0 0-.006.028c.031.163.052.322.063.487h-.471a.039.039 0 0 0-.04.04v.102c0 .022.018.04.04.04h.479v.069c0 .146-.007.268-.02.405a.032.032 0 0 0 .009.028.036.036 0 0 0 .026.013h.106a.04.04 0 0 0 .04-.037c.014-.137.02-.26.02-.41v-.069h.484c.022 0 .039-.017.039-.039v-.102c-.003-.024-.02-.041-.043-.041Z" fill="#01147B"/><path d="M7.338 2.103A3.362 3.362 0 0 0 6.118.59 3.352 3.352 0 0 0 4.21 0 3.366 3.366 0 0 0 1.4 1.505a.044.044 0 0 0-.004.034.04.04 0 0 0 .025.026l.088.03a.056.056 0 0 0 .016.003.05.05 0 0 0 .041-.022A3.206 3.206 0 0 1 4.212.174a3.194 3.194 0 0 1 2.945 1.954.046.046 0 0 0 .043.027h.105a.036.036 0 0 0 .03-.015.038.038 0 0 0 .003-.037Z" fill="url(#a)" transform="translate(0 .492)"/></g></svg>