<svg viewBox="0 0 560 400" xmlns="http://www.w3.org/2000/svg" fill-rule="evenodd" clip-rule="evenodd"><path fill="#231f20" d="M281.404 125.643c3.129.146 6.119 1.341 8.485 3.392 3.226 3.054 4.072 8.146 2.545 12.22-5.935 12.217-20.05 20.377-29.696 23.077-5.77 1.357-13.065 1.357-18.326-.679-2.547 1.527-4.696 6.461-7.806 4.411-4.502-3.516-.605-9.018-3.204-12.923-.536-.804-1.886-.863-2.564-2.178-3.565-7.806.848-15.273 5.768-21.211 8.202-9.151 31.733-19.347 44.798-6.109zm-27.32 6.107c-4.583.848-9.758 2.842-12.556 6.109-2.801 3.266-4.581 6.449-2.884 9.842 5.94-4.41 8.824-10.52 15.443-14.252-.003-.681 1.015-1.19-.003-1.699zm27.662 1.699c-11.71-1.021-20.534 7.806-28.849 16.288-.509 1.357-3.563 2.884-1.188 4.411 11.202 1.018 21.892-2.203 30.037-9.672 2.378-2.206 4.069-5.09 2.887-8.146-.509-1.185-1.707-2.372-2.887-2.881zm101.47 50.566c5.432 13.238 10.012 34.107 0 46.835-2.714 3.053-7.464 5.869-10.518 3.562-11.201-8.991-15.949-21.889-22.907-33.43-1.018-.509-1.018.851-1.527 1.36-2.544 11.708 2.206 26.981-5.767 36.142-3.054.509-5.911-1.062-6.958-4.072-3.905-12.047.164-24.606 1.182-36.653 2.378-6.11 3.396-13.235 8.657-17.818 8.485 3.393 12.556 12.898 17.474 19.856 3.567 5.259 6.449 11.199 10.52 15.949 3.563-1.526 1.81-6.183 1.699-8.993-1.362-11.03-4.416-21.211-7.302-31.731-.165-2.715-1.692-7.298 1.187-8.994 7.647 3.395 10.865 11.369 14.26 17.987zm-51.245-4.074c0 2.548-2.036 5.729-3.737 6.11-16.288 2.545-34.445 1.018-49.716 6.107-.509 1.866 1.696 2.206 2.884 2.715 13.063 2.035 26.811 2.544 39.54 5.77 6.729 1.709 9.165 9.675 9.674 16.291.313 5.217-1.694 11.538-6.788 15.103-12.554 7.976-31.729 7.634-44.459.342-4.866-2.729-9.503-7.125-9.842-12.556.029-4.313 1.868-7.708 4.922-9.333 12.219-4.922 27.32-2.203 37.843 4.071.674 3.396-2.999 3.211-4.757 4.414-11.711 6.788-20.532-7.632-31.392-2.378-1.527 1.018-2.631 3.858-.848 4.753 13.404 5.94 28.338 1.696 41.573-2.036 1.527-.509 3.395-2.036 3.562-3.563-.509-5.431-6.616-6.616-10.52-8.143-11.539-2.884-24.264-2.884-36.653-4.071-2.376-.509-5.402-2.164-6.108-4.072-1.357-4.071-1.357-9.672 1.697-13.065 15.779-13.916 39.704-12.726 59.727-8.993 1.36.499 2.887 1.008 3.398 2.534zm-74.152 6.449c1.527 16.289 2.375 31.395 2.035 48.531-.339 2.203-2.883 2.715-4.58 3.563-2.714.509-6.223-.069-7.297-1.527-3.902-6.282-2.545-14.762-2.884-22.398.509-12.045.339-25.112 3.735-36.314.649-1.628 2.544-3.054 4.071-2.038 4.072 2.038 4.75 6.112 4.92 10.183zm188.528-2.375c.816 1.372 1.669 3.492 0 4.411-7.637 3.393-17.985 1.866-26.812 2.884-2.375 2.036-4.243 5.429-3.398 8.485.854.509 1.613 1.283 2.55 1.185 5.426.342 13.574-2.545 17.142 2.545.87 1.514-.118 7.169-2.545 7.297-6.621.853-17.508-.831-20.707.853-4.071 2.714-3.734 7.973-5.261 12.219 2.886 1.867 5.908-.044 9.33-.511 6.285-1.018 13.243-2.884 19.517-1.527 1.188 2.206 2.886 4.583 1.697 7.297-10.698 8.485-24.496 17.181-39.196 11.03-5.517-2.474-7.976-10.86-6.107-17.983 1.185-5.091 6.444-10.011 3.223-15.442-.509-2.378.851-4.411 2.886-4.92 5.599 0 4.409-6.958 7.295-10.184-3.223-3.562-11.366-3.393-10.518-10.52 3.904-2.036 8.657-1.357 13.063-2.036 10.011-2.038 21.211-3.226 31.399-2.038 2.028.408 4.745 4.411 6.442 6.955zm-242.321-38.689c15.659 12.8 35.975 34.618 33.43 59.73-3.056 19.856-24.097 34.788-41.914 39.54-17.309 5.089-39.029 4.581-56.679.509-1.188 3.226-2.375 7.125-6.108 8.485-2.375.848-5.431.339-7.297-1.188-5.259-4.922-1.018-14.425-8.654-17.476-14.934-6.279-31.055-18.668-38.689-33.939-1.018-3.053.169-6.107 2.036-8.482 11.71-9.333 26.472-13.065 41.236-15.952.848.34.509-.848 1.187-1.187.849-10.181 1.188-20.535 4.411-29.698.735-1.286 2.545-1.696 3.735-.848 9.333 7.125 4.919 20.534 8.993 30.204 17.818.848 35.636 1.697 49.719 11.711 4.752 3.901 5.91 11.354 4.411 15.612-1.498 4.251-6.447 7.297-11.03 7.632-3.056 0-8.824.297-8.484-2.034.339-2.333 10.38-6.151 7.297-9.335-4.433-4.576-26.613-7.297-40.359-8.994-1.696-.339-3.253.17-3.253 2.036-.339 12.895-1.357 27.148.849 39.54.169.85 1.187 1.868 2.038 2.033 24.264 3.904 49.888 1.696 68.893-12.217 8.824-7.123 11.711-17.142 10.181-28.169-7.636-30.713-39.706-49.212-66.009-61.089-25.621-11.199-53.962-16.97-84.336-15.44-4.836.354-12.5 2.023-12.556 3.734-.057 1.711 8.681 1.173 7.634 4.411-1.045 3.236-9.926 1.315-12.556.509-2.631-.806-2.375-4.583-1.697-6.958 6.619-11.708 25.088-12.655 33.43-13.065 46.154-1.19 90.785 16.387 120.141 40.385zm-83.148 45.478c-11.711.169-24.097 1.357-34.957 5.428-2.205.849-4.922 3.224-3.226 6.11 4.411 5.938 10.72 10.813 16.63 14.253 5.911 3.434 13.747 7.806 20.874 8.826 1.697-11.032 1.697-21.891 1.527-33.26-.681-.339-.002-1.018-.848-1.357zm350.748-15.443c-.509 14.762-14.257 23.927-14.257 38.689.509.509.853 1.188 1.527.853 11.034-12.05 21.891-29.189 38.012-34.278 4.249-.339 8.087 3.351 9.675 6.11 5.601 11.199 4.249 26.981-3.56 37.162-8.057 9.994-22.064 20.023-38.008 18.324-6.616 16.291-11.206 33.43-13.751 51.248-1.357 3.562-4.578.339-6.614-.34-13.744-10.859-2.458-39.608-1.527-43.276.932-3.659 4.61-12.289 7.3-19.515-6.449-11.535-2.377-25.454 2.882-36.144 4.071-7.127 9.677-14.255 16.293-19.684.841.003 1.519.172 2.028.851zm27.326 18.327c-2.036-.34-2.887 2.377-4.581 2.886-7.804 8.824-15.612 17.648-19.516 28.169 5.263.678 9.672-2.715 14.257-4.581 7.804-4.922 12.726-13.063 12.217-22.398-.342-1.532-1.699-2.719-2.377-4.076z"/></svg>