<svg viewBox="0 0 8 8" version="1.1" xmlns="http://www.w3.org/2000/svg" xmlns:xlink="http://www.w3.org/1999/xlink">
    <defs>
        <radialGradient cx="98.2300287%" cy="99.7935514%" fx="98.2300287%" fy="99.7935514%" r="263.191782%" gradientTransform="translate(0.982300,0.997936),scale(0.362475,1.000000),rotate(-0.005199),translate(-0.982300,-0.997936)" id="radialGradient-1">
            <stop stop-color="#01147B" offset="0%"></stop>
            <stop stop-color="#011098" offset="2.54902%"></stop>
            <stop stop-color="#010ABD" offset="6.43085%"></stop>
            <stop stop-color="#0006DA" offset="10.32%"></stop>
            <stop stop-color="#0003EE" offset="14.16%"></stop>
            <stop stop-color="#0001FB" offset="17.94%"></stop>
            <stop stop-color="#0000FF" offset="21.59%"></stop>
            <stop stop-color="#00FFFF" stop-opacity="0" offset="100%"></stop>
        </radialGradient>
    </defs>
    <g id="Page-1" stroke="none" stroke-width="1" fill="none" fill-rule="evenodd">
        <g id="disneyplus" transform="translate(-0.000000, 0.491590)" fill-rule="nonzero">
            <path d="M3.63423334,2.93993666 C3.63896667,2.93993666 3.63896667,2.93993666 3.6437,2.94150333 C3.71616667,2.95093666 3.78706667,2.96357 3.84063334,2.98877 C3.89103334,3.01080333 3.92096667,3.03917 3.94776667,3.08960333 C3.98873334,3.16523666 3.99186667,3.27077 3.95406667,3.35113666 C3.9257,3.41100333 3.86583334,3.46140333 3.8107,3.48820333 C3.75396667,3.51657 3.69726667,3.52917 3.63266667,3.53703666 C3.51923334,3.54963666 3.39633334,3.52600333 3.29549667,3.47717 C3.23562667,3.44723666 3.16158,3.39683666 3.12376667,3.33223666 C3.09698334,3.28497 3.09698334,3.22193666 3.13007,3.17623666 C3.18363667,3.10377 3.29707334,3.08800333 3.38216667,3.09117 C3.44673334,3.09433666 3.5649,3.11323666 3.62636667,3.13527 C3.6437,3.14160333 3.7067,3.16680333 3.71773334,3.17783666 C3.7256,3.18570333 3.73033334,3.19673666 3.7272,3.20777 C3.713,3.25030333 3.60746667,3.27393666 3.5775,3.27867 C3.4956,3.29127 3.45463334,3.25973666 3.36166667,3.22350333 C3.33803334,3.21407 3.30810334,3.20460333 3.28447,3.20303666 C3.24193,3.19830333 3.19151334,3.21090333 3.18363667,3.25660333 C3.17891,3.28023666 3.20727,3.30230333 3.22775,3.31173666 C3.27659334,3.33380333 3.31755667,3.34010333 3.3664,3.34167 C3.50976667,3.34327 3.67203334,3.31963666 3.7902,3.23610333 C3.80596667,3.22510333 3.82173334,3.20777 3.82173334,3.18727 C3.82173334,3.14473666 3.74766667,3.11797 3.74766667,3.11797 C3.6689,3.08487 3.5208,3.06910333 3.44673334,3.06280333 C3.36796667,3.05650333 3.24193,3.04547 3.21199667,3.04077 C3.18048667,3.03603666 3.1474,3.02973666 3.12061667,3.01870333 C3.09383,3.00610333 3.06704667,2.97930333 3.05917,2.94937 C3.04499,2.89580333 3.06232,2.82963666 3.09225667,2.78550333 C3.17103334,2.67207 3.35536667,2.62953666 3.494,2.61220333 C3.62793334,2.59487 3.84376667,2.59647 3.97453334,2.66577 C3.99503334,2.67680333 4.00446667,2.68627 4.00133334,2.70830333 C3.99346667,2.74927 3.96193334,2.77450333 3.9257,2.78710333 C3.88633334,2.79970333 3.80596667,2.80443666 3.7713,2.80600333 C3.61376667,2.81547 3.4231,2.81073666 3.27186667,2.85170333 C3.26083667,2.85483666 3.24035334,2.86113666 3.23247667,2.86743666 C3.20884334,2.89267 3.27659334,2.90053666 3.29077,2.90367 C3.29549667,2.90527 3.29549667,2.90527 3.30022334,2.90527 L3.63423334,2.93993666 M2.69365,2.23567 C2.69365,2.23567 2.71885667,2.19783667 2.74091667,2.16790333 C2.78030334,2.11433667 2.8512,2.04030333 2.90477,1.99460333 C2.92052334,1.98043667 2.94100667,1.96467 2.94100667,1.96467 C2.94100667,1.96467 2.91107,1.96783667 2.89374,1.97097 C2.85277667,1.97887 2.79448334,2.01823667 2.76454667,2.04343667 C2.71570667,2.08600333 2.66214,2.15373667 2.68577334,2.21360333 C2.68892334,2.22463667 2.69365,2.23567 2.69365,2.23567 M2.96621334,2.30813667 C3.04341334,2.30340333 3.11589,2.27977 3.18363667,2.24353667 C3.24980667,2.20730333 3.3475,2.13483667 3.33646667,2.04973667 C3.33331,2.02297 3.31598,2.00090333 3.29234667,1.99147 C3.26241334,1.97887 3.24823334,1.98043667 3.21042,1.99147 C3.18363667,1.99933667 3.17103334,2.00407 3.14424667,2.01980333 C3.06862334,2.06393667 2.95991334,2.15847 2.90161667,2.23410333 C2.88744,2.25140333 2.87483334,2.27190333 2.86380667,2.28607 C2.85750334,2.29397 2.8512,2.30183667 2.85277667,2.30497 C2.85592667,2.31130333 2.93628,2.31130333 2.96621334,2.30813667 M2.76927334,2.45307 C2.76139667,2.46097 2.75352,2.48143667 2.74406667,2.49720333 C2.73934,2.50507 2.73146334,2.51453667 2.72516,2.51927 C2.70467667,2.53343667 2.68734667,2.53500333 2.66844,2.51767 C2.64165667,2.49403667 2.62590334,2.45623667 2.62432667,2.42000333 C2.62432667,2.40423667 2.62590334,2.38690333 2.62275,2.37273667 C2.61802334,2.35067 2.59596667,2.32703667 2.58336334,2.30497 C2.56918334,2.27977 2.55815334,2.23567 2.55658,2.20730333 C2.55185334,2.11750333 2.59912,2.03557 2.65898667,1.97097 C2.72043334,1.90480333 2.80078334,1.85123667 2.88901334,1.81343667 C2.97094,1.77877 3.09225667,1.75513667 3.18363667,1.78663667 C3.21357,1.79610333 3.25453334,1.82130333 3.27501667,1.84807 C3.27974334,1.85280333 3.28289334,1.85910333 3.28762,1.86227 C3.29234667,1.86540333 3.3018,1.86540333 3.31125334,1.86700333 C3.3396,1.87170333 3.38216667,1.89377 3.39946667,1.90797 C3.43413334,1.93790333 3.45306667,1.96623667 3.46093334,2.00720333 C3.47826667,2.08913667 3.431,2.18053667 3.37743334,2.23567 C3.28447,2.33020333 3.19309,2.39637 3.07492667,2.44363667 C3.02293334,2.46410333 2.94258334,2.48303667 2.88271334,2.47830333 C2.86380667,2.47670333 2.8449,2.47200333 2.82757,2.47040333 C2.81811667,2.46883667 2.78503,2.46097 2.78188,2.45940333 C2.77557667,2.45467 2.77085,2.45307 2.76927334,2.45307 M2.87483334,2.63583666 C2.87798667,2.63583666 2.88428667,2.63743666 2.88901334,2.64057 C2.92997667,2.65633666 2.94730667,2.69413666 2.95833667,2.73667 C2.98197,2.83437 2.99142334,3.05177 2.99615,3.13687 C2.9993,3.19987 3.00087667,3.26290333 3.00402667,3.32593666 C3.00560334,3.37950333 3.01033,3.45040333 2.9993,3.49923666 C2.99457334,3.51657 2.98354667,3.53860333 2.96621334,3.54807 C2.94573334,3.56067 2.90161667,3.56223666 2.87641,3.55593666 C2.81496334,3.54333666 2.79605667,3.50397 2.78660667,3.44410333 C2.76612334,3.30070333 2.77557667,3.01870333 2.78818,2.90053666 C2.79290667,2.86113666 2.80708667,2.73510333 2.82757,2.68310333 C2.83387,2.66737 2.84962667,2.63110333 2.87483334,2.63583666 M1.02675,2.87533666 C1.02675,2.87533666 0.936943338,2.88163666 0.873923338,2.88793666 C0.795146671,2.89580333 0.645473338,2.92260333 0.560396671,2.95253666 C0.535186671,2.96197 0.481620005,2.98403666 0.478470005,3.01080333 C0.473743338,3.03760333 0.491073338,3.05967 0.509980005,3.08170333 C0.521006671,3.09433666 0.582453338,3.15420333 0.599783338,3.16837 C0.672256671,3.22980333 0.820356671,3.32277 0.929066671,3.36847 C0.966880004,3.38420333 1.02832667,3.40627 1.02832667,3.40627 C1.02832667,3.40627 1.0236,3.22980333 1.02517334,3.05650333 C1.02517334,2.96513666 1.02675,2.87533666 1.02675,2.87533666 M2.68419667,2.94463666 C2.68892334,2.99190333 2.67789334,3.08170333 2.67474334,3.09273666 C2.67159334,3.11953666 2.65111,3.18253666 2.64638334,3.19043666 C2.62905334,3.22823666 2.61329667,3.25973666 2.59596667,3.29127 C2.56603334,3.34483666 2.49513334,3.42990333 2.45417,3.46613666 C2.29819334,3.60007 2.05714,3.67727 1.85074667,3.70247 C1.71052667,3.71980333 1.54982334,3.71663666 1.40014667,3.68987 C1.34973,3.68040333 1.27253,3.66307 1.27253,3.66307 C1.27253,3.66307 1.27253,3.69300333 1.27095667,3.71507 C1.26938,3.72453666 1.26307667,3.75130333 1.25835,3.75920333 C1.24732334,3.78123666 1.22999,3.79227 1.20478334,3.79857 C1.17327334,3.80487 1.14018667,3.80647 1.11182667,3.79383666 C1.06456334,3.77337 1.04723,3.72927 1.03935334,3.67883666 C1.03305,3.63787 1.02517334,3.56697 1.02517334,3.56697 C1.02517334,3.56697 0.990513338,3.54963666 0.960576671,3.53547 C0.870773338,3.49133666 0.784120005,3.43620333 0.708493338,3.38107 C0.688013338,3.36530333 0.598206671,3.29127 0.577726671,3.27237 C0.522583338,3.22037 0.472166671,3.16680333 0.434353338,3.10063666 C0.404420005,3.04863666 0.396540005,3.00137 0.418600005,2.94623666 C0.450110005,2.86903666 0.560396671,2.81073666 0.636020005,2.77763666 C0.691163338,2.75243666 0.866046671,2.69570333 0.936943338,2.68627 C0.971606671,2.68153666 1.0236,2.67207 1.02675,2.67050333 C1.02832667,2.66893666 1.02832667,2.66893666 1.0299,2.66737 C1.03147667,2.66577 1.03462667,2.58857 1.03305,2.56023667 C1.03305,2.53187 1.05353334,2.35223667 1.05983667,2.31287 C1.06298667,2.29237 1.07874334,2.21203667 1.09449667,2.19153667 C1.10552667,2.17737 1.12285667,2.17893667 1.13861,2.18840333 C1.22054,2.24040333 1.24574667,2.41843667 1.25205,2.50823667 C1.2552,2.56337 1.25835,2.64687 1.25835,2.64687 C1.25835,2.64687 1.35288334,2.64373666 1.41117667,2.64530333 C1.46789667,2.64687 1.53091667,2.65633666 1.58921,2.66420333 C1.66483667,2.67680333 1.81136,2.70830333 1.89486,2.75087 C1.96418334,2.78550333 2.02878,2.84540333 2.05083667,2.90840333 C2.06974334,2.96513666 2.06816667,3.00610333 2.03823334,3.05807 C2.00514667,3.11637 1.94212667,3.16050333 1.87753,3.16363666 C1.85862334,3.16523666 1.78615,3.15577 1.76409334,3.13843666 C1.75621667,3.13213666 1.75621667,3.11953666 1.76251667,3.11163666 C1.76409334,3.10850333 1.79875334,3.09117 1.81766,3.08013666 C1.82711334,3.07540333 1.83656667,3.06910333 1.84287,3.06123666 C1.85862334,3.04707 1.87438,3.03130333 1.87280334,3.01240333 C1.87122667,2.98877 1.84444334,2.97300333 1.82081,2.96357 C1.7058,2.91787 1.47577334,2.88003666 1.36548667,2.87373666 C1.32137334,2.87060333 1.25992667,2.86903666 1.25992667,2.86903666 L1.27253,3.48190333 C1.27253,3.48190333 1.32294667,3.49133666 1.36391,3.49767 C1.38754334,3.50080333 1.48522667,3.51027 1.51043334,3.51027 C1.70895,3.51497 1.92952334,3.49767 2.11070667,3.41257 C2.19106,3.37477 2.26353334,3.32907 2.31867667,3.26447 C2.39115,3.18097 2.43053667,3.06597 2.41951,2.94623666 C2.40848,2.81547 2.3171,2.66107 2.24305,2.56653667 C2.04926334,2.31760333 1.71682667,2.11120333 1.42378,1.99147 C1.12443334,1.86857 0.829810005,1.79767 0.513130005,1.78663667 C0.431203338,1.78350333 0.253169338,1.78820333 0.163364672,1.81343667 C0.150760672,1.81657 0.138156338,1.82130333 0.125552338,1.82443667 C0.116099005,1.82603667 0.101919338,1.83233667 0.097193005,1.83707 C0.0956173383,1.83863667 0.0924663383,1.84177 0.0924663383,1.84177 C0.0924663383,1.84177 0.0987683383,1.84493667 0.103495005,1.84650333 C0.112948005,1.85123667 0.153911672,1.85280333 0.174393338,1.85753667 C0.193299672,1.86070333 0.212205672,1.87013667 0.220083338,1.88433667 C0.227961005,1.89693667 0.227961005,1.90797 0.220083338,1.91897 C0.199601672,1.94420333 0.122401338,1.93947 0.0893153383,1.93473667 C0.0546536717,1.92843667 0.0105392717,1.91897 0.0026616684,1.88747 C-0.00679146159,1.85123667 0.0105392717,1.81657 0.0294455051,1.78350333 C0.067258005,1.71730333 0.119250005,1.68423667 0.198026005,1.66217 C0.308312338,1.63223667 0.448533338,1.61017 0.552516671,1.60703667 C0.788846671,1.59757 1.01257,1.64010333 1.24259667,1.70943667 C1.37336334,1.74883667 1.54509667,1.81500333 1.67113667,1.87643667 C1.76094334,1.92057 1.90431334,1.99933667 1.98309,2.05290333 C2.00829667,2.07023667 2.15639667,2.17737 2.17845334,2.19627 C2.22572,2.23567 2.28874,2.29080333 2.33443,2.33650333 C2.42266,2.42313667 2.53137,2.55550333 2.58336334,2.66263666 C2.59596667,2.68783666 2.60542,2.71303666 2.62275,2.74140333 C2.62905334,2.75087 2.65268667,2.81073666 2.65583667,2.82807 C2.66056334,2.84540333 2.66529,2.87060333 2.66686667,2.87217 C2.67474334,2.87373666 2.68577334,2.92417 2.68419667,2.94463666 Z M5.66036667,2.80913666 C5.55006667,2.83437 5.2586,2.84853666 5.2586,2.84853666 L5.22236667,2.96357 C5.22236667,2.96357 5.3673,2.95093666 5.47443333,2.96197 C5.47443333,2.96197 5.5091,2.95723666 5.51226667,3.00137 C5.51383333,3.04077 5.5091,3.08487 5.5091,3.08487 C5.5091,3.08487 5.50753333,3.11163666 5.4697,3.11797 C5.43033333,3.12427 5.1562,3.13527 5.1562,3.13527 L5.11206667,3.28497 C5.11206667,3.28497 5.09633334,3.31963666 5.13256667,3.31017 C5.1672,3.30070333 5.45396667,3.24713666 5.49176667,3.25503666 C5.53116667,3.26447 5.57686667,3.31803666 5.56266667,3.36690333 C5.5469,3.42677 5.26016667,3.60950333 5.08686667,3.59690333 C5.08686667,3.59690333 4.9955,3.60320333 4.91826667,3.47873666 C4.8458,3.36057 4.94506667,3.13687 4.94506667,3.13687 C4.94506667,3.13687 4.89936667,3.03287 4.93246667,2.99663666 C4.93246667,2.99663666 4.95136667,2.97930333 5.00966667,2.97457 L5.08056667,2.82963666 C5.08056667,2.82963666 5.0002,2.83437 4.95293334,2.77607 C4.90883334,2.72093666 4.90566667,2.69413666 4.93876667,2.67997 C4.975,2.66263666 5.309,2.60117 5.53746667,2.60907 C5.53746667,2.60907 5.6178,2.60117 5.68556667,2.73983666 C5.684,2.73983666 5.71706667,2.79653666 5.66036667,2.80913666 L5.66036667,2.80913666 Z M4.79853334,3.36847 C4.7686,3.43777 4.6914,3.51183666 4.5953,3.46613666 C4.50076667,3.42047 4.34793334,3.11007 4.34793334,3.11007 C4.34793334,3.11007 4.28966667,2.99507 4.27863334,2.99663666 C4.27863334,2.99663666 4.26603334,2.97457 4.25813334,3.10063666 C4.25026667,3.22667 4.2597,3.47243666 4.2093,3.51027 C4.16203334,3.54963666 4.10373334,3.53390333 4.0738,3.48820333 C4.04703334,3.44410333 4.036,3.33693666 4.05016667,3.15103666 C4.0675,2.96513666 4.11163334,2.76660333 4.16676667,2.70517 C4.2219,2.64373666 4.26603334,2.68783666 4.28333334,2.70517 C4.28333334,2.70517 4.3574,2.77290333 4.4787,2.96827 L4.50076667,3.00450333 C4.50076667,3.00450333 4.61106667,3.19043666 4.62366667,3.19043666 C4.62366667,3.19043666 4.6331,3.19830333 4.641,3.19200333 C4.65203334,3.18883666 4.6473,3.12897 4.6473,3.12897 C4.6473,3.12897 4.62366667,2.92573666 4.52283334,2.58387 C4.52283334,2.58387 4.50706667,2.54130333 4.5181,2.50033667 C4.52913334,2.45940333 4.56853334,2.47830333 4.56853334,2.47830333 C4.56853334,2.47830333 4.7245,2.55707 4.8017,2.81230333 C4.8789,3.06753666 4.8269,3.29913666 4.79853334,3.36847 L4.79853334,3.36847 Z M6.48276667,3.21563666 C6.41186667,3.34010333 6.2102,3.60007 5.94236667,3.53860333 C5.85413333,3.75290333 5.7801,3.97030333 5.73756667,4.29330333 C5.73756667,4.29330333 5.7281,4.35630333 5.6761,4.33427 C5.6241,4.31533666 5.53903333,4.23027 5.5217,4.11053666 C5.5028,3.95297 5.5737,3.68830333 5.7155,3.38420333 C5.67453333,3.31647 5.64616667,3.22037 5.6698,3.08170333 C5.6698,3.08170333 5.70603333,2.82647 5.96286667,2.59647 C5.96286667,2.59647 5.99436667,2.56967 6.0117,2.57753667 C6.0306,2.58543667 6.02273333,2.66893666 6.00696667,2.70990333 C5.9912,2.75087 5.8762,2.94780333 5.8762,2.94780333 C5.8762,2.94780333 5.8053,3.08170333 5.8242,3.18727 C5.95813333,2.98087 6.26536667,2.56337 6.4544,2.69413666 C6.51743333,2.73983666 6.54736667,2.83910333 6.54736667,2.94623666 C6.54736667,3.04077 6.5253,3.14000333 6.48276667,3.21563666 L6.48276667,3.21563666 Z M6.42763333,2.88793666 C6.42763333,2.88793666 6.4166,2.80600333 6.33626667,2.89580333 C6.26693333,2.97300333 6.14246667,3.11637 6.04163333,3.31017 C6.1472,3.29757 6.24803333,3.24083666 6.27953333,3.21247 C6.32993333,3.16837 6.44653333,3.04707 6.42763333,2.88793666 L6.42763333,2.88793666 Z M7.95746667,2.86903666 L7.46746667,2.86903666 C7.45803333,2.70200333 7.43753333,2.53973667 7.40603333,2.37273667 C7.40286667,2.35540333 7.38713333,2.34280333 7.3698,2.34280333 L7.25636667,2.34280333 C7.2469,2.34280333 7.23743333,2.34753667 7.23113333,2.35540333 C7.22483333,2.36327 7.2217,2.37273667 7.22483333,2.38377 C7.25636667,2.54603667 7.27683333,2.70517 7.28786667,2.87060333 L6.8168,2.87060333 C6.79473333,2.87060333 6.7774,2.88793666 6.7774,2.90997 L6.7774,3.01240333 C6.7774,3.03443666 6.79473333,3.05177 6.8168,3.05177 L7.29573333,3.05177 C7.29573333,3.07700333 7.29573333,3.09903666 7.29573333,3.12110333 C7.29573333,3.26763666 7.28943333,3.38893666 7.27526667,3.52600333 C7.2737,3.53703666 7.27683333,3.54650333 7.2847,3.55437 C7.291,3.56223666 7.30203333,3.56697 7.3115,3.56697 L7.41706667,3.56697 C7.43753333,3.56697 7.45486667,3.55123666 7.45643333,3.53073666 C7.47063333,3.39367 7.47693333,3.27077 7.47693333,3.12110333 C7.47693333,3.10063666 7.47693333,3.07700333 7.47693333,3.05177 L7.9606,3.05177 C7.98266667,3.05177 8,3.03443666 8,3.01240333 L8,2.90997 C7.99683333,2.88633666 7.97953333,2.86903666 7.95746667,2.86903666 Z" id="Shape" fill="#01147B"></path>
            <path d="M7.33826667,2.10330333 C7.08933333,1.48886667 6.66553333,0.964219999 6.11726667,0.589246666 C5.5548,0.203243333 4.89623334,-2.96059473e-16 4.21086667,-2.96059473e-16 C3.07807667,-2.96059473e-16 2.02878,0.562463333 1.40172334,1.50463667 C1.39542136,1.51407 1.39384667,1.52827 1.39699667,1.53927 C1.40172334,1.55190333 1.4096,1.55977 1.42220334,1.56450333 L1.51043334,1.59443667 C1.51516,1.59600333 1.52146334,1.59757 1.52619,1.59757 C1.54194334,1.59757 1.5577,1.58970333 1.56715334,1.57553667 C1.85547334,1.15328 2.24462667,0.800366666 2.69365,0.557736666 C3.15685334,0.307226666 3.68306667,0.173306667 4.21246667,0.173306667 C4.8537,0.173306667 5.4713,0.36237 5.9991,0.720013333 C6.5143,1.06820333 6.91603333,1.55503667 7.1571,2.12693667 C7.16496667,2.14427 7.18073333,2.15530333 7.19963333,2.15530333 L7.3052,2.15530333 C7.3178,2.15530333 7.32883333,2.14900333 7.33513333,2.13957 C7.343,2.12693667 7.343,2.11433667 7.33826667,2.10330333 Z" id="Path" fill="url(#radialGradient-1)"></path>
        </g>
    </g>
</svg>