<svg viewBox="0 0 24 24" xmlns="http://www.w3.org/2000/svg"><defs><radialGradient cx="1775.14" cy="146.126" gradientTransform="matrix(0.0224937 -2.04107e-06 2.04107e-06 0.0224937 -18.221 8.66086)" gradientUnits="userSpaceOnUse" id="RadialGradient" r="756.556"><stop offset="0" stop-color="#01147b"/><stop offset="0.0254902" stop-color="#011098"/><stop offset="0.0643085" stop-color="#010abd"/><stop offset="0.1032" stop-color="#0006da"/><stop offset="0.1416" stop-color="#0003ee"/><stop offset="0.1794" stop-color="#0001fb"/><stop offset="0.2159" stop-color="#0000ff"/><stop offset="1" stop-color="#00ffff" stop-opacity="0"/></radialGradient></defs><path d="M10.9027 14.3114C10.9169 14.3114 10.9169 14.3114 10.9311 14.3161C11.1485 14.3444 11.3612 14.3823 11.5219 14.4579C11.6731 14.524 11.7629 14.6091 11.8433 14.7604C11.9662 14.9873 11.9756 15.3039 11.8622 15.545C11.7771 15.7246 11.5975 15.8758 11.4321 15.9562C11.2619 16.0413 11.0918 16.0791 10.898 16.1027C10.5577 16.1405 10.189 16.0696 9.88649 15.9231C9.70688 15.8333 9.48474 15.6821 9.3713 15.4883C9.29095 15.3465 9.29095 15.1574 9.39021 15.0203C9.55091 14.8029 9.89122 14.7556 10.1465 14.7651C10.3402 14.7746 10.6947 14.8313 10.8791 14.8974C10.9311 14.9164 11.1201 14.992 11.1532 15.0251C11.1768 15.0487 11.191 15.0818 11.1816 15.1149C11.139 15.2425 10.8224 15.3134 10.7325 15.3276C10.4868 15.3654 10.3639 15.2708 10.085 15.1621C10.0141 15.1338 9.92431 15.1054 9.85341 15.1007C9.72579 15.0865 9.57454 15.1243 9.55091 15.2614C9.53673 15.3323 9.62181 15.3985 9.68325 15.4268C9.82978 15.493 9.95267 15.5119 10.0992 15.5166C10.5293 15.5214 11.0161 15.4505 11.3706 15.1999C11.4179 15.1669 11.4652 15.1149 11.4652 15.0534C11.4652 14.9258 11.243 14.8455 11.243 14.8455C11.0067 14.7462 10.5624 14.6989 10.3402 14.68C10.1039 14.6611 9.72579 14.628 9.63599 14.6139C9.54146 14.5997 9.4422 14.5808 9.36185 14.5477C9.28149 14.5099 9.20114 14.4295 9.17751 14.3397C9.13497 14.179 9.18696 13.9805 9.27677 13.8481C9.5131 13.5078 10.0661 13.3802 10.482 13.3282C10.8838 13.2762 11.5313 13.281 11.9236 13.4889C11.9851 13.522 12.0134 13.5504 12.004 13.6165C11.9804 13.7394 11.8858 13.8151 11.7771 13.8529C11.659 13.8907 11.4179 13.9049 11.3139 13.9096C10.8413 13.938 10.2693 13.9238 9.8156 14.0467C9.78251 14.0561 9.72106 14.075 9.69743 14.0939C9.62653 14.1696 9.82978 14.1932 9.87231 14.2026C9.88649 14.2074 9.88649 14.2074 9.90067 14.2074L10.9027 14.3114M8.08095 12.1986C8.08095 12.1986 8.15657 12.0851 8.22275 11.9953C8.34091 11.8346 8.5536 11.6125 8.71431 11.4754C8.76157 11.4329 8.82302 11.3856 8.82302 11.3856C8.82302 11.3856 8.73321 11.3951 8.68122 11.4045C8.55833 11.4282 8.38345 11.5463 8.29364 11.6219C8.14712 11.7496 7.98642 11.9528 8.05732 12.1324C8.06677 12.1655 8.08095 12.1986 8.08095 12.1986M8.89864 12.416C9.13024 12.4018 9.34767 12.3309 9.55091 12.2222C9.74942 12.1135 10.0425 11.8961 10.0094 11.6408C9.99993 11.5605 9.94794 11.4943 9.87704 11.466C9.78724 11.4282 9.7447 11.4329 9.63126 11.466C9.55091 11.4896 9.5131 11.5038 9.43274 11.551C9.20587 11.6834 8.87974 11.967 8.70485 12.1939C8.66232 12.2458 8.6245 12.3073 8.59142 12.3498C8.57251 12.3735 8.5536 12.3971 8.55833 12.4065C8.56778 12.4255 8.80884 12.4255 8.89864 12.416M8.30782 12.8508C8.28419 12.8745 8.26056 12.9359 8.2322 12.9832C8.21802 13.0068 8.19439 13.0352 8.17548 13.0494C8.11403 13.0919 8.06204 13.0966 8.00532 13.0446C7.92497 12.9737 7.87771 12.8603 7.87298 12.7516C7.87298 12.7043 7.87771 12.6523 7.86825 12.6098C7.85407 12.5436 7.7879 12.4727 7.75009 12.4065C7.70755 12.3309 7.67446 12.1986 7.66974 12.1135C7.65556 11.8441 7.79736 11.5983 7.97696 11.4045C8.1613 11.206 8.40235 11.0453 8.66704 10.9319C8.91282 10.8279 9.27677 10.757 9.55091 10.8515C9.64071 10.8799 9.7636 10.9555 9.82505 11.0358C9.83923 11.05 9.84868 11.0689 9.86286 11.0784C9.87704 11.0878 9.9054 11.0878 9.93376 11.0926C10.0188 11.1067 10.1465 11.1729 10.1984 11.2155C10.3024 11.3053 10.3592 11.3903 10.3828 11.5132C10.4348 11.759 10.293 12.0332 10.1323 12.1986C9.85341 12.4822 9.57927 12.6807 9.22478 12.8225C9.0688 12.8839 8.82775 12.9407 8.64814 12.9265C8.59142 12.9217 8.5347 12.9076 8.48271 12.9028C8.45435 12.8981 8.35509 12.8745 8.34564 12.8698C8.32673 12.8556 8.31255 12.8508 8.30782 12.8508M8.6245 13.3991C8.63396 13.3991 8.65286 13.4039 8.66704 13.4133C8.78993 13.4606 8.84192 13.574 8.87501 13.7016C8.94591 13.9947 8.97427 14.6469 8.98845 14.9022C8.9979 15.0912 9.00263 15.2803 9.01208 15.4694C9.01681 15.6301 9.03099 15.8428 8.9979 15.9893C8.98372 16.0413 8.95064 16.1074 8.89864 16.1358C8.8372 16.1736 8.70485 16.1783 8.62923 16.1594C8.44489 16.1216 8.38817 16.0035 8.35982 15.8239C8.29837 15.3937 8.32673 14.5477 8.36454 14.1932C8.37872 14.075 8.42126 13.6969 8.48271 13.5409C8.50161 13.4937 8.54888 13.3849 8.6245 13.3991M3.08025 14.1176C3.08025 14.1176 2.81083 14.1365 2.62177 14.1554C2.38544 14.179 1.93642 14.2594 1.68119 14.3492C1.60556 14.3775 1.44486 14.4437 1.43541 14.524C1.42123 14.6044 1.47322 14.6706 1.52994 14.7367C1.56302 14.7746 1.74736 14.9542 1.79935 14.9967C2.01677 15.181 2.46107 15.4599 2.7872 15.597C2.90064 15.6442 3.08498 15.7104 3.08498 15.7104C3.08498 15.7104 3.0708 15.181 3.07552 14.6611C3.07552 14.387 3.08025 14.1176 3.08025 14.1176M8.05259 14.3255C8.06677 14.4673 8.03368 14.7367 8.02423 14.7698C8.01478 14.8502 7.95333 15.0392 7.93915 15.0629C7.88716 15.1763 7.83989 15.2708 7.7879 15.3654C7.6981 15.5261 7.4854 15.7813 7.36251 15.89C6.89458 16.2918 6.17142 16.5234 5.55224 16.599C5.13158 16.651 4.64947 16.6415 4.20044 16.5612C4.04919 16.5328 3.81759 16.4808 3.81759 16.4808C3.81759 16.4808 3.81759 16.5706 3.81287 16.6368C3.80814 16.6652 3.78923 16.7455 3.77505 16.7692C3.74197 16.8353 3.68997 16.8684 3.61435 16.8873C3.51982 16.9062 3.42056 16.911 3.33548 16.8731C3.19369 16.8117 3.14169 16.6794 3.11806 16.5281C3.09915 16.4052 3.07552 16.1925 3.07552 16.1925C3.07552 16.1925 2.97154 16.1405 2.88173 16.098C2.61232 15.9656 2.35236 15.8002 2.12548 15.6348C2.06404 15.5875 1.79462 15.3654 1.73318 15.3087C1.56775 15.1527 1.4165 14.992 1.30306 14.7935C1.21326 14.6375 1.18962 14.4957 1.2558 14.3303C1.35033 14.0987 1.68119 13.9238 1.90806 13.8245C2.07349 13.7489 2.59814 13.5787 2.81083 13.5504C2.91482 13.5362 3.0708 13.5078 3.08025 13.5031C3.08498 13.4984 3.08498 13.4984 3.0897 13.4937C3.09443 13.4889 3.10388 13.2573 3.09915 13.1723C3.09915 13.0872 3.1606 12.5483 3.17951 12.4302C3.18896 12.3687 3.23623 12.1277 3.28349 12.0662C3.31658 12.0237 3.36857 12.0284 3.41583 12.0568C3.66162 12.2128 3.73724 12.7469 3.75615 13.0163C3.7656 13.1817 3.77505 13.4322 3.77505 13.4322C3.77505 13.4322 4.05865 13.4228 4.23353 13.4275C4.40369 13.4322 4.59275 13.4606 4.76763 13.4842C4.99451 13.522 5.43408 13.6165 5.68458 13.7442C5.89255 13.8481 6.08634 14.0278 6.15251 14.2168C6.20923 14.387 6.2045 14.5099 6.1147 14.6658C6.01544 14.8407 5.82638 14.9731 5.63259 14.9825C5.57587 14.9873 5.35845 14.9589 5.29228 14.9069C5.26865 14.888 5.26865 14.8502 5.28755 14.8265C5.29228 14.8171 5.39626 14.7651 5.45298 14.732C5.48134 14.7178 5.5097 14.6989 5.52861 14.6753C5.57587 14.6328 5.62314 14.5855 5.61841 14.5288C5.61368 14.4579 5.53333 14.4106 5.46243 14.3823C5.1174 14.2452 4.42732 14.1317 4.09646 14.1128C3.96412 14.1034 3.77978 14.0987 3.77978 14.0987L3.81759 15.9373C3.81759 15.9373 3.96884 15.9656 4.09173 15.9846C4.16263 15.994 4.45568 16.0224 4.5313 16.0224C5.12685 16.0365 5.78857 15.9846 6.33212 15.7293C6.57318 15.6159 6.7906 15.4788 6.95603 15.285C7.17345 15.0345 7.29161 14.6895 7.25853 14.3303C7.22544 13.938 6.9513 13.4748 6.72915 13.1912C6.14779 12.4444 5.15048 11.8252 4.27134 11.466C3.3733 11.0973 2.48943 10.8846 1.53939 10.8515C1.29361 10.8421 0.759508 10.8562 0.490094 10.9319C0.452282 10.9413 0.414469 10.9555 0.376657 10.9649C0.348297 10.9697 0.305758 10.9886 0.291579 11.0028C0.286852 11.0075 0.277399 11.0169 0.277399 11.0169C0.277399 11.0169 0.296305 11.0264 0.310485 11.0311C0.338844 11.0453 0.461735 11.05 0.52318 11.0642C0.579899 11.0737 0.636617 11.102 0.66025 11.1446C0.683883 11.1824 0.683883 11.2155 0.66025 11.2485C0.598805 11.3242 0.367204 11.31 0.267946 11.2958C0.163961 11.2769 0.0316178 11.2485 0.00798499 11.154C-0.0203744 11.0453 0.0316178 10.9413 0.0883365 10.8421C0.201774 10.6435 0.35775 10.5443 0.594078 10.4781C0.924937 10.3883 1.3456 10.3221 1.65755 10.3127C2.36654 10.2843 3.03771 10.4119 3.72779 10.6199C4.12009 10.7381 4.63529 10.9366 5.01341 11.1209C5.28283 11.2533 5.71294 11.4896 5.94927 11.6503C6.02489 11.7023 6.46919 12.0237 6.53536 12.0804C6.67716 12.1986 6.86622 12.364 7.00329 12.5011C7.26798 12.761 7.59411 13.1581 7.75009 13.4795C7.7879 13.5551 7.81626 13.6307 7.86825 13.7158C7.88716 13.7442 7.95806 13.9238 7.96751 13.9758C7.98169 14.0278 7.99587 14.1034 8.0006 14.1081C8.02423 14.1128 8.05732 14.2641 8.05259 14.3255ZM16.9811 13.919C16.6502 13.9947 15.7758 14.0372 15.7758 14.0372L15.6671 14.3823C15.6671 14.3823 16.1019 14.3444 16.4233 14.3775C16.4233 14.3775 16.5273 14.3633 16.5368 14.4957C16.5415 14.6139 16.5273 14.7462 16.5273 14.7462C16.5273 14.7462 16.5226 14.8265 16.4091 14.8455C16.291 14.8644 15.4686 14.8974 15.4686 14.8974L15.3362 15.3465C15.3362 15.3465 15.289 15.4505 15.3977 15.4221C15.5016 15.3937 16.3619 15.233 16.4753 15.2567C16.5935 15.285 16.7306 15.4457 16.688 15.5923C16.6407 15.7719 15.7805 16.3201 15.2606 16.2823C15.2606 16.2823 14.9865 16.3012 14.7548 15.9278C14.5374 15.5733 14.8352 14.9022 14.8352 14.9022C14.8352 14.9022 14.6981 14.5902 14.7974 14.4815C14.7974 14.4815 14.8541 14.4295 15.029 14.4153L15.2417 13.9805C15.2417 13.9805 15.0006 13.9947 14.8588 13.8198C14.7265 13.6544 14.717 13.574 14.8163 13.5315C14.925 13.4795 15.927 13.2951 16.6124 13.3188C16.6124 13.3188 16.8534 13.2951 17.0567 13.7111C17.052 13.7111 17.1512 13.8812 16.9811 13.919L16.9811 13.919ZM14.3956 15.597C14.3058 15.8049 14.0742 16.0271 13.7859 15.89C13.5023 15.753 13.0438 14.8218 13.0438 14.8218C13.0438 14.8218 12.869 14.4768 12.8359 14.4815C12.8359 14.4815 12.7981 14.4153 12.7744 14.7935C12.7508 15.1716 12.7791 15.9089 12.6279 16.0224C12.4861 16.1405 12.3112 16.0933 12.2214 15.9562C12.1411 15.8239 12.108 15.5024 12.1505 14.9447C12.2025 14.387 12.3349 13.7914 12.5003 13.6071C12.6657 13.4228 12.7981 13.5551 12.85 13.6071C12.85 13.6071 13.0722 13.8103 13.4361 14.3964L13.5023 14.5051C13.5023 14.5051 13.8332 15.0629 13.871 15.0629C13.871 15.0629 13.8993 15.0865 13.923 15.0676C13.9561 15.0581 13.9419 14.8785 13.9419 14.8785C13.9419 14.8785 13.871 14.2688 13.5685 13.2432C13.5685 13.2432 13.5212 13.1155 13.5543 12.9926C13.5874 12.8698 13.7056 12.9265 13.7056 12.9265C13.7056 12.9265 14.1735 13.1628 14.4051 13.9285C14.6367 14.6942 14.4807 15.389 14.3956 15.597L14.3956 15.597ZM19.4483 15.1385C19.2356 15.5119 18.6306 16.2918 17.8271 16.1074C17.5624 16.7503 17.3403 17.4025 17.2127 18.3715C17.2127 18.3715 17.1843 18.5605 17.0283 18.4944C16.8723 18.4376 16.6171 18.1824 16.5651 17.8232C16.5084 17.3505 16.7211 16.5565 17.1465 15.6442C17.0236 15.441 16.9385 15.1527 17.0094 14.7367C17.0094 14.7367 17.1181 13.971 17.8886 13.281C17.8886 13.281 17.9831 13.2006 18.0351 13.2242C18.0918 13.2479 18.0682 13.4984 18.0209 13.6213C17.9736 13.7442 17.6286 14.335 17.6286 14.335C17.6286 14.335 17.4159 14.7367 17.4726 15.0534C17.8744 14.4342 18.7961 13.1817 19.3632 13.574C19.5523 13.7111 19.6421 14.0089 19.6421 14.3303C19.6421 14.6139 19.5759 14.9116 19.4483 15.1385L19.4483 15.1385ZM19.2829 14.1554C19.2829 14.1554 19.2498 13.9096 19.0088 14.179C18.8008 14.4106 18.4274 14.8407 18.1249 15.4221C18.4416 15.3843 18.7441 15.2141 18.8386 15.129C18.9898 14.9967 19.3396 14.6328 19.2829 14.1554L19.2829 14.1554ZM23.8724 14.0987L22.4024 14.0987C22.3741 13.5976 22.3126 13.1108 22.2181 12.6098C22.2086 12.5578 22.1614 12.52 22.1094 12.52L21.7691 12.52C21.7407 12.52 21.7123 12.5342 21.6934 12.5578C21.6745 12.5814 21.6651 12.6098 21.6745 12.6429C21.7691 13.1297 21.8305 13.6071 21.8636 14.1034L20.4504 14.1034C20.3842 14.1034 20.3322 14.1554 20.3322 14.2215L20.3322 14.5288C20.3322 14.5949 20.3842 14.6469 20.4504 14.6469L21.8872 14.6469C21.8872 14.7226 21.8872 14.7887 21.8872 14.8549C21.8872 15.2945 21.8683 15.6584 21.8258 16.0696C21.8211 16.1027 21.8305 16.1311 21.8541 16.1547C21.873 16.1783 21.9061 16.1925 21.9345 16.1925L22.2512 16.1925C22.3126 16.1925 22.3646 16.1453 22.3693 16.0838C22.4119 15.6726 22.4308 15.3039 22.4308 14.8549C22.4308 14.7935 22.4308 14.7226 22.4308 14.6469L23.8818 14.6469C23.948 14.6469 24 14.5949 24 14.5288L24 14.2215C23.9905 14.1506 23.9386 14.0987 23.8724 14.0987Z" fill="#01147b"/><path d="M22.0148 11.8015C21.268 9.95819 19.9966 8.38425 18.3518 7.25933C16.6644 6.10132 14.6887 5.49159 12.6326 5.49159C9.23423 5.49159 6.08634 7.17898 4.20517 10.0055C4.18626 10.0338 4.18154 10.0764 4.19099 10.1094C4.20517 10.1473 4.2288 10.1709 4.26661 10.1851L4.5313 10.2749C4.54548 10.2796 4.56439 10.2843 4.57857 10.2843C4.62583 10.2843 4.6731 10.2607 4.70146 10.2182C5.56642 8.95143 6.73388 7.89269 8.08095 7.1648C9.47056 6.41327 11.0492 6.01151 12.6374 6.01151C14.5611 6.01151 16.4139 6.5787 17.9973 7.65163C19.5429 8.6962 20.7481 10.1567 21.4713 11.8724C21.4949 11.9244 21.5422 11.9575 21.5989 11.9575L21.9156 11.9575C21.9534 11.9575 21.9865 11.9386 22.0054 11.9103C22.029 11.8724 22.029 11.8346 22.0148 11.8015Z" fill="url(#RadialGradient)"/></svg>
