<?xml version="1.0" encoding="UTF-8"?>
<svg viewBox="0 0 24 24" version="1.1" xmlns="http://www.w3.org/2000/svg" xmlns:xlink="http://www.w3.org/1999/xlink">
    <title>Dler Cloud</title>
    <path d="M4.21411239,0.916916681 C3.30770269,2.27626462 2.99528107,4.21112353 3.27684752,6.72149342 C3.69919719,10.4870483 5.48955151,10.9695864 6.49332007,15.3416083 C7.16249911,18.2562896 6.11188817,21.1424201 3.34148725,24 C3.96142571,20.891425 3.80026558,18.266434 2.85800688,16.125027 C1.44461882,12.9129164 0,11.2632508 0,7.60389827 C0,4.85258392 1.40470413,2.62359006 4.21411239,0.916916681 Z" fill="#EEEEEE"></path>
    <path d="M4.02264742,3.94533012 C4.82387074,3.13723029 5.98688959,2.66290174 7.51170397,2.52234445 C9.79892555,2.31150852 13,3.55205208 13,3.55205208 C13,3.55205208 10.530668,-2.22044605e-16 7.51170397,-2.22044605e-16 C5.4990613,-2.22044605e-16 4.33604245,1.31511004 4.02264742,3.94533012 Z" fill="#4D4D4D"></path>
</svg>
