<svg viewBox="0 0 8 8" xmlns="http://www.w3.org/2000/svg"><path d="M6.24 3.394a.626.626 0 0 1 .207.053c.273.113.253.393.233.5-.027.106-.06.253-.146.42a.61.61 0 0 1-.493.326c-.04 0-.067.006-.127.006-.053 0-.106 0-.146-.006-.367-.04-.46-.373-.393-.6.053-.173.026-.08.086-.28s.213-.366.493-.406c.113-.02.18-.02.287-.013Zm-2.077.04-.094.32h-.712l.426.4c.087.08.12.206.08.312a.297.297 0 0 1-.28.193h-.919l.093-.313h.733l-.426-.4a.294.294 0 0 1 .2-.513h.899Zm-3.044 0c.04.007.067.013.093.02.233.066.24.26.233.32-.006.053-.08.426-.173.586-.113.193-.253.28-.393.293-.033 0-.106.006-.206.006H0L.313 3.62l-.067-.133-.106-.186s.633.066.979.133Zm.906.013.066.153.227.5.193-.653h.373L2.55 4.6l-.02.054h-.333l-.047-.114-.253-.546-.193.66h-.38l.347-1.16.013-.046h.34Zm2.804-.013c.14 0 .22.02.286.047a.409.409 0 0 1 .166.14c.007.006.007.013.014.02.04.073.053.173.046.246a.73.73 0 0 1-.12.326c-.08.113-.246.193-.506.193h-.353l-.073.24h-.353l.16-.546h.013v.007h.493c.073 0 .14 0 .213-.02a.21.21 0 0 0 .133-.094.253.253 0 0 0 .027-.166c-.02-.047-.08-.08-.153-.08h-.626l.086-.313h.547Zm2.61 0c.154 0 .253.013.327.033.226.067.24.26.233.313-.007.047-.08.413-.173.573-.107.186-.247.28-.387.286-.033 0-.106.007-.206.007h-.66l.36-1.212h.506Zm-1.292.24c-.073 0-.086 0-.12.013-.033.013-.153.04-.206.213-.053.173-.033.113-.073.22-.04.1-.06.286.166.3.02 0 .04 0 .073-.007a.289.289 0 0 0 .2-.14c.054-.106.113-.293.127-.34.013-.066.013-.126-.014-.173a.192.192 0 0 0-.153-.086Zm1.06.053-.187.626h.226c.1 0 .2-.02.253-.12.054-.093.114-.3.12-.346.013-.054-.006-.14-.093-.153-.087-.007-.193-.007-.32-.007ZM.658 3.714l-.2.639h.234c.1 0 .2-.02.26-.127.053-.1.113-.306.126-.353.013-.06-.007-.14-.093-.153-.094-.006-.2-.006-.327-.006Z" fill="#2e95ff"/></svg>