<svg viewBox="0 0 24 24" xmlns="http://www.w3.org/2000/svg"><path d="M7.74 7.724 15.016.447c.543-.543 1.16-.646 1.82 0L23.6 7.21c.484.485.44 1.218 0 1.658L8.884 23.57c-.528.528-1.218.616-1.834 0L.433 16.953a1.315 1.315 0 0 1 0-1.849l7.306-7.38Z" fill="#fff"/><path d="m7.857 8.472 7.615 7.615-6.926 6.926c-.425.425-.865.44-1.305 0L.902 16.674c-.396-.396-.367-.836 0-1.203l6.955-6.999Z" fill="#006491"/><path d="M15.956 15.632 8.341 8.017l6.925-6.925c.426-.425.866-.44 1.306 0l6.339 6.339c.396.396.367.836 0 1.203l-6.955 6.998Z" fill="#e31837"/><path d="M14.034 8.032a1.878 1.878 0 1 1 3.756 0 1.878 1.878 0 0 1-3.756 0Zm-5.267 8.055a1.878 1.878 0 1 1 3.756 0 1.878 1.878 0 0 1-3.756 0Zm-5.488 0a1.878 1.878 0 1 1 3.756 0 1.878 1.878 0 0 1-3.756 0Z" fill="#fff"/></svg>