<svg viewBox="0 0 24 24" xmlns="http://www.w3.org/2000/svg"><path d="M23.614 3.788a.115.115 0 0 1 .186.007l.175.249a.139.139 0 0 1-.001.16c-.305.41-.838.804-1.481.843-.508.03-.927-.17-1.155-.548a.115.115 0 0 0-.195-.008c-.271.377-.598.672-.94.692-.607.036-.778-.387-.628-1.32.015-.092-.063-.17-.148-.148a1.11 1.11 0 0 1-.395.038.12.12 0 0 0-.127.089c-.224.766-.76 1.48-1.452 1.52-.442.027-1.102-.236-1.036-1.334.005-.09-.072-.16-.151-.135a1.13 1.13 0 0 1-.44.05.12.12 0 0 0-.126.09c-.225.766-.76 1.48-1.453 1.52-.442.027-1.102-.236-1.036-1.335.005-.09-.072-.16-.151-.135a1.124 1.124 0 0 1-.44.051.12.12 0 0 0-.126.09c-.225.766-.76 1.479-1.452 1.52-.315.019-.74-.11-.936-.58-.037-.09-.15-.105-.206-.025-.273.387-.606.693-.954.713-.357.021-.552-.127-.636-.392a.117.117 0 0 0-.204-.041c-.243.297-.52.514-.8.53-.433.027-.682-.306-.702-.709-.024-.47.172-1.02.39-1.621.031-.084-.024-.174-.107-.178a2.85 2.85 0 0 1-.406-.046c-.06-.012-.12.028-.137.092-.26.959-.655 1.898-.99 2.454a.115.115 0 0 1-.17.036l-.255-.195a.137.137 0 0 1-.032-.176c.483-.804.912-2.06 1.06-2.99a.123.123 0 0 1 .111-.108l.34-.02c.078-.005.139.07.125.153l-.002.01c-.012.073.035.142.104.152.304.044.759.049 1.068.036.086-.003.148.09.116.177-.247.684-.58 1.632-.56 2.007.008.17.08.262.207.255.243-.015.616-.52.898-1.084a.125.125 0 0 0 .012-.033c.095-.441.236-.933.379-1.43l.009-.031a.122.122 0 0 1 .108-.091l.407-.024c.084-.005.146.082.12.169-.02.071-.04.142-.062.212-.357 1.217-.658 2.24-.253 2.216.264-.016.639-.482.961-1.145a.143.143 0 0 0 .012-.034 4.38 4.38 0 0 1 .06-.272c.187-.78.4-1.552.614-2.324l.197-.717a.123.123 0 0 1 .109-.093l.417-.024c.085-.005.147.083.12.17-.166.543-.34 1.121-.506 1.677-.034.118.087.215.182.148.165-.117.355-.195.54-.206.47-.028.789.374.82.978l.004.101c.001.067.05.121.112.127a.8.8 0 0 0 .621-.21.128.128 0 0 0 .036-.063c.173-.698.364-1.39.555-2.083l.196-.713a.123.123 0 0 1 .109-.093l.417-.024c.085-.005.148.083.12.17-.166.543-.34 1.121-.505 1.677-.035.118.086.215.181.148.165-.117.355-.195.54-.206.47-.028.789.374.82.978l.004.101c.001.067.05.121.112.127a.8.8 0 0 0 .621-.21.129.129 0 0 0 .036-.063c.173-.698.364-1.39.555-2.083l.196-.713a.123.123 0 0 1 .109-.093l.417-.024c.085-.005.148.083.121.17-.167.543-.34 1.121-.506 1.677-.035.118.086.215.181.148.165-.117.355-.195.54-.206.47-.028.789.374.82.978l.004.101c.002.067.05.121.111.127a.801.801 0 0 0 .605-.194.128.128 0 0 0 .039-.066c.197-.788.486-1.821.765-2.81a.122.122 0 0 1 .108-.091L21.068 0c.084-.005.147.082.121.169a103.047 103.047 0 0 0-.87 3.164c-.229.927-.238 1.194.023 1.178.22-.013.514-.335.793-.823a.137.137 0 0 0 .017-.063c.037-.976.613-1.865 1.47-1.915.574-.035.889.416.912.859.042.845-.763 1.386-1.543 1.336-.091-.006-.157.095-.117.183.109.242.338.377.73.354.373-.022.764-.356 1.01-.654Zm-12.9.237c-.184.77.04 1.073.331 1.055.478-.028.94-.936.904-1.637-.016-.306-.188-.466-.39-.454-.335.02-.696.421-.844 1.036Zm3.207-.19c-.185.77.04 1.072.33 1.055.477-.029.94-.937.904-1.638-.015-.306-.188-.465-.39-.453-.335.02-.696.42-.844 1.036Zm3.206-.191c-.185.77.04 1.072.33 1.055.477-.028.94-.937.904-1.637-.015-.306-.188-.466-.39-.454-.335.02-.696.421-.844 1.036Zm5.797-1.007c-.003-.202-.122-.349-.316-.337-.381.023-.68.45-.774.97-.015.083.043.16.12.158.493-.013.986-.35.97-.791Zm-17.855.375C5.019 1.447 4.039.414 2.59.468a3.308 3.308 0 0 0-1.869.712.137.137 0 0 0-.029.174l.227.384c.04.066.122.08.178.03a2.547 2.547 0 0 1 1.498-.605c.993-.043 1.722.616 1.765 1.89.053 1.484-.908 3.181-2.451 3.273-.054.003-.11.005-.166.005-.08 0-.137-.08-.118-.163a94.134 94.134 0 0 1 1-3.83c.025-.087-.038-.173-.122-.168l-.45.027a.123.123 0 0 0-.11.092c-.34 1.223-.681 2.55-.988 3.796-.017.071-.088.113-.153.09a2.345 2.345 0 0 1-.43-.197c-.06-.036-.136-.01-.166.056l-.194.42a.136.136 0 0 0 .049.173c.44.258 1.106.406 1.777.367 2.207-.132 3.288-2.248 3.23-3.982Zm4.337-1.923c-.268.016-.506.33-.49.66.011.217.146.362.355.35.268-.016.513-.345.497-.66-.01-.217-.168-.361-.362-.35Z"/></svg>