<svg version="1.1" id="Layer_1" xmlns="http://www.w3.org/2000/svg" x="0" y="0" viewBox="0 0 99 37.7" style="enable-background:new 0 0 99 37.7" xml:space="preserve"><style>.st0{fill:#231f20}</style><path class="st0" d="M14 18.7c0 2.5-2 4.5-4.5 4.5S5 21.2 5 18.7s2-4.5 4.5-4.5H14v4.5zM19 .2h-5v9.1H9.5C4.3 9.3.1 13.5.1 18.7s4.2 9.4 9.4 9.4 9.4-4.2 9.4-9.4V9.3L19 .2zM68.7 23.2c2.5 0 4.5-2 4.5-4.5s-2-4.5-4.5-4.5-4.5 2-4.5 4.5c.1 2.5 2.1 4.5 4.5 4.5m-9.3-4.5c0-5.2 4.2-9.4 9.4-9.4s9.4 4.2 9.4 9.4-4.2 9.4-9.4 9.4-9.4-4.2-9.4-9.4M93.9 18.7c0-2.4-2-4.4-4.4-4.4-2.4 0-4.4 2-4.4 4.4v9h-4.9v-9c0-5.2 4.2-9.4 9.4-9.4s9.4 4.2 9.4 9.4v9h-4.9c-.2 0-.2-7.8-.2-9M47.9 15.5c-.7-.5-.5-1.3.7-1.6 1.5-.4 4.1-.1 6.3.9l2.3-3.2c-1-.8-3.2-1.9-6.4-2.1 0 0-5.4-.7-7.6 3.4 0 0-1.9 3.8 1.9 6.2 2.3 1.4 6.3 2 7.6 2.6 1 .6.7 1.7-.8 2-2.6.6-6-.9-7.1-1.7l-2.4 3.3c1.6 1.2 3.6 2.3 6.8 2.8 0 0 5.1.9 7.9-2.6.5-.6 2.8-4.9-1.8-7.4-2.4-1.3-6.2-1.9-7.4-2.6M24.9 31.3c.2.1 2.5 1.7 4.7 1.7 5.4.1 5.7-5.5 5.7-6.8-1 1.1-3.1 1.8-4.4 1.8-5.2 0-9.3-4-9.3-9.2V9.7h4.9v9.1c0 2.4 2 4.4 4.4 4.4 2.4 0 4.4-2 4.4-4.4V9.7h4.9v9.1c0 8.1.4 16.4-7.5 18.3-5.9 1.4-10.1-2.3-10.4-2.5l2.6-3.3z"/></svg>