<svg xmlns="http://www.w3.org/2000/svg" width="234" height="60" viewBox="0 0 117 30">
  <metadata><?xpacket begin="﻿" id="W5M0MpCehiHzreSzNTczkc9d"?>
<x:xmpmeta xmlns:x="adobe:ns:meta/" x:xmptk="Adobe XMP Core 5.6-c140 79.160451, 2017/05/06-01:08:21        ">
   <rdf:RDF xmlns:rdf="http://www.w3.org/1999/02/22-rdf-syntax-ns#">
      <rdf:Description rdf:about=""/>
   </rdf:RDF>
</x:xmpmeta>
                                                                                                    
                                                                                                    
                                                                                                    
                                                                                                    
                                                                                                    
                                                                                                    
                                                                                                    
                                                                                                    
                                                                                                    
                                                                                                    
                                                                                                    
                                                                                                    
                                                                                                    
                                                                                                    
                                                                                                    
                                                                                                    
                                                                                                    
                                                                                                    
                                                                                                    
                                                                                                    
                           
<?xpacket end="w"?></metadata>
<defs>
    <style>
      .cls-1 {
        fill: #1890ff;
        fill-rule: evenodd;
      }
    </style>
  </defs>
  <path id="形状_1" data-name="形状 1" class="cls-1" d="M528.621,46.722h-1.1a0.693,0.693,0,0,0-.688.7v2.206a0.693,0.693,0,0,0,.688.7h2.19a0.692,0.692,0,0,0,.688-0.7v-1.1A1.794,1.794,0,0,0,528.621,46.722Zm-20.693,1.985h-2.846v-1.29a0.693,0.693,0,0,0-.688-0.7h-2.422a0.693,0.693,0,0,0-.689.7v4.121a0.763,0.763,0,0,0,.689.773h3.7a0.7,0.7,0,0,1,.687.685v3.879a0.693,0.693,0,0,0,.688.7h1.979a0.693,0.693,0,0,0,.688-0.7V50.508A1.794,1.794,0,0,0,507.928,48.707ZM507.14,71.682h-1.5a0.565,0.565,0,0,1-.561-0.566V54.629a0.693,0.693,0,0,0-.688-0.7h-2.187a0.693,0.693,0,0,0-.689.7V72.008a3.263,3.263,0,0,0,3.242,3.277h2.38a0.693,0.693,0,0,0,.688-0.7V72.378A0.693,0.693,0,0,0,507.14,71.682Zm50.395-10.526,0.078-.008,0.075-.011A1.729,1.729,0,0,0,558.109,61l0.067-.033a1.745,1.745,0,0,0,.411-0.295c0.032-.031.063-0.062,0.093-0.1l10.407-12.327,0.007-.008a0.684,0.684,0,0,0-.5-1.14h-2.64c-0.05,0-.1,0-0.149.007l-0.078.008-0.075.012a1.724,1.724,0,0,0-.422.133l-0.066.032a1.758,1.758,0,0,0-.411.295c-0.007.007-10.334,12.205-10.5,12.422a0.684,0.684,0,0,0,.493,1.15h2.64C557.436,61.163,557.486,61.16,557.535,61.156ZM555.9,49.179V48.534a1.8,1.8,0,0,0-1.074-1.652l-0.015-.008c-0.043-.019-0.088-0.034-0.133-0.049l-0.031-.011c-0.034-.011-0.07-0.019-0.105-0.028s-0.043-.013-0.066-0.017-0.051-.008-0.076-0.012-0.067-.012-0.1-0.016l-0.054,0c-0.042,0-.084-0.007-0.127-0.007H554.08l-21.106-.017a0.725,0.725,0,0,0-.72.727v1.465a1.352,1.352,0,0,0,.711,1.219,1.943,1.943,0,0,0,.658.163V50.3h0.1l0.057,0.005H534c0.04,0,.078,0,0.119,0l15.7,0.022a0.215,0.215,0,0,1,.163.354l-5.887,7.3a1.9,1.9,0,0,0-.473,1.257V70.972a0.6,0.6,0,0,1-.6.6h-4.985a1.394,1.394,0,0,0-1.382,1.4V74.61a0.666,0.666,0,0,0,.719.656h6.578a3.433,3.433,0,0,0,3.41-3.448V60.6a1.682,1.682,0,0,1,.417-1.11s7.838-9.27,7.925-9.371A1.564,1.564,0,0,0,555.9,49.179Zm27.1,22.7V67.84c0-.006,0-0.012,0-0.018V67.376a1.394,1.394,0,0,0-1.382-1.4h-1.592a0.713,0.713,0,0,0-.708.717v0.68h0V70.97a0.588,0.588,0,0,1-.584.591h-17.7a0.213,0.213,0,0,1-.2-0.215,0.218,0.218,0,0,1,.048-0.137l18.757-22.352,0.007-.008a0.684,0.684,0,0,0-.5-1.139h-2.946c-0.05,0-.1,0-0.149.007l-0.078.009-0.075.011a1.7,1.7,0,0,0-.422.133L575.4,47.9a1.749,1.749,0,0,0-.411.294c-0.032.031-.063,0.063-0.093,0.1L555.238,71.615a1.508,1.508,0,0,0-.433.935v0.933a1.794,1.794,0,0,0,1.782,1.8h23.06A3.376,3.376,0,0,0,583,71.9,0.059,0.059,0,0,0,583,71.882Zm-52.6,1.129a1.326,1.326,0,0,0-1.315-1.33H525.69a0.658,0.658,0,0,1-.646-0.657V65.656h4.78a0.582,0.582,0,0,0,.579-0.586V62.638a0.582,0.582,0,0,0-.579-0.586h-4.78V57.537h4.662a0.693,0.693,0,0,0,.689-0.7V54.629a0.693,0.693,0,0,0-.689-0.7h-4.662V47.418a0.692,0.692,0,0,0-.688-0.7h-2.187a0.693,0.693,0,0,0-.688.7v6.516h-4.27V50.325h1.42a0.693,0.693,0,0,0,.689-0.7V47.418a0.693,0.693,0,0,0-.689-0.7h-7.114a0.692,0.692,0,0,0-.688.7V49.63a0.692,0.692,0,0,0,.688.7h2.13v3.608h-2.13a0.692,0.692,0,0,0-.688.7v2.212a0.692,0.692,0,0,0,.688.7h2.13v4.515h-2.239a0.582,0.582,0,0,0-.579.586V65.07a0.582,0.582,0,0,0,.579.586h2.239v5.438a0.564,0.564,0,0,1-.56.567h-1.57a0.692,0.692,0,0,0-.688.7v2.211a0.692,0.692,0,0,0,.688.7h2.453a3.263,3.263,0,0,0,3.241-3.277V65.656h1.474a0.583,0.583,0,0,0,.579-0.586V62.638a0.583,0.583,0,0,0-.579-0.586H517.21V57.537h4.27V71.831a3.307,3.307,0,0,0,3.241,3.455l4.994,0a0.693,0.693,0,0,0,.688-0.7ZM472.767,48.4A15.121,15.121,0,0,0,468.4,69.181,14.755,14.755,0,0,0,488.947,73.6q0.6-.393,1.145-0.833h0a0.835,0.835,0,0,0,.174-1.094v0L489.578,70.6a2.13,2.13,0,0,0-2.953-.645l-0.013.008-0.012.009A10.5,10.5,0,0,1,472,66.82,10.757,10.757,0,0,1,475.1,52.039a10.479,10.479,0,0,1,12.459.7,0.848,0.848,0,0,1,.157.18,0.835,0.835,0,0,1-.241,1.146l-8.847,5.809a2.183,2.183,0,0,0-.63,3L478.722,64a0.814,0.814,0,0,0,1.133.244l13.886-9.119a0.832,0.832,0,0,0,.288-1.062c0-.011-0.011-0.022-0.017-0.033q-0.317-.613-0.7-1.206A14.756,14.756,0,0,0,472.767,48.4Zm20.725,12.159-2.781,1.826a0.835,0.835,0,0,0-.241,1.146l1.806,2.812a0.814,0.814,0,0,0,1.133.244l1.391-.913a2.522,2.522,0,0,0,.728-3.465l-0.9-1.406A0.813,0.813,0,0,0,493.492,60.562Z" transform="translate(-466 -46)"/>
</svg>
