<svg viewBox="0 0 24 24" xmlns="http://www.w3.org/2000/svg"><path d="M5.451 1.93C-.056 5.58-1.61 12.979 1.961 18.537A11.79 11.79 0 0 0 19.296 21.4c.26-.214.32-.59.139-.874l-.55-.857a1.702 1.702 0 0 0-2.36-.516l-.01.007-.01.007a8.39 8.39 0 0 1-11.666-2.519A8.595 8.595 0 0 1 7.315 4.84a8.373 8.373 0 0 1 9.956.559.667.667 0 0 1-.067 1.06l-7.07 4.641a1.744 1.744 0 0 0-.503 2.397l.579.9a.65.65 0 0 0 .905.195L22.21 7.305a.665.665 0 0 0 .23-.85c0-.008-.008-.017-.013-.025a11.567 11.567 0 0 0-.56-.964A11.79 11.79 0 0 0 5.452 1.93Zm16.56 9.716-2.222 1.46a.667.667 0 0 0-.192.915l1.443 2.247a.651.651 0 0 0 .905.195l1.112-.73a2.015 2.015 0 0 0 .581-2.768l-.719-1.123a.65.65 0 0 0-.908-.193v-.002Z" fill="#1890ff"/></svg>