<svg viewBox="0 0 24 24" xmlns="http://www.w3.org/2000/svg"><path d="M13.372 9.578c.888 0 1.13.525 1.063 1.104-.014.107-.027.255-.027.255H5.004s.027-.188.054-.403c.068-.565.538-.956 1.265-.956h7.05Zm.969 1.884s-.027.188-.054.404c-.054.417-.363.726-.928.726h-2.005l-.215 1.83H9.552l.363-2.96h4.426ZM.59 9.578h4.265l-.16 1.36H.43l.162-1.36Zm-.228 1.87h4.265l-.135 1.13H1.816l-.067.552h2.664l-.148 1.291H0l.363-2.973Zm14.53-1.87h3.47c.552 0 1.117.256 1.01 1.144a1.628 1.628 0 0 1-.028.215h-4.614l.161-1.359Zm-.593 4.844.364-2.96h1.587l-.363 2.96H14.3Zm3.027 0 .364-2.96h1.6l-.363 2.96h-1.6Zm-8.879-2.96c.498 0 1.13.215 1.01 1.143-.028.162-.095.915-.189 1.13-.269.66-1.063.673-1.17.687H4.587l.162-1.292h3.094l.067-.552H5.758c-.538 0-.928-.35-.807-1.13.538 0 3.215.014 3.497.014Z"/><path d="m22.843 11.502.148-1.224h-1.238l-.148 1.224h-1.157l-.134 1.211h1.157l-.148 1.251h1.238l.148-1.251h1.157l.134-1.21h-1.157Z" fill="#f9b300"/></svg>