<?xml version="1.0" encoding="utf-8"?>
<!-- Generator: Adobe Illustrator 22.1.0, SVG Export Plug-In . SVG Version: 6.00 Build 0)  -->
<svg version="1.1" id="Layer_1" xmlns="http://www.w3.org/2000/svg" xmlns:xlink="http://www.w3.org/1999/xlink" x="0px" y="0px"
	 viewBox="0 0 187.1 112.1" width="408.53953237" height="244.774353708" style="enable-background:new 0 0 187.1 112.1;" xml:space="preserve">
<style type="text/css">
	.st0{fill:#003471;}
</style>
<title>Asset 1</title>
<g id="Layer_2_1_">
	<g id="Layer_1-2">
		<path class="st0" d="M60.7,52.4c0.8,0,1.7,0,2.5-0.2c-0.2,2.5-0.2,5.1-0.4,11.1v7.6c0,4.7,0.4,7.6,0.8,8.8c1.6,3.7,4.9,7.2,10.7,7
			c5.1-0.2,8.6-1.8,10.7-6c1.4-2.9,1.6-4.9,1.8-12.3v-4.7c-0.2-4.1-0.4-6.8-0.6-11.5c0.6,0.1,1.2,0.2,1.8,0.2c0.6,0,1.2,0,1.8-0.2
			c-0.2,1.6-0.4,10.5-0.4,10.5v5.6c0,7.4-0.4,9-1.2,11.5c-0.5,1.9-1.6,3.6-3.1,4.9c-2.5,2.9-6.6,4.3-11.5,4.3
			c-4.5,0-8.8-1.2-11.3-3.5c-2.7-2.7-3.7-5.1-3.7-10.7V62.3c0-3.7-0.4-8-0.6-10.1C58.9,52.4,59.8,52.5,60.7,52.4z"/>
		<path class="st0" d="M39.7,51c0,0,1.4,3.7,2.7,6.6c2.1,4.1,5.3,11.7,6.6,14.8c1.2,2.9,4.5,9.9,4.5,9.9l2.9,6.2
			c-1,0-1.8-0.2-2.9-0.2c-1,0-1.9,0-2.9,0.2l-2.1-5.3c-0.4-1.4-1-2.8-1.7-4.1c-0.6-1.8-1.4-3.5-2.3-5.1H30.8
			c-0.2,0.6-1.2,3.1-1.9,4.9c-1.4,3.2-2.6,6.5-3.5,9.9c-0.6-0.2-1.2-0.4-1.9-0.4c-0.6,0-1.2,0-1.9,0.2c0,0,1-2.7,2.3-5.1
			c1.6-3.7,3.9-8.6,5.8-12.7c1.4-3.3,8.6-19.2,8.6-19.6H39.7z M36.6,60.8c-0.8,1.7-4.9,10.9-4.9,10.9h12.1c0,0-2.1-4.8-3.3-7.8
			c-1.8-4.1-2.7-5.8-2.7-5.5C37.5,59.2,37.1,60.1,36.6,60.8z"/>
		<path class="st0" d="M100.1,52.6h2.7l4.1-0.2l3.5-0.2h1c7,0,10.1,0.8,13.6,4.1c3.5,3.3,5.4,7.9,5.3,12.8c0,5.9-2.6,11.5-7.2,15.2
			c-3.7,3.1-7.8,4.1-17.1,3.9h-7.2c-1,0-1.9,0.1-2.9,0.2c0.2-0.8,0.4-8.6,0.4-10.5v-9c0-2.1,0-7.6-0.2-10.7c0-1.8-0.2-5.8-0.2-5.8
			C97.4,52.6,98.7,52.7,100.1,52.6L100.1,52.6z M107.1,86.4c1.9,0.1,3.8,0,5.8-0.2c2.9-0.3,5.6-1.7,7.6-3.9
			c3.1-2.9,4.5-7.4,4.5-12.6c-0.2-5.3-1.4-10.3-5.1-13c-2.9-2-4.5-2.5-10.3-2.7c-2.8,0-5.6,0.2-8.4,0.6l-0.4,0.2
			c0,1-0.2,6.2-0.2,10.1v15.6c0.2,2.5,0.2,3.9,0.4,5.6C103,86.4,105.1,86.5,107.1,86.4z"/>
		<path class="st0" d="M135.9,52.2c4.9,0.2,7,0.2,9.3,0.2h9c0,0.4-0.2,1-0.2,1.4s0,1.4,0.2,1.4c-1.2-0.2-2.5-0.2-4.3-0.4
			c-4.9-0.2-6.2-0.2-7.8-0.2h-2v6.4c-0.2,1.1-0.3,2.2-0.2,3.3c0,1.8,0.2,3.7,0.2,3.7h8.8c1.4-0.1,2.7-0.2,4.1-0.2
			c-0.2,0-0.2,0.6-0.2,1.4c0,0.6,0.2,1.4,0,1.4c-1.9-0.2-6-0.4-9.2-0.4H140v7.6c0,2,0.2,3.5,0.2,3.7c0,1.4,0,2.9,0.2,4.3l0,0
			c0.5,0.2,1.1,0.2,1.6,0.2c4.2-0.1,8.4-0.5,12.5-1c-0.1,0.5-0.2,1-0.2,1.4v1.6H140c-1.6-0.1-3.3,0-4.9,0.2c0.2,0,0.6-4.3,0.6-7.2
			v-4.5l0.2-6.6c0,0-0.4-15.8-0.6-17.9H135.9z"/>
		<path class="st0" d="M7.4,86.1h2.7c1.4,0.1,2.9,0,4.3-0.2c2.9,0,4.9-0.4,5.5-0.4v2.9h-1.2c-1.4,0-2.9-0.1-4.3-0.2H4.5
			c-2.9,0-4.3,0.2-4.5,0.2c0.2-1.8,0.6-11.1,0.6-17.9S0,52.2,0,52.2c0.8,0,1.9,0.2,2.7,0.2s2.7-0.2,2.7-0.2
			c-0.5,5.3-0.7,10.5-0.6,15.8c0,0,0,13.2,0.2,17.1l0.2,0.8C5.1,86.1,6.1,86.1,7.4,86.1z"/>
		<path class="st0" d="M165.3,70.9v6.4l0.2,5.1l0.2,5.6v0.4c-0.9-0.1-1.8-0.2-2.7-0.2c-0.8,0-1.7,0-2.5,0.2l0.2-5.6
			c0.2-4.1,0.2-7.8,0.2-14.2c0-4.1,0-6.2-0.2-10.9c0-1.8-0.2-5.3-0.2-5.3c1.3,0.2,2.6,0.2,3.9,0.2c1,0,2.7-0.2,4.1-0.2
			c2.5-0.2,4.1-0.2,4.5-0.2c8.6,0,11.1,4.1,11.1,8.2c0,4.9-4.3,8.6-11.5,10.1v0.2l3.9,4.7l3.5,4.3l3.9,4.9c1.6,2.1,2.1,2.9,3.1,3.9
			h-5.8L175,80c-1.6-2.3-7.2-9-7.4-9L165.3,70.9z M168.2,69.1c4.1,0,5.6-0.6,7.4-1.7c2.4-1.3,3.8-3.9,3.7-6.6
			c-0.2-3.9-2.5-6.8-8.6-6.8c-1.8,0-3.6,0.2-5.4,0.6v14.2C166.2,69.1,167.2,69.1,168.2,69.1L168.2,69.1z"/>
		<path class="st0" d="M35.2,7.2C30.6,7.4,28,9.9,28,13.8c0,2.7,1.6,5.1,4.1,6.2c1.2,0.4,3.1,1.4,4.9,2.1c6,1.9,8.4,4.7,8.4,9
			c0,6.8-5.8,11.7-13,11.7c-3.3,0.1-6.5-1-9-3.1c0,0,0.6-2.9,0.8-4.1c0,0,3.7,5.8,9,5.5c4.4,0.2,8.1-3.3,8.2-7.7c0-0.1,0-0.2,0-0.3
			c0-3.7-2.3-6-7.6-7.8s-7.6-3.9-8.6-5.6c-0.8-1.4-1.2-2.9-1.2-4.5c0-5.8,4.7-9.9,11.5-9.9c5.5,0,8.2,2.7,8.2,2.7
			c-0.6,1.3-1.1,2.7-1.4,4.1C42.4,12.1,40.3,7.2,35.2,7.2z"/>
		<path class="st0" d="M63.3,8.8l-0.2,6L62.9,22c-0.1,2.4-0.1,4.8,0,7.2c-0.1,4.4,0.1,8.8,0.4,13.2c0,0-1.6-0.2-2.7-0.2
			c-0.8,0-1.7,0.1-2.5,0.2c0.2-2.9,0.4-6,0.4-13V14.8c0,0-0.2-4.5-0.2-6l0,0L52.6,9c-1.9,0-3.9,0.1-5.8,0.4c0-0.6,0.1-1.1,0.2-1.7
			c0-0.5-0.1-1-0.2-1.4C47.3,6.5,60,6.5,60,6.5h1.7c4.5,0,12.7-0.2,12.7-0.2v1.5c0,0.6,0.1,1.1,0.2,1.7c-2.5-0.4-3.9-0.4-6.4-0.6
			H63.3z"/>
		<path class="st0" d="M0.8,6.4c4.9,0.2,6.8,0.2,9.2,0.2c1.4,0,7.4,0,8.4-0.2h0.6c0,0.4-0.2,1-0.2,1.4v1.4c-1.4,0-2.7,0-4.1-0.2
			C9.9,8.8,8.4,8.8,7,8.8H4.9v0.6l-0.2,5.8V22c0,0.1,0.1,0.2,0.2,0.2h0h4.9c0.6,0,1.6,0,3.9-0.2h3.9v2.7c-2.1,0-6-0.2-9.5-0.4
			c-1.1,0-2.2,0-3.3,0.2H4.7V28l0.2,4.1v3.7c0,0.8,0.2,2.7,0.2,4.1l0.2,0.2H7c4.3,0,10.5-0.6,12.5-0.8c-0.1,0.5-0.2,1-0.2,1.4v1.6
			h-4.5l-3.5-0.2l-6.6,0.2H0c0,0,0.4-4.1,0.4-7l0.2-4.5v-6.6c0,0-0.2-15.8-0.4-17.9H0.8z"/>
		<polygon class="st0" points="79.2,2.3 98.3,2.3 98.3,0 79.2,0 79.2,2.3 		"/>
		<path class="st0" d="M80,6.4c4.9,0.2,7,0.2,9.3,0.2c1.4,0,7.6,0,8.4-0.2h0.8c-0.2,0.5-0.2,1-0.2,1.4v1.4c-1.4,0-2.9,0-4.3-0.2
			c-4.7-0.2-6.2-0.2-7.8-0.2h-2v13.4h5.1c0.6,0,1.4,0,3.9-0.2H97c0,0.4-0.1,0.8-0.2,1.2c0,0.5,0.1,1,0.2,1.4c-2.1,0-6-0.2-9.5-0.4
			c-1.2,0-2.3,0-3.5,0.2l0,0V28l0.2,4.1v3.7c0,0.8,0.2,2.7,0.2,4.1v0.2h1.8c4.1,0,10.5-0.6,12.3-0.8c-0.1,0.5-0.2,1-0.2,1.4
			c0,0.6,0,1.1,0.2,1.6h-4.5l-3.5-0.2l-6.6,0.2h-4.7c0,0,0.4-4.1,0.4-7v-4.5l0.2-6.6c0,0-0.2-15.8-0.6-17.9L80,6.4z"/>
		<path class="st0" d="M105.1,6.4c4.9,0.2,7,0.2,9.2,0.2c1.4,0,7.6,0,8.4-0.2h0.8c-0.2,0.5-0.2,1-0.2,1.4v1.4c-1.4,0-2.9,0-4.3-0.2
			c-4.7-0.2-6.2-0.2-7.8-0.2h-2v13.4h5.1c0.6,0,1.4,0,3.9-0.2h3.9c0,0.4-0.1,0.8-0.2,1.2c0,0.5,0.1,1,0.2,1.4c-2.1,0-6-0.2-9.5-0.4
			c-1.2,0-2.3,0-3.5,0.2l0,0V28l0.2,4.1v3.7c0,0.8,0.2,2.7,0.2,4.1v0.2h1.8c4.1,0,10.5-0.6,12.3-0.8c-0.1,0.5-0.2,1-0.2,1.4
			c0,0.6,0,1.1,0.2,1.6h-4.5l-3.5-0.2l-6.6,0.2h-4.7c0,0,0.4-4.1,0.4-7v-4.5l0.2-6.6c0,0-0.2-15.8-0.6-17.9L105.1,6.4z"/>
		<path class="st0" d="M12.8,109.4l-0.4,1.4c-1.4,0.9-3.1,1.3-4.7,1.2c-4.7,0-7.6-2.9-7.6-7.6c0-2.1,0.8-4.2,2.3-5.8
			c1.7-1.3,3.8-2,6-1.8c1.6-0.1,3.1,0.2,4.5,0.8c-0.2,0.5-0.4,1.1-0.4,1.6h-0.2c-1.1-1.1-2.6-1.7-4.2-1.6c-1.7-0.1-3.4,0.7-4.5,2
			c-1,1.4-1.5,3-1.4,4.7c-0.1,1.8,0.5,3.5,1.6,4.9c1,1.2,2.5,1.9,4.1,1.8c1.8,0,3.4-0.6,4.7-1.8L12.8,109.4z"/>
		<path class="st0" d="M38.9,104.4c0,4.7-3.1,7.6-8,7.6c-5.1,0-8.2-2.9-8.2-7.6s3.1-7.6,8.2-7.6C35.8,96.8,38.9,99.7,38.9,104.4z
			 M26.1,99.7c-0.9,1.4-1.3,3.1-1.2,4.7c-0.1,1.6,0.3,3.2,1.2,4.6c1,1.6,2.8,2.5,4.7,2.5c1.8,0,3.5-0.9,4.5-2.5
			c0.9-1.3,1.3-2.9,1.2-4.5c0.1-1.7-0.4-3.3-1.2-4.7c-1-1.5-2.7-2.3-4.5-2.3C29,97.4,27.2,98.3,26.1,99.7L26.1,99.7z"/>
		<path class="st0" d="M52.2,96.8c0.2,0.4,0.2,0.4,0.6,1.2c0.4,0.6,0.6,1.2,1,1.8l0.4,1c1.4,2.5,1,2.1,2,3.7
			c0.6,1.3,1.3,2.5,2.1,3.7l0,0c0.5-0.9,1.1-1.8,1.7-2.7c0.4-1,0.9-2,1.4-2.9l0.4-1l0.6-0.8l0.6-1c0.4-0.9,0.9-1.8,1.4-2.7l0.2-0.4
			H65c0.2,0.4,0.2,0.2,0.2,1.2c0.1,1,0.2,2.1,0.4,3.1v0.8l0.2,0.8v1.6c0.2,0.7,0.3,1.5,0.4,2.3v0.8l0.2,1.7c0.2,1.2,0.2,1.8,0.4,2.7
			c-0.3-0.1-0.7-0.2-1-0.2c-0.3,0-0.7,0.1-1,0.2c0-1,0-2.1-0.2-3.1c-0.2-3.3-0.2-3.3-0.8-8c-0.5,0.6-0.9,1.3-1.2,2.1
			c-0.2,0.4,0,0-0.8,1.6c-0.4,0.9-0.9,1.7-1.4,2.5c-1.4,2.9-1.8,3.5-2.3,4.5h-0.2c-0.2-0.4-0.2-0.4-0.8-1.8
			c-0.2-0.4,0.4,0.6-1.7-3.3c-0.4-0.9-0.8-1.7-1.4-2.5l-0.4-0.8l-0.4-0.8l-0.4-0.8l-0.2-0.2l0,0V101c-0.4,1.9-0.7,3.8-0.8,5.8
			c-0.2,2.9-0.2,3.7-0.4,5.1c-0.4-0.3-1-0.3-1.4,0c0.2-0.8,0.2-1.4,0.4-2.5c0.6-3.7,0.4-2.7,0.4-3.3c0.2-0.5,0.2-0.9,0.2-1.4
			l0.2-0.8c0.4-2.5,0.2-1.2,0.6-3.7c0.2-2.1,0.2-2.1,0.4-3.3L52.2,96.8z"/>
		<path class="st0" d="M80.8,105.5v5.1c0.2,0.4,0.2,0.8,0.2,1.2c-0.3-0.1-0.7-0.2-1-0.2c-0.4,0-0.8,0.1-1.2,0.2
			c0.2-0.9,0.2-1.8,0.2-2.7c0-1.4,0.2-3.9,0.2-4.9c0-2-0.2-3.5-0.2-4.9c0-0.8-0.1-1.5-0.2-2.3c0.6,0.2,1.2,0.2,1.8,0.2
			c0.6,0,1.1-0.1,1.7-0.2h1.2c3.3,0,4.9,1.2,4.9,3.7c-0.1,1.4-0.7,2.7-1.8,3.5c-1.3,0.6-2.8,0.9-4.3,0.8h-1.4V105.5L80.8,105.5z
			 M80.8,104.2h1c3.1,0,4.5-1.2,4.5-3.5c0-1.8-1.2-2.9-3.7-2.9c-0.6,0-1.1,0-1.7,0.2c-0.1,0.5-0.2,1-0.2,1.4L80.8,104.2L80.8,104.2z
			"/>
		<path class="st0" d="M103.2,96.8c0.2,0.6,0,0,0.6,1.7c0.3,0.8,0.6,1.5,1,2.3c2.1,4.7,1.4,3.3,2.1,4.9l0.4,1.2
			c1.2,2.3,0.8,1.6,1,2.3c0.6,1.4,0.8,1.4,1.2,2.7c-0.3-0.2-0.7-0.2-1-0.2c-0.4,0-0.8,0-1.2,0.2c-0.2-1-0.5-2-1-2.9
			c-0.3-1-0.7-2-1.2-2.9h-5.3c-1,2.5-1,2.3-2.3,5.8c-0.2-0.2-0.4-0.2-0.6-0.2c-0.3,0-0.6,0.1-0.8,0.2c0.4-1,0.8-1.8,1.6-3.7
			c0.6-1.2,1-2.5,1.7-3.7c0.8-1.8,1.4-3.1,1.6-3.7c0.5-0.7,0.8-1.5,1-2.3c0.3-0.4,0.5-0.8,0.6-1.2l0,0l0.2-0.2v-0.2L103.2,96.8z
			 M100.1,105.1h4.7c-0.2-0.3-0.4-0.7-0.6-1c-1-2.7-0.6-1.8-1-2.5c-0.2-0.6-0.5-1.3-0.8-1.8L100.1,105.1L100.1,105.1z"/>
		<path class="st0" d="M120.1,96.8l0.2,0.2c0.7,0.6,1.3,1.2,1.8,1.8c0.6,0.8,1.3,1.6,2.1,2.3l0.6,0.8l0.8,0.6l0.6,0.8
			c0.8,0.7,1.6,1.6,2.3,2.5l2.3,2.3v-0.2c0.2-0.4,0,0.2,0.2-1.8v-2.7c0-1.7,0-3.4-0.2-5.1V97c0.2,0.1,0.5,0.2,0.8,0.2
			c0.2,0,0.4,0,0.6-0.2v1.8c-0.2,1.3-0.2,2.6-0.2,3.9c-0.2,1.6-0.2,3.3-0.2,4.9v3.1c0,0.4,0.1,0.8,0.2,1.2h-0.4
			c-0.9-1.2-1.8-2.3-2.9-3.3c-1-1-2.1-2.5-3.1-3.3c-0.4-0.6,0.2,0.2-2.1-2.3l-1.4-1.4c-1.4-1.7-1-1.2-1.2-1.2l-0.2-0.2l0,0v5.6
			c0,1.5,0,3,0.2,4.5v1.4c-0.2-0.2-0.4-0.2-0.8-0.2c-0.2,0-0.4,0-0.6,0.2c0-0.9,0-1.8,0.2-2.7v-4.9l0.2-0.8v-6.5H120.1z"/>
		<path class="st0" d="M145.8,97.2c0.3,0,0.7,0,1-0.2c0,0.8,0,1.7-0.2,2.5v9.7c0,1,0.2,1.6,0.2,2.7c-0.3-0.1-0.7-0.2-1-0.2
			c-0.3,0-0.7,0-1,0.2v-2.7c0-0.8,0.1-1.7,0.2-2.5v-3.3c0-1.3,0-2.6-0.2-3.9V97C145.1,97.2,145.4,97.2,145.8,97.2L145.8,97.2z"/>
		<path class="st0" d="M162.6,111.6h-2.3c-0.5-0.1-1,0-1.4,0.2c0-1,0.2-2.1,0.2-4.1v-8.2c0.1-0.8,0-1.7-0.2-2.5
			c0.6,0,0.8,0.2,1.6,0.2h4.7c0.8,0,0.8-0.2,1.2-0.2v1.2h-1.6c-0.4,0-1-0.2-1.9-0.2h-2v3.5c-0.2,1.2-0.2,0.8,0,0.8
			c-0.2,0.4-0.2,0.4-0.2,0.6s0,0.4,0.2,0.4c0.2,0.2,0.5,0.2,0.8,0.2c0.5,0,1-0.1,1.4-0.2h2.9v1.2c-1.2-0.2-2.5-0.3-3.7-0.2h-1.6
			c0.1,0.1,0.2,0.3,0.2,0.4l-0.2,1.7c0,0.7,0.1,1.3,0.2,2v2.1c0.2,0.1,0.5,0.2,0.8,0.2c0.6,0,1.2-0.1,1.9-0.2c1,0.1,2.1,0,3.1-0.2
			v1.4h-0.2v-0.2L162.6,111.6L162.6,111.6z"/>
		<path class="st0" d="M183.2,99.5c-0.4-1.1-1.5-1.8-2.7-1.8c-1.3-0.1-2.5,0.8-2.7,2.2c0,0.1,0,0.2,0,0.3c-0.1,0.8,0.2,1.6,0.8,2.1
			c0.8,0.5,1.6,0.9,2.5,1.2c0.9,0.3,1.8,0.8,2.5,1.4c0.6,0.6,1,1.4,1,2.3c0,2.9-2.3,4.9-5.4,4.9c-1.3,0-2.5-0.4-3.5-1.2
			c0.2-0.6,0.3-1.2,0.4-1.8h0.2c0.6,1.2,1.9,2,3.3,2.1c1.6,0.1,3-1.1,3.1-2.7c0-0.1,0-0.2,0-0.2c0-0.7-0.2-1.5-0.6-2.1
			c-0.8-0.5-1.6-0.9-2.5-1.2c-2.7-1-3.5-2-3.5-4.1c0-1.1,0.4-2.1,1.2-2.9c1-0.7,2.1-1,3.3-1c1.2-0.1,2.4,0.3,3.3,1
			c-0.4,0.5-0.6,1-0.6,1.7L183.2,99.5z"/>
	</g>
</g>
</svg>
