<svg viewBox="0 0 24 24" xmlns="http://www.w3.org/2000/svg"><path d="M.006 4.591c-.002 0-.002.006-.002.01-.005 3.46-.005 6.94.001 10.4.004 0 .004.004.01.002H2.92l.002-.006c0-1.127-.005-2.232-.006-3.359.95-.006 1.913 0 2.868-.002v-2.84c-.949-.002-1.905.005-2.847-.003.004-.438-.008-.92.006-1.355h3.487c-.063-.949-.126-1.897-.192-2.844-.001-.003-.002-.003-.006-.003H.006Zm14.799.016c-.007 0 0 .01.002.01.96 1.67 1.928 3.333 2.882 5.008-.898 1.558-1.78 3.136-2.677 4.692-.129.223-.257.445-.378.672 1.066-.003 2.13.005 3.206.002.479-.872.946-1.757 1.426-2.627l1.351 2.46c.016.027.071.16.101.16H24c-1.026-1.797-2.078-3.598-3.111-5.4.929-1.646 1.882-3.295 2.812-4.938.006-.01.015-.025.013-.038h-3.187c-.41.744-.811 1.498-1.226 2.238-.399-.747-.794-1.497-1.199-2.238h-3.297Zm-3.485.14c-.05 0-.098.002-.147.004h-.007c-.4 0-.77.057-1.105.14a4.919 4.919 0 0 0-2.65 1.716A5.087 5.087 0 0 0 6.41 8.735a5.2 5.2 0 0 0 .337 3.19c.387.86.957 1.542 1.687 2.058.731.515 1.634.89 2.857.89.782 0 1.46-.208 2.022-.473.282-.133.537-.292.78-.466a4.687 4.687 0 0 0 1.22-1.28c.496-.746.853-1.664.853-2.903 0-.396-.049-.774-.133-1.117-.167-.674-.424-1.252-.766-1.733-.52-.735-1.165-1.323-2.031-1.716a4.782 4.782 0 0 0-1.916-.437Zm-.077 2.082a.862.862 0 0 1 .621.278c.079.08.146.18.19.288.047.118.065.245.065.409v3.812c0 .167.01.33-.022.456a.858.858 0 0 1-.763.658.82.82 0 0 1-.686-.25.846.846 0 0 1-.233-.482c-.01-.07-.007-.15-.007-.23V7.954c0-.165-.002-.324.029-.45a.89.89 0 0 1 .393-.554.766.766 0 0 1 .413-.122Zm-9.375 9.02c-.78 0-1.376.352-1.687 1.004-.106.222-.132.338-.149.648-.048.91.448 1.624 1.286 1.845a2.35 2.35 0 0 0 1.135-.016c.288-.087.718-.355.729-.453l-.529-.546-.093.084c-.372.334-1.02.317-1.355-.036-.387-.407-.348-1.21.076-1.567.357-.3.922-.306 1.238-.015l.096.088.561-.555-.163-.14c-.229-.198-.563-.311-.986-.336a2.68 2.68 0 0 0-.159-.005Zm1.657.002v3.558h.835v-1.5h1.337v1.5h.835V15.85h-.835v1.329H4.36v-1.33h-.835Zm4.745 0-1.444 3.558h.892l.246-.667h1.359l.252.667h.932l-1.44-3.558H8.27Zm2.619 0v3.558h.844l.023-2.294 1.461 2.294h1.008V15.85h-.844l.002 2.32-1.493-2.32H10.89Zm3.882 0v3.558h.857l.024-2.294 1.485 2.294h1.024V15.85h-.858l.002 2.32-1.516-2.32H14.77Zm3.905 0v3.558h2.434v-.729h-1.623v-.729h1.452v-.686h-1.452v-.686h1.537v-.729h-2.348Zm2.993 0v3.558h2.171v-.729h-1.336v-2.83h-.835ZM8.666 16.875l.432 1.177h-.904l.472-1.177Z" fill="#f24b42"/></svg>