<svg viewBox="0 0 24 24" xmlns="http://www.w3.org/2000/svg"><path d="M11.767 23.914c-3.65-.05-7.142-1.196-9.926-4.043-2.672-2.733-2.396-6.932.57-9.349.36-.293.572-.613.688-1.052.334-1.26.69-2.515 1.054-3.767.103-.357.095-.59-.247-.87-1.26-1.038-1.254-3.247-.032-4.34.542-.483 1.15-.51 1.791-.22.665.299 1.179.793 1.648 1.327.233.267.46.314.781.233a15.638 15.638 0 0 1 7.819.001c.328.084.552.02.779-.24.405-.47.86-.895 1.405-1.2 1.06-.594 1.954-.307 2.52.767.585 1.11.722 2.94-.68 3.815-.232.145-.193.325-.134.535.403 1.431.802 2.863 1.198 4.297.064.232.202.39.386.544 3.54 2.965 3.47 7.474-.128 10.379-2.699 2.178-5.796 3.15-9.492 3.183" fill="#114479"/><path d="M22.54 15.484c-.018 3.472-3.642 5.886-6.843 4.547-.525-.22-1.028-.5-1.524-.783-1.46-.833-2.909-.832-4.366.01-.474.274-.956.544-1.459.76-2.074.886-4.448.241-5.845-1.565-1.393-1.8-1.398-4.196-.013-5.981 1.407-1.814 3.771-2.461 5.845-1.58.483.205.95.457 1.4.726 1.521.911 3.028.894 4.544-.009.989-.588 1.997-1.11 3.199-1.113 2.771-.007 5.075 2.252 5.061 4.988" fill="#fff"/><path d="M4.64 9.286c.425-1.54.806-2.999 1.241-4.442.13-.432.046-.584-.37-.738-1.11-.41-1.346-1.028-.934-2.09.21-.54.496-.552.863-.208.467.438.926.888 1.35 1.367.259.292.477.387.881.263 2.879-.885 5.772-.86 8.652-.01.431.128.669.057.927-.287a6.833 6.833 0 0 1 1.402-1.404c.337-.25.557-.19.742.205.475 1.01.239 1.755-.831 2.132-.563.197-.539.456-.405.906.383 1.292.728 2.596 1.105 3.89.107.365.042.456-.34.357-1.694-.441-3.257-.041-4.748.784-.5.276-.97.623-1.533.758-.744.178-1.443.033-2.109-.356C9.464 9.79 8.371 9.236 7.107 9.08c-.811-.1-1.583.078-2.467.206" fill="#5eade1"/><path d="M7.588 21.767c1.074-.227 2.008-.701 2.906-1.247 1.02-.62 2.01-.604 3.033.015.89.54 1.82 1.014 2.916 1.246-2.174.96-7.16.872-8.855-.014" fill="#5dade1"/><path d="M7.78 6.971c-.017-.367-.021-.734.266-1.02a.863.863 0 0 1 1.223.024c.378.412.366 1.675-.02 2.053-.34.333-.883.314-1.223-.031-.292-.296-.249-.664-.245-1.026" fill="#12457a"/><path d="M16.187 6.977c0 .183.015.368-.003.55-.034.35-.219.583-.565.696-.347.112-.64.016-.882-.22-.36-.352-.326-1.717.034-2.063a.807.807 0 0 1 .827-.198c.301.088.525.293.573.619.03.201.006.41.006.616h.01Z" fill="#114479"/></svg>