<?xml version="1.0" encoding="UTF-8" standalone="no"?>
<!DOCTYPE svg PUBLIC "-//W3C//DTD SVG 1.1//EN" "http://www.w3.org/Graphics/SVG/1.1/DTD/svg11.dtd">
<!-- Created with Vectornator (http://vectornator.io/) -->
<svg height="100%" stroke-miterlimit="10" style="fill-rule:nonzero;clip-rule:evenodd;stroke-linecap:round;stroke-linejoin:round;" version="1.1" viewBox="0 0 595.28 841.89" width="100%" xml:space="preserve" xmlns="http://www.w3.org/2000/svg" xmlns:vectornator="http://vectornator.io" xmlns:xlink="http://www.w3.org/1999/xlink">
<defs/>
<clipPath id="ArtboardFrame">
<rect height="841.89" width="595.28" x="0" y="0"/>
</clipPath>
<g clip-path="url(#ArtboardFrame)" id="Untitled" vectornator:layerName="Untitled">
<g opacity="1">
<clipPath id="ClipPath">
<path d="M0 0L595.28 0L595.28 841.89L0 841.89L0 0Z"/>
</clipPath>
<g clip-path="url(#ClipPath)">
<path d="M219.514 447.66C198.028 447.369 177.475 440.622 161.089 423.859C145.364 407.774 146.987 383.06 164.448 368.832C166.563 367.108 167.811 365.222 168.495 362.639C170.459 355.22 172.559 347.836 174.697 340.465C175.306 338.362 175.257 336.996 173.248 335.342C165.834 329.235 165.865 316.231 173.059 309.802C176.248 306.952 179.825 306.801 183.602 308.501C187.513 310.261 190.539 313.171 193.297 316.316C194.674 317.887 196.012 318.164 197.899 317.684C213.234 313.785 228.587 313.799 243.919 317.693C245.851 318.184 247.173 317.811 248.504 316.273C250.89 313.516 253.564 311.011 256.779 309.213C263.02 305.72 268.281 307.41 271.608 313.727C275.053 320.268 275.862 331.032 267.612 336.187C266.243 337.042 266.472 338.097 266.82 339.332C269.189 347.758 271.542 356.189 273.87 364.626C274.248 365.996 275.058 366.924 276.14 367.83C296.976 385.284 296.569 411.825 275.39 428.921C259.504 441.744 241.27 447.461 219.514 447.66" fill="#114479" fill-rule="nonzero" opacity="1" stroke="none"/>
<path d="M443.256 383.554C446.53 383.554 449.48 383.535 452.429 383.557C460.736 383.62 464.593 387.462 464.678 395.654C464.72 399.71 464.69 403.773 463.806 407.737C460.806 421.18 450.635 429.439 435.944 430.436C433.657 430.591 431.316 430.85 429.08 430.517C427.328 430.255 424.235 432.327 423.982 428.774C423.645 424.044 425.581 421.972 429.422 421.888C431.713 421.838 434.011 421.777 436.292 421.572C448.263 420.496 455.184 413.356 455.905 401.405C456.45 392.364 456.45 392.364 447.559 392.364C434.066 392.364 420.571 392.383 407.077 392.355C400.444 392.342 397.491 388.605 398.925 382.147C399.538 379.386 400.183 376.632 400.798 373.871C401.863 369.085 403.786 367.942 408.694 369.015C410.306 369.368 410.547 370.162 410.197 371.616C409.411 374.89 408.851 378.221 407.988 381.472C407.538 383.167 407.998 383.581 409.621 383.571C417.177 383.525 424.735 383.503 432.29 383.587C434.09 383.607 434.571 382.68 434.889 381.221C436.177 375.298 437.45 369.37 438.868 363.478C439.464 361.003 438.879 360.171 436.206 360.198C424.063 360.32 411.915 360.118 399.775 360.333C396.234 360.396 395.558 359.114 395.529 355.906C395.5 352.558 396.487 351.532 399.882 351.569C415.263 351.739 430.649 351.764 446.028 351.557C449.825 351.507 450.237 352.801 449.475 356.003C447.324 365.031 445.373 374.106 443.256 383.554" fill="#114479" fill-rule="nonzero" opacity="1" stroke="none"/>
<path d="M414.324 402.011C423.089 402.011 431.854 402.11 440.616 401.955C443.517 401.904 444.321 402.668 443.826 405.629C443.178 409.506 441.782 411.136 437.381 411.048C421.072 410.721 404.752 410.783 388.44 411.012C384.361 411.07 384.719 408.928 384.647 406.232C384.573 403.431 384.826 401.799 388.44 401.919C397.059 402.204 405.695 402.011 414.324 402.011" fill="#124479" fill-rule="nonzero" opacity="1" stroke="none"/>
<path d="M282.927 398.039C282.823 418.475 261.494 432.685 242.651 424.801C239.559 423.507 236.601 421.856 233.682 420.192C225.08 415.289 216.558 415.294 207.98 420.25C205.188 421.864 202.354 423.457 199.394 424.722C187.185 429.939 173.21 426.145 164.986 415.516C156.787 404.92 156.757 390.813 164.909 380.309C173.194 369.633 187.109 365.823 199.318 371.011C202.156 372.217 204.903 373.697 207.553 375.283C216.51 380.645 225.38 380.544 234.305 375.231C240.123 371.769 246.058 368.7 253.131 368.681C269.447 368.637 283.009 381.935 282.927 398.039" fill="#ffffff" fill-rule="nonzero" opacity="1" stroke="none"/>
<path d="M177.565 361.554C180.068 352.495 182.31 343.904 184.871 335.409C185.639 332.863 185.141 331.974 182.69 331.067C176.162 328.654 174.772 325.013 177.196 318.762C178.429 315.581 180.117 315.515 182.273 317.54C185.021 320.118 187.726 322.763 190.22 325.582C191.743 327.303 193.027 327.862 195.409 327.131C212.352 321.925 229.383 322.074 246.333 327.075C248.874 327.825 250.271 327.41 251.789 325.387C254.134 322.258 256.879 319.462 260.047 317.119C262.03 315.652 263.32 316 264.414 318.327C267.208 324.27 265.818 328.658 259.517 330.874C256.207 332.037 256.348 333.562 257.133 336.207C259.391 343.815 261.419 351.49 263.643 359.108C264.27 361.257 263.889 361.79 261.644 361.206C251.665 358.612 242.47 360.965 233.693 365.822C230.753 367.449 227.977 369.493 224.668 370.285C220.288 371.334 216.176 370.481 212.255 368.191C205.963 364.518 199.526 361.263 192.09 360.344C187.312 359.752 182.767 360.804 177.565 361.554" fill="#5eade1" fill-rule="nonzero" opacity="1" stroke="none"/>
<path d="M194.919 435.02C201.241 433.687 206.737 430.894 212.023 427.683C218.032 424.035 223.853 424.128 229.875 427.772C235.118 430.944 240.587 433.736 247.041 435.103C234.244 440.75 204.899 440.238 194.919 435.02" fill="#5dade1" fill-rule="nonzero" opacity="1" stroke="none"/>
<path d="M360.748 421.903C354.33 421.903 354.327 421.902 355.725 415.497C355.867 414.844 356.093 414.209 356.24 413.557C357.436 408.282 357.671 408.107 362.713 408.721C366.608 409.195 367.645 411.681 367.627 415.233C367.593 421.903 367.679 421.903 360.748 421.903M347.452 419.561C347.112 421.354 346.186 421.865 344.42 421.949C338.123 422.246 338.126 422.317 339.469 416.135C339.497 416.005 339.508 415.87 339.537 415.739C341.252 408.053 341.252 408.053 349.699 408.995C348.939 412.528 348.121 416.03 347.452 419.561M332.21 415.305C330.596 422.639 330.557 422.667 323.037 421.9C322.265 421.821 321.446 421.982 320.943 421.1C317.962 415.881 321.951 408.737 327.891 408.695C329.733 408.681 331.576 408.692 333.678 408.692C333.132 411.151 332.668 413.227 332.21 415.305M416.068 423.766C415.774 420.731 413.178 421.976 411.594 421.957C401.745 421.839 391.894 421.898 382.044 421.898C375.78 421.897 375.78 421.897 375.759 415.487C375.726 405.603 370.727 400.6 360.767 400.569C350.242 400.537 339.717 400.56 329.191 400.562C317.129 400.565 312.519 405.036 312.811 417.229C312.907 421.222 311.769 422.582 307.946 421.907C303.984 421.208 303.782 423.524 303.681 426.668C303.574 430.001 304.732 430.701 307.84 430.675C325.11 430.538 342.383 430.61 359.654 430.61C376.791 430.61 393.928 430.616 411.064 430.604C414.317 430.602 416.462 427.833 416.068 423.766" fill="#114479" fill-rule="nonzero" opacity="1" stroke="none"/>
<path d="M331.95 361.496C337.859 352.573 347.548 352.396 357.221 361.501C348.364 361.501 340.157 361.501 331.95 361.496M381.136 369.393C373.03 363.357 365.244 356.894 357.156 350.833C349.021 344.739 339.029 344.91 330.908 351.112C323.089 357.084 315.462 363.309 307.582 369.197C305.105 371.048 305.482 372.32 307.196 374.286C308.848 376.181 310.179 378.469 312.805 375.54C318.896 368.749 326.575 366.865 335.365 367.974C338.152 368.326 341.021 368.029 343.852 368.029C346.55 368.029 349.273 368.274 351.938 367.984C361.178 366.98 369.538 368.368 376.036 375.801C378.348 378.447 379.66 376.305 380.997 374.531C382.272 372.839 384.021 371.544 381.136 369.393" fill="#114479" fill-rule="nonzero" opacity="1" stroke="none"/>
<path d="M358.218 387.81C353.502 387.786 348.786 387.803 344.07 387.803C339.489 387.804 334.907 387.779 330.326 387.814C327.883 387.832 325.833 387.06 325.813 384.368C325.793 381.71 327.741 380.83 330.238 380.839C339.534 380.874 348.831 380.877 358.128 380.834C360.605 380.823 362.593 381.612 362.639 384.281C362.685 386.984 360.678 387.823 358.218 387.81M358.73 373.591C354.017 373.498 349.3 373.573 344.585 373.571C339.87 373.57 335.156 373.57 330.441 373.57C330.171 373.57 329.902 373.565 329.632 373.574C323.108 373.784 318.387 378.331 318.419 384.372C318.451 390.456 323.156 394.96 329.726 395.004C339.425 395.07 349.125 395.077 358.823 395.001C365.378 394.951 370.064 390.376 370.031 384.28C369.996 378.23 365.296 373.721 358.73 373.591" fill="#114479" fill-rule="nonzero" opacity="1" stroke="none"/>
<path d="M196.052 347.931C195.951 345.766 195.925 343.609 197.616 341.925C199.587 339.963 202.955 340.042 204.815 342.068C207.04 344.492 206.965 351.924 204.693 354.15C202.693 356.11 199.497 355.999 197.494 353.967C195.778 352.227 196.033 350.059 196.052 347.931" fill="#12457a" fill-rule="nonzero" opacity="1" stroke="none"/>
<path d="M245.537 347.966C245.537 349.044 245.621 350.13 245.519 351.197C245.319 353.266 244.23 354.636 242.191 355.296C240.15 355.956 238.427 355.39 237 354C234.876 351.931 235.082 343.897 237.198 341.858C238.6 340.505 240.301 340.179 242.067 340.694C243.841 341.21 245.159 342.421 245.44 344.338C245.614 345.524 245.473 346.755 245.473 347.966L245.537 347.966Z" fill="#114479" fill-rule="nonzero" opacity="1" stroke="none"/>
</g>
</g>
</g>
</svg>
