<svg viewBox="0 0 24 24" xmlns="http://www.w3.org/2000/svg"><path d="m20.933 8.482-.469 1.889-.591.006.45-1.889-.676.013.14-.52 2.567.006.146 1.626.866-1.626H24l-1.396 2.384-.537.006-.335-2.323.068.422-.867.006Z" fill="#a6aaab"/><path d="m.037 11.362.292-1.43.817.018c.248-1.557 1.276-2.154 3.03-1.92l-.268 1.424-.659-.012c-.325.013-.5.191-.548.507l.853-.005-.268 1.412-.872.012-.884 4.511-1.53.006.872-4.53-.835.007Zm4.018-1.48h1.61l-.616 3.179c-.122.672-.25 1.418.549 1.559.221.032.45 0 .665-.101.65-.306.808-.952.94-1.6l.614-3.03 1.542-.006-1.183 5.96-1.414.018.061-.293c-.94.621-2.084.538-2.767.086-.663-.468-.814-1.29-.648-2.328l.647-3.444Zm4.645 5.98 1.512-.006.091-.483c.929 1.006 3.052.674 3.792.012-.408-.419-.58-.916-.646-1.449-.527.689-1.559.773-2.091.36-.5-.355-.63-1.066-.5-1.681.118-.556.482-1.048 1.013-1.262.63-.253 1.384-.091 1.755.401.623 1.017.122 1.863.558 2.774.26.542.771 1.002 1.316 1.237a3.301 3.301 0 0 0 2.197.122 3.22 3.22 0 0 0 1.98-1.697c.47-.968.503-2.164.01-3.063-.815-1.488-3.033-1.852-4.403-.797.345.428.5.918.61 1.436.568-.754 1.668-.664 2.182-.208.441.39.564 1.3.233 2.017-.257.556-.724.857-1.316.949-1.041.161-1.598-.68-1.648-1.554-.012-.872-.082-1.5-.403-2.008a2.541 2.541 0 0 0-.945-.856c-.792-.409-1.906-.438-2.676.04l.409-2.103-1.518-.005L8.7 15.86Z"/></svg>