<svg version="1.1" id="图层_1" xmlns="http://www.w3.org/2000/svg" x="0" y="0" viewBox="0 0 539 538" style="enable-background:new 0 0 539 538" xml:space="preserve"><style>.st0{fill:#0e419c}</style><path class="st0" d="M0 288v-36c.26-.93.63-1.84.78-2.79 2.65-16.73 4.06-33.77 8.13-50.14C22.89 142.84 54.39 97.52 98.34 60.48c37.31-31.45 80.16-50.69 128.5-57.54C234.87 1.8 242.95.97 251 0h37c9.02 1.11 18.08 1.95 27.05 3.36 61.06 9.62 111.8 38.36 153.44 83.57 35.76 38.82 58.8 83.97 66.7 136.45 1.38 9.19 2.54 18.41 3.8 27.62v36c-.33 1.94-.82 3.88-.96 5.83-1.57 22.53-6.19 44.43-13.44 65.78-14.65 43.1-40.12 79.05-73.38 109.64-38.05 34.99-82.29 57.77-133.64 65.91-8.84 1.4-17.72 2.56-26.57 3.84h-45c-1.43-.32-2.85-.82-4.3-.95-20.62-1.9-40.75-6.13-60.38-12.72-41.95-14.09-77.35-38.33-107.71-70.13-38.71-40.53-63.02-88.25-70.68-144.08C1.91 302.75.97 295.37 0 288zm271.05 238.35c139.78 2.08 260.09-117.47 256.42-263.2-3.39-134.6-117.13-252.57-262.58-249.8-132.53 2.52-251 112.71-251.14 256.81-.13 142.77 118.39 258.74 257.3 256.19z"/><path class="st0" d="M269.43 89.77c99.44-3.13 183.22 81.43 182.96 181.83-.26 99.4-83.48 181.26-181.85 181-101.74-.27-182.19-83.66-181.92-181.76.28-102.32 86.01-184.95 180.81-181.07zm2.81 13.88c-92.64-2.09-168.68 74.6-169.47 165.77-.79 91.66 73.88 169.48 167.78 169.37 94.56-.11 169.13-78.8 167.64-170.51-1.54-94.15-80.44-165.9-165.95-164.63z"/><path class="st0" d="M215.28 489.81c-3.39-.64-6.84-1.1-10.17-1.96-5.59-1.46-10.49-4.02-13.85-9.07-5.98-9.01-4.21-21.74 4.61-28.07 6.56-4.71 14.12-3.13 21.19-1.26 14.36 3.8 20.03 14.25 16.54 30.15-1.13 5.17-2.77 10.27-4.65 15.23-3.35 8.84-13.87 15.52-23.25 15.15-12.13-.47-21.93-7.23-25-17.28-.29-.94-.9-2.13-.58-2.86 1.32-3.02 2.93-5.91 4.44-8.85 2.03 1.9 4.78 3.43 5.96 5.76 4.64 9.18 10.64 13.06 18.18 10.27 2.79-1.03 5.02-3.61 7.5-5.48-.31-.58-.61-1.16-.92-1.73zm-2.78-12.7c5.93.01 10.26-3.45 10.43-8.33.13-3.86-8.35-10.37-13.7-10.52-4.04-.11-8.42 4.76-8.5 9.44-.09 5.37 4.94 9.4 11.77 9.41zM325.23 492.88c.3 15.12-9.03 27.28-21.46 26.85-16.28-.57-25.65-6.72-28.84-22.73-1.72-8.64-3.4-17.39.04-26.07 3.23-8.15 8.59-13.8 17.73-14.85 10.16-1.16 19.19.09 24.95 10.24 4.74 8.32 7.41 17.04 7.58 26.56zm-38.66-6.34c.88 3.53 1.57 8.18 3.23 12.44 2.31 5.92 6.66 8.6 11.32 8 5.1-.66 10.18-5.48 10.7-11.1.77-8.16-1.2-15.92-5.59-22.83-2.28-3.59-6.01-5.31-10.36-4.63-4.54.71-6.78 4.01-7.79 8.12-.7 2.89-.91 5.9-1.51 10zM363.62 471.45c-4.94-10.47-9.2-19.45-13.41-28.46-1.29-2.76-.94-4.71 2.23-6.32 8.3-4.21 16.42-8.76 24.55-13.28 4.05-2.25 7.11-.79 9.51 2.46 2.54 3.45 1.66 6.78-1.65 9.11-2.96 2.08-6.26 3.71-9.48 5.39-3.37 1.76-6.83 3.34-10.63 5.18 1.08 2.93 2.09 5.67 3.45 9.37 3.39-2.4 6.49-4.2 9.12-6.53 9.45-8.33 22.58-6.32 28.95 4.59 5.44 9.33 4.59 21.45-2.03 28.95-8.14 9.22-19.78 12.46-29.67 7.95-3.31-1.51-7.74-2.82-6.07-8.12 1.46-4.65 4.8-5.87 10.6-4.23 8.43 2.38 12.29.94 17.18-6.4 2.85-4.29 2.01-9.74-2.1-13.47-3.95-3.59-7.08-3.25-11.89.45-5.74 4.42-11.77 8.45-18.66 13.36zM97.17 110.36c2.96 2.59 5.95 5.15 8.87 7.78 2.97 2.67 6.01 5.28 8.78 8.15 4.69 4.86 9.23 9.86 17.96 8.05-2.56 7.62-7.65 11.19-12.97 14.44-.58.35-2.71-.59-3.11-1.42-4.92-10.09-14.54-15.83-21.89-23.63-4.45-4.73-8.68-10.29-16.17-10.82-.92-.06-1.75-1.33-3.21-2.53 4.4-4.69 8.46-9.26 12.87-13.48.79-.76 3.08-.35 4.53.04 11.01 3 21.99 6.14 33.32 8.64-7.28-6.01-10.49-17.06-22.79-16.71-4.13.12-3.11-4.2-1.64-5.98 2.55-3.1 6.02-5.44 8.84-7.87 12.5 13.91 24.46 27.06 36.16 40.44 1.28 1.47 1.11 4.21 1.61 6.36-2.11.11-4.38.78-6.3.23-14.05-4.04-28.03-8.33-42.03-12.52-.6-.18-1.25-.21-1.87-.31-.32.39-.64.76-.96 1.14zM432.41 83.18c10.41 9.47 21.63 16.5 27.76 28.33 1.92 3.7 2.82 8.75 2.12 12.82-1.41 8.1-9.01 11.98-17.67 10.21-6.9-1.41-7.07-1.45-8.73 5.38-1.17 4.82-2.04 9.73-2.59 14.66-.33 2.91-1.71 3.64-4.23 3.56-7-.22-11.25-7.74-7.91-14.19 1.6-3.09 3.52-6.02 5.07-9.14 2.36-4.75 2.02-9.3-2.06-14.02-5.06 3.96-11.11 6.74-12.35 14.24-.24 1.43-1.29 3.19-2.49 3.83-.7.38-2.71-.88-3.64-1.87-3.08-3.26-6.17-6.56-8.82-10.16-2.5-3.4-1.26-5.9 2.86-5.72 4.15.18 6.82-1.67 9.45-4.49 5.21-5.6 10.52-11.13 16.06-16.4 3.69-3.5 6.22-7.26 6.06-12.54-.05-1.08.51-2.19 1.11-4.5zm19.7 32.57c-.06-3.79-7.13-11.76-10.43-11.75-2.93 0-11.06 8.46-10.91 11.35.23 4.31 6.57 10.05 11.02 9.98 5.38-.1 10.4-4.76 10.32-9.58zM472.4 172.73c.68 6.53 1.34 11.49 1.69 16.46.61 8.45-4.08 13.83-12.63 14.77-12.75 1.41-22.75-6.22-25.29-19.51-.59-3.08-.87-6.29-.73-9.42.14-3.1-.05-5.14-3.63-6.37-3.21-1.1-3.12-3.88-.24-5.58 4.28-2.53 8.72-4.9 13.32-6.76 1.55-.63 3.81.47 5.75.78-.47 1.76-.36 4.15-1.49 5.19-7.04 6.49-5.86 14.29-4.01 22.24.29 1.25.88 2.84 1.85 3.45 2.76 1.74 5.99 4.55 8.67 4.2 4.3-.57 5.34-5.04 5.01-9.11-.47-5.96-1.55-11.89-1.82-17.86-.31-6.82 1.36-12.83 8.35-16.15 11.6-5.52 23.85 1.47 26.67 15.33 1.28 6.31 2.87 12.57 3.91 18.93.25 1.53-.69 4.07-1.91 4.86-2.72 1.78-5.91 2.93-9.03 3.96-1.2.39-2.74-.24-4.12-.41.25-1.41.03-3.24.83-4.17 7.53-8.77 4.27-17.7.64-26.65-1.24-3.06-3.68-5.47-6.85-4.3-1.87.69-3.61 3.6-4.1 5.8-.85 3.83-.69 7.89-.84 10.32zM21.15 240.62c1.44-10.76 2.69-22.45 4.68-34 1.13-6.57 5.66-9.75 12.84-10.49 11.98-1.24 23.53 1.14 34.77 4.89 7.61 2.54 12.79 10.19 12.02 18.83-.78 8.7-2.94 17.3-4.76 25.88-.39 1.83-1.87 3.44-2.36 4.29-9.75-2.09-18.83-4.38-28.03-5.9-9.27-1.53-18.65-2.27-29.16-3.5zm53.42-3.63c.89-3.2 1.84-5.85 2.35-8.59 1.69-9.07-.18-13.58-8.7-17.06-5.88-2.4-12.37-3.58-18.7-4.56-12.81-1.97-15.21-.06-17.71 12.83-.53 2.72-.76 5.49-1.2 8.76 14.78 2.9 29.06 5.7 43.96 8.62zM225.73 35.56c.87 8.19 1.89 16.37 2.57 24.57.52 6.27 1.69 12.15 7.45 16.15-5.03 4.76-10.56 4.82-15.99 4.6-.79-.03-2.4-2.98-2.05-4.05 3.43-10.39.01-20.48-1.21-30.6-.89-7.38-3.06-14.6-4.76-22.36 8.4-4.68 14.6-3.75 21.31 4.56 4.49 5.56 8.49 11.52 12.89 17.15 2 2.56 4.44 4.78 7.74 6.68-.77-7.82-1.14-15.72-2.52-23.43-.48-2.71-3.43-4.99-5.56-7.89 4.57-5.32 10.83-2.87 17.18-2.89-6.63 12.36-1.33 24.73-1.38 36.96-.02 5.15.77 10.3.69 15.44-.03 1.8-1.6 3.57-2.46 5.35-1.55-.95-3.61-1.53-4.57-2.89-7.7-10.86-15.17-21.88-22.79-32.79-1.35-1.94-3.08-3.61-4.64-5.41-.64.29-1.27.57-1.9.85zM351.78 94.61c12.25-11.86 20.79-25.17 27.34-39.8 1.94-4.34 2.92-5.04 6.82-2.56 9.55 6.08 19.11 12.12 28.58 18.33 5.84 3.83 5.33 9.1-1.41 12.77-3.14-9.25-11.4-12.84-19.01-17.25-2.26-1.31-3.63-1.14-5.56.72-8.98 8.64-8.89 10.44 2.08 16.34 2.21 1.19 4.96 1.52 7.51 1.86 2.24.3 4.55.06 6.83.06-.07 7.41-4.1 13.09-10.51 15.13-2.31-6.83-6.94-11.72-13.55-14.37-1.6-.64-4.72-.04-5.87 1.19-8.41 9.01-7.97 11.41 1.86 18.71 4.95 3.68 9.89 6.13 16.1 3.47.59-.25 1.31-.24 1.97-.24.47 0 .93.19 1.37.29 1.31 7-4.07 12-10.47 9.48-3.52-1.39-6.78-3.54-9.95-5.66-6.36-4.26-12.66-8.63-18.82-13.17-2.15-1.57-3.83-3.79-5.31-5.3zM50.37 324.78c4.12-6.32 8.01-7.73 14.95-6.41 1.22 6.67 2.34 12.87 3.51 19.06.62 3.3 2.96 4.6 5.84 3.54 5.94-2.17 13.65-1.16 16.75-8.93.21-.53 3.64-.66 3.89-.15 2.7 5.57 5.06 11.3 8.12 18.37-12.18-2.89-20.75 2.87-29.89 5.75-9.22 2.9-19.47 3.85-26.92 12.77-2.07-2.93-4.35-5.2-5.47-7.94-3.78-9.21-7.35-18.53-10.59-27.94-1.39-4.04-2.35-8.38 3.5-10.62 5.13-1.97 7.87-.71 6.62 4.57-1.85 7.8 1.33 13.96 4.48 20.38.22.45.35 1.01.7 1.31 4.52 3.84 8.21-.54 12.15-1.51 2.28-.56 6.07-1 4.52-5.45-2.4-6.85-3.71-14.39-12.16-16.8zM25.13 293.61c15.48-.9 29.91-1.89 44.37-2.5 4.93-.21 7.83-2.39 7.8-7.05-.02-4.03-.82-8.22-2.23-11.99-.58-1.56-3.63-3.15-5.54-3.13-11.81.1-23.63.53-35.42 1.21-1.49.09-2.77 2.39-4.29 3.46-1.41.99-3.16 2.53-4.47 2.29-1.16-.22-2.46-2.46-2.76-3.99-.93-4.74-1.31-9.56 1.8-14.19 8.26 5.75 17.37 2.81 26.16 2.84 5.99.02 11.98-.49 17.96-.37 8.41.16 13.84 4.04 15.13 12.38 1.05 6.76.73 13.89-.07 20.73-.61 5.19-4.39 8.31-10.03 8.75-10.78.83-21.56 1.69-32.31 2.87-3.54.39-7.07 1.53-10.42 2.8-3.46 1.31-5.57 1.01-5.68-3.14-.08-3.62 0-7.24 0-10.97zM108.16 166.13c-1.51-.93-2.46-1.6-3.47-2.14-8.4-4.53-9.97-4.17-15.33 3.45-5.99 8.51-4.34 13.44 5.65 17.04 1.23.44 2.42 1.01 4.52 1.89-3.7 5.33-7.17 10.32-10.46 15.06-1.53-.59-1.95-.62-2.11-.84C75.41 184.28 63.84 168 52.4 151.63c-.97-1.39-2.01-4.27-1.39-4.93 1.36-1.46 3.95-2.96 5.72-2.65 12.6 2.22 25.12 4.96 37.69 7.38 4.72.91 9.55 1.29 14.28 2.16 5.92 1.08 6.56 2.7 3.25 7.5-1.12 1.63-2.37 3.16-3.79 5.04zm-29.28-7.99c-3.57-.91-6.54-1.67-9.52-2.43-.2.31-.39.62-.59.94 2 2.24 3.99 4.47 6.18 6.93.92-1.1 1.47-1.68 1.94-2.33.57-.82 1.07-1.67 1.99-3.11zM510.07 322.22c-1.7 6.89-3.41 13.78-5.38 21.75-9.82-8.65-17.61-.34-26.14-.01 5.26 6.05 9.42 12.77 17.43 15.27 1.26.39 2.73 2.38 2.86 3.76.54 5.41-.75 10.18-5.32 12.39-8.26-9.05-15.62-18.35-24.31-26.19-5.85-5.28-13.44-8.61-21.96-4.12-4 2.1-5.89.7-5.04-3.65 1.11-5.7 2.58-11.34 4.3-16.89.45-1.45 2.21-2.82 3.7-3.46.6-.26 2.34 1.37 3.12 2.46 1.46 2.05 2.16 5.69 3.94 6.26 5.27 1.67 10.96 3.15 16.39 2.86 6.73-.35 13.49-2.11 19.98-4.08 5.12-1.56 9.85-4.38 14.75-6.63.57.07 1.12.18 1.68.28zM507.56 288.29c-13.76-.47-27.52-1.04-41.29-1.25-1.45-.02-2.88 2.16-4.41 3.19-1.55 1.04-3.43 2.9-4.76 2.6-1.26-.29-2.78-2.88-2.81-4.49-.12-5.62.21-11.26.7-16.87.14-1.6 1.38-3.11 2.54-5.55 8.22 10.06 19.25 7.09 29.18 8.42 4.61.62 9.3 1.4 13.9 1.15 2.6-.15 6.11-1.64 7.32-3.66.96-1.6-.4-5.26-1.74-7.38-1.14-1.82-3.69-2.74-5.62-4.06l.87-2.04c2.11-1.07 4.11-2.55 6.34-3.12 6.39-1.63 8.65.14 8.39 6.66-.48 12.48-1.33 24.94-1.78 37.42-.19 5.16-3.35 6.51-7.51 6.59-1.46.03-3.54-.74-4.21-1.83-.52-.84.59-2.83 1.22-4.19 1.5-3.22 3.16-6.37 4.75-9.55-.35-.7-.72-1.37-1.08-2.04zM139.41 435.71c-2.81-2.63-5.25-4.88-7.66-7.15-2.89-2.72-1.73-5.39.18-7.99 1.83-2.5 4.07-3.33 6.84-1.37 4.51 3.18 8.83 1.58 13.19-.44 5-2.31 7.41-1.34 11.91 3.43 3.44 3.64.62 6.21-1.15 8.69-9.86 13.83-19.96 27.49-29.86 41.3-2.47 3.45-4.95 4.54-8.69 1.83-5.53-4.01-6.75-6.77-3.9-10.94 6.2-9.05 12.58-17.99 19.14-27.36zM147.71 47.92c6.52-2.24 12.53-4.31 18.45-6.34.55 1.22.87 1.6.78 1.77-3.71 6.87-1.27 13.07 1.79 19.37 2.83 5.82 5.09 11.93 7.89 17.77 3.56 7.46 7.3 8.8 14.84 5.77 8.66-3.48 9.88-6.07 6.61-14.75-2.81-7.46-5.46-15.01-8.79-22.24-2.22-4.82-5.5-9.16-8.62-14.23 2.91-3.75 7.54-4.39 13.27-3.8-2.29 8.7 2.41 15.61 4.85 23.06 2.32 7.1 4.89 14.13 6.79 21.34 2.18 8.29-.45 12.93-8.29 16.19-.61.25-1.23.49-1.85.74-15.1 6.14-24.88 3.85-30.68-13.19-1.5-4.4-3.54-8.6-5.27-12.92-2.1-5.24-3.82-10.66-8.91-14.07-1.11-.75-1.59-2.42-2.86-4.47zM316.81 24.11c6.26 1.61 11.39 2.81 16.43 4.27 3.29.95 3.73 3.63 1.77 5.81-3.42 3.81-3.05 8.2-3.02 12.66.03 5.33-.16 10.66.08 15.98.11 2.3 1.05 4.57 1.61 6.85.5.11 1 .22 1.5.32 3.9-5.1 7.83-10.18 11.68-15.31 3.87-5.16 8.27-10.11 7.04-17.57 6.41-.66 11.53.36 15.85 5.51-13.02 8.32-19.51 21.69-28.68 32.77-2.33 2.82-4.49 5.81-7.08 8.38-1.27 1.27-3.47 2.63-5 2.39-2.86-.45-5.34-1.83-5.62-5.73-.91-12.27-2.08-24.53-3.41-36.76-.66-6.04-1.92-12.02-3.15-19.57zM507.42 207.87c.44.6 2.02 1.89 2.42 3.48 1.59 6.26 2.93 12.6 4.06 18.96.23 1.29-.84 2.82-1.31 4.23-1.34-.57-3.18-.76-3.94-1.77-2.06-2.74-4.35-3.65-7.74-2.98-11.88 2.33-23.8 4.45-35.71 6.65-3.21.59-5.28 1.94-5.69 5.7-.19 1.75-2.27 3.29-3.49 4.93-1.31-1.54-3.34-2.9-3.79-4.66-1.72-6.73-3.25-13.55-4.14-20.42-.28-2.11 1.7-4.52 2.64-6.8 1.77 1.45 4.19 2.56 5.17 4.42 1.69 3.21 3.63 4.14 7.14 3.47 11.73-2.23 23.63-3.73 35.2-6.58 3.33-.82 5.77-5.28 9.18-8.63zM295.53 77.85c-6.66-.81-12.09-1.23-17.43-2.2-3.51-.64-4.57-3.33-1.77-5.7 4.1-3.48 4.18-8.09 4.65-12.64.92-8.93 1.8-17.87 2.35-26.83.13-2.08-.81-4.43-1.85-6.34-2.4-4.4-1.63-6.29 3.44-6.01 4.43.24 8.89 1.08 13.18 2.25 3.65.99 4.3 4.19 1.17 6.24-3.32 2.18-3.82 5.19-4.23 8.48-1.03 8.25-2.31 16.48-2.86 24.76-.25 3.79.92 7.68 1.58 11.51.32 1.74.93 3.43 1.77 6.48zM233.9 340.73c-32.86 1.23-65.28-.46-97.05 6.96-3.99.93-7.17-.05-8.66-3.8-2.01-5.07-3.59-10.32-4.94-15.6-.24-.96 1.3-3.21 2.41-3.54 6.01-1.79 12.07-4.01 18.24-4.51 18.9-1.53 37.85-2.57 56.8-3.35 11.26-.46 22.56-.09 34.38-.09.55-32.14 3.29-62.85 17.19-91.52-.67-.3-1.33-.6-2-.9-1.87 2.14-4.24 4.02-5.51 6.46-5.38 10.3-10.83 20.61-15.41 31.28-1.9 4.43-1.78 9.76-2.35 14.71-2.44 21.27-12.49 32.78-33.65 36.05-11.44 1.77-23.26 2.39-34.81 1.74-18.19-1.03-34.34-17.53-37.12-37.06-3.11-21.82-2.23-43.47 4.51-64.69 1.7-5.34 4.44-9.5 9.42-12.3 24.78-13.93 50.1-14.03 75.73-2.84 7.63 3.33 9.28 10.8 10.79 18.07.36 1.76.56 3.55.77 4.96 9.53-12.2 19.05-24.36 28.67-36.67-1.76-3.26-3.76-2.73-6.19-.59-6.09 5.35-12.85 9.37-20.99 10.91-5.08.96-8.79-.76-11.59-4.85-2.78-4.05-1.28-7.55 1.57-10.83 6.23-7.17 12.32-14.45 18.7-21.48 9.04-9.98 13.18-22.11 16.36-34.84.79-3.18 2.76-6.5 5.13-8.75 4.44-4.21 12.34-4.9 16.75-1.81 5.2 3.64 7.73 8.97 6.23 15.21-1.82 7.57-4.49 14.92-6.66 22.41-.73 2.51-1.71 5.23-1.39 7.7.7 5.34 4.02 7.22 10.57 6.78 27.57-1.88 55.13-3.94 82.72-5.56 6.94-.41 13.99.2 20.92.95 8.03.87 14.05 7.96 13.69 15.26-.29 5.96-3.9 9.85-9.84 9.54-11.96-.62-23.9-2.36-35.85-2.43-18.11-.11-36.27.24-54.33 1.58-7.06.52-14.09 3.78-20.77 6.64-7.21 3.1-8.57 7.19-6.29 14.53.3.95.51 1.98 1.01 2.81 6.17 10.17 4.93 20.29 1.02 31.04-11.27 31.03-13.02 63.34-11.55 95.98.81 18.13 1.45 36.27 2.46 54.38.41 7.3 1.69 14.54 2.46 21.82.29 2.8.61 5.69.27 8.45-.55 4.36-1.71 8.67-6.84 9.97-6.17 1.56-11.35.26-14.04-4.72-2.56-4.73-4.63-10.01-5.6-15.28-3.83-20.84-5.38-41.91-5.15-63.11.04-1.46-.1-2.92-.19-5.07zm-30.92-97.82c0-4.13.26-7.47-.05-10.76-1.02-11.01-5.65-15.7-16.55-16.94-3.47-.39-6.98-.49-10.47-.72-21.17-1.39-33.33 9.98-32.14 31.02 19.53-.86 39.07-1.71 59.21-2.6zm-56.85 24.52c-.64 12.02 6 21.59 17.14 23.58 6.6 1.18 13.5 1.22 20.24.98 14.56-.52 23.22-12.23 20.09-26.99-19.37-4.36-38.4-.06-57.47 2.43z"/><path class="st0" d="M339.21 305.5c8.37-.7 15.54-.89 22.55-2.08 2.8-.47 5.44-2.87 7.76-4.86 2.38-2.03 4.03-4.93 6.46-6.89 3.25-2.63 6.9-4.89 11.39-2.42 3.96 2.18 7.34 7.71 6.09 12.24-4.55 16.49-9.43 32.89-14.65 49.18-.52 1.63-4.19 3.06-6.47 3.16-7.63.36-15.3-.03-22.94.07-7.84.1-8.13.51-6.39 7.97 2.43 10.35 5.22 20.63 7.34 31.04.88 4.32.65 8.92.51 13.38-.12 3.76-2.56 5.6-6.28 5.64-6.73.06-11.21-3.51-14.48-9.02-6.38-10.75-9.46-22.64-11.95-34.73-2.14-10.41-3.12-11.09-13.29-7.53-4.37 1.53-8.47 3.82-12.74 5.66-3.35 1.45-6.7 2.97-10.17 4.06-6.02 1.88-9.71.61-12.11-3.72-2.82-5.08-2.36-11.15 2.05-14.55 3.34-2.57 7.37-4.57 11.4-5.85 9.92-3.16 20.02-5.76 30.21-8.63V323.7c-6.5 1.79-12.2 3.23-17.82 4.95-5.87 1.8-11.61 4.03-17.49 5.79-4.21 1.26-8.31 1.49-10.45-3.69-2.16-5.24-.8-10.98 3.49-13.75 7.77-5.02 16.74-4.91 25.47-5.96 5.58-.67 11.13-1.76 16.62-3.01 1.15-.26 1.95-2.06 2.91-3.15-1.35-.58-2.71-1.67-4.06-1.66-4.98.05-9.97.76-14.94.64-4.14-.1-8.01-1.49-9.07-6.27-1.19-5.33 1.92-9.05 8.02-9.41 14.78-.88 29.58-1.61 44.37-2.39.66-.04 1.34-.09 2 0 2.27.32 4.53.7 6.8 1.06-.47 2.69-.27 5.77-1.56 7.98-2.07 3.5-5.11 6.44-8.58 10.67zm0 31.32c6.35-.55 12.18-.77 17.88-1.74 1.79-.31 4.01-2.38 4.65-4.14 1.07-2.96 1.03-6.33 1.59-10.53-8.69.82-16.37 1.55-24.12 2.29v14.12zM329.99 282.84c-10.47 0-20.95-.2-31.42.06-9.33.24-15.79-3.27-19.74-11.47-4.3-8.93-3.07-16.24 3-23.47 6.15-7.32 14.29-9.39 23.12-9.8 18.61-.85 37.23-1.86 55.84-1.98 8.91-.06 17.85 1.56 26.73 2.82 2.28.32 4.85 1.69 6.42 3.38 6.43 6.94 7.9 15.4 4.98 24.12-2.79 8.32-9.33 12.87-18.1 13.39-16.93 1.02-33.87 1.74-50.81 2.58 0 .14-.01.26-.02.37zM376.65 259c-.2-.63-.41-1.26-.61-1.9-3.89-.37-7.79-1.15-11.67-1.05-19.96.52-39.91 1.17-59.86 2.04-3.1.13-8.46-1.02-8.31 3.79.15 5.02 5.68 3.85 8.87 3.71 21.77-.98 43.52-2.27 65.26-3.7 2.15-.14 4.21-1.88 6.32-2.89zM332.89 232.66c-14.28-.55-28.57-.89-42.82-1.81-2.81-.18-6.13-1.98-8.09-4.08-8.22-8.8-6.28-25.48 4.13-31.36 5.28-2.98 11.81-4.73 17.89-5.12 18.9-1.21 37.86-1.64 56.81-2.09 8.86-.21 17.55 1.14 25.7 5 6.86 3.25 10.28 8.6 10.46 16.16.19 7.92-1.91 14.88-9.96 17.75-6.33 2.25-13.04 4.18-19.69 4.61-11.43.74-22.94.21-34.42.21.01.23 0 .48-.01.73zm42.87-19.05c-.51-5.96-2.7-7.8-7.31-7.69-13.13.29-26.28.08-39.41.35-9.13.19-18.25.72-27.36 1.34-3.32.23-6.18 2.3-5.15 5.78.47 1.59 3.95 3.24 6.07 3.23 18.28-.05 36.56-.32 54.83-.87 6.03-.17 12.02-1.37 18.33-2.14z"/></svg>