<svg stroke-miterlimit="10" style="fill-rule:nonzero;clip-rule:evenodd;stroke-linecap:round;stroke-linejoin:round" viewBox="0 0 24 24" xml:space="preserve" xmlns="http://www.w3.org/2000/svg" xmlns:vectornator="http://vectornator.io"><defs><radialGradient cx="6404.33" cy="-190.973" gradientTransform="matrix(.11115 0 0 .29882 .061 7.499)" gradientUnits="userSpaceOnUse" id="a" r="19557.8"><stop offset="0" stop-color="#e62a2a"/><stop offset="1" stop-color="#bc0000"/></radialGradient></defs><g fill-rule="evenodd" vectornator:layerName="Untitled"><path d="M12.643 7.536v2.095h9.48v.847H24v-.847c0-.698-.215-1.222-.649-1.57-.434-.35-.974-.52-1.625-.511l-6.81-.014h-2.273Zm-10.368 0c-.634 0-1.171.193-1.613.579C.221 8.5 0 8.965 0 9.509v.97h1.843c.065-.2.203-.379.419-.536.29-.207.646-.312 1.07-.312h8.026V7.536H2.275Zm19.848 5.947v.887h-7.675v-.887h-1.805v2.98h9.071c.659 0 1.203-.173 1.637-.522.433-.35.649-.873.649-1.57v-.888h-1.877Zm-12.66 0c-.052.215-.195.402-.426.56-.266.181-.59.272-.976.272h-4.74c-.433 0-.793-.107-1.083-.326-.201-.15-.332-.32-.392-.506H0v1.01c0 .544.22 1.007.662 1.394.442.385.979.577 1.613.577h6.81c.633 0 1.169-.192 1.61-.577.442-.387.663-.85.663-1.394v-1.01H9.463Z" fill="url(#a)"/><path d="M12.56 12.835v-1.793h11.277c-.06.49-.448.812-1.166.968.715.069 1.103.343 1.164.825H12.56Zm-3.142-.01H3.468v-1.783h7.816v1.793H9.417l.002-.01ZM0 12.835v-1.793h1.804a1.594 1.594 0 0 0-.012.099v1.521c0 .058.007.117.019.173H0Z"/></g></svg>