<svg viewBox="0 0 24 24" xmlns="http://www.w3.org/2000/svg"><path d="M6.225 6.157h-.391a2.377 2.377 0 0 0-2.377 2.376v5.586h3.057V6.445c0-.16-.13-.288-.289-.288Zm5.125 1.44.339.196a2.377 2.377 0 0 1 .87 3.247l-2.793 4.838-2.647-1.529 3.837-6.646a.289.289 0 0 1 .394-.105Zm10.367-.594 1.925-2.626c.271-.37-.111-.866-.539-.697l-1.967.778a1.082 1.082 0 0 1-1.108-.189L18.43 2.883c-.347-.301-.873.04-.739.48l.946 3.116a.294.294 0 0 1-.101.317c-1.28 1-2.816 2.578-3.157 4.58-.426 2.5 1.122 4.994 2.084 6.26a1.238 1.238 0 0 0 1.666.283c1.327-.875 3.613-2.716 4.04-5.215.34-2.002-.585-4-1.462-5.367a.294.294 0 0 1 .01-.333Z" fill="#f79219"/><path d="M6.225 6.157h-.391c-.182 0-.36.022-.53.06v6.693H3.457v1.21h3.057V6.444c0-.16-.13-.288-.289-.288Zm5.464 1.636-.237-.137a2.372 2.372 0 0 1-.102 2.175l-2.793 4.837-1.217-.702-.221.383 2.647 1.529 2.793-4.838a2.377 2.377 0 0 0-.87-3.247ZM23.64 4.377c.272-.37-.11-.866-.538-.697l-1.473.583-1.123 1.531a.294.294 0 0 0-.01.334c.877 1.366 1.803 3.365 1.462 5.367-.426 2.5-2.713 4.34-4.04 5.215a1.235 1.235 0 0 1-.995.163c.17.26.35.514.538.762a1.238 1.238 0 0 0 1.667.284c1.326-.875 3.613-2.716 4.04-5.215.34-2.002-.586-4-1.462-5.367a.294.294 0 0 1 .01-.333l1.924-2.627Z" fill="#ef7816"/><path d="m2.435 7.501-.379.097A2.377 2.377 0 0 0 .343 10.49l1.386 5.412 2.961-.759L2.786 7.71a.288.288 0 0 0-.35-.208Zm5.022 0 .38.097a2.377 2.377 0 0 1 1.712 2.892l-1.386 5.412-2.96-.759L7.105 7.71a.288.288 0 0 1 .35-.208Zm10.112 2.244 2.24-1.998c.317-.282.067-.802-.351-.732l-1.923.324a.998.998 0 0 1-.963-.384l-1.174-1.557c-.255-.338-.794-.132-.758.29l.254 2.992a.27.27 0 0 1-.153.266c-1.346.655-3.034 1.783-3.727 3.523-.865 2.17.051 4.717.675 6.043.255.542.89.795 1.447.576 1.365-.534 3.78-1.753 4.645-3.924.693-1.74.242-3.72-.285-5.12a.27.27 0 0 1 .073-.299Z" fill="#ffc91d"/><path d="M2.786 7.709a.289.289 0 0 0-.35-.208l-.38.097a2.435 2.435 0 0 0-.183.057l1.608 6.279-2.117.542.365 1.425 2.961-.758-1.904-7.434Zm5.423.021c.217.487.263 1.034.13 1.551l-1.385 5.411-1.536-.393-.216.844 2.96.758 1.387-5.41a2.375 2.375 0 0 0-1.34-2.76Zm11.6.017c.317-.282.067-.802-.351-.732l-1.717.29-1.381 1.23a.27.27 0 0 0-.073.3c.527 1.4.978 3.38.285 5.12-.865 2.171-3.28 3.39-4.645 3.924-.154.06-.32.086-.484.075.084.204.167.39.246.558.255.543.89.795 1.447.577 1.365-.535 3.78-1.754 4.645-3.925.693-1.74.242-3.72-.285-5.12a.27.27 0 0 1 .073-.299l2.24-1.998Z" fill="#ffa91a"/><path d="M21.287 21.231H2.713a.725.725 0 0 1-.695-.519L.03 14.025a.725.725 0 0 1 .695-.932h22.548c.485 0 .834.467.695.932l-1.987 6.687a.725.725 0 0 1-.695.519Z" fill="#e63950"/><path d="M2.222 19.23a.243.243 0 0 1-.213-.36.24.24 0 0 1 .146-.114.244.244 0 0 1 .299.164.246.246 0 0 1-.02.185.246.246 0 0 1-.212.125Zm-.269-.93a.242.242 0 0 1-.232-.175l-1.227-4.24a.247.247 0 0 1 .038-.213.242.242 0 0 1 .194-.095h11.673a.242.242 0 0 1 0 .483H1.047l1.138 3.931a.241.241 0 0 1-.232.31Z" fill="#e8566f"/><path d="M23.274 13.093h-.596l-1.905 6.41a.726.726 0 0 1-.695.519H1.812l.206.69a.725.725 0 0 0 .695.519h18.574a.725.725 0 0 0 .695-.519l1.987-6.687a.725.725 0 0 0-.695-.932Zm-13.139 3.894a2.264 2.264 0 1 1 4.528 0 2.264 2.264 0 0 1-4.527 0Z" fill="#d10028"/><path d="M23.386 13.102a.722.722 0 0 1-.021.318l-1.987 6.688a.726.726 0 0 1-.696.519H2.108a.715.715 0 0 1-.119-.01l.029.095a.725.725 0 0 0 .695.52h18.574a.725.725 0 0 0 .695-.52l1.987-6.687a.725.725 0 0 0-.583-.923Z" fill="#b7022d"/></svg>