<svg viewBox="0 0 24 24" xmlns="http://www.w3.org/2000/svg"><path d="M9.757 7.505a50.398 50.398 0 0 0-.783-1.597 1.115 1.115 0 0 1 .44-1.477l.609-.349a1.115 1.115 0 0 1 1.545.455 58.093 58.093 0 0 1 2.664 6.017h-4.144l-.331-3.05Zm4.649 3.237a58.8 58.8 0 0 1 1.879-7.976c.19-.606.847-.93 1.444-.713l.66.24c.56.203.862.81.685 1.379a57.356 57.356 0 0 0-1.976 8.878v1.85l-2.692 1.638v-5.296Zm7.92 1.803c.482-1.261.917-2.27 1.223-2.948a1.115 1.115 0 0 0-.511-1.453l-.626-.319a1.115 1.115 0 0 0-1.52.531 55.991 55.991 0 0 0-1.622 3.98l3.057.209Z" fill="#f9ed80"/><path d="M12.94 8.844a56.113 56.113 0 0 0-1.311-5.082 1.115 1.115 0 0 1 .684-1.38l.661-.24a1.115 1.115 0 0 1 1.444.713 59.024 59.024 0 0 1 2.186 10.104c-.191.23-.319.505-.37.799-.019.1-.045.198-.08.293h-2.83l-.384-5.207Zm6.847 3.493a56.461 56.461 0 0 1 1.402-5.523 1.115 1.115 0 0 0-.684-1.38l-.661-.24a1.115 1.115 0 0 0-1.444.713 58.418 58.418 0 0 0-1.7 6.946l3.087-.516Z" fill="#f9d888"/><path d="M5.286 6.684c-.23-.698-.7-1.24-1.26-1.535a.839.839 0 0 0-1.153.381c-.272.572-.326 1.286-.095 1.984.031.094.067.187.108.277a2.902 2.902 0 0 0-.294-.044c-.743-.071-1.438.147-1.937.552a.826.826 0 0 0-.113 1.167c.413.492 1.052.84 1.796.911 1.029.1 1.964-.357 2.418-1.093.617-.605.855-1.619.53-2.6m10.754 7.212-.009-.01c-.496-.584-.312-1.259-.313-1.292a1.464 1.464 0 0 0-.855-1.57l-.063-.028c-.757-.334-.841-1.063-.855-1.092a1.465 1.465 0 0 0-1.354-1.12l-.098-.005c-.814-.038-1.154-.667-1.175-.687a1.464 1.464 0 0 0-1.703-.545l-.106.039c-.688.249-1.224-.108-1.233-.11a1.465 1.465 0 0 0-1.855.343l-.066.08c-.397.483-.922.519-.927.52a1.465 1.465 0 0 0-1.26 1.523c.019.367-.102.727-.336 1.01l-.067.08a1.465 1.465 0 0 0 .01 1.885l.01.01c.496.584.312 1.26.313 1.292a1.464 1.464 0 0 0 .855 1.57l.063.028c.757.334.841 1.063.855 1.092a1.465 1.465 0 0 0 1.354 1.12l.098.005c.814.039 1.154.668 1.174.687a1.465 1.465 0 0 0 1.704.545l.106-.039c.688-.248 1.224.108 1.233.11.62.352 1.402.207 1.855-.343l.066-.08c.397-.483.921-.519.927-.52a1.465 1.465 0 0 0 1.26-1.523 1.465 1.465 0 0 1 .336-1.009l.067-.08a1.465 1.465 0 0 0-.01-1.886" fill="#e7886e"/><path d="M5.033 14.28c0-2.562.843-4.952 2.3-6.979a1.461 1.461 0 0 0-.912.518l-.066.08c-.397.483-.922.519-.927.52a1.465 1.465 0 0 0-1.26 1.523c.019.367-.102.727-.336 1.01l-.067.08a1.465 1.465 0 0 0 .01 1.885l.01.01c.496.584.312 1.26.313 1.292a1.465 1.465 0 0 0 .855 1.57l.063.028c.044.02.087.041.13.065a11.572 11.572 0 0 1-.113-1.603" fill="#e27858"/><path d="M21.505 12.337H17.93c-.835 0-1.55.599-1.696 1.42a1.722 1.722 0 0 1-1.695 1.421H9.984c-.835 0-1.55-.599-1.695-1.42a1.722 1.722 0 0 0-1.696-1.421H3.016a1.722 1.722 0 0 0-1.695 2.023l.851 4.79a3.472 3.472 0 0 0 3.419 2.864h13.34a3.472 3.472 0 0 0 3.418-2.864l.852-4.79a1.722 1.722 0 0 0-1.696-2.023" fill="#60d9a7"/><path d="M5.033 14.28c0-.66.057-1.31.165-1.943H3.016a1.722 1.722 0 0 0-1.695 2.023l.851 4.79a3.472 3.472 0 0 0 3.419 2.864h2.33c-1.817-2.176-2.888-4.847-2.888-7.735" fill="#00cd8c"/><path d="m1.936 17.818.236 1.332a3.472 3.472 0 0 0 3.419 2.864h13.34a3.472 3.472 0 0 0 3.418-2.864l.852-4.79a1.722 1.722 0 0 0-1.696-2.023H17.93c-.835 0-1.55.599-1.696 1.42a1.722 1.722 0 0 1-1.695 1.421H9.984c-.835 0-1.55-.599-1.695-1.42a1.722 1.722 0 0 0-1.696-1.421H3.016a1.722 1.722 0 0 0-1.695 2.023l.365 2.052m3.597-7.965c.19-.529.206-1.152.003-1.763-.23-.698-.7-1.24-1.26-1.535a.839.839 0 0 0-1.153.381c-.272.572-.326 1.286-.095 1.984.031.094.067.187.108.277a2.902 2.902 0 0 0-.294-.044c-.743-.071-1.438.147-1.937.552a.826.826 0 0 0-.113 1.167c.413.492 1.052.84 1.796.911a2.692 2.692 0 0 0 1.83-.47 1.464 1.464 0 0 1 1.115-1.46Zm1.31 3.89c.835 0 1.55.599 1.696 1.42.146.822.86 1.421 1.695 1.421h4.554c.732 0 1.371-.46 1.616-1.128a1.473 1.473 0 0 0-.114-.154l-.009-.01c-.496-.584-.312-1.259-.313-1.292a1.464 1.464 0 0 0-.855-1.57l-.063-.028c-.757-.334-.841-1.063-.855-1.092a1.465 1.465 0 0 0-1.354-1.12l-.098-.005c-.814-.038-1.154-.667-1.175-.687a1.465 1.465 0 0 0-1.703-.545l-.106.039c-.688.248-1.224-.108-1.233-.11a1.465 1.465 0 0 0-1.855.343l-.066.08c-.397.483-.922.519-.927.52a1.465 1.465 0 0 0-1.26 1.523c.019.367-.102.727-.336 1.01l-.067.079c-.31.373-.407.861-.291 1.306h3.12Zm16.445-4.193-.626-.319a1.115 1.115 0 0 0-1.52.531c-.133.292-.263.585-.39.88a58.858 58.858 0 0 0-.715 3.1h1.718c.3 0 .579.077.822.209.48-1.261.916-2.27 1.222-2.948a1.115 1.115 0 0 0-.511-1.453ZM17.671 9.2a56.065 56.065 0 0 0-.572 3.35c.254-.14.54-.214.83-.214h1.858a56.436 56.436 0 0 1 1.402-5.523 1.115 1.115 0 0 0-.684-1.38l-.661-.24a1.116 1.116 0 0 0-1.353.503c-.19.708-.365 1.42-.527 2.135m0 0c.412-1.816.83-3.264 1.11-4.16a1.115 1.115 0 0 0-.685-1.38l-.66-.24a1.115 1.115 0 0 0-1.444.714 58.8 58.8 0 0 0-1.88 7.976c.106.095.236.183.395.254l.063.027c.609.269.96.914.855 1.571.001.033-.184.708.313 1.292l.009.01c.042.05.08.102.114.155.035-.095.061-.193.079-.293.094-.528.422-.963.866-1.208.165-1.188.363-2.313.572-3.349m-4.731-.357c.491.146.88.544 1.005 1.06.01.023.066.482.46.838.281-1.712.613-3.262.935-4.577a54.62 54.62 0 0 0-.922-3.31 1.115 1.115 0 0 0-1.444-.713l-.66.24c-.56.203-.863.81-.685 1.38a56.12 56.12 0 0 1 1.31 5.082Zm-3.183-1.34a1.464 1.464 0 0 1 1.561.588c.021.02.36.649 1.175.687l.097.005c.119.006.236.026.35.06a58.522 58.522 0 0 0-.702-2.958c-.216-.453-.44-.902-.67-1.349a1.115 1.115 0 0 0-1.545-.455l-.61.35c-.517.295-.71.946-.439 1.476.212.412.48.95.783 1.597Zm6.756 9.831v.817m-5.373-.024a1.483 1.483 0 0 0 2.242 0m-5.373-.793v.817" fill="none"/></svg>