<svg viewBox="0 0 8 8" xmlns="http://www.w3.org/2000/svg"><path d="M4 0a3.999 3.999 0 0 0-1.265 7.795c.2.035.275-.085.275-.19 0-.095-.005-.41-.005-.745C2 7.045 1.74 6.615 1.66 6.39c-.045-.115-.24-.47-.41-.565-.14-.075-.34-.26-.005-.265.315-.005.54.29.615.41.36.605.935.435 1.165.33.035-.26.14-.435.255-.535-.89-.1-1.82-.445-1.82-1.975 0-.435.155-.795.41-1.075-.04-.1-.18-.51.04-1.06 0 0 .335-.105 1.1.41.32-.09.66-.135 1-.135.34 0 .68.045 1 .135.765-.52 1.1-.41 1.1-.41.22.55.08.96.04 1.06.255.28.41.635.41 1.075 0 1.535-.935 1.875-1.825 1.975.145.125.27.365.27.74 0 .535-.005.965-.005 1.1 0 .105.075.23.275.19A4.006 4.006 0 0 0 8 4c0-2.21-1.79-4-4-4Z" fill="#1B1F23" fill-rule="evenodd"/></svg>