<svg viewBox="0 0 24 24" xmlns="http://www.w3.org/2000/svg"><defs><linearGradient x1="0%" y1="0%" x2="100%" y2="0%" id="a"><stop stop-color="#FFF" offset="0%"/><stop stop-color="#B88AE1" offset="50%"/><stop stop-color="#79C0FF" offset="100%"/></linearGradient></defs><path d="M17.453 1.616c2.482-2.155 3.892-2.155 6.374 0a.514.514 0 0 1 .062.704.467.467 0 0 1-.676.064c-2.126-1.845-3.02-1.845-5.146 0-2.482 2.155-3.892 2.155-6.374 0C9.567.54 8.673.54 6.547 2.384 4.065 4.54 2.655 4.54.173 2.384A.514.514 0 0 1 .11 1.68a.467.467 0 0 1 .676-.064c2.126 1.845 3.02 1.845 5.146 0 2.482-2.155 3.892-2.155 6.374 0 2.126 1.845 3.02 1.845 5.146 0Z" fill="url(#a)"/></svg>