<?xml version="1.0" encoding="UTF-8"?>
<svg viewBox="0 0 8 8" version="1.1" xmlns="http://www.w3.org/2000/svg" xmlns:xlink="http://www.w3.org/1999/xlink">
    <title>Github</title>
    <g id="Page-1" stroke="none" stroke-width="1" fill="none" fill-rule="evenodd">
        <g id="Github" fill="#1B1F23">
            <path d="M4,0 C1.79,0 0,1.79 0,4 C0,5.77 1.145,7.265 2.735,7.795 C2.935,7.83 3.01,7.71 3.01,7.605 C3.01,7.51 3.005,7.195 3.005,6.86 C2,7.045 1.74,6.615 1.66,6.39 C1.615,6.275 1.42,5.92 1.25,5.825 C1.11,5.75 0.91,5.565 1.245,5.56 C1.56,5.555 1.785,5.85 1.86,5.97 C2.22,6.575 2.795,6.405 3.025,6.3 C3.06,6.04 3.165,5.865 3.28,5.765 C2.39,5.665 1.46,5.32 1.46,3.79 C1.46,3.355 1.615,2.995 1.87,2.715 C1.83,2.615 1.69,2.205 1.91,1.655 C1.91,1.655 2.245,1.55 3.01,2.065 C3.33,1.975 3.67,1.93 4.01,1.93 C4.35,1.93 4.69,1.975 5.01,2.065 C5.775,1.545 6.11,1.655 6.11,1.655 C6.33,2.205 6.19,2.615 6.15,2.715 C6.405,2.995 6.56,3.35 6.56,3.79 C6.56,5.325 5.625,5.665 4.735,5.765 C4.88,5.89 5.005,6.13 5.005,6.505 C5.005,7.04 5,7.47 5,7.605 C5,7.71 5.075,7.835 5.275,7.795 C6.855,7.265 8,5.765 8,4 C8,1.79 6.21,0 4,0 Z" id="Path"></path>
        </g>
    </g>
</svg>