<svg viewBox="0 0 24 24" xmlns="http://www.w3.org/2000/svg"><path d="M23.992 11.5a5.717 5.717 0 0 1-.233 1.939 6.059 6.059 0 0 1-.825 1.76 5.818 5.818 0 0 1-1.348 1.415l-.011.011-5.003 3.755-2.474 1.872-1.493 1.137a.883.883 0 0 1-.29.144.955.955 0 0 1-.646 0 .767.767 0 0 1-.278-.145l-1.504-1.136-2.463-1.872-4.97-3.732-.021-.023-.023-.01c-.512-.39-.969-.87-1.337-1.416a5.81 5.81 0 0 1-.835-1.76A6.337 6.337 0 0 1 .004 11.5a6.259 6.259 0 0 1 .4-1.916l.034-.078L3.703.96a.615.615 0 0 1 .056-.123 1.013 1.013 0 0 1 .167-.212C3.963.595 4 .57 4.037.547c.112-.066.245-.111.379-.133a.923.923 0 0 1 .39.055.77.77 0 0 1 .334.223c.09.1.156.223.19.357l2.206 6.763h8.924l2.207-6.763a.87.87 0 0 1 .2-.357c.09-.1.2-.178.323-.223.134-.044.268-.066.401-.055.134.022.257.067.38.133.036.023.07.049.1.078a.64.64 0 0 1 .1.1l.067.112c.022.037.044.078.066.123l3.265 8.534.034.09c.233.612.367 1.259.39 1.916Z" fill="#e24329"/><path d="M23.992 11.5a6 6 0 0 1-.222 1.939 6.391 6.391 0 0 1-.836 1.76 5.818 5.818 0 0 1-1.348 1.415l-.011.011-5.003 3.755-4.568-3.465 7.175-5.437a9.06 9.06 0 0 1 1.003-.669c.349-.208.71-.393 1.08-.557a10.608 10.608 0 0 1 2.307-.758l.034.09c.233.612.367 1.259.39 1.916Z" fill="#fc6d26"/><path d="m12.004 16.915 4.568 3.465-2.474 1.872-1.493 1.137a.883.883 0 0 1-.29.144.955.955 0 0 1-.646 0 .767.767 0 0 1-.278-.145l-1.504-1.136-2.463-1.872 4.58-3.465Z" fill="#fca326"/><path d="M11.992 16.915 7.425 20.38l-4.97-3.732-.021-.023-.023-.01c-.512-.39-.969-.87-1.337-1.416a5.81 5.81 0 0 1-.835-1.76A6.337 6.337 0 0 1 .004 11.5a6.259 6.259 0 0 1 .4-1.916l.034-.078c.394.081.784.182 1.17.3.386.127.765.275 1.137.446.364.163.72.35 1.07.557.348.208.686.431 1.013.669l7.164 5.437Z" fill="#fc6d26"/></svg>