<svg xmlns="http://www.w3.org/2000/svg" viewBox="0 0 652 652" style="enable-background:new 0 0 652 652" xml:space="preserve"><path d="M138.2 323.1v44.7l-.2.2c-14.8 14.8-31.7 22-50.3 22-16.4 0-32.6-6.5-44.3-17.7-5.6-5.6-10.2-12.6-13.5-20.6S25 334.9 25 325.5c0-9.4 1.7-18.1 5.1-26.1 3.6-8.2 8.2-15 14.3-20.6 12.6-11.9 27.3-17.7 43.8-17.7 13.5 0 32.9 3.6 49.1 20.8l.5.5-10.4 9.4-.5-.5c-6-5.8-12.3-10.2-17.9-12.3-5.6-1.9-13.3-3.1-20.6-3.1-11.6 0-21.3 3.9-31 12.3s-15.2 22-15.2 37.5c0 16 4.6 28.3 13.3 36.3 9.2 8.2 21.3 13.3 32.6 13.3 12.6 0 23.5-4.4 32.6-13.1v-24.7H90.1V323h48.1zM325.8 299.9c-3.4-8.2-8-15-13.8-20.6-5.8-5.8-12.8-10.4-20.6-13.5-8-3.4-16.4-4.8-25.4-4.8s-17.4 1.7-25.4 4.8c-7.7 3.1-14.8 7.7-20.6 13.5-5.8 5.6-10.4 12.6-13.8 20.6-3.4 7.7-5.1 16.4-5.1 25.6 0 12.1 2.9 23.2 8.5 33.1 5.6 9.7 13.5 17.7 23.5 23.2 9.9 5.6 20.8 8.2 32.6 8.2 11.9 0 23-2.9 32.6-8.2 9.9-5.6 17.7-13.5 23.5-23.2 5.8-9.9 8.7-21 8.7-33.1.4-8.9-1.3-17.7-4.7-25.6zm-59.7 75.2c-12.8 0-24.7-4.6-33.6-13.1-8.7-8.5-13.8-22-13.8-36.5 0-14.8 5.1-28.1 13.8-36.5 8.7-8.5 20.8-13.1 33.6-13.1 18.1 0 32.6 8.2 40.9 23.2 4.4 7.7 6.5 16.7 6.5 26.6s-2.2 18.9-6.5 26.6c-4.4 7.7-9.9 13.3-16.9 17.4-7.3 3.4-15 5.4-24 5.4zM436.6 263.8l-.2-.5h-5.6l-53.4 123.1-.5 1.2h17.4l13.8-32.4h50.8l13.8 32.4h17.4l-53.5-123.8zm-21 74 17.9-42.1 17.9 42.1h-35.8zM625 263.3v15h-38v109.4h-17.4V278.3h-38.2v-15z"/></svg>