<?xml version="1.0" encoding="utf-8"?>
<!-- Generator: Adobe Illustrator 19.2.1, SVG Export Plug-In . SVG Version: 6.00 Build 0)  -->
<svg version="1.1" id="layer" xmlns="http://www.w3.org/2000/svg" xmlns:xlink="http://www.w3.org/1999/xlink" x="0px" y="0px"
	 viewBox="0 0 652 652" style="enable-background:new 0 0 652 652;" xml:space="preserve">
<g id="Layer_2">
	<g>
		<g>
			<path d="M138.2,323.1v44.7l-0.2,0.2c-14.8,14.8-31.7,22-50.3,22c-16.4,0-32.6-6.5-44.3-17.7c-5.6-5.6-10.2-12.6-13.5-20.6
				S25,334.9,25,325.5c0-9.4,1.7-18.1,5.1-26.1c3.6-8.2,8.2-15,14.3-20.6c12.6-11.9,27.3-17.7,43.8-17.7c13.5,0,32.9,3.6,49.1,20.8
				l0.5,0.5l-10.4,9.4l-0.5-0.5c-6-5.8-12.3-10.2-17.9-12.3c-5.6-1.9-13.3-3.1-20.6-3.1c-11.6,0-21.3,3.9-31,12.3
				s-15.2,22-15.2,37.5c0,16,4.6,28.3,13.3,36.3c9.2,8.2,21.3,13.3,32.6,13.3c12.6,0,23.5-4.4,32.6-13.1v-24.7H90.1v-14.5H138.2z"/>
		</g>
		<g>
			<path d="M325.8,299.9c-3.4-8.2-8-15-13.8-20.6c-5.8-5.8-12.8-10.4-20.6-13.5c-8-3.4-16.4-4.8-25.4-4.8s-17.4,1.7-25.4,4.8
				c-7.7,3.1-14.8,7.7-20.6,13.5c-5.8,5.6-10.4,12.6-13.8,20.6c-3.4,7.7-5.1,16.4-5.1,25.6c0,12.1,2.9,23.2,8.5,33.1
				c5.6,9.7,13.5,17.7,23.5,23.2c9.9,5.6,20.8,8.2,32.6,8.2c11.9,0,23-2.9,32.6-8.2c9.9-5.6,17.7-13.5,23.5-23.2
				c5.8-9.9,8.7-21,8.7-33.1C330.9,316.6,329.2,307.8,325.8,299.9z M266.1,375.1c-12.8,0-24.7-4.6-33.6-13.1
				c-8.7-8.5-13.8-22-13.8-36.5c0-14.8,5.1-28.1,13.8-36.5c8.7-8.5,20.8-13.1,33.6-13.1c18.1,0,32.6,8.2,40.9,23.2
				c4.4,7.7,6.5,16.7,6.5,26.6s-2.2,18.9-6.5,26.6c-4.4,7.7-9.9,13.3-16.9,17.4C282.8,373.1,275.1,375.1,266.1,375.1z"/>
		</g>
		<g>
			<path d="M436.6,263.8l-0.2-0.5h-5.6l-53.4,123.1l-0.5,1.2h17.4l13.8-32.4h50.8l13.8,32.4h17.4L436.6,263.8z M415.6,337.8
				l17.9-42.1l17.9,42.1H415.6z"/>
		</g>
		<g>
			<polygon points="625,263.3 625,278.3 587,278.3 587,387.7 569.6,387.7 569.6,278.3 531.4,278.3 531.4,263.3 			"/>
		</g>
	</g>
</g>
</svg>
