<?xml version="1.0" encoding="UTF-8"?>
<svg viewBox="0 0 24 24" version="1.1" xmlns="http://www.w3.org/2000/svg" xmlns:xlink="http://www.w3.org/1999/xlink">
    <title>Google SGE</title>
        <path d="M18.0486925,6.04875771 C18.0486925,2.73676488 15.3607473,0.0487775122 12.0487545,0.0487775122 C8.73676169,0.0487775122 6.04875771,2.73676488 6.04875771,6.04875771 C2.73676488,6.04875771 0.0487775122,8.73676169 0.0487775122,12.0487545 C0.0487775122,15.3607473 2.73676488,18.0486925 6.04875771,18.0486925 C6.04875771,21.3606854 8.73676169,24.0487775 12.0487545,24.0487775 C15.3607473,24.0487775 18.0486925,21.3606854 18.0486925,18.0486925 C21.3606854,18.0486925 24.0487775,15.3607473 24.0487775,12.0487545 C24.0487775,8.73676169 21.3606854,6.04875771 18.0486925,6.04875771 Z M12.0487545,21.6486847 C12.0487545,16.3447942 7.75275892,12.0487545 2.44876551,12.0487545 C7.75275892,12.0487545 12.0487545,7.75275892 12.0487545,2.44876551 C12.0487545,7.75275892 16.3447942,12.0487545 21.6486847,12.0487545 C16.3447942,12.0487545 12.0487545,16.3447942 12.0487545,21.6486847 Z" fill="#000000"></path>
</svg>
