<svg viewBox="0 0 24 24" xmlns="http://www.w3.org/2000/svg"><path d="M15.229 7.662h.732l2.086-2.087.102-.885A9.377 9.377 0 0 0 2.896 9.265c.233-.096.49-.111.732-.044L7.8 8.533s.213-.352.322-.33a5.204 5.204 0 0 1 7.122-.541h-.014Z" fill="#ea4335"/><path d="M21.019 9.265a9.399 9.399 0 0 0-2.833-4.568l-2.928 2.928a5.204 5.204 0 0 1 1.91 4.128v.52a2.606 2.606 0 1 1 0 5.212h-5.211l-.52.527v3.125l.52.52h5.212a6.778 6.778 0 0 0 3.85-12.392Z" fill="#4285f4"/><path d="M6.738 21.628h5.212v-4.173H6.738a2.59 2.59 0 0 1-1.076-.234l-.732.227-2.1 2.086-.184.732a6.741 6.741 0 0 0 4.092 1.362Z" fill="#34a853"/><path d="M6.738 8.093a6.778 6.778 0 0 0-4.092 12.151l3.023-3.023a2.606 2.606 0 1 1 3.448-3.447l3.023-3.023a6.77 6.77 0 0 0-5.402-2.658Z" fill="#fbbc05"/></svg>