<svg viewBox="0 0 8 8" xmlns="http://www.w3.org/2000/svg"><defs><radialGradient cx="78.302%" cy="55.52%" fx="78.302%" fy="55.52%" r="78.115%" gradientTransform="scale(.99947 1) rotate(78.858 .783 .555)" id="a"><stop stop-color="#1BA1E3" offset="0%"/><stop stop-color="#1BA1E3" offset=".01%"/><stop stop-color="#5489D6" offset="30.022%"/><stop stop-color="#9B72CB" offset="54.552%"/><stop stop-color="#D96570" offset="82.537%"/><stop stop-color="#F49C46" offset="100%"/></radialGradient><radialGradient cx="-3.409%" cy="-54.219%" fx="-3.409%" fy="-54.219%" r="169.363%" gradientTransform="scale(.99946 1) rotate(78.858 -.034 -.542)" id="b"><stop stop-color="#1BA1E3" offset="0%"/><stop stop-color="#1BA1E3" offset=".01%"/><stop stop-color="#5489D6" offset="30.022%"/><stop stop-color="#9B72CB" offset="54.552%"/><stop stop-color="#D96570" offset="82.537%"/><stop stop-color="#F49C46" offset="100%"/></radialGradient></defs><g fill-rule="nonzero" fill="none"><path d="m3.797 5.374-.32.732a.344.344 0 0 1-.634 0l-.32-.732A2.818 2.818 0 0 0 1.09 3.921l-.88-.39a.36.36 0 0 1 0-.655l.852-.378A2.82 2.82 0 0 0 2.516.997l.324-.78c.12-.29.52-.29.64 0l.324.78c.279.673.8 1.21 1.454 1.501l.852.378a.36.36 0 0 1 0 .655l-.879.39a2.818 2.818 0 0 0-1.434 1.453Z" fill="url(#a)"/><path d="m6.765 7.681-.09.206a.185.185 0 0 1-.34 0l-.09-.206a1.589 1.589 0 0 0-.808-.82L5.16 6.74a.193.193 0 0 1 0-.35l.262-.117a1.59 1.59 0 0 0 .82-.847l.092-.222a.185.185 0 0 1 .343 0l.092.222c.158.38.451.683.82.847l.262.116c.15.067.15.284 0 .35l-.277.124c-.36.16-.648.452-.809.82Z" fill="url(#b)"/></g></svg>