<svg viewBox="0 0 24 24" xmlns="http://www.w3.org/2000/svg"><path d="M11.41.028C5.487.514.675 5.372.32 11.338c-.398 6.937 5.082 12.552 11.93 12.552 3.58 0 6.811-1.552 8.976-4.115l-.276 1.463v1.326c0 .663.442 1.276 1.105 1.409.884.176 1.643-.528 1.643-1.367v-7.83H16.27c-.84 0-1.5.76-1.367 1.643.133.663.746 1.105 1.409 1.105h2.126l1.243-.18c-1.989 2.917-5.4 4.237-9.155 3.618-3.05-.486-5.648-2.554-6.753-5.426C1.255 8.995 6.021 2.72 12.252 2.72c3.225 0 6.098 1.9 7.733 4.198v.041c.442.619 1.287.801 1.905.36.575-.398.74-1.205.387-1.823A11.878 11.878 0 0 0 11.409.028Z" fill="#2bb673"/></svg>