<?xml version="1.0" encoding="UTF-8"?>
<svg viewBox="0 0 24 24" version="1.1" xmlns="http://www.w3.org/2000/svg" xmlns:xlink="http://www.w3.org/1999/xlink">
    <title>Gravatar</title>
        <path d="M9.59974954,2.398988 L9.59974954,10.798557 C9.59974954,12.1234814 10.673806,13.197545 11.9987219,13.197545 C13.3236377,13.197545 14.3976942,12.1234814 14.3976942,10.798557 L14.3976942,5.21039928 C17.4225087,6.27681791 19.3773232,9.21531933 19.1920114,12.4172766 C19.0066996,15.619234 16.7259435,18.3126005 13.5982996,19.0229438 C10.4706558,19.7332871 7.25025269,18.2893313 5.70003898,15.4815426 C4.14982526,12.6737539 4.64358395,9.1791381 6.91101622,6.91075647 C7.83235654,5.97012008 7.82455011,4.4630291 6.89351487,3.53198777 C5.96247963,2.60094644 4.4553985,2.59313996 3.51476827,3.51448631 C-0.533188999,7.56242049 -1.15796902,13.9061435 2.02252712,18.6660022 C5.20302327,23.425861 11.3029573,25.2761299 16.591771,23.0852335 C21.8805847,20.8943371 24.8852269,15.2724883 23.768138,9.65786107 C22.6510491,4.04323379 17.7233629,-0.000374487502 11.9987219,0 C10.673806,0 9.59974954,1.07406351 9.59974954,2.398988 Z" fill="#4678EB"></path>
</svg>
