<svg stroke-miterlimit="10" style="fill-rule:nonzero;clip-rule:evenodd;stroke-linecap:round;stroke-linejoin:round" viewBox="0 0 1024 1024" xml:space="preserve" xmlns="http://www.w3.org/2000/svg" xmlns:vectornator="http://vectornator.io"><g vectornator:layerName="Untitled"><path d="M511.458 311.159c-63.31 0-114.632 51.323-114.632 114.632 0 63.309 51.322 114.631 114.632 114.631 63.309 0 114.632-51.322 114.632-114.631s-51.323-114.632-114.632-114.632m-89.493 111.974c0-48.307 40.553-87.467 90.577-87.467 50.025 0 90.578 39.16 90.578 87.467 3.24 58.315-62.755 107.776-85.886 109.359 0 0 9.624-14.697-4.692-15.82-50.024 0-91.895-40.591-90.577-93.539" fill="#e50112"/><path d="M500.532 359.644s-18.04 28.562-28.94 66.147c-7.863 1.405-14.257 4.278-19.027 7.366-1.613 1.044-6.154 3.91-4.944 9.516.455 2.739 1.662 5.083 2.925 5.293 2.255.377 3.006 0 3.006 0l14.282-9.02s-7.517 31.947-7.892 35.705c-.376 3.758 0 7.893 5.637 12.027 5.638 4.134 10.148 1.879 10.9-6.014 1.128-21.798 8.268-48.859 8.268-48.859l26.71-7.628s-9.797 36.944-8.669 49.347c2.324 6.717 8.669 6.013 8.669 6.013s4.861-.376 5.613-9.021c.751-8.643 5.638-45.476 9.02-49.986 5.261 0 11.275-1.88 11.275-1.88s-2.255-5.261-9.396-5.637c3.759-9.396 11.638-29.691 11.638-29.691s1.685-4.058 0-9.396c-4.121-3.383-5.249-2.632-7.128-.752-1.879 1.879-17.664 42.094-17.664 42.094l-26.685 4.51s11.65-38.335 21.423-51.49c3.007-6.014 0-5.637-1.128-7.141-1.127-1.503-5.55-5.428-7.893-1.503M561.795 391.214s-3.383-10.523-9.02-3.007c-1.598 6.108 6.295 5.262 6.295 5.262v9.584s-.615 7.047-6.508 7.611c-5.895.564-5.613 1.691-5.331 5.356.281 3.664-8.739 26.215-9.021 36.362-.281 10.148 2.819 18.886 15.786 18.886 12.966 0 20.295-12.684 19.731-20.577 0 0-.453.227-1.65 1.04-2.073 1.407-6.242 13.054-14.417 11.363-4.792-.282-8.174-5.074-3.946-18.04 4.228-12.967 9.866-23.115 10.993-26.497.846-3.665-2.819-3.947-3.664-7.611 2.537-4.792.658-16.067.752-19.732M221.658 614.464h-25.087v-10.993h25.087v10.993ZM221.658 640.397h-25.087v-10.993h25.087v10.993ZM207.987 652.659v27.061s.704 12.402-12.403 21.563c8.175 9.866 8.879 10.148 8.879 10.148s16.067-9.584 17.195-31.007v-27.765h-13.671ZM235.188 598.679v13.248s-.423 2.537 2.96 2.537h77.095v-10.007h-66.665v-5.778h-13.39ZM252.195 633.727v18.932h15.597v-13.295l13.625-.093v13.388h17.852v-18.932h-47.074Zm-.375 30.349-.846 22.456h16.818v-16.818h13.625v16.818h17.852v-22.456H251.82Zm55.999-40.592c4.792.093 4.041 4.605 4.041 4.605l-.094 24.712 5.732.094v11.275h-5.638v22.362h4.416v10.242l-5.543-.001c-1.691 9.584-12.121 16.068-12.121 16.068s-1.691-1.692-9.02-10.148c3.382-1.41 6.483-5.92 6.483-5.92h-54.967c-3.664 0-3.382-3.664-3.382-3.664l.704-28.893h-8.879v-11.557h8.876s.144-17.477.003-23.255c-.14-5.779 4.933-5.92 4.933-5.92s59.664-.092 64.456 0M389.659 598.679v5.637l-43.492-.071s-2.666.353-2.548 3.454c.187 2.442-.008 71.785-.008 71.785s1.135 9.771-11.267 22.55c8.268 9.584 8.738 10.056 8.738 10.056s15.503-10.899 15.855-31.108l.024-66.518 89.074.095v-10.148l-42.939.094v-5.826h-13.437Z" fill="#e50112"/><path d="M378.243 634.759v20.366h32.98l-5.779-20.366h-27.201Zm65.537-10.24v10.171s-20.506.069-24.805.069c.25 1.743 5.637 20.225 5.637 20.225h21.423v10.148h-17.969c1.691 21.916 16.913 36.151 16.913 36.151s-4.933 6.343-8.246 10.219c-17.828-13.46-23.208-46.298-23.208-46.298h-35.141l-.094 18.134c.094 9.395 3.476 16.349 3.476 16.349s-1.879 2.63-7.892 10.618c-9.209-8.926-9.02-26.215-9.02-26.215v-55.531c0-3.382 3.57-4.04 3.57-4.04h75.356Z" fill="#e6020f"/><path d="M390.787 684.441s1.691 18.886 12.261 27.061c5.497-6.414 8.27-10.172 8.27-10.172s-6.296-7.798-7.142-16.889h-13.389ZM478.734 599.806v6.39h-9.96v10.711h9.96v28.752l-13.531 6.577 5.826 11.839 7.705-3.382v17.852s-.189 15.409-11.464 23.114c6.765 9.02 8.456 10.431 8.456 10.431s15.599-11.559 15.41-31.29l.001-27.625 9.019-6.013-5.449-9.96-3.571 1.504v-21.987h6.765v-10.148l-6.765.07v-6.835h-12.402ZM518.267 599.806v6.765h-13.53v10.219h13.53v6.623h11.276v-6.623h24.734v6.623h13.531v-6.694h12.403v-10.148h-12.403l-.14-6.765h-13.32v6.835h-24.805v-6.835h-11.276ZM508.472 629.122s-3.664.07-3.736 3.594c-.069 3.523 0 16.771 0 16.771h13.532v-10.182h49.611v10.182h11.204v-17.052s-.352-3.313-3.875-3.313h-66.736Z" fill="#e6020f"/><path d="M529.472 648.36v7.963h-23.607v10.078h23.607s-2.819 22.832-23.607 35.939c2.114 2.256 8.596 9.749 8.596 9.749s25.653-14.4 27.434-45.829h23.729v14.939s-.071 11.769-11.276 20.79l8.386 10.076s15.434-9.794 16.349-31.007v-21s.423-3.946-3.382-3.946c-2.819.07-33.806 0-33.806 0v-7.752h-12.423ZM603.889 606.43h12.543v25.088s.846 10.429 4.933 15.503c-4.51 5.779-7.47 9.302-7.47 9.302s-8.738-5.919-10.006-22.973c-.141-16.208 0-26.92 0-26.92M694.951 606.43h-12.544v25.088s-.846 10.429-4.933 15.503c4.51 5.779 7.47 9.302 7.47 9.302s8.738-5.919 10.007-22.973c.141-16.208 0-26.92 0-26.92" fill="#e6020f"/><path d="M642.225 599.806v37.772s-.423 33.967-47.357 63.001c2.256 2.959 7.611 11.511 7.611 11.511s31.43-17.008 46.933-51.538c13.108 30.161 44.961 50.597 47.779 50.879 4.369-6.483 5.92-9.161 6.906-11.416-26.919-14.799-48.342-47.638-48.342-63.282l-.141-36.927h-13.389ZM715.655 601.075v10.852s-.423 4.369 4.087 4.651c4.51.282 32.98 0 32.98 0V606.43h-23.537v-5.355h-13.53ZM715.643 627.853v11.135h10.019v14.798h-10.019v10.148h10.019v26.215s2.536 16.68 10.006 21.941c6.061-7.424 7.188-9.538 7.188-9.538s-6.06-6.483-5.919-17.477v-21h15.785v-10.148h-15.785v-14.516h15.785v-11.558h-37.079ZM776.259 620.102h34.953v-9.021h-34.953v9.021Zm44.396-19.027c4.51 0 4.087 3.523 4.087 3.523v20.718c0 4.37-3.664 4.933-3.664 4.933h-20.859v10.148h22.832c5.779.846 5.358 5.638 5.358 5.638l-.002 42.564c.141 15.221-7.329 23.491-7.329 23.491s-2.537-3.196-8.597-10.384c4.087-7.752 3.241-13.953 3.241-13.953v-36.222h-15.503c1.127 13.249 14.799 20.86 14.799 20.86s-4.511 7.329-6.343 9.584c0 0-11.275-7.47-14.517-14.658-3.1 7.329-14.798 14.939-14.798 14.939s-.705-1.268-6.343-9.865c15.504-8.739 14.376-20.86 14.376-20.86h-15.359c.022 5.711.123 34.534-.003 42.142-.141 8.456-5.215 18.417-5.215 18.417s-5.92-6.578-9.443-11.37c1.973-4.229 1.973-7.329 1.973-7.329v-48.202c.282-4.51 4.228-4.651 4.228-4.651h25.088v-10.007h-21.141c-4.933-.141-4.792-4.087-4.792-4.087s-.141-16.913 0-20.859c.141-4.792 4.792-4.51 4.792-4.51s48.483-.282 53.134 0" fill="#e6020f"/></g></svg>