<svg stroke-miterlimit="10" style="fill-rule:nonzero;clip-rule:evenodd;stroke-linecap:round;stroke-linejoin:round" viewBox="0 0 24 24" xml:space="preserve" xmlns="http://www.w3.org/2000/svg"><clipPath id="a"><path d="M0 0h24v24H0z"/></clipPath><g clip-path="url(#a)"><path d="M2.482 8.468c.001-.197-.006-.394.009-.59h1.23c-.003 1.546.007 3.094-.005 4.641-.416.031-.84.008-1.235-.134.002-1.306 0-2.612 0-3.917ZM5.774 7.877c.41.002.822.002 1.232 0 .023 1.14-.004 2.28.013 3.419.007.274.007.549 0 .824-.01 1.323-.002 2.647-.005 3.97-.413.002-.827-.002-1.24.003 0-1.126.005-2.252-.003-3.377a12.771 12.771 0 0 1 .001-.837c.006-1.334.001-2.668.002-4.002ZM9 7.878h1.246c-.001 1.03.001 2.062-.001 3.094l-.03-.01a3.336 3.336 0 0 0-1.216-.131V7.878ZM13.02 7.878h1.091c.021 1.068.003 2.138.01 3.208v5.005h-1.102c.002-2.738 0-5.475.001-8.213ZM14.381 12.08c1-1.395 1.983-2.803 2.986-4.196.446-.014.893 0 1.339-.007l-.061.087c-.967 1.368-1.94 2.732-2.907 4.1a953.441 953.441 0 0 0 2.973 4.029c-.448-.004-.896-.002-1.344-.001-.996-1.337-1.99-2.675-2.986-4.011Z"/><path d="M0 9.29c.255.002.51.003.765 0 .06.665.183 1.338.493 1.938.258.507.667.979 1.223 1.157.395.142.82.165 1.235.134.722-.061 1.405-.338 2.056-.64-.01.279-.01.558 0 .837a7.24 7.24 0 0 1-2.054.58 3.088 3.088 0 0 1-1.236-.093c-.383-.124-.757-.291-1.065-.555-.671-.542-1.045-1.361-1.25-2.181A6.565 6.565 0 0 1 0 9.29ZM7.019 11.296c.636-.243 1.3-.419 1.98-.465.408-.03.825.01 1.216.131.347.13.696.273.991.503.837.617 1.314 1.607 1.539 2.6.065.288.104.582.122.876-.26-.006-.52-.002-.781-.003a4.563 4.563 0 0 0-.447-1.74c-.295-.6-.756-1.161-1.397-1.4A3.161 3.161 0 0 0 9 11.606c-.688.024-1.352.247-1.982.514.008-.275.008-.55.001-.824Z" fill="#ed1c24"/><path d="M9 11.606c.422-.014.847.04 1.242.192.01 1.432 0 2.863.005 4.295-.416-.005-.832 0-1.247-.002 0-1.495-.002-2.99 0-4.485ZM19.349 7.836c-.128-.003-.263.047-.334.156-.087.16-.066.346-.068.521v6.978c.002.163-.017.333.054.487.068.121.21.19.346.185h2.047c.51-.004 1.029-.1 1.48-.346.49-.258.857-.72 1.015-1.248.166-.58.153-1.217-.086-1.774l-.083-.168c-.196-.35-.5-.643-.871-.801-.107-.048-.223-.071-.325-.129.256-.142.492-.327.656-.574.1-.158.18-.327.235-.506a2.549 2.549 0 0 0-.117-1.72c-.192-.423-.572-.73-1.001-.89l-.128-.04a3.556 3.556 0 0 0-1.027-.13H19.35Zm1.753.887c.317.004.65.053.917.238.152.098.252.254.337.41.147.394.153.835.035 1.238a3.47 3.47 0 0 0-.041.113 1.492 1.492 0 0 1-.207.323l-.085.086c-.098.085-.21.15-.322.213-.204.07-.418.097-.631.099h-1.151c0-.906-.002-1.812.001-2.718.382-.002.765 0 1.147-.002Zm-1.148 3.585h1.314c.46.002.952.101 1.291.436.077.091.146.189.21.29.203.429.225.937.08 1.387-.096.23-.252.428-.45.579-.058.032-.113.066-.17.1-.258.13-.551.162-.836.166h-1.44v-2.958ZM2.482 13.203c.398.12.824.14 1.236.094.008.932 0 1.864.004 2.796-.413-.005-.827 0-1.24-.002v-2.888Z"/></g></svg>