<svg viewBox="0 0 24 24" xmlns="http://www.w3.org/2000/svg"><path d="M21.343 10.978a1.045 1.045 0 1 0-.001 2.09 1.045 1.045 0 0 0 0-2.09" fill="#4279bb"/><path d="M21.353 13.365a1.333 1.333 0 1 1 0-2.666 1.333 1.333 0 0 1 0 2.666m-.01-4a2.658 2.658 0 1 0 0 5.316 2.658 2.658 0 0 0 0-5.316m-5.422 3.379h1.495c-.334.961-1.243.801-1.243.801-.735-.013-1.08-.614-1.08-.614-.615-1.07 0-1.857 0-1.857.28-.494 1.015-.547 1.015-.547.894 0 1.201.668 1.201.668h1.389a2.658 2.658 0 1 0 .116.534h-2.893v1.015Zm-5.657.263a1.04 1.04 0 1 0 0-2.08 1.04 1.04 0 0 0 0 2.08m-1.324-1.04a1.324 1.324 0 1 1 2.648-.001 1.324 1.324 0 0 1-2.648 0m-1.844 0c.163-.021.436-.208.533-.328-.034.149-.036.578.003.726-.11-.169-.37-.377-.536-.398m-.952-1.402c.208 0 .372.206.372.44 0 .233-.164.44-.372.44h-.716v-.88h.716Zm-.003 1.953c.209 0 .372.206.372.44s-.163.44-.372.44h-.715v-.88h.715Zm4.122 2.117c1.457 0 2.643-1.211 2.643-2.668a2.629 2.629 0 0 0-2.643-2.646c-1.456-.002-2.2 1.07-2.383 1.502.001-.648-.639-1.415-1.387-1.416H4.08v5.202H6.33c.907 0 1.552-.785 1.553-1.458.208.424.925 1.485 2.381 1.484m-6.476-.024H2.373V12.59h-.918v2.019H.006L0 9.407h1.456v1.935h.917V9.407h1.414v5.203Z"/></svg>