<svg stroke-miterlimit="10" style="fill-rule:nonzero;clip-rule:evenodd;stroke-linecap:round;stroke-linejoin:round" viewBox="0 0 24 24" xml:space="preserve" xmlns="http://www.w3.org/2000/svg" xmlns:vectornator="http://vectornator.io"><defs><radialGradient cx="1494.39" cy="-276.441" gradientTransform="matrix(.01466 0 0 .01909 -8.17 16.512)" gradientUnits="userSpaceOnUse" id="c" r="164.575"><stop offset="0" stop-color="#7ba7f2" stop-opacity=".5"/><stop offset="1" stop-color="#7ba7f2" stop-opacity="0"/></radialGradient><radialGradient cx="3339.86" cy="-386.742" gradientTransform="matrix(.02182 0 0 .01545 -56.725 19.829)" gradientUnits="userSpaceOnUse" id="e" r="227.558"><stop offset=".2" stop-color="#7ba7f2"/><stop offset="1" stop-color="#7ba7f2" stop-opacity="0"/></radialGradient><radialGradient cx="3479.59" cy="-189.161" gradientTransform="matrix(.02182 0 0 .02182 -56.725 14.287)" gradientUnits="userSpaceOnUse" id="g" r="123.773"><stop offset="0" stop-color="#7ba7f2"/><stop offset="1" stop-color="#7ba7f2" stop-opacity="0"/></radialGradient><linearGradient gradientTransform="matrix(.02182 0 0 .02182 -56.725 14.287)" gradientUnits="userSpaceOnUse" id="a" x1="3080.64" x2="3700" y1="-104.745" y2="-104.745"><stop offset="0" stop-color="#991eeb"/><stop offset=".399" stop-color="#5822b4"/><stop offset=".727" stop-color="#5822b4"/><stop offset="1" stop-color="#991eeb"/></linearGradient></defs><g vectornator:layerName="g52"><path d="M2.956 14.062H1.85v-1.578h-.715v1.578H0v-4.07h1.132v1.52h.716v-1.52h1.106v4.07h.002Zm5.07.017c1.133 0 2.058-.942 2.058-2.09a2.049 2.049 0 0 0-2.057-2.066 2.034 2.034 0 0 0-1.868 1.174c0-.504-.504-1.106-1.089-1.106H3.181v4.07h1.758c.716 0 1.22-.61 1.22-1.147.16.332.722 1.165 1.868 1.165ZM4.8 12.425c.163 0 .294.16.294.34 0 .19-.13.35-.294.35h-.563v-.69H4.8Zm0-1.527c.163 0 .294.16.294.34 0 .182-.13.34-.294.34h-.563v-.68H4.8Zm.744 1.091c.13-.009.345-.16.425-.249-.03.11-.03.454 0 .563-.09-.133-.294-.29-.425-.314Zm1.45 0a1.035 1.035 0 1 1 2.069.015 1.034 1.034 0 0 1-2.068-.015Zm1.033.816a.813.813 0 0 0 0-1.628.808.808 0 0 0-.816.812c0 .454.362.816.816.816Z"/><path d="M15.996 11.433c-.021-.986-.72-1.508-1.575-1.508-.469 0-.892.157-1.18.463-.288-.306-.711-.463-1.18-.463-.856 0-1.554.524-1.575 1.51v2.256c0 .207.167.373.372.373h.354a.063.063 0 0 0 .063-.063v-2.562c.015-.486.36-.744.786-.744.425 0 .77.258.785.744v2.25c0 .207.168.373.373.373h.354a.063.063 0 0 0 .063-.063v-2.562c.015-.486.36-.744.785-.744.426 0 .77.258.786.744v2.25c0 .207.168.373.373.373h.353a.063.063 0 0 0 .063-.064v-2.561c.003.002 0 0 0-.002Zm7.957-1.445h-.6a.503.503 0 0 0-.414.22l-.663.983a.218.218 0 0 1-.363 0l-.663-.982a.5.5 0 0 0-.414-.22h-.6a.047.047 0 0 0-.04.071l1.183 1.755a.375.375 0 0 1 0 .418l-1.183 1.755c-.021.03.003.072.04.072h.6c.166 0 .32-.083.414-.22l.663-.983a.218.218 0 0 1 .363 0l.663.982a.5.5 0 0 0 .414.22h.6a.047.047 0 0 0 .04-.071l-1.185-1.752a.376.376 0 0 1 0-.42l1.182-1.753c.022-.03 0-.075-.037-.075Zm-4.027 0h-.354a.377.377 0 0 0-.366.295 1.85 1.85 0 0 0-1.135-.362c-1.034 0-1.874.72-1.874 2.079 0 1.36.838 2.08 1.874 2.08.424 0 .814-.12 1.128-.356.018.19.177.34.373.34h.354a.063.063 0 0 0 .063-.063v-3.95c-.002-.034-.028-.063-.063-.063Zm-1.855 3.319c-.617 0-1.119-.452-1.119-1.305s.502-1.305 1.12-1.305c.617 0 1.119.452 1.119 1.305s-.502 1.305-1.12 1.305Z" fill="url(#a)"/><clipPath id="b"><path d="M15.996 11.433c-.021-.986-.72-1.508-1.575-1.508-.469 0-.892.157-1.18.463-.288-.306-.711-.463-1.18-.463-.856 0-1.554.524-1.575 1.51v2.256c0 .207.167.373.372.373h.354a.063.063 0 0 0 .063-.063v-2.562c.015-.486.36-.744.786-.744.425 0 .77.258.785.744v2.25c0 .207.168.373.373.373h.354a.063.063 0 0 0 .063-.063v-2.562c.015-.486.36-.744.785-.744.426 0 .77.258.786.744v2.25c0 .207.168.373.373.373h.353a.063.063 0 0 0 .063-.064v-2.561c.003.002 0 0 0-.002Zm7.957-1.445h-.6a.503.503 0 0 0-.414.22l-.663.983a.218.218 0 0 1-.363 0l-.663-.982a.5.5 0 0 0-.414-.22h-.6a.047.047 0 0 0-.04.071l1.183 1.755a.375.375 0 0 1 0 .418l-1.183 1.755c-.021.03.003.072.04.072h.6c.166 0 .32-.083.414-.22l.663-.983a.218.218 0 0 1 .363 0l.663.982a.5.5 0 0 0 .414.22h.6a.047.047 0 0 0 .04-.071l-1.185-1.752a.376.376 0 0 1 0-.42l1.182-1.753c.022-.03 0-.075-.037-.075Zm-4.027 0h-.354a.377.377 0 0 0-.366.295 1.85 1.85 0 0 0-1.135-.362c-1.034 0-1.874.72-1.874 2.079 0 1.36.838 2.08 1.874 2.08.424 0 .814-.12 1.128-.356.018.19.177.34.373.34h.354a.063.063 0 0 0 .063-.063v-3.95c-.002-.034-.028-.063-.063-.063Zm-1.855 3.319c-.617 0-1.119-.452-1.119-1.305s.502-1.305 1.12-1.305c.617 0 1.119.452 1.119 1.305s-.502 1.305-1.12 1.305Z"/></clipPath><g clip-path="url(#b)"><path d="M11.325 11.236c0-1.735 1.08-3.141 2.413-3.141 1.333 0 2.413 1.406 2.413 3.141 0 1.736-1.08 3.142-2.413 3.142-1.332 0-2.413-1.406-2.413-3.142Z" fill="url(#c)"/></g><clipPath id="d"><path d="M15.996 11.433c-.021-.986-.72-1.508-1.575-1.508-.469 0-.892.157-1.18.463-.288-.306-.711-.463-1.18-.463-.856 0-1.554.524-1.575 1.51v2.256c0 .207.167.373.372.373h.354a.063.063 0 0 0 .063-.063v-2.562c.015-.486.36-.744.786-.744.425 0 .77.258.785.744v2.25c0 .207.168.373.373.373h.354a.063.063 0 0 0 .063-.063v-2.562c.015-.486.36-.744.785-.744.426 0 .77.258.786.744v2.25c0 .207.168.373.373.373h.353a.063.063 0 0 0 .063-.064v-2.561c.003.002 0 0 0-.002Zm7.957-1.445h-.6a.503.503 0 0 0-.414.22l-.663.983a.218.218 0 0 1-.363 0l-.663-.982a.5.5 0 0 0-.414-.22h-.6a.047.047 0 0 0-.04.071l1.183 1.755a.375.375 0 0 1 0 .418l-1.183 1.755c-.021.03.003.072.04.072h.6c.166 0 .32-.083.414-.22l.663-.983a.218.218 0 0 1 .363 0l.663.982a.5.5 0 0 0 .414.22h.6a.047.047 0 0 0 .04-.071l-1.185-1.752a.376.376 0 0 1 0-.42l1.182-1.753c.022-.03 0-.075-.037-.075Zm-4.027 0h-.354a.377.377 0 0 0-.366.295 1.85 1.85 0 0 0-1.135-.362c-1.034 0-1.874.72-1.874 2.079 0 1.36.838 2.08 1.874 2.08.424 0 .814-.12 1.128-.356.018.19.177.34.373.34h.354a.063.063 0 0 0 .063-.063v-3.95c-.002-.034-.028-.063-.063-.063Zm-1.855 3.319c-.617 0-1.119-.452-1.119-1.305s.502-1.305 1.12-1.305c.617 0 1.119.452 1.119 1.305s-.502 1.305-1.12 1.305Z"/></clipPath><g clip-path="url(#d)"><path d="M11.177 13.854c0-1.94 2.223-3.514 4.966-3.514 2.742 0 4.965 1.573 4.965 3.514 0 1.942-2.223 3.515-4.965 3.515-2.743 0-4.966-1.573-4.966-3.514Z" fill="url(#e)"/></g><clipPath id="f"><path d="M15.996 11.433c-.021-.986-.72-1.508-1.575-1.508-.469 0-.892.157-1.18.463-.288-.306-.711-.463-1.18-.463-.856 0-1.554.524-1.575 1.51v2.256c0 .207.167.373.372.373h.354a.063.063 0 0 0 .063-.063v-2.562c.015-.486.36-.744.786-.744.425 0 .77.258.785.744v2.25c0 .207.168.373.373.373h.354a.063.063 0 0 0 .063-.063v-2.562c.015-.486.36-.744.785-.744.426 0 .77.258.786.744v2.25c0 .207.168.373.373.373h.353a.063.063 0 0 0 .063-.064v-2.561c.003.002 0 0 0-.002Zm7.957-1.445h-.6a.503.503 0 0 0-.414.22l-.663.983a.218.218 0 0 1-.363 0l-.663-.982a.5.5 0 0 0-.414-.22h-.6a.047.047 0 0 0-.04.071l1.183 1.755a.375.375 0 0 1 0 .418l-1.183 1.755c-.021.03.003.072.04.072h.6c.166 0 .32-.083.414-.22l.663-.983a.218.218 0 0 1 .363 0l.663.982a.5.5 0 0 0 .414.22h.6a.047.047 0 0 0 .04-.071l-1.185-1.752a.376.376 0 0 1 0-.42l1.182-1.753c.022-.03 0-.075-.037-.075Zm-4.027 0h-.354a.377.377 0 0 0-.366.295 1.85 1.85 0 0 0-1.135-.362c-1.034 0-1.874.72-1.874 2.079 0 1.36.838 2.08 1.874 2.08.424 0 .814-.12 1.128-.356.018.19.177.34.373.34h.354a.063.063 0 0 0 .063-.063v-3.95c-.002-.034-.028-.063-.063-.063Zm-1.855 3.319c-.617 0-1.119-.452-1.119-1.305s.502-1.305 1.12-1.305c.617 0 1.119.452 1.119 1.305s-.502 1.305-1.12 1.305Z"/></clipPath><g clip-path="url(#f)"><path d="M16.49 10.159a2.701 2.701 0 1 1 5.402 0 2.701 2.701 0 0 1-5.402 0Z" fill="url(#g)"/></g></g></svg>