<?xml version="1.0" encoding="utf-8"?>
<!-- Generator: Adobe Illustrator 12.0.0, SVG Export Plug-In  -->
<!DOCTYPE svg PUBLIC "-//W3C//DTD SVG 1.1//EN" "http://www.w3.org/Graphics/SVG/1.1/DTD/svg11.dtd" [
	<!ENTITY ns_flows "http://ns.adobe.com/Flows/1.0/">
	<!ENTITY ns_svg "http://www.w3.org/2000/svg">
	<!ENTITY ns_xlink "http://www.w3.org/1999/xlink">
]>
<svg  version="1.1" xmlns="&ns_svg;" xmlns:xlink="&ns_xlink;" xmlns:a="http://ns.adobe.com/AdobeSVGViewerExtensions/3.0/"
	 width="188" height="109" viewBox="-0.834 -0.175 188 109" enable-background="new -0.834 -0.175 188 109" xml:space="preserve">
<defs>
</defs>
<polygon fill-rule="evenodd" clip-rule="evenodd" fill="#F37021" points="0,53.915 11.246,53.915 11.246,58.004 7.77,58.004 
	7.77,64.854 20.447,64.854 20.447,58.004 16.869,58.004 16.869,53.915 28.319,53.915 28.319,58.004 24.638,58.004 24.638,78.145 
	28.319,78.145 28.319,82.131 16.869,82.131 16.869,78.145 20.447,78.145 20.447,68.84 7.77,68.84 7.77,78.145 11.246,78.145 
	11.246,82.131 0,82.131 0,78.145 3.579,78.145 3.579,58.004 0,58.004 0,53.915 "/>
<polygon fill-rule="evenodd" clip-rule="evenodd" fill="#F37021" points="134.539,53.915 157.644,53.915 157.644,61.788 
	153.758,61.788 153.758,58.004 142.513,58.004 142.513,64.752 152.124,64.752 152.124,68.739 142.513,68.739 142.513,78.145 
	153.657,78.145 153.657,72.725 157.746,72.725 157.746,82.131 134.539,82.131 134.539,78.145 138.322,78.145 138.322,58.004 
	134.539,58.004 134.539,53.915 "/>
<polygon fill-rule="evenodd" clip-rule="evenodd" fill="#F37021" points="33.533,53.915 56.74,53.915 56.74,61.788 52.752,61.788 
	52.752,58.004 41.507,58.004 41.507,64.752 51.117,64.752 51.117,68.739 41.507,68.739 41.507,78.145 52.65,78.145 52.65,72.725 
	56.74,72.725 56.74,82.131 33.533,82.131 33.533,78.145 37.315,78.145 37.315,58.004 33.533,58.004 33.533,53.915 "/>
<polygon fill-rule="evenodd" clip-rule="evenodd" fill="#F37021" points="141.287,50.132 149.567,50.132 151.612,52.586 
	143.536,52.586 141.287,50.132 "/>
<path fill-rule="evenodd" clip-rule="evenodd" fill="#F37021" d="M180.339,65.979c-2.862-0.717-4.805-0.613-7.77-1.533
	c-2.556-0.922-3.067-2.455-3.067-3.477c0-1.125,1.125-3.885,5.214-3.885c4.09,0,6.85,2.76,6.952,5.111l0,0l0,0h3.987v-8.281h-3.885
	v1.839l0.204,0.512v0.102v-0.102c-0.102,0-0.204-0.307-0.613-0.613c0,0,0,0,0-0.102c-1.125-1.023-3.476-2.25-6.952-2.25
	c-4.191,0-9.099,2.658-9.099,7.667c0,4.906,3.477,6.543,6.543,7.361c2.965,0.816,4.498,0.816,7.055,1.533
	c2.453,0.613,4.089,2.146,4.089,4.396c0,2.043-1.329,4.805-6.646,4.805c-5.214,0-7.36-2.863-7.974-6.85l0,0h-3.783v9.916h3.886
	v-1.84l0,0l-0.103-0.512c0,0,0.103,0.307,0.613,0.613v0.102c1.942,1.535,4.601,2.557,7.872,2.557c3.782,0,10.223-1.941,10.223-8.689
	C187.086,69.454,184.531,67.206,180.339,65.979L180.339,65.979z"/>
<polygon fill-rule="evenodd" clip-rule="evenodd" fill="#F37021" points="125.44,78.145 125.44,58.004 129.223,58.004 
	129.223,53.915 119,53.915 112.15,70.477 112.048,71.295 111.843,70.477 105.096,53.915 94.77,53.915 94.77,58.004 98.553,58.004 
	98.553,78.145 94.77,78.145 94.77,82.131 106.323,82.131 106.323,78.145 102.745,78.145 102.745,59.639 102.745,58.413 
	103.051,59.333 110.923,78.145 113.172,78.145 121.044,59.333 121.249,58.311 121.351,59.436 121.351,78.145 117.773,78.145 
	117.773,82.131 129.223,82.131 129.223,78.145 125.44,78.145 "/>
<path fill-rule="evenodd" clip-rule="evenodd" fill="#F37021" d="M43.041,43.078c0,0-0.103,0-3.885,0v-1.022h2.863
	C42.12,42.261,42.734,42.771,43.041,43.078L43.041,43.078z"/>
<path fill-rule="evenodd" clip-rule="evenodd" fill="#F37021" d="M140.673,43.078c0-0.409,0.408-0.817,0.92-1.022h2.045v1.022
	H140.673L140.673,43.078z"/>
<path fill-rule="evenodd" clip-rule="evenodd" fill="#F37021" d="M76.471,43.794c-1.738,0.818-3.885,0.715-5.623,0H50.503
	c-1.942,0.818-4.191,0.818-6.134,0h-5.214v1.942h104.483v-1.942H76.471L76.471,43.794z"/>
<path fill-rule="evenodd" clip-rule="evenodd" fill="#F37021" d="M51.73,43.078c0.307-0.204,1.022-0.92,1.125-1.022h15.744
	c0.205,0.307,0.716,0.818,1.022,1.022H51.73L51.73,43.078z"/>
<path fill-rule="evenodd" clip-rule="evenodd" fill="#F37021" d="M73.71,42.465c2.658,0,4.907-2.249,4.907-4.907
	c0-2.76-2.249-5.009-4.907-5.009c-2.76,0-5.009,2.249-5.009,5.009C68.701,40.216,70.95,42.465,73.71,42.465v1.022
	c-3.374,0-6.032-2.658-6.032-5.93c0-3.374,2.658-6.032,6.032-6.032c3.271,0,5.929,2.658,5.929,6.032c0,3.271-2.658,5.93-5.929,5.93
	V42.465L73.71,42.465z"/>
<path fill-rule="evenodd" clip-rule="evenodd" fill="#F37021" d="M54.184,36.74c0-3.68-3.067-6.748-6.748-6.748
	c-3.783,0-6.748,3.067-6.748,6.748c0,3.783,2.965,6.748,6.748,6.748C51.117,43.487,54.184,40.522,54.184,36.74h-1.125
	c0,3.169-2.556,5.725-5.623,5.725c-3.169,0-5.725-2.556-5.725-5.725c0-3.169,2.556-5.623,5.725-5.623
	c3.067,0,5.623,2.454,5.623,5.623H54.184L54.184,36.74z"/>
<path fill-rule="evenodd" clip-rule="evenodd" fill="#F37021" d="M76.879,40.931l-2.044-2.351v-0.103
	c0.102-0.102,0.102-0.204,0.204-0.307l0,0l3.067,0.818c0.102,0,0.307,0.102,0.307,0.204c0-0.103,0.103-0.511,0.205-0.716
	c-0.102,0.103-0.307,0.103-0.511,0.103l-2.863-0.818c-0.102,0-0.102-0.103-0.102-0.103c0-0.102,0-0.307,0-0.409v-0.102l2.965-1.125
	c0,0,0.307,0,0.307,0.102c0-0.102-0.205-0.614-0.205-0.716c0,0.102-0.205,0.307-0.307,0.307l0.205-0.103l-3.067,1.125
	c0,0.103,0,0-0.102,0c0-0.102-0.102-0.205-0.205-0.205c0-0.102-0.102-0.204,0-0.204l1.636-2.556
	c0.102-0.102,0.307-0.204,0.409-0.204c-0.102,0-0.511-0.307-0.716-0.409c0.103,0,0.103,0.307,0,0.409l-1.636,2.556
	c-0.102,0-0.102,0-0.204,0c0,0-0.205-0.102-0.307-0.102c0,0-0.102,0-0.102-0.103l-0.102-2.965c0-0.204,0-0.409,0.204-0.409
	c-0.204,0-0.613,0-0.817,0c0.102,0,0.204,0.307,0.204,0.409l0.103,2.965c0,0.103-0.103,0.103-0.103,0.103s-0.204,0.102-0.307,0.204
	c0,0-0.102,0-0.102-0.102l-1.942-2.352c-0.103-0.102-0.103-0.307-0.103-0.409c-0.102,0.102-0.511,0.409-0.613,0.511
	c0.102,0,0.307,0.102,0.409,0.204l1.943,2.352v0.102c-0.103,0-0.205,0.205-0.205,0.307c0,0-0.102,0.102-0.205,0.102l-2.862-0.818
	c-0.205-0.102-0.307-0.205-0.307-0.307c0,0.102-0.205,0.613-0.205,0.715c0,0,0.307-0.102,0.409,0l2.863,0.716
	c0.102,0,0.102,0.102,0.102,0.102c0,0.103,0,0.307,0,0.409v0.103l-2.862,1.226c-0.103,0-0.307,0.103-0.307,0
	c0,0.103,0.102,0.512,0.204,0.716c0-0.102,0.205-0.307,0.307-0.307l2.76-1.227c0.102,0,0.102,0.102,0.102,0.102
	c0.102,0,0.205,0.102,0.205,0.205c0.102,0,0.102,0.102,0.102,0.102l-1.738,2.556c-0.103,0.102-0.205,0.204-0.307,0.204
	c0.103,0.103,0.511,0.409,0.614,0.409c-0.103,0,0-0.307,0-0.409l1.738-2.453c0-0.103,0.103-0.103,0.103-0.103
	c0.102,0.103,0.204,0.103,0.307,0.103c0.102,0,0.102,0,0.102,0.102l0.205,3.067c0,0.103-0.103,0.307-0.205,0.307
	c0.102,0,0.613,0,0.818,0c-0.205,0-0.205-0.204-0.205-0.409l-0.205-2.965c0-0.102,0.103-0.102,0.103-0.102
	c0.102,0,0.307-0.103,0.409-0.205c0,0,0.103,0,0.103,0.103l2.044,2.249c0,0.103,0.103,0.307,0.103,0.409
	c0.102-0.103,0.409-0.409,0.511-0.511C77.084,41.136,76.879,40.931,76.879,40.931L76.879,40.931z"/>
<path fill-rule="evenodd" clip-rule="evenodd" fill="#F37021" d="M47.232,32.855c2.862,0,5.725,0.307,7.361,0.818
	c0.204,0,0.204,0.205,0,0.307c-1.738,0.409-4.601,0.716-7.258,0.716c-2.658,0.102-5.521,0-7.361-0.409c-0.204,0-0.204-0.205,0-0.205
	C41.609,33.468,44.37,32.957,47.232,32.855v-0.511c-3.067,0.103-6.134,0.818-8.69,1.738c-0.307,0.103-0.307,0.307,0,0.307
	c2.863,0.716,5.828,0.818,8.792,0.716c2.862-0.102,5.929-0.307,8.689-1.125c0.409-0.102,0.307-0.307,0.102-0.307
	c-2.658-0.818-5.725-1.329-8.894-1.329V32.855L47.232,32.855z"/>
<path fill-rule="evenodd" clip-rule="evenodd" fill="#F37021" d="M77.595,31.015c-0.716,0.205-1.942,0.614-2.556,0.614
	c-0.511,0-3.066-0.103-4.805,0c-2.352,0.102-2.556,0.409-2.658,0.204c-0.511-0.818-0.92-2.044-1.738-2.76
	c-4.805,0.818-9.508,0.103-13.801-1.431v-0.613c0.307,0.102,0.511,0.102,0.715,0.102c-0.715-1.022-1.942-1.329-2.658-2.454
	c-0.409-0.307-0.511-0.92-0.92-1.227c0.102,1.125-0.818,1.942-0.92,2.862c0.613,0.205,1.431,0.205,1.738,0.102
	c0.409-0.102,0.92,0,1.125,0.307c0.307,0.103,0.511,0.307,0.92,0.307v0.613c-0.512-0.103-0.614-0.205-1.022-0.409
	c-0.511,0.205-0.92,0.103-1.125-0.102c-0.103-0.102-1.125-0.102-1.534-0.102c-1.329,0-2.76,0.511-3.476,1.636
	c-0.307,0.613-0.204,1.329,0.103,1.84c0.205,0.307,1.125,1.636,1.738,2.045l-0.818,0.205c-1.227-1.125-2.146-2.147-1.942-3.476
	c0.613-2.863,3.271-2.454,3.987-3.68c0.511-1.125,0.715-4.396,0.102-5.316c-1.738-0.716-3.885-1.636-4.293-3.681
	c-0.103-0.511,0.102-1.124,0.613-1.227c0.92-0.205,1.533,0.307,2.249,0.613c0.307-0.204-0.307-0.92,0.409-0.92
	c0.92,0,1.533,1.84,1.84,1.942l-0.102,0.716c-0.614-0.205-2.863-1.432-3.067-1.534c-0.409-0.205-0.92-0.511-1.227-0.102
	c-0.409,0.511,0.102,1.125,0.409,1.636c4.805,5.009,12.779-0.307,17.993,3.271c0.103-0.307,0-0.409-0.205-0.511
	c-3.578-3.374-9.303-1.636-13.903-2.76l0.102-0.716c5.725,1.431,13.291-0.92,16.255,5.623c1.942,2.76,3.987,7.156,8.178,7.258
	c3.374,0.102,5.623-1.227,7.259-3.68c2.249-4.089,3.578-8.792,7.565-11.552c0.409-0.205,0.614,0,0.409,0.102
	c-1.942,1.942-3.681,4.498-4.601,6.645c1.534,5.827,4.907,4.601,5.725,4.499c-0.205-2.147,0-8.486,4.601-10.019
	c1.022-0.818,4.703-3.169,9.508-1.125c-3.578,3.374-5.726,8.179-6.441,11.552l-3.986,1.125c0.307-0.613,0.307-1.636,0.204-2.76
	c-0.409,0.205-0.818,0.511-1.738,1.022c-0.409,0.103-0.103-0.511-0.103-0.511c0-0.205,1.022-0.613,1.84-1.125
	c-0.307-2.352-0.511-5.418,1.432-7.361c-3.987,1.329-2.863,9.712-2.454,10.734c-1.125,0.511-2.658,0.511-2.658,0.511l-0.204-1.431
	c-1.738,0.613-4.703,0.204-6.032-4.396C82.196,25.085,80.969,29.788,77.595,31.015L77.595,31.015z"/>
<path fill-rule="evenodd" clip-rule="evenodd" fill="#F37021" d="M139.958,18.542c-0.205-0.205-0.307-0.307-0.512-0.307
	c-0.102-0.103,0-0.205,0.103-0.205c0.103-0.102,0.307,0,0.409,0.205C140.059,18.338,140.059,18.542,139.958,18.542L139.958,18.542z"
	/>
<path fill-rule="evenodd" clip-rule="evenodd" fill="#F37021" d="M48.459,38.273l2.147,2.454c0.204,0.204,0.204,0.511,0.102,0.613
	c0.307-0.102,0.715-0.613,0.92-0.818c-0.103,0.102-0.511,0.102-0.613-0.102l-2.249-2.454c0-0.102,0-0.102,0-0.205
	c0,0,0,0,0.102-0.103c0-0.102,0.102-0.102,0.102-0.102l3.169,1.125c0.307,0.205,0.409,0.409,0.409,0.511
	c0.103-0.204,0.307-0.818,0.409-1.022c-0.102,0.103-0.409,0.205-0.613,0.103l-3.169-1.125c-0.102,0-0.102,0-0.102-0.103
	c0-0.102,0-0.102,0-0.204c0-0.103,0.102-0.103,0.102-0.103l3.271-0.511c0.409-0.102,0.613,0.103,0.613,0.205
	c0-0.205-0.102-0.92-0.102-1.125c0,0.102-0.205,0.409-0.613,0.511l-3.169,0.511c-0.102,0-0.102-0.103-0.102-0.103
	c-0.103-0.102-0.103-0.204-0.205-0.307V35.82l2.556-2.147c0.307-0.205,0.614-0.205,0.716-0.102c-0.205-0.205-0.614-0.716-0.818-0.92
	c0.102,0.103,0,0.409-0.205,0.716l-2.454,2.044c-0.102,0.102-0.102,0.102-0.102,0c-0.102,0-0.205,0-0.307-0.102
	c0,0-0.103-0.103,0-0.103l1.125-3.169c0.102-0.307,0.409-0.409,0.511-0.409c-0.205-0.103-0.92-0.409-1.125-0.409
	c0.102,0,0.307,0.409,0.204,0.715l-1.125,3.067c0,0.102-0.102,0.102-0.102,0.102c-0.102,0-0.205,0-0.307,0l-0.102-0.102
	l-0.614-3.271c0-0.409,0.205-0.613,0.205-0.613c-0.205,0-0.818,0.102-1.125,0.205c0.102,0,0.409,0.204,0.511,0.511l0.613,3.169
	c0,0.102,0,0.102-0.103,0.204c-0.102,0-0.204,0.103-0.307,0.103h-0.102l-2.249-2.454c-0.205-0.307-0.205-0.614-0.102-0.614
	c-0.205,0.103-0.716,0.512-0.818,0.716c0.103,0,0.409,0,0.613,0.205l2.25,2.454v0.103c-0.102,0.102-0.102,0.102-0.205,0.204
	c0,0,0,0-0.102,0l-3.067-1.125c-0.307-0.102-0.511-0.409-0.409-0.511c-0.205,0.307-0.307,0.92-0.409,1.125
	c0.102-0.102,0.409-0.205,0.715-0.102l3.067,1.022c0,0.102,0,0.102,0,0.102c0,0.102,0,0.205,0,0.307c0,0.103,0,0.103,0,0.103
	l-3.271,0.613c-0.307,0-0.613-0.205-0.613-0.307c0,0.307,0.103,1.022,0.205,1.227c0-0.102,0.102-0.409,0.511-0.511l3.169-0.614
	c0,0,0.103,0,0.103,0.102c0,0.103,0,0.103,0.102,0.205c0,0.102,0,0.102,0,0.102l-2.556,2.045c-0.307,0.307-0.613,0.205-0.613,0.102
	c0,0.307,0.511,0.818,0.613,0.92c0-0.103,0-0.409,0.204-0.614l2.658-2.044c0-0.102,0-0.102,0.103,0c0,0,0.102,0.102,0.204,0.205
	c0.103,0,0.103,0,0.103,0.102l-1.125,3.067c-0.103,0.307-0.409,0.511-0.511,0.409c0.205,0.102,0.818,0.409,1.125,0.409
	c-0.205,0-0.307-0.307-0.205-0.614l1.125-3.169c0,0,0-0.102,0.102-0.102c0.103,0.102,0.205,0.102,0.307,0.102
	c0,0,0.102,0,0.102,0.103l0.613,3.169c0,0.409-0.204,0.613-0.307,0.716c0.307,0,0.92-0.204,1.125-0.307
	c-0.102,0.103-0.409-0.205-0.409-0.409l-0.613-3.271c0-0.102,0-0.102,0-0.102c0.102,0,0.204-0.102,0.307-0.102
	C48.356,38.171,48.356,38.171,48.459,38.273L48.459,38.273z"/>
<path fill-rule="evenodd" clip-rule="evenodd" fill="#F37021" d="M138.526,18.951c-0.102-0.102,0-0.204,0-0.307
	c0.103-0.307,0.205-0.307,0.205-0.613c-0.512-0.409-0.614-1.227-0.307-1.432c0.307-0.307,1.328,0.103,1.328,0.103
	c0.921-0.716,1.228-1.227,1.738-1.534c0.716,0,2.147,1.329,2.147,2.147c-0.205,0.307-0.716,0.818-1.534,1.84
	c0.307,0.715,0.307,1.227-0.204,1.636c-0.103,0-0.307,0-0.511-0.205c0.102,1.022,1.227,1.636,1.635,2.454
	c0,1.636,1.738,3.68-0.204,5.01c-0.409,0.204-0.817,0.511-1.022,0.919c0.307,1.636,0.92,3.374,1.227,5.112l-1.942,0.103
	c-0.204,0.613-0.817,1.738-0.613,2.351c0,0-0.102-0.102,0.103,0c0.307,0.409,0.409,3.783,0.307,4.089
	c0,0.409,0.307,0.409,0.103,1.125c-0.205,0.103-1.022,0.613-1.125,0.92c-0.511,0.511-1.942,0.613-1.942,0.409
	c0-0.511,1.022-1.125,1.227-1.738c0.205-2.454,0-4.907-1.329-6.85c-0.511-0.307-0.92,0.511-1.227,0.92
	c0.512,1.534,1.432,3.169,1.329,4.907c0,0.511,0.613,1.227,0.307,1.943l-1.636,0.817h-5.93c-0.204-0.307-0.613-0.613-0.511-1.022
	h5.316c0-0.204,0.511-0.102,1.021-0.92c0-2.454-2.556-6.032-2.146-7.258c0.512-1.534,1.228-2.76,2.045-4.805l0.408-0.103
	c-0.92,3.067-2.249,4.601-2.044,5.521c0.103,0.511,0.307,0.92,0.613,1.534l0.205,0.613c0.102,0.307,0.408,1.022,0.612,1.227
	c0.307,0,0.512-0.205,0.716-0.307c0-0.409-0.307-0.92-0.511-1.227l-0.817,0.307l-0.205-0.613c0.613,0,1.022-0.409,0.511-0.716
	c1.432-0.715-0.306-0.511,0.205-0.818c0.817-0.409,1.227-1.942,1.329-2.862c0-0.205,0.102-0.307,0.307-0.307
	c0.613,1.635,0.613,3.782,1.636,5.316v0.511c-0.103,0.409,0,0.92,0.204,1.227c0.92,0.102,0.818-0.102,0.613-1.227
	c-0.204,0-0.613-0.103-0.817,0v-0.511c0.102-0.103,0.511,0,0.613-0.103c-0.307-0.511-0.307-0.92-0.307-1.431
	c0-0.307,0.204-0.92,0.408,0.409c0.308,0.103,0.818-2.351,0.921-3.169c-1.942,0.409,0-1.84-1.432-1.942l0.716-1.227
	c0-0.409-0.307-0.716-0.818-0.511l-0.408-0.511c-0.307-0.102-0.613-0.614-1.022-0.92c-0.307,0.307-0.818,0.92-0.92,1.329
	c-0.103,0.103,0.204,0.205,0.307,0.103c0.307-0.307,0.511,0.306,1.022,0.204c0.204-0.204,0.817-0.307,0.613-0.715l0.408,0.511
	c-0.408,0.204-0.408,0.92-0.408,1.431c-0.716,1.329-0.409-0.716-1.228-0.716c-0.511,0.307-0.715-0.511-1.022-0.409l-0.408,0.103
	c0-0.715,0.102-1.534,0-2.352c0.613-3.476,1.329-3.374,1.431-4.396c0-0.409,1.534-1.227,1.432-1.636
	c0.103,0,0.307,0.307,0.307,0.409c-0.103,0.511-1.124,0.511-1.022,1.636c0.613-1.125,2.352-1.022,2.454-2.352
	c-0.307-0.818,0.409-0.307,0.409-1.125c-0.205-0.204-0.818-0.818-0.921-1.125c-0.102-0.102,0.307-0.716-1.124-0.716
	c-0.103,0.103-0.205,0.716-0.409,1.022c-0.103,0.103-0.307,0.307-0.204,0.409c0,0.102,0.204,0.205,0.204,0.613
	c-0.103,0.409,0,0.613,0.204,0.818c0.818,0.409,1.432,0,0.512,0.511c0,0.102,0,0.204-0.103,0.307c0-0.103-0.307-0.511-0.409-0.613
	c-0.102,0-0.613-0.307-0.511-0.716C138.731,19.36,138.731,19.156,138.526,18.951L138.526,18.951z"/>
<path fill-rule="evenodd" clip-rule="evenodd" fill="#F37021" d="M111.025,15.066c0.103,0.716-0.307,1.227-0.307,1.942
	c0.716,1.738,0,3.067,0.205,4.703c-0.818-0.511-1.022-1.84-1.329-3.271c-0.204-1.227,0.103-1.636,0.204-2.964L111.025,15.066
	L111.025,15.066z"/>
<path fill-rule="evenodd" clip-rule="evenodd" fill="#F37021" d="M108.878,15.578c-0.103,2.147-0.409,3.169,1.125,6.543
	c-3.885,1.636-7.055,2.76-11.655,4.089c0.512-3.271,3.681-9.508,6.339-11.246C106.936,15.578,108.878,15.578,108.878,15.578
	L108.878,15.578z"/>
<path fill-rule="evenodd" clip-rule="evenodd" fill="#F37021" d="M98.86,39.603c-1.022,0.307-1.022,0.92-0.409,1.533
	c0.409,0.307,0.818,0.818,0.818,0.92h-6.543c0,0.307,0.307,0.512,0.511,1.022h36.19c0.204-0.511-0.408-1.125-0.613-1.738
	c-2.556-0.92-2.556-3.271-2.658-5.93c0-0.102-0.204-0.409-0.204-0.92c-0.307-0.409-2.045-4.601-1.227-7.974l0.613-1.125
	c0.511-0.716-0.103-1.125,0.307-1.942l7.564-1.432c0.103-0.102,0.103-0.409-0.102-0.511l0,0c0-0.103,0.102,0,0,0l-7.36,1.329
	c0.408-1.84-1.228-2.454-0.512-3.987c1.022,1.125,3.783,3.067,5.214,3.374l0.716-0.102c-1.84-0.818-5.111-2.76-6.952-5.316
	c-0.204,0-0.409-0.205-0.613-0.307c0,0.205,0.511,0.818,0.409,0.92c0,0-1.227,0.818-3.477-0.204
	c-0.715,1.431-8.689,5.009-8.689,5.009c0.307,2.249,1.329,3.681,2.453,4.907c0.103,0.205-0.307-0.205,0,0
	c1.637,1.329,3.579,1.942,5.726,2.352c0.409,1.227,1.942,5.214,2.045,5.827c0.204,0.613,0.511,0.613,0.511,0.613
	c0.205,0.205,0.92,1.534,0.92,2.045l0.205,2.146c0.102,0.511,0.715,0.103,0.817,0.614l-0.307,1.329h1.534
	c-0.818-0.715-0.308-1.942-1.33-2.453c-0.102-1.227-0.204-2.147-0.715-2.658c-0.409-1.227-1.738-4.498-2.557-7.463l0.512-0.716
	c-2.249,0.613-3.987-0.205-6.031-1.329c-1.534-0.716-0.614-0.102-0.103-0.409c2.453,1.125,3.681,0.818,5.521,0.613
	c0.204,0.307,0.613,0.613,0.613,1.125l-0.512,0.716c0.512-0.512,0.921-0.205,1.228,1.227c0.409,1.227,0.817,2.147,1.124,3.169
	c0.409,1.022,0.716,2.351,1.022,3.067c0,0,0.307,0,0.512,0.409c0.716,2.25,0.92,2.556,0.817,3.578
	c0.205,0.818,1.329,0.103,1.227,1.125h-26.887c0.408-1.635-0.512-3.066,0-4.6c-1.022-1.636-3.578-2.862-3.17-5.112
	c1.228-1.738,5.215-3.476,4.294-5.521c3.681-1.84,5.521,1.227,8.895,0.92c1.227,0,2.556-0.205,3.681-0.511
	c-1.432-1.125-2.658-2.862-3.374-4.396c-7.156,2.965-14.108,5.316-21.775,6.85l-0.614-0.204c-0.715,0.102-12.37,2.76-11.961,3.271
	c-4.396,0.307-9.508,2.147-10.632,2.76c-0.511,0.307-0.614,0.512,0,0.716c4.703,1.227,8.587,0.307,15.846-2.454l-0.511-0.409
	c-0.409,0.307-6.338,2.352-8.69,2.658c-2.454,0.307-4.601,0.204-5.623-0.103c-0.307-0.102-0.307-0.102-0.103-0.204
	c4.601-1.84,13.495-3.477,14.722-1.943c0.716,0.205,1.227,0.613,1.636,1.125c0.409,0.511,1.227,0.306,1.84,0.204
	c0.818-0.204,0.92-0.92,0.92-1.636l-0.92-0.102c-0.409,0-2.045,0.205-2.249,0.409c-0.614-0.511-1.227-1.022-2.045-1.227
	c1.636-0.716,4.294-1.329,5.725-1.431c-1.329,0.92-0.715,2.044-1.431,2.249l0.92,0.102c0-0.409,0-0.715,0.205-0.92
	c0.92-2.249,4.805-2.556,6.747-3.067c0,0-1.022,1.329-1.738,1.636c-0.205,3.169-1.329,5.929-1.534,9.099
	c0.92,0,0.92,1.022,1.125,1.636c-0.307,0.511-0.716,0-1.125,0.102c-1.431-0.715,0.307-1.942-0.818-2.964
	c0.614-2.556,1.534-5.112,1.534-7.77c-0.409,0-0.511,0.409-0.716,0.715c-0.307,2.556-1.022,4.908-1.635,7.259
	c0.204,0.205,0.715,0.409,0.715,0.818c-0.818,0.511,0,1.431-0.307,2.044H78.72l-0.92,1.022h14.108l0.103-0.511
	c-2.045-2.25-1.329-5.521-0.307-7.974l2.454-3.271c2.045-0.818,3.271-3.271,5.419-4.09c0,1.125-1.329,1.534-2.045,2.147
	c-0.818,1.738-3.169,1.943-3.477,3.885c0.921,1.022,2.25,1.738,3.374,2.658c1.125,0.716,0.818,2.249,1.636,2.965
	C99.269,39.091,99.064,39.5,98.86,39.603L98.86,39.603z"/>
<path fill-rule="evenodd" clip-rule="evenodd" fill="#F37021" d="M114.501,2.696c-0.409,0.613-1.227,1.022-0.716,2.147
	c-1.022,0.613-0.716,1.533-0.409,2.044c-0.511,0.511-0.817,1.534-0.102,2.147c-0.818,0.92,0.204,1.738,0.511,2.045
	c-0.409,0.92,0,1.635,0,1.635l0,0c-0.103,0.614-1.227,1.636-1.636,1.943c-0.613,1.533-0.409,4.703-0.307,6.85
	c2.862-1.432,5.725-2.76,7.975-4.703c-1.942-1.329-3.477-4.498-5.623-4.293c-0.205-2.25-1.125-6.236,2.045-10.326
	c0.408-0.205,1.021-0.307,1.328-0.511c-1.328-0.205-3.066,0.613-4.293-0.102C113.275,1.572,113.888,2.594,114.501,2.696
	L114.501,2.696L114.501,2.696z"/>
<path fill-rule="evenodd" clip-rule="evenodd" fill="#F37021" d="M121.351,1.674c0,0.102,0.409,0.307,0.409,0.307
	s0.409-0.102,0.409-0.205c0-0.102,0.102-0.409,0-0.511c-0.103,0-0.409-0.103-0.614-0.103C121.555,1.163,121.351,1.572,121.351,1.674
	l-0.205,0.205l-1.431-1.022l0.204-0.205c0,0,0.613-0.613,0.92-0.613c0.307-0.102,1.943,0,2.352,0.307
	c0.307,0.307,0.512,0.511,0.92,1.227c1.125,0.818,2.965,0.818,4.09,1.738c-0.204,0.307,0.307,0.818-0.103,1.022
	c-0.307,0.102-1.022-0.103-1.124,0.102l-0.103,0.613l-0.409-0.102c0,0,0.204-0.716,0-0.716c-0.204-0.102-0.613-0.307-0.817-0.205
	c-0.103,0.103,0,0.205,0.103,0.409c0,0.205,0.511,0.307,0.817,0.205l0.409,0.102l0.511,0.103c-0.204,0.511-0.307,0.715-1.022,0.511
	c-0.204,0.511,0.92,0.92,1.022,1.125c-0.103,0.205-0.307,0.409-1.022,0c0,0-2.965,2.863-4.702,3.681
	c-1.841,0.818-0.103-0.409-0.103-0.409c0.818-0.307,4.396-3.374,4.396-3.68c-0.103-0.205-0.307-0.613-0.307-0.92
	c-0.512-0.205-1.534,0.102-1.943,0.409c0.205,0.92,1.841,5.521,0.613,12.473l-0.204-0.205c1.125-6.747-0.716-12.166-0.716-12.166
	c-1.021,0.409-1.737,0.102-2.249,0.204c-0.204,4.192,3.169,4.805,1.942,10.326c-3.578-0.613-6.134-5.009-8.179-4.601
	c-0.102-0.715-0.817-1.942-0.102-2.351c-0.205-0.613-0.409-1.431,0.511-1.943c-0.307-0.818-0.409-1.533,0.512-2.146
	c-0.205-0.511-0.103-1.636,1.021-1.84c0.103-0.92,0.512-1.636,1.329-1.942c-0.92-0.409-1.124-1.329-1.124-1.329
	c0.817,0.511,1.533,0.818,2.76,0.613L121.351,1.674L121.351,1.674z"/>
<path fill-rule="evenodd" clip-rule="evenodd" fill="#F37021" d="M86.592,78.145l-0.102-5.727c0-1.736-1.125-3.578-2.658-4.6
	c-0.307-0.102-0.818-0.307-1.227-0.307c0.409,0,0.92,0,1.431-0.205l0,0c1.534-0.715,3.374-2.658,3.374-6.031
	c0-2.557-1.022-4.498-2.863-5.828c-1.738-1.226-3.68-1.533-5.725-1.533H63.078v4.089h3.578v20.141h-3.578v3.986h11.246v-3.986
	h-3.578V69.25h7.77c2.658,0.102,3.68,1.84,3.68,3.271l0.307,9.609h7.667v-3.986H86.592L86.592,78.145z M79.333,65.366h-8.587v-7.361
	c0,0,6.134,0,8.077,0c0.919,0,1.942,0,2.76,0.307c1.022,0.512,1.943,1.635,1.943,3.373C83.525,63.833,81.582,65.366,79.333,65.366
	L79.333,65.366z"/>
<path fill-rule="evenodd" clip-rule="evenodd" fill="#F37021" d="M61.646,92.151c3.681,0,5.316,2.045,5.316,4.6
	c0,2.557-1.738,4.498-5.623,4.498h-2.658v7.055h-2.352V92.151H61.646L61.646,92.151z M58.682,99.204h2.862
	c1.738,0,2.965-0.92,2.965-2.555c0-1.227-0.716-2.453-2.863-2.453h-2.964V99.204L58.682,99.204z"/>
<path fill-rule="evenodd" clip-rule="evenodd" fill="#F37021" d="M85.263,108.303h-2.556l-2.044-4.805h-7.054l-1.942,4.805H69.11
	l7.156-16.256h1.636L85.263,108.303L85.263,108.303z M74.528,101.352h5.213l-2.76-6.34L74.528,101.352L74.528,101.352z"/>
<polygon fill-rule="evenodd" clip-rule="evenodd" fill="#F37021" points="112.15,108.303 109.798,108.303 109.798,92.151 
	112.15,92.151 112.15,108.303 "/>
<path fill-rule="evenodd" clip-rule="evenodd" fill="#F37021" d="M129.019,95.625c-1.534-1.227-2.965-1.635-4.192-1.635
	c-1.533,0-2.76,0.715-2.76,1.84c0,3.17,7.564,3.066,7.564,8.281c0,2.453-2.044,4.293-4.906,4.293c-1.841,0-3.477-0.408-4.907-1.432
	v-2.965c1.328,1.535,2.965,2.352,4.702,2.352c1.942,0,2.862-1.123,2.862-2.043c0-3.271-7.667-3.682-7.667-8.078
	c0-2.658,2.146-4.293,5.316-4.293c1.431,0,2.657,0.307,3.987,1.125V95.625L129.019,95.625z"/>
<path fill-rule="evenodd" clip-rule="evenodd" fill="#F37021" d="M102.234,106.36c-0.308-0.408-0.614-0.816-0.921-1.328
	c-1.227-2.045-2.249-3.477-3.782-4.396c1.84-0.715,2.862-2.146,2.862-3.986c0-2.762-2.146-4.498-5.623-4.498h-4.191v16.152h2.454
	v-7.055h1.021c1.228,0,2.25,0.41,4.396,3.682l2.249,3.373h2.761L102.234,106.36L102.234,106.36z M94.566,99.204h-1.533v-5.111h1.533
	c2.352,0,3.271,0.92,3.271,2.453C97.94,97.875,97.224,99.204,94.566,99.204L94.566,99.204z"/>
</svg>
