<?xml version="1.0" encoding="UTF-8" standalone="no"?>
<!DOCTYPE svg PUBLIC "-//W3C//DTD SVG 1.1//EN" "http://www.w3.org/Graphics/SVG/1.1/DTD/svg11.dtd">
<!-- Created with Vectornator (http://vectornator.io/) -->
<svg height="100%" stroke-miterlimit="10" style="fill-rule:nonzero;clip-rule:evenodd;stroke-linecap:round;stroke-linejoin:round;" version="1.1" viewBox="0 0 566.929 566.929" width="100%" xml:space="preserve" xmlns="http://www.w3.org/2000/svg" xmlns:vectornator="http://vectornator.io" xmlns:xlink="http://www.w3.org/1999/xlink">
<defs/>
<clipPath id="ArtboardFrame">
<rect height="566.929" width="566.929" x="0" y="0"/>
</clipPath>
<g clip-path="url(#ArtboardFrame)" id="Untitled" vectornator:layerName="Untitled">
<g opacity="1">
<clipPath id="ClipPath">
<path d="M0 0L566.929 0L566.929 566.929L0 566.929L0 0Z"/>
</clipPath>
<g clip-path="url(#ClipPath)">
<path d="M416.742 378.112C416.729 370.853 410.77 365.291 404.054 365.301C392.671 365.32 387.27 379.174 395.019 386.903C403.084 394.947 416.761 389.338 416.742 378.112M404.091 388.745C398.335 388.755 393.474 384.125 393.462 377.833C393.452 372.212 398.202 367.371 404.056 367.361C417.981 367.339 417.822 388.722 404.091 388.745" fill="#3e3b3a" fill-rule="evenodd" opacity="1" stroke="none"/>
<path d="M399.65 384.159L401.707 384.155L401.689 373.543L404.7 373.537C407.683 373.534 409.359 377.807 402.806 377.818L406.935 384.145L409.468 384.142L406.223 379.445C410.356 378.992 410.857 371.468 404.539 371.481L399.628 371.487L399.65 384.159Z" fill="#3e3b3a" fill-rule="evenodd" opacity="1" stroke="none"/>
<path d="M237.99 208.402C238.784 206.88 240.374 205.884 241.859 204.306C250.588 195.032 240.23 192.242 233.677 187.493C230.543 185.22 230.873 184.818 232.47 183.461C235.259 181.09 238.686 179.377 242.072 177.335C252.736 170.902 256.586 166.882 263.53 159.107C266.046 156.29 270.487 149.913 272.469 146.39L273.072 145.45L279.157 150.699C283.806 155.389 292.004 162.45 296.824 166.379C305.573 173.502 311.82 179.227 321.562 186.115C324.418 188.136 327.38 190.094 330.532 192.094C336.412 195.829 343.529 199.297 349.862 202.462C351.508 203.283 353.172 204.131 354.81 204.988C358.157 206.735 357.986 206.984 359.37 205.64C360.641 204.41 361.464 202.897 362.794 201.589C367.573 196.894 375.223 199.527 379.568 204.147C382.244 206.997 382.505 210.492 381.718 214.334C380.799 218.8 378.542 221.244 375.832 223.195C372.895 225.313 364.676 228.777 360.645 230.257C356.585 231.748 358.332 231.04 354.822 231.725C354.038 237.961 358.196 252.143 361.014 258.286C362.197 260.867 363.687 263.098 364.778 265.516C364.024 266.784 356.947 271.298 351.616 281.17C347.446 288.895 346.122 294.691 345.102 303.452L289.058 303.544C289.097 301.298 289.598 299.461 289.39 296.884C288.942 291.217 285.512 286.695 281.459 283.567C275.262 278.776 269.817 277.928 261.712 274.963C252.126 271.452 243.128 264.37 238.72 255.402C237.072 252.045 235.689 248.688 235.33 244.388C238.473 244.211 241.868 243.509 244.972 242.997C250.141 242.141 257.947 241.949 260.63 237.176C262.101 234.558 262.146 231.192 260.862 228.387C257.981 222.098 249.482 217.284 243.807 213.233C240.435 210.826 240.572 211.012 237.99 208.402M160.129 219.265L167.928 205.224C169.828 206.25 171.707 207.665 173.55 208.834C175.452 210.041 177.261 211.24 179.14 212.447C182.885 214.852 186.451 217.219 190.163 219.626C190.814 220.048 211.684 233.245 212.268 234.174L194.443 255.423C193.747 256.294 193.108 257.006 192.432 257.821L172.717 281.423C170.07 284.607 167.464 287.613 164.87 290.83C161.203 295.38 156.71 300.372 153.093 304.924C152.413 305.779 151.766 306.473 151.087 307.328C150.528 308.03 149.745 309.022 149.119 309.526C141.221 307.426 135.866 304.368 129.61 299.388C126.798 297.15 124.104 294.938 121.943 292.294C120.04 289.967 120.395 290.396 122.071 287.785C122.975 286.379 123.721 284.601 124.729 283.185C125.871 283.598 127.253 284.829 129.888 285.676C135.859 287.597 142.392 285.17 145.206 279.652C146.421 277.272 146.225 276.157 146.814 273.569C147.24 271.7 154.992 270.884 153.25 257.973C157.806 256.321 159.706 250.994 160.399 246.553C165.696 244.507 170.65 240.197 169.821 232.702C169.314 228.121 166.514 224.346 163.456 221.649C162.837 221.104 162.516 220.842 161.837 220.394C161.247 220.002 160.51 219.651 160.129 219.265M134.193 264.319L139.254 255.248C142.1 256.353 147.248 259.9 145.126 264.447C143.606 267.704 138.022 268.299 134.193 264.319M151.198 233.85C151.362 232.869 152.554 231.057 153.107 230.104C153.718 229.044 154.321 227.088 155.728 227.48C157.234 227.9 160.687 230.695 161.539 232.988C163.163 237.356 158.722 239.368 157.067 239.228C156.257 239.158 154.605 237.041 154.067 236.444C153.206 235.491 151.944 234.816 151.198 233.85M142.561 249.108L147.662 240.053C149.39 240.652 154.081 245.799 151.944 249.043C151.106 250.319 149.437 251.411 147.29 251.488C146.212 251.527 143.41 249.737 142.561 249.108M130.75 270.45C133.124 272.024 135.811 273.151 138.769 273.888C138.773 276.12 137.597 278.166 135.45 278.17C131.215 278.175 131.072 276.694 128.318 274.855C129.128 273.387 129.94 271.919 130.75 270.45M174.659 296.117C175.258 294.856 176.657 293.766 177.534 292.731C178.83 291.2 185.18 283.087 186.087 282.507L204.68 302.803C205.327 303.566 205.821 304.015 206.523 304.79C207.237 305.571 207.477 305.942 208.35 306.798C209.592 308.021 210.874 309.779 212.089 310.924L217.672 317.042C219.693 319.396 223.075 322.683 225.14 325.092C225.474 325.482 225.672 325.769 226.021 326.136L245.396 347.153C245.139 347.973 244.059 349.441 243.546 350.298L234.171 365.262C233.499 366.357 232.965 367.185 232.252 368.323L230.313 371.243L216.258 352.442C211.544 346.118 207.049 339.976 202.419 333.682C197.756 327.341 193.036 321.227 188.424 314.888C184.908 310.054 179.973 303.118 176.302 298.436C175.876 297.888 174.966 296.713 174.659 296.117M265.032 162.274C268.591 161.067 269.752 164.826 271.819 166.506C273.777 168.097 276.049 169.771 279.633 169.875C282.413 169.955 287.586 168.306 289.654 169.159C292.226 170.218 293.996 178.3 278.758 177.166C274.848 176.874 273.187 176.137 270.365 174.494C267.52 172.84 262.267 168.963 262.528 165.42C262.637 163.913 263.839 162.679 265.032 162.274M231.347 199.404C230.606 201.159 226.282 203.164 226.463 209.193C226.65 215.423 236.451 221.407 240.984 224.516C242.948 225.866 248.58 229.871 249.275 231.263C243.767 232.409 230.512 232.848 226.743 235.171C225.472 235.951 224.392 237.174 224.298 239.281C224.04 245.108 225.023 251.277 227.152 256.446C231.9 267.984 242.277 278.552 253.275 283.426C268.539 290.194 291.044 290.089 270.139 315.942C269.169 317.147 268.201 318.313 267.138 319.453C263.466 323.384 257.244 331.365 253.684 335.901C253.369 336.3 253.212 336.512 252.948 336.894C252.825 337.071 252.799 337.142 252.628 337.34C252.592 337.383 252.48 337.506 252.44 337.544C252.2 337.777 252.369 337.646 252.114 337.811C249.822 335.783 246.893 332.184 244.717 329.84L240.114 324.856C237.01 321.447 232.865 317.316 229.935 313.951C229.24 313.153 228.965 312.778 228.098 311.952L202.324 284.047C201.71 283.319 201.08 282.79 200.463 282.074C199.775 281.279 199.435 280.902 198.615 280.087L194.974 276.051C194.286 275.297 193.604 274.892 193.201 274.04C194.099 272.765 195.161 271.597 196.163 270.339C199.165 266.573 202.403 263.044 205.458 259.319C207.937 256.298 210.523 253.014 213.258 250.247C216.024 247.444 221.989 240.035 224.029 237.061C227.032 232.681 226.363 231.025 223.098 228.058C220.456 225.657 210.358 219.572 206.677 217.267C194.9 209.896 181.367 199.928 169.646 193.355C168.201 192.545 166.456 191.388 164.355 192.319C160.008 194.243 156.142 203.905 153.48 208.66C151.839 211.588 150.212 214.517 148.605 217.384C142.114 228.977 135.648 240.566 129.232 252.247C122.778 264 116.33 275.529 109.987 287.417C106.413 294.118 115.58 302.089 120.096 305.86C120.745 306.402 121.302 306.868 122.005 307.401C128.458 312.266 136.005 317.13 143.93 319.588C145.716 320.14 147.419 320.63 149.334 320.864C153.728 321.406 155.684 319.057 158.165 316.103C159.279 314.776 160.161 313.673 161.264 312.305C162.299 311.022 163.199 309.755 164.181 308.514C164.993 307.491 166.489 305.406 167.324 304.779C167.853 305.212 168.687 306.59 169.208 307.283L182.616 325.51C192.831 339.44 203.295 353.029 213.381 367.041L223.962 381.203C224.373 381.728 224.603 381.959 224.298 382.573C223.294 384.597 221.476 386.19 222.43 389.258C223.574 392.94 228.906 395.707 233.029 389.384C234.211 387.572 235.129 385.629 236.184 383.533C241.153 373.665 253.99 353.87 260.766 344.874C264.666 339.695 268.537 334.614 272.698 329.784C275.548 326.479 278.295 323.476 280.837 319.904C281.386 319.133 284.162 314.813 284.683 314.603L344.923 314.507C345.182 316.45 345.188 318.662 345.394 320.591C347.643 341.63 356.239 362.979 355.266 384.191C355.06 388.577 355.356 392.271 359.76 392.816C364.401 393.393 366.015 390.094 366.223 385.913C367.029 369.73 362.943 353.939 359.713 339.106C356.516 324.423 353.346 306.825 358.577 292.313C361.044 285.477 365.108 279.862 369.098 276.195C372.244 273.298 373.184 272.802 377.035 270.903C387.035 265.977 393.374 262.915 402.48 256.263C407.887 252.313 412.73 248.245 416.948 243.888C417.949 242.857 419.198 241.684 420.137 240.557C423.236 236.839 426.309 233.493 429.02 229.315C432.568 223.85 435.57 218.798 438.329 211.991C446.439 191.962 446.406 165.121 437.824 144.361C435.031 137.595 432.022 132.504 428.427 127.099C426.669 124.457 424.663 121.935 422.681 119.616C420.596 117.183 418.428 114.716 416.208 112.663C402.007 99.5082 382.758 89.8272 361.951 86.8332C336.761 83.2072 313.323 89.2182 293.974 103.704C290.114 106.59 286.55 109.67 283.152 113.02C273.365 122.675 268.083 132.218 260.726 144.062C258.117 148.261 255.303 151.86 252.2 155.472C250.47 157.484 247.306 160.299 245.214 161.902C241.447 164.795 237.336 167.546 233.133 169.959C228.236 172.767 220.595 176.999 220.258 183.713C220.068 187.491 221.601 190.749 224.075 193.286C225.701 194.952 227.363 196.659 229.314 198.012C229.992 198.483 230.679 198.863 231.347 199.404" fill="#070303" fill-rule="evenodd" opacity="1" stroke="none"/>
<path d="M262.588 489.63C262.37 489.848 262.588 490.951 262.588 491.398L262.588 496.484L264.356 496.484L264.795 498.253L259.277 498.253L259.277 501.346L286.687 501.346C286.906 500.905 286.687 498.693 286.687 498.253L281.161 498.253L281.598 496.484L283.587 496.484L283.587 489.63L262.588 489.63ZM278.506 493.824L267.674 493.824L267.674 493.606L267.674 492.055L278.506 492.055L278.506 493.606L278.506 493.824ZM262.149 511.301L283.808 511.301L284.034 511.301L284.034 502.895L262.149 502.895L262.149 511.301ZM267.456 505.768L278.506 505.768L278.727 505.768L278.727 507.762L267.456 507.762L267.456 505.768ZM270.102 481.224L259.716 481.224L259.716 483.878L270.102 483.878L270.102 485.645L261.484 485.645L261.484 488.08L284.692 488.08L284.692 485.645L275.847 485.645L275.847 483.878L286.46 483.878L286.46 481.224L275.847 481.224L275.847 479.008C275.847 478.789 270.329 478.789 270.102 479.008L270.102 481.224ZM294.42 502.01L302.376 502.01L302.376 511.081L307.901 511.081L307.901 502.01L315.864 502.01C315.864 501.564 315.637 498.693 315.864 498.473L307.901 498.473L307.901 495.155L302.376 495.373L302.157 498.473L294.42 498.473L294.42 502.01ZM292.432 498.911C292.649 498.911 293.097 498.693 293.317 498.473C293.535 498.473 293.753 498.253 293.98 498.026L300.39 494.709C300.61 494.49 300.83 494.49 301.048 494.271L301.275 494.271L301.933 493.824C302.157 493.606 305.03 492.282 305.03 492.282C305.252 492.282 309.227 494.271 309.891 494.709L312.99 496.484C313.649 496.703 314.095 496.923 314.531 497.369C315.196 497.588 315.637 497.808 316.081 498.026C316.522 498.253 317.633 498.911 317.853 498.911C317.853 498.693 318.735 497.588 318.952 497.142C319.172 496.923 320.057 495.602 320.057 495.373C319.837 495.373 319.401 495.155 319.172 494.936L305.03 487.634C305.03 487.634 298.176 491.171 297.509 491.616L291.984 494.49C291.547 494.49 291.327 494.709 290.88 494.936C290.662 495.155 290.224 495.373 289.996 495.373L292.212 498.473C292.212 498.693 292.432 498.911 292.432 498.911M312.99 510.635C313.21 510.635 313.649 510.635 314.095 510.416C314.312 510.416 314.752 510.19 315.196 510.19C315.864 509.97 316.522 509.75 317.406 509.531L315.416 504.225L310.996 505.329L312.99 510.635ZM297.289 510.855C297.289 510.635 297.957 508.42 298.176 507.984C298.394 507.316 299.061 505.768 299.061 505.329L294.864 504.225L292.868 509.531L297.289 510.855ZM318.287 481.443L313.427 481.224L313.427 479.008L308.786 479.008L308.569 479.008L308.569 481.443L301.493 481.443L301.493 479.008L296.632 479.008L296.632 481.443L291.764 481.443L291.764 485.199L296.632 485.199L296.632 487.86L301.493 487.86L301.493 485.199L308.569 485.199L308.569 487.86L313.427 487.86L313.427 485.199L318.287 485.199L318.287 481.443ZM372.447 442.523L374.655 437.437C375.54 435.221 376.425 431.903 376.425 431.903C376.425 431.903 377.307 435.221 378.192 437.437L380.407 442.523L372.447 442.523ZM362.72 451.366L368.908 451.366L370.234 447.829L382.613 447.829L384.165 451.366L390.573 451.366L376.644 420.626L376.203 420.626L362.72 451.366ZM333.544 451.366L354.322 451.366L354.322 445.841L339.734 445.841L339.734 441.419L351.886 441.419L351.886 436.106L339.734 436.106L339.734 426.378L353.655 426.378L353.655 420.853L333.544 420.853L333.544 451.366ZM308.786 451.366L315.196 451.366L315.196 426.378L323.813 426.378L323.813 420.853L300.163 420.853L300.163 426.378L308.786 426.378L308.786 451.366ZM270.102 451.366L276.292 451.366L281.598 441.192L292.432 420.853L286.022 420.853L280.934 430.58C279.829 432.788 278.506 436.332 278.506 436.332C278.506 436.332 277.176 432.788 276.072 430.58L270.766 420.853L263.692 420.853L275.188 441.639L270.102 451.366ZM234.96 451.366L255.959 451.366L255.959 445.841L241.372 445.841L241.372 441.419L253.525 441.419L253.525 436.106L241.372 436.106L241.372 426.378L255.295 426.378L255.295 420.853L234.96 420.853L234.96 451.366ZM198.052 451.366L204.46 451.366L204.46 442.077L217.492 442.077L217.492 451.366L223.69 451.366L223.69 420.853L217.492 420.853L217.492 436.332L204.46 436.332L204.46 420.853L198.052 420.853L198.052 451.366ZM270.547 498.253C270.329 498.253 270.329 498.026 270.329 497.808C270.329 497.369 270.102 496.703 269.881 496.484L276.072 496.484C276.072 496.703 275.633 497.808 275.633 498.026L275.633 498.253L270.547 498.253Z" fill="#070303" fill-rule="nonzero" opacity="1" stroke="none"/>
</g>
</g>
</g>
</svg>
