<svg viewBox="0 0 24 24" xmlns="http://www.w3.org/2000/svg"><path d="M9.224 9.775c.057-.11.17-.18.277-.293.625-.664-.117-.864-.586-1.204-.224-.163-.2-.192-.086-.29.2-.169.445-.292.687-.438.764-.46 1.04-.748 1.537-1.305.18-.202.498-.658.64-.91l.043-.068.436.376c.333.336.92.841 1.265 1.123.626.51 1.074.92 1.771 1.413.205.145.417.285.643.428.42.268.93.516 1.384.743.118.058.237.12.354.18.24.126.228.143.327.047.09-.088.15-.196.245-.29.342-.336.89-.148 1.201.183.192.204.21.455.154.73a.97.97 0 0 1-.421.634c-.21.152-.8.4-1.088.506-.29.107-.166.056-.417.105-.056.447.242 1.462.443 1.902.085.185.192.345.27.518-.054.09-.56.414-.943 1.12-.298.554-.393.969-.466 1.596l-4.013.007c.003-.161.038-.293.024-.477-.032-.406-.278-.73-.568-.954-.444-.343-.834-.403-1.414-.616-.687-.251-1.331-.758-1.647-1.4-.118-.24-.217-.481-.243-.79.225-.012.469-.062.69-.099.371-.061.93-.075 1.122-.417a.706.706 0 0 0 .017-.629c-.207-.45-.815-.795-1.222-1.085-.241-.173-.231-.16-.416-.346m-5.576.778.559-1.006c.136.074.27.175.402.259.137.086.266.172.4.259.269.172.524.341.79.514.047.03 1.541.975 1.583 1.041l-1.276 1.522c-.05.062-.096.113-.144.172l-1.412 1.69c-.19.228-.376.443-.562.673-.263.326-.584.684-.843 1.01-.05.06-.095.11-.144.172-.04.05-.096.121-.14.157-.567-.15-.95-.37-1.398-.726a3.522 3.522 0 0 1-.549-.508c-.136-.166-.11-.136.01-.323.064-.1.117-.228.19-.329.081.03.18.118.369.178.428.138.895-.036 1.097-.431.087-.17.073-.25.115-.436.03-.134.586-.192.46-1.116.327-.119.463-.5.513-.818.38-.147.734-.455.674-.992-.036-.328-.236-.598-.455-.792a.889.889 0 0 0-.116-.09c-.042-.027-.095-.053-.123-.08m-1.857 3.226.363-.65c.203.08.572.334.42.66-.109.232-.509.275-.783-.01m1.218-2.182c.012-.07.097-.2.137-.268.043-.076.087-.216.187-.188.108.03.355.23.416.395.117.312-.201.456-.32.446-.058-.005-.176-.156-.215-.2-.061-.067-.152-.116-.205-.185M2.39 12.69l.366-.649c.123.043.46.412.306.644a.415.415 0 0 1-.333.175c-.077.003-.278-.125-.339-.17m-.845 1.528c.17.113.362.193.574.246 0 .16-.084.307-.238.307-.303 0-.313-.106-.51-.238l.174-.315m3.144 1.838c.043-.09.143-.168.206-.243.093-.11.547-.69.612-.732l1.332 1.454c.046.054.081.087.132.142.05.056.068.082.13.144.09.087.181.213.268.295l.4.438c.145.169.387.404.535.577.024.028.038.048.063.075l1.387 1.505c-.018.058-.096.163-.132.225l-.672 1.071c-.048.079-.086.138-.137.22l-.139.209-1.006-1.347c-.338-.453-.66-.892-.991-1.343-.334-.454-.672-.892-1.002-1.346-.252-.346-.606-.843-.868-1.178a1.54 1.54 0 0 1-.118-.166m6.471-9.584c.255-.087.338.183.486.303.14.114.303.234.56.241.199.006.57-.112.717-.051.185.076.311.654-.78.573a1.164 1.164 0 0 1-.6-.191c-.204-.119-.58-.396-.562-.65a.272.272 0 0 1 .18-.225M8.747 9.13c-.053.125-.362.269-.35.7.014.447.716.875 1.04 1.098.14.096.544.383.594.483-.394.082-1.344.113-1.613.28a.344.344 0 0 0-.176.294c-.018.417.052.86.205 1.23.34.825 1.083 1.582 1.87 1.931 1.094.485 2.705.477 1.208 2.329-.07.086-.139.17-.215.251-.263.282-.708.853-.963 1.178a1.232 1.232 0 0 0-.053.07c-.009.014-.01.019-.023.033a.268.268 0 0 1-.013.015c-.018.016-.005.007-.024.019-.164-.146-.374-.403-.53-.571l-.329-.357c-.222-.244-.52-.54-.729-.781-.05-.057-.07-.084-.131-.143L6.67 15.192c-.044-.052-.09-.09-.133-.142a2.133 2.133 0 0 0-.133-.142l-.26-.289c-.05-.054-.098-.083-.127-.144.064-.091.14-.175.212-.265.215-.27.447-.522.665-.789.178-.216.363-.451.559-.65.198-.2.625-.73.771-.944.215-.313.167-.432-.066-.645-.19-.171-.913-.607-1.176-.772-.844-.528-1.813-1.242-2.652-1.713-.104-.058-.228-.14-.379-.074-.311.138-.588.83-.779 1.17l-.349.625c-.465.83-.928 1.66-1.387 2.497-.462.841-.924 1.667-1.378 2.518-.256.48.4 1.05.724 1.32.046.04.086.073.136.111.463.348 1.003.697 1.57.873.128.04.25.074.387.091.315.039.455-.13.633-.34.08-.096.143-.175.222-.273.074-.092.138-.182.209-.271.058-.073.165-.223.225-.268.038.031.097.13.135.18l.96 1.305c.731.997 1.48 1.97 2.203 2.974l.757 1.014c.03.037.046.054.024.098-.071.145-.202.259-.133.479.082.263.463.461.759.009.084-.13.15-.27.226-.42.355-.706 1.275-2.123 1.76-2.768.28-.37.556-.734.854-1.08.204-.237.401-.452.583-.708.04-.055.238-.364.276-.38l4.313-.006c.019.139.02.297.034.435.16 1.507.777 3.036.707 4.555-.015.314.006.578.322.617.332.042.448-.195.462-.494.058-1.159-.234-2.29-.466-3.352-.229-1.051-.456-2.311-.081-3.35.176-.49.467-.892.753-1.155.226-.207.293-.242.569-.378.716-.353 1.17-.572 1.822-1.049a8.002 8.002 0 0 0 1.036-.886c.071-.074.16-.158.228-.239.222-.266.442-.505.636-.805.254-.39.47-.753.667-1.24.58-1.434.578-3.356-.036-4.843a6.818 6.818 0 0 0-1.548-2.27A7.333 7.333 0 0 0 18.1 1.07c-1.803-.259-3.482.171-4.867 1.209a7.459 7.459 0 0 0-.775.667c-.701.691-1.08 1.375-1.606 2.223-.187.3-.388.558-.61.817a3.95 3.95 0 0 1-.5.46c-.27.207-.565.404-.866.577-.35.201-.898.504-.922.985a.903.903 0 0 0 .273.685c.117.12.236.242.376.339.048.034.097.06.145.1" fill="#070303"/></svg>