<svg version="1.0" xmlns="http://www.w3.org/2000/svg" width="1516" height="562.667" viewBox="0 0 1137 422"><path d="M0 211v211h1137V0H0v211zm1118 0v192l-549.2-.2-549.3-.3-.3-191.8L19 19h1099v192z"/><path d="M98 102.4v5.4l4.3.7c2.3.3 5.7.9 7.5 1.2l3.2.5-.2 100.7-.3 100.6-7.2.8-7.3.9V325h76v-11.8l-7.2-.9-7.3-.8-.3-45.8-.2-45.7h100v45.4c0 37.9-.2 45.5-1.4 45.9-.8.3-4.6.9-8.5 1.3l-7.1.7V325h78v-11.8l-6.7-.7c-3.6-.4-7.2-.9-8-1.2-1.1-.4-1.3-18.4-1.3-100.8V110.2l4-.6c2.2-.3 5.8-.9 8-1.2l4-.6V97h-78v10.8l4.8.6c2.6.4 6.4.9 8.5 1.2l3.7.6V196H159v-85.8l4.3-.7c11.8-1.8 10.7-1.1 10.7-7.1V97H98v5.4zM378.9 99.8C358.1 110.6 366.4 142 390 142c7.1 0 12.6-2.6 17.2-7.9 7.5-8.8 7.5-20.4-.1-29.2-7-8.3-18.3-10.3-28.2-5.1zM457 101.9v4.9l6.8.8 6.7.9.3 102.2.2 102.1-2.7.6c-1.6.3-4.7.8-7 1.1l-4.3.7v9.8h71v-9.8l-4.2-.7c-2.4-.3-5.5-.8-7-1.1l-2.8-.6V97h-57v4.9zM594.3 122.4l-20.3 6.1V163h-31v15h29.9l.3 60.7c.4 67.6.4 66.9 7.3 76.5 10.5 14.4 41.9 15.9 79.3 3.7l6.2-2.1v-11l-3 .7c-1.7.4-8.8.7-15.8.7-18.2.1-24-2.1-28.4-11l-2.3-4.7-.3-56.8-.3-56.7H654v-15h-38v-23.5c0-12.9-.3-23.5-.7-23.4-.5.1-9.9 2.9-21 6.3zM748 158.6c-15 2-33.7 9.5-44.2 17.8-12.3 9.8-22.2 25.4-26.8 42.1-3.1 11.2-3.9 36.1-1.6 49.4 3.3 18.6 8.7 30.1 19.6 41.1 13 13.1 30.9 19.5 58 20.6 28.6 1.3 52-6.3 69-22.3 16.1-15.1 23.6-32.6 24.7-57.3.7-15.7-.8-27.6-5.1-40.2-4.4-13.1-8.6-19.8-18.1-29.3-6.5-6.6-9.8-8.9-17.5-12.8-13.1-6.4-23.2-8.7-40.5-9.2-7.7-.2-15.6-.1-17.5.1zm18 12.4c11.7 2.2 19.7 8.9 25.5 21.5 6.3 13.6 8.5 26.8 8.5 51.9 0 50.1-12.2 72.7-39.5 72.8-9.9.1-17.1-2.7-23.2-9.1-12.7-13-18.9-43.2-16.3-78.6 2.6-35.5 13.3-54.7 32.3-58.5 5.9-1.1 6.8-1.1 12.7 0zM971.2 160.1c-12.5 1.6-27.9 8.5-41 18.4-4 3-7.8 5.5-8.3 5.5-.5 0-.9-4.7-.9-10.5V163h-57v10.8l4.8.6c2.6.4 5.9.9 7.5 1.2l2.7.6v136.6l-5.7.6c-9.3 1.1-9.3 1.1-9.3 6.7v4.9h72v-5c0-2.8-.3-5-.7-5.1-.5-.1-3.7-.6-7.3-1.3l-6.5-1.1v-116l5-3.3c2.8-1.8 8.6-4.7 13-6.4 6.9-2.8 9.2-3.2 17-3.3 9.9 0 14.5 1.7 19.7 7.2 7.9 8.3 9 17.6 8.6 76.3l-.3 45.5-6.5 1.1c-3.6.7-6.8 1.2-7.2 1.3-.5.1-.8 2.3-.8 5.1v5h72v-4.9c0-5.6 0-5.6-9.2-6.6l-5.7-.7-.3-58.2c-.3-57.6-.4-58.2-2.7-65.1-3.1-9.5-6.1-14.4-12.1-19.8-5.9-5.3-13.4-8.4-23.4-9.7-8-1.1-8.7-1.1-17.4.1zM354 167.9v4.9l4.8.6c2.6.4 5.9.9 7.5 1.2l2.7.6-.2 68.6-.3 68.7-6.5 1.1c-3.6.7-6.8 1.2-7.2 1.3-.5.1-.8 2.3-.8 5.1v5h72.1l-.3-4.6c-.4-5.5-1.1-6.1-9-6.9l-5.8-.6V163h-57v4.9z"/></svg>