<?xml version="1.0" standalone="no"?>
<!DOCTYPE svg PUBLIC "-//W3C//DTD SVG 20010904//EN"
 "http://www.w3.org/TR/2001/REC-SVG-20010904/DTD/svg10.dtd">
<svg version="1.0" xmlns="http://www.w3.org/2000/svg"
 width="1137.000000pt" height="422.000000pt" viewBox="0 0 1137.000000 422.000000"
 preserveAspectRatio="xMidYMid meet">
<metadata>
Created by potrace 1.13, written by Peter Selinger 2001-2015
</metadata>
<g transform="translate(0.000000,422.000000) scale(0.100000,-0.100000)"
fill="#000000" stroke="none">
<path d="M0 2110 l0 -2110 5685 0 5685 0 0 2110 0 2110 -5685 0 -5685 0 0
-2110z m11180 0 l0 -1920 -5492 2 -5493 3 -3 1918 -2 1917 5495 0 5495 0 0
-1920z"/>
<path d="M980 3196 l0 -54 43 -7 c23 -3 57 -9 75 -12 l32 -5 -2 -1007 -3
-1006 -72 -8 -73 -9 0 -59 0 -59 380 0 380 0 0 59 0 59 -72 9 -73 8 -3 458 -2
457 500 0 500 0 0 -454 c0 -379 -2 -455 -14 -459 -8 -3 -46 -9 -85 -13 l-71
-7 0 -58 0 -59 390 0 390 0 0 59 0 59 -67 7 c-36 4 -72 9 -80 12 -11 4 -13
184 -13 1008 l0 1003 40 6 c22 3 58 9 80 12 l40 6 0 54 0 54 -390 0 -390 0 0
-54 0 -54 48 -6 c26 -4 64 -9 85 -12 l37 -6 0 -429 0 -429 -500 0 -500 0 0
429 0 429 43 7 c118 18 107 11 107 71 l0 54 -380 0 -380 0 0 -54z"/>
<path d="M3789 3222 c-208 -108 -125 -422 111 -422 71 0 126 26 172 79 75 88
75 204 -1 292 -70 83 -183 103 -282 51z"/>
<path d="M4570 3201 l0 -49 68 -8 67 -9 3 -1022 2 -1021 -27 -6 c-16 -3 -47
-8 -70 -11 l-43 -7 0 -49 0 -49 355 0 355 0 0 49 0 49 -42 7 c-24 3 -55 8 -70
11 l-28 6 0 1079 0 1079 -285 0 -285 0 0 -49z"/>
<path d="M5943 2996 l-203 -61 0 -172 0 -173 -155 0 -155 0 0 -75 0 -75 149 0
150 0 3 -607 c4 -676 4 -669 73 -765 105 -144 419 -159 793 -37 l62 21 0 55 0
55 -30 -7 c-17 -4 -88 -7 -158 -7 -182 -1 -240 21 -284 110 l-23 47 -3 568 -3
567 191 0 190 0 0 75 0 75 -190 0 -190 0 0 235 c0 129 -3 235 -7 234 -5 -1
-99 -29 -210 -63z"/>
<path d="M7480 2634 c-150 -20 -337 -95 -442 -178 -123 -98 -222 -254 -268
-421 -31 -112 -39 -361 -16 -494 33 -186 87 -301 196 -411 130 -131 309 -195
580 -206 286 -13 520 63 690 223 161 151 236 326 247 573 7 157 -8 276 -51
402 -44 131 -86 198 -181 293 -65 66 -98 89 -175 128 -131 64 -232 87 -405 92
-77 2 -156 1 -175 -1z m180 -124 c117 -22 197 -89 255 -215 63 -136 85 -268
85 -519 0 -501 -122 -727 -395 -728 -99 -1 -171 27 -232 91 -127 130 -189 432
-163 786 26 355 133 547 323 585 59 11 68 11 127 0z"/>
<path d="M9712 2619 c-125 -16 -279 -85 -410 -184 -40 -30 -78 -55 -83 -55 -5
0 -9 47 -9 105 l0 105 -285 0 -285 0 0 -54 0 -54 48 -6 c26 -4 59 -9 75 -12
l27 -6 0 -683 0 -683 -57 -6 c-93 -11 -93 -11 -93 -67 l0 -49 360 0 360 0 0
50 c0 28 -3 50 -7 51 -5 1 -37 6 -73 13 l-65 11 0 580 0 580 50 33 c28 18 86
47 130 64 69 28 92 32 170 33 99 0 145 -17 197 -72 79 -83 90 -176 86 -763
l-3 -455 -65 -11 c-36 -7 -68 -12 -72 -13 -5 -1 -8 -23 -8 -51 l0 -50 360 0
360 0 0 49 c0 56 0 56 -92 66 l-57 7 -3 582 c-3 576 -4 582 -27 651 -31 95
-61 144 -121 198 -59 53 -134 84 -234 97 -80 11 -87 11 -174 -1z"/>
<path d="M3540 2541 l0 -49 48 -6 c26 -4 59 -9 75 -12 l27 -6 -2 -686 -3 -687
-65 -11 c-36 -7 -68 -12 -72 -13 -5 -1 -8 -23 -8 -51 l0 -50 361 0 360 0 -3
46 c-4 55 -11 61 -90 69 l-58 6 0 750 0 749 -285 0 -285 0 0 -49z"/>
</g>
</svg>
