<svg viewBox="0 0 24 24" xmlns="http://www.w3.org/2000/svg"><path d="M10.333 14.043c.026-.02.033-.058.02-.09a54.345 54.345 0 0 0-6.678-10.78s-2.098 1.982-1.948 3.97c.07.927.509 1.786 1.218 2.39 1.83 1.776 6.261 4.017 7.29 4.529a.091.091 0 0 0 .098-.02M9.65 15.56a.1.1 0 0 0-.097-.065l-7.376.253c.802 1.418 2.15 2.52 3.551 2.183.97-.24 3.16-1.762 3.883-2.28.059-.046.04-.085.04-.091m.11-.654c.04-.059-.026-.11-.026-.11C6.496 12.618.215 9.275.215 9.275a4.319 4.319 0 0 0 .555 3.808 4.371 4.371 0 0 0 3.38 1.874c.111.019 4.385 0 5.532-.007a.121.121 0 0 0 .078-.045M10.249.006c-.32.026-1.186.227-1.186.227C7.108.732 6.646 2.5 6.646 2.5c-.359 1.108.006 2.332.006 2.332.652 2.876 3.857 7.611 4.548 8.602.045.052.085.033.085.033.039-.013.071-.046.071-.091C12.425 2.805 10.25.006 10.25.006m2.443 13.448c.039.013.085 0 .104-.04.71-1.016 3.896-5.725 4.548-8.588 0 0 .351-1.386.013-2.332 0 0-.482-1.794-2.437-2.267 0 0-.56-.143-1.16-.227 0 0-2.189 2.798-1.12 13.37-.007.038.02.07.052.084m1.746 2.047a.13.13 0 0 0-.085.058c-.006.039 0 .071.026.097.704.505 2.847 1.995 3.877 2.28 0 0 1.909.648 3.564-2.183l-7.382-.252Zm9.35-6.238s-6.268 3.349-9.513 5.525c-.033.026-.052.065-.04.104 0 0 .034.058.08.058 1.159 0 5.55.007 5.667-.013.437-.032.867-.13 1.27-.291 0 0 1.564-.493 2.372-2.261 0 0 .723-1.438.163-3.122m-10.105 4.78c.026.02.065.026.098.007 1.055-.525 5.453-2.747 7.27-4.515 0 0 1.154-.92 1.213-2.403.13-2.054-1.948-3.958-1.948-3.958S16.47 7.805 13.65 13.927a.129.129 0 0 0 .032.116" fill="#CE0E2D"/></svg>