<svg viewBox="0 0 24 24" xmlns="http://www.w3.org/2000/svg"><path d="M3.772 10.518H2.55c-.429 0-.645.116-.645.116V8.058H0v7.884h1.905V12.76c0-.282.23-.51.511-.51h1.11a.51.51 0 0 1 .51.51v3.18h1.906v-3.427c0-1.441-.963-1.996-2.17-1.996Zm18.322 0v3.18a.51.51 0 0 1-.51.51h-1.11a.51.51 0 0 1-.51-.51v-3.18h-1.907v3.34c0 1.365.876 2.084 2.17 2.084h1.867v-.01c1.192 0 1.906-.846 1.906-2.074v-3.34h-1.906Zm-10.752 3.18a.51.51 0 0 1-.511.51H9.72a.51.51 0 0 1-.51-.51v-3.18H7.305v3.34c0 1.365.876 2.084 2.17 2.084h1.867v-.01c1.192 0 1.906-.846 1.906-2.074v-3.34h-1.906v3.18Zm3.358 2.244h1.907V8.058h-1.906v7.884Z" fill="#1ce783"/></svg>