<?xml version="1.0" encoding="UTF-8"?>
<svg viewBox="0 0 8 8" version="1.1" xmlns="http://www.w3.org/2000/svg" xmlns:xlink="http://www.w3.org/1999/xlink">
    <title>ICBC</title>
    <g id="Page-1" stroke="none" stroke-width="1" fill="none" fill-rule="evenodd">
        <path d="M4.14197028,-5.68434189e-14 C6.34999429,-5.68434189e-14 8.142,1.79200571 8.142,3.99997028 C8.142,6.20799429 6.34999429,8 4.14197028,8 C1.93400571,8 0.142,6.20799429 0.142,3.99997028 C0.142,1.79200571 1.93400571,-5.68434189e-14 4.14197028,-5.68434189e-14 L4.14197028,-5.68434189e-14 Z M4.14197028,0.79464372 C2.37130646,0.79464372 0.93664372,2.22930646 0.93664372,3.99997028 C0.93664372,5.77063409 2.37130646,7.20529683 4.14197028,7.20529683 C5.91263409,7.20529683 7.34729683,5.77063409 7.34729683,3.99997028 C7.34729683,2.22930646 5.91263409,0.79464372 4.14197028,0.79464372 L4.14197028,0.79464372 Z M6.39267808,1.88266417 L6.39267808,3.65332798 L5.05396469,3.65332798 L5.05396469,4.25601355 L6.39261863,4.25601355 L6.39261863,6.06401082 L4.42999667,6.06401082 L4.42999667,5.48795803 L5.76865062,5.48795803 L5.76865062,4.8320069 L4.42999667,4.8320069 L4.42999667,3.06134308 L5.76865062,3.06134308 L5.76865062,2.45865751 L4.42999667,2.45865751 L4.42999667,1.88266417 L6.39261863,1.88266417 L6.39267808,1.88266417 Z M3.85400333,1.88266417 L3.85400333,2.45871696 L2.51528994,2.45871696 L2.51528994,3.06134308 L3.85400333,3.06134308 L3.85400333,4.8320069 L2.51528994,4.8320069 L2.51528994,5.48801748 L3.85400333,5.48801748 L3.85400333,6.06401082 L1.89132192,6.06401082 L1.89132192,4.25601355 L3.22997586,4.25601355 L3.22997586,3.65332798 L1.89132192,3.65332798 L1.89132192,1.88272362 L3.85400333,1.88272362 L3.85400333,1.88266417 Z" id="ICBC" fill="#CF0106" fill-rule="nonzero"></path>
    </g>
</svg>
