<svg height="20" viewBox="0 0 24 24" xmlns="http://www.w3.org/2000/svg"><path d="m24 0-6.342 20H0L18.003 0H24ZM11.895 14.905c-1.026.064-1.956.235-2.472.558a.562.562 0 0 0-.246.267c-.054.147.102.335.282.405.21.08.486.135.924.141.288.003.57-.012.858-.047l.654-1.322v-.002Zm5.883-3.096s-.18.212-.9.361a3.48 3.48 0 0 1-.852.044c-.669-.035-1.14-.25-2.232-.343-1.476-.127-2.583.288-3.27.734-.171.117-.273.135-.456.505-.33.71-.618 1.304-.858 1.839-.045.088-.079.18-.102.276.12-.13.858-1.16 4.668-.831 1.449.132 2.184.07 2.931-.79.414-.563.773-1.163 1.071-1.792v-.003Zm1.533-3.054s-.522.514-2.1.52c-1.056-.015-1.632-.341-2.919-.353-1.431-.017-2.52.452-2.847 1.107l-.96 2.106a3.882 3.882 0 0 1 1.215-.631c1.032-.32 1.989-.259 2.973-.103.72.114 1.119.255 1.773.235a2.24 2.24 0 0 0 1.134-.285c.297-.17.561-.432.936-.999.222-.422.702-1.41.795-1.597Z" fill="#001B71"/></svg>