<svg viewBox="0 0 24 24" version="1.1" xmlns="http://www.w3.org/2000/svg" xmlns:xlink="http://www.w3.org/1999/xlink">
    <title>IDX</title>
    <path d="M1.71428571,20.5714286 L11.1190549,20.5714286 C12.0658287,20.5714286 12.8333406,21.3389405 12.8333406,22.2857143 C12.8333406,23.2324882 12.0658287,24 11.1190549,24 L1.71428571,24 C0.767511856,24 0,23.2324882 0,22.2857143 C0,21.3389405 0.767511856,20.5714286 1.71428571,20.5714286 Z" fill="#8964E8"></path>
    <path d="M12.7978888,15.4283571 L14.6193174,15.4283571 C15.5660912,15.4283571 16.3336031,16.195869 16.3336031,17.1426428 C16.3336031,18.0894167 15.5660912,18.8569285 14.6193174,18.8569285 L12.7978888,18.8569285 C11.851115,18.8569285 11.0836031,18.0894167 11.0836031,17.1426428 C11.0836031,16.195869 11.851115,15.4283571 12.7978888,15.4283571 Z" fill="#17B877"></path>
    <path d="M5.79769196,15.4285714 L7.61912054,15.4285714 C8.56589439,15.4285714 9.33340625,16.1960833 9.33340625,17.1428571 C9.33340625,18.089631 8.56589439,18.8571428 7.61912054,18.8571428 L5.79769196,18.8571428 C4.85091811,18.8571428 4.08340625,18.089631 4.08340625,17.1428571 C4.08340625,16.1960833 4.85091811,15.4285714 5.79769196,15.4285714 Z" fill="#17B877"></path>
    <path d="M9.88107634,10.2857143 L14.0358455,10.2857143 C14.9826194,10.2857143 15.7501312,11.0532262 15.7501312,12 C15.7501312,12.9467739 14.9826194,13.7142857 14.0358455,13.7142857 L9.88107634,13.7142857 C8.93430249,13.7142857 8.16679063,12.9467739 8.16679063,12 C8.16679063,11.0532262 8.93430249,10.2857143 9.88107634,10.2857143 Z" fill="#FFA23E"></path>
    <path d="M19.2142857,10.2855 L19.2857143,10.2855 C20.2324881,10.2855 21,11.0530119 21,11.9997857 C21,12.9465596 20.2324881,13.7140714 19.2857143,13.7140714 L19.2142857,13.7140714 C18.2675119,13.7140714 17.5,12.9465596 17.5,11.9997857 C17.5,11.0530119 18.2675119,10.2855 19.2142857,10.2855 Z" fill="#FFA23E"></path>
    <path d="M5.79769196,5.14285714 L15.2024611,5.14285714 C16.149235,5.14285714 16.9167469,5.910369 16.9167469,6.85714285 C16.9167469,7.80391671 16.149235,8.57142857 15.2024611,8.57142857 L5.79769196,8.57142857 C4.85091811,8.57142857 4.08340625,7.80391671 4.08340625,6.85714286 C4.08340625,5.910369 4.85091811,5.14285714 5.79769196,5.14285714 Z" fill="#25A6E9"></path>
        <path d="M6.96428571,0 L11.1190549,0 C12.0658288,0 12.8333406,0.767511856 12.8333406,1.71428571 C12.8333406,2.66105957 12.0658288,3.42857143 11.1190549,3.42857143 L6.96428571,3.42857143 C6.01751186,3.42857143 5.25,2.66105957 5.25,1.71428572 C5.25,0.767511856 6.01751186,0 6.96428571,0 Z" fill="#8964E8"></path>
    <path d="M1.71428571,0 L1.78571429,0 C2.73248814,0 3.5,0.767511856 3.5,1.71428571 C3.5,2.66105957 2.73248814,3.42857143 1.78571429,3.42857143 L1.71428571,3.42857143 C0.767511856,3.42857143 0,2.66105957 0,1.71428572 C0,0.767511856 0.767511856,0 1.71428571,0 Z" fill="#8964E8"></path>
</svg>
