<svg viewBox="0 0 24 24" xmlns="http://www.w3.org/2000/svg"><defs><linearGradient x1="50%" y1="100%" x2="50%" y2="0%" id="a"><stop stop-color="#7400E1" offset="0%"/><stop stop-color="#4000BF" offset="100%"/></linearGradient></defs><path d="M12 0C5.373 0 0 5.373 0 12s5.373 12 12 12 12-5.373 12-12S18.627 0 12 0Zm0 1.22c5.953 0 10.78 4.827 10.78 10.78 0 5.953-4.827 10.78-10.78 10.78-5.953 0-10.78-4.827-10.78-10.78C1.22 6.047 6.047 1.22 12 1.22Z" fill="#4000BF"/><path d="M12.136 3.458a8.542 8.542 0 1 1-7.9 5.286A3.322 3.322 0 1 0 8.88 4.1a8.517 8.517 0 0 1 3.256-.642Z" fill="url(#a)"/></svg>