<?xml version="1.0" encoding="UTF-8"?>
<svg viewBox="0 0 24 24" version="1.1" xmlns="http://www.w3.org/2000/svg" xmlns:xlink="http://www.w3.org/1999/xlink">
    <title>Insomnia</title>
    <defs>
        <linearGradient x1="49.9997366%" y1="100%" x2="49.9997366%" y2="0%" id="linearGradient-1">
            <stop stop-color="#7400E1" offset="0%"></stop>
            <stop stop-color="#4000BF" offset="100%"></stop>
        </linearGradient>
    </defs>
    <path d="M12,0 C5.37258,0 0,5.37258 0,12 C0,18.62745 5.37258,24 12,24 C18.62745,24 24,18.62745 24,12 C24,5.37258 18.62745,0 12,0 Z M12,1.22034 C17.953425,1.22034 22.779675,6.04656 22.779675,12 C22.779675,17.953425 17.953425,22.779675 12,22.779675 C6.04656,22.779675 1.22034,17.953425 1.22034,12 C1.22034,6.04656 6.04656,1.22034 12,1.22034 Z" fill="#4000BF" fill-rule="nonzero"></path>
    <path d="M12.1356,3.4576725 C16.853475,3.4576725 20.678025,7.2822 20.678025,12.000075 C20.678025,16.717875 16.853475,20.542425 12.1356,20.542425 C7.417815,20.542425 3.593265,16.717875 3.593265,12.000075 C3.593265,10.847025 3.8216925,9.747375 4.235775,8.743875 C4.8403875,9.567225 5.815425,10.10175 6.9152925,10.10175 C8.750025,10.10175 10.23735,8.614425 10.23735,6.7797 C10.23735,5.6798325 9.702825,4.7048025 8.8794,4.1001975 C9.882975,3.6861075 10.982625,3.4576725 12.1356,3.4576725 Z" fill="url(#linearGradient-1)"></path>
</svg>
