<svg stroke-miterlimit="10" style="fill-rule:nonzero;clip-rule:evenodd;stroke-linecap:round;stroke-linejoin:round" viewBox="0 0 24 24" xml:space="preserve" xmlns="http://www.w3.org/2000/svg"><defs><radialGradient cx="332.14" cy="2511.81" gradientTransform="scale(.0096)" gradientUnits="userSpaceOnUse" id="a" r="3263.54"><stop offset=".09" stop-color="#fa8f21"/><stop offset=".78" stop-color="#d82d7e"/></radialGradient><radialGradient cx="1516.14" cy="2623.81" gradientTransform="scale(.0096)" gradientUnits="userSpaceOnUse" id="b" r="2572.12"><stop offset=".64" stop-color="#8c3aaa" stop-opacity="0"/><stop offset="1" stop-color="#8c3aaa"/></radialGradient></defs><path d="M8 12a4 4 0 1 1 8-.001A4 4 0 0 1 8 12m-2.162 0a6.162 6.162 0 1 0 12.324 0 6.162 6.162 0 0 0-12.324 0m11.128-6.406a1.44 1.44 0 1 0 1.44-1.44 1.44 1.44 0 0 0-1.44 1.44M7.152 21.768c-1.17-.054-1.806-.248-2.228-.413a3.73 3.73 0 0 1-1.38-.898c-.421-.42-.681-.819-.898-1.379-.165-.422-.36-1.058-.413-2.229-.058-1.264-.07-1.644-.07-4.849 0-3.204.013-3.583.07-4.85.053-1.17.25-1.804.413-2.228.218-.56.478-.96.897-1.38.42-.42.82-.68 1.38-.898.423-.164 1.059-.36 2.229-.412 1.265-.059 1.645-.07 4.848-.07s3.584.012 4.85.07c1.17.053 1.804.25 2.228.412.56.217.96.478 1.38.898.42.42.68.82.898 1.38.164.423.36 1.059.413 2.229.058 1.266.07 1.645.07 4.85 0 3.204-.012 3.583-.07 4.848-.054 1.17-.25 1.806-.413 2.229-.218.56-.478.96-.898 1.38-.42.419-.82.679-1.38.897-.422.165-1.059.36-2.229.413-1.264.058-1.644.07-4.849.07s-3.583-.012-4.848-.07M7.052.073C5.776.13 4.903.333 4.14.63a5.886 5.886 0 0 0-2.126 1.384A5.863 5.863 0 0 0 .63 4.14c-.297.763-.5 1.635-.557 2.913C.013 8.333 0 8.74 0 12c0 3.259.014 3.668.073 4.947.058 1.278.26 2.15.557 2.913.306.79.716 1.46 1.384 2.126A5.9 5.9 0 0 0 4.14 23.37c.764.297 1.635.5 2.913.557C8.333 23.985 8.74 24 12 24c3.259 0 3.668-.014 4.947-.073 1.278-.058 2.15-.26 2.913-.557a5.901 5.901 0 0 0 2.126-1.384 5.878 5.878 0 0 0 1.384-2.126c.297-.763.5-1.635.557-2.913.058-1.28.072-1.688.072-4.947 0-3.259-.014-3.668-.072-4.947-.058-1.278-.26-2.15-.557-2.913a5.902 5.902 0 0 0-1.384-2.126A5.872 5.872 0 0 0 19.86.63c-.764-.297-1.636-.5-2.913-.557C15.668.014 15.26 0 12.001 0 8.742 0 8.333.014 7.053.073" fill="url(#a)"/><path d="M8 12a4 4 0 1 1 8-.001A4 4 0 0 1 8 12m-2.162 0a6.162 6.162 0 1 0 12.324 0 6.162 6.162 0 0 0-12.324 0m11.128-6.406a1.44 1.44 0 1 0 1.44-1.44 1.44 1.44 0 0 0-1.44 1.44M7.152 21.768c-1.17-.054-1.806-.248-2.228-.413a3.73 3.73 0 0 1-1.38-.898c-.421-.42-.681-.819-.898-1.379-.165-.422-.36-1.058-.413-2.229-.058-1.264-.07-1.644-.07-4.849 0-3.204.013-3.583.07-4.85.053-1.17.25-1.804.413-2.228.218-.56.478-.96.897-1.38.42-.42.82-.68 1.38-.898.423-.164 1.059-.36 2.229-.412 1.265-.059 1.645-.07 4.848-.07s3.584.012 4.85.07c1.17.053 1.804.25 2.228.412.56.217.96.478 1.38.898.42.42.68.82.898 1.38.164.423.36 1.059.413 2.229.058 1.266.07 1.645.07 4.85 0 3.204-.012 3.583-.07 4.848-.054 1.17-.25 1.806-.413 2.229-.218.56-.478.96-.898 1.38-.42.419-.82.679-1.38.897-.422.165-1.059.36-2.229.413-1.264.058-1.644.07-4.849.07s-3.583-.012-4.848-.07M7.052.073C5.776.13 4.903.333 4.14.63a5.886 5.886 0 0 0-2.126 1.384A5.863 5.863 0 0 0 .63 4.14c-.297.763-.5 1.635-.557 2.913C.013 8.333 0 8.74 0 12c0 3.259.014 3.668.073 4.947.058 1.278.26 2.15.557 2.913.306.79.716 1.46 1.384 2.126A5.9 5.9 0 0 0 4.14 23.37c.764.297 1.635.5 2.913.557C8.333 23.985 8.74 24 12 24c3.259 0 3.668-.014 4.947-.073 1.278-.058 2.15-.26 2.913-.557a5.901 5.901 0 0 0 2.126-1.384 5.878 5.878 0 0 0 1.384-2.126c.297-.763.5-1.635.557-2.913.058-1.28.072-1.688.072-4.947 0-3.259-.014-3.668-.072-4.947-.058-1.278-.26-2.15-.557-2.913a5.902 5.902 0 0 0-1.384-2.126A5.872 5.872 0 0 0 19.86.63c-.764-.297-1.636-.5-2.913-.557C15.668.014 15.26 0 12.001 0 8.742 0 8.333.014 7.053.073" fill="url(#b)"/></svg>