<?xml version="1.0" encoding="UTF-8" standalone="no"?>
<!DOCTYPE svg PUBLIC "-//W3C//DTD SVG 1.1//EN" "http://www.w3.org/Graphics/SVG/1.1/DTD/svg11.dtd">
<!-- Created with Vectornator (http://vectornator.io/) -->
<svg height="100%" stroke-miterlimit="10" style="fill-rule:nonzero;clip-rule:evenodd;stroke-linecap:round;stroke-linejoin:round;" version="1.1" viewBox="0 0 1024 1024" width="100%" xml:space="preserve" xmlns="http://www.w3.org/2000/svg" xmlns:vectornator="http://vectornator.io" xmlns:xlink="http://www.w3.org/1999/xlink">
<defs/>
<g id="Untitled" vectornator:layerName="Untitled">
<g opacity="1">
<path d="M449.166 473.475C449.166 423.511 492.798 401.504 504.527 391.592C516.261 401.504 559.521 423.511 559.521 473.475C559.521 523.436 516.261 545.513 504.527 555.421C492.798 545.513 449.166 523.436 449.166 473.475" fill="#997c5d" fill-rule="nonzero" opacity="1" stroke="none"/>
<path d="M512.695 470.212L512.695 451.024C512.77 441.211 519.094 435.228 526.051 435.235L526.051 433.712L483.248 433.712L483.248 435.235C490.169 435.228 496.534 441.211 496.602 451.024L496.602 470.212L496.602 496.157C496.534 505.972 490.169 512.034 483.248 511.947L483.248 513.471L526.051 513.471L526.051 511.947C519.486 512.034 512.77 505.972 512.695 496.157L512.695 470.212Z" fill="#ffffff" fill-rule="evenodd" opacity="1" stroke="none"/>
<path d="M504.51 395.901L504.51 399.945C515.047 408.846 552.34 428.604 552.34 473.477C552.34 518.348 515.047 538.172 504.51 547.07L504.51 551.11C493.396 541.722 452.844 520.813 452.844 473.477C452.844 426.138 493.396 405.295 504.51 395.901M460.238 473.477C460.238 431.434 494.626 412.915 504.503 404.574C514.373 412.915 548.447 431.434 548.447 473.477C548.447 515.527 514.373 534.099 504.503 542.441C494.626 534.099 460.238 515.527 460.238 473.477" fill="#ffffff" fill-rule="evenodd" opacity="1" stroke="none"/>
<path d="M821.433 626.675L822.079 626.675L823.562 629.378L825.192 629.378L823.548 626.561C824.396 626.504 825.097 626.074 825.097 624.889C825.097 623.42 824.12 622.938 822.455 622.938L820.056 622.938L820.056 629.378L821.433 629.378L821.433 626.675ZM821.433 625.583L821.433 624.037L822.396 624.037C822.918 624.037 823.627 624.081 823.627 624.746C823.627 625.453 823.267 625.583 822.65 625.583L821.433 625.583ZM828.416 626.168C828.416 622.395 825.587 620.198 822.435 620.198C819.248 620.198 816.416 622.395 816.416 626.168C816.416 629.941 819.248 632.142 822.435 632.142C825.587 632.142 828.416 629.941 828.416 626.168M826.693 626.168C826.693 628.916 824.738 630.764 822.435 630.764L822.435 630.749C820.056 630.764 818.152 628.916 818.152 626.168C818.152 623.42 820.056 621.588 822.435 621.588C824.738 621.588 826.693 623.42 826.693 626.168" fill="#185090" fill-rule="evenodd" opacity="1" stroke="none"/>
<path d="M767.883 614.8C768.115 614.8 768.255 614.932 768.352 615.251L772.092 628.822C772.324 629.592 771.996 630.171 771.672 630.295C771.2 630.361 771.015 630.49 771.015 630.871C771.015 631.317 771.573 631.317 772.418 631.381C776.158 631.51 779.568 631.51 781.256 631.51C782.977 631.51 783.402 631.381 783.402 630.871C783.402 630.426 783.169 630.361 782.798 630.361C782.234 630.361 781.53 630.295 780.83 630.102C779.851 629.791 778.489 628.887 776.719 623.125C773.718 613.391 766.244 587.271 765.131 583.755C764.662 582.279 764.377 581.705 763.957 581.705C763.487 581.705 763.212 582.409 762.65 584.269L750.917 624.47C749.987 627.668 749.097 629.849 746.95 630.237C746.577 630.295 745.917 630.361 745.5 630.361C745.126 630.361 744.938 630.49 744.938 630.871C744.938 631.381 745.217 631.51 745.828 631.51C748.258 631.51 750.827 631.317 751.339 631.317C752.787 631.317 754.8 631.51 756.296 631.51C756.805 631.51 757.084 631.381 757.084 630.871C757.084 630.49 756.947 630.361 756.385 630.361L755.69 630.361C754.238 630.361 753.82 629.532 753.82 628.376C753.82 627.606 754.051 626.074 754.518 624.47L757.041 615.312C757.14 614.932 757.229 614.8 757.464 614.8L767.883 614.8ZM758.392 611.6C758.209 611.6 758.162 611.411 758.209 611.152L762.508 595.406C762.551 595.149 762.65 594.825 762.79 594.825C762.933 594.825 762.978 595.149 763.025 595.406L767.234 611.216C767.277 611.411 767.234 611.6 766.998 611.6L758.392 611.6Z" fill="#185090" fill-rule="evenodd" opacity="1" stroke="none"/>
<path d="M481.551 595.914L481.694 595.914C482.532 597.137 487.72 605.138 492.814 612.057C497.672 618.643 503.659 627.032 506.603 630.871C507.115 631.574 507.679 632.284 508.191 632.284C508.608 632.284 508.798 631.703 508.798 630.295L509.311 589.896C509.361 586.317 509.735 584.967 511.042 584.457C511.603 584.269 511.979 584.269 512.445 584.269C513.003 584.269 513.285 584.073 513.285 583.69C513.285 583.173 512.818 583.113 512.213 583.113C509.916 583.113 508.141 583.303 507.63 583.303C506.648 583.303 504.404 583.113 501.976 583.113C501.276 583.113 500.759 583.173 500.759 583.69C500.759 584.073 500.947 584.269 501.509 584.269C502.162 584.269 503.283 584.269 503.983 584.65C505.108 585.291 505.526 586.509 505.574 590.414L506.042 619.157L505.811 619.157C505.01 618.129 498.703 608.911 495.528 604.56C488.702 595.275 481.598 584.838 481.036 584.008C480.243 582.856 479.82 582.022 479.309 582.022C478.838 582.022 478.7 582.917 478.7 584.196L478.281 622.103C478.233 627.668 478.046 629.532 476.832 630.04C476.177 630.295 475.334 630.361 474.726 630.361C474.259 630.361 473.978 630.49 473.978 630.871C473.978 631.451 474.401 631.51 475.011 631.51C477.44 631.51 479.633 631.317 480.053 631.317C480.944 631.317 482.812 631.51 485.849 631.51C486.504 631.51 486.925 631.381 486.925 630.871C486.925 630.49 486.647 630.361 486.13 630.361C485.383 630.361 484.497 630.295 483.701 629.914C482.768 629.461 482.156 627.796 482.064 622.808L481.551 595.914Z" fill="#185090" fill-rule="evenodd" opacity="1" stroke="none"/>
<path d="M533.029 612.949C533.029 618.834 533.029 623.897 532.793 626.581C532.655 628.441 532.372 629.849 531.434 630.102C531.016 630.237 530.456 630.361 529.75 630.361C529.192 630.361 529.003 630.555 529.003 630.871C529.003 631.317 529.331 631.51 529.943 631.51C531.81 631.51 534.752 631.317 535.828 631.317C537.136 631.317 540.081 631.51 543.165 631.51C543.684 631.51 544.056 631.317 544.056 630.871C544.056 630.555 543.819 630.361 543.307 630.361C542.605 630.361 541.578 630.237 540.924 630.102C539.521 629.849 539.243 628.441 539.103 626.647C538.864 623.897 538.864 618.834 538.864 612.949L538.864 586.698L544.759 586.891C548.917 587.015 550.18 588.812 550.274 590.478L550.318 591.18C550.368 592.141 550.46 592.46 550.827 592.46C551.114 592.46 551.207 592.077 551.25 591.433C551.25 589.769 551.393 585.352 551.393 584.008C551.393 583.053 551.347 582.662 551.016 582.662C550.646 582.662 549.524 583.303 546.53 583.303L528.025 583.303C526.482 583.303 524.706 583.173 523.349 582.983C522.181 582.856 521.715 582.222 521.34 582.222C521.059 582.222 520.919 582.603 520.779 583.434C520.688 583.942 519.797 589.769 519.797 590.799C519.797 591.498 519.891 591.819 520.222 591.819C520.499 591.819 520.638 591.56 520.729 591.052C520.826 590.539 521.059 589.769 521.527 588.812C522.232 587.403 523.349 587.081 526.058 586.955L533.029 586.698L533.029 612.949Z" fill="#185090" fill-rule="evenodd" opacity="1" stroke="none"/>
<path d="M565.321 612.949C565.321 619.157 565.321 624.216 565.084 626.905C564.942 628.763 564.668 629.849 563.731 630.102C563.307 630.237 562.754 630.361 562.049 630.361C561.485 630.361 561.3 630.555 561.3 630.871C561.3 631.317 561.626 631.51 562.232 631.51C564.107 631.51 567.052 631.317 568.125 631.317C569.387 631.317 572.331 631.51 575.411 631.51C575.925 631.51 576.302 631.317 576.302 630.871C576.302 630.555 576.069 630.361 575.55 630.361C574.85 630.361 573.828 630.237 573.169 630.102C571.762 629.849 571.442 628.694 571.302 626.97C571.114 624.216 571.114 619.157 571.114 612.949L571.114 601.677C571.114 591.943 571.114 590.155 571.211 588.105C571.302 585.858 571.674 584.778 572.936 584.457C573.499 584.326 573.871 584.269 574.342 584.269C574.805 584.269 575.089 584.138 575.089 583.63C575.089 583.244 574.71 583.113 574.105 583.113C572.331 583.113 569.574 583.303 568.404 583.303C567.052 583.303 564.107 583.113 562.326 583.113C561.585 583.113 561.21 583.244 561.21 583.63C561.21 584.138 561.485 584.269 561.957 584.269C562.517 584.269 563.124 584.326 563.636 584.525C564.668 584.838 565.135 585.93 565.221 588.105C565.321 590.155 565.321 591.943 565.321 601.677L565.321 612.949Z" fill="#185090" fill-rule="evenodd" opacity="1" stroke="none"/>
<path d="M591.992 595.914L592.134 595.914C592.972 597.137 598.161 605.138 603.253 612.057C608.117 618.643 614.099 627.032 617.044 630.871C617.562 631.574 618.119 632.284 618.637 632.284C619.053 632.284 619.241 631.703 619.241 630.295L619.759 589.896C619.803 586.317 620.175 584.967 621.486 584.457C622.043 584.269 622.416 584.269 622.884 584.269C623.447 584.269 623.727 584.073 623.727 583.69C623.727 583.173 623.258 583.113 622.652 583.113C620.363 583.113 618.585 583.303 618.07 583.303C617.09 583.303 614.849 583.113 612.417 583.113C611.714 583.113 611.2 583.173 611.2 583.69C611.2 584.073 611.388 584.269 611.946 584.269C612.606 584.269 613.722 584.269 614.428 584.65C615.551 585.291 615.967 586.509 616.02 590.414L616.476 619.157L616.243 619.157C615.455 618.129 609.15 608.911 605.967 604.56C599.149 595.275 592.041 584.838 591.478 584.008C590.685 582.856 590.261 582.022 589.745 582.022C589.284 582.022 589.14 582.917 589.14 584.196L588.721 622.103C588.671 627.668 588.488 629.532 587.271 630.04C586.619 630.295 585.774 630.361 585.169 630.361C584.698 630.361 584.422 630.49 584.422 630.871C584.422 631.451 584.841 631.51 585.452 631.51C587.883 631.51 590.073 631.317 590.498 631.317C591.379 631.317 593.256 631.51 596.289 631.51C596.943 631.51 597.368 631.381 597.368 630.871C597.368 630.49 597.083 630.361 596.576 630.361C595.828 630.361 594.937 630.295 594.137 629.914C593.212 629.461 592.598 627.796 592.507 622.808L591.992 595.914Z" fill="#185090" fill-rule="evenodd" opacity="1" stroke="none"/>
<path d="M637.284 612.949C637.284 618.834 637.284 623.897 637.05 626.581C636.861 628.441 636.625 629.849 635.691 630.102C635.274 630.237 634.71 630.361 634.008 630.361C633.447 630.361 633.267 630.555 633.267 630.871C633.267 631.317 633.585 631.51 634.193 631.51C636.065 631.51 639.01 631.317 640.085 631.317C642.841 631.317 648.565 631.703 655.62 631.703C657.4 631.703 657.821 631.703 658.14 630.04C658.376 628.763 658.751 624.407 658.751 622.935C658.751 622.294 658.751 621.785 658.376 621.785C658.052 621.785 657.96 622.035 657.865 622.738C657.532 625.363 656.976 626.715 655.761 627.486C654.543 628.243 649.99 628.243 648.776 628.243C644.008 628.243 643.261 627.286 643.17 622.872C643.128 621.012 643.17 615.121 643.17 612.949L643.17 607.889C643.17 607.503 643.214 607.251 643.445 607.251C644.568 607.251 651.791 607.314 652.675 607.441C654.402 607.696 655.058 608.658 655.29 609.936C655.435 610.77 655.435 611.6 655.478 612.242C655.478 612.562 655.575 612.819 655.903 612.819C656.324 612.819 656.324 612.115 656.324 611.6C656.324 611.152 656.414 608.595 656.513 607.314C656.65 604.045 656.886 603.024 656.886 602.639C656.886 602.254 656.743 602.12 656.555 602.12C656.324 602.12 656.136 602.447 655.808 602.96C655.379 603.601 654.684 603.791 653.568 603.92C652.49 604.045 644.522 604.045 643.5 604.045C643.214 604.045 643.17 603.791 643.17 603.345L643.17 587.143C643.17 586.698 643.261 586.509 643.5 586.509C644.436 586.509 651.93 586.633 652.726 586.762C655.058 587.143 655.523 587.911 655.851 589.066C656.092 589.832 656.136 590.921 656.136 591.369C656.136 591.943 656.226 592.272 656.555 592.272C656.886 592.272 656.976 591.885 657.018 591.56C657.116 590.799 657.213 587.978 657.256 587.339C657.4 584.395 657.632 583.63 657.632 583.173C657.632 582.856 657.589 582.603 657.353 582.603C657.116 582.603 656.83 582.794 656.599 582.856C656.226 582.983 655.478 583.113 654.59 583.244C653.706 583.303 641.819 583.303 640.317 583.303C639.01 583.303 636.065 583.113 633.585 583.113C632.892 583.113 632.557 583.244 632.557 583.69C632.557 584.138 632.84 584.269 633.356 584.269C634.008 584.269 634.808 584.326 635.18 584.457C636.718 584.908 637.095 585.93 637.191 588.105C637.284 590.155 637.284 591.943 637.284 601.677L637.284 612.949Z" fill="#185090" fill-rule="evenodd" opacity="1" stroke="none"/>
<path d="M675.91 595.914L676.054 595.914C676.892 597.137 682.08 605.138 687.178 612.057C692.036 618.643 698.018 627.032 700.965 630.871C701.471 631.574 702.038 632.284 702.548 632.284C702.974 632.284 703.161 631.703 703.161 630.295L703.667 589.896C703.719 586.317 704.086 584.967 705.403 584.457C705.965 584.269 706.337 584.269 706.801 584.269C707.36 584.269 707.647 584.073 707.647 583.69C707.647 583.173 707.176 583.113 706.567 583.113C704.283 583.113 702.504 583.303 701.988 583.303C701.009 583.303 698.765 583.113 696.337 583.113C695.633 583.113 695.117 583.173 695.117 583.69C695.117 584.073 695.31 584.269 695.871 584.269C696.523 584.269 697.645 584.269 698.347 584.65C699.465 585.291 699.888 586.509 699.933 590.414L700.403 619.157L700.164 619.157C699.369 618.129 693.06 608.911 689.885 604.56C683.059 595.275 675.955 584.838 675.393 584.008C674.604 582.856 674.178 582.022 673.668 582.022C673.2 582.022 673.057 582.917 673.057 584.196L672.637 622.103C672.591 627.668 672.403 629.532 671.186 630.04C670.537 630.295 669.688 630.361 669.085 630.361C668.616 630.361 668.337 630.49 668.337 630.871C668.337 631.451 668.76 631.51 669.371 631.51C671.799 631.51 673.993 631.317 674.416 631.317C675.307 631.317 677.167 631.51 680.212 631.51C680.861 631.51 681.285 631.381 681.285 630.871C681.285 630.49 681.006 630.361 680.486 630.361C679.741 630.361 678.856 630.295 678.059 629.914C677.124 629.461 676.517 627.796 676.421 622.808L675.91 595.914Z" fill="#185090" fill-rule="evenodd" opacity="1" stroke="none"/>
<path d="M726.918 612.949C726.918 618.834 726.918 623.897 726.683 626.581C726.545 628.441 726.259 629.849 725.334 630.102C724.909 630.237 724.347 630.361 723.645 630.361C723.084 630.361 722.895 630.555 722.895 630.871C722.895 631.317 723.229 631.51 723.833 631.51C725.701 631.51 728.642 631.317 729.722 631.317C731.031 631.317 733.973 631.51 737.062 631.51C737.573 631.51 737.947 631.317 737.947 630.871C737.947 630.555 737.714 630.361 737.197 630.361C736.503 630.361 735.47 630.237 734.813 630.102C733.417 629.849 733.129 628.441 732.994 626.647C732.758 623.897 732.758 618.834 732.758 612.949L732.758 586.698L738.648 586.891C742.807 587.015 744.067 588.812 744.165 590.478L744.209 591.18C744.255 592.141 744.353 592.46 744.722 592.46C745.002 592.46 745.099 592.077 745.143 591.433C745.143 589.769 745.278 585.352 745.278 584.008C745.278 583.053 745.236 582.662 744.909 582.662C744.535 582.662 743.418 583.303 740.427 583.303L721.918 583.303C720.377 583.303 718.596 583.173 717.236 582.983C716.073 582.856 715.606 582.222 715.235 582.222C714.949 582.222 714.814 582.603 714.672 583.434C714.574 583.942 713.695 589.769 713.695 590.799C713.695 591.498 713.783 591.819 714.111 591.819C714.397 591.819 714.532 591.56 714.621 591.052C714.717 590.539 714.949 589.769 715.413 588.812C716.117 587.403 717.236 587.081 719.948 586.955L726.918 586.698L726.918 612.949Z" fill="#185090" fill-rule="evenodd" opacity="1" stroke="none"/>
<path d="M798.894 601.677C798.894 591.943 798.894 590.155 798.986 588.105C799.082 585.858 799.455 584.778 800.716 584.457C801.271 584.326 802.018 584.269 802.536 584.269C803.104 584.269 803.38 584.138 803.38 583.69C803.38 583.244 803.052 583.113 802.4 583.113C800.574 583.113 797.168 583.303 796.045 583.303C794.781 583.303 791.839 583.113 789.639 583.113C788.937 583.113 788.614 583.244 788.614 583.69C788.614 584.138 788.894 584.269 789.405 584.269C790.009 584.269 790.575 584.326 790.947 584.457C792.489 584.908 792.861 585.93 792.956 588.105C793.05 590.155 793.05 591.943 793.05 601.677L793.05 612.949C793.05 618.834 793.05 623.897 792.818 626.581C792.629 628.441 792.397 629.849 791.467 630.102C791.047 630.237 790.482 630.361 789.774 630.361C789.224 630.361 789.034 630.555 789.034 630.871C789.034 631.317 789.357 631.51 789.962 631.51C791.839 631.51 794.781 631.317 795.86 631.317C799.637 631.317 802.722 631.703 809.456 631.703C811.884 631.703 812.118 631.381 812.403 629.98C812.776 628.123 813.104 623.313 813.104 622.61C813.104 621.845 813.053 621.529 812.732 621.529C812.351 621.529 812.264 621.903 812.209 622.484C812.118 623.7 811.56 625.49 810.998 626.327C809.832 628.056 808.005 628.123 805.532 628.123C801.885 628.123 800.667 627.668 799.873 626.715C798.894 625.561 798.894 621.142 798.894 612.949L798.894 601.677Z" fill="#185090" fill-rule="evenodd" opacity="1" stroke="none"/>
<path d="M447.685 629.211C450.953 629.211 458.527 627.032 458.527 608.527C458.527 594.192 452.494 585.291 444.832 585.291C439.457 585.291 433.335 589.392 433.335 605.328C433.335 618.643 438.709 629.211 447.685 629.211M445.724 632.408C432.306 632.408 426.882 618.643 426.882 607.314C426.882 596.363 432.164 582.222 446.189 582.222C457.825 582.222 465.069 591.498 465.069 606.162C465.069 620.822 457.594 632.408 445.724 632.408" fill="#185090" fill-rule="evenodd" opacity="1" stroke="none"/>
<path d="M200.269 610.402C200.269 617.471 200.269 623.229 200 626.291C199.844 628.406 199.523 629.647 198.457 629.936C197.979 630.08 197.338 630.228 196.542 630.228C195.899 630.228 195.69 630.444 195.69 630.814C195.69 631.317 196.064 631.539 196.753 631.539C198.883 631.539 202.237 631.317 203.46 631.317C204.897 631.317 208.252 631.539 211.762 631.539C212.349 631.539 212.774 631.317 212.774 630.814C212.774 630.444 212.507 630.228 211.924 630.228C211.122 630.228 209.954 630.08 209.21 629.936C207.613 629.647 207.24 628.331 207.08 626.36C206.868 623.229 206.868 617.471 206.868 610.402L206.868 597.567C206.868 586.48 206.868 584.445 206.973 582.107C207.08 579.556 207.504 578.319 208.942 577.954C209.581 577.807 210.006 577.735 210.538 577.735C211.072 577.735 211.389 577.592 211.389 577.002C211.389 576.567 210.968 576.419 210.273 576.419C208.252 576.419 205.111 576.642 203.781 576.642C202.237 576.642 198.883 576.419 196.861 576.419C196.014 576.419 195.584 576.567 195.584 577.002C195.584 577.592 195.899 577.735 196.433 577.735C197.074 577.735 197.766 577.807 198.351 578.028C199.523 578.388 200.054 579.63 200.161 582.107C200.269 584.445 200.269 586.48 200.269 597.567L200.269 610.402Z" fill="#185090" fill-rule="evenodd" opacity="1" stroke="none"/>
<path d="M228.812 595.914L228.954 595.914C229.793 597.137 234.983 605.138 240.072 612.057C244.937 618.643 250.918 627.032 253.862 630.871C254.378 631.574 254.94 632.284 255.452 632.284C255.874 632.284 256.059 631.703 256.059 630.295L256.573 589.896C256.622 586.317 256.994 584.967 258.302 584.457C258.864 584.269 259.235 584.269 259.705 584.269C260.265 584.269 260.547 584.073 260.547 583.69C260.547 583.173 260.077 583.113 259.47 583.113C257.18 583.113 255.403 583.303 254.89 583.303C253.907 583.303 251.663 583.113 249.236 583.113C248.536 583.113 248.021 583.173 248.021 583.69C248.021 584.073 248.208 584.269 248.768 584.269C249.423 584.269 250.542 584.269 251.245 584.65C252.369 585.291 252.79 586.509 252.833 590.414L253.302 619.157L253.07 619.157C252.275 618.129 245.964 608.911 242.79 604.56C235.962 595.275 228.86 584.838 228.297 584.008C227.504 582.856 227.08 582.022 226.57 582.022C226.102 582.022 225.96 582.917 225.96 584.196L225.541 622.103C225.493 627.668 225.306 629.532 224.091 630.04C223.436 630.295 222.596 630.361 221.99 630.361C221.523 630.361 221.238 630.49 221.238 630.871C221.238 631.451 221.661 631.51 222.271 631.51C224.7 631.51 226.894 631.317 227.317 631.317C228.206 631.317 230.075 631.51 233.11 631.51C233.768 631.51 234.185 631.381 234.185 630.871C234.185 630.49 233.907 630.361 233.391 630.361C232.643 630.361 231.757 630.295 230.962 629.914C230.029 629.461 229.418 627.796 229.324 622.808L228.812 595.914Z" fill="#185090" fill-rule="evenodd" opacity="1" stroke="none"/>
<path d="M279.82 612.949C279.82 618.834 279.82 623.897 279.582 626.581C279.443 628.441 279.164 629.849 278.229 630.102C277.808 630.237 277.25 630.361 276.548 630.361C275.988 630.361 275.801 630.555 275.801 630.871C275.801 631.317 276.126 631.51 276.734 631.51C278.603 631.51 281.545 631.317 282.622 631.317C283.931 631.317 286.876 631.51 289.96 631.51C290.475 631.51 290.849 631.317 290.849 630.871C290.849 630.555 290.616 630.361 290.102 630.361C289.398 630.361 288.371 630.237 287.715 630.102C286.314 629.849 286.035 628.441 285.895 626.647C285.659 623.897 285.659 618.834 285.659 612.949L285.659 586.698L291.548 586.891C295.708 587.015 296.972 588.812 297.063 590.478L297.114 591.18C297.157 592.141 297.249 592.46 297.626 592.46C297.906 592.46 297.999 592.077 298.048 591.433C298.048 589.769 298.185 585.352 298.185 584.008C298.185 583.053 298.137 582.662 297.812 582.662C297.438 582.662 296.316 583.303 293.324 583.303L274.816 583.303C273.274 583.303 271.498 583.173 270.145 582.983C268.979 582.856 268.507 582.222 268.134 582.222C267.855 582.222 267.716 582.603 267.574 583.434C267.48 583.942 266.595 589.769 266.595 590.799C266.595 591.498 266.685 591.819 267.014 591.819C267.292 591.819 267.434 591.56 267.528 591.052C267.621 590.539 267.855 589.769 268.321 588.812C269.024 587.403 270.145 587.081 272.855 586.955L279.82 586.698L279.82 612.949Z" fill="#185090" fill-rule="evenodd" opacity="1" stroke="none"/>
<path d="M309.898 612.949C309.898 618.834 309.898 623.897 309.662 626.581C309.475 628.441 309.241 629.849 308.306 630.102C307.882 630.237 307.324 630.361 306.624 630.361C306.068 630.361 305.88 630.555 305.88 630.871C305.88 631.317 306.206 631.51 306.811 631.51C308.68 631.51 311.625 631.317 312.697 631.317C315.456 631.317 321.18 631.703 328.234 631.703C330.013 631.703 330.432 631.703 330.761 630.04C330.992 628.763 331.366 624.407 331.366 622.935C331.366 622.294 331.366 621.785 330.992 621.785C330.666 621.785 330.574 622.035 330.479 622.738C330.15 625.363 329.59 626.715 328.376 627.486C327.161 628.243 322.61 628.243 321.396 628.243C316.624 628.243 315.878 627.286 315.786 622.872C315.74 621.012 315.786 615.121 315.786 612.949L315.786 607.889C315.786 607.503 315.83 607.251 316.064 607.251C317.186 607.251 324.406 607.314 325.292 607.441C327.023 607.696 327.677 608.658 327.908 609.936C328.049 610.77 328.049 611.6 328.095 612.242C328.095 612.562 328.189 612.819 328.517 612.819C328.936 612.819 328.936 612.115 328.936 611.6C328.936 611.152 329.03 608.595 329.127 607.314C329.266 604.045 329.497 603.024 329.497 602.639C329.497 602.254 329.359 602.12 329.172 602.12C328.936 602.12 328.754 602.447 328.425 602.96C328.005 603.601 327.303 603.791 326.178 603.92C325.106 604.045 317.142 604.045 316.111 604.045C315.83 604.045 315.786 603.791 315.786 603.345L315.786 587.143C315.786 586.698 315.878 586.509 316.111 586.509C317.049 586.509 324.545 586.633 325.34 586.762C327.677 587.143 328.139 587.911 328.469 589.066C328.702 589.832 328.754 590.921 328.754 591.369C328.754 591.943 328.844 592.272 329.172 592.272C329.497 592.272 329.59 591.885 329.638 591.56C329.733 590.799 329.823 587.978 329.874 587.339C330.013 584.395 330.244 583.63 330.244 583.173C330.244 582.856 330.198 582.603 329.964 582.603C329.733 582.603 329.451 582.794 329.216 582.856C328.844 582.983 328.095 583.113 327.209 583.244C326.319 583.303 314.428 583.303 312.933 583.303C311.625 583.303 308.68 583.113 306.206 583.113C305.503 583.113 305.175 583.244 305.175 583.69C305.175 584.138 305.453 584.269 305.97 584.269C306.624 584.269 307.418 584.326 307.793 584.457C309.337 584.908 309.712 585.93 309.804 588.105C309.898 590.155 309.898 591.943 309.898 601.677L309.898 612.949Z" fill="#185090" fill-rule="evenodd" opacity="1" stroke="none"/>
<path d="M345.615 612.949C345.615 618.834 345.615 623.897 345.377 626.581C345.191 628.441 344.96 629.849 344.026 630.102C343.608 630.237 343.046 630.361 342.345 630.361C341.783 630.361 341.597 630.555 341.597 630.871C341.597 631.317 341.921 631.51 342.531 631.51C344.4 631.51 347.342 631.317 348.231 631.317C348.932 631.317 352.392 631.51 355.105 631.51C355.71 631.51 356.036 631.317 356.036 630.871C356.036 630.555 355.85 630.361 355.478 630.361C354.914 630.361 353.885 630.237 353.184 630.102C351.781 629.849 351.504 628.441 351.363 626.581C351.129 623.897 351.129 618.834 351.129 612.88L351.129 611.984C351.129 611.6 351.27 611.472 351.504 611.472L355.569 611.6C355.897 611.6 356.176 611.671 356.41 612.057C357.017 613.006 359.167 617.362 361.037 620.883C363.657 625.814 365.431 628.822 367.438 630.295C368.659 631.189 369.823 631.51 372.442 631.51L376.881 631.51C377.443 631.51 377.772 631.381 377.772 630.871C377.772 630.555 377.583 630.361 377.21 630.361C376.835 630.361 376.414 630.295 375.901 630.171C375.199 629.98 373.282 629.532 370.665 625.814C367.91 621.845 364.683 616.147 360.521 608.982C365.246 603.728 366.693 599.375 366.693 594.631C366.693 590.347 364.823 587.081 363.515 585.858C360.993 583.498 357.86 583.113 354.914 583.113C353.469 583.113 349.914 583.303 348.325 583.303C347.342 583.303 344.4 583.113 341.921 583.113C341.224 583.113 340.893 583.244 340.893 583.69C340.893 584.138 341.173 584.269 341.688 584.269C342.345 584.269 343.137 584.326 343.508 584.457C345.055 584.908 345.428 585.93 345.521 588.105C345.615 590.155 345.615 591.943 345.615 601.677L345.615 612.949ZM351.129 587.271C351.129 586.762 351.225 586.509 351.55 586.376C352.017 586.187 352.857 586.121 354.029 586.121C356.784 586.121 361.18 588.746 361.18 597.837C361.18 603.089 359.825 606.028 358.42 607.441C357.579 608.272 356.974 608.527 355.105 608.527C353.935 608.527 352.53 608.339 351.55 607.889C351.225 607.696 351.129 607.441 351.129 606.739L351.129 587.271Z" fill="#185090" fill-rule="evenodd" opacity="1" stroke="none"/>
<path d="M405.871 632.197C409.287 632.197 413.344 631.696 415.479 630.559C416.388 630.066 416.602 629.709 416.866 628.498C417.401 626.08 418.044 619.89 418.044 619.03C418.044 618.466 417.932 617.964 417.56 617.964C417.135 617.964 417.029 618.254 416.866 619.387C416.654 620.666 415.958 622.73 415.052 624.086C412.917 627.359 410.034 628.071 405.284 628.071C398.131 628.071 388.469 619.672 388.469 602.736C388.469 595.831 389.483 589.066 393.38 584.303C395.73 581.456 398.77 579.892 403.418 579.892C408.323 579.892 412.493 581.812 414.253 584.303C415.586 586.151 416.28 588.644 416.333 590.851C416.333 591.843 416.439 592.415 416.866 592.415C417.346 592.415 417.455 591.843 417.507 590.777C417.617 589.351 417.56 585.439 417.668 583.09C417.77 580.603 417.932 579.748 417.932 579.175C417.932 578.747 417.721 578.388 417.135 578.319C415.532 578.109 413.824 577.464 411.796 577.111C409.341 576.683 407.365 576.4 404.053 576.4C396.103 576.4 391.035 579.246 387.186 583.942C382.063 590.209 380.941 598.599 380.941 603.442C380.941 610.347 382.33 618.321 387.562 624.444C392.422 630.066 398.56 632.197 405.871 632.197" fill="#185090" fill-rule="evenodd" opacity="1" stroke="none"/>
</g>
</g>
</svg>
