<svg stroke-miterlimit="10" style="fill-rule:nonzero;clip-rule:evenodd;stroke-linecap:round;stroke-linejoin:round" viewBox="0 0 1024 1024" xml:space="preserve" xmlns="http://www.w3.org/2000/svg" xmlns:vectornator="http://vectornator.io"><g vectornator:layerName="Untitled"><path d="M449.166 473.475c0-49.964 43.632-71.971 55.361-81.883 11.734 9.912 54.994 31.919 54.994 81.883 0 49.961-43.26 72.038-54.994 81.946-11.729-9.908-55.361-31.985-55.361-81.946" fill="#997c5d"/><path d="M512.695 470.212v-19.188c.075-9.813 6.399-15.796 13.356-15.789v-1.523h-42.803v1.523c6.921-.007 13.286 5.976 13.354 15.789V496.157c-.068 9.815-6.433 15.877-13.354 15.79v1.524h42.803v-1.524c-6.565.087-13.281-5.975-13.356-15.79v-25.945Z" fill="#fff" fill-rule="evenodd"/><path d="M504.51 395.901v4.044c10.537 8.901 47.83 28.659 47.83 73.532 0 44.871-37.293 64.695-47.83 73.593v4.04c-11.114-9.388-51.666-30.297-51.666-77.633 0-47.339 40.552-68.182 51.666-77.576m-44.272 77.576c0-42.043 34.388-60.562 44.265-68.903 9.87 8.341 43.944 26.86 43.944 68.903 0 42.05-34.074 60.622-43.944 68.964-9.877-8.342-44.265-26.914-44.265-68.964" fill="#fff" fill-rule="evenodd"/><path d="M821.433 626.675h.646l1.483 2.703h1.63l-1.644-2.817c.848-.057 1.549-.487 1.549-1.672 0-1.469-.977-1.951-2.642-1.951h-2.399v6.44h1.377v-2.703Zm0-1.092v-1.546h.963c.522 0 1.231.044 1.231.709 0 .707-.36.837-.977.837h-1.217Zm6.983.585c0-3.773-2.829-5.97-5.981-5.97-3.187 0-6.019 2.197-6.019 5.97 0 3.773 2.832 5.974 6.019 5.974 3.152 0 5.981-2.201 5.981-5.974m-1.723 0c0 2.748-1.955 4.596-4.258 4.596v-.015c-2.379.015-4.283-1.833-4.283-4.581s1.904-4.58 4.283-4.58c2.303 0 4.258 1.832 4.258 4.58M767.883 614.8c.232 0 .372.132.469.451l3.74 13.571c.232.77-.096 1.349-.42 1.473-.472.066-.657.195-.657.576 0 .446.558.446 1.403.51 3.74.129 7.15.129 8.838.129 1.721 0 2.146-.129 2.146-.639 0-.445-.233-.51-.604-.51a7.57 7.57 0 0 1-1.968-.259c-.979-.311-2.341-1.215-4.111-6.977-3.001-9.734-10.475-35.854-11.588-39.37-.469-1.476-.754-2.05-1.174-2.05-.47 0-.745.704-1.307 2.564l-11.733 40.201c-.93 3.198-1.82 5.379-3.967 5.767-.373.058-1.033.124-1.45.124-.374 0-.562.129-.562.51 0 .51.279.639.89.639 2.43 0 4.999-.193 5.511-.193 1.448 0 3.461.193 4.957.193.509 0 .788-.129.788-.639 0-.381-.137-.51-.699-.51h-.695c-1.452 0-1.87-.829-1.87-1.985 0-.77.231-2.302.698-3.906l2.523-9.158c.099-.38.188-.512.423-.512h10.419Zm-9.491-3.2c-.183 0-.23-.189-.183-.448l4.299-15.746c.043-.257.142-.581.282-.581.143 0 .188.324.235.581l4.209 15.81c.043.195 0 .384-.236.384h-8.606ZM481.551 595.914h.143c.838 1.223 6.026 9.224 11.12 16.143 4.858 6.586 10.845 14.975 13.789 18.814.512.703 1.076 1.413 1.588 1.413.417 0 .607-.581.607-1.989l.513-40.399c.05-3.579.424-4.929 1.731-5.439.561-.188.937-.188 1.403-.188.558 0 .84-.196.84-.579 0-.517-.467-.577-1.072-.577-2.297 0-4.072.19-4.583.19-.982 0-3.226-.19-5.654-.19-.7 0-1.217.06-1.217.577 0 .383.188.579.75.579.653 0 1.774 0 2.474.381 1.125.641 1.543 1.859 1.591 5.764l.468 28.743h-.231c-.801-1.028-7.108-10.246-10.283-14.597-6.826-9.285-13.93-19.722-14.492-20.552-.793-1.152-1.216-1.986-1.727-1.986-.471 0-.609.895-.609 2.174l-.419 37.907c-.048 5.565-.235 7.429-1.449 7.937-.655.255-1.498.321-2.106.321-.467 0-.748.129-.748.51 0 .58.423.639 1.033.639 2.429 0 4.622-.193 5.042-.193.891 0 2.759.193 5.796.193.655 0 1.076-.129 1.076-.639 0-.381-.278-.51-.795-.51-.747 0-1.633-.066-2.429-.447-.933-.453-1.545-2.118-1.637-7.106l-.513-26.894ZM533.029 612.949c0 5.885 0 10.948-.236 13.632-.138 1.86-.421 3.268-1.359 3.521a5.42 5.42 0 0 1-1.684.259c-.558 0-.747.194-.747.51 0 .446.328.639.94.639 1.867 0 4.809-.193 5.885-.193 1.308 0 4.253.193 7.337.193.519 0 .891-.193.891-.639 0-.316-.237-.51-.749-.51-.702 0-1.729-.124-2.383-.259-1.403-.253-1.681-1.661-1.821-3.455-.239-2.75-.239-7.813-.239-13.698v-26.251l5.895.193c4.158.124 5.421 1.921 5.515 3.587l.044.702c.05.961.142 1.28.509 1.28.287 0 .38-.383.423-1.027 0-1.664.143-6.081.143-7.425 0-.955-.046-1.346-.377-1.346-.37 0-1.492.641-4.486.641h-18.505c-1.543 0-3.319-.13-4.676-.32-1.168-.127-1.634-.761-2.009-.761-.281 0-.421.381-.561 1.212-.091.508-.982 6.335-.982 7.365 0 .699.094 1.02.425 1.02.277 0 .416-.259.507-.767.097-.513.33-1.283.798-2.24.705-1.409 1.822-1.731 4.531-1.857l6.971-.257v26.251ZM565.321 612.949c0 6.208 0 11.267-.237 13.956-.142 1.858-.416 2.944-1.353 3.197a5.443 5.443 0 0 1-1.682.259c-.564 0-.749.194-.749.51 0 .446.326.639.932.639 1.875 0 4.82-.193 5.893-.193 1.262 0 4.206.193 7.286.193.514 0 .891-.193.891-.639 0-.316-.233-.51-.752-.51-.7 0-1.722-.124-2.381-.259-1.407-.253-1.727-1.408-1.867-3.132-.188-2.754-.188-7.813-.188-14.021v-11.272c0-9.734 0-11.522.097-13.572.091-2.247.463-3.327 1.725-3.648.563-.131.935-.188 1.406-.188.463 0 .747-.131.747-.639 0-.386-.379-.517-.984-.517-1.774 0-4.531.19-5.701.19-1.352 0-4.297-.19-6.078-.19-.741 0-1.116.131-1.116.517 0 .508.275.639.747.639.56 0 1.167.057 1.679.256 1.032.313 1.499 1.405 1.585 3.58.1 2.05.1 3.838.1 13.572v11.272ZM591.992 595.914h.142c.838 1.223 6.027 9.224 11.119 16.143 4.864 6.586 10.846 14.975 13.791 18.814.518.703 1.075 1.413 1.593 1.413.416 0 .604-.581.604-1.989l.518-40.399c.044-3.579.416-4.929 1.727-5.439.557-.188.93-.188 1.398-.188.563 0 .843-.196.843-.579 0-.517-.469-.577-1.075-.577-2.289 0-4.067.19-4.582.19-.98 0-3.221-.19-5.653-.19-.703 0-1.217.06-1.217.577 0 .383.188.579.746.579.66 0 1.776 0 2.482.381 1.123.641 1.539 1.859 1.592 5.764l.456 28.743h-.233c-.788-1.028-7.093-10.246-10.276-14.597-6.818-9.285-13.926-19.722-14.489-20.552-.793-1.152-1.217-1.986-1.733-1.986-.461 0-.605.895-.605 2.174l-.419 37.907c-.05 5.565-.233 7.429-1.45 7.937-.652.255-1.497.321-2.102.321-.471 0-.747.129-.747.51 0 .58.419.639 1.03.639 2.431 0 4.621-.193 5.046-.193.881 0 2.758.193 5.791.193.654 0 1.079-.129 1.079-.639 0-.381-.285-.51-.792-.51-.748 0-1.639-.066-2.439-.447-.925-.453-1.539-2.118-1.63-7.106l-.515-26.894ZM637.284 612.949c0 5.885 0 10.948-.234 13.632-.189 1.86-.425 3.268-1.359 3.521a5.43 5.43 0 0 1-1.683.259c-.561 0-.741.194-.741.51 0 .446.318.639.926.639 1.872 0 4.817-.193 5.892-.193 2.756 0 8.48.386 15.535.386 1.78 0 2.201 0 2.52-1.663.236-1.277.611-5.633.611-7.105 0-.641 0-1.15-.375-1.15-.324 0-.416.25-.511.953-.333 2.625-.889 3.977-2.104 4.748-1.218.757-5.771.757-6.985.757-4.768 0-5.515-.957-5.606-5.371-.042-1.86 0-7.751 0-9.923v-5.06c0-.386.044-.638.275-.638 1.123 0 8.346.063 9.23.19 1.727.255 2.383 1.217 2.615 2.495.145.834.145 1.664.188 2.306 0 .32.097.577.425.577.421 0 .421-.704.421-1.219 0-.448.09-3.005.189-4.286.137-3.269.373-4.29.373-4.675 0-.385-.143-.519-.331-.519-.231 0-.419.327-.747.84-.429.641-1.124.831-2.24.96-1.078.125-9.046.125-10.068.125-.286 0-.33-.254-.33-.7v-16.202c0-.445.091-.634.33-.634.936 0 8.43.124 9.226.253 2.332.381 2.797 1.149 3.125 2.304.241.766.285 1.855.285 2.303 0 .574.09.903.419.903.331 0 .421-.387.463-.712.098-.761.195-3.582.238-4.221.144-2.944.376-3.709.376-4.166 0-.317-.043-.57-.279-.57-.237 0-.523.191-.754.253-.373.127-1.121.257-2.009.388-.884.059-12.771.059-14.273.059-1.307 0-4.252-.19-6.732-.19-.693 0-1.028.131-1.028.577 0 .448.283.579.799.579.652 0 1.452.057 1.824.188 1.538.451 1.915 1.473 2.011 3.648.093 2.05.093 3.838.093 13.572v11.272ZM675.91 595.914h.144c.838 1.223 6.026 9.224 11.124 16.143 4.858 6.586 10.84 14.975 13.787 18.814.506.703 1.073 1.413 1.583 1.413.426 0 .613-.581.613-1.989l.506-40.399c.052-3.579.419-4.929 1.736-5.439.562-.188.934-.188 1.398-.188.559 0 .846-.196.846-.579 0-.517-.471-.577-1.08-.577-2.284 0-4.063.19-4.579.19-.979 0-3.223-.19-5.651-.19-.704 0-1.22.06-1.22.577 0 .383.193.579.754.579.652 0 1.774 0 2.476.381 1.118.641 1.541 1.859 1.586 5.764l.47 28.743h-.239c-.795-1.028-7.104-10.246-10.279-14.597-6.826-9.285-13.93-19.722-14.492-20.552-.789-1.152-1.215-1.986-1.725-1.986-.468 0-.611.895-.611 2.174l-.42 37.907c-.046 5.565-.234 7.429-1.451 7.937-.649.255-1.498.321-2.101.321-.469 0-.748.129-.748.51 0 .58.423.639 1.034.639 2.428 0 4.622-.193 5.045-.193.891 0 2.751.193 5.796.193.649 0 1.073-.129 1.073-.639 0-.381-.279-.51-.799-.51-.745 0-1.63-.066-2.427-.447-.935-.453-1.542-2.118-1.638-7.106l-.511-26.894ZM726.918 612.949c0 5.885 0 10.948-.235 13.632-.138 1.86-.424 3.268-1.349 3.521a5.513 5.513 0 0 1-1.689.259c-.561 0-.75.194-.75.51 0 .446.334.639.938.639 1.868 0 4.809-.193 5.889-.193 1.309 0 4.251.193 7.34.193.511 0 .885-.193.885-.639 0-.316-.233-.51-.75-.51-.694 0-1.727-.124-2.384-.259-1.396-.253-1.684-1.661-1.819-3.455-.236-2.75-.236-7.813-.236-13.698v-26.251l5.89.193c4.159.124 5.419 1.921 5.517 3.587l.044.702c.046.961.144 1.28.513 1.28.28 0 .377-.383.421-1.027 0-1.664.135-6.081.135-7.425 0-.955-.042-1.346-.369-1.346-.374 0-1.491.641-4.482.641h-18.509c-1.541 0-3.322-.13-4.682-.32-1.163-.127-1.63-.761-2.001-.761-.286 0-.421.381-.563 1.212-.098.508-.977 6.335-.977 7.365 0 .699.088 1.02.416 1.02.286 0 .421-.259.51-.767.096-.513.328-1.283.792-2.24.704-1.409 1.823-1.731 4.535-1.857l6.97-.257v26.251ZM798.894 601.677c0-9.734 0-11.522.092-13.572.096-2.247.469-3.327 1.73-3.648.555-.131 1.302-.188 1.82-.188.568 0 .844-.131.844-.579 0-.446-.328-.577-.98-.577-1.826 0-5.232.19-6.355.19-1.264 0-4.206-.19-6.406-.19-.702 0-1.025.131-1.025.577 0 .448.28.579.791.579.604 0 1.17.057 1.542.188 1.542.451 1.914 1.473 2.009 3.648.094 2.05.094 3.838.094 13.572v11.272c0 5.885 0 10.948-.232 13.632-.189 1.86-.421 3.268-1.351 3.521-.42.135-.985.259-1.693.259-.55 0-.74.194-.74.51 0 .446.323.639.928.639 1.877 0 4.819-.193 5.898-.193 3.777 0 6.862.386 13.596.386 2.428 0 2.662-.322 2.947-1.723.373-1.857.701-6.667.701-7.37 0-.765-.051-1.081-.372-1.081-.381 0-.468.374-.523.955-.091 1.216-.649 3.006-1.211 3.843-1.166 1.729-2.993 1.796-5.466 1.796-3.647 0-4.865-.455-5.659-1.408-.979-1.154-.979-5.573-.979-13.766v-11.272ZM447.685 629.211c3.268 0 10.842-2.179 10.842-20.684 0-14.335-6.033-23.236-13.695-23.236-5.375 0-11.497 4.101-11.497 20.037 0 13.315 5.374 23.883 14.35 23.883m-1.961 3.197c-13.418 0-18.842-13.765-18.842-25.094 0-10.951 5.282-25.092 19.307-25.092 11.636 0 18.88 9.276 18.88 23.94 0 14.66-7.475 26.246-19.345 26.246M200.269 610.402c0 7.069 0 12.827-.269 15.889-.156 2.115-.477 3.356-1.543 3.645a6.526 6.526 0 0 1-1.915.292c-.643 0-.852.216-.852.586 0 .503.374.725 1.063.725 2.13 0 5.484-.222 6.707-.222 1.437 0 4.792.222 8.302.222.587 0 1.012-.222 1.012-.725 0-.37-.267-.586-.85-.586-.802 0-1.97-.148-2.714-.292-1.597-.289-1.97-1.605-2.13-3.576-.212-3.131-.212-8.889-.212-15.958v-12.835c0-11.087 0-13.122.105-15.46.107-2.551.531-3.788 1.969-4.153.639-.147 1.064-.219 1.596-.219.534 0 .851-.143.851-.733 0-.435-.421-.583-1.116-.583-2.021 0-5.162.223-6.492.223-1.544 0-4.898-.223-6.92-.223-.847 0-1.277.148-1.277.583 0 .59.315.733.849.733.641 0 1.333.072 1.918.293 1.172.36 1.703 1.602 1.81 4.079.108 2.338.108 4.373.108 15.46v12.835ZM228.812 595.914h.142c.839 1.223 6.029 9.224 11.118 16.143 4.865 6.586 10.846 14.975 13.79 18.814.516.703 1.078 1.413 1.59 1.413.422 0 .607-.581.607-1.989l.514-40.399c.049-3.579.421-4.929 1.729-5.439.562-.188.933-.188 1.403-.188.56 0 .842-.196.842-.579 0-.517-.47-.577-1.077-.577-2.29 0-4.067.19-4.58.19-.983 0-3.227-.19-5.654-.19-.7 0-1.215.06-1.215.577 0 .383.187.579.747.579.655 0 1.774 0 2.477.381 1.124.641 1.545 1.859 1.588 5.764l.469 28.743h-.232c-.795-1.028-7.106-10.246-10.28-14.597-6.828-9.285-13.93-19.722-14.493-20.552-.793-1.152-1.217-1.986-1.727-1.986-.468 0-.61.895-.61 2.174l-.419 37.907c-.048 5.565-.235 7.429-1.45 7.937-.655.255-1.495.321-2.101.321-.467 0-.752.129-.752.51 0 .58.423.639 1.033.639 2.429 0 4.623-.193 5.046-.193.889 0 2.758.193 5.793.193.658 0 1.075-.129 1.075-.639 0-.381-.278-.51-.794-.51-.748 0-1.634-.066-2.429-.447-.933-.453-1.544-2.118-1.638-7.106l-.512-26.894ZM279.82 612.949c0 5.885 0 10.948-.238 13.632-.139 1.86-.418 3.268-1.353 3.521a5.436 5.436 0 0 1-1.681.259c-.56 0-.747.194-.747.51 0 .446.325.639.933.639 1.869 0 4.811-.193 5.888-.193 1.309 0 4.254.193 7.338.193.515 0 .889-.193.889-.639 0-.316-.233-.51-.747-.51-.704 0-1.731-.124-2.387-.259-1.401-.253-1.68-1.661-1.82-3.455-.236-2.75-.236-7.813-.236-13.698v-26.251l5.889.193c4.16.124 5.424 1.921 5.515 3.587l.051.702c.043.961.135 1.28.512 1.28.28 0 .373-.383.422-1.027 0-1.664.137-6.081.137-7.425 0-.955-.048-1.346-.373-1.346-.374 0-1.496.641-4.488.641h-18.508c-1.542 0-3.318-.13-4.671-.32-1.166-.127-1.638-.761-2.011-.761-.279 0-.418.381-.56 1.212-.094.508-.979 6.335-.979 7.365 0 .699.09 1.02.419 1.02.278 0 .42-.259.514-.767.093-.513.327-1.283.793-2.24.703-1.409 1.824-1.731 4.534-1.857l6.965-.257v26.251ZM309.898 612.949c0 5.885 0 10.948-.236 13.632-.187 1.86-.421 3.268-1.356 3.521a5.469 5.469 0 0 1-1.682.259c-.556 0-.744.194-.744.51 0 .446.326.639.931.639 1.869 0 4.814-.193 5.886-.193 2.759 0 8.483.386 15.537.386 1.779 0 2.198 0 2.527-1.663.231-1.277.605-5.633.605-7.105 0-.641 0-1.15-.374-1.15-.326 0-.418.25-.513.953-.329 2.625-.889 3.977-2.103 4.748-1.215.757-5.766.757-6.98.757-4.772 0-5.518-.957-5.61-5.371-.046-1.86 0-7.751 0-9.923v-5.06c0-.386.044-.638.278-.638 1.122 0 8.342.063 9.228.19 1.731.255 2.385 1.217 2.616 2.495.141.834.141 1.664.187 2.306 0 .32.094.577.422.577.419 0 .419-.704.419-1.219 0-.448.094-3.005.191-4.286.139-3.269.37-4.29.37-4.675 0-.385-.138-.519-.325-.519-.236 0-.418.327-.747.84-.42.641-1.122.831-2.247.96-1.072.125-9.036.125-10.067.125-.281 0-.325-.254-.325-.7v-16.202c0-.445.092-.634.325-.634.938 0 8.434.124 9.229.253 2.337.381 2.799 1.149 3.129 2.304.233.766.285 1.855.285 2.303 0 .574.09.903.418.903.325 0 .418-.387.466-.712.095-.761.185-3.582.236-4.221.139-2.944.37-3.709.37-4.166 0-.317-.046-.57-.28-.57-.231 0-.513.191-.748.253-.372.127-1.121.257-2.007.388-.89.059-12.781.059-14.276.059-1.308 0-4.253-.19-6.727-.19-.703 0-1.031.131-1.031.577 0 .448.278.579.795.579.654 0 1.448.057 1.823.188 1.544.451 1.919 1.473 2.011 3.648.094 2.05.094 3.838.094 13.572v11.272ZM345.615 612.949c0 5.885 0 10.948-.238 13.632-.186 1.86-.417 3.268-1.351 3.521-.418.135-.98.259-1.681.259-.562 0-.748.194-.748.51 0 .446.324.639.934.639 1.869 0 4.811-.193 5.7-.193.701 0 4.161.193 6.874.193.605 0 .931-.193.931-.639 0-.316-.186-.51-.558-.51-.564 0-1.593-.124-2.294-.259-1.403-.253-1.68-1.661-1.821-3.521-.234-2.684-.234-7.747-.234-13.701v-.896c0-.384.141-.512.375-.512l4.065.128c.328 0 .607.071.841.457.607.949 2.757 5.305 4.627 8.826 2.62 4.931 4.394 7.939 6.401 9.412 1.221.894 2.385 1.215 5.004 1.215h4.439c.562 0 .891-.129.891-.639 0-.316-.189-.51-.562-.51-.375 0-.796-.066-1.309-.19-.702-.191-2.619-.639-5.236-4.357-2.755-3.969-5.982-9.667-10.144-16.832 4.725-5.254 6.172-9.607 6.172-14.351 0-4.284-1.87-7.55-3.178-8.773-2.522-2.36-5.655-2.745-8.601-2.745-1.445 0-5 .19-6.589.19-.983 0-3.925-.19-6.404-.19-.697 0-1.028.131-1.028.577 0 .448.28.579.795.579.657 0 1.449.057 1.82.188 1.547.451 1.92 1.473 2.013 3.648.094 2.05.094 3.838.094 13.572v11.272Zm5.514-25.678c0-.509.096-.762.421-.895.467-.189 1.307-.255 2.479-.255 2.755 0 7.151 2.625 7.151 11.716 0 5.252-1.355 8.191-2.76 9.604-.841.831-1.446 1.086-3.315 1.086-1.17 0-2.575-.188-3.555-.638-.325-.193-.421-.448-.421-1.15v-19.468ZM405.871 632.197c3.416 0 7.473-.501 9.608-1.638.909-.493 1.123-.85 1.387-2.061.535-2.418 1.178-8.608 1.178-9.468 0-.564-.112-1.066-.484-1.066-.425 0-.531.29-.694 1.423-.212 1.279-.908 3.343-1.814 4.699-2.135 3.273-5.018 3.985-9.768 3.985-7.153 0-16.815-8.399-16.815-25.335 0-6.905 1.014-13.67 4.911-18.433 2.35-2.847 5.39-4.411 10.038-4.411 4.905 0 9.075 1.92 10.835 4.411 1.333 1.848 2.027 4.341 2.08 6.548 0 .992.106 1.564.533 1.564.48 0 .589-.572.641-1.638.11-1.426.053-5.338.161-7.687.102-2.487.264-3.342.264-3.915 0-.428-.211-.787-.797-.856-1.603-.21-3.311-.855-5.339-1.208-2.455-.428-4.431-.711-7.743-.711-7.95 0-13.018 2.846-16.867 7.542-5.123 6.267-6.245 14.657-6.245 19.5 0 6.905 1.389 14.879 6.621 21.002 4.86 5.622 10.998 7.753 18.309 7.753" fill="#185090" fill-rule="evenodd"/></g></svg>