<svg viewBox="0 0 24 24" xmlns="http://www.w3.org/2000/svg"><path d="M11.921 15.647c0 .034.03.062.068.062h1.6c.038 0 .068-.028.068-.062V8.492c0-.034-.03-.062-.067-.062h-1.601c-.038 0-.068.028-.068.062v7.155Zm-11.772 0c0 .034.03.062.067.062h1.602c.037 0 .067-.028.067-.062v-4.505c0-.034-.03-.061-.067-.061H.216c-.037 0-.067.027-.067.061v4.505ZM7.14 14.14c-1.16.21-2.278-.58-2.492-1.76-.214-1.18.556-2.311 1.716-2.52 1.16-.21 2.277.58 2.491 1.76.214 1.18-.555 2.311-1.715 2.52m3.724.339-.792-.634a.088.088 0 0 1-.023-.109c.38-.71.53-1.547.376-2.399-.366-2.017-2.307-3.356-4.336-2.99-2.028.366-3.376 2.298-3.01 4.316.366 2.017 2.307 3.356 4.335 2.99a3.733 3.733 0 0 0 1.512-.636.088.088 0 0 1 .107.002l.85.68a.068.068 0 0 0 .095-.012l.896-1.113a.067.067 0 0 0-.01-.095m13.069-6.05H22.33c-.037 0-.067.029-.067.063v7.155c0 .034.03.062.067.062h1.602c.037 0 .067-.028.067-.062V8.492c0-.034-.03-.062-.067-.062M1.017 8.287C.455 8.287 0 8.741 0 9.301s.455 1.015 1.017 1.015a1.016 1.016 0 1 0 0-2.028m20.4.142H19.71a.081.081 0 0 0-.07.039l-1.585 2.811s-.012.021-.028.022C18.012 11.3 18 11.28 18 11.28L16.415 8.47a.081.081 0 0 0-.07-.04h-1.707c-.045 0-.098.048-.06.118l2.536 4.256a.267.267 0 0 1 .037.135v2.696c0 .041.033.075.074.075h1.605a.074.074 0 0 0 .074-.075v-2.696c0-.047.013-.094.037-.135l2.536-4.256c.038-.07-.015-.117-.06-.117" fill="#00dc5a"/></svg>