<?xml version="1.0" encoding="UTF-8"?><svg xmlns="http://www.w3.org/2000/svg" viewBox="0 0 453.81 56.6"><defs><style>.d{fill:#e50012;}</style></defs><g id="a"/><g id="b"><g id="c"><g><polygon class="d" points="341.7 34.06 332.55 46.35 342.42 46.35 351.47 34.09 341.7 34.06"/><polygon class="d" points="374.74 34.09 366.63 34.09 371.16 46.35 379.34 46.35 374.74 34.09"/><polygon class="d" points="305.01 37.96 296.9 37.96 300.13 46.35 308.31 46.35 305.01 37.96"/><path class="d" d="M244.68,19.67h-8.68l5.41-11.25h-8.69l-6.81,14.17c-.57,1.18,.65,2.81,2.1,2.81h5.23l-4.36,9.07-9.86-14.22,1.86-13.46h20.9l2.15-4.18c.55-1.07-.56-2.58-1.89-2.58h-30.08l-.82,6.76h1.38l-6.84,49.54h8.36l3.49-25.27,7.67,11.09-2.98,6.21h-4.21l-1.14,7.97h10.21l3.25-6.77,4.68,6.76h9.05l-10.03-14.46,10.68-22.2Z"/><path class="d" d="M290.74,37.79h-8.36l-1.06,12.08c-.13,1.52,.51,3.13,1.75,4.41,1.18,1.22,2.71,1.94,4.23,2.01h23.46l.84-2.17-7.62-.02,1.12-1.12,6.93,.02,.66-1.71-6.51-.02,1.12-1.12,5.82,.02,.71-1.83h-23.95l.85-10.53Z"/><polygon class="d" points="183.64 17.93 180.57 53.8 186.25 53.8 189.32 17.93 183.64 17.93"/><path class="d" d="M203.91,17.93h-4.66l.36-4.21h6.43l1.4-6.76h-7.25l.59-6.92h-8.36l-.59,6.92h-7.4l-.58,6.76h7.4l-3.65,42.62h8.36l2.73-31.88h1.68l-2.51,29.35h5.67l2.85-33.3c.11-1.27-1.14-2.57-2.48-2.57"/><path class="d" d="M298.28,14.93l3.7-7.76c1.12-2.34-1.3-5.57-4.17-5.57h-29.12l.75-1.56h-8.69l-6.07,12.63h8.69l2.04-4.25h27.28l-3.11,6.5h-30.38c-3.17,0-5.5,2.05-5.76,5.07l-1.38,16.08h17.12l-19.23,20.21h12.54l19.14-20.21h22.33c3.61,0,6.27-2.34,6.56-5.78l1.32-15.38h-13.58Zm-36.7,7.75h16.06l-.53,5.66h-16.01l.49-5.66Zm40.77,5.66h-16.8l.47-5.66h16.81l-.49,5.66Z"/><path class="d" d="M376.58,13.59h-13.19l.27-3.22h17.49l2.73-6.82h-19.64l.3-3.51h-7.8l-.3,3.51h-19.22l-.59,6.82h19.23l-.27,3.22h-13.78c-3.17,0-5.5,2.06-5.76,5.08l-1.11,13.65h19.05l-1.2,14.03h7.8l1.2-14.03h11.65c3.61,0,6.27-2.34,6.56-5.78l1.04-12.94h-4.46Zm-32.61,10.98l.28-3.24h10.68l-.28,3.24h-10.68Zm28.4,0h-9.92l.28-3.24h9.89l-.24,3.24Z"/><path class="d" d="M332.4,12.92h-8.36l-3.11,36.32c-.3,3.5,3.14,7.06,6.81,7.06h53.08l3-7.47h-54.49l3.07-35.91Z"/><polygon class="d" points="333.35 1.71 324.99 1.71 324.25 10.37 332.61 10.37 333.35 1.71"/><path class="d" d="M402.39,12.92h-8.36l-3.11,36.32c-.3,3.5,3.14,7.06,6.81,7.06h53.08l3-7.47h-54.49l3.07-35.91Z"/><polygon class="d" points="403.44 .83 395.08 .83 394.34 9.49 402.7 9.49 403.44 .83"/><path class="d" d="M448.87,22.05l1.52-18.12h-8.59l1.9-3.92h-8.36l-1.9,3.92h-9.32l-1.35-3.92h-8.36l1.35,3.92h-7.73l-.59,6.82h18.04l-.3,3.52-12.64-.02c-3.18,0-5.52,2.05-5.77,5.08l-1.2,14.02h17.98l-1.11,13h7.8l1.11-13h9.77l-.39,4.75h-6.2l-2.05,7.09h9.4c3.61,0,6.27-2.34,6.57-5.78l1.15-13.8h-17.58l.3-3.56h16.55Zm-24.66,3.56h-9.62l.3-3.56h9.62l-.3,3.56Zm8.77-11.32l.3-3.53h8.79l-.3,3.55h-8.8Z"/><polygon class="d" points="411.37 35.16 403.05 46.35 412.93 46.35 421.17 35.16 411.37 35.16"/><polygon class="d" points="56.17 .3 39.98 .3 29.84 45.12 5.89 45.12 2.84 51.05 1.31 54 0 56.38 43.42 56.36 54.44 7.98 54.42 7.98 56.17 .3"/><polygon class="d" points="146.94 11.12 149.02 9.05 165.57 9.05 166.74 7.88 166.74 7.88 168.58 6.04 152.22 6.04 154.32 3.96 170.65 3.96 174.35 .27 108.78 .3 100.45 15.6 125.1 15.6 116.7 49.11 116.68 49.11 115.01 56.36 130.8 56.36 140.93 15.6 158.98 15.6 163.48 11.12 146.94 11.12"/><path class="d" d="M101.12,44.52s5.01-6.94,6.03-15.67l-11.17-3.21s-1.54,8.73-2.95,8.99c0,0-10.28-7.82-14.15-14.43-.62-.89-1.07-1.92-1.29-3.03-.07-.31-.13-.63-.15-.93-.02-.26-.01-.52,.02-.78,.11-4.28,3.59-7.71,7.9-7.71,3.57,0,7.09,1.65,6.84,4.91,.06,.08-.21,2.96-.15,3.05L100.51,.28h-36.07s.02,.05-1.55,6.94c0,0-1.71,7.75,5.61,15.97,0,0-21.79,13.53-9.54,27.9,0,0,6.15,5.73,18.37,5.49,0,0,8.13,0,15.7-3.6l3.11,3.35h14.66l-9.68-11.83Zm-30.44-.26c-5.78-6.29,4.75-11.56,5.4-12.33l10.34,12.33s-9.96,6.3-15.73,0"/></g></g></g></svg>