<?xml version="1.0" encoding="utf-8"?>
<!-- Generator: Adobe Illustrator 24.2.1, SVG Export Plug-In . SVG Version: 6.00 Build 0)  -->
<svg version="1.1" id="Layer_1" xmlns="http://www.w3.org/2000/svg" xmlns:xlink="http://www.w3.org/1999/xlink" x="0px" y="0px"
	 viewBox="0 0 595.4 299.5" style="enable-background:new 0 0 595.4 299.5;" xml:space="preserve">
<style type="text/css">
	.st0{fill:#231F20;}
</style>
<path class="st0" d="M550,74.2c6.6-3.4,12.4-8.9,15.5-15.8c2.9-6.1,1.5-12.4-3.9-14c-4.2-1.2-9.9,0.8-12.1,5.5
	c-2.5,5.5-1.5,11.5,3.3,13.2c-1.3,1.6-4.5,4.1-6.2,5.3c-2.2,1.6-3.2,3.7-2.2,5.4C545.9,75.9,548.2,75.1,550,74.2"/>
<path class="st0" d="M539.5,199.5c0.1-2-2-3.7-5.9-3.8c-99.9-3.5-264.2-9.7-422.3,32c-5.8,1.4-9.7,3.1-9.8,5.8
	c-0.1,2.8,1.7,5.1,6.6,6.4c8.7,2.3,17.7,3.8,22.7,4.3c3.8,0.5,8.6,0.6,13.3,0c5.9-0.8,12.5-2.8,16.7-4.2
	c107.9-36,242.5-39.2,372.1-37.1C537.4,202.9,539.4,201.2,539.5,199.5"/>
<path class="st0" d="M255,66.8c-1.4,5.2,1.9,10.7,8.5,10.9c6.3,0.2,10.1-3.6,11.2-8.1c1.4-5.9-2.2-11.2-8.5-11.1
	C260.8,58.8,256.5,61.4,255,66.8"/>
<path class="st0" d="M587.6,100.6c-1.8-4.3-3.1-8.8-2.1-12.1c1.1-3.5,3.6-4.1,5.3-9.3c1.4-4.2,0.7-9.5-4.4-9.6
	c-5.7-0.2-8.4,4.2-11,11.8c-9.3,17.2-35.2,38.9-43.2,45.3c-7.7,6.1-8.9,8.2-6.7,11.2c2.1,2.9,6.1,2.4,14.4-4
	c10.4-8,28.9-25.9,36.4-36.7c0.6,11.3,5.2,21.8,2.1,37.8c-1.4,7.2-5,16.6-13.6,20.4c-6.2,2.8-15,0.7-17.6-5.6
	c5.1-1.2,7.5-4.1,7.6-9.3c0.1-4.8-2.6-8.3-7.2-9c-3.3-0.4-7.6,0.6-9.8,4.2c-1.9,3.1-2.8,7.5-1.7,12.4c2.5,11.6,13.4,16.8,24.5,17.2
	c14,0.5,29.3-8.3,33.4-23.6C598,127.1,592.4,112.2,587.6,100.6"/>
<path class="st0" d="M493.3,103.9C511.5,84.7,530,62.5,535,42.5c3.5-13.7,0.5-23.2-12.6-22.8c-30.5,1-74.7,53.1-80,104.3
	c-0.5,4.6-0.4,9.2,0.1,13.7c-8.6,8.3-15.8,13.9-25.4,19.1c-4.4,2.4-8.7,3.3-11.4,0.5c-1.8-1.9-2.1-6.1-0.1-10.9
	c3.9-9.2,10.5-17.4,16.5-27.8c4-6.8,4.9-14.9,3.2-19.7c-1.8-4.9-7.2-8.2-13.4-8.2c-10.2,0-20.6,5.4-28.7,11.2
	c0,0,35.9-60.6,39.8-67.3c3.4-5.8,0.6-7.3-3.6-7.3H410c-2.9,0-4.4,1.4-6.6,5.2c-27.2,46.9-44.5,76.8-55.7,96.1
	c-2.3,2.5-5,5.4-8.3,8.9c-12.6,12.8-29,26.2-41.2,27.8c-6.1,0.8-11-1.6-14-6.1c16.9-9.7,35.5-21.2,43.7-35.9
	c4.4-7.7,6.4-12.8,4.9-20.3c-1.4-7.1-6.7-10.2-14-10.9c-11.3-1-24.8,3.3-35.3,13.3c-10.3,9.8-15.7,19.6-18.4,29.6
	c-2.2,8-1.9,17.4,1.1,25.2c-6.2,3.4-12.9,6.1-18,7.7c-13.7,4.4-20-6.1-12.3-23.3c3.5-7.7,16.3-32.6,22.7-42.5
	c2.1-3.2,1.3-5.8-2.7-5.7c-3.2,0.1-9.3,0.3-11.9,0.5c-2.9,0.2-4.5,1-6,3.4c-5.2,8-16.3,33.6-24,46.1c-5.2,8.4-10.2,15.4-17.4,21.1
	c-7.5,6-15.5,3.5-16.7-4.6c-1.4-10,2.4-23.2,2.5-33c0.1-14.8-3-24.4-9.3-31.9c49.1-18,77.3-68.5,105.9-82c1.7-0.8,3.5-1.5,5.3-2.1
	c8.4-2.8,16.6-2.9,18.6,3.1c2.3,6.9-5.7,15.3-14.7,18.3c-7.7,2.6-11.3,5.1-10.6,7.4c0.8,2.6,4.5,2.5,10.4,1.8
	c14.3-1.9,29-15.3,25.9-30.5c-2-9.7-11.4-14.8-24.3-14.1c-2.8,0.1-5.6,0.6-8.3,1.2c-36.9,8.8-67.3,60-100.2,82.8
	c-5.6,3.9-9.1,5.8-14,7.9c-5.4-4.5-12-7.9-22.2-7.8c8.8-19.1,15.5-35.7,27.6-51.6c4.6-2.8,11.8-4.8,16.3-8.1
	c4.9-3.7,6.9-8.2,5.1-11.1c-2.1-3.4-8.6-4.1-13.4-2.5c-3.4,1.1-5.7,3.9-10.6,8.4c-4.9,4.4-15.8,5.7-27.5,3.5
	c-5.2-1-10.2-2.7-15.2-4.7c-11.9-4.6-24.3-10.5-40-10.5C64.8,7.3,48.7,17.7,48.4,34.6C48.1,51.2,64,60,81.2,56.8
	c3.7-0.6,9.2-3.8,9.2-5.9c0-2.3-6.3-2.9-9.5-2.9c-14.2-0.3-21.6-4.5-21.3-12.3c0.2-7.1,7.5-12.4,20.9-12.5c13.8-0.1,25.7,6.2,43,9.4
	c0.1,0,0.3,0.1,0.4,0.1c0,0,0.1,0,0.2,0c9.2,1.7,20,2.4,33.4,0.9c-13.8,14.8-34.5,45.1-49.2,72c-23.8,43.8-34.4,61.5-52.1,70.1
	c-12.4,6-29,7.4-38.3-0.1c-3.5-2.8-5.5-7-5.5-10.5c0-1.9,0.5-2.3,1-2.3c7.9-0.3,11.7-3.8,12.4-9c0.9-7-4-11.8-10.4-11.4
	C4.9,143.2-0.4,151.2,0,163.2c0.6,14.1,11.8,27.9,34.3,28.1c51.5,0.4,79.1-46.9,98.5-82.8c1.2-2.3,2.4-4.6,3.6-6.9
	c5.1,1.8,12.2,2.2,22.3,0.5c3.3,11.8-1.8,29.2-1.7,45.5c0.2,23,7.6,35.4,22.7,36.1c12.8,0.5,26.5-8.7,35-22
	c1.5,13.4,11.5,18.7,21.8,18.4c9.1-0.3,21.3-5.7,33.6-12.6c4.3,5.7,10.8,9.5,19.8,9.4c14.2-0.2,27.9-8.7,42.8-22.1
	c-5.3,9.2-5.9,10.5-7.1,12.8c-1.6,3.2-0.3,6.3,2.6,6.2c2.5-0.1,6.8-0.4,9.3-0.6c3.4-0.2,5.1-1.6,6.3-3.5
	c1.8-2.8,15.4-27.6,22.2-37.9c9.9-15,22.5-23.6,29.3-26.2c9.8-3.8,13.6,2.9,7.8,11.3c-8.4,12-14.8,22.8-16.1,31.6
	c-1.8,12,4.1,21.5,17.3,22c6.9,0.3,12.9-1.9,19.8-6.2c10-6.3,14.1-9.6,21.1-15.9c4,10.4,12.1,18.1,25,19c21.5,1.5,33.5-9.2,43-18.8
	c3.5-3.6,3.5-7.1,1.5-9.1c-1.9-1.9-6.2-0.9-8.8,1.8c-7.4,7.5-16.9,15.2-28.5,14.6c-10.1-0.5-15.4-8.7-16.8-20.2
	C475,122.7,482.6,115.2,493.3,103.9 M146.8,96.5c-5.1,0-7.1-1.3-6.7-3.8c0.3-1.8,2.4-2.2,4.2-2.1c5.9,0.1,9,1.5,11.5,5.2
	C152.5,96.4,149.6,96.5,146.8,96.5 M282.9,135c4.3-13.9,12.5-24,20.6-29.1c4.1-2.6,9-2.8,10.8-1.6c4.2,2.8,5.3,12.5-5.9,24.8
	c-6.3,6.8-13.4,14-27.1,22.3C280.6,146.6,281,141,282.9,135 M460.7,121.8c0.1-0.9,0.2-1.7,0.3-2.6c5.3-34.3,33.1-72.9,50.9-84.6
	c7.8-5.1,13-3.2,10.6,4.8c-4.1,13.8-18.7,34.4-30.6,48.9C482,100.7,471.5,111.8,460.7,121.8"/>
<path class="st0" d="M147.8,279.4c0,5.4,3.3,7.2,9.8,8.7c4.1,1,5.5,1.8,5.5,3.3c0,2.5-2.8,2.5-4.4,2.5c-2.8,0-6.2-1.3-8.3-2.7
	c-0.2,0.3-3,4.8-3.2,5.1c3.2,1.9,7.4,3.1,11.3,3.1c7.3,0,11.3-3.1,11.3-8.7c0-4.8-2.5-7-10-8.8c-3.6-0.8-5.3-1.4-5.3-3.1
	c0-2.5,2.8-2.5,3.7-2.5c2.6,0,5.2,0.8,7.9,2.5c0.2-0.3,3-4.8,3.2-5.2c-3.1-2-6.4-2.9-10.7-2.9C152.1,270.9,147.8,274.3,147.8,279.4"
	/>
<rect x="193.1" y="271.4" class="st0" width="6.9" height="27.7"/>
<path class="st0" d="M242.8,288.4c-0.6-1.2-4.4-7-5.7-8.7c0,0-5.8-7.8-6.2-8.3h-6.1v27.7h6.4v-8.2c0-3.7-0.1-9-0.3-10
	c0.7,1.2,4.5,7.1,5.8,8.9c0,0,6.6,9.1,6.7,9.3h5.5v-27.7h-6.4v7.2C242.5,279.4,242.5,286.9,242.8,288.4"/>
<path class="st0" d="M269.3,285.2c0,8.9,4.8,14.3,12.6,14.3c6.7,0,9.5-3.7,11.1-6.6c-0.3-0.2-5.3-2.8-5.6-3
	c-1.3,2.3-2.5,3.9-5.4,3.9c-3.5,0-5.6-3.2-5.6-8.7c0-5.5,2-8.6,5.5-8.6c3,0,4.2,2,5,4.2c0.3-0.1,5.7-2.2,6.1-2.4
	c-1.8-4.6-4.3-7.5-11.1-7.5C274.2,270.9,269.3,276.5,269.3,285.2"/>
<polygon class="st0" points="314.9,271.4 314.9,299.1 336,299.1 336,293.6 321.5,293.6 321.5,287.3 330.1,287.3 330.1,282 
	321.5,282 321.5,276.8 335.7,276.8 335.7,271.4 "/>
<path class="st0" d="M384,271.4c-0.9,2.4-2.6,3.5-5.8,3.8v3.9h4.9v20h6.6v-27.7H384z"/>
<path class="st0" d="M413.7,278.9c0,2.7,1.9,4.2,3,4.8c-0.1,0,0.8,0.5,0.8,0.5l0.4,0.2l-0.4,0.2l-0.9,0.4c-1,0.4-4.1,1.9-4.1,5.7
	c0,5.4,4.8,8.8,12.5,8.8c7.8,0,12.6-3.4,12.6-8.8c0-3.9-3.1-5.5-4.1-5.9l-1.2-0.5l1.1-0.7c2-1.3,3-2.8,3-4.8c0-4.9-4.3-7.9-11.2-7.9
	C418.1,270.9,413.7,274,413.7,278.9 M420.1,279c0-0.8,0.3-3.6,4.9-3.6c3.7,0,5,1.9,5,3.6c0,1-0.5,3.5-4.9,3.5
	C420.5,282.4,420.1,279.8,420.1,279 M418.9,290.6c0-2.6,2.3-4.1,6.2-4.1c3.8,0,6.2,1.6,6.2,4.1c0,2.6-2.3,4.2-6.1,4.2
	C421.3,294.8,418.9,293.2,418.9,290.6"/>
<path class="st0" d="M459.1,271.4c0,0.4-0.9,13.6-0.9,13.9c0.3,0.1,5.9,2,6.1,2.1c1.4-1,2.9-1.6,5.4-1.6c2.9,0,4.6,1.5,4.6,4.1
	c0,2.9-1.9,4.4-5.8,4.4c-2.8,0-6.1-1-9.1-2.6c-0.1,0.1-2.4,4.5-2.6,4.8c3.8,2.2,7.3,3.2,11.5,3.2c7.9,0,12.4-3.6,12.4-9.9
	c0-5.8-3.4-9-9.7-9c-3,0-4.7,0.6-6,1.2l-1,0.5l0.4-5.8h14.6v-5.2H459.1z"/>
<path class="st0" d="M507.9,271.4c-0.9,2.4-2.6,3.5-5.8,3.8v3.9h4.9v20h6.5v-27.7H507.9z"/>
</svg>
