<svg viewBox="0 0 24 24" xmlns="http://www.w3.org/2000/svg"><path d="M22.044 0C23.109 0 23.979.86 24 1.933v4.988a14.023 14.023 0 0 1-4.789 10.59 13.856 13.856 0 0 1-7.326 3.363 15.559 15.559 0 0 1-3.18.08c-.154-.04-.31-.08-.46-.234-.23-.23-.23-.502-.23-.502v-1.276a.462.462 0 0 0-.079-.233c-.036-.076-.114-.115-.192-.155C3.078 16.64.02 12.075 0 6.997V1.933A1.923 1.923 0 0 1 .556.561C.917.197 1.407-.005 1.917 0ZM4.559 5.605l-.112.006a1.034 1.034 0 0 0-.921 1.038c.013 4.69 3.78 8.49 8.434 8.506a8.427 8.427 0 0 0 6.978-3.712 1.076 1.076 0 0 0-.306-1.47 1.014 1.014 0 0 0-1.458.272 6.355 6.355 0 0 1-5.253 2.783c-3.493-.003-6.324-2.858-6.325-6.38 0-.58-.462-1.043-1.038-1.043h.001Zm14.762-.155-.12.007a1.24 1.24 0 0 0-1.106 1.228 1.241 1.241 0 0 0 1.224 1.24c.69 0 1.27-.58 1.23-1.237 0-.656-.54-1.237-1.23-1.237l.002-.001Z" fill="#E94709"/></svg>