<?xml version="1.0" encoding="utf-8"?>
<!-- Generator: Adobe Illustrator 19.0.0, SVG Export Plug-In . SVG Version: 6.00 Build 0)  -->
<svg version="1.1" id="图层_1" xmlns="http://www.w3.org/2000/svg" xmlns:xlink="http://www.w3.org/1999/xlink" x="0px" y="0px"
	 viewBox="0 0 146.9 57.1" enable-background="new 0 0 146.9 57.1" xml:space="preserve">
<g id="XMLID_492_">
	<g id="XMLID_521_">
		<path id="XMLID_525_" fill="#E94709" d="M59.4,1.7c0,0-52.5,0-52.5,0c-2.8,0-5,2.2-5,5c0,0.1,0,13.1,0,13.1
			c0,13.7,8.7,25.3,20.2,29.9c0.2,0.1,0.4,0.2,0.5,0.4c0.2,0.3,0.2,0.6,0.2,0.6V54c0,0,0,0.7,0.6,1.3c0.4,0.4,0.8,0.5,1.2,0.6
			c1.4,0.1,4.5,0.3,8.3-0.2c5.4-0.7,12.6-3,19.1-8.7c9-7.8,12.5-18.3,12.5-27.4c0,0,0-12.9,0-12.9C64.4,3.9,62.2,1.7,59.4,1.7z"/>
		<path id="XMLID_524_" fill="#FFFFFF" d="M51.3,31.3c-4.1,6-10.9,9.6-18.2,9.6c-12.1,0-22-9.9-22-22c0-1.5,1.2-2.7,2.7-2.7
			c1.5,0,2.7,1.2,2.7,2.7c0,9.1,7.4,16.5,16.5,16.5c5.5,0,10.6-2.7,13.7-7.2c0.9-1.3,2.6-1.6,3.8-0.7C51.8,28.4,52.1,30.1,51.3,31.3
			z"/>
		<path id="XMLID_522_" fill="#FFFFFF" d="M52.3,22.2c-1.8,0-3.2-1.5-3.2-3.2c0-1.8,1.5-3.2,3.2-3.2c1.8,0,3.2,1.5,3.2,3.2
			C55.6,20.7,54.1,22.2,52.3,22.2z"/>
	</g>
	<g id="XMLID_506_">
		<circle id="XMLID_520_" fill="#3E3A39" cx="143" cy="42.4" r="1.2"/>
		<path id="XMLID_517_" fill="#3E3A39" d="M93,44.5c-2.5,0-4.6,2.1-4.6,4.6c0,2.5,2.1,4.6,4.6,4.6c2.5,0,4.6-2.1,4.6-4.6
			C97.6,46.6,95.5,44.5,93,44.5z M95.4,49.2c0,1.4-1.1,2.5-2.5,2.5c-1.4,0-2.5-1.1-2.5-2.5c0-1.4,1.1-2.5,2.5-2.5
			C94.3,46.7,95.4,47.8,95.4,49.2z"/>
		<path id="XMLID_516_" fill="#3E3A39" d="M143,44.6c-0.6,0-1.1,0.5-1.1,1.1v7c0,0.6,0.5,1.1,1.1,1.1c0.6,0,1.1-0.5,1.1-1.1v-7
			C144.1,45.1,143.6,44.6,143,44.6z"/>
		<path id="XMLID_515_" fill="#3E3A39" d="M83.1,42.3c-0.3,0-0.5,0.1-0.7,0.3l-3.3,3.1v-3.4c0-0.6-0.5-1.1-1.1-1.1
			c-0.6,0-1.1,0.5-1.1,1.1v10.4c0,0.6,0.5,1.1,1.1,1.1c0.6,0,1.1-0.5,1.1-1.1v-2.3l3.3,3.1c0.2,0.2,0.5,0.3,0.8,0.3
			c0.3,0,0.6-0.1,0.7-0.3c0.2-0.2,0.3-0.5,0.3-0.8c0-0.3-0.1-0.6-0.3-0.8L79.8,48l4.1-3.9c0.2-0.2,0.3-0.5,0.3-0.8v0
			c0-0.3-0.1-0.6-0.3-0.8C83.7,42.4,83.4,42.3,83.1,42.3z"/>
		<path id="XMLID_514_" fill="#3E3A39" d="M109.3,44.6c-0.6,0-1.1,0.5-1.1,1.1V50c0,0.9-0.8,1.6-1.8,1.6c-1,0-1.8-0.7-1.8-1.6v-4.4
			c0-0.6-0.5-1.1-1.1-1.1c-0.6,0-1.1,0.5-1.1,1.1V50c0,2,1.8,3.7,3.9,3.7c2.2,0,3.9-1.7,3.9-3.7v-4.4
			C110.3,45.1,109.8,44.6,109.3,44.6z"/>
		<path id="XMLID_511_" fill="#3E3A39" d="M120.1,44.5c-0.9,0-1.7,0.2-2.5,0.7v-3c0-0.6-0.5-1.1-1.1-1.1c-0.6,0-1.1,0.5-1.1,1.1
			l0,6.8c0,0,0,0.1,0,0.1v0.1c0,0,0,0.1,0,0.1c0.1,2.5,2.1,4.4,4.6,4.4c2.5,0,4.6-2.1,4.6-4.6C124.7,46.6,122.6,44.5,120.1,44.5z
			 M122.6,49.2c0,1.4-1.1,2.5-2.5,2.5c-1.3,0-2.4-1.1-2.5-2.4v-0.1c0-1.3,1.1-2.4,2.5-2.4C121.4,46.7,122.6,47.8,122.6,49.2z"/>
		<path id="XMLID_507_" fill="#3E3A39" d="M133.3,44.5c-0.7,0-1.4,0.2-2.2,0.6c-1.6,1-2.3,2.4-2.3,4.1c0,0.8,0.2,1.6,0.6,2.4
			c1,1.6,2.3,2.4,3.9,2.4l0.3,0c1.7-0.2,2.5-0.7,2.5-1.5v-0.1c0-0.4-0.2-0.9-0.9-1l-0.3,0l-0.1,0c-0.6,0.3-1.1,0.4-1.5,0.4
			c-0.3,0-0.7-0.1-1.1-0.2c-0.6-0.3-0.9-0.7-1.1-1.1h5.7c0.4,0,0.9-0.2,1-1v-0.2c0-0.8-0.2-1.5-0.5-2.2
			C136.4,45.3,135,44.5,133.3,44.5z M135.7,48.4H131c0-0.1,0.1-0.3,0.2-0.5c0.5-0.8,1.2-1.3,2-1.3h0.3c0.5,0,1.1,0.3,1.6,0.8
			C135.5,47.9,135.7,48.2,135.7,48.4z"/>
	</g>
	<path id="XMLID_502_" fill="#3E3A39" d="M79,36.5h24.5c1.8,0,3.3-1.5,3.3-3.3V8c0-1.8-1.5-3.3-3.3-3.3H79c-1.8,0-3.3,1.5-3.3,3.3
		v24.5C75.7,34.3,77.2,36.5,79,36.5z M80.2,31.6V9.7c0-0.2,0.2-0.4,0.4-0.4h21.2c0.2,0,0.4,0.2,0.4,0.4v21.9c0,0.2-0.2,0.4-0.4,0.4
		H80.6C80.4,32,80.2,31.8,80.2,31.6z"/>
	<path id="XMLID_493_" fill="#3E3A39" d="M145.4,26.4c0-0.8-0.5-1.5-1.2-1.7c-0.3-0.2-0.6-0.3-1-0.3h-4.7v-3.6h3.6
		c1.5,0,2.7-1.2,2.7-2.8V7.5c0-1.5-1.2-2.8-2.7-2.8h-7c0.1-0.1,0.1-0.2,0.1-0.2c0.5-1,0.1-2.2-1-2.7c-1-0.5-2.2-0.1-2.7,1
		c-0.2,0.3-0.4,0.9-0.6,1.1c-0.1,0.2-0.4,0.6-0.6,0.8H128c-1.5,0-2.7,1.3-2.7,2.8V18c0,1.5,1.2,2.8,2.7,2.8h1.2
		c-1.1,1.3-2.3,2.5-3.7,3.6h-1.6v-7.8c0-1.5-1.2-2.7-2.7-2.7h-2.4c0.6-1.6,1-3.2,1.3-5.1h1.7c1.1,0,2-0.9,2-2c0-1.1-0.9-2-2-2h-8
		c-1.1,0-2,0.9-2,2c0,1.1,0.9,2,2,2h2.5c-0.6,3.6-1.9,6.4-4.2,10.3c-0.3,0.4-0.3,0.9-0.2,1.4c0.1,0.5,0.4,0.9,0.9,1.2
		c0.3,0.2,0.6,0.3,1,0.3c0.3,0,0.6-0.1,0.9-0.2v11c0,1.5,1.2,2.7,2.7,2.7h4c1.5,0,2.7-1.2,2.7-2.7v-4.3h10.7v6.3
		c0,1.1,0.9,1.9,2,1.9c1.1,0,2-0.9,2-1.9v-6.3h4.7c0.4,0,0.7-0.1,1-0.3C144.9,27.8,145.4,27.2,145.4,26.4z M128.9,14.2h3.6
		c-0.3,1-0.6,1.9-1,2.8h-2.3c-0.1,0-0.2-0.1-0.2-0.3V14.2z M141.2,14.2v2.6c0,0.2-0.1,0.3-0.2,0.3h-5.5c0.4-0.9,0.6-1.9,0.9-2.8
		H141.2z M141.2,11.1h-4.4l0.2-2.6h3.9c0.1,0,0.2,0.1,0.2,0.3V11.1z M133.3,8.6l-0.2,2.6h-4.1V8.8c0-0.2,0.1-0.3,0.2-0.3H133.3z
		 M134.5,20.8v3.6h-3.6c1-1.1,1.9-2.3,2.7-3.6H134.5z M118,17.5c0-0.1,0.1-0.1,0.1-0.1h2c0.1,0,0.1,0.1,0.1,0.1v14.1
		c0,0.1-0.1,0.1-0.1,0.1h-2c-0.1,0-0.1-0.1-0.1-0.1V17.5z"/>
</g>
</svg>
