<svg viewBox="0 0 8 8" xmlns="http://www.w3.org/2000/svg"><g fill-rule="nonzero" fill="none"><path d="M8.248.7H1.54a.633.633 0 0 0-.639.639v1.674a4.142 4.142 0 0 0 2.581 3.821c.026.013.052.026.064.051a.152.152 0 0 1 .026.077v.422s0 .09.077.166c.05.051.102.064.153.077.179.012.575.038 1.06-.026.69-.09 1.61-.383 2.442-1.112A4.62 4.62 0 0 0 8.9 2.988V1.339A.652.652 0 0 0 8.248.7Z" fill="#E94709"/><path d="M2.42 2.553c.192 0 .346.153.346.345a2.11 2.11 0 0 0 2.108 2.109c.703 0 1.355-.345 1.751-.92a.34.34 0 0 1 .486-.09.354.354 0 0 1 .102.486A2.815 2.815 0 0 1 4.887 5.71a2.82 2.82 0 0 1-2.811-2.812c0-.192.153-.345.345-.345Zm4.92-.051c.23 0 .41.192.41.409.013.217-.18.409-.41.409a.412.412 0 0 1-.408-.41c0-.23.192-.408.409-.408Z" fill="#FFF"/></g></svg>