<svg viewBox="0 0 8 8" version="1.1" xmlns="http://www.w3.org/2000/svg" xmlns:xlink="http://www.w3.org/1999/xlink">
    <title>Group</title>
    <g id="Page-1" stroke="none" stroke-width="1" fill="none" fill-rule="evenodd">
        <g id="Group" transform="translate(0.900000, 0.700000)" fill-rule="nonzero">
            <path d="M7.34824281,0 C7.34824281,0 0.638977636,0 0.638977636,0 C0.28115016,0 -4.54020917e-16,0.28115016 -4.54020917e-16,0.638977636 C-4.54020917e-16,0.651757188 -4.54020917e-16,2.31309904 -4.54020917e-16,2.31309904 C-4.54020917e-16,4.06389776 1.11182109,5.54632588 2.58146965,6.1341853 C2.60702875,6.14696486 2.63258786,6.15974441 2.64536741,6.18530351 C2.67092652,6.22364217 2.67092652,6.26198083 2.67092652,6.26198083 L2.67092652,6.68370607 C2.67092652,6.68370607 2.67092652,6.77316294 2.74760383,6.84984026 C2.79872204,6.90095847 2.84984026,6.91373802 2.90095847,6.92651757 C3.0798722,6.93929712 3.47603834,6.96485623 3.96166134,6.90095847 C4.65175719,6.8115016 5.57188498,6.51757188 6.40255591,5.78913738 C7.55271565,4.79233227 8,3.45047923 8,2.28753994 C8,2.28753994 8,0.638977636 8,0.638977636 C7.98722045,0.28115016 7.70607029,0 7.34824281,0 Z" id="XMLID_525_" fill="#E94709"></path>
            <path d="M1.52076677,1.85303514 C1.71246006,1.85303514 1.8658147,2.00638978 1.8658147,2.19808307 C1.8658147,3.36102236 2.8115016,4.30670927 3.97444089,4.30670927 C4.67731629,4.30670927 5.32907348,3.96166134 5.72523962,3.38658147 C5.84025559,3.22044728 6.05750799,3.18210863 6.21086262,3.2971246 C6.37699681,3.41214058 6.41533546,3.62939297 6.31309904,3.7827476 C5.78913738,4.54952077 4.9201278,5.00958466 3.98722045,5.00958466 C2.44089457,5.00958466 1.17571885,3.74440895 1.17571885,2.19808307 C1.17571885,2.00638978 1.32907348,1.85303514 1.52076677,1.85303514 Z M6.44089457,1.80191693 C6.67092652,1.80191693 6.84984026,1.99361022 6.84984026,2.21086262 C6.86261981,2.42811502 6.67092652,2.61980831 6.44089457,2.61980831 C6.21086262,2.61980831 6.03194888,2.42811502 6.03194888,2.21086262 C6.03194888,1.98083067 6.22364217,1.80191693 6.44089457,1.80191693 Z" id="Combined-Shape" fill="#FFFFFF"></path>
        </g>
    </g>
</svg>
