<svg viewBox="0 0 8 8" xmlns="http://www.w3.org/2000/svg"><path d="M6.105 4.103c.774 0 1.403.624 1.403 1.394v1.108C7.508 7.375 6.879 8 6.105 8H4.04c-.622 0-1.15-.403-1.333-.96l-1.23.612a.683.683 0 0 1-.986-.605V5.06a.679.679 0 0 1 .989-.604l1.224.616c.18-.562.71-.97 1.336-.97h2.064Zm-.01.718H4.063a.7.7 0 0 0-.702.685v1.079a.7.7 0 0 0 .69.697h2.034a.7.7 0 0 0 .701-.686V5.518a.7.7 0 0 0-.69-.697ZM1.4 5.253a.185.185 0 0 0-.185.181v1.25a.186.186 0 0 0 .267.166l.003-.002 1.153-.585v-.414l-1.154-.576a.187.187 0 0 0-.084-.02ZM3.113 0A1.9 1.9 0 0 1 4.77.965c.29-.268.68-.432 1.108-.432.9 0 1.63.726 1.63 1.62 0 .896-.73 1.621-1.63 1.621a1.63 1.63 0 0 1-1.318-.666 1.899 1.899 0 0 1-1.447.666 1.893 1.893 0 0 1-1.898-1.887C1.215.845 2.065 0 3.113 0Zm0 .759c-.627 0-1.135.505-1.135 1.128 0 .623.508 1.128 1.135 1.128s1.135-.505 1.135-1.128C4.248 1.264 3.74.76 3.113.76Zm2.765.533a.864.864 0 0 0-.867.862c0 .476.388.861.867.861a.864.864 0 0 0 .866-.861.864.864 0 0 0-.866-.862Z" fill="#ff4906"/></svg>