<?xml version="1.0" encoding="UTF-8"?>
<svg width="81px" height="31px" viewBox="0 0 81 31" version="1.1" xmlns="http://www.w3.org/2000/svg" xmlns:xlink="http://www.w3.org/1999/xlink">
    <title>橙灰</title>
    <g id="页面-1" stroke="none" stroke-width="1" fill="none" fill-rule="evenodd">
        <g id="4.0高保真-011" transform="translate(-60.000000, -20.000000)">
            <g id="logo" transform="translate(60.000000, 19.975933)">
                <g id="橙灰" transform="translate(0.000000, 0.998797)">
                    <path d="M46.8723871,5.13008736 L46.8402281,5.1294132 L44.8125483,5.13320895 L44.8154041,7.01913429 L40.9137793,7.01920975 C40.5684043,7.01922892 40.286443,7.28648134 40.2696598,7.6223457 L40.2688694,7.65402793 L40.2687798,9.66180921 L44.8172699,9.66163688 L44.8167586,13.2650522 L44.8100453,14.7280091 L44.8070561,14.8908779 L44.8029447,15.0503067 C44.7950405,15.3172825 44.782248,15.6533069 44.7643467,15.9029033 L44.7529911,16.0517991 L44.722468,16.3987034 L39.9922048,16.3987514 C39.6468318,16.3987611 39.3648711,16.6660101 39.3480937,17.0018776 L39.3472336,17.0335602 L39.3472336,19.0412162 C42.4097899,19.041023 44.147461,19.0410179 44.5602468,19.0412008 C43.6021763,21.7166775 41.811158,23.4660231 39.3472336,24.4314751 C39.4116187,24.6482824 39.794646,25.9386941 39.9921818,26.6042689 C40.0547692,26.8151502 40.3635659,26.8738838 40.5123717,26.8150664 C42.2808351,26.1160576 45.4028171,24.355634 46.9864867,20.1597352 C48.3882797,24.1493921 51.6364716,26.0083319 53.1110335,26.6704028 C53.1538769,26.6896393 53.195223,26.7078653 53.234983,26.7251039 C53.7261913,26.9380752 53.9347012,26.7251039 54.0137472,26.4609118 C54.2490179,25.6745764 54.455011,24.9865451 54.6213368,24.4314751 C53.6241361,24.0360277 50.6716344,22.7592604 49.4178899,19.0411996 C49.9738108,19.0410175 51.4929082,19.0410802 53.9751821,19.0413879 L54.0052666,19.0409264 C54.3400884,19.0287792 54.6085105,18.7655092 54.6249425,18.4384159 L54.6257399,18.4065687 L54.6257399,16.3987064 L53.344074,16.3986937 L53.3440782,7.65403644 C53.3440689,7.31406759 53.0725737,7.03651514 52.7313681,7.01999226 L52.699182,7.01921404 L47.4871563,7.01913574 L47.4851407,5.75150324 L47.4848018,5.73995427 L47.4851159,5.73060431 C47.4687873,5.41611743 47.220099,5.16245099 46.9051929,5.13239253 L46.8723871,5.13008736 Z M37.3678425,5.13051105 L35.340527,5.13051105 L35.340527,26.1474949 C35.340527,26.4874608 35.6120355,26.7650082 35.9532463,26.781517 L35.9854329,26.7822939 L38.0126357,26.7706334 L38.0124687,14.0118526 L39.5920188,14.0119809 L39.6219576,14.01154 C39.9567792,13.9993929 40.2251954,13.7361253 40.2416164,13.4090298 L40.2424126,13.3771824 L40.2423505,11.3691996 L38.0124623,11.3691992 L38.0127244,5.77097862 L38.0122638,5.7414213 C37.9999235,5.41183956 37.7324687,5.14762059 37.4001941,5.13144997 L37.3678425,5.13051105 Z M76.2914873,5.38189799 C75.9362251,5.88898964 75.2501966,6.46513709 74.242924,6.47735536 C74.2383838,6.47741044 69.0384094,6.47730096 58.6430008,6.47702695 L58.6430731,8.4849281 C58.6430814,8.81392994 58.8973436,9.08447699 59.2229875,9.11656284 L59.2557831,9.11896988 L59.2879692,9.11974796 L67.4991811,9.11985851 L67.4991811,12.5826817 L60.0370303,12.5829441 C59.6916525,12.5829769 59.4096903,12.8502343 59.3928986,13.1860941 L59.3921075,13.2177759 L59.3920405,15.2255199 L67.4991811,15.2255175 L67.4991811,18.3745988 L57.7184257,18.3746806 C57.3730529,18.3746893 57.0910923,18.6419379 57.0743156,18.9778057 L57.0733668,19.0094883 L57.0733668,21.0172703 L67.4991728,21.0172694 L67.4989432,23.362621 L67.4970947,23.4051731 L67.495403,23.4267872 L67.4910799,23.463673 C67.4372662,23.8371196 67.1180878,24.1207533 66.7355074,24.1376003 L66.6994609,24.1383927 L63.100007,24.1382481 L63.6825049,26.2955349 C63.7637172,26.5595338 63.9742044,26.7509748 64.2438628,26.7779155 L64.2764194,26.780352 L64.3093405,26.7811987 L66.6952781,26.7811987 L66.7840674,26.7801291 L66.8404928,26.7783308 L66.898631,26.7755332 C68.7127072,26.6737311 70.1413715,25.2014555 70.1709385,23.4058859 L70.1714059,23.3490774 L70.1712728,21.0172693 L79.5745401,21.0173464 L79.604838,21.0168545 C79.9396599,21.0047074 80.2080906,20.7414339 80.2245389,20.4143437 L80.2253378,20.3824969 L80.2253378,18.3746017 L70.1712898,18.3745986 L70.1712898,15.2255173 L77.1732751,15.2256261 L77.2035317,15.2251401 C77.5383535,15.212993 77.8067826,14.9497202 77.8232277,14.6226294 L77.8240263,14.5907825 L77.8239454,12.5828513 L70.1712898,12.5826806 L70.1712898,9.11983385 C71.0564167,9.12538241 72.3944018,9.12429207 74.185245,9.11656284 C77.1034987,9.12780004 78.5960305,7.0142537 78.9925339,6.04023956 C78.4001966,5.78661604 77.5943823,5.44250243 77.062661,5.21534673 C76.6961433,5.05876739 76.4253759,5.19078899 76.2914873,5.38189799 Z M33.5735247,8.00521586 L31.5461145,8.00521586 L31.5462313,15.2080547 L31.5444285,15.4377765 L31.5415423,15.5835883 C31.5048727,17.088188 31.251045,18.6030748 30.7805208,20.1275978 C30.6855094,20.4354397 30.8395848,20.7625815 31.135034,20.8919572 L31.1660976,20.9046265 L33.1350635,21.5621635 C33.8136477,19.6877318 34.1769591,17.719718 34.2150596,15.572981 L34.2174435,15.3984642 L34.2184093,15.2275322 L34.219513,14.5202486 L34.2177224,14.5191136 L34.2182232,8.63779314 L34.2173238,8.62096433 L34.2175783,8.60906848 C34.2019206,8.29379158 33.9536694,8.03944638 33.6385903,8.00844501 L33.6057644,8.00604133 L33.5735247,8.00521586 Z M47.4897304,9.66133311 L50.6716344,9.66133311 L50.6718128,16.3987064 L47.4084999,16.3987064 L47.4368111,15.9965464 C47.4620478,15.6133815 47.4772231,15.1355075 47.4825274,14.7173445 L47.4841968,14.5369359 L47.4864737,14.0899442 L47.4897304,9.66133311 Z" id="Clip-2备份-12" fill="#FFFFFF" fill-rule="nonzero"></path>
                    <path d="M21.0203936,15.366102 C23.9227043,15.366102 26.2754919,17.705179 26.2754919,20.5905767 L26.2754919,24.7394242 C26.2754919,27.6248219 23.9227043,29.9638989 21.0203936,29.9638989 L13.2923077,29.9638989 C10.9615745,29.9638989 8.98523274,28.455411 8.2971933,26.3669038 L3.69303421,28.6614231 C2.43387891,29.2888774 0.901498145,28.7827309 0.270365981,27.5309132 C0.0925760423,27.1782761 0,26.7892618 0,26.3948067 L0,18.9533472 C0,17.5530807 1.14179403,16.4179404 2.55026834,16.4179404 C2.95042997,16.4179404 3.34497609,16.5115579 3.70200563,16.6912234 L8.28583828,18.9979813 C8.96327039,16.8914081 10.9486178,15.366102 13.2923077,15.366102 L21.0203936,15.366102 Z M20.986564,18.0555198 L13.3695886,18.0551699 C11.9329448,18.0551699 10.7655947,19.2014345 10.7423914,20.6242091 L10.7420394,24.6625937 C10.7420394,26.0908656 11.895023,27.251413 13.3261372,27.2744811 L20.9431127,27.2748311 C22.3797565,27.2748311 23.5471065,26.1285664 23.5703099,24.7057918 L23.5706619,20.6674072 C23.5706619,19.2391353 22.4176783,18.0785879 20.986564,18.0555198 Z M3.40035778,19.675518 C3.02049653,19.675518 2.711759,19.9782603 2.70494506,20.35429 L2.70483005,25.0319863 C2.70483005,25.1411854 2.73084411,25.248832 2.78074236,25.3461127 C2.95324067,25.6824122 3.36452425,25.8183441 3.70449537,25.6538511 L3.71632542,25.647991 L8.037,23.457 L8.037,21.908 L3.71245988,19.7490432 C3.61560845,19.7006958 3.50873285,19.675518 3.40035778,19.675518 Z M9.81466905,1.33226763e-14 C12.48011,1.33226763e-14 14.8029747,1.45819612 16.0201707,3.61594278 C17.1086631,2.61175972 18.5673401,1.99759326 20.1703041,1.99759326 C23.5421063,1.99759326 26.2754919,4.71505035 26.2754919,8.06720355 C26.2754919,11.4193568 23.5421063,14.1368138 20.1703041,14.1368138 C18.1429207,14.1368138 16.3463457,13.1543642 15.2359855,11.6422173 C13.9322144,13.1680322 11.9872404,14.1368138 9.81466905,14.1368138 C5.8880134,14.1368138 2.70483005,10.9721803 2.70483005,7.06840692 C2.70483005,3.16463357 5.8880134,1.33226763e-14 9.81466905,1.33226763e-14 Z M9.81466905,2.84272887 C7.46721187,2.84272887 5.56422182,4.73462938 5.56422182,7.06840692 C5.56422182,9.40218447 7.46721187,11.294085 9.81466905,11.294085 C12.1621262,11.294085 14.0651163,9.40218447 14.0651163,7.06840692 C14.0651163,4.73462938 12.1621262,2.84272887 9.81466905,2.84272887 Z M20.1703041,4.84032213 C18.3777004,4.84032213 16.9245081,6.28504616 16.9245081,8.06720355 C16.9245081,9.84936095 18.3777004,11.294085 20.1703041,11.294085 C21.9629078,11.294085 23.4161002,9.84936095 23.4161002,8.06720355 C23.4161002,6.28504616 21.9629078,4.84032213 20.1703041,4.84032213 Z" id="形状结合" fill="#FF4906"></path>
                </g>
            </g>
        </g>
    </g>
</svg>