<?xml version="1.0" encoding="UTF-8"?>
<svg viewBox="0 0 9 9" version="1.1" xmlns="http://www.w3.org/2000/svg" xmlns:xlink="http://www.w3.org/1999/xlink">
    <title>Group</title>
    <g id="Page-1" stroke="none" stroke-width="1" fill="none" fill-rule="evenodd">
        <g id="Group" transform="translate(0.983000, 0.900000)">
            <path d="M7.44322836,2.49292963 C7.12388358,2.28253522 6.72008657,2.34361565 6.52774596,2.60267649 C6.37180259,2.81266059 6.43378411,2.9535913 6.39190797,3.17279539 C6.35059501,3.38910315 6.25952144,3.51836003 6.13855934,3.63208131 C6.01472985,3.74630714 5.83386135,3.77370277 5.68175944,3.70127147 C5.61079125,3.66818087 5.54975909,3.61073695 5.47730251,3.52376652 C5.38053104,3.408579 5.23777777,3.34207803 5.08733548,3.34210211 C4.92471446,3.34210211 4.77115253,3.42641757 4.69611338,3.52376652 C4.63055168,3.60885433 4.54025852,3.67609751 4.42812218,3.67609751 C4.31103794,3.67609751 4.23694011,3.60884628 4.15870695,3.51397531 C4.09068336,3.43147811 3.95264094,3.34210211 3.77678529,3.34210211 C3.62613645,3.3425499 3.48323603,3.40893317 3.3857241,3.52376652 C3.29422413,3.63048832 3.217946,3.67609751 3.12274516,3.67609751 C3.03523569,3.67609751 2.9510731,3.64056917 2.85906627,3.52376652 C2.79457461,3.4419049 2.65287959,3.34178834 2.4691073,3.34178834 C2.30647823,3.34178834 2.16333505,3.41570114 2.07833574,3.52376652 C2.01378775,3.60582927 1.89239924,3.70224496 1.76114711,3.66887277 C1.645149,3.63937846 1.55858888,3.538216 1.55182273,3.33470842 C1.5384111,2.93219867 1.78073758,2.2406108 2.41683654,1.69098346 C3.25816479,0.964020109 4.47523585,0.910864364 5.16618009,1.13549908 C5.93328982,1.38490548 6.14369228,1.62955707 6.35035364,1.69354993 C6.57596185,1.7634159 6.77802931,1.58965205 6.79243052,1.4190098 C6.8072179,1.2437495 6.77658919,1.09920643 6.42567438,0.830249779 C5.85523366,0.392967946 5.05906406,0 3.99149202,0 C1.78701297,0 0,1.79084256 0,3.99998793 C0,6.2091333 1.78701297,8 3.99149202,8 C6.22414596,8 7.99757834,6.16368502 7.982976,3.99998793 C7.98081791,3.77807456 7.96103651,3.55668318 7.92381841,3.33790243 C7.84839309,2.98187881 7.67541768,2.64588012 7.44322836,2.49292963 Z" id="矩形_1-path" fill="#02CC74"></path>
            <path d="M2.37030213,4.54054815 L2.37030213,4.79647935 L2.56681829,4.79647935 L2.56681829,5.00788748 L2.37030213,5.00788748 L2.37030213,5.44220057 L2.56017281,5.38122473 L2.56353578,5.56857721 C2.53366333,5.58028322 2.38820308,5.63686629 2.37033432,5.64259459 L2.37033432,6.18033893 C2.37033432,6.35458551 2.28103073,6.46688275 2.10238334,6.46688275 L1.91478145,6.46688275 L1.91478145,6.26331886 L2.00408504,6.26331886 C2.06954215,6.26331886 2.11240787,6.21923024 2.11240787,6.1726717 L2.11240787,5.71228357 C2.03850738,5.73128766 1.96353152,5.74583309 1.88788579,5.75584119 L1.88788579,5.52932386 C1.98307053,5.51775462 2.04682203,5.50618538 2.11240787,5.49447937 L2.11240787,5.00788748 L1.88790188,5.00788748 L1.88790188,4.79647935 L2.11242396,4.79647935 L2.11242396,4.54054815 L2.37030213,4.54054815 Z M3.5440328,5.13626741 L3.82091413,5.13922006 C3.77918281,5.58654251 3.72376632,5.94394993 3.59872521,6.26331886 L3.96585144,6.26331886 L3.96585144,6.46686666 L2.54470962,6.46686666 L2.54470962,6.26331886 L2.94869972,6.26331886 C2.83847818,5.95384574 2.80406814,5.59106401 2.7690547,5.13626741 L3.04593603,5.13922006 C3.0638048,5.55167389 3.08044262,5.89778561 3.18093731,6.26331886 L3.37541798,6.26331886 C3.48259837,5.90910545 3.52017024,5.54872124 3.5440328,5.13626741 Z M3.43886375,4.54054815 L3.43886375,4.79647935 L3.9122532,4.79647935 L3.9122532,5.00788748 L2.67070812,5.00788748 L2.67070812,4.79647935 L3.14410561,4.79647935 L3.14410561,4.54054815 L3.43886375,4.54054815 Z M4.90847891,4.52744225 C4.88268657,4.61358636 4.85134604,4.6979709 4.81465383,4.7800668 L6.09421327,4.7800668 L6.07909602,6.18070097 C6.07909602,6.38392696 5.9748361,6.49634489 5.76647716,6.49634489 L5.43943296,6.49634489 L5.43943296,6.30173549 L5.64929638,6.30173549 C5.7280364,6.30173549 5.78745948,6.24876478 5.78928578,6.1632908 C5.79071786,6.09795436 5.79836096,4.99149102 5.79836096,4.99149102 L4.70304849,4.99149102 C4.56409694,5.15288914 4.40687436,5.24373744 4.175031,5.3174491 L4.175031,5.1254303 C4.39880486,4.98330888 4.55477236,4.82325433 4.62944947,4.52744225 L4.90847891,4.52744225 Z M4.78279418,5.17241525 L5.05955483,5.17705743 C4.95119982,5.46716535 4.66309519,5.70663572 4.48152733,5.84011642 C4.64565284,5.83478234 5.01191016,5.81566654 5.25012546,5.78349312 C5.23375313,5.70929874 5.18033994,5.55222097 5.16848106,5.51737649 L5.39754878,5.47901617 C5.47794614,5.69761686 5.54728112,5.90944335 5.6029792,6.13270231 L5.347756,6.15953361 L5.29479334,5.96654937 C5.0427561,6.01154711 4.7295982,6.03730838 4.44167058,6.05814588 L4.23139685,6.06646479 L4.21459812,5.8312826 L4.45441148,5.60074227 C4.57381317,5.48213359 4.68878405,5.35085346 4.78279418,5.17241525 Z" id="Combined-Shape" fill="#FFFFFF"></path>
        </g>
    </g>
</svg>