<svg viewBox="0 0 9 9" xmlns="http://www.w3.org/2000/svg"><g fill="none" fill-rule="evenodd"><path d="M8.426 3.393c-.32-.21-.723-.15-.915.11-.156.21-.094.35-.136.57a.787.787 0 0 1-.253.46.412.412 0 0 1-.457.068.617.617 0 0 1-.205-.177.51.51 0 0 0-.78 0c-.066.085-.157.152-.269.152-.117 0-.191-.067-.27-.162a.506.506 0 0 0-.381-.172.515.515 0 0 0-.391.182c-.092.106-.168.152-.263.152-.088 0-.172-.035-.264-.152a.511.511 0 0 0-.78 0c-.065.082-.187.178-.318.145-.116-.03-.202-.13-.21-.334-.013-.403.23-1.094.866-1.644.841-.727 2.058-.78 2.75-.556.766.25.977.495 1.183.559.226.07.428-.104.442-.275.015-.175-.015-.32-.366-.589A3.913 3.913 0 0 0 4.974.9a3.996 3.996 0 0 0-3.991 4c0 2.21 1.787 4 3.991 4 2.233 0 4.007-1.836 3.992-4a4.19 4.19 0 0 0-.06-.662c-.075-.356-.248-.692-.48-.845Z" fill="#02CC74"/><path d="M3.353 5.44v.256h.197v.212h-.197v.434l.19-.06.004.187-.194.074v.537c0 .175-.089.287-.268.287h-.187v-.204h.09c.065 0 .107-.044.107-.09v-.46a1.904 1.904 0 0 1-.224.043v-.227c.095-.011.159-.023.224-.035v-.486h-.224v-.212h.224v-.255h.258Zm1.174.596.277.003c-.042.448-.097.805-.222 1.124h.367v.204H3.528v-.204h.404c-.11-.31-.145-.672-.18-1.127l.277.003c.018.413.034.759.135 1.124h.194c.108-.354.145-.714.169-1.127Zm-.105-.595v.255h.473v.212H3.654v-.212h.473v-.255h.295Zm1.47-.014c-.026.087-.058.171-.094.253h1.28l-.016 1.4c0 .204-.104.316-.313.316h-.327v-.194h.21a.134.134 0 0 0 .14-.139c.002-.065.01-1.172.01-1.172H5.685c-.139.162-.296.253-.528.326v-.192c.224-.142.38-.302.454-.598h.28Zm-.126.645.277.005c-.109.29-.397.53-.578.663.164-.005.53-.024.768-.057a3.536 3.536 0 0 0-.082-.266l.23-.038c.08.219.15.43.205.654l-.255.027-.053-.193c-.252.045-.565.07-.853.091l-.21.008-.017-.235.24-.23c.119-.119.234-.25.328-.429Z" fill="#FFF"/></g></svg>