<?xml version="1.0" encoding="UTF-8" standalone="no"?>
<!-- Generator: Adobe Illustrator 15.0.2, SVG Export Plug-In . SVG Version: 6.00 Build 0)  -->

<svg
   xmlns:dc="http://purl.org/dc/elements/1.1/"
   xmlns:cc="http://creativecommons.org/ns#"
   xmlns:rdf="http://www.w3.org/1999/02/22-rdf-syntax-ns#"
   xmlns:svg="http://www.w3.org/2000/svg"
   xmlns="http://www.w3.org/2000/svg"
   xmlns:sodipodi="http://sodipodi.sourceforge.net/DTD/sodipodi-0.dtd"
   xmlns:inkscape="http://www.inkscape.org/namespaces/inkscape"
   version="1.1"
   id="Layer_1"
   x="0px"
   y="0px"
   width="283.84399"
   height="121.631"
   viewBox="0 0 283.84399 121.631"
   enable-background="new 0 0 450 170"
   xml:space="preserve"
   sodipodi:docname="La_Roche-Posay_(brand).svg"
   inkscape:version="0.92.4 (5da689c313, 2019-01-14)"><metadata
   id="metadata4041"><rdf:RDF><cc:Work
       rdf:about=""><dc:format>image/svg+xml</dc:format><dc:type
         rdf:resource="http://purl.org/dc/dcmitype/StillImage" /></cc:Work></rdf:RDF></metadata><defs
   id="defs4039" /><sodipodi:namedview
   pagecolor="#ffffff"
   bordercolor="#666666"
   borderopacity="1"
   objecttolerance="10"
   gridtolerance="10"
   guidetolerance="10"
   inkscape:pageopacity="0"
   inkscape:pageshadow="2"
   inkscape:window-width="640"
   inkscape:window-height="480"
   id="namedview4037"
   showgrid="false"
   inkscape:zoom="0.66666667"
   inkscape:cx="115.711"
   inkscape:cy="60.631"
   inkscape:window-x="0"
   inkscape:window-y="0"
   inkscape:window-maximized="0"
   inkscape:current-layer="Layer_1" />
<polyline
   points="246.605,24 246.605,86.639 200.438,86.639 200.438,24 "
   id="polyline4032"
   style="fill:#43a5dc"
   transform="translate(-83.039,-24)" />
<path
   d="m 26.673,75.949 3.954,8.865 h -7.62 z m 1.294,-5.384 h -2.48 L 14.956,95.238 h 3.595 l 3.091,-7.256 h 10.424 l 3.271,7.256 h 3.595 z m 25.048,3.173 h 2.256 c 3.404,0 4.766,1.404 4.802,3.71 0.036,2.054 -1.039,3.997 -4.802,3.997 h -2.256 z m -3.498,-3.04 v 24.54 h 3.498 V 84.612 h 1.469 c 1.791,0 3.26,0.575 6.486,5.603 l 3.23,5.023 h 4.21 c -1.691,-2.332 -2.303,-3.158 -3.347,-4.846 -1.868,-3.052 -3.231,-5.313 -5.457,-6.787 2.62,-1.043 4.091,-3.167 4.091,-6.014 0,-4.251 -3.086,-6.894 -8.031,-6.894 h -6.149 z m 22.048,12.267 c 0,-5.393 4.061,-9.35 9.521,-9.35 5.497,0 9.557,3.957 9.557,9.35 0,5.359 -4.06,9.35 -9.557,9.35 -5.461,-0.001 -9.521,-3.991 -9.521,-9.35 z m -3.625,0 c 0,6.654 5.062,12.588 13.073,12.588 8.299,0 13.253,-5.969 13.253,-12.588 0,-6.832 -5.098,-12.588 -13.182,-12.588 -7.938,0 -13.144,5.791 -13.144,12.588 z m 51.531,-6.797 c -3.021,-1.762 -5.611,-2.553 -8.453,-2.553 -5.611,0 -9.784,3.992 -9.784,9.386 0,5.503 4.028,9.313 9.928,9.313 2.771,0 5.792,-0.971 8.562,-2.768 v 3.848 c -2.41,1.26 -5.036,2.158 -8.885,2.158 -9.208,0 -13.229,-7.084 -13.229,-12.228 0,-7.479 5.64,-12.948 13.445,-12.948 2.518,0 5.072,0.611 8.417,2.016 v 3.776 z m 25.353,19.07 h -3.497 V 84.549 h -13.735 v 10.689 h -3.498 V 70.691 h 3.498 V 81.38 h 13.735 V 70.691 h 3.497 z M 164.21,73.865 h -10.396 v 7.389 h 10.036 v 3.168 h -10.036 v 7.643 h 10.719 v 3.168 H 150.317 V 70.698 h 13.893 z m 2.821,11.779 v 3.358 h 8.711 v -3.358 z m 16.45,-11.779 h 4.146 c 3.21,0 4.184,1.939 4.184,3.736 0,2.442 -1.694,3.844 -4.328,3.844 h -4.002 z m -3.499,-3.167 v 24.54 h 3.498 V 84.612 h 3.679 c 5.693,0 8.275,-3.022 8.275,-6.866 0,-3.881 -2.439,-7.048 -7.808,-7.048 z m 21.117,12.267 c 0,-5.393 4.06,-9.35 9.521,-9.35 5.498,0 9.557,3.957 9.557,9.35 0,5.359 -4.059,9.35 -9.557,9.35 -5.462,-0.001 -9.521,-3.991 -9.521,-9.35 z m -3.625,0 c 0,6.654 5.063,12.588 13.073,12.588 8.3,0 13.254,-5.969 13.254,-12.588 0,-6.832 -5.098,-12.588 -13.182,-12.588 -7.94,0 -13.145,5.791 -13.145,12.588 z m 42.243,-6.864 c -2.067,-1.977 -4.089,-2.554 -5.753,-2.554 -2.276,0 -3.904,1.188 -3.904,2.912 0,4.709 10.619,4.637 10.619,12.438 0,3.848 -2.886,6.654 -6.858,6.654 -2.677,0 -4.831,-0.719 -6.862,-2.268 v -4.459 c 1.782,2.301 4.041,3.559 6.463,3.559 2.75,0 4.014,-1.725 4.014,-3.092 0,-5.066 -10.619,-5.642 -10.619,-12.363 0,-3.99 2.924,-6.548 7.438,-6.548 1.881,0 3.754,0.575 5.464,1.729 v 3.992 z m 14.081,-0.152 3.953,8.865 h -7.619 z m 1.294,-5.384 h -2.48 L 242.08,95.238 h 3.595 l 3.091,-7.256 h 10.425 l 3.27,7.256 h 3.595 z M 1.815,116.703 h 5.343 v 1.908 H 0.129 v -14.785 h 1.687 v 12.877 z m 11.778,-9.717 1.908,5.361 h -3.679 z m 0.624,-3.256 H 13.02 L 7.935,118.611 H 9.67 l 1.494,-4.355 h 5.031 l 1.578,4.355 h 1.735 z m 8.836,2.004 h 1.574 c 1.575,0 2.083,0.953 2.083,2.059 0,1.582 -0.823,2.359 -2.52,2.359 h -1.138 v -4.418 z m -1.686,12.877 h 4.049 c 2.969,0 4.06,-2.125 4.06,-3.945 0,-1.996 -1.073,-3.449 -2.844,-3.861 1.255,-0.672 1.827,-1.668 1.827,-3.207 0,-1.863 -1.092,-3.771 -3.656,-3.771 h -3.436 z m 1.686,-6.548 h 2.064 c 1.776,0 2.609,0.953 2.609,2.299 0,1.105 -0.538,2.342 -2.536,2.342 h -2.138 v -4.641 z m 9.845,-0.844 c 0,-3.256 1.962,-5.645 4.602,-5.645 2.657,0 4.618,2.389 4.618,5.645 0,3.234 -1.961,5.645 -4.618,5.645 -2.641,-0.001 -4.602,-2.411 -4.602,-5.645 z m -1.749,0 c 0,4.016 2.444,7.584 6.315,7.584 4.012,0 6.402,-3.59 6.402,-7.584 0,-4.123 -2.46,-7.584 -6.367,-7.584 -3.838,0 -6.35,3.482 -6.35,7.584 z m 17.425,-5.58 h 1.099 c 1.655,0 2.318,0.846 2.336,2.232 0.017,1.238 -0.506,2.41 -2.336,2.41 h -1.099 z m -1.684,-1.813 v 14.785 h 1.685 v -6.424 h 0.715 c 0.872,0 1.586,0.348 3.152,3.387 l 1.56,3.037 h 2.029 c -0.815,-1.41 -1.11,-1.91 -1.614,-2.93 -0.901,-1.846 -1.559,-3.211 -2.634,-4.1 1.265,-0.629 1.975,-1.908 1.975,-3.621 0,-2.561 -1.488,-4.135 -3.893,-4.135 H 46.89 Z m 15.512,3.16 1.908,5.361 h -3.679 z m 0.624,-3.256 h -1.197 l -5.084,14.881 h 1.736 l 1.491,-4.355 h 5.032 l 1.579,4.355 h 1.735 z m 14.854,2.004 h -4.095 v 12.877 h -1.686 v -12.877 h -4.096 v -1.908 h 9.876 v 1.908 z m 2.388,5.485 c 0,-3.256 1.962,-5.645 4.602,-5.645 2.657,0 4.619,2.389 4.619,5.645 0,3.234 -1.962,5.645 -4.619,5.645 -2.64,-0.001 -4.602,-2.411 -4.602,-5.645 z m -1.749,0 c 0,4.016 2.443,7.584 6.316,7.584 4.011,0 6.401,-3.59 6.401,-7.584 0,-4.123 -2.46,-7.584 -6.367,-7.584 -3.837,0 -6.35,3.482 -6.35,7.584 z m 15.549,-7.393 v 14.785 h 1.686 v -14.785 z m 6.51,1.813 h 1.098 c 1.656,0 2.319,0.846 2.336,2.232 0.018,1.238 -0.505,2.41 -2.336,2.41 h -1.098 z m -1.685,-1.813 v 14.785 h 1.686 v -6.424 h 0.716 c 0.87,0 1.586,0.348 3.151,3.387 l 1.559,3.037 h 2.03 c -0.815,-1.41 -1.11,-1.91 -1.614,-2.93 -0.901,-1.846 -1.56,-3.211 -2.634,-4.1 1.265,-0.629 1.976,-1.908 1.976,-3.621 0,-2.561 -1.49,-4.135 -3.894,-4.135 h -2.976 z m 17.913,1.908 h -5.015 v 4.451 h 4.841 v 1.908 h -4.841 v 4.609 h 5.17 v 1.908 h -6.855 v -14.785 h 6.7 z m 8.563,0 h 2.009 c 1.557,0 2.028,1.172 2.028,2.256 0,1.477 -0.821,2.322 -2.098,2.322 h -1.939 z m -1.685,-1.908 v 14.785 h 1.686 v -6.391 h 1.782 c 2.758,0 4.004,-1.82 4.004,-4.143 0,-2.344 -1.178,-4.252 -3.777,-4.252 h -3.695 z m 19.914,14.785 h -1.685 v -6.455 h -6.646 v 6.455 h -1.686 v -14.785 h 1.686 v 6.422 h 6.646 v -6.422 h 1.685 z m 7.438,-11.625 1.908,5.361 h -3.678 z m 0.625,-3.256 h -1.197 l -5.085,14.881 h 1.736 l 1.492,-4.355 h 5.032 l 1.579,4.355 h 1.735 z m 9.058,1.909 h 1.1 c 1.656,0 2.318,0.846 2.335,2.232 0.018,1.238 -0.505,2.41 -2.335,2.41 h -1.1 z m -1.684,-1.813 v 14.785 h 1.684 v -6.424 h 0.715 c 0.873,0 1.587,0.348 3.153,3.387 l 1.558,3.037 h 2.031 c -0.815,-1.41 -1.111,-1.91 -1.614,-2.93 -0.901,-1.846 -1.558,-3.211 -2.635,-4.1 1.266,-0.629 1.976,-1.908 1.976,-3.621 0,-2.561 -1.49,-4.135 -3.893,-4.135 h -2.975 z m 22.178,14.785 h -1.685 v -11.51 l -3.692,5.723 h -0.278 l -3.657,-5.723 -0.035,11.51 h -1.686 v -14.785 h 1.582 l 3.934,6.07 3.953,-6.07 h 1.564 z m 7.615,-11.625 1.909,5.361 h -3.68 z m 0.624,-3.256 h -1.198 l -5.081,14.881 h 1.733 l 1.493,-4.355 h 5.032 l 1.578,4.355 h 1.734 z m 16.874,3.387 c -1.457,-1.064 -2.708,-1.543 -4.078,-1.543 -2.707,0 -4.72,2.41 -4.72,5.666 0,3.32 1.943,5.623 4.789,5.623 1.336,0 2.795,-0.586 4.13,-1.672 v 2.318 c -1.163,0.754 -2.428,1.293 -4.285,1.293 -4.442,0 -6.383,-4.262 -6.383,-7.367 0,-4.514 2.722,-7.801 6.486,-7.801 1.215,0 2.446,0.367 4.061,1.207 z m 9.626,-1.383 h -5.015 v 4.451 h 4.843 v 1.908 h -4.843 v 4.609 h 5.172 v 1.908 h -6.855 v -14.785 h 6.698 z m 12.557,7.073 c 0,3.623 -1.72,5.996 -5.236,5.996 -2.494,0 -4.905,-1.746 -4.905,-5.779 v -9.197 h 1.685 v 8.74 c 0,1.672 0.173,2.367 0.71,3.039 0.675,0.846 1.523,1.258 2.546,1.258 1.299,0 2.234,-0.521 2.772,-1.193 0.604,-0.76 0.743,-1.844 0.743,-3.232 v -8.611 h 1.686 v 8.979 z m 11.663,-7.073 h -4.096 v 12.877 h -1.684 v -12.877 h -4.097 v -1.908 h 9.876 v 1.908 z m 2.359,-1.908 v 14.785 h 1.685 v -14.785 z m 29.999,8.981 c 0,3.623 -1.72,5.996 -5.236,5.996 -2.494,0 -4.907,-1.746 -4.907,-5.779 v -9.197 h 1.686 v 8.74 c 0,1.672 0.174,2.367 0.71,3.039 0.677,0.846 1.524,1.258 2.547,1.258 1.299,0 2.234,-0.521 2.771,-1.193 0.606,-0.76 0.745,-1.844 0.745,-3.232 v -8.611 h 1.686 v 8.979 z m 9.776,-7.073 h -5.015 v 4.451 h 4.843 v 1.908 h -4.843 v 4.609 h 5.172 v 1.908 h -6.857 v -14.785 h 6.7 z m -28.743,-0.16 c 2.621,0 4.548,2.477 4.548,5.711 0,3.018 -1.874,5.58 -4.513,5.58 -3.159,0 -4.739,-2.627 -4.739,-5.623 -0.001,-2.236 1.163,-5.668 4.704,-5.668 z m 1.371,13.057 c 2.864,-0.697 4.926,-3.785 4.926,-7.367 0,-4.342 -2.687,-7.629 -6.228,-7.629 -3.837,0 -6.522,3.113 -6.522,7.584 0,3.693 2.027,6.715 4.959,7.412 1.65,1.504 3.525,2.783 5.815,3 l 1.525,-1.885 c -1.212,0.346 -2.393,0 -4.476,-1.094 v -0.021 z M 279.6,70.691 h 4.244 l -9.101,11.59 v 12.957 h -3.496 V 82.246 l -9.103,-11.555 h 4.246 l 6.567,8.459 z M 3.498,92.064 h 11.079 v 3.168 H 0 V 70.691 h 3.498 z"
   id="path4034"
   inkscape:connector-curvature="0"
   style="fill:#3f454b" />
</svg>