<svg viewBox="0 0 24 24" xmlns="http://www.w3.org/2000/svg"><path d="M11.999 24.001c6.628 0 12.001-5.381 12.001-12C24 5.371 18.627 0 11.999 0 5.37-.001 0 5.37 0 12c0 6.619 5.371 12 11.999 12" fill="#c4084f"/><path d="M11.515 6.727V17.26h3.342v-.946h-2.376V6.727h-.966m-3.35 2.88c.792 0 1.444-.644 1.444-1.438a1.443 1.443 0 1 0-2.885 0c0 .794.648 1.438 1.44 1.438m4.317-7.644c-.131-.004-.359-.004-.482-.004C6.459 1.96 1.952 6.457 1.952 12a9.993 9.993 0 0 0 2.94 7.1 9.99 9.99 0 0 0 7.107 2.955 9.989 9.989 0 0 0 7.103-2.954 9.988 9.988 0 0 0 2.934-7.1v-.46h-7.17v.933h6.219l-.005.142C20.774 17.357 16.807 21.1 12 21.1a9.063 9.063 0 0 1-6.441-2.657 9.064 9.064 0 0 1-2.67-6.444 9.05 9.05 0 0 1 2.67-6.438 9.046 9.046 0 0 1 6.44-2.67c.108 0 .364.006.483.008v-.936" fill="#fff"/></svg>