<svg viewBox="0 0 24 24" xmlns="http://www.w3.org/2000/svg"><path d="m6.985 10.79-.91-6.224-3.739-2.324 1.214 5.87 3.435 2.678Zm1.04 7.11-.643-4.386-3.28-2.732.881 4.253 3.04 2.864h.001Zm-2.547-.484.649 3.136 2.707 2.874-.463-3.164-2.893-2.845Zm8.767-1.359-1.384-1.056.01.248a.143.143 0 0 1-.063.125l-1.048.703 1.135.926.01.012.016.018a.15.15 0 0 1 .016.032.117.117 0 0 1 .004.013.096.096 0 0 1 .004.023l.048 1.092 1.274 1.072-.027-3.207h.005Zm4.743-3.393-.27 3.127-.897-.623.097-1.595c0-.017-.002-.024-.002-.03l-.002-.013a.142.142 0 0 0-.036-.065l-.024-.02-1.928-1.274.028-1.397 3.034 1.89" fill="#123d10"/><path d="m12.288 8.302-.252-5.904-5.67 2.18.927 6.323 4.996-2.6v.001Zm.294 6.879-.185-4.352-4.722 2.688.662 4.524 4.245-2.86Zm.096 2.206L8.662 20.26l.488 3.33 3.667-2.923-.14-3.28Zm1.855-1.327.027 3.219 2.862-2.283.19-3.14-3.079 2.204Zm7.137-5.106-.401 2.97-2.258 1.805.265-3.063 2.395-1.714" fill="#33b652"/><path d="m12.959 17.108-.006-.032-.004-.013a.127.127 0 0 0-.01-.02l-.006-.011a.127.127 0 0 0-.016-.018l-.008-.009-1.136-.928 1.043-.703a.143.143 0 0 0 .063-.125l-.01-.247 1.383 1.056.027 3.207-1.273-1.072-.046-1.085h-.001Zm-5.57-3.593.642 4.385-3.04-2.865-.88-4.252 3.279 2.732Zm5.193 1.666-4.245 2.86-.662-4.524 4.722-2.687.185 4.351ZM12.036 2.4l.253 5.904-4.996 2.6-.927-6.325 5.67-2.178V2.4Zm-5.96 2.173.91 6.223-3.435-2.678-1.214-5.865 3.739 2.324v-.004Zm.053 15.98-.65-3.136 2.894 2.845.463 3.165-2.707-2.874Zm6.69.115L9.15 23.59l-.488-3.33 4.016-2.873.14 3.28Zm4.604-3.671-2.861 2.282-.027-3.219 3.08-2.202-.192 3.139Zm.4-1.829.097-1.594c0-.017-.002-.024-.002-.03 0-.006 0-.01-.002-.013a.142.142 0 0 0-.036-.065l-.024-.02-1.928-1.274.029-1.397 3.034 1.89-.271 3.127-.896-.624h-.001Zm1.19.563.265-3.063 2.395-1.714-.404 2.97-2.258 1.805.003.002Zm2.99-5.097L22 10.612a.11.11 0 0 0-.007-.023l-.006-.013a.137.137 0 0 0-.014-.021l-.009-.01a.144.144 0 0 0-.023-.02l-.011-.008-3.277-1.815a.142.142 0 0 0-.145.003l-2.766 1.69a.046.046 0 0 0-.011.01l-.014.011a.08.08 0 0 0-.012.016l-.01.013c-.004.006-.006.013-.009.02-.003.005-.004.009-.005.014-.002.005-.003.014-.004.022l-.002.014-.031 1.467-1.125-.743a.143.143 0 0 0-.154-.003l-1.62.99-.07-1.646v-.031c0-.006-.003-.01-.005-.015l-.008-.017a.065.065 0 0 0-.01-.014l-.011-.015a.072.072 0 0 0-.014-.011l-.01-.008-1.684-1.132 1.577-.82a.143.143 0 0 0 .077-.134l-.265-6.195-.003-.023a.134.134 0 0 0-.04-.074l-.021-.017-.012-.006L7.992.015a.143.143 0 0 0-.106-.008L2.091 1.81a.236.236 0 0 0-.038.019l-.01.008c-.007.006-.014.012-.02.02l-.012.017a.136.136 0 0 0-.01.017.09.09 0 0 0-.006.023c0 .004-.003.009-.004.014l.001.024.001.02 1.293 6.249a.145.145 0 0 0 .053.084l1.755 1.368-1.27.604c-.008.006-.01.006-.012.006l-.027.023-.01.011a.14.14 0 0 0-.016.025.143.143 0 0 0-.015.047l.001.042.973 4.705c.006.029.021.055.043.075l1.221 1.15-.81.496a.134.134 0 0 0-.052.057.16.16 0 0 0-.016.05.142.142 0 0 0 .002.04l.754 3.645c.005.025.017.05.036.068l3.049 3.236.014.013a.155.155 0 0 0 .036.022c.02.007.038.011.055.011a.141.141 0 0 0 .042-.007l.02-.008.016-.011c.005-.004.008-.004.011-.006l3.921-3.123a.145.145 0 0 0 .054-.119l-.091-2.145 1.31 1.102.03.02.02.006a.146.146 0 0 0 .042.007.144.144 0 0 0 .042-.007l.02-.007c.007-.003.012-.008.019-.013l3.151-2.512c.032-.026.058-.063.054-.104l.096-1.573.956.666c.01.004.012.007.015.008l.017.007.011.005a.146.146 0 0 0 .04.006.159.159 0 0 0 .041-.007l.02-.006c.008-.004.014-.01.021-.014l2.572-2.047a.148.148 0 0 0 .053-.094l.455-3.365v-.027" fill="#231f20"/></svg>