<svg viewBox="0 0 9 9" xmlns="http://www.w3.org/2000/svg" xmlns:xlink="http://www.w3.org/1999/xlink"><defs><path d="M7.36 0C5.136 0 4.312 1.588 3.65 2.864l-.434.816C2.514 5.033 1.99 5.856.639 5.856a.638.638 0 1 0 0 1.277c2.225 0 3.05-1.588 3.712-2.864l.432-.816C5.486 2.1 6.01 1.278 7.36 1.278A.638.638 0 1 0 7.36 0Z" id="a"/></defs><g transform="translate(.7 .934)" fill="none" fill-rule="evenodd"><mask id="b" fill="#fff"><use xlink:href="#a"/></mask><use fill="#FFF" fill-rule="nonzero" xlink:href="#a"/><path d="M7.192-2.894H.809a3.27 3.27 0 0 0-3.27 3.27v6.382a3.27 3.27 0 0 0 3.27 3.27h6.383a3.27 3.27 0 0 0 3.27-3.27V.375a3.27 3.27 0 0 0-3.27-3.27Z" fill="#00DDB3" fill-rule="nonzero" mask="url(#b)"/></g></svg>