<svg viewBox="0 0 8 8" xmlns="http://www.w3.org/2000/svg"><path d="M.3.002a.148.148 0 0 1 .156.134c.098 1.148.518 1.97 1.27 2.471a2.216 2.216 0 0 0-.22.192c.402.282.898.474 1.479.581l-.073.06-.07.066a1.439 1.439 0 0 0-.74-.18l-.125.011a.922.922 0 0 0-.444.19c.255.287.519.373.737.378l.08-.002a.938.938 0 0 0 .35-.094.528.528 0 0 1 .169-.04l.034.005c.019.006.028.018.028.035-.585-.03-1.023 1.256-1.023 2.704 0 .553.145 1.013.384 1.363l.094.126a3.185 3.185 0 0 1-.898-5.207C.711 2.241.268 1.36.166.158A.148.148 0 0 1 .3.002Zm6.007 1.69.045.008a.143.143 0 0 1 .07.223 4.727 4.727 0 0 1-.68.738 3.174 3.174 0 0 1 1.134 2.435c0 .672-.21 1.3-.567 1.813l-.125.167c-.264-.701-.853-.965-1.519-.965-.822 0-1.206-.33-1.206-.943 0-.617.357-.697.567-.742.21-.045.518-.16.594-.223.067-.051.044-.188-.058-.176l-.049.015a.823.823 0 0 1-.145.05l-.059.007a.413.413 0 0 1-.122-.017c.262-.012.295-.123.365-.114l.033.011a.194.194 0 0 0 .086.028l.022-.005c.012-.006.018-.016.026-.023.053-.053-.01-.08.049-.183.05-.088-.022-.17-.1-.174l-.039.004-.063.013-.076.002c-.085-.002-.191-.015-.325-.028-.112-.014-.273-.09-.434-.161.728-.005 1.394-.273 1.997-.796a2.73 2.73 0 0 0-.228-.17c.242-.2.47-.446.689-.737a.147.147 0 0 1 .118-.057ZM3.69 1.91c.532 0 1.036.13 1.479.362-.268.451-.72.778-1.242.88a2.6 2.6 0 0 1-.559-.009c-.152-.017-.3-.04-.442-.071a1.844 1.844 0 0 1-.894-.697 3.168 3.168 0 0 1 1.658-.465ZM1.761.484a.122.122 0 0 1 .085.148c-.085.33-.13.567-.13.71 0 .39.12.747.322 1.046a1.943 1.943 0 0 0-.183.124c.007.031.037.061.068.092h-.022l.007.01c.023.03.048.06.074.089l.078.083a2.839 2.839 0 0 1-.344-.192l.112-.085a2.089 2.089 0 0 1-.353-1.166c0-.166.049-.425.138-.774a.122.122 0 0 1 .148-.085Zm3.784 1.082a.116.116 0 0 1 .098.139c-.044.25-.13.487-.254.697l.016.01.005-.015.029.022c.018.011.032.018.032.039l.025.01a3.345 3.345 0 0 1-.252.197l-.128.085a2.21 2.21 0 0 0 .26-.348 2.866 2.866 0 0 0-.202-.112 1.92 1.92 0 0 0 .233-.626.116.116 0 0 1 .138-.098Z" fill="#0A1A72" fill-rule="nonzero"/></svg>