<svg viewBox="0 0 9 9" xmlns="http://www.w3.org/2000/svg"><path d="m6.949 6.239.05.009c.154.028.358.095.57.188l.005.003c.042.019.097.044.151.071l.02.01c.11.054.212.11.212.115a3.993 3.993 0 0 1-2.519 1.67 3.999 3.999 0 0 1-3.987-1.528l-.004-.006-.011-.015a1.053 1.053 0 0 1-.084-.124 4.8 4.8 0 0 1 .371-.188l.004-.002c.203-.09.42-.163.578-.193l.028-.006c.031-.005.03-.004.035.004.005.009.055.057.108.105l.016.014c.032.03.063.057.084.075.635.53 1.515.785 2.414.702.733-.068 1.423-.375 1.897-.844l.062-.06Zm.31-.396.028-.045c.009-.013.011-.014.026-.012l.08.009c.235.027.503.082.803.166l.12.034-.012.024a4.41 4.41 0 0 1-.079.163l-.015.03a2.228 2.228 0 0 1-.092.17.06.06 0 0 1-.015-.006l-.006-.003-.009-.005a2.232 2.232 0 0 1-.044-.023l-.01-.005a4.34 4.34 0 0 0-.776-.332l-.02-.006a.732.732 0 0 1-.065-.021c-.002-.001.001-.007.006-.016l.002-.003a.354.354 0 0 1 .012-.02l.005-.006a1.44 1.44 0 0 0 .006-.008l.008-.012a2.6 2.6 0 0 0 .047-.073Zm-5.254-.059c.005 0 .017.016.037.047l.005.007c.014.024.036.057.052.081l.012.017a.186.186 0 0 1 .026.045 4.22 4.22 0 0 0-.52.19l-.01.005c-.088.038-.262.124-.345.17l-.01.006a.267.267 0 0 1-.062.028 4.629 4.629 0 0 1-.182-.354l-.014-.031.069-.02c.31-.091.633-.157.911-.187l.031-.004ZM5.108 3.95a.98.98 0 0 1 1.729.816.983.983 0 0 1-.855.755h-.006a.82.82 0 0 1-.066.004h-.03l-.003.043a.657.657 0 0 1-.52.597.823.823 0 0 1-.253.002.693.693 0 0 1-.242-.1.803.803 0 0 1-.175-.174l-.016-.024a.764.764 0 0 0-.013-.02l-.001-.001c-.002-.002-.014.014-.029.035l-.003.006a.66.66 0 0 1-.41.276.82.82 0 0 1-.254.002.69.69 0 0 1-.241-.1.821.821 0 0 1-.176-.175.663.663 0 0 1-.111-.323l-.003-.044H3.4a.989.989 0 0 1-.678-.3.976.976 0 0 1-.128-1.193.99.99 0 0 1 .724-.458.977.977 0 0 1 .799.282.98.98 0 0 1 .275.534.98.98 0 0 1-.581 1.057l-.01.004c-.06.026-.087.044-.108.074v.002a.192.192 0 0 0-.037.121.268.268 0 0 0 .033.153c.025.05.067.096.123.133l.008.005a.492.492 0 0 0 .654-.117l.002-.003a.516.516 0 0 0 .07-.139c0-.004-.011-.01-.027-.016h-.002a.305.305 0 0 1-.103-.07.202.202 0 0 1-.044-.093c-.008-.068.04-.141.122-.181a.32.32 0 0 1 .16-.036h.003c.067 0 .107.008.163.036a.207.207 0 0 1 .12.143.097.097 0 0 1-.003.054.225.225 0 0 1-.018.048.261.261 0 0 1-.132.1l-.027.01.011.03a.49.49 0 0 0 .731.227.32.32 0 0 0 .154-.254c.004-.078-.014-.132-.06-.177L5.591 5.5a.2.2 0 0 0-.073-.045l-.004-.001a.98.98 0 0 1-.602-1.037.998.998 0 0 1 .195-.467Zm2.456 1.326h.084l.061.002c.09.001.155.003.218.006h.012l.011.001.018.001.161.012h.006l.114.01.022.003c.13.014.256.03.261.035.005.004-.026.12-.063.239l-.003.008-.005.015-.005.016-.036.11-.072-.021a7.02 7.02 0 0 0-.599-.142l-.014-.003a6.877 6.877 0 0 0-.076-.014l-.022-.004-.012-.001-.042-.007a2.512 2.512 0 0 0-.136-.02c-.006 0-.011-.003-.013-.005a.181.181 0 0 1 .015-.049l.002-.006.021-.058.002-.005.004-.01a2.68 2.68 0 0 0 .007-.02l.003-.01.018-.057.007-.02v-.001c.002-.003.013-.005.051-.005Zm-6.031.002h.032c.119-.003.23-.001.231.003l.004.011.018.056.003.01.037.106.002.004c.01.025.016.047.015.05-.001.001-.006.003-.01.003h-.002c-.032 0-.31.05-.466.083l-.012.002c-.055.012-.129.03-.202.048l-.038.01a2.779 2.779 0 0 0-.252.07.911.911 0 0 1-.055-.156l-.006-.019a1.24 1.24 0 0 1-.055-.213 2.09 2.09 0 0 1 .211-.03l.019-.002.016-.001a5.9 5.9 0 0 1 .07-.008l.022-.002a5.851 5.851 0 0 1 .418-.025Zm1.853-1.296a.177.177 0 0 0-.108.098l-.01.025v.884l.01.025a.18.18 0 0 0 .083.088l.004.002c.021.01.03.012.058.012H3.441a.104.104 0 0 0 .058-.013.183.183 0 0 0 .08-.08l.012-.025v-.902l-.011-.025a.185.185 0 0 0-.081-.08.195.195 0 0 0-.113-.01Zm2.445 0a.172.172 0 0 0-.1.087l-.012.023v.91l.014.028c.018.033.046.059.079.075l.004.001c.018.008.028.01.058.01h.009a.117.117 0 0 0 .062-.011.172.172 0 0 0 .078-.075l.015-.028v-.91l-.015-.027a.157.157 0 0 0-.138-.088.177.177 0 0 0-.054.005ZM4.43.392 4.436.39c.05-.003.15-.003.251-.002h.037c.101.002.198.004.242.008h.002c.431.038.806.126 1.188.28a4.009 4.009 0 0 1 2.348 2.625c.08.283.132.603.144.884v.023c.002.04.004.058.006.05v-.001a.946.946 0 0 1 .003.11v.045a.728.728 0 0 1-.003.093.236.236 0 0 0-.006.067 3.925 3.925 0 0 1-.042.424l-.002.012a.592.592 0 0 1-.012.066c-.002.003-.017.002-.052-.004l-.012-.002a4.378 4.378 0 0 0-.197-.026l-.014-.002h-.009L8.3 5.038a5.146 5.146 0 0 0-.121-.012h-.006a4.938 4.938 0 0 0-.448-.018H7.57l.003-.025c.016-.132.02-.326.011-.441a2.141 2.141 0 0 0-.309-.938l-.028-.046-.004-.084a6.774 6.774 0 0 0-.155-1.128l-.003-.012c-.047-.197-.113-.41-.137-.437l-.001-.002c-.03-.032-.055-.032-.147-.004h-.003c-.297.092-.637.26-.96.476l-.1.066-.047-.015a3.568 3.568 0 0 0-.758-.147 6.036 6.036 0 0 0-.582.003c-.26.024-.478.066-.705.135l-.077.023-.072-.048a3.96 3.96 0 0 0-.985-.492l-.008-.003c-.07-.02-.093-.023-.115-.013h-.002c-.032.014-.044.04-.084.167-.127.405-.21.914-.24 1.46l-.003.054-.039.066a2.082 2.082 0 0 0-.294 1.282l.003.027.006.06.003.016h-.153c-.276 0-.53.018-.772.055l-.019.003a.517.517 0 0 1-.078.008A4.082 4.082 0 0 1 .713 3.71 4.003 4.003 0 0 1 4.43.392Z" fill="#DF1839" fill-rule="evenodd"/></svg>