<svg viewBox="0 0 24 24" xmlns="http://www.w3.org/2000/svg"><path d="M8.755 6.17h6.49v11.66h-6.49V6.17Z" fill="#ff5f00"/><path d="M9.167 12c0-2.37 1.113-4.47 2.823-5.83a7.37 7.37 0 0 0-4.574-1.586A7.412 7.412 0 0 0 0 12c0 4.1 3.317 7.416 7.416 7.416a7.37 7.37 0 0 0 4.574-1.586A7.405 7.405 0 0 1 9.167 12Z" fill="#eb001b"/><path d="M24 12c0 4.1-3.317 7.416-7.416 7.416a7.37 7.37 0 0 1-4.574-1.586A7.374 7.374 0 0 0 14.833 12c0-2.37-1.113-4.47-2.823-5.83a7.37 7.37 0 0 1 4.574-1.586C20.684 4.584 24 7.92 24 12Z" fill="#f79e1b"/></svg>