<svg stroke-miterlimit="10" style="fill-rule:nonzero;clip-rule:evenodd;stroke-linecap:round;stroke-linejoin:round" viewBox="0 0 1024 1024" xml:space="preserve" xmlns="http://www.w3.org/2000/svg" xmlns:vectornator="http://vectornator.io"><g vectornator:layerName="Untitled" fill-rule="evenodd"><path d="m316.385 435.152-43.285-23.27-39.604 52.779c-1.991 2.46-.748 6.162 2.328 6.91l52.931 13.005-23.906 37.063c-3.622 5.605 3.71 11.783 8.626 7.273l60.81-52.712c2.508-2.172 1.597-6.268-1.598-7.179l-33.889-9.566c-2.631-.748-3.459-4.067-1.497-5.957l19.084-18.346Z" fill="#e8ae2e"/><path d="m229.978 480.32 16.564 4.073c4.937 1.216 6.343 7.554 2.377 10.741l-55.671 44.719c-5.401 4.197-12.401-2.648-8.334-8.139l35.567-47.969a9.122 9.122 0 0 1 9.497-3.425M384.345 416.736c-1.263.313-2.537.606-3.814.87-40.24 7.544-86.101-15.666-86.101-15.666a43.825 43.825 0 0 0-6.767-3.083c-4.389-1.65-8.93-2.864-13.52-3.793-4.764-.961-9.597-1.548-14.452-1.699-5.512-.173-11.055.223-16.486 1.254a68.371 68.371 0 0 0-17.414 5.825c-6.312 3.125-12.095 7.241-17.242 12.044a86.202 86.202 0 0 0-7.979 8.556c-1.165 1.427.383 3.438 2.053 2.69 1.83-.828 3.619-1.608 5.359-2.346 40.411-15.3 76.517 1.153 76.517 1.153l5.693 3.733c8.686 5.279 19.64 8.533 29.732 10.537 17.99 3.498 39.805 5.157 55.854-5.592 3.643-2.439 8.466-7.596 10.651-11.399.363-.627.676-1.285.839-1.911.585-2.408-.87-1.771-2.923-1.173" fill="#e8ae2e"/><path d="M399.262 425.899h-34.133a2.194 2.194 0 0 1-2.195-2.196v-34.13c0-1.214.981-2.196 2.195-2.196h34.133c1.204 0 2.182.982 2.182 2.196v34.13a2.189 2.189 0 0 1-2.182 2.196M336.591 369.742c-4.228-.073-11.783 1.405-15.231.776l-.598-2.7c-1.111-5.116-6.26-8.282-11.337-6.957l-21.621 5.644c-4.015 1.041-6.472 5.095-5.543 9.142l5.836 25.444a15.932 15.932 0 0 0 7.645 10.276c9.548 5.419 19.731 2.729 27.518-5.007a9.062 9.062 0 0 0 2.478-8.383l-2.234-14.472 13.612-6.191c5.077-2.861 5.077-7.471-.525-7.572" fill="#e8ae2e"/><path d="M493.102 467.716c11.347 6.038 23.907 6.514 27.477 6.514h.282v-8.243c-1.981-.049-9.385-.554-22.146-5.289-4.531-1.688-8.901-5.37-12.966-10.941l-.525-.72h34.86v-7.767h-38.632l.08-.525c.313-1.901.393-3.376.414-5.631h-10.001c-.062 2.343-.293 3.911-.779 5.825l-.081.331h-36.861v7.767h33.747l-.404.689c-3.117 5.268-7.363 8.911-12.621 10.801-12.381 4.44-19.682 5.349-21.463 5.512v8.209c3.956-.119 16.678-1.799 27.417-6.542 6.928-3.055 12.288-7.725 15.948-13.885l.334-.567.417.518c3.599 4.508 9.212 10.587 15.503 13.944M492.151 387.66l-5.139 8.09h-19.588l-5.139-8.098a5.514 5.514 0 0 0-4.559-2.387h-6.473l6.341 10.485h-21.815v7.332h36.631v7.454h-31.968v7.332h31.968v7.453h-38.187v7.283h85.861v-7.283h-38.198v-7.453h31.976v-7.332h-31.976v-7.454h36.642v-7.332h-21.696l6.351-10.485h-6.472a5.503 5.503 0 0 0-4.56 2.395M614.379 465.987v-79.113h-80.815v87.385h72.543c4.56 0 8.272-3.71 8.272-8.272m-8.518-3.591a3.338 3.338 0 0 1-3.337 3.338h-60.595v-70.032h63.932v66.694Z" fill="#462e14"/><path d="M590.348 454.923v-35.225h11.037v-7.311h-11.037v-11.661h-8.435v11.661h-35.272v7.311h33.221l-28.398 24.779v10.477l30.449-26.578v22.633c-.018 1.072-.867 1.903-1.887 1.903h-11.835v7.492l16.689-.01a5.555 5.555 0 0 0 5.468-5.471M673.531 465.906v-20.701h15.958a5.577 5.577 0 0 0 5.572-5.582V411.67h-30.004v62.56h8.474v-.153h39.034v-8.171h-39.034Zm0-45.762h14.058v12.328a4.267 4.267 0 0 1-4.261 4.259h-9.797v-16.587ZM627.081 474.078h33.657v-8.171h-10.022v-25.121h10.022v-6.242h-10.022V422.35h4.631a3.613 3.613 0 0 0 3.61-3.611h.041V387.56h-.041v-.505h-30.178v35.295h13.471v43.557h-4.994v-36.924h-8.477v36.924h-1.698v8.171Zm10.175-60.204v-18.353h13.266v15.057a3.296 3.296 0 0 1-3.296 3.296h-9.97Z" fill="#462e14"/><path d="M690.994 447.512v8.473h15.301a5.012 5.012 0 0 0 5.009-5.015v-57.545h-30.13l.274-.292c3.521-3.793 6.261-6.918 7.092-7.858h-12.096c-3.713 4.308-8.225 9.031-11.389 12.267v11.661c2.203-1.81 4.875-4.27 7.93-7.283l.293-.303v.282h29.56v40.787a4.823 4.823 0 0 1-4.823 4.826h-7.021ZM760.201 387.621h8.354v18.69h-8.354v-18.69ZM771.234 418.526v-8.352H757.52v8.352h5.318v47.301h-4.753v8.344h58.446v-8.344h-45.349v-47.301h.052ZM754.487 472.52v-85.415h-29.206v86.922h8.352V443.92h12.499v21.905H740.6v8.347h12.238a1.65 1.65 0 0 0 1.649-1.652m-8.355-36.952h-12.499v-17.041h12.499v17.041Zm0-25.395h-12.499v-14.716h12.499v14.716Z" fill="#462e14"/><path d="M815.56 461.689v-9.841l-9.294-8.15 5.602-4.914v-9.851l-11.215 9.841-13.025-11.428h19.223a5.016 5.016 0 0 0 5.017-5.017v-35.223h-35.337v71.559h17.699v-8.352h-9.344V434.79l30.674 26.899Zm-30.674-66.231h18.628v7.847h-18.628v-7.847Zm0 16.202h18.63v4.51a2.824 2.824 0 0 1-2.824 2.822h-15.806v-7.332ZM432.958 508.614h41.141v3.64h-41.141v-3.64ZM506.732 500.837l3.399 1.204c-2.651 7.555-5.742 14.664-9.273 21.307a43.32 43.32 0 0 0-3.4-1.859c3.18-5.351 6.274-12.238 9.274-20.652m9.854-9.061h3.681v34.304c0 3.59-1.941 5.379-5.835 5.379-1.551 0-3.604-.038-6.17-.119a100.41 100.41 0 0 0-.699-3.896c2.651.254 4.671.375 6.077.375 1.965 0 2.946-.88 2.946-2.651v-33.392Zm8.603 10.627 3.107-1.483a377.544 377.544 0 0 1 10.262 20.114l-3.759 1.781c-3.371-7.808-6.573-14.615-9.61-20.412M563.409 495.207h14.281v33.734h-3.268v-3.438h-7.736v3.935h-3.277v-34.231Zm11.013 3.062h-7.736v10.478h7.736v-10.478Zm-7.736 24.171h7.736v-10.721h-7.736v10.721Zm12.378-22.017h14.685v-9.154h3.316v9.154h5.877v3.063h-5.877v22.26c0 3.702-1.773 5.551-5.299 5.551-1.598 0-3.943-.039-7.042-.119-.127-1.002-.35-2.154-.655-3.48 2.894.223 5.16.334 6.788.334 1.931 0 2.892-.981 2.892-2.941v-21.605h-14.685v-3.063Zm4.632 7.037c2.206 4.029 3.873 7.242 5.007 9.642-.72.331-1.825.877-3.309 1.657-1.082-2.62-2.627-5.888-4.642-9.81l2.944-1.489ZM669.089 491.859l-.826 1.028c4.631 6.069 10.791 10.641 18.457 13.703a67.03 67.03 0 0 0-2.198 3.309c-7.281-3.588-13.391-8.404-18.333-14.441-4.22 5.463-10.457 10.457-18.7 14.977a40.041 40.041 0 0 0-2.074-3.104c8.526-4.28 14.97-9.434 19.327-15.472h4.347Zm-21.771 35.342h17.09v-7.2H651.01v-3.024h13.398v-6.371h-11.873v-3.024h27.233v3.024h-11.919v6.371h13.449v3.024h-13.449v7.2h17.048v3.068h-37.579v-3.068ZM709.625 520.244c1.548-.375 3.246-.8 5.095-1.284v-14.148H710v-2.983h4.72v-10.053h3.107v10.053h4.46v2.983h-4.46v13.289c1.374-.404 2.829-.829 4.378-1.295 0 1.274.031 2.356.082 3.236-4.46 1.295-8.497 2.548-12.085 3.762l-.577-3.56Zm21.734 8.86c3.143-2.224 5.937-4.935 8.373-8.132-.963-4.155-1.629-10.555-2.004-19.226h-10.721v6.454h8.365c-.062 4.855-.153 9.072-.293 12.632-.142 3.389-1.812 5.085-5.007 5.085a96.57 96.57 0 0 1-3.065-.039 49.193 49.193 0 0 0-.707-3.226c1.215.13 2.307.202 3.278.202 1.597 0 2.436-.94 2.516-2.812.143-2.679.213-5.682.213-9.022h-5.339c-.101 4.947-.497 8.8-1.204 11.541-.849 3.255-2.467 6.431-4.833 9.525a36.037 36.037 0 0 0-2.527-2.363c2.252-2.895 3.749-5.738 4.468-8.526.687-2.672 1.033-7.05 1.033-13.118v-9.313h13.704a643.945 643.945 0 0 1-.174-7.495h3.275a208.62 208.62 0 0 0 .042 7.495h10.226v2.98h-10.123c.241 6.483.697 11.684 1.344 15.606 1.942-3.124 3.612-6.625 5.007-10.518l3.063 1.447c-2.133 5.108-4.531 9.545-7.159 13.31.505 1.859 1.132 3.316 1.859 4.367.749 1.103 1.396 1.66 1.942 1.66.526 0 .86-.386 1.002-1.165.223-1.212.425-3.143.616-5.792a31.3 31.3 0 0 0 3.024 1.121c-.274 2.701-.525 4.642-.748 5.836-.526 2.506-1.608 3.762-3.265 3.762-1.771 0-3.34-.922-4.725-2.773-.769-1.02-1.434-2.333-2.001-3.951-2.234 2.718-4.634 5.015-7.182 6.897-.637-.782-1.395-1.59-2.273-2.449m10.92-35.679 1.903-1.983a81.59 81.59 0 0 1 5.137 4.176l-2.113 2.278a59.911 59.911 0 0 0-4.927-4.471M791.64 528.193c6.092.112 14.05.052 23.881-.16-.479 1.1-.932 2.162-1.367 3.184-9.831.08-17.414.06-22.765-.041-4.994-.14-8.487-1.74-10.478-4.8-.797.634-2.405 2.395-4.833 5.297l-1.779-3.521a228.043 228.043 0 0 1 5.126-4.51v-14.441H774.7v-3.024h7.951v18.122c1.96 2.429 4.955 3.734 8.989 3.894m-13.085-36.377c2.043 2.397 4.169 5.087 6.372 8.069l-2.972 1.984a96.646 96.646 0 0 0-5.97-8.192l2.57-1.861Zm7.12 17.75h12.381c.046-.578.08-2.885.08-6.908H787.21v-2.892h14.193c2.708-3.368 4.65-6.2 5.833-8.497l3.319 2.033c-1.134 1.437-2.956 3.591-5.463 6.464h8.609v2.892h-12.339c0 3.449-.013 5.753-.042 6.908h13.37v2.902h-13.665c-.049.717-.16 1.406-.324 2.063a313.41 313.41 0 0 1 12.705 8.818l-2.193 2.814c-4.249-3.339-8.101-6.223-11.55-8.649-1.874 3.862-5.574 6.93-11.086 9.193a32.21 32.21 0 0 0-2.237-2.61c7.092-2.811 10.892-6.695 11.42-11.629h-12.085v-2.902Zm4.51-16.345 2.488-1.861c1.406 1.517 3.024 3.412 4.847 5.665l-2.866 1.991c-1.647-2.346-3.143-4.277-4.469-5.795" fill="#462e14"/></g></svg>