<?xml version="1.0" encoding="utf-8"?>
<!-- Generator: Adobe Illustrator 19.0.0, SVG Export Plug-In . SVG Version: 6.00 Build 0)  -->
<svg version="1.1" id="圖層_1" xmlns="http://www.w3.org/2000/svg" xmlns:xlink="http://www.w3.org/1999/xlink" x="0px" y="0px"
	 width="329.4117737px" height="119.2867584px" viewBox="0 0 329.4117737 119.2867584"
	 style="enable-background:new 0 0 329.4117737 119.2867584;" xml:space="preserve">
<style type="text/css">
	.st0{fill-rule:evenodd;clip-rule:evenodd;fill:#FFD100;}
</style>
<g>
	<g>
		<path d="M196.0250854,78.206543c7.7012634,9.2814102,22.017746,15.205658,37.5207062,16.3901062l-5.3323669,9.2814178
			c-14.3164825-1.6785812-30.806366-8.3922424-39.988678-20.2414093
			c-8.4920044,11.8491669-24.6852722,19.0569611-44.9266815,20.5380249l3.1596527-9.9724045
			c13.7245941-0.1975174,27.9433289-7.3068848,34.065094-15.9957352H144.581604v-8.5904312h38.3107758V61.519146h-36.1387177
			v-8.4913368h36.1387177v-6.6152306h-36.1387177v-8.4920044h36.1387177v-6.9111805H144.581604v-8.5904293h15.5022888
			l-0.888504-7.3068857h10.7624664c0.3950348,2.369565,0.6909943,4.8382254,1.0860291,7.3068857h34.4594727
			c0.4941254-2.4686604,0.7900696-4.9373207,0.988266-7.3068857h10.9593201
			c-0.1981812,2.369565-0.4927826,4.8382254-0.8891602,7.3068857h15.5029449v8.5904293H193.456665v6.9111805h36.1400604v8.4920044
			H193.456665v6.6152306h36.1400604v8.4913368H193.456665v8.0969658h38.6080627v8.5904312H196.0250854z"/>
		<path d="M329.4117737,22.3345509v80.875145h-79.2863922c-3.5553589,0-5.5292053-1.9751968-5.5292053-5.4307861V16.9037666
			H323.78479C327.3388062,16.9037666,329.4117737,18.878294,329.4117737,22.3345509z M319.044342,94.4217453V25.6917152h-64.0807343
			v68.7300262H319.044342z M260.1968689,46.2150574v-8.2944832h34.4594727v-7.5037384h10.1692505v7.5037384h9.6764526v8.2944832
			h-9.6764526v23.4010544c0,7.9978714-0.9869385,13.9221191-3.1589661,20.0438919h-11.0584412
			c3.3571777-7.1093674,4.0481567-12.1451187,4.0481567-19.7479477V46.2150574h-9.2814026
			c-1.3819885,15.3040886-7.3075562,34.2619553-13.527771,43.4449463h-11.255249
			c6.0233459-8.4913406,12.9345093-25.0796356,14.6124268-43.4449463H260.1968689z"/>
	</g>
	<g>
		<path id="XMLID_5_" class="st0" d="M34.4067268,0h50.4733009c11.963974,0,16.3023987,1.2457509,20.6762466,3.584856
			c4.373848,2.3391623,7.8064651,5.7717781,10.1456299,10.1456289c2.3391037,4.3738432,3.5848541,8.7122717,3.5848541,20.6762466
			v50.4732971c0,11.963974-1.2457504,16.3023987-3.5848541,20.676239
			c-2.3391647,4.3738556-5.7717819,7.8064728-10.1456299,10.1456299c-4.373848,2.3391647-8.7122726,3.5848618-20.6762466,3.5848618
			H34.4067268c-11.9639721,0-16.3023987-1.245697-20.676239-3.5848618
			c-4.3738508-2.3391571-7.8064733-5.7717743-10.1456318-10.1456299C1.2456974,101.1824265,0,96.8440018,0,84.8800278V34.4067307
			c0-11.963974,1.2456974-16.3024025,3.584857-20.6762466C5.9240155,9.3566341,9.356638,5.9240184,13.7304888,3.584856
			C18.1043282,1.2457509,22.4427547,0,34.4067268,0z"/>
		<g>
			<path d="M39.1677475,68.9212494c3.8560257,4.6472168,11.0243111,7.6134949,18.7866516,8.2065506l-2.6699181,4.6472092
				c-7.1682816-0.8404617-15.4247818-4.2020035-20.022377-10.1348953
				c-4.2519569,5.9328918-12.3599415,9.5418472-22.4948368,10.2834167l1.5820379-4.9931946
				c6.8719225-0.0988998,13.9912577-3.6585617,17.0564346-8.0090866H13.4099388v-4.301239H32.592186v-4.0541573H14.4974852
				v-4.2516174H32.592186v-3.3122559H14.4974852v-4.2519569H32.592186v-3.460434H13.4099388v-4.301239h7.7620068
				l-0.4448738-3.6585655h5.3887825c0.1977978,1.1864433,0.3459778,2.4225044,0.5437737,3.6585655h17.2538967
				c0.2474136-1.2360611,0.3955917-2.4721222,0.4948273-3.6585655h5.4873466
				c-0.0992355,1.1864433-0.2467422,2.4225044-0.4452095,3.6585655h7.7623405v4.301239H37.8817329v3.460434h18.0953712v4.2519569
				H37.8817329v3.3122559h18.0953712v4.2516174H37.8817329v4.0541573h19.3310966v4.301239H39.1677475z"/>
			<path d="M105.9545975,40.9460869V81.440361H66.2558212c-1.7801666,0-2.7684822-0.9889832-2.7684822-2.7192001V38.2268867
				h39.6498375C104.9166718,38.2268867,105.9545975,39.2155342,105.9545975,40.9460869z M100.7636108,77.0402222V42.6270218
				H68.6783295v34.4132004H100.7636108z M71.2986298,52.90308v-4.1530571h17.2538986v-3.7571297h5.0917511v3.7571297h4.8450089
				V52.90308h-4.8450089v11.7169304c0,4.0045471-0.4941559,6.9708252-1.5817032,10.0360031h-5.5369644
				c1.6809387-3.5596695,2.0269165-6.0810699,2.0269165-9.8878174V52.90308h-4.6472168
				c-0.6919556,7.6627731-3.658905,17.1550026-6.7733612,21.7529335h-5.6355286
				c3.0158997-4.2516251,6.4763336-12.5574036,7.3164673-21.7529335H71.2986298z"/>
		</g>
	</g>
</g>
</svg>
