<svg viewBox="0 0 24 24" xmlns="http://www.w3.org/2000/svg"><defs><linearGradient gradientTransform="scale(-10.94738) rotate(52.651 .526 -1.846)" gradientUnits="userSpaceOnUse" id="a" x1="0" x2="1" y1="0" y2="0"><stop offset="0" stop-color="#0869e1"/><stop offset=".13" stop-color="#0869e1"/><stop offset=".87" stop-color="#0064e0"/><stop offset="1" stop-color="#0064e0"/></linearGradient></defs><path d="M12.326 7.39c-1.914-2.436-3.514-3.364-5.43-3.364C2.992 4.026 0 9.107 0 14.486c0 3.365 1.628 5.488 4.356 5.488 1.963 0 3.374-.925 5.884-5.312l1.766-3.12c.252.407.517.845.797 1.316l1.177 1.98c2.292 3.836 3.57 5.136 5.884 5.136 2.657 0 4.136-2.151 4.136-5.587 0-5.632-3.06-10.361-6.775-10.361-1.968 0-3.507 1.482-4.9 3.365Zm3.68 5.682L14.6 10.726c-.381-.62-.746-1.189-1.098-1.71 1.268-1.958 2.315-2.933 3.559-2.933 2.584 0 4.652 3.805 4.652 8.48 0 1.782-.583 2.815-1.793 2.815-1.159 0-1.712-.765-3.913-4.306ZM2.596 14.53c0-3.905 1.947-7.898 4.267-7.898 1.257 0 2.307.726 3.916 3.03-1.527 2.342-2.453 3.812-2.453 3.812-2.034 3.19-2.738 3.904-3.871 3.904-1.166 0-1.86-1.023-1.86-2.848Z" fill="#0265e0"/><path d="M6.863 6.632c1.716 0 3.047 1.353 5.94 6.226l.176.297 1.62-2.43c-3.05-4.961-5.082-6.7-7.702-6.7l-.034 2.607Z" fill="url(#a)"/></svg>