<svg clip-rule="evenodd" fill-rule="evenodd" stroke-linejoin="round" stroke-miterlimit="2" viewBox="0 0 560 400" xmlns="http://www.w3.org/2000/svg" xmlns:xlink="http://www.w3.org/1999/xlink"><linearGradient id="a" gradientTransform="matrix(-34.4914 -45.1957 45.1957 -34.4914 146.179 206.315)" gradientUnits="userSpaceOnUse" x1="0" x2="1" y1="0" y2="0"><stop offset="0" stop-color="#0869e1"/><stop offset=".13" stop-color="#0869e1"/><stop offset=".87" stop-color="#0064e0"/><stop offset="1" stop-color="#0064e0"/></linearGradient><g fill-rule="nonzero"><g fill="#1c2b33"><path d="m225.353 164.834h15.578l26.488 47.915 26.487-47.915h15.241v78.733h-12.709v-60.343l-23.227 41.785h-11.922l-23.226-41.785v60.343h-12.71z"/><path d="m359.422 198.267c-2.662-2.717-6.149-4.077-10.46-4.077-4.199 0-7.714 1.388-10.544 4.162-2.832 2.775-4.622 6.505-5.371 11.191h30.931c-.376-4.799-1.894-8.557-4.556-11.276m-9.279 46.706c-5.887 0-11.06-1.304-15.521-3.909-4.462-2.605-7.94-6.214-10.433-10.825-2.493-4.612-3.739-9.898-3.739-15.859 0-6.036 1.218-11.379 3.655-16.028 2.437-4.648 5.821-8.285 10.151-10.91 4.33-2.624 9.307-3.937 14.931-3.937 5.586 0 10.394 1.322 14.425 3.965 4.03 2.643 7.132 6.346 9.307 11.107 2.174 4.762 3.262 10.347 3.262 16.759v3.486h-43.134c.787 4.8 2.727 8.576 5.821 11.332 3.093 2.756 7.001 4.133 11.725 4.133 3.786 0 7.048-.562 9.785-1.687 2.737-1.124 5.305-2.83 7.705-5.117l6.748 8.267c-6.711 6.149-14.94 9.223-24.688 9.223"/><path d="m391.591 195.315h-11.697v-10.404h11.697v-17.208h12.26v17.208h17.771v10.404h-17.771v26.376c0 4.386.749 7.516 2.249 9.391 1.499 1.875 4.068 2.812 7.705 2.812 1.611 0 2.981-.065 4.105-.197 1.125-.131 2.362-.31 3.712-.534v10.291c-1.387.412-2.953.75-4.696 1.013-1.743.261-3.571.393-5.483.393-13.235 0-19.852-7.235-19.852-21.707z"/><path d="m473.249 205.438c-1.312-3.337-3.384-5.97-6.214-7.902-2.831-1.93-6.102-2.896-9.813-2.896-5.25 0-9.43 1.763-12.541 5.286-3.113 3.525-4.668 8.286-4.668 14.285 0 6.037 1.499 10.816 4.499 14.341 2.999 3.524 7.067 5.286 12.204 5.286 3.786 0 7.16-.975 10.122-2.925 2.961-1.948 5.099-4.573 6.411-7.873zm12.26 38.129h-12.035v-8.211c-2.137 3.075-4.856 5.446-8.154 7.114-3.3 1.668-7.049 2.503-11.248 2.503-5.173 0-9.757-1.322-13.75-3.965s-7.133-6.28-9.419-10.91c-2.288-4.63-3.431-9.926-3.431-15.887 0-5.999 1.162-11.304 3.487-15.916 2.324-4.611 5.539-8.228 9.645-10.853 4.105-2.624 8.819-3.937 14.143-3.937 4.012 0 7.611.779 10.798 2.334 3.186 1.556 5.829 3.759 7.929 6.608v-7.536h12.035z"/></g><path d="m138.503 179.649c-9.939-12.654-18.25-17.476-28.197-17.476-20.278 0-35.815 26.39-35.815 54.323 0 17.479 8.456 28.504 22.62 28.504 10.195 0 17.527-4.806 30.561-27.59 0 0 5.433-9.595 9.171-16.204 1.309 2.115 2.686 4.39 4.138 6.836l6.112 10.282c11.906 19.924 18.54 26.676 30.56 26.676 13.799 0 21.478-11.175 21.478-29.018 0-29.247-15.887-53.809-35.187-53.809-10.22 0-18.209 7.698-25.441 17.476zm19.113 29.507-7.308-12.188c-1.978-3.217-3.873-6.172-5.701-8.882 6.586-10.166 12.019-15.231 18.48-15.231 13.424 0 24.163 19.764 24.163 44.041 0 9.254-3.031 14.623-9.311 14.623-6.019 0-8.894-3.975-20.323-22.363zm-69.644 7.569c0-20.279 10.11-41.014 22.163-41.014 6.527 0 11.981 3.769 20.336 15.73-7.933 12.168-12.739 19.8-12.739 19.8-10.567 16.565-14.223 20.278-20.107 20.278-6.055 0-9.653-5.316-9.653-14.794z" fill="#0265e0"/><path d="m110.135 175.711c8.911 0 15.823 7.026 30.846 32.331l.916 1.541 8.411-12.615c-15.843-25.768-26.392-34.795-40.001-34.795z" fill="url(#a)"/></g></svg>