<svg viewBox="0 0 24 24" xmlns="http://www.w3.org/2000/svg"><path d="M0 8.21717e-05L11.4171 8.21717e-05L11.4162 11.4171L3.58144e-07 11.4171L0 8.21717e-05Z" fill="#f65314"/><path d="M12.5828 8.21717e-05L23.9998 8.21717e-05C23.9998 3.80577 24.0005 7.61145 23.9992 11.4171C20.1942 11.4165 16.3885 11.4171 12.5834 11.4171C12.5821 7.61145 12.5828 3.80577 12.5828 8.21717e-05Z" fill="#7fbb41"/><path d="M0 12.5822C3.80568 12.5835 7.61137 12.5818 11.4171 12.5835C11.4177 16.3892 11.4171 20.1942 11.4171 23.9999L0 23.9999L0 12.5822Z" fill="#00a1f1"/><path d="M12.5834 12.5835C16.3885 12.5822 20.1942 12.5829 23.9998 12.5829L23.9998 23.9999L12.5828 23.9999C12.5834 20.1942 12.5821 16.3886 12.5834 12.5835Z" fill="#ffbb00"/></svg>
