<svg viewBox="0 0 24 24" xmlns="http://www.w3.org/2000/svg"><path d="M.987 10.779h1.049l-.104.383c.134-.12.28-.225.435-.315a1.06 1.06 0 0 1 .545-.137c.253 0 .461.059.625.178.165.121.29.291.355.486.159-.195.353-.357.573-.48.23-.125.49-.189.752-.184.331 0 .592.095.783.286.191.19.286.454.286.79 0 .115-.013.23-.038.341a6.559 6.559 0 0 1-.086.363l-.531 1.987H4.582l.545-2.034a1.467 1.467 0 0 0 .048-.332c0-.304-.163-.456-.49-.456a.661.661 0 0 0-.503.204 1.228 1.228 0 0 0-.283.536l-.56 2.082H2.292l.545-2.034a1.461 1.461 0 0 0 .048-.332c0-.304-.163-.456-.49-.456a.661.661 0 0 0-.503.204 1.228 1.228 0 0 0-.283.536l-.56 2.082H0l.987-3.698Zm6.597 0h1.049l-.994 3.698H6.59l.994-3.698Zm1.663-.75a.44.44 0 0 1-.449.322l-7.76-.445L8.8 9.474a.44.44 0 0 1 .448.555Zm.469 4.49a2.507 2.507 0 0 1-.863-.332 1.877 1.877 0 0 1-.365-.296l.607-.628a1.585 1.585 0 0 0 1.132.497.555.555 0 0 0 .324-.083.277.277 0 0 0 .117-.242c0-.069-.039-.13-.117-.183a1.914 1.914 0 0 0-.31-.162 4.898 4.898 0 0 1-.415-.19 1.86 1.86 0 0 1-.341-.224.955.955 0 0 1-.235-.286.803.803 0 0 1-.086-.383 1.275 1.275 0 0 1 .103-.514c.068-.157.168-.296.294-.41.136-.121.294-.214.466-.273.2-.07.41-.104.62-.1.148 0 .295.014.439.044a2.458 2.458 0 0 1 .745.29c.096.057.188.123.272.197l-.566.662a1.954 1.954 0 0 0-.503-.303 1.287 1.287 0 0 0-.463-.09.48.48 0 0 0-.3.083.272.272 0 0 0-.107.228c0 .073.043.139.128.196.115.074.236.137.362.19.12.055.24.113.363.172.117.058.228.13.327.214.095.081.175.178.235.287a.765.765 0 0 1 .09.376 1.202 1.202 0 0 1-.428.956 1.393 1.393 0 0 1-.48.258 1.994 1.994 0 0 1-.61.09c-.146 0-.292-.014-.435-.041Zm3.074-.045a.958.958 0 0 1-.638-.921 1.226 1.226 0 0 1 .462-.987c.15-.119.32-.207.504-.259a2.19 2.19 0 0 1 .628-.086 3.182 3.182 0 0 1 1.042.165l.014-.048.027-.127a.732.732 0 0 0 .014-.149.383.383 0 0 0-.152-.314c-.1-.08-.283-.12-.545-.12-.177 0-.355.019-.528.058a2.85 2.85 0 0 0-.459.142l-.166-.829a3.59 3.59 0 0 1 1.373-.262c.502 0 .877.1 1.126.297.248.198.372.478.372.842 0 .095-.008.19-.024.283a4.041 4.041 0 0 1-.059.276l-.545 2.042h-1.014l.11-.428a1.431 1.431 0 0 1-1.104.497 1.26 1.26 0 0 1-.438-.072Zm1.2-.704a.994.994 0 0 0 .273-.162c.083-.069.155-.149.214-.238a.98.98 0 0 0 .131-.287l.028-.096a1.95 1.95 0 0 0-.69-.132.89.89 0 0 0-.542.156.499.499 0 0 0-.21.424.353.353 0 0 0 .13.283c.088.074.206.11.353.11.107.001.214-.019.314-.058Zm3.503-4.33h1.049l-.704 2.608 1.497-1.27h1.367l-1.788 1.443.808 2.256h-1.173l-.525-1.566-.531.428-.304 1.138H16.14l1.353-5.037Zm3.433 5.034a.958.958 0 0 1-.639-.921 1.226 1.226 0 0 1 .463-.987c.15-.119.32-.207.504-.259a2.19 2.19 0 0 1 .627-.086 3.182 3.182 0 0 1 1.043.165l.013-.048.028-.127a.725.725 0 0 0 .014-.149.383.383 0 0 0-.152-.314c-.101-.08-.283-.12-.545-.12-.178 0-.355.019-.528.058-.157.034-.31.082-.459.142l-.166-.829a3.59 3.59 0 0 1 1.373-.262c.502 0 .877.1 1.125.297.249.198.373.478.373.842 0 .095-.008.19-.024.283a3.98 3.98 0 0 1-.059.276l-.545 2.042h-1.014l.11-.428c-.14.156-.308.281-.497.37a1.43 1.43 0 0 1-.607.127 1.26 1.26 0 0 1-.438-.072Zm1.2-.704a.994.994 0 0 0 .273-.162c.082-.069.154-.149.214-.238a.983.983 0 0 0 .131-.287l.028-.096a1.946 1.946 0 0 0-.69-.132.89.89 0 0 0-.542.156.499.499 0 0 0-.21.424.353.353 0 0 0 .13.283c.088.074.205.11.352.11.108.001.214-.019.314-.058Z"/></svg>