<?xml version="1.0" encoding="UTF-8" standalone="no"?>
<!DOCTYPE svg PUBLIC "-//W3C//DTD SVG 1.1//EN" "http://www.w3.org/Graphics/SVG/1.1/DTD/svg11.dtd">
<!-- Created with Vectornator (http://vectornator.io/) -->
<svg height="100%" stroke-miterlimit="10" style="fill-rule:nonzero;clip-rule:evenodd;stroke-linecap:round;stroke-linejoin:round;" version="1.1" viewBox="0 0 140.34 41" width="100%" xml:space="preserve" xmlns="http://www.w3.org/2000/svg" xmlns:vectornator="http://vectornator.io" xmlns:xlink="http://www.w3.org/1999/xlink">
<defs>
<linearGradient gradientTransform="matrix(1 0 0 -1 0 42)" gradientUnits="userSpaceOnUse" id="LinearGradient" x1="20.125" x2="20.125" y1="9.5159" y2="34.0393">
<stop offset="0" stop-color="#fa233b"/>
<stop offset="1" stop-color="#fb5c74"/>
</linearGradient>
</defs>
<g id="Untitled" vectornator:layerName="Untitled">
<path d="M32.71 15.29C32.71 14.99 32.71 14.69 32.71 14.39C32.71 14.14 32.71 13.88 32.7 13.63C32.69 13.08 32.65 12.52 32.55 11.98C32.45 11.43 32.29 10.91 32.03 10.41C31.78 9.92 31.45 9.46 31.06 9.07C30.67 8.68 30.22 8.35 29.72 8.1C29.22 7.84 28.7 7.68 28.15 7.58C27.6 7.48 27.05 7.45 26.5 7.43C26.25 7.42 25.99 7.42 25.74 7.42C25.44 7.42 25.14 7.42 24.84 7.42L15.42 7.42C15.12 7.42 14.82 7.42 14.52 7.42C14.27 7.42 14.01 7.42 13.76 7.43C13.21 7.44 12.65 7.48 12.11 7.58C11.56 7.68 11.04 7.84 10.54 8.1C10.04 8.35 9.59 8.67 9.2 9.07C8.8 9.46 8.48 9.91 8.22 10.4C7.96 10.9 7.8 11.42 7.7 11.97C7.6 12.52 7.57 13.07 7.55 13.62C7.54 13.87 7.54 14.13 7.54 14.38C7.54 14.68 7.54 14.98 7.54 15.28L7.54 24.7C7.54 25 7.54 25.3 7.54 25.6C7.54 25.85 7.54 26.11 7.55 26.36C7.56 26.91 7.6 27.47 7.7 28.01C7.8 28.56 7.96 29.08 8.22 29.58C8.47 30.07 8.8 30.53 9.19 30.92C9.58 31.31 10.03 31.64 10.53 31.89C11.03 32.15 11.55 32.31 12.1 32.41C12.65 32.51 13.2 32.54 13.75 32.56C14 32.57 14.26 32.57 14.51 32.57C14.81 32.57 15.11 32.57 15.41 32.57L24.83 32.57C25.13 32.57 25.43 32.57 25.73 32.57C25.98 32.57 26.24 32.57 26.49 32.56C27.04 32.55 27.6 32.51 28.14 32.41C28.69 32.31 29.21 32.15 29.71 31.89C30.2 31.64 30.66 31.31 31.05 30.92C31.44 30.53 31.77 30.08 32.02 29.58C32.28 29.08 32.44 28.56 32.54 28.01C32.64 27.46 32.67 26.91 32.69 26.36C32.7 26.11 32.7 25.85 32.7 25.6C32.7 25.3 32.7 25 32.7 24.7L32.71 15.29L32.71 15.29Z" fill="url(#LinearGradient)" fill-rule="evenodd" opacity="1" stroke="none"/>
<path d="M25.34 11.26C25.28 11.27 24.74 11.36 24.67 11.37L17.19 12.88L17.19 12.88C16.99 12.92 16.84 12.99 16.72 13.09C16.58 13.21 16.5 13.38 16.47 13.58C16.46 13.62 16.45 13.71 16.45 13.83C16.45 13.83 16.45 21.47 16.45 23.19C16.45 23.41 16.43 23.62 16.28 23.8C16.13 23.98 15.95 24.04 15.73 24.08L15.24 24.18C14.62 24.3 14.22 24.39 13.86 24.53C13.51 24.67 13.25 24.84 13.04 25.05C12.63 25.48 12.46 26.07 12.52 26.61C12.57 27.08 12.78 27.52 13.14 27.86C13.38 28.08 13.69 28.25 14.05 28.33C14.42 28.41 14.82 28.38 15.4 28.26C15.71 28.2 16 28.1 16.27 27.94C16.54 27.78 16.78 27.56 16.96 27.3C17.14 27.04 17.26 26.75 17.33 26.44C17.4 26.12 17.41 25.83 17.41 25.51L17.41 17.4C17.41 16.96 17.53 16.85 17.88 16.77C17.88 16.77 24.1 15.52 24.39 15.46C24.79 15.38 24.99 15.5 24.99 15.92L24.99 21.46C24.99 21.68 24.99 21.9 24.84 22.08C24.69 22.26 24.51 22.32 24.29 22.36C24.13 22.39 23.96 22.43 23.8 22.46C23.18 22.58 22.78 22.67 22.42 22.81C22.07 22.95 21.81 23.12 21.6 23.33C21.19 23.76 21.01 24.35 21.06 24.89C21.11 25.36 21.33 25.8 21.7 26.14C21.94 26.36 22.25 26.53 22.61 26.6C22.98 26.68 23.38 26.65 23.96 26.53C24.27 26.47 24.56 26.38 24.83 26.21C25.1 26.05 25.34 25.83 25.52 25.57C25.7 25.31 25.82 25.02 25.89 24.71C25.96 24.39 25.96 24.1 25.96 23.78L25.96 11.92C25.97 11.49 25.74 11.23 25.34 11.26Z" fill="#ffffff" fill-rule="evenodd" opacity="1" stroke="none"/>
</g>
</svg>
