<svg viewBox="0 0 9 9" xmlns="http://www.w3.org/2000/svg"><defs><linearGradient x1="50%" y1="99.658%" x2="50%" y2="2.15%" id="a"><stop stop-color="#FA233B" offset="0%"/><stop stop-color="#FB5C74" offset="100%"/></linearGradient></defs><g fill="none" fill-rule="evenodd"><path d="M8 2.501v-.286c0-.08 0-.162-.003-.241a3.218 3.218 0 0 0-.048-.525 1.739 1.739 0 0 0-.473-.925A1.739 1.739 0 0 0 6.55.05a3.655 3.655 0 0 0-.525-.047C5.946 0 5.864 0 5.785 0H2.219c-.08 0-.163 0-.242.003a3.218 3.218 0 0 0-.524.048 1.739 1.739 0 0 0-.925.473 1.691 1.691 0 0 0-.477.922c-.032.175-.041.35-.048.525C0 2.05 0 2.133 0 2.212V5.778c0 .08 0 .162.003.242.003.175.016.353.048.524a1.739 1.739 0 0 0 .473.925 1.739 1.739 0 0 0 .925.474c.175.032.35.041.525.047.08.004.162.004.241.004H5.781c.08 0 .163 0 .242-.004.175-.003.353-.015.524-.047a1.739 1.739 0 0 0 .925-.474 1.739 1.739 0 0 0 .474-.925c.032-.175.041-.35.048-.524.003-.08.003-.162.003-.242v-.286L8 2.502Z" fill="url(#a)" transform="translate(.373 .287)"/><path d="m6.03 1.508-.213.035-2.377.48a.325.325 0 0 0-.15.066.246.246 0 0 0-.079.156.386.386 0 0 0-.006.08v2.974c0 .07-.007.137-.054.194-.048.058-.105.077-.175.09l-.156.031a2.54 2.54 0 0 0-.439.111.75.75 0 0 0-.26.166.635.635 0 0 0 .032.893.63.63 0 0 0 .289.15c.117.025.245.015.429-.023.098-.02.19-.05.276-.102a.706.706 0 0 0 .22-.203.776.776 0 0 0 .117-.274c.023-.101.026-.193.026-.295V3.459c0-.14.038-.175.15-.2l2.068-.416c.127-.026.191.012.191.146v1.76c0 .07 0 .14-.048.198-.047.057-.105.076-.175.089-.05.01-.104.022-.155.031a2.54 2.54 0 0 0-.439.112.75.75 0 0 0-.26.165.641.641 0 0 0-.172.496.628.628 0 0 0 .492.543c.118.026.245.016.43-.022a.785.785 0 0 0 .276-.102.706.706 0 0 0 .22-.203.776.776 0 0 0 .117-.273c.022-.102.022-.194.022-.296v-3.77c.003-.136-.07-.219-.197-.21Z" fill="#FFF"/></g></svg>