<?xml version="1.0" encoding="UTF-8"?>
<svg viewBox="0 0 9 9" version="1.1" xmlns="http://www.w3.org/2000/svg" xmlns:xlink="http://www.w3.org/1999/xlink">
    <title>Music</title>
    <defs>
        <linearGradient x1="50%" y1="99.6584493%" x2="50%" y2="2.1499006%" id="linearGradient-1">
            <stop stop-color="#FA233B" offset="0%"></stop>
            <stop stop-color="#FB5C74" offset="100%"></stop>
        </linearGradient>
    </defs>
    <g id="Page-1" stroke="none" stroke-width="1" fill="none" fill-rule="evenodd">
        <g id="Music" transform="translate(0.372666, 0.287160)">
            <path d="M8,2.50139054 C8,2.40603894 8,2.31068733 8,2.21533572 C8,2.13587604 8,2.05323798 7.99682161,1.97377831 C7.99364323,1.79896702 7.98092968,1.62097735 7.94914581,1.44934446 C7.91736194,1.27453317 7.86650775,1.10925705 7.78386969,0.950337704 C7.70441001,0.794596742 7.59952324,0.648390942 7.47556615,0.52443385 C7.35160906,0.400476758 7.20858164,0.295589988 7.0496623,0.216130314 C6.89074295,0.133492253 6.72546683,0.0826380612 6.55065554,0.0508541915 C6.37584426,0.0190703218 6.20103298,0.00953516091 6.02622169,0.00317838697 C5.94676202,3.96176272e-16 5.86412396,3.96176272e-16 5.78466428,3.96176272e-16 C5.68931267,3.96176272e-16 5.59396106,3.96176272e-16 5.49860946,3.96176272e-16 L2.50456893,3.96176272e-16 C2.40921732,3.96176272e-16 2.31386571,3.96176272e-16 2.2185141,3.96176272e-16 C2.13905443,3.96176272e-16 2.05641637,3.96176272e-16 1.97695669,0.00317838697 C1.80214541,0.00635677394 1.62415574,0.0190703218 1.45252284,0.0508541915 C1.27771156,0.0826380612 1.11243544,0.133492253 0.953516091,0.216130314 C0.794596742,0.295589988 0.651569329,0.397298371 0.527612237,0.52443385 C0.400476758,0.648390942 0.298768375,0.791418355 0.216130314,0.947159317 C0.133492253,1.10607867 0.0826380612,1.27135479 0.0508541915,1.44616607 C0.0190703218,1.62097735 0.00953516091,1.79578864 0.00317838697,1.97059992 C0,2.05005959 0,2.13269766 0,2.21215733 C0,2.30750894 0,2.40286055 0,2.49821216 L0,5.49225268 C0,5.58760429 0,5.6829559 0,5.77830751 C0,5.85776718 0,5.94040524 0.00317838697,6.01986492 C0.00635677394,6.1946762 0.0190703218,6.37266587 0.0508541915,6.54429877 C0.0826380612,6.71911005 0.133492253,6.88438617 0.216130314,7.04330552 C0.295589988,7.19904648 0.400476758,7.34525228 0.52443385,7.46920938 C0.648390942,7.59316647 0.791418355,7.69805324 0.950337704,7.77751291 C1.10925705,7.86015097 1.27453317,7.91100516 1.44934446,7.94278903 C1.62415574,7.9745729 1.79896702,7.98410807 1.97377831,7.99046484 C2.05323798,7.99364323 2.13587604,7.99364323 2.21533572,7.99364323 C2.31068733,7.99364323 2.40603894,7.99364323 2.50139054,7.99364323 L5.49543107,7.99364323 C5.59078268,7.99364323 5.68613429,7.99364323 5.7814859,7.99364323 C5.86094557,7.99364323 5.94358363,7.99364323 6.02304331,7.99046484 C6.19785459,7.98728645 6.37584426,7.9745729 6.54747716,7.94278903 C6.72228844,7.91100516 6.88756456,7.86015097 7.04648391,7.77751291 C7.20222487,7.69805324 7.34843067,7.59316647 7.47238776,7.46920938 C7.59634485,7.34525228 7.70123162,7.20222487 7.7806913,7.04330552 C7.86332936,6.88438617 7.91418355,6.71911005 7.94596742,6.54429877 C7.97775129,6.36948749 7.98728645,6.1946762 7.99364323,6.01986492 C7.99682161,5.94040524 7.99682161,5.85776718 7.99682161,5.77830751 C7.99682161,5.6829559 7.99682161,5.58760429 7.99682161,5.49225268 L8,2.50139054 L8,2.50139054 Z" id="Path" fill="url(#linearGradient-1)"></path>
            <path d="M5.6575288,1.2205006 C5.63845848,1.22367898 5.46682559,1.25228447 5.44457688,1.25546285 L3.06714342,1.73539928 L3.06714342,1.73539928 C3.00357569,1.74811283 2.95589988,1.77036154 2.91775924,1.80214541 C2.87326182,1.84028605 2.84783472,1.89431863 2.83829956,1.95788637 C2.83512118,1.97059992 2.83194279,1.9992054 2.83194279,2.03734605 C2.83194279,2.03734605 2.83194279,4.46563369 2.83194279,5.01231625 C2.83194279,5.08224076 2.82558602,5.14898689 2.77791021,5.20619785 C2.73023441,5.26340882 2.67302344,5.28247914 2.60309893,5.29519269 L2.44735797,5.32697656 C2.25029797,5.3651172 2.1231625,5.39372269 2.00874056,5.4382201 C1.89749702,5.48271752 1.81485896,5.5367501 1.74811283,5.60349623 C1.61779897,5.74016687 1.56376639,5.9276917 1.58283671,6.09932459 C1.59872865,6.24870878 1.66547477,6.38855781 1.7798967,6.49662296 C1.85617799,6.56654748 1.95470799,6.62058006 2.06912992,6.64600715 C2.18673023,6.67143425 2.31386571,6.66189909 2.49821216,6.62375844 C2.59674215,6.60468812 2.68891538,6.57290425 2.77473182,6.52205006 C2.86054827,6.47119587 2.93682956,6.40127135 2.99404052,6.31863329 C3.05125149,6.23599523 3.08939213,6.14382201 3.11164084,6.04529201 C3.13388955,5.94358363 3.13706794,5.85141041 3.13706794,5.74970203 L3.13706794,3.17203019 C3.13706794,3.03218117 3.17520858,2.99721891 3.28645213,2.97179182 C3.28645213,2.97179182 5.26340882,2.57449344 5.35558204,2.55542312 C5.48271752,2.52999603 5.54628526,2.56813667 5.54628526,2.70162892 L5.54628526,4.4624553 C5.54628526,4.53237982 5.54628526,4.60230433 5.49860946,4.6595153 C5.45093365,4.71672626 5.39372269,4.73579658 5.32379817,4.74851013 C5.27294398,4.75804529 5.2189114,4.77075884 5.16805721,4.780294 C4.97099722,4.81843464 4.84386174,4.84704013 4.72943981,4.89153754 C4.61819627,4.93603496 4.5355582,4.99006754 4.46881208,5.05681367 C4.33849821,5.19348431 4.28128725,5.38100914 4.29717918,5.55264203 C4.31307112,5.70202622 4.38299563,5.84187525 4.50059595,5.94994041 C4.57687723,6.01986492 4.67540723,6.0738975 4.78982916,6.09614621 C4.90742948,6.1215733 5.03456496,6.11203814 5.2189114,6.0738975 C5.3174414,6.05482718 5.40961462,6.02622169 5.49543107,5.97218911 C5.58124752,5.92133492 5.6575288,5.85141041 5.71473977,5.76877235 C5.77195074,5.68613429 5.81009138,5.59396106 5.83234009,5.49543107 C5.8545888,5.39372269 5.8545888,5.30154946 5.8545888,5.19984108 L5.8545888,1.43027414 C5.85776718,1.2936035 5.78466428,1.21096544 5.6575288,1.2205006 Z" id="Path" fill="#FFFFFF"></path>
        </g>
    </g>
</svg>