<svg stroke-miterlimit="10" style="fill-rule:nonzero;clip-rule:evenodd;stroke-linecap:round;stroke-linejoin:round" viewBox="0 0 68.04 68.04" xml:space="preserve" xmlns="http://www.w3.org/2000/svg"><clipPath id="a"><path d="M0 0h68.04v68.04H0z"/></clipPath><g clip-path="url(#a)"><path d="M0 40.888h68.04v1.687H0v-1.688ZM31.067 25.465 28 29.531l-3.452-4.066h-7.134l5.906 6.98v3.682h6.214v-3.451l5.446-7.21h-3.912ZM35.825 25.465v10.662h14.268v-2.224h-8.668v-1.994h7.748v-2.225h-7.748v-2.071h8.668v-2.148H35.825ZM10.896 25.465 8.44 30.298l-2.455-4.833H.08v10.662h1.457v-6.98l3.606 6.98h3.145l3.068-6.98v6.98h5.446V25.465h-5.906ZM67.963 28.459c0-2.071-1.841-2.992-4.142-2.992H52.468V36.13h5.6v-4.143l3.375 4.143h6.52l-3.682-4.603c2.071-.154 3.682-1.228 3.682-3.069Zm-7.518.92h-2.378v-1.764h2.378c.69 0 1.304.307 1.304.92 0 .538-.613.844-1.304.844Z"/></g></svg>