<svg viewBox="0 0 24 24" xmlns="http://www.w3.org/2000/svg"><path d="M.18 12.166c-.046.255-.086.496-.123.721a4.134 4.134 0 0 0-.057.471.534.534 0 0 0 .133.347c.088.104.212.16.373.166.235-.007.394-.08.475-.219.081-.139.131-.303.15-.493l.32-2.105h.013l.727 2.331c.05.172.122.296.214.373a.564.564 0 0 0 .379.113.563.563 0 0 0 .378-.113c.092-.077.164-.201.215-.373l.726-2.33h.013l.32 2.104c.019.19.069.354.15.493.082.14.24.212.476.22a.485.485 0 0 0 .372-.167.535.535 0 0 0 .134-.347 4.22 4.22 0 0 0-.058-.47 41.705 41.705 0 0 0-.122-.722L4.962 9.73c-.057-.276-.154-.46-.292-.552a.686.686 0 0 0-.42-.127.689.689 0 0 0-.421.112.891.891 0 0 0-.269.372 6.752 6.752 0 0 0-.243.681l-.527 1.632h-.013l-.526-1.632a6.724 6.724 0 0 0-.244-.68.89.89 0 0 0-.268-.373.689.689 0 0 0-.42-.112.689.689 0 0 0-.422.127c-.138.092-.235.276-.291.552L.18 12.167Zm6.134 2.105c-.06.132-.104.24-.132.321a.783.783 0 0 0-.042.252.48.48 0 0 0 .117.298c.08.103.212.16.396.168.174-.004.298-.051.373-.144.075-.093.14-.209.193-.349l1.539-3.59c.028-.061.056-.132.083-.213a.823.823 0 0 0 .043-.239.522.522 0 0 0-.146-.383.537.537 0 0 0-.387-.143.435.435 0 0 0-.34.163c-.087.105-.162.24-.226.403l-.579 1.412-.613-1.585a.636.636 0 0 0-.209-.294.528.528 0 0 0-.323-.1.53.53 0 0 0-.35.129.465.465 0 0 0-.156.358.91.91 0 0 0 .065.263c.041.113.093.241.154.383l.886 2.11-.346.78Z" fill="#f25923"/><path d="M10.863 13.079h-.013l-1.306-3.83a.326.326 0 0 0-.086-.147.213.213 0 0 0-.147-.052.246.246 0 0 0-.175.063.22.22 0 0 0-.065.163c0 .026.008.066.022.12.015.053.039.124.072.213l1.405 3.969c.022.07.054.136.098.197a.232.232 0 0 0 .376 0 .68.68 0 0 0 .098-.197l1.405-3.969c.034-.089.057-.16.072-.214a.481.481 0 0 0 .022-.119.22.22 0 0 0-.065-.163.246.246 0 0 0-.175-.063.212.212 0 0 0-.146.052.325.325 0 0 0-.087.147l-1.305 3.83Zm2.062-3.703a.326.326 0 1 0 .652 0 .326.326 0 0 0-.652 0m.565 1.18c0-.101-.021-.177-.062-.229a.214.214 0 0 0-.177-.078.213.213 0 0 0-.177.078.363.363 0 0 0-.063.228v3.01c0 .1.022.176.063.228.04.052.1.078.177.078a.215.215 0 0 0 .177-.078.366.366 0 0 0 .062-.228v-3.01Zm1.081 1.504c0-.221.033-.439.1-.654.067-.214.175-.393.323-.536a.837.837 0 0 1 .584-.223c.247.006.444.08.59.223.147.143.252.322.315.536.065.215.095.433.094.654.001.22-.03.439-.094.653a1.217 1.217 0 0 1-.315.537c-.146.143-.343.217-.59.222-.248-.005-.445-.08-.593-.222a1.22 1.22 0 0 1-.318-.537 2.188 2.188 0 0 1-.096-.653m2.006-1.286h-.02a1.42 1.42 0 0 0-.444-.395 1.131 1.131 0 0 0-.549-.13c-.341.005-.624.096-.848.271-.223.175-.39.4-.5.674-.109.274-.164.563-.163.866 0 .337.056.642.168.914.113.272.282.489.508.65.226.161.509.243.849.247.208 0 .396-.044.564-.133.168-.088.306-.219.415-.392h.02v.22c0 .1.021.175.062.227.042.052.1.078.177.078a.215.215 0 0 0 .177-.078c.041-.051.062-.127.062-.227v-4.57c0-.1-.02-.176-.062-.228a.213.213 0 0 0-.177-.078.213.213 0 0 0-.177.078.366.366 0 0 0-.062.228v1.778Zm1.561 1.1c.007-.202.049-.396.125-.582a1.15 1.15 0 0 1 .333-.458.853.853 0 0 1 .542-.186.854.854 0 0 1 .542.186c.146.12.257.273.333.458.076.186.117.38.124.582h-1.999Zm2.192.399c.139-.005.229-.037.27-.1a.306.306 0 0 0 .056-.193c0-.302-.057-.584-.17-.845a1.507 1.507 0 0 0-.505-.636c-.224-.162-.503-.245-.837-.25-.333.005-.613.096-.84.271-.225.175-.396.4-.511.674a2.214 2.214 0 0 0-.173.866c-.002.303.053.592.164.866.11.275.284.499.52.674.238.175.544.265.92.271.277-.005.52-.05.725-.137.206-.087.366-.185.48-.296.114-.11.172-.203.174-.28-.001-.09-.022-.153-.063-.185a.241.241 0 0 0-.163-.047c-.072.007-.152.054-.24.142a1.78 1.78 0 0 1-.351.263c-.147.088-.345.135-.595.141a.924.924 0 0 1-.541-.173 1.165 1.165 0 0 1-.366-.44 1.433 1.433 0 0 1-.146-.586h2.192ZM24 12.06c0-.303-.053-.592-.163-.866a1.57 1.57 0 0 0-.501-.674c-.226-.175-.512-.265-.86-.271-.346.005-.633.096-.858.271-.226.175-.393.4-.503.674-.11.274-.165.563-.164.866 0 .337.055.642.168.914.113.272.282.489.508.65.226.161.509.243.848.247.34-.004.623-.086.849-.247.225-.161.395-.378.507-.65.113-.272.17-.577.169-.914m-2.531 0a2.21 2.21 0 0 1 .095-.654 1.22 1.22 0 0 1 .319-.536c.148-.143.345-.217.592-.223.247.006.445.08.593.223.148.143.254.322.318.536a2.2 2.2 0 0 1 .096.654c0 .22-.03.439-.096.653-.064.215-.17.394-.318.537-.148.143-.346.217-.593.222-.247-.005-.445-.08-.592-.222a1.218 1.218 0 0 1-.319-.537 2.204 2.204 0 0 1-.095-.653" fill="#8c9096"/></svg>