<svg xmlns="http://www.w3.org/2000/svg" version="1.0" width="268.223" height="336.246" xml:space="preserve"><g fill="#6A005F"><path fill-rule="evenodd" clip-rule="evenodd" d="M.117 0C17.14 9.924 39.544 16.917 66.38 17.159c27.508.318 50.838-5.055 67.68-15.722 16.969 10.612 40.564 16.147 67.806 15.722 26.337-.347 49.532-7.235 66.291-17.026.319 39.529-.61 77.225-.61 116.568 0 39.079 2.104 79.646-7.9 109.523-4.869 14.656-12.21 26.946-20.484 38.465-8.141 11.41-18.249 21.414-29.101 29.659-11.282 8.594-24.318 14.685-37.563 21.359-11.358 5.721-22.772 11.627-33.838 17.64-1.542.852-3.355 1.41-4.47 2.898-5.963-4.016-12.45-7.237-18.889-10.613-6.487-3.322-13.034-6.729-19.525-10.058-6.703-3.429-13.409-6.355-19.765-9.735-6.359-3.351-12.132-7.26-17.799-11.649-22.267-17-39.448-39.026-49.638-68.343-5.211-15.134-6.703-32.45-7.606-51.208C.117 156.15.57 136.467.57 117.288.57 78.21.016 39.796.016.426-.014.214-.014 0 .117 0zm127.209 14.046c-23.407 10.32-60.28 13.33-90.176 7.291-9.365-1.891-17.877-4.419-25.272-7.848-.985-.479-2.077-1.281-3.302-1.173-.344 36.365.586 74.086.586 109.12 0 18.225-.877 36.845-.16 54.189.799 17.265 2.744 33.65 7.475 47.748 4.659 13.833 10.884 25.725 18.651 36.554 11.599 16.225 25.644 29.688 43.413 39.315 5.988 3.192 12.288 6.039 18.674 8.991 12.45 5.827 24.899 11.916 37.271 17.958 12.336-6.146 24.87-11.972 37.161-17.958 6.332-3.058 12.687-5.666 18.621-8.885 11.811-6.277 21.867-14.709 30.806-24.181a136.555 136.555 0 0 0 30.861-51.927c9.255-28.597 7.338-64.804 7.338-101.408 0-36.867.109-73.18.374-109.518-1.117 0-2.21.693-3.271 1.173-7.689 3.378-15.985 6.197-25.221 8.005-21.733 4.229-48.386 3.591-68.844-.877a116.065 116.065 0 0 1-28.119-10.026c-1.702 1.354-4.228 2.286-6.866 3.457z"/><path fill-rule="evenodd" clip-rule="evenodd" d="M137.089 25.513c11.517 1.25 20.168 7.264 25.379 15.801.692 1.116 1.837 2.926 1.729 3.805-.16.928-.853 1.674-1.729 1.621-1.145-.053-1.464-1.621-2.317-3.031-4.384-7.689-11.487-12.983-21.651-14.767.48 2.343 1.543 4.604 2.449 7.027.852 2.393 1.756 4.866 2.578 7.205.401.427-.052.984 0 1.571 1.836-.133 3.887-.053 3.592 1.994-.398 2.636-8.27.64-11.197 1.303-.32 2.022-.053 4.709-.137 6.971 1.601.956 9.205-.8 10.748.317.453.292.641 1.226.586 1.704-.426 2.874-8.139.533-11.197 1.275-.451 2.396.658 5.747-1.73 5.907-2.288.13-1.647-3.033-1.701-5.772-2.877-1.037-10.749 1.518-11.336-1.25-.796-3.938 8.438-1.092 11.173-2.182.271-1.942.271-4.896 0-6.863-2.552-.96-10.64 1.33-11.173-1.277-.422-2.024 1.598-2.34 3.459-2.128.403-.373-.21-.851 0-1.435 1.862-4.632 3.381-9.604 5.323-14.207-12.293 1.675-20.058 9.125-23.944 19.604 1.333-.054 3.354-.825 6.01-1.277 2.822-.478 8.546-1.782 6.869 2.157-2.313.743-4.949.663-7.344 1.17-2.341.45-4.469 1.274-6.437 1.994-.373.72-.48 1.729-.587 2.739 2.076-.316 4.256-1.221 7.023-1.728 1.991-.346 7.931-1.778 7.344 1.435-.268 1.411-1.969 1.228-3.3 1.304-3.833.242-8.645 1.491-11.067 2.848-.106.506 0 1.65.157 2.287 2.344-.612 4.045-1.117 7.026-1.597 1.86-.238 6.33-1.488 6.756.585.613 2.981-4.628 2.128-7.153 2.58-2.744.509-4.392 1.279-6.039 1.835.61 1.413.636 3.221-.747 3.458-2.872.64-3.192-6.116-3.298-8.855-.107-4.203.477-7.928 1.33-10.775 3.781-12.981 13.887-21.282 28.675-23.488 1.066-1.57 1.066-4.709 3.144-4.498 1.834.189 1.646 3.249 2.734 4.633zm-.983 6.73c-.478-1.223-.956-3.938-2.34-3.698-2.42 5.001-4.044 10.8-6.173 16.2 1.225.056 3.539-.053 4.733 0-.903-4.815 4.577-5.106 3.458 0h4.896a966.32 966.32 0 0 1-4.574-12.502zM66.543 37.962c.714.558-.239 1.433.128 1.993 2.079-.399 4.657 1.198 4.871 2.316.293 1.437-1.304 2.979-.877 4.865 3.512 2.238 4.363 7.133 8.354 8.938 1.728 3.274 2.871 8.222 2.127 12.743-.584 3.433-3.99 3.804-3.298 8.303.32 1.938 1.488 5.85 2.871 6.463.905.4 2.132-.08 3.033.558.718.879.373 2.794-.16 3.619-2.767.506-3.776 3.431-7.18 2.286-1.279-.477-3.512-1.943-4.15-3.031-.428-.693-.374-1.677-.721-2.422-.717-1.623-1.996-2.606-2.738-3.751-2.074.64-8.459-.45-7.447 2.899.479 1.492 5.531.745 3.883 4.575-.586 1.33-4.948 3.193-6.598 3.568-.586.104-1.649.183-2.022.13-.533-.051-1.009-.557-1.701-.72-1.388-.265-3.247.349-4.735 0-.907-.158-3.407-1.939-4.313-2.713-.584-.53-1.752-1.968-1.966-2.582-.666-1.567-.237-2.87-1.919-3.587-.742-.32-1.697-.188-2.548-.427-1.542-.372-3.194-1.625-4.441-.69-1.569 1.728.903 2.473 1.7 3.991.771 1.435.293 2.501.455 4.575-.508.689-1.6 1.939-2.875 2.152-1.73.32-4.072-.984-6.49-1.568-1.57-.4-3.936-.4-4.255-1.995-.213-1.013.793-1.598.98-2.451.294-1.14-.344-2.046.431-2.977-1.091-1.677-.617-4.285-.724-7.315-.103-3.299-.051-5.532.724-7.901.29-.852.343-1.836.61-2.314.427-1.01 3.379-3.377 4.574-3.99 2.711-1.518 7.233-2.714 12.026-2.021 1.009.106 1.914.957 2.868 1.143 1.814.321 4.257-.186 6.176 0 .585-.346 1.062-.716 1.435-1.276.16-3.112-1.596-4.336-2.447-6.464.397-3.142-.533-6.704.584-9.712.293-.85 1.703-3.244 2.45-4.068.714-.823 2.233-1.997 3.137-2.154 1.646-.291 4.417.638 6.015 1.171.9-.639 2.921-.639 4.173-.159zm-8.487 6.49c1.433.349 1.97-1.385 2.608-2.314-.373-.69-.162-1.995-1.176-2.022.137 2.048-.846 2.979-1.432 4.336zm-5.265-.611c.159.212.582.185 1.013.185.371-.852.504-1.991.954-2.712-1.251-.4-2.075 1.517-1.967 2.527zm9.013.479C60.502 45.329 58 46.34 58.8 48.47c.106.026.267 0 .267.107 1.647-.48 2.104-2.237 3.302-3.271 1.009-.854 2.871-1.411 2.711-3.353-1.651-.613-2.232 1.49-3.276 2.367zm0 6.701c.031.057.297.293.297.373.533.345.903-.316 1.542-.373 1.173-.104 2.021.56 2.737.56.693-.664.081-1.888-.717-1.993-.956 1.537-4.332-1.254-3.859 1.433zm9.153-1.433c-.74-.081-1.033.743-.984 1.276.109.983 1.863 2.074 2.875 2.021-.323-.61-1.169-3.192-1.891-3.297zm-12.473 2.151c-1.171.455-1.838 1.519-2.13 2.823.959.397 1.142-.96 1.965-1.091.987.528.961 2.046 2.026 2.419.263.427 1.54-.16 1.594.427 0 .771-1.225.771-2.02 1.171-.853.424-2.424 1.674-3.727 2.475-2.283 1.301-5.265 3.005-1.861 4.521.373-.293-.024-1.013.16-1.358.266-.69 3.084-2.687 3.407-2.741.585-.106 1.246.32 1.754.24 1.488-.186 1.832-1.624 3.136-2.18.824.189 1.653.345 2.773.32 1.297.45.61 2.927 2.121 3.188.693-.954.16-2.288 1.014-3.188-.136-.932-.984-1.174-.88-2.264.24-.557.88-.691 1.438-.904 1.356.983 1.09 3.591 2.423 4.575 1.168-.716 1.462-3.322.741-4.575-.638-1.035-2.604-1.434-3.034-2.232-3.349.025-5.904.849-8.457 1.648-1.008-.849-1.438-2.341-2.443-3.274zm16.491 9.207c1.066-.612.479-2.845-.688-2.9-.51.823-.51 2.872.688 2.9zm-13.49 1.251c.319.771 1.519.61 1.731 1.435-.427 1.597.906 2.396 1.174 3.754-.854 1.222-2.187.104-2.586-.72-.633.106-1.033.427-1.033 1.143 3.297.21 1.49 4.044-.559 4.707-.617.267-1.465 0-2.156.162-.797.212-1.547 1.112-2.421 1.436-1.358.477-2.608.08-3.431.744-.424 1.677-.214 3.752 1.013 3.727 1.222-.056 1.167-2.477 2.418-2.875 1.783.291 1.599-1.12 2.578-1.436.534-.214 1.146.159 1.843 0 1.989-.561 2.521-3.139 3.747-4.629 3.242.4 4.041-2.422 4.148-4.71-1.808.35-3.987.587-4.309-.983-.161-1.144.878-1.647 1.173-2.738-.851-1.468-3.113-.321-3.33.983zm-26.626.45c-.639 0-.504-.772-1.274-.586.105 1.09-.907 1.09-1.171 1.702.158.774 1.171.774 1.434 1.465 2.265-.054 2.876-1.704 4.844-2.023-.374-2.659-2.394-1.434-3.833-.558zm7.025-1.01c-.533.823.051 2.207.849 2.581 1.332-.586.905-2.822-.849-2.581zm7.449 5.853c.611-.718.316-2.556-.745-2.556-.429.587-.637 2.875.745 2.556zm-23.09 1.489c.901.507 3.029.665 3.723-.161-.506-.985-.506-1.832-.426-2.711-1.436.559-2.822 1.302-3.297 2.872zm23.779.666c1.173.211 3.509.506 3.781-.665-.586-1.49-3.989-1.411-3.781.665zm-16.175 2.741c-.635.053-.373-.776-1.012-.718-.849.024-.849.901-1.596 1.01-.291-.109-.478-.319-1.009-.292-.322.292-.799.45-.691 1.114.742-.318.959-.185 1.569.162.238-.269.158-.827.72-.827-.108 2.127-1.413 4.336-3.858 4.546-.239 1.146-.985 1.707-1.728 2.317-.587 2.632.158 5.056 2.716 5.056.183-.479.126-1.224.155-1.914-.743-.694-1.438-1.412-1.143-3.142.4-.347.902-.61 1.704-.584 1.088-1.012 2.046-2.237 2.739-3.725-.478-1.601 1.171-2.713 1.861-1.41 0 .423-.451 1.172.266 1.143.587-.16 0-.583 0-1.01.719-.932 2.288-.984 2.739-2.155-1.089-1.7-2.258-.053-3.432.429zm-6.916 2.631c.8-.664 1.066-2.234.587-3.349-1.438-.001-1.704 2.765-.587 3.349zm18.385.374c.107.533 1.194.266 1.568.159a.56.56 0 0 1 .162-.427c-.213-.343-.643-.556-1.039-.72.159.72-.744.377-.691.988zm12.18 1.73c-.557.261-1.142.449-1.409 1.01-.212.958.372 2.688-.451 3.005-1.382-.985-2.418-.24-3.323.745-.695-.134-.904-.799-1.972-.584-.105.478-.526 2.234.269 2.287.799-.159-.426-1.49.586-1.49.265.693.743 1.12 1.117 1.648-.055 1.066-.429 3.22.158 4.019 1.704-.505.078-4.336 2.181-4.497.69.401.503 1.703.563 2.738.608.269 1.353 1.201 2.419 1.307 1.168.131 3.267-.266 3.725-1.144-.749-.587-1.971-.614-2.557-1.304-.236-.16-.158-.747-.158-1.119-1.408-.955-2.076-3.35-1.436-5.478.212-.694 1.646-1.677.426-2.45-.216.241-.111.853-.138 1.307zm-26.677 8.321v.402c1.274-.134 1.57 1.411 2.607 1.037-.321-.983-1.546-1.703-2.607-1.439zM236.026 81.297c-1.384-.904-3.193.37-4.633.69-1.731.427-3.272.397-3.991 1.889-.32.689-.158 1.462-.424 2.125-1.172 2.795-3.884 3.512-6.015 5.294-1.437.27-3.138-.291-4.866 0-1.171.215-1.728.962-3.591.59-2.659-.481-6.307-2.238-6.892-3.729-1.143-2.868 1.996-3.348 3.884-4.148.509-2.872-1.57-2.42-4.04-2.711-1.17-.161-2.528-.613-3.168-.454-.64.187-2.389 2.394-2.979 3.751-.322.694-.268 1.647-.587 2.288-.851 1.701-4.15 3.538-6.007 3.405-2.37-.079-2.768-2.184-5.458-2.526-.61-1.198-.824-2.899 0-3.619.664-.558 2.476-.265 3.301-.878.984-.69 3.216-6.41 2.448-9.15-.506-1.755-2.797-3.299-3.168-4.708-.105-.531-.158-1.731-.158-2.476 0-3.458.104-8.164 2.182-10.72.854-1.089 2.394-1.647 3.458-2.738 1.911-2.077 2.179-5.429 5-6.146-.078-1.997-.639-3.402-1.011-5.055 1.064-1.304 2.182-2.609 4.869-2.316.451-.636-.562-1.383.131-1.993 1.146-.424 3.248-.533 3.99.16 1.516-.64 3.246-.907 4.923-1.171 2.952-.453 4.627 2.524 5.72 4.496.796 1.384 1.488 2.207 1.731 4.415.101 1.011.024 2.314 0 3.618 0 1.142.131 2.504 0 3.271-.507 2.846-4.606 6.014-.986 7.874 1.89-.24 4.097.375 6.116 0 1.065-.186 2.077-1.037 2.74-1.143 2.158-.373 4.766-.214 6.466 0 4.203.558 7.502 3.299 10.162 5.746.054 1.675 1.304 3.114 1.595 4.976.424 2.978.317 7.687-.133 10.639-.239 1.488-.771 2.899-.29 5.002.213.955 1.061 1.516.983 2.312-.137 1.891-2.531 1.891-4.553 2.449-3.615.986-7.447 2.767-9.043-.85.079-2.133-.238-3.193.586-4.629.748-1.385 2.924-1.863 1.708-3.83zm-23.092-36.845c.052-.932-1.013-1.118-1.28-2.022-.266-.77.346-1.808-.479-2.475-1.755 1.385-.237 4.846 1.759 4.497zm4.15-.427c.533.054.901-.077 1.114-.317-.184-1.251-.691-2.234-1.838-2.555-.235.8.671 1.81.724 2.872zm-11.332-2.072c.103 2.419 2.151 2.553 3.455 3.909 1.013 1.091 1.278 2.529 2.556 2.715 1.462-1.758-1.33-3.776-2.849-4.419-.661-.984-1.461-2.658-3.162-2.205zm-4.736 8.646c0-.348-.536-1.092-1.114-1.011-.645.105-1.763 2.95-1.763 3.298 1.066.079 2.931-1.358 2.877-2.287zm6.011-.427c-.664.079-1.436-.691-1.969-.584-.64.156-1.383 1.783-.32 1.993.641-.397 2.982-.93 3.886 0 .875-.56.452-1.543-.321-1.993-.638-.027-.559.476-1.276.584zm5.636 1.567c-1.431.642-1.487 2.61-2.871 3.274-2.392-.957-5.054-1.597-8.352-1.648-.424.954-2.768 1.383-3.14 2.71-.426 1.357 0 3.193.689 4.098 1.707-.744 1.863-6.756 4.205-3.43-.211.849-.852 1.303-1.041 2.179.961.64.432 2.024.884 3.032 1.755 0 .98-2.472 2.157-3.032.926-.21 2.099-.21 3-.477 1.381.983 2.447 2.818 4.845 1.94 1.277 1.307 3.671 1.812 3.485 4.099 1.093 0 1.781-1.171 1.674-1.837-.107-1.356-3.007-2.475-4.42-3.298-.822-.504-1.488-1.197-2.285-1.598-.959-.451-2.286-.397-2.446-1.434.106-.479.96-.214 1.438-.242 1.063-.505 1.063-2.125 2.177-2.604.747.131 1.091 1.408 1.839 1.091.028-.986-.877-2.287-1.838-2.823zm-17.34 8.434c1.011 1.781 2.126-.797 1.411-2.127-1.147.056-1.253 1.17-1.411 2.127zm10.749 1.04c.396.984 1.169 1.595 1.248 2.845-.612 1.595-2.955.931-4.443.982.345 2.023.743 5.138 4.15 4.498 1.117 1.728 1.968 3.644 3.775 4.735 2.501-.958 2.291 1.541 4.418 1.436 1.274.372 1.222 2.792 2.422 2.875 1.41.104 1.488-2.477 1.036-3.887-1.224-.504-2.317-.077-3.62-.584-.608-.24-1.063-1.064-1.701-1.278-.96-.32-1.992.054-2.871-.32-1.225-.478-2.184-2.338-2.184-3.856.294-.689 1.596-.316 1.759-1.169-.054-.533-.427-.718-.854-.824-.53.824-1.941 1.993-2.739.557.559-1.195 1.518-1.914 1.304-3.909.372-.506 1.436-.346 1.569-1.116-.08-1.44-2.472-2.343-3.269-.985zm26.067 1.913c1.86.398 2.661 1.995 4.892 2.102.211-.744 1.388-.666 1.545-1.465-.427-.559-1.355-.612-1.275-1.702-.854-.186-.64.692-1.439.586-1.381-1.063-3.137-1.862-3.723.479zm-3.883 1.092c.635-.479 1.275-1.518.851-2.581-1.835-.27-2.397 2.127-.851 2.581zm-6.279.717c-.64.374-1.094 1.891-.425 2.556 1.411.342 1.542-2.37.425-2.556zm18.887 4.044c.935.611 2.61.372 3.751.134-.372-1.728-1.838-2.421-3.301-3.006.134.903 0 1.832-.45 2.872zm-23.624.241c.479.769 2.557.688 3.567.425.373-2.155-3.462-2.236-3.567-.425zm16.336 2.869c.688.878 1.992 1.202 2.715 2.024-.057.319-.265.744 0 1.01.902-.076.37-.69.29-1.304 2.152-1.568 1.889 2.181 2.849 3.563.635.937 1.435 1.042 1.754 1.733.529.106 1.117.157 1.594.291 1.227 2.182-2.018 3.167-.74 5.349 3.191.423 3.669-5.296 1.33-6.171 0-.48-.215-.693-.322-1.014-2.393-.32-4.096-2.79-3.883-4.735.531 1.065 1.355.241 2.286.665-.051-.61-.477-.878-.983-1.114-.4.024-.614.292-1.035.292-.373-.319-.641-.825-1.28-1.01-.636 0-.476.848-1.251.718-.933-.777-2.474-2.022-3.324-.297zm10.586 2.768c.824-.798.53-3.139-.688-3.19-.642.955-.459 2.873.688 3.19zm-20.192.534c.346.319.932.319 1.572.319 0-.24.047-.319.152-.479-.526-.347-1.698-1.251-1.724.16zm-10.191 3.033c-.263 1.408 0 2.502-.155 3.99-.747.692-1.544 1.221-1.382 2.447-.748.717-2.288.61-2.743 1.595 1.839 1.012 4.978 1.091 6.173-.455.186-.981-.235-2.604.854-2.738 1.805.371.234 4.069 2.02 4.497.508-.879.348-3.167 0-4.019.665-.425.665-1.435 1.574-1.648.102.479-.322 1.49.262 1.49.583-.348.503-1.81.159-2.287-1.196-.268-1.196.584-2.154.584-.533-1.411-2.024-1.488-3.327-.745-.476-.878-.156-1.783-.264-3.111-1.065-.4-1.385-1.467-1.755-2.21-.535 1.2.369 1.971.738 2.61zm23.786 8.592c1.011-.293 1.757-.851 2.472-1.438-.822-.557-2.472.24-2.472 1.438z"/><path fill-rule="evenodd" clip-rule="evenodd" d="M162.31 49.027c.878-.132 1.142-1.145 2.311-.985 1.813.134 2.238 5.029 2.449 7.448.324 4.256-.053 15.698-4.311 11.896-.105-.933.059-1.572.271-2.157-2.026-1.197-6.069-2.102-9.605-2.447-1.782-.134-4.286.106-3.594-2.29.562-1.915 5.056-.689 6.889-.451 2.85.479 4.497.96 6.731 1.597.478-.373.216-1.464.45-2.154-1.67-1.25-7.338-2.739-11.037-2.981-1.81-.13-3.615.08-3.615-1.728 0-.823.638-1.064 1.169-1.597 5.157.081 9.336 1.093 13.196 2.421 1.063-3.613-3.672-4.069-6.336-4.733-2.658-.614-5.373-.746-7.447-.982-1.168-.587-1.062-2.955.718-3.009 3.302-.083 9.602 1.167 11.761 2.152zM140.523 89.756c-3.193-4.151 7.021-3.727 8.297-5.879-1.406-.721-3.4-1.066-5.293-1.303-1.939-.266-3.938-.479-5.744-.479.131 2.873 1.409 7.77-1.677 8.647-2.183.555-8.883-.054-9.202-1.598-.669-3.539 5.106-1.225 7.712-1.569.688-1.545.08-4.123-.426-5.48-5.133-.427-10.053.558-14.313 1.49 1.276 1.994 5.003 1.49 5.296 3.432.72 4.28-6.677-.054-7.744-.745-4.039-2.315-6.996-5.001-9.896-8.889-1.14-1.511-3.457-4.439-3.297-5.981.161-1.545 3.539-2.421 5.747-3.008 12.905-3.482 27.773-4.814 42.138-1.887 1.944.397 4.179 1.144 6.437 1.887 1.891.587 5.402 1.358 5.642 2.713.294 1.784-3.009 5.985-3.751 7.025-3.274 4.39-6.649 7.127-11.734 9.443-2.393 1.062-5.107 2.258-8.192 2.181zm-32.298-17.37c1.944 3.695 4.683 6.517 7.771 9.043a36.474 36.474 0 0 1 6.756-1.729c-.957-.907-2.157-1.435-3.461-2.449-.951-.716-2.814-1.781-2.734-3.27.129-1.57 3.484-2.371 5.745-2.875 7.526-1.674 16.359-1.461 23.541.106 2.235.533 6.016 1.12 6.016 2.901 0 1.01-1.706 2.475-2.608 3.137-1.225 1.014-2.609 1.119-3.407 2.449 2.662.187 4.683 1.038 6.862 1.729 3.249-2.263 5.691-5.321 7.446-9.043-13.674-5.719-38.067-5.322-51.927.001zm13.516 2.471c5.585 4.871 19.208 4.871 24.792 0-6.651-2.179-18.167-2.179-24.792 0z"/><path d="M38.85 174.001c0-.319-.136-.717-.267-1.33-.159-.557-.291-.98-.451-1.142-.237-.372-.695-.64-1.409-.745a17.083 17.083 0 0 0-2.608-.188H18.873v-1.303l16.996-12.558H25.15c-1.194 0-2.1.054-2.738.214-.666.135-1.117.347-1.387.718-.211.213-.424.694-.584 1.382-.213.691-.32 1.144-.32 1.357h-1.012v-8.484h1.012c.055.265.107.717.32 1.304.16.639.32 1.011.427 1.169.268.35.69.612 1.223.692.585.135 1.546.238 2.927.238h10.216c.424 0 .879-.104 1.33-.265.477-.159.795-.344 1.062-.613.321-.396.587-.876.827-1.435a5.875 5.875 0 0 0 .398-1.49h1.01v5.959l-15.857 11.652h9.898c1.202 0 2.155-.03 2.794-.213.663-.107 1.093-.374 1.306-.692.185-.265.369-.665.529-1.305s.268-1.115.319-1.41h1.01v8.485h-1.01zM20.814 197.704l-.906-8.564 1.037-.106c.136.743.296 1.386.508 1.86.157.48.37.691.638.691a.683.683 0 0 0 .266-.078c.108-.027.236-.055.319-.133l4.469-2.155-.716-7.263c-.724-.213-1.332-.398-1.838-.479-.533-.131-1.007-.267-1.436-.317-.479-.104-.798-.104-1.064-.161h-.638c-.398.057-.639.348-.824 1.012a8.571 8.571 0 0 0-.158 2.074l-1.037.107-.803-7.822 1.037-.052c.057.24.137.559.264.957.138.346.297.639.51.851.267.4.584.641.878.854.291.186.72.344 1.25.507 2.713.771 5.749 1.569 9.098 2.552a863.17 863.17 0 0 1 8.991 2.473l.109 1.144-17.161 8.726a2.67 2.67 0 0 0-.878.558 2.76 2.76 0 0 0-.582.879c-.108.24-.216.531-.244.88-.081.373-.081.665-.081.929l-1.008.076zm7.557-9.151 7.742-3.936-8.328-2.287.586 6.223zM45.5 219.438c-.054-.239-.214-.664-.481-1.196a6.468 6.468 0 0 0-.716-1.063c-.292-.268-.822-.399-1.542-.399-.669.026-1.569.159-2.61.399l-14.869 3.272-.266-1.227 13.911-15.961-10.479 2.288c-1.173.239-2.048.533-2.635.823-.607.322-1.011.64-1.224.989-.161.264-.268.768-.268 1.461-.051.771-.051 1.248 0 1.408l-1.007.267-1.863-8.327 1.012-.237c.105.265.318.664.613 1.248.291.589.506.903.688 1.04.347.317.771.426 1.357.426.581 0 1.546-.108 2.874-.426l9.975-2.21a4.96 4.96 0 0 0 1.305-.504c.373-.267.664-.557.847-.849.268-.402.427-.987.534-1.573.054-.667.082-1.171.028-1.515l1.007-.213 1.304 5.772-12.979 14.871 9.631-2.185c1.225-.264 2.069-.504 2.713-.826.611-.265.956-.557 1.118-.929.103-.293.21-.796.235-1.408.029-.639.029-1.143-.025-1.409l1.01-.267 1.839 8.273-1.037.187zM51.991 231.647c-.158-.237-.374-.53-.61-.824-.266-.29-.507-.531-.723-.744-.29-.239-.555-.371-.844-.293-.271.029-.589.107-.858.293l-10.692 6.12a5.405 5.405 0 0 1-1.965.663 6.229 6.229 0 0 1-2.237 0c-.849-.213-1.647-.503-2.394-1.01-.691-.506-1.305-1.253-1.838-2.13-.77-1.329-1.066-2.662-.77-4.015.318-1.304 1.064-2.316 2.418-3.063a3.511 3.511 0 0 1 1.783-.477c.586.056 1.066.372 1.439.956.238.533.345.957.213 1.438-.055.479-.373.853-.823 1.146a3.018 3.018 0 0 1-.936.319c-.319.052-.61.052-.9.052-.296-.026-.587-.026-.959-.026-.347-.025-.663 0-.907.026-.157.321-.264.744-.264 1.277 0 .505.185 1.037.529 1.674.378.641.854 1.041 1.333 1.254a2.92 2.92 0 0 0 1.648.238c.533-.054 1.173-.238 1.867-.531.688-.32 1.434-.64 2.207-1.093l9.547-5.507c.266-.187.504-.371.64-.533.161-.237.213-.527.213-.927-.029-.347-.136-.747-.266-1.196-.163-.429-.321-.748-.452-1.042l.931-.503 4.551 7.927-.881.531zM44.676 255.432l-5.671-7.42.803-.641c.21.185.48.504.772.878.345.347.611.61.771.745.32.158.584.214.849.214.269-.056.562-.163.853-.372l11.967-9.154c.271-.187.485-.397.616-.638.105-.212.105-.533 0-.956a10.222 10.222 0 0 0-.422-1.091 12.882 12.882 0 0 0-.509-.958l.824-.641 5.666 7.425-.849.637c-.158-.237-.426-.479-.721-.771a4.258 4.258 0 0 0-.877-.745 1.086 1.086 0 0 0-.878-.239c-.294.054-.557.184-.824.371L45.1 251.227c-.234.186-.449.397-.559.667-.105.293-.13.557-.055.953.083.163.245.533.429.907.215.45.401.8.586 1.037l-.825.641zM80.403 262.8c-.216-.186-.586-.426-1.066-.719-.533-.266-.904-.427-1.221-.479-.428-.053-.908.106-1.494.507-.528.452-1.222 1.036-1.909 1.811l-10.54 11.011-.903-.875 2.606-20.991-7.393 7.741c-.827.903-1.41 1.569-1.758 2.183-.318.56-.452 1.089-.425 1.459 0 .351.208.801.588 1.411.37.613.634 1.01.797 1.174l-.693.743-6.199-5.907.747-.716c.184.188.557.397 1.143.69.588.32.955.505 1.169.505.455.027.905-.105 1.383-.479.453-.318 1.173-.93 2.078-1.912l7.13-7.425c.264-.343.528-.663.74-1.117.185-.449.273-.823.243-1.169-.029-.532-.187-1.036-.455-1.598-.291-.611-.528-1.008-.798-1.328l.69-.747 4.312 4.126-2.445 19.523 6.808-7.13c.826-.903 1.438-1.649 1.758-2.183.315-.581.424-1.061.424-1.434a8.205 8.205 0 0 0-.638-1.305c-.32-.533-.583-.93-.795-1.196l.688-.745 6.117 5.826-.689.745zM92.162 284.187c-.213-.104-.538-.24-.854-.426-.372-.159-.662-.265-.929-.318-.351 0-.617.026-.907.184-.211.135-.448.375-.665.694l-.904 1.33c-.642.98-1.117 1.624-1.303 1.971-.24.372-.397.609-.504.848-1.438-.238-2.765-.557-3.991-1.037-1.227-.505-2.396-1.038-3.407-1.701-1.089-.799-2.021-1.703-2.737-2.792a9.218 9.218 0 0 1-1.489-3.538c-.243-1.358-.243-2.688.081-4.072a10.43 10.43 0 0 1 1.808-4.148 11.227 11.227 0 0 1 3.112-3.22 10.79 10.79 0 0 1 3.801-1.677c1.305-.293 2.666-.293 4.018-.029 1.355.27 2.686.83 3.859 1.625.959.666 1.757 1.357 2.34 2.104.531.718.958 1.385 1.328 2.102l1.011-.507.986.693-3.965 6.09-.955-.69c.267-.801.478-1.518.634-2.368.214-.824.27-1.597.214-2.421a5.177 5.177 0 0 0-.635-2.181c-.349-.665-.959-1.305-1.701-1.837-.906-.558-1.762-.932-2.69-1.036a5.914 5.914 0 0 0-2.846.373c-.959.318-1.913.904-2.819 1.782a15.922 15.922 0 0 0-2.715 3.031 14.807 14.807 0 0 0-1.674 3.376 10.044 10.044 0 0 0-.561 3.301c.026 1.04.27 2.051.746 2.981.475.878 1.197 1.676 2.131 2.341.74.478 1.432.848 2.178.958.744.157 1.33.265 1.701.157.374-.397.697-.744.986-1.196.291-.425.556-.799.742-1.063l.615-.957c.266-.347.425-.668.479-.986a1.045 1.045 0 0 0-.161-.984c-.213-.293-.475-.665-.876-1.008-.453-.374-.772-.668-1.038-.8l.585-.958 7.579 5.133-.608.876zM144.301 287.567c-.272 0-.641.054-1.171.184-.532.107-.959.242-1.303.453-.348.239-.561.716-.67 1.411-.129.691-.209 1.541-.209 2.552v9.046c0 1.118-.241 2.127-.719 2.979-.505.877-1.119 1.57-1.888 2.128-.749.505-1.573.931-2.45 1.114a8.012 8.012 0 0 1-2.449.376c-1.223 0-2.365-.162-3.325-.506a7.566 7.566 0 0 1-2.473-1.331c-.639-.56-1.143-1.168-1.437-1.918a4.769 4.769 0 0 1-.53-2.233v-12.233c0-.399-.054-.669-.159-.904-.104-.241-.347-.454-.693-.614-.214-.158-.533-.292-.932-.373-.398-.076-.716-.13-.931-.13v-1.063h8.621v1.063c-.269 0-.614.023-1.014.106-.423.077-.714.185-.904.238-.37.081-.586.318-.663.557a2.469 2.469 0 0 0-.187.957v11.442c0 .531.054 1.144.187 1.729a5.46 5.46 0 0 0 .718 1.729c.396.53.903.956 1.569 1.276.665.345 1.515.559 2.691.559 1.06 0 1.966-.214 2.707-.559.695-.32 1.303-.746 1.702-1.304.373-.533.694-1.091.877-1.677.133-.584.24-1.117.24-1.729v-8.488c0-1.114-.107-1.995-.24-2.685-.183-.664-.396-1.144-.663-1.356-.371-.24-.851-.428-1.411-.585-.615-.104-1.061-.211-1.381-.211v-1.063h8.487v1.063zM168.427 277.033c-.24.157-.613.369-1.033.743-.486.399-.801.69-.961.931-.213.347-.238.853-.053 1.518.135.717.427 1.54.847 2.5l6.093 13.938-1.194.56-18.302-10.562 4.282 9.815c.45 1.093.876 1.917 1.304 2.421.398.586.8.877 1.173.985.317.134.821.134 1.513 0 .723-.079 1.199-.188 1.409-.266l.425.955-7.845 3.436-.425-.988c.265-.104.609-.397 1.143-.824.477-.373.771-.69.877-.848.213-.375.242-.883.134-1.465-.104-.56-.425-1.41-.958-2.714l-4.096-9.364c-.214-.398-.428-.824-.744-1.144-.322-.321-.637-.558-1.013-.69-.425-.11-.986-.24-1.599-.188-.662.051-1.169.134-1.512.294l-.4-.984 5.427-2.368 17.023 9.842-3.935-9.07c-.48-1.091-.932-1.915-1.33-2.473-.402-.562-.775-.854-1.146-.906-.344-.106-.772-.106-1.437 0a9.833 9.833 0 0 0-1.406.345l-.401-.984 7.739-3.325.401.88zM189.228 289.056l-8.404 4.098-.453-.934c.242-.105.559-.344 1.013-.557.424-.267.72-.507.849-.641.216-.29.375-.557.399-.823a1.544 1.544 0 0 0-.184-.877l-6.655-13.515a1.693 1.693 0 0 0-.476-.746c-.213-.132-.533-.186-.956-.159-.318.027-.694.105-1.118.159-.479.134-.8.24-1.063.348l-.482-.932 8.436-4.096.453.932c-.266.132-.559.347-.934.56-.342.211-.666.451-.879.714-.266.24-.422.588-.422.881 0 .237.103.53.208.824l6.603 13.513c.131.293.317.533.581.664.214.187.533.239.907.216.213 0 .558-.056 1.01-.216.43-.105.824-.238 1.117-.346l.45.933zM199.421 256.416c-.189.21-.432.453-.643.746a3.213 3.213 0 0 0-.424.877c-.131.371-.216.688-.131 1.091.051.345.131.798.237 1.245a670.858 670.858 0 0 0 2.235 7.504c1.061 3.381 2.127 6.893 3.242 10.564l-.931.743c-3.458-2.047-6.781-4.018-9.976-5.986a828.561 828.561 0 0 1-6.541-3.882 4.313 4.313 0 0 0-.881-.348 6.68 6.68 0 0 0-.982 0c-.32.055-.64.134-.931.266-.29.136-.561.293-.8.398l-.666-.796 6.706-5.346.691.795a12.82 12.82 0 0 0-1.332 1.332c-.315.397-.373.693-.208.903.051.104.16.212.261.268.134.105.217.187.32.24.854.528 2.29 1.328 4.283 2.524 1.999 1.251 4.812 2.899 8.486 5.056-.587-1.861-1.224-4.071-1.997-6.598-.798-2.526-1.354-4.23-1.678-5.16-.287-.932-.531-1.489-.687-1.756-.187-.319-.345-.557-.452-.747-.135-.186-.352-.266-.614-.239a2.15 2.15 0 0 0-.851.188 8.114 8.114 0 0 0-.955.479c-.268.159-.535.319-.801.504l-.688-.824 6.061-4.813.647.772zM222.638 249.659l4.443 4.201-11.063 13.25-.798-.64c.187-.24.398-.584.695-.983.236-.427.397-.69.422-.906a1.198 1.198 0 0 0 0-.798c-.106-.264-.319-.506-.586-.717l-11.463-9.604a1.647 1.647 0 0 0-.776-.398c-.237-.079-.528-.053-.896.107-.273.106-.539.345-.912.584-.372.293-.635.532-.852.72l-.77-.614 10.295-12.396 3.832 3.221-.694.848c-.688-.343-1.595-.53-2.606-.53-1.092-.029-1.834.157-2.26.53-.241.214-.455.479-.771.747-.269.291-.586.691-.96 1.091l-2.023 2.528 6.279 5.265 1.546-1.783c.452-.557.769-1.036.902-1.381a2.117 2.117 0 0 0 0-1.144c-.054-.372-.24-.747-.53-1.197-.265-.402-.531-.77-.803-1.094l.695-.824 6.224 5.217-.665.797c-.401-.214-.85-.478-1.354-.665-.48-.212-.906-.319-1.227-.346-.479 0-.906.104-1.225.346-.37.188-.714.558-1.116 1.092l-1.544 1.755 4.844 3.991c.48.423.85.69 1.198.851.343.184.664.184.983.159.268-.082.61-.293.955-.587.267-.29.693-.799 1.248-1.434.165-.243.459-.507.777-.959.368-.346.635-.718.818-1.038.244-.294.403-.691.587-1.062.187-.321.241-.643.187-.854 0-.667-.264-1.464-.714-2.501a20.367 20.367 0 0 0-.986-2.047l.664-.798zM239.879 230.292l-2.659 4.841c-2.313.214-4.34.399-6.041.64-1.702.159-3.51.427-5.373.743l-1.035 1.865 5.772 3.138c.317.157.61.265.85.293.321 0 .587-.08.879-.32.157-.134.347-.399.608-.743.268-.322.479-.667.615-.96l.931.506-4.202 7.741-.906-.503c.107-.214.214-.533.397-.961.188-.397.241-.663.266-.849a1.24 1.24 0 0 0-.187-.829c-.156-.236-.396-.423-.688-.634l-13.25-7.184a5.212 5.212 0 0 0-.853-.267c-.291-.054-.582.053-.851.267-.211.213-.425.48-.664.771-.265.293-.504.557-.613.799l-.93-.455 4.602-8.483c.426-.773.855-1.49 1.387-1.996a7.193 7.193 0 0 1 1.78-1.487c.611-.35 1.304-.507 2.052-.533.687 0 1.461.156 2.229.61.723.4 1.28.853 1.699 1.356.434.479.725 1.037.908 1.702.163.586.214 1.226.214 1.916a17.845 17.845 0 0 1-.315 2.128c1.701-.24 3.137-.453 4.254-.583 1.117-.16 2.498-.375 4.151-.587.716-.106 1.304-.238 1.674-.373.45-.214.771-.371 1.093-.611.266-.189.476-.427.745-.717.233-.297.395-.561.53-.747l.931.506zm-17.289-.641c-1.117-.609-2.157-.771-3.17-.476-.956.29-1.778 1.038-2.39 2.181l-1.224 2.207 7.87 4.206.906-1.68c.639-1.171.798-2.367.48-3.565-.344-1.22-1.169-2.124-2.472-2.873zM234.535 212.549a4.438 4.438 0 0 1 1.781-.531c.637-.054 1.304 0 2.045.213 1.812.426 3.087 1.465 3.889 3.085.795 1.623.955 3.378.448 5.349a11 11 0 0 1-1.093 2.578 9.324 9.324 0 0 1-1.648 2.049l.882.878-.295 1.169-6.914-1.62.318-1.146c.905 0 1.7-.105 2.499-.266.773-.104 1.492-.346 2.235-.69a7.212 7.212 0 0 0 1.782-1.384c.507-.585.85-1.277 1.092-2.182.156-.641.242-1.277.185-1.757a2.63 2.63 0 0 0-.427-1.355c-.238-.429-.555-.743-.876-1.013a7.16 7.16 0 0 0-1.433-.61c-.804-.16-1.627-.16-2.425.104-.827.297-1.515.854-2.1 1.653a39.49 39.49 0 0 0-1.385 1.915 50.204 50.204 0 0 1-1.382 1.86c-.797.985-1.677 1.648-2.688 2.075-.986.427-2.155.451-3.457.13-.773-.206-1.438-.581-2.05-1.061-.557-.504-1.036-1.037-1.386-1.784-.367-.664-.582-1.435-.661-2.204a6.96 6.96 0 0 1 .187-2.478c.264-.904.581-1.725 1.061-2.364.479-.665.957-1.252 1.547-1.705l-.854-.88.264-1.167 6.733 1.646-.293 1.174c-.8 0-1.596.025-2.368.104-.771.08-1.461.24-2.16.507-.66.267-1.189.663-1.696 1.172-.479.506-.799 1.142-1.065 1.992-.217.933-.107 1.785.267 2.528.426.771 1.063 1.277 1.862 1.517.876.24 1.646.188 2.34-.056.689-.237 1.305-.741 1.863-1.38a29.04 29.04 0 0 0 1.384-1.836c.423-.613.85-1.17 1.278-1.729.37-.479.797-.985 1.248-1.414.453-.42.931-.822 1.466-1.086zM246.875 198.771l-1.275 9.259-1.038-.137c.028-.318.053-.662.079-1.168.051-.507.027-.826-.026-1.092a1.696 1.696 0 0 0-.426-.748c-.186-.184-.505-.289-.879-.344l-14.926-1.994c-.344-.027-.607 0-.846 0-.242.105-.51.319-.692.717-.136.266-.32.586-.454 1.037-.157.4-.316.773-.37 1.066l-1.013-.133 1.279-9.259 1.008.134c-.024.267-.024.638-.024 1.064 0 .45.024.798.08 1.141.08.349.235.613.478.801.238.158.533.266.848.266l14.899 2.075c.321.054.585 0 .85-.08.296-.104.538-.348.696-.69.105-.16.264-.48.396-.906.187-.452.265-.852.317-1.17l1.039.161zM233.68 174.136l-.051.983c-.376.083-.797.24-1.253.453a15.58 15.58 0 0 0-1.41.691c-.423.294-.849.586-1.172.957-.369.319-.579.64-.635.986a18.99 18.99 0 0 0-.158 1.115c0 .453-.053.903-.053 1.277l-.058.877 16.628.586c.317 0 .613-.025.878-.159.321-.104.479-.374.636-.693.107-.155.217-.505.374-1.09.106-.555.187-.956.213-1.275l1.04.028-.4 9.813-1.01-.051c0-.242-.057-.72-.083-1.253-.026-.585-.08-.932-.187-1.169-.104-.293-.262-.588-.502-.743-.239-.162-.563-.243-.959-.27l-16.734-.638-.049.878v1.117c0 .424 0 .879.049 1.251.029.347.217.691.533 1.063.32.346.72.69 1.143.983.4.294.881.61 1.361.852.478.24.903.398 1.224.479l-.056 1.037-5.638-.211.688-18.118 5.641.244zM229.371 151.444c.027.131.106.424.161.801.159.343.263.636.372.77.214.397.398.637.507.798.133.133.478.399.982.771 1.09.826 2.156 1.519 3.249 2.207 1.088.64 2.494 1.438 4.146 2.448.641.396 1.143.666 1.519.747.396.186.929.236 1.646.236l3.962.054c.353 0 .695-.054.96-.213.211-.134.424-.368.588-.664.106-.237.209-.609.315-1.117.107-.534.185-.905.215-1.248h1.066l-.214 9.732-1.011-.054c0-.262-.057-.636-.108-1.196-.027-.528-.107-.904-.185-1.142a1.512 1.512 0 0 0-.563-.743c-.262-.161-.583-.217-.954-.217l-5.055-.051c-.161-.056-.428.051-.854.238-.424.186-.901.372-1.384.638-1.168.585-2.417 1.225-3.721 1.889a154.962 154.962 0 0 0-3.433 1.838c-.559.265-.982.53-1.277.85-.291.214-.508.479-.771.798-.134.24-.268.531-.316.85a4.101 4.101 0 0 0-.188.854h-1.014l.134-8.886h1.068c0 1.01.049 1.733.155 2.181.106.376.268.587.48.613.053 0 .16-.026.267-.08.157-.051.374-.157.587-.24.262-.134.582-.293.875-.451.348-.161.666-.318.957-.506.883-.45 1.783-.877 2.633-1.357.856-.425 1.996-1.064 3.406-1.806-2.447-1.546-4.338-2.77-5.743-3.592-1.333-.826-2.157-1.226-2.422-1.226-.242 0-.43.053-.56.242-.136.105-.213.344-.319.609a3.345 3.345 0 0 0-.185.93c-.029.323-.029.667-.083.935h-1.062l.16-7.237h1.012zM126.235 237.289c-.769 0-1.409.318-1.99.956-.593.612-.856 1.437-.856 2.447 0 .88.263 1.624.803 2.182.527.563 1.224.825 2.018.825.798 0 1.437-.263 1.97-.825.533-.558.771-1.355.771-2.339 0-.987-.238-1.757-.83-2.344a2.38 2.38 0 0 0-1.886-.902zM139.352 237.289c-.746 0-1.386.318-1.888 1.035-.561.827-.885 2.424-.885 4.762 0 2.316.272 3.806.806 4.576.581.799 1.221 1.174 2.017 1.174.75 0 1.439-.375 1.998-1.174.531-.771.824-2.26.824-4.576 0-2.338-.293-3.855-.824-4.626-.559-.749-1.248-1.171-2.048-1.171z"/><path d="M217.24 100.369H51.196c-.213.026-.161.291-.267.454-.161 21.334.081 43.308 0 64.081-.161 21.043 2.896 40.063 9.736 55.037 6.703 14.82 17.718 25.486 30.218 34.449 12.719 9.022 28.625 13.86 43.309 21.444 14.629-7.635 30.486-12.396 43.147-21.63 12.503-9.045 23.809-19.416 30.434-34.394 6.598-15.03 9.573-33.544 9.573-55.2-.001-20.907.161-43.09-.106-64.241zM89.261 194.618c11.281-5.852 22.583-12.288 31.413-20.801-5.852 1.437-10.532 1.596-15.372 1.542.798-1.277 2.125-2.075 3.191-3.111 7.447-6.971 15.8-13.62 19.845-24.183-2.736.931-6.173 1.704-9.871 1.704 7.263-9.313 12.984-20.242 16.018-33.732h.424c2.98 13.542 8.806 24.342 16.039 33.732-3.245-.215-5.959-.347-9.706-1.807.157 1.566.981 3.055 1.678 4.412 3.586 6.597 9.358 11.835 14.735 16.919 2.18 2.022 4.521 3.807 6.437 6.065-5.959.533-8.675.054-15.215-1.678 2.125 2.528 4.92 4.392 7.498 6.438 7.026 5.747 15.427 10.03 23.886 14.498.668.348 1.707.584 1.971 1.465-7.018.985-14.818.452-22.396-1.971-9.258-3.189-18.035-3.378-24.53 2.688-7.232-5.826-14.389-5.906-25.96-2.848-6.598 2.051-15.218 2.981-22.161 2.131.242-.956 1.355-1.089 2.076-1.463zm25.67 55.388h-1.729v-10.988c-.427.453-.986.771-1.677 1.117a7.789 7.789 0 0 1-1.782.957v-1.621a12.943 12.943 0 0 0 2.529-1.701c.74-.693 1.244-1.281 1.541-1.864h1.117v14.1zm15.377-3.034c-.424 1.063-1.011 1.888-1.756 2.421a4.639 4.639 0 0 1-2.713.852c-1.12 0-2.021-.293-2.715-.934-.688-.582-1.119-1.436-1.273-2.579l1.646-.16c.156.8.452 1.381.853 1.73.37.399.903.534 1.513.534.504 0 .985-.135 1.412-.375.372-.239.692-.557.954-.982.271-.426.484-.958.644-1.626a8.004 8.004 0 0 0 .265-2.126v-.397a3.298 3.298 0 0 1-1.437 1.382 3.78 3.78 0 0 1-1.914.532c-1.173 0-2.153-.452-2.952-1.279-.828-.878-1.254-1.968-1.254-3.35 0-1.384.426-2.553 1.279-3.432.854-.853 1.914-1.277 3.135-1.277.96 0 1.758.24 2.559.69.745.48 1.332 1.198 1.756 2.158.317.903.559 2.181.559 3.936-.002 1.781-.244 3.218-.561 4.282zm13.167.081c-.345 1.01-.826 1.837-1.515 2.34-.666.559-1.545.852-2.559.852-1.353 0-2.443-.479-3.213-1.462-.933-1.144-1.413-3.06-1.413-5.696 0-1.703.211-3.029.529-4.018.352-1.032.854-1.806 1.547-2.313.663-.61 1.54-.851 2.55-.851.75 0 1.413.134 1.998.425.561.266 1.041.746 1.41 1.305.375.61.638 1.275.851 2.104.212.82.318 1.938.318 3.348.001 1.624-.185 2.979-.503 3.966zm13.588 2.953h-9.305c0-.4.053-.854.213-1.17a5.993 5.993 0 0 1 1.168-1.891c.506-.639 1.254-1.305 2.239-2.154 1.512-1.277 2.549-2.208 3.106-2.979.533-.72.829-1.386.829-2.073 0-.67-.267-1.251-.77-1.702-.48-.479-1.119-.747-1.92-.747-.825 0-1.49.268-1.996.772-.477.506-.741 1.196-.741 2.046l-1.81-.156c.157-1.305.586-2.344 1.381-3.035.801-.717 1.861-1.011 3.224-1.011 1.353 0 2.419.346 3.188 1.092.796.772 1.193 1.7 1.193 2.791 0 .533-.102 1.146-.343 1.677-.236.531-.636 1.118-1.145 1.729-.528.586-1.436 1.384-2.686 2.447-1.032.854-1.699 1.488-1.992 1.758-.27.343-.529.637-.717.982h6.882v1.624zm-14.224-39.214.449 3.728h-16.119l.477-3.728H77.103l6.306-7.739c5.346-.294 15.665-1.65 24.501-4.949 17.183-6.438 27.612 2.395 27.612 2.395 8.218-6.89 18.542-5.456 28.093-1.94 8.987 3.298 22.744 4.309 22.744 4.309l5.928 7.926h-49.448z"/></g></svg>