<svg viewBox="0 0 24 24" xmlns="http://www.w3.org/2000/svg"><path d="M3.693 9.502a.74.74 0 0 1 .74.74v.677a.74.74 0 1 1-1.48 0v-.677a.74.74 0 0 1 .74-.74Z" fill="#f39800"/><path d="M7.601 12.942a.303.303 0 0 1-.307.3h-2.12c.13.379.486.633.885.634.245.003.485-.067.688-.203.141-.09.332-.006.405.141.072.147-.006.315-.148.404-.404.27-.718.265-.946.265a1.542 1.542 0 0 1 0-3.084c.745 0 1.543.542 1.543 1.543Zm-2.425-.307H6.95c-.129-.43-.522-.627-.89-.627a.939.939 0 0 0-.886.627Zm5.865.332v1.203a.297.297 0 0 1-.308.308.324.324 0 0 1-.295-.308c-.263.221-.559.308-.908.308-.867 0-1.555-.645-1.555-1.511a1.544 1.544 0 0 1 1.555-1.555c.866 0 1.51.689 1.51 1.555Zm-.603 0c0-.517-.393-.953-.908-.953a.965.965 0 0 0-.953.953c0 .516.436.909.953.909a.892.892 0 0 0 .908-.91Zm2.82-1.26c0 .169-.138.306-.308.306a.933.933 0 0 0-.933.934v1.235a.304.304 0 1 1-.609 0v-1.234c.001-.851.691-1.541 1.542-1.542a.303.303 0 0 1 .308.3Zm-.02 1.235a1.542 1.542 0 1 1 3.085 0 1.542 1.542 0 0 1-3.084 0Zm.609 0a.934.934 0 1 0 .933-.934.937.937 0 0 0-.931.934h-.002Zm5.313-1.236v1.548a1.244 1.244 0 0 1-2.488 0v-1.548a.304.304 0 1 1 .608 0v1.536a.636.636 0 0 0 1.272 0v-1.536a.304.304 0 0 1 .608 0Zm.404-.3V10.18a.304.304 0 1 1 .608 0v1.229h.436a.303.303 0 0 1 .308.3c0 .17-.138.307-.308.308h-.436v2.168a.304.304 0 1 1-.608 0v-2.778ZM24 12.942a.303.303 0 0 1-.307.3h-2.119c.13.38.485.633.885.634.245.003.484-.067.688-.203.141-.09.332-.006.404.141.072.147-.006.315-.148.404-.404.27-.719.265-.945.265a1.542 1.542 0 1 1 0-3.084c.743 0 1.542.542 1.542 1.543Zm-2.425-.307h1.775c-.13-.43-.522-.627-.89-.627a.94.94 0 0 0-.886.627ZM.74 9.54a.74.74 0 0 1 .74.74v3.47a.74.74 0 0 1-1.48 0v-3.47a.74.74 0 0 1 .74-.74Zm3.263 4.775a.742.742 0 0 1-1.04-.115L.161 10.741a.742.742 0 0 1 .115-1.04.742.742 0 0 1 1.04.116l2.8 3.458a.742.742 0 0 1-.114 1.04Z" fill="#172a88"/></svg>