<?xml version="1.0" encoding="utf-8"?>
<!-- Generator: Adobe Illustrator 19.0.0, SVG Export Plug-In . SVG Version: 6.00 Build 0)  -->
<svg version="1.1" id="圖層_1" xmlns="http://www.w3.org/2000/svg" xmlns:xlink="http://www.w3.org/1999/xlink" x="0px" y="0px"
	 width="282.8829956px" height="51.3033638px" viewBox="0 0 282.8829956 51.3033638"
	 style="enable-background:new 0 0 282.8829956 51.3033638;" xml:space="preserve">
<style type="text/css">
	.st0{clip-path:url(#SVGID_2_);fill:#131618;}
	.st1{clip-path:url(#SVGID_2_);fill:#DB251D;}
</style>
<g>
	<defs>
		<rect id="SVGID_1_" y="0.0000573" width="282.8829956" height="51.3033066"/>
	</defs>
	<clipPath id="SVGID_2_">
		<use xlink:href="#SVGID_1_"  style="overflow:visible;"/>
	</clipPath>
	<path class="st0" d="M133.9656067,47.9193611h-5.9082947v-28.331398c0.8570862,0,1.6850891,0.0001984,2.5130005-0.0001984
		c0.8774719-0.0001984,1.7565002,0.0290985,2.631897-0.0129089c0.4942017-0.0236969,0.7590027,0.1410065,1.004303,0.5764008
		c2.6460876,4.6940002,5.3158875,9.375,7.9804688,14.0583038c0.1217041,0.2138977,0.258606,0.4188995,0.5046997,0.5986938
		v-0.6734009c-0.0001831-4.6011963,0.008606-9.2026978-0.0126953-13.8039856
		c-0.002594-0.5741119,0.131897-0.7775116,0.7417908-0.762207c1.6845093,0.0424957,3.3705139,0.0146942,5.166626,0.0146942
		v28.3364029c-0.114624,0.0084-0.2987976,0.0338058-0.4831238,0.0340042
		c-1.7764893,0.0028992-3.5527954-0.0121002-5.3286743,0.012001c-0.4207153,0.0056992-0.6392212-0.1283035-0.8433228-0.4990005
		c-2.4453735-4.4383011-4.9101868-8.8658981-7.3709717-13.2956085c-0.1730042-0.3113861-0.3544006-0.6179962-0.5957031-1.0375977
		V47.9193611z"/>
	<path class="st1" d="M81.8535995,22.1825676c-0.8585052-0.2521057-1.6076965-0.1702118-2.3995972,0.0363922
		c-1.8014984,0.470108-3.4054108-0.0946045-4.8609009-1.1587982c-0.1403046-0.1026001-0.1851959-0.3278046-0.2960052-0.4804077
		c-0.3448944-0.4747925-0.6335907-1.0196991-1.0682983-1.3927917c-0.558197-0.4786072-0.7725983-1.024704-0.8119965-1.7250977
		c-0.1043091-1.8542023-0.3299103-3.7055969-0.3432007-5.5592041c-0.0112-1.5697937,0.123703-3.1542053,0.3643951-4.7055969
		c0.0997009-0.6432037,0.5648041-1.2826996,1.0014954-1.8097992c0.8519135-1.0278015,2.5368042-0.6255035,2.9612122,0.7048035
		c0.4308014,1.3510895,0.2816925,2.692688,0.1898956,4.0627899c-0.0906067,1.3529053-0.1887054,2.7479095,0.0352936,4.0705109
		c0.5245056,3.0976868,2.338913,4.0020905,5.2993011,3.8435974c0.9047089-0.0482025,1.8016052-0.321701,2.6927032-0.5322113
		c2.0384979-0.4814911,4.0559082-0.3768921,6.1027985,0.0125122c0.8336029,0.1585999,1.7644958,0.1092987,2.5944977-0.085907
		c1.2602997-0.2964935,2.5066071-0.5036011,3.8016052-0.4571991c2.0140991,0.0720062,3.7033997-1.5372009,3.6741028-3.5700989
		c-0.0121002-0.8388062-0.2270966-1.6757965-0.3627014-2.5115051c-0.0852051-0.5249023-0.2649994-1.0440979-0.279007-1.5690918
		c-0.0373993-1.3881989-0.7123871-2.57341-1.5670929-3.474411c-0.9058075-0.9552002-2.2304993-1.453598-3.645401-1.4954987
		c-2.0301056-0.0603943-4.0597992-0.1506958-6.0883942-0.2546997c-1.1939087-0.0612946-2.3912048-0.2885892-3.5758057-0.2276914
		c-0.9799957,0.050293-1.9822998,0.3128965-2.9049988,0.664398c-1.1114044,0.4230957-2.194809,0.8238983-3.4071045,0.7543945
		c-1.1567993-0.0662994-2.0074921-0.5697937-2.185791-1.3338926c-0.2569122-1.1011047,0.1946869-2.0841064,1.3275909-2.6295013
		c0.5639038-0.271698,1.2028961-0.4129944,1.8233032-0.5363007c1.5036926-0.2991028,3.0074921-0.6829987,4.5281982-0.7891998
		c1.5442047-0.107605,3.108902,0.0771027,4.6643982,0.1329041c1.2971039,0.046402,2.5988007,0.1806946,3.8901062,0.1147003
		c1.7223969-0.0882111,3.3634949,0.0578918,4.9174957,0.8685913c0.2870941,0.1498108,0.6578979,0.1847992,0.9916992,0.1914063
		c1.6609955,0.0336914,3.0635071,0.8764039,3.8287048,2.1311035c0.7527008,1.2339933,1.770401,2.5137937,1.5830994,4.2142944
		c-0.0679016,0.6152039,0.2706909,1.2785034,0.4400024,1.9154053c0.1251984,0.4711914,0.3908997,0.9339905,0.3963013,1.4026947
		c0.0218964,1.8999023,0.091095,3.8128967-0.0963135,5.6972046c-0.1646881,1.6575012-1.3172913,2.7829895-2.7120972,3.6111908
		c-1.4409027,0.8554077-2.9861908,1.1703033-4.6757965,0.9909973c-0.8316956-0.0882874-1.7037964,0.0597076-2.5401001,0.2024994
		c-0.7532959,0.1284027-1.4528046,0.1175995-2.2082062-0.0524902c-0.6341858-0.142807-1.3655853-0.1121979-1.9964905,0.0560913
		c-0.7575073,0.2021027-1.4485016,0.2905121-2.183197-0.0168915c-0.2486115-0.1040039-0.5382996-0.1141052-0.8108063-0.1564026
		c-0.5522919-0.0856018-0.8511963,0.1190948-1.003006,0.6959991c-0.2861938,1.0870972-0.9707947,1.9206085-1.8210907,2.6508942
		c-0.4775085,0.4100037-0.8432007,0.9479065-1.2830963,1.4058075c-0.2607117,0.2713013-0.5499115,0.5245056-0.858902,0.7384949
		c-0.3312073,0.2294006-0.7826996,0.3291016-1.0402985,0.6136017c-1.3280029,1.4669952-3.2597046,1.9263-4.8572998,2.9398041
		c-0.5671997,0.3598022-1.3983002,0.3031006-2.1090088,0.4364929c-0.2511902,0.0472107-0.5323029,0.0363007-0.7490997,0.1493073
		c-1.3222961,0.6898041-2.7368011,1.0529022-4.2073975,1.1797028c-0.7742004,0.066803-1.5814056,0.1335907-2.3329926-0.01091
		c-1.1430054-0.219696-1.7607117-1.1875916-1.6953125-2.3491974c0.0611115-1.0868988,0.8353119-1.5981903,1.7172089-1.8199005
		c0.7640991-0.1921997,1.6147003-0.2189941,2.3990936-0.1127014c1.4300995,0.1938019,2.748703,0.1309052,3.9803009-0.7360992
		c0.382309-0.2690887,0.9150085-0.3201904,1.3740082-0.4843903c0.5368958-0.1921082,1.0905914-0.354599,1.5975952-0.6086121
		c0.9855957-0.4933929,1.9519043-1.026886,2.9104004-1.5717926C80.850502,23.9487572,81.3953934,23.1439629,81.8535995,22.1825676"
		/>
	<polygon class="st0" points="216.4257813,41.2717628 216.4257813,47.67976 198.1920776,47.67976 198.1920776,19.3278618 
		215.8537903,19.3278618 215.8537903,25.126461 204.5375977,25.126461 204.5375977,29.8527641 215.5532837,29.8527641 
		215.5532837,35.7096596 204.559082,35.7096596 204.559082,41.2717628 	"/>
	<path class="st1" d="M90.4115982,26.3123589c-0.2563019-0.407196-0.5130005-0.6864014-0.6246033-1.0153046
		c-0.3985901-1.1744995,0.0796967-2.2076874,1.2985992-2.4850006c0.9815063-0.2230988,2.0242004-0.229187,3.0397034-0.2300873
		c0.5641022-0.000412,1.1239014,0.2484894,1.6936951,0.3085938c0.5845032,0.0617065,1.1789093,0.0225067,1.7686005,0.0424042
		c0.4216003,0.0140991,0.843399,0.0422974,1.2630005,0.085495c0.210907,0.0218048,0.4290009,0.1600037,0.623703,0.1269989
		c1.1139984-0.1885986,1.8648071,0.5492096,2.7628021,0.9719086c1.6054993,0.7561951,2.9645996,1.7547913,4.2126923,3.0312958
		c0.8895111,0.9096985,1.7427063,1.7386017,2.1681061,2.9794922c0.3343964,0.9760132,1.0417023,1.816803,1.039505,2.9234009
		c-0.0003967,0.1753998,0.1165009,0.3731079,0.2290955,0.5229034c0.3444977,0.4586029,0.3379059,0.9073029,0.1529083,1.4439087
		c-0.1236115,0.3592911-0.0320129,0.7909927-0.0471039,1.1897964c-0.0234985,0.6266937-0.0200043,1.2571945-0.0953064,1.8778992
		c-0.0686035,0.5675964-0.2825012,1.1193008-0.3343964,1.6868973c-0.1791992,1.9614029-1.2489014,3.357399-2.7528076,4.4975967
		c-0.168396,0.1278-0.3934937,0.2303009-0.4854889,0.4018021c-0.9506989,1.7721024-2.7006989,2.6210022-4.2291107,3.7369995
		c-1.6425934,1.1996002-3.6091919,1.607399-5.4200897,2.394104c-1.668808,0.725296-3.1704102,0.3332977-4.7225037-0.1335983
		c-0.2942963-0.088501-0.5590973-0.3767014-0.7651062-0.6314011c-0.3058014-0.3782043-0.5921936-0.7862015-0.8069916-1.2209015
		c-0.5149078-1.0430984-1.1016083-2.072998-1.4391022-3.1753006c-0.3766937-1.2301025,0.5630951-2.0016022,1.7872925-1.5686035
		c0.3961029,0.1401062,0.8081055,0.3355026,1.1125031,0.6151047c0.870697,0.7995987,1.9235992,0.9835968,2.9909973,0.7983017
		c1.3819122-0.2398071,2.8283081-0.4601059,4.07341-1.0529022c1.6912994-0.8050995,3.270401-1.8486023,4.4351044-3.4458008
		c0.9111938-1.2498016,1.8784943-2.4300003,2.2897949-3.959198c0.7165985-2.6641006,0.0623932-4.6604996-2.0691071-6.7016983
		c-0.2062988-0.197403-0.5831909-0.3355103-0.8654938-0.3126068c-0.8498993,0.0688019-1.7089996,0.165802-2.5319977,0.3773956
		c-0.6414032,0.1649017-0.8495026-0.1031952-1.0155029-0.6181946c-0.2487946-0.7722015-0.5294952-1.533905-0.7915955-2.3018951
		c-0.1464081-0.4297028-0.4524994-0.5825958-0.887207-0.7033997c-1.2319031-0.3417053-2.4179993,0.1542969-3.6280975,0.1154022
		c-0.0986023-0.0028992-0.2115936,0.115387-0.3011017,0.1961975c-1.3710022,1.2375031-2.7350922,2.4828033-4.1103973,3.7154999
		c-0.5223083,0.4682007-1.0695953,0.9084015-1.6036987,1.3634949c-0.2442017,0.2080078-0.4701996,0.4396973-0.7273102,0.6293945
		c-1.5443878,1.1394043-3.0967865,2.2677002-4.6427002,3.4045105c-0.2049866,0.1508942-0.3928986,0.3258972-0.5822906,0.4966965
		c-0.2062988,0.1858978-0.373703,0.4439011-0.611908,0.560997c-2.3082886,1.1333008-4.2695923,2.9372025-6.8118896,3.6025009
		c-1.2014008,0.3141022-2.3592987,0.6418991-3.4190063,1.3410034c-0.7835999,0.5169983-1.7427979,0.5575027-2.6739044,0.4468994
		c-1.144989-0.1360016-2.0898895-1.0578995-2.2462921-2.1533966c-0.120697-0.8459015,0.6524048-2.0093002,1.6900024-2.4137039
		c0.509201-0.1985016,1.0774994-0.2416,1.6130981-0.3787003c1.066803-0.2731018,2.1316986-0.5540009,3.1929932-0.847702
		c0.6993103-0.1935959,1.3995972-0.3893967,2.0838013-0.6289978c1.3540039-0.4742966,2.596405-1.1220932,3.7830963-1.9719925
		c1.8170013-1.3011017,3.802002-2.3648071,5.6784058-3.5868073c1.2676086-0.8253937,2.4709015-1.7507019,3.7042999-2.6291962
		c0.2252045-0.1604004,0.4568024-0.3123016,0.6865997-0.4667053C89.1614914,27.1493645,89.7802048,26.7352562,90.4115982,26.3123589
		"/>
	<polygon class="st0" points="160.9837036,38.1632576 160.9837036,42.8523598 172.0036011,42.8523598 172.0036011,47.8418617 
		154.646698,47.8418617 154.646698,25.0043602 171.4396057,25.0043602 171.4396057,29.5319633 160.9976807,29.5319633 
		160.9976807,33.5993614 171.0097961,33.5993614 171.0097961,38.1632576 	"/>
	<polygon class="st0" points="271.9508972,37.7416573 271.9508972,42.2691612 282.8648987,42.2691612 282.8648987,47.335659 
		266.0296936,47.335659 266.0296936,24.5396538 282.8829956,24.5396538 282.8829956,29.0249596 271.8946838,29.0249596 
		271.8946838,33.1422539 281.8950806,33.1422539 281.8950806,37.7416573 	"/>
	<path class="st0" d="M243.89328,39.9074593c1.8348083-0.0559006,3.5848083-0.117897,5.3354187-0.1458969
		c0.1427917-0.0024033,0.3588867,0.2001953,0.4210815,0.3555984c0.2377014,0.5938034,0.4295044,1.2062988,0.6329956,1.813797
		c0.1845093,0.5506058,0.5479126,0.9673004,1.114624,1.0389023c1.0492859,0.132103,2.1141968,0.2715988,3.1642761,0.2250977
		c0.8995056-0.0399933,1.5431213-0.6214981,1.7174072-1.5583954c0.1772156-0.9519043-0.0446777-1.8198013-0.8625793-2.3899002
		c-0.4992981-0.3479996-1.0832214-0.6063004-1.6643982-0.7993011c-1.2763062-0.424202-2.5842285-0.7542038-3.8612061-1.1764984
		c-0.7879028-0.260498-1.5872192-0.5421982-2.3051147-0.9488983c-2.7812805-1.5755997-3.8460083-4.7472-2.7629089-7.94561
		c0.5605164-1.6553955,1.5398254-2.8276978,3.2329102-3.4664917c3.1202087-1.1771088,6.243103-1.5198059,9.3583984-0.1500092
		c2.6437073,1.1626129,3.8721924,3.4085083,4.3656921,6.1867065c-0.1727905,0.0424042-0.2897949,0.0955963-0.407074,0.0960999
		c-1.6901245,0.0063019-3.3809204,0.0180054-5.0707092-0.0093994c-0.2026062-0.0030975-0.4689026-0.1808929-0.5898132-0.357193
		c-0.3989868-0.5808105-0.7449951-1.1981049-1.1109009-1.8015137c-0.5041809-0.8319855-1.5958862-1.2602997-2.6221008-1.0279999
		c-1.0119934,0.2289124-1.786377,1.0401001-1.7843933,2.0720062c0.0007019,0.404007,0.253418,0.9562988,0.5736084,1.1779022
		c0.5455017,0.3773956,1.2153931,0.621994,1.8671875,0.7906036c2.4140015,0.6236877,4.7113953,1.513092,6.8992004,2.7166901
		c1.5549011,0.8550034,2.5027161,2.083107,2.7644043,3.8443069c0.2883911,1.9420013,0.2337036,3.838501-0.6792908,5.6329956
		c-0.9429932,1.8535995-2.4458008,3.0559006-4.4649048,3.4341049c-2.2948914,0.4296951-4.6386108,0.6231995-6.9533997,0.1517944
		c-3.1766968-0.646698-6.1401978-2.9354935-6.3070984-6.9873962C243.8847961,40.4470634,243.89328,40.2137642,243.89328,39.9074593"
		/>
	<path class="st0" d="M193.5355835,24.8778648c0,1.7496033,0.0006104,3.4586029-0.0018005,5.1674957
		c0,0.0803986-0.026001,0.1607056-0.0506897,0.3018036h-6.3532104v17.4125977h-6.4198914V30.3593559h-6.400116v-5.4814911
		H193.5355835z"/>
	<path class="st1" d="M72.1590958,51.3000603c-1.1289978,0.0173035-1.917099-0.0161972-2.5713043-0.5708008
		c-1.4989929-1.2707977-1.3522949-3.043396,0.3165131-4.1748962c0.8019867-0.5438004,1.7374878-0.5327988,2.6184998-0.7634048
		c1.0840912-0.2838974,2.1330872-0.7010956,3.2006989-1.0505981c0.6875916-0.2248993,1.3973999-0.3903961,2.0688019-0.6549988
		c1.547699-0.6102982,3.0114899-1.3225021,4.35849-2.3751984c1.8093109-1.4141006,3.8330994-2.5523987,5.7544098-3.8247986
		c1.1583862-0.7672043,2.3278961-1.5233002,3.4366913-2.3584061c1.3753052-1.0357971,2.6972046-2.1428986,4.033905-3.2296906
		c0.8685913-0.7063141,1.8128967-0.8907013,2.5401917-0.4680023c0.5805054,0.3376007,0.8352051,0.8997955,0.5888062,1.5238953
		c-0.1520081,0.3847961-0.3854065,0.7792969-0.6867065,1.0558014c-1.144989,1.0505981-2.3364868,2.0508957-3.5034943,3.0782013
		c-1.021698,0.899498-1.9597931,1.9171982-3.0718994,2.6838989c-0.9958038,0.6869965-1.6907043,1.4178009-1.7572021,2.6662979
		c-0.0077057,0.1434021-0.3233032,0.388504-0.4942932,0.3867035c-1.3993988-0.0138016-2.5741119,0.3488998-3.4692078,1.5421982
		c-0.3199005,0.4263992-0.9568024,0.614296-1.4472961,0.9141006c-0.5446014,0.3325958-1.1259003,0.6194992-1.6235962,1.0121994
		c-1.8289032,1.4433975-3.9197083,2.3001022-6.1451111,2.9019012c-0.5014954,0.1355972-0.9863892,0.3964005-1.4272003,0.6801987
		C73.9428024,50.8771629,72.9724045,51.3310585,72.1590958,51.3000603"/>
	<path class="st1" d="M79.8380051,11.3418541c-0.0088043-1.6336975,1.1310883-2.4879913,2.7428894-2.208786
		c0.7965088,0.1377869,1.6659088,0.1144867,2.4598083-0.0460052c1.7008972-0.3437958,3.3654938-0.4129944,5.0845947-0.091507
		c0.8751984,0.1636047,1.8182068,0.0435028,2.7216949-0.0424957c1.0602112-0.1007996,2.0635986-0.1542053,2.7660065,0.8531952
		c0.5097961,0.7312012,0.550293,1.5989075,0.0982971,2.2855072c-0.4162903,0.6322021-1.2144012,0.998291-2.0359955,0.7332001
		c-1.4707947-0.4745941-2.8890076-0.3618011-4.3423004,0.0504913c-0.4492035,0.1275024-0.9983978,0.1332092-1.4439087,0.0007019
		c-1.5884857-0.4723969-3.1234894-0.2231903-4.6807861,0.1347046c-0.5899048,0.1356964-1.2279053,0.1887054-1.8275146,0.1242065
		C80.3848038,13.0281639,79.8433914,12.331768,79.8380051,11.3418541"/>
	<path class="st1" d="M0.0000992,45.2482643c0.3759995-1.5939026,0.7793961-3.4190063,1.2537994-5.2257004
		c0.1082001-0.4115067,0.4726028-0.7523041,0.7018967-1.1360016c0.335701-0.5620041,0.6550064-1.1338043,0.9830017-1.7006989
		c0.2222977-0.3841019,0.4034042-0.8031006,0.6819992-1.1412048c0.3569031-0.4328003,0.8804016-0.5479965,1.4000015-0.353096
		c0.5299988,0.1988983,0.8936005,0.6091003,0.9336014,1.1963959c0.0255966,0.378006-0.0522995,0.7626038-0.0782013,1.1445007
		c-0.0576019,0.8493042-0.2507019,1.7187042-0.1334991,2.5435028c0.160202,1.1270981-0.1731033,2.0346985-0.7022018,2.9738998
		c-0.4868011,0.8638-0.9112015,1.7756958-1.2486954,2.7077026c-0.4942017,1.3634949-1.6920013,1.9643936-2.8677063,1.3391953
		C0.3042984,47.266964-0.0060043,46.5582619,0.0000992,45.2482643"/>
	<path class="st1" d="M12.6084976,39.8693581c0.0552063,0.5291061,0.0332031,1.0813065,0.180603,1.5835037
		c0.4311981,1.469902-0.2367096,2.8159027-0.3892975,4.2182999c-0.0815125,0.7497025-0.4533997,1.3225021-1.0580063,1.7502975
		c-0.5725021,0.4055023-0.9888,0.3312988-1.4378967-0.207901c-0.8488998-1.0193939-1.0141983-2.2490997-1.2083054-3.5069962
		c-0.293396-1.9003983,0.0075073-3.7474976,0.2850037-5.6039047c0.0994034-0.6641998,0.9393005-1.4115982,1.5311966-1.4335938
		c0.892807-0.0332031,1.8205032,0.6031952,1.9812088,1.4166946c0.1149902,0.5823059,0.1495972,1.1804047,0.2198944,1.7714996
		C12.678093,39.8611641,12.6433029,39.8653603,12.6084976,39.8693581"/>
	<path class="st1" d="M43.6157913,39.5617638c0.0051117,0.912796-0.3774872,1.5384979-1.261795,1.7705994
		c-0.6477966,0.1699982-1.3419952,0.1730957-2.017395,0.2270966c-0.8661041,0.0691986-1.7333984,0.1352005-2.6016998,0.164505
		c-0.6950989,0.0234985-1.4035034,0.0634995-2.0852966-0.0399017c-0.5989075-0.0908051-0.9294128-0.5899048-1.0098114-1.1851044
		c-0.1460876-1.0820999,0.5716095-2.1148987,1.6469116-2.3340988c0.9799957-0.199501,1.9744873-0.3263016,2.9594879-0.5029984
		c0.3975067-0.0711975,0.7917023-0.1719971,1.1784058-0.2893982C41.9760056,36.9020576,43.6070938,38.0163612,43.6157913,39.5617638
		"/>
	<path class="st1" d="M16.9706039,34.5213585c0.7360992-0.0059967,1.3297882,0.2492065,1.7158966,0.9099045
		c0.9266052,1.5861969,1.1040039,3.3238983,1.0231018,5.1076965c-0.01091,0.2415009-0.1362,0.493103-0.259201,0.7113037
		c-0.5834961,1.0338974-1.110199,1.0904007-2.0370026,0.3756943c-1.7024078-1.3125992-2.1363068-3.1720963-2.2687988-5.1455002
		C15.074791,35.4408607,15.9999924,34.5267601,16.9706039,34.5213585"/>
	<path class="st1" d="M50.8422012,43.6025581c-0.1161957-0.4769974-0.227005-0.9585953-0.2902985-1.4446945
		c-0.2731018-2.0956039-0.3414001-4.2334061-1.080307-6.2386017c-0.5244904-1.4232025-0.6239929-2.8450012-0.5063934-4.345108
		c0.0957031-1.223999-0.0643005-2.4667969-0.09021-3.7014923c-0.0154877-0.7402039,0.0122986-1.480896,0.0136108-2.2216949
		c0.0010986-0.5285034-0.0267029-1.0576019-0.0108032-1.5856018c0.0168915-0.5635986,0.0576019-1.1273041,0.1105957-1.6887054
		c0.0657043-0.6985016,0.1893005-1.3927917,0.2248993-2.0921936c0.0509033-1.0024109,0.0243988-2.0086975,0.0713959-3.0115051
		c0.0237122-0.5093994,0.2549133-1.031601,0.1858063-1.5187073c-0.2023926-1.427887,0.1305084-2.6837921,0.9607086-3.835495
		c0.073288-0.1017914,0.1199951-0.2259979,0.1635895-0.3453979c0.6551971-1.7922058-0.0800018-3.8524017-1.6871948-4.8872986
		c-0.4539032-0.2920074-0.8078003-0.7360992-1.225296-1.0895081c-0.321701-0.2724915-0.6412048-0.6651001-1.0139008-0.7379913
		c-1.1177979-0.219101-2.2235107-0.4888-3.3265991-0.7301941c-1.4436035-0.3160093-3.0090027-0.0733032-4.5220032-0.077713
		c-0.6352997-0.0019989-1.2868958,0.0643005-1.9018097-0.0536954c-0.8306885-0.1595917-1.6047974-0.1181946-2.386795,0.1826017
		c-0.2731018,0.1049957-0.572998,0.1454926-0.8639984,0.1976013c-0.4134979,0.0740051-0.8287048,0.1403961-1.2451935,0.1940002
		C31.8608932,4.643261,31.299202,4.720562,30.7352982,4.7584648c-0.8009033,0.0540009-1.6036987,0.0874023-2.4062042,0.104599
		c-0.7830963,0.0164948-1.59729,0.1372986-2.3430023-0.0310974c-1.1498871-0.2597046-1.9790955-0.1248016-2.6355896,0.8619995
		c-0.4582062,0.6885986-0.8267059,1.446701-1.1585083,2.2072906c-1.0473022,2.4019012-0.9600983,4.8624115,0.2197113,7.123703
		c0.7863922,1.506897,1.1680908,3.0061951,1.1905975,4.6477966c0.0225983,1.6681061,0.0477905,3.3373108,0.0096893,5.0045013
		c-0.0396881,1.7362061-0.0825958,3.4779053-0.2652893,5.202301c-0.0926056,0.8740082-0.5584106,1.7019958-0.7454071,2.574295
		c-0.3070984,1.4329071-0.4235992,2.9126053-0.8050995,4.3226089c-0.5101929,1.8856964-1.110199,3.7561951-2.385498,5.3225021
		c-0.3260956,0.4002991-0.5426025,0.9166946-0.7118988,1.4128952c-0.5377045,1.5774994,0.3880005,3.0866013,2.0195007,3.3256989
		c0.2431946,0.0359039,0.5211029,0.0125046,0.7516022-0.0709c0.9375916-0.3390961,1.7773895-0.9056015,2.1349945-1.8288956
		c0.5922089-1.5289993,1.0733948-3.107605,1.4949036-4.6937027c0.298996-1.1257019,0.4295044-2.2970963,0.623291-3.4503021
		c0.2608032-1.5515976,0.5098114-3.1047974,0.7728119-4.7113037c0.3564911,0.1403046,0.6974945,0.333313,1.0625916,0.4064026
		c0.7969055,0.1593018,1.2069092,0.589798,1.2129974,1.4042053c0.0019989,0.2770996-0.0139923,0.5590973-0.0636902,0.8312988
		c-0.2508087,1.3713989-0.1298981,2.7294006,0.1564026,4.0754013c0.3128967,1.4710007,1.2247925,2.3007965,2.7086945,2.5261002
		c0.5845032,0.0886993,1.1082001-0.235199,1.4869995-0.8968048c0.3052979-0.5331955,0.3565063-0.9897995-0.111496-1.5090942
		c-0.2792053-0.3097-0.4522095-0.7851028-0.5124054-1.2087021c-0.1591949-1.1221008-0.2095947-2.2486038,0.1488953-3.364006
		c0.1410065-0.438797,0.1146088-0.9286957,0.2071991-1.3865967c0.0398102-0.196701,0.1417084-0.4689026,0.2938995-0.5410004
		c1.1845093-0.5616913,2.3236084-1.3047943,3.7420044-1.0672913c0.1822052,0.0307922,0.3861084-0.0088043,0.5700073-0.0553131
		c1.0894928-0.2756958,2.1582031-0.1961975,3.2268982,0.1242065c0.8573914,0.2566986,1.7276917,0.3041992,2.586792-0.0054932
		c1.2404022-0.447113,1.6210022-1.8627014,0.766098-2.8734131c-0.5855865-0.6921997-1.3559875-1.0106964-2.2543945-1.0454865
		c-1.0681915-0.041214-2.1365051-0.0825043-3.2041016-0.1362c-0.5549927-0.0278015-1.4384003-0.8501129-1.4162903-1.2866058
		c0.0310974-0.6156006,0.1105957-1.2360077,0.0623932-1.8460083c-0.0442047-0.562088,0.177002-0.8519897,0.6741028-0.9812927
		c1.4541931-0.378006,2.9203949-0.5845032,4.4351044-0.4526062c1.3553925,0.1180115,2.0986938,1.13591,3.018692,1.9042053
		c0.0606995,0.0507965,0.1150055,0.1437988,0.120697,0.2209015c0.0867004,1.1461945,0.2371063,2.2937927,0.2291107,3.4398041
		c-0.0139008,2.0462952-0.1580048,4.0914917-0.1833038,6.1380005c-0.0171051,1.4053955,0.079895,2.8121948,0.1156006,4.2183914
		c0.0173035,0.6815033-0.0274048,1.3661041,0.0226898,2.0445023c0.1019135,1.3861008,0.2075043,2.7749023,0.3953094,4.1511002
		c0.0926971,0.6809006,0.2557983,1.4016037,0.588501,1.990303c0.7854919,1.3894958,2.9902039,1.4144974,3.6808929,0.0441971
		C50.781395,45.9164619,51.1350021,44.8033638,50.8422012,43.6025581 M31.8290024,27.8809624
		c-1.2562103,0.1322937-2.572998-0.1784058-3.7720032,0.4335938c-0.4127045,0.2105103-0.8204041,0.4313049-1.3460083,0.7082977
		c0.0103149-0.234787-0.0036926-0.4193878,0.030014-0.5945892c0.1727905-0.8979034,0.3407898-1.7975006,0.5436859-2.688797
		c0.1936035-0.8515015,1.1741028-1.6025085,2.0186005-1.713501c0.6464081-0.0848999,1.2977142-0.2472076,1.9059143-0.4807129
		c1.0583954-0.4063873,2.3053894,0.3605042,2.3202972,1.4750061c0.004303,0.3180084,0.0316925,0.6401062,0.0903931,0.9521942
		C33.8422012,27.1561546,33.2052994,27.7360649,31.8290024,27.8809624 M45.9260025,13.8283653
		c-0.0868988,1.4917908-0.1652985,2.9841003-0.2651978,4.4749908c-0.0366058,0.5473022-0.6044006,1.1134033-1.1487122,1.0968018
		c-1.1100922-0.0337982-2.2242889-0.0809021-3.3237-0.2238922c-0.2303925-0.0299988-0.5870972-0.5077972-0.571991-0.7607117
		c0.0634918-1.0647888,0.290802-2.0640869,0.9904938-2.9788971c0.9656067-1.2626953,1.2458954-2.7550964,0.764801-4.3152924
		c-0.4197998-1.3610077-1.3244934-1.6455078-2.5034027-0.8569031c-0.8621979,0.5765991-1.1911011,1.3647919-1.4093933,2.3802948
		c-0.2806091,1.3061066-0.4232025,2.5559082-0.3466949,3.8995972c0.0417938,0.7319031-0.5261078,1.5413055-0.9432068,2.2419128
		c-0.2982941,0.501297-0.844696,0.6970978-1.4942932,0.6867981c-0.5569-0.008606-1.1177063,0.1963959-1.6762085,0.3103027
		c-0.1251984,0.0257874-0.2462921,0.0895996-0.3712006,0.0956879c-1.1641998,0.0559082-2.3287964,0.1056061-3.4935913,0.1513062
		c-0.4441071,0.0175018-0.8887024,0.0198975-1.3330078,0.0285034c-0.1264038,0.0023956-0.2897949,0.0558014-0.3735962-0.0033112
		c-1.2024078-0.8481903-2.4947052-1.615097-2.5435028-3.3628998c-0.0285034-1.0218964-0.1235046-2.0473938-0.2736969-3.0586853
		c-0.1306-0.8798065,0.1698914-1.6298065,0.4662018-2.4140015c0.7195892-1.9055023,2.3739929-2.2927094,4.0956879-2.6054993
		c0.5611115-0.102005,1.1495056-0.170105,1.6631012-0.3957062c1.5667114-0.6880035,3.1625061-0.8650055,4.8242035-0.4725952
		c0.9956055,0.235199,1.9824066,0.2520905,2.9830017-0.0116119c0.360199-0.0947876,0.7727966-0.1207886,1.136795-0.0503998
		C43.3082962,8.1721611,46.2511978,10.4628563,45.9260025,13.8283653"/>
	<path class="st1" d="M16.8633041,15.4467583c0.4796906-0.3423004,1.0358887-0.6018982,1.5912933-0.808197
		c0.788208-0.2926941,1.1820984-0.8665009,1.2126007-1.6437073c0.030899-0.789093-0.063797-1.5842896-0.1224976-2.3752899
		c-0.010498-0.1403046-0.0998077-0.2821045-0.1764984-0.4087982c-0.638504-1.0521088-1.5431976-1.6914063-2.7937012-1.8023987
		c-0.2745972-0.0245056-0.5462036-0.0909119-0.8173065-0.1464996c-0.8990021-0.1844025-1.6095886,0.3600006-2.3927002,0.6205902
		c-0.0656891,0.0218964-0.116394,0.1244049-0.1502991,0.2002106c-0.2669983,0.5997925-0.35849,0.984787,0.3966064,1.4326935
		c0.9116974,0.5410919,0.9572906,0.9340057,0.4210968,1.759903c-0.1717072,0.2646942-0.2566071,0.584198-0.4078979,0.8643036
		c-0.1701965,0.3151855-0.3594055,0.6217957-0.5610962,0.9180908c-0.1890106,0.2776031-0.4176025,0.5281982-0.6069031,0.8056946
		c-0.5523071,0.8100128-1.5216064,0.9776001-2.2692032,1.4858093c-0.0418015,0.0283051-0.1260986,0.0025024-0.1885986-0.0093994
		c-1.4076996-0.2693024-2.5727005-0.9239044-3.354599-2.1582031c-0.1327057-0.2095947-0.2938004-0.4855042-0.2597046-0.7021027
		c0.1938019-1.2364044,0.4669037-2.4458008,1.176506-3.5247955c0.5425949-0.8251038,0.9776001-1.7201996,1.4944-2.5633087
		c0.2483978-0.4053955,0.5021973-0.9532928,0.883194-1.0993958c0.6667023-0.2557983,1.2750015-0.8220978,2.093399-0.6192932
		c0.1204071,0.0298004,0.2748108-0.0982971,0.4179077-0.1372986c0.3426971-0.0931091,0.6840973-0.2288055,1.0327911-0.2539978
		c1.0056-0.0727081,1.7835083-0.8053131,1.7680969-1.7192075c-0.0235901-1.3780975-1.5042877-2.6537933-3.0290985-2.6454926
		c-0.4846954,0.0024872-0.9778976-0.0505066-1.4532928-0.1464081C9.7921982,0.572857,8.865799,0.9213678,8.207695,1.45216
		C7.3912964,2.1104548,6.8201981,3.0889552,6.1988983,3.9684565C5.6272964,4.7776604,5.0931015,5.6189537,4.6077957,6.4827538
		c-0.6998978,1.2458038-1.3598938,2.5154114-1.9953995,3.7956085c-0.1843948,0.3717041-0.142601,0.8638-0.3499985,1.2151947
		c-0.6312027,1.0696106-0.6881027,2.0718079,0.1275024,3.0635986c0.0789948,0.0959015,0.1537018,0.2168121,0.1740952,0.3357086
		c0.1927032,1.1257019,1.0645065,1.7200012,1.9235992,2.1971893c1.4316025,0.7950134,1.9064026,2.2791138,1.0943069,3.7245026
		c-0.2853012,0.5074005-0.3869019,1.1153107-0.6074066,1.6631012c-0.1307983,0.3258057-0.2601929,0.7046967-0.5100937,0.9213104
		C2.9113007,24.7451591,2.0084,26.3205681,2.4760971,28.4548607c0.0541,0.2471008,0.0062027,0.5153046,0.0502014,0.7658997
		c0.4008026,2.2895966,1.625,4.0317078,4.1397018,4.0951996c0.7610016,0.0193024,1.5178986,0.3318024,2.2695007,0.5368042
		c0.4039993,0.110199,0.7922974,0.2773895,1.0519943,0.3703003c0.7565994-0.1161041,1.3429031-0.2514038,1.9353027-0.287796
		c1.3403015-0.0823059,2.4485931-0.5518036,3.3950958-1.5542145c0.8003998-0.8474884,1.6764069-1.6839905,2.6679993-2.275589
		c1.2899017-0.7696991,1.668808-2.5431976,1.3740082-3.6390076c-0.1934052-0.7185974-0.3106995-1.4582977-0.4488983-2.1911011
		c-0.2181091-1.1548004-0.387207-2.3197937-1.3065033-3.1972961c-0.2062988-0.1970978-0.2933044-0.5164032-0.444809-0.7738037
		c-0.1068878-0.1817932-0.1894989-0.4306946-0.3530884-0.5169983c-0.7362061-0.3887939-0.8961029-1.0112915-1.0006104-1.7879028
		C15.6568985,16.8909569,16.0033951,16.0605583,16.8633041,15.4467583 M15.4874039,25.2586632
		c-0.0707092,0.9508972-0.3016052,1.8903961-0.4697113,2.8334045c-0.0175934,0.098999-0.0812988,0.2003937-0.1493988,0.2778931
		c-0.8192902,0.9300995-1.8165894,1.4683075-3.0911942,1.3840027c-0.0427017-0.0045013-0.090004-0.022995-0.1269989-0.0106964
		c-1.1414032,0.3829956-2.1965027-0.1765137-3.2910004-0.2998047c-1.1125031-0.1251068-2.1789017-1.1842957-2.1985016-2.295105
		c-0.0057983-0.3403015,0.2129974-0.7433014,0.4468994-1.0162964c0.4281998-0.4998016,0.7285995-1.0144043,0.8766022-1.6719055
		c0.0895996-0.3976898,0.3839951-0.8227997,0.7098007-1.0787964c0.6874008-0.5399933,1.2878952-1.117691,1.6212997-1.9409027
		c0.0550995-0.1355896,0.1259003-0.3231964,0.2373962-0.3681946c0.6832047-0.2765045,1.365799-0.6631012,2.0761032-0.7324982
		c0.7384033-0.0720062,1.4078979,0.2763977,1.8602905,1.0052032C14.7450027,22.5627556,15.6001968,23.7420616,15.4874039,25.2586632
		"/>
	<path class="st0" d="M242.5457764,47.1820641c-2.521698-7.3577042-5.0491943-14.7136993-7.5618896-22.0745087
		c-0.133606-0.3912964-0.35849-0.4514923-0.7142029-0.4488983c-1.9476013,0.0131073-3.8956909,0.023407-5.8430786-0.0007019
		c-0.4614258-0.0058899-0.6681213,0.1363068-0.8149109,0.5799103c-2.3925171,7.2194977-4.8031921,14.4329987-7.2076111,21.6485977
		c-0.0765991,0.2296982-0.1295776,0.4673004-0.2117004,0.7674942c2.1130981,0,4.1231995,0.0105057,6.1325073-0.0213928
		c0.1513062-0.0026016,0.3829956-0.2874069,0.432312-0.4785004c0.2349854-0.9093018,0.4463806-1.827301,0.6103821-2.7520065
		c0.0720215-0.4048996,0.2387085-0.5255966,0.6286926-0.5233994c2.2687988,0.0125046,4.5376282,0.0121002,6.8066101,0.0003052
		c0.3916016-0.0022049,0.5625916,0.1065979,0.6051025,0.5309982c0.0997009,0.9948959,0.2623901,1.9834976,0.4042969,3.0066986
		h6.7357178C242.5480042,47.3073616,242.5648804,47.2385597,242.5457764,47.1820641 M229.2857971,38.7951622
		c0.5853882-2.4896011,1.1634827-4.9485016,1.7416992-7.407196c0.0434875,0.0039978,0.0868835,0.008194,0.1302795,0.0122986
		c0.7255249,2.4461975,1.4510193,4.8921967,2.1932068,7.3948975H229.2857971z"/>
	<path class="st1" d="M29.8731918,13.2472649c-0.0115967-0.8751068,0.5869141-1.8361053,1.1009064-1.9835052
		c0.7868042-0.2257996,1.8862,0.074707,2.1987,0.7749939c0.4004059,0.8973083,0.6387939,1.8694,0.9156036,2.818512
		c0.1004028,0.343689,0.167099,0.7171021,0.1479034,1.0713959c-0.0283051,0.5195007-0.0539093,1.0729065-0.2477112,1.5429993
		c-0.4143982,1.0050049-1,1.0420074-1.8869019,0.423996C30.3805923,16.6968651,30.0595016,14.9091606,29.8731918,13.2472649"/>
</g>
</svg>
