<svg width="1000" height="356.39" viewBox="135.5 361.38 1000 356.39" xmlns="http://www.w3.org/2000/svg"><path d="M245.808 717.624c-29.796-1.184-54.174-9.337-73.235-24.48-3.638-2.892-12.306-11.566-15.214-15.224-7.73-9.72-12.985-19.179-16.49-29.673-10.786-32.307-5.235-74.7 15.877-121.225 18.077-39.831 45.97-79.336 94.633-134.05 7.168-8.052 28.515-31.597 28.653-31.597.05 0-1.112 2.015-2.577 4.469-12.653 21.194-23.48 46.158-29.377 67.77-9.475 34.679-8.332 64.439 3.347 87.515 8.056 15.898 21.867 29.669 37.398 37.281 27.188 13.321 66.995 14.423 115.607 3.224 3.347-.775 169.193-44.8 368.55-97.836 199.357-53.04 362.495-96.403 362.52-96.367.056.046-463.162 198.26-703.626 301.091-38.082 16.28-48.266 20.393-66.169 26.679-45.765 16.071-86.76 23.74-119.897 22.423z"/></svg>