<svg viewBox="0 0 24 24" xmlns="http://www.w3.org/2000/svg"><defs><linearGradient gradientTransform="matrix(0.24 0 0 -0.24 -0.9384 26.6328)" gradientUnits="userSpaceOnUse" id="LinearGradient" x1="82.85" x2="51.26" y1="30.41" y2="105.9"><stop offset="0" stop-color="#6c56cc"/><stop offset="1" stop-color="#9785e5"/></linearGradient></defs>
<path d="M15.1464 0L7.5384 4.2048L4.44 10.908L9.1368 21.7128L15.804 24L17.0256 21.552L19.56 6.3336L15.1464 0Z" fill="#34208c"/>
<path d="M19.56 6.3336L14.8656 3.4584L8.3832 8.568L15.804 24L17.0256 21.552L19.56 6.3336Z" fill="url(#LinearGradient)"/>
<path d="M19.56 6.3336L19.56 6.3336L15.1464 0L14.8656 3.4584L19.56 6.3336Z" fill="#af9ff4"/>
<path d="M14.8656 3.4584L15.1464 0L7.5384 4.2048L8.3832 8.568L14.8656 3.4584Z M8.3832 8.568L9.1368 21.7128L15.804 24L8.3832 8.568Z" fill="#4a37a0"/>
</svg>
