<svg viewBox="0 0 24 24" xmlns="http://www.w3.org/2000/svg"><path d="M8 4C3.58172 4-1.40847e-07 7.58172-2.22045e-16 12C1.40847e-07 16.4183 3.58172 20 8 20C12.4183 20 16 16.4183 16 12C16 7.58172 12.4183 4 8 4ZM8 14.4C6.67452 14.4 5.6 13.3255 5.6 12C5.6 10.6745 6.67452 9.6 8 9.6C9.32548 9.6 10.4 10.6745 10.4 12C10.4009 12.6368 10.1483 13.2477 9.698 13.698C9.24772 14.1483 8.63678 14.4008 8 14.4Z" fill="#ffc600" fill-opacity="0.713725"/><path d="M16.992 10C19.0246 10.585 21.424 10 21.424 10C20.7277 13.04 18.5197 14.944 15.3357 15.1757C14.0738 18.1048 11.1894 20.0017 8 20L10.4 12.3718C12.8672 4.5312 14.1318 4 19.9827 4L24 4C23.328 6.96 21.0118 9.22112 16.992 10Z" fill="#0071ce"/></svg>
