<svg viewBox="0 0 24 24" xmlns="http://www.w3.org/2000/svg"><path d="M9.40231 10.4994L12.0008 8.99866L14.5992 10.4985L14.5992 13.4991L12.0008 14.999L9.40231 13.4991L9.40231 10.4994ZM8.30519 12.8652L6.28486 11.6988C6.27427 11.6935 6.26508 11.6858 6.25826 11.6761C6.2514 11.6665 6.24702 11.6552 6.24561 11.6435L6.24561 6.06425C6.24616 5.20975 6.49007 4.37308 6.94886 3.65216C7.40771 2.93123 8.06231 2.35594 8.83621 1.99358C9.61012 1.63118 10.4712 1.49679 11.3187 1.60598C12.1662 1.71524 12.9651 2.06364 13.6218 2.61039C13.5853 2.63029 13.522 2.66526 13.4798 2.69083L8.70117 5.45107C8.58122 5.51929 8.4817 5.61811 8.41261 5.73758C8.34363 5.85694 8.30768 5.99263 8.30849 6.13048L8.30519 12.8652ZM20.943 8.70767C20.9076 8.68588 20.8456 8.64853 20.8011 8.62301L16.0224 5.86272C15.9033 5.7932 15.7679 5.75655 15.63 5.75655C15.4921 5.75655 15.3566 5.7932 15.2375 5.86272L9.40329 9.23144L9.40329 6.89892C9.40264 6.88697 9.40491 6.87508 9.40994 6.86427C9.41496 6.85351 9.42259 6.84405 9.43215 6.83691L14.2629 4.05014C15.0029 3.6234 15.8492 3.41625 16.7027 3.45284C17.5562 3.48955 18.3816 3.76844 19.0824 4.25702C19.7831 4.7456 20.3303 5.42366 20.6598 6.21183C20.9893 7.00001 21.0876 7.8657 20.943 8.70767M18.9327 11.7333L13.0985 8.36466L15.1183 7.19884C15.1282 7.1923 15.1397 7.18829 15.1516 7.18721C15.1635 7.18613 15.1754 7.18808 15.1864 7.19273L20.0176 9.98183C20.7578 10.4094 21.3607 11.0389 21.7561 11.7968C22.1513 12.5546 22.3225 13.4094 22.2497 14.2611C22.1767 15.1127 21.8627 15.9259 21.3444 16.6055C20.8259 17.2852 20.1246 17.803 19.3226 18.0985L19.3226 17.9334L19.3226 12.4128C19.3237 12.2752 19.2882 12.1397 19.2196 12.0203C19.1511 11.9009 19.0521 11.8019 18.9327 11.7333M2.33793 7.87165C2.86263 6.95984 3.6914 6.26184 4.679 5.89959C4.679 5.94078 4.67667 6.01365 4.67667 6.06425L4.67667 11.5848C4.67581 11.7227 4.7117 11.8583 4.78068 11.9777C4.8496 12.0971 4.94907 12.196 5.06887 12.2642L10.9031 15.6325L8.8833 16.7987C8.87335 16.8053 8.86189 16.8093 8.85005 16.8104C8.83816 16.8115 8.82616 16.8096 8.81518 16.8049L3.98402 14.0134C2.95252 13.4161 2.20003 12.4341 1.89146 11.2828C1.58289 10.1315 1.74345 8.90476 2.33793 7.87165M3.59507 18.3038C3.0681 17.3933 2.87814 16.3264 3.05853 15.2899C3.09405 15.3112 3.156 15.3491 3.20049 15.3747L7.97911 18.1348C8.0982 18.2045 8.23367 18.2412 8.37163 18.2412C8.50954 18.2412 8.64501 18.2045 8.7641 18.1348L14.5983 14.7662L14.5983 17.0987C14.599 17.1106 14.5967 17.1226 14.5917 17.1334C14.5866 17.1442 14.579 17.1536 14.5695 17.1607L9.73878 19.9498C8.7055 20.5449 7.47831 20.7058 6.32654 20.3973C5.17477 20.0887 4.19241 19.3358 3.59507 18.3038M13.2584 22.4309C12.2063 22.4325 11.1873 22.064 10.3794 21.39C10.4158 21.3702 10.4797 21.3351 10.5213 21.3097L15.2999 18.5494C15.4199 18.4811 15.5195 18.3822 15.5885 18.2626C15.6575 18.1431 15.6935 18.0074 15.6927 17.8695L15.6927 11.1325L17.7125 12.2988C17.7231 12.3041 17.7322 12.3119 17.7391 12.3215C17.7459 12.3312 17.7502 12.3424 17.7518 12.3541L17.7518 17.9334C17.7502 19.125 17.2765 20.2675 16.4343 21.1104C15.592 21.9535 14.45 22.4283 13.2584 22.4309M22.2792 9.82241C22.5482 9.01445 22.6415 8.15843 22.5529 7.31155C22.4642 6.46461 22.1958 5.64643 21.7654 4.91172C21.1273 3.80044 20.1527 2.92053 18.9821 2.39908C17.8116 1.87763 16.5056 1.74156 15.2526 2.01045C14.6875 1.37359 13.9929 0.864732 13.2152 0.518C12.4374 0.171322 11.5947-0.00523368 10.7432 0.000118127C9.46221-0.00296322 8.21329 0.400801 7.17656 1.15324C6.13982 1.90574 5.36884 2.96799 4.97475 4.18691C4.14025 4.35773 3.35186 4.70484 2.66234 5.20505C1.97282 5.7052 1.39818 6.34693 0.976736 7.08721C0.3336 8.19546 0.0590902 9.47925 0.192723 10.7537C0.32641 12.028 0.861374 13.2269 1.72053 14.1776C1.45153 14.9855 1.35817 15.8415 1.44678 16.6885C1.53543 17.5353 1.80394 18.3535 2.23436 19.0883C2.87246 20.1996 3.84709 21.0793 5.01767 21.6008C6.18815 22.1223 7.49415 22.2583 8.74707 21.9895C9.3122 22.6264 10.0069 23.1352 10.7845 23.4819C11.5623 23.8286 12.405 24.0052 13.2565 23.9999C14.5381 24.0032 15.7877 23.5993 16.8248 22.8463C17.862 22.0934 18.6331 21.0304 19.0269 19.8107C19.8614 19.6399 20.6498 19.2928 21.3393 18.7926C22.0287 18.2924 22.6034 17.6507 23.0249 16.9104C23.6672 15.8023 23.9411 14.5188 23.807 13.2449C23.6731 11.971 23.1381 10.7727 22.2792 9.82241" fill="#000000"/></svg>
