<svg viewBox="0 0 8 8" xmlns="http://www.w3.org/2000/svg"><path d="M3.528 0A2.003 2.003 0 0 1 5.03.67a2.02 2.02 0 0 1 2.17.966c.29.496.353 1.092.171 1.637.588.653.688 1.606.247 2.365-.282.498-.767.85-1.33.967A2.024 2.024 0 0 1 4.365 8a1.995 1.995 0 0 1-1.5-.672 2.02 2.02 0 0 1-2.173-.97A1.985 1.985 0 0 1 .52 4.725a2.015 2.015 0 0 1-.25-2.363 2 2 0 0 1 1.333-.967A2.024 2.024 0 0 1 3.528 0ZM5.18 3.804v2.153a.254.254 0 0 1-.13.228l-1.593.918a.922.922 0 0 1-.048.028c.268.224.61.346.959.346A1.496 1.496 0 0 0 5.866 5.98V4.2l-.686-.395Zm-.447 1.165L2.87 6.047a.267.267 0 0 1-.262 0l-1.593-.921-.046-.027a1.499 1.499 0 0 0 2.224 1.55l1.541-.89v-.79Zm.345-2.533-.686.395L6.26 3.909a.26.26 0 0 1 .13.228V6.03c.327-.12.604-.353.78-.656a1.503 1.503 0 0 0-.55-2.05l-1.541-.89Zm-3.571-.47a1.502 1.502 0 0 0-.233 2.707l1.539.889.688-.398-1.864-1.076a.263.263 0 0 1-.13-.227Zm2.438 1.122-.785.456v.907l.785.455.786-.455v-.907l-.786-.456ZM3.528.52A1.5 1.5 0 0 0 2.03 2.021v1.783l.685.395V2.043a.26.26 0 0 1 .13-.228L4.438.897 4.487.87a1.502 1.502 0 0 0-.962-.347Zm1.919.628c-.262 0-.52.07-.746.201L3.16 2.24v.792l1.866-1.079a.267.267 0 0 1 .263 0l1.593.921c.013.009.035.02.046.028a1.5 1.5 0 0 0-1.481-1.754Z" fill="#0F0F0F" fill-rule="nonzero"/></svg>