
<svg viewBox="0 0 24 24" xmlns="http://www.w3.org/2000/svg"><path d="M7.56688 19.5669C3.36306 19.5669 0 16.2038 0 12C0 7.79618 3.36306 4.43312 7.56688 4.43312L16.4331 4.43312C20.6369 4.43312 24 7.79618 24 12C24 16.2038 20.6369 19.5669 16.4331 19.5669L7.56688 19.5669ZM16.2038 16.8917C18.9554 16.8917 21.0955 14.6752 21.0955 12C21.0955 9.24841 18.879 7.10828 16.2038 7.10828L7.79618 7.10828C5.04459 7.10828 2.90446 9.32484 2.90446 12C2.90446 14.6752 5.12102 16.8917 7.79618 16.8917L16.2038 16.8917Z" fill="#c74634"/></svg>
