<svg viewBox="0 0 24 24" xmlns="http://www.w3.org/2000/svg"><path d="M9.365 18.042c-.12-.05-.317-.27.01-.884l.76-1.588c.023-.048-.033-.108-.067-.067l-.664.668c-.315.328-.848 1.25-.95 1.42l-.808 1.334a.109.109 0 0 1 .098.162l-.737 1.239c-.18.307.143.521.187.45 1.16-1.866 1.834-1.717 1.834-1.717l.387-.896a.09.09 0 0 0-.05-.12ZM12 2.442c-6.627 0-12 5.37-12 11.994a11.933 11.933 0 0 0 2.346 7.122c.504-.217.783-.542.983-.79l2.234-2.857a.455.455 0 0 1 .18-.138l.336-.144 3.673-4.658.533-.417 1.095-1.523a.45.45 0 0 1 .102-.103l.478-.347a.341.341 0 0 1 .396-.003l.58.407c.307.215.556.504.725.84l2.322 4.075c.038.078.102.14.181.174.456.226.734.266 1.33.913.278.302 1.496 1.664 3.204 3.78.248.34.58.61.963.782A11.934 11.934 0 0 0 24 14.436c0-6.624-5.372-11.994-12-11.994ZM3.236 15.097l-.778-.252-.48.66v-.816l-.779-.253.779-.252v-.818l.48.662.778-.253-.48.661.48.661Zm-.184 2.675-.253.777-.253-.777H1.73l.661-.48-.253-.778.662.48.662-.48-.253.777.662.48h-.818Zm.156-6.191.253.777-.662-.48-.662.48.253-.777-.661-.48h.817l.253-.778.253.777h.818l-.662.48Zm1.313-1.759-.48-.661-.778.252.48-.66-.48-.662.778.252.48-.66V8.5l.779.252-.779.252v.818Zm2.045-2.861-.252.777-.253-.777h-.818l.662-.48-.253-.778.662.48.661-.48-.253.778.662.48h-.818Zm2.577-1.313-.48.661v-.817l-.778-.252.778-.253V4.17l.48.66.778-.252-.48.662.48.66-.778-.252Zm3.266-.75.253.778-.662-.48-.661.48.252-.777-.661-.48h.817L12 3.64l.253.778h.817l-.66.48Zm2.928.594v.818l-.48-.662-.778.253.48-.661-.48-.662.778.253.48-.661v.817l.779.253-.779.252Zm5.427 8.283.778.252.48-.66v.816l.779.253-.779.253v.817l-.48-.661-.778.252.481-.66-.481-.662Zm-3.077-6.037-.253-.777h-.818l.662-.48-.253-.778.662.48.661-.48-.252.777.661.48h-.818l-.252.778Zm1.792 2.084v-.817l-.778-.253.778-.252v-.818l.48.662.779-.253-.48.661.48.662-.778-.253-.48.661Zm1.47 1.278.252-.777.253.777h.818l-.662.48.253.778-.662-.48-.661.48.253-.777-.662-.48h.817Zm.505 6.672-.253.777-.253-.777h-.818l.663-.48-.253-.778.661.48.662-.48-.253.777.662.48h-.818Zm-5.107 3.596c.057-.084.151-.314-.025-.74l-.53-1.427c-.073-.182.085-.293.19-.173 0 0 1.005 1.157 1.264 1.64l.495.821c.425.028 1.6.06 2.732.06a3.22 3.22 0 0 1-.315-.364c-1.93-2.391-3.154-3.722-3.167-3.735-.39-.425-.572-.507-.87-.643l-.138-.063v.363a.045.045 0 0 1-.086.022l-2.838-4.982-.007-.016a1.596 1.596 0 0 0-.508-.588l-.277-.194-1.354 3.121a.293.293 0 0 1 .27.41L9.93 17.771h1.149c.443 0 .883.086 1.293.254l.303.124s-.913 1.878-.913 2.867c.001.18.026.358.075.532h2.104l-.097-.593c.825.184 1.66.322 2.502.412Z" fill="#0064ff"/></svg>