<svg viewBox="0 0 24 24" xmlns="http://www.w3.org/2000/svg"><path d="m7.608 23.186.416-2.642-.926-.021H2.673L5.748 1.028a.251.251 0 0 1 .25-.213h7.46c2.476 0 4.185.515 5.078 1.532.418.477.684.976.813 1.525.136.575.138 1.263.006 2.102l-.01.062v.537l.419.237c.352.187.632.401.847.646.357.408.589.927.687 1.541.1.633.067 1.385-.098 2.237-.19.98-.5 1.833-.916 2.531a5.208 5.208 0 0 1-1.452 1.59 5.888 5.888 0 0 1-1.954.883c-.721.188-1.543.282-2.444.282h-.58c-.415 0-.819.15-1.135.418a1.757 1.757 0 0 0-.592 1.056l-.044.238-.735 4.656-.033.171c-.009.054-.024.081-.046.1a.123.123 0 0 1-.076.027H7.608Z" fill="#253b80"/><path d="M20.16 6.098c-.023.142-.048.288-.077.437-.983 5.051-4.35 6.796-8.648 6.796H9.246c-.525 0-.968.382-1.05.9l-1.12 7.107-.318 2.015a.56.56 0 0 0 .553.647h3.882c.46 0 .85-.334.922-.787l.038-.198.731-4.638.047-.254a.933.933 0 0 1 .923-.79h.58c3.761 0 6.706-1.526 7.566-5.945.36-1.846.173-3.387-.778-4.471a3.712 3.712 0 0 0-1.062-.82Z" fill="#179bd7"/><path d="M19.13 5.687a7.746 7.746 0 0 0-.956-.212c-.59-.096-1.237-.14-1.93-.14h-5.847a.929.929 0 0 0-.921.788l-1.244 7.878-.036.23c.082-.518.525-.9 1.05-.9h2.19c4.298 0 7.664-1.746 8.647-6.796.03-.15.054-.295.077-.437a5.242 5.242 0 0 0-.81-.342 7.238 7.238 0 0 0-.22-.069Z" fill="#222d65"/><path d="M9.476 6.123a.93.93 0 0 1 .921-.788h5.847c.693 0 1.34.045 1.93.14a7.753 7.753 0 0 1 1.178.28c.29.098.56.211.808.343.293-1.867-.002-3.138-1.011-4.289C18.036.542 16.029 0 13.459 0h-7.46c-.525 0-.973.382-1.054.901L1.837 20.597a.64.64 0 0 0 .633.741h4.605l1.157-7.337 1.244-7.878Z" fill="#253b80"/></svg>