<svg viewBox="0 0 24 24" xmlns="http://www.w3.org/2000/svg"><path d="M1.542 10.587C.692 10.587 0 11.28 0 12.13v3.568h.731v-1.98L1 14l1.075-.423c.612-.239 1.01-.791 1.01-1.448 0-.85-.692-1.542-1.543-1.542Zm.274 2.343-1.085.423V12.13c0-.492.369-.845.811-.845.443 0 .811.358.811.845 0 .309-.149.647-.537.801Zm12.632-2.343c-.85 0-1.542.692-1.542 1.542 0 .851.691 1.543 1.542 1.543a1.544 1.544 0 0 0 0-3.084Zm0 2.388c-.468 0-.811-.373-.811-.846 0-.472.353-.845.81-.845.468 0 .812.373.812.845 0 .473-.344.846-.811.846Zm3.338-1.691a.79.79 0 0 1 .711.432l.573-.437a1.544 1.544 0 0 0-2.826.855 1.544 1.544 0 0 0 2.826.856l-.573-.438a.79.79 0 0 1-.71.433c-.469 0-.812-.373-.812-.846 0-.472.353-.855.811-.855Zm-6.239 0a.79.79 0 0 1 .712.432l.572-.437a1.544 1.544 0 0 0-2.826.855 1.544 1.544 0 0 0 2.826.856l-.572-.438a.789.789 0 0 1-.712.433c-.467 0-.81-.373-.81-.846 0-.472.348-.855.81-.855Zm-2.557-.329c-.249-.258-.577-.368-.92-.368-.717 0-1.443.652-1.443 1.542s.726 1.543 1.443 1.543c.343 0 .671-.11.92-.368v.278h.731v-2.9H8.99v.273Zm-.81 2.02c-.468 0-.822-.373-.822-.846 0-.472.363-.845.821-.845.468 0 .811.373.811.845 0 .473-.343.846-.81.846Zm12.924-.95h-.328l1.269-1.348h-.94l-1.026 1.104V9.095h-.73v4.487h.73v-.825l.404-.428.86 1.253h.886l-1.125-1.557ZM4.866 10.587c-.851 0-1.543.692-1.543 1.542 0 .851.692 1.543 1.543 1.543.507 0 .985-.244 1.258-.622l-.587-.408c-.07.114-.293.333-.671.333a.797.797 0 0 1-.752-.512h2.224a1.48 1.48 0 0 0 .035-.334c.005-.85-.657-1.542-1.507-1.542Zm-.747 1.209a.795.795 0 0 1 .747-.512c.348 0 .612.209.721.512H4.12Z"/><path d="M23.557 13.144a.444.444 0 0 0 0 .886.444.444 0 0 0 0-.886Z" fill="#069de0"/><path d="M23.557 11.935a.444.444 0 0 0 0 .886.444.444 0 0 0 0-.886Z" fill="#6e55dc"/><path d="M23.557 14.353a.444.444 0 0 0 0 .886.444.444 0 0 0 0-.886Z" fill="#05ac3f"/><path d="M23.557 10.721a.444.444 0 0 0 0 .886.444.444 0 0 0 .443-.443.447.447 0 0 0-.443-.443Z" fill="#ef1541"/><path d="M23.557 9.512a.444.444 0 0 0 0 .886.444.444 0 0 0 .443-.443.447.447 0 0 0-.443-.443Z" fill="#ff7112"/><path d="M23.557 8.303a.444.444 0 0 0 0 .886.444.444 0 0 0 .443-.443.447.447 0 0 0-.443-.443Z" fill="#fccc12"/></svg>