<svg viewBox="0 0 560 400" xmlns="http://www.w3.org/2000/svg" fill-rule="evenodd" clip-rule="evenodd"><clipPath id="a"><path d="M24 121.066h512v157.868h-512z"/></clipPath><g clip-path="url(#a)"><g fill="#004883"><path d="M340.371 194.654c-1.731.561-4.097 1.037-7.036 1.404-1.401.183-2.958.275-4.782.275-3.063 0-6.381-.244-9.594-.495l-.111-.004c-2.977-.225-5.793-.436-8.495-.436-1.93 0-3.699.114-5.396.331-5.048.627-9.029 2.212-9.029 2.212l.043-.41c.978-10.124 9.485-18.767 19.778-20.134.949-.111 1.927-.174 2.905-.174 9.698 0 19.103 7.352 21.898 17.118l.07.253-.251.06zm11.849 4.298l-.003-.138c-.044-.651-.168-1.704-.305-2.836-.265-2.054-.714-4.076-1.334-6.026-4.681-14.766-17.212-24.295-31.924-24.295-1.468 0-2.985.093-4.481.297-18.867 2.428-31.681 19.527-29.186 38.927 2.269 17.563 16.4 29.595 33.597 29.595 1.451 0 2.962-.101 4.488-.284 9.165-1.164 17.218-5.003 23.251-12.468.34-.425.508-.968.445-1.455-.055-.432-.308-.843-.764-1.173-1.012-.728-4.625-2.481-6.591-3.417l-1.302-.642c-.596-.307-1.023-.445-1.412-.445-.477 0-.929.244-1.371.78-3.889 4.521-8.811 6.896-13.84 7.556-.997.122-1.964.187-2.904.187-9.165 0-18.415-6.137-21.1-14.56l-.067-.221.197-.095c.476-.236 4.765-2.233 11.121-2.233.788 0 1.591.032 2.375.102 1.823.144 3.654.381 5.585.625 3.564.471 7.26.959 11.574.959 2.659 0 5.273-.192 7.938-.563 10.491-2.022 14.653-4.964 14.686-4.991 1.481-.958 1.426-1.752 1.327-3.186M516.563 169.523c0-.881-.723-1.59-1.595-1.59h-8.683c-.864 0-1.58.709-1.58 1.59v61.736c0 .872.716 1.593 1.58 1.593h8.683c.872 0 1.595-.721 1.595-1.593v-61.736M510.634 145.914c-4.316 0-7.838 3.524-7.838 7.847 0 4.313 3.522 7.829 7.838 7.829 4.327 0 7.837-3.516 7.837-7.829 0-4.323-3.51-7.847-7.837-7.847M395.696 177.382c12.305 0 21.947 10.127 21.947 23.063 0 13.013-9.149 22.817-21.285 22.817-6.128 0-11.808-2.198-15.964-6.179-4.288-4.093-6.639-9.873-6.639-16.251 0-12.931 9.841-23.45 21.941-23.45m-.385 57.115c.548.023 1.117.045 1.67.045 8.921 0 17.211-3.444 23.371-9.651 6.247-6.328 9.677-15.005 9.677-24.446 0-19.506-15.017-34.788-34.193-34.788-15.604 0-28.776 10.275-32.804 25.56-.685 2.595-1.394 9.213-1.394 15.813v48.44c0 .883.709 1.602 1.592 1.602h8.612c.89 0 1.611-.728 1.611-1.615l-.007-30.514.452.439c4.23 4.11 12.075 8.677 21.413 9.115M240.962 177.382c12.294 0 21.94 10.127 21.94 23.063 0 13.013-9.146 22.817-21.292 22.817-6.143 0-11.797-2.198-15.95-6.179-4.295-4.093-6.658-9.873-6.658-16.251 0-12.931 9.851-23.45 21.96-23.45m-.382 57.115c.549.023 1.114.045 1.657.045 8.931 0 17.224-3.444 23.374-9.651 6.248-6.328 9.689-15.005 9.689-24.446 0-19.506-15.03-34.788-34.209-34.788-15.598 0-28.784 10.275-32.802 25.56-.698 2.595-1.396 9.213-1.396 15.813v48.44c0 .883.716 1.602 1.577 1.602h8.638c.886 0 1.607-.728 1.607-1.615l-.014-30.514.436.439c4.232 4.11 12.077 8.677 21.443 9.115M438.326 223.683c7.498 6.862 15.689 10.782 26.324 10.782h.337c18.356-.119 26.557-10.152 26.557-20.037 0-13.673-12.9-17.41-16.852-18.239-1.268-.247-2.587-.495-3.939-.764-3.195-.615-6.512-1.25-9.526-2.083-2.113-.581-9.002-2.875-9.002-8.026 0-5.67 6.293-8.727 12.204-8.727 4.966 0 9.106.836 14.404 4.973.414.326.995.699 1.704.699.524 0 1.026-.181 1.566-.567 1.467-1.081 4.151-3.345 5.924-5.118.418-.423.613-.886.588-1.37-.041-.752-.599-1.367-.886-1.604-7.085-5.62-13.903-7.92-23.517-7.945h-.07c-13.752 0-24.134 8.84-24.134 20.56 0 9.287 7.635 15.883 21.474 18.601l8.666 1.661c5.696 1.046 8.898 4.071 8.787 8.306-.102 4.128-5.165 8.403-13.483 8.403-6.79 0-12.771-2.651-17.782-7.199l-.073-.072c-.354-.321-.777-.712-1.346-.712-.398 0-.82.185-1.275.54-.522.424-6.309 5-6.927 5.647-.283.304-.416.625-.41.962.014.535.367 1.035.687 1.329M529.224 225.118c.599 0 .937.467.937.978 0 .485-.338.949-.974.949h-1.339v-1.927h1.376zm.754 3.206c1.096-.276 1.566-1.256 1.566-2.228 0-1.184-.746-2.359-2.32-2.359h-2.786v7.171h1.41v-2.478h.469l1.779 2.478h1.715l-1.833-2.584zm-1.096 4.883c3.275 0 5.853-2.637 5.853-5.916 0-3.272-2.578-5.934-5.853-5.934-3.271 0-5.856 2.662-5.856 5.934 0 3.279 2.585 5.916 5.856 5.916zm0-13.115c3.966 0 7.118 3.231 7.118 7.199s-3.152 7.174-7.118 7.174c-3.96 0-7.095-3.206-7.095-7.174 0-3.968 3.135-7.199 7.095-7.199"/></g><path d="M158.748 255.816c-30.819 30.826-80.806 30.822-111.623 0-30.833-30.83-30.833-80.813 0-111.633 30.824-30.823 80.804-30.823 111.617.003 30.833 30.816 30.833 80.799.006 111.629" fill="#fff"/><path d="M164.382 160.167c1.479 4.79 2.289 9.874 2.289 15.145 0 17.006-8.361 31.96-21.078 41.33-22.114 16.287-54.345 16.309-98.848 30.332 13.432 16.054 33.616 26.272 56.188 26.272 40.455 0 73.248-32.793 73.248-73.246 0-14.685-4.347-28.357-11.799-39.833" fill="#004883"/><path d="M146.861 141.394c-12.24-9.2-27.446-14.642-43.926-14.642-40.453 0-73.245 32.8-73.245 73.248 0 16.282 5.312 31.32 14.296 43.479 49.263-14.344 88.161-52.987 102.875-102.085" fill="#e32934"/></g></svg>