<?xml version="1.0" encoding="UTF-8"?>
<svg viewBox="0 0 8 9" version="1.1" xmlns="http://www.w3.org/2000/svg" xmlns:xlink="http://www.w3.org/1999/xlink">
    <title>Pepsi</title>
    <g id="Page-1" stroke="none" stroke-width="1" fill="none" fill-rule="evenodd">
        <g id="pepsi" transform="translate(0.000250, 0.066125)">
            <path d="M6.82838101,6.8284887 C5.26661932,8.39060512 2.73351371,8.39040242 1.17185336,6.8284887 C-0.390617787,5.26616957 -0.390617787,2.73326666 1.17185336,1.17145429 C2.73386843,-0.390510101 5.26661932,-0.390510101 6.82807696,1.17160632 C8.39054811,2.73321599 8.39054811,5.2661189 6.82838101,6.82843802" id="Path" fill="#FFFFFF"></path>
            <path d="M7.11388558,1.98144809 C7.18883433,2.22418272 7.22988132,2.48181589 7.22988132,2.74892533 C7.22988132,3.61070927 6.80618523,4.36850753 6.1617476,4.84333497 C5.04111429,5.66868338 3.40779908,5.66979824 1.15259675,6.3804178 C1.83326722,7.19395887 2.85609723,7.71175896 3.99993982,7.71175896 C6.05000859,7.71175896 7.7118033,6.04996425 7.7118033,3.99999683 C7.7118033,3.25583023 7.49151783,2.5629977 7.11388558,1.98144809" id="Path" fill="#004883"></path>
            <path d="M6.22600386,1.03012092 C5.60573834,0.563908269 4.83516992,0.288133353 4.00004117,0.288133353 C1.95007376,0.288133353 0.288329719,1.95028279 0.288329719,3.99999683 C0.288329719,4.82509187 0.557516847,5.58714685 1.01278363,6.20330767 C3.50920034,5.47642134 5.48036768,3.5181762 6.22600386,1.03012092" id="Path" fill="#E32934"></path>
        </g>
    </g>
</svg>