<svg viewBox="0 0 24 24" xmlns="http://www.w3.org/2000/svg"><path d="M11.99.051c.691-.089 2.828-.055 3.406.05 2.763.529 4.589 1.53 6.022 3.294 1.079 1.33 1.956 3.2 2.322 4.952l.056.267.107.512c.027.122.065.723.087 1.335.055 1.887-.12 3.478-.534 4.913-.327 1.113-.763 1.953-1.564 3.016-.398.523-1.742 1.847-2.038 2.103-.373.322-.375.344-.981.796-.906.674-1.657 1.085-2.208 1.146-.228.028-.294.017-.321-.056-.05-.139.065-.289.37-.49 2.36-1.502 3.707-2.893 4.617-4.756.485-.996.686-1.63.992-3.11.141-.702.207-2.883.109-3.868-.197-1.992-.927-4.039-1.88-5.246-.644-.818-1.701-1.653-3.058-2.415-1.237-.701-2.196-1.013-3.396-1.113-.474-.039-.643.122-.386.367.114.106.24.134 1.297.284 1.21.173 3.133 1.29 4.36 2.543.556.567.632.667 1.024 1.313.583.968.801 1.574 1.047 2.904.229 1.274.321 3.656.174 4.646-.262 1.78-.997 3.416-2.365 5.247-.36.478-1.428 1.547-1.804 1.808l-.398.278c-.545.373-.681.462-1.025.64a13.569 13.569 0 0 1-4.85 1.514c-2.191.256-4.415-.145-6.213-1.124-.861-.468-2.098-1.597-2.703-2.465-.676-.974-.976-1.97-.67-2.226.157-.139.332.023 1.013.935.965 1.296 2.147 2.354 3.232 2.899.98.49 1.87.784 3.08 1.012.413.078.904.062.98-.033.093-.111-.016-.25-.19-.25-.18 0-1.123-.195-1.636-.34-.697-.189-1.553-.64-2.447-1.274-.234-.167-.48-.345-.545-.39-.485-.339-1.657-1.53-1.984-2.008-.278-.417-.746-1.424-.932-1.997-.212-.662-.272-1.241-.316-3.088-.038-1.747.028-2.66.251-3.456.469-1.68 1.188-2.904 2.442-4.156.899-.901 1.433-1.24 3.193-2.02.638-.278 1.052-.495 1.063-.55.022-.1-.174-.112-.48-.028-.964.256-1.215.35-2.06.79a9.228 9.228 0 0 0-4.392 5.052c-.425 1.18-.687 2.66-.687 3.872 0 .651-.25.818-.578.384-.185-.25-.24-.667-.24-1.808-.005-1.118.05-1.558.29-2.42.517-1.853 1.585-3.511 3.144-4.874.343-.3.463-.39 1.28-.946.508-.34 1.794-1.002 2.208-1.135.076-.022.283-.106.463-.178C8.158.925 9.21.597 9.7.496c.736-.155 1.2-.256 1.472-.311.152-.034.518-.095.817-.134Zm9.058 20.41.126.708.026.148.028-.16.127-.696h.095v1h-.068v-.837l-.154.837h-.064l-.154-.851v.851h-.068v-1h.106Zm-.176 0v.118h-.176v.882h-.07v-.882h-.176v-.118h.422Zm-9.58-6.322c-.055-.133-.224-.106-.393.061-.163.167-.474.78-.675 1.33-.126.345-.126.345-.431.429-.458.128-.72.166-.72.11 0-.027.06-.21.142-.41.18-.474.365-1.253.322-1.392-.076-.234-.316-.094-.627.367-.207.306-.736 1.341-.78 1.53-.027.123-.081.156-.375.217-.404.084-.622.19-.698.34-.087.167.13.39.425.428.267.04.289.117.142.557-.13.395-.13 1.029 0 1.18.13.15.305.15.49 0 .207-.168.3-.38.49-1.158l.17-.696.54-.183c.294-.106.544-.178.55-.173.01.011-.006.128-.027.267-.126.64-.017 1.002.294 1.002.212 0 .441-.228.501-.49.017-.083.066-.29.104-.456.038-.167.087-.428.109-.573.038-.273.076-.328.409-.556.234-.156.3-.407.098-.362-.066.017-.17.05-.218.072-.137.056-.131-.05.043-.756.082-.329.131-.635.115-.685Zm4.763-.923c-.153-.078-.376.128-.692.645l-.256.412h-.398c-.393 0-.458.027-.529.239-.049.128.186.373.354.373.246 0 .257.055.115.612-.164.656-.224 1.374-.125 1.613.141.345.278.162.566-.762.071-.24.175-.534.23-.657a8.55 8.55 0 0 0 .212-.578c.103-.323.13-.362.327-.44 1.395-.54 1.81-.74 1.738-.857-.049-.077-.501-.022-1.095.134-.25.061-.474.1-.49.078-.022-.017.005-.123.054-.228a1.11 1.11 0 0 0 .093-.362c0-.106-.039-.184-.104-.222Zm-2.153 1.39c-.158 0-.212.05-.37.307-.224.361-.513.69-.845.951-.354.284-.414.3-.343.1.081-.206.065-.617-.028-.796-.087-.178-.261-.244-.512-.194-.256.055-.316.167-.163.295l.125.1-.13.356c-.077.211-.132.484-.132.668-.005.272.017.333.131.434.289.244.812.066 1.275-.44.142-.156.273-.278.284-.262.01.012.076.128.147.268.136.261.403.461.545.406.07-.028.082-.095.06-.373-.016-.19.005-.618.049-.952.038-.333.065-.667.049-.74-.016-.089-.06-.127-.142-.127Zm-13.701-.79c.142-.155.18-.166.403-.139.404.045.583.29.643.874l.093.879c.054.523.054.584-.033.679-.13.144-.332.139-.626-.017-.382-.195-.55-.523-.654-1.268-.066-.479-.011-.807.174-1.008Zm7.684-3.488c-.56-.228-1.476-.078-1.858.295-.207.2-.25.328-.169.484.05.094.104.111.25.094.104-.01.186-.016.186-.005 0 .005-.12.222-.267.473-.572.996-1.128 2.61-1.188 3.438-.027.373-.016.429.082.518.272.25.49-.134 1.275-2.187.065-.167.12-.311.13-.323.006-.01.077.023.153.073.175.117.387.083.965-.15.763-.307 1.248-.913 1.248-1.558 0-.178-.033-.407-.076-.507-.11-.256-.398-.512-.73-.645Zm2.006.918c-.049-.145-.142-.178-.245-.1-.098.067-.649.896-.878 1.318-.19.35-.212.429-.212.79 0 .345.016.418.13.54.202.223.497.167.497-.089 0-.055.136-.39.305-.751.42-.901.528-1.374.403-1.708Zm2.622-.25c-.12-.123-.202-.128-.605-.062a12.44 12.44 0 0 1-.862.084c-.697.05-.872.128-.812.373a.365.365 0 0 0 .175.2c.169.078.692.089.937.017.256-.078.202-.006-.561.717-.834.796-1.057 1.074-1.057 1.308 0 .34.152.367.953.172.251-.06.736-.1 1.417-.122 1.161-.028 1.57-.09 1.946-.284.48-.24.485-.54.005-.4-.185.055-.468.072-.97.055a57.443 57.443 0 0 0-1.319-.028l-.61-.005.392-.412c.573-.6.649-.69.84-.957.24-.34.272-.512.13-.656Zm-5.592.094c.043-.039.469.04.643.123a.68.68 0 0 1 .256.283c.087.167.093.24.05.412-.083.29-.497.684-.927.885-.191.089-.393.178-.442.206-.136.072-.13.027.147-.807.137-.412.246-.818.246-.907 0-.09.01-.178.027-.195Zm10.687-.923c-.032.005-.245.022-.468.044a2.844 2.844 0 0 0-.709.156c-.387.156-.888.567-1.128.929-.164.24-.185.312-.174.579l.016.306-.19.044c-.18.04-1.01 0-1.102-.05-.027-.017.25-.334.61-.712.584-.607.66-.707.66-.88 0-.277-.13-.372-.523-.372-.175 0-.496.039-.703.083a4.26 4.26 0 0 1-.72.084c-.36 0-.506.083-.506.284 0 .15.18.317.392.356.104.022.354.01.561-.017.213-.028.393-.044.41-.028.015.017-.034.073-.11.134-.512.406-1.21 1.063-1.33 1.252-.256.411-.158.59.284.517.141-.022.501-.044.806-.044.823-.006 1.303-.128 1.646-.412.044-.033.191-.056.327-.05.262.017.752-.178 1.107-.44.152-.111.174-.111.343-.028.103.05.278.09.398.09.223 0 .627-.167.697-.284.055-.09-.163-.273-.327-.273a.314.314 0 0 1-.212-.106c-.087-.1-.087-.122.022-.428.125-.367.136-.584.043-.679-.038-.039-.092-.061-.12-.055Zm-.986.762c.261-.123.392-.14.316-.04a.748.748 0 0 0-.093.229c-.027.122-.109.19-.381.317-.37.178-.469.2-.469.111 0-.11.414-.523.627-.617Zm-5.706-1.536c-.028-.15-.153-.145-.507.045-.523.267-.9.717-.9 1.068 0 .161.159.317.317.317.136 0 .457-.312.686-.668.088-.139.218-.345.295-.456.07-.111.12-.25.109-.306Zm3.586-4.813c-.11-.078-.409-.039-1.368.178-.387.09-.78.173-.872.19-.087.016-.605.116-1.145.228l-.145.03c-.48.1-.896.188-.956.198-.076.016-.283.278-.637.823-.284.44-.55.824-.589.852-.038.033-.354.172-.697.322-1.385.59-3.352 1.73-3.456 2.009-.043.122-.049.122.098.217.12.083.18.083.643.005.278-.05.693-.11.916-.144.224-.028.763-.106 1.2-.167 1.125-.162 1.758-.25 2.331-.325l.284-.037c.343-.044.801-.106 1.008-.139.894-.134 3.2-.278 5.183-.328a82.923 82.923 0 0 1 1.856-.036h.194c.11.002.176.004.19.008.18.05.436-.117.48-.317.054-.24-.093-.384-.703-.685-.84-.417-1.003-.484-2.18-.89l-1.14-.395-.092-.278a5.348 5.348 0 0 1-.158-.662c-.065-.395-.136-.584-.245-.657Z" fill="#EE3A43"/></svg>