<svg viewBox="0 0 24 24" xmlns="http://www.w3.org/2000/svg"><path d="M.485 16.257c-.9.598-.598 1.739 1.32 2.279 2.007.668 4.148.833 6.234.48.12 0 .24-.06.3-.06v-2.04l-2.04.66c-.779.24-1.559.3-2.338.12-.598-.18-.48-.54.24-.84l4.14-1.44v-2.22l-5.757 1.978a7.753 7.753 0 0 0-2.099 1.083Zm13.912-8.995v5.817c2.459 1.2 4.378 0 4.378-3.118 0-3.178-1.14-4.617-4.437-5.756-1.74-.598-3.539-1.14-5.339-1.5v17.33l4.198 1.26V6.721c0-.66 0-1.14.48-.96.66.18.72.84.72 1.5Zm7.796 7.616c-1.739-.598-3.598-.84-5.397-.66-.96.06-1.859.299-2.698.598l-.18.06v2.338l3.897-1.44c.78-.24 1.56-.298 2.339-.12.598.18.48.54-.24.84l-5.997 2.221v2.279l8.276-3.059c.598-.24 1.14-.54 1.62-1.019.419-.6.24-1.439-1.62-2.038Z" fill="#0070d1"/></svg>