<svg viewBox="0 0 9 8" xmlns="http://www.w3.org/2000/svg"><path d="m8.15.527-.171.712-2.894.021-.255 1.043-1.766.021-.074.33 2.18.01.234-1.063 2.511-.01-.17.712-2.074.021-.245 1.054-2.596.02-.096.33 1.777.011-.415 1.798-1.755.032-.01.021-.011.064-.022.075-.01.053v.106H2.5l.15.01h1.17l.308-.01h.128l.095-.01h.085l.49-2.15h2.51l-.18.735-2.054-.011-.49 2.16-2.605.01-.075.33h3.021l.479-2.16h1.66l-.16.735-1.234.02-.479 2.14-3.85-.022.467-2.117-1.787-.01.394-1.799 1.777-.01.489-2.17 1.745.02.265-1.052h3.33ZM2.16 4.463l-1.362.01-.074.34h1.361l.075-.35Zm.532-.011h-.053l-.032.01-.022.022-.02.032-.012.064-.01.074-.01.075-.022.053v.021l1.351.01.085-.35-1.255-.011Z" fill="#007848" fill-rule="evenodd"/></svg>