<svg viewBox="0 0 24 24" xmlns="http://www.w3.org/2000/svg"><path d="M13.528.098a12 12 0 1 0-3.056 23.804A12 12 0 0 0 13.528.098Z" fill="#FF6C37"/><path d="M5.917 17.706 7.06 18.85l-2.04-.14a.043.043 0 0 1-.038-.032.046.046 0 0 1 .01-.048l.925-.924Zm5.742-4.33.84.84c-1.252 1.089-2.957 2.18-5.071 3.24a.26.26 0 0 0-.134.288l.203.867a.09.09 0 0 1-.047.104.091.091 0 0 1-.114-.015L6.13 17.494l3.729-3.731 1.8-.388Zm4.997-4.318c-.215 1.31-1.966 3.087-3.939 4.953l-.795-.794 4.68-4.107.054-.052ZM10.95 12.67l.45.45-1.04.226a.029.029 0 0 1-.035-.016.03.03 0 0 1 0-.038l.625-.622Zm5.08-4.815c.03.002.06.005.09.011h.022a.583.583 0 0 1 .463.503v.104a.7.7 0 0 1-.012.09c-.003.015-.012.03-.012.043a.474.474 0 0 1-.04.102.653.653 0 0 1-.043.074l-.02.026a.545.545 0 0 1-.072.077l-4.68 4.107-.547-.547 4.42-4.42a.625.625 0 0 1 .08-.068l.027-.017a.47.47 0 0 1 .07-.036l.025-.012a.704.704 0 0 1 .099-.028h.01a.468.468 0 0 1 .093-.009h.026ZM9.84 11.55l.808.818-1.92.414a.046.046 0 0 1-.053-.024.045.045 0 0 1-.003-.031l.006-.015 1.163-1.162Zm6.079-3.99a.887.887 0 0 0-.533.248l-4.432 4.432-.907-.902c4.234-4.22 5.088-4.378 5.872-3.778Zm1.747-3.046a1.79 1.79 0 0 1 1.127.395l-1.59 1.59a.15.15 0 0 0 0 .211l1.217 1.217a1.79 1.79 0 1 1-.754-3.413Zm1.345.602a1.8 1.8 0 0 1-.321 2.653L17.52 6.6l1.491-1.484Zm-.093.87a.14.14 0 0 0-.113.217.418.418 0 0 1-.052.451.14.14 0 0 0 .214.178.694.694 0 0 0 .057-.8.138.138 0 0 0-.106-.045Z" fill="#FFF"/></svg>