<svg viewBox="0 0 24 24" xmlns="http://www.w3.org/2000/svg"><path d="M12.25 15.68a7.197 7.197 0 0 0-.36 0c-.164-.009-.33-.015-.494-.027a8.604 8.604 0 0 1-1.299-.197 8.794 8.794 0 0 1-3.892-2.028c-.105-.093-.204-.189-.306-.285a.22.22 0 0 1-.057-.08.11.11 0 0 1 .02-.12.106.106 0 0 1 .12-.028c.028.012.055.024.079.04a11.667 11.667 0 0 0 3.484 1.439 11.515 11.515 0 0 0 3.068.306 9.63 9.63 0 0 0 .975-.081 11.789 11.789 0 0 0 2.225-.507 10.5 10.5 0 0 0 1.116-.438.25.25 0 0 1 .18-.024.186.186 0 0 1 .12.264.328.328 0 0 1-.1.114c-.344.27-.716.507-1.109.705a8.785 8.785 0 0 1-2.348.794c-.471.084-.945.135-1.422.153ZM7.81 9.602c.074-.045.152-.093.233-.135a1.34 1.34 0 0 1 .68-.15c.172.009.328.057.448.183.114.117.155.26.168.417.002.033.002.066.002.101v1.554c0 .135-.018.153-.152.153h-.366c-.024 0-.048 0-.072-.003a.083.083 0 0 1-.072-.07c-.006-.032-.006-.065-.006-.098v-1.389a.507.507 0 0 0-.018-.164.224.224 0 0 0-.204-.165 1.059 1.059 0 0 0-.516.099.05.05 0 0 0-.036.054v1.577c0 .03 0 .057-.006.087 0 .042-.033.072-.075.072-.045.003-.09.003-.138.003h-.318c-.11 0-.135-.027-.135-.138v-1.418a.688.688 0 0 0-.015-.157.226.226 0 0 0-.21-.18 1.056 1.056 0 0 0-.524.103c-.024.006-.04.033-.033.057v1.598c0 .11-.024.135-.135.135h-.402c-.105 0-.132-.03-.132-.132V9.515c0-.024.003-.048.009-.072a.087.087 0 0 1 .084-.057h.375c.054 0 .087.033.105.084.015.042.024.08.039.126.03 0 .048-.021.069-.033.165-.102.338-.19.533-.225.15-.03.3-.03.45 0 .141.03.267.114.348.234a.13.13 0 0 0 .018.02c-.003.004 0 .004.003.01Zm-4.433.114a.09.09 0 0 0 .05-.036c.055-.054.112-.105.172-.153.156-.12.35-.18.545-.165.078.003.105.027.111.102.006.102.003.207.003.309a.564.564 0 0 1-.006.123c-.012.054-.033.075-.087.08-.042.004-.08 0-.123-.002-.2-.018-.395.02-.584.083-.042.015-.042.045-.042.079v1.439c0 .027 0 .05-.003.078a.072.072 0 0 1-.072.069c-.021.003-.045.003-.066.003h-.39c-.021 0-.045 0-.066-.003a.08.08 0 0 1-.072-.075c-.003-.024-.003-.048-.003-.072v-2.04c0-.137.015-.152.153-.152h.288c.078 0 .114.027.135.102.02.075.039.15.057.23Zm14.029 3.04c.197.006.392.018.584.07a.964.964 0 0 1 .156.056.202.202 0 0 1 .123.165c.012.084.015.171.01.258a3.305 3.305 0 0 1-.463 1.449 1.997 1.997 0 0 1-.348.429.245.245 0 0 1-.096.06c-.056.014-.093-.015-.096-.072a.326.326 0 0 1 .021-.09c.105-.282.207-.561.288-.852.048-.159.081-.321.102-.486a.902.902 0 0 0 .003-.18.234.234 0 0 0-.168-.219 1.162 1.162 0 0 0-.287-.054c-.276-.012-.552 0-.825.036l-.363.045c-.039.003-.075 0-.096-.036-.021-.036-.012-.072.009-.108a.301.301 0 0 1 .09-.084c.222-.159.47-.255.735-.318.204-.041.41-.063.62-.068ZM4.546 10.55V9.485c.003-.072.03-.1.102-.102.156-.003.312-.003.468 0 .07 0 .09.02.096.09a.68.68 0 0 1 .003.078v1.997c0 .033-.003.066-.006.099-.003.039-.033.066-.072.069-.018.003-.033.003-.05.003h-.418c-.015 0-.027 0-.042-.003a.087.087 0 0 1-.08-.078c-.004-.024-.004-.048-.004-.072.003-.333.003-.675.003-1.017Zm.348-2.24a.375.375 0 0 1 .141.021c.162.054.246.195.231.378a.335.335 0 0 1-.285.306.565.565 0 0 1-.2 0c-.172-.033-.298-.16-.286-.375.018-.213.16-.33.4-.33ZM2.3 10.303a1.366 1.366 0 0 0-.117-.45c-.123-.257-.312-.446-.6-.512a1.06 1.06 0 0 0-.896.2.24.24 0 0 1-.063.046c-.006-.003-.012-.006-.012-.01-.01-.03-.015-.06-.024-.09-.024-.074-.054-.101-.135-.101-.09 0-.183.003-.273 0-.069-.003-.132.006-.18.06 0 1.05 0 2.102.003 3.149.039.063.099.074.168.071.108-.002.216 0 .324 0 .189 0 .189 0 .189-.185v-.855c0-.021-.01-.045.012-.063.15.117.333.189.522.207a.88.88 0 0 0 .704-.22 1.11 1.11 0 0 0 .312-.5c.081-.246.087-.495.066-.747Zm-.717.621a.462.462 0 0 1-.138.24.427.427 0 0 1-.275.105.824.824 0 0 1-.438-.096.085.085 0 0 1-.051-.084v-.543c0-.18.003-.36 0-.54a.091.091 0 0 1 .06-.092c.165-.078.336-.114.516-.078a.366.366 0 0 1 .284.216c.045.096.072.2.078.305.018.192.018.384-.036.567Zm8.853-.18c.225.042.456.045.68.01.133-.019.259-.058.376-.12a.558.558 0 0 0 .276-.337c.104-.377-.057-.758-.45-.9a1.342 1.342 0 0 0-.597-.056c-.474.054-.783.315-.924.768a1.655 1.655 0 0 0-.006.935c.105.399.37.636.768.72.228.05.459.042.687.006.12-.021.24-.051.354-.096.069-.027.105-.07.102-.147-.003-.072 0-.147 0-.222 0-.09-.036-.117-.123-.096a7.996 7.996 0 0 1-.258.057 1.485 1.485 0 0 1-.564.006.502.502 0 0 1-.405-.54c.027.003.057.006.084.012Zm-.075-.459a.814.814 0 0 1 .057-.207c.09-.218.279-.293.47-.281a.49.49 0 0 1 .16.036.229.229 0 0 1 .138.188.344.344 0 0 1-.01.156c-.035.108-.122.153-.227.174-.063.015-.13.021-.195.015-.117 0-.237-.009-.354-.027-.045-.006-.045-.006-.039-.054Z" fill="#00a8e1"/><path d="m14.026 11.095.054-.177.414-1.391.018-.054a.122.122 0 0 1 .12-.087h.455c.114 0 .138.033.1.14l-.18.478c-.202.521-.402 1.046-.603 1.568l-.021.054a.146.146 0 0 1-.15.099 8.709 8.709 0 0 0-.396 0c-.093.003-.147-.04-.18-.123l-.228-.597c-.18-.47-.363-.942-.543-1.415a.536.536 0 0 1-.039-.117c-.009-.06.012-.09.072-.09.171-.003.342 0 .51 0 .072 0 .105.048.123.11.033.115.066.232.102.346.123.416.243.836.366 1.253-.003.003 0 .003.006.003Zm2.123-.54v1.08c-.006.06-.033.087-.093.09-.162.003-.32.003-.483 0-.06 0-.087-.03-.093-.087-.003-.018-.003-.04-.003-.057V9.506c.003-.093.027-.12.12-.12h.432c.093 0 .12.027.12.12v1.05Zm-.333-2.246c.06-.006.12.006.177.03a.315.315 0 0 1 .204.279c.024.273-.159.41-.402.405-.033 0-.066-.006-.099-.012-.186-.045-.282-.189-.264-.396.015-.165.144-.288.321-.303.021-.003.042-.006.063-.003Zm8.181 2.06v.012c-.012-.012-.018-.03-.012-.045v-.024s0-.003.003-.003h-.003v-.03h.006c0-.003-.003-.003-.003-.006a1.039 1.039 0 0 0-.033-.168c-.11-.395-.36-.656-.765-.758a1.474 1.474 0 0 0-.573-.021c-.404.06-.695.276-.836.66-.138.365-.135.767.003 1.133.12.333.36.543.705.63.183.045.374.057.563.03.63-.075.891-.552.933-.966h-.003v-.042c-.003-.018-.006-.033.012-.045v.006c0-.003.003-.009.006-.012v-.345c0-.003-.003-.003-.003-.006Zm-.72.57a.55.55 0 0 1-.084.174.388.388 0 0 1-.285.162.545.545 0 0 1-.17-.006.385.385 0 0 1-.282-.225.857.857 0 0 1-.081-.297 1.641 1.641 0 0 1 .024-.528.673.673 0 0 1 .08-.197.39.39 0 0 1 .306-.186.546.546 0 0 1 .171.006c.12.024.22.102.273.213a.885.885 0 0 1 .087.338c.003.054.006.108.003.162.01.132-.006.261-.042.384ZM18.74 8.33h-.417c-.114 0-.135.021-.135.135v.972c0 .02.01.042-.006.063-.027-.003-.042-.021-.063-.033-.312-.183-.639-.216-.968-.063-.231.108-.375.303-.468.534-.09.221-.111.455-.105.692 0 .222.05.441.15.639.114.219.279.387.518.459.327.102.633.05.912-.156.021-.012.033-.033.06-.04a.427.427 0 0 1 .033.106.106.106 0 0 0 .105.08h.072c.108 0 .213.004.318 0 .084 0 .108-.026.11-.113v-3.16c-.002-.094-.026-.115-.116-.115Zm-.549 2.207v.546a.079.079 0 0 1-.048.084.74.74 0 0 1-.47.09.41.41 0 0 1-.321-.222.83.83 0 0 1-.085-.303 1.549 1.549 0 0 1 .037-.563.689.689 0 0 1 .06-.148.387.387 0 0 1 .314-.2.905.905 0 0 1 .462.08.083.083 0 0 1 .054.088c-.006.185-.003.365-.003.548Zm2.36.237a1.23 1.23 0 0 0 .504-.129.558.558 0 0 0 .303-.399.814.814 0 0 0-.003-.33c-.063-.27-.234-.437-.492-.524a1.328 1.328 0 0 0-.447-.057c-.503.012-.887.267-1.043.77-.105.333-.09.672.012 1.005.105.342.345.549.686.642.147.036.3.05.45.045.22-.003.438-.045.645-.123.087-.033.108-.063.108-.156v-.216c-.003-.087-.039-.117-.126-.096a4.614 4.614 0 0 1-.195.048c-.2.048-.41.057-.615.021a.47.47 0 0 1-.396-.36 1.23 1.23 0 0 1-.032-.183c.014 0 .03 0 .041.006.198.036.4.051.6.036Zm-.627-.48a.743.743 0 0 1 .12-.326c.111-.147.264-.19.438-.171.015 0 .027.006.042.006.21.033.261.2.222.362-.03.12-.129.165-.24.186a.766.766 0 0 1-.186.015 2.911 2.911 0 0 1-.363-.03c-.027-.003-.038-.015-.033-.042Z" fill="#232f3e"/></svg>