<svg version="1.1" id="图层_1" xmlns="http://www.w3.org/2000/svg" x="0" y="0" viewBox="0 0 873 250" style="enable-background:new 0 0 873 250" xml:space="preserve"><style>.st1{fill:#fff}</style><path d="M831.5 249.2H665.1c-22.9 0-41.4-18.5-41.4-41.4V41.4c0-22.9 18.5-41.4 41.4-41.4h166.4c22.9 0 41.4 18.5 41.4 41.4v166.4c0 22.9-18.5 41.4-41.4 41.4z" style="fill:#067bef"/><path class="st1" d="M758.5 123.3c0 42.3-25.7 66.5-60.5 66.5-35.6 0-58.1-27.2-58.1-64.3 0-38.8 24.4-66.1 59.9-66.1 37 .1 58.7 28 58.7 63.9zm-94.2 1.9c0 25.7 12.9 46.1 35 46.1 22.3 0 34.8-20.6 34.8-47 0-23.8-11.8-46.3-34.8-46.3-22.8 0-35 21.2-35 47.2zM774.1 123.7c0-10.5-.2-19.3-.7-27.2h20.2l1.1 13.7h.6c3.9-7.1 13.9-15.7 29-15.7 15.9 0 32.4 10.3 32.4 39.2v54.1h-23v-51.5c0-13.1-4.9-23-17.4-23-9.2 0-15.5 6.6-18 13.5-.7 2.1-.9 4.9-.9 7.5v53.6h-23.2l-.1-64.2z"/><path d="M.1 62.1c8.3-1.5 19.8-2.6 35.5-2.6 17 0 29.5 3.6 37.6 10.4 7.6 6.2 12.5 16.3 12.5 28.2 0 12.1-3.8 22.1-11 28.9-9.3 9.3-23.8 13.6-40.2 13.6-4.3 0-8.3-.2-11.3-.8v48H.1V62.1zm23.1 59.3c2.8.8 6.6.9 11.3.9 17.4 0 28-8.5 28-23.4 0-14.2-9.8-21.7-25.9-21.7-6.4 0-11 .6-13.4 1.1v43.1zM102.5 125.4c0-12.5-.2-21.4-.8-29.7h20.2l.8 17.6h.8c4.5-13 15.3-19.7 25.1-19.7 2.3 0 3.6.2 5.5.6v21.9c-1.9-.4-4-.8-6.8-.8-11.1 0-18.7 7.2-20.8 17.6-.4 2.1-.8 4.5-.8 7.2v47.6h-23.2v-62.3zM255.6 140.9c0 33.8-23.8 48.9-47.2 48.9-26.1 0-46.1-18-46.1-47.4 0-30.2 19.8-48.8 47.6-48.8 27.3.1 45.7 19.3 45.7 47.3zm-69.4.9c0 17.8 8.7 31.2 22.9 31.2 13.2 0 22.5-13 22.5-31.6 0-14.4-6.4-30.8-22.3-30.8-16.5.1-23.1 15.9-23.1 31.2zM342.3 184.9c-4.9 2.3-14.5 4.7-26.1 4.7-28.7 0-47.4-18.3-47.4-46.9 0-27.6 18.9-49.1 51.2-49.1 8.5 0 17.2 1.9 22.5 4.3l-4.2 17.4c-3.8-1.7-9.3-3.6-17.6-3.6-17.8 0-28.3 13-28.2 29.9 0 18.9 12.3 29.7 28.2 29.7 8.1 0 13.8-1.7 18.3-3.6l3.3 17.2zM374.2 148.3c.6 16.6 13.6 23.8 28.3 23.8 10.8 0 18.5-1.5 25.5-4.2l3.4 16.1c-7.9 3.2-18.9 5.7-32.1 5.7-29.9 0-47.4-18.3-47.4-46.5 0-25.5 15.5-49.5 45-49.5 29.9 0 39.7 24.6 39.7 44.8 0 4.3-.4 7.7-.8 9.8h-61.6zm40.5-16.3c.2-8.5-3.6-22.5-19.1-22.5-14.4 0-20.4 13-21.4 22.5h40.5zM454.1 166.4c5.3 3.2 15.3 6.6 23.6 6.6 10.2 0 14.7-4.2 14.7-10.2 0-6.2-3.8-9.4-15.1-13.4-18-6.2-25.5-16.1-25.3-26.8 0-16.2 13.4-28.9 34.8-28.9 10.2 0 19.1 2.6 24.4 5.5l-4.5 16.4c-4-2.3-11.3-5.3-19.5-5.3-8.3 0-12.8 4-12.8 9.6 0 5.9 4.3 8.7 16.1 12.8 16.6 6 24.4 14.5 24.6 28.2 0 16.6-13 28.7-37.4 28.7-11.1 0-21.2-2.6-28-6.4l4.4-16.8zM532.9 166.4c5.3 3.2 15.3 6.6 23.6 6.6 10.2 0 14.7-4.2 14.7-10.2 0-6.2-3.8-9.4-15.1-13.4-18-6.2-25.5-16.1-25.3-26.8 0-16.2 13.4-28.9 34.8-28.9 10.2 0 19.1 2.6 24.4 5.5l-4.5 16.4c-4-2.3-11.3-5.3-19.5-5.3-8.3 0-12.8 4-12.8 9.6 0 5.9 4.3 8.7 16.1 12.8 16.6 6 24.4 14.5 24.6 28.2 0 16.6-13 28.7-37.4 28.7-11.1 0-21.2-2.6-28-6.4l4.4-16.8z"/></svg>