<svg viewBox="0 0 24 24" xmlns="http://www.w3.org/2000/svg"><path d="M1.714 20.571h9.405a1.715 1.715 0 0 1 0 3.429H1.714a1.715 1.715 0 0 1 0-3.429Z" fill="#8964E8"/><path d="M12.798 15.428h1.821a1.715 1.715 0 0 1 0 3.429h-1.821a1.715 1.715 0 0 1 0-3.429Zm-7 .001h1.821a1.714 1.714 0 1 1 0 3.428H5.798a1.714 1.714 0 1 1 0-3.428Z" fill="#17B877"/><path d="M9.881 10.286h4.155a1.714 1.714 0 1 1 0 3.428H9.88a1.714 1.714 0 1 1 0-3.428h.001Zm9.333 0h.072a1.714 1.714 0 1 1 0 3.428h-.072a1.714 1.714 0 1 1 0-3.428Z" fill="#FFA23E"/><path d="M5.798 5.143h9.404a1.714 1.714 0 1 1 0 3.428H5.798a1.714 1.714 0 0 1 0-3.428Z" fill="#25A6E9"/><path d="M6.964 0h4.155a1.715 1.715 0 0 1 0 3.429H6.964a1.715 1.715 0 0 1 0-3.429Zm-5.25 0h.072a1.715 1.715 0 0 1 0 3.429h-.072a1.715 1.715 0 0 1 0-3.429Z" fill="#8964E8"/></svg>