<?xml version="1.0" encoding="utf-8"?>
<!-- Generator: Adobe Illustrator 21.0.0, SVG Export Plug-In . SVG Version: 6.00 Build 0)  -->
<svg version="1.1" id="logo" xmlns="http://www.w3.org/2000/svg" xmlns:xlink="http://www.w3.org/1999/xlink" x="0px" y="0px"
	 viewBox="0 0 400 300" enable-background="new 0 0 400 300" xml:space="preserve">
<path id="logo_1_" fill="#D31F2A" d="M136.85947,52.55585l6.14557-8.1664l-1.32008,2.37
	c-0.15063,0.27084-0.07527,0.62618,0.16824,0.79374c0.24342,0.16755,0.5629,0.08382,0.71355-0.18711l2.44243-4.3588l2.47092,4.4098
	c0.15065,0.26936,0.46895,0.35181,0.71109,0.18435c0.24203-0.16755,0.31613-0.52172,0.16557-0.79098l-1.32007-2.37l6.00513,8.5069
	c0.01013,7.14124-3.13208,9.13515-6.53275,10.50976h-2.97131C140.38307,61.69101,137.09169,59.82691,136.85947,52.55585z
	 M197.59119,61.41968l-78.36925,52.64875l0.01257-105.11009L197.59119,61.41968z M130.08989,63.83478
	c1.40724,1.40724,4.55103,2.03234,8.33563,2.03234c3.7845,0,5.48959-0.72465,5.37924-1.27605h2.43721
	c-0.11037,0.5514,3.14574,1.40656,6.01682,1.40656s6.38504-0.93043,7.41611-1.96159
	c1.03105-1.03106,2.42119-7.31842-1.20667-10.94628c-0.02625-0.06948-12.21869-10.76959-12.21869-10.76959
	c0.71638,0.10387,1.43564,0.18151,2.15822,0.20391c0.37206,0.01749,0.74411-0.0342,1.10092-0.1531
	c1.06123-0.45873,1.58717-1.78764,1.17484-2.96817c-0.41245-1.18053-1.60703-1.76563-2.66826-1.3069
	c-0.88177,0.37991-2.56367,2.71591-2.88994,3.18083l-0.05258,0.07449c-0.03271-0.00324-0.06396-0.00256-0.09669,0.00128
	l-0.04953-0.07017c-0.34149-0.46492-2.00816-2.80091-2.88985-3.18073c-1.06122-0.45912-2.2562,0.12431-2.67081,1.30405
	c-0.00589,0.01641-0.01169,0.03282-0.01729,0.04933c-0.39682,1.17217,0.1358,2.48026,1.18956,2.92169
	c0.35703,0.11694,0.72917,0.16676,1.10094,0.1474c0.69664-0.02005,1.39034-0.09198,2.08147-0.18789
	c0,0-12.20267,10.72517-12.22694,10.8655C127.75607,56.93913,128.68266,62.42755,130.08989,63.83478z M160.09903,70.06436h-14.86758
	h-14.89313v1.89603c0,0,8.55772,0.18858,12.88496,11.86551h3.98576c4.32214-11.67693,12.88998-11.85027,12.88998-11.85027V70.06436z
	 M141.6595,39.15055c-0.1189-0.05022-0.24509-0.07518-0.37215-0.0738c-0.5629-0.00953-1.02614,0.49037-1.03479,1.11665
	c-0.00226,0.16814,0.02908,0.3349,0.09189,0.48791c0.10927,0.27614,0.3129,0.49234,0.56573,0.60102
	c0.87422,0.11409,1.75876,0.08353,2.62491-0.0907C143.00346,40.41234,142.37148,39.72464,141.6595,39.15055z M149.13654,41.29934
	c0.52782-0.23015,0.78793-0.89269,0.58107-1.47976c-0.20686-0.58717-0.80247-0.87657-1.33029-0.64642
	c-0.71049,0.57272-1.3412,1.25895-1.87195,2.03607C147.38034,41.38208,148.2636,41.41254,149.13654,41.29934z M90.05734,60.50291
	l-1.76209-3.57047l-1.76209,3.57047l-3.94027,0.57253l2.85123,2.77919l-0.67315,3.92424l3.52428-1.85279l3.52419,1.85279
	l-0.67306-3.92424l2.85123-2.77919L90.05734,60.50291z M113.85507,8.95833l0.01258,105.11009L35.4984,61.41968L113.85507,8.95833z
	 M110.70196,56.58948L96.55235,45.97722L96.47973,45.319l-0.78863,0.01228L95.67469,45.319L95.674,45.33158l-0.44958,0.00698
	c-0.74686,2.59562-3.80151,4.54227-7.46593,4.54227c-3.55141,0-6.50975-1.83491-7.3705-4.31035l-1.08236,0.0169L64.27837,56.85785
	l7.51369,8.31862l6.33502-3.67847l-1.50482,20.31591h23.88264l-2.17581-19.72727l4.85929,2.82155L110.70196,56.58948z
	 M322.31064,69.78007c-0.00473,0.00157-0.48428,0.16824-1.87579-0.3695c-1.00787-0.38758-1.28146-0.85063-1.28775-1.04796
	c0.04559-0.42139-0.2453-0.80975-0.66824-0.88051c-0.42926-0.07861-0.8522,0.22249-0.92612,0.66195
	c-0.02988,0.18082-0.22168,1.79718,2.30347,2.76967c0.98428,0.37814,1.70285,0.50079,2.22171,0.50079
	c0.62894,0,0.96384-0.17924,1.11636-0.29874c0.35062-0.27437,0.46698-0.81368,0.19339-1.16431
	C323.11093,69.60004,322.65967,69.50805,322.31064,69.78007z M365.03824,61.41968l-78.36923,52.64875l0.01257-105.11009
	L365.03824,61.41968z M300.45639,59.91437c0,0,4.76385,0.70578,8.75357-2.85526c3.98969-3.56104,5.69449-10.04052,5.69449-10.04052
	s-8.61273,1.08452-11.73224,4.00277C299.26682,54.67477,300.45639,59.91437,300.45639,59.91437z M331.44901,72.70696
	c0-2.98026-1.44025-5.53736-4.52829-6.62954c-0.98233-0.34749-2.70471-0.00482-3.8938,0.02791
	c0.0351-1.51003-0.034-4.93703-1.2037-7.65392c-0.62265-1.44654-1.3129-2.55582-1.86795-3.44655
	c-0.74686-1.19969-1.28616-2.06683-1.28616-3.07784c0-0.01523-0.00784-0.02781-0.00864-0.04285
	c0.00323-0.25079,0.00864-0.49116,0.00864-0.76219c0-3.58413,0.19183-5.11322,0.19498-5.12894
	c0.05661-0.44025-0.25473-0.84435-0.69498-0.90173c-0.43082-0.05739-0.84433,0.25236-0.90253,0.69261
	c-0.00784,0.06525-0.20755,1.625-0.20755,5.33807c0,3.27281,0,4.49766-3.68869,8.18556
	c-1.13837,1.13915-2.03931,2.10064-3.0676,3.19812l-1.0755,1.14623c-1.47876,1.56938-3.13846,3.9492-3.35858,4.26613
	c-1.18329-0.06594-2.66058-0.19546-3.4791,0.13827c-2.5799,1.0518-3.44379,3.26623-3.44379,5.82795
	c0,3.57863,3.7233,7.92966,7.74844,7.92966c2.81763,0,5.75034-2.27094,6.99423-4.87964
	c-0.67245-1.37215-1.0571-2.83118-1.0571-4.22731c0-1.14594,0.15231-2.12471,0.39545-2.98655
	c-0.65332-0.77644-1.52792-1.40546-2.66226-1.80671c-0.62668-0.22169-1.58981-0.12726-2.48163-0.04314
	c0.65067-0.88886,1.63266-2.17728,2.5173-3.11489l1.07861-1.14937c1.01575-1.08491,1.90411-2.03539,3.02988-3.16039
	c2.20285-2.20195,3.22095-3.69292,3.70935-5.20019c0.12204,0.20195,0.24084,0.40163,0.37088,0.61055
	c0.55344,0.88837,1.18082,1.89623,1.75629,3.23193c1.03311,2.40164,1.09796,5.57421,1.06958,6.96514
	c-1.20529-0.07154-2.55643-0.14092-3.34946,0.18239c-2.86472,1.16785-3.82391,3.62678-3.82391,6.47123
	c0,3.97367,3.85202,8.80505,8.60379,8.80505S331.44901,76.68063,331.44901,72.70696z M306.18637,71.17236
	c-0.00473,0.00157-0.43399,0.13051-1.63522-0.33176c-1.01102-0.38836-1.10065-0.81289-1.10693-0.87029
	c0.03931-0.41745-0.25-0.80032-0.66983-0.87029c-0.43082-0.0794-0.8522,0.22249-0.92609,0.66196
	c-0.02829,0.16981-0.20914,1.68397,2.12421,2.58176c0.8931,0.34356,1.55191,0.45519,2.02991,0.45519
	c0.59433,0,0.91193-0.17217,1.05658-0.28538c0.35065-0.27438,0.47171-0.81761,0.19656-1.16746
	C306.98352,70.99548,306.53857,70.89878,306.18637,71.17236z M245.47813,61.55392c-0.369,0-0.6709,0.30189-0.6709,0.6708v17.77786
	c0,0.36901,0.3019,0.6709,0.6709,0.6709c0.36891,0,0.67079-0.30189,0.67079-0.6709V62.22472
	C246.14893,61.85581,245.84705,61.55392,245.47813,61.55392z M281.30215,8.95833l0.01257,105.11009l-78.36926-52.64875
	L281.30215,8.95833z M271.70874,63.23101c0,0.9263,0.75092,1.67719,1.67722,1.67719s1.67719-0.75089,1.67719-1.67719
	c0-0.9262-0.75089-1.67709-1.67719-1.67709S271.70874,62.30481,271.70874,63.23101z M268.48862,60.01087
	c0,0.55582,0.45056,1.00629,1.00629,1.00629c0.55582,0,1.00629-0.45047,1.00629-1.00629c0-0.55572-0.45047-1.00629-1.00629-1.00629
	C268.93918,59.00458,268.48862,59.45515,268.48862,60.01087z M266.81152,63.63353c0,0.51877,0.4205,0.93927,0.93918,0.93927
	s0.93918-0.4205,0.93918-0.93927c0-0.51867-0.4205-0.93917-0.93918-0.93917S266.81152,63.11485,266.81152,63.63353z
	 M264.06094,57.12623c0,0.59277,0.48062,1.07331,1.07339,1.07331s1.07343-0.48055,1.07343-1.07331
	c0-0.59287-0.48065-1.07341-1.07343-1.07341S264.06094,56.53336,264.06094,57.12623z M262.11548,63.76776
	c0,0.48163,0.39041,0.87206,0.87213,0.87206c0.48163,0,0.87207-0.39043,0.87207-0.87206c0-0.48172-0.39044-0.87215-0.87207-0.87215
	C262.50589,62.89561,262.11548,63.28604,262.11548,63.76776z M258.92883,73.41196c-3.16696-1.50954-5.24117-4.00002-5.24117-6.82658
	h5.24117c0-0.90301,0-1.64388,0-2.0797c0-2.81762-5.87-8.38574-5.87-11.27047c0-2.01151-0.25246-7.4729-0.40556-10.59958h1.10997
	v-4.02517h-6.70865v4.02517h1.10995c-0.15311,3.12668-0.40556,8.58808-0.40556,10.59958c0,2.88474-5.87,8.18448-5.87,11.27047
	c0,3.086,0,17.44237,0,17.44237c0,0.88925,0.72081,1.61007,1.61006,1.61007h13.81973c0.88925,0,1.61005-0.72082,1.61005-1.61007
	C258.92883,81.94804,258.92883,77.74491,258.92883,73.41196z M276.9751,67.76778h-21.80305
	c0,2.90439,4.53294,5.27232,10.24739,5.44263c0,0.97032,0,8.45747,0,8.77126c0,0.3354-4.02518,0.3689-4.02518,0.3689
	c-0.42435,0-0.77142,0.34719-0.77142,0.77152s0.34708,0.77152,0.77142,0.77152h9.32501c0.42432,0,0.77151-0.34719,0.77151-0.77152
	s-0.3472-0.77152-0.77151-0.77152c0,0-4.02518-0.03351-4.02518-0.3689c0-0.31368,0-7.79759,0-8.77047
	C272.42438,73.04904,276.9751,70.67776,276.9751,67.76778z M119.23451,126.89581l78.35667,52.46135l-78.36925,52.64874
	L119.23451,126.89581z M135.05434,168.78824c0,0.64731,0.61105,1.17699,1.35791,1.17699h3.72437
	c0.74686,0,1.358-0.52968,1.358-1.17699v-1.13474c0-0.64722-0.61115-1.17679-1.358-1.17679h-3.72437
	c-0.74686,0-1.35791,0.52957-1.35791,1.17679V168.78824z M131.8342,193.29489c0,0.74686,0.61105,1.35802,1.35791,1.35802h30.82713
	c0.74696,0,1.358-0.61116,1.358-1.35802v-20.89835c0-0.74696-0.61104-1.358-1.358-1.358h-4.10643
	c-1.12442-2.54718-2.4608-5.36687-2.8705-5.36687h-11.23795c-0.40968,0-1.74608,2.81969-2.87048,5.36687h-9.74178
	c-0.74686,0-1.35791,0.61104-1.35791,1.358V193.29489z M140.95786,182.2419c0-5.81694,4.71562-10.53247,10.53256-10.53247
	s10.53256,4.71553,10.53256,10.53247s-4.71562,10.53256-10.53256,10.53256S140.95786,188.05884,140.95786,182.2419z
	 M144.40009,182.2419c0,3.91589,3.17444,7.09042,7.09033,7.09042s7.09033-3.17453,7.09033-7.09042s-3.17444-7.09033-7.09033-7.09033
	S144.40009,178.326,144.40009,182.2419z M149.14243,180.83308c0.83678-1.68307,1.43318-3.18712,0.3812-3.71011
	c-1.05188-0.52299-2.58304,0.41745-3.41982,2.10054c-0.83678,1.68307-0.66245,3.47142,0.38954,3.99442
	C147.54524,183.74092,148.30556,182.51617,149.14243,180.83308z M113.85507,126.89581l0.01258,105.11009L35.4984,179.35716
	L113.85507,126.89581z M54.62101,182.86346c2.98881-0.02802,10.51016-0.14742,20.0206-0.66087
	c1.8297-0.09897,3.836-0.23026,5.92503-0.38188c-0.16529-0.34846-0.35201-0.71443-0.57596-1.09454
	c-1.07076-1.81918-3.77832-4.28304-3.80662-4.30818l1.08176-1.19183c0.11792,0.10692,2.91824,2.65567,4.11165,4.6824
	c0.37608,0.63885,0.66598,1.24283,0.89799,1.78441c0.80396-0.06113,1.61361-0.12413,2.42945-0.18958
	c-0.12766-0.25255-0.26494-0.511-0.42178-0.77722c-1.06919-1.81604-3.77831-4.28304-3.80505-4.30818l1.08176-1.19183
	c0.11793,0.10692,2.91668,2.65567,4.11008,4.6824c0.29982,0.50894,0.54983,1.00099,0.75658,1.45412
	c0.79924-0.06624,1.59631-0.13336,2.39093-0.20155c-0.07793-0.14417-0.15321-0.28725-0.24027-0.43495
	c-1.06918-1.81604-3.77831-4.28304-3.80505-4.30818l1.08176-1.19183c0.11793,0.10692,2.91668,2.65567,4.11008,4.6824
	c0.22504,0.38197,0.41372,0.74823,0.5854,1.10181c0.79796-0.07016,1.58589-0.14032,2.36253-0.21049
	c-0.01445-0.02496-0.02595-0.04865-0.04069-0.0737c-1.07076-1.81918-3.77831-4.28304-3.80662-4.30818l1.08176-1.19183
	c0.11793,0.10692,2.91825,2.65567,4.11165,4.6824c0.14652,0.24883,0.28046,0.49332,0.40389,0.73152
	c4.39831-0.40517,8.23637-0.78537,10.53374-1.01788l-0.1141-0.10869c0.21011-0.25797,1.02212-1.77536-0.23113-6.80466
	c-0.11212,0.00777-1.57194-4.70274-2.62648-7.30977c-0.06673-0.17816-0.18613-0.29167-0.3579-0.34081
	c0,0-2.11587-1.23154-3.32342,0.68042s-1.5799,4.81705-4.02517,4.98116s-3.43476-0.77928-4.1258-1.71069
	s-0.90566-1.35851-1.15723-2.4151c-0.25157-1.05661-0.30012-2.50768-1.10692-2.81763l-0.86626-0.3129
	c-0.97858-0.35898-2.00168,0.26259-2.70609,0.91667c-0.70441,0.6541-1.86164,1.86165-3.82391,2.81763
	c-1.96227,0.95598-3.73321,1.21364-3.73321,1.21364l-0.74263,0.78174c-0.05611,0.00394-0.05257,0.06458-0.05257,0.06458
	l0.00364,0.06062l0.16872,0.31142l-0.79206,0.58403l-0.63493-0.26082c-0.05611,0.00385-0.05611,0.00385-0.05611,0.00385
	l-1.03735,0.55836c-0.05611,0.00383-0.04893,0.1252-0.04893,0.1252l0.24577,0.34846l-0.87264,0.48625l-0.69458-0.31761
	l-0.05611,0.00374c0,0,0,0-0.05611,0.00392l-0.9777,0.61517l0.00364,0.06084l0.30896,0.4659l-0.88778,0.44212l-0.58245-0.32547
	c0,0-0.05965-0.0567-0.05602,0.00383l-1.04098,0.49783l-0.05248,0.06458l0.00354,0.06062l0.19684,0.47366l-0.79433,0.52939
	l-0.58244-0.32527l-0.05602,0.00383c0,0,0,0-0.05611,0.00383l-0.98487,0.49391l-0.05247,0.06456l0.00353,0.06064l0.19684,0.47366
	l-1.0399,0.57027l-0.47022-0.33295c0,0-0.05965-0.0569-0.11213,0.00768c-0.32597,0.20499-0.59218,0.46687-0.85839,0.72878
	c-0.05257,0.06445-0.05257,0.06445,0.00717,0.12135l0.20126,0.31044c-0.20647,0.3187-1.2331,0.64062-3.296,1.74756
	C59.33073,179.08888,56.02677,180.63182,54.62101,182.86346z M105.79874,185.00577l-0.239-4.0636l-0.00363-0.0623
	c-5.50405,0.55887-20.82544,1.79068-30.84532,2.60889c-11.84124,0.96698-17.5205,0.6422-20.33546,0.66618l-0.0565,2.80524
	c0.00717,0.12135,0.06682,0.17805,0.18259,0.23112l2.89672,0.4099c3.00895,0.40211,6.11578,0.55405,9.14518,0.34581
	l39.04523-2.68309C105.70077,185.25615,105.80582,185.12712,105.79874,185.00577z M335.11884,175.60037
	c0-0.66824-0.21854-1.1714-0.69025-1.58492c-1.40686-1.2338-4.50659-1.3185-6.34976-1.20332
	c-0.42599,4.1713-1.63199,7.94028-3.37827,11.00406C330.02124,181.13792,335.11884,177.78305,335.11884,175.60037z
	 M286.68158,126.89581l78.35666,52.46135l-78.36923,52.64874L286.68158,126.89581z M310.52304,157.76836
	c-0.17639,1.81279,2.47733,3.34709,2.25797,5.60085c-0.21942,2.25383-0.45911,3.66638-0.45911,3.66638
	s2.95914-2.65302,3.18103-4.93251c0.22177-2.27948-2.43515-3.78047-2.25797-5.60085
	c0.17728-1.82047,0.45911-3.66638,0.45911-3.66638S310.69955,155.95555,310.52304,157.76836z M298.74451,169.42847
	c0,8.36501,3.08356,15.64294,7.63278,19.42145h14.25232c0.44171-0.36694,0.85681-0.79373,1.26947-1.22446
	c4.80011-2.09052,15.47449-7.274,15.47449-12.02509c0-1.30818-0.50473-2.44183-1.45755-3.27832
	c-2.03528-1.78676-5.69107-1.88208-7.70471-1.77939c0.01248-0.37343,0.05109-0.73605,0.05109-1.1142h-24.82477
	c-0.06454,1.15753-0.02634,2.77301,0.37766,4.66403c0.82077,3.84908,2.11322,5.72485,2.12579,5.74373
	c0.35535,0.50786,0.23584,1.21069-0.27045,1.56918c-0.19809,0.13994-0.42609,0.20755-0.65094,0.20755
	c-0.35062,0-0.69653-0.16351-0.9151-0.47012c-0.06445-0.08963-1.56604-2.22485-2.49371-6.58022
	c-0.44016-2.05984-0.4935-3.81732-0.42825-5.13416H298.74451z M293.88071,189.97354c0,1.59651,4.09964,2.98547,10.14822,3.70657
	h18.94904c6.04868-0.7211,10.14813-2.11006,10.14813-3.70657H293.88071z M266.89575,177.52913
	c0.17413,0.74361,0.2952,1.50717,0.2952,2.30444c0,0.73389-0.09769,1.44124-0.24597,2.13022
	c-0.3685,1.71404-1.15103,3.27438-2.2623,4.55092c-0.61929,0.71147-1.33264,1.33698-2.12549,1.85426
	c-1.59888,1.04286-3.50482,1.65439-5.55603,1.65439s-3.95717-0.61153-5.55603-1.65439
	c-0.79285-0.51729-1.5062-1.14279-2.1255-1.85426c-1.55798-1.78961-2.50826-4.12196-2.50826-6.68114
	c0-2.55907,0.95027-4.89142,2.50826-6.68103c0.61931-0.71149,1.33266-1.33698,2.1255-1.85428
	c1.59886-1.04285,3.50482-1.65439,5.55603-1.65439s3.95715,0.61154,5.55603,1.65439c0.79285,0.5173,1.5062,1.14279,2.12549,1.85428
	C265.75522,174.38455,266.51093,175.88574,266.89575,177.52913z M262.31927,175.44569
	c-0.38651-0.44223-1.06024-0.48537-1.49942-0.0974l-2.9606,2.5968c-0.26315-0.11989-0.55002-0.19536-0.85809-0.19536
	c-0.18887,0-0.35867,0.06044-0.53271,0.1076l-4.11607-5.0287c-0.37531-0.45343-1.04276-0.5173-1.49619-0.1485
	c-0.45351,0.37206-0.52054,1.04109-0.14848,1.49619l4.29286,5.2453c-0.02869,0.13766-0.08324,0.26591-0.08324,0.41194
	c0,1.15085,0.93298,2.08394,2.08383,2.08394s2.08383-0.93309,2.08383-2.08394c0-0.04097-0.02103-0.07507-0.02328-0.11557
	l3.1601-2.7729C262.66254,176.5587,262.70724,175.88643,262.31927,175.44569z M251.44513,191.09068v2.04836h11.11206v-2.04836
	c-1.67688,0.82941-3.55847,1.30789-5.55603,1.30789C255.00362,192.39857,253.12202,191.92009,251.44513,191.09068z
	 M262.55719,168.57657v-2.04836h-11.11206v2.04836c1.6769-0.82951,3.55849-1.30789,5.55603-1.30789
	C258.99872,167.26868,260.88031,167.74706,262.55719,168.57657z M281.30215,126.89581l0.01257,105.11009l-78.36926-52.64874
	L281.30215,126.89581z M271.41,179.74031c0-1.2957,0.48251-2.34483-2.11349-2.41382
	c-0.61163-2.99933-2.2793-5.61224-4.61383-7.42111v-5.0123c0-0.27084-0.21951-0.49048-0.49045-0.49048h-2.54807v-4.75511h-9.286
	v4.75511h-2.54797c-0.27094,0-0.49057,0.21964-0.49057,0.49048v5.0123c-2.9662,2.29836-4.88336,5.88544-4.88336,9.92819
	s1.91716,7.62994,4.88336,9.92819v5.0123c0,0.27084,0.21964,0.49057,0.49057,0.49057h2.54797v4.75513h9.286v-4.75513h2.54807
	c0.27094,0,0.49045-0.21973,0.49045-0.49057v-5.0123c2.38297-1.84641,4.06882-4.53165,4.64752-7.60959
	C271.88544,182.07445,271.41,181.03001,271.41,179.74031z M202.95805,185.93167l78.35667,52.46135l-78.36926,52.64864
	L202.95805,185.93167z M210.74069,229.53764h36.73676v-1.10692c0-0.88925-0.72081-1.61008-1.61006-1.61008h-11.8268
	c-4.52899,0-5.83817-6.44026-13.78738-6.44026c-6.54041,0-9.51251,5.13208-9.51251,8.05034
	C210.74069,228.7554,210.74069,229.13286,210.74069,229.53764z M207.31499,246.39932c0.15094,0.217,0.3978,0.34592,0.66194,0.34592
	h3.01888v6.94342c0,0.44498,0.36006,0.80504,0.80504,0.80504s0.80504-0.36006,0.80504-0.80504v-6.94342h33.81142v6.94342
	c0,0.44498,0.36008,0.80504,0.80504,0.80504c0.44498,0,0.80504-0.36006,0.80504-0.80504v-6.94342h2.1132
	c0.26416,0,0.51102-0.12892,0.66196-0.34592c0.14937-0.21698,0.18396-0.4937,0.09277-0.74055l-3.2673-8.75475
	c-0.03008-0.08009-0.09926-0.12874-0.15056-0.1935v-5.76407h-36.73676c0,1.94321,0,4.18732,0,5.63464
	c-0.10484,0.08766-0.20105,0.18927-0.25117,0.32292l-3.2673,8.75475C207.13101,245.90562,207.1656,246.18234,207.31499,246.39932z
	 M246.35265,238.09113h-3.00768l0.92561,3.99167h-6.10487l-0.40498-3.99167h-2.70186l0.28922,3.99167h-5.23271l-0.17355-3.99167
	h-2.41264l-0.23143,3.99167h-5.23271l0.2892-3.99167h-2.41264l-0.69418,3.99167h-5.76938l0.92552-3.99167h-2.63867l-2.62756,7.04405
	h39.8429L246.35265,238.09113z M192.37585,258.01718h-12.78934v-18.31746h12.78934V258.01718z M186.78622,257.11005
	c0-0.44458-0.36046-0.80502-0.80504-0.80502c-0.44467,0-0.80504,0.36044-0.80504,0.80502s0.36037,0.80505,0.80504,0.80505
	C186.42577,257.9151,186.78622,257.55463,186.78622,257.11005z M191.4247,240.74051h-10.88702v15.4635h10.88702V240.74051z
	 M197.57861,185.93167l0.01257,105.10999l-78.36925-52.64864L197.57861,185.93167z M178.15442,247.35049h-8.34035h-8.63603H147.8309
	v-23.14767h35.33031v13.9341h0.95126v-14.83829h-37.23282v24.95605h14.29839v4.80347h-4.63799v3.14626h4.63799h8.63603h4.63799
	v-3.14626h-4.63799v-4.80347h8.34035V247.35049z M178.15442,238.13692h3.8868v-12.65117h-33.09041v20.58182h12.22723h8.63603
	h8.34035V238.13692z M193.32712,238.79553h-14.69186v20.12585h14.69186V238.79553z M113.331,120.57298l-78.36926,52.64864
	l0.01258-105.11009L113.331,120.57298z M43.68239,127.70084H79.6767l-2.12598-10.30074
	c-0.10122-0.49056-0.50954-0.87706-1.04295-1.07999c0.04108-0.2043,0.00472-0.42384-0.12087-0.60986L63.62437,96.88746
	c-0.1308-0.63374-0.51051-1.17532-1.03155-1.52142l-0.3978-0.58668c-0.14937-0.22013-0.39937-0.35299-0.6651-0.35299h-0.00157
	c-0.26572,0-0.51572,0.13129-0.6651,0.35142l-0.17797,0.2612c-1.05513,0.25875-1.84091,1.20402-1.84091,2.33894
	c0,0.1082,0.01808,0.21148,0.03184,0.31594l-12.27559,18.0148c-0.15881,0.23368-0.1647,0.51601-0.06378,0.75854
	c-0.37274,0.22219-0.64829,0.54403-0.72848,0.93288L43.68239,127.70084z M80.29699,130.70625l-0.28793-1.39534H43.35004
	l-0.28793,1.39534c-0.37136,1.79944,1.37186,3.43486,3.66147,3.43486h29.91195
	C78.92513,134.14111,80.66836,132.50569,80.29699,130.70625z M61.25949,99.79303c-0.56997,0-1.08688-0.20568-1.49991-0.53587
	l-11.51939,16.90482h26.50667L63.07789,98.95154C62.63509,99.46284,61.98895,99.79303,61.25949,99.79303z M308.36551,117.68696
	c-0.02298-0.66647-0.58185-1.18819-1.24841-1.1653c-0.66647,0.02299-1.1882,0.58186-1.16531,1.24844
	c0.02301,0.66647,0.58188,1.18819,1.24844,1.16529C307.8667,118.91239,308.3884,118.35352,308.36551,117.68696z M365.02567,68.11153
	l0.01257,105.11009l-78.36923-52.64864L365.02567,68.11153z M307.38556,121.8504c3.08051-2.40557,9.2399-4.07431,12.2244-4.7738
	c2.50354-0.58678,5.39841-0.89692,8.37167-0.89692c5.01682,0,9.89145,0.84464,13.72577,2.37845
	c2.22821,0.89121,3.71896,1.67109,4.8074,2.24057c1.23782,0.64751,1.8082,0.93377,2.3587,0.93377
	c0.26996,0,0.58893-0.06171,1.00394-0.19428c0.16931-0.05415,0.33597-0.09355,0.50443-0.1423
	c-1.93979-0.77447-3.7916-1.76701-2.73154-2.44979c1.97318-1.27084,7.44656-0.10063,7.44656-0.10063
	s-3.32077-4.12579-11.27048-2.4151c-2.95135,0.63512-2.74402-1.1993-8.85538-3.42139
	c-1.77762-0.64632-3.94684-1.09856-6.03775-1.40881c-0.98468-0.14613-1.77859-3.55376-2.79404-3.6258
	c-1.47052-0.10416-3.77036,3.32499-5.24146,3.3755c-2.77203,0.09522-5.979,0.415-8.36707,1.05533
	c-4.29425,1.15144-11.35944,3.84937-12.0874,6.28874C300.06744,119.95387,303.71603,121.10914,307.38556,121.8504z
	 M353.48682,124.68197c2.0126-1.20755,7.54721,0,7.54721,0s-3.42142-3.92455-10.66672-1.61007
	c-2.8757,0.91863-3.22012-0.60378-9.25787-3.01888c-6.03778-2.41511-14.69189-2.91825-21.13214-1.40881
	c-4.32864,1.01455-11.97488,3.42139-12.77994,5.83649c-0.80502,2.41511,13.48434,4.93084,13.88684,4.32706
	c0.40253-0.60378,0.40253-3.72329,0.40253-3.72329s0.10062,2.81762,4.52832,5.83649
	c4.42767,3.01888,13.18243,0.90567,10.56607,0.3019s-4.93085-3.11951-4.93085-3.11951s1.85583,0.74872,2.18427,0.81927
	c5.89951,1.2673,14.83289-3.04884,16.83466-1.52368c2.11322,1.61006,9.15729,0.60378,9.15729,0.60378
	S351.47424,125.88952,353.48682,124.68197z M313.93951,122.46812c-0.66684,0-1.20755,0.54069-1.20755,1.20755
	s0.54071,1.20755,1.20755,1.20755c0.66687,0,1.20755-0.54069,1.20755-1.20755S314.60638,122.46812,313.93951,122.46812z
	 M206.43398,136.01956l-4.8302,18.78406l-7.2453,3.48851l0.26828-7.78195l0.53676-14.22234l-6.70865,0.26837l-1.92366-6.25179
	l-4.313,3.83089l-2.35034,26.03526l-13.4173-9.12375l6.97704-4.02518l-0.62019-11.57678l-5.5518,2.72142l-3.75679-13.14893
	l8.67474-1.40429l-0.35603-10.9395l-7.2453-9.39213l6.44026-1.34169l8.05034-15.02727l5.0985,12.61217l5.09857,1.87844
	l-0.3063,3.67621l8.89331-0.45607l-4.29346-17.97913l15.02727,6.44027l-3.41942,11.31028l9.59131-1.91825l5.63524-17.71075
	l13.14893,9.66041l-11.80713,8.5871l11.00209,0.80503l3.75681,10.19707l-8.85538-0.26838l-1.07332,11.53886l8.85538,0.26838
	l3.22014,10.46544l-11.53886,0.80504l-2.68347,19.05243l-6.97693,4.56183l-4.56183-24.68767l-6.41875,0.25677L206.43398,136.01956z
	 M209.11737,116.96703l-0.80504,6.70865l0.78468,1.52319l7.80241-0.1815l-1.07341-10.46544l-7.00249,1.51405L209.11737,116.96703z
	 M195.96854,114.55193l-5.90361,0.26837l-1.81358-6.52871l-4.89507,4.65027v8.58709l7.51369,0.53666l-1.74579,3.92788
	l6.84436-0.17109V114.55193z"/>
</svg>
