<svg viewBox="0 0 24 24" xmlns="http://www.w3.org/2000/svg"><path d="M7.40903 4.9148L7.85587 4.32101L7.75989 4.49334C7.74894 4.51303 7.75442 4.53887 7.77212 4.55105C7.78982 4.56323 7.81305 4.55714 7.824 4.53745L8.0016 4.22051L8.18126 4.54115C8.19221 4.56074 8.21535 4.56673 8.23296 4.55456C8.25056 4.54237 8.25595 4.51662 8.245 4.49705L8.14902 4.32472L8.58565 4.94326C8.58639 5.4625 8.35792 5.60748 8.11065 5.70743L7.89461 5.70743C7.66523 5.57902 7.42591 5.44348 7.40903 4.9148ZM11.8249 5.55929L6.12659 9.3874L6.12751 1.7448L11.8249 5.55929ZM6.91681 5.73489C7.01913 5.83721 7.24771 5.88266 7.52289 5.88266C7.79807 5.88266 7.92205 5.82997 7.91402 5.78988L8.09123 5.78988C8.08321 5.82997 8.31996 5.89215 8.52872 5.89215C8.73747 5.89215 8.99298 5.8245 9.06795 5.74952C9.14291 5.67456 9.24399 5.2174 8.98021 4.95362C8.9783 4.94856 8.09178 4.17055 8.09178 4.17055C8.14387 4.17811 8.19617 4.18375 8.24871 4.18538C8.27576 4.18665 8.30281 4.18289 8.32876 4.17425C8.40592 4.14089 8.44416 4.04427 8.41418 3.95843C8.38419 3.8726 8.29733 3.83005 8.22017 3.86341C8.15605 3.89103 8.03376 4.06088 8.01004 4.09469L8.00622 4.1001C8.00384 4.09987 8.00157 4.09992 7.99919 4.1002L7.99559 4.09509C7.97076 4.06129 7.84957 3.89144 7.78546 3.86382C7.7083 3.83044 7.62141 3.87286 7.59127 3.95864C7.59084 3.95983 7.59042 3.96103 7.59001 3.96223C7.56116 4.04746 7.59988 4.14257 7.6765 4.17466C7.70246 4.18317 7.72952 4.18679 7.75655 4.18538C7.80721 4.18392 7.85765 4.17869 7.9079 4.17172C7.9079 4.17172 7.02064 4.95155 7.01887 4.96175C6.74711 5.23351 6.81449 5.63257 6.91681 5.73489ZM9.09878 6.18785L8.01776 6.18785L6.93487 6.18785L6.93487 6.32571C6.93487 6.32571 7.55711 6.33942 7.87174 7.18845L8.16155 7.18845C8.47581 6.33942 9.09878 6.32682 9.09878 6.32682C9.09878 6.32682 9.09878 6.18785 9.09878 6.18785ZM7.75804 3.94009C7.74939 3.93644 7.74022 3.93462 7.73098 3.93472C7.69005 3.93403 7.65637 3.97038 7.65574 4.01592C7.65558 4.02814 7.65785 4.04027 7.66242 4.05139C7.67037 4.07147 7.68517 4.08719 7.70356 4.09509C7.76712 4.10339 7.83144 4.10117 7.89441 4.0885C7.85576 4.03184 7.80981 3.98183 7.75804 3.94009ZM8.3017 4.09633C8.34008 4.0796 8.35899 4.03142 8.34395 3.98874C8.32891 3.94604 8.2856 3.925 8.24722 3.94173C8.19556 3.98338 8.1497 4.03327 8.11111 4.08978C8.174 4.10235 8.23823 4.10456 8.3017 4.09633ZM4.00602 5.49263L3.8779 5.23302L3.74978 5.49263L3.46328 5.53426L3.6706 5.73633L3.62165 6.02167L3.8779 5.88695L4.13415 6.02167L4.08521 5.73633L4.29252 5.53426L4.00602 5.49263ZM5.73637 1.7448L5.73728 9.3874L0.039021 5.55929L5.73637 1.7448ZM5.5071 5.20808L4.47828 4.43646L4.473 4.3886L4.41566 4.38949L4.41446 4.3886L4.41441 4.38952L4.38172 4.39002C4.32742 4.57875 4.10532 4.72029 3.83887 4.72029C3.58065 4.72029 3.36555 4.58688 3.30296 4.40689L3.22426 4.40812L2.13162 5.2276L2.67795 5.83245L3.13857 5.56498L3.02915 7.04216L4.76567 7.04216L4.60747 5.60778L4.96079 5.81294L5.5071 5.20808ZM20.8933 6.16718C20.8929 6.16729 20.858 6.17941 20.7569 6.14031C20.6836 6.11213 20.6637 6.07846 20.6632 6.06411C20.6666 6.03347 20.6454 6.00523 20.6146 6.00009C20.5834 5.99437 20.5527 6.01627 20.5473 6.04822C20.5451 6.06137 20.5312 6.17889 20.7148 6.2496C20.7864 6.2771 20.8386 6.28602 20.8763 6.28602C20.9221 6.28602 20.9464 6.27298 20.9575 6.26429C20.983 6.24435 20.9915 6.20513 20.9716 6.17964C20.9514 6.15409 20.9186 6.1474 20.8933 6.16718ZM24 5.55929L18.3017 9.3874L18.3027 1.7448L24 5.55929ZM19.3042 5.44984C19.3042 5.44984 19.6506 5.50115 19.9407 5.24223C20.2308 4.9833 20.3548 4.51218 20.3548 4.51218C20.3548 4.51218 19.7285 4.59103 19.5017 4.80322C19.2177 5.06886 19.3042 5.44984 19.3042 5.44984ZM21.5577 6.37999C21.5577 6.1633 21.453 5.97737 21.2285 5.89795C21.157 5.87269 21.0318 5.8976 20.9453 5.89998C20.9479 5.79019 20.9429 5.54101 20.8578 5.34346C20.8125 5.23829 20.7624 5.15763 20.722 5.09286C20.6677 5.00563 20.6285 4.94258 20.6285 4.86907C20.6285 4.86797 20.6279 4.86705 20.6279 4.86596C20.6281 4.84772 20.6285 4.83025 20.6285 4.81054C20.6285 4.54993 20.6424 4.43875 20.6427 4.43761C20.6468 4.4056 20.6241 4.37622 20.5921 4.37205C20.5608 4.36787 20.5307 4.39039 20.5265 4.42241C20.5259 4.42715 20.5114 4.54056 20.5114 4.81054C20.5114 5.04851 20.5114 5.13757 20.2432 5.40571C20.1604 5.48854 20.0949 5.55845 20.0202 5.63825L19.942 5.72159C19.8344 5.8357 19.7138 6.00874 19.6978 6.03179C19.6117 6.02699 19.5043 6.01757 19.4448 6.04184C19.2572 6.11832 19.1944 6.27933 19.1944 6.46559C19.1944 6.7258 19.4651 7.04216 19.7578 7.04216C19.9627 7.04216 20.1759 6.87704 20.2663 6.68736C20.2174 6.58759 20.1895 6.4815 20.1895 6.37999C20.1895 6.29667 20.2005 6.2255 20.2182 6.16284C20.1707 6.10638 20.1071 6.06065 20.0247 6.03147C19.9791 6.01535 19.9091 6.02222 19.8442 6.02833C19.8915 5.96371 19.9629 5.87002 20.0272 5.80185L20.1057 5.71828C20.1795 5.63939 20.2441 5.57028 20.326 5.48849C20.4861 5.32838 20.5602 5.21997 20.5957 5.11038C20.6046 5.12506 20.6132 5.13958 20.6227 5.15477C20.6629 5.21936 20.7085 5.29265 20.7504 5.38977C20.8255 5.56439 20.8302 5.79507 20.8281 5.8962C20.7405 5.891 20.6422 5.88596 20.5846 5.90947C20.3763 5.99438 20.3065 6.17317 20.3065 6.37999C20.3065 6.66892 20.5866 7.02021 20.9321 7.02021C21.2776 7.02021 21.5577 6.66892 21.5577 6.37999ZM19.7209 6.26841C19.7205 6.26852 19.6893 6.2779 19.602 6.24429C19.5284 6.21605 19.5219 6.18518 19.5215 6.18101C19.5243 6.15066 19.5033 6.12282 19.4728 6.11773C19.4414 6.11196 19.4108 6.13391 19.4054 6.16586C19.4034 6.17821 19.3902 6.2883 19.5599 6.35358C19.6248 6.37856 19.6727 6.38668 19.7075 6.38668C19.7507 6.38668 19.7738 6.37416 19.7843 6.36593C19.8098 6.34598 19.8186 6.30648 19.7986 6.28104C19.7788 6.25555 19.7465 6.24852 19.7209 6.26841ZM15.3067 5.56905C15.2799 5.56905 15.258 5.591 15.258 5.61782L15.258 6.91046C15.258 6.93729 15.2799 6.95924 15.3067 6.95924C15.3336 6.95924 15.3555 6.93729 15.3555 6.91046L15.3555 5.61782C15.3555 5.591 15.3336 5.56905 15.3067 5.56905ZM17.9115 1.7448L17.9124 9.3874L12.2142 5.55929L17.9115 1.7448ZM17.214 5.69099C17.214 5.75834 17.2686 5.81294 17.3359 5.81294C17.4033 5.81294 17.4579 5.75834 17.4579 5.69099C17.4579 5.62365 17.4033 5.56905 17.3359 5.56905C17.2686 5.56905 17.214 5.62365 17.214 5.69099ZM16.9798 5.45685C16.9798 5.49727 17.0126 5.53002 17.053 5.53002C17.0934 5.53002 17.1262 5.49727 17.1262 5.45685C17.1262 5.41645 17.0934 5.38369 17.053 5.38369C17.0126 5.38369 16.9798 5.41645 16.9798 5.45685ZM16.8579 5.72026C16.8579 5.75798 16.8885 5.78855 16.9262 5.78855C16.9639 5.78855 16.9945 5.75798 16.9945 5.72026C16.9945 5.68255 16.9639 5.65197 16.9262 5.65197C16.8885 5.65197 16.8579 5.68254 16.8579 5.72026ZM16.6579 5.24711C16.6579 5.29021 16.6928 5.32515 16.7359 5.32515C16.779 5.32515 16.814 5.29021 16.814 5.24711C16.814 5.204 16.779 5.16906 16.7359 5.16906C16.6928 5.16906 16.6579 5.204 16.6579 5.24711ZM16.5164 5.73002C16.5164 5.76504 16.5448 5.79343 16.5799 5.79343C16.6149 5.79343 16.6433 5.76504 16.6433 5.73002C16.6433 5.69499 16.6149 5.6666 16.5799 5.6666C16.5448 5.6666 16.5164 5.69499 16.5164 5.73002ZM16.2847 6.43125C16.0545 6.32149 15.9037 6.14041 15.9037 5.93489L16.2847 5.93489C16.2847 5.86923 16.2847 5.81536 16.2847 5.78367C16.2847 5.5788 15.8579 5.17394 15.8579 4.96419C15.8579 4.81793 15.8396 4.42083 15.8284 4.19349L15.9091 4.19349L15.9091 3.90082L15.4214 3.90082L15.4214 4.19349L15.5021 4.19349C15.4909 4.42083 15.4726 4.81793 15.4726 4.96419C15.4726 5.17394 15.0458 5.55929 15.0458 5.78367C15.0458 6.00806 15.0458 7.05191 15.0458 7.05191C15.0458 7.11657 15.0982 7.16898 15.1628 7.16898L16.1677 7.16898C16.2323 7.16898 16.2847 7.11657 16.2847 7.05191C16.2847 7.05191 16.2847 6.7463 16.2847 6.43125ZM17.5969 6.02086L16.0116 6.02086C16.0116 6.23204 16.3412 6.40421 16.7567 6.4166C16.7567 6.48715 16.7567 7.03154 16.7567 7.05436C16.7567 7.07875 16.464 7.08118 16.464 7.08118C16.4331 7.08118 16.4079 7.10643 16.4079 7.13728C16.4079 7.16813 16.4331 7.19338 16.464 7.19338L17.142 7.19338C17.1729 7.19338 17.1981 7.16813 17.1981 7.13728C17.1981 7.10643 17.1729 7.08118 17.142 7.08118C17.142 7.08118 16.8494 7.07875 16.8494 7.05436C16.8494 7.03155 16.8494 6.48739 16.8494 6.41665C17.266 6.40486 17.5969 6.23245 17.5969 6.02086ZM6.12751 10.3201L11.8249 14.1346L6.12659 17.9627L6.12751 10.3201ZM7.27777 13.3661C7.27777 13.4132 7.3222 13.4517 7.37651 13.4517L7.64731 13.4517C7.70161 13.4517 7.74605 13.4132 7.74605 13.3661L7.74605 13.2836C7.74605 13.2365 7.70161 13.198 7.64731 13.198L7.37651 13.198C7.3222 13.198 7.27777 13.2365 7.27777 13.2836L7.27777 13.3661ZM7.04364 15.148C7.04364 15.2023 7.08807 15.2467 7.14237 15.2467L9.38382 15.2467C9.43814 15.2467 9.48257 15.2023 9.48257 15.148L9.48257 13.6285C9.48257 13.5742 9.43814 13.5297 9.38382 13.5297L9.08524 13.5297C9.00349 13.3445 8.90632 13.1395 8.87653 13.1395L8.05941 13.1395C8.02963 13.1395 7.93245 13.3445 7.8507 13.5297L7.14237 13.5297C7.08807 13.5297 7.04364 13.5742 7.04364 13.6285C7.04364 13.6285 7.04364 15.148 7.04364 15.148ZM7.70702 14.3443C7.70702 13.9214 8.0499 13.5785 8.47285 13.5785C8.8958 13.5785 9.23868 13.9214 9.23868 14.3443C9.23868 14.7673 8.8958 15.1101 8.47285 15.1101C8.0499 15.1101 7.70702 14.7673 7.70702 14.3443ZM7.95731 14.3443C7.95731 14.629 8.18812 14.8599 8.47285 14.8599C8.75757 14.8599 8.98839 14.629 8.98839 14.3443C8.98839 14.0596 8.75757 13.8288 8.47285 13.8288C8.18812 13.8288 7.95731 14.0596 7.95731 14.3443ZM8.30213 14.2419C8.36297 14.1195 8.40633 14.0101 8.32984 13.9721C8.25336 13.9341 8.14203 14.0025 8.08119 14.1249C8.02034 14.2472 8.03302 14.3773 8.10951 14.4153C8.18599 14.4533 8.24128 14.3643 8.30213 14.2419ZM5.73637 10.3201L5.73728 17.9627L0.039021 14.1346L5.73637 10.3201ZM1.42943 14.3895C1.64675 14.3875 2.19363 14.3788 2.88514 14.3415C3.01818 14.3343 3.16406 14.3247 3.31595 14.3137C3.30393 14.2884 3.29036 14.2618 3.27407 14.2341C3.19622 14.1018 2.99935 13.9227 2.99729 13.9209L3.07595 13.8342C3.08452 13.842 3.28813 14.0273 3.37491 14.1747C3.40225 14.2211 3.42333 14.265 3.4402 14.3044C3.49866 14.3 3.55753 14.2954 3.61685 14.2906C3.60756 14.2723 3.59758 14.2535 3.58618 14.2341C3.50844 14.1021 3.31146 13.9227 3.30951 13.9209L3.38817 13.8342C3.39674 13.842 3.60024 14.0273 3.68701 14.1747C3.70881 14.2117 3.72699 14.2474 3.74202 14.2804C3.80014 14.2756 3.85809 14.2707 3.91587 14.2657C3.9102 14.2553 3.90473 14.2449 3.8984 14.2341C3.82066 14.1021 3.62368 13.9227 3.62173 13.9209L3.70039 13.8342C3.70896 13.842 3.91246 14.0273 3.99923 14.1747C4.0156 14.2024 4.02932 14.2291 4.0418 14.2548C4.09982 14.2497 4.15711 14.2446 4.21358 14.2395C4.21253 14.2377 4.21169 14.2359 4.21062 14.2341C4.13276 14.1018 3.9359 13.9227 3.93384 13.9209L4.01249 13.8342C4.02107 13.842 4.22468 14.0273 4.31145 14.1747C4.32211 14.1928 4.33185 14.2105 4.34082 14.2279C4.66062 14.1984 4.93969 14.1708 5.10673 14.1538L5.09844 14.1459C5.11371 14.1272 5.17276 14.0169 5.08163 13.6512C5.07348 13.6517 4.96734 13.3092 4.89066 13.1197C4.88581 13.1067 4.87713 13.0985 4.86464 13.0949C4.86464 13.0949 4.71079 13.0053 4.62299 13.1444C4.53519 13.2834 4.50811 13.4946 4.33032 13.5066C4.15252 13.5185 4.08057 13.4499 4.03033 13.3822C3.98008 13.3144 3.96448 13.2834 3.94619 13.2066C3.92789 13.1297 3.92436 13.0242 3.8657 13.0017L3.80272 12.9789C3.73156 12.9528 3.65717 12.998 3.60595 13.0456C3.55474 13.0932 3.47059 13.181 3.32792 13.2505C3.18524 13.32 3.05647 13.3387 3.05647 13.3387L3.00248 13.3955C2.9984 13.3958 2.99865 13.4002 2.99865 13.4002L2.99892 13.4047L3.01119 13.4273L2.9536 13.4698L2.90743 13.4508C2.90335 13.4511 2.90335 13.4511 2.90335 13.4511L2.82792 13.4917C2.82384 13.492 2.82437 13.5008 2.82437 13.5008L2.84224 13.5261L2.77879 13.5615L2.72828 13.5384L2.7242 13.5386C2.7242 13.5386 2.7242 13.5386 2.72012 13.5389L2.64903 13.5837L2.6493 13.5881L2.67176 13.622L2.60721 13.6541L2.56486 13.6304C2.56486 13.6304 2.56053 13.6263 2.56079 13.6307L2.4851 13.6669L2.48128 13.6716L2.48154 13.676L2.49585 13.7105L2.4381 13.749L2.39575 13.7253L2.39167 13.7256C2.39167 13.7256 2.39167 13.7256 2.38759 13.7259L2.31598 13.7618L2.31217 13.7665L2.31243 13.7709L2.32674 13.8053L2.25113 13.8468L2.21694 13.8226C2.21694 13.8226 2.2126 13.8184 2.20878 13.8231C2.18508 13.838 2.16573 13.8571 2.14637 13.8761C2.14255 13.8808 2.14255 13.8808 2.14689 13.8849L2.16152 13.9075C2.14651 13.9307 2.07187 13.9541 1.92187 14.0346C1.77188 14.1151 1.53165 14.2273 1.42943 14.3895ZM5.15059 14.5453L5.13321 14.2498L5.13295 14.2453C4.73274 14.2859 3.61872 14.3755 2.89017 14.435C2.02919 14.5053 1.61625 14.4817 1.41157 14.4834L1.40746 14.6874C1.40798 14.6962 1.41232 14.7003 1.42074 14.7042L1.63136 14.734C1.85014 14.7632 2.07604 14.7743 2.29631 14.7591L5.1353 14.5641C5.14346 14.5635 5.1511 14.5541 5.15059 14.5453ZM21.8245 13.8614C21.8245 13.8128 21.8087 13.7762 21.7744 13.7462C21.6721 13.6565 21.4467 13.6503 21.3127 13.6587C21.2817 13.962 21.194 14.236 21.067 14.4588C21.4539 14.2641 21.8245 14.0201 21.8245 13.8614ZM18.3027 10.3201L24 14.1346L18.3017 17.9627L18.3027 10.3201ZM20.0362 12.5648C20.0234 12.6966 20.2163 12.8082 20.2004 12.9721C20.1844 13.136 20.167 13.2387 20.167 13.2387C20.167 13.2387 20.3821 13.0458 20.3983 12.88C20.4144 12.7143 20.2212 12.6051 20.2341 12.4728C20.247 12.3404 20.2675 12.2062 20.2675 12.2062C20.2675 12.2062 20.049 12.433 20.0362 12.5648ZM19.1798 13.4127C19.1798 14.0209 19.404 14.5501 19.7347 14.8248L20.771 14.8248C20.8031 14.7981 20.8333 14.7671 20.8633 14.7358C21.2124 14.5838 21.9885 14.2069 21.9885 13.8614C21.9885 13.7663 21.9518 13.6839 21.8825 13.623C21.7345 13.4931 21.4687 13.4862 21.3223 13.4937C21.3232 13.4665 21.326 13.4401 21.326 13.4127L19.521 13.4127C19.5163 13.4968 19.5191 13.6143 19.5485 13.7518C19.6081 14.0316 19.7021 14.168 19.703 14.1694C19.7289 14.2063 19.7202 14.2574 19.6834 14.2835C19.669 14.2937 19.6524 14.2986 19.636 14.2986C19.6105 14.2986 19.5854 14.2867 19.5695 14.2644C19.5648 14.2579 19.4556 14.1026 19.3882 13.786C19.3562 13.6362 19.3523 13.5084 19.357 13.4127C19.357 13.4127 19.1798 13.4127 19.1798 13.4127ZM18.8261 14.9065C18.8261 15.0226 19.1242 15.1236 19.564 15.176L20.9418 15.176C21.3816 15.1236 21.6797 15.0226 21.6797 14.9065L18.8261 14.9065ZM16.864 14.0017C16.8767 14.0557 16.8855 14.1112 16.8855 14.1692C16.8855 14.2226 16.8784 14.274 16.8676 14.3241C16.8408 14.4487 16.7839 14.5622 16.7031 14.655C16.6581 14.7067 16.6062 14.7522 16.5486 14.7898C16.4323 14.8657 16.2937 14.9101 16.1446 14.9101C15.9954 14.9101 15.8569 14.8657 15.7406 14.7898C15.6829 14.7522 15.6311 14.7067 15.5861 14.655C15.4728 14.5249 15.4037 14.3553 15.4037 14.1692C15.4037 13.9831 15.4728 13.8136 15.5861 13.6834C15.6311 13.6317 15.683 13.5862 15.7406 13.5486C15.8569 13.4728 15.9954 13.4283 16.1446 13.4283C16.2937 13.4283 16.4323 13.4728 16.5486 13.5486C16.6062 13.5862 16.6581 13.6317 16.7031 13.6834C16.7811 13.773 16.836 13.8822 16.864 14.0017ZM16.5313 13.8502C16.5032 13.818 16.4542 13.8149 16.4222 13.8431L16.207 14.0319C16.1878 14.0232 16.167 14.0177 16.1446 14.0177C16.1308 14.0177 16.1185 14.0221 16.1058 14.0255L15.8066 13.6599C15.7793 13.6269 15.7307 13.6223 15.6978 13.6491C15.6648 13.6761 15.6599 13.7248 15.687 13.7579L15.9991 14.1393C15.997 14.1493 15.9931 14.1586 15.9931 14.1692C15.9931 14.2529 16.0609 14.3207 16.1446 14.3207C16.2283 14.3207 16.2961 14.2529 16.2961 14.1692C16.2961 14.1662 16.2946 14.1638 16.2944 14.1608L16.5242 13.9592C16.5562 13.9311 16.5595 13.8822 16.5313 13.8502ZM15.7406 14.9877L15.7406 15.1367L16.5486 15.1367L16.5486 14.9877C16.4266 15.048 16.2898 15.0828 16.1446 15.0828C15.9993 15.0828 15.8625 15.048 15.7406 14.9877ZM16.5486 13.3507L16.5486 13.2018L15.7406 13.2018L15.7406 13.3507C15.8625 13.2904 15.9993 13.2556 16.1446 13.2556C16.2898 13.2556 16.4266 13.2904 16.5486 13.3507ZM17.9115 10.3201L17.9124 17.9627L12.2142 14.1346L17.9115 10.3201ZM17.1923 14.1624C17.1923 14.0682 17.2273 13.9919 17.0386 13.9869C16.9941 13.7688 16.8729 13.5789 16.7031 13.4473L16.7031 13.0829C16.7031 13.0632 16.6871 13.0472 16.6674 13.0472L16.4822 13.0472L16.4822 12.7015L15.807 12.7015L15.807 13.0472L15.6217 13.0472C15.602 13.0472 15.5861 13.0632 15.5861 13.0829L15.5861 13.4473C15.3704 13.6144 15.231 13.8753 15.231 14.1692C15.231 14.4632 15.3704 14.724 15.5861 14.8911L15.5861 15.2555C15.5861 15.2752 15.602 15.2912 15.6217 15.2912L15.807 15.2912L15.807 15.637L16.4822 15.637L16.4822 15.2912L16.6674 15.2912C16.6871 15.2912 16.7031 15.2752 16.7031 15.2555L16.7031 14.8911C16.8764 14.7568 16.999 14.5616 17.041 14.3378C17.2268 14.3321 17.1923 14.2562 17.1923 14.1624ZM12.2151 14.6126L17.9124 18.4271L12.2142 22.2552L12.2151 14.6126ZM12.781 17.7832L15.4521 17.7832L15.4521 17.7027C15.4521 17.6381 15.3997 17.5857 15.335 17.5857L14.4751 17.5857C14.1458 17.5857 14.0506 17.1174 13.4726 17.1174C12.9971 17.1174 12.781 17.4905 12.781 17.7027C12.781 17.7263 12.781 17.7538 12.781 17.7832ZM12.5319 19.0092C12.5429 19.025 12.5608 19.0344 12.58 19.0344L12.7995 19.0344L12.7995 19.5392C12.7995 19.5716 12.8257 19.5978 12.858 19.5978C12.8904 19.5978 12.9166 19.5716 12.9166 19.5392L12.9166 19.0344L15.375 19.0344L15.375 19.5392C15.375 19.5716 15.4012 19.5978 15.4336 19.5978C15.4659 19.5978 15.4921 19.5716 15.4921 19.5392L15.4921 19.0344L15.6457 19.0344C15.665 19.0344 15.6829 19.025 15.6939 19.0092C15.7047 18.9935 15.7073 18.9733 15.7006 18.9554L15.4631 18.3188C15.4609 18.313 15.4558 18.3095 15.4521 18.3048L15.4521 17.8857L12.781 17.8857C12.781 18.0269 12.781 18.1901 12.781 18.2953C12.7733 18.3017 12.7663 18.3091 12.7627 18.3188L12.5251 18.9554C12.5185 18.9733 12.521 18.9935 12.5319 19.0092ZM15.3703 18.4051L15.1516 18.4051L15.2189 18.6954L14.775 18.6954L14.7456 18.4051L14.5491 18.4051L14.5702 18.6954L14.1897 18.6954L14.1771 18.4051L14.0017 18.4051L13.9848 18.6954L13.6044 18.6954L13.6254 18.4051L13.45 18.4051L13.3995 18.6954L12.98 18.6954L13.0473 18.4051L12.8554 18.4051L12.6644 18.9173L15.5614 18.9173L15.3703 18.4051ZM11.4456 19.854L10.5157 19.854L10.5157 18.5221L11.4456 18.5221L11.4456 19.854ZM11.0392 19.788C11.0392 19.7557 11.013 19.7295 10.9807 19.7295C10.9484 19.7295 10.9222 19.7557 10.9222 19.788C10.9222 19.8203 10.9484 19.8466 10.9807 19.8466C11.013 19.8466 11.0392 19.8203 11.0392 19.788ZM11.3765 18.5978L10.5849 18.5978L10.5849 19.7221L11.3765 19.7221L11.3765 18.5978ZM11.8239 14.6126L11.8249 22.2552L6.12659 18.4271L11.8239 14.6126ZM10.4116 19.0784L9.80517 19.0784L9.17724 19.0784L8.20676 19.0784L8.20676 17.3953L10.7756 17.3953L10.7756 18.4085L10.8448 18.4085L10.8448 17.3296L8.1376 17.3296L8.1376 19.1441L9.17724 19.1441L9.17724 19.4934L8.84001 19.4934L8.84001 19.7222L9.17724 19.7222L9.80517 19.7222L10.1424 19.7222L10.1424 19.4934L9.80517 19.4934L9.80517 19.1441L10.4116 19.1441C10.4116 19.1441 10.4116 19.0784 10.4116 19.0784ZM10.4116 18.4085L10.6942 18.4085L10.6942 17.4886L8.28819 17.4886L8.28819 18.9851L9.17724 18.9851L9.80517 18.9851L10.4116 18.9851C10.4116 18.9851 10.4116 18.4085 10.4116 18.4085ZM11.5148 18.4564L10.4466 18.4564L10.4466 19.9197L11.5148 19.9197L11.5148 18.4564ZM5.69826 9.86035L0 13.6885L0.000914697 6.04586L5.69826 9.86035ZM0.634082 10.3786L3.25124 10.3786L3.09666 9.62965C3.0893 9.59398 3.05961 9.56588 3.02083 9.55112C3.02382 9.53627 3.02117 9.5203 3.01204 9.50678L2.08407 8.13817C2.07456 8.09209 2.04695 8.05271 2.00907 8.02754L1.98014 7.98488C1.96928 7.96888 1.9511 7.95922 1.93178 7.95922L1.93167 7.95922C1.91235 7.95922 1.89417 7.96876 1.88331 7.98477L1.87037 8.00376C1.79365 8.02258 1.73652 8.09131 1.73652 8.17383C1.73652 8.18169 1.73783 8.1892 1.73883 8.1968L0.846268 9.50666C0.834721 9.52365 0.834293 9.54418 0.841631 9.56182C0.814528 9.57797 0.794493 9.60137 0.788662 9.62965L0.634082 10.3786ZM3.29635 10.5971L3.27541 10.4957L0.609917 10.4957L0.588981 10.5971C0.56198 10.728 0.68873 10.8469 0.855208 10.8469L3.03012 10.8469C3.1966 10.8469 3.32335 10.728 3.29635 10.5971ZM1.91212 8.34943C1.87068 8.34943 1.83309 8.33448 1.80306 8.31047L0.965482 9.53962L2.89279 9.53962L2.04434 8.28825C2.01214 8.32542 1.96516 8.34943 1.91212 8.34943ZM19.8793 9.65051C19.8776 9.60205 19.837 9.56411 19.7885 9.56578C19.7401 9.56745 19.7021 9.60808 19.7038 9.65655C19.7055 9.70501 19.7461 9.74294 19.7946 9.74128C19.843 9.73961 19.881 9.69897 19.8793 9.65051ZM23.9991 6.04586L24 13.6885L18.3017 9.86035L23.9991 6.04586ZM19.808 9.95323C20.032 9.77832 20.4799 9.65699 20.6969 9.60613C20.8789 9.56346 21.0894 9.54091 21.3056 9.54091C21.6704 9.54091 22.0248 9.60232 22.3036 9.71385C22.4656 9.77865 22.574 9.83535 22.6532 9.87676C22.7432 9.92384 22.7846 9.94466 22.8247 9.94466C22.8443 9.94466 22.8675 9.94017 22.8977 9.93053C22.91 9.92659 22.9221 9.92373 22.9343 9.92018C22.7933 9.86387 22.6586 9.7917 22.7357 9.74206C22.8792 9.64966 23.2772 9.73474 23.2772 9.73474C23.2772 9.73474 23.0357 9.43475 22.4577 9.55914C22.2431 9.60532 22.2582 9.47194 21.8138 9.31037C21.6845 9.26337 21.5268 9.23049 21.3748 9.20793C21.3032 9.19731 21.2455 8.94954 21.1716 8.9443C21.0647 8.93673 20.8975 9.18606 20.7905 9.18973C20.589 9.19666 20.3558 9.21991 20.1822 9.26647C19.8699 9.35019 19.3562 9.54636 19.3033 9.72372C19.2759 9.81533 19.5412 9.89933 19.808 9.95323ZM23.1601 10.1591C23.3064 10.0713 23.7089 10.1591 23.7089 10.1591C23.7089 10.1591 23.4601 9.87376 22.9333 10.042C22.7242 10.1088 22.6991 9.99815 22.2601 9.82254C21.8211 9.64694 21.1919 9.61036 20.7236 9.72011C20.4089 9.79388 19.8529 9.96888 19.7944 10.1445C19.7358 10.3201 20.7748 10.503 20.8041 10.4591C20.8334 10.4152 20.8334 10.1884 20.8334 10.1884C20.8334 10.1884 20.8407 10.3933 21.1626 10.6128C21.4845 10.8323 22.1211 10.6786 21.9309 10.6347C21.7406 10.5908 21.5723 10.4079 21.5723 10.4079C21.5723 10.4079 21.7073 10.4623 21.7312 10.4675C22.1601 10.5596 22.8097 10.2458 22.9552 10.3567C23.1089 10.4737 23.6211 10.4006 23.6211 10.4006C23.6211 10.4006 23.0138 10.2469 23.1601 10.1591ZM20.2846 9.99815C20.2361 9.99815 20.1968 10.0375 20.1968 10.0859C20.1968 10.1344 20.2361 10.1737 20.2846 10.1737C20.3331 10.1737 20.3724 10.1344 20.3724 10.0859C20.3724 10.0375 20.3331 9.99815 20.2846 9.99815ZM12.4678 10.9835L12.1166 12.3493L11.5898 12.6029L11.6093 12.0371L11.6483 11.003L11.1605 11.0225L11.0207 10.5679L10.7071 10.8465L10.5362 12.7395L9.56061 12.0761L10.0679 11.7834L10.0228 10.9417L9.61914 11.1396L9.34599 10.1835L9.97673 10.0814L9.95084 9.28598L9.42403 8.60307L9.89231 8.50552L10.4777 7.41288L10.8484 8.32992L11.2191 8.4665L11.1968 8.7338L11.8434 8.70064L11.5313 7.39337L12.6239 7.86164L12.3753 8.68402L13.0727 8.54454L13.4824 7.25678L14.4385 7.9592L13.58 8.58357L14.3799 8.6421L14.6531 9.38353L14.0092 9.36402L13.9312 10.203L14.5751 10.2225L14.8092 10.9835L13.9702 11.042L13.7751 12.4273L13.2678 12.759L12.9361 10.964L12.4694 10.9826L12.4678 10.9835ZM12.6629 9.59816L12.6044 10.0859L12.6614 10.1967L13.2288 10.1835L13.1507 9.42256L12.6416 9.53264L12.6629 9.59816ZM11.7069 9.42256L11.2776 9.44207L11.1458 8.96736L10.7898 9.30549L10.7898 9.92986L11.3362 9.96888L11.2092 10.2545L11.7069 10.242C11.7069 10.242 11.7069 9.42256 11.7069 9.42256Z" fill="#d31f2a"/></svg>
