<svg viewBox="0 0 24 24" xmlns="http://www.w3.org/2000/svg"><path d="m7.409 4.915.447-.594-.096.172a.045.045 0 0 0 .012.058c.018.012.041.006.052-.014l.178-.316.18.32c.01.02.033.026.051.014a.045.045 0 0 0 .012-.058l-.096-.172.437.618c0 .52-.228.664-.475.764h-.216c-.23-.128-.47-.264-.486-.792Zm4.416.644L6.127 9.387V1.745l5.698 3.814Zm-4.908.176c.102.102.33.148.606.148.275 0 .399-.053.391-.093h.177c-.008.04.229.102.438.102.208 0 .464-.068.539-.142.075-.075.176-.533-.088-.796-.002-.005-.888-.783-.888-.783.052.007.104.013.157.014a.22.22 0 0 0 .08-.01c.077-.034.115-.13.085-.217-.03-.085-.117-.128-.194-.095-.064.028-.186.198-.21.232l-.004.005H8l-.003-.005c-.025-.034-.146-.204-.21-.231-.078-.034-.165.009-.195.095l-.001.003c-.029.085.01.18.087.213a.22.22 0 0 0 .08.01c.05-.001.1-.006.15-.013 0 0-.886.78-.888.79-.272.272-.205.67-.102.773Zm2.182.453H6.935v.138s.622.013.937.862h.29c.314-.849.937-.861.937-.861v-.14ZM7.758 3.94a.068.068 0 0 0-.027-.005c-.04-.001-.075.035-.075.08a.09.09 0 0 0 .006.036c.008.02.023.036.042.044a.583.583 0 0 0 .19-.006.69.69 0 0 0-.136-.149Zm.544.156c.038-.016.057-.065.042-.107-.015-.043-.058-.064-.097-.047a.689.689 0 0 0-.136.148.586.586 0 0 0 .19.006ZM4.006 5.493l-.128-.26-.128.26-.287.041.208.202-.05.286.257-.135.256.135-.049-.286.208-.202-.287-.041Zm1.73-3.748.001 7.642L.04 5.56l5.697-3.814Zm-.229 3.463-1.029-.772-.005-.047H4.414l-.032.001c-.055.189-.277.33-.543.33-.258 0-.473-.133-.536-.313l-.079.001-1.092.82.546.604.46-.267-.109 1.477h1.737l-.159-1.434.354.205.546-.605Zm15.386.96s-.035.011-.136-.028c-.073-.028-.093-.062-.094-.076a.058.058 0 0 0-.116-.016c-.002.013-.016.13.168.202a.46.46 0 0 0 .161.036c.046 0 .07-.013.081-.022.026-.02.034-.059.015-.084-.02-.026-.053-.033-.079-.013ZM24 5.558l-5.698 3.828V1.745L24 5.559Zm-4.696-.11s.347.052.637-.207c.29-.259.414-.73.414-.73s-.627.079-.853.291c-.284.266-.198.647-.198.647Zm2.254.931c0-.217-.105-.403-.33-.482-.071-.025-.196 0-.283.002a1.437 1.437 0 0 0-.087-.557 1.797 1.797 0 0 0-.136-.25c-.054-.087-.094-.15-.094-.224v-.058c0-.261.014-.372.015-.373a.059.059 0 0 0-.117-.016c0 .005-.015.119-.015.389 0 .238 0 .327-.268.595a9.227 9.227 0 0 0-.223.232l-.078.084a3.127 3.127 0 0 0-.244.31c-.086-.005-.194-.014-.253.01-.188.076-.25.237-.25.424 0 .26.27.576.563.576.205 0 .418-.165.508-.355a.708.708 0 0 1-.048-.524.44.44 0 0 0-.193-.132c-.046-.016-.116-.009-.18-.003a2.57 2.57 0 0 1 .182-.226l.079-.084c.073-.079.138-.148.22-.23.16-.16.234-.268.27-.378l.027.045c.04.064.085.138.127.235.076.174.08.405.078.506a.655.655 0 0 0-.243.013c-.209.085-.279.264-.279.471 0 .289.28.64.626.64s.626-.351.626-.64Zm-1.837-.112s-.032.01-.119-.024c-.074-.028-.08-.059-.08-.063a.059.059 0 0 0-.117-.015c-.002.012-.015.122.155.188a.42.42 0 0 0 .148.033c.043 0 .066-.013.076-.021.026-.02.035-.06.015-.085-.02-.025-.052-.032-.078-.013Zm-4.414-.699a.049.049 0 0 0-.049.049V6.91c0 .027.022.05.049.05a.049.049 0 0 0 .048-.05V5.618a.049.049 0 0 0-.048-.049Zm2.604-3.824.001 7.642-5.698-3.828 5.697-3.814Zm-.697 3.946a.122.122 0 1 0 .244 0 .122.122 0 0 0-.244 0Zm-.234-.234a.073.073 0 1 0 .146 0 .073.073 0 0 0-.146 0Zm-.122.263a.068.068 0 1 0 .137 0 .068.068 0 0 0-.137 0Zm-.2-.473a.078.078 0 1 0 .156 0 .078.078 0 0 0-.156 0Zm-.142.483a.063.063 0 1 0 .127 0 .063.063 0 0 0-.127 0Zm-.231.701c-.23-.11-.381-.29-.381-.496h.38v-.151c0-.205-.426-.61-.426-.82 0-.146-.018-.543-.03-.77h.081V3.9h-.488v.292h.081c-.011.228-.03.625-.03.771 0 .21-.426.595-.426.82v1.268c0 .065.052.117.117.117h1.005a.117.117 0 0 0 .117-.117v-.62Zm1.312-.41h-1.585c0 .211.33.383.745.396v.637c0 .025-.293.027-.293.027a.056.056 0 0 0 0 .112h.678a.056.056 0 0 0 0-.112s-.293-.002-.293-.027v-.637c.417-.012.748-.185.748-.396Zm-11.47 4.3 5.698 3.814-5.698 3.828V10.32Zm1.15 3.045c0 .047.045.086.1.086h.27c.055 0 .1-.039.1-.086v-.082c0-.048-.045-.086-.1-.086h-.27c-.055 0-.1.038-.1.086v.082Zm-.233 1.782c0 .054.044.099.098.099h2.242a.099.099 0 0 0 .099-.099v-1.52a.1.1 0 0 0-.1-.098h-.298c-.082-.185-.179-.39-.208-.39h-.818c-.03 0-.127.204-.208.39h-.709a.1.1 0 0 0-.098.099v1.519Zm.663-.804a.766.766 0 1 1 1.532 0 .766.766 0 0 1-1.532 0Zm.25 0a.516.516 0 1 0 1.032 0 .516.516 0 0 0-1.032 0Zm.345-.102c.061-.123.104-.232.028-.27-.077-.038-.188.03-.249.153-.06.122-.048.252.029.29.076.038.131-.05.192-.173ZM5.736 10.32l.001 7.643L.04 14.135l5.697-3.815ZM1.43 14.39a33.83 33.83 0 0 0 1.887-.076 1.013 1.013 0 0 0-.042-.08 1.834 1.834 0 0 0-.277-.313l.079-.087c.009.008.212.193.299.34.027.047.048.091.065.13l.177-.013a1.036 1.036 0 0 0-.03-.057c-.079-.132-.276-.311-.277-.313l.078-.087c.009.008.212.193.299.34.022.038.04.073.055.106l.174-.014-.018-.032c-.077-.132-.274-.311-.276-.313l.078-.087c.009.008.212.193.3.34.016.028.03.055.042.08l.172-.014-.003-.006a1.834 1.834 0 0 0-.277-.313l.078-.087c.01.008.213.193.3.34l.029.054.766-.074-.009-.008c.016-.019.075-.13-.016-.495-.009 0-.115-.342-.191-.531a.038.038 0 0 0-.026-.025s-.154-.09-.242.05c-.088.138-.115.35-.293.362-.177.011-.25-.057-.3-.125a.392.392 0 0 1-.084-.175c-.018-.077-.022-.183-.08-.205l-.063-.023c-.071-.026-.146.019-.197.067-.051.047-.135.135-.278.205-.143.069-.272.088-.272.088l-.054.056c-.004 0-.003.005-.003.005v.005l.012.022-.057.043-.047-.02-.004.001-.075.04c-.004.001-.004.01-.004.01l.018.025-.063.036-.05-.024H2.72l-.071.046v.004l.023.034-.065.032-.042-.024s-.004-.004-.004 0l-.076.037-.004.005v.004l.015.034-.058.039-.042-.024h-.008l-.072.037-.004.005v.004l.015.034-.076.042-.034-.024s-.004-.005-.008 0c-.024.015-.043.034-.063.053-.003.005-.003.005 0 .009l.016.023c-.015.023-.09.046-.24.127-.15.08-.39.192-.493.354Zm3.722.155-.018-.295v-.005c-.4.04-1.514.13-2.243.19-.86.07-1.274.047-1.478.048l-.005.204c.001.01.005.013.014.017l.21.03c.22.03.445.04.665.025l2.84-.195c.007 0 .015-.01.015-.019Zm16.674-.684a.143.143 0 0 0-.05-.115c-.103-.09-.328-.096-.462-.087a2.041 2.041 0 0 1-.246.8c.387-.195.758-.439.758-.598Zm-3.522-3.54L24 14.134l-5.698 3.828V10.32Zm1.733 2.244c-.013.132.18.243.164.407-.016.164-.033.267-.033.267s.215-.193.231-.359c.016-.166-.177-.275-.164-.407.013-.133.033-.267.033-.267s-.218.227-.23.359Zm-.856.848c0 .608.224 1.137.555 1.412h1.036a1.15 1.15 0 0 0 .092-.09c.35-.151 1.125-.528 1.125-.874a.308.308 0 0 0-.105-.238c-.148-.13-.414-.137-.56-.13 0-.027.003-.053.003-.08h-1.805c-.005.084-.002.201.027.339.06.28.154.416.155.417a.082.082 0 0 1-.067.13.081.081 0 0 1-.066-.035c-.005-.006-.114-.161-.182-.478a1.446 1.446 0 0 1-.031-.373h-.177Zm-.354 1.493c0 .117.298.218.738.27h1.378c.44-.052.738-.153.738-.27h-2.854Zm-1.962-.904c.013.054.021.11.021.167a.74.74 0 1 1-1.145-.62.737.737 0 0 1 1.124.453Zm-.333-.152a.077.077 0 0 0-.109-.007l-.215.189a.15.15 0 0 0-.062-.014c-.014 0-.026.004-.04.007l-.298-.365a.077.077 0 1 0-.12.098l.312.381c-.002.01-.006.02-.006.03a.151.151 0 1 0 .303 0l-.002-.008.23-.202a.077.077 0 0 0 .007-.109Zm-.79 1.138v.149h.808v-.15a.909.909 0 0 1-.808 0Zm.808-1.637v-.15h-.808v.15a.908.908 0 0 1 .808 0Zm1.363-3.03v7.642l-5.698-3.828 5.697-3.815Zm-.72 3.841c0-.094.035-.17-.153-.175a.913.913 0 0 0-.336-.54v-.364a.036.036 0 0 0-.036-.036h-.185v-.346h-.675v.346h-.185a.036.036 0 0 0-.036.036v.364a.911.911 0 0 0 0 1.444v.364c0 .02.016.036.036.036h.185v.346h.675v-.346h.185c.02 0 .036-.016.036-.036v-.364a.913.913 0 0 0 .338-.553c.186-.006.151-.082.151-.176Zm-4.977.45 5.697 3.815-5.698 3.828.001-7.642Zm.566 3.171h2.671v-.08a.117.117 0 0 0-.117-.117h-.86c-.33 0-.424-.469-1.002-.469-.476 0-.692.373-.692.586v.08Zm-.25 1.226a.059.059 0 0 0 .049.025h.22v.505a.059.059 0 1 0 .117 0v-.505h2.458v.505a.059.059 0 1 0 .117 0v-.505h.154a.059.059 0 0 0 .055-.079l-.238-.636c-.002-.006-.007-.01-.01-.014v-.42H12.78v.41a.057.057 0 0 0-.018.024l-.238.636a.059.059 0 0 0 .007.054Zm2.84-.604h-.22l.068.29h-.444l-.03-.29h-.196l.021.29h-.38l-.013-.29h-.175l-.017.29h-.38l.02-.29h-.175l-.05.29h-.42l.067-.29h-.192l-.19.512h2.896l-.19-.512Zm-3.925 1.449h-.93v-1.332h.93v1.332Zm-.407-.066a.059.059 0 1 0-.117 0 .059.059 0 0 0 .117 0Zm.338-1.19h-.792v1.124h.791v-1.124Zm.447-3.985v7.642l-5.697-3.828 5.697-3.814Zm-1.412 4.465H8.207v-1.683h2.569v1.014h.069v-1.08H8.138v1.815h1.04v.35H8.84v.228h1.302v-.229h-.337v-.349h.607v-.066Zm0-.67h.282v-.92H8.288v1.497H10.412v-.576Zm1.103.048h-1.068v1.464h1.068v-1.464ZM5.698 9.86 0 13.69V6.045L5.699 9.86Zm-5.064.519h2.617l-.154-.75c-.008-.035-.037-.063-.076-.078a.058.058 0 0 0-.009-.044l-.928-1.369a.176.176 0 0 0-.075-.11l-.029-.043a.058.058 0 0 0-.097 0l-.013.019a.175.175 0 0 0-.133.17c0 .008 0 .015.002.023l-.893 1.31a.058.058 0 0 0-.004.055.106.106 0 0 0-.053.068l-.155.749Zm2.662.218-.02-.101H.61l-.021.101c-.027.131.1.25.266.25H3.03c.167 0 .293-.119.266-.25ZM1.912 8.35a.174.174 0 0 1-.109-.039L.965 9.54h1.928l-.849-1.252a.174.174 0 0 1-.132.061ZM19.88 9.651a.088.088 0 1 0-.175.006.088.088 0 0 0 .175-.006ZM24 6.046 24 13.688 18.302 9.86l5.697-3.814Zm-4.191 3.907c.224-.175.672-.296.889-.347.182-.043.392-.065.609-.065.364 0 .719.061.998.173.162.065.27.121.35.163.09.047.13.068.17.068.02 0 .043-.005.074-.014l.036-.01c-.14-.057-.275-.13-.198-.179.143-.092.541-.007.541-.007s-.241-.3-.82-.176c-.214.046-.199-.087-.643-.249a2.343 2.343 0 0 0-.44-.102c-.07-.01-.128-.258-.202-.264-.107-.007-.274.242-.381.246-.202.007-.435.03-.609.076-.312.084-.826.28-.879.458-.027.091.238.175.505.23Zm3.352.206c.146-.088.549 0 .549 0s-.249-.285-.776-.117c-.209.067-.234-.044-.673-.22-.439-.175-1.068-.212-1.536-.102-.315.074-.871.249-.93.425-.058.175.98.358 1.01.314.03-.044.03-.27.03-.27s.007.204.329.424.958.066.768.022c-.19-.044-.359-.227-.359-.227s.135.054.16.06c.428.092 1.078-.222 1.223-.111.154.117.666.044.666.044s-.607-.154-.46-.242ZM20.285 10a.088.088 0 1 0 0 .175.088.088 0 0 0 0-.176Zm-7.817.984-.351 1.366-.527.254.02-.566.038-1.034-.487.02-.14-.455-.314.279-.17 1.893-.976-.664.507-.293-.045-.841-.404.198-.273-.957.63-.102-.025-.795-.527-.683.468-.097.586-1.093.37.917.371.136-.022.268.646-.033-.312-1.308 1.093.469-.249.822.698-.14.41-1.287.955.702-.858.625.8.058.273.742-.644-.02-.078.839.644.02.234.76-.839.059-.195 1.385-.507.332-.332-1.795-.467.019h-.001Zm.195-1.385-.059.488.057.11.568-.012-.078-.761-.51.11.022.065Zm-.956-.175-.43.02-.131-.476-.356.338v.625l.546.039-.127.286.498-.013v-.82Z" fill="#d31f2a"/></svg>