<svg stroke-miterlimit="10" style="fill-rule:nonzero;clip-rule:evenodd;stroke-linecap:round;stroke-linejoin:round" viewBox="0 0 1024 1024" xml:space="preserve" xmlns="http://www.w3.org/2000/svg" xmlns:vectornator="http://vectornator.io"><g vectornator:layerName="Untitled"><path d="M618.671 682.746c-.626.059-1.409.945-1.726 1.272-1.049 1.122-2.499 2.288-3.45 3.198-1.061 1.555-2.749 2.882-3.88 4.042-.548.255-.586 1.29-1.286 1.29-.721 0-2.496 2.025-3.027 2.549-.432.427-1.605 1.137-2.149 1.492-.764 1.321-3.071 1.197-3.896 2.547-3.145 1.088-5.604 2.381-8.393 2.99-1.692.371-3.752 1.132-4.745-.854-1.11-.855-1.234-.676-.216-2.093.737-1.019 2.599-1.924 3.447-2.59 1.41-1.067 2.04-2.637 3.022-3.831.393-.194 1.931-1.816 1.931-2.134 0-.37 3.544-3.626 3.884-3.626 1.254 0 2.417-2.762 3.671-2.762.275 0 1.924-.898 2.149-1.066.694-.922 1.347-.904 1.726-1.914 1.1-.399.938-1.885 1.944-2.343.669-1.699-.281-2.957-.082-5.108.15-1.616 2.109-3.674 3.322-5.115.357-.35 1.001-.273 1.283-.86 1.783-1.601 2.509-2.368 3.016-4.682.61-.26 1.142-1.525 1.514-1.913 1.033-.866 1.958-1.495 2.807-2.452.745-.838 1.62-1.213 2.363-1.808.49-.393 1.083-1.673 1.512-2.132 1.483-.714 2.776-3.571 3.595-5.182.655-1.29 1.795-1.881 2.225-3.544.445-.302 1.941-2.045 1.941-2.559 0-.918 2.231-4.088 3.019-4.474.327-.408.273-.995.865-1.277.408-1.916 2.625-2.49 3.662-3.838 2.472-1.28-.891-3.848 1.73-5.747 1.273-.406 3.129-2.872 4.08-3.837 1.636-2.229 4.637-3.787 6.474-4.682.343-.168.725-.681 1.302-.853.696-.206 1.306.133 2.403.037 3.327-.295 5.126 1.276 6.64 3.584.311.863 1.072 2.229 1.072 2.983 0 .706-.205 2.541-.205 3.301 0 1.206-1.046 3.078-1.508 3.939-1.708 3.201-6.633 5.499-7.548 8.947-1.63 1.372-2.532 4.062-4.089 4.901-.781 1.177-2.643 3.105-3.018 4.68-.298.151-3.459 3.991-3.459 4.266 0 1.174-2.374 2.263-2.374 3.404 0 .866-2.143 1.998-2.143 2.979 0 .617-1.547 2.314-2.155 2.766-1.649 1.86-3.276 3.881-5.289 5.757-2.736 2.548-4.819 5.769-7.547 8.087-.581.495-1.424 1.267-1.826 1.703-.463.939-2.281 1.449-2.588 2.562m50.875-39.402c-1.195-.397-2.244-1.497-3.452-1.497-2.132 0-4.698-1.114-6.895 0-2.247.762-1.982 2.806-2.365 4.482-.121.524-.517 1.406-.241 2.123.414 1.077 2.606 2.261 2.606 3.203 0 .741 1.76 2.751 2.149 3.401.294.486 1.734 2.068 1.734 2.88 0 .574 1.091 1.519 1.287 2.227 1.124.877 1.458 2.261 2.587 2.985 1.45 1.905 2.141 3.915 4.093 5.542.874 1.054 2.088 2.795 2.801 4.044.635 1.112 1.328 2.76 2.149 3.835 1.519 1.175 3.625 2.919 4.743 4.475.412.37 1.458 1.097 2.162 1.271.326.404 2.425 2.338 3.02 2.338.887 0 1.925 1.709 2.804 1.709.627 0 1.052 1.283 1.72 1.283 1.236 0 2.907 2.769 4.092 2.769.741 0 1.228 1.485 1.949 1.485.348 0 1.624.77 2.155.856 1.512.244 3.198.966 4.312 1.062 2.053.617 4.887-.768 6.571-1.062 1.604-.281 2.506-1.101 3.776-1.704 3.262-.653 4.563-4.052 7.748-5.325 1.035-.414 3.336-.876 4.105-2.556.404-.882.771-2.553-.669-3.063-1.453-.514-1.847-1.19-3.641-1.419-.456-.054-1.787-.207-2.595-.207-1.139 0-3.548-1.504-4.948-1.912-3.187-.931-5.531-2.536-9.052-2.986-1.664-.456-4.19-2.55-5.608-2.55-.684 0-2.826-1.48-3.457-1.915-.394-.272-2.369-1.919-3.014-1.919-.419 0-3.476-2.629-3.663-2.979-1.365-1.244-3.327-2.512-4.737-3.628-1.487-1.586-3.182-3.358-4.314-4.682-1.471-1.075-1.747-2.576-3.233-3.836-.787-.925-1.154-1.977-2.375-2.978-1.25-1.373-3.773-3.685-4.304-5.752m-56.051 24.486c-.745 1.183-2.533 2.291-3.444 3.414-1.646.881-2.487 5.107-.283 5.107.951 0 3.727-3.967 3.727-4.468 0-.84 2.767-3.912 0-4.053m44.616 68.371c-.734 2.611 6.085-.299 7.615-.054 1.578.252 4.212-1.116 4.251 1.332.046 3.017-5.799 2.35-7.98 2.554-.672.013-2.521-.047-3.484-.713-2.471-1.71-2.178-3.805-2.992-6.53-.608-2.183-.421-5.119-.421-7.409 0-1.685 5.002-4.092 6.241-4.092 1.197 0 4.309-2.281 5.402-3.194.467-.932 1.237-1.031 1.508-2.123.991-.668.99-1.658 1.295-2.78.7-1.851.496-3.324 0-4.888-.213-.675-.473-2.166-1.295-2.562-.458-.648-1.617-1.266-1.942-1.913-1.984-1.23-4.604-1.075-6.897-1.703-1.596-.437-3.078-1.249-3.38-3.366-.079-.55-.241-3.242.782-3.242.482 0 1.327-.796 1.484-1.41.199-.781 5.929-2.85 6.502-2.85 1.931 0 4.877-4.491 5.595-5.963.909-1.864-.061-7.849-2.144-8.944-1.041-1.958-1.989-2.663-3.343-4.258-1.775-2.085-4.497-.849-6.74-.849-2.111 0-4.68 1.92-7.165 1.92-.695 0-2.182.397-3.016.632-1.145.322-3.471.819-4.958 1.283-1.341.418-4.043 2.338-5.392 2.338-.346 0-1.431.686-1.939.854a15.374 15.374 0 0 1-3.988.851c-1.699.144-3.235 1.062-4.2 1.062-.993 0-2.376 1.825-2.808 2.349-1.516 1.209-1.275 1.697-1.072 3.616.206 1.122.724 2.688 1.508 3.619.882.733 3.876 3.439 3.876 4.477 0 .826 3.084 4.178 3.875 4.683.381.412 2.178 2.77 3.023 2.77.203 0 1.497 1.291 1.619 1.385 1.251.965 1.069 1.504 1.256 3.015.254 2.056-1.39 2.694-3.307 3.265-2.418.61-5.272.449-7.545.854-2.331.238-3.246.958-5.377 1.703-.362.954-.935 1.196-.938 2.414-.003 2.056 1.003 2.806 1.579 4.4 2.718 2.228 3.817 2.358 6.892 2.983 1.354.275 2.9 1.163 4.101 1.703.974.439 1.756.116 2.152 1.485-1.121.896-1.891 2.116-2.801 3.198-2.278 2.04-4.655 2.407-6.467 4.687-.516.437-1.892 1.008-2.144 1.915-1.027.967.944 1.157 1.488.927 2.468-1.042 4.286-2.897 6.66-4.348 1.78-1.087 6.575.595 4.122 2.207-.943.622-1.99.785-3.116.785-.536 0-3.881 1.006-4.2 1.495-1.667.939 1.131.946 1.778.786 1.53-.377 2.811-.739 4.379-.907 1.411-.15 3.41.435.845 1.292-1.221.407-3.022.533-3.999.745-3.33.722-7.012 3.022-10.784 1.713.09-.639.416-1.053.453-1.713-1.207.088-3.219 1.206-3.666 2.131-.806.578-1.756.768-2.593 1.061-1.58.556-2.64 1.399-4.317 2.344-.285 1.39-.644 2.066-.644 3.379 0 1.638 1.669 2.162 2.375 3.431 1.468.89 3.659 1.251 5.389 1.921 1.991.772 3.872 1.839 6.243 2.131 1.395.172 3.346-.047 5.074-.212 1.899-.183 2.726-.784 4.418-1.06.891-.338 2.891-1.704 3.987-1.704 1.089 0 2.164-.825 3.552-.963 1.647-.161 3.438-.184 5.186-.532.768-.152 1.332-1.067 2.399-1.067h6.36c3.5 0 7.582.879 11.494 1.067 3.516.171 7.275 1.704 10.987 1.704 3.579 0 6.345.877 9.93-1.067 1.121-2.994 1.177-5.563.421-8.094-.339-1.13-1.248-1.247-1.926-1.911-.984-1.349-1.931-2.794-3.234-3.626-1.036-1.874-4.657-.772-5.624-2.344-4.078-.676-7.724.653-11.852.653-3.325 0-4.954.603-8.406 1.272M401.829 672.335c.91-.106 1.469-.803 2.402-.873.09.954-1.587 3.316-2.402 3.706-.451.97-.927 2.05-1.255 3.35-.254 1.003-1.03.087-1.089-.522-.097-1.005.194-1.703.259-2.69.065-.974.716-2.041 1.007-2.971.532-1.705.231-3.775.095-5.839-.158-2.416-4.857-1.362-5.954-1.575-.629-1.115-3.523-.642-4.563-.868-1.253-.273-2.206-.454-3.257-1.741-.786-1.179.358-2.72.872-4.153 1.174-.286 2.508-1.461 3.468-1.953.407-.209 1.574-.945 1.949-1.097 1.058-.421 2.788-1.09 4.132-1.09 1.476 0 3.163-.866 4.336-1.096 1.628-.169 2.753-1.081 3.816-1.081 2.394 0 6.786-3.691 7.939-5.89.258-.493 1.077-2.398 1.077-2.827 0-1.522 1.944-3.754 1.944-5.454 0-2.142 2.159-5.525 3.044-7.843.971-2.544 1.551-5.975 3.481-8.067.503-.545 1.988-1.316 2.599-1.316 1.354 0 2.155-.122 3.447-.637.923-.367 1.859-.645 2.863-.661.867.767 1.417 1.726 1.951 2.396 2.445 3.064 6.916 4.55 5.981 10.231-.143.869-1.659 2.855-2.508 3.284-.515.6-2.821 2.973-2.821 3.707 0 1.055-3.198 3.928-.428 4.796 1.632 1.475 6.306-1.632 6.691.495.502 2.773 1.467 5.011 1.771 7.786-.731.587-.618 1.05-1.41 1.74-1.313 1.149-1.888 1.367-3.365 1.744-1.819.466-4.782 1.534-6.841 1.534-.65 0-1.344.442-2.176.534-1.095.121-2.297 1.425-3.146 1.425-1.251 0-3.389 1.218-4.132 2.402-1.393 1.395-4.56 5.143-4.56 6.974 0 .374-1.435 2.609-1.849 2.609-1.143 0 1.457-4.485 2.067-4.789 2.523-3.022-2.93-1.381-3.68-.876-.961.645-1.036.598-1.462 2.098-.347 1.228-.851 2.464-1.376 3.567-1.279.168.382-4.452.845-4.506-1.136.134-3.395.041-4.98.14-.921.058-2.9.224-4.214.224-.444 0-.509 5.013-.568 5.673m-37.135-31.83c1.432-.46 1.745-2.488 3.367-2.724 1.261-.186 2.344-.641 3.582-.546 3.231.369 5.115.038 8.25.218 4.718.269 5.729 5.166 5 9.594-.088 1.405.27 2.876-.86 3.486-.364.572.145.939-.667 1.309-.187.854-3.454 4.144-4.227 4.144-1.081 0-3.796 2.796-4.452 3.706-.767.82-3.205 5.229-4.782 5.229-1.094 0-2.171 2.395-3.257 2.395-.556 0-1.708.744-2.608.874-.554.17-1.41.352-2.173.439-1.908.218-5.487.858-7.609 0-1.084-.355-2.166-1.967-3.36-1.967-1.555 0-1.938-6.05-2.058-6.753-.087-.509-.429-1.254-.447-1.532.111-.884.872-2.311.872-2.833 0-1.475 4.58-2.209 4.58-3.485 0-.534 2.45-2.857 2.809-3.275 1.049-.527 2.06-1.694 2.603-2.608 1.338-1.348 4.838-3.481 5.437-5.671m82.104 45.993c.658-2.061 3.487-3.006 4.576-4.582 1.437-1.219 2.507-2.867 2.821-4.134.68-2.135-1.431-4.881-1.955-6.538-.282-.891-.705-2.19-1.527-3.271-1.249-1.644-2.452-1.211-4.121-1.746-1.222-.392-2.096-1.088-4.105-1.088-1.753 0-2.92 3.92-4.588 3.92-.54 0-.814 1.051-1.3 1.314-1.503 1.907-4.937 2.479-6.961 2.834-1.688.295-4.102.437-5.749.437-.964 0-2.439-.537-4.016-.663-.864-.069-3.085-1.064-3.686.444-1.543.495-1.904 1.112-3.057 1.959-.744.774-1.663 2.065-2.384 3.057-.823.167-2.641.771-3.039 1.513-2.191 1.017-4.412 1.897-6.302 2.839-1.704.577-3.401 1.64-4.782 2.184-.589.233-1.641.872-2.167.872-2.305 0-5.461 4.397-2.826 6.108.724 1.248 1.281 2.592 1.512 4.138.203.68.219 1.785.219 2.501 0 .605.66.436.66.983 0 .657 1.927 1.768 2.391 2.402 2.108.458 3.504 4.415 5.417 4.131-1.566 2.074-3.472 1.533-5.421 1.533-2.959 0-5.728-.427-6.893-3.797-.597-1.727-.925-3.481-.925-5.254 0-.945-.01-2.714-1.58-2.19-.5.163-.321.771-.813.771-.283 0-1.372-1.109-1.674-1.373-1.282-1.118-5 .342-5.368 2.169-.461 2.303-.032 4.436.526 6.63 1.169.557 2.109 4.137 2.397 5.445.566.385 2.603 3.353 2.603 3.919 0 .779 1.307 1.756 1.307 2.613 0 1.923 4.205 4.58 5.531 4.58.796 0 1.776 1.09 2.404 1.09 1.891 0 3.693.118 5.303.213 4.034.239 8.095-2.305 11.084-3.474 3.616-1.184 6.364-2.278 9.339-3.494 2.384-.974 5.049-2.183 8.032-2.183 1.755 0 3.357.055 4.129-1.09.502-1.978 1.532-2.741 1.532-4.516 0-1.588.071-3.156-.218-4.638-.35-2.298 2.981-5.54 4.987-7.301 3.175-2.788 4.894-7.789 8.687-9.267m-41.912-10.247c-.223.905-1.727 1.058-1.445 2.042.398 1.381 2.108-.89 2.417-1.166.831-.74 2.706-2.495 2.061-3.267-1.363.358-1.644 2.246-3.033 2.391m-30.199 21.583c-1.792.569-2.885 2.993-4.241 4.144-1.368 1.162-2.424 2.823-3.912 4.139-.945.835-1.73 1.967-2.058 3.057-1.83.9-2.598 3.861-4.347 4.795-1.597 2.397-4.945 5.459-8.77 5.547-2.128.048-3.301-1.444-5.351-.972-.875.201-2.136.951-2.821 1.09-1.729.204-8.564 1.283-8.694-1.744-.819-.876-.549-5.886.873-5.886 1.263 0 2.621-2.394 3.695-2.394 1.336 0 2.978-3.289 3.467-4.144 1.07-.512.556-1.582 1.748-1.967.605-1.18 2.019-1.663 2.397-3.045.767-.809 2.81-1.458 2.81-3.116 0-1.468 3.073-2.58 3.914-3.867 1.493.905 1.131.606 2.718.121 1.052-.321 3.58.127 4.072-.786.613-1.137-1.21-3.072-1.618-3.845-1.54-2.93-4.15 3.175-4.952 3.426-.807-.31.464-2.371.641-2.62 1.305-1.483 5.217-3.149 5.217-5.008 0-.521 1.172-2.235 1.749-2.843 1.163-.845 1.524-2.548 2.162-3.475 1.108-.72 2.334-2.825 3.257-3.273.939-1.192 6.336.009 7.385 0 3.046-.432 8.256.016 8.256 4.727 0 3.869 1.402 8.771-2.603 11.401-.463.553-2.185 2.101-2.185 3.052 0 1.042-2.466 2.249-2.809 3.486m55.828-21.358c-1.272 1.255-5.436.677-5.436 3.047 0 .299-1.37 1.78-1.719 1.964-.421 1.293-1.321 2.655-2.403 3.49-.487.672-1.225 1.728-1.52 2.616-.305.514-1.345 3.193-1.949 3.491-.651 2.08-2.14 3.492-3.05 5.224-.818 1.557-1.704 3.564-4.242 3.856-1.428.165-2.277.444-2.277-.958 0-.342-.355-.488-.709-.767-1.064-.837-.281-1.903.284-2.778 1.606-.917 2.385-6.119 2.385-8.008 0-1.988 1.116-3.676-.877-3.545-1.122.221-3.204 1.052-3.686 1.954-3.862 2.431-3.239 4.78-2.179 8.286.445 1.47.848 3.094 1.094 4.793.16 1.097.091 3.925 1.95 3.925 2.347 0 7.808 1.065 9.134-1.306 3.988-.699 6.78-2.574 8.243-6.099.539-1.578 2.18-3.428 2.18-4.586 0-1.591 2.603-3.023 2.603-4.356 0-.556 1.601-2.776 2.174-3.047.449-1.393 1.263-2.292 1.409-3.707.232-2.26 1.776-3.514-1.409-3.489m-86.239 32.485c.861.143 1.736.213 2.609.213.842-1.235 1.574-2.515 2.716-3.491.604-.517 1.519-1.643.964-2.617-1.034-.571-4.116-1.639-4.116.655 0 .545-1.393 1.405-1.709 2.005-.561 1.059-.695 1.987-.464 3.235m107.752.426c1.207.316 3.182 2.416 3.905 3.056.686.918 2.344 3.028 3.255 3.481.154 1.404.895 2.681.981 4.049.058.919-.546 1.276-.546 1.948 0 .526-2.236 2.753-2.82 3.16-3.776 4.171-9.427.188-13.689-.323-1.465-.177-3.054-.987-4.349-1.421-.69-.231-1.82-.49-2.602-.876-.818-.404-1.005-1.271-1.949-1.962-.546-1.713-1.109-1.373-2.175-2.173-.541-.405-1.736-1.539-1.736-2.394 0-.736.771-1.527 1.421-1.527 1.303 0 1.669-.595 2.266-1.526 1.481-2.316 3.226-3.918 6.594-3.918 1.516 0 2.81.049 3.823-.444 2.197-1.071 6.28-3.936 7.621.87m-28.47 10.899c.236 1.842-3.509 2.783-1.119 4.822 1.9 1.62 2.983 3.609 3.299 5.863.529 1.398 1.894 2.853 1.949 5.002-.87.586-1.3.901-1.949 1.322-3.375 2.194-8.372 4.331-13.371 2.598-1.668-.581-2.763-1.847-4.224-3.026-.127-.15-.649-.981-.649-1.108 0-1.332-2.858-2.073-3.074-3.666-.202-1.472-1.043-1.856-1.113-3.414-.104-2.325-.592-3.306 1.366-4.688.288-.193.112-.872.915-.872 3.231 0 7.521.191 10.163-.658.81-.26 2.125-1.513 2.814-1.513.277.064.421-.086.431-.449.749-.378 1.739.055 2.506.098.892.048 1.115-.311 2.056-.311m-68.43 32.049c-2.846-.817-.025-5.466-.647-6.978.045-.286.522-.837.647-1.307.089-.334.207-1.423.207-1.744-.009-3.258.442-6.671.442-9.277 0-1.617.381-3.441.672-5.108.027-1.186-.672-2.574-.672-4.376 0-4.319 3.08-.595 5.09-.488 1.354.073 2.918-.37 3.609-1.463 2.082-1.832 2.408-.11 2.533 1.599.216 2.981 1.946 5.379 3.114 7.553.486.904.244 2.894 1.295 3.494.894 1.254 3.46 2.99.448 3.925-.222.45-.217 1.665-.223 1.958-.093 1.533-.225 3.049-.225 4.583 0 1.519-.378 2.987-.642 4.143-.905 3.969-2.457 11.156-9.053 8.425-1.88-.777-5.991-2.602-6.595-4.939m32.374-26.384c-2.756-.818-5.924 3.12-7.385 4.795-.998.679-2.982 2.933-3.257 4.148-1.005.672-2.35 2.735-2.609 3.927-1.881 4.919-.511 9.666 3.245 12.86 1.159 1.88 2.034 3.779 3.921 4.788 2.131.547 5.655.054 5.655-3.045 0-3.021 1.083-6.498 1.083-10.248.075-5.815.48-11.767-.653-17.225m4.558 5.452c-.273 1.62-.119 4.677 1.082 5.464.326 1.326.572 3.158 1.103 4.133.405.261 1.725 1.921 1.725 2.394 0 .55 1.039 1.589 1.31 2.399.533 1.599 1.979 3.109 3.243 4.14.81 1.288 1.265 2.266 2.725 3.38.375.288 2.532 2.728 2.94 2.728.708 0 2.718 2.617 3.691 3.048.958.132 1.631.521 2.162.656 1.807.457 3.382.704 5.647.878 3.089.543 7.017.604 10.002.316 2.457-.239 4.934.277 7.17-.103 1.049-.181 2.879-.699 4.129-.875 1.426-.202 2.299-.798 3.687-1.09 1.764-.372 4.076-.429 5.876-1.084 2.262-.826 6.799-2.631 8.464-5.667 2.243-4.088-1.388-9.167-5.186-9.167-2.771 0-6.926-1.309-8.931-2.397-.682-.369-1.431-.459-2.179-1.082-.79-1.748-3.161-1.84-4.121-3.266-1.714-.441-4.317-4.549-5.784-2.187-1.026 1.652-1.1 2.604-.736 4.505.34 1.775.727.99 1.308 2.03.759.875 5.217 4.275 3.473 5.888-.329.555-2.115 1.089-2.732 1.089-2.608 0-4.72.851-7.262 1.092-2.263.216-5.557.204-7.82-.648-.366-.138-.849-.374-1.082-.444-1.177-.109-2.767-.876-3.484-.876-.314 0-1.311-.996-1.516-1.3-1.749-.571-2.428-1.434-3.697-2.91-1.082-1.259-2.415-2.413-3.583-3.409-.507-.435-2.491-2.426-2.491-2.843 0-.82-3.458-3.912-3.916-4.352-.587-.563-1.402-1.182-2.582-1.379-1.536-.257-1.409.651-2.635.939M563.797 621.453c-.035 1.354 2.67 3.378 3.58 4.212 1.129 1.035.816 1.231 1.261 2.266.906 2.099 2.473 4.319 1.897 6.913-.622 2.813-2.447 4.447-4.759 5.183-1.698.541-3.706 1.333-5.733 1.728-2.315.453-4.95 1.67-6.822 2.595-1.335 2.137-6.129 2.943-7.938 3.451-.866.242-2.207 1.295-2.928 1.295-1.722 0-1.949 1.988-3.552.725-1.516-1.197-5.742 1.102-7.406 1.649-.859.538-3.032 2.223-3.53 3.456 2.365 1.723 6.315-2.228 8.377-3.456 1.163 2.687-7.014 4.896-8.408 4.712-.647-.086-2.804 4.876-3.489 5.652-1.351.909-2.613 2.89-2.639 4.752.753.133 2.183-.347 2.353.458.28 1.323-1.549 2.178-1.02 3.859-.009-.068.432 1.176.433 1.079.703 1.29-.759 1.367-.887 2.595.973.358 1.245.01 2.091-.104 1.011-.138 1.441.596.341.964-.232.22-.785.061-1.047.416-.895 1.205-1.581 1.912-1.661 3.632-.154 3.329-.377 5.79-.377 8.929 0 2.164.89 2.594 3.02 1.665 2.072-.906 3.991-1.697 5.788-3.192.187-.152.672-1.425.883-1.726.466-.417 1.352-.346 1.756-1.084 2.232-.705 3.688-3.436 5.284-5.176-.487-.171-1.262-.253-1.54-.431-.894-.776-.431-1.153-1.548-1.944-.242-.481-1.036-3.43-.32-3.786-.375.187 1.273-3.577 1.423-3.781.532-.233 1.104-1.57 1.332-1.937.325-.522 1.324-2.595 1.975-2.595.327 0 2.285-2.288 2.653-2.593 1.29-1.514 2.294-2.994 3.303-4.316 2.662-3.106 5.548-3.675 9.49-3.675.992 0 2.243.314 3.07.659 1.364.571 4.853 3.121 4.853 5.07 0 1.473-.333 3.284-.883 4.211-.506.851-2.08 2.143-3.03 3.017-.671.619-1.93 1.031-2.252 1.73-3.07 2.057.703 2.629 2.418 2.696 2.176.088 3.977.293 5.726.756 3.732.99 8.091 4.966 6.277 9.615-1.537 3.941-8.056 2.916-11.436 2.916-2.17 0-5.094-1.05-6.955-.436-1.192.394-4.883 2.681-6.352 1.788-.689-.417-4.1 2.099-4.893 2.099-.87 0-2.712.978-3.53 1.52-1.101.728-2.803 2.255-4.18 2.584-.789.516-2.659 2.379-3.638 2.379-2.075 0-4.473 2.077-1.211 2.585 1.421.435 4.504.606 5.288 2.593.108.911-.083 3.245-1.324 3.245-.691 0-1.806 2.157-2.644 2.157-1.185 0-2.705 1.682-2.87 3.018 1.603.582 2.922-.245 3.981-.644 1.798-.651 3.761-1.464 5.059-2.882 1.623-1.772 2.827-1.83 4.556-3.672 1.127-1.202 5.144-3.201 5.144-4.896 0-2.104 4.51-3.287 5.725-3.452 2.532-.344 5.033-.214 7.739-.214 1.171 0 3.285.195 3.285 1.726 0 .478.877 1.25.877 1.832 0 .537.123 2.477.439 3.133.016.546.052 1.509.152 2.38.076.669.159 2.263.075 2.586-.045.137-.666 1.322-.666 1.516 0 .407-2 3.015-2.425 3.015-.519 0-3.526 2.121-3.741 2.593-1.472.893-3.738 2.49-4.846 3.676-.369.397-.533 1.207-1.101 1.513-.629.539-1.897.836-2.425 1.943-1.771 1.422-4.003 2.44-5.738 3.662-.77 1.698-4.055 2.327-5.292 3.243-.359.281-1.926 1.566-1.54 2.163.551.199 2.72.38 3.19-.136.072-.078 3.915.352 4.568.352 1.116 0 3.767.373 4.596.425 4.27.273 7.972-.213 12.138-.213 1.711 0 2.54.434 4.405.434 1.297 0 2.304.282 3.277.869.723.537 3.308 2.277 3.308 3.02 0 .74 2.352 1.599 2.87 2.376 2.666 2.21 4.115 5.238 4.506 8.887.16 1.504-.55 2.685-.986 3.635-.399.876.017.656-1.212 1.728-2.114 1.845-3.559.648-5.679.648-1.509 0-2.623-.364-3.903-.648-1.362-.349-2.711-1.297-4.075-1.297-.504 0-1.213-.282-1.873-.431-1.726-.389-3.964-1.364-5.726-1.941-2.304-.754-4.906-1.958-7.05-2.372-.488-.861-2.624-1.084-3.533-1.084-1.026 0-2.656-1.409-3.745-1.944-.32-.543-3.021-2.168-3.532-2.168-1.425 0-3.181-2.571-5.122-2.989-1.779-.383-3.537-.652-4.13 1.053-.374.644-.724 2.322-.802 3.352-.198 2.682-.308 5.528.136 7.66.197.949.888 3.176 1.991 3.668.547.93 2.421 3.366 2.421 4.324 0 .362.938 1.153 1.114 1.606.536 1.401.212 2.601.212 3.64 0 1.581-1.653 2.439-2.864 3.176-1.282 1.744-5.642 2.475-7.706 1.943-1.711-.539-2.37-1.315-3.701-1.99-.716-.366-1.906-1.457-2.269-2.328-.1-.102-1.566-1.519-1.536-1.519-.498 0-.826-.859-1.324-.859-1.732 0-2.827-3.108-3.959-3.675-1.429-2.639.282-6.57-.314-9.425-.45-2.151.045-4.426.16-6.475.082-1.47.154-2.912.154-4.382 0-1.416 1.323-4.118-1.023-2.733-3.38 1.992-4.183 5.681-4.713 8.557-.257 1.404-.481 4.224-.891 5.821-.197.765-.846 1.842-1.1 2.594-.35 1.041-.396 1.619-.878 2.372-.374.581-1.313 1.849-1.313 2.381 0 1.65-2.666 4.338-4.568 5.517-3.035 1.883-4.634 1.013-6.456-.763-1.112-1.507-2.65-1.777-3.747-2.6-3.222-1.122-.197-7.16.436-8.417.361-.715 1.501-1.954 1.989-2.587.935-1.244 2.231-2.356 3.524-3.461.36-.395.579-1.349.883-1.723.728-.486 2.892-3.461.994-3.461-1.014 0-2.727-.077-4.079 0-.206.443-1.964 1.212-2.202 1.295-3.289.285-7.317.327-9.929-.428-5.441-1.574 1.564-6.696 2.88-9.284.364-.717 1.286-2.287 1.76-3.032.127-.199 1.543-1.828 1.543-2.156 0-.406.877-.896.877-1.291 0-.237 1.286-2.212 1.537-2.589.768-.373 1.927-2.152 2.212-3.022.996-1.497 2.085-3.457 3.633-4.752 2.863-2.401 2.146 2.382 3.366 4.062 1.287 1.773 4.38-2.976 5.288-3.737 1.274-1.07 2.745-1.481 3.789-2.917.866-.273 1.574-.922 2.218-1.624.932-1.017 2.136-1.188 2.867-2.266 1.145-.58 2.177-.581 2.858-1.734-2.149-.442-4.2-2.909-5.948-4.309-1.072-1.476-.436-4.424-.436-6.16 0-.761.872-1.74.872-2.472 0-1.528.885-3.438.885-5.418 0-2.263.654-5.693.813-8.55.196-3.53-3.201 1.089-4.337 1.869-.313 1.222-1.57 2.738-2.209 3.67-1.358 1.006-1.277 2.178-2.646 3.239-.686.911-1.09 1.654-2.2 2.585-.86 1.262-4.213 3.37-5.769 3.478-1.142.081-3.158.095-4.036-.861-.371-.404-2.099-1.891-2.099-2.174 0-.491-.931-1.298-1.099-1.944-.745-.367-.5-1.594-.436-2.38.682-.786.423-2.406.649-3.238.116-.428.518-1.5.78-2.376.834-2.778 4.402-2.444 5.4-4.533.464-.305 1.216-.814 1.545-1.077.89-.614 3.08-3.027 3.742-3.027.708 0 2.973-1.452 3.749-1.944.992-.63 2.194-1.735 3.731-2.59 2.507-1.521 5.887-3.505 8.17-5.406 1.011-1.991 4.305-3.634 5.772-5.765 2.388-3.47-.942-1.355-2.576-1.355-1.478 0-3.898 1.634-5.175 2.155-2.947.428-5.053 2.067-7.502 2.591-2.312.497-4.443 1.862-7.195 1.435-2.084-.322-2.836-1.038-4.479-1.435-1.291-.524-3.847-3.663-5.293-3.663-.686 0-2.301-1.902-2.752-2.377-1.942-2.038-1.286-2.506-1.137-4.754.074-1.12-.113-2.304.805-2.804.146-.251.877-1.28.877-1.512 0-.711 2.877-3.748 3.526-4.107.609-.722 2.448-2.245 3.093-2.377 1.026-.213 3.222.889 3.974-.424 2.301-.299 4.108-.697 5.935-1.079 1.252-.261 2.87-.732 3.747-.865.778-.12 1.662 0 2.449 0 .366 0 1.343-.861 1.743-.861.313 0 .709-.566.885-.647 1.598-.362 3.546-.852 4.846-1.302.545-.187 1.564-.646 2.001-.646 1.287 0 2.094-.132 3.287-.431 1.056-.263 2.071-.711 3.678-.795.946-.049 1.722-.161 2.273-.501 1.11-.172 2.996 0 4.173 0 .56 0 1.66-.759 2.436-.218.73.927-2.063 1.295-2.666 1.295-3.398 0-6.93.209-10.115 1.08-1.956.533-4.232 1.073-5.949 1.724-1.704.646-4.471 1.284-2.594 3.698.64.823 3.676 1.525 4.573 1.702 1.872.291 2.701.252 4.406 0 1.073-1.727 2.41-1.181 4.202-.648.502.568 1.205-.168 1.534-.642 1.46-.377 1.331-.1 2.607.396 2.243.872 4.838.419 6.435-.836.543-1.936 3.365-2.934 5.225-2.673 1.35.187 2.498.217 3.585-.126.622-.198 2.476-1.73 3.085-1.73.489 0 1.023-.946 1.321-1.295.211-.133 1.261-.256 1.473-.359.98-.478 1.904-2.234 2.724-2.234 1.314 0 4.407-2.182 5.058-3.45.828-.654 2.22-1.685 3.375-1.948 2.364-.537 1.903.104 4.121.646m-25.785 5.4c-4.803-.044.697 2.471 0 0m1.535 21.166v.648c.668-.007 2.638-.245 2.352-1.152-.271-.858-1.752.348-2.352.504m-3.516 35.416c-.622 2.042-4.852 1.992-.223 3.227.771.234 2.206-.206 2.979-.206 1.341 0 1.954-1.263 2.44-2.516 1.035-2.653-1.6-4.405-3.44-2.885-.801.662-.618 2.053-1.756 2.38m-13.88 11.436c1.035.368.877.635 2.126.721 1.15.081 1.776.479 2.457-.505.554-.804.973-1.058 1.915-1.184.731-.097 1.195-.546 1.763-.546.677 0 .999-1.072 1.654-1.072.819 0 3.555-1.984 3.965-2.801.686-.418 2.504-.632 2.862-1.956-1.042-.368-2.963 0-3.64 0-.304 0-1.255-.412-1.423-.436-.675-.095-1.29.229-1.833.229-1.174 0-1.782 1.142-2.58 1.726-.357.781-1.763 1.007-2.65 1.295-.394.859-2.772 1.311-3.762 1.848-1.217.659-1.094 1.578-.854 2.681m14.093 12.094c-1.005 1.09-2.366.701-3.465 1.67-1.169 1.031-2.081 2.988-2.478 3.943-1.005 2.426-1.55 4.639-1.55 7.454 0 2.827.751 5.635 2.428 8.096.471.302 3.316.638 3.957.215.984-2.414 1.963-2.971 3.31-4.751-2.948-1.401-5.211-2.623-4.616-5.833.21-1.132.606-1.915.875-2.806.229-.754 1.326-2.491 1.326-3.234 0-1.039 4.026-4.696.213-4.754m-28.653 20.942c.579-1.786 2.99-1.692 4.233-2.364.895-.485 1.718-4.225 1.95-4.968.783-2.5.505-3.564-2.867-3.026-.809.13-2.151.9-3.08.21-.348-.256-.35-1.686-1.035-1.715-.903-.04-.944.26-1.753.533-1.101.371-1.327-.104-2.284-.322-.77-.101-2.17.258-3.267.622-2.196.73-1.081 1.601-.708 2.834.216.716.611 1.163.129 2.524-.679 1.906 1.196 2.35 1.196 3.514 0 .627 3.739 4.353 4.398 4.751.652-1.041 1.756-2.22 3.088-2.593m-.218 4.325c1.035-3.03 5.565-1.104 4.633-5.395-1.999.132-3.828 1.383-5.069 2.591-.428.49-1.543 1.299-1.543 1.825 0 1.413 1.218 1.187 1.979.979m30.414-3.671c-1.254.086-1.833 2.58-.221 2.58.853 0 2.785.256 3.754.436.813.319 2.475 1.344 2.792-.021a1.376 1.376 0 0 0-.59-1.487c-.944-1.158-4.026-1.504-5.735-1.508M327.933 654.355c-.936.17-1.093.401-2.026.401-.214-.033-.326.107-.335.418l-1.282.271c-.879.184-.881-.316-1.727-.484.586-2.194 2.691-2.01 4.522-2.249.69.23.848.885.848 1.643m-4.08 4.694c1.843-.032 3.6-.485 5.393-.801.246-.043 2.345.36 2.345.501 0 .257.839.209 1.065.3.017.008 1.257 1.031 1.187 1.031.165 0 .178.464.103.605-.324.168-.556.271-.847.412-.668.32-1.812.886-2.575.612.204-.617.427-1.228.637-1.842-1.304-.455-5.552-.87-6.326.695-.307.621.06.879.249 1.424.432 1.252.173 1.432-.866 2.173-.265.19-.864.538-.572 1.026 1.082.186 1.408.052 2.35-.4.133.207.399.495.422.805.044.61-.704.931-.846 1.639.808-.086 1.54-.508 2.352-.57.925-.07 1.06.64 1.736 1.183-.128.406-.353.877-.646 1.197-.915.999-1.762.616-1.081-.585-1.198-.745-2.081.076-3.438.12-.9.028-1.781.196-1.904-.844-.064-.553 1.195-1.761.293-2.035-.224-.069-1.514-.58-1.67-.839-.749-1.236 1.4-1.56 2.141-1.94.613-.312.351-1.537-.233-1.714-1.192-.359-2.346.848-3.138 1.121-.645.222-1.13.415-1.938.611-.543.182-1.891 1.058-2.361-.41.353-.2.795-.192 1.378-.313.559-.115 1.301-.7 1.634-.7.438 0 .991-.491 1.287-.619.359-.155.522-.023.866-.207.325-.174.678-.636 1.288-.818.476-1.033-.753-2.455.631-2.85.109.459.769.293.85.981.066.559.208.415.234 1.051m-.43 15.329c-.037 1.339-1.066 2.451-1.428 3.61-.344 1.099-.345 2.126-1.434 2.54-1.125.428-1.731-1.038-1.004-1.038 1.781 0 2.527-5.436 3.866-5.112m3.662 2.05c.017-.781-.008-1.175-.653-1.643-.583.777-1.105.895-1.725 1.643-1.084.264-1.712.765-1.263 1.937.251.659.419 1.694.947 2.197.818.778 2.093.31 2.471 1.377-.278.071-.735 1.088-.866 1.432.634.05.574-.11 1.076-.337.653-.294.8-1.007 1.27-1.351 1.123-.821-1.077-1.581-1.526-1.581-.171 0-2.109-1.289-2.109-1.332 0-.496-1.571-.815-.418-1.53.12-.103.487.054.647 0 .705-.293 1.385-.688 2.149-.812m-5.806-.82c-1.054-.217-1.451-.809-2.585-.411.03.465.136 1.231.716 1.231.906 0 2.058.301 1.869-.82m-2.155 10.418c.48-.105.541.12.866.511.215.454.574.691 1.076.713v.414c.295.536.282.699-.417 1.233-.648.497-1.906 1.358-2.12.072-.221-1.32-.106-1.74.595-2.943m7.525 6.944c1.041-.199 3.203-1.477 3.428-2.449.064-.162-.206-.823-.206-1.125 0-.147.065-.563 0-.714-.528-.321-.391-.521-.647-.818-.549-.363-.616-.331-.859-1.018-.255-.717-.055-.621-.593-.621-.692 0-.602-.007-1.013.507-.205.259-.153.581-.202.883-.205 1.288-.231.121-.331.461-.063.215-.23.932-.23.936 0 .961-.489 1.188-.574 2.183-.078.926-.874 1.123-1.655 1.304-.452.104-.344.049-.344.479 0 .67.385.379.969.443.918.102.744.344.744 1.159 0 .699-.027.461-.429.845-1.078.054-1.355.353-1.243 1.431.128 1.24 1.214 1.213 2.221.951 1.045-.272.481-2.062 1.81-1.385.743.377.966 1.024.725 1.779-.5 1.567-1.435 2.592-2.657 3.613-.631.525-1.303 1.379-1.877 1.379-.941 0-1.94 1.22-2.839 1.22-.408 0-2.09-.029-1.891 1.064.251 1.382 2.747.491 2.747 1.517 0 .859.71 1.59-.342 2.284-1.117.734-2.175 1.069-2.378 2.426-.081.541.134.593.352.887.569 1.378 2.142.399 2.694-.537.472-.795.658-2.23 1.776-1.789.466.182.282 1.168.876 1.245 1.024.135.549-1.682.255-1.99-.515-.846-1.395-.13-1.619-1.426-.127-.735-.318-.998-.318-1.941 0-.258-.861-.679-.861-.918 0-.603 1.094-.721 1.667-1.021.56-.294 1.125-.603 1.613-1.008a2.78 2.78 0 0 0 .578-.632h.436c.262-.805.779-.603 1.066-1.222a3.522 3.522 0 0 0 1.089-1.64c.361-.49.925-.978 1.027-1.957.109-1.061-.859-2.937-2.104-2.937-.613 0-.183-.086-.425-.217-1.015-.291-.579-.776-.436-1.631m.849-4.688c1.262-.251 1.655 1.694.833 2.552-.459.477-.728 1.051-1.429.805-.632-.223.491-2.742.596-3.357m-6.648 7.967c.825-.25.993.792 1.071 1.427-.657.447-1.091 1.187-1.507 1.424-.529.272-1.588.612-2.019.612-.355 0-1.326.227-1.409.213-.269-.486-.688.018-.923-.87-.231-.87.705-2.305 1.21-.968.316.833 1.145.379 1.066-.466-.107-1.125-1.148-1.076-1.148-2.396.248-.21.185-.115.225-.624-.957.201-3.088 1.982-3.211.094-.057-.878 1.619-.938 2.384-1.146.754-.203.716-.503 1.457-.779 0-.482.043-.976.23-1.426.592.309 1.013.574 1.708.613.242-.296 1.041-1.026 1.295-1.026.286 0 .544.481.642.819-.502.407-1.001.819-1.507 1.22-.445.478.53.023-.539.824-.896.67-.54 1.903-.54 2.98 0 .423-.169.848.258.997.895.311 1.108-.786 1.257-1.522m12.249.202c-.911-.042-2.531-.643-2.797-1.432.325-.071.84-.876 1.163-.541.703.729 1.586.65 1.634 1.973m-12.685 15.115c.142-.48.159-.487.652-.601-.145.471-.17.482-.652.601m-1.72 5.105c-.242.078-2.316.542-1.852.912.361.284.976.384 1.176.802.413.865-.808 2.201-.178 2.992.667-.285.744-.959 1.123-1.553.377-.588.654-.418 1.021-.696.122-.094.401-.452.642-.614.295-.336.583-.677.865-1.025.398-.326.205.259.788-.406a8.386 8.386 0 0 1 1.574-1.431c.106-.275.653-1.012.968-1.012.592 0 .047-1.232.7-1.232.551 0 .702.216.945.725.478 1.006-.071 1.557-1.007 1.832-1.145.335-.119 1.85-.028 2.513.141 1.027-.615 1.668-.818 2.487-.04.161-1.186 1.837-1.078 1.837-.439 0 .02 1.174.129 1.37.283.505.822.634 1.362.667.731.045 2.671-1.001 2.907-1.825.457-.491.307-1.213.292-1.813-.026-.905.364-.933.563-1.668 1.033.291.681 1.831.647 2.657.766.754-.418 2.462-1.069 2.462-.264-.066-.408.069-.433.401l-1.071.21c.056-.021-.43.35-.43.3 0 .797-2.487.306-2.844.306-.547 0-1.214-1.36-1.667-1.435.081-.654.436-1.675.436-2.04 0-.491.816-.879.96-1.429.192-.737 1.943-2.277.539-3.109-.996-.59-.998.658-1.717.658-.419 0-.674.522-.932.819-.569.655-.413.09-.793.413-.506 1.336-1.647 1.73-1.72 3.474.798.105.387 4.584-1.772 3.251-.489-.301-1.127-.702-1.01-1.261.121-.581.498-2.073 1.074-2.196-.276-1.306-.436-2.16-.436-3.686-1.215.105-1.253.618-2.457.618-.548 0-.334-.419-.334-.913 0-.064 1.2-1.544 1.287-1.544 1.204 0 .941-4.081 2.105-4.081.625 0 1.197.628 1.671 1.076.255.238.403.541.467.884.126.675-.413.666-.595 1.303m-1.067 7.363c-.27.47-.405.652-.436 1.229.182.136.087.036.225.2.633-.338.919-.959.211-1.429m-4.945 5.106c2.673 0 4.894.198 7.766.198 3.156 0 7.171-.078 10.661-.012 1.659.029 1.499 1.841 1.315 3.086-.238 1.616.486 2.423.335 4.033-.095 1.001-.727 10.886-.632 10.886.427 0 .024 1.299-.335 1.482-.783.398-2.304-.014-3.186.043-.637.039-3.422.58-3.67-.1-.404-.035-.727.224-1.209.138a14.482 14.482 0 0 0-2.333-.217c-1.268-.02-2.501.431-3.767.284.034.004-1.108-.408-1.077-.405-.818.035-1.636.073-2.455.112-1.016.049-1.858.456-2.124-.709-.59-2.594.187-5.239.094-7.857-.026-.731-.305-3.945.192-4.006l-.218-1.025h.218c.067-.401-.218-.709-.218-1.111v-3.68c0-.879.063-.516.643-1.14m1.719 10.63c-.092.854-.279 1.699-.297 2.562-.016.728.297.777.297 1.318 0 .646-.356.165-.249.958.172 1.255 1.334 1.082 2.398 1.295.214-.585 1.335-.018 1.496 0 .826.093 1.688.089 2.523.164 1.418.129 2.869.22 4.293.133.701-.044.645-.346 1.31-.395.678-.049 1.539.041 1.761-.723-.489-.349-1.508-.085-2.301-.253-1.343-.287-1.061-1.377-.777-2.269.202-.634.108-.849-.568-.839-.9.014-.72.662-.996 1.38-.263.683-.775 1.807-1.588 1.573.018-1.044.86-1.773.86-2.741 0-1.222.221-1.73.307-2.867.067-.877.131-1.756.195-2.633.086-1.172-.218-1.896.999-2.187.581-.181 1.462-.225 1.732-1.012-.241 0-1.129.146-1.295 0-.722-.637 1.349-.896 1.295-1.23-.365.062-.792.122-.86-.204-.456-.077-1.544.204-2.113.204-.858 0-1.213.185-1.835.271-1.353.186-2.94-.232-4.528-.362-.47-.037-.941-.074-1.411-.113-.008.302-.116.434-.325.402-.327 0 .099.62-.218.62.132 0-.123 3.679-.122 4.154.002.62-.278 1.538.438 1.683.351.072 1.728.207 1.728-.422 0 .132.966-.665.918-.614.535-.568 1.059-1.527 1.876-1.527.837 0 2.238 1.367 2.359 2.241-.12.113-.102.07-.212.203-.621-.173-1.02-.581-1.542-.948-.779-.549-1.001-.05-1.467.545h-.436l-.419.608c-.356.28-.256-.241-.651.308-.189.261-1.062.465-1.062.609 0 .229-1.253.108-1.513.108m9.245 1.431c1.012-.062 2.026-.208 3.042-.154.384.018.764.074 1.136.172.827.221.466.356.313 1.016-.235 1.008.483 1.427.651 2.439 1.163-.355.772-2.491.832-3.614.085-1.589.168-3.179.249-4.769.036-.681.069-1.363.105-2.044.047-.958.503-1.941-.539-2.243-.571-.334-2.092-.065-3.003 0v.198c1.238-.013 1.725.6.43 1.232.422.509.603.41 1.413.41 1.271 0 .984 3.089.962 3.792-.049 1.594-2.026-.455-2.773.591-.721 1.014.803 1.689 1.034 1.13 1.689.46-.412 1.014-1.144 1.025-1.174.017-2.648-.938-2.708.819m-5.37-8.174c-.873-.261-.853.676-1.15 1.256-.335.655-1.243.774-1.871.987.128 1.173 1.228.913 2.052.358.846-.572.993-1.657.969-2.601m2.138.207c-.072.781.733 1.904 1.724 1.63-.155-1.12-.699-1.456-1.724-1.63m6.235 1.63c-.059.334.073.814.325.814.176 0 .827.108.959 0 .377-1.05-.472-1.014-1.284-.814m-2.148 0a.604.604 0 0 1-.437.406c.119.567 1.077.59 1.508.613.373-.977-.1-.999-1.071-1.019m-.437 1.631c-.27.931.877.736 1.508.825.173-1.013-.663-.825-1.508-.825m3.869.618c.051-.184 0-.427 0-.618a3.59 3.59 0 0 0-1.284.213c.387.493.522.405 1.284.405m-3.226.824c-.318.498-.854-.004-.854.857 0 .384.779.529 1.083.563.372-.689.737-1.167-.229-1.42m-8.586 2.444c-.185.775 0 .69 0 1.672v.932c0 .489.105.033.223.258.323 1.095 1.61 1.395 2.587 1.438.827.035 1.136-.326 1.695-.626.376-.389-.389-.132.436-.712.659-.46.603-1.227.752-1.991.314-1.618-1.657-1.238-2.779-1.293-1.327-.064-1.749.103-2.914.322m1.07.405c-.551 1.221-.17 2.625 1.291 2.658.072.012.874.065 1.296 0 .335-.693.766-1.243.848-2.038-.738-.455-2.351-.484-3.435-.62m8.381 2.864c.641.115.945.16 1.513 0 .239-.616.4-1.158-.236-1.488-.855-.446-1.406.799-1.277 1.488m-3.215 9.404c.806.127 2.144.492 2.144-.665 0-.368.908-.176.635.665-.653.377-1.696 1.188-1.926 1.829-.413.143-1.144.395-1.289.615-1.184-.282-.596-.085-1.071.615-.684.543-1.063 1.022-1.932 1.022-1.148 0-1.62-1.392-1.046-2.318.503-.809.976-.294 1.532-.313.795-.027 1.447-.431 1.613-1.241.077-.37-.675-1.239-.877-1.239-.392 0-2.917.083-1.461.498.574.164 1.417 1.247.496 1.45-.985.218-2.029.166-3.029.137-.501-.015-1.344-.203-1.533-.245-.802-.15-.983-.001-1.29-.81.241-.123.305-.42.569-.42.362 0 1.75-.141 1.793-.405.203-.024.35.044.436.205l1.295-.205v-.205c-1.512-.269-2.994-.481-4.523-.2-.363.764-.667 2.159-.211 2.662.207.229 2.122.869 2.367.2.288.068.577.135.865.197-.087.683-.141 1.366-.229 2.047a2.439 2.439 0 0 1-.476.158c-1.199.227-.046-.15-.372-.158-1.066-.024-1.552-.718-2.58-.817-.783 1.87 1.205 1.704 2.356 2.047.068.012 1.093.405 1.186.405.211 0 .157.619.115.811-.769.615-.479 1.38-1.512 1.539-.365.055-.764.078-1.079-.093-.354-.231-.489-.999-1.066-.824-.29.122-.164 1.145-.099 1.389.235.357.165.541-.212.551-.707.208-.751.235-.817-.561a47.497 47.497 0 0 1-.162-4.009c0-1.548-1.417-6.421.436-6.975.755-.68 1.862 0 2.39 0 .847 0 1.839.199 2.585.199.547 0 4.688-.108 4.688.102 0 .103 1.345.147 1.497.318.497.565-.058 1.262-.206 2.042m6.867-1.431c-.544.098-.868.201-1.636.201-.699 0-.938.601-1.733-.004-.251-.192-.392-.722-.147-.932.428-.368.937-.382 1.652-.442 1.012-.084 2.066.037 1.864 1.177m2.584-.826c-.193.985.364 1.604.115 2.521-.156.581-.871.341-1.399.341.03.846.341 1.1 1.067 1.431.506.983-1.812.622-2.367.826.07.246.392.811.572.811.844 0 2.53.167 2.331 1.126-.226 1.088-2.344.289-.966 1.944-.327.218-.577.241-1.005.121-.695-.195-.991-.411-1.786-.121-.15.639-.428 1.163-.437 1.839.934.151 1.855.015 2.792 0-.133.492-.411.777-.854 1.012 0 .591-.139 1.582.662 1.351.626-.182.816-.304 1.058-.933.176-.135.212-.18.429-.206-.058.334.213.643.212.617.012.196-.179.616-.27.977-.194.767-.94.816-1.438.245-.66.062-.713.313-1.089.608.38 1.358 2.585.801 2.585 2.294 0 .224-.553.668-.652.777-.357.467-.496.765-1.072.914-.817.21-.863 1.209-1.715 1.022-1.005-.222.071-1.585.417-2.146.611-.989-1.622-1.693-1.437-2.656.167-.865.809-1.663.809-2.491 0-.706-1.62-.984-2.144-.986.201-.924.64-1.11.778-2.11.098-.704.494-1.046.494-1.963-1.611.107-1.099 1.677-1.926 2.442-.186.201-.178.418-.427.418-.038 0-.953.132-1.081.201-.477.255-.405.524-.319 1.015l.108.61c.465-.076.68.03.648.315 0 .176 1.253.462 1.495.514.376.186.969.832.753 1.385-.226.577-2.313-.518-2.896-.567-.288 1 .538.691.854 1.416.715.641 1.289.526 1.289 1.514 0 .722-2.35-.878-2.35-.158 0 .608.082.739.418 1.106.135.146.437-.204.437.102 0 .241.886.766 1.071.915.614.797.549 2.09-.865 1.424-.534-1.817.019-.229-.418-.599-.453-.913-.204-.032-.643-.413-.308-.265.514.184-.544-.616-.754-.571-.502-.841-.429-1.735.093-1.143-.127-1.516-.216-2.657-.076-.989.599-3.358-.107-3.883-.105-.077-.885-1.122-.321-1.122.452 0-.002-1.758-.108-2.05-.355-.058-.683-.131-1.041-.078-.77.113-.278.533-.855.773-.731.301-1.123.608-1.871.344-.349-.122-.824.007-.963.196-.072.473-.138.947-.205 1.422-.027.126-.223-.172-.223.129 0 .633-.074.685.54.861.375.107 2.681-.258 2.681.14 0 .301.592.182.759.566.157.361.291.739.349 1.13.083.573-.154 1.681-.376 2.221-.173.42-1.156.726-1.156 1.011 0 .849.542.894 1.29 1.297.197.901.362 1.803.41 2.725.055 1.069-.217 1.352.906 1.378 2.928.067 5.855.136 8.783.192.368-.102.539-.637 1.069-.509-.707-.17.874.241.427.302.95-.281.686-.623.754-1.526.088-1.149.31-1.504.214-2.658-.027-.33.14-3.16 0-3.16-.273 0-.227-7.487-.245-8.073-.024-.722.998-6.097-1.36-5.425m-5.582 2.459c1.072.267.649 1.209-.23 1.43-.342-.783-.216-.708.23-1.43m-.23 1.834c.435 0 1.947.413 1.034.967-1.058.642-1.508-.057-1.034-.967m-2.143 1.84c-.712.212-.699.781-.744 1.454-.025.373-.637.507-.34.992.091.149.451.213.709.213.584 0 .462-2.238.375-2.659m.854.205c-.44.802-.774 1.976.229 2.454.341-.434.971-2.153-.229-2.454m-7.944 3.888c-.792-.29-.789-.103-.849.613.608.17.672-.073.849-.613m-3.004 1.424c.677.043 1.013.244.642.82-.481-.132-.806-.212-.642-.82m-1.29.413c-.131 1.356-1.236.522-.648-.212l.648.212m3.216.812c.021-.481.046-.863.436-1.024.362.421.33.815-.436 1.024m-2.792 1.843c-.722-.114-1.035.84-1.072 1.426.266-.143.509-.313.861-.41.305.543.424 1.011.429 1.642h-.218v.205h.218c-.07.885-.141 1.771-.218 2.654 1.882.554.782-3.372 1.944-3.679.115.634.631 3.177 1.216 1.598.397-1.072-.139-2.066-.139-2.866 0-.191-.459-.368-.568-.726-.256-.834.422-.834.998-.66.233.725.419.421.419 1.018 0 .755 1.076.671 1.719.814-.265 1.102-1.496.422-1.496 1.275 0 .319.39.367.749.367h1.101c.072 0 .194.841.288 1.017.032.139.371.45.225.975-.219.788-.222 1.426-1.032 1.592-1.573.324-2.908.295-4.481.295-.831 0-1.228.455-2.156-.02-.969-.492.099-1.018.164-1.832.103-1.293.103-1.414-1.095-1.414-.013-.772-.133-3.887.687-4.184.712-.261 1.281.197 1.457.913m-1.072 1.631c-.532 1.582.881.116 0 0" fill="#d60010" fill-rule="evenodd"/><path d="M301.099 540.372h357.739" fill="none" stroke="#231916" stroke-linecap="butt" stroke-width="1.777"/><path d="M341.283 505.548s-10.194 11.706-9.86 12.665c0 0-25.08-18.387-37.914-11.177 0 0-24.355 14.774 11.054 32.416l48.8-1.154s5.427-13.789-13.076-16.504l8.143-12.73" fill="#f39800"/><path d="M341.283 505.548s-10.194 11.706-9.86 12.665c0 0-25.08-18.387-37.914-11.177 0 0-24.355 14.774 11.054 32.416l48.8-1.154s5.427-13.789-13.076-16.504l8.143-12.73" fill="none" stroke="#231916" stroke-linecap="butt" stroke-width="1.777"/><path d="M381.405 510.344s.158 9.509-.214 10.195l-10.028 3.524s-7.337 6.284-2.358 14.846c0 0 56.378.073 57.735.073 0 0 13.351-15.347-7.123-21.825l-5.24-14.661" fill="#f39800"/><path d="M381.405 510.344s.158 9.509-.214 10.195l-10.028 3.524s-7.337 6.284-2.358 14.846c0 0 56.378.073 57.735.073 0 0 13.351-15.347-7.123-21.825l-5.24-14.661" fill="none" stroke="#231916" stroke-linecap="butt" stroke-width="1.777"/><path d="M476.281 507.747s1.523 10.539-5.368 11.42c0 0-4.554 3.942-14.934-10.789 0 0-23.564-6.188-25.058 17.145 0 0 12.247 6.668 18.309 13.574h35.711s.579-11.538-5.475-18.062l13.577-8.942" fill="#f39800"/><path d="M476.281 507.747s1.523 10.539-5.368 11.42c0 0-4.554 3.942-14.934-10.789 0 0-23.564-6.188-25.058 17.145 0 0 12.247 6.668 18.309 13.574h35.711s.579-11.538-5.475-18.062l13.577-8.942" fill="none" stroke="#231916" stroke-linecap="butt" stroke-width="1.777"/><path d="M511.533 514.504s9.94.854 10.25 4.262c0 0-26.614-11.019-27.182 19.788l50.497-.045s-3.481-15.686.321-15.915c0 0-17.217 1.7-16.976-10.502" fill="#f39800"/><path d="M511.533 514.504s9.94.854 10.25 4.262c0 0-26.614-11.019-27.182 19.788l50.497-.045s-3.481-15.686.321-15.915c0 0-17.217 1.7-16.976-10.502" fill="none" stroke="#231916" stroke-linecap="butt" stroke-width="1.777"/><path d="M589.559 507.274s-2.047 6.314-6.915 8.938c0 0-22.805-10.974-37.226 6.381 0 0-4.29 8.395.722 16.264 0 0 40.875.453 43.973.171 0 0 5.724-11.751-1.747-17.289 0 0 10.371-2.216 17.021-8.892" fill="#f39800"/><path d="M589.559 507.274s-2.047 6.314-6.915 8.938c0 0-22.805-10.974-37.226 6.381 0 0-4.29 8.395.722 16.264 0 0 40.875.453 43.973.171 0 0 5.724-11.751-1.747-17.289 0 0 10.371-2.216 17.021-8.892" fill="none" stroke="#231916" stroke-linecap="butt" stroke-width="1.777"/><path d="M624.918 515.26s.935 5.465 3.334 5.465c0 0-39.156-1.726-27.486 17.803l55.998.754s10.245-14.773-14.41-18.246c0 0-5.851-.827-4.698-6.177" fill="#f39800"/><path d="M624.918 515.26s.935 5.465 3.334 5.465c0 0-39.156-1.726-27.486 17.803l55.998.754s10.245-14.773-14.41-18.246c0 0-5.851-.827-4.698-6.177" fill="none" stroke="#231916" stroke-linecap="butt" stroke-width="1.777"/><path d="M414.603 338.638s12.037 5.679 14.363-8.3c2.976.052 8.486 10.999.165 15.348 0 0 7.138-6.106 8.206-9.55 1.714-5.587-3.06 15.533-5.438 20.917-1.493 5.422-1.016 16.886.544 18.303 0 0-2.754 54.601-43.459 61.971 0 0 21.221 5.137 30.702 11.732 0 0 21.492-13.947 17.073-1.281-.063.17-.133.427-.227.624 0 0 12.448-6.811 11.966 7.136 0 .163-.016.287-.016.376-1.037 23.312-26.848 43.839-32.73 45.777 0 0-6.187 9.554-26.781 7.799-7.567-.631-12.176 8.237-41.922-.773-13.086 1.442-60.553-49.253 12.72-70.892 0 0-23.974-3.186-30.922-17.899 0 0-41.241-53.248 8.866-85.213 0 0 27.852-19.198 76.89 3.925" fill="#fff100"/><path d="M414.603 338.638s12.037 5.679 14.363-8.3c2.976.052 8.486 10.999.165 15.348 0 0 7.138-6.106 8.206-9.55 1.714-5.587-3.06 15.533-5.438 20.917-1.493 5.422-1.016 16.886.544 18.303 0 0-2.754 54.601-43.459 61.971 0 0 21.221 5.137 30.702 11.732 0 0 21.492-13.947 17.073-1.281-.063.17-.133.427-.227.624 0 0 12.448-6.811 11.966 7.136 0 .163-.016.287-.016.376-1.037 23.312-26.848 43.839-32.73 45.777 0 0-6.187 9.554-26.781 7.799-7.567-.631-12.176 8.237-41.922-.773-13.086 1.442-60.553-49.253 12.72-70.892 0 0-23.974-3.186-30.922-17.899 0 0-41.241-53.248 8.866-85.213 0 0 27.852-19.198 76.89 3.925Z" fill="none" stroke="#231916" stroke-linecap="butt" stroke-width="1.777"/><path d="M331.872 352.213s3.75-4.656 9.432-2.743" fill="none" stroke="#231916" stroke-linecap="butt" stroke-linejoin="miter" stroke-width="1.777"/><path d="M234.601 354.483s41.042 45.156 80.98 11.232c12.224.658 6.844 13.781 8.691 24.558 0 0 27.291 22.183 4.575 29.652-22.717 7.495-115.54-6.665-94.246-65.442" fill="#f39800"/><path d="M234.601 354.483s41.042 45.156 80.98 11.232c12.224.658 6.844 13.781 8.691 24.558 0 0 27.291 22.183 4.575 29.652-22.717 7.495-115.54-6.665-94.246-65.442Z" fill="none" stroke="#231916" stroke-width="1.777"/><path d="m329.814 369.472 1.161 11.536s4.062 7.049 6.603-3.925c1.872-8.083-7.764-7.611-7.764-7.611Z" fill="none" stroke="#231916" stroke-linecap="butt" stroke-width="1.777"/><path d="M497.333 262.341s-24.177-1.303-18.194-27.31c0 0 16.147-17.306 30.363-6.168 0 0 27.86-19.128 45.253 5.929 0 0 8.011 2.367 6.524 17.355 22.111-6.996 30.161 27.709-11.249 25.369 0 0 3.994-5.839 8.802-6.053 0 0-31.03 6.053-18.958 57.576 2.376 18.776-77.354 7.826-71.693-6.055 7.093-17.545 41.331-46.927 24.719-71.05l4.433 10.407Z" fill="#fff"/><path d="M497.333 262.341s-24.177-1.303-18.194-27.31c0 0 16.147-17.306 30.363-6.168 0 0 27.86-19.128 45.253 5.929 0 0 8.011 2.367 6.524 17.355 22.111-6.996 30.161 27.709-11.249 25.369 0 0 3.994-5.839 8.802-6.053 0 0-31.03 6.053-18.958 57.576 2.376 18.776-77.354 7.826-71.693-6.055 7.093-17.545 41.331-46.927 24.719-71.05l4.433 10.407Z" fill="none" stroke="#231916" stroke-linecap="butt" stroke-width="1.777"/><path d="M531.558 332.278s18.008-7.352 19.335-4.611c0 0 .321 7.657-8.555 16.106 0 0 6.845 1.015 10.547-1.164 3.704-2.175-4.476 17.969-4.075 21.167.401 3.167 4.032 28.966-10.594 50.836-5.831 8.679-29.568 33.593-63.227 23.213-29.72-9.149-42.557-30.619-42.545-62.469.006-12.407.068-38.185 34.215-51.518 43.777-17.116 62.487 15.129 64.899 8.44" fill="#fff100"/><path d="M531.558 332.278s18.008-7.352 19.335-4.611c0 0 .321 7.657-8.555 16.106 0 0 6.845 1.015 10.547-1.164 3.704-2.175-4.476 17.969-4.075 21.167.401 3.167 4.032 28.966-10.594 50.836-5.831 8.679-29.568 33.593-63.227 23.213-29.72-9.149-42.557-30.619-42.545-62.469.006-12.407.068-38.185 34.215-51.518 43.777-17.116 62.487 15.129 64.899 8.44Z" fill="none" stroke="#231916" stroke-linecap="butt" stroke-width="1.777"/><path d="M443.853 414.185s37.652 18.799 58.662-1.613c0 0 17.971-5.056 5.464-22.03-31.962-5.582-25.554-5.465-42.94-29.703 0 0-13.904 7.878-17.181 11.848-3.283 4.023-43.14 3.427-47.222.942-9.273-5.598-4.276-7.281-13.034-13.334-9.718-6.756-15.833 13.671-10.457 20.625 4.781 6.097 23.271 35.418 71.706 33.238 11.577-.518 24.84-2.858 40.044-7.71l3.852 1.895" fill="#f39800"/><path d="M443.853 414.185s37.652 18.799 58.662-1.613c0 0 17.971-5.056 5.464-22.03-31.962-5.582-25.554-5.465-42.94-29.703 0 0-13.904 7.878-17.181 11.848-3.283 4.023-43.14 3.427-47.222.942-9.273-5.598-4.276-7.281-13.034-13.334-9.718-6.756-15.833 13.671-10.457 20.625 4.781 6.097 23.271 35.418 71.706 33.238 11.577-.518 24.84-2.858 40.044-7.71l3.852 1.895M477.333 341.194s5.552-3.071 11.936-1.613M449.915 337.506s6.835 1.044 7.224 4.203" fill="none" stroke="#231916" stroke-linecap="butt" stroke-width="1.777"/><path d="M456.453 365.83s-.335-6.29-4.402-9.292c0 0-8.269 1.868-.943 13.289M477.25 364.407c.599-2.402 2.317-4.672 5.913-5.955 0 0 5.722 13.006-2.334 14.189-1.798 1.014-4.669-3.781-3.579-8.234Z" fill="none" stroke="#231916" stroke-linecap="butt" stroke-width="1.777"/><path d="M477.804 363.99s3.586 3.926 3.951 7.983c0 0-5.749 1.513-3.951-7.983" fill="#231916"/><path d="M477.804 363.99s3.586 3.926 3.951 7.983c0 0-5.749 1.513-3.951-7.983Z" fill="none" stroke="#231916" stroke-linecap="butt" stroke-width="1.777"/><path d="M448.98 361.664s3.712-.346 4.954 4.684l-2.741 2.839-2.213-7.523Z" fill="#231916"/><path d="M448.98 361.664s3.712-.346 4.954 4.684l-2.741 2.839-2.213-7.523Z" fill="none" stroke="#231916" stroke-linecap="butt" stroke-width="1.777"/><path d="m474.989 437.826-.854 2.768s-20.673 3.686-25.331 13.103c-4.648 9.409-9.14 28.298 4.693 42.086 0 0 103.788 70.056 121.766-60.387 0 0-10.282-1.542-10.812 8.937 0 0 3.881-5.351-.83-10.505 0 0-9.006 3.223-13.572 8.537 0 0-62.64-.357-75.06-4.539" fill="#fff100"/><path d="m474.989 437.826-.854 2.768s-20.673 3.686-25.331 13.103c-4.648 9.409-9.14 28.298 4.693 42.086 0 0 103.788 70.056 121.766-60.387 0 0-10.282-1.542-10.812 8.937 0 0 3.881-5.351-.83-10.505 0 0-9.006 3.223-13.572 8.537 0 0-62.64-.357-75.06-4.539Z" fill="none" stroke="#231916" stroke-linecap="butt" stroke-width="1.777"/><path d="M549.566 413.925s-74.708 25.345-55.651 70.454c0 0 12.757 15.803 34.385-1.388 0 0 29.152-32.676 21.266-69.066" fill="#fff100"/><path d="M549.566 413.925s-74.708 25.345-55.651 70.454c0 0 12.757 15.803 34.385-1.388 0 0 29.152-32.676 21.266-69.066Z" fill="none" stroke="#231916" stroke-linecap="butt" stroke-width="1.777"/><path d="M441.493 476.297s2.131 14.236-.421 22.316c0 0 4.365 5.182 12.742-1.787 0 0-5.296-10.263-12.321-20.529" fill="#fff100"/><path d="M441.493 476.297s2.131 14.236-.421 22.316c0 0 4.365 5.182 12.742-1.787 0 0-5.296-10.263-12.321-20.529Z" fill="none" stroke="#231916" stroke-linecap="butt" stroke-width="1.777"/><path d="M564.269 345.991s-5.875-3.714-11.385-3.383c-5.482.356-6.424 54.388-1.671 63.209 2.207 4.086 9.961 29.552 57.588 30.896 0 0-74.751 28.38-19.242 70.561 7.701 5.572 51.911 17.236 85.332-4.706 0 0 17.13-10.095 22.385-44.759l3.658-.854s-9.852-11.021-28.861.801c0 0-28.384-25.342-43.536-22.912 0 0 44.456-.518 37.842-61.659 0 0 .972-27.071-17.491-43.194 0 0-79.587-5.583-83.87 2.028l-8.705-.658s-.669 10.848 7.983 13.685" fill="#fff100"/><path d="M564.269 345.991s-5.875-3.714-11.385-3.383c-5.482.356-6.424 54.388-1.671 63.209 2.207 4.086 9.961 29.552 57.588 30.896 0 0-74.751 28.38-19.242 70.561 7.701 5.572 51.911 17.236 85.332-4.706 0 0 17.13-10.095 22.385-44.759l3.658-.854s-9.852-11.021-28.861.801c0 0-28.384-25.342-43.536-22.912 0 0 44.456-.518 37.842-61.659 0 0 .972-27.071-17.491-43.194 0 0-79.587-5.583-83.87 2.028l-8.705-.658s-.669 10.848 7.983 13.685" fill="none" stroke="#231916" stroke-linecap="butt" stroke-width="1.777"/><path d="M688.818 462.25s2.592-8.082 9.107-7.939" fill="none" stroke="#231916" stroke-linecap="butt" stroke-width="1.777"/><path d="M565.018 332.018s-8.758-15.558 7.504-22.368c0 0 26.776 2.51 45.71-17.116 0 0 19.076-10.477 20.829 6.855 0 0 12.336 1.582 10.565 21.184 0 0 25.868-4.255 27.907-2.173 0 0 14.17 11.795 4.112 17.682 0 0-25.724-1.841-26.146.881l-5.721-5.886s-23.713 18.553-46.029-.528c0 0-28.281 18.022-38.731 1.469" fill="#00a1e9"/><path d="M565.018 332.018s-8.758-15.558 7.504-22.368c0 0 26.776 2.51 45.71-17.116 0 0 19.076-10.477 20.829 6.855 0 0 12.336 1.582 10.565 21.184 0 0 25.868-4.255 27.907-2.173 0 0 14.17 11.795 4.112 17.682 0 0-25.724-1.841-26.146.881l-5.721-5.886s-23.713 18.553-46.029-.528c0 0-28.281 18.022-38.731 1.469Z" fill="none" stroke="#231916" stroke-linecap="butt" stroke-width="1.777"/><path d="M641.082 300.757s-26.118.196-28.618 6.249M650.801 331.449s18.774-11.161 24.836-5.296M603.749 330.55s9.764-7.237 18.674-6.407M647.062 353.395l8.102 8.269M642.229 365.974s14.235-1.985 12.638 10.61c0 0-10.768 11.99-12.638-10.61Z" fill="none" stroke="#231916" stroke-linecap="butt" stroke-width="1.777"/><path d="M642.229 365.974s10.851 7.852 10.807 10.993" fill="none" stroke="#231916" stroke-linecap="butt" stroke-width="1.777"/><path d="M653.506 376.113c5.095 19.983-23.275 41.594-14.178 45.379 10.965 1.985 14.144 3.4 18.808-1.469 0 0 18.051-10.547 43.199 17.971l1.79 1.373s18.953-8.655-12.189-32.722c0 0-12.405 1.557-23.265-4.949 0 0 28.607 12.702 55.445-.347 0 0 27.666-9.393 21.16-29.42 0 0-1.638-9.524-10.015-2.458 0 0-5.004 21.614-42.442 15.036 0 0-19.62-4.442-28.616-12.738 0 0-3.659-1.444-9.697 4.344" fill="#f39800"/><path d="M653.506 376.113c5.095 19.983-23.275 41.594-14.178 45.379 10.965 1.985 14.144 3.4 18.808-1.469 0 0 18.051-10.547 43.199 17.971l1.79 1.373s18.953-8.655-12.189-32.722c0 0-12.405 1.557-23.265-4.949 0 0 28.607 12.702 55.445-.347 0 0 27.666-9.393 21.16-29.42 0 0-1.638-9.524-10.015-2.458 0 0-5.004 21.614-42.442 15.036 0 0-19.62-4.442-28.616-12.738 0 0-3.659-1.444-9.697 4.344Z" fill="none" stroke="#231916" stroke-linecap="butt" stroke-width="1.777"/><path d="M339.119 332.731s-2.187-10.876 14.955-15.514c0 0 4.246-11.581 19.429-9.597 8.022.66 18.967-14.713 22.278-19.912 0 0 7.828-20.189 18.914-13.852 11.116 6.287 24.058 35.651 23.986 39.96-.09 4.255-3.686 18.202 8.28 21.368 4.575 1.229 2.99-.614 2.99-.614s2.298-23.194-20.701-18.893c-18.678 5.725-8.006 22.632-21.94 32.796-19.204 8.849-23.863-21.919-67.977-14.134l-.214-1.608Z" fill="#e60013"/><path d="M339.119 332.731s-2.187-10.876 14.955-15.514c0 0 4.246-11.581 19.429-9.597 8.022.66 18.967-14.713 22.278-19.912 0 0 7.828-20.189 18.914-13.852 11.116 6.287 24.058 35.651 23.986 39.96-.09 4.255-3.686 18.202 8.28 21.368 4.575 1.229 2.99-.614 2.99-.614s2.298-23.194-20.701-18.893c-18.678 5.725-8.006 22.632-21.94 32.796-19.204 8.849-23.863-21.919-67.977-14.134l-.214-1.608Z" fill="none" stroke="#231916" stroke-linecap="butt" stroke-width="1.777"/><path d="m317.07 371.644-4.254 6.667" fill="#fff100"/><path d="m317.07 371.644-4.254 6.667" fill="none" stroke="#231916" stroke-linecap="butt" stroke-width="1.777"/><path d="m462.029 374.34-2.856 5.37" fill="#fff100"/><path d="m462.029 374.34-2.856 5.37" fill="none" stroke="#231916" stroke-linecap="butt" stroke-width="1.777"/><path d="m661.873 380.751 5.447 2.837" fill="#fff100"/><path d="m661.873 380.751 5.447 2.837" fill="none" stroke="#231916" stroke-linecap="butt" stroke-width="1.777"/><path d="M216.521 600.875h-20.937v-11.964h9.721v7.477h-4.507v-2.99h1.515v-1.497h-3.737v5.983h14.953v-5.983h-3.513v1.497h1.421v2.99h-4.413v-7.477h9.497v11.964ZM240.523 600.875h-9.722v-7.477h4.508v2.99h-1.517v1.496h3.739v-5.983h-14.955v5.983h3.515v-1.496h-1.421v-2.99h4.413v7.477h-9.498v-11.964h20.938v11.964ZM263.59 600.875h-20.938v-11.964h9.721v7.477h-4.507v-2.99h1.516v-1.497h-3.738v5.983h14.955v-5.983h-3.514v1.497h1.42v2.99h-4.411v-7.477h9.496v11.964ZM287.591 600.875h-9.721v-7.477h4.509v2.99h-1.517v1.496h3.738v-5.983h-14.954v5.983h3.513v-1.496h-1.419v-2.99h4.411v7.477h-9.496v-11.964h20.936v11.964ZM310.659 600.875h-20.937v-11.964h9.721v7.477h-4.509v-2.99h1.517v-1.497h-3.737v5.983h14.953v-5.983h-3.513v1.497h1.421v2.99h-4.413v-7.477h9.497v11.964ZM334.66 600.875h-9.721v-7.477h4.509v2.99h-1.517v1.496h3.738v-5.983h-14.954v5.983h3.513v-1.496h-1.419v-2.99h4.411v7.477h-9.497v-11.964h20.937v11.964ZM357.728 600.875h-20.937v-11.964h9.721v7.477h-4.507v-2.99h1.515v-1.497h-3.738v5.983h14.954v-5.983h-3.513v1.497h1.42v2.99h-4.412v-7.477h9.497v11.964ZM381.73 600.875h-9.722v-7.477h4.508v2.99h-1.517v1.496h3.739v-5.983h-14.955v5.983h3.515v-1.496h-1.421v-2.99h4.412v7.477h-9.497v-11.964h20.938v11.964ZM404.797 600.875H383.86v-11.964h9.721v7.477h-4.509v-2.99h1.517v-1.497h-3.738v5.983h14.954v-5.983h-3.513v1.497h1.42v2.99H395.3v-7.477h9.497v11.964ZM428.799 600.875h-9.722v-7.477h4.508v2.99h-1.517v1.496h3.739v-5.983h-14.953v5.983h3.513v-1.496h-1.421v-2.99h4.412v7.477h-9.496v-11.964h20.937v11.964ZM451.866 600.875H430.93v-11.964h9.719v7.477h-4.507v-2.99h1.516v-1.497h-3.737v5.983h14.954v-5.983h-3.514v1.497h1.421v2.99h-4.412v-7.477h9.496v11.964ZM475.866 600.875h-9.72v-7.477h4.508v2.99h-1.517v1.496h3.738v-5.983h-14.952v5.983h3.513v-1.496h-1.421v-2.99h4.413v7.477h-9.497v-11.964h20.935v11.964ZM498.934 600.875h-20.935v-11.964h9.72v7.477h-4.509v-2.99h1.518v-1.497h-3.739v5.983h14.955v-5.983h-3.514v1.497h1.419v2.99h-4.41v-7.477h9.495v11.964ZM522.935 600.875h-9.718v-7.477h4.506v2.99h-1.516v1.496h3.738v-5.983H504.99v5.983h3.515v-1.496h-1.421v-2.99h4.411v7.477H502v-11.964h20.935v11.964ZM546.002 600.875h-20.935v-11.964h9.719v7.477h-4.506v-2.99h1.516v-1.497h-3.739v5.983h14.955v-5.983h-3.513v1.497h1.42v2.99h-4.411v-7.477h9.494v11.964ZM570.004 600.875h-9.72v-7.477h4.511v2.99h-1.521v1.496h3.74v-5.983h-14.955v5.983h3.515v-1.496h-1.421v-2.99h4.411v7.477h-9.495v-11.964h20.935v11.964ZM593.072 600.875h-20.936v-11.964h9.721v7.477h-4.509v-2.99h1.518v-1.497h-3.74v5.983h14.956v-5.983h-3.515v1.497h1.42v2.99h-4.41v-7.477h9.495v11.964ZM617.073 600.875h-9.718v-7.477h4.506v2.99h-1.516v1.496h3.738v-5.983h-14.955v5.983h3.515v-1.496h-1.421v-2.99h4.411v7.477h-9.495v-11.964h20.935v11.964ZM640.14 600.875h-20.933v-11.964h9.717v7.477h-4.507v-2.99h1.517v-1.497h-3.737v5.983h14.953v-5.983h-3.514v1.497h1.42v2.99h-4.41v-7.477h9.494v11.964ZM664.142 600.875h-9.719v-7.477h4.507v2.99h-1.517v1.496h3.739v-5.983h-14.955v5.983h3.515v-1.496h-1.42v-2.99h4.41v7.477h-9.495v-11.964h20.935v11.964ZM687.21 600.875h-20.935v-11.964h9.718v7.477h-4.507v-2.99h1.517v-1.497h-3.738v5.983h14.955v-5.983h-3.515v1.497h1.419v2.99h-4.409v-7.477h9.495v11.964ZM711.211 600.875h-9.719v-7.477h4.507v2.99h-1.517v1.496h3.739v-5.983h-14.955v5.983h3.515v-1.496h-1.421v-2.99h4.411v7.477h-9.495v-11.964h20.935v11.964ZM734.278 600.875h-20.935v-11.964h9.719v7.477h-4.507v-2.99h1.517v-1.497h-3.739v5.983h14.955v-5.983h-3.515v1.497h1.422v2.99h-4.412v-7.477h9.495v11.964ZM758.28 600.875h-9.721v-7.477h4.51v2.99h-1.519v1.496h3.74v-5.983h-14.956v5.983h3.514v-1.496h-1.419v-2.99h4.41v7.477h-9.495v-11.964h20.936v11.964ZM781.347 600.875h-20.935v-11.964h9.72v7.477h-4.507v-2.99h1.517v-1.497h-3.74v5.983h14.955v-5.983h-3.515v1.497h1.421v2.99h-4.411v-7.477h9.495v11.964ZM805.349 600.875h-9.719v-7.477h4.507v2.99h-1.517v1.496h3.739v-5.983h-14.955v5.983h3.515v-1.496h-1.421v-2.99h4.411v7.477h-9.495v-11.964h20.935v11.964ZM828.416 600.875h-20.937v-11.964h9.721v7.477h-4.507v-2.99h1.517v-1.497h-3.74v5.983h14.956v-5.983h-3.514v1.497h1.42v2.99h-4.41v-7.477h9.494v11.964ZM216.521 802.121h-20.937v-11.964h9.721v7.477h-4.507v-2.99h1.515v-1.496h-3.737v5.983h14.953v-5.983h-3.513v1.496h1.421v2.99h-4.413v-7.477h9.497v11.964ZM240.523 802.121h-9.722v-7.477h4.508v2.99h-1.517v1.497h3.739v-5.983h-14.955v5.983h3.515v-1.497h-1.421v-2.99h4.413v7.477h-9.498v-11.964h20.938v11.964ZM263.59 802.121h-20.938v-11.964h9.721v7.477h-4.507v-2.99h1.516v-1.496h-3.738v5.983h14.955v-5.983h-3.514v1.496h1.42v2.99h-4.411v-7.477h9.496v11.964ZM287.591 802.121h-9.721v-7.477h4.509v2.99h-1.517v1.497h3.738v-5.983h-14.954v5.983h3.513v-1.497h-1.419v-2.99h4.411v7.477h-9.496v-11.964h20.936v11.964ZM310.659 802.121h-20.937v-11.964h9.721v7.477h-4.509v-2.99h1.517v-1.496h-3.737v5.983h14.953v-5.983h-3.513v1.496h1.421v2.99h-4.413v-7.477h9.497v11.964ZM334.66 802.121h-9.721v-7.477h4.509v2.99h-1.517v1.497h3.738v-5.983h-14.954v5.983h3.513v-1.497h-1.419v-2.99h4.411v7.477h-9.497v-11.964h20.937v11.964ZM357.728 802.121h-20.937v-11.964h9.721v7.477h-4.507v-2.99h1.515v-1.496h-3.738v5.983h14.954v-5.983h-3.513v1.496h1.42v2.99h-4.412v-7.477h9.497v11.964ZM381.73 802.121h-9.722v-7.477h4.508v2.99h-1.517v1.497h3.739v-5.983h-14.955v5.983h3.515v-1.497h-1.421v-2.99h4.412v7.477h-9.497v-11.964h20.938v11.964ZM404.797 802.121H383.86v-11.964h9.721v7.477h-4.509v-2.99h1.517v-1.496h-3.738v5.983h14.954v-5.983h-3.513v1.496h1.42v2.99H395.3v-7.477h9.497v11.964ZM428.799 802.121h-9.722v-7.477h4.508v2.99h-1.517v1.497h3.739v-5.983h-14.953v5.983h3.513v-1.497h-1.421v-2.99h4.412v7.477h-9.496v-11.964h20.937v11.964ZM451.866 802.121H430.93v-11.964h9.719v7.477h-4.507v-2.99h1.516v-1.496h-3.737v5.983h14.954v-5.983h-3.514v1.496h1.421v2.99h-4.412v-7.477h9.496v11.964ZM475.866 802.121h-9.72v-7.477h4.508v2.99h-1.517v1.497h3.738v-5.983h-14.952v5.983h3.513v-1.497h-1.421v-2.99h4.413v7.477h-9.497v-11.964h20.935v11.964ZM498.934 802.121h-20.935v-11.964h9.72v7.477h-4.509v-2.99h1.518v-1.496h-3.739v5.983h14.955v-5.983h-3.514v1.496h1.419v2.99h-4.41v-7.477h9.495v11.964ZM522.935 802.121h-9.718v-7.477h4.506v2.99h-1.516v1.497h3.738v-5.983H504.99v5.983h3.515v-1.497h-1.421v-2.99h4.411v7.477H502v-11.964h20.935v11.964ZM546.002 802.121h-20.935v-11.964h9.719v7.477h-4.506v-2.99h1.516v-1.496h-3.739v5.983h14.955v-5.983h-3.513v1.496h1.42v2.99h-4.411v-7.477h9.494v11.964ZM570.004 802.121h-9.72v-7.477h4.511v2.99h-1.521v1.497h3.74v-5.983h-14.955v5.983h3.515v-1.497h-1.421v-2.99h4.411v7.477h-9.495v-11.964h20.935v11.964ZM593.072 802.121h-20.936v-11.964h9.721v7.477h-4.509v-2.99h1.518v-1.496h-3.74v5.983h14.956v-5.983h-3.515v1.496h1.42v2.99h-4.41v-7.477h9.495v11.964ZM617.073 802.121h-9.718v-7.477h4.506v2.99h-1.516v1.497h3.738v-5.983h-14.955v5.983h3.515v-1.497h-1.421v-2.99h4.411v7.477h-9.495v-11.964h20.935v11.964ZM640.14 802.121h-20.933v-11.964h9.717v7.477h-4.507v-2.99h1.517v-1.496h-3.737v5.983h14.953v-5.983h-3.514v1.496h1.42v2.99h-4.41v-7.477h9.494v11.964ZM664.142 802.121h-9.719v-7.477h4.507v2.99h-1.517v1.497h3.739v-5.983h-14.955v5.983h3.515v-1.497h-1.42v-2.99h4.41v7.477h-9.495v-11.964h20.935v11.964ZM687.21 802.121h-20.935v-11.964h9.718v7.477h-4.507v-2.99h1.517v-1.496h-3.738v5.983h14.955v-5.983h-3.515v1.496h1.419v2.99h-4.409v-7.477h9.495v11.964ZM711.211 802.121h-9.719v-7.477h4.507v2.99h-1.517v1.497h3.739v-5.983h-14.955v5.983h3.515v-1.497h-1.421v-2.99h4.411v7.477h-9.495v-11.964h20.935v11.964ZM734.278 802.121h-20.935v-11.964h9.719v7.477h-4.507v-2.99h1.517v-1.496h-3.739v5.983h14.955v-5.983h-3.515v1.496h1.422v2.99h-4.412v-7.477h9.495v11.964ZM758.28 802.121h-9.721v-7.477h4.51v2.99h-1.519v1.497h3.74v-5.983h-14.956v5.983h3.514v-1.497h-1.419v-2.99h4.41v7.477h-9.495v-11.964h20.936v11.964ZM781.347 802.121h-20.935v-11.964h9.72v7.477h-4.507v-2.99h1.517v-1.496h-3.74v5.983h14.955v-5.983h-3.515v1.496h1.421v2.99h-4.411v-7.477h9.495v11.964ZM805.349 802.121h-9.719v-7.477h4.507v2.99h-1.517v1.497h3.739v-5.983h-14.955v5.983h3.515v-1.497h-1.421v-2.99h4.411v7.477h-9.495v-11.964h20.935v11.964ZM828.416 802.121h-20.937v-11.964h9.721v7.477h-4.507v-2.99h1.517v-1.496h-3.74v5.983h14.956v-5.983h-3.514v1.496h1.42v2.99h-4.41v-7.477h9.494v11.964ZM828.416 623.151h-11.963v-20.935h11.963v9.719h-7.474v-4.505h2.99v1.515h1.494v-3.739h-5.983v14.955h5.983v-3.513h-1.494v1.42h-2.99v-4.411h7.474v9.494ZM828.416 647.153h-11.963v-9.719h7.479v4.507h-2.99v-1.517h-1.499v3.739h5.983v-14.956h-5.983v3.516h1.499v-1.421h2.99v4.411h-7.479v-9.496h11.963v20.936ZM828.416 670.372h-11.963v-20.934h11.963v9.718h-7.474v-4.506h2.99v1.516h1.494v-3.738h-5.983v14.954h5.983v-3.514h-1.494v1.422h-2.99v-4.412h7.474v9.494ZM828.416 694.375h-11.963v-9.721h7.479v4.508h-2.99v-1.517h-1.499v3.74h5.983v-14.956h-5.983v3.514h1.499v-1.42h2.99v4.411h-7.479v-9.495h11.963v20.936ZM828.416 717.592h-11.963v-20.935h11.963v9.721h-7.474v-4.508h2.99v1.517h1.494v-3.74h-5.983v14.955h5.983v-3.513h-1.494v1.42h-2.99v-4.411h7.474v9.494ZM828.416 741.594h-11.963v-9.719h7.479v4.507h-2.99v-1.517h-1.499v3.739h5.983v-14.955h-5.983v3.515h1.499v-1.421h2.99v4.411h-7.479v-9.495h11.963v20.935ZM828.416 764.814h-11.963v-20.935h11.963v9.718h-7.474v-4.506h2.99v1.516h1.494v-3.738h-5.983v14.955h5.983v-3.515h-1.494v1.421h-2.99v-4.411h7.474v9.495ZM828.416 788.816h-11.963v-9.721h7.479v4.507h-2.99v-1.516h-1.499v3.74h5.983V770.87h-5.983v3.514h1.499v-1.42h2.99v4.411h-7.479v-9.496h11.963v20.937ZM207.549 623.151h-11.965v-20.935h11.965v9.719h-7.478v-4.505h2.991v1.515h1.495v-3.739h-5.982v14.955h5.982v-3.513h-1.495v1.42h-2.991v-4.411h7.478v9.494ZM207.549 647.153h-11.965v-9.719h7.478v4.507h-2.991v-1.517h-1.496v3.739h5.982v-14.956h-5.982v3.516h1.496v-1.421h2.991v4.411h-7.478v-9.496h11.965v20.936ZM207.549 670.372h-11.965v-20.934h11.965v9.718h-7.478v-4.506h2.991v1.516h1.495v-3.738h-5.982v14.954h5.982v-3.514h-1.495v1.422h-2.991v-4.412h7.478v9.494ZM207.549 694.375h-11.965v-9.721h7.478v4.508h-2.991v-1.517h-1.496v3.74h5.982v-14.956h-5.982v3.514h1.496v-1.42h2.991v4.411h-7.478v-9.495h11.965v20.936ZM207.549 717.592h-11.965v-20.935h11.965v9.721h-7.478v-4.508h2.991v1.517h1.495v-3.74h-5.982v14.955h5.982v-3.513h-1.495v1.42h-2.991v-4.411h7.478v9.494ZM207.549 741.594h-11.965v-9.719h7.478v4.507h-2.991v-1.517h-1.496v3.739h5.982v-14.955h-5.982v3.515h1.496v-1.421h2.991v4.411h-7.478v-9.495h11.965v20.935ZM207.549 764.814h-11.965v-20.935h11.965v9.718h-7.478v-4.506h2.991v1.516h1.495v-3.738h-5.982v14.955h5.982v-3.515h-1.495v1.421h-2.991v-4.411h7.478v9.495ZM207.549 788.816h-11.965v-9.721h7.478v4.507h-2.991v-1.516h-1.496v3.74h5.982V770.87h-5.982v3.514h1.496v-1.42h2.991v4.411h-7.478v-9.496h11.965v20.937Z" fill="#e9691e"/></g></svg>