<svg xmlns="http://www.w3.org/2000/svg" viewBox="0 0 8 8"><g fill="none"><circle cx="4" cy="4" r="4" fill="#FF4500"/><path fill="#FFF" d="M6.668 4a.582.582 0 0 0-.988-.42c-.4-.286-.95-.473-1.56-.496l.267-1.251.868.186a.415.415 0 1 0 .043-.2l-.969-.206a.102.102 0 0 0-.076.015.093.093 0 0 0-.043.067l-.296 1.393c-.62.02-1.179.206-1.585.497a.582.582 0 1 0-.644.95c-.01.057-.014.114-.014.176 0 .898 1.045 1.628 2.334 1.628 1.289 0 2.334-.726 2.334-1.628 0-.057-.005-.12-.014-.176.2-.091.343-.296.343-.535Zm-4 .415a.416.416 0 1 1 .831 0 .416.416 0 0 1-.83 0Zm2.325 1.103c-.287.286-.83.305-.988.305-.163 0-.707-.023-.988-.305a.107.107 0 0 1 0-.153.107.107 0 0 1 .152 0c.182.182.564.244.836.244s.658-.062.835-.244a.107.107 0 0 1 .153 0 .116.116 0 0 1 0 .153Zm-.077-.683a.416.416 0 1 1 .001-.83.416.416 0 0 1 0 .83Z"/></g></svg>