<?xml version="1.0" encoding="UTF-8" standalone="no"?>
<!-- Created with Inkscape (http://www.inkscape.org/) -->

<svg
   xmlns:dc="http://purl.org/dc/elements/1.1/"
   xmlns:cc="http://creativecommons.org/ns#"
   xmlns:rdf="http://www.w3.org/1999/02/22-rdf-syntax-ns#"
   xmlns:svg="http://www.w3.org/2000/svg"
   xmlns="http://www.w3.org/2000/svg"
   xmlns:sodipodi="http://sodipodi.sourceforge.net/DTD/sodipodi-0.dtd"
   xmlns:inkscape="http://www.inkscape.org/namespaces/inkscape"
   width="111.45"
   height="111.4525"
   id="svg2"
   version="1.1"
   inkscape:version="0.48.2 r9819"
   sodipodi:docname="AJAX1.svg">
  <defs
     id="defs4">
    <inkscape:perspective
       sodipodi:type="inkscape:persp3d"
       inkscape:vp_x="0 : 526.18109 : 1"
       inkscape:vp_y="0 : 1000 : 0"
       inkscape:vp_z="744.09448 : 526.18109 : 1"
       inkscape:persp3d-origin="372.04724 : 350.78739 : 1"
       id="perspective10" />
    <clipPath
       id="clipPath6942"
       clipPathUnits="userSpaceOnUse">
      <path
         id="path6944"
         d="M 0,0 864,0 864,1080 0,1080 0,0 z"
         inkscape:connector-curvature="0" />
    </clipPath>
    <clipPath
       id="clipPath6136"
       clipPathUnits="userSpaceOnUse">
      <path
         id="path6138"
         d="m 650.126,578.443 c 0,0 -4.407,0 -4.407,-4.407 l 0,0 0,-65.701 c 0,0 0,-4.406 4.407,-4.406 l 0,0 110.16,0 c 0,0 4.406,0 4.406,4.406 l 0,0 0,65.701 c 0,0 0,4.407 -4.406,4.407 l 0,0 -110.16,0 z"
         inkscape:connector-curvature="0" />
    </clipPath>
    <clipPath
       id="clipPath6122"
       clipPathUnits="userSpaceOnUse">
      <path
         id="path6124"
         d="m 640.494,579.595 124.92,0 0,-80.28 -124.92,0 0,80.28 z"
         inkscape:connector-curvature="0" />
    </clipPath>
    <mask
       id="mask6108"
       height="1"
       width="1"
       y="0"
       x="0"
       maskUnits="userSpaceOnUse">
      <g
         id="g6110">
        <g
           id="g6112"
           clip-path="url(#clipPath6104)">
          <g
             id="g6114">
            <g
               id="g6116"
               transform="matrix(129.24001,0,0,84.600006,638.69371,496.79466)" />
          </g>
        </g>
      </g>
    </mask>
    <clipPath
       id="clipPath6104"
       clipPathUnits="userSpaceOnUse">
      <path
         id="path6106"
         d="m 638.694,581.395 129.24,0 0,-84.6 -129.24,0 0,84.6 z"
         inkscape:connector-curvature="0" />
    </clipPath>
    <clipPath
       id="clipPath6096"
       clipPathUnits="userSpaceOnUse">
      <path
         id="path6098"
         d="M 0,0 864,0 864,1080 0,1080 0,0 z"
         inkscape:connector-curvature="0" />
    </clipPath>
    <clipPath
       id="clipPath5264"
       clipPathUnits="userSpaceOnUse">
      <path
         id="path5266"
         d="m 595.301,597.42 c 0,0 -4.406,0 -4.406,-4.406 l 0,0 0,-66.096 c 0,0 0,-4.408 4.406,-4.408 l 0,0 110.16,0 c 0,0 4.407,0 4.407,4.408 l 0,0 0,66.096 c 0,0 0,4.406 -4.407,4.406 l 0,0 -110.16,0 z"
         inkscape:connector-curvature="0" />
    </clipPath>
    <clipPath
       id="clipPath5250"
       clipPathUnits="userSpaceOnUse">
      <path
         id="path5252"
         d="m 586.029,598.572 124.92,0 0,-80.64 -124.92,0 0,80.64 z"
         inkscape:connector-curvature="0" />
    </clipPath>
    <mask
       id="mask5236"
       height="1"
       width="1"
       y="0"
       x="0"
       maskUnits="userSpaceOnUse">
      <g
         id="g5238">
        <g
           id="g5240"
           clip-path="url(#clipPath5232)">
          <g
             id="g5242">
            <g
               id="g5244"
               transform="matrix(128.88,0,0,85.320007,584.22942,515.05232)" />
          </g>
        </g>
      </g>
    </mask>
    <clipPath
       id="clipPath5232"
       clipPathUnits="userSpaceOnUse">
      <path
         id="path5234"
         d="m 584.229,600.372 128.88,0 0,-85.32 -128.88,0 0,85.32 z"
         inkscape:connector-curvature="0" />
    </clipPath>
    <clipPath
       id="clipPath5224"
       clipPathUnits="userSpaceOnUse">
      <path
         id="path5226"
         d="M 0,0 864,0 864,1080 0,1080 0,0 z"
         inkscape:connector-curvature="0" />
    </clipPath>
    <clipPath
       id="clipPath5214"
       clipPathUnits="userSpaceOnUse">
      <path
         id="path5216"
         d="m 650.023,444.15 c 0,0 -4.406,0 -4.406,-4.406 l 0,0 0,-65.715 c 0,0 0,-4.406 4.406,-4.406 l 0,0 109.767,0 c 0,0 4.406,0 4.406,4.406 l 0,0 0,65.715 c 0,0 0,4.406 -4.406,4.406 l 0,0 -109.767,0 z"
         inkscape:connector-curvature="0" />
    </clipPath>
    <clipPath
       id="clipPath5200"
       clipPathUnits="userSpaceOnUse">
      <path
         id="path5202"
         d="m 640.391,445.302 124.92,0 0,-80.64 -124.92,0 0,80.64 z"
         inkscape:connector-curvature="0" />
    </clipPath>
    <mask
       id="mask5186"
       height="1"
       width="1"
       y="0"
       x="0"
       maskUnits="userSpaceOnUse">
      <g
         id="g5188">
        <g
           id="g5190"
           clip-path="url(#clipPath5182)">
          <g
             id="g5192">
            <g
               id="g5194"
               transform="matrix(128.88,0,0,84.600006,638.59129,362.50221)" />
          </g>
        </g>
      </g>
    </mask>
    <clipPath
       id="clipPath5182"
       clipPathUnits="userSpaceOnUse">
      <path
         id="path5184"
         d="m 638.591,447.102 128.88,0 0,-84.6 -128.88,0 0,84.6 z"
         inkscape:connector-curvature="0" />
    </clipPath>
    <clipPath
       id="clipPath5174"
       clipPathUnits="userSpaceOnUse">
      <path
         id="path5176"
         d="M 0,0 864,0 864,1080 0,1080 0,0 z"
         inkscape:connector-curvature="0" />
    </clipPath>
    <clipPath
       id="clipPath5164"
       clipPathUnits="userSpaceOnUse">
      <path
         id="path5166"
         d="m 595.637,463.95 c 0,0 -4.406,0 -4.406,-4.406 l 0,0 0,-65.61 c 0,0 0,-4.407 4.406,-4.407 l 0,0 109.51,0 c 0,0 4.407,0 4.407,4.407 l 0,0 0,65.61 c 0,0 0,4.406 -4.407,4.406 l 0,0 -109.51,0 z"
         inkscape:connector-curvature="0" />
    </clipPath>
    <clipPath
       id="clipPath5150"
       clipPathUnits="userSpaceOnUse">
      <path
         id="path5152"
         d="m 586.006,465.102 124.56,0 0,-80.64 -124.56,0 0,80.64 z"
         inkscape:connector-curvature="0" />
    </clipPath>
    <mask
       id="mask5136"
       height="1"
       width="1"
       y="0"
       x="0"
       maskUnits="userSpaceOnUse">
      <g
         id="g5138">
        <g
           id="g5140"
           clip-path="url(#clipPath5132)">
          <g
             id="g5142">
            <g
               id="g5144"
               transform="matrix(128.52,0,0,84.600006,584.20555,382.30232)" />
          </g>
        </g>
      </g>
    </mask>
    <clipPath
       id="clipPath5132"
       clipPathUnits="userSpaceOnUse">
      <path
         id="path5134"
         d="m 584.206,466.902 128.52,0 0,-84.6 -128.52,0 0,84.6 z"
         inkscape:connector-curvature="0" />
    </clipPath>
    <clipPath
       id="clipPath5124"
       clipPathUnits="userSpaceOnUse">
      <path
         id="path5126"
         d="M 0,0 864,0 864,1080 0,1080 0,0 z"
         inkscape:connector-curvature="0" />
    </clipPath>
    <clipPath
       id="clipPath4700"
       clipPathUnits="userSpaceOnUse">
      <path
         id="path4702"
         d="m 179.101,896.309 c 0,0 -4.405,0 -4.405,-4.405 l 0,0 0,-66.16 c 0,0 0,-4.405 4.405,-4.405 l 0,0 110.037,0 c 0,0 4.405,0 4.405,4.405 l 0,0 0,66.16 c 0,0 0,4.405 -4.405,4.405 l 0,0 -110.037,0 z"
         inkscape:connector-curvature="0" />
    </clipPath>
    <clipPath
       id="clipPath4686"
       clipPathUnits="userSpaceOnUse">
      <path
         id="path4688"
         d="m 169.471,897.102 124.92,0 0,-80.64 -124.92,0 0,80.64 z"
         inkscape:connector-curvature="0" />
    </clipPath>
    <mask
       id="mask4672"
       height="1"
       width="1"
       y="0"
       x="0"
       maskUnits="userSpaceOnUse">
      <g
         id="g4674">
        <g
           id="g4676"
           clip-path="url(#clipPath4668)">
          <g
             id="g4678">
            <g
               id="g4680"
               transform="matrix(128.88,0,0,84.960007,167.67116,813.9418)" />
          </g>
        </g>
      </g>
    </mask>
    <clipPath
       id="clipPath4668"
       clipPathUnits="userSpaceOnUse">
      <path
         id="path4670"
         d="m 167.671,898.902 128.88,0 0,-84.96 -128.88,0 0,84.96 z"
         inkscape:connector-curvature="0" />
    </clipPath>
    <clipPath
       id="clipPath4660"
       clipPathUnits="userSpaceOnUse">
      <path
         id="path4662"
         d="M 0,0 864,0 864,1080 0,1080 0,0 z"
         inkscape:connector-curvature="0" />
    </clipPath>
    <clipPath
       id="clipPath4210"
       clipPathUnits="userSpaceOnUse">
      <path
         id="path4212"
         d="m 120.805,840.316 119.195,0 0,74.971 -119.195,0 0,-74.971 z"
         inkscape:connector-curvature="0" />
    </clipPath>
    <clipPath
       id="clipPath4196"
       clipPathUnits="userSpaceOnUse">
      <path
         id="path4198"
         d="m 115.58,916.44 124.92,0 0,-80.641 -124.92,0 0,80.641 z"
         inkscape:connector-curvature="0" />
    </clipPath>
    <mask
       id="mask4182"
       height="1"
       width="1"
       y="0"
       x="0"
       maskUnits="userSpaceOnUse">
      <g
         id="g4184">
        <g
           id="g4186"
           clip-path="url(#clipPath4178)">
          <g
             id="g4188">
            <g
               id="g4190"
               transform="matrix(129.24001,0,0,85.320007,113.77974,832.91951)" />
          </g>
        </g>
      </g>
    </mask>
    <clipPath
       id="clipPath4178"
       clipPathUnits="userSpaceOnUse">
      <path
         id="path4180"
         d="m 113.78,918.24 129.24,0 0,-85.321 -129.24,0 0,85.321 z"
         inkscape:connector-curvature="0" />
    </clipPath>
    <clipPath
       id="clipPath4170"
       clipPathUnits="userSpaceOnUse">
      <path
         id="path4172"
         d="M 0,0 864,0 864,1080 0,1080 0,0 z"
         inkscape:connector-curvature="0" />
    </clipPath>
    <clipPath
       id="clipPath4160"
       clipPathUnits="userSpaceOnUse">
      <path
         id="path4162"
         d="m 179.575,762.025 c 0,0 -4.406,0 -4.406,-4.407 l 0,0 0,-65.385 c 0,0 0,-4.406 4.406,-4.406 l 0,0 109.557,0 c 0,0 4.407,0 4.407,4.406 l 0,0 0,65.385 c 0,0 0,4.407 -4.407,4.407 l 0,0 -109.557,0 z"
         inkscape:connector-curvature="0" />
    </clipPath>
    <clipPath
       id="clipPath4146"
       clipPathUnits="userSpaceOnUse">
      <path
         id="path4148"
         d="m 169.943,763.177 124.56,0 0,-80.28 -124.56,0 0,80.28 z"
         inkscape:connector-curvature="0" />
    </clipPath>
    <mask
       id="mask4132"
       height="1"
       width="1"
       y="0"
       x="0"
       maskUnits="userSpaceOnUse">
      <g
         id="g4134">
        <g
           id="g4136"
           clip-path="url(#clipPath4128)">
          <g
             id="g4138">
            <g
               id="g4140"
               transform="matrix(128.52,0,0,84.240006,168.14345,680.73724)" />
          </g>
        </g>
      </g>
    </mask>
    <clipPath
       id="clipPath4128"
       clipPathUnits="userSpaceOnUse">
      <path
         id="path4130"
         d="m 168.143,764.977 128.52,0 0,-84.24 -128.52,0 0,84.24 z"
         inkscape:connector-curvature="0" />
    </clipPath>
    <clipPath
       id="clipPath4120"
       clipPathUnits="userSpaceOnUse">
      <path
         id="path4122"
         d="M 0,0 864,0 864,1080 0,1080 0,0 z"
         inkscape:connector-curvature="0" />
    </clipPath>
    <clipPath
       id="clipPath4110"
       clipPathUnits="userSpaceOnUse">
      <path
         id="path4112"
         d="m 125.006,781.825 c 0,0 -4.406,0 -4.406,-4.407 l 0,0 0,-65.565 c 0,0 0,-4.406 4.406,-4.406 l 0,0 109.78,0 c 0,0 4.406,0 4.406,4.406 l 0,0 0,65.565 c 0,0 0,4.407 -4.406,4.407 l 0,0 -109.78,0 z"
         inkscape:connector-curvature="0" />
    </clipPath>
    <clipPath
       id="clipPath4096"
       clipPathUnits="userSpaceOnUse">
      <path
         id="path4098"
         d="m 115.375,782.977 124.92,0 0,-80.64 -124.92,0 0,80.64 z"
         inkscape:connector-curvature="0" />
    </clipPath>
    <mask
       id="mask4082"
       height="1"
       width="1"
       y="0"
       x="0"
       maskUnits="userSpaceOnUse">
      <g
         id="g4084">
        <g
           id="g4086"
           clip-path="url(#clipPath4078)">
          <g
             id="g4088">
            <g
               id="g4090"
               transform="matrix(128.88,0,0,84.600006,113.57472,700.17735)" />
          </g>
        </g>
      </g>
    </mask>
    <clipPath
       id="clipPath4078"
       clipPathUnits="userSpaceOnUse">
      <path
         id="path4080"
         d="m 113.575,784.777 128.88,0 0,-84.6 -128.88,0 0,84.6 z"
         inkscape:connector-curvature="0" />
    </clipPath>
    <clipPath
       id="clipPath4070"
       clipPathUnits="userSpaceOnUse">
      <path
         id="path4072"
         d="M 0,0 864,0 864,1080 0,1080 0,0 z"
         inkscape:connector-curvature="0" />
    </clipPath>
    <clipPath
       id="clipPath3292"
       clipPathUnits="userSpaceOnUse">
      <path
         id="path3294"
         d="m 645.668,244.612 119.332,0 0,75.263 -119.332,0 0,-75.263 z"
         inkscape:connector-curvature="0" />
    </clipPath>
    <clipPath
       id="clipPath3278"
       clipPathUnits="userSpaceOnUse">
      <path
         id="path3280"
         d="m 640.803,321.027 124.92,0 0,-81 -124.92,0 0,81 z"
         inkscape:connector-curvature="0" />
    </clipPath>
    <mask
       id="mask3264"
       height="1"
       width="1"
       y="0"
       x="0"
       maskUnits="userSpaceOnUse">
      <g
         id="g3266">
        <g
           id="g3268"
           clip-path="url(#clipPath3260)">
          <g
             id="g3270">
            <g
               id="g3272"
               transform="matrix(129.60001,0,0,85.320007,639.00267,237.50731)" />
          </g>
        </g>
      </g>
    </mask>
    <clipPath
       id="clipPath3260"
       clipPathUnits="userSpaceOnUse">
      <path
         id="path3262"
         d="m 639.003,322.827 129.6,0 0,-85.32 -129.6,0 0,85.32 z"
         inkscape:connector-curvature="0" />
    </clipPath>
    <clipPath
       id="clipPath2984"
       clipPathUnits="userSpaceOnUse">
      <path
         id="path2986"
         d="M 0,0 864,0 864,1080 0,1080 0,0 z"
         inkscape:connector-curvature="0" />
    </clipPath>
    <clipPath
       id="clipPath2922"
       clipPathUnits="userSpaceOnUse">
      <path
         id="path2924"
         d="M 0,0 864,0 864,1080 0,1080 0,0 z"
         inkscape:connector-curvature="0" />
    </clipPath>
    <clipPath
       id="clipPath2862"
       clipPathUnits="userSpaceOnUse">
      <path
         id="path2864"
         d="m 728.973,48.234 90.027,0 0,90.03 -90.027,0 0,-90.03 z"
         inkscape:connector-curvature="0" />
    </clipPath>
    <clipPath
       id="clipPath2838"
       clipPathUnits="userSpaceOnUse">
      <path
         id="path2840"
         d="m 728.973,48.234 90.027,0 0,90.03 -90.027,0 0,-90.03 z"
         inkscape:connector-curvature="0" />
    </clipPath>
    <inkscape:perspective
       id="perspective2824"
       inkscape:persp3d-origin="0.5 : 0.33333333 : 1"
       inkscape:vp_z="1 : 0.5 : 1"
       inkscape:vp_y="0 : 1000 : 0"
       inkscape:vp_x="0 : 0.5 : 1"
       sodipodi:type="inkscape:persp3d" />
  </defs>
  <sodipodi:namedview
     id="base"
     pagecolor="#ffffff"
     bordercolor="#666666"
     borderopacity="1.0"
     inkscape:pageopacity="0.0"
     inkscape:pageshadow="2"
     inkscape:zoom="5.6"
     inkscape:cx="59.839504"
     inkscape:cy="57.273033"
     inkscape:document-units="px"
     inkscape:current-layer="layer1"
     showgrid="false"
     inkscape:window-width="1280"
     inkscape:window-height="1004"
     inkscape:window-x="-8"
     inkscape:window-y="-8"
     inkscape:window-maximized="1"
     fit-margin-top="0"
     fit-margin-left="0"
     fit-margin-right="0"
     fit-margin-bottom="0" />
  <metadata
     id="metadata7">
    <rdf:RDF>
      <cc:Work
         rdf:about="">
        <dc:format>image/svg+xml</dc:format>
        <dc:type
           rdf:resource="http://purl.org/dc/dcmitype/StillImage" />
        <dc:title />
      </cc:Work>
    </rdf:RDF>
  </metadata>
  <g
     inkscape:label="Layer 1"
     inkscape:groupmode="layer"
     id="layer1"
     transform="translate(-386.75776,-453.8687)">
    <g
       id="g2830"
       transform="matrix(1.25,0,0,-1.25,442.48526,565.3212)">
      <path
         d="M 0,0 -44.582,44.584 0.001,89.162 44.578,44.584 0,0 z"
         style="fill:#004b8d;fill-opacity:1;fill-rule:nonzero;stroke:none"
         id="path2832"
         inkscape:connector-curvature="0" />
    </g>
    <g
       id="g2834"
       transform="matrix(1.25,0,0,-1.25,-525.00004,626.1558)">
      <g
         id="g2836"
         clip-path="url(#clipPath2838)">
        <g
           id="g2842"
           transform="translate(773.9882,48.6677)" />
      </g>
    </g>
    <g
       id="g2846"
       transform="matrix(1.25,0,0,-1.25,442.48526,470.9527)"
       style="stroke:none">
      <path
         d="M 0,0 -2.877,2.877 -15.603,-9.846 -2.877,-22.571 0,-19.692 -9.846,-9.846 0,0 z"
         style="fill:#0081c6;fill-opacity:1;fill-rule:nonzero;stroke:none"
         id="path2848"
         inkscape:connector-curvature="0" />
    </g>
    <g
       id="g2850"
       transform="matrix(1.25,0,0,-1.25,461.98786,483.2602)"
       style="stroke:none">
      <path
         d="M 0,0 -12.725,12.723 -15.602,9.846 -5.756,0 -15.602,-9.846 -12.725,-12.725 0,0 z"
         style="fill:#5d9732;fill-opacity:1;fill-rule:nonzero;stroke:none"
         id="path2852"
         inkscape:connector-curvature="0" />
    </g>
    <g
       id="g2854"
       transform="matrix(1.25,0,0,-1.25,442.48526,470.9527)"
       style="stroke:none">
      <path
         d="M 0,0 -9.846,-9.846 0,-19.692 9.846,-9.846 0,0 z"
         style="fill:#0069aa;fill-opacity:1;fill-rule:nonzero;stroke:none"
         id="path2856"
         inkscape:connector-curvature="0" />
    </g>
    <g
       id="g2858"
       transform="matrix(1.25,0,0,-1.25,-525.00004,626.1558)"
       style="stroke:none;fill:#ffffff">
      <g
         id="g2860"
         clip-path="url(#clipPath2862)"
         style="stroke:none;fill:#ffffff">
        <g
           id="g2866"
           transform="translate(775.5779,95.8705)"
           style="stroke:none;fill:#ffffff">
          <path
             d="m 0,0 0,-2.164 c 1.974,1.318 3.541,2.007 4.861,2.007 1.473,0 2.573,-0.721 3.201,-2.132 2.1,1.443 3.826,2.132 5.144,2.132 2.667,0 3.514,-1.882 3.514,-5.773 l 0,-1.599 c 0,-1.287 0,-3.013 -0.094,-5.209 l 1.602,-0.188 0,-0.628 -5.87,0 0,0.628 1.789,0.221 c 0.158,1.411 0.19,3.167 0.19,5.269 0,4.016 -0.19,5.806 -2.637,5.806 -0.878,0 -2.039,-0.409 -3.448,-1.319 0.122,-1.098 0.153,-2.322 0.153,-3.671 l 0,-5.052 0,-1.066 1.665,-0.188 0,-0.628 -5.838,0 0,0.628 1.694,0.221 c 0.096,1.443 0.096,3.199 0.096,5.269 0,4.079 -0.251,5.806 -2.668,5.806 -0.879,0 -2.04,-0.409 -3.354,-1.288 l 0,-6.807 c 0,-1.13 0,-2.166 0.091,-3.013 l 1.85,-0.188 0,-0.628 -6.306,0 0,0.628 1.852,0.188 c 0.063,0.847 0.125,1.853 0.125,3.013 l 0,5.741 c 0,1.098 -0.062,2.071 -0.125,2.98 l -1.945,0.095 0.093,0.626 L 0,0 z"
             style="fill:#ffffff;fill-opacity:1;fill-rule:nonzero;stroke:none"
             id="path2868"
             inkscape:connector-curvature="0" />
        </g>
        <g
           id="g2870"
           transform="translate(795.6519,98.6198)"
           style="stroke:none;fill:#ffffff">
          <path
             d="m 0,0 -1.766,-3.648 -0.56,0 L -1.954,0 0,0 z"
             style="fill:#ffffff;fill-opacity:1;fill-rule:nonzero;stroke:none"
             id="path2872"
             inkscape:connector-curvature="0" />
        </g>
        <g
           id="g2874"
           transform="translate(745.3872,88.406)"
           style="stroke:none;fill:#ffffff">
          <path
             d="m 0,0 c 0.382,-3.765 2.14,-5.714 4.882,-5.714 2.617,0 4.439,1.757 4.439,4.214 0,1.021 -0.29,1.851 -0.863,2.522 C 7.34,2.328 5.488,2.808 3.449,3.765 0.667,5.075 -0.67,6.893 -0.67,9.478 c 0,3.416 2.49,5.84 5.97,5.84 2.327,0 3.699,-1.116 4.37,-1.116 0.384,0 0.638,0.127 0.861,0.447 l 0.736,0 C 11.17,13.786 11.105,12.894 11.105,11.966 l 0,-2.424 -0.732,0 c -0.286,3.222 -1.978,5.009 -4.501,5.009 -2.457,0 -4.085,-1.563 -4.085,-3.924 0,-2.299 1.533,-3.064 4.311,-4.244 3.859,-1.627 5.871,-2.873 5.871,-6.638 0,-3.768 -2.681,-6.32 -6.735,-6.32 -2.395,0 -3.892,0.958 -4.69,0.958 -0.384,0 -0.609,-0.129 -0.8,-0.416 l -0.704,0 c 0.099,0.895 0.131,1.852 0.131,2.808 L -0.829,0 0,0 z"
             style="fill:#ffffff;fill-opacity:1;fill-rule:nonzero;stroke:none"
             id="path2876"
             inkscape:connector-curvature="0" />
        </g>
        <g
           id="g2878"
           transform="translate(744.6553,97.8842)"
           style="stroke:none;fill:#ffffff">
          <path
             d="M 0,0 C 0,-2.602 1.32,-4.436 4.153,-5.769 4.686,-6.018 5.2,-6.235 5.701,-6.444 7.107,-7.033 8.325,-7.541 9.14,-8.497 c 0.572,-0.667 0.849,-1.478 0.849,-2.481 0,-2.445 -1.8,-4.151 -4.375,-4.151 -2.738,0 -4.45,2.008 -4.819,5.658 l -0.006,0.056 -0.95,0 0,-3.288 c 0,-1.089 -0.042,-2.004 -0.129,-2.801 l -0.007,-0.069 0.805,0 0.018,0.027 c 0.189,0.279 0.399,0.388 0.75,0.388 0.281,0 0.662,-0.127 1.146,-0.287 0.851,-0.283 2.015,-0.671 3.544,-0.671 4.066,0 6.797,2.565 6.797,6.383 0,3.921 -2.232,5.145 -5.91,6.696 -2.727,1.159 -4.27,1.924 -4.27,4.186 0,2.309 1.616,3.862 4.021,3.862 2.541,0 4.16,-1.806 4.44,-4.953 L 11.047,0 l 0.852,0 0,2.488 c 0,0.824 0.053,1.7 0.161,2.675 l 0.007,0.07 -0.837,0 -0.02,-0.027 C 11.003,4.907 10.768,4.786 10.402,4.786 10.179,4.786 9.86,4.922 9.457,5.094 8.702,5.417 7.56,5.904 6.032,5.904 2.537,5.904 0,3.42 0,0"
             style="fill:#ffffff;fill-opacity:1;fill-rule:nonzero;stroke:none"
             id="path2880"
             inkscape:connector-curvature="0" />
        </g>
        <g
           id="g2882"
           transform="translate(795.1523,92.1653)"
           style="stroke:none;fill:#ffffff">
          <path
             d="m 0,0 c 0,-1.69 0.857,-2.882 2.692,-3.75 10e-4,0 0.988,-0.43 0.988,-0.43 0.884,-0.367 1.649,-0.687 2.148,-1.278 0.35,-0.404 0.52,-0.898 0.52,-1.512 0,-1.496 -1.106,-2.54 -2.687,-2.54 -1.706,0 -2.731,1.211 -2.964,3.506 l -0.012,0.121 -0.783,0 0,-2.184 c 0,-0.695 -0.028,-1.272 -0.083,-1.766 l -0.018,-0.151 0.671,0 0.041,0.06 c 0.1,0.151 0.203,0.205 0.395,0.205 0.162,0 0.397,-0.079 0.695,-0.178 0.546,-0.183 1.296,-0.432 2.283,-0.432 2.638,0 4.41,1.667 4.41,4.148 0,2.549 -1.44,3.341 -3.811,4.341 -1.743,0.74 -2.652,1.191 -2.652,2.571 0,1.432 0.964,2.359 2.457,2.359 1.561,0 2.554,-1.116 2.724,-3.061 l 0.011,-0.122 0.723,0 0,1.674 c 0,0.519 0.032,1.054 0.101,1.688 l 0.016,0.149 -0.687,0 L 7.136,3.359 C 7.026,3.198 6.905,3.135 6.701,3.135 6.58,3.135 6.385,3.218 6.14,3.323 5.652,3.532 4.915,3.844 3.927,3.844 1.651,3.844 0,2.228 0,0"
             style="fill:#ffffff;fill-opacity:1;fill-rule:nonzero;stroke:none"
             id="path2884"
             inkscape:connector-curvature="0" />
        </g>
        <g
           id="g2886"
           transform="translate(759.5409,92.4036)"
           style="stroke:none;fill:#ffffff">
          <path
             d="m 0,0 c 0.068,2.141 2.118,3.656 4.957,3.656 2.981,0 4.204,-1.538 4.204,-4.769 l 0,-0.502 -0.14,-4.643 c 0,-1.13 0,-2.166 0.094,-3.013 l 1.852,-0.188 0,-0.628 -4.245,0 -0.073,1.413 c -1.441,-1.068 -2.884,-1.57 -4.329,-1.57 -1.943,0 -3.198,1.223 -3.198,3.012 0,2.511 2.508,3.984 7.59,4.643 l 0.097,2.511 0,0.345 c 0,1.915 -0.787,2.761 -2.512,2.761 -1.315,0 -2.29,-0.596 -2.29,-1.474 C 2.007,1.24 2.108,0.345 2.108,0 2.108,-0.582 1.636,-1.054 1.053,-1.054 0.472,-1.054 0,-0.582 0,0 m 6.619,-7.263 c 0,1.288 0.03,2.667 0.093,4.172 -3.702,-0.533 -5.428,-1.473 -5.428,-3.638 0,-1.411 0.913,-2.354 2.351,-2.354 0.975,0 1.916,0.346 2.984,1.005 l 0,0.815 z"
             style="fill:#ffffff;fill-opacity:1;fill-rule:nonzero;stroke:none"
             id="path2888"
             inkscape:connector-curvature="0" />
        </g>
        <g
           id="g2890"
           transform="translate(763.632,73.8234)"
           style="stroke:none;fill:#ffffff">
          <path
             d="m 0,0 c -0.461,-0.108 -0.957,-0.198 -1.435,-0.198 -2.043,0 -3.462,1.021 -3.462,3.152 0,2.16 1.32,3.37 3.462,3.37 0.414,0 0.967,-0.08 1.427,-0.261 l -0.09,-1.066 c -0.479,0.27 -0.913,0.334 -1.365,0.334 -1.301,0 -2.114,-0.994 -2.114,-2.286 0,-1.283 0.794,-2.249 2.142,-2.249 0.497,0 1.084,0.109 1.381,0.262 L 0,0 z"
             style="fill:#ffffff;fill-opacity:1;fill-rule:nonzero;stroke:none"
             id="path2892"
             inkscape:connector-curvature="0" />
        </g>
        <g
           id="g2894"
           transform="translate(767.6343,80.0396)"
           style="stroke:none;fill:#ffffff">
          <path
             d="m 0,0 1.266,0 0,-5.312 2.448,0 0,-0.994 L 0,-6.306 0,0 z"
             style="fill:#ffffff;fill-opacity:1;fill-rule:nonzero;stroke:none"
             id="path2896"
             inkscape:connector-curvature="0" />
        </g>
        <g
           id="g2898"
           transform="translate(775.179,80.0396)"
           style="stroke:none;fill:#ffffff">
          <path
             d="m 0,0 1.264,0 0,-3.64 c 0,-1.076 0.342,-1.781 1.31,-1.781 0.967,0 1.312,0.705 1.312,1.781 l 0,3.64 1.263,0 0,-4.029 c 0,-1.69 -0.956,-2.385 -2.575,-2.385 C 0.957,-6.414 0,-5.719 0,-4.029 L 0,0 z"
             style="fill:#ffffff;fill-opacity:1;fill-rule:nonzero;stroke:none"
             id="path2900"
             inkscape:connector-curvature="0" />
        </g>
        <g
           id="g2902"
           transform="translate(786.0839,74.728)"
           style="stroke:none;fill:#ffffff">
          <path
             d="m 0,0 0.595,0 c 0.586,0 1.301,0.145 1.301,0.876 0,0.821 -0.668,0.948 -1.301,0.948 L 0,1.824 0,0 z m 0,2.764 0.515,0 c 0.533,0 1.192,0.117 1.192,0.768 0,0.731 -0.641,0.785 -1.219,0.785 L 0,4.317 0,2.764 z m -1.265,2.548 2.204,0 c 0.813,0 2.033,-0.234 2.033,-1.618 0,-0.75 -0.507,-1.274 -1.255,-1.408 l 0,-0.02 C 2.576,2.186 3.163,1.608 3.163,0.83 c 0,-1.59 -1.428,-1.824 -2.224,-1.824 l -2.204,0 0,6.306 z"
             style="fill:#ffffff;fill-opacity:1;fill-rule:nonzero;stroke:none"
             id="path2904"
             inkscape:connector-curvature="0" />
        </g>
        <g
           id="g2906"
           transform="translate(792.106,78.989)"
           style="stroke:none;fill:#ffffff" />
      </g>
    </g>
    <g
       id="g4106"
       transform="matrix(1.25,0,0,-1.25,-165,1186.1558)">
      <g
         id="g4108"
         clip-path="url(#clipPath4110)">
        <g
           id="g4114"
           transform="matrix(126.78755,0,0,82.488281,116.69298,703.12622)" />
      </g>
    </g>
    <g
       id="g4156"
       transform="matrix(1.25,0,0,-1.25,-165,1186.1558)">
      <g
         id="g4158"
         clip-path="url(#clipPath4160)">
        <g
           id="g4164"
           transform="matrix(127.37506,0,0,82.488281,170.96793,683.32611)" />
      </g>
    </g>
    <g
       id="g5160"
       transform="matrix(1.25,0,0,-1.25,-165,1186.1558)">
      <g
         id="g5162"
         clip-path="url(#clipPath5164)">
        <g
           id="g5168"
           transform="matrix(127.25754,0,0,82.958298,586.90576,385.01625)" />
      </g>
    </g>
    <g
       id="g5210"
       transform="matrix(1.25,0,0,-1.25,-165,1186.1558)">
      <g
         id="g5212"
         clip-path="url(#clipPath5214)">
        <g
           id="g5218"
           transform="matrix(127.37506,0,0,82.488281,641.41577,365.45114)" />
      </g>
    </g>
  </g>
</svg>
