<?xml version="1.0" encoding="UTF-8" standalone="no"?>
<!-- Generator: Adobe Illustrator 18.1.1, SVG Export Plug-In . SVG Version: 6.00 Build 0)  -->

<svg
   xmlns:dc="http://purl.org/dc/elements/1.1/"
   xmlns:cc="http://creativecommons.org/ns#"
   xmlns:rdf="http://www.w3.org/1999/02/22-rdf-syntax-ns#"
   xmlns:svg="http://www.w3.org/2000/svg"
   xmlns="http://www.w3.org/2000/svg"
   xmlns:sodipodi="http://sodipodi.sourceforge.net/DTD/sodipodi-0.dtd"
   xmlns:inkscape="http://www.inkscape.org/namespaces/inkscape"
   version="1.1"
   id="Layer_1"
   x="0px"
   y="0px"
   viewBox="1149 238 47.582279 42"
   enable-background="new 1149 238 100 100"
   xml:space="preserve"
   inkscape:version="0.91 r13725"
   sodipodi:docname="Scoot_logo.svg"
   width="47.582279"
   height="42"><metadata
     id="metadata3351"><rdf:RDF><cc:Work
         rdf:about=""><dc:format>image/svg+xml</dc:format><dc:type
           rdf:resource="http://purl.org/dc/dcmitype/StillImage" /><dc:title></dc:title></cc:Work></rdf:RDF></metadata><defs
     id="defs3349" /><sodipodi:namedview
     pagecolor="#ffffff"
     bordercolor="#666666"
     borderopacity="1"
     objecttolerance="10"
     gridtolerance="10"
     guidetolerance="10"
     inkscape:pageopacity="0"
     inkscape:pageshadow="2"
     inkscape:window-width="1366"
     inkscape:window-height="705"
     id="namedview3347"
     showgrid="false"
     inkscape:snap-page="true"
     inkscape:snap-to-guides="true"
     inkscape:zoom="4.0400329"
     inkscape:cx="35.800049"
     inkscape:cy="31.599993"
     inkscape:window-x="-8"
     inkscape:window-y="-8"
     inkscape:window-maximized="1"
     inkscape:current-layer="Layer_1"
     fit-margin-top="0"
     fit-margin-left="0"
     fit-margin-right="0"
     fit-margin-bottom="0" /><g
     id="g3337"
     transform="matrix(0.66455696,0,0,0.66455696,373.12975,67.674051)"><path
       d="m 1199.1,319.5 c 17.4,0 31.6,-14.1 31.6,-31.6 0,-17.4 -14.1,-31.6 -31.6,-31.6 -17.4,0 -31.6,14.1 -31.6,31.6 0,17.5 14.1,31.6 31.6,31.6"
       id="path3341"
       inkscape:connector-curvature="0"
       style="fill:#ffe900" /><polyline
       points="1229.1,286.3 1232.1,285.5 1234.5,295.3 1239.1,294.2 1239,291.5 1237.7,291.8 1235.9,284.6    1239.1,283.8 1238.3,280.2 1235.1,281 1234.1,277 1230.6,279.4 1231.2,281.9 1228.2,282.7 1229,286.3  "
       id="polyline3343"
       style="fill:#1d1d1b" /><path
       d="m 1228.6,283 c -1.2,-1.2 -2.9,-2 -5.1,-2 -4.8,0 -7.1,3.8 -7.1,7 l 0,0 c 0,3.2 2.3,7 7.1,7 4.8,0 7.1,-3.8 7.1,-7 0,-1.4 -0.4,-2.8 -1.2,-4 l -0.8,-1 z m -2,5 c 0,1.9 -1.4,3.3 -3.2,3.3 -1.7,0 -3.2,-1.4 -3.2,-3.3 l 0,0 c 0,-1.9 1.4,-3.3 3.2,-3.3 1.8,0 3.2,1.4 3.2,3.3 m -10.3,0 c 0,-3.2 -2.3,-7 -7.1,-7 -4.8,0 -7.1,3.8 -7.1,7 l 0,0 c 0,3.2 2.3,7 7.1,7 4.8,0 7.1,-3.8 7.1,-7 m -3.9,0 c 0,1.9 -1.4,3.3 -3.2,3.3 -1.7,0 -3.2,-1.4 -3.2,-3.3 l 0,0 c 0,-1.9 1.4,-3.3 3.2,-3.3 1.7,0 3.2,1.4 3.2,3.3 m -14.2,-1.5 4,0 c -0.7,-3.2 -3.5,-5.5 -7,-5.5 -3.9,0 -6.9,3.1 -6.9,7 0,3.9 3.1,7 7,7 3.6,0 6.2,-2.4 6.9,-5.4 l -4,0 c -0.4,0.8 -1.2,1.8 -2.8,1.8 -1.9,0 -3.1,-1.4 -3.1,-3.3 0,-0.9 0.3,-1.8 0.9,-2.4 0.6,-0.6 1.4,-1 2.3,-0.9 1.4,-0.2 2.2,0.8 2.7,1.7 m -14.1,-1.4 3.9,0 c -0.3,-3.5 -3.3,-4.1 -5.1,-4.1 -2.7,0 -5.1,1.7 -5.1,4.5 0,1.8 1.4,2.9 3.1,3.4 2.5,1 3.5,1.1 3.5,2 0,0.6 -0.7,1 -1.4,1 -0.2,0 -1.3,0 -1.5,-1.2 l -3.9,0 c 0.4,3.5 3.4,4.4 5.4,4.4 2.9,0 5.4,-1.7 5.4,-4.6 0,-2.8 -2.4,-3.5 -4.6,-4.1 -1,-0.3 -2,-0.7 -2,-1.3 0,-0.4 0.3,-0.9 1.1,-0.9 1.1,-0.1 1.2,0.6 1.2,0.9"
       id="path3345"
       inkscape:connector-curvature="0"
       style="fill:#1d1d1b" /></g></svg>