<svg xmlns="http://www.w3.org/2000/svg" viewBox="1149 238 47.582 42" xml:space="preserve" width="47.582" height="42"><path d="M1199.1 319.5c17.4 0 31.6-14.1 31.6-31.6 0-17.4-14.1-31.6-31.6-31.6-17.4 0-31.6 14.1-31.6 31.6s14.1 31.6 31.6 31.6" style="fill:#ffe900" transform="matrix(.66456 0 0 .66456 373.13 67.674)"/><path style="fill:#1d1d1b" d="m1229.1 286.3 3-.8 2.4 9.8 4.6-1.1-.1-2.7-1.3.3-1.8-7.2 3.2-.8-.8-3.6-3.2.8-1-4-3.5 2.4.6 2.5-3 .8.8 3.6" transform="matrix(.66456 0 0 .66456 373.13 67.674)"/><path d="M1228.6 283c-1.2-1.2-2.9-2-5.1-2-4.8 0-7.1 3.8-7.1 7s2.3 7 7.1 7 7.1-3.8 7.1-7c0-1.4-.4-2.8-1.2-4l-.8-1zm-2 5c0 1.9-1.4 3.3-3.2 3.3-1.7 0-3.2-1.4-3.2-3.3s1.4-3.3 3.2-3.3c1.8 0 3.2 1.4 3.2 3.3m-10.3 0c0-3.2-2.3-7-7.1-7s-7.1 3.8-7.1 7 2.3 7 7.1 7 7.1-3.8 7.1-7m-3.9 0c0 1.9-1.4 3.3-3.2 3.3-1.7 0-3.2-1.4-3.2-3.3s1.4-3.3 3.2-3.3c1.7 0 3.2 1.4 3.2 3.3m-14.2-1.5h4c-.7-3.2-3.5-5.5-7-5.5-3.9 0-6.9 3.1-6.9 7s3.1 7 7 7c3.6 0 6.2-2.4 6.9-5.4h-4c-.4.8-1.2 1.8-2.8 1.8-1.9 0-3.1-1.4-3.1-3.3 0-.9.3-1.8.9-2.4.6-.6 1.4-1 2.3-.9 1.4-.2 2.2.8 2.7 1.7m-14.1-1.4h3.9c-.3-3.5-3.3-4.1-5.1-4.1-2.7 0-5.1 1.7-5.1 4.5 0 1.8 1.4 2.9 3.1 3.4 2.5 1 3.5 1.1 3.5 2 0 .6-.7 1-1.4 1-.2 0-1.3 0-1.5-1.2h-3.9c.4 3.5 3.4 4.4 5.4 4.4 2.9 0 5.4-1.7 5.4-4.6 0-2.8-2.4-3.5-4.6-4.1-1-.3-2-.7-2-1.3 0-.4.3-.9 1.1-.9 1.1-.1 1.2.6 1.2.9" style="fill:#1d1d1b" transform="matrix(.66456 0 0 .66456 373.13 67.674)"/></svg>