<?xml version="1.0" encoding="UTF-8" standalone="no"?>
<!-- Created with Inkscape (http://www.inkscape.org/) -->

<svg
   xmlns:dc="http://purl.org/dc/elements/1.1/"
   xmlns:cc="http://creativecommons.org/ns#"
   xmlns:rdf="http://www.w3.org/1999/02/22-rdf-syntax-ns#"
   xmlns:svg="http://www.w3.org/2000/svg"
   xmlns="http://www.w3.org/2000/svg"
   xmlns:sodipodi="http://sodipodi.sourceforge.net/DTD/sodipodi-0.dtd"
   xmlns:inkscape="http://www.inkscape.org/namespaces/inkscape"
   width="255.5"
   height="110.5"
   id="svg23340"
   version="1.1"
   inkscape:version="0.91 r13725"
   sodipodi:docname="SFExpress_logo_SC.svg">
  <defs
     id="defs23342">
    <clipPath
       id="clip4">
      <path
         inkscape:connector-curvature="0"
         d="m 0,0 744.10156,0 0,1052.3633 L 0,1052.3633 0,0 z m 0,0"
         id="path16" />
    </clipPath>
  </defs>
  <sodipodi:namedview
     id="base"
     pagecolor="#ffffff"
     bordercolor="#666666"
     borderopacity="1.0"
     inkscape:pageopacity="0.0"
     inkscape:pageshadow="2"
     inkscape:zoom="1.98"
     inkscape:cx="151.88847"
     inkscape:cy="103.44382"
     inkscape:document-units="px"
     inkscape:current-layer="layer1"
     showgrid="false"
     fit-margin-top="0"
     fit-margin-left="0"
     fit-margin-right="0"
     fit-margin-bottom="0"
     inkscape:window-width="1440"
     inkscape:window-height="838"
     inkscape:window-x="-8"
     inkscape:window-y="-8"
     inkscape:window-maximized="1" />
  <metadata
     id="metadata23345">
    <rdf:RDF>
      <cc:Work
         rdf:about="">
        <dc:format>image/svg+xml</dc:format>
        <dc:type
           rdf:resource="http://purl.org/dc/dcmitype/StillImage" />
        <dc:title />
      </cc:Work>
    </rdf:RDF>
  </metadata>
  <g
     inkscape:label="Layer 1"
     inkscape:groupmode="layer"
     id="layer1"
     transform="translate(0,-941.8622)">
    <g
       id="g3355">
      <path
         inkscape:connector-curvature="0"
         id="path13547"
         d="m 74.87425,1001.9193 c -2.348637,0 -4.121087,-1.7627 -4.121087,-4.02344 0,-2.25586 1.77245,-4.1211 4.121087,-4.1211 2.250975,0 4.01855,1.86524 4.01855,4.1211 0,2.26074 -1.86035,4.02344 -4.01855,4.02344"
         style="clip-rule:nonzero;fill:#d70a23;fill-opacity:1;fill-rule:nonzero;stroke:none" />
      <path
         inkscape:connector-curvature="0"
         id="path13549"
         d="m 58.887925,967.0023 c 7.548825,0 14.61425,2.06055 20.590813,5.59082 l 7.163087,-5.59082 c -7.944337,-5.3955 -17.45605,-8.53515 -27.7539,-8.53515 -10.2002,0 -19.809575,3.13965 -27.661138,8.53515 l 7.060551,5.59082 c 6.0791,-3.53027 13.149412,-5.59082 20.600587,-5.59082"
         style="clip-rule:nonzero;fill:#211714;fill-opacity:1;fill-rule:nonzero;stroke:none" />
      <path
         inkscape:connector-curvature="0"
         id="path13551"
         d="m 38.287338,1021.7337 -7.060551,5.4883 c 7.851563,5.3907 17.460938,8.5352 27.661138,8.5352 10.29785,0 19.809563,-3.1445 27.7539,-8.5352 l -7.163087,-5.4883 c -5.976563,3.5254 -13.041988,5.4883 -20.590813,5.4883 -7.451175,0 -14.521488,-1.9629 -20.600587,-5.4883"
         style="clip-rule:nonzero;fill:#211714;fill-opacity:1;fill-rule:nonzero;stroke:none" />
      <path
         inkscape:connector-curvature="0"
         id="path13553"
         d="m 28.7805,997.11461 c 0,-7.45606 2.055663,-14.52149 5.58105,-20.5957 l -5.58105,-7.06543 c -5.29785,7.84668 -8.4375,17.35839 -8.4375,27.66113 0,10.29789 3.13965,19.81449 8.4375,27.75389 l 5.58105,-7.1533 c -3.525387,-6.084 -5.58105,-13.0518 -5.58105,-20.60059"
         style="clip-rule:nonzero;fill:#211714;fill-opacity:1;fill-rule:nonzero;stroke:none" />
      <path
         inkscape:connector-curvature="0"
         id="path13555"
         d="m 83.502175,1017.7103 5.493175,7.1582 c 5.3955,-7.9492 8.53515,-17.456 8.53515,-27.75389 0,-10.30274 -3.13965,-19.81445 -8.53515,-27.66113 l -5.493175,7.06543 c 3.535163,6.07421 5.493175,13.13964 5.493175,20.5957 0,7.54879 -1.958012,14.51659 -5.493175,20.59569"
         style="clip-rule:nonzero;fill:#211714;fill-opacity:1;fill-rule:nonzero;stroke:none" />
      <path
         inkscape:connector-curvature="0"
         id="path13557"
         d="m 46.431863,1015.6498 c -3.925775,0 -7.353513,-1.084 -10.395501,-3.3301 l -0.102499,0 0,-0.2002 0,-6.665 0,-0.6934 0.493162,0.4883 c 0.786125,1.084 4.121088,4.4238 9.5166,4.4238 4.111325,0 4.50195,-3.042 4.50195,-4.4238 0,-2.6465 -2.73925,-4.1162 -5.786125,-5.58596 l -0.190475,-0.0977 c -4.023438,-1.96289 -8.53515,-4.11621 -8.53515,-9.90723 0,-5.29785 4.414062,-9.21875 10.498037,-9.5166 l 0.786138,0 c 5.292975,0 7.93945,1.96289 8.427737,2.36328 l 0.09763,0.0879 0,0.19531 0,5.69336 0,0.59082 -0.488275,-0.39062 c -1.86035,-1.67481 -4.897462,-2.65137 -7.744137,-2.65137 -1.284187,0 -2.456062,0.19531 -3.242188,0.58594 -1.269537,0.58593 -1.860362,1.57226 -1.860362,3.04199 0,1.76758 2.158213,2.8418 4.809575,4.21387 l 0.488287,0.20507 c 3.432613,1.86036 9.311513,4.79493 9.311513,11.47461 0,2.8369 -1.17675,5.7861 -3.0371,7.4512 -1.86035,1.665 -4.609375,2.6465 -7.548838,2.6465"
         style="clip-rule:nonzero;fill:#211714;fill-opacity:1;fill-rule:nonzero;stroke:none" />
      <path
         inkscape:connector-curvature="0"
         id="path13559"
         d="m 67.315663,1015.8451 -0.288088,0 -5.986337,0 -0.292963,0 0,-0.293 0,-32.95898 0,-0.19531 0.205075,-0.0977 c 0.18555,-0.0977 5.678712,-2.25586 11.474613,-2.25586 6.269525,0 9.409175,2.35352 9.409175,2.35352 l 0.09762,0.10742 0,0.18555 0,5.79101 0,0.49317 -0.390625,-0.29297 c -0.590825,-0.39063 -3.334962,-2.3584 -8.432624,-2.45606 l -0.292963,0 c -2.651362,0 -4.521488,0.58594 -5.400387,0.88867 l -0.1025,0.0879 0,0.0977 0,28.25194 0,0.293 z m 0,0"
         style="clip-rule:nonzero;fill:#211714;fill-opacity:1;fill-rule:nonzero;stroke:none" />
      <path
         inkscape:connector-curvature="0"
         id="path13561"
         d="m 109.63499,1020.806 2.81739,0 0,-19.1113 -2.81739,0 0,19.1113 z m 8.15918,-17.9883 0,-2.6757 12.5,0 0,2.6757 -5.61523,0 -0.84473,1.9629 1.40625,0 4.49708,0 0,14.4776 -2.95412,0 0,-11.8018 -5.47851,0 0,11.8018 -2.95899,0 0,-14.4776 2.67579,0 0.83984,-1.9629 -4.06738,0 z m 7.58301,15.459 0,-9.1308 -2.67089,0 0,9.1308 c -0.14161,1.543 -0.14161,3.374 -4.21388,3.374 l 0,2.8077 0.1416,0 c 2.80763,-0.1368 4.49708,-0.9815 5.3418,-1.9629 0.98145,0.9814 2.6709,1.8261 5.3418,1.9629 l 0.27344,0 0,-2.8077 c -4.07226,0 -4.21387,-1.831 -4.21387,-3.374 m -17.00683,-18.2715 -2.6709,0 0,17.4317 c 0,2.5244 -0.41992,3.7939 -1.40137,4.497 l 1.26465,2.5245 c 1.40137,-0.8399 2.6709,-2.5245 2.80762,-6.0352 l 0,-0.1465 0,-0.8398 0,-17.4317 z m 71.96776,16.8653 c 0,0.1416 0.41993,4.9218 5.33693,4.9218 l 12.93456,0 0,2.9493 -12.93456,0 c -3.37403,0 -5.33693,-1.543 -6.60156,-3.2325 -1.12305,2.1094 -3.09572,3.2325 -5.4834,3.2325 l 0,-2.9493 c 2.10937,0 3.23241,-1.2646 3.65233,-4.497 l 0,-5.9033 -3.09081,0 0,-3.0958 6.18651,0 0,8.2959 0,0.2784 z m -0.1416,-12.2266 -3.94042,-3.7988 -2.2461,2.1094 3.94044,3.9404 2.24608,-2.251 z m 11.38184,3.9356 2.9541,0 0,2.246 -2.9541,0 0,-2.246 z m -2.94921,2.246 -2.9541,0 0,-2.246 2.9541,0 0,2.246 z m 4.92187,2.6709 4.07227,0 0,-7.583 -6.04493,0 0,-1.4062 7.03125,0 0,-2.8125 -6.88476,0 0,-2.25587 -3.0957,0 0,2.25587 -6.88478,0 0,2.8125 6.88478,0 0,1.4062 -5.89844,0 0,7.583 3.93554,0 c -0.5664,2.1143 -1.97265,3.0957 -4.08203,3.0957 l 0,2.6661 c 2.25098,0 4.77539,-0.6983 6.04493,-3.6475 l 0,5.4785 2.94921,0 0,-5.4785 c 1.26954,2.9492 3.93555,3.6475 6.19141,3.6475 l 0,-2.6661 c -2.11426,0 -3.65722,-0.9814 -4.21875,-3.0957 m 25.01953,2.9541 4.49707,-6.748 -5.48828,0 0,-2.8076 16.167,0 0,2.8076 -6.74317,0 -4.917,7.0312 6.88477,0 -1.54785,-2.5341 2.6709,-1.543 3.93555,6.46 -2.66602,1.5527 -0.7129,-1.1231 -12.08007,0 0,-1.831 0,-0.9815 0,-0.2832 z m 13.34472,-15.6054 -12.79296,0 0,2.8125 12.79296,0 0,-2.8125 z m -15.60058,16.0254 0,-0.2784 0,-8.2959 -6.18164,0 0,3.0958 3.22754,0 0,5.9033 c -0.41992,3.2324 -1.54297,4.497 -3.78907,4.497 l 0,2.9493 c 2.53419,0 4.36035,-1.1231 5.4834,-3.2325 1.25977,1.6895 3.36914,3.2325 6.74317,3.2325 l 12.79297,0 0,-2.9493 -12.79297,0 c -5.05372,0 -5.4834,-4.7802 -5.4834,-4.9218 m -0.13183,-12.2266 -3.94531,-3.7988 -2.1045,2.1094 3.93555,3.9404 2.11426,-2.251 z m -62.27051,20.0977 -3.51563,0 0,-4.0723 -9.83886,0 0,-2.9541 9.83886,0 0,-4.2188 -7.16308,0 0,-3.0908 7.16308,0 0,-4.2187 -9.13573,0 0,-2.9492 9.13573,0 0,-3.79887 3.51563,0 0,3.79887 9.14062,0 0,2.9492 -9.14062,0 0,4.2187 7.16796,0 0,3.0908 -7.16796,0 0,4.2188 9.83399,0 0,2.9541 -9.83399,0 0,4.0723 z m -40.20508,-0.2832 2.81738,0 0,-24.4532 -2.81738,0 0,24.4532 z m 0,0"
         style="clip-rule:nonzero;fill:#211714;fill-opacity:1;fill-rule:nonzero;stroke:none" />
      <path
         inkscape:connector-curvature="0"
         id="path13563"
         d="m 183.57054,970.21031 15.03906,0 0,4.35547 -9.27734,0 0,5.19531 8.15429,0 0,4.36524 -8.15429,0 0,5.76172 9.27734,0 0,4.63378 -15.03906,0 0,-24.31152 z m -34.44337,11.80664 c 0,0 2.39259,0 3.93555,-0.42969 1.55274,-0.41992 2.67579,-1.82617 2.67579,-3.50585 0,-1.40625 -0.70312,-2.8125 -2.67579,-3.23731 -1.12305,-0.1416 -3.22753,-0.1416 -3.93555,-0.1416 l 0,7.31445 z m -5.89355,12.50488 0,-24.31152 8.70605,0 c 4.63868,0 9.14063,1.54297 9.14063,7.72949 0,7.02637 -6.18164,8.98926 -11.80664,8.98926 l 0,7.59277 -6.04004,0 z m 25.57129,-13.35449 c 1.69923,0 2.9541,-0.13672 3.79883,-0.70312 1.25977,-0.70313 1.54786,-2.10449 1.54786,-3.08594 0,-2.8125 -2.66603,-3.0957 -3.93555,-3.0957 -0.41993,0 -0.84473,0 -1.41114,0.1416 l 0,6.74316 z m -5.89355,13.35449 0,-24.31152 6.45996,0 c 3.94043,-0.14648 5.76172,0.2832 7.45117,1.26465 2.8125,1.40137 3.23242,4.35059 3.23242,5.90332 0,4.63867 -3.0957,6.04004 -4.63867,6.74805 0.83985,1.39648 5.47852,8.71093 6.74317,10.3955 l -6.74317,0 c -2.24609,-4.49707 -2.8125,-5.20019 -5.05859,-9.13574 l -1.55274,0.13672 0,8.99902 -5.89355,0 z m 51.71875,-13.21289 c -0.98145,-0.69824 -1.82128,-1.11816 -2.6709,-1.40136 l -0.84472,-0.41992 c -2.80763,-1.12793 -4.20899,-1.83106 -4.20899,-3.37891 0,-0.98633 0.98145,-2.3877 3.08594,-2.3877 2.53417,0 4.36035,1.12305 5.4834,1.97266 l 0.4248,0.13184 0,-4.91211 -0.28809,-0.14649 c -1.40625,-0.55664 -2.80273,-1.25976 -6.04004,-1.25976 -6.32324,0 -8.43261,3.65234 -8.43261,7.30957 0,4.21386 3.09082,5.62011 4.91699,6.60156 l 1.12305,0.56152 c 2.39257,0.98633 4.07715,1.82617 4.07715,3.65723 0,1.26465 -1.12305,2.80762 -3.93555,2.80762 -3.09082,0 -4.91212,-1.40625 -5.90332,-2.2461 l -0.27832,-0.1416 0,5.34668 0.14649,0 c 0.27343,0.13672 0.69823,0.41504 0.97656,0.41504 0.84472,0.2832 2.8125,0.99121 5.33691,0.99121 0.99121,0 3.51563,-0.14648 5.48828,-1.13281 2.8125,-1.40137 3.93555,-4.07227 3.93555,-6.88477 0,-1.96777 -0.70802,-4.07226 -2.39258,-5.4834 m 17.98828,0 c -0.83496,-0.69824 -1.67969,-1.11816 -2.52442,-1.40136 l -0.84472,-0.41992 c -2.80761,-1.12793 -4.21875,-1.83106 -4.21875,-3.37891 0,-0.98633 0.84473,-2.3877 3.0957,-2.3877 2.52441,0 4.21875,1.12305 5.4834,1.97266 l 0.27832,0.13184 0,-4.91211 -0.1416,-0.14649 c -1.40137,-0.55664 -2.9541,-1.25976 -6.04003,-1.25976 -6.33302,0 -8.58399,3.65234 -8.58399,7.30957 0,4.21386 3.24219,5.62011 5.06836,6.60156 l 1.12304,0.56152 c 2.2461,0.98633 4.08204,1.82617 4.08204,3.65723 0,1.26465 -1.12794,2.80762 -4.08204,2.80762 -2.94921,0 -4.92188,-1.40625 -5.76171,-2.2461 l -0.42969,-0.1416 0,5.34668 0.14649,0 c 0.4248,0.13672 0.70312,0.41504 1.12303,0.41504 0.70802,0.2832 2.81739,0.99121 5.2002,0.99121 0.98633,0 3.51563,-0.14648 5.62989,-1.13281 2.80761,-1.40137 3.93554,-4.07227 3.93554,-6.88477 0,-1.96777 -0.708,-4.07226 -2.53906,-5.4834 m -107.93945,8.85254 4.49707,-8.00781 -2.1045,-3.79394 c -1.41112,-2.53418 -3.0957,-5.33692 -4.64355,-8.14942 l 6.04004,0 3.37402,6.04492 3.51563,-6.04492 6.04492,0 c -0.70312,1.26465 -1.54297,2.8125 -2.2461,4.07227 l -4.50194,8.00781 2.10937,3.80371 c 1.40625,2.52441 3.23243,5.62012 4.77539,8.42773 l -6.04004,0 -3.65723,-6.32324 -3.64746,6.32324 -5.7666,0 c 0,0 1.54785,-3.09082 2.25098,-4.36035 m -18.97949,-19.95117 15.03906,0 0,4.35547 -9.27735,0 0,5.19531 8.1543,0 0,4.36524 -8.1543,0 0,5.76172 9.27735,0 0,4.63378 -15.03906,0 0,-24.31152 z m 0,0"
         style="clip-rule:nonzero;fill:#211714;fill-opacity:1;fill-rule:nonzero;stroke:none" />
    </g>
  </g>
</svg>
