<svg xmlns="http://www.w3.org/2000/svg" width="255.5" height="110.5"><path d="M74.874 1001.92c-2.348 0-4.12-1.763-4.12-4.024 0-2.256 1.772-4.121 4.12-4.121 2.251 0 4.019 1.865 4.019 4.12 0 2.262-1.86 4.024-4.019 4.024" style="clip-rule:nonzero;fill:#d70a23;fill-opacity:1;fill-rule:nonzero;stroke:none" transform="translate(0 -941.862)"/><path d="M58.888 967.002c7.549 0 14.614 2.06 20.59 5.591l7.164-5.59c-7.945-5.396-17.456-8.536-27.754-8.536-10.2 0-19.81 3.14-27.661 8.535l7.06 5.591c6.08-3.53 13.15-5.59 20.6-5.59M38.287 1021.734l-7.06 5.488c7.851 5.39 17.46 8.535 27.66 8.535 10.299 0 19.81-3.144 27.755-8.535l-7.163-5.488c-5.977 3.525-13.042 5.488-20.591 5.488-7.451 0-14.522-1.963-20.6-5.488M28.78 997.115c0-7.456 2.056-14.522 5.582-20.596l-5.582-7.066c-5.297 7.847-8.437 17.359-8.437 27.662 0 10.297 3.14 19.814 8.438 27.753l5.58-7.153c-3.525-6.084-5.58-13.052-5.58-20.6M83.502 1017.71l5.493 7.158c5.396-7.949 8.535-17.455 8.535-27.753 0-10.303-3.14-19.815-8.535-27.662l-5.493 7.066c3.535 6.074 5.493 13.14 5.493 20.596 0 7.548-1.958 14.516-5.493 20.595M46.432 1015.65c-3.926 0-7.354-1.084-10.396-3.33h-.102v-7.559l.493.488c.786 1.084 4.121 4.424 9.517 4.424 4.11 0 4.502-3.042 4.502-4.424 0-2.646-2.74-4.116-5.787-5.586l-.19-.097c-4.023-1.963-8.535-4.116-8.535-9.907 0-5.298 4.414-9.22 10.498-9.517h.786c5.293 0 7.94 1.963 8.428 2.363l.097.088v6.479l-.488-.39c-1.86-1.675-4.897-2.651-7.744-2.651-1.284 0-2.456.195-3.242.586-1.27.585-1.86 1.572-1.86 3.042 0 1.767 2.158 2.841 4.809 4.213l.488.205c3.433 1.86 9.312 4.795 9.312 11.475 0 2.837-1.177 5.786-3.037 7.451-1.86 1.665-4.61 2.647-7.55 2.647M67.316 1015.845H60.748v-33.447l.205-.098c.186-.098 5.68-2.256 11.475-2.256 6.27 0 9.41 2.354 9.41 2.354l.097.107v6.47l-.39-.293c-.592-.39-3.336-2.358-8.433-2.456h-.293c-2.652 0-4.522.586-5.4.889l-.103.087V1015.845zM109.635 1020.806h2.817v-19.111h-2.817v19.111zm8.16-17.988v-2.676h12.5v2.676h-5.616l-.845 1.963h5.904v14.477h-2.955v-11.802h-5.478v11.802h-2.96v-14.477h2.677l.84-1.963h-4.068zm7.582 15.459v-9.131h-2.67v9.13c-.142 1.544-.142 3.375-4.215 3.375v2.807h.142c2.808-.136 4.497-.981 5.342-1.963.981.982 2.67 1.827 5.342 1.963h.273v-2.807c-4.072 0-4.214-1.831-4.214-3.374m-17.007-18.272h-2.67v17.432c0 2.524-.42 3.794-1.402 4.497l1.265 2.524c1.401-.84 2.67-2.524 2.807-6.035v-18.418zm71.968 16.866c0 .141.42 4.921 5.337 4.921h12.935v2.95h-12.935c-3.374 0-5.337-1.543-6.602-3.233-1.123 2.11-3.095 3.233-5.483 3.233v-2.95c2.11 0 3.232-1.264 3.652-4.497v-5.903h-3.09v-3.096h6.186v8.575zm-.141-12.227-3.94-3.799-2.247 2.11 3.94 3.94 2.247-2.251zm11.381 3.936h2.954v2.246h-2.954v-2.246zm-2.949 2.246h-2.954v-2.246h2.954v2.246zm4.922 2.67h4.072v-7.583h-6.045v-1.406h7.032v-2.812h-6.885v-2.256h-3.096v2.256h-6.885v2.812h6.885v1.406h-5.898v7.583h3.935c-.566 2.115-1.972 3.096-4.082 3.096v2.666c2.251 0 4.776-.698 6.045-3.647v5.478h2.95v-5.478c1.269 2.949 3.935 3.647 6.19 3.647v-2.666c-2.113 0-3.656-.981-4.218-3.096m25.02 2.955 4.497-6.748h-5.489v-2.808h16.167v2.808h-6.743l-4.917 7.03h6.885l-1.548-2.533 2.671-1.543 3.936 6.46-2.666 1.552-.713-1.123h-12.08v-3.095zm13.344-15.606h-12.793v2.813h12.793v-2.813zm-15.6 16.026v-8.575h-6.182v3.096h3.228v5.903c-.42 3.233-1.543 4.497-3.79 4.497v2.95c2.535 0 4.36-1.123 5.484-3.233 1.26 1.69 3.369 3.233 6.743 3.233h12.793v-2.95h-12.793c-5.054 0-5.483-4.78-5.483-4.921m-.132-12.227-3.945-3.799-2.105 2.11 3.936 3.94 2.114-2.251zm-62.27 20.098h-3.516v-4.073h-9.84v-2.954h9.84v-4.219h-7.163v-3.09h7.163v-4.22h-9.136v-2.948h9.136v-3.8h3.515v3.8h9.141v2.949h-9.14v4.219h7.167v3.09h-7.168v4.22h9.834v2.953h-9.834v4.073zm-40.206-.284h2.818v-24.453h-2.818v24.453zM183.57 970.21h15.04v4.356h-9.278v5.195h8.155v4.365h-8.155v5.762h9.278v4.634h-15.04V970.21zm-34.443 11.807s2.393 0 3.936-.43a3.619 3.619 0 0 0 2.676-3.506c0-1.406-.704-2.812-2.676-3.237-1.123-.142-3.228-.142-3.936-.142v7.315zm-5.893 12.505V970.21h8.706c4.638 0 9.14 1.543 9.14 7.73 0 7.026-6.181 8.99-11.806 8.99v7.592h-6.04zm25.57-13.355c1.7 0 2.955-.136 3.8-.703 1.26-.703 1.548-2.104 1.548-3.086 0-2.812-2.666-3.095-3.936-3.095-.42 0-.845 0-1.411.141v6.743zm-5.893 13.355V970.21h6.46c3.94-.146 5.762.284 7.451 1.265 2.813 1.401 3.233 4.35 3.233 5.903 0 4.639-3.096 6.04-4.639 6.748.84 1.397 5.479 8.711 6.743 10.396h-6.743c-2.246-4.497-2.812-5.2-5.058-9.136l-1.553.137v8.999h-5.894zm51.72-13.213c-.982-.698-1.822-1.118-2.672-1.401l-.845-.42c-2.807-1.128-4.209-1.831-4.209-3.38 0-.986.982-2.387 3.086-2.387 2.535 0 4.36 1.123 5.484 1.973l.425.132v-4.913l-.288-.146c-1.407-.557-2.803-1.26-6.04-1.26-6.324 0-8.433 3.653-8.433 7.31 0 4.214 3.09 5.62 4.917 6.601l1.123.562c2.393.986 4.077 1.826 4.077 3.657 0 1.265-1.123 2.808-3.935 2.808-3.091 0-4.913-1.407-5.904-2.246l-.278-.142v5.347h.146c.274.136.699.415.977.415.845.283 2.812.99 5.337.99.991 0 3.515-.146 5.488-1.132 2.813-1.401 3.936-4.072 3.936-6.885 0-1.967-.708-4.072-2.393-5.483m17.988 0a7.61 7.61 0 0 0-2.524-1.401l-.845-.42c-2.807-1.128-4.219-1.831-4.219-3.38 0-.986.845-2.387 3.096-2.387 2.525 0 4.219 1.123 5.484 1.973l.278.132v-4.913l-.142-.146c-1.401-.557-2.954-1.26-6.04-1.26-6.333 0-8.584 3.653-8.584 7.31 0 4.214 3.242 5.62 5.069 6.601l1.123.562c2.246.986 4.082 1.826 4.082 3.657 0 1.265-1.128 2.808-4.082 2.808-2.95 0-4.922-1.407-5.762-2.246l-.43-.142v5.347h.147c.425.136.703.415 1.123.415.708.283 2.817.99 5.2.99.986 0 3.516-.146 5.63-1.132 2.808-1.401 3.935-4.072 3.935-6.885 0-1.967-.708-4.072-2.539-5.483m-107.94 8.852 4.498-8.007-2.104-3.794c-1.412-2.534-3.096-5.337-4.644-8.15h6.04l3.374 6.045 3.516-6.045h6.045c-.704 1.265-1.543 2.813-2.247 4.073l-4.501 8.007 2.109 3.804c1.406 2.525 3.232 5.62 4.775 8.428h-6.04l-3.657-6.323-3.647 6.323h-5.767s1.548-3.091 2.25-4.36M105.7 970.21h15.04v4.356h-9.278v5.195h8.154v4.365h-8.154v5.762h9.278v4.634h-15.04V970.21zm0 0" style="clip-rule:nonzero;fill:#211714;fill-opacity:1;fill-rule:nonzero;stroke:none" transform="translate(0 -941.862)"/></svg>