<svg xmlns="http://www.w3.org/2000/svg" xml:space="preserve" width="566.014" height="124"><defs><clipPath clipPathUnits="userSpaceOnUse" id="a"><path d="M0 0h612v792H0Z"/></clipPath><clipPath clipPathUnits="userSpaceOnUse" id="b"><path d="M0 0h612v792H0Z"/></clipPath><clipPath clipPathUnits="userSpaceOnUse" id="c"><path d="M0 0h612v792H0Z"/></clipPath><clipPath clipPathUnits="userSpaceOnUse" id="d"><path d="M0 0h612v792H0Z"/></clipPath><clipPath clipPathUnits="userSpaceOnUse" id="e"><path d="M0 0h612v792H0Z"/></clipPath></defs><g clip-path="url(#a)" transform="matrix(3.49391 0 0 -3.49391 -1488.406 2708.51)"><path d="m0 0-1.082.512c-1.629.765-2.292 1.197-2.292 2.41 0 1.122.857 1.907 2.084 1.907 1.17 0 1.957-.438 2.554-1.418l.063-.105 1.186.759-.062.1C1.598 5.546.403 6.189-1.31 6.189c-2.064 0-3.562-1.391-3.562-3.307 0-1.894 1.158-2.809 3.157-3.747l1.083-.512c1.624-.753 2.449-1.39 2.449-2.784 0-1.346-1.07-2.182-2.792-2.182-1.494 0-2.7.725-3.397 2.041l-.056.106-1.293-.682.056-.106c.943-1.779 2.616-2.758 4.709-2.758 2.646 0 4.29 1.387 4.29 3.621C3.334-2.005 2.112-1.008 0 0" style="fill:#100f0d;fill-opacity:1;fill-rule:nonzero;stroke:none" transform="translate(431.72 754.511)"/></g><path d="M0 0h-7.06v7.83h-1.518V-5.787h1.518v4.407H0v-4.407h1.517V7.83H0Z" style="fill:#100f0d;fill-opacity:1;fill-rule:nonzero;stroke:none" transform="matrix(3.49391 0 0 -3.49391 70.19 78.597)"/><g clip-path="url(#b)" transform="matrix(3.49391 0 0 -3.49391 -1488.406 2708.51)"><path d="m0 0-5.725-13.931h1.538l.944 2.321h6.744l.925-2.321h1.577L.258 0Zm2.938-10.23h-5.632L.139-3.251c.931-2.31 2.481-6.163 2.799-6.979" style="fill:#100f0d;fill-opacity:1;fill-rule:nonzero;stroke:none" transform="translate(455.336 760.857)"/></g><path d="M0 0h-1.74l-5.902-7.487V0h-1.517v-13.617h1.517v4.052L-6.05-7.59l4.783-6.027H.572l-5.663 7.143z" style="fill:#100f0d;fill-opacity:1;fill-rule:nonzero;stroke:none" transform="matrix(3.49391 0 0 -3.49391 162.473 51.24)"/><path d="M0 0h6.059v1.36H0v6.45h6.787v1.38h-8.305V-4.427h8.581v1.38H0Z" style="fill:#100f0d;fill-opacity:1;fill-rule:nonzero;stroke:none" transform="matrix(3.49391 0 0 -3.49391 176.191 83.35)"/><g clip-path="url(#c)" transform="matrix(3.49391 0 0 -3.49391 -1488.406 2708.51)"><path d="m0 0-1.082.512c-1.629.765-2.292 1.197-2.292 2.41 0 1.122.857 1.907 2.084 1.907 1.17 0 1.958-.438 2.554-1.418l.063-.105 1.186.759-.062.1C1.598 5.546.403 6.189-1.31 6.189c-2.064 0-3.562-1.391-3.562-3.307 0-1.894 1.157-2.809 3.157-3.747l1.083-.512c1.624-.753 2.449-1.39 2.449-2.784 0-1.346-1.07-2.182-2.793-2.182-1.493 0-2.699.725-3.396 2.042l-.056.105-1.293-.682.056-.106c.943-1.779 2.616-2.759 4.709-2.759 2.646 0 4.29 1.388 4.29 3.622C3.334-2.005 2.112-1.008 0 0" style="fill:#100f0d;fill-opacity:1;fill-rule:nonzero;stroke:none" transform="translate(529.89 754.511)"/></g><path d="M0 0h-7.06v7.83h-1.518V-5.787h1.518v4.407H0v-4.407h1.517V7.83H0Z" style="fill:#100f0d;fill-opacity:1;fill-rule:nonzero;stroke:none" transform="matrix(3.49391 0 0 -3.49391 413.182 78.597)"/><g clip-path="url(#d)" transform="matrix(3.49391 0 0 -3.49391 -1488.406 2708.51)"><path d="m0 0-5.725-13.931h1.537l.945 2.321h6.744l.924-2.321h1.578L.258 0Zm2.938-10.23h-5.632L.138-3.251c.932-2.31 2.482-6.163 2.8-6.979" style="fill:#100f0d;fill-opacity:1;fill-rule:nonzero;stroke:none" transform="translate(553.504 760.857)"/><path d="M0 0c-1.067-1.423-2.606-2.175-4.449-2.175-3.123 0-5.389 2.34-5.389 5.566 0 3.173 2.275 5.566 5.291 5.566 1.758 0 3.169-.673 4.194-2l.071-.091 1.176.847-.074.098c-1.27 1.665-3.119 2.546-5.348 2.546-3.926 0-6.887-2.995-6.887-6.966-.009-1.922.688-3.687 1.963-4.968 1.282-1.288 3.045-1.998 4.964-1.998 2.395 0 4.306.916 5.682 2.723l.075.098L.07.093Z" style="fill:#100f0d;fill-opacity:1;fill-rule:nonzero;stroke:none" transform="translate(571.155 750.343)"/></g><path d="m0 0 5.091 6.473h-1.74l-5.902-7.487v7.487h-1.517V-7.143h1.517v4.051l1.592 1.976 4.783-6.027h1.839z" style="fill:#100f0d;fill-opacity:1;fill-rule:nonzero;stroke:none" transform="matrix(3.49391 0 0 -3.49391 533.25 73.858)"/><g clip-path="url(#e)" transform="matrix(3.49391 0 0 -3.49391 -1488.406 2708.51)"><path d="M0 0V1.849c.964.024 1.167.305 1.35.554.175.264.188.61.187.612v.007C1.543 5.326.089 7.525-2.488 9.206c-2.564 1.67-6.195 2.738-10.21 2.736-4.015.002-7.646-1.066-10.207-2.736-2.579-1.681-4.031-3.88-4.025-6.184v-.007c.005 0 .012-.348.184-.612.186-.249.39-.53 1.351-.554H0V0h-25.395c-1.454-.027-2.481.673-2.922 1.43-.454.745-.458 1.423-.462 1.585v.007c.116 6.282 7.468 10.752 16.081 10.77 8.617-.018 15.966-4.488 16.084-10.77v-.007c-.005-.162-.012-.838-.466-1.585C2.49.686 1.491-.002.081-.002L0 0" style="fill:#55a335;fill-opacity:1;fill-rule:nonzero;stroke:none" transform="translate(517.189 761.416)"/><path d="M0 0c-2.335.019-3.802.207-4.879 1.075-1.08.929-1.193 2.243-1.197 3.663v.004c.004.169.019.801.504 1.471.487.683 1.477 1.224 2.881 1.209h25.395V5.573H-2.691c-1.009-.016-1.256-.29-1.393-.456a.703.703 0 0 1-.143-.361V4.738c-.003-1.381.178-1.971.536-2.248.357-.34 1.466-.658 3.691-.64h19.04c2.713-.013 4.084.365 4.586.778.467.355.603.865.615 2.064 0 .013 0 .031-.002.05-.007.005.002.029-.016.106a.872.872 0 0 1-.124.269c-.141.166-.383.44-1.395.456V7.422c1.406.015 2.397-.526 2.882-1.209a2.604 2.604 0 0 0 .501-1.394c.003-.006.003-.02.003-.04l.001-.041c.006-1.273-.142-2.661-1.342-3.578C23.573.294 21.881.017 19.04 0Z" style="fill:#55a335;fill-opacity:1;fill-rule:nonzero;stroke:none" transform="translate(494.485 739.718)"/><path d="M0 0c-1.526.004-2.828 1.183-2.835 2.732C-2.828 4.287-1.526 5.461 0 5.467h26.496c1.523-.006 2.825-1.18 2.833-2.735C29.321 1.183 28.019.004 26.496 0Zm-.988 2.732c0-.443.403-.876.988-.88h26.496c.578.004.984.437.984.88 0 .45-.406.881-.984.887H0c-.585-.006-.988-.437-.988-.887" style="fill:#55a335;fill-opacity:1;fill-rule:nonzero;stroke:none" transform="translate(491.246 748.92)"/><path d="M0 0c-.266.304-.276.583-1.167.641-.593 0-.921-.333-1.063-.499-.04-.043-.038-.043-.049-.066-.06-.102-.879-1.363-2.676-1.38C-6.662-1.357-7.555-.068-7.581 0c-.265.308-.275.583-1.167.641-.593 0-.92-.333-1.065-.499-.036-.043-.036-.043-.046-.066-.058-.102-.877-1.363-2.676-1.38a.924.924 0 1 0 0 1.847c.616 0 .942.325 1.078.477.034.039.031.039.022.022.056.094.86 1.425 2.687 1.452 1.715.055 2.595-1.285 2.624-1.355.2-.221.269-.542 1.169-.596.614 0 .941.325 1.075.477l.029.03c.093.153.899 1.417 2.684 1.444 1.711.055 2.592-1.282 2.62-1.355.204-.223.27-.542 1.17-.596.612 0 .939.325 1.075.477.016.012.023.022.026.026a3.2 3.2 0 0 0 2.688 1.448c1.714.055 2.594-1.285 2.623-1.355.2-.221.267-.542 1.162-.596a.925.925 0 1 0 0-1.847C8.497-1.357 7.603-.068 7.579 0c-.266.308-.275.583-1.167.641-.594 0-.924-.333-1.066-.499-.037-.043-.035-.048-.047-.066-.062-.097-.877-1.363-2.676-1.38-.034-.002-.07-.005-.104-.005C.884-1.309.023-.062 0 0" style="fill:#55a335;fill-opacity:1;fill-rule:nonzero;stroke:none" transform="translate(501.786 757.463)"/><path d="M0 0c-.269.308-.278.583-1.169.641-.593 0-.923-.333-1.065-.499-.035-.043-.035-.043-.046-.066-.06-.098-.876-1.363-2.68-1.38a.92.92 0 0 0-.918.921c0 .513.411.926.918.926a1.387 1.387 0 0 1 1.104.499c.055.094.86 1.425 2.687 1.448 1.713.059 2.594-1.281 2.624-1.354.197-.216.271-.539 1.169-.593a.922.922 0 0 0 0-1.847c-.035-.002-.066-.005-.098-.005C.883-1.306.024-.068 0 0" style="fill:#55a335;fill-opacity:1;fill-rule:nonzero;stroke:none" transform="translate(516.944 757.463)"/><path d="M0 0c0-.245-.043-.468-.129-.669a1.56 1.56 0 0 0-.861-.848 1.62 1.62 0 0 0-.61-.118c-.236 0-.452.042-.649.125a1.52 1.52 0 0 0-.839.861c-.08.199-.12.416-.12.649 0 .245.043.468.129.669.086.201.202.373.349.516a1.606 1.606 0 0 0 1.13.45 1.62 1.62 0 0 0 1.121-.45 1.56 1.56 0 0 0 .35-.516C-.043.468 0 .245 0 0m-.35 0c0 .198-.032.38-.096.546a1.21 1.21 0 0 1-1.154.805 1.238 1.238 0 0 1-.896-.376 1.301 1.301 0 0 1-.266-.429A1.506 1.506 0 0 1-2.859 0c0-.187.03-.361.088-.525a1.28 1.28 0 0 1 .251-.428c.109-.122.241-.219.396-.291.154-.071.329-.107.524-.107a1.216 1.216 0 0 1 1.154.802c.064.165.096.348.096.549m-1.573-.935h-.297V.874h.686c.218 0 .383-.041.494-.122.11-.082.166-.214.166-.398 0-.163-.045-.283-.136-.358a.612.612 0 0 0-.336-.136l.507-.795h-.337l-.468.773h-.279zm.332 1.027c.055 0 .109.002.16.006.05.005.095.017.133.037a.253.253 0 0 1 .092.086.29.29 0 0 1 .035.155.208.208 0 0 1-.131.205.372.372 0 0 1-.127.033 1.61 1.61 0 0 1-.136.007h-.358V.092Z" style="fill:#100f0d;fill-opacity:1;fill-rule:nonzero;stroke:none" transform="translate(588 759.509)"/></g></svg>