<?xml version="1.0" encoding="UTF-8" standalone="no"?>
<!-- Created with Inkscape (http://www.inkscape.org/) -->

<svg
   xmlns:dc="http://purl.org/dc/elements/1.1/"
   xmlns:cc="http://creativecommons.org/ns#"
   xmlns:rdf="http://www.w3.org/1999/02/22-rdf-syntax-ns#"
   xmlns:svg="http://www.w3.org/2000/svg"
   xmlns="http://www.w3.org/2000/svg"
   xmlns:sodipodi="http://sodipodi.sourceforge.net/DTD/sodipodi-0.dtd"
   xmlns:inkscape="http://www.inkscape.org/namespaces/inkscape"
   version="1.1"
   id="svg815"
   xml:space="preserve"
   width="566.01416"
   height="124"
   viewBox="0 0 566.01416 124"
   sodipodi:docname="Shake Shack Logo.svg"
   inkscape:version="0.92.2 (5c3e80d, 2017-08-06)"><metadata
     id="metadata821"><rdf:RDF><cc:Work
         rdf:about=""><dc:format>image/svg+xml</dc:format><dc:type
           rdf:resource="http://purl.org/dc/dcmitype/StillImage" /><dc:title></dc:title></cc:Work></rdf:RDF></metadata><defs
     id="defs819"><clipPath
       clipPathUnits="userSpaceOnUse"
       id="clipPath835"><path
         d="M 0,0 H 612 V 792 H 0 Z"
         id="path833"
         inkscape:connector-curvature="0" /></clipPath><clipPath
       clipPathUnits="userSpaceOnUse"
       id="clipPath847"><path
         d="M 0,0 H 612 V 792 H 0 Z"
         id="path845"
         inkscape:connector-curvature="0" /></clipPath><clipPath
       clipPathUnits="userSpaceOnUse"
       id="clipPath859"><path
         d="M 0,0 H 612 V 792 H 0 Z"
         id="path857"
         inkscape:connector-curvature="0" /></clipPath><clipPath
       clipPathUnits="userSpaceOnUse"
       id="clipPath871"><path
         d="M 0,0 H 612 V 792 H 0 Z"
         id="path869"
         inkscape:connector-curvature="0" /></clipPath><clipPath
       clipPathUnits="userSpaceOnUse"
       id="clipPath887"><path
         d="M 0,0 H 612 V 792 H 0 Z"
         id="path885"
         inkscape:connector-curvature="0" /></clipPath><clipPath
       clipPathUnits="userSpaceOnUse"
       id="clipPath907"><path
         d="M 0,0 H 612 V 792 H 0 Z"
         id="path905"
         inkscape:connector-curvature="0" /></clipPath><clipPath
       clipPathUnits="userSpaceOnUse"
       id="clipPath923"><path
         d="M 0,0 H 612 V 792 H 0 Z"
         id="path921"
         inkscape:connector-curvature="0" /></clipPath><clipPath
       clipPathUnits="userSpaceOnUse"
       id="clipPath943"><path
         d="M 0,0 H 612 V 792 H 0 Z"
         id="path941"
         inkscape:connector-curvature="0" /></clipPath><clipPath
       clipPathUnits="userSpaceOnUse"
       id="clipPath975"><path
         d="M 0,0 H 612 V 792 H 0 Z"
         id="path973"
         inkscape:connector-curvature="0" /></clipPath><clipPath
       clipPathUnits="userSpaceOnUse"
       id="clipPath1043"><path
         d="M 0,0 H 612 V 792 H 0 Z"
         id="path1041"
         inkscape:connector-curvature="0" /></clipPath><clipPath
       clipPathUnits="userSpaceOnUse"
       id="clipPath1055"><path
         d="M 0,0 H 612 V 792 H 0 Z"
         id="path1053"
         inkscape:connector-curvature="0" /></clipPath><clipPath
       clipPathUnits="userSpaceOnUse"
       id="clipPath1169"><path
         d="M 0,0 H 612 V 792 H 0 Z"
         id="path1167"
         inkscape:connector-curvature="0" /></clipPath><clipPath
       clipPathUnits="userSpaceOnUse"
       id="clipPath1207"><path
         d="M 0,0 H 612 V 792 H 0 Z"
         id="path1205"
         inkscape:connector-curvature="0" /></clipPath><clipPath
       clipPathUnits="userSpaceOnUse"
       id="clipPath1271"><path
         d="M 0,0 H 612 V 792 H 0 Z"
         id="path1269"
         inkscape:connector-curvature="0" /></clipPath><clipPath
       clipPathUnits="userSpaceOnUse"
       id="clipPath1305"><path
         d="M 0,0 H 612 V 792 H 0 Z"
         id="path1303"
         inkscape:connector-curvature="0" /></clipPath><clipPath
       clipPathUnits="userSpaceOnUse"
       id="clipPath1417"><path
         d="M 0,0 H 612 V 792 H 0 Z"
         id="path1415"
         inkscape:connector-curvature="0" /></clipPath><clipPath
       clipPathUnits="userSpaceOnUse"
       id="clipPath1513"><path
         d="M 0,0 H 612 V 792 H 0 Z"
         id="path1511"
         inkscape:connector-curvature="0" /></clipPath><clipPath
       clipPathUnits="userSpaceOnUse"
       id="clipPath1621"><path
         d="M 0,0 H 612 V 792 H 0 Z"
         id="path1619"
         inkscape:connector-curvature="0" /></clipPath><clipPath
       clipPathUnits="userSpaceOnUse"
       id="clipPath1649"><path
         d="M 0,0 H 612 V 792 H 0 Z"
         id="path1647"
         inkscape:connector-curvature="0" /></clipPath></defs><sodipodi:namedview
     pagecolor="#ffffff"
     bordercolor="#666666"
     borderopacity="1"
     objecttolerance="10"
     gridtolerance="10"
     guidetolerance="10"
     inkscape:pageopacity="0"
     inkscape:pageshadow="2"
     inkscape:window-width="640"
     inkscape:window-height="480"
     id="namedview817"
     showgrid="false"
     fit-margin-top="0"
     fit-margin-left="0"
     fit-margin-right="0"
     fit-margin-bottom="0"
     inkscape:zoom="0.81912879"
     inkscape:cx="372.27294"
     inkscape:cy="-325.15487"
     inkscape:current-layer="g823" /><g
     id="g823"
     inkscape:groupmode="layer"
     inkscape:label="MENU-SHAKE-SHACK"
     transform="matrix(1.3333333,0,0,-1.3333333,-35.727056,977.15487)"><g
       id="g865"
       transform="matrix(2.6204344,0,0,2.6204344,-1089.5095,-1298.5158)"><g
         id="g867"
         clip-path="url(#clipPath871)"><g
           id="g873"
           transform="translate(431.7209,754.511)"><path
             d="m 0,0 -1.082,0.512 c -1.629,0.765 -2.292,1.197 -2.292,2.41 0,1.122 0.857,1.907 2.084,1.907 1.17,0 1.957,-0.438 2.554,-1.418 L 1.327,3.306 2.513,4.065 2.451,4.165 C 1.598,5.546 0.403,6.189 -1.31,6.189 c -2.064,0 -3.562,-1.391 -3.562,-3.307 0,-1.894 1.158,-2.809 3.157,-3.747 l 1.083,-0.512 c 1.624,-0.753 2.449,-1.39 2.449,-2.784 0,-1.346 -1.07,-2.182 -2.792,-2.182 -1.494,0 -2.7,0.725 -3.397,2.041 l -0.056,0.106 -1.293,-0.682 0.056,-0.106 c 0.943,-1.779 2.616,-2.758 4.709,-2.758 2.646,0 4.29,1.387 4.29,3.621 C 3.334,-2.005 2.112,-1.008 0,0"
             style="fill:#100f0d;fill-opacity:1;fill-rule:nonzero;stroke:none"
             id="path875"
             inkscape:connector-curvature="0" /></g></g></g><g
       id="g877"
       transform="matrix(2.6204344,0,0,2.6204344,79.43822,673.91824)"><path
         d="M 0,0 H -7.06 V 7.83 H -8.578 V -5.787 H -7.06 V -1.38 H 0 V -5.787 H 1.517 V 7.83 H 0 Z"
         style="fill:#100f0d;fill-opacity:1;fill-rule:nonzero;stroke:none"
         id="path879"
         inkscape:connector-curvature="0" /></g><g
       id="g881"
       transform="matrix(2.6204344,0,0,2.6204344,-1089.5095,-1298.5158)"><g
         id="g883"
         clip-path="url(#clipPath887)"><g
           id="g889"
           transform="translate(455.3356,760.8572)"><path
             d="m 0,0 -5.725,-13.931 h 1.538 l 0.944,2.321 h 6.744 l 0.925,-2.321 H 6.003 L 0.258,0 Z m 2.938,-10.23 h -5.632 l 2.833,6.979 C 1.07,-5.561 2.62,-9.414 2.938,-10.23"
             style="fill:#100f0d;fill-opacity:1;fill-rule:nonzero;stroke:none"
             id="path891"
             inkscape:connector-curvature="0" /></g></g></g><g
       id="g893"
       transform="matrix(2.6204344,0,0,2.6204344,148.64992,694.43597)"><path
         d="M 0,0 H -1.74 L -7.642,-7.487 V 0 h -1.517 v -13.617 h 1.517 v 4.052 l 1.592,1.975 4.783,-6.027 h 1.839 l -5.663,7.143 z"
         style="fill:#100f0d;fill-opacity:1;fill-rule:nonzero;stroke:none"
         id="path895"
         inkscape:connector-curvature="0" /></g><g
       id="g897"
       transform="matrix(2.6204344,0,0,2.6204344,158.93879,670.35418)"><path
         d="M 0,0 H 6.059 V 1.36 H 0 V 7.81 H 6.787 V 9.19 H -1.518 V -4.427 h 8.581 v 1.38 H 0 Z"
         style="fill:#100f0d;fill-opacity:1;fill-rule:nonzero;stroke:none"
         id="path899"
         inkscape:connector-curvature="0" /></g><g
       id="g901"
       transform="matrix(2.6204344,0,0,2.6204344,-1089.5095,-1298.5158)"><g
         id="g903"
         clip-path="url(#clipPath907)"><g
           id="g909"
           transform="translate(529.8893,754.511)"><path
             d="m 0,0 -1.082,0.512 c -1.629,0.765 -2.292,1.197 -2.292,2.41 0,1.122 0.857,1.907 2.084,1.907 1.17,0 1.958,-0.438 2.554,-1.418 L 1.327,3.306 2.513,4.065 2.451,4.165 C 1.598,5.546 0.403,6.189 -1.31,6.189 c -2.064,0 -3.562,-1.391 -3.562,-3.307 0,-1.894 1.157,-2.809 3.157,-3.747 l 1.083,-0.512 c 1.624,-0.753 2.449,-1.39 2.449,-2.784 0,-1.346 -1.07,-2.182 -2.793,-2.182 -1.493,0 -2.699,0.725 -3.396,2.042 l -0.056,0.105 -1.293,-0.682 0.056,-0.106 c 0.943,-1.779 2.616,-2.759 4.709,-2.759 2.646,0 4.29,1.388 4.29,3.622 C 3.334,-2.005 2.112,-1.008 0,0"
             style="fill:#100f0d;fill-opacity:1;fill-rule:nonzero;stroke:none"
             id="path911"
             inkscape:connector-curvature="0" /></g></g></g><g
       id="g913"
       transform="matrix(2.6204344,0,0,2.6204344,336.68207,673.91824)"><path
         d="M 0,0 H -7.06 V 7.83 H -8.578 V -5.787 H -7.06 V -1.38 H 0 V -5.787 H 1.517 V 7.83 H 0 Z"
         style="fill:#100f0d;fill-opacity:1;fill-rule:nonzero;stroke:none"
         id="path915"
         inkscape:connector-curvature="0" /></g><g
       id="g917"
       transform="matrix(2.6204344,0,0,2.6204344,-1089.5095,-1298.5158)"><g
         id="g919"
         clip-path="url(#clipPath923)"><g
           id="g925"
           transform="translate(553.5042,760.8573)"><path
             d="m 0,0 -5.725,-13.931 h 1.537 l 0.945,2.321 h 6.744 l 0.924,-2.321 H 6.003 L 0.258,0 Z m 2.938,-10.23 h -5.632 l 2.832,6.979 c 0.932,-2.31 2.482,-6.163 2.8,-6.979"
             style="fill:#100f0d;fill-opacity:1;fill-rule:nonzero;stroke:none"
             id="path927"
             inkscape:connector-curvature="0" /></g><g
           id="g929"
           transform="translate(571.1548,750.3434)"><path
             d="m 0,0 c -1.067,-1.423 -2.606,-2.175 -4.449,-2.175 -3.123,0 -5.389,2.34 -5.389,5.566 0,3.173 2.275,5.566 5.291,5.566 1.758,0 3.169,-0.673 4.194,-2 L -0.282,6.866 0.894,7.713 0.82,7.811 c -1.27,1.665 -3.119,2.546 -5.348,2.546 -3.926,0 -6.887,-2.995 -6.887,-6.966 -0.009,-1.922 0.688,-3.687 1.963,-4.968 1.282,-1.288 3.045,-1.998 4.964,-1.998 2.395,0 4.306,0.916 5.682,2.723 L 1.269,-0.754 0.07,0.093 Z"
             style="fill:#100f0d;fill-opacity:1;fill-rule:nonzero;stroke:none"
             id="path931"
             inkscape:connector-curvature="0" /></g></g></g><g
       id="g933"
       transform="matrix(2.6204344,0,0,2.6204344,426.73278,677.47286)"><path
         d="M 0,0 5.091,6.473 H 3.351 L -2.551,-1.014 V 6.473 H -4.068 V -7.143 h 1.517 v 4.051 l 1.592,1.976 4.783,-6.027 h 1.839 z"
         style="fill:#100f0d;fill-opacity:1;fill-rule:nonzero;stroke:none"
         id="path935"
         inkscape:connector-curvature="0" /></g><g
       id="g937"
       transform="matrix(2.6204344,0,0,2.6204344,-1089.5095,-1298.5158)"><g
         id="g939"
         clip-path="url(#clipPath943)"><g
           id="g945"
           transform="translate(517.1888,761.4161)"><path
             d="m 0,0 v 0.923 0.926 c 0.964,0.024 1.167,0.305 1.35,0.554 0.175,0.264 0.188,0.61 0.187,0.612 v 0.007 c 0.006,2.304 -1.448,4.503 -4.025,6.184 -2.564,1.67 -6.195,2.738 -10.21,2.736 -4.015,0.002 -7.646,-1.066 -10.207,-2.736 -2.579,-1.681 -4.031,-3.88 -4.025,-6.184 V 3.015 c 0.005,0 0.012,-0.348 0.184,-0.612 0.186,-0.249 0.39,-0.53 1.351,-0.554 H 0 V 0.923 0 h -25.395 c -1.454,-0.027 -2.481,0.673 -2.922,1.43 -0.454,0.745 -0.458,1.423 -0.462,1.585 v 0.007 c 0.116,6.282 7.468,10.752 16.081,10.77 C -4.081,13.774 3.268,9.304 3.386,3.022 V 3.015 C 3.381,2.853 3.374,2.177 2.92,1.43 2.49,0.686 1.491,-0.002 0.081,-0.002 0.055,-0.002 0.029,0 0,0"
             style="fill:#55a335;fill-opacity:1;fill-rule:nonzero;stroke:none"
             id="path947"
             inkscape:connector-curvature="0" /></g><g
           id="g949"
           transform="translate(494.4852,739.7178)"><path
             d="m 0,0 c -2.335,0.019 -3.802,0.207 -4.879,1.075 -1.08,0.929 -1.193,2.243 -1.197,3.663 v 0.004 c 0.004,0.169 0.019,0.801 0.504,1.471 0.487,0.683 1.477,1.224 2.881,1.209 H 22.704 V 6.499 5.573 H -2.691 C -3.7,5.557 -3.947,5.283 -4.084,5.117 -4.202,4.967 -4.224,4.799 -4.227,4.756 V 4.742 4.738 C -4.23,3.357 -4.049,2.767 -3.691,2.49 -3.334,2.15 -2.225,1.832 0,1.85 h 19.04 c 2.713,-0.013 4.084,0.365 4.586,0.778 0.467,0.355 0.603,0.865 0.615,2.064 0,0.013 0,0.031 -0.002,0.05 -0.007,0.005 0.002,0.029 -0.016,0.106 -0.023,0.078 -0.058,0.178 -0.124,0.269 -0.141,0.166 -0.383,0.44 -1.395,0.456 V 6.499 7.422 C 24.11,7.437 25.101,6.896 25.586,6.213 26.014,5.624 26.073,5.057 26.087,4.819 26.09,4.813 26.09,4.799 26.09,4.779 L 26.091,4.738 C 26.097,3.465 25.949,2.077 24.749,1.16 23.573,0.294 21.881,0.017 19.04,0 Z"
             style="fill:#55a335;fill-opacity:1;fill-rule:nonzero;stroke:none"
             id="path951"
             inkscape:connector-curvature="0" /></g><g
           id="g953"
           transform="translate(491.2459,748.9197)"><path
             d="M 0,0 C -1.526,0.004 -2.828,1.183 -2.835,2.732 -2.828,4.287 -1.526,5.461 0,5.467 H 26.496 C 28.019,5.461 29.321,4.287 29.329,2.732 29.321,1.183 28.019,0.004 26.496,0 Z m -0.988,2.732 c 0,-0.443 0.403,-0.876 0.988,-0.88 h 26.496 c 0.578,0.004 0.984,0.437 0.984,0.88 0,0.45 -0.406,0.881 -0.984,0.887 H 0 C -0.585,3.613 -0.988,3.182 -0.988,2.732"
             style="fill:#55a335;fill-opacity:1;fill-rule:nonzero;stroke:none"
             id="path955"
             inkscape:connector-curvature="0" /></g><g
           id="g957"
           transform="translate(501.7861,757.4628)"><path
             d="M 0,0 C -0.266,0.304 -0.276,0.583 -1.167,0.641 -1.76,0.641 -2.088,0.308 -2.23,0.142 -2.27,0.099 -2.268,0.099 -2.279,0.076 c -0.06,-0.102 -0.879,-1.363 -2.676,-1.38 -1.707,-0.053 -2.6,1.236 -2.626,1.304 -0.265,0.308 -0.275,0.583 -1.167,0.641 -0.593,0 -0.92,-0.333 -1.065,-0.499 -0.036,-0.043 -0.036,-0.043 -0.046,-0.066 -0.058,-0.102 -0.877,-1.363 -2.676,-1.38 -0.511,0 -0.925,0.414 -0.925,0.921 0,0.513 0.414,0.926 0.925,0.926 0.616,0 0.942,0.325 1.078,0.477 0.034,0.039 0.031,0.039 0.022,0.022 0.056,0.094 0.86,1.425 2.687,1.452 1.715,0.055 2.595,-1.285 2.624,-1.355 0.2,-0.221 0.269,-0.542 1.169,-0.596 0.614,0 0.941,0.325 1.075,0.477 0.018,0.018 0.025,0.026 0.029,0.03 0.093,0.153 0.899,1.417 2.684,1.444 1.711,0.055 2.592,-1.282 2.62,-1.355 0.204,-0.223 0.27,-0.542 1.17,-0.596 0.612,0 0.939,0.325 1.075,0.477 0.016,0.012 0.023,0.022 0.026,0.026 0.089,0.144 0.896,1.421 2.688,1.448 1.714,0.055 2.594,-1.285 2.623,-1.355 0.2,-0.221 0.267,-0.542 1.162,-0.596 0.514,0 0.928,-0.413 0.928,-0.926 0,-0.507 -0.414,-0.921 -0.928,-0.921 C 8.497,-1.357 7.603,-0.068 7.579,0 7.313,0.308 7.304,0.583 6.412,0.641 5.818,0.641 5.488,0.308 5.346,0.142 5.309,0.099 5.311,0.094 5.299,0.076 5.237,-0.021 4.422,-1.287 2.623,-1.304 2.589,-1.306 2.553,-1.309 2.519,-1.309 0.884,-1.309 0.023,-0.062 0,0"
             style="fill:#55a335;fill-opacity:1;fill-rule:nonzero;stroke:none"
             id="path959"
             inkscape:connector-curvature="0" /></g><g
           id="g961"
           transform="translate(516.9437,757.4628)"><path
             d="m 0,0 c -0.269,0.308 -0.278,0.583 -1.169,0.641 -0.593,0 -0.923,-0.333 -1.065,-0.499 -0.035,-0.043 -0.035,-0.043 -0.046,-0.066 -0.06,-0.098 -0.876,-1.363 -2.68,-1.38 -0.507,0 -0.918,0.414 -0.918,0.921 0,0.513 0.411,0.926 0.918,0.926 0.62,0 0.946,0.325 1.083,0.477 0.032,0.039 0.032,0.039 0.021,0.022 0.055,0.094 0.86,1.425 2.687,1.448 C 0.544,2.549 1.425,1.209 1.455,1.136 1.652,0.92 1.726,0.597 2.624,0.543 3.134,0.543 3.546,0.13 3.546,-0.383 3.546,-0.89 3.134,-1.304 2.624,-1.304 2.589,-1.306 2.558,-1.309 2.526,-1.309 0.883,-1.306 0.024,-0.068 0,0"
             style="fill:#55a335;fill-opacity:1;fill-rule:nonzero;stroke:none"
             id="path963"
             inkscape:connector-curvature="0" /></g><g
           id="g965"
           transform="translate(588,759.5088)"><path
             d="m 0,0 c 0,-0.245 -0.043,-0.468 -0.129,-0.669 -0.086,-0.201 -0.202,-0.373 -0.35,-0.516 -0.147,-0.142 -0.317,-0.253 -0.511,-0.332 -0.194,-0.078 -0.397,-0.118 -0.61,-0.118 -0.236,0 -0.452,0.042 -0.649,0.125 -0.196,0.083 -0.366,0.197 -0.507,0.343 -0.141,0.146 -0.252,0.318 -0.332,0.518 -0.08,0.199 -0.12,0.416 -0.12,0.649 0,0.245 0.043,0.468 0.129,0.669 0.086,0.201 0.202,0.373 0.349,0.516 0.148,0.142 0.319,0.253 0.514,0.332 0.195,0.078 0.401,0.118 0.616,0.118 0.213,0 0.416,-0.04 0.61,-0.118 0.194,-0.079 0.364,-0.19 0.511,-0.332 C -0.331,1.042 -0.215,0.87 -0.129,0.669 -0.043,0.468 0,0.245 0,0 m -0.35,0 c 0,0.198 -0.032,0.38 -0.096,0.546 C -0.51,0.712 -0.599,0.855 -0.712,0.975 -0.826,1.094 -0.959,1.187 -1.11,1.252 -1.262,1.318 -1.425,1.351 -1.6,1.351 -1.778,1.351 -1.943,1.318 -2.096,1.252 -2.249,1.187 -2.382,1.094 -2.496,0.975 -2.609,0.855 -2.698,0.712 -2.762,0.546 -2.826,0.38 -2.859,0.198 -2.859,0 c 0,-0.187 0.03,-0.361 0.088,-0.525 0.058,-0.163 0.142,-0.306 0.251,-0.428 0.109,-0.122 0.241,-0.219 0.396,-0.291 0.154,-0.071 0.329,-0.107 0.524,-0.107 0.175,0 0.338,0.033 0.49,0.099 0.151,0.065 0.284,0.158 0.398,0.277 0.113,0.12 0.202,0.262 0.266,0.426 0.064,0.165 0.096,0.348 0.096,0.549 M -1.923,-0.935 H -2.22 v 1.809 h 0.686 c 0.218,0 0.383,-0.041 0.494,-0.122 0.11,-0.082 0.166,-0.214 0.166,-0.398 0,-0.163 -0.045,-0.283 -0.136,-0.358 C -1.1,-0.08 -1.212,-0.125 -1.346,-0.14 l 0.507,-0.795 h -0.337 l -0.468,0.773 h -0.279 z m 0.332,1.027 c 0.055,0 0.109,0.002 0.16,0.006 0.05,0.005 0.095,0.017 0.133,0.037 0.038,0.021 0.068,0.049 0.092,0.086 0.023,0.036 0.035,0.088 0.035,0.155 0,0.055 -0.013,0.099 -0.038,0.131 C -1.233,0.539 -1.265,0.564 -1.302,0.581 -1.34,0.599 -1.383,0.61 -1.429,0.614 -1.476,0.618 -1.521,0.621 -1.565,0.621 H -1.923 V 0.092 Z"
             style="fill:#100f0d;fill-opacity:1;fill-rule:nonzero;stroke:none"
             id="path967"
             inkscape:connector-curvature="0" /></g></g></g></g></svg>