<?xml version="1.0" encoding="UTF-8" standalone="no"?>
<!DOCTYPE svg PUBLIC "-//W3C//DTD SVG 1.1//EN" "http://www.w3.org/Graphics/SVG/1.1/DTD/svg11.dtd">
<!-- Created with Vectornator (http://vectornator.io/) -->
<svg height="100%" stroke-miterlimit="10" style="fill-rule:nonzero;clip-rule:evenodd;stroke-linecap:round;stroke-linejoin:round;" version="1.1" viewBox="0 0 1024 1024" width="100%" xml:space="preserve" xmlns="http://www.w3.org/2000/svg" xmlns:vectornator="http://vectornator.io" xmlns:xlink="http://www.w3.org/1999/xlink">
<defs/>
<g id="Untitled" vectornator:layerName="Untitled">
<g opacity="1">
<path d="M196.516 566.756C198.381 573.277 204.905 577.937 211.43 577.937C217.955 577.937 225.408 572.348 225.408 563.03C225.408 548.111 197.448 553.704 197.448 533.204C197.448 521.084 207.7 515.496 217.955 515.496C221.681 515.496 228.206 517.357 231 520.155L231 527.612C229.139 522.017 224.476 518.29 218.884 518.29C213.292 518.29 207.7 522.017 207.7 530.403C206.767 545.321 234.727 540.658 234.727 560.232C234.727 573.277 222.614 580.738 211.43 580.738C207.7 580.738 199.31 578.866 196.516 575.139L196.516 566.756Z" fill="#000000" fill-rule="evenodd" opacity="1" stroke="none"/>
<path d="M667.18 545.321L693.275 545.321L693.275 550.913L667.18 550.913L667.18 545.321Z" fill="#000000" fill-rule="evenodd" opacity="1" stroke="none"/>
<path d="M297.172 545.321L297.172 577.004C297.172 578.866 294.378 579.802 294.378 579.802L311.151 579.802C311.151 579.802 308.356 577.94 308.356 577.004L308.356 520.155C308.356 518.289 311.151 517.357 311.151 517.357L294.378 517.357C294.378 517.357 297.172 518.289 297.172 520.155L297.172 542.523L270.145 542.523L270.145 520.155C271.077 518.289 272.943 517.357 272.943 517.357L257.096 517.357C257.096 517.357 258.961 518.289 258.961 520.155L258.961 577.004C258.961 577.94 257.096 579.802 257.096 579.802L272.943 579.802C272.943 579.802 271.077 578.866 270.145 577.004L270.145 545.321L297.172 545.321Z" fill="#000000" fill-rule="evenodd" opacity="1" stroke="none"/>
<path d="M639.22 544.385L639.22 520.155C639.22 518.29 642.014 517.357 642.014 517.357L625.238 517.357C625.238 517.357 628.036 518.29 628.036 520.155L628.036 577.005C628.036 577.937 625.238 579.802 625.238 579.802L642.014 579.802C642.014 579.802 639.22 578.866 639.22 577.005L639.22 544.385Z" fill="#000000" fill-rule="evenodd" opacity="1" stroke="none"/>
<path d="M718.441 579.802C718.441 579.802 721.235 577.937 721.235 577.005L721.235 520.155C721.235 518.29 718.441 517.357 718.441 517.357L735.213 517.357C735.213 517.357 732.419 518.29 732.419 520.155L732.419 544.385L732.419 577.005C737.078 577.005 745.468 576.076 750.128 576.076C751.989 576.076 754.791 576.076 755.723 575.139C754.791 576.076 754.791 577.937 753.854 579.802L718.441 579.802Z" fill="#000000" fill-rule="evenodd" opacity="1" stroke="none"/>
<path d="M446.294 558.366C445.362 556.501 411.809 517.357 411.809 517.357L399.693 517.357C399.693 517.357 402.491 517.357 404.356 521.084L404.356 577.004C403.423 578.865 401.558 579.802 401.558 579.802L409.012 579.802C409.012 579.802 407.15 577.94 407.15 577.004L407.15 529.477C407.15 529.477 406.217 525.747 409.012 529.477C411.809 533.204 452.819 581.667 452.819 581.667L452.819 520.155C452.819 518.289 455.613 517.357 455.613 517.357L444.429 517.357C444.429 517.357 447.227 518.289 447.227 520.155L447.227 558.366L446.294 558.366Z" fill="#000000" fill-rule="evenodd" opacity="1" stroke="none"/>
<path d="M343.773 556.503L362.411 556.503L353.092 533.202L343.773 556.503ZM356.823 515.493C356.823 515.493 380.12 575.14 381.985 577.002C382.918 578.867 384.783 579.804 384.783 579.804L368.936 579.804C368.936 579.804 370.801 578.867 370.801 577.002C368.936 572.346 365.209 563.956 363.344 559.293L342.841 559.293C340.979 563.956 337.249 575.14 336.316 577.002C336.316 578.867 337.249 578.867 338.181 579.804L327.93 579.804C327.93 579.804 330.724 578.867 330.724 577.002C331.657 575.14 354.958 515.493 354.958 515.493L356.823 515.493Z" fill="#000000" fill-rule="evenodd" opacity="1" stroke="none"/>
<path d="M784.612 556.503L803.253 556.503L793.931 533.202L784.612 556.503ZM797.658 515.493C797.658 515.493 820.962 575.14 822.824 577.002C823.756 578.867 825.621 579.804 825.621 579.804L809.774 579.804C809.774 579.804 811.64 578.867 810.707 577.002C809.774 572.346 806.048 563.956 804.186 559.293L783.679 559.293C781.818 563.956 778.087 575.14 777.158 577.002C777.158 578.867 778.087 578.867 779.02 579.804L768.769 579.804C768.769 579.804 771.563 578.867 771.563 577.002C771.563 575.14 795.792 515.493 795.792 515.493L797.658 515.493Z" fill="#000000" fill-rule="evenodd" opacity="1" stroke="none"/>
<path d="M524.582 574.211C519.922 577.002 515.263 577.938 509.671 577.938C498.487 577.938 487.303 565.821 487.303 548.113C487.303 529.475 496.621 519.223 508.738 519.223C517.128 519.223 526.447 523.883 531.106 532.269L531.106 522.018C526.447 520.152 519.922 516.426 509.671 516.426C491.029 516.426 476.118 527.613 476.118 549.049C476.118 566.757 489.168 580.736 507.805 580.736C516.195 580.736 523.649 579.803 531.106 577.002L531.106 556.502C531.106 555.566 533.904 553.705 533.904 553.705L521.787 553.705C521.787 553.705 524.582 555.566 524.582 556.502L524.582 574.211Z" fill="#000000" fill-rule="evenodd" opacity="1" stroke="none"/>
<path d="M570.249 548.113C572.114 548.113 575.844 548.113 579.571 547.184C586.092 545.322 588.89 540.659 588.89 533.202C588.89 527.613 585.163 521.085 579.571 520.152C574.912 519.223 573.979 519.223 570.249 520.152L570.249 548.113ZM570.249 577.002C571.181 577.938 573.047 579.803 573.047 579.803L563.724 579.803L557.203 579.803C557.203 579.803 559.068 577.938 559.068 577.002L559.068 520.152C559.068 518.291 557.203 517.358 557.203 517.358L573.979 517.358C587.025 517.358 596.347 522.95 596.347 532.269C596.347 543.457 587.025 548.113 584.231 549.049C587.025 550.91 589.823 554.637 591.688 556.502C594.482 561.158 597.28 565.821 599.142 568.619C604.734 577.938 607.531 578.867 607.531 578.867C603.801 579.803 600.074 580.739 598.213 579.803C590.755 577.938 583.298 553.705 577.706 551.839C576.773 550.91 570.249 550.91 570.249 550.91L570.249 577.002Z" fill="#000000" fill-rule="evenodd" opacity="1" stroke="none"/>
<path d="M278.534 656.228L278.534 669.273L281.328 669.273L281.328 670.21L272.942 670.21L272.942 669.273L274.803 669.273L274.803 644.111L272.942 644.111L272.942 643.182L281.328 643.182L281.328 644.111L278.534 644.111L278.534 655.292L288.785 655.292L288.785 644.111L285.987 644.111L285.987 643.182L295.31 643.182L295.31 644.111L292.512 644.111L292.512 669.273L295.31 669.273L295.31 670.21L285.987 670.21L285.987 669.273L288.785 669.273L288.785 656.228L278.534 656.228Z" fill="#000000" fill-rule="evenodd" opacity="1" stroke="none"/>
<path d="M341.91 669.273L344.704 669.273L344.704 644.111L342.842 644.111C340.977 644.111 340.045 645.044 339.116 651.565L338.179 651.565L338.179 643.182L355.888 643.182L355.888 651.565L354.959 651.565C354.026 645.044 353.094 644.111 351.229 644.111L349.363 644.111L349.363 669.273L352.161 669.273L352.161 670.21L341.91 670.21L341.91 669.273Z" fill="#000000" fill-rule="evenodd" opacity="1" stroke="none"/>
<path d="M367.073 670.209L367.073 669.273L369.867 669.273L369.867 644.11L367.073 644.11L367.073 643.181L386.647 643.181L386.647 651.564L385.714 651.564C383.849 645.047 382.917 644.11 381.051 644.11L373.598 644.11L373.598 655.291L376.392 655.291C378.257 655.291 379.19 654.365 380.122 650.635L381.051 650.635L381.051 661.819L380.122 661.819C379.19 658.092 378.257 656.227 376.392 656.227L373.598 656.227L373.598 669.273L380.122 669.273C382.917 669.273 383.849 668.344 385.714 659.954L386.647 659.954L386.647 670.209L367.073 670.209Z" fill="#000000" fill-rule="evenodd" opacity="1" stroke="none"/>
<path d="M406.218 669.273L411.81 669.273C414.608 669.273 415.537 668.344 417.402 659.018L418.334 659.018L418.334 670.21L399.693 670.21L399.693 669.273L402.491 669.273L402.491 644.111L399.693 644.111L399.693 643.182L409.944 643.182L409.944 644.111L406.218 644.111L406.218 669.273Z" fill="#000000" fill-rule="evenodd" opacity="1" stroke="none"/>
<path d="M430.449 659.955C432.314 667.409 433.244 669.274 436.974 669.274C440.701 669.274 443.499 667.409 443.499 663.682C443.499 656.228 429.517 659.019 429.517 650.636C429.517 645.973 432.314 643.182 437.907 643.182C440.701 643.182 442.566 643.182 444.431 644.111L444.431 652.501C444.431 652.501 443.499 650.636 442.566 647.838C441.633 645.044 439.768 644.111 436.974 644.111C434.18 644.111 431.382 645.973 431.382 648.774C431.382 651.565 433.244 652.501 438.839 654.363C444.431 656.228 446.293 658.09 446.293 661.82C446.293 666.48 442.566 670.21 436.974 670.21C434.18 670.21 431.382 669.274 429.517 668.345L429.517 659.955L430.449 659.955Z" fill="#000000" fill-rule="evenodd" opacity="1" stroke="none"/>
<path d="M490.098 654.364L494.757 654.364L493.825 657.155C494.757 655.293 496.622 654.364 498.488 654.364C501.282 654.364 502.215 655.293 502.215 659.02L499.417 669.275L501.282 669.275L501.282 670.207L494.757 670.207L494.757 669.275L496.622 669.275L499.417 658.091C499.417 656.229 499.417 655.293 497.555 655.293C495.69 655.293 494.757 657.155 493.825 659.956L491.963 669.275L493.825 669.275L492.892 670.207L487.304 670.207L487.304 669.275L489.165 669.275L491.963 655.293L490.098 655.293L490.098 654.364Z" fill="#000000" fill-rule="evenodd" opacity="1" stroke="none"/>
<path d="M513.399 669.273C515.264 669.273 517.126 667.408 518.059 662.752C518.991 657.157 518.059 655.292 516.193 655.292C515.264 655.292 513.399 656.228 512.467 662.752C510.601 668.344 511.534 669.273 513.399 669.273M516.193 670.21L517.126 668.344C516.193 669.273 515.264 670.21 512.467 670.21C509.669 670.21 507.807 667.408 508.74 661.82C509.669 657.157 513.399 654.363 516.193 654.363C518.059 654.363 518.991 655.292 518.991 656.228L520.853 649.7L518.991 649.7L523.651 649.7L518.991 669.273L520.853 669.273L520.853 670.21L516.193 670.21Z" fill="#000000" fill-rule="evenodd" opacity="1" stroke="none"/>
<path d="M477.982 661.819C474.252 662.755 471.458 661.819 470.525 666.482C469.592 668.343 470.525 669.272 472.39 669.272C474.252 669.272 476.117 666.482 477.05 663.684L477.982 661.819ZM470.525 659.953L471.458 655.294C473.323 654.365 475.184 654.365 476.117 654.365C479.847 654.365 481.709 656.227 480.776 658.092L478.915 669.272L479.847 669.272L479.847 670.209L476.117 670.209L476.117 667.411C475.184 669.272 473.323 670.209 471.458 670.209C468.663 670.209 466.798 668.343 467.731 666.482C468.663 660.89 474.252 662.755 477.982 660.89L477.982 657.156C478.915 655.294 477.982 655.294 476.117 655.294C474.252 655.294 473.323 656.227 471.458 659.953L470.525 659.953Z" fill="#000000" fill-rule="evenodd" opacity="1" stroke="none"/>
<path d="M317.676 669.273C321.407 669.273 323.268 666.483 323.268 656.228C323.268 646.909 321.407 644.111 317.676 644.111C313.017 644.111 311.152 646.909 311.152 656.228C311.152 666.483 313.017 669.273 317.676 669.273M317.676 643.182C323.268 643.182 327.928 648.774 327.928 656.228C327.928 664.618 323.268 670.21 317.676 670.21C312.084 670.21 306.492 664.618 306.492 656.228C306.492 648.774 312.084 643.182 317.676 643.182" fill="#000000" fill-rule="evenodd" opacity="1" stroke="none"/>
<path d="M551.612 656.228L554.406 656.228C559.066 656.228 560.931 653.43 560.931 649.703C560.931 646.909 559.066 644.111 555.339 644.111L551.612 644.111L551.612 656.228ZM546.016 670.21L546.016 669.273L547.882 669.273L547.882 644.111L546.016 644.111L546.016 643.182L556.271 643.182C562.792 643.182 565.59 646.909 565.59 649.703C565.59 653.43 561.863 656.228 557.204 656.228L565.59 669.273L567.452 669.273L567.452 670.21L561.863 670.21L551.612 656.228L551.612 669.273L554.406 669.273L554.406 670.21L546.016 670.21Z" fill="#000000" fill-rule="evenodd" opacity="1" stroke="none"/>
<path d="M611.257 659.955C613.122 667.409 614.055 669.274 617.782 669.274C621.512 669.274 624.306 667.409 624.306 663.682C624.306 656.228 610.325 659.019 610.325 650.636C610.325 645.973 613.122 643.182 618.714 643.182C621.512 643.182 624.306 643.182 626.172 644.111L626.172 652.501L625.239 652.501L623.374 647.838C622.441 645.044 620.58 644.111 618.714 644.111C614.984 644.111 613.122 645.973 613.122 648.774C613.122 651.565 614.984 652.501 619.647 654.363C625.239 656.228 627.101 658.09 627.101 661.82C627.101 666.48 623.374 670.21 617.782 670.21C614.984 670.21 612.19 669.274 610.325 668.345L610.325 659.955L611.257 659.955Z" fill="#000000" fill-rule="evenodd" opacity="1" stroke="none"/>
<path d="M649.47 669.273C653.2 669.273 655.066 666.483 655.066 657.157C655.066 646.909 653.2 644.111 649.47 644.111C644.81 644.111 642.945 646.909 642.945 657.157C642.945 666.483 644.81 669.273 649.47 669.273M649.47 643.182C655.066 643.182 660.654 648.774 660.654 657.157C660.654 664.618 655.066 670.21 649.47 670.21C643.878 670.21 638.289 664.618 638.289 657.157C638.289 648.774 643.878 643.182 649.47 643.182" fill="#000000" fill-rule="evenodd" opacity="1" stroke="none"/>
<path d="M677.432 656.228L679.297 656.228C683.957 656.228 685.818 653.43 685.818 649.703C685.818 646.909 684.886 644.111 680.226 644.111L677.432 644.111L677.432 656.228ZM670.908 670.21L670.908 669.273L672.769 669.273L672.769 644.111L670.908 644.111L670.908 643.182L682.092 643.182C688.613 643.182 690.478 646.909 690.478 649.703C690.478 653.43 687.684 656.228 682.092 656.228L691.41 669.273L693.272 669.273L693.272 670.21L686.751 670.21L677.432 656.228L677.432 669.273L680.226 669.273L680.226 670.21L670.908 670.21Z" fill="#000000" fill-rule="evenodd" opacity="1" stroke="none"/>
<path d="M706.323 669.273L709.117 669.273L709.117 644.111L706.323 644.111C704.458 644.111 704.458 645.044 702.596 651.565L701.663 651.565L701.663 643.182L719.372 643.182L719.372 651.565C717.507 645.044 716.578 644.111 715.645 644.111L712.847 644.111L712.847 669.273L715.645 669.273L715.645 670.21L706.323 670.21L706.323 669.273Z" fill="#000000" fill-rule="evenodd" opacity="1" stroke="none"/>
<path d="M732.418 659.955C734.283 667.409 735.212 669.274 738.943 669.274C742.673 669.274 745.467 667.409 745.467 663.682C745.467 656.228 731.486 659.019 731.486 650.636C731.486 645.973 735.212 643.182 739.875 643.182C742.673 643.182 745.467 643.182 747.333 644.111L747.333 652.501L746.4 652.501L744.535 647.838C743.602 645.044 741.741 644.111 739.875 644.111C736.145 644.111 734.283 645.973 734.283 648.774C734.283 651.565 736.145 652.501 740.808 654.363C746.4 656.228 748.262 658.09 748.262 661.82C748.262 666.48 744.535 670.21 738.943 670.21C736.145 670.21 733.351 669.274 731.486 668.345L731.486 659.955L732.418 659.955Z" fill="#000000" fill-rule="evenodd" opacity="1" stroke="none"/>
<path d="M576.775 670.209L576.775 669.273L579.57 669.273L579.57 644.11L576.775 644.11L576.775 643.181L596.349 643.181L596.349 651.564L595.417 651.564C593.551 645.047 592.619 644.11 590.757 644.11L583.3 644.11L583.3 655.291L586.094 655.291C587.956 655.291 588.888 654.365 589.821 650.635L590.757 650.635L590.757 661.819L589.821 661.819C588.888 658.092 587.956 656.227 586.094 656.227L583.3 656.227L583.3 669.273L589.821 669.273C592.619 669.273 593.551 668.344 595.417 659.954L596.349 659.954L596.349 670.209L576.775 670.209Z" fill="#000000" fill-rule="evenodd" opacity="1" stroke="none"/>
<path d="M546.017 423.226C535.766 426.953 521.788 433.477 513.398 444.661C512.465 446.527 510.604 446.527 509.671 444.661C506.873 441.867 494.76 429.751 477.98 429.751C473.321 429.751 466.8 430.68 462.137 431.612L462.137 474.483C464.935 472.622 471.456 469.824 477.051 469.824C485.438 469.824 502.214 477.281 508.738 483.806C510.604 485.671 512.465 485.671 514.33 483.806C523.649 474.483 540.425 467.03 560.932 467.03L560.932 414.836L477.051 414.836C487.303 411.109 501.281 404.585 509.671 393.401C510.604 391.539 512.465 391.539 513.398 393.401C516.196 396.198 528.309 409.244 546.017 409.244C549.748 409.244 556.272 408.311 560.932 406.45L560.932 364.508C558.134 366.373 551.613 368.238 546.017 368.238C537.631 368.238 520.855 360.781 514.33 355.189C512.465 353.324 510.604 353.324 508.738 355.189C499.42 363.579 483.572 371.965 463.07 371.965L463.07 423.226L546.017 423.226Z" fill="#f5d218" fill-rule="evenodd" opacity="1" stroke="none"/>
<path d="M195.584 613.357L828.416 613.357L828.416 610.56L195.584 610.56L195.584 613.357Z" fill="#000000" fill-rule="evenodd" opacity="1" stroke="none"/>
</g>
</g>
</svg>
