<svg stroke-miterlimit="10" style="fill-rule:nonzero;clip-rule:evenodd;stroke-linecap:round;stroke-linejoin:round" viewBox="0 0 1024 1024" xml:space="preserve" xmlns="http://www.w3.org/2000/svg" xmlns:vectornator="http://vectornator.io"><g fill-rule="evenodd" vectornator:layerName="Untitled"><path d="M196.516 566.756c1.865 6.521 8.389 11.181 14.914 11.181s13.978-5.589 13.978-14.907c0-14.919-27.96-9.326-27.96-29.826 0-12.12 10.252-17.708 20.507-17.708 3.726 0 10.251 1.861 13.045 4.659v7.457c-1.861-5.595-6.524-9.322-12.116-9.322s-11.184 3.727-11.184 12.113c-.933 14.918 27.027 10.255 27.027 29.829 0 13.045-12.113 20.506-23.297 20.506-3.73 0-12.12-1.872-14.914-5.599v-8.383ZM667.18 545.321h26.095v5.592H667.18v-5.592ZM297.172 545.321v31.683c0 1.862-2.794 2.798-2.794 2.798h16.773s-2.795-1.862-2.795-2.798v-56.849c0-1.866 2.795-2.798 2.795-2.798h-16.773s2.794.932 2.794 2.798v22.368h-27.027v-22.368c.932-1.866 2.798-2.798 2.798-2.798h-15.847s1.865.932 1.865 2.798v56.849c0 .936-1.865 2.798-1.865 2.798h15.847s-1.866-.936-2.798-2.798v-31.683h27.027ZM639.22 544.385v-24.23c0-1.865 2.794-2.798 2.794-2.798h-16.776s2.798.933 2.798 2.798v56.85c0 .932-2.798 2.797-2.798 2.797h16.776s-2.794-.936-2.794-2.797v-32.62ZM718.441 579.802s2.794-1.865 2.794-2.797v-56.85c0-1.865-2.794-2.798-2.794-2.798h16.772s-2.794.933-2.794 2.798V577.005c4.659 0 13.049-.929 17.709-.929 1.861 0 4.663 0 5.595-.937-.932.937-.932 2.798-1.869 4.663h-35.413ZM446.294 558.366c-.932-1.865-34.485-41.009-34.485-41.009h-12.116s2.798 0 4.663 3.727v55.92c-.933 1.861-2.798 2.798-2.798 2.798h7.454s-1.862-1.862-1.862-2.798v-47.527s-.933-3.73 1.862 0c2.797 3.727 43.807 52.19 43.807 52.19v-61.512c0-1.866 2.794-2.798 2.794-2.798h-11.184s2.798.932 2.798 2.798v38.211h-.933ZM343.773 556.503h18.638l-9.319-23.301-9.319 23.301Zm13.05-41.01s23.297 59.647 25.162 61.509c.933 1.865 2.798 2.802 2.798 2.802h-15.847s1.865-.937 1.865-2.802c-1.865-4.656-5.592-13.046-7.457-17.709h-20.503c-1.862 4.663-5.592 15.847-6.525 17.709 0 1.865.933 1.865 1.865 2.802H327.93s2.794-.937 2.794-2.802c.933-1.862 24.234-61.509 24.234-61.509h1.865ZM784.612 556.503h18.641l-9.322-23.301-9.319 23.301Zm13.046-41.01s23.304 59.647 25.166 61.509c.932 1.865 2.797 2.802 2.797 2.802h-15.847s1.866-.937.933-2.802c-.933-4.656-4.659-13.046-6.521-17.709h-20.507c-1.861 4.663-5.592 15.847-6.521 17.709 0 1.865.929 1.865 1.862 2.802h-10.251s2.794-.937 2.794-2.802c0-1.862 24.229-61.509 24.229-61.509h1.866ZM524.582 574.211c-4.66 2.791-9.319 3.727-14.911 3.727-11.184 0-22.368-12.117-22.368-29.825 0-18.638 9.318-28.89 21.435-28.89 8.39 0 17.709 4.66 22.368 13.046v-10.251c-4.659-1.866-11.184-5.592-21.435-5.592-18.642 0-33.553 11.187-33.553 32.623 0 17.708 13.05 31.687 31.687 31.687 8.39 0 15.844-.933 23.301-3.734v-20.5c0-.936 2.798-2.797 2.798-2.797h-12.117s2.795 1.861 2.795 2.797v17.709ZM570.249 548.113c1.865 0 5.595 0 9.322-.929 6.521-1.862 9.319-6.525 9.319-13.982 0-5.589-3.727-12.117-9.319-13.05-4.659-.929-5.592-.929-9.322 0v27.961Zm0 28.889c.932.936 2.798 2.801 2.798 2.801H557.203s1.865-1.865 1.865-2.801v-56.85c0-1.861-1.865-2.794-1.865-2.794h16.776c13.046 0 22.368 5.592 22.368 14.911 0 11.188-9.322 15.844-12.116 16.78 2.794 1.861 5.592 5.588 7.457 7.453 2.794 4.656 5.592 9.319 7.454 12.117 5.592 9.319 8.389 10.248 8.389 10.248-3.73.936-7.457 1.872-9.318.936-7.458-1.865-14.915-26.098-20.507-27.964-.933-.929-7.457-.929-7.457-.929v26.092ZM278.534 656.228v13.045h2.794v.937h-8.386v-.937h1.861v-25.162h-1.861v-.929h8.386v.929h-2.794v11.181h10.251v-11.181h-2.798v-.929h9.323v.929h-2.798v25.162h2.798v.937h-9.323v-.937h2.798v-13.045h-10.251ZM341.91 669.273h2.794v-25.162h-1.862c-1.865 0-2.797.933-3.726 7.454h-.937v-8.383h17.709v8.383h-.929c-.933-6.521-1.865-7.454-3.73-7.454h-1.866v25.162h2.798v.937H341.91v-.937ZM367.073 670.209v-.936h2.794V644.11h-2.794v-.929h19.574v8.383h-.933c-1.865-6.517-2.797-7.454-4.663-7.454h-7.453v11.181h2.794c1.865 0 2.798-.926 3.73-4.656h.929v11.184h-.929c-.932-3.727-1.865-5.592-3.73-5.592h-2.794v13.046h6.524c2.795 0 3.727-.929 5.592-9.319h.933v10.255h-19.574ZM406.218 669.273h5.592c2.798 0 3.727-.929 5.592-10.255h.932v11.192h-18.641v-.937h2.798v-25.162h-2.798v-.929h10.251v.929h-3.726v25.162ZM430.449 659.955c1.865 7.454 2.795 9.319 6.525 9.319 3.727 0 6.525-1.865 6.525-5.592 0-7.454-13.982-4.663-13.982-13.046 0-4.663 2.797-7.454 8.39-7.454 2.794 0 4.659 0 6.524.929v8.39s-.932-1.865-1.865-4.663c-.933-2.794-2.798-3.727-5.592-3.727-2.794 0-5.592 1.862-5.592 4.663 0 2.791 1.862 3.727 7.457 5.589 5.592 1.865 7.454 3.727 7.454 7.457 0 4.66-3.727 8.39-9.319 8.39-2.794 0-5.592-.936-7.457-1.865v-8.39h.932ZM490.098 654.364h4.659l-.932 2.791c.932-1.862 2.797-2.791 4.663-2.791 2.794 0 3.727.929 3.727 4.656l-2.798 10.255h1.865v.932h-6.525v-.932h1.865l2.795-11.184c0-1.862 0-2.798-1.862-2.798-1.865 0-2.798 1.862-3.73 4.663l-1.862 9.319h1.862l-.933.932h-5.588v-.932h1.861l2.798-13.982h-1.865v-.929ZM513.399 669.273c1.865 0 3.727-1.865 4.66-6.521.932-5.595 0-7.46-1.866-7.46-.929 0-2.794.936-3.726 7.46-1.866 5.592-.933 6.521.932 6.521m2.794.937.933-1.866c-.933.929-1.862 1.866-4.659 1.866-2.798 0-4.66-2.802-3.727-8.39.929-4.663 4.659-7.457 7.453-7.457 1.866 0 2.798.929 2.798 1.865l1.862-6.528h-1.862 4.66l-4.66 19.573h1.862v.937h-4.66ZM477.982 661.819c-3.73.936-6.524 0-7.457 4.663-.933 1.861 0 2.79 1.865 2.79 1.862 0 3.727-2.79 4.66-5.588l.932-1.865Zm-7.457-1.866.933-4.659c1.865-.929 3.726-.929 4.659-.929 3.73 0 5.592 1.862 4.659 3.727l-1.861 11.18h.932v.937h-3.73v-2.798c-.933 1.861-2.794 2.798-4.659 2.798-2.795 0-4.66-1.866-3.727-3.727.932-5.592 6.521-3.727 10.251-5.592v-3.734c.933-1.862 0-1.862-1.865-1.862s-2.794.933-4.659 4.659h-.933ZM317.676 669.273c3.731 0 5.592-2.79 5.592-13.045 0-9.319-1.861-12.117-5.592-12.117-4.659 0-6.524 2.798-6.524 12.117 0 10.255 1.865 13.045 6.524 13.045m0-26.091c5.592 0 10.252 5.592 10.252 13.046 0 8.39-4.66 13.982-10.252 13.982-5.592 0-11.184-5.592-11.184-13.982 0-7.454 5.592-13.046 11.184-13.046M551.612 656.228h2.794c4.66 0 6.525-2.798 6.525-6.525 0-2.794-1.865-5.592-5.592-5.592h-3.727v12.117Zm-5.596 13.982v-.937h1.866v-25.162h-1.866v-.929h10.255c6.521 0 9.319 3.727 9.319 6.521 0 3.727-3.727 6.525-8.386 6.525l8.386 13.045h1.862v.937h-5.589l-10.251-13.982v13.045h2.794v.937h-8.39ZM611.257 659.955c1.865 7.454 2.798 9.319 6.525 9.319 3.73 0 6.524-1.865 6.524-5.592 0-7.454-13.981-4.663-13.981-13.046 0-4.663 2.797-7.454 8.389-7.454 2.798 0 5.592 0 7.458.929v8.39h-.933l-1.865-4.663c-.933-2.794-2.794-3.727-4.66-3.727-3.73 0-5.592 1.862-5.592 4.663 0 2.791 1.862 3.727 6.525 5.589 5.592 1.865 7.454 3.727 7.454 7.457 0 4.66-3.727 8.39-9.319 8.39-2.798 0-5.592-.936-7.457-1.865v-8.39h.932ZM649.47 669.273c3.73 0 5.596-2.79 5.596-12.116 0-10.248-1.866-13.046-5.596-13.046-4.66 0-6.525 2.798-6.525 13.046 0 9.326 1.865 12.116 6.525 12.116m0-26.091c5.596 0 11.184 5.592 11.184 13.975 0 7.461-5.588 13.053-11.184 13.053-5.592 0-11.181-5.592-11.181-13.053 0-8.383 5.589-13.975 11.181-13.975M677.432 656.228h1.865c4.66 0 6.521-2.798 6.521-6.525 0-2.794-.932-5.592-5.592-5.592h-2.794v12.117Zm-6.524 13.982v-.937h1.861v-25.162h-1.861v-.929h11.184c6.521 0 8.386 3.727 8.386 6.521 0 3.727-2.794 6.525-8.386 6.525l9.318 13.045h1.862v.937h-6.521l-9.319-13.982v13.045h2.794v.937h-9.318ZM706.323 669.273h2.794v-25.162h-2.794c-1.865 0-1.865.933-3.727 7.454h-.933v-8.383h17.709v8.383c-1.865-6.521-2.794-7.454-3.727-7.454h-2.798v25.162h2.798v.937h-9.322v-.937ZM732.418 659.955c1.865 7.454 2.794 9.319 6.525 9.319 3.73 0 6.524-1.865 6.524-5.592 0-7.454-13.981-4.663-13.981-13.046 0-4.663 3.726-7.454 8.389-7.454 2.798 0 5.592 0 7.458.929v8.39h-.933l-1.865-4.663c-.933-2.794-2.794-3.727-4.66-3.727-3.73 0-5.592 1.862-5.592 4.663 0 2.791 1.862 3.727 6.525 5.589 5.592 1.865 7.454 3.727 7.454 7.457 0 4.66-3.727 8.39-9.319 8.39-2.798 0-5.592-.936-7.457-1.865v-8.39h.932ZM576.775 670.209v-.936h2.795V644.11h-2.795v-.929h19.574v8.383h-.932c-1.866-6.517-2.798-7.454-4.66-7.454H583.3v11.181h2.794c1.862 0 2.794-.926 3.727-4.656h.936v11.184h-.936c-.933-3.727-1.865-5.592-3.727-5.592H583.3v13.046h6.521c2.798 0 3.73-.929 5.596-9.319h.932v10.255h-19.574Z"/><path d="M546.017 423.226c-10.251 3.727-24.229 10.251-32.619 21.435-.933 1.866-2.794 1.866-3.727 0-2.798-2.794-14.911-14.91-31.691-14.91-4.659 0-11.18.929-15.843 1.861v42.871c2.798-1.861 9.319-4.659 14.914-4.659 8.387 0 25.163 7.457 31.687 13.982 1.866 1.865 3.727 1.865 5.592 0 9.319-9.323 26.095-16.776 46.602-16.776v-52.194h-83.881c10.252-3.727 24.23-10.251 32.62-21.435.933-1.862 2.794-1.862 3.727 0 2.798 2.797 14.911 15.843 32.619 15.843 3.731 0 10.255-.933 14.915-2.794v-41.942c-2.798 1.865-9.319 3.73-14.915 3.73-8.386 0-25.162-7.457-31.687-13.049-1.865-1.865-3.726-1.865-5.592 0-9.318 8.39-25.166 16.776-45.668 16.776v51.261h82.947Z" fill="#f5d218"/><path d="M195.584 613.357h632.832v-2.797H195.584v2.797Z"/></g></svg>