<svg viewBox="0 0 24 24" xmlns="http://www.w3.org/2000/svg"><path d="M1.765 15.648c0 2.795 3.64 5.06 8.127 5.06s8.126-2.265 8.126-5.06c0-2.795-3.64-5.06-8.126-5.06-4.488 0-8.127 2.265-8.127 5.06" fill="#fff"/><path d="M10.084 20.297c-3.974.395-7.405-1.404-7.663-4.01-.259-2.61 2.755-5.04 6.726-5.434 3.973-.394 7.404 1.404 7.66 4.01.26 2.61-2.753 5.044-6.723 5.434m7.944-8.66c-.338-.102-.57-.168-.394-.612.384-.963.424-1.795.007-2.39-.779-1.114-2.911-1.054-5.355-.03 0 0-.768.334-.57-.272.375-1.209.318-2.219-.265-2.805C10.127 4.2 6.6 5.578 3.577 8.6 1.315 10.863 0 13.264 0 15.341c0 3.966 5.09 6.38 10.067 6.38 6.527 0 10.869-3.791 10.869-6.802.003-1.82-1.53-2.854-2.908-3.281" fill="#e6162d"/><path d="M22.363 4.376a6.347 6.347 0 0 0-6.047-1.958.918.918 0 0 0 .384 1.795A4.513 4.513 0 0 1 21 5.604a4.514 4.514 0 0 1 .943 4.418.918.918 0 0 0 1.748.566v-.003a6.338 6.338 0 0 0-1.327-6.21" fill="#f93"/><path d="M19.942 6.561a3.085 3.085 0 0 0-2.944-.95.794.794 0 0 0-.61.94.79.79 0 0 0 .938.606 1.511 1.511 0 0 1 1.755 1.944.793.793 0 0 0 1.507.487 3.092 3.092 0 0 0-.646-3.027" fill="#f93"/><path d="M10.302 15.575c-.139.239-.447.351-.685.252-.239-.096-.312-.364-.176-.596.14-.232.434-.345.67-.252.238.086.324.355.191.596m-1.268 1.623c-.384.613-1.209.88-1.828.6-.61-.279-.792-.99-.407-1.59.38-.596 1.175-.861 1.791-.603.623.268.821.974.444 1.593m1.444-4.338c-1.891-.494-4.027.45-4.848 2.116-.838 1.699-.027 3.586 1.88 4.202 1.98.64 4.312-.34 5.124-2.172.801-1.795-.2-3.64-2.156-4.146"/></svg>