<?xml version="1.0" encoding="utf-8"?>
<!-- Generator: Adobe Illustrator 19.2.1, SVG Export Plug-In . SVG Version: 6.00 Build 0)  -->
<svg version="1.1" id="layer" xmlns="http://www.w3.org/2000/svg" xmlns:xlink="http://www.w3.org/1999/xlink" x="0px" y="0px"
	 viewBox="0 0 652 652" style="enable-background:new 0 0 652 652;" xml:space="preserve">
<style type="text/css">
	.st0{fill:#F5A200;}
	.st1{fill:#001A60;}
</style>
<g>
	<path class="st0" d="M568.8,358.3c0,0,11.8-17.7,12.9-19.4c1.3-2.1,1.4-5.5,0.2-7.4c-0.6-1-18.2-28.8-18.2-28.8
		c-1.6-3-1.2-5.1-0.1-6.5c1.7-2.6,4.8-7.1,4.8-7.1s21.4,33.6,22.3,35.1c2.3,3.8,1.7,7.6-0.2,10.8c-1.6,2.7-15.4,23.4-15.4,23.4
		H568.8z"/>
	<path class="st0" d="M565,360.2c0,0,13.7-20,14.7-21.7c1.2-2,1.1-4.9,0-6.6c-0.6-0.9-19.6-30.8-19.6-30.8s-3.4,5.1-4.4,6.7
		c-1.1,1.6-1.7,3.5,0.1,6.6c0,0,13.6,21.5,14.2,22.4c1.1,1.7,1.1,5-0.2,7c-1,1.6-15,22.1-15,22.1h40.5c4.1,0,6.4-1.6,8.4-4.5
		c1.7-2.4,8.4-12.1,9.4-13.6c1-1.5,3-2.5,3.9-2.5h3.2l-6.2-9.4h-9.8c-1.9,0-4.2,1.7-5.3,3.4c-0.9,1.4-7.7,11.5-8.9,13.1
		c-0.7,0.9-1.3,1.1-1.8,1.1c-0.3,0-1.2,0-1.3,0c0.4-0.8,11.7-17.3,13.9-20.9c2.7-4.5,3.3-10.4,0.1-16c-1.2-2.1-24.7-39.1-24.7-39.1
		s-3.1,4.5-4.4,6.4c-1.1,1.6-1.4,3.6,0.1,6.6c0,0,19.7,31.4,20.7,32.8c2.3,3.6,2,8.4,0,11.6c-1.6,2.7-15.3,23.3-15.3,23.3h10.8
		c3.9,0,4.9-1.5,6-2.7c1.1-1.2,7-10.1,7.6-11.1c0.7-0.9,2.4-3.6,4.6-3.6h7.1v0.2c-1.5,0.3-3,1.2-4.1,2.7c-1.1,1.5-8.2,12-9.1,13.2
		c-1.1,1.6-2.3,3-5.4,3H565z"/>
	<path class="st1" d="M223.8,354.6c0,3.7,0,8-1.8,10.8H233c-1.8-2.8-1.8-7.1-1.8-10.8v-14.4c0-0.3,0-0.7,0.3-0.7
		c0.3,0,0.9,0.7,1.2,1.3l14.9,22.4c0.9,1.3,1.6,2.2,3.1,2.2h8.7c-2.5-2.9-5.3-6.2-7.5-9.4l-13.7-19.6l12.8-13.9
		c3.6-4,6.8-6.4,10.6-9.8h-10.2c0.1,0.3,0.1,0.9,0.1,1.6c0,2-2.9,5.4-7.3,10.6c-4.1,4.9-9.1,10.8-13,11.6v-12.9c0-3.7,0-8,1.8-10.8
		h-11.1c1.8,2.8,1.8,7.1,1.8,10.8V354.6z"/>
	<path class="st1" d="M274.2,326.3c0-1.1,0.1-2.3,0.1-3.4h3.3c6.2,0.1,10.2,1,10.2,8c0,6.6-3.7,10.3-10.5,10.3c-1,0-2.1-0.1-3.1-0.2
		V326.3z M283.8,342.2c5-2,10.4-6.2,10.4-12.7c0-5.5-3.7-9.4-10.8-9.4c-5.5,0-11.1,0.7-16.9,0.7c1.5,2.4,1.5,6,1.5,9.2v25.9
		c0,3,0.1,6.4-1.9,9.6h9.7c-1.5-2.4-1.5-6-1.5-9.2v-12.6c4.1,0.4,4.5,1.5,7.5,5.7l8.5,12.2c1.5,2.2,2.9,3.8,5.9,3.8h5.7
		c-2.9-2.7-3.8-3.8-5.9-6.5L283.8,342.2z"/>
	<path class="st1" d="M308.9,356.3c0,3.1,0,6.8-1.5,9.2h9.4c-1.5-2.4-1.5-6-1.5-9.2V330c0-3.1,0-6.8,1.5-9.2h-9.4
		c1.5,2.4,1.5,6,1.5,9.2V356.3z"/>
	<path class="st1" d="M325.4,364.1c3.2,1.3,8.6,2.4,12,2.4c7.8,0,16.3-4.9,16.3-13.6c0-13.4-20-12-20-22.8c0-5.2,3.6-7.7,8.5-7.7
		c4.7,0,6.6,0.8,9.7,4.1v-6.5c-3.6,0-7.1-0.4-10.8-0.4c-7.4,0-14.1,4-14.1,12.1c0,12.9,20,11.5,20,23.2c0,5.6-4,8.7-9.3,8.7
		c-7.3,0-10.4-4.1-12.5-7.1V364.1z"/>
	<path class="st1" d="M373.3,341.4h2.1c5.1,0,14.4,0,17.3-4.7c-6.4,0.6-13,0.6-19.4,0.6v-21.2h8.5c3.9,0,9.1,0.1,11.4,3.9h0.4v-6.4
		c0-0.7-1.7-0.7-3.8-0.7h-25.6c1.8,2.8,1.7,7.1,1.7,10.8v31c0,3.7,0,8-1.8,10.8h11.1c-1.8-2.8-1.8-7.1-1.8-10.8V341.4z"/>
	<path class="st1" d="M404.1,349.6c0,3.3-0.3,13.2-2.4,15.9h19.4c1.4,0,2.9-0.1,4.3-0.2l1.3-6.6c-3.5,3.4-7.1,4-11,4h-5.3V330
		c0-3.1,0-6.8,1.5-9.2h-9.4c1.5,2.4,1.5,6,1.5,9.2V349.6z"/>
	<path class="st1" d="M448.9,365.5c-1.5-2.4-1.5-6-1.5-9.2v-2.9c0-9.2,2.7-12.7,7.6-20.1l8-12.4h-8.8c0.8,0.8,1,1.7,1,2.8
		c0,2.1-1.5,5.5-3.1,8.3l-4.8,8.5c-0.7,1.3-1.2,2.4-1.6,2.4c-0.6,0-0.8-1-1.1-2.1c-1.3-5-4.5-12.9-7.3-17.3c-1.3-2-1.7-2.7-4.3-2.7
		h-6c2.9,2.6,6.4,8,9.2,13.8c2.8,5.7,4.9,10.4,4.9,15.3v6.4c0,3.1,0,6.8-1.5,9.2H448.9z"/>
	<path class="st1" d="M477.5,343.8h1.7c4.3,0,12.2,0,14.7-4c-5.4,0.5-11,0.5-16.4,0.5v-16.7h6.5c4.1,0,7.9,0.5,10.4,2.6l-0.3-5.4
		h-24.4c1.5,2.4,1.5,6,1.5,9.2v26.3c0,3.1-0.2,6.8-1.7,9.2h20.2c2.5,0,4.8-0.2,6.7-0.3l1.3-6.4c-3.3,2.9-7.8,4-12.1,4h-8V343.8z"/>
	<path class="st1" d="M513.8,326.3c0-1.1,0.1-2.3,0.1-3.4h3.3c6.2,0.1,10.2,1,10.2,8c0,6.6-3.7,10.3-10.5,10.3c-1,0-2.1-0.1-3.1-0.2
		V326.3z M523.4,342.2c5-2,10.4-6.2,10.4-12.7c0-5.5-3.7-9.4-10.8-9.4c-5.5,0-11.1,0.7-16.9,0.7c1.5,2.4,1.5,6,1.5,9.2v25.9
		c0,3,0.1,6.4-1.9,9.6h9.7c-1.5-2.4-1.5-6-1.5-9.2v-12.6c4.1,0.4,4.5,1.5,7.5,5.7l8.5,12.2c1.5,2.2,2.9,3.8,5.9,3.8h5.7
		c-2.9-2.7-3.8-3.8-5.9-6.5L523.4,342.2z"/>
	<path class="st1" d="M26.5,332.2h5.4c1.2,0,2.1,0.7,2.1,2.1c0,1.4-0.8,2.1-2.1,2.1H20.4v3.6h11.1c4.3,0,6.4-2.8,6.4-5.7
		c0-2.9-2.1-5.7-6.4-5.7c-1.9,0-5.4,0-5.4,0c-1.2,0-2-0.7-2-2c0-1.3,0.8-2,2-2h11.6v-3.6H26.5c-4.3,0-6.4,2.5-6.4,5.7
		C20.2,329.7,22.3,332.2,26.5,332.2"/>
	<path class="st1" d="M83.8,339.9h8.5v-12.4h-4.2v8.8h-4.9c-3.5,0-5.9-2-5.9-6c0-3.9,2.4-6,5.9-6h9.1v-3.5h-8.5
		c-7.2,0-10.7,5.2-10.7,9.6C73.1,334.8,76.7,339.9,83.8,339.9"/>
</g>
<rect x="42.2" y="320.8" class="st1" width="4.2" height="19.1"/>
<g>
	<path class="st1" d="M55.8,324.3h6.9c1.7,0,2.8,1.5,2.8,3v12.6h4.2v-13.1c0-3.2-2.3-5.9-6-5.9h-5.5l-2.4,3.2v0v-3.2h-4.2v19.1h4.2
		V324.3z"/>
	<path class="st1" d="M167,324.3h6.6c1.5,0,2.5,1.5,2.5,2.8c0,1.3-1,2.8-2.5,2.8h-5.1l8.3,10h5l-5.9-7.1h0c2.5-0.8,4.2-3.2,4.2-5.8
		c0-3.3-2.5-6.2-6.2-6.2h-10.9v19.1h4.1V324.3z"/>
</g>
<polygon class="st1" points="200,339.9 200,336.4 188.8,336.4 188.8,331.5 198.6,331.5 198.6,328.1 188.8,328.1 188.8,324.3 
	200,324.3 200,320.8 184.6,320.8 184.6,339.9 188.8,339.9 "/>
<path class="st1" d="M106.1,324.1l3,6.9l-6,0L106.1,324.1z M101.6,334.4l8.9,0l2.5,5.5h4.6l-9.3-19.1h-4.3l-9.3,19.1h4.6
	L101.6,334.4z"/>
<g>
	<path class="st1" d="M123.9,324.3h6.5c1.5,0,2.5,1.6,2.5,3c0,1.4-1,3-2.5,3h-6.5V324.3z M123.9,330.6L123.9,330.6l2.4,3.2h4.3
		c3.6,0,6.1-3,6.1-6.4c0-3.5-2.5-6.5-6.1-6.5h-10.9v19.1h4.2V330.6z"/>
	<path class="st1" d="M149.3,323.8c3.6,0,6.5,2.9,6.5,6.5c0,3.6-2.9,6.5-6.5,6.5c-3.6,0-6.5-2.9-6.5-6.5
		C142.8,326.7,145.7,323.8,149.3,323.8 M149.3,340.7c5.7,0,10.4-4.6,10.4-10.4c0-5.7-4.6-10.4-10.4-10.4c-5.7,0-10.4,4.6-10.4,10.4
		C139,336.1,143.6,340.7,149.3,340.7"/>
</g>
<rect x="131.1" y="346.4" class="st1" width="4.2" height="19.1"/>
<polygon class="st1" points="128.2,365.4 128.2,362 118.4,362 118.4,346.4 114.2,346.4 114.2,365.4 118.4,365.4 "/>
<path class="st1" d="M68.2,349.7l3,6.9l-6,0L68.2,349.7z M63.7,359.9l8.9,0l2.5,5.5h4.6l-9.3-19.1H66l-9.3,19.1h4.6L63.7,359.9z"/>
<g>
	<path class="st1" d="M96.6,349.9h6.6c1.5,0,2.5,1.5,2.5,2.8c0,1.3-1,2.8-2.5,2.8H98l8.3,10h5l-5.9-7.1h0c2.5-0.8,4.2-3.2,4.2-5.8
		c0-3.3-2.5-6.2-6.2-6.2H92.5v19.1h4.1V349.9z"/>
</g>
<rect x="82.5" y="346.4" class="st1" width="4.2" height="19.1"/>
<g>
	<path class="st1" d="M188.9,357.7h5.4c1.2,0,2.1,0.7,2.1,2.1c0,1.4-0.8,2.1-2.1,2.1h-11.5v3.6h11.1c4.3,0,6.4-2.8,6.4-5.7
		c0-2.9-2.1-5.7-6.4-5.7c-1.9,0-5.4,0-5.4,0c-1.2,0-2-0.7-2-2c0-1.3,0.8-2,2-2H200v-3.6h-11.1c-4.3,0-6.4,2.5-6.4,5.7
		C182.5,355.2,184.6,357.7,188.9,357.7"/>
</g>
<polygon class="st1" points="178.5,365.4 178.5,362 167.3,362 167.3,357.1 177,357.1 177,353.6 167.3,353.6 167.3,349.9 
	178.5,349.9 178.5,346.4 163.1,346.4 163.1,365.4 167.3,365.4 "/>
<g>
	<path class="st1" d="M144.6,349.9h6.9c1.7,0,2.8,1.6,2.8,3v12.6h4.2v-13.1c0-3.2-2.3-5.9-6-5.9H147l-2.4,3.2v0v-3.2h-4.2v19.1h4.2
		V349.9z"/>
</g>
</svg>
