<svg viewBox="0 0 8 8" xmlns="http://www.w3.org/2000/svg"><path d="m2.34 0 2.078 3.346s.305.502.305.89c0 .387-.242.826-.377 1.048l-.915 1.427s-.103.137-.03.188c.074.052.147-.04.209-.116l.682-1.039s.199-.429.713-.429h.724l.503.796s-.398-.041-.576.243l-.744 1.122S4.67 8 4.021 8H.517L1.85 5.954s.189-.24-.075-.639L.589 3.41s-.292-.282.01-.765l.347-.525 1.648 2.672s.292.367 0 .806l-1.238 1.93h2.61s.295.055.548-.323l.649-.997s.147-.336.473-.473H5.11s-.274.01-.483.336l-.576.891s-.21.378-.672.378h-.912l1.1-1.708s.6-.788.179-1.512L1.922 1.101S1.785.84 1.943.597L2.341 0Zm-.658 1.05 1.835 2.997s.473.628-.042 1.405L2.27 7.326h-.556l1.122-1.77s.167-.367-.052-.755L1.219 2.212s-.136-.24 0-.47l.463-.693Z" fill="#FCB130" fill-rule="evenodd"/></svg>