<?xml version="1.0" encoding="UTF-8"?>
<svg viewBox="0 0 8 8" version="1.1" xmlns="http://www.w3.org/2000/svg" xmlns:xlink="http://www.w3.org/1999/xlink">
    <title>sinopec</title>
    <g id="Page-1" stroke="none" stroke-width="1" fill="none" fill-rule="evenodd">
        <g id="sinopec" fill-rule="nonzero">
            <path d="M1.73770435,4.16963478 C1.73770435,4.16963478 0.537634783,4.28751304 0.187304348,5.7845913 C0.187304348,5.7845913 0.164556522,5.96768696 0.175547826,6.09168696 C0.188626087,6.23947826 0.231895652,6.4058087 0.36386087,6.49290435 C0.36386087,6.49290435 0.462713043,6.56118261 0.7224,6.71627826 C0.987930435,6.87488696 1.06083478,7.06246957 1.03137391,7.23189565 C1.03137391,7.23189565 0.950365217,7.6149913 0.545182609,7.48236522 L0,8 L1.21843478,8 C1.21843478,8 1.62066087,7.75492174 1.56911304,7.27610435 C1.51756522,6.79728696 1.17234783,6.5965913 1.024,6.50998261 C0.840591304,6.40292174 0.576834783,6.36233043 0.559930435,6.068 C0.543234783,5.77742609 0.555826087,5.57982609 0.7224,5.27561739 C0.7752,5.1792 0.82626087,5.0624 0.920869565,4.94093913 C1.07210435,4.74674783 1.26431304,4.46445217 1.73770435,4.16963478 Z" id="Path" fill="#000000"></path>
            <rect id="Rectangle" fill="#000000" x="1.89565217" y="0.608278261" width="1" height="7.39172174"></rect>
            <polygon id="Path" fill="#000000" points="2.4173913 8 2.4173913 0.434782609 2.74782609 0.434782609 3.02608696 3.35652174 3.02608696 0.260869565 3.33913043 0.260869565 3.33913043 8 3.06086957 8 2.74782609 5.11304348 2.73043478 8"></polygon>
            <path d="M0.879686957,5.45269565 L0.879686957,5.45269565 L0.7224,5.78466087 C0.9808,6.20455652 1.31822609,6.57057391 1.71446957,6.86132174 L1.71446957,6.47888696 C1.3752,6.19401739 1.0909913,5.84584348 0.879686957,5.45269565 Z" id="Path" fill="#E30613"></path>
            <path d="M3.95714783,0 C1.86066087,0 0.161147826,1.70017391 0.161147826,3.79746087 C0.161147826,4.22365217 0.231547826,4.63332174 0.361008696,5.01575652 L0.587686957,4.7202087 C0.507965217,4.42723478 0.465113043,4.11906087 0.465113043,3.8008 C0.465113043,1.87036522 2.03005217,0.305426087 3.96048696,0.305426087 C5.89095652,0.305426087 7.45586087,1.87036522 7.45586087,3.8008 C7.45586087,4.74413913 7.08205217,5.60003478 6.4746087,6.22883478 L6.47464348,6.22886957 L6.68406957,6.43881739 C7.34570435,5.75533913 7.75311304,4.82403478 7.75311304,3.79746087 C7.75311304,1.70017391 6.0536,0 3.95714783,0 Z" id="Path" fill="#E30613"></path>
            <path d="M4.01413101,6.1570087 L3.53029565,6.54118261 L3.53029565,7.59033043 L4.01413101,8 L4.53029565,7.50288696 L4.53029565,6.54118261 L4.01413101,6.1570087 Z M4.16651234,7.51878261 L3.86364213,7.51878261 L3.86364213,6.57297391 L4.16651234,6.57297391 L4.16651234,7.51878261 Z" id="Shape" fill="#000000"></path>
            <path d="M5.13616631,6.1570087 L4.62709565,6.54118261 L4.62709565,8 L4.9452847,8 L4.9634658,7.65391304 L5.30230253,7.91617391 L5.62709565,7.63801739 L5.62709565,6.52528696 L5.13616631,6.1570087 Z M5.30226274,7.53467826 L4.99071755,7.53467826 L4.99071755,6.55707826 L5.30226274,6.55707826 L5.30226274,7.53467826 Z" id="Shape" fill="#000000"></path>
            <polygon id="Path" fill="#000000" points="5.71596522 6.54911304 6.13718261 6.1570087 6.55843478 6.58086957 6.02024348 6.58090435 6.01798261 6.92267826 6.55843478 6.92267826 6.55843478 7.24855652 6.01798261 7.24855652 6.01833043 7.59033043 6.55843478 7.59033043 6.13718261 8 5.71596522 7.62212174"></polygon>
            <polyline id="Path" fill="#000000" points="7.1709913 6.17523478 6.7768 6.56813913 6.7768 7.65798261 7.14782609 8 7.5941913 7.57683478 7.5941913 7.2464 7.34493913 7.2464 7.33913043 7.58264348 7.07245217 7.58264348 7.06667826 6.59133913 7.33913043 6.59711304 7.33965217 6.94782609 7.5941913 6.94942609 7.5941913 6.58163478 7.1709913 6.17523478"></polyline>
            <path d="M4.1688087,3.75345 C4.1788087,3.75195 4.1924087,3.74575 4.1924087,3.74575 C4.1924087,3.74575 4.1833087,3.74865 4.1688087,3.75345 Z" id="Path" fill="#000000"></path>
            <path d="M4.44277832,3.56274783 C4.42437604,3.54636522 4.40232139,3.56546087 4.38026674,3.56 C4.35821209,3.55453913 4.29574734,3.53815652 4.28099741,3.54852174 C4.26624749,3.55888696 4.17807572,3.56546087 4.10825942,3.56546087 C4.03844311,3.56546087 4.03839629,3.49721739 4.03839629,3.49721739 L4.06045094,3.2194087 C4.06045094,3.2194087 4.04574784,3.18045217 4.01264245,3.18866087 C3.97953707,3.19686957 3.94647851,3.23506087 3.94282615,3.25147826 C3.93917379,3.26789565 3.95752925,3.56278261 3.94282615,3.58462609 C3.92812305,3.60646957 3.86195911,3.64744348 3.82885372,3.65836522 C3.79574834,3.66928696 3.75533823,3.70205217 3.72593203,3.71026087 C3.69652584,3.71846957 3.68917429,3.72118261 3.68182274,3.71026087 C3.67447119,3.69933913 3.70387738,3.63652174 3.64871735,3.64744348 C3.59355732,3.65836522 3.56415112,3.66653913 3.53474493,3.71568696 C3.50533873,3.76483478 3.50163954,3.81126957 3.50163954,3.81126957 L3.46118261,3.90956522 C3.46801908,3.94309565 3.5052919,3.98055652 3.5052919,3.98055652 L3.52734655,4.00003478 C3.5494012,4.01951304 3.58245976,4.0024 3.60086204,4.00003478 C3.61926433,3.99766957 3.60821359,3.97509565 3.61556514,3.95053913 C3.62291669,3.92598261 3.66337363,3.87954783 3.69277982,3.84403478 C3.72218602,3.80852174 3.83981081,3.75391304 3.83981081,3.75391304 L3.93168176,3.7429913 C3.93168176,3.7429913 3.95373641,3.81398261 3.92433021,3.83582609 C3.89492401,3.85766957 3.92433021,3.89043478 3.86551782,3.90681739 C3.80670542,3.9232 3.79935387,3.95321739 3.78834996,3.98326957 C3.77734605,4.01332174 3.80675225,4.01328696 3.87656855,4.01878261 C3.94638486,4.02427826 3.90227556,4.04062609 3.90227556,4.04062609 C3.90227556,4.04062609 3.89127165,4.57311304 3.89857638,4.62497391 C3.9058811,4.67683478 3.93168176,4.68229565 3.96108796,4.67683478 C3.99049415,4.67137391 3.99681555,4.62497391 3.99681555,4.62497391 C3.99681555,4.62497391 4.00880279,4.01554783 4.02252256,3.98553043 C4.03624233,3.95551304 4.21839218,3.94504348 4.21839218,3.94504348 C4.21839218,3.94504348 4.22944292,3.90406957 4.23679447,3.90953043 C4.24414602,3.9149913 4.16327897,3.86309565 4.18163444,3.81123478 C4.19736769,3.76681739 4.33962251,3.72845217 4.38012627,3.71833043 C4.37197869,3.71923478 4.36888823,3.71509565 4.41323165,3.68563478 C4.48318843,3.6392 4.46113378,3.57913043 4.44277832,3.56274783 Z M4.09290077,3.7343528 C4.0656017,3.76734043 4.07337468,3.80847621 4.03436932,3.80027868 C3.99536397,3.79208116 3.99694696,3.76734043 3.99694696,3.76734043 C3.99694696,3.76734043 4.01877655,3.69736517 4.06166839,3.70151332 C4.10456023,3.70566146 4.12019983,3.70131579 4.09290077,3.7343528 Z" id="Shape" fill="#000000"></path>
            <path d="M4.29276522,3.71833043 C4.29276522,3.71833043 4.2464,3.73624348 4.24347826,3.86375652 C4.24055652,3.99126957 4.24636522,4.00869565 4.22027826,4.03478261 C4.1941913,4.06086957 4.18838261,4.14201739 4.19130435,4.13043478 C4.19422609,4.11885217 4.19064348,4.22316522 4.20403478,4.22897391 C4.21742609,4.23478261 4.2021913,4.26083478 4.24170435,4.22897391 C4.28121739,4.19711304 4.30438261,4.1362087 4.31596522,4.09853913 C4.32754783,4.06086957 4.31596522,3.76229565 4.31596522,3.76229565 C4.31596522,3.76229565 4.32285217,3.74782609 4.29276522,3.71833043 Z" id="Path" fill="#000000"></path>
            <path d="M5.23122054,4.26199345 C5.2150632,4.21744987 5.15839195,4.17536455 5.13411575,4.13662246 C5.10983955,4.09788036 5.24335864,3.98976631 5.27165408,3.96749452 C5.29994952,3.94522273 5.34046344,3.90067916 5.27165408,3.88828955 C5.20284472,3.87589995 5.21498282,3.90062999 5.14215422,3.95510492 C5.06932563,4.00957985 5.05316829,3.95264666 5.04504943,3.94522273 C5.03693057,3.9377988 5.07744449,3.78681279 5.05718753,3.76478683 C5.03693057,3.74276087 4.94794464,3.7249631 4.94794464,3.7249631 C4.94794464,3.7249631 4.89553377,3.654952 4.86715795,3.63268022 C4.83878213,3.61040843 4.81032592,3.58385927 4.76563199,3.6383342 C4.72093806,3.69280913 4.84649906,3.69138334 4.80220706,3.74477664 C4.7682043,3.78573116 4.62777212,3.76616345 4.60317438,3.77422653 C4.3303485,3.86419865 4.40406133,3.89281274 4.49867419,3.90564483 C4.57648664,3.91616616 4.59577899,3.92791662 4.56346431,3.9576615 C4.53114964,3.98740639 4.49521765,4.00107428 4.54730697,4.05417259 C4.65735372,4.16631817 4.57962165,4.14080149 4.53516887,4.17546288 C4.4907161,4.21012427 4.32882119,4.28436357 4.33685966,4.32890715 C4.34489814,4.37345073 4.46234028,4.34626243 4.56346431,4.32394147 C4.66458834,4.30162052 4.84674022,4.22738122 4.85887832,4.19522725 C4.87101642,4.16307328 4.85477869,4.16302411 4.81844478,4.16287662 C4.78211087,4.16272912 4.77793086,4.18033023 4.72937846,4.19026158 C4.68082607,4.20019292 4.67278759,4.19591556 4.68082607,4.17295546 C4.70092226,4.11557979 4.88717375,4.00957985 4.91956881,4.00215592 C4.95196387,3.99473199 4.95196387,4.00957985 4.96000235,4.02196945 C4.96804083,4.03435905 4.92358805,4.05166517 4.90743071,4.06823381 C4.89127338,4.08480244 4.9486681,4.09724121 4.95598311,4.10363268 C4.96972891,4.11562896 4.99585395,4.12305289 4.98837817,4.13667162 C4.88026066,4.33333201 4.79818782,4.32644889 4.73741694,4.38087465 C4.67664606,4.43530042 4.50269343,4.46499614 4.48653609,4.50855641 C4.47037876,4.55211669 4.52696963,4.57143857 4.52696963,4.57143857 C4.52696963,4.57143857 4.8062263,4.55659071 4.87905489,4.57143857 C4.91442419,4.57861667 4.98757432,4.60782074 5.05582099,4.60614913 C5.12816728,4.60437918 5.19472586,4.57143857 5.19472586,4.57143857 L5.25139712,4.50855641 C5.25951598,4.4704043 5.2145809,4.40973457 5.1501927,4.41057037 C5.08580451,4.41140618 5.0895022,4.390806 4.99239741,4.42295998 C4.89529262,4.45511395 4.87905489,4.4056047 4.88717375,4.39822993 C4.89529262,4.39085517 5.03451903,4.23283855 5.04906867,4.25216043 C5.07784641,4.29036171 5.16643042,4.35117894 5.19882548,4.39572251 C5.23122054,4.44026609 5.33242496,4.41548688 5.3364442,4.37836723 C5.34046344,4.34124759 5.24737788,4.30653703 5.23122054,4.26199345 Z M4.82557187,3.94971668 C4.81137187,3.94631668 4.79617187,3.92981668 4.79797187,3.91521668 C4.80077187,3.89201668 4.82497187,3.89421668 4.84347187,3.89421668 L4.84017187,3.89751668 C4.87537187,3.89951668 4.86817187,3.95971668 4.82557187,3.94971668 Z" id="Shape" fill="#000000"></path>
            <path d="M4.64468605,3.6146087 C4.64732512,3.62914783 4.66158341,3.64657391 4.67173648,3.65405217 C4.6827326,3.66215652 4.69405859,3.6706087 4.70520132,3.67808696 C4.71311852,3.68344348 4.72818319,3.69537391 4.73727331,3.68653913 C4.7436144,3.68034783 4.74225821,3.66671304 4.74141517,3.65853913 C4.73921595,3.63728696 4.74038887,3.6138087 4.72481105,3.59669565 C4.71553766,3.58653913 4.70116941,3.5850087 4.68680116,3.58417391 C4.67320263,3.5834087 4.66623843,3.57850435 4.65432597,3.5869913 C4.64897453,3.59078261 4.64545578,3.59544348 4.64289002,3.60156522 C4.64065414,3.6069913 4.64413625,3.60932174 4.64468605,3.6146087" id="Path" fill="#000000"></path>
            <path d="M4.41885217,3.5890087 C4.4466087,3.59457391 4.48646957,3.5864 4.51081739,3.57558261 C4.53613913,3.56431304 4.56469565,3.5493913 4.59126957,3.5429913 C4.62813913,3.53412174 4.66424348,3.52657391 4.70306087,3.52657391 C4.73874783,3.52657391 4.7736,3.51853913 4.79944348,3.54650435 C4.8186087,3.5672 4.81464348,3.60897391 4.82135652,3.63596522 C4.83053913,3.6725913 4.83690435,3.6984 4.83457391,3.7354087 C4.83238261,3.77026087 4.83471304,3.81652174 4.84476522,3.84845217 C4.85627826,3.88490435 4.84813913,3.9096 4.85189565,3.94716522 C4.85467826,3.97506087 4.86006957,3.99857391 4.86222609,4.02191304 C4.86469565,4.04831304 4.86935652,4.0744 4.87057391,4.10097391 C4.87189565,4.1285913 4.86671304,4.15453913 4.85822609,4.18062609 C4.85606957,4.18723478 4.85293913,4.19558261 4.84987826,4.20069565 C4.8418087,4.21433043 4.82758261,4.21961739 4.81443478,4.2261913 C4.80132174,4.23276522 4.78486957,4.23526957 4.77036522,4.23836522 C4.76337391,4.23986087 4.75443478,4.24024348 4.7509913,4.24671304 C4.74629565,4.25547826 4.75262609,4.26257391 4.75593043,4.26918261 C4.7688,4.29478261 4.78045217,4.32045217 4.79255652,4.34761739 C4.7970087,4.35756522 4.79867826,4.35742609 4.81008696,4.35850435 C4.82031304,4.35951304 4.82970435,4.3605913 4.8394087,4.35874783 C4.85986087,4.35495652 4.8661913,4.35290435 4.87749565,4.33624348 C4.8805913,4.33165217 4.8842087,4.32657391 4.88838261,4.32375652 C4.88824348,4.31707826 4.90935652,4.30066087 4.91495652,4.29446957 C4.91304348,4.29766957 4.91857391,4.28153043 4.91843478,4.2784 C4.91826087,4.27426087 4.92034783,4.27008696 4.92111304,4.26598261 C4.92434783,4.24893913 4.92553043,4.22953043 4.93248696,4.21401739 C4.94615652,4.18361739 4.96097391,4.15506087 4.96476522,4.12128696 C4.96702609,4.10135652 4.97095652,4.07996522 4.97791304,4.06024348 C4.98462609,4.04125217 5.00024348,4.02010435 4.99826087,3.99937391 C4.97864348,3.97993043 4.9869913,3.93690435 4.97909565,3.91165217 C4.97502609,3.8986087 4.9744,3.88455652 4.97095652,3.87172174 C4.9682087,3.86146087 4.96452174,3.84845217 4.96584348,3.83627826 C4.96584348,3.83627826 4.94751304,3.57561739 4.94344348,3.53593043 C4.93937391,3.49624348 4.90984348,3.43210435 4.85791304,3.4392 C4.80598261,3.44629565 4.6736,3.42594783 4.6736,3.42594783 C4.6736,3.42594783 4.61252174,3.45346087 4.5829913,3.46566957 C4.55346087,3.47787826 4.46281739,3.52267826 4.44653913,3.52066087 C4.43026087,3.51864348 4.37561739,3.5736 4.41871304,3.58584348" id="Path" fill="#000000"></path>
            <path d="M5.43057391,3.68973913 C5.43057391,3.68973913 5.35652174,3.71857391 5.34306087,3.75892174 C5.33763478,3.7752 5.31634783,3.8493913 5.28914783,3.9370087 C5.24886957,4.06685217 5.19551304,4.2261913 5.16135652,4.27036522 C5.144,4.29283478 5.11770435,4.35203478 5.0765913,4.41523478 C4.98222609,4.56031304 4.84292174,4.7594087 4.79123478,4.81881739 C4.76925217,4.84410435 4.80132174,4.88615652 4.82153043,4.8592 C4.84173913,4.83224348 5.07196522,4.57996522 5.18493913,4.35975652 C5.18493913,4.35975652 5.27683478,4.16667826 5.28462609,4.16511304 C5.29241739,4.16354783 5.29551304,4.16824348 5.2986087,4.2024 C5.30170435,4.23655652 5.29394783,4.24747826 5.32191304,4.25213913 C5.34987826,4.2568 5.39652174,4.26302609 5.4197913,4.24747826 C5.44306087,4.23193043 5.47568696,4.20866087 5.47262609,4.18688696 C5.46956522,4.16511304 5.45707826,4.12626087 5.4602087,4.10452174 C5.46333913,4.08278261 5.46333913,4.0749913 5.51770435,4.07036522 C5.57206957,4.06573913 5.56274783,4.05485217 5.5938087,4.05328696 C5.62486957,4.05172174 5.63575652,4.06566957 5.64817391,4.07502609 C5.6605913,4.08438261 5.61864348,4.12476522 5.6,4.14963478 C5.58135652,4.17450435 5.54869565,4.2117913 5.59843478,4.24132174 C5.64817391,4.27085217 5.65436522,4.24288696 5.69787826,4.22890435 C5.7413913,4.21492174 5.73516522,4.20866087 5.78177391,4.19933913 C5.82838261,4.19001739 5.84236522,4.17916522 5.84236522,4.16671304 C5.84236522,4.15426087 5.82841739,4.14031304 5.78333913,4.11853913 C5.73826087,4.09676522 5.75846957,4.08121739 5.77711304,4.04546087 C5.79575652,4.00973913 5.85481739,3.95996522 5.85634783,3.93822609 C5.85787826,3.91648696 5.85168696,3.8573913 5.80041739,3.8714087 C5.74914783,3.88542609 5.6853913,3.93513043 5.66987826,3.9397913 C5.65436522,3.94445217 5.62330435,3.9474087 5.60775652,3.95993043 C5.60775652,3.95993043 5.57384348,3.96615652 5.5490087,3.96772174 C5.52417391,3.96928696 5.47561739,3.95798261 5.46469565,3.9642087 C5.45377391,3.97043478 5.45113043,3.96928696 5.42316522,3.96306087 C5.3952,3.95683478 5.39053913,3.93666087 5.38587826,3.91488696 C5.38121739,3.89311304 5.4154087,3.8434087 5.4216,3.82476522 C5.4277913,3.80612174 5.42782609,3.7765913 5.43248696,3.76417391 C5.43714783,3.75175652 5.45582609,3.74086957 5.45892174,3.72845217 C5.46201739,3.71603478 5.46438261,3.68834783 5.43057391,3.68973913 Z" id="Path" fill="#000000"></path>
            <path d="M5.43252174,3.64445217 C5.43252174,3.64445217 5.60653913,3.64445217 5.67958261,3.61029565 C5.75262609,3.57613913 5.75568696,3.54504348 5.77436522,3.52173913 C5.79304348,3.49843478 5.76504348,3.45182609 5.72932174,3.46114783 C5.6936,3.47046957 5.58949565,3.49224348 5.55530435,3.49533913 C5.52111304,3.49843478 5.48695652,3.48754783 5.46518261,3.5 C5.4434087,3.51245217 5.40772174,3.53262609 5.39213913,3.53572174 C5.37655652,3.53881739 5.31909565,3.54970435 5.35328696,3.58076522 C5.38747826,3.61182609 5.40455652,3.63669565 5.43252174,3.64445217 Z" id="Path" fill="#000000"></path>
            <path d="M6.37777391,3.50716522 C6.37777391,3.50716522 6.31558261,3.5042087 6.25335652,3.58716522 C6.25335652,3.58716522 6.10226087,3.83603478 6.04893913,3.84789565 C5.99561739,3.85975652 5.92747826,3.91307826 5.9482087,3.92493913 C5.96893913,3.9368 6.04306087,3.95158261 6.07857391,3.94862609 C6.11408696,3.94566957 6.11707826,3.91307826 6.13485217,3.89530435 C6.15262609,3.87753043 6.17335652,3.84198261 6.18817391,3.85384348 C6.2029913,3.86570435 6.20285217,3.98010435 6.19693913,4.01168696 C6.19102609,4.04326957 6.15853913,4.08493913 6.14375652,4.11161739 C6.12897391,4.13829565 6.10706087,4.12507826 6.10382609,4.14789565 C6.10090435,4.16841739 6.09513043,4.18570435 6.1408,4.18570435 C6.20006957,4.18570435 6.23864348,4.16497391 6.26229565,4.13829565 C6.29968696,4.09610435 6.29363478,4.04354783 6.28963478,3.97690435 C6.28577391,3.91248696 6.27666087,3.83704348 6.27666087,3.83704348 C6.27666087,3.83704348 6.2418087,3.7845913 6.2293913,3.76692174 C6.22521739,3.7610087 6.22375652,3.7472 6.23266087,3.72351304 C6.24156522,3.69982609 6.28598261,3.63165217 6.29488696,3.62869565 C6.3037913,3.62573913 6.34994783,3.59746087 6.37071304,3.57669565 C6.39147826,3.55593043 6.40006957,3.53050435 6.3986087,3.52205217 L6.37777391,3.50716522 Z" id="Path" fill="#000000"></path>
            <path d="M6.41450435,3.87537391 L6.47245217,3.87537391 C6.47245217,3.87537391 6.48984348,3.87826087 6.48695652,3.90434783 C6.48406957,3.93043478 6.47606957,4.10434783 6.48730435,4.13043478 C6.49853913,4.15652174 6.51881739,4.19714783 6.61158261,4.20292174 C6.70434783,4.20869565 6.84441739,4.21151304 6.90817391,4.19993043 C6.97193043,4.18834783 7.04928696,4.15652174 7.12173913,4.10146087 C7.1941913,4.0464 7.20577391,4.01161739 7.24636522,3.97102609 C7.28695652,3.93043478 7.29568696,3.93043478 7.31015652,3.91015652 C7.32462609,3.88987826 7.32177391,3.86086957 7.31015652,3.8232 C7.29853913,3.78553043 7.27245217,3.82031304 7.26375652,3.66667826 C7.25506087,3.51304348 7.27064348,3.52921739 7.24928696,3.52466087 C7.23005217,3.52052174 7.19130435,3.55074783 7.2,3.57683478 C7.20869565,3.60292174 7.20577391,3.71596522 7.20288696,3.74786087 C7.2,3.77975652 7.19133913,3.79714783 7.19711304,3.83481739 C7.20288696,3.87248696 7.22031304,3.91888696 7.19711304,3.94497391 C7.17391304,3.97106087 7.12427826,4.03742609 6.9941913,4.1101913 C6.94333913,4.1386087 6.77968696,4.12469565 6.72462609,4.1101913 C6.66956522,4.09568696 6.60706087,4.03193043 6.60706087,4.00003478 C6.60706087,3.96813913 6.6,3.90497391 6.60869565,3.8669913 C6.6173913,3.8290087 6.6405913,3.78841739 6.66667826,3.78264348 C6.69276522,3.77686957 6.76396522,3.70337391 6.81450435,3.65801739 C6.85123478,3.62507826 6.8805913,3.6250087 6.92173913,3.56817391 C6.95346087,3.52431304 6.84813913,3.5349913 6.83655652,3.53210435 C6.82497391,3.52921739 6.80653913,3.53944348 6.74010435,3.60372174 C6.69478261,3.64758261 6.67050435,3.64431304 6.65509565,3.62615652 C6.62984348,3.59645217 6.6232,3.57109565 6.58553043,3.59137391 C6.54786087,3.61165217 6.51725217,3.63175652 6.52177391,3.66382609 C6.52671304,3.69871304 6.52678261,3.77492174 6.48285217,3.79373913 C6.4429913,3.81078261 6.41196522,3.8261913 6.39874783,3.84646957 C6.38553043,3.86674783 6.41450435,3.87537391 6.41450435,3.87537391 Z" id="Path" fill="#000000"></path>
        </g>
    </g>
</svg>
