<svg viewBox="0 0 8 8" xmlns="http://www.w3.org/2000/svg"><g fill-rule="nonzero" fill="none"><path d="M1.738 4.17s-1.2.118-1.55 1.615c0 0-.023.183-.012.307.013.147.056.314.188.4 0 0 .099.07.358.224.266.159.339.346.31.516 0 0-.082.383-.487.25L0 8h1.218s.403-.245.351-.724c-.051-.479-.397-.68-.545-.766-.183-.107-.447-.148-.464-.442-.017-.29-.004-.488.162-.792.053-.097.104-.214.199-.335.151-.194.343-.477.817-.771ZM1.896.608h1V8h-1z" fill="#000"/><path fill="#000" d="M2.417 8V.435h.33l.28 2.922V.26h.312V8h-.278l-.313-2.887L2.73 8z"/><path d="m.88 5.453-.158.332c.259.42.596.786.992 1.076V6.48A3.512 3.512 0 0 1 .88 5.453ZM3.957 0A3.797 3.797 0 0 0 .361 5.016l.227-.296A3.497 3.497 0 0 1 3.96.305 3.495 3.495 0 0 1 6.475 6.23l.21.21A3.797 3.797 0 0 0 3.957 0Z" fill="#E30613"/><path d="m4.014 6.157-.484.384v1.05L4.014 8l.516-.497V6.54l-.516-.384Zm.153 1.362h-.303v-.946h.303v.946ZM5.136 6.157l-.509.384V8h.318l.018-.346.34.262.324-.278V6.525l-.49-.368Zm.166 1.378h-.311v-.978h.311v.978ZM5.716 6.55l.421-.393.421.424H6.02l-.002.342h.54v.326h-.54v.341h.54l-.42.41-.422-.378zM7.171 6.175l-.394.393v1.09l.37.342.447-.423v-.33h-.25l-.005.336h-.267l-.005-.992.272.006v.35l.255.002v-.367l-.423-.407M4.169 3.753c.01-.001.023-.007.023-.007l-.023.007Z" fill="#000"/><path d="M4.443 3.563c-.019-.017-.04.002-.063-.003-.022-.005-.084-.022-.099-.011a.609.609 0 0 1-.173.016c-.07 0-.07-.068-.07-.068l.022-.278s-.014-.039-.047-.03c-.033.008-.067.046-.07.062-.004.017.015.312 0 .334a.323.323 0 0 1-.114.073c-.033.011-.074.044-.103.052-.03.008-.037.011-.044 0-.008-.01.022-.073-.033-.063-.055.011-.085.02-.114.069-.03.049-.033.095-.033.095l-.04.099a.182.182 0 0 0 .043.07l.022.02c.022.02.055.002.074 0 .018-.002.007-.025.015-.05.007-.024.047-.07.077-.106a.644.644 0 0 1 .147-.09l.092-.011s.022.071-.008.093c-.03.022 0 .054-.058.07-.06.017-.067.047-.078.077-.01.03.019.03.089.036.07.005.025.022.025.022s-.01.532-.003.584c.007.052.033.057.062.052.03-.006.036-.052.036-.052s.012-.61.026-.64c.013-.03.195-.04.195-.04s.011-.04.019-.035c.007.005-.074-.047-.055-.099.015-.044.158-.083.198-.093-.008.001-.011-.003.033-.032.07-.047.048-.107.03-.123Zm-.35.171c-.027.033-.02.074-.059.066-.039-.008-.037-.033-.037-.033s.022-.07.065-.065c.043.004.058 0 .03.032Z" fill="#000"/><path d="M4.293 3.718s-.047.018-.05.146c-.002.127.003.145-.023.17-.026.027-.032.108-.029.096.003-.011 0 .093.013.099.013.006-.002.032.038 0a.281.281 0 0 0 .074-.13c.012-.038 0-.337 0-.337s.007-.014-.023-.044ZM5.231 4.262c-.016-.045-.073-.087-.097-.125-.024-.04.11-.147.138-.17.028-.022.068-.066 0-.079-.07-.012-.057.013-.13.067-.073.055-.089-.002-.097-.01-.008-.007.032-.158.012-.18-.02-.022-.11-.04-.11-.04s-.051-.07-.08-.092c-.028-.023-.057-.05-.101.005-.045.055.08.053.036.107-.034.04-.174.021-.199.03-.273.09-.199.118-.104.13.077.011.097.023.064.053-.032.03-.068.043-.016.096.11.112.033.087-.012.121-.044.035-.206.11-.198.154.008.044.125.017.226-.005.102-.022.284-.097.296-.129.012-.032-.004-.032-.04-.032-.037 0-.041.017-.09.027-.048.01-.056.006-.048-.017.02-.057.206-.163.239-.17.032-.008.032.007.04.019s-.036.03-.053.046c-.016.017.042.03.049.036.014.012.04.02.032.033-.108.196-.19.19-.25.244-.061.054-.235.084-.251.128-.017.043.04.062.04.062s.28-.014.352 0c.035.008.109.037.177.035a.377.377 0 0 0 .139-.035l.056-.062c.009-.039-.036-.1-.1-.098-.065 0-.061-.02-.159.012-.097.032-.113-.017-.105-.025.008-.007.148-.165.162-.146.029.038.117.1.15.144.032.044.133.02.137-.018.004-.037-.089-.071-.105-.116Zm-.405-.312c-.015-.004-.03-.02-.028-.035.003-.023.027-.02.045-.02l-.003.003c.035.002.028.062-.014.052Z" fill="#000"/><path d="M4.645 3.615a.077.077 0 0 0 .027.04l.033.023c.008.005.023.017.032.009.007-.007.005-.02.004-.028-.002-.022 0-.045-.016-.062-.01-.01-.024-.012-.038-.013-.014 0-.02-.005-.033.003a.032.032 0 0 0-.011.015c-.002.005.001.007.002.013" fill="#000"/><path d="M4.419 3.589a.176.176 0 0 0 .092-.013c.025-.012.054-.027.08-.033a.471.471 0 0 1 .112-.016c.036 0 .07-.008.096.02.02.02.016.062.022.089.01.037.016.062.014.1a.347.347 0 0 0 .01.112c.011.037.003.062.007.1.003.027.008.05.01.074.003.026.007.052.009.079a.22.22 0 0 1-.021.1c-.008.013-.022.019-.036.025-.013.007-.03.01-.044.012-.007.002-.016.002-.019.009-.005.008.002.016.005.022l.037.079c.004.01.006.01.017.01.01.002.02.003.03 0 .02-.003.026-.005.037-.022a.047.047 0 0 1 .011-.012c0-.007.021-.023.027-.03-.002.004.004-.012.003-.016l.003-.012c.003-.017.005-.036.011-.052.014-.03.029-.059.033-.093a.281.281 0 0 1 .013-.06c.007-.02.022-.04.02-.062-.02-.02-.011-.062-.019-.087-.004-.013-.005-.027-.008-.04-.003-.01-.006-.024-.005-.036 0 0-.018-.26-.023-.3-.004-.04-.033-.104-.085-.097-.052.007-.184-.013-.184-.013l-.091.04c-.03.012-.12.057-.136.055-.017-.002-.071.053-.028.065M5.43 3.69s-.073.029-.087.069l-.054.178c-.04.13-.093.29-.128.333-.017.023-.043.082-.084.145a5.461 5.461 0 0 1-.286.404c-.022.025.01.067.03.04.02-.027.251-.279.364-.5 0 0 .092-.192.1-.194.007-.001.01.003.014.037.003.035-.005.045.023.05.028.005.075.011.098-.005.023-.015.056-.038.053-.06-.003-.022-.016-.06-.013-.082.003-.022.003-.03.058-.035.054-.004.045-.015.076-.017.03-.001.042.013.054.022.013.01-.03.05-.048.075-.019.025-.051.062-.002.091.05.03.056.002.1-.012.043-.014.037-.02.084-.03.046-.009.06-.02.06-.032 0-.013-.014-.027-.059-.048-.045-.022-.025-.038-.006-.074.019-.035.078-.085.08-.107 0-.022-.005-.08-.057-.067-.05.014-.115.064-.13.069-.016.004-.047.007-.062.02 0 0-.034.006-.059.008-.025.001-.073-.01-.084-.004-.011.006-.014.005-.042 0-.028-.007-.032-.027-.037-.05-.005-.02.03-.07.036-.09.006-.018.006-.047.01-.06.005-.012.024-.023.027-.036.003-.012.005-.04-.028-.038ZM5.433 3.644s.174 0 .247-.034c.073-.034.076-.065.094-.088.019-.024-.009-.07-.045-.06-.035.008-.14.03-.174.033-.034.003-.068-.007-.09.005a.386.386 0 0 1-.073.036c-.015.003-.073.014-.039.045.034.03.052.056.08.063ZM6.378 3.507s-.062-.003-.125.08c0 0-.15.249-.204.26-.053.013-.122.066-.1.078.02.012.094.027.13.024.035-.003.038-.036.056-.054.018-.017.038-.053.053-.041.015.012.015.126.009.158-.006.031-.038.073-.053.1-.015.026-.037.013-.04.036-.003.02-.009.038.037.038.06 0 .098-.021.121-.048.038-.042.032-.094.028-.161a2.753 2.753 0 0 0-.013-.14l-.048-.07c-.004-.006-.005-.02.004-.043a.374.374 0 0 1 .062-.095.345.345 0 0 0 .076-.052c.02-.021.03-.046.028-.055l-.021-.015ZM6.415 3.875h.057s.018.003.015.03c-.003.025-.01.2 0 .225.012.027.032.067.125.073.092.006.232.009.296-.003a.518.518 0 0 0 .214-.099c.072-.055.084-.09.124-.13.041-.04.05-.04.064-.06.015-.021.012-.05 0-.088-.011-.037-.038-.003-.046-.156-.009-.154.007-.138-.015-.142-.019-.004-.058.026-.049.052.009.026.006.139.003.17-.003.033-.012.05-.006.088.006.037.023.084 0 .11-.023.026-.073.092-.203.165-.05.029-.214.015-.27 0-.054-.014-.117-.078-.117-.11s-.007-.095.002-.133c.008-.038.032-.079.058-.084.026-.006.097-.08.148-.125.036-.033.066-.033.107-.09.031-.044-.074-.033-.085-.036-.012-.003-.03.007-.097.072-.045.044-.07.04-.085.022-.025-.03-.032-.055-.07-.035-.037.02-.068.04-.063.073.005.035.005.11-.04.13-.039.017-.07.032-.083.052-.013.02.016.03.016.03Z" fill="#000"/></g></svg>