<svg xmlns="http://www.w3.org/2000/svg" width="336" height="336" viewBox="0 0 252 252"><path style="stroke:none;fill-rule:nonzero;fill:#b62537;fill-opacity:1" d="M126 0C56.523 0 0 56.523 0 126s56.523 126 126 126 126-56.523 126-126S195.477 0 126 0Zm122.918 126c0 67.777-55.14 122.918-122.918 122.918-67.777 0-122.922-55.14-122.922-122.918C3.078 58.223 58.223 3.078 126 3.078c67.777 0 122.918 55.145 122.918 122.922Zm0 0"/><path style="stroke:none;fill-rule:nonzero;fill:#b62537;fill-opacity:1" d="M126 4.7C59.113 4.7 4.695 59.112 4.695 126S59.113 247.3 126 247.3 247.3 192.888 247.3 126 192.888 4.7 126 4.7ZM246.148 126c0 66.25-53.898 120.148-120.148 120.148S5.855 192.25 5.855 126 59.75 5.855 126 5.855 246.148 59.75 246.148 126Zm0 0"/><path style="stroke:none;fill-rule:evenodd;fill:#b62537;fill-opacity:1" d="M87.695 17.695c-.172 4.532 4.032 2.153 6.707 1.946.942-.07 9.403-3.375 8.215.101-.738 2.16-3.512 1.45-5.226 1.645-2.055.238-4.368.98-6.246 1.843-1.836.84-.47 2.02 1 1.653a12.9 12.9 0 0 1 4.023-.387c3.332.195 6.848 1.164 9.594 3.11 1.398.992 5.386 4.937 2.87 6.132-1.519.723-3.609-1.394-4.69-2.34-1.75-1.527-2.91-2.875-5.212-3.601-4.148-1.305-8.382-.496-11.671 2.351-2.996 2.598-5.2 5.547-5.899 9.47-.289 1.62-.988 7.44-3.66 5.51-2.953-2.132 1.254-9.054 2.031-10.284.383-.617 1.121-1.434 1.91-2.29.512-.558 1.664-1.91 2.543-2.913.477-.547 2.043-2.036 2.668-2.528.926-.73 1.313-2.035-.41-1.957-1.625.07-2.344 1.04-4.328 1.871-1.98.84-7.07 5.524-8.039 2.75-1.195-3.437 6.414-4.82 8.477-5.64.476-.192 1.125-.414 1.628-.606.407-.152.938-.508 1.008-.601.422-.559.727-1.371.563-1.778-.418-1.02-1.172-2.28-1.176-3.343.836-.758 2.434-.813 3.32-.114ZM80.977 156.793l-8.907-4.762-2.957 5.153c2.133 1.457 3.164 3.66 3.453 6.207l15.883 8.504 4.864-8.497-7.954-4.253 24.586-45.782c.114-.183.067-.375-.164-.504l-3.758-2.007c-.261-.122-.43-.055-.535.136l-24.511 45.809Zm0 0"/><path style="stroke:none;fill-rule:evenodd;fill:#b62537;fill-opacity:1" d="M95.668 160.363h64.59c1.312 0 2.387 1.082 2.387 2.403v14.851a2.4 2.4 0 0 1-2.387 2.403h-64.59a2.404 2.404 0 0 1-2.395-2.403v-14.851a2.404 2.404 0 0 1 2.395-2.403m.793 2.09h62.781c.719 0 1.301.586 1.301 1.309v12.86c0 .718-.582 1.308-1.3 1.308H96.77a1.31 1.31 0 0 1-1.305-1.309v-13.176c0-.543.45-.988.992-.988ZM91.34 86.832v4.793h21.937v-4.793ZM91.34 94.121v4.793h21.937v-4.793ZM91.34 101.414v4.79h21.937v-4.79ZM175.676 133.387h1.367c.383 0 .687.254.687.55v1.579a2.273 2.273 0 0 0 1.172-1.977v-6.547c0-.847-.476-1.594-1.172-1.976v1.285c0 .297-.308.554-.687.554h-1.367c-.38 0-.692-.25-.692-.554v-1.285a2.257 2.257 0 0 0-1.164 1.976v6.547c0 .848.47 1.586 1.164 1.977v-1.578c0-.301.309-.551.692-.551ZM86.78 114.516c-.773-.012-1.504.046-1.902.668-1.188 1.879-.918 7.05-.918 9.117h-5.645l-1.406-1.38v-9.417c1.367-2.203 4.8-3.844 11.137-3.836l13.71.016c.43 0 .595.367.466.597l-7.52 14.004-7.922.016v-9.79Zm19.563 12.296h20.015c.68 0 1.23.555 1.23 1.227v1.25c0 .672-.558 1.227-1.23 1.227h-21.523c1.137.914 2.332 2.789 2.922 3.937h1.652s3.117 1.844 2.754 4.246c-.367 2.395-1.105 2.946-3.305 4.79-2.199 1.847-6.242 5.906-7.89 8.124-1.656 2.211-1.656 5.532.18 5.532h26.43v.003h26.612c.258 0 .477-.066.664-.187 1.141-.727.942-3.45-.48-5.348-1.652-2.215-5.688-6.277-7.89-8.125-2.204-1.843-2.934-2.394-3.305-4.789-.145-.972.273-1.847.832-2.554a.287.287 0 0 1 .039-.051l.008-.004c.011-.02.023-.028.03-.043 0 0 .005-.008.005-.012.011-.015.027-.031.035-.039 0-.004 0-.008.004-.008l.043-.043v-.007c.02-.012.027-.028.043-.047h.004c.015-.016.027-.036.047-.051v-.004c.015-.016.03-.04.046-.05l.063-.06c.004-.011.02-.023.027-.038a8.11 8.11 0 0 1 1.535-1.231h1.649c.898-2.102 2.394-3.809 3.863-5.094 2.145-1.875 4.211-2.847 4.211-2.847h4.777c3.977-4.57 9.168-6.149 14.551-7.063v2.805c-1.875.172-3.355 1.762-3.355 3.672v8.742a3.7 3.7 0 0 0 3.355 3.676v4.879a3.697 3.697 0 0 0-3.355 3.671v8.563a3.691 3.691 0 0 0 3.683 3.687h2.09a3.7 3.7 0 0 0 3.688-3.687v-8.563a3.7 3.7 0 0 0-3.356-3.671v-4.88a3.703 3.703 0 0 0 3.356-3.675v-8.742c0-1.91-1.485-3.5-3.356-3.672v-3.223c.66-.09 1.313-.25 1.977-.336 6.894-1.144 6.863-3.715 6.863-3.5v-5.472h-75.715l3.13 1.632c.257.114.425.414.222.743l-7.871 14.707Zm71.39 19.172v1.196c0 .304-.308.554-.687.554h-1.371c-.38 0-.692-.25-.692-.554v-1.196a2.257 2.257 0 0 0-1.164 1.977v6.367a2.266 2.266 0 0 0 2.254 2.258h.57a2.269 2.269 0 0 0 2.258-2.258v-6.367c0-.848-.468-1.586-1.168-1.977Zm-68.82 3.536h37.207c.676 0 1.234.558 1.234 1.23V152c0 .676-.558 1.23-1.234 1.23h-37.207c-.68 0-1.23-.554-1.23-1.23v-1.25c0-.672.55-1.23 1.23-1.23Zm6.535-8.036h24.137c.676 0 1.23.563 1.23 1.235v1.25c0 .676-.554 1.23-1.23 1.23h-24.137a1.241 1.241 0 0 1-1.234-1.23v-1.25c0-.672.555-1.235 1.234-1.235Zm.922-7.566h22.293c.672 0 1.23.559 1.23 1.23v1.25c0 .672-.558 1.227-1.23 1.227h-22.293c-.668 0-1.226-.55-1.226-1.227v-1.25c0-.675.55-1.23 1.226-1.23Zm19.363-7.106h10c.676 0 1.227.555 1.227 1.227v1.25c0 .672-.559 1.227-1.227 1.227h-10a1.247 1.247 0 0 1-1.226-1.227v-1.25c0-.68.554-1.226 1.226-1.226ZM115.047 86.832v4.793h3.781v-4.793Zm0 0"/><path style="stroke:none;fill-rule:evenodd;fill:#b62537;fill-opacity:1" d="M94.203 82.465c6.707-.367 13.961-2.621 20.285-5.828l1.969 4.355c-6.96 3.348-14.797 5.582-21.11 5.899ZM121.566 78.477l-1.98-4.282v-.004l-3.434 1.657 1.97 4.3ZM115.047 94.121v4.793h3.781v-4.793ZM115.047 101.414v4.79h3.781v-4.79ZM141.79 79.813l6.937-3.829 14.59 26.48-6.934 3.821Zm4.413 3.667 3.113-1.742.844 1.469-3.117 1.738Zm1.774 3.188 3.12-1.738.844 1.465-3.125 1.734Zm0 0"/><path style="stroke:none;fill-rule:evenodd;fill:#b62537;fill-opacity:1" d="M133.621 72.543h8.34v33.715h-8.34Zm-12.066-3.11h9.332v36.829h-9.332Zm2.879 4.758h3.57v1.664h-3.57Zm0 3.657h3.57v1.664h-3.57Zm0 3.652h3.57v1.664h-3.57Zm0 3.652h3.57v1.664h-3.57Zm11.57-7.304h3.574v1.664h-3.574Zm0 3.652h3.574v1.664h-3.574Zm0 3.652h3.574v1.664h-3.574Zm0 0"/><path style="stroke:none;fill-rule:evenodd;fill:#b62537;fill-opacity:1" d="M125.977 197.676c-39.489 0-71.641-32.172-71.641-71.633 0-39.504 32.152-71.676 71.64-71.676 39.489 0 71.688 32.172 71.688 71.676 0 39.46-32.2 71.633-71.687 71.633Zm87.293-73.988-6.844-.887c-.27-.043-.45-.133-.625-.356-.047-1.113-.09-2.222-.176-3.289.086-.222.266-.355.531-.398l6.672-1.781c.09-.043.219-.086.219-.356-.086-.578-.129-1.242-.262-1.996v-.09c-.094-.715-.18-1.379-.27-1.957-.042-.266-.175-.266-.312-.266h-6.894c-.262 0-.485-.09-.621-.265a387.508 387.508 0 0 1-.668-3.246c.093-.223.222-.352.488-.442l6.406-2.668c.09-.043.223-.09.133-.355-.133-.578-.266-1.2-.488-1.91v-.09a26.443 26.443 0 0 1-.536-1.953c-.09-.223-.218-.223-.355-.223l-6.848.934c-.265.043-.441 0-.668-.18a35.118 35.118 0 0 0-1.066-3.11c.09-.265.223-.445.445-.577l6.004-3.422c.09-.047.18-.133.09-.356-.176-.578-.445-1.199-.71-1.867l-.048-.043v-.043c-.308-.715-.574-1.293-.8-1.867-.09-.223-.223-.18-.356-.18l-6.668 1.824a.713.713 0 0 1-.715-.132c-.445-.98-.933-1.914-1.422-2.844 0-.313.133-.492.36-.668l5.468-4.176c.086-.094.176-.18.086-.402-.308-.531-.62-1.11-.976-1.735 0 0 0-.043-.043-.043v-.043c-.403-.668-.715-1.246-1.024-1.734-.132-.223-.27-.176-.402-.133l-6.36 2.668c-.269.133-.488.086-.753-.047-.582-.89-1.157-1.734-1.739-2.578-.09-.312 0-.531.223-.754l4.89-4.886c.094-.09.18-.18.048-.403a43.315 43.315 0 0 1-1.2-1.597h-.043v-.047h-.043c-.449-.621-.847-1.11-1.203-1.598-.18-.18-.312-.137-.402-.047l-5.961 3.422a.74.74 0 0 1-.797.047c-.668-.758-1.336-1.555-2.047-2.309a.773.773 0 0 1 .133-.757l4.227-5.465c.086-.09.132-.223-.047-.403-.399-.445-.844-.93-1.38-1.421v-.043h-.042v-.043h-.047c-.488-.536-.977-.98-1.418-1.38-.18-.179-.312-.09-.402-.046l-5.469 4.222a.784.784 0 0 1-.758.133c-.754-.668-1.555-1.379-2.316-2-.13-.312-.13-.531.05-.797l3.465-6c.047-.09.09-.222-.086-.355-.492-.399-.98-.8-1.601-1.246v-.043h-.047v-.043a33.63 33.63 0 0 1-1.598-1.203c-.222-.133-.312-.043-.402.047l-4.89 4.886c-.223.223-.446.313-.712.266-.89-.621-1.734-1.2-2.625-1.777-.132-.223-.175-.489-.043-.754l2.668-6.356c.043-.133.09-.265-.136-.398-.489-.313-1.067-.621-1.73-1.024h-.044s0-.043-.043-.043c-.625-.355-1.207-.668-1.738-.98-.223-.086-.312 0-.398.09l-4.18 5.469c-.18.265-.36.355-.668.355a52.263 52.263 0 0 0-2.848-1.422c-.18-.223-.222-.445-.133-.71l1.825-6.669c0-.09.043-.265-.18-.355-.578-.223-1.156-.489-1.867-.801h-.09c-.668-.309-1.29-.531-1.867-.754-.219-.09-.313.043-.356.133l-3.422 5.953c-.136.27-.316.402-.582.445a37.43 37.43 0 0 0-3.113-1.066c-.176-.18-.223-.399-.176-.668l.934-6.84c0-.137 0-.266-.223-.312a39.313 39.313 0 0 0-1.957-.532v-.047h-.086c-.715-.175-1.34-.355-1.918-.488-.265-.043-.308.043-.351.18l-2.672 6.355c-.086.262-.219.399-.441.485a424.93 424.93 0 0 1-3.247-.664c-.175-.133-.27-.356-.27-.625v-6.887c0-.09 0-.266-.265-.266-.578-.133-1.246-.222-1.957-.312h-.086c-.758-.086-1.425-.176-2.004-.219-.265-.047-.312.086-.312.176l-1.82 6.664a.792.792 0 0 1-.403.578 78.431 78.431 0 0 0-3.293-.223.78.78 0 0 1-.308-.62l-.891-6.844c-.043-.09-.09-.223-.309-.223-.316-.043-.625-.043-.98-.043h-2.172c-.355 0-.668 0-.976.043-.223 0-.27.133-.27.223l-.895 6.843c-.043.266-.136.489-.355.621a84.19 84.19 0 0 0-3.293.223.888.888 0 0 1-.355-.578l-1.778-6.664c-.047-.09-.09-.223-.312-.176-.621.043-1.29.133-2 .219h-.09c-.754.09-1.422.18-2 .312-.223 0-.266.176-.266.266v6.887c.043.27-.043.492-.226.625-1.11.222-2.176.441-3.243.664-.269-.086-.402-.223-.488-.485l-2.625-6.355c-.043-.137-.136-.223-.355-.18-.582.133-1.246.313-1.957.488h-.047c-.043 0-.043 0-.043.047-.711.176-1.379.356-1.914.532-.266.046-.219.175-.219.312l.887 6.84c.047.27 0 .488-.176.668-1.023.312-2.09.668-3.113 1.066-.223-.043-.403-.175-.535-.445l-3.47-5.953c-.042-.09-.132-.223-.355-.133-.578.223-1.156.445-1.867.754h-.09a45.65 45.65 0 0 1-1.824.8c-.219.09-.219.266-.176.356l1.778 6.668a.798.798 0 0 1-.086.711c-.98.442-1.957.93-2.89 1.422a.744.744 0 0 1-.669-.355l-4.137-5.47c-.09-.09-.175-.175-.398-.09-.492.313-1.113.626-1.734.981v.043h-.09c-.625.403-1.2.711-1.735 1.024-.18.133-.132.265-.09.398l2.626 6.356c.132.265.132.531-.047.754-.844.578-1.735 1.156-2.578 1.777-.31.047-.536-.043-.754-.266l-4.848-4.886c-.09-.09-.223-.18-.402-.047-.489.36-1.024.758-1.602 1.203l-.043.043H72.7v.043c-.574.445-1.11.847-1.554 1.246-.22.133-.133.266-.09.355l3.468 6c.137.266.18.485.047.797-.8.621-1.558 1.332-2.312 2-.313.09-.578.043-.801-.133l-5.469-4.222c-.09-.043-.222-.133-.402.047-.445.398-.89.843-1.422 1.379l-.043.043s0 .043-.047.043c-.488.492-.976.976-1.379 1.421-.18.18-.086.313-.043.403l4.223 5.465c.18.222.223.488.133.757-.664.754-1.336 1.551-2 2.309-.313.133-.535.133-.801-.047l-6.004-3.422c-.086-.09-.219-.133-.355.047-.399.488-.801.977-1.246 1.598h-.043v.047a38.13 38.13 0 0 0-1.204 1.597c-.175.223-.085.313 0 .403l4.895 4.886c.223.223.313.442.266.754-.621.844-1.2 1.688-1.778 2.578-.222.133-.488.18-.754.047l-6.363-2.668c-.086-.043-.219-.09-.355.133a26.425 26.425 0 0 0-1.024 1.734H50.2v.086c-.398.625-.71 1.204-.976 1.735-.137.222-.047.308.043.402l5.511 4.176c.227.176.317.355.317.668-.492.93-.934 1.863-1.426 2.844a.707.707 0 0 1-.711.132l-6.672-1.824c-.086 0-.222-.043-.355.18-.223.574-.489 1.152-.758 1.867h-.043v.086c-.309.668-.531 1.29-.754 1.867-.09.223.043.309.133.356l5.957 3.422c.27.132.402.312.445.578-.398 1.023-.71 2.043-1.066 3.11-.176.179-.399.222-.668.179l-6.848-.934c-.09 0-.266 0-.312.223a39.095 39.095 0 0 0-.532 1.953h-.043v.09c-.18.71-.359 1.332-.492 1.91-.043.266.09.312.18.355l6.355 2.668c.27.09.403.22.493.442-.223 1.113-.446 2.18-.622 3.246-.18.223-.402.266-.667.266h-6.891c-.094 0-.227 0-.27.265-.09.578-.222 1.242-.312 1.957v.09c-.09.754-.176 1.418-.223 1.996-.043.27.09.313.18.356l6.672 1.78a.785.785 0 0 1 .578.4 72.548 72.548 0 0 0-.223 3.288c-.136.223-.312.313-.625.356l-6.847.886c-.09 0-.223.047-.223.27-.043.621-.043 1.29-.043 1.996v.133c0 .71 0 1.379.043 2 0 .223.133.27.223.27l6.847.886c.313.047.489.133.625.36.043 1.105.133 2.175.223 3.285a.785.785 0 0 1-.578.398l-6.672 1.778c-.09.046-.223.09-.18.355.047.578.133 1.246.223 1.957v.133c.09.71.176 1.379.312 1.957 0 .265.176.265.27.265h6.89c.266 0 .489.043.668.22.176 1.113.399 2.179.622 3.292-.09.219-.223.356-.493.442l-6.355 2.668c-.133.046-.223.085-.18.355.133.531.313 1.2.492 1.91v.09h.043c.176.711.356 1.379.532 1.953.047.223.222.223.312.223l6.848-.934c.27-.043.492 0 .668.18.312 1.066.668 2.09 1.066 3.11-.043.265-.176.445-.445.534l-5.957 3.465c-.09.043-.223.133-.133.356.223.578.445 1.199.754 1.867v.086c.312.715.578 1.289.8 1.867.09.18.27.18.356.137l6.672-1.778c.266-.09.488-.046.711.133.445.934.934 1.91 1.426 2.844 0 .309-.09.488-.36.668l-5.468 4.176c-.09.09-.18.176-.09.398.312.535.625 1.11.98 1.735.043 0 .043.043.043.043v.046h.043c.36.664.711 1.243 1.024 1.73.09.18.222.18.355.134l6.363-2.668c.266-.133.532-.086.754.047.578.89 1.157 1.734 1.778 2.578.047.312-.043.535-.266.758l-4.895 4.886c-.085.09-.175.176 0 .399.313.445.715.976 1.16 1.601h.044v.043h.043c.445.621.847 1.11 1.246 1.598.136.18.27.133.355.047l6.004-3.422c.266-.176.488-.176.8-.047.665.758 1.337 1.559 2 2.313a.774.774 0 0 1-.132.757l-4.223 5.461c-.043.094-.136.227.043.403.403.445.844.933 1.38 1.421 0 0 0 .043.046.043v.043h.043c.531.536.977.98 1.422 1.38.18.179.312.09.402.046l5.469-4.222a.767.767 0 0 1 .754-.133c.758.668 1.559 1.379 2.312 2 .137.308.137.574-.043.8l-3.425 5.997c-.09.09-.13.222.043.402a58.54 58.54 0 0 1 1.601 1.2v.046h.047v.04c.621.444 1.156.847 1.645 1.202.18.133.27.043.355-.043l4.895-4.89c.218-.223.445-.313.754-.266.843.621 1.69 1.2 2.578 1.777a.76.76 0 0 1 .047.754l-2.668 6.356c-.047.133-.047.265.132.398.489.317 1.067.621 1.735 1.024h.043c0 .043.047.043.047.043.62.359 1.199.668 1.734.98.223.09.309 0 .398-.09l4.137-5.469c.18-.261.356-.355.668-.355.934.492 1.91.98 2.844 1.426.18.219.222.445.133.71l-1.778 6.622c-.043.133-.043.265.176.355.535.223 1.113.489 1.824.801h.047c.043 0 .043 0 .043.043.668.266 1.29.531 1.867.707.223.094.313 0 .356-.129l3.469-5.91c.09-.266.265-.402.535-.441 1.023.398 2.043.75 3.113 1.062.176.176.223.402.176.668l-.934 6.8c0 .134 0 .263.223.31.578.175 1.246.355 1.957.574h.09c.71.222 1.375.359 1.91.492.266.09.312-.043.36-.133l2.667-6.402a.714.714 0 0 1 .446-.442c1.109.219 2.175.442 3.285.621.183.133.226.356.226.621v6.891c0 .129 0 .266.266.309.578.09 1.246.18 1.957.265h.133c.71.137 1.379.18 1.957.27.265 0 .308-.137.355-.223l1.778-6.668c.046-.265.18-.441.355-.531 1.07.09 2.18.133 3.293.176a.91.91 0 0 1 .355.625l.887 6.843c0 .086.047.22.27.266h4.129c.222-.047.265-.18.308-.266l.89-6.843c0-.27.134-.446.313-.625 1.11-.043 2.227-.086 3.29-.176.226.09.355.266.445.531l1.781 6.668c0 .086.09.223.309.223.582-.09 1.246-.137 2.003-.27h.086a62.217 62.217 0 0 0 2.004-.265c.22-.043.22-.176.22-.309v-6.89c0-.266.093-.489.269-.622a96.759 96.759 0 0 0 3.246-.62c.222.09.398.218.488.44l2.625 6.403c.043.09.133.223.355.133.575-.133 1.2-.27 1.954-.492h.093c.711-.22 1.332-.399 1.914-.575.22-.046.22-.175.22-.308l-.934-6.801a.831.831 0 0 1 .18-.668 38.412 38.412 0 0 0 3.113-1.062c.265.039.44.175.578.441l3.422 5.91c.09.129.18.223.402.129.531-.176 1.152-.441 1.867-.707v-.043h.043c.71-.312 1.336-.578 1.867-.8.223-.09.18-.223.18-.356l-1.824-6.621c-.047-.266-.047-.493.132-.711.977-.446 1.915-.934 2.891-1.426.266 0 .492.094.625.355l4.223 5.47c.043.089.18.179.355.089.531-.312 1.11-.621 1.781-.98v-.043h.043c.665-.403 1.243-.707 1.73-1.024.227-.133.18-.265.138-.398l-2.618-6.356c-.132-.265-.132-.535 0-.754.891-.578 1.778-1.156 2.625-1.777a.732.732 0 0 1 .711.266l4.891 4.89c.09.086.18.176.402.043.489-.355 1.02-.758 1.598-1.203v-.039h.047s0-.047.043-.047c.578-.445 1.113-.844 1.558-1.2.176-.179.133-.312.09-.401l-3.468-6c-.18-.223-.18-.489-.051-.797.804-.621 1.558-1.332 2.316-2 .309-.09.535-.047.8.133l5.47 4.222c.09.043.18.133.36-.047.44-.398.929-.843 1.464-1.379v-.043h.043v-.043a21.298 21.298 0 0 0 1.426-1.421c.132-.176.086-.309 0-.403l-4.184-5.46a.7.7 0 0 1-.176-.758c.711-.754 1.375-1.555 2.047-2.313a.74.74 0 0 1 .797.047l5.961 3.422c.09.086.223.133.402-.047.356-.488.754-.977 1.243-1.598v-.043h.046c.442-.625.844-1.156 1.2-1.601.132-.223.043-.313-.047-.399l-4.89-4.89c-.224-.22-.267-.442-.224-.754.579-.844 1.157-1.688 1.735-2.578.265-.133.488-.18.754-.047l6.406 2.668c.09.043.223.043.355-.133.313-.488.625-1.067 1.024-1.73v-.047h.043v-.043c.355-.625.715-1.204.98-1.735.133-.222 0-.308-.09-.398l-5.468-4.18c-.227-.176-.356-.355-.356-.664.485-.934.977-1.914 1.418-2.848a.704.704 0 0 1 .715-.129l6.672 1.774c.133.047.266.047.355-.133.266-.578.532-1.152.797-1.867v-.043l.047-.047c.266-.664.535-1.285.711-1.863.09-.223 0-.313-.09-.36l-6.004-3.46c-.222-.09-.355-.27-.398-.536a64.4 64.4 0 0 0 1.023-3.11c.223-.179.399-.222.664-.179l6.848.934c.137 0 .27 0 .356-.223.136-.574.316-1.242.535-1.953v-.09c.222-.71.355-1.379.492-1.91.086-.27-.047-.312-.137-.355l-6.402-2.668c-.266-.09-.399-.223-.492-.442.27-1.113.445-2.18.668-3.293.136-.176.359-.219.62-.219h6.895c.137 0 .27 0 .313-.265.09-.578.18-1.246.27-1.957v-.133c.132-.71.175-1.379.265-1.957 0-.266-.133-.309-.223-.356l-6.672-1.777c-.261-.043-.441-.176-.53-.398.085-1.114.128-2.18.175-3.285.18-.227.355-.313.625-.36l6.844-.887c.09 0 .222-.046.27-.27v-4.132c-.048-.219-.18-.266-.27-.266Zm0 0"/><path style="stroke:none;fill-rule:evenodd;fill:#b62537;fill-opacity:1" d="M119.543 172.824c0 .317-.29.582-.637.582h-6.281c-.352 0-.633-.261-.633-.582v-1.27c0-.32.281-.577.633-.577h6.281c.356 0 .637.257.637.578Zm-7.45-5.383c0-.316.286-.578.637-.578h6.07c.356 0 .645.262.645.578v1.235c0 .316-.289.578-.644.578h-6.07c-.352 0-.637-.262-.637-.578Zm9.512 2.645-.082-.035-.21-.078.203-.098.078-.035c.5-.242.82-.778.82-1.363v-1.883c0-.793-.73-1.489-1.559-1.489h-10.3c-.817 0-1.48.668-1.48 1.489v1.883c0 .582.32 1.117.816 1.363l.078.039.199.094-.207.082-.082.03c-.563.208-.938.778-.938 1.411v2.184c0 .82.618 1.488 1.375 1.488h10.856c.758 0 1.379-.668 1.379-1.488v-2.184c0-.633-.38-1.203-.946-1.41ZM104.918 175.16h-3.188v-7.582c-.007-.293-.246-.305-.359-.308-.16 0-.34.039-.512.074l-2.37.554v-1.82l2.503-.633c.11-.027.223-.058.332-.09.43-.117.875-.238 1.29-.242h1.91c.257.004.394.145.394.414ZM32.508 73.55c-.785-.862.804-3.355 1.597-1.8.118 1.043-.882 2.055-1.597 1.8Zm16.597-11.687c-1.386.043-6.167.742-7.187 1.297-2.438 1.32-3.402 2.598-4.91 4.871-.613.918-1.281 2.18-2.336 1.23-.785-.698-1.547.372-2.453.098-.985-.289-.946-1.164-1.328-1.91-.551-1.066-1.828.098-2.551.223-.574-.395-.192-2.024-.762-2.422-1.875-.023-2.293 1.14-1.867 2.672.453 1.613-1.055 2.547-.945 4.086.515.496 1.289.336 1.828 0 .71.312.972 1.125 1.199 1.789.379 1.113.867.516 1.75.48 4.48-.195 1.36 5.34.766 7.504-.32 1.168-.758 2.852-.122 3.989.395.703 1.497 2.835 1.723 3.3 1.024 1.743 6.043 4.18 4.293.375-1.14-2.472-3.441-3.972-3-6.945.516-3.48 1.156-6.04 2.598-9.242 1.187-2.633 3.672-4.836 5.89-6.574 1.094-.856 2.23-1.567 3.664-1.586 1.442-.02 2.977.496 4.372-.11.628-.86.043-2.468-.622-3.125Zm-7.539 16.961c0 .012-.004.02-.004.028-.144 1.902-1.851 1.984-2.046 1.363-.145-.434.843-2.606 1.82-2.047.078.047.246.352.242.434 0 .046 0 .097-.008.148 0 .023-.004.05-.004.074Zm-3.484-.941c-.906-1.332.703-2.942 1.066-4.25.157-.215.243-.508.618-.535.375-.024.07-.04.734.363.66.402-1.52 5.754-2.418 4.422Zm6.781-9.363c-.097.02-.246.183-.273.246-.64 1.476.75 6.187-1.617 6.214-.82-1.304.625-4.003-1.297-4.867-1.446-.656-2.477.246-3.172 1.446-1.484 2.55-3.168 5.445-2.871 8.687.484.86 1.726.742 2.25 1.55-.332 1.036-1.649 1.31-1.266 2.907.016.067.192.274.258.297 3.926 1.578 3.89-3.629 6.723-3.238.515.422-.192 2.066.562 2.675 2.246.239 3.383-2.984 2.375-4.667-1.515-2.532-.305-3.297.434-5.75.203-1.707 1.976-3.301.504-5.094-.305-.438-2.04-.524-2.61-.406Zm-15.77-4.567c.552-.383.77-.36 1.079-1.016.305-.648.781-1.148 1.539-1.18.934 1.09-1 2.911.48 3.833 1.461.117.903-1.332 2.364-1.215 1.168 1.578-1.114 2.07-.418 3.941 2.32.774 3.02-2.554 2.96-4.18-.042-1.085-.28-2.706-1.144-3.456-.937-.813-2.21-1.883-3.375-2.325-1.668-.636-2.664.532-3.367 1.891-.668 1.29-1.941 2.438-1.86 4.008.06 1.082 1.368-.04 1.743-.3Zm.45 12.059c-.055-.082-.48-.219-.61-.192-1.519.32-1.628 3.18-2.445 2.602-.82-.578.528-2.418-.425-3.375-2.762-.637-1.114 2.781-2.954 3.8-.441-.144-.757-.167-.87-.581-.114-.414 1.87-3.715 1.206-4.036-1.761-1.148-1.906.637-2.03 1.993-.052.535-.411 1.441-.477 1.554-1.032 1.774.363 2.836 2.09 3.52 1.35.535 4.242 1.418 5.285.047.964-1.266 2.296-3.793 1.23-5.332ZM173.195 26.07a1.367 1.367 0 0 1-.25-.215c-1.23-1.437-3.816-2.433-5.699-2.554a1.867 1.867 0 0 1-.41-.094s-.121-.082-.129-.094c-.383-.43-.996-2.136.395-1.695 1.523.484 1.515.594 2.648 1 1.012.36 2.676.902 3.578 1.328.031.016.067.031.098.047.066.035.125.07.183.098h-.02c.161.093.313.195.454.328 1.191 1.086.773 2.277-.848 1.851Zm-4.316 4.04c.305-1.817 2.621.136 2.066 1.343-.027.063-.218.16-.27.145-.312-.098-.538-.297-.75-.516-.308-.309-1.054-.902-1.046-.973Zm2.828 5.285c-.39 1.12-3.394-.872-3.332-2.274 0-.055.074-.18.102-.184.933-.124 3.625 1.317 3.23 2.458Zm-2.297 4.902c-.05.074-.324.226-.406.234-1.621.067-4.125-.781-4.168-2.64-.024-1.059.797-1.692 1.781-1.817.356-.043.649.055.918.2.438.23.906.386 1.34.687.098.062.188.129.273.2 1.055.874 1.063 2.054.262 3.136Zm-5.719-7.738c-.464-.211-2.125-1.094-1.925-1.79.203-.542 1.136-.894 2.976.34.074.051.203.387.188.508-.082.73-.211 1.418-1.239.942Zm-3.324 4.367c-.988-.621-1.73-1.707-1.496-2.219 1.016-1.71 4.625-1.445 4.64.867.009 1.371-2.171 1.965-3.144 1.352Zm3.938-8.512c.347-.945 1.777-.422 1.968.387.016.066-.117.222-.183.234-.633.121-1.18.145-1.762-.394-.023-.024-.039-.176-.023-.227Zm-9.86 4.102c.356-.344.946-.758 2.02.132.055.047.195.293.203.36.43 3.172-4.48 1.773-2.223-.492Zm-4.816 1.754c-.996-.43.508-6.114 2.367-4.852 1.856 1.258-1.375 5.281-2.367 4.852Zm27.39-10.965c-3.539-2.004-7.167-3.54-11.19-4.25-1.962-.344-3.868 3.906-1.892 5.054.786.457 3.864.328 3.747 1.637v.004c-.141.82-3.153-.734-5.524.586a2.005 2.005 0 0 0-.324.215c-.711.484-1.297 1.336-1.957 1.945-.676.625-1.652 2.031-2.723 1.852-.855-.149-2.324-1.547-2.23-1.735.387-.761 1.48-.281 2.16-1.156 1.234-1.59.969-3.441 1.668-5.187.75-1.883 3.781-1.352 3.816-4.055.016-1.102-1.011-1.727-1.765-2.465l-.938-.668c-.445-.277-2.293-.25-1.996 1.121.145.664 1.348 2.512.137 2.817-1.645.41-3.93-.32-5.52-.727-.277-.07-2.273-.773-2.578-.727-.246.04-.457.106-.59.23-.668.673-.613 1.852-.066 2.509.008.008.016.02.027.03a.557.557 0 0 0 .172.126c.356.09 1.656.172 1.684.172.746-.008 2.058.293 3.015.715v-.008c1.04.488 1.614.863.48 1.207-.019.008-.038.012-.058.02-.004 0-.012 0-.015.003-1.637.559-4.579-.886-6.204-.058a.684.684 0 0 0-.19.144c-.145.25-.595 1.172-.071 1.453.492.262 1.191.418 1.594.453.32.028 2.398-.007 3.363-.046.285-.012.66-.118.75-.153a2.2 2.2 0 0 1 .582-.172c.691-.101 1.273.032.957.88-.403 1.058-4.235 2.116-5.246 1.87-1.016-.238-2.14 1.094-2.18 1.297-.18.934-.09 1.969-.523 2.957-.575 1.325-1.77 3.14-1.118 4.617.172.481 3.157.626 6.579 1.106.234.031.464.07.695.098 2.168.332 4.445.804 6.25 1.586.7.3 1.281.535 1.762.718 2.492 1.27 5.058 2.864 5.46 3.328 1.981 2.29 5.043 6.055 6.22 4.446-.083-1.61-1.005-2.782-1.692-4.157-.29-.585.5-.84.808-1.242 1.153-1.484 1.446-3.746 1.833-5.527.32-1.488.535-3.004.921-4.477.446-1.691-1.855-2.847-3.367-3.28-.199-.06-.554-.434-.523-.552.277-1.207 2.488-.234 3.86.637.526.336 1.886.258 2.171-.226.426-.73.707-1.653 1.082-2.239.898-1.41-.164-2.074-1.312-2.726Zm0 0"/><path style="stroke:none;fill-rule:nonzero;fill:#b62537;fill-opacity:1" d="M15.637 132.563c-.051-.758-.024-2.532-.02-3.735.727.082 1.594.129 2.477.137l.008.101a5.332 5.332 0 0 0-1.149 3.641c.078 1.219.735 1.977 1.793 1.91.758-.05 1.2-.398 1.692-1.125.734-1.082 1.152-2.351 2.019-3.527.98-1.309 1.961-1.645 3.184-1.723 1.195-.082 3.562.438 3.851 4.934.059.84.102 2.164.059 3.285a29.611 29.611 0 0 0-2.395-.348l-.008-.105c.645-.613 1.141-1.32 1.036-2.895-.098-1.492-.965-2.172-1.844-2.113-1.059.066-1.649.254-2.867 2.863-1.512 3.262-2.508 3.41-3.766 3.492-1.52.098-3.793-.593-4.07-4.792ZM24.996 150.176c-1.558.27-5.094.992-6.558 1.562-.086-.797-.141-1.086-.247-1.664-.086-.453-.164-.867-.406-1.851 1.883-.18 4.695-.618 6.152-.887-.14-.98-.21-1.461-.347-2.207a48.954 48.954 0 0 0-.488-2.285c-2.184.43-4.07.804-6.055 1.41-.082-.758-.192-1.336-.25-1.668-.09-.477-.16-.867-.402-1.832 1.87-.133 5.156-.656 6.632-.934 1.442-.265 6.172-1.02 6.602-1.785l.078-.015c.11.812.188 1.335.293 1.914.113.601.242 1.199.398 1.812-1.343-.008-3.277.352-5.777.816.133 1.067.215 1.5.36 2.266.136.746.203 1.098.476 2.223 3.008-.578 4.395-.797 5.574-1.57l.067.007c.062.672.152 1.149.293 1.914.109.578.27 1.34.402 1.828-1.777.098-4.98.63-6.797.946ZM31.063 156.469l-.028-.082c-1.738-.024-3.246 0-4.851.062.125.512.23.899.382 1.36.215.66.329.933.524 1.402a84.1 84.1 0 0 0 3.973-2.742Zm-8.715 7.703a20.56 20.56 0 0 0-.657-1.797c1.372-.516 3.32-1.777 4.239-2.387a29.613 29.613 0 0 0-.532-1.82c-.191-.578-.437-1.207-.601-1.64-1.133.019-3.563.195-4.754.804-.203-.684-.27-1.016-.434-1.516a26.16 26.16 0 0 0-.574-1.562c.836.168 2.34.32 2.961.36 1.313.077 3.156.16 4.602.195 1.297.039 3.394.062 5.007.043.47.003 1.23.02 1.641-.274l.117-.039c.207.645.39 1.133.543 1.531.207.57.43 1.121.684 1.7-.383.19-1.086.62-1.692 1.02-1.214.796-2.714 1.82-3.847 2.612-1.903 1.332-2.977 2.106-3.922 2.832-.402.313-1.39 1.098-2.184 1.957a52.704 52.704 0 0 0-.597-2.02ZM34.254 175.05c-.832.4-4.281 2.005-5.738 2.868a14.049 14.049 0 0 0-1.227-2.191c1.04-1.641 3.04-4.563 3.941-5.832l2.723-3.872-.027-.058-3.524 1.691c-.668.32-4.203 2.27-5.34 3.188a17.97 17.97 0 0 0-.554-1.297c-.2-.418-.45-.883-.672-1.266 1.96-.402 6.727-2.617 7.644-3.058.707-.336 3.618-1.637 4.563-2.672l.09-.047c.219.547.492 1.164.785 1.773.297.625.598 1.207.871 1.68-.687.797-2.2 2.688-2.914 3.754-1.398 2.094-2.3 3.367-3.074 4.527l.027.059 2.348-1.125c1.355-.649 4.828-2.547 5.484-3.305.13.36.375.918.574 1.336.274.57.301.625.645 1.207-1.727.434-5.664 2.18-6.625 2.637ZM39.125 188.98c-.465.278-1.39.84-2.29 1.555-1.362-1.418-2.116-2.383-3.1-3.875-2.387-3.62-2-6.496 2.218-9.273 2.594-1.707 6.356-2.774 9.617 2.183a58.022 58.022 0 0 1 2.293 3.805c-.933.262-1.664.57-2.523.98l-.082-.12c.32-1.118.094-2.63-.88-4.11-1.515-2.3-3.933-1.89-6.66-.094-3.816 2.512-3.804 4.317-2.402 6.446.633.964 1.223.726 1.743.386l1.203-.793c.554-.363 1.222-.804 1.66-1.672l.094-.039c.293.516.644 1.086.98 1.598.441.668.566.863 1.024 1.445-.668.262-2.016 1.024-2.895 1.578ZM51.117 197.54c-1.203 1.026-3.87 3.456-4.836 4.694-.484-.64-.676-.863-1.066-1.304a25.19 25.19 0 0 0-1.297-1.383c1.527-1.117 3.723-2.93 4.84-3.91-.625-.77-.93-1.149-1.43-1.715-.5-.57-1-1.11-1.586-1.715-1.656 1.48-3.09 2.77-4.488 4.305-.453-.61-.844-1.055-1.063-1.309-.32-.363-.586-.664-1.28-1.367 1.538-1.07 4.093-3.203 5.222-4.191 1.101-.965 4.781-4.032 4.762-4.907l.058-.054c.512.644.844 1.054 1.23 1.496.407.457.82.902 1.27 1.351-1.16.684-2.637 1.977-4.55 3.656.663.848.952 1.18 1.468 1.762.5.574.734.84 1.543 1.672 2.293-2.039 3.375-2.934 3.992-4.203l.059-.027c.398.547.719.91 1.23 1.496.39.445.918 1.015 1.282 1.367-1.477.988-3.957 3.086-5.36 4.285ZM59.555 199.855l-.063-.054a85.094 85.094 0 0 0-4.14 2.531c.37.375.656.656 1.02.973.523.457.757.636 1.163.937a80.385 80.385 0 0 0 2.02-4.383Zm-3.567 11.075c-.488-.426-.918-.801-1.48-1.215.918-1.14 1.953-3.219 2.43-4.211-.465-.461-.926-.89-1.387-1.293-.457-.402-.992-.816-1.352-1.106-.969.594-2.969 1.985-3.68 3.118-.527-.485-.753-.739-1.148-1.082-.43-.375-.82-.692-1.289-1.051.8-.281 2.172-.918 2.73-1.203a135.925 135.925 0 0 0 4.055-2.18c1.14-.629 2.953-1.676 4.332-2.52.403-.234 1.067-.613 1.27-1.07l.082-.09c.504.442.914.774 1.246 1.036.473.386.941.746 1.457 1.117-.23.355-.617 1.086-.934 1.738-.64 1.305-1.41 2.95-1.976 4.21-.957 2.114-1.492 3.329-1.926 4.438-.191.473-.637 1.653-.883 2.797a45.09 45.09 0 0 0-1.547-1.433ZM61.094 214.754a38.686 38.686 0 0 0-1.606-1.086c1.598-1.711 3.293-4.023 4.215-5.309 1.324-1.836 3.223-4.324 3.488-5.812l.036-.047c.507.414.937.75 1.433 1.105.492.36 1.067.72 1.672 1.133-1.258 1.242-3.453 4.328-3.898 4.946-.739 1.023-2.868 3.941-3.973 6.129-.73-.575-1.059-.836-1.367-1.06ZM76.914 216.55c-.906 1.634-1.906 3.481-2.273 4.15-1.11 1.995-2.899 2.882-7.274 1.054l.39-1.223c1.782.735 2.845.727 4-1.015.427-.637 1.376-2.309 2.075-3.57 1.215-2.192 3.207-5.395 3.2-6.864l.05-.09c.625.39 1.168.719 1.684 1 .515.285 1.02.543 1.648.848-1.285 1.535-2.773 4.398-3.5 5.71ZM80.422 225.965c-.824-.43-1.195-.63-1.54-.79-.57-.269-.96-.425-1.777-.765 1.25-1.98 2.485-4.566 3.157-6 .96-2.05 2.363-4.847 2.351-6.36l.024-.054c.574.316 1.062.563 1.613.824.555.258 1.18.504 1.855.801-1.007 1.453-2.593 4.895-2.918 5.582-.53 1.145-2.082 4.402-2.769 6.762ZM91.613 218.871l-.082-.027a89.37 89.37 0 0 0-2.926 3.87c.485.216.852.368 1.31.532.651.234.937.313 1.425.445.137-1.566.226-3.257.273-4.82Zm.739 11.613a20.387 20.387 0 0 0-1.825-.59c.434-1.398.637-3.71.72-4.808a28.378 28.378 0 0 0-1.767-.695c-.574-.207-1.222-.395-1.664-.532-.683.907-2.03 2.934-2.277 4.25-.668-.261-.973-.414-1.469-.59a20.907 20.907 0 0 0-1.586-.5c.649-.558 1.688-1.656 2.102-2.124.867-.989 2.062-2.391 2.977-3.512a133.43 133.43 0 0 0 3.105-3.934c.285-.363.77-.96.789-1.46l.043-.114a30.91 30.91 0 0 0 1.54.508 28.97 28.97 0 0 0 1.76.504c-.081.418-.171 1.234-.23 1.957a171.43 171.43 0 0 0-.297 4.64c-.113 2.325-.164 3.645-.164 4.836-.004.512.012 1.774.204 2.93a41.065 41.065 0 0 0-1.961-.766ZM100.54 225.957c-.669 3.094-.286 5.41 2.062 5.914 2.757.594 3.808-2.008 4.382-4.672.54-2.508.723-5.543-1.953-6.117-2.695-.582-3.867 1.953-4.492 4.875Zm9.581 1.875c-.656 3.059-2.316 6.555-7.805 5.375-3.336-.719-6.109-2.32-4.902-7.945.703-3.27 2.348-6.711 7.82-5.532 4.692 1.008 5.817 3.774 4.887 8.102ZM127.223 223.96l-.121-.003c-.457-.238-1.875-.57-3.622-.633-.015.422-.18 3.14-.28 6.028-.106 2.843.062 5.753.148 6.222-.836-.074-1.07-.101-1.805-.129a21.126 21.126 0 0 0-1.875-.007c.36-1.75.535-5.477.59-6.836.05-1.442.101-4.047.133-5.391-1.477-.05-3.371.039-3.93.36l-.129-.005c.148-.578.305-1.394.324-1.914 1.95.192 3.547.27 5.332.332 1.938.07 3.809.141 5.727.07-.207.454-.36 1.231-.492 1.907ZM131.129 228.871c.266 3.156 1.309 5.262 3.7 5.059 2.808-.235 3.062-3.032 2.831-5.746-.215-2.559-.926-5.516-3.652-5.286-2.75.23-3.13 2.997-2.88 5.973Zm9.715-1c.261 3.117-.301 6.945-5.899 7.418-3.398.285-6.523-.437-7.004-6.172-.28-3.332.29-7.097 5.868-7.57 4.78-.402 6.664 1.914 7.035 6.324ZM153.61 225.457c.199.902.984 4.625 1.495 6.238-.867.172-1.675.414-2.41.703-1.363-1.382-3.757-3.988-4.793-5.156l-3.156-3.523-.062.011.851 3.817c.164.723 1.266 4.601 1.903 5.918-.5.074-.915.144-1.387.25-.453.097-.965.234-1.383.37.047-2.003-1.035-7.144-1.258-8.14-.168-.761-.781-3.89-1.578-5.047l-.023-.097c.586-.09 1.25-.215 1.906-.363a26.076 26.076 0 0 0 1.832-.473c.621.847 2.125 2.754 3 3.683 1.726 1.836 2.762 3 3.723 4.02l.058-.016-.566-2.543c-.328-1.464-1.39-5.273-1.98-6.09.378-.039.976-.152 1.429-.253.617-.137.68-.153 1.32-.36.031 1.781.848 6.016 1.078 7.051ZM168.285 223.91c.164.516.496 1.543.992 2.578-1.699 1.008-2.808 1.52-4.488 2.137-4.07 1.488-6.781.453-8.516-4.29-1.07-2.913-1.242-6.82 4.329-8.858a59.659 59.659 0 0 1 4.23-1.36c.043.969.172 1.75.379 2.68l-.14.05c-1.012-.57-2.54-.69-4.2-.085-2.586.949-2.742 3.394-1.621 6.46 1.57 4.294 3.332 4.692 5.723 3.817 1.086-.394.992-1.023.777-1.605l-.496-1.356c-.227-.621-.504-1.375-1.246-1.996l-.016-.102a27.92 27.92 0 0 0 1.781-.59c.75-.273.965-.35 1.637-.66.106.708.535 2.192.875 3.18ZM182.727 209.145c.742 1.332 1.62 2.93 2.414 4.253 1.293 2.168 1.34 4.383-2.278 6.54-3.793 2.261-5.511 1.347-6.949-1.06-.367-.62-1.316-2.292-1.984-3.413-.473-.79-2.047-3.633-3.106-4.215l-.031-.05a26.84 26.84 0 0 0 1.64-.91c.54-.325.977-.583 1.649-1.052.559 1.672 2.426 4.758 2.906 5.57 1.2 2.012 2 3.31 2.508 3.755.715.62 1.82.71 2.867.082 2.48-1.473 1.766-3.036.207-5.649-2.183-3.668-2.953-5.078-4.347-6.226.398-.192.754-.383 1.382-.758.563-.336.86-.535 1.274-.828.531 1.714 1.394 3.16 1.848 3.96ZM194.848 203.25c.574.723 2.914 3.723 4.074 4.953a14.494 14.494 0 0 0-1.86 1.684c-1.828-.645-5.12-1.942-6.562-2.535l-4.383-1.79-.047.04 2.434 3.058c.46.578 3.152 3.586 4.3 4.492-.421.282-.761.528-1.144.828-.36.29-.758.633-1.078.938-.832-1.82-4.055-5.969-4.691-6.77-.485-.609-2.403-3.156-3.63-3.847l-.062-.078a29.575 29.575 0 0 0 1.555-1.16c.543-.43 1.039-.852 1.441-1.227.93.492 3.114 1.547 4.309 2.004 2.355.89 3.797 1.488 5.105 1.98l.047-.039-1.62-2.039c-.938-1.176-3.56-4.133-4.446-4.605.316-.203.808-.57 1.172-.856.492-.394.543-.433 1.031-.898.809 1.586 3.394 5.035 4.05 5.867ZM203.152 204.164c-.453.438-.738.746-1.347 1.39-1.407-1.874-3.387-3.945-4.493-5.077-1.574-1.63-3.69-3.93-5.113-4.45l-.039-.047c.492-.425.899-.792 1.336-1.214.441-.426.895-.922 1.41-1.453 1.004 1.457 3.656 4.16 4.188 4.707.879.906 3.379 3.507 5.34 4.984-.692.617-1.008.894-1.282 1.16ZM204.734 185.957c.653 1.113 1.684 2.8 2.575 4.29.894 1.483 2.66 4.44 3.453 5.702a13.442 13.442 0 0 0-1.41 1.89c-2.16-.96-4.36-1.874-6.63-2.8-1.769-.707-3.445-1.398-4.632-1.836-.723-.262-1.73-.566-2.219-.547l-.062-.05c.441-.426.91-.942 1.347-1.481.465-.543.903-1.082 1.281-1.586.426.363 1.192.797 1.731 1.09.883.484 2.457 1.168 4.164 1.887 1.266.527 2.156.933 3.223 1.32l.058-.063c-.543-.937-1.715-2.742-2.297-3.605-1.445-2.098-2.574-3.648-3.714-4.32.375-.375.675-.696 1.035-1.11.34-.398.617-.718.941-1.191.32.887.77 1.746 1.156 2.41ZM220.238 183.102c-1.203 1.625-1.894 2.68-2.652 3.796-.8 1.184-1.04 1.532-2.277 3.461-1.579-1.425-3.192-2.547-5.36-4.02-2.242-1.519-4.984-3.51-5.937-3.421l-.051-.035c.863-1.168 1.95-2.766 2.566-3.672.496-.73 1.344-2.016 2.434-3.691.258.406.95 1.027 1.363 1.308l-.047.07c-.89.668-2.011 2.067-3.183 3.793.996.852 2.844 2.055 3.722 2.653.746-1.098 1.32-1.977 1.895-3.219.39.395.937.867 1.441 1.234-1.058.91-1.68 1.864-2.246 2.7l1.973 1.34c1.875 1.273 2.309 1.238 3.008.206.886-1.304 1.617-2.738 1.777-3.902l.07-.105c.512.675.973 1.066 1.5 1.504ZM213.227 170.297c-.293.558-.477.96-.61 1.344.797.507 1.848 1.054 2.149 1.21.78.41 1.218.657 1.945 1.04.254-.442.406-.692.57-1.012.63-1.211.535-2.332-1.316-3.293-1.563-.813-2.34-.055-2.738.71Zm12.878 1.812c-.289.563-.488 1.028-.828 1.727-1.047-.332-2.187-.566-3.476-.785-1.285-.219-2.242-.34-2.746-.102-.508.235-.77.785-1.153 1.559.996.472 4.325 2.152 5.715 2.52a31.747 31.747 0 0 0-.922 1.636c-.289.559-.543 1.09-.765 1.613-1.594-1.156-4.91-2.859-5.957-3.406-1.797-.934-5.055-2.7-6.125-2.684l-.055-.03c.523-.962.91-1.708 1.406-2.66.574-1.102.985-1.935 1.598-3.106 1.258-2.43 2.883-2.512 4.36-1.743 1.527.797 2.386 2.403 1.663 4.399l.035.02c.551-.973 1.301-1.243 2.204-1.153.625.063.812.09 1.914.234 1.414.188 3.132.442 3.984.2l.106.054a43.822 43.822 0 0 0-.958 1.707ZM229.094 165.355c-.27.711-1.035 2.31-1.54 3.403a24.501 24.501 0 0 0-2.195-1.16l.04-.098a5.345 5.345 0 0 0 2.566-2.824c.437-1.14.16-2.102-.832-2.485-.707-.27-1.254-.14-2.008.313-1.117.676-2.031 1.656-3.309 2.36-1.437.777-2.472.671-3.613.234-1.121-.43-3.05-1.891-1.437-6.094a33.96 33.96 0 0 1 1.328-3.008c.52.379 1.293.879 2.027 1.316l-.039.098c-.84.29-1.586.723-2.152 2.195-.535 1.395-.032 2.38.789 2.696.996.379 1.61.457 3.804-1.406 2.739-2.329 3.707-2.047 4.883-1.594 1.422.547 3.196 2.129 1.688 6.054ZM232.14 155.945c-.175.606-.273 1.016-.48 1.875-2.152-.93-4.898-1.75-6.418-2.195-2.176-.633-5.156-1.586-6.644-1.34l-.059-.015c.223-.618.395-1.137.563-1.72.171-.59.324-1.245.507-1.96 1.59.773 5.235 1.808 5.965 2.023 1.215.352 4.672 1.38 7.106 1.692-.297.879-.434 1.277-.54 1.64ZM223.871 139.574l-.027.125c-.305.41-.864 1.758-1.203 3.473.414.082 3.074.676 5.906 1.238 2.789.559 5.691.856 6.164.844-.203.82-.266 1.043-.414 1.762-.121.62-.211 1.074-.305 1.847-1.672-.633-5.32-1.402-6.656-1.668-1.414-.28-3.977-.75-5.297-.992-.289 1.445-.5 3.332-.277 3.938l-.02.125c-.547-.239-1.328-.524-1.844-.625.504-1.895.836-3.461 1.184-5.215.379-1.899.746-3.735.98-5.64.418.276 1.16.55 1.81.788Zm0 0"/><path style="stroke:none;fill-rule:nonzero;fill:#b62537;fill-opacity:1" d="M224.598 128.742c1.039.828 2.117 1.613 5.953 4.086 1.32.11 2.039.172 3 .188.906.011 2.031.023 2.683-.094a21.34 21.34 0 0 0-.21 1.82c-.051.59-.075.903-.098 1.871-.582-.218-1.89-.453-2.57-.511-.958-.079-1.692-.204-3.012-.313a101.052 101.052 0 0 0-6.688 3.031c-.441.215-1.246.72-1.558 1.055l-.078-.008c.101-.71.18-1.398.238-2.113.058-.715.101-1.45.129-2.25.5.023 1.011-.082 1.445-.238 1.078-.375 2.563-.82 4.922-1.848l.004-.063c-1.262-.804-3.11-1.761-4.196-2.273-.519-.254-1.265-.465-1.769-.465.082-.52.133-.875.195-1.61.043-.542.09-1.066.07-1.554.52.531 1.239 1.074 1.54 1.29Zm0 0"/><path style="stroke:none;fill-rule:evenodd;fill:#b62537;fill-opacity:1" d="M223.707 72.457c-.113 1.941-2.164 3.246-3.781 4.152-1.586.883-3.692-1.199-4.047-2.523-.172-.64-.344-2.66.23-3.121.66-.531 1.614-.117 2.282-.668.062-.047.136-.344.125-.426-.23-1.91 2.664-.707 4.183.488.457.364 1.028 1.75 1.008 2.098Zm3.918 12.465c-.125-.55-.531-2.016-.578-2.977v.004c-.05-2.515-.656-4.703-.996-7.187-.145-1.078-.73-5.086 1.144-5.055.114 0 .453-.414.465-.543.168-1.973-1.113-2.75-2.87-2.035-.977.398-1.532.531-2.462-.078-.2-.13-2.098-1.211-3.84-2.367-1.101-.73-4.46-3.293-4.46-3.293-1.532-.914-3.055-3.235-3.965-.582 1.171 2.355 3.816 3.195 5.628 4.84.891.78 1.5 2.488-.312 1.882-1.777-.633-3.805-2.824-4.895-3.445-1.02-.594-3.375-.824-2.562 1.05.48 1.102 1.367 2.079 2.469 2.59.609.282 2.75.985 2.875 1.465.332.684.183 2.391-.301 2.993-.797.976-2.926-.582-3.953-1.387-.059-.047-.5-.332-1.11-.695-.672-.403-2.144-1.098-3.129-1.543a22.475 22.475 0 0 0-1.855-.688c-1.082-.32-4.508-1.168-3.832 1.258.012.039.098.164.215.242.347.25 1.176.79 2.113 1.305.902.492 5.02 1.765 6.527 2.578 1.422.766 3.063 1.156 4.274 2.289.512.48.695.894.8 1.332.106.441.633 3.09.633 4.035 0 2.403-.617 5.242-1.18 7.059-.577 1.883-2.245 4.984.798 5.097 3.03.114 2.914-9.851 3.09-12.043.05-.668.28-3.668 1.601-2.566 2.195 1.84 1.621 4.828 1.887 7.281.074.703.691.895 1.3 1.078.204.063.993.028 1.086-.117.5-.8.575-1.816.524-2.738-.086-1.602-.852-3.832-.219-5.43.438-.914 1.13-1.226 1.45-.105.015.047.027.082.042.12.094.337.235 1.384.227 1.606-.04 1.801.644 6.57.738 6.688.707.941 2.008 1.453 2.918.21.313-.374-.164-1.577-.285-2.128ZM136.938 168.863c0 .32-.286.578-.637.578h-6.215c-.356 0-.645-.257-.645-.578v-1.425c0-.313.29-.575.645-.575v.008h6.215c.344 0 .637.262.637.574Zm1.683-3.758h-10.855c-.762 0-1.375.668-1.375 1.493v3.172c0 .82.613 1.488 1.375 1.488h4.261l4.274.004c.344 0 .637.265.637.578v.992c0 .316-.286.574-.637.574h-6.219a.636.636 0 0 1-.566-.32h-3.125v.594c0 .82.613 1.488 1.375 1.488h10.855c.758 0 1.375-.668 1.375-1.492v-7.078c0-.825-.617-1.493-1.375-1.493ZM146.895 171.406c0-.316.28-.574.632-.574h6.215c.356 0 .645.258.645.574v1.426c0 .316-.29.578-.645.578v-.008h-6.215c-.343 0-.632-.265-.632-.574Zm-1.692 3.762h10.863c.754 0 1.375-.668 1.375-1.492v-3.172c0-.82-.62-1.488-1.375-1.488l-4.265-.004h-4.274c-.343 0-.632-.266-.632-.578v-.993c0-.316.28-.574.632-.574h6.223c.25 0 .46.13.566.32h3.125v-.597c0-.82-.62-1.485-1.375-1.485h-10.863c-.754 0-1.367.668-1.367 1.493v7.078c0 .824.613 1.492 1.367 1.492Zm0 0"/></svg>