<?xml version="1.0" encoding="UTF-8"?>
<svg viewBox="0 0 8 8" version="1.1" xmlns="http://www.w3.org/2000/svg" xmlns:xlink="http://www.w3.org/1999/xlink">
    <title>Sketch</title>
    <g id="Page-1" stroke="none" stroke-width="1" fill="none" fill-rule="evenodd">
        <g id="Sketch" fill-rule="nonzero">
            <polygon id="Path" fill="#FDB300" points="1.74545312 0.238351518 3.99999672 0 6.25454033 0.238351518 7.99999343 2.58146812 3.99999672 7.23942235 0 2.58146812"></polygon>
            <polygon id="Path" fill="#EA6C00" points="1.62019921 2.58146812 4.00000033 7.23942387 0 2.58146812"></polygon>
            <polygon id="Path" fill="#EA6C00" transform="translate(5.999990, 4.910446) scale(-1, 1) translate(-5.999990, -4.910446) " points="5.62018871 2.58146812 7.99998983 7.23942387 3.9999895 2.58146812"></polygon>
            <polygon id="Path" fill="#FDAD00" points="1.62019921 2.58146812 6.37980144 2.58146812 4.00000033 7.23942387"></polygon>
            <polygon id="Path" fill="#FDD231" points="4.00000033 0 1.74544655 0.238348366 1.62019921 2.58146641"></polygon>
            <polygon id="Path" fill="#FDD231" transform="translate(5.189889, 1.290733) scale(-1, 1) translate(-5.189889, -1.290733) " points="6.37978915 0 4.12523537 0.238348366 3.99998804 2.58146641"></polygon>
            <polygon id="Path" fill="#FDAD00" transform="translate(7.127267, 1.409907) scale(-1, 1) translate(-7.127267, -1.409907) " points="6.25453311 2.58146641 8 0.238348366 7.87473232 2.58146641"></polygon>
            <polygon id="Path" fill="#FDAD00" points="0 2.58146641 1.74544655 0.238348366 1.62019921 2.58146641"></polygon>
            <polygon id="Path" fill="#FEEEB7" points="4.00000033 0 1.62019921 2.58146641 6.37980144 2.58146641"></polygon>
        </g>
    </g>
</svg>