<svg viewBox="0 0 24 24" xmlns="http://www.w3.org/2000/svg"><path d="M8.8 0a2.4 2.4 0 0 0 0 4.8h2.4V2.4A2.4 2.4 0 0 0 8.8 0m0 6.4H2.4a2.4 2.4 0 0 0 0 4.8h6.4a2.4 2.4 0 0 0 0-4.8" fill="#44BEDF"/><path d="M24 8.8a2.4 2.4 0 0 0-4.8 0v2.4h2.4A2.4 2.4 0 0 0 24 8.8m-6.4 0V2.4a2.4 2.4 0 0 0-4.8 0v6.4a2.4 2.4 0 1 0 4.8 0" fill="#2EB67D"/><path d="M15.2 24a2.4 2.4 0 0 0 0-4.8h-2.4v2.4a2.4 2.4 0 0 0 2.4 2.4m0-6.4h6.4a2.4 2.4 0 0 0 0-4.8h-6.4a2.4 2.4 0 0 0 0 4.8" fill="#ECB22E"/><path d="M0 15.2c0 .636.252 1.246.702 1.696A2.4 2.4 0 0 0 4.8 15.2v-2.4H2.4A2.4 2.4 0 0 0 0 15.2m6.4 0v6.4a2.4 2.4 0 1 0 4.8 0v-6.4c0-.636-.252-1.246-.702-1.696A2.4 2.4 0 0 0 6.4 15.2" fill="#E01E5A"/></svg>