<svg viewBox="0 0 24 24" xmlns="http://www.w3.org/2000/svg"><path d="M.312 6.491C1.559 2.76 7.248 2.09 9.497 6.473c-4.944-.247-5.724 3.368-5.827 4.074l-.01.071a.887.887 0 0 0-.004.047l-.001.884V20L0 16.608V8.963c0-1.174.312-2.472.312-2.472Zm19.335-.121h-.024c-.388.012-5.238.242-5.768 4.363v.057c-.007.573-.185 5.27-4.067 5.783 0 0-4.479.77-5.652-2.98 0 0 6 .818 6.204-5.244-.094-5.694 7.296-6.073 9.307-1.979ZM20.348 0 24 3.39v7.647c-.03 1.4-.337 2.231-.402 2.39l-.012.029c-1.247 3.733-6.832 4.452-9.08.07 5.444.272 5.828-4.107 5.842-4.19.002-.01.003-.113.004-.307v-.163l.001-.047.001-.384v-.063l.001-1.024V5.06l-.001-.277V3.9l-.001-.31v-.65L20.347 0Z" fill="#012882"/></svg>