<svg viewBox="0 0 24 24" xmlns="http://www.w3.org/2000/svg"><path d="M12 0C5.37276 0 6.96004e-05 5.37255 6.96004e-05 11.9998C6.96004e-05 18.6277 5.37276 24 12 24C18.6275 24 23.9999 18.6277 23.9999 11.9998C23.9999 5.37297 18.6278 0.00057318 11.9999 0.00057318L12 0ZM17.5031 17.3071C17.2876 17.6606 16.827 17.7714 16.4747 17.556C13.6568 15.8338 10.1099 15.4447 5.93289 16.3989C5.53038 16.4912 5.12915 16.2389 5.03745 15.8365C4.94531 15.434 5.1965 15.0328 5.60002 14.9411C10.1711 13.896 14.0921 14.3458 17.255 16.2786C17.6075 16.4949 17.7193 16.9549 17.5029 17.3074L17.5031 17.3071ZM18.9719 14.0402C18.7005 14.4805 18.1247 14.6186 17.6849 14.3482C14.4601 12.3659 9.54263 11.7917 5.72741 12.9498C5.23261 13.0993 4.71002 12.8204 4.55985 12.3265C4.41082 11.8317 4.68982 11.3101 5.18375 11.1596C9.54178 9.83733 14.9595 10.4779 18.6636 12.7541C19.1035 13.0249 19.2425 13.601 18.9717 14.0403L18.9719 14.0402ZM19.098 10.6378C15.2299 8.34061 8.84951 8.12939 5.15694 9.2501C4.564 9.42993 3.93694 9.09519 3.75725 8.50224C3.57756 7.90901 3.91201 7.28237 4.50539 7.10211C8.74419 5.81533 15.7907 6.06394 20.2434 8.7073C20.7768 9.02383 20.9518 9.71265 20.6356 10.2453C20.3204 10.7786 19.6297 10.9544 19.0981 10.6378L19.098 10.6378Z" fill="#2ebd59"/></svg>
