<svg viewBox="0 0 8 8" xmlns="http://www.w3.org/2000/svg"><path d="M4 0a4 4 0 1 0 0 8 4 4 0 0 0 0-8Zm1.834 5.769a.25.25 0 0 1-.342.083c-.94-.574-2.122-.704-3.514-.386a.25.25 0 1 1-.111-.486c1.523-.348 2.83-.198 3.885.446a.25.25 0 0 1 .082.343Zm.49-1.089a.312.312 0 0 1-.429.103c-1.075-.661-2.714-.852-3.986-.466a.312.312 0 0 1-.181-.597c1.453-.44 3.259-.227 4.493.531.147.09.193.283.103.43Zm.042-1.134c-1.29-.766-3.416-.836-4.647-.463a.374.374 0 1 1-.217-.716c1.413-.429 3.762-.346 5.246.535a.374.374 0 0 1-.382.644Z" fill="#2EBD59" fill-rule="nonzero"/></svg>