<svg viewBox="0 0 24 24" xmlns="http://www.w3.org/2000/svg"><path d="M11.017 13.275c-.174-.029-.301.089-.322.246-.147 1.158-1.272 1.526-1.272 2.658 0 1.199 1.567 2.292 1.567 3.52 0 1.13-1.394 2.372-1.136 4.097.698.127 1.413.204 2.146.204.733 0 1.447-.078 2.143-.204.26-1.725-1.136-2.967-1.136-4.098 0-1.227 1.567-2.32 1.567-3.52 0-1.13-1.124-1.5-1.272-2.657-.02-.158-.147-.275-.322-.246-.228.042-.52.19-.98.19-.46 0-.754-.149-.983-.19ZM9.892 6.83c-.018-.018-.053-.022-.091.006-.017.012-.034.027-.051.04a3.471 3.471 0 0 0-1.35 2.73c0 1.427.916 2.142.916 3.433 0 1.292-1.492 1.877-1.492 3.137 0 1.258 1.465 2.261 1.465 3.429 0 1.064-1.392 2.41-1.243 3.715.307.107.618.199.935.28-.232-1.385 1.187-2.717 1.187-3.918 0-1.3-1.514-2.28-1.514-3.503 0-1.225 1.412-1.652 1.412-3.145 0-1.265-1.053-2.326-1.053-3.632 0-1.062.305-1.776.874-2.486.026-.033.023-.067.005-.086Zm10.779 5.754c.083.295.151.595.203.903 1.148-.001 1.608 1.074 2.885.916.06-.294.099-.594.136-.895-1.349.216-1.837-.985-3.224-.924Zm.24 3.667c-.03.224-.07.445-.117.664.9-.063 1.095.764 1.738.833h.003c.116-.213.215-.438.319-.659-.671-.049-.912-.907-1.942-.838ZM2.592 5.86c-.035.02-.056.06-.052.112.14 1.796-.91 3.357-2.202 4.728 1.331.4 2.464-1.313 4.19-.715A9.034 9.034 0 0 1 6.84 7.623c-.883-.361-1.952-.276-2.866.31-.142-.849-.602-1.606-1.259-2.062-.045-.031-.092-.03-.126-.01ZM12 6.538c-1.114 0-2.046.63-2.29 1.444-.019.063.005.102.077.07.2-.09.428-.134.675-.134.455 0 .857.168 1.093.458.105.345.113.845-.005 1.13-.187-.042-.254-.185-.437-.185-.182 0-.324.129-.634.129s-.346-.147-.55-.147c-.24 0-.283.246-.283.525 0 1.24 1.14 2.949 2.354 2.949 1.213 0 2.354-1.708 2.354-2.95 0-.278-.057-.516-.308-.548a.756.756 0 0 1-.525.171c-.31 0-.396-.129-.578-.129-.22 0-.2.465-.46.49-.175-.419-.183-.956-.038-1.435.237-.29.638-.458 1.092-.458.248 0 .477.044.675.134.073.032.097-.008.078-.07-.244-.814-1.176-1.444-2.29-1.444Zm-.279 3.796c.1 0 .133.053.279.053.146 0 .179-.054.279-.053.095 0 .279.075.318.145a.154.154 0 0 1-.04.093c-.213.032-.31.15-.557.15-.247 0-.342-.118-.555-.15a.153.153 0 0 1-.042-.093c.04-.07.224-.145.318-.145Zm-.591.796s.328.077.87.077.87-.078.87-.078.065.022.08.078c-.25.194-.424.635-.95.635s-.699-.441-.95-.635c.016-.056.08-.078.08-.078Zm-8.117 3.364c-1.165-.027-1.523.968-2.526.876.077.263.169.519.263.774.938.033 1.264-.877 2.255-.865a9.375 9.375 0 0 1 .008-.785Zm16.257 5.81a8.322 8.322 0 0 1-.308.39c.226.154.423.429.554.654.14-.112.273-.232.407-.35-.153-.238-.389-.533-.653-.694ZM15.08 7.1c.69.827 1.09 1.577 1.09 2.716 0 1.28-.755 1.991-.755 3.244 0 1.253 1.519 1.95 1.519 3.118s-1.412 2.15-1.412 3.35c0 1.09 1.243 2.18 1.265 3.472.22-.096.434-.205.648-.314-.046-1.114-1.192-2.331-1.192-3.246 0-1.024 1.342-2.053 1.342-3.262 0-1.21-1.548-2.048-1.548-3.11 0-1.062.659-1.674.659-3.035 0-.997-.474-2.005-1.206-2.65a1.981 1.981 0 0 0-.41-.283ZM6.723 18.525c.448 1.413-1.212 2.249-1.363 3.466.165.11.34.209.511.31.096-1.01 1.176-1.82 1.176-2.838 0-.376-.176-.689-.324-.938ZM8.92 7.098a1.97 1.97 0 0 0-.41.287c-.732.644-1.206 1.652-1.206 2.649 0 1.36.66 1.97.66 3.032s-1.549 1.9-1.549 3.11c0 1.209 1.342 2.239 1.342 3.262 0 .915-1.146 2.135-1.192 3.25.214.108.427.217.648.313.023-1.293 1.265-2.382 1.265-3.472 0-1.2-1.412-2.185-1.412-3.353 0-1.168 1.516-1.865 1.516-3.118s-.753-1.961-.753-3.241c0-1.14.4-1.891 1.09-2.719Zm11.609 3.56a2.76 2.76 0 0 0-.627.04c.177.32.335.653.471.997 1.432-.16 2.027 1.128 3.595.961.012-.218.032-.434.032-.656 0-.116-.013-.228-.016-.343-1.46.195-2.112-.926-3.455-.999ZM10.227 8.317c-.331 0-.496.112-.496.273 0 .105.038.195.148.295.233-.234.726-.224 1.237-.035.023-.254-.434-.533-.89-.533Zm3.878-1.487c-.018.019-.018.053.008.086.568.71.87 1.424.87 2.486 0 1.305-1.05 2.367-1.05 3.632 0 1.493 1.412 1.92 1.412 3.145 0 1.224-1.513 2.203-1.513 3.503 0 1.201 1.418 2.533 1.187 3.919.317-.082.629-.174.935-.281.147-1.305-1.246-2.649-1.246-3.713 0-1.167 1.468-2.17 1.468-3.428 0-1.26-1.492-1.845-1.492-3.137s.916-2.007.916-3.434c0-1.112-.55-2.112-1.353-2.732l-.05-.04c-.038-.028-.073-.024-.092-.006ZM3.98 19.085c-.456.12-.768.549-1.001.809.128.146.256.291.39.431.21-.263.48-.659.874-.766a9.099 9.099 0 0 1-.263-.474ZM7.856 7.602a2.2 2.2 0 0 0-.41.33c-.663.671-1.103 1.654-1.103 2.56 0 1.22.458 1.722.458 2.628 0 .833-1.767 1.993-1.567 3.13-.617.563-1.352.813-1.996.813.056.236.122.469.196.699-.723.038-1.057.653-1.438.86.12.18.253.353.383.527.344-.233.634-.796 1.259-.82.052.132.107.262.166.392.068.149.172.206.361.206.586 0 1.491-.378 2.189-1.074-.454-.826-.592-1.247-.592-1.677 0-1.094 1.553-2.011 1.553-3.072 0-1.062-.536-1.669-.536-2.818 0-1.036.468-1.93 1.077-2.684ZM4.73 20.3c-.265.161-.5.46-.653.696.133.118.266.237.404.349.13-.226.33-.5.557-.654a7.926 7.926 0 0 1-.308-.391ZM21.41 5.86c-.034-.02-.08-.018-.126.013-.657.456-1.118 1.21-1.259 2.06-.914-.587-1.982-.67-2.866-.308a9.04 9.04 0 0 1 2.317 2.36c1.725-.598 2.856 1.114 4.187.715-1.292-1.37-2.341-2.93-2.202-4.725.004-.053-.017-.095-.051-.115ZM16.14 7.604c.61.755 1.08 1.648 1.08 2.684 0 1.15-.536 1.757-.536 2.818 0 1.061 1.55 1.979 1.55 3.073 0 .43-.135.85-.589 1.676.697.696 1.603 1.075 2.189 1.075.19 0 .293-.058.361-.207.059-.129.114-.26.166-.39.626.023.914.584 1.26.816.129-.174.26-.347.38-.528-.381-.206-.713-.819-1.436-.857.075-.23.14-.462.196-.699-.644 0-1.38-.25-1.996-.811.2-1.139-1.567-2.298-1.567-3.132 0-.905.458-1.407.458-2.627 0-.906-.44-1.89-1.103-2.561a2.218 2.218 0 0 0-.413-.33ZM12 .715l-.635 1.476-1.588.113 1.186 1.05-.535 1.4c-.684-.7-1.619-1.108-2.738-1.226a8.913 8.913 0 0 1 1.015 2.025c-.617-.504-1.38-.806-2.26-.868.527.678.995 1.4 1.342 2.178.039.087.123.117.214.072A8.96 8.96 0 0 1 12 6c1.436 0 2.794.336 4 .935.09.045.175.015.213-.072.347-.778.814-1.5 1.342-2.178-.88.063-1.645.365-2.263.868a8.87 8.87 0 0 1 1.018-2.025c-1.12.118-2.054.527-2.738 1.226l-.535-1.4 1.186-1.05-1.588-.113L12 .715Zm0 3.442s1.202.918 1.243.948c.047.035.025.092-.035.08A7.466 7.466 0 0 0 12 5.085c-.594 0-1.103.083-1.208.102-.06.01-.083-.046-.037-.08L12 4.156Zm8.984 10.34a8.728 8.728 0 0 1 .01.782c.991-.012 1.318.901 2.256.867.094-.255.186-.51.262-.774-1.005.095-1.362-.903-2.528-.876ZM3.086 16.247c-1.03-.069-1.269.793-1.94.841.104.22.203.444.32.657.644-.068.839-.897 1.74-.833a9.117 9.117 0 0 1-.12-.665Zm10.687-7.931c-.267 0-.58.083-.777.303-.02.06-.02.147.008.206.485-.166.911-.172 1.117.059.11-.1.148-.19.148-.295 0-.161-.165-.273-.496-.273ZM3.33 12.584c-1.387-.06-1.875 1.14-3.225.924.038.3.078.599.137.892 1.276.158 1.737-.914 2.885-.913.052-.308.12-.608.203-.903Zm16.688 6.503c-.082.16-.168.32-.26.475.394.107.664.5.873.763.134-.139.262-.283.389-.429-.234-.26-.546-.688-1.002-.809Zm-2.74-.56c-.147.25-.324.56-.324.935 0 1.02 1.08 1.829 1.176 2.84.17-.102.346-.2.511-.31-.151-1.218-1.811-2.051-1.363-3.464ZM3.47 10.656c-1.344.073-1.995 1.195-3.455 1C.013 11.77 0 11.883 0 12c0 .222.02.438.032.656 1.568.167 2.162-1.122 3.595-.964.135-.344.294-.677.471-.997a2.749 2.749 0 0 0-.627-.04Z" fill="#fff"/><path d="m12 4.157-1.245.948c-.046.035-.023.092.037.08.105-.018.614-.101 1.208-.101s1.103.083 1.208.102c.06.01.082-.046.035-.08L12 4.156Zm-.87 6.973s-.064.021-.08.077c.251.194.424.635.95.635s.7-.441.95-.635c-.015-.056-.08-.078-.08-.078s-.328.078-.87.078-.87-.078-.87-.078ZM12 0c-.412 0-.82.021-1.221.062h-.006c-.088.009-.172.029-.26.04-.306.038-.612.079-.91.14-.141.028-.276.07-.415.104-.246.059-.492.113-.732.187-.128.04-.251.09-.377.134-.242.083-.484.167-.718.265-.185.078-.362.168-.541.255-.16.076-.322.147-.477.23-.176.094-.344.203-.514.305-.165.1-.334.194-.493.3-.15.1-.29.21-.434.316-.158.117-.32.23-.472.354-.157.128-.304.268-.455.404-.132.12-.27.234-.396.36-.126.123-.242.256-.362.385-.144.155-.29.307-.426.469-.095.114-.182.236-.273.353-.143.184-.286.368-.418.56-.094.137-.177.28-.265.42-.112.18-.227.357-.33.542-.086.156-.164.319-.243.48-.092.184-.186.369-.268.56-.076.175-.141.355-.21.535-.066.176-.136.35-.195.53-.063.194-.113.394-.166.592-.05.185-.1.37-.142.557-.042.194-.072.39-.104.587-.032.191-.066.382-.089.576-.024.207-.037.417-.05.627-.01.141-.018.283-.022.426 1.669.223 2.284-1.275 4.082-.96-.177.32-.336.653-.471.997-1.433-.158-2.027 1.131-3.595.964.007.125.008.251.019.375.009.103.015.206.027.308.006.057.02.112.026.169 1.35.217 1.838-.984 3.225-.924a8.741 8.741 0 0 0-.203.903c-1.148-.001-1.609 1.071-2.885.913v.003c.01.048.025.094.035.142.06.278.132.553.211.825 1.003.092 1.361-.903 2.526-.876a9.11 9.11 0 0 0-.008.785c-.99-.012-1.317.898-2.255.865.032.087.062.176.096.262.063.158.127.315.196.469.032.073.07.142.104.214.671-.048.91-.91 1.94-.84.03.223.073.445.12.664-.901-.064-1.096.765-1.74.832.164.301.34.592.53.876.381-.206.715-.821 1.438-.86a9.303 9.303 0 0 1-.196-.698c.644 0 1.38-.25 1.996-.812-.2-1.138 1.567-2.298 1.567-3.131 0-.906-.458-1.407-.458-2.628 0-.906.44-1.889 1.103-2.56a2.2 2.2 0 0 1 .41-.33c-.61.754-1.077 1.648-1.077 2.684 0 1.15.536 1.756.536 2.818 0 1.06-1.553 1.978-1.553 3.072 0 .43.138.851.592 1.677-.698.696-1.603 1.074-2.189 1.074-.19 0-.293-.057-.361-.206a10.15 10.15 0 0 1-.166-.392c-.625.024-.915.587-1.26.82.07.094.14.19.212.281.09.114.18.228.273.338.037.043.078.083.116.126.233-.26.545-.689 1.001-.81.083.161.171.32.263.475-.394.107-.664.503-.873.766l.08.086c.093.094.19.184.287.276.11.105.225.209.34.31.153-.237.388-.535.653-.696.1.134.202.265.308.391-.227.154-.426.428-.557.654.083.066.17.125.255.19.197.15.393.301.6.439l.024.016c.151-1.217 1.811-2.053 1.363-3.466.148.25.324.562.324.938 0 1.018-1.08 1.828-1.176 2.839.09.053.177.112.268.163.086.048.17.096.257.142.055.03.114.052.17.08.045-1.114 1.191-2.334 1.191-3.249 0-1.023-1.342-2.053-1.342-3.262 0-1.21 1.548-2.048 1.548-3.11 0-1.062-.659-1.671-.659-3.032 0-.997.474-2.005 1.206-2.65a1.97 1.97 0 0 1 .41-.286c-.69.828-1.09 1.58-1.09 2.719 0 1.28.752 1.988.752 3.241 0 1.253-1.516 1.95-1.516 3.118s1.412 2.154 1.412 3.354c0 1.09-1.242 2.178-1.265 3.47l.051.025c.101.043.206.08.308.12.156.063.315.119.474.175-.15-1.305 1.243-2.65 1.243-3.715 0-1.168-1.465-2.17-1.465-3.43 0-1.259 1.492-1.844 1.492-3.136 0-1.291-.916-2.006-.916-3.434 0-1.112.548-2.11 1.35-2.73.017-.012.034-.027.05-.04.077-.055.14.015.087.081-.569.71-.874 1.424-.874 2.486 0 1.306 1.053 2.367 1.053 3.632 0 1.493-1.412 1.92-1.412 3.145 0 1.224 1.514 2.203 1.514 3.503 0 1.201-1.419 2.533-1.187 3.919.14.036.279.078.42.11l.277.059c.058.011.118.016.176.026-.258-1.725 1.136-2.967 1.136-4.098 0-1.227-1.567-2.32-1.567-3.52 0-1.131 1.125-1.5 1.272-2.657.02-.157.148-.275.322-.246.229.041.523.19.983.19.46 0 .752-.148.98-.19.175-.03.301.088.322.246.148 1.158 1.272 1.526 1.272 2.658 0 1.199-1.567 2.292-1.567 3.52 0 1.13 1.395 2.372 1.136 4.097.057-.01.117-.012.174-.024.096-.018.191-.043.287-.064.14-.031.276-.071.415-.107.232-1.386-1.187-2.718-1.187-3.919 0-1.3 1.513-2.28 1.513-3.503 0-1.225-1.411-1.652-1.411-3.145 0-1.265 1.05-2.327 1.05-3.632 0-1.062-.303-1.777-.87-2.486-.054-.066.007-.136.082-.08l.051.04A3.479 3.479 0 0 1 15.6 9.608c0 1.427-.916 2.142-.916 3.434 0 1.292 1.492 1.877 1.492 3.137 0 1.258-1.468 2.261-1.468 3.428 0 1.064 1.393 2.409 1.246 3.713.172-.06.345-.12.514-.188.088-.035.178-.067.265-.104.018-.008.035-.02.054-.027-.022-1.293-1.265-2.382-1.265-3.472 0-1.2 1.412-2.183 1.412-3.35 0-1.168-1.519-1.865-1.519-3.118s.756-1.964.756-3.244c0-1.14-.4-1.889-1.09-2.716.152.08.28.17.41.284.73.644 1.204 1.652 1.204 2.649 0 1.36-.658 1.973-.658 3.035s1.548 1.9 1.548 3.11c0 1.209-1.342 2.238-1.342 3.262 0 .915 1.146 2.132 1.192 3.247.055-.029.114-.052.169-.08l.257-.143c.09-.051.178-.11.268-.163-.096-1.011-1.176-1.82-1.176-2.84 0-.375.177-.685.324-.934-.448 1.413 1.212 2.246 1.363 3.463l.027-.016c.156-.104.302-.22.453-.332.132-.098.268-.192.396-.295-.13-.225-.328-.5-.554-.653.106-.127.209-.258.308-.391.264.161.5.456.653.693a11.9 11.9 0 0 0 .34-.31c.096-.092.194-.182.287-.276l.08-.086c-.209-.263-.48-.656-.873-.763.092-.155.178-.315.26-.475.456.12.768.55 1.002.81.042-.049.087-.094.128-.142.094-.111.184-.227.274-.34.068-.088.134-.177.2-.266-.345-.232-.633-.793-1.258-.817a9.096 9.096 0 0 1-.167.391c-.068.15-.171.207-.361.207-.586 0-1.492-.379-2.189-1.075.454-.825.59-1.246.59-1.676 0-1.094-1.551-2.012-1.551-3.073 0-1.06.536-1.668.536-2.818 0-1.036-.47-1.93-1.08-2.684.151.095.284.2.413.33.663.671 1.103 1.655 1.103 2.56 0 1.221-.458 1.723-.458 2.628 0 .834 1.767 1.993 1.567 3.132.617.561 1.352.811 1.996.811-.056.237-.122.47-.196.7.723.037 1.055.65 1.436.856.188-.283.366-.573.53-.873-.643-.069-.838-.896-1.738-.833.047-.219.086-.44.118-.664 1.03-.07 1.27.79 1.942.838.034-.073.074-.143.107-.217.066-.148.127-.298.187-.45.036-.09.068-.184.102-.276-.938.034-1.265-.879-2.255-.867.002-.093.005-.185.005-.279 0-.17-.006-.337-.016-.504 1.166-.027 1.523.971 2.528.876.084-.284.158-.572.22-.865.007-.03.018-.06.024-.09l.003-.014c-1.277.158-1.737-.917-2.885-.916a8.636 8.636 0 0 0-.203-.903c1.387-.06 1.875 1.14 3.224.924.008-.057.021-.112.027-.169.012-.102.018-.205.027-.308.01-.124.012-.25.019-.375-1.568.167-2.163-1.12-3.595-.961a8.573 8.573 0 0 0-.471-.997c1.797-.315 2.413 1.182 4.082.96a12.082 12.082 0 0 0-.022-.424c-.013-.213-.026-.426-.05-.635-.022-.19-.055-.376-.086-.562-.033-.2-.064-.401-.107-.598-.041-.188-.093-.372-.142-.557-.054-.198-.103-.398-.166-.592-.059-.18-.13-.354-.196-.53-.068-.18-.133-.36-.209-.536-.082-.19-.176-.375-.268-.56-.08-.16-.157-.323-.243-.48-.103-.184-.218-.361-.33-.54-.088-.14-.171-.284-.265-.42-.123-.18-.259-.35-.391-.523-.104-.135-.204-.274-.314-.405-.117-.14-.243-.272-.366-.407-.135-.147-.268-.296-.41-.436-.126-.125-.262-.238-.394-.357-.15-.136-.298-.276-.455-.404-.152-.124-.314-.237-.472-.354-.144-.106-.285-.216-.434-.316-.159-.106-.328-.2-.493-.3-.17-.102-.338-.21-.514-.305-.155-.083-.317-.154-.477-.23-.18-.087-.356-.177-.54-.255-.235-.098-.477-.182-.719-.265-.126-.044-.25-.094-.377-.134-.24-.074-.486-.128-.732-.187-.139-.034-.274-.076-.415-.105-.298-.06-.604-.101-.91-.14-.088-.01-.172-.03-.26-.04h-.006C12.82.022 12.412 0 12 0Zm0 .715.635 1.476 1.588.113-1.186 1.05.535 1.4c.684-.7 1.618-1.108 2.738-1.226a8.87 8.87 0 0 0-1.018 2.025c.618-.503 1.384-.805 2.263-.868-.528.678-.995 1.4-1.342 2.178-.038.087-.123.117-.214.072A8.968 8.968 0 0 0 12 6a8.96 8.96 0 0 0-4 .935c-.09.045-.174.015-.213-.072-.347-.778-.815-1.5-1.342-2.178.88.062 1.643.364 2.26.868A8.913 8.913 0 0 0 7.69 3.528c1.12.118 2.054.527 2.738 1.226l.535-1.4-1.186-1.05 1.588-.113L12 .715ZM2.59 5.861c.034-.02.08-.021.126.01.657.456 1.117 1.213 1.259 2.063.914-.587 1.983-.672 2.866-.31a9.034 9.034 0 0 0-2.314 2.362C2.8 9.388 1.668 11.1.337 10.7 1.63 9.33 2.679 7.769 2.54 5.973c-.004-.052.017-.092.051-.112Zm18.82 0c.034.02.055.062.05.115-.138 1.796.911 3.354 2.203 4.725-1.331.4-2.462-1.313-4.187-.715a9.04 9.04 0 0 0-2.317-2.36c.884-.362 1.952-.279 2.866.308.141-.85.602-1.604 1.259-2.06.045-.031.092-.034.126-.013ZM12 6.538c1.114 0 2.046.63 2.29 1.444.019.062-.005.102-.077.07a1.636 1.636 0 0 0-.675-.134c-.455 0-.856.168-1.093.458-.145.479-.137 1.016.037 1.436.262-.026.24-.49.46-.49.183 0 .27.128.58.128.285 0 .4-.081.524-.171.25.032.309.27.309.549 0 1.24-1.142 2.949-2.355 2.949s-2.354-1.708-2.354-2.95c0-.278.044-.524.283-.524.204 0 .24.147.55.147.31 0 .452-.129.634-.129.183 0 .25.143.437.185.118-.285.11-.785.005-1.13-.236-.29-.638-.458-1.092-.458-.248 0-.475.044-.675.134-.072.032-.097-.007-.078-.07.244-.814 1.176-1.444 2.29-1.444Zm-1.773 1.779c.455 0 .912.279.89.533-.513-.189-1.005-.2-1.238.035-.11-.1-.148-.19-.148-.295 0-.161.165-.273.496-.273Zm3.546 0c.33 0 .496.112.496.273 0 .105-.038.195-.148.295-.206-.231-.632-.225-1.117-.06a.298.298 0 0 1-.008-.205c.197-.22.51-.303.777-.303Zm-2.052 2.017c-.094 0-.278.075-.318.145a.153.153 0 0 0 .042.093c.213.032.308.15.555.15.247 0 .344-.118.557-.15a.154.154 0 0 0 .04-.093c-.04-.07-.223-.144-.318-.145-.1 0-.133.053-.279.053-.146 0-.179-.053-.279-.053Z" fill="#006341"/></svg>