<svg viewBox="0 0 24 24" xmlns="http://www.w3.org/2000/svg"><path d="M4.465 10.81H2.94c0-.257-.248-.418-.645-.418-.452 0-.644.21-.644.414 0 .841 3.063.01 3.063 2.224 0 1.157-.948 1.745-2.332 1.745C.902 14.775 0 14.12 0 13.01h1.602c0 .34.282.52.774.52.395 0 .752-.117.752-.44 0-.855-2.995-.042-2.995-2.267 0-.927.832-1.598 2.19-1.598 1.35 0 2.142.64 2.142 1.585Zm5.88-1.405-2.068 5.222H9.95l.189-.568h1.821l.189.568h1.672l-2.068-5.222h-1.407Zm.704 1.91.563 1.697h-1.127l.564-1.697Zm3.03-1.91v5.222h1.576v-2.196l1.31 2.196h1.869l-1.338-1.933c.52-.224 1.006-.74 1.006-1.574 0-1.218-.958-1.715-2.2-1.715H14.08Zm1.576 1.287h.673c.32 0 .606.118.606.511s-.278.511-.607.511h-.672v-1.022Zm8.113-1.287-2.259 3.793H24l-.794 1.43H18.96l2.256-3.795H19.15V9.405h4.619Zm-14.663 0v1.428H7.643v3.794H6.067v-3.794H4.625V9.405h4.48Z" fill="#006576"/></svg>