<svg viewBox="0 0 24 24" xmlns="http://www.w3.org/2000/svg"><path d="M11.017 13.275C10.8426 13.2462 10.7159 13.3638 10.6955 13.5214C10.5479 14.6786 9.42321 15.047 9.42321 16.1786C9.42321 17.3777 10.9902 18.4707 10.9902 19.6982C10.9902 20.8287 9.59563 22.0709 9.85446 23.7964C10.5517 23.9225 11.2665 24 12 24C12.7326 24 13.4465 23.9222 14.1429 23.7964C14.4021 22.0709 13.0071 20.8287 13.0071 19.6982C13.0071 18.4711 14.5741 17.3777 14.5741 16.1786C14.5741 15.0474 13.4498 14.6786 13.3018 13.5214C13.2814 13.3634 13.1551 13.2458 12.9804 13.275C12.752 13.3166 12.46 13.4652 12 13.4652C11.54 13.4652 11.2457 13.3162 11.017 13.275ZM9.89196 6.83036C9.87362 6.81216 9.83889 6.80772 9.80089 6.83571C9.78409 6.84811 9.7668 6.86269 9.75 6.87589C8.94845 7.49425 8.4 8.49303 8.4 9.60536C8.4 11.0325 9.31607 11.7478 9.31607 13.0393C9.31607 14.3312 7.82411 14.9164 7.82411 16.1759C7.82411 17.4342 9.28929 18.4373 9.28929 19.6045C9.28929 20.6695 7.89651 22.0147 8.04643 23.3196C8.35251 23.4266 8.66443 23.5186 8.98125 23.6009C8.74947 22.2152 10.1679 20.883 10.1679 19.6821C10.1679 18.3822 8.65446 17.4029 8.65446 16.1786C8.65446 14.9539 10.0661 14.5266 10.0661 13.0339C10.0661 11.7692 9.01339 10.7077 9.01339 9.40179C9.01339 8.34026 9.31824 7.62563 9.88661 6.91607C9.91321 6.88287 9.91031 6.84856 9.89196 6.83036ZM20.6705 12.5839C20.7537 12.8791 20.8221 13.1794 20.8741 13.4866C22.0216 13.4858 22.4822 14.5607 23.7589 14.4027C23.8187 14.1088 23.8577 13.8093 23.8955 13.508C22.546 13.7241 22.0581 12.5233 20.6705 12.5839ZM20.9116 16.2509C20.8804 16.4753 20.8409 16.6964 20.7937 16.9152C21.6936 16.8521 21.8888 17.679 22.5321 17.7482C22.5331 17.7483 22.5339 17.7481 22.5348 17.7482C22.6514 17.535 22.7498 17.3102 22.8536 17.0893C22.1827 17.0402 21.9418 16.1818 20.9116 16.2509ZM2.59018 5.86071C2.55628 5.88091 2.53509 5.92062 2.53929 5.97321C2.67808 7.7691 1.62861 9.33018 0.3375 10.7009C1.66821 11.1009 2.8009 9.38776 4.52679 9.98571C5.14594 9.06377 5.93073 8.26077 6.84107 7.62321C5.95753 7.26204 4.88854 7.34717 3.975 7.93393C3.83341 7.08398 3.37282 6.327 2.71607 5.87143C2.67067 5.84003 2.62408 5.84052 2.59018 5.86071ZM12 6.53839C10.8861 6.53839 9.95421 7.1682 9.70982 7.98214C9.69102 8.04454 9.7155 8.08418 9.7875 8.05179C9.98789 7.96179 10.2149 7.91786 10.4625 7.91786C10.9169 7.91786 11.3186 8.08551 11.5554 8.37589C11.6602 8.72147 11.6684 9.22067 11.55 9.50625C11.3628 9.46425 11.2962 9.32143 11.1134 9.32143C10.9306 9.32143 10.7885 9.45 10.4786 9.45C10.169 9.45 10.1331 9.30268 9.92946 9.30268C9.68988 9.30268 9.64554 9.5493 9.64554 9.82768C9.64554 11.0688 10.7865 12.7768 12 12.7768C13.2131 12.7768 14.3545 11.0688 14.3545 9.82768C14.3545 9.5493 14.2968 9.31097 14.0464 9.27857C13.9216 9.36857 13.807 9.45 13.5214 9.45C13.2114 9.45 13.1252 9.32143 12.9429 9.32143C12.7225 9.32143 12.7437 9.78561 12.4821 9.81161C12.3078 9.39243 12.2999 8.85466 12.4446 8.37589C12.6818 8.08551 13.0831 7.91786 13.5375 7.91786C13.7851 7.91786 14.0141 7.96219 14.2125 8.05179C14.2849 8.08418 14.309 8.04414 14.2902 7.98214C14.0462 7.1682 13.1139 6.53839 12 6.53839ZM11.7214 10.3339C11.821 10.3335 11.854 10.3875 12 10.3875C12.1456 10.3875 12.1786 10.3331 12.2786 10.3339C12.3738 10.3347 12.5577 10.4094 12.5973 10.4786C12.5945 10.5142 12.5819 10.5443 12.5571 10.5723C12.344 10.6043 12.2468 10.7223 12 10.7223C11.7532 10.7223 11.6583 10.6043 11.4455 10.5723C11.4199 10.5443 11.4055 10.5138 11.4027 10.4786C11.4427 10.4094 11.6266 10.3343 11.7214 10.3339ZM11.1295 11.1295C11.1295 11.1295 11.4584 11.2071 12 11.2071C12.5416 11.2071 12.8705 11.1295 12.8705 11.1295C12.8705 11.1295 12.9345 11.1507 12.9509 11.2071C12.6993 11.4007 12.5256 11.842 12 11.842C11.4744 11.842 11.3011 11.4007 11.0491 11.2071C11.0659 11.1511 11.1295 11.1295 11.1295 11.1295ZM3.01339 14.4938C1.84841 14.4666 1.49043 15.4623 0.4875 15.3696C0.564434 15.6328 0.655863 15.8885 0.75 16.1438C1.68799 16.1774 2.0141 15.267 3.00536 15.2786C3.00256 15.1858 3 15.0909 3 14.9973C3 14.8277 3.00419 14.6601 3.01339 14.4938ZM19.2696 20.3036C19.1708 20.4372 19.0676 20.5679 18.9616 20.6946C19.1878 20.848 19.3853 21.1228 19.5161 21.3482C19.6558 21.2358 19.7887 21.1158 19.9232 20.9973C19.7699 20.7601 19.5341 20.4651 19.2696 20.3036ZM15.0804 7.10089C15.7703 7.92844 16.1705 8.67784 16.1705 9.81696C16.1705 11.0965 15.4152 11.808 15.4152 13.0607C15.4152 14.3138 16.9339 15.0106 16.9339 16.1786C16.9339 17.3465 15.5223 18.3295 15.5223 19.5295C15.5223 20.6195 16.7648 21.7081 16.7866 23.0009C17.0075 22.9046 17.2211 22.7964 17.4348 22.6875C17.3886 21.5725 16.2429 20.3557 16.2429 19.4411C16.2429 18.4167 17.5848 17.3877 17.5848 16.1786C17.5848 14.9687 16.0366 14.1311 16.0366 13.0688C16.0366 12.0072 16.6955 11.3946 16.6955 10.0339C16.6955 9.03719 16.2217 8.02918 15.4902 7.38482C15.3606 7.27043 15.2335 7.18049 15.0804 7.10089ZM6.72321 18.525C7.17127 19.9379 5.51144 20.7738 5.35982 21.9911C5.52533 22.1013 5.70027 22.1997 5.87143 22.3018C5.96715 21.291 7.04732 20.4814 7.04732 19.4625C7.04732 19.0873 6.8708 18.7742 6.72321 18.525ZM8.91964 7.09821C8.76605 7.17781 8.63901 7.27043 8.50982 7.38482C7.77827 8.02918 7.30447 9.03719 7.30446 10.0339C7.30446 11.3946 7.96339 12.0045 7.96339 13.0661C7.96339 14.1284 6.41518 14.966 6.41518 16.1759C6.41518 17.385 7.75714 18.4145 7.75714 19.4384C7.75714 20.3534 6.61097 21.5729 6.56518 22.6875C6.77894 22.7964 6.99247 22.9046 7.21339 23.0009C7.23555 21.7081 8.47768 20.6191 8.47768 19.5295C8.47768 18.3295 7.06607 17.3438 7.06607 16.1759C7.06607 15.008 8.58214 14.3112 8.58214 13.058C8.58214 11.8053 7.82946 11.0965 7.82946 9.81696C7.82946 8.67784 8.22969 7.92576 8.91964 7.09821ZM20.5286 10.658C20.3361 10.6476 20.127 10.6587 19.9018 10.6982C20.079 11.0182 20.2372 11.3511 20.3732 11.6946C21.8055 11.5359 22.3996 12.8232 23.9679 12.6562C23.9797 12.4376 24 12.2216 24 12C24 11.8843 23.9872 11.7721 23.9839 11.6571C22.5239 11.8523 21.8722 10.7311 20.5286 10.658ZM10.2268 8.31696C9.89601 8.31696 9.73125 8.42859 9.73125 8.59018C9.73125 8.69457 9.76858 8.78523 9.87857 8.88482C10.1122 8.65084 10.6045 8.66121 11.1161 8.85C11.1385 8.59562 10.682 8.31696 10.2268 8.31696ZM14.1054 6.83036C14.087 6.84856 14.0866 6.88287 14.1134 6.91607C14.6814 7.62522 14.9839 8.33986 14.9839 9.40179C14.9839 10.7073 13.9339 11.7692 13.9339 13.0339C13.9339 14.5266 15.3455 14.9539 15.3455 16.1786C15.3455 17.4029 13.8321 18.3822 13.8321 19.6821C13.8321 20.883 15.2505 22.2152 15.0187 23.6009C15.3356 23.5186 15.6475 23.4266 15.9536 23.3196C16.1009 22.0155 14.708 20.671 14.708 19.6071C14.708 18.44 16.1759 17.4369 16.1759 16.1786C16.1759 14.9195 14.6839 14.3343 14.6839 13.042C14.6839 11.7504 15.6 11.0351 15.6 9.60804C15.6 8.49571 15.0497 7.49585 14.2473 6.87589C14.2301 6.86269 14.2132 6.84851 14.1964 6.83571C14.1586 6.80772 14.1237 6.81216 14.1054 6.83036ZM3.98036 19.0848C3.52352 19.2051 3.2116 19.6339 2.97857 19.8938C3.10656 20.0399 3.2348 20.1853 3.36964 20.325C3.57906 20.0618 3.84907 19.6662 4.24286 19.5589C4.15126 19.4041 4.06276 19.2452 3.98036 19.0848ZM7.85625 7.60179C7.70506 7.69658 7.57482 7.80086 7.44643 7.93125C6.78287 8.60321 6.34285 9.58602 6.34286 10.492C6.34286 11.7127 6.80089 12.2141 6.80089 13.1196C6.80089 13.9532 5.03394 15.1126 5.23393 16.2509C4.61717 16.8125 3.88195 17.0625 3.23839 17.0625C3.29439 17.2993 3.36033 17.532 3.43393 17.7616C2.71107 17.7999 2.37705 18.4154 1.99554 18.6214C2.11592 18.8029 2.24876 18.9747 2.37857 19.1491C2.72318 18.9159 3.01334 18.3532 3.6375 18.3295C3.6903 18.4607 3.74518 18.5913 3.80357 18.7205C3.87157 18.8697 3.97559 18.9268 4.16518 18.9268C4.75074 18.9268 5.65642 18.5486 6.35357 17.8527C5.9 17.0271 5.7616 16.6063 5.76161 16.1759C5.76161 15.0824 7.31518 14.1647 7.31518 13.1036C7.31518 12.0424 6.77947 11.4352 6.77946 10.2857C6.77946 9.24978 7.24669 8.35613 7.85625 7.60179ZM4.73036 20.3009C4.46548 20.4624 4.22974 20.7601 4.07679 20.9973C4.21032 21.115 4.34254 21.2338 4.48125 21.3455C4.61167 21.1203 4.81139 20.8456 5.03839 20.692C4.932 20.5656 4.82915 20.4345 4.73036 20.3009ZM21.4098 5.86071C21.3759 5.84047 21.3291 5.84251 21.2839 5.87411C20.6268 6.32968 20.1662 7.08398 20.025 7.93393C19.1111 7.34717 18.0425 7.26432 17.1589 7.62589C18.0681 8.26265 18.8559 9.06297 19.4759 9.98571C21.201 9.38775 22.3318 11.1005 23.6625 10.7009C22.3714 9.33018 21.3219 7.77178 21.4607 5.97589C21.4649 5.9233 21.4438 5.88096 21.4098 5.86071ZM16.1411 7.60446C16.7506 8.35881 17.2205 9.25246 17.2205 10.2884C17.2205 11.4379 16.6848 12.0451 16.6848 13.1063C16.6848 14.167 18.2357 15.0846 18.2357 16.1786C18.2357 16.6089 18.1 17.0298 17.6464 17.8554C18.3432 18.5513 19.2493 18.9295 19.8348 18.9295C20.0248 18.9295 20.1284 18.8724 20.1964 18.7232C20.2548 18.5944 20.3101 18.4637 20.3625 18.3321C20.988 18.3563 21.2762 18.9166 21.6214 19.1491C21.751 18.9751 21.8816 18.8025 22.0018 18.6214C21.6207 18.415 21.2893 17.8022 20.5661 17.7643C20.6405 17.5347 20.7064 17.302 20.7616 17.0652C20.1184 17.0652 19.3828 16.8151 18.7661 16.2536C18.9661 15.1152 17.1991 13.9559 17.1991 13.1223C17.1991 12.2168 17.6571 11.7154 17.6571 10.4946C17.6571 9.5887 17.2171 8.60548 16.5536 7.93393C16.4252 7.80354 16.2923 7.69926 16.1411 7.60446ZM12 0.715179L11.3652 2.19107L9.77679 2.30357L10.9634 3.35357L10.4277 4.75446C9.74412 4.05451 8.80931 3.64647 7.69018 3.52768C8.11175 4.15884 8.44297 4.80913 8.70536 5.55268C8.0878 5.04911 7.32418 4.74722 6.44464 4.68482C6.97221 5.36318 7.44023 6.08495 7.78661 6.8625C7.8258 6.95009 7.9101 6.98002 8.00089 6.93482C9.20561 6.33606 10.5637 6 12 6C13.4363 6 14.7936 6.33646 15.9991 6.93482C16.0899 6.98002 16.1746 6.95009 16.2134 6.8625C16.5602 6.08495 17.0274 5.36318 17.5554 4.68482C16.6758 4.74762 15.9099 5.04951 15.292 5.55268C15.5543 4.80873 15.8875 4.15844 16.3098 3.52768C15.1899 3.64647 14.2555 4.05451 13.5723 4.75446L13.0366 3.35357L14.2232 2.30357L12.6348 2.19107L12 0.715179ZM12 4.15714C12 4.15714 13.2021 5.07496 13.2429 5.10536C13.2897 5.13975 13.2684 5.19651 13.208 5.18571C13.1028 5.16692 12.5944 5.08393 12 5.08393C11.4056 5.08393 10.8972 5.16652 10.792 5.18571C10.7316 5.19651 10.7085 5.13975 10.7545 5.10536C10.7961 5.07456 12 4.15714 12 4.15714ZM20.9839 14.4964C20.9935 14.6628 21 14.8304 21 15C21 15.0936 20.9974 15.1858 20.9946 15.2786C21.9855 15.267 22.3123 16.1802 23.25 16.1464C23.3442 15.8912 23.4355 15.6354 23.5125 15.3723C22.5074 15.4671 22.15 14.4689 20.9839 14.4964ZM3.08571 16.2482C2.05553 16.1791 1.81734 17.0407 1.14643 17.0893C1.24991 17.3095 1.34896 17.5329 1.46518 17.7455C2.11034 17.6783 2.30471 16.8493 3.20625 16.9125C3.15905 16.6937 3.11691 16.4722 3.08571 16.2482ZM13.7732 8.31696C13.506 8.31696 13.1932 8.40046 12.9964 8.61964C12.976 8.67924 12.9757 8.7667 13.0045 8.82589C13.4888 8.6599 13.915 8.65404 14.1214 8.88482C14.2314 8.78483 14.2687 8.69457 14.2687 8.59018C14.2687 8.42899 14.1036 8.31696 13.7732 8.31696ZM3.32946 12.5839C1.9419 12.5237 1.45361 13.7245 0.104464 13.508C0.142235 13.8085 0.181513 14.1069 0.241071 14.4C1.51699 14.558 1.97797 13.4858 3.12589 13.4866C3.17789 13.1794 3.24667 12.8791 3.32946 12.5839ZM20.017 19.0875C19.9346 19.2475 19.8487 19.4068 19.7571 19.5616C20.1509 19.6689 20.421 20.0618 20.6304 20.325C20.7643 20.1862 20.8915 20.0416 21.0187 19.8964C20.7854 19.6365 20.4731 19.2076 20.017 19.0875ZM17.2768 18.5277C17.1296 18.7769 16.9527 19.0873 16.9527 19.4625C16.9527 20.4814 18.0332 21.291 18.1286 22.3018C18.2997 22.1997 18.4747 22.1013 18.6402 21.9911C18.4886 20.7738 16.8287 19.9406 17.2768 18.5277ZM3.47143 10.6554C2.1275 10.7283 1.47578 11.8496 0.0160714 11.6545C0.0127653 11.7703 7.04517e-10 11.8834 0 12C5.82996e-08 12.2216 0.0202873 12.4376 0.0321429 12.6562C1.60004 12.8232 2.19366 11.5337 3.62679 11.692C3.76238 11.3484 3.92062 11.0155 4.09821 10.6955C3.87293 10.6559 3.66392 10.6449 3.47143 10.6554Z" fill="#ffffff"/><path d="M12 4.15714C12 4.15714 10.7961 5.07456 10.7545 5.10536C10.7085 5.13975 10.7316 5.19651 10.792 5.18571C10.8972 5.16652 11.4056 5.08393 12 5.08393C12.5944 5.08393 13.1028 5.16692 13.208 5.18571C13.2684 5.19651 13.2897 5.13975 13.2429 5.10536C13.2021 5.07496 12 4.15714 12 4.15714ZM11.1295 11.1295C11.1295 11.1295 11.0659 11.1511 11.0491 11.2071C11.3011 11.4007 11.4744 11.842 12 11.842C12.5256 11.842 12.6993 11.4007 12.9509 11.2071C12.9345 11.1507 12.8705 11.1295 12.8705 11.1295C12.8705 11.1295 12.5416 11.2071 12 11.2071C11.4584 11.2071 11.1295 11.1295 11.1295 11.1295ZM12 5.68434e-14C11.5876 1.08517e-07 11.1803 0.0209907 10.7786 0.0616071C10.7768 0.0617862 10.775 0.0614273 10.7732 0.0616071C10.6853 0.0705397 10.6008 0.0909637 10.5134 0.101786C10.2072 0.139709 9.9013 0.180523 9.60268 0.241071C9.4616 0.269674 9.32674 0.31203 9.1875 0.345536C8.94204 0.404602 8.69558 0.459139 8.45625 0.533036C8.32811 0.572612 8.20484 0.62325 8.07857 0.666964C7.83729 0.750483 7.59474 0.833938 7.36071 0.932143C7.17615 1.00961 6.99938 1.10032 6.81964 1.18661C6.66016 1.26318 6.49834 1.33365 6.34286 1.41696C6.16688 1.51125 5.99916 1.61965 5.82857 1.72232C5.66403 1.82137 5.49499 1.91573 5.33571 2.02232C5.18657 2.12213 5.0461 2.23218 4.90179 2.33839C4.74355 2.45484 4.58253 2.56807 4.43036 2.69196C4.27267 2.82038 4.12589 2.96031 3.975 3.09643C3.84252 3.21591 3.7056 3.33015 3.57857 3.45536C3.45303 3.57913 3.33698 3.7119 3.21696 3.84107C3.07315 3.99582 2.92665 4.14763 2.79107 4.30982C2.6957 4.42394 2.60901 4.54574 2.51786 4.66339C2.3753 4.84737 2.23187 5.03094 2.1 5.22321C2.00636 5.35977 1.92288 5.5032 1.83482 5.64375C1.7226 5.82285 1.60822 5.99954 1.50536 6.18482C1.41862 6.34106 1.34147 6.50387 1.26161 6.66429C1.16958 6.84915 1.07637 7.03397 0.99375 7.22411C0.917509 7.39957 0.852799 7.58013 0.784821 7.75982C0.718135 7.9361 0.647795 8.11005 0.589286 8.29018C0.526254 8.48425 0.47648 8.68387 0.423214 8.88214C0.373599 9.06679 0.322162 9.25123 0.28125 9.43929C0.239236 9.63256 0.209361 9.82927 0.176786 10.0259C0.145072 10.217 0.110957 10.4077 0.0883929 10.6018C0.0644358 10.8085 0.0508142 11.0188 0.0375 11.2286C0.0284758 11.3701 0.0201472 11.5117 0.0160714 11.6545C1.68485 11.8776 2.30006 10.3795 4.09821 10.6955C3.92062 11.0155 3.76238 11.3484 3.62679 11.692C2.19366 11.5337 1.60004 12.8232 0.0321429 12.6562C0.0389178 12.7812 0.0403253 12.9074 0.0508929 13.0312C0.0596003 13.1341 0.0662915 13.2372 0.0776786 13.3393C0.0840312 13.3964 0.0973124 13.4512 0.104464 13.508C1.45361 13.7245 1.9419 12.5237 3.32946 12.5839C3.24667 12.8791 3.17789 13.1794 3.12589 13.4866C1.97797 13.4858 1.51699 14.558 0.241071 14.4C0.241245 14.4009 0.240897 14.4018 0.241071 14.4027C0.250834 14.4507 0.265559 14.4969 0.275893 14.5446C0.336173 14.8233 0.408227 15.0985 0.4875 15.3696C1.49043 15.4623 1.84841 14.4666 3.01339 14.4938C3.00419 14.6601 3 14.8277 3 14.9973C3 15.0909 3.00256 15.1858 3.00536 15.2786C2.0141 15.267 1.68799 16.1774 0.75 16.1438C0.782284 16.2313 0.812174 16.3197 0.846429 16.4062C0.908889 16.5638 0.973178 16.7207 1.04196 16.875C1.07436 16.9477 1.11263 17.0174 1.14643 17.0893C1.81734 17.0407 2.05553 16.1791 3.08571 16.2482C3.11691 16.4722 3.15905 16.6937 3.20625 16.9125C2.30471 16.8493 2.11034 17.6783 1.46518 17.7455C1.62954 18.0462 1.80689 18.3371 1.99554 18.6214C2.37705 18.4154 2.71107 17.7999 3.43393 17.7616C3.36033 17.532 3.29439 17.2993 3.23839 17.0625C3.88195 17.0625 4.61717 16.8125 5.23393 16.2509C5.03394 15.1126 6.80089 13.9532 6.80089 13.1196C6.80089 12.2141 6.34286 11.7127 6.34286 10.492C6.34285 9.58602 6.78287 8.60321 7.44643 7.93125C7.57482 7.80086 7.70506 7.69658 7.85625 7.60179C7.24669 8.35613 6.77946 9.24978 6.77946 10.2857C6.77947 11.4352 7.31518 12.0424 7.31518 13.1036C7.31518 14.1647 5.76161 15.0824 5.76161 16.1759C5.7616 16.6063 5.9 17.0271 6.35357 17.8527C5.65642 18.5486 4.75074 18.9268 4.16518 18.9268C3.97559 18.9268 3.87157 18.8697 3.80357 18.7205C3.74518 18.5913 3.6903 18.4607 3.6375 18.3295C3.01334 18.3532 2.72318 18.9159 2.37857 19.1491C2.44864 19.2432 2.51745 19.3384 2.59018 19.4304C2.68007 19.5438 2.76954 19.6577 2.86339 19.7679C2.9003 19.8112 2.94106 19.8509 2.97857 19.8938C3.2116 19.6339 3.52352 19.2051 3.98036 19.0848C4.06276 19.2452 4.15126 19.4041 4.24286 19.5589C3.84907 19.6662 3.57906 20.0618 3.36964 20.325C3.39685 20.3532 3.42252 20.3828 3.45 20.4107C3.54306 20.5052 3.6405 20.5952 3.73661 20.6866C3.84777 20.7924 3.96164 20.8959 4.07679 20.9973C4.22974 20.7601 4.46548 20.4624 4.73036 20.3009C4.82915 20.4345 4.932 20.5656 5.03839 20.692C4.81139 20.8456 4.61167 21.1203 4.48125 21.3455C4.56376 21.412 4.65143 21.4714 4.73571 21.5357C4.93268 21.6859 5.1293 21.837 5.33571 21.975C5.34371 21.9803 5.35182 21.9857 5.35982 21.9911C5.51144 20.7738 7.17127 19.9379 6.72321 18.525C6.8708 18.7742 7.04732 19.0873 7.04732 19.4625C7.04732 20.4814 5.96715 21.291 5.87143 22.3018C5.96115 22.3553 6.04807 22.414 6.13929 22.4652C6.22451 22.513 6.30991 22.5613 6.39643 22.6071C6.45142 22.6363 6.50969 22.6592 6.56518 22.6875C6.61097 21.5729 7.75714 20.3534 7.75714 19.4384C7.75714 18.4145 6.41518 17.385 6.41518 16.1759C6.41518 14.966 7.96339 14.1284 7.96339 13.0661C7.96339 12.0045 7.30446 11.3946 7.30446 10.0339C7.30447 9.03719 7.77827 8.02918 8.50982 7.38482C8.63901 7.27043 8.76605 7.17781 8.91964 7.09821C8.22969 7.92576 7.82946 8.67784 7.82946 9.81696C7.82946 11.0965 8.58214 11.8053 8.58214 13.058C8.58214 14.3112 7.06607 15.008 7.06607 16.1759C7.06607 17.3438 8.47768 18.3295 8.47768 19.5295C8.47768 20.6191 7.23555 21.7081 7.21339 23.0009C7.23067 23.0084 7.24696 23.0175 7.26429 23.025C7.36532 23.0684 7.46987 23.1048 7.57232 23.1455C7.72835 23.2076 7.88727 23.264 8.04643 23.3196C7.89651 22.0147 9.28929 20.6695 9.28929 19.6045C9.28929 18.4373 7.82411 17.4342 7.82411 16.1759C7.82411 14.9164 9.31607 14.3312 9.31607 13.0393C9.31607 11.7478 8.4 11.0325 8.4 9.60536C8.4 8.49303 8.94845 7.49425 9.75 6.87589C9.7668 6.86269 9.78409 6.84811 9.80089 6.83571C9.87689 6.77972 9.9398 6.84968 9.88661 6.91607C9.31824 7.62563 9.01339 8.34026 9.01339 9.40179C9.01339 10.7077 10.0661 11.7692 10.0661 13.0339C10.0661 14.5266 8.65446 14.9539 8.65446 16.1786C8.65446 17.4029 10.1679 18.3822 10.1679 19.6821C10.1679 20.883 8.74947 22.2152 8.98125 23.6009C9.12153 23.6373 9.25956 23.6793 9.40179 23.7107C9.49366 23.7311 9.58503 23.7514 9.67768 23.7696C9.73578 23.781 9.79606 23.7859 9.85446 23.7964C9.59563 22.0709 10.9902 20.8287 10.9902 19.6982C10.9902 18.4707 9.42321 17.3777 9.42321 16.1786C9.42321 15.047 10.5479 14.6786 10.6955 13.5214C10.7159 13.3638 10.8426 13.2462 11.017 13.275C11.2457 13.3162 11.54 13.4652 12 13.4652C12.46 13.4652 12.752 13.3166 12.9804 13.275C13.1551 13.2458 13.2814 13.3634 13.3018 13.5214C13.4498 14.6786 14.5741 15.0474 14.5741 16.1786C14.5741 17.3777 13.0071 18.4711 13.0071 19.6982C13.0071 20.8287 14.4021 22.0709 14.1429 23.7964C14.2003 23.7861 14.2598 23.7835 14.317 23.7723C14.4132 23.7535 14.5082 23.7292 14.6036 23.708C14.7439 23.677 14.8804 23.6368 15.0187 23.6009C15.2505 22.2152 13.8321 20.883 13.8321 19.6821C13.8321 18.3822 15.3455 17.4029 15.3455 16.1786C15.3455 14.9539 13.9339 14.5266 13.9339 13.0339C13.9339 11.7692 14.9839 10.7073 14.9839 9.40179C14.9839 8.33986 14.6814 7.62522 14.1134 6.91607C14.0598 6.84968 14.1208 6.77972 14.1964 6.83571C14.2132 6.84851 14.2301 6.86269 14.2473 6.87589C15.0497 7.49585 15.6 8.49571 15.6 9.60804C15.6 11.0351 14.6839 11.7504 14.6839 13.042C14.6839 14.3343 16.1759 14.9195 16.1759 16.1786C16.1759 17.4369 14.708 18.44 14.708 19.6071C14.708 20.671 16.1009 22.0155 15.9536 23.3196C16.1261 23.2594 16.299 23.2 16.4679 23.1321C16.5559 23.0968 16.6461 23.0651 16.733 23.0277C16.7515 23.0198 16.7682 23.0089 16.7866 23.0009C16.7648 21.7081 15.5223 20.6195 15.5223 19.5295C15.5223 18.3295 16.9339 17.3465 16.9339 16.1786C16.9339 15.0106 15.4152 14.3138 15.4152 13.0607C15.4152 11.808 16.1705 11.0965 16.1705 9.81696C16.1705 8.67784 15.7703 7.92844 15.0804 7.10089C15.2335 7.18049 15.3606 7.27043 15.4902 7.38482C16.2217 8.02918 16.6955 9.03719 16.6955 10.0339C16.6955 11.3946 16.0366 12.0072 16.0366 13.0688C16.0366 14.1311 17.5848 14.9687 17.5848 16.1786C17.5848 17.3877 16.2429 18.4167 16.2429 19.4411C16.2429 20.3557 17.3886 21.5725 17.4348 22.6875C17.4903 22.6592 17.5486 22.6363 17.6036 22.6071C17.6901 22.5613 17.7755 22.513 17.8607 22.4652C17.9519 22.414 18.0389 22.3553 18.1286 22.3018C18.0332 21.291 16.9527 20.4814 16.9527 19.4625C16.9527 19.0873 17.1296 18.7769 17.2768 18.5277C16.8287 19.9406 18.4886 20.7738 18.6402 21.9911C18.6488 21.9853 18.6583 21.9808 18.667 21.975C18.823 21.8706 18.969 21.7543 19.1196 21.6429C19.2522 21.5448 19.3878 21.4515 19.5161 21.3482C19.3853 21.1228 19.1878 20.848 18.9616 20.6946C19.0676 20.5679 19.1708 20.4372 19.2696 20.3036C19.5341 20.4651 19.7699 20.7601 19.9232 20.9973C20.0384 20.8959 20.1522 20.7924 20.2634 20.6866C20.3595 20.5953 20.457 20.5052 20.55 20.4107C20.5775 20.3828 20.6031 20.3532 20.6304 20.325C20.421 20.0618 20.1509 19.6689 19.7571 19.5616C19.8487 19.4068 19.9346 19.2475 20.017 19.0875C20.4731 19.2076 20.7854 19.6365 21.0187 19.8964C21.0609 19.8484 21.106 19.8032 21.1473 19.7545C21.2414 19.6437 21.3305 19.5284 21.4205 19.4143C21.4891 19.3273 21.5552 19.2381 21.6214 19.1491C21.2762 18.9166 20.988 18.3563 20.3625 18.3321C20.3101 18.4637 20.2548 18.5944 20.1964 18.7232C20.1284 18.8724 20.0248 18.9295 19.8348 18.9295C19.2493 18.9295 18.3432 18.5513 17.6464 17.8554C18.1 17.0298 18.2357 16.6089 18.2357 16.1786C18.2357 15.0846 16.6848 14.167 16.6848 13.1063C16.6848 12.0451 17.2205 11.4379 17.2205 10.2884C17.2205 9.25246 16.7506 8.35881 16.1411 7.60446C16.2923 7.69926 16.4252 7.80354 16.5536 7.93393C17.2171 8.60548 17.6571 9.5887 17.6571 10.4946C17.6571 11.7154 17.1991 12.2168 17.1991 13.1223C17.1991 13.9559 18.9661 15.1152 18.7661 16.2536C19.3828 16.8151 20.1184 17.0652 20.7616 17.0652C20.7064 17.302 20.6405 17.5347 20.5661 17.7643C21.2893 17.8022 21.6207 18.415 22.0018 18.6214C22.19 18.3377 22.3681 18.0482 22.5321 17.7482C21.8888 17.679 21.6936 16.8521 20.7937 16.9152C20.8409 16.6964 20.8804 16.4753 20.9116 16.2509C21.9418 16.1818 22.1827 17.0402 22.8536 17.0893C22.8879 17.0163 22.9278 16.9461 22.9607 16.8723C23.0269 16.7239 23.0879 16.5738 23.1482 16.4223C23.1844 16.3313 23.216 16.2385 23.25 16.1464C22.3123 16.1802 21.9855 15.267 20.9946 15.2786C20.9974 15.1858 21 15.0936 21 15C21 14.8304 20.9935 14.6628 20.9839 14.4964C22.15 14.4689 22.5074 15.4671 23.5125 15.3723C23.5956 15.0882 23.6699 14.7996 23.7321 14.5071C23.7388 14.4763 23.7499 14.447 23.7563 14.4161C23.7572 14.4116 23.758 14.4071 23.7589 14.4027C22.4822 14.5607 22.0216 13.4858 20.8741 13.4866C20.8221 13.1794 20.7537 12.8791 20.6705 12.5839C22.0581 12.5233 22.546 13.7241 23.8955 13.508C23.9027 13.4512 23.916 13.3964 23.9223 13.3393C23.9337 13.2372 23.9404 13.1341 23.9491 13.0312C23.9597 12.9074 23.9611 12.7812 23.9679 12.6562C22.3996 12.8232 21.8055 11.5359 20.3732 11.6946C20.2372 11.3511 20.079 11.0182 19.9018 10.6982C21.6995 10.3826 22.3148 11.8803 23.9839 11.6571C23.9799 11.5152 23.9714 11.3746 23.9625 11.2339C23.9491 11.0215 23.936 10.8084 23.9116 10.5991C23.8895 10.4096 23.8567 10.2233 23.8259 10.0366C23.7929 9.8367 23.7615 9.63573 23.7188 9.43929C23.6778 9.25123 23.6264 9.06679 23.5768 8.88214C23.5235 8.68383 23.4737 8.48429 23.4107 8.29018C23.3522 8.11005 23.2819 7.9361 23.2152 7.75982C23.1472 7.58009 23.0825 7.3996 23.0063 7.22411C22.9236 7.03397 22.8304 6.84915 22.7384 6.66429C22.6585 6.50385 22.5814 6.34108 22.4946 6.18482C22.3918 5.99954 22.2774 5.82285 22.1652 5.64375C22.0771 5.50318 21.9936 5.35979 21.9 5.22321C21.7768 5.04362 21.6414 4.87326 21.5089 4.70089C21.4049 4.5655 21.3052 4.42717 21.1955 4.29643C21.078 4.15625 20.9523 4.0239 20.8286 3.88929C20.6937 3.74249 20.5607 3.59259 20.4187 3.45268C20.2926 3.3284 20.1565 3.21507 20.025 3.09643C19.8741 2.9603 19.7273 2.82039 19.5696 2.69196C19.4175 2.56807 19.2564 2.45484 19.0982 2.33839C18.9539 2.23217 18.8134 2.12214 18.6643 2.02232C18.505 1.91573 18.336 1.82137 18.1714 1.72232C18.0008 1.61965 17.8331 1.51126 17.6571 1.41696C17.5017 1.33365 17.3398 1.26318 17.1804 1.18661C17.0006 1.10031 16.8238 1.00961 16.6393 0.932143C16.4053 0.833938 16.1627 0.750483 15.9214 0.666964C15.7952 0.623249 15.6719 0.572613 15.5437 0.533036C15.3044 0.459139 15.058 0.404602 14.8125 0.345536C14.6733 0.312029 14.5384 0.269675 14.3973 0.241071C14.0987 0.180523 13.7928 0.139709 13.4866 0.101786C13.3993 0.0909747 13.3146 0.0705336 13.2268 0.0616071C13.225 0.0614287 13.2232 0.0617848 13.2214 0.0616071C12.8197 0.0209909 12.4124 2.49094e-09 12 5.68434e-14ZM12 0.715179L12.6348 2.19107L14.2232 2.30357L13.0366 3.35357L13.5723 4.75446C14.2555 4.05451 15.1899 3.64647 16.3098 3.52768C15.8875 4.15844 15.5543 4.80873 15.292 5.55268C15.9099 5.04951 16.6758 4.74762 17.5554 4.68482C17.0274 5.36318 16.5602 6.08495 16.2134 6.8625C16.1746 6.95009 16.0899 6.98002 15.9991 6.93482C14.7936 6.33646 13.4363 6 12 6C10.5637 6 9.20561 6.33606 8.00089 6.93482C7.9101 6.98002 7.8258 6.95009 7.78661 6.8625C7.44023 6.08495 6.97221 5.36318 6.44464 4.68482C7.32418 4.74722 8.0878 5.04911 8.70536 5.55268C8.44297 4.80913 8.11175 4.15884 7.69018 3.52768C8.80931 3.64647 9.74412 4.05451 10.4277 4.75446L10.9634 3.35357L9.77679 2.30357L11.3652 2.19107L12 0.715179ZM2.59018 5.86071C2.62408 5.84052 2.67067 5.84003 2.71607 5.87143C3.37282 6.327 3.83341 7.08398 3.975 7.93393C4.88854 7.34717 5.95753 7.26204 6.84107 7.62321C5.93073 8.26077 5.14594 9.06377 4.52679 9.98571C2.8009 9.38776 1.66821 11.1009 0.3375 10.7009C1.62861 9.33018 2.67808 7.7691 2.53929 5.97321C2.53509 5.92062 2.55628 5.88091 2.59018 5.86071ZM21.4098 5.86071C21.4438 5.88096 21.4649 5.9233 21.4607 5.97589C21.3219 7.77178 22.3714 9.33018 23.6625 10.7009C22.3318 11.1005 21.201 9.38775 19.4759 9.98571C18.8559 9.06297 18.0681 8.26265 17.1589 7.62589C18.0425 7.26432 19.1111 7.34717 20.025 7.93393C20.1662 7.08398 20.6268 6.32968 21.2839 5.87411C21.3291 5.84251 21.3759 5.84047 21.4098 5.86071ZM12 6.53839C13.1139 6.53839 14.0462 7.1682 14.2902 7.98214C14.309 8.04414 14.2849 8.08418 14.2125 8.05179C14.0141 7.96219 13.7851 7.91786 13.5375 7.91786C13.0831 7.91786 12.6818 8.08551 12.4446 8.37589C12.2999 8.85466 12.3078 9.39243 12.4821 9.81161C12.7437 9.78561 12.7225 9.32143 12.9429 9.32143C13.1252 9.32143 13.2114 9.45 13.5214 9.45C13.807 9.45 13.9216 9.36857 14.0464 9.27857C14.2968 9.31097 14.3545 9.5493 14.3545 9.82768C14.3545 11.0688 13.2131 12.7768 12 12.7768C10.7865 12.7768 9.64554 11.0688 9.64554 9.82768C9.64554 9.5493 9.68988 9.30268 9.92946 9.30268C10.1331 9.30268 10.169 9.45 10.4786 9.45C10.7885 9.45 10.9306 9.32143 11.1134 9.32143C11.2962 9.32143 11.3628 9.46425 11.55 9.50625C11.6684 9.22067 11.6602 8.72147 11.5554 8.37589C11.3186 8.08551 10.9169 7.91786 10.4625 7.91786C10.2149 7.91786 9.98789 7.96179 9.7875 8.05179C9.7155 8.08418 9.69102 8.04454 9.70982 7.98214C9.95421 7.1682 10.8861 6.53839 12 6.53839ZM10.2268 8.31696C10.682 8.31696 11.1385 8.59562 11.1161 8.85C10.6045 8.66121 10.1122 8.65084 9.87857 8.88482C9.76858 8.78523 9.73125 8.69457 9.73125 8.59018C9.73125 8.42859 9.89601 8.31696 10.2268 8.31696ZM13.7732 8.31696C14.1036 8.31696 14.2687 8.42899 14.2687 8.59018C14.2687 8.69457 14.2314 8.78483 14.1214 8.88482C13.915 8.65404 13.4888 8.6599 13.0045 8.82589C12.9757 8.7667 12.976 8.67924 12.9964 8.61964C13.1932 8.40046 13.506 8.31696 13.7732 8.31696ZM11.7214 10.3339C11.6266 10.3343 11.4427 10.4094 11.4027 10.4786C11.4055 10.5138 11.4199 10.5443 11.4455 10.5723C11.6583 10.6043 11.7532 10.7223 12 10.7223C12.2468 10.7223 12.344 10.6043 12.5571 10.5723C12.5819 10.5443 12.5945 10.5142 12.5973 10.4786C12.5577 10.4094 12.3738 10.3347 12.2786 10.3339C12.1786 10.3331 12.1456 10.3875 12 10.3875C11.854 10.3875 11.821 10.3335 11.7214 10.3339Z" fill="#006341"/></svg>
