<svg xmlns="http://www.w3.org/2000/svg" viewBox="0 0 168.82 58.53"><defs><style>.cls-2,.cls-3{fill-rule:evenodd}.cls-2{fill:#666464}.cls-3{fill:#fff}</style></defs><g id="图层_2" data-name="图层 2"><g id="图层_1-2" data-name="图层 1"><path d="M0 51.4v-2.26a82.47 82.47 0 0 0 58.53-9V51.4a7.15 7.15 0 0 1-7.13 7.13H7.13A7.15 7.15 0 0 1 0 51.4Z" style="fill-rule:evenodd;fill:#ec6800"/><path class="cls-2" d="M51.4 0H7.13A7.16 7.16 0 0 0 0 7.14v32.64c14.26 8.29 40.88 7.54 58.53-1.47V7.14A7.16 7.16 0 0 0 51.4 0Z"/><path class="cls-3" d="M32.88 24.72c-2.45 1.58-5 .73-5.09-2.06a10.22 10.22 0 0 1 0-1.11v-7h5.09V10H27.8V5.25h-.64A5 5 0 0 0 22.21 10v14a6.59 6.59 0 0 0 2.26 5 6.75 6.75 0 0 0 8.41.14ZM13.49 25.76c-2.49.94-8.89-1.12-9.78-1.58V29c.72.47 15.83 5.44 15.83-5.22 0-2.18-1.2-4.15-4-5.16-1.82-.69-3.79-1.13-5.58-1.8a1.51 1.51 0 0 1-1-1.62 1.48 1.48 0 0 1 1.45-1.31 25.16 25.16 0 0 1 7.8 1.19v-4.2C15.14 9.3 9 8.47 5.84 10.78a5.89 5.89 0 0 0-2.28 5.09 5.64 5.64 0 0 0 3.59 4.91c2.16.88 4.29 1.34 6.52 2.23a1.51 1.51 0 0 1-.18 2.75ZM44.67 25.7c-2.64 0-4.78-2.42-4.78-5.4s2.14-5.41 4.78-5.41 4.77 2.43 4.77 5.41-2.14 5.4-4.77 5.4Zm0-15.73A10.33 10.33 0 1 0 55 20.3 10.33 10.33 0 0 0 44.67 10ZM27.46 37.93h1l1.14-1.61 1.11 1.61h1l-1.59-2.37 1.56-2.11h-1.04l-1 1.46-1-1.46h-1l1.46 2.15-1.66 2.33Zm25.93-4.6a2.33 2.33 0 0 1 1.41.75l-.59.56a1.47 1.47 0 0 0-.9-.6c-.39-.07-1.17 0-1.17.52a.47.47 0 0 0 .31.44c.83.27 2.52.17 2.52 1.46a1.5 1.5 0 0 1-1.12 1.33 3.08 3.08 0 0 1-2.8-.61l.64-.52a1.69 1.69 0 0 0 1.31.54c.38 0 1-.15 1-.62s-.35-.45-.65-.5a9.49 9.49 0 0 1-1.2-.27 1.17 1.17 0 0 1-.88-1.11c0-1.06 1.33-1.48 2.18-1.37Zm-4.6 0a2.33 2.33 0 0 1 1.41.75l-.59.56a1.44 1.44 0 0 0-.9-.6c-.39-.07-1.17 0-1.17.52a.47.47 0 0 0 .31.44c.83.27 2.52.17 2.52 1.46a1.5 1.5 0 0 1-1.12 1.33 3.08 3.08 0 0 1-2.8-.61l.64-.52a1.69 1.69 0 0 0 1.29.54c.38 0 1-.15 1-.62s-.35-.45-.65-.5a9.49 9.49 0 0 1-1.2-.27 1.17 1.17 0 0 1-.88-1.11c0-1.06 1.33-1.48 2.18-1.37Zm-5.5 4.6a2.3 2.3 0 0 0 2.11-1.38h-1a1.36 1.36 0 0 1-1.11.58 1.45 1.45 0 0 1-1.4-1.26h3.7a2.09 2.09 0 0 0 0-.25 2.31 2.31 0 1 0-2.31 2.31Zm-1.36-2.72a1.39 1.39 0 0 1 2.72 0Zm-1.5-1a1.29 1.29 0 0 0-1.18 1.21v2.51h-.85v-4.48h.85v.65a1.64 1.64 0 0 1 1.19-.72v.83ZM35 37.93a2.31 2.31 0 1 0-1.46-4.09v-.39h-.85v5.84h.85v-1.88a2.28 2.28 0 0 0 1.46.52Zm0-.86a1.46 1.46 0 0 1-1.45-1.3v-.31A1.46 1.46 0 1 1 35 37.07Zm-10.37.86a2.32 2.32 0 0 0 2.12-1.38h-1a1.38 1.38 0 0 1-1.12.58 1.44 1.44 0 0 1-1.39-1.26h3.66a2.09 2.09 0 0 0 0-.25 2.31 2.31 0 1 0-2.31 2.31Zm-1.36-2.72a1.39 1.39 0 0 1 2.72 0Z"/><path class="cls-2" d="M85.57 49.18h3L92 44.33l3.31 4.85h3.09l-4.76-7.11 4.67-6.36H95.1l-3 4.41-2.9-4.41h-3.05l4.4 6.47-5 7Zm59.58-33.9h2.9v8.32a1.48 1.48 0 0 0 0 .21L146 25.87a1.86 1.86 0 0 0 0 2.63l.49.49 2.43-2.44a5.26 5.26 0 0 0 .7.86 5.61 5.61 0 0 0 3.82 1.59h13.84a1.8 1.8 0 0 0 1.54-1.77v-.79h-15.38a2.85 2.85 0 0 1-2.82-2.83V14.5a1.79 1.79 0 0 0-1.79-1.78h-2a1.73 1.73 0 0 0-1.73 1.72v.84ZM165 21.75v-1.88h-3.6v5h-2.66v-3.23a12.33 12.33 0 0 1-5.94 3.06v-2.44a12.54 12.54 0 0 0 4.35-2.39h-2.87a1.87 1.87 0 0 1-1.85-1.74v-3.66a1.86 1.86 0 0 1 1.86-1.86h4.46v-2h-5.92v-.68a1.86 1.86 0 0 1 1.86-1.86h.87l-.64-1.55-.15-.35a.51.51 0 0 1 0-.13.4.4 0 0 1 .4-.39h2a.39.39 0 0 1 .37.25v.09l.22.53.14.34.5 1.21h3.38l.64-1.6.22-.55a.39.39 0 0 1 .35-.22h1.89a.39.39 0 0 1 .39.39.51.51 0 0 1 0 .13l-.37.91-.39 1h1.11a1.85 1.85 0 0 1 1.85 1.77v3.6a1.85 1.85 0 0 1-1.84 1.66h-4.23v2.16h4.45a1.86 1.86 0 0 1 1.85 1.74V23a1.86 1.86 0 0 1-1.7 1.85h-2.62v-1.97a.39.39 0 0 1 .37-.39h.95a.38.38 0 0 0 .32-.27v-.47ZM145.14 6.93 147 9.51l.5.7a1.87 1.87 0 0 0 2.59.45l.36-.26.21-.15L148.3 7a1.86 1.86 0 0 0-2.59-.45l-.57.4ZM126.56 29a12.25 12.25 0 0 0 5.73-3.25 9.64 9.64 0 0 0 1.92-2.8 12.56 12.56 0 0 0 2 2.63 12.18 12.18 0 0 0 6.37 3.38v-2.82a9.41 9.41 0 0 1-4.45-2.51 9.55 9.55 0 0 1-2.35-3.88h7v-.69a1.87 1.87 0 0 0-1.86-1.86v-6.69a1.87 1.87 0 0 0-1.86-1.83h-3.79V5.31h-.91a1.86 1.86 0 0 0-1.86 1.86v1.48h-2.26a1.87 1.87 0 0 0-1.86 1.86v.7h4.12v6h-4a1.87 1.87 0 0 0-1.86 1.86v.69h5.76a8.8 8.8 0 0 1-2.07 4.05 9.46 9.46 0 0 1-3.8 2.34V29Zm32.18-11.65h-3.66v-2.19h3.66v2.16Zm6-4.71v-2h-3.34v2ZM121 20.39V11h-.51a1.86 1.86 0 0 0-1.86 1.86v7.89H121v-.32Zm7.22-7v1.94a1.8 1.8 0 0 1-1.79 1.79h-.54v-5.54h.54a1.79 1.79 0 0 1 1.79 1.78Zm10 3.83h-3v-6h3v6Zm-16.16-10V29h2.66V5.31H124a1.85 1.85 0 0 0-1.85 1.86Zm-29.47-.29 1.82 2.58.49.7a1.87 1.87 0 0 0 2.59.45l.37-.26.2-.15L95.75 7a1.86 1.86 0 0 0-2.59-.45l-.57.4Zm11.32 3 .77 1.09h-3a1.89 1.89 0 0 0-1.85 1.89V23a1.84 1.84 0 0 0 1.25 1.73 3.83 3.83 0 0 0 1.39.1v-4.12h3.65v4.12h2.67v-4.12h3.63v1a3.12 3.12 0 0 1 0 .49.38.38 0 0 1-.3.25h-1a.38.38 0 0 0-.35.38v1.94h2.62a1.87 1.87 0 0 0 1.7-1.85V12.87A1.9 1.9 0 0 0 113.3 11h-1.78l3-2.35h.16a.64.64 0 0 0 .07-.27V8a1.82 1.82 0 0 0-1.82-1.83h-11A1.83 1.83 0 0 0 100.12 8h11c-1.1.88-2.23 1.7-3.37 2.53l-.73-1a1.87 1.87 0 0 0-2.59-.44l-.57.4Zm2.25 3.36v1.92h-3.65v-1.95Zm0 3.72v1.89h-3.65V17Zm2.67 1.92V17h3.63v1.9Zm0-3.72v-1.95h3.63v1.92Zm-16.23.1v-.84a1.73 1.73 0 0 1 1.72-1.72h2a1.78 1.78 0 0 1 1.78 1.78v9.1a2.87 2.87 0 0 0 2.83 2.83h15.38v.79a1.78 1.78 0 0 1-.44 1.17 1.8 1.8 0 0 1-1.1.6h-13.88a5.59 5.59 0 0 1-3.81-1.58 4.79 4.79 0 0 1-.7-.86L93.94 29l-.49-.49a1.87 1.87 0 0 1 0-2.63l2-2.06v-8.54Zm-3 7.39a1.81 1.81 0 0 1-1.8 1.81H87V23h-5.72v6h-2.77l-.05-6h-5.69v1.53h-.87a1.81 1.81 0 0 1-1.8-1.8V10.3a1.8 1.8 0 0 1 1.79-1.8h6.56V7.11a1.81 1.81 0 0 1 1.8-1.8h1v3.14h6.55a1.81 1.81 0 0 1 1.8 1.8v12.42ZM87 11h-5.72v3.45H87V11Zm-8.5 0h-5.73v3.45h5.69V11Zm0 6h-5.73v3.4h5.69V17Zm8.5 3.4V17h-5.72v3.4Zm76.41 15a6.91 6.91 0 0 1 4.24 2.25l-1.77 1.65a4.47 4.47 0 0 0-2.72-1.77c-1.15-.23-3.49-.06-3.49 1.56a1.39 1.39 0 0 0 .92 1.31c2.48.82 7.56.5 7.56 4.39a4.48 4.48 0 0 1-3.35 4 9.22 9.22 0 0 1-8.42-1.82l1.94-1.58a5.06 5.06 0 0 0 3.84 1.61c1.13 0 2.87-.45 2.87-1.87 0-1.18-1.06-1.33-1.94-1.49a27.88 27.88 0 0 1-3.61-.82 3.5 3.5 0 0 1-2.65-3.33c0-3.18 4-4.44 6.55-4.09Zm-13.8 0a6.91 6.91 0 0 1 4.24 2.25l-1.77 1.65a4.53 4.53 0 0 0-2.72-1.77c-1.15-.23-3.5-.06-3.5 1.56a1.4 1.4 0 0 0 .93 1.31c2.48.82 7.56.5 7.56 4.39a4.48 4.48 0 0 1-3.35 4 9.25 9.25 0 0 1-8.43-1.82l2-1.58a5 5 0 0 0 3.79 1.61c1.13 0 2.87-.45 2.87-1.87 0-1.18-1.06-1.33-1.94-1.49a28 28 0 0 1-3.62-.82 3.51 3.51 0 0 1-2.67-3.35c0-3.18 4-4.44 6.56-4.09Zm-16.54 13.77a7 7 0 0 0 6.35-4.17h-3a4.14 4.14 0 0 1-3.34 1.75 4.35 4.35 0 0 1-4.2-3.75H140a6.28 6.28 0 0 0 0-.75 6.94 6.94 0 1 0-6.93 6.93ZM129 41a4.17 4.17 0 0 1 8.17 0Zm-4.49-3a3.88 3.88 0 0 0-3.55 3.62v7.55h-2.56V35.71h2.56v2a4.85 4.85 0 0 1 3.56-2.14V38Zm-16.37 11.18a6.93 6.93 0 1 0-4.38-12.29v-1.18h-2.56v17.53h2.56v-5.62a6.92 6.92 0 0 0 4.38 1.56Zm0-2.58a4.37 4.37 0 0 1-4.35-3.91v-.93a4.37 4.37 0 1 1 4.35 4.84ZM77 49.17A7 7 0 0 0 83.34 45h-3A4.12 4.12 0 0 1 77 46.78 4.34 4.34 0 0 1 72.81 43h11.08v-.75A6.94 6.94 0 1 0 77 49.17ZM72.9 41a4.18 4.18 0 0 1 8.18 0Z"/><path class="cls-3" d="M0 39.78v9.37a82.6 82.6 0 0 0 58.52-9v-1.84C40.87 47.32 14.26 48.07 0 39.78Z"/></g></g></svg>