<svg width="108" height="108" xmlns="http://www.w3.org/2000/svg"><defs><linearGradient x1="100%" y1="50%" x2="0%" y2="50%" id="a"><stop stop-color="#93EEFE" offset="0%"/><stop stop-color="#A1FCC6" offset="100%"/></linearGradient><linearGradient x1="100%" y1="50%" x2="0%" y2="50%" id="b"><stop stop-color="#93EEFE" offset="0%"/><stop stop-color="#A1FCC6" offset="100%"/></linearGradient></defs><g fill-rule="nonzero" fill="none"><path fill="#121212" d="M0 54v54h108V0H0z"/><path d="M57.718 39.212c3.4-10.3-6.5-20.6-16.8-17.5-2.6.8-6.4 3.8-11.8 9.2l-7.9 8 2.2 2.2 2.2 2.2 7.8-7.7c6.4-6.4 8.3-7.7 11-7.7 7.2 0 9.7 8.2 4.2 13.5l-3 2.9 2.2 2.3 2.2 2.3 3.3-3.2c1.8-1.7 3.8-4.7 4.4-6.5Z" fill="url(#a)" transform="matrix(-1 0 0 1 79.618 0)"/><path d="M49.4 48.108 43.6 54l2.9 3 2.9 3-2.2 2.2-2.2 2.3-5.2-5.3-5.3-5.2 5-5c2.7-2.7 5.2-5 5.6-5 .2 0 1.633 1.37 4.3 4.108ZM58.4 48.108 64.2 54l-2.9 3-2.9 3 2.2 2.2 2.2 2.3 5.2-5.3 5.3-5.2-5-5c-2.7-2.7-5.2-5-5.6-5-.2 0-1.633 1.37-4.3 4.108Z" fill-opacity=".96" fill="#FFF"/><path d="M31 79.06c-3.5-4-3.9-8.4-1-11.3 3.1-3.1 8-2.6 11.5 1l2.9 3 2.3-2.2 2.3-2.2-3.2-3.3c-6.2-6.4-14.3-6.8-20.2-.8-6 5.9-5.7 13.6.7 20.2l3.1 3.3 2.3-2.2 2.2-2.1-2.9-3.4Z" fill="url(#b)" transform="matrix(1 0 0 -1 0 145.76)"/><path d="M68.708 41.212c-3.5-4-3.9-8.4-1-11.3 3.1-3.1 8-2.6 11.5 1l2.9 3 2.3-2.2 2.3-2.2-3.2-3.3c-6.2-6.4-14.3-6.8-20.2-.8-6 5.9-5.7 13.6.7 20.2l3.1 3.3 2.3-2.2 2.2-2.1-2.9-3.4Z" fill="url(#b)" transform="matrix(-1 0 0 1 145.708 0)"/><path d="M86.1 77.06c3.4-10.3-6.5-20.6-16.8-17.5-2.6.8-6.4 3.8-11.8 9.2l-7.9 8 2.2 2.2 2.2 2.2 7.8-7.7c6.4-6.4 8.3-7.7 11-7.7 7.2 0 9.7 8.2 4.2 13.5l-3 2.9 2.2 2.3 2.2 2.3 3.3-3.2c1.8-1.7 3.8-4.7 4.4-6.5Z" fill="url(#a)" transform="matrix(1 0 0 -1 0 145.76)"/></g></svg>