<svg viewBox="0 0 9 3" xmlns="http://www.w3.org/2000/svg"><g fill-rule="nonzero" fill="none"><path d="M3.203 1.534a.12.12 0 0 0 .046-.061c.012-.057 0-.11-.027-.134-.026-.022-.025-.022-.135-.023h-.1v.229l.1-.001c.097-.002.102-.002.116-.01m0 .489c.019-.005.042-.019.045-.027.001-.003.005-.005.007-.005.003 0 .009-.008.014-.018.008-.017.008-.023.008-.07V1.85l-.013-.02a.123.123 0 0 0-.028-.03l-.015-.01-.115-.003a2.773 2.773 0 0 0-.117 0c-.002 0-.003.055-.003.12v.12h.1a.799.799 0 0 0 .117-.004m-.585-.35V1.04h.318c.347 0 .386.002.443.02a.485.485 0 0 1 .115.056.42.42 0 0 1 .07.07.414.414 0 0 1 .05.102c.009.027.01.034.01.098 0 .045-.002.07-.004.073a.408.408 0 0 1-.052.102.622.622 0 0 1-.082.076l.015.009c.008.003.018.01.023.014l.022.018c.03.024.073.075.08.097a.373.373 0 0 1 .031.11.579.579 0 0 1-.006.127.657.657 0 0 1-.038.11.34.34 0 0 1-.146.136.27.27 0 0 1-.095.034c-.042.012-.075.014-.417.014h-.337v-.633Zm4.212.453v-.183l-.032-.01A.529.529 0 0 1 6.7 1.89a.421.421 0 0 1-.158-.153.575.575 0 0 1-.032-.095 2.722 2.722 0 0 1-.005-.313v-.29h.368v.25c0 .258.002.287.014.302.013.016.05.037.072.043a.336.336 0 0 0 .107.002.119.119 0 0 0 .083-.063c.006-.013.006-.025.007-.13 0-.064.001-.132.003-.15a.464.464 0 0 1 .03-.12.372.372 0 0 1 .059-.077.146.146 0 0 0 .022-.015.198.198 0 0 1 .075-.035l.04-.009c.021-.004.055-.005.18-.005h.155v-.08c0-.078.002-.09.01-.074.003.004.01.01.018.015a.285.285 0 0 1 .035.028.24.24 0 0 0 .033.027.05.05 0 0 1 .014.01.207.207 0 0 0 .051.041c0 .002.022.02.047.042a.673.673 0 0 1 .065.055c.003 0 .015.01.028.021a.417.417 0 0 0 .032.026.17.17 0 0 1 .046.046c0 .006-.03.036-.052.05a1.654 1.654 0 0 0-.13.109.273.273 0 0 0-.031.025.122.122 0 0 1-.025.02.128.128 0 0 0-.025.02.336.336 0 0 1-.032.028 1.96 1.96 0 0 1-.073.06l-.009.007-.001-.08-.001-.082-.09.001a.337.337 0 0 0-.096.006.717.717 0 0 0-.007.141c-.003.164-.003.165-.043.248a.203.203 0 0 1-.024.04 8.55 8.55 0 0 1-.03.034.113.113 0 0 1-.026.024c-.002 0-.01.005-.017.012a.237.237 0 0 1-.057.04.602.602 0 0 1-.099.043l-.026.007-.002.365H6.83v-.182Zm-.79-.6c0-.115 0-.124-.007-.143-.01-.025-.02-.035-.049-.048a.222.222 0 0 0-.166.002c-.028.013-.033.018-.044.042l-.01.02v.249h.276v-.122Zm-.65.779a34.879 34.879 0 0 1 0-.48c.001-.436.002-.478.007-.5a.548.548 0 0 1 .027-.08l.012-.024a.141.141 0 0 1 .014-.024.185.185 0 0 0 .029-.039.942.942 0 0 0 .048-.045.088.088 0 0 1 .021-.016.589.589 0 0 1 .229-.088c.044-.007.158-.01.205-.005a.597.597 0 0 1 .178.043.28.28 0 0 1 .067.034.416.416 0 0 1 .12.11c.022.024.046.08.06.137.006.027.006.054.006.504v.476h-.372l-.002-.366h-.274l-.002.366h-.186c-.149.001-.185 0-.186-.003m-1.253.022a.595.595 0 0 1-.133-.03.356.356 0 0 1-.194-.137.186.186 0 0 1-.038-.07.38.38 0 0 1-.024-.078c-.005-.024-.006-.072-.007-.5L3.74 1.04h.375v.448c0 .405.001.45.006.466.009.026.019.035.05.044.054.016.117.003.14-.028l.01-.016.002-.914h.372v.448c0 .495-.001.469.022.491.019.017.042.024.082.024.024 0 .04-.002.055-.007.023-.007.03-.014.041-.036.007-.013.007-.027.007-.467V1.04h.375v.466c0 .405 0 .47-.005.496a.38.38 0 0 1-.034.102.112.112 0 0 0-.01.025.02.02 0 0 1-.005.01c-.002.002-.01.01-.015.018a.41.41 0 0 1-.068.073.44.44 0 0 1-.097.058l-.037.013a.612.612 0 0 1-.245.026.651.651 0 0 1-.16-.04.335.335 0 0 1-.073-.042c-.012-.011-.022-.012-.037-.003-.008.004-.015.01-.015.01a.307.307 0 0 1-.102.05.59.59 0 0 1-.237.025m-2.257.002a.775.775 0 0 1-.135-.033.338.338 0 0 1-.1-.048.084.084 0 0 0-.017-.01.456.456 0 0 1-.105-.11.106.106 0 0 0-.01-.021.372.372 0 0 1-.032-.078c-.005-.016-.006-.072-.007-.503V1.04h.371v.897l.008.015c.013.026.021.034.051.049l.028.013h.05c.051 0 .082-.006.094-.018a.016.016 0 0 1 .01-.005c.006 0 .03-.026.034-.038.003-.005.004-.182.004-.46V1.04H2.5v.946l-.009.032a.296.296 0 0 1-.067.14.433.433 0 0 1-.196.135.562.562 0 0 1-.142.036 1.05 1.05 0 0 1-.205 0m-1.415.12c-.005-.006-.01-.011-.013-.011a.112.112 0 0 1-.025-.02.313.313 0 0 0-.036-.03.212.212 0 0 1-.026-.02A4.322 4.322 0 0 1 .3 2.313l-.03-.026-.027-.022a.262.262 0 0 1-.024-.022C.217 2.24.213 2.238.21 2.238a.16.16 0 0 1-.032-.025.233.233 0 0 0-.03-.025.171.171 0 0 1-.025-.022L.1 2.146l.02-.02a.404.404 0 0 1 .054-.044.933.933 0 0 1 .044-.037.67.67 0 0 0 .063-.054.23.23 0 0 0 .04-.033l.018-.014a.395.395 0 0 0 .037-.03.197.197 0 0 1 .031-.025.042.042 0 0 0 .014-.01.212.212 0 0 1 .047-.038c.002 0 .004-.001.004-.004 0-.002.002-.003.005-.003.005 0 .006.011.006.078v.078l.066.002c.151.006.454.007.457.003a.012.012 0 0 1 .008-.004c.004 0 .01-.006.015-.013.012-.018.012-.041 0-.063-.013-.022-.026-.029-.173-.1a1.83 1.83 0 0 0-.066-.03.683.683 0 0 1-.049-.024.84.84 0 0 1-.128-.074A.57.57 0 0 1 .52 1.6l-.013-.02a.253.253 0 0 1-.035-.072l-.009-.045a.432.432 0 0 1 .009-.182c0-.016.038-.088.047-.088.001 0 .003-.002.003-.006 0-.007.049-.055.075-.074a.428.428 0 0 1 .054-.03c.091-.043.107-.045.384-.044l.26.004.043.002v.15l.001.15-.236-.002a8.265 8.265 0 0 0-.247 0 .063.063 0 0 0-.024.012c-.011.009-.011.01-.011.035 0 .023 0 .027.01.037a.117.117 0 0 0 .026.019l.052.027a.34.34 0 0 0 .047.023.08.08 0 0 1 .02.01 1.121 1.121 0 0 1 .104.05.1.1 0 0 0 .026.01c.003 0 .006.001.006.003s.002.004.005.004.006 0 .006.003c.002.004.03.018.036.018.003 0 .013.006.023.013.01.007.02.012.022.012l.015.01a.153.153 0 0 0 .026.017c.007.003.017.01.024.016.022.02.029.025.036.029a.138.138 0 0 1 .024.026.33.33 0 0 0 .021.025.168.168 0 0 1 .023.037.42.42 0 0 1-.008.343.419.419 0 0 1-.092.104c-.007.007-.014.012-.017.012a.112.112 0 0 0-.033.017.157.157 0 0 1-.023.011.485.485 0 0 1-.134.032 1.049 1.049 0 0 1-.168.005c0-.002-.058-.004-.19-.005H.5l-.016-.001-.001.081c-.001.087-.002.091-.018.07" fill="#FFCB08"/><path d="M6.83 2.124V1.94l-.017-.005a.597.597 0 0 1-.112-.046.041.041 0 0 1-.016-.009.327.327 0 0 0-.028-.02.386.386 0 0 1-.119-.137.483.483 0 0 1-.03-.102 8.082 8.082 0 0 1-.003-.303v-.28l.183.001.183.002.001.262c.002.184.004.266.007.275a.133.133 0 0 0 .045.045c.015.01.06.02.086.02.053 0 .102-.017.123-.042.025-.03.024-.023.026-.185l.005-.157a.306.306 0 0 1 .057-.13.25.25 0 0 1 .14-.085.99.99 0 0 1 .218-.012h.144v-.08c0-.075 0-.079.007-.071a.107.107 0 0 0 .02.016.32.32 0 0 1 .035.03c.012.01.023.02.025.02.001 0 .015.01.03.025a.19.19 0 0 0 .03.025.887.887 0 0 0 .063.052 2.25 2.25 0 0 1 .113.094.13.13 0 0 1 .03.023l.024.024-.02.018a2.983 2.983 0 0 0-.167.14.153.153 0 0 0-.024.02.3.3 0 0 1-.034.027.364.364 0 0 0-.034.028.133.133 0 0 1-.024.02.19.19 0 0 0-.03.026.165.165 0 0 1-.032.025c-.003 0-.005.001-.005.003s-.001.004-.003.004a.36.36 0 0 1-.005-.078v-.077l-.082-.002c-.09 0-.108.002-.111.015a1.692 1.692 0 0 0-.002.11.8.8 0 0 1-.013.193.48.48 0 0 1-.047.105.552.552 0 0 1-.087.09.791.791 0 0 1-.15.075l-.029.01v.364H6.83v-.183Zm-.786-.596v-.12l-.01-.024c-.01-.03-.016-.035-.051-.051a.134.134 0 0 0-.066-.014.2.2 0 0 0-.101.016c-.027.013-.032.017-.043.04l-.01.02-.001.126-.001.126h.282v-.119Zm-.651.308c0-.525-.002-.495.025-.569a.232.232 0 0 1 .047-.084.088.088 0 0 0 .013-.02c0-.002.01-.012.022-.023a9.119 9.119 0 0 0 .052-.043.06.06 0 0 0 .018-.01.347.347 0 0 1 .097-.045.717.717 0 0 1 .437-.01l.047.013a.336.336 0 0 1 .079.04l.023.014a.12.12 0 0 1 .027.02l.027.024a.13.13 0 0 1 .023.027.391.391 0 0 1 .076.17c.005.027.006.092.006.498v.468h-.368V1.94H5.76v.365h-.368v-.47Zm-1.28.486a.594.594 0 0 1-.2-.068.202.202 0 0 0-.025-.016.271.271 0 0 1-.03-.027.326.326 0 0 1-.091-.145c-.023-.069-.023-.05-.023-.561V1.04h.185c.144 0 .184.001.184.004v.452c.001.43.001.447.008.463.008.017.02.032.026.032a.169.169 0 0 0 .094.015c.044-.006.073-.026.083-.058.002-.008.003-.181.003-.46V1.04h.182c.163 0 .183 0 .184.006.001.003.003.207.003.453 0 .427 0 .448.006.462.004.008.011.018.016.022.025.024.094.031.137.015.026-.01.028-.011.04-.031l.01-.017.001-.454.002-.454.37-.002v.473c-.002.432-.002.475-.008.498a.42.42 0 0 1-.042.113.406.406 0 0 1-.116.124l-.037.024a.14.14 0 0 1-.027.012.621.621 0 0 1-.118.034.842.842 0 0 1-.217 0 .6.6 0 0 1-.186-.076.055.055 0 0 0-.01-.007c-.008-.005-.018-.001-.051.022a.309.309 0 0 1-.029.018.627.627 0 0 1-.146.046.785.785 0 0 1-.178.001" fill="#009743"/></g></svg>