<?xml version="1.0" encoding="UTF-8"?>
<svg viewBox="0 0 9 3" version="1.1" xmlns="http://www.w3.org/2000/svg" xmlns:xlink="http://www.w3.org/1999/xlink">
    <title>subway</title>
    <g id="Page-1" stroke="none" stroke-width="1" fill="none" fill-rule="evenodd">
        <g id="subway" transform="translate(0.100000, 0.872424)" fill-rule="nonzero">
            <path d="M3.10338289,0.661842412 C3.12055016,0.652538204 3.14485993,0.619998763 3.14880411,0.600328455 C3.16059871,0.54384585 3.149866,0.489840996 3.12196602,0.466618403 C3.09624039,0.444799026 3.09694832,0.444799026 2.98718143,0.443711849 L2.88632686,0.442637314 L2.88632686,0.67219587 L2.98718143,0.671133977 C3.08406655,0.670059442 3.08870601,0.669705478 3.10338289,0.661842412 M3.10338289,1.15027536 C3.1216247,1.1456359 3.14522654,1.13167959 3.14842486,1.12382916 C3.14949939,1.12097216 3.152723,1.11881045 3.15523867,1.11881045 C3.15772907,1.11881045 3.16380967,1.11059342 3.16882838,1.10022732 C3.17666616,1.08340137 3.17739937,1.07734605 3.17739937,1.02977577 L3.17739937,0.977578657 L3.16418892,0.95718778 C3.15702114,0.946101109 3.144152,0.93215744 3.13590969,0.926810049 L3.12091677,0.916797913 L3.00610589,0.915002808 C2.94317607,0.913928273 2.89028368,0.913561667 2.88882989,0.914269596 C2.8874014,0.915002808 2.8859729,0.969361627 2.8859729,1.03479447 L2.8859729,1.15421954 L2.98644822,1.15421954 C3.0511605,1.15458614 3.09265018,1.15313236 3.10338289,1.15027536 M2.51767294,0.800571174 L2.51767294,0.167670183 L2.83554561,0.167670183 C3.18311337,0.167670183 3.22174606,0.169452646 3.2793032,0.187694454 C3.3164821,0.199476412 3.36620146,0.223811465 3.39444276,0.243823095 C3.41483364,0.258499976 3.4420004,0.284958815 3.46489432,0.312833512 C3.47813006,0.328572286 3.50314775,0.380782035 3.51388046,0.415116582 C3.52281806,0.44300392 3.52352599,0.449438488 3.52352599,0.513088872 C3.52352599,0.558497448 3.52245146,0.583173823 3.51996106,0.586397428 C3.51779935,0.589254426 3.51388046,0.597838063 3.51137743,0.605334523 C3.50637136,0.620719333 3.48563916,0.661134483 3.47524778,0.675773439 C3.47167021,0.681146113 3.46845924,0.686518787 3.46845924,0.687934645 C3.46845924,0.690425037 3.41159739,0.746932925 3.40874039,0.746932925 C3.40588339,0.746932925 3.38621309,0.7626717 3.38621309,0.764820769 C3.38621309,0.765870021 3.3926603,0.769826837 3.40087733,0.773404406 C3.40874039,0.776994616 3.41913178,0.783416542 3.42377124,0.787348075 C3.4284107,0.791279608 3.43843548,0.799850603 3.44593194,0.805577242 C3.47634759,0.829179082 3.51924049,0.880680903 3.52602903,0.902121032 C3.52853206,0.909984098 3.53176831,0.917859806 3.53317152,0.920008876 C3.53926477,0.927871942 3.55464958,0.986149653 3.55713997,1.01119263 C3.56035093,1.04409868 3.55713997,1.11345042 3.55105936,1.13990926 C3.54391687,1.17138681 3.52211013,1.23324209 3.51280593,1.25003011 C3.5017319,1.26934646 3.47989988,1.29974947 3.47025435,1.309395 C3.43805623,1.34158048 3.41734931,1.35874775 3.40087733,1.36768535 C3.39015726,1.37341199 3.37478509,1.38164166 3.36690939,1.38592716 C3.33760619,1.40165329 3.30399221,1.415243 3.29433404,1.415243 C3.28896137,1.415243 3.27893659,1.41705074 3.27217334,1.41917453 C3.22996309,1.43204367 3.197411,1.4331182 2.85486195,1.4331182 L2.5180269,1.4331182 L2.51767294,0.800571174 Z M6.72989988,1.25325372 L6.72989988,1.07020356 L6.69770176,1.05981217 C6.68020581,1.05409818 6.6515979,1.04265754 6.63478459,1.0340739 C6.61761731,1.02549027 6.60225779,1.01834777 6.60010872,1.01834777 C6.59509001,1.01834777 6.55898564,0.992963467 6.52752073,0.967579163 C6.50249039,0.947175644 6.47673948,0.917859806 6.4563486,0.886028293 C6.45063461,0.877090692 6.44420004,0.86814045 6.44205097,0.865650057 C6.43739887,0.860643989 6.4177412,0.801999673 6.41021946,0.770901372 C6.40558,0.751585029 6.40487207,0.703306813 6.40487207,0.45766816 L6.40487207,0.16732886 L6.77315939,0.16732886 L6.77315939,0.418327545 C6.77315939,0.675773439 6.77458788,0.704406631 6.78746966,0.719778799 C6.80033879,0.735125684 6.83717638,0.756945061 6.85899575,0.762305094 C6.88510063,0.768385696 6.94231644,0.769460231 6.96590564,0.764087557 C7.00379248,0.755516562 7.03527002,0.731914721 7.04885973,0.701890955 C7.05494033,0.689021821 7.05528165,0.676127403 7.0556609,0.571366582 C7.0556609,0.507349592 7.05745601,0.439780316 7.05925111,0.421197185 C7.06317,0.382564499 7.07710103,0.327864357 7.08927488,0.301405518 C7.09749191,0.283530316 7.14290049,0.224519394 7.14790655,0.224519394 C7.14934769,0.224519394 7.15935983,0.217718221 7.17009254,0.209867796 C7.19331513,0.192333916 7.22301021,0.178048924 7.24481695,0.174092108 C7.25374191,0.172676251 7.27232504,0.168744717 7.28591475,0.165887719 C7.30631826,0.161576938 7.34027356,0.160502403 7.46542526,0.160161081 L7.6198928,0.160161081 L7.6198928,0.0800639932 C7.6198928,0.00211597544 7.6216879,-0.0100578716 7.63061286,0.00638883143 C7.63277458,0.0103330062 7.64028368,0.0171215377 7.64779278,0.0214196769 C7.65531452,0.0257178161 7.6710533,0.0389409148 7.68318922,0.0500402271 C7.69535042,0.0611016146 7.71001466,0.0729214973 7.71609527,0.0761198185 C7.72216323,0.0793434229 7.72825647,0.0839955264 7.73005158,0.086511202 C7.735045,0.0943489852 7.77188258,0.12476464 7.77652205,0.12476464 C7.77903772,0.12476464 7.78117415,0.126180498 7.78117415,0.127962962 C7.78117415,0.129745425 7.80263956,0.148366481 7.82836519,0.169452646 C7.85448271,0.190551453 7.87880512,0.211650259 7.88239533,0.216289721 C7.88592233,0.220954467 7.89095368,0.224860717 7.89345672,0.224860717 C7.89597239,0.224860717 7.90810831,0.234164924 7.92099009,0.245605559 C7.93385922,0.257071477 7.94781553,0.268866077 7.95279632,0.272064398 C7.96925566,0.282455781 7.99929207,0.311771619 7.99929207,0.317485615 C7.99929207,0.323932824 7.9689017,0.353248662 7.94744893,0.367546295 C7.93957322,0.372906327 7.92992769,0.380428071 7.92599616,0.384713568 C7.92205198,0.389011708 7.89952468,0.407948803 7.87592284,0.427619111 C7.852321,0.446922812 7.83158879,0.464456691 7.82943972,0.466618403 C7.82731594,0.468742189 7.8215893,0.473381651 7.81657059,0.476263933 C7.81121056,0.479487537 7.7976335,0.49091553 7.78582625,0.502014843 C7.77400637,0.513088872 7.76293234,0.521659867 7.76116252,0.521659867 C7.75936742,0.521659867 7.7482681,0.530597468 7.73648614,0.541684139 C7.7246789,0.552783451 7.71001466,0.565285979 7.70393406,0.569230154 C7.69785346,0.573161687 7.68069883,0.587105357 7.66638855,0.59925392 C7.65209092,0.611415126 7.63599818,0.625004831 7.63099211,0.628923722 L7.62206715,0.636458107 L7.62096733,0.55564045 L7.6198928,0.474822792 L7.52907565,0.475897327 C7.46043184,0.476630539 7.43683,0.478046396 7.43360639,0.481611323 C7.43002882,0.485201534 7.42860032,0.518082298 7.42681786,0.622855761 C7.42431483,0.78627354 7.42394822,0.787348075 7.38391232,0.870289519 C7.37640322,0.886028293 7.36565787,0.903903496 7.35994387,0.909984098 C7.35459648,0.916077343 7.34065281,0.931803475 7.32919953,0.944659968 C7.31774626,0.95790835 7.30631826,0.968628415 7.30416919,0.968628415 C7.30166616,0.968628415 7.29414442,0.974001089 7.28735589,0.980435656 C7.27198372,0.995112537 7.24659941,1.01260849 7.23014007,1.01976363 C7.2233389,1.02262063 7.20403519,1.03157087 7.18724717,1.03943394 C7.17043386,1.047297 7.14540352,1.05767574 7.13111853,1.06231521 L7.10534233,1.07089884 L7.10321855,1.43563388 L6.91655289,1.4363418 L6.73026648,1.4363418 L6.72989988,1.25325372 Z M5.94001568,0.653246133 C5.94001568,0.538119212 5.93967435,0.529889539 5.93250657,0.510585838 C5.92356897,0.485909462 5.91321551,0.475897327 5.884241,0.463028192 C5.83560882,0.441929386 5.76444933,0.44228335 5.71832019,0.464102727 C5.69006624,0.477313184 5.68470621,0.482685858 5.67363218,0.506287699 L5.66469458,0.525958006 L5.66469458,0.775540834 L5.94001568,0.775540834 L5.94001568,0.653246133 Z M5.29068062,1.43241027 C5.28959345,1.4298946 5.28959345,1.21392574 5.28996005,0.952194353 C5.2910093,0.517007763 5.29174252,0.474822792 5.29745651,0.45192888 C5.30318315,0.428327039 5.31746814,0.386154709 5.3242946,0.372552363 C5.32606442,0.368987436 5.33142445,0.358254729 5.3360892,0.348242594 C5.34072866,0.338584422 5.34716323,0.327864357 5.35000758,0.324640753 C5.36109426,0.313212759 5.37862814,0.289244313 5.37862814,0.286045992 C5.37862814,0.284238245 5.38541667,0.277095749 5.39364634,0.270281934 C5.40186337,0.263493403 5.41688157,0.250270304 5.4265271,0.241320061 C5.43618528,0.23238246 5.44585609,0.224860717 5.44797987,0.224860717 C5.45012894,0.224860717 5.4612409,0.218438791 5.47265625,0.210563083 C5.51700293,0.180539317 5.59567152,0.152272731 5.6768305,0.13727981 C5.72083586,0.129404102 5.83453428,0.126180498 5.88245854,0.131907136 C5.94502174,0.139062274 6.0065357,0.153347266 6.03872118,0.168036789 C6.04692557,0.171968322 6.05659638,0.17482532 6.0597947,0.17482532 C6.06696248,0.17482532 6.11201709,0.197352626 6.12702265,0.208780619 C6.13309061,0.213078759 6.1438486,0.219879932 6.15100374,0.223457501 C6.1670712,0.231687173 6.22429966,0.284238245 6.23074686,0.29639945 C6.23322462,0.301405518 6.24074636,0.311417654 6.24752225,0.318926756 C6.26898766,0.34286992 6.29332271,0.399011202 6.30619185,0.455506449 C6.31262642,0.482685858 6.3129551,0.509144697 6.3129551,0.959690814 L6.3129551,1.43526727 L5.94109021,1.43526727 L5.93896642,1.06910374 L5.66469458,1.06910374 L5.66254551,1.43526727 L5.47729571,1.4363418 C5.32820085,1.43668313 5.29209648,1.43598784 5.29068062,1.43241027 M4.03772249,1.45457097 C3.99337581,1.44993151 3.95548898,1.44171448 3.90541566,1.42525513 C3.83926224,1.40380236 3.79741859,1.37947995 3.75309719,1.33658705 C3.73842031,1.32226413 3.72663835,1.31012821 3.72663835,1.309395 C3.72663835,1.30868707 3.71948321,1.29867494 3.71088693,1.2872343 C3.69265777,1.26326585 3.67656503,1.23467059 3.67656503,1.22608695 C3.67656503,1.22288863 3.67514917,1.21857785 3.67336671,1.21678274 C3.66906857,1.21213064 3.65618679,1.17138681 3.6490443,1.13990926 C3.64367162,1.11595346 3.64296369,1.06732127 3.64188916,0.64038964 L3.64081462,0.167670183 L4.01628236,0.167670183 L4.01628236,0.615713265 C4.01628236,1.02049684 4.01697765,1.06552617 4.02199636,1.08129023 C4.03056735,1.10738246 4.04095874,1.11630742 4.07239836,1.12562427 C4.12568265,1.14133776 4.18899171,1.12848127 4.21113977,1.09735768 L4.22187247,1.08198551 L4.22402154,0.16732886 L4.59588643,0.16732886 L4.59588643,0.615346659 C4.59588643,1.11022682 4.59482453,1.08413458 4.61841373,1.10667453 C4.63666818,1.12382916 4.66027002,1.13097166 4.699598,1.13097166 C4.7235538,1.13097166 4.73964654,1.12882259 4.75501871,1.12382916 C4.77826659,1.11630742 4.78576305,1.10987285 4.79612915,1.08806612 C4.80291768,1.07412245 4.80291768,1.06017878 4.80291768,0.620719333 L4.80291768,0.167670183 L5.17838542,0.167670183 L5.17838542,0.633942432 C5.17838542,1.03871337 5.17767749,1.10414621 5.17303803,1.1291892 C5.16622421,1.16566017 5.15300111,1.20535475 5.13905744,1.23109302 C5.13331816,1.24217969 5.12833738,1.25325372 5.12833738,1.256136 C5.12833738,1.258993 5.12618831,1.26326585 5.1240266,1.26613549 C5.12187753,1.26901778 5.11473503,1.27722216 5.10903368,1.28507259 C5.08863016,1.3126186 5.06003489,1.34372955 5.04142648,1.35767322 C5.00816646,1.38305752 4.96134203,1.41132411 4.94416212,1.41596357 C4.93809415,1.41737943 4.92129349,1.42313135 4.90664189,1.42813742 C4.8365443,1.4524219 4.7382054,1.46350857 4.66205249,1.45495022 C4.62164998,1.45063944 4.55119842,1.43420538 4.53045358,1.42488853 C4.52401901,1.42169021 4.51113724,1.4166715 4.50185831,1.4138145 C4.48470368,1.4081005 4.44177286,1.38376545 4.42927033,1.37269142 C4.4167678,1.36160475 4.40710963,1.36089682 4.39171218,1.36946782 C4.38384911,1.37376596 4.37741454,1.37878466 4.37741454,1.38020052 C4.37741454,1.38342413 4.32056533,1.41559696 4.31486398,1.41559696 C4.3105532,1.41559696 4.29195742,1.42239814 4.27549808,1.4298946 C4.22902761,1.4509934 4.11532919,1.46280064 4.03772249,1.45457097 M1.78141434,1.45635343 C1.73814219,1.45028547 1.69417476,1.43956541 1.64626315,1.42382663 C1.60262439,1.40917504 1.5869109,1.40165329 1.54683708,1.37519445 C1.53863269,1.36983442 1.53076962,1.36553628 1.52932848,1.36553628 C1.51753388,1.36553628 1.42385973,1.26756399 1.42385973,1.25503618 C1.42385973,1.25325372 1.41919498,1.24363347 1.41384759,1.23429134 C1.40345621,1.21714935 1.39238218,1.18998258 1.38201608,1.15635596 C1.37699737,1.14061719 1.37630208,1.08484251 1.37521491,0.653246133 L1.37414037,0.168036789 L1.74603054,0.168036789 L1.74603054,1.06409767 L1.75390625,1.07983644 C1.76711671,1.10594132 1.77534638,1.11380439 1.80501618,1.12810202 L1.83328277,1.14205833 L1.88333081,1.14205833 C1.93447866,1.14205833 1.96485639,1.13597773 1.9773842,1.12344992 C1.9798746,1.12097216 1.98416009,1.11881045 1.98702973,1.11881045 C1.99311034,1.11881045 2.01707878,1.09235161 2.02135164,1.08091098 C2.02351335,1.07556359 2.02494185,0.898556105 2.02494185,0.619998763 L2.02494185,0.167670183 L2.40004298,0.167670183 L2.40004298,1.11309646 L2.39110538,1.14526929 C2.38608667,1.16279053 2.38001871,1.18425594 2.377857,1.19211901 C2.37248432,1.2106895 2.34783323,1.25576939 2.33780845,1.26613549 C2.33351032,1.27043363 2.327455,1.27866331 2.32457271,1.28473127 C2.31744286,1.29830833 2.2573574,1.35408301 2.24017749,1.36302061 C2.23304763,1.36661082 2.22374343,1.37269142 2.21981189,1.37590238 C2.20944579,1.38483998 2.15187601,1.415243 2.14470823,1.415243 C2.14150991,1.415243 2.1336342,1.41737943 2.1275536,1.42024907 C2.09430623,1.43526727 2.04851841,1.44670791 1.98558859,1.45635343 C1.94234173,1.46317989 1.82791009,1.46280064 1.78141434,1.45635343 M0.365784284,1.5761451 C0.361144822,1.5704311 0.355430825,1.5654124 0.353269114,1.5654124 C0.351120044,1.5654124 0.339325445,1.55647479 0.327530845,1.54540077 C0.315723604,1.53431409 0.299997472,1.52144496 0.292121764,1.51642625 C0.284625303,1.51142018 0.272830704,1.50176201 0.266016889,1.49498612 C0.259240999,1.48818495 0.246725829,1.47746488 0.238496157,1.47103032 C0.230266485,1.46459575 0.213111853,1.4509934 0.200242718,1.44063994 C0.187727549,1.43024856 0.174137844,1.41882057 0.170206311,1.41559696 C0.166249494,1.412386 0.154113572,1.40238651 0.143380866,1.39377759 C0.132648159,1.38483998 0.121561489,1.37482785 0.119071096,1.37162953 C0.116555421,1.36803932 0.112623888,1.36518232 0.110108212,1.36518232 C0.10761782,1.36518232 0.0933201861,1.35408301 0.0779353762,1.34015198 C0.0625632079,1.32622095 0.0489735032,1.31514692 0.0475323625,1.31514692 C0.0461291464,1.31514692 0.0346632282,1.30547611 0.0225273058,1.29402283 L4.59898211e-16,1.27292403 L0.0200116303,1.25362032 C0.031098301,1.24324158 0.0461291464,1.23038509 0.053284284,1.22537902 C0.0604394215,1.22036031 0.0697183455,1.21321782 0.0736498786,1.20928628 C0.0775940534,1.20535475 0.0976056837,1.18854144 0.118337884,1.17209474 C0.139082727,1.15564803 0.160889462,1.1366983 0.166982706,1.13026373 C0.173063309,1.12382916 0.179497876,1.11845649 0.180913734,1.11845649 C0.184137338,1.11845649 0.219533778,1.08949462 0.221316242,1.08556308 C0.222049454,1.08413458 0.229887237,1.07770002 0.239204086,1.07126545 C0.248508293,1.06481824 0.264954996,1.05159514 0.276041667,1.04124168 C0.287103054,1.0308503 0.301072006,1.02011759 0.307139968,1.01690663 C0.31322057,1.01368303 0.319313815,1.00941017 0.320729672,1.00689449 C0.325394417,0.999385393 0.36328125,0.968628415 0.367920712,0.968628415 C0.370082423,0.968628415 0.371864887,0.967199916 0.371864887,0.965063488 C0.371864887,0.962914418 0.374380562,0.96149856 0.377237561,0.96149856 C0.381889664,0.96149856 0.382597593,0.972559948 0.382597593,1.03943394 L0.382597593,1.1173946 L0.44945894,1.11987235 C0.599994943,1.12525766 0.903228661,1.12704013 0.905719053,1.12274199 C0.907160194,1.12059292 0.911091727,1.11845649 0.914290049,1.11845649 C0.917513653,1.11845649 0.924314826,1.11237589 0.929320894,1.10522075 C0.941469458,1.08737083 0.941115494,1.06446428 0.928246359,1.04229093 C0.915731189,1.02083816 0.903228661,1.01368303 0.755903621,0.943244111 C0.728370247,0.930021012 0.698687803,0.916077343 0.689750202,0.912512416 C0.68079996,0.908922205 0.65935983,0.897835535 0.641471986,0.888177363 C0.623976032,0.878519191 0.60570894,0.869240268 0.601056837,0.867432521 C0.590362055,0.863159665 0.547797836,0.837408755 0.513096683,0.813806914 C0.488078985,0.797006246 0.428714098,0.742293463 0.420143103,0.727983188 C0.418360639,0.724772225 0.412267395,0.715834624 0.406894721,0.707604952 C0.390094053,0.682587254 0.37579642,0.652171598 0.372231493,0.635383573 C0.370423746,0.62643333 0.366492213,0.6064217 0.36328125,0.590670284 C0.353977043,0.544199814 0.357567253,0.435140854 0.368641282,0.422967007 C0.370423746,0.421197185 0.371864887,0.414749976 0.371864887,0.408682015 C0.371864887,0.392576635 0.410130967,0.321063184 0.418701962,0.321063184 C0.420484426,0.321063184 0.421925566,0.318206186 0.421925566,0.314287294 C0.421925566,0.307119515 0.470570388,0.259207905 0.497029227,0.240624774 C0.505966828,0.234164924 0.529922633,0.220954467 0.550654834,0.211296295 C0.642205198,0.16732886 0.658272654,0.165521113 0.935034891,0.166949612 C1.05482656,0.167670183 1.17211519,0.169111323 1.19535042,0.170527181 L1.23754804,0.173042857 L1.23826861,0.322858289 L1.23897654,0.472673722 L1.00298341,0.470878617 C0.873192253,0.469816724 0.761984223,0.469816724 0.755562298,0.470878617 C0.749456412,0.471953152 0.739090311,0.476971861 0.73230178,0.482344535 C0.720861145,0.491623459 0.72050718,0.4930646 0.72050718,0.517728334 C0.72050718,0.54097621 0.721215109,0.544199814 0.731227245,0.554199309 C0.736941242,0.560292553 0.748748483,0.568863548 0.756978155,0.573161687 C0.765207828,0.577459827 0.788784385,0.589949713 0.808821299,0.601061667 C0.82884557,0.612123055 0.850298341,0.622147832 0.85602498,0.623588973 C0.861751618,0.625004831 0.871043184,0.62930297 0.876403216,0.632867897 C0.88177589,0.63679943 0.887489887,0.639656429 0.88927235,0.639656429 C0.892129349,0.639656429 0.921824434,0.653966704 0.980443467,0.683282541 C0.991555421,0.689021821 1.00335002,0.693282035 1.00620702,0.693282035 C1.00941798,0.693282035 1.01192102,0.694735818 1.01192102,0.696872246 C1.01192102,0.698654709 1.01407008,0.700449814 1.01693972,0.700449814 C1.01979672,0.700449814 1.02265372,0.701511708 1.02300769,0.703306813 C1.02479015,0.707263629 1.05303145,0.721915227 1.05878337,0.721915227 C1.06164037,0.721915227 1.07199383,0.727629224 1.08235993,0.734430397 C1.09273867,0.741218929 1.10239684,0.746932925 1.10382534,0.746932925 C1.10525384,0.746932925 1.11240898,0.751585029 1.11919751,0.756945061 C1.12599869,0.7626717 1.13742668,0.769826837 1.14458182,0.773404406 C1.15173695,0.776615369 1.16246966,0.783757865 1.16855026,0.789130539 C1.19141889,0.809496133 1.19751214,0.814514843 1.20465463,0.818105053 C1.20859881,0.820241481 1.21968548,0.832036081 1.2289644,0.844197286 C1.23826861,0.856358492 1.24792678,0.86814045 1.25007585,0.869948196 C1.25542324,0.874954264 1.27331108,0.903195567 1.27331108,0.906773136 C1.27331108,0.908555599 1.27760922,0.920008876 1.28261529,0.93287801 C1.30440939,0.986149653 1.31194377,1.07304791 1.30013653,1.13918869 C1.29439725,1.17209474 1.27690129,1.22752809 1.26508141,1.24932218 C1.25364078,1.27077496 1.21466677,1.31940714 1.19930724,1.33158098 C1.1917855,1.33729498 1.17997826,1.34764844 1.17318972,1.35374168 C1.16640119,1.36016361 1.15890473,1.36518232 1.15638906,1.36518232 C1.15207828,1.36518232 1.12635265,1.37878466 1.12314169,1.38305752 C1.12205451,1.38413206 1.11167577,1.38913812 1.09989381,1.39377759 C1.08807393,1.39842969 1.07701254,1.40343576 1.07485083,1.40451029 C1.06627983,1.41024957 1.01049252,1.4213236 0.965791869,1.42598835 C0.908955299,1.43167706 0.797734628,1.43492595 0.797734628,1.43062781 C0.797734628,1.42813742 0.739810882,1.42669627 0.607504045,1.42598835 C0.502743224,1.4256091 0.409764361,1.42488853 0.401193366,1.42488853 L0.385100627,1.42454721 L0.384026092,1.50573147 C0.382951557,1.59297105 0.382243629,1.59654862 0.365784284,1.5761451" id="Shape" fill="#FFCB08"></path>
            <path d="M6.73025384,1.25111729 L6.73025384,1.06874977 L6.71309921,1.06375635 C6.68806887,1.0562346 6.64158576,1.03728487 6.62477245,1.02763934 C6.61690939,1.02298723 6.60616404,1.01833513 6.60118325,1.0172606 C6.59616454,1.01617342 6.58900941,1.01226717 6.58507787,1.00867696 C6.58115898,1.00509939 6.56864381,0.995807824 6.55683657,0.987932116 C6.51035346,0.956467209 6.45993881,0.898543463 6.43813208,0.852072994 C6.42669144,0.827396619 6.4116606,0.77662801 6.40774171,0.749435959 C6.4059466,0.736920789 6.40450546,0.601049026 6.40450546,0.446935454 L6.40450546,0.166936971 L6.58759355,0.168024147 L6.77066899,0.169098682 L6.77247674,0.431904608 C6.7738926,0.616054588 6.77567506,0.697934139 6.77853206,0.706176453 C6.7828302,0.717996335 6.80462429,0.739790429 6.82394064,0.751951635 C6.83932544,0.761609806 6.88436742,0.771963265 6.91011833,0.771963265 C6.96304864,0.771963265 7.01238875,0.754808633 7.03275435,0.729778293 C7.05779733,0.698667351 7.05673544,0.706530417 7.05925111,0.544920385 C7.06066697,0.46444405 7.06279076,0.393638528 7.06389057,0.387570567 C7.07746764,0.328926251 7.09425566,0.290685454 7.12144771,0.256704871 C7.15506169,0.215227828 7.21084901,0.181626493 7.26123837,0.172688892 C7.322411,0.16158958 7.34099413,0.160881651 7.47935629,0.160515045 L7.62312905,0.160515045 L7.62312905,0.081138528 C7.62312905,0.00532693823 7.62348301,0.00173672787 7.62955097,0.00927111298 C7.63314118,0.0135566106 7.64207878,0.0210657125 7.64994185,0.0260717805 C7.65779227,0.0310778484 7.67389765,0.0443009471 7.68532565,0.0550210119 C7.69679157,0.0657537182 7.70785295,0.0750579253 7.7096607,0.0750579253 C7.71144316,0.0750579253 7.72502023,0.086144596 7.74006371,0.100100907 C7.75505663,0.114019293 7.7686337,0.125105963 7.77044144,0.125105963 C7.77222391,0.125105963 7.77831715,0.129745425 7.78403115,0.13583867 C7.7897325,0.141552666 7.81193113,0.160515045 7.83301729,0.177328354 C7.8541161,0.194482986 7.87449434,0.211283653 7.87843851,0.214873864 C7.88238269,0.218451433 7.89523918,0.229171497 7.90704642,0.238450421 C7.91884102,0.247754628 7.93136883,0.258853941 7.93492112,0.263506044 C7.93849869,0.267766259 7.94351739,0.271723075 7.94602043,0.271723075 C7.94852346,0.271723075 7.96174656,0.282089175 7.97533627,0.29495831 L8,0.318206186 L7.98034233,0.3368146 C7.96960963,0.3471807 7.95423746,0.360416441 7.94602043,0.36647176 C7.92599616,0.381502606 7.85806028,0.437985211 7.83479976,0.458730053 C7.8244463,0.46803426 7.81443416,0.475897327 7.81300566,0.475897327 C7.81157716,0.475897327 7.80084446,0.484834928 7.78903722,0.495908957 C7.77724262,0.507008269 7.76187045,0.519536081 7.75505663,0.523821578 C7.74828074,0.52846104 7.73289593,0.540963568 7.72110133,0.552062881 C7.70929409,0.563149551 7.69857403,0.572087153 7.69679157,0.572087153 C7.69499646,0.572087153 7.68139411,0.583161182 7.66640119,0.597104851 C7.65137035,0.610694556 7.63707271,0.622147832 7.63455704,0.622147832 C7.63207929,0.622147832 7.63028418,0.623930296 7.63028418,0.625712759 C7.63028418,0.627861829 7.62884304,0.62930297 7.62669397,0.62930297 C7.6245449,0.62930297 7.6227498,0.599266562 7.62242112,0.551708916 L7.62133394,0.474114863 L7.53980835,0.47305297 C7.45076102,0.471965793 7.43216525,0.474468827 7.42896693,0.487337962 C7.42789239,0.491636101 7.42681786,0.541330174 7.42681786,0.597104851 C7.42681786,0.703673419 7.42359426,0.751218423 7.41358212,0.790217715 C7.40679359,0.817371841 7.38355835,0.870289519 7.36745297,0.895673823 C7.35422987,0.916064701 7.30845469,0.963622347 7.27985943,0.986149653 C7.25733212,1.0040375 7.17367011,1.04551454 7.13073928,1.06054538 L7.10142344,1.07089884 L7.10142344,1.43420538 L6.72954591,1.43420538 L6.73025384,1.25111729 Z M5.9435806,0.655761809 L5.9435806,0.536324107 L5.93430168,0.511306408 C5.92321501,0.481623965 5.91785498,0.476617897 5.88278722,0.460512517 C5.85885669,0.449792452 5.85205552,0.448363953 5.81665908,0.446935454 C5.7708839,0.445140348 5.74442506,0.449438488 5.71581715,0.462661586 C5.68865038,0.475189398 5.683973,0.47982886 5.67257029,0.5034307 L5.66289947,0.523101008 L5.66182494,0.648947994 L5.66076305,0.774820263 L5.94323928,0.774820263 L5.9435806,0.655761809 Z M5.29280441,0.963622347 C5.29280441,0.439059746 5.29138855,0.468400866 5.31818871,0.394713063 C5.33321956,0.353602626 5.34179055,0.337889135 5.36467182,0.310330478 C5.37218093,0.301038912 5.37826153,0.292101311 5.37826153,0.290318848 C5.37826153,0.288536384 5.38827367,0.278157642 5.40044751,0.267424936 C5.41259608,0.256704871 5.42832221,0.24274856 5.43512338,0.236667958 C5.44189927,0.230246032 5.44906705,0.224873358 5.45158273,0.224873358 C5.45407312,0.224873358 5.46230279,0.220221255 5.4701785,0.214507258 C5.48876163,0.200930195 5.53989684,0.174812679 5.54774727,0.174812679 C5.55098352,0.174812679 5.55990847,0.172322286 5.56706361,0.169098682 C5.6074914,0.151564802 5.67720975,0.13727981 5.74728206,0.131907136 C5.83310578,0.125105963 5.92785447,0.135130741 6.00402002,0.158732581 C6.02083333,0.164092614 6.04193214,0.170173217 6.0508571,0.173030215 C6.07198119,0.179110818 6.10845216,0.197693949 6.12952569,0.212358188 C6.13847593,0.218805397 6.149196,0.224873358 6.15314017,0.226314499 C6.15705906,0.227389034 6.1688663,0.236667958 6.17958637,0.246692735 C6.19033172,0.256704871 6.202455,0.267424936 6.20713238,0.270281934 C6.21177184,0.27351818 6.2221253,0.28531278 6.23001365,0.297120021 C6.23787672,0.30891462 6.24752225,0.32142979 6.25109982,0.324994717 C6.26826709,0.342161991 6.29759557,0.417619616 6.30617921,0.466605761 C6.31081867,0.494126493 6.31153924,0.559913306 6.31153924,0.965784058 L6.31153924,1.43313084 L5.9435806,1.43313084 L5.9435806,1.06839581 L5.66111701,1.06839581 L5.66111701,1.43313084 L5.29280441,1.43313084 L5.29280441,0.963622347 Z M4.01269215,1.44957755 C3.97121511,1.4434843 3.9408121,1.43598784 3.89577013,1.42061567 C3.85105684,1.40559747 3.84462227,1.40237386 3.81387793,1.38127506 C3.80136276,1.37267878 3.78956816,1.36554892 3.78849363,1.36554892 C3.78706513,1.36554892 3.77348807,1.35338772 3.75774929,1.33835687 C3.71162015,1.29366887 3.6862232,1.25362032 3.66655289,1.19391411 C3.64368426,1.12453709 3.64438979,1.1427789 3.64438979,0.632159968 L3.64438979,0.167670183 L3.82855481,0.167670183 C3.97336418,0.167670183 4.01269215,0.168744717 4.01269215,0.17195568 C4.01269215,0.174458714 4.01305876,0.377558431 4.01340008,0.623197084 C4.01410801,1.05336496 4.01448726,1.07089884 4.02126315,1.08627101 C4.02877225,1.10379225 4.04022553,1.11845649 4.04666009,1.11845649 C4.04879652,1.11845649 4.0559643,1.12097216 4.0620449,1.12417049 C4.07847896,1.13240016 4.11422937,1.13634433 4.14105481,1.13310809 C4.1854015,1.12741937 4.21437601,1.10738246 4.22365494,1.07518434 C4.225804,1.06768788 4.2272325,0.89461193 4.2272325,0.615346659 L4.2272325,0.167670183 L4.40924606,0.167670183 C4.57193062,0.167670183 4.59160093,0.168378111 4.59338339,0.173384179 C4.59448321,0.176595142 4.59553246,0.380428071 4.59553246,0.626445971 C4.59553246,1.05375685 4.59588643,1.07447641 4.602321,1.08842008 C4.60591121,1.09628315 4.6130537,1.10629528 4.61771845,1.11096003 C4.64310275,1.13418262 4.71246713,1.14170437 4.7546521,1.12596559 C4.78111094,1.11595346 4.78326001,1.11451231 4.79506725,1.09413408 L4.80471278,1.07770002 L4.80649525,0.623588973 L4.80830299,0.169452646 L5.17873938,0.167316218 L5.17732352,0.640376999 C5.17624899,1.07232734 5.17552842,1.11559949 5.16981442,1.1384934 C5.16121814,1.1738772 5.14762844,1.21180196 5.13727498,1.23003113 C5.13225627,1.23860212 5.12833738,1.24826029 5.12833738,1.25147125 C5.12833738,1.26005489 5.09114583,1.30725857 5.06251264,1.33515855 C5.04822765,1.34874826 5.02570034,1.36733139 5.01212328,1.37591502 C4.99852093,1.38448602 4.98172027,1.39523137 4.97455249,1.39951687 C4.9677766,1.40380236 4.95562803,1.409529 4.94775233,1.41201939 C4.93988926,1.41453507 4.92880259,1.4184666 4.92272199,1.42095699 C4.90485943,1.42845346 4.86371106,1.43955277 4.82975576,1.4463413 C4.78326001,1.45564551 4.65667981,1.45564551 4.61342031,1.4463413 C4.58445843,1.4402607 4.54332271,1.42775817 4.52401901,1.41954114 C4.5190003,1.41737943 4.51114988,1.41487639 4.50614381,1.41382714 C4.49829339,1.41201939 4.43176072,1.37448653 4.42748786,1.36912649 C4.42641333,1.36803932 4.42211519,1.36481571 4.41747573,1.36232532 C4.40853813,1.35731925 4.39887996,1.36125079 4.36598655,1.3841447 C4.35703631,1.39056662 4.34415453,1.3987963 4.337366,1.40237386 C4.31233566,1.41665886 4.23617011,1.44136051 4.1914821,1.44886962 C4.1543032,1.45601211 4.05633091,1.45601211 4.01269215,1.44957755" id="Shape" fill="#009743"></path>
        </g>
    </g>
</svg>