<?xml version="1.0" encoding="UTF-8" standalone="no"?>
<!DOCTYPE svg PUBLIC "-//W3C//DTD SVG 1.1//EN" "http://www.w3.org/Graphics/SVG/1.1/DTD/svg11.dtd">
<!-- Created with Vectornator (http://vectornator.io/) -->
<svg height="100%" stroke-miterlimit="10" style="fill-rule:nonzero;clip-rule:evenodd;stroke-linecap:round;stroke-linejoin:round;" version="1.1" viewBox="0 0 1024 1024" width="100%" xml:space="preserve" xmlns="http://www.w3.org/2000/svg" xmlns:vectornator="http://vectornator.io" xmlns:xlink="http://www.w3.org/1999/xlink">
<defs/>
<g id="Untitled" vectornator:layerName="Untitled">
<g opacity="1">
<path d="M441.074 501.608C442.432 500.872 444.355 498.298 444.667 496.742C445.6 492.274 444.751 488.002 442.544 486.165C440.509 484.439 440.565 484.439 431.882 484.353L423.904 484.268L423.904 502.427L431.882 502.343C439.546 502.258 439.913 502.23 441.074 501.608M441.074 540.245C442.517 539.878 444.384 538.774 444.637 538.153C444.722 537.927 444.977 537.756 445.176 537.756C445.373 537.756 445.854 537.106 446.251 536.286C446.871 534.955 446.929 534.476 446.929 530.713L446.929 526.584L445.884 524.971C445.317 524.094 444.299 522.991 443.647 522.568L442.461 521.776L433.379 521.634C428.401 521.549 424.217 521.52 424.102 521.576C423.989 521.634 423.876 525.934 423.876 531.11L423.876 540.557L431.824 540.557C436.943 540.586 440.225 540.471 441.074 540.245M394.742 512.582L394.742 462.517L419.887 462.517C447.381 462.517 450.437 462.658 454.99 464.101C457.931 465.033 461.864 466.958 464.098 468.541C465.711 469.702 467.86 471.795 469.671 474C470.718 475.245 472.697 479.375 473.546 482.091C474.253 484.297 474.309 484.806 474.309 489.841C474.309 493.433 474.224 495.385 474.027 495.64C473.856 495.866 473.546 496.545 473.348 497.138C472.952 498.355 471.312 501.552 470.49 502.71C470.207 503.135 469.953 503.56 469.953 503.672C469.953 503.869 465.455 508.339 465.229 508.339C465.003 508.339 463.447 509.584 463.447 509.754C463.447 509.837 463.957 510.15 464.607 510.433C465.229 510.717 466.051 511.225 466.418 511.536C466.785 511.847 467.578 512.525 468.171 512.978C470.577 514.845 473.97 518.919 474.507 520.615C474.705 521.237 474.961 521.86 475.072 522.03C475.554 522.652 476.771 527.262 476.968 529.243C477.222 531.846 476.968 537.332 476.487 539.425C475.922 541.915 474.197 546.808 473.461 548.136C472.585 549.664 470.858 552.069 470.095 552.832C467.548 555.378 465.91 556.736 464.607 557.443C463.759 557.896 462.543 558.547 461.92 558.886C459.602 560.13 456.943 561.205 456.179 561.205C455.754 561.205 454.961 561.348 454.426 561.516C451.087 562.534 448.512 562.619 421.415 562.619L394.77 562.619L394.742 512.582ZM727.946 548.391L727.946 533.911L725.399 533.089C724.015 532.637 721.752 531.732 720.422 531.053C719.064 530.374 717.849 529.809 717.679 529.809C717.282 529.809 714.426 527.801 711.937 525.793C709.957 524.179 707.92 521.86 706.307 519.342C705.855 518.635 705.346 517.927 705.176 517.73C704.808 517.334 703.253 512.695 702.658 510.235C702.291 508.707 702.235 504.888 702.235 485.457L702.235 462.49L731.368 462.49L731.368 482.345C731.368 502.71 731.481 504.975 732.5 506.191C733.518 507.405 736.432 509.131 738.158 509.555C740.223 510.036 744.749 510.121 746.615 509.696C749.612 509.018 752.102 507.151 753.177 504.776C753.658 503.758 753.685 502.738 753.715 494.451C753.715 489.387 753.857 484.042 753.999 482.572C754.309 479.516 755.411 475.189 756.374 473.096C757.024 471.682 760.616 467.014 761.012 467.014C761.126 467.014 761.918 466.476 762.767 465.855C764.604 464.468 766.953 463.338 768.678 463.025C769.384 462.913 770.854 462.602 771.929 462.376C773.543 462.035 776.229 461.95 786.129 461.923L798.348 461.923L798.348 455.587C798.348 449.421 798.49 448.458 799.196 449.759C799.367 450.071 799.961 450.608 800.555 450.948C801.15 451.288 802.395 452.334 803.355 453.212C804.317 454.087 805.477 455.022 805.958 455.275C806.438 455.53 806.92 455.898 807.062 456.097C807.457 456.717 810.371 459.123 810.738 459.123C810.937 459.123 811.106 459.235 811.106 459.376C811.106 459.517 812.804 460.99 814.839 462.658C816.905 464.327 818.829 465.996 819.113 466.363C819.392 466.732 819.79 467.041 819.988 467.041C820.187 467.041 821.147 467.777 822.166 468.682C823.184 469.589 824.288 470.522 824.682 470.775C825.984 471.597 828.36 473.916 828.36 474.368C828.36 474.878 825.956 477.197 824.259 478.328C823.636 478.752 822.873 479.347 822.562 479.686C822.25 480.026 820.468 481.524 818.601 483.08C816.734 484.607 815.094 485.994 814.924 486.165C814.756 486.333 814.303 486.7 813.906 486.928C813.482 487.183 812.408 488.087 811.474 488.965C810.539 489.841 809.663 490.519 809.523 490.519C809.381 490.519 808.503 491.226 807.571 492.103C806.637 492.981 805.477 493.97 804.996 494.282C804.515 494.593 803.158 495.696 802.026 496.657C800.895 497.619 799.622 498.694 799.226 499.004L798.52 499.6L798.433 493.207L798.348 486.814L791.164 486.899C785.734 486.957 783.867 487.069 783.612 487.351C783.329 487.635 783.216 490.236 783.075 498.524C782.877 511.451 782.848 511.536 779.681 518.097C779.087 519.342 778.237 520.756 777.785 521.237C777.362 521.719 776.259 522.963 775.353 523.98C774.447 525.028 773.543 525.876 773.373 525.876C773.175 525.876 772.58 526.301 772.043 526.81C770.827 527.971 768.819 529.355 767.517 529.921C766.979 530.147 765.452 530.855 764.124 531.477C762.794 532.099 760.814 532.92 759.684 533.287L757.645 533.966L757.477 562.818L742.711 562.874L727.975 562.874L727.946 548.391ZM665.463 500.928C665.463 491.821 665.436 491.17 664.869 489.643C664.162 487.691 663.343 486.899 661.051 485.881C657.204 484.212 651.575 484.24 647.926 485.966C645.691 487.011 645.267 487.436 644.391 489.303L643.684 490.859L643.684 510.602L665.463 510.602L665.463 500.928ZM614.098 562.563C614.012 562.364 614.012 545.28 614.041 524.576C614.124 490.151 614.182 486.814 614.634 485.003C615.087 483.136 616.217 479.8 616.757 478.724C616.897 478.442 617.321 477.593 617.69 476.801C618.057 476.037 618.566 475.189 618.791 474.934C619.668 474.03 621.055 472.134 621.055 471.881C621.055 471.738 621.592 471.173 622.243 470.634C622.893 470.097 624.081 469.051 624.844 468.343C625.608 467.636 626.373 467.041 626.541 467.041C626.711 467.041 627.59 466.533 628.493 465.91C632.001 463.535 638.224 461.299 644.644 460.113C648.125 459.49 657.119 459.235 660.91 459.688C665.859 460.254 670.725 461.384 673.271 462.546C673.92 462.857 674.685 463.083 674.938 463.083C675.505 463.083 679.069 464.865 680.256 465.769C680.736 466.109 681.587 466.647 682.153 466.93C683.424 467.581 687.951 471.738 688.461 472.7C688.657 473.096 689.252 473.888 689.788 474.482C691.486 476.376 693.411 480.817 694.429 485.286C694.938 487.436 694.964 489.529 694.964 525.169L694.964 562.789L665.548 562.789L665.38 533.824L643.684 533.824L643.514 562.789L628.86 562.874C617.066 562.901 614.21 562.846 614.098 562.563M514.984 564.316C511.476 563.949 508.479 563.299 504.518 561.997C499.285 560.3 495.975 558.376 492.469 554.983C491.308 553.85 490.376 552.89 490.376 552.832C490.376 552.776 489.81 551.984 489.13 551.079C487.688 549.183 486.415 546.921 486.415 546.242C486.415 545.989 486.303 545.648 486.162 545.506C485.822 545.138 484.803 541.915 484.238 539.425C483.813 537.53 483.757 533.683 483.672 499.911L483.587 462.517L513.288 462.517L513.288 497.959C513.288 529.979 513.343 533.541 513.74 534.788C514.418 536.852 515.24 537.558 517.727 538.295C521.942 539.538 526.95 538.521 528.702 536.059L529.551 534.843L529.721 462.49L559.137 462.49L559.137 497.93C559.137 537.077 559.053 535.013 560.919 536.796C562.363 538.153 564.23 538.718 567.341 538.718C569.236 538.718 570.509 538.548 571.725 538.153C573.564 537.558 574.157 537.049 574.977 535.324C575.514 534.221 575.514 533.118 575.514 498.355L575.514 462.517L605.215 462.517L605.215 499.401C605.215 531.42 605.159 536.596 604.792 538.577C604.253 541.462 603.207 544.602 602.104 546.638C601.65 547.515 601.256 548.391 601.256 548.619C601.256 548.845 601.086 549.183 600.915 549.41C600.745 549.638 600.18 550.287 599.729 550.908C598.115 553.087 595.853 555.548 594.381 556.651C591.75 558.659 588.046 560.895 586.687 561.262C586.207 561.374 584.878 561.829 583.719 562.225C578.174 564.146 570.395 565.023 564.371 564.346C561.175 564.005 555.602 562.705 553.961 561.968C553.452 561.715 552.433 561.318 551.699 561.092C550.342 560.64 546.946 558.715 545.957 557.839C544.968 556.962 544.204 556.906 542.986 557.584C542.364 557.924 541.855 558.321 541.855 558.433C541.855 558.688 537.358 561.233 536.907 561.233C536.566 561.233 535.095 561.771 533.793 562.364C530.117 564.033 521.123 564.967 514.984 564.316M336.501 564.457C333.078 563.977 329.6 563.129 325.81 561.884C322.358 560.725 321.115 560.13 317.945 558.037C317.296 557.613 316.674 557.273 316.56 557.273C315.627 557.273 308.217 549.523 308.217 548.532C308.217 548.391 307.848 547.63 307.425 546.891C306.603 545.535 305.727 543.386 304.907 540.726C304.51 539.481 304.455 535.069 304.369 500.928L304.284 462.546L333.702 462.546L333.702 533.428L334.325 534.673C335.37 536.738 336.021 537.36 338.368 538.491L340.604 539.595L344.563 539.595C348.609 539.595 351.012 539.114 352.003 538.123C352.2 537.927 352.539 537.756 352.766 537.756C353.247 537.756 355.143 535.663 355.481 534.758C355.652 534.335 355.765 520.333 355.765 498.298L355.765 462.517L385.437 462.517L385.437 537.304L384.73 539.849C384.333 541.235 383.853 542.933 383.682 543.555C383.257 545.024 381.307 548.59 380.514 549.41C380.174 549.75 379.695 550.401 379.467 550.881C378.903 551.955 374.15 556.367 372.791 557.074C372.227 557.358 371.491 557.839 371.18 558.093C370.36 558.8 365.806 561.205 365.239 561.205C364.986 561.205 364.363 561.374 363.882 561.601C361.252 562.789 357.63 563.694 352.652 564.457C349.231 564.997 340.179 564.967 336.501 564.457M224.519 573.933C224.152 573.481 223.7 573.084 223.529 573.084C223.359 573.084 222.426 572.377 221.493 571.501C220.559 570.624 219.315 569.606 218.692 569.209C218.099 568.813 217.166 568.049 216.627 567.513C216.091 566.975 215.101 566.127 214.45 565.618C213.799 565.109 212.442 564.033 211.424 563.214C210.434 562.392 209.359 561.488 209.048 561.233C208.735 560.979 207.775 560.188 206.926 559.507C206.077 558.8 205.2 558.008 205.003 557.755C204.804 557.471 204.493 557.245 204.294 557.245C204.097 557.245 202.966 556.367 201.749 555.265C200.533 554.163 199.458 553.287 199.344 553.287C199.233 553.287 198.326 552.522 197.366 551.616L195.584 549.947L197.167 548.42C198.044 547.599 199.233 546.582 199.799 546.186C200.365 545.789 201.099 545.224 201.41 544.913C201.722 544.602 203.305 543.272 204.945 541.971C206.586 540.67 208.311 539.171 208.793 538.662C209.274 538.153 209.783 537.728 209.895 537.728C210.15 537.728 212.95 535.437 213.091 535.126C213.149 535.013 213.769 534.504 214.506 533.995C215.242 533.485 216.543 532.439 217.42 531.62C218.295 530.798 219.4 529.949 219.88 529.695C220.361 529.44 220.843 529.102 220.955 528.903C221.324 528.309 224.321 525.876 224.688 525.876C224.859 525.876 225 525.763 225 525.594C225 525.424 225.199 525.312 225.425 525.312C225.793 525.312 225.849 526.187 225.849 531.477L225.849 537.644L231.138 537.84C243.046 538.266 267.033 538.407 267.23 538.067C267.344 537.897 267.655 537.728 267.908 537.728C268.163 537.728 268.701 537.247 269.097 536.681C270.058 535.269 270.03 533.457 269.012 531.703C268.022 530.006 267.033 529.44 255.379 523.868C253.201 522.822 250.853 521.719 250.146 521.437C249.438 521.153 247.742 520.276 246.327 519.512C244.943 518.748 243.498 518.014 243.13 517.871C242.284 517.533 238.917 515.496 236.172 513.629C234.193 512.3 229.497 507.972 228.819 506.84C228.678 506.586 228.196 505.879 227.771 505.228C226.442 503.249 225.311 500.843 225.029 499.515C224.886 498.807 224.575 497.224 224.321 495.978C223.585 492.302 223.869 483.675 224.745 482.712C224.886 482.572 225 482.062 225 481.582C225 480.308 228.027 474.651 228.705 474.651C228.846 474.651 228.96 474.425 228.96 474.115C228.96 473.548 232.808 469.758 234.901 468.288C235.608 467.777 237.503 466.732 239.143 465.968C246.385 462.49 247.656 462.347 269.549 462.46C279.025 462.517 288.303 462.631 290.141 462.743L293.479 462.942L293.536 474.793L293.592 486.644L274.924 486.502C264.657 486.418 255.86 486.418 255.352 486.502C254.869 486.587 254.049 486.984 253.512 487.409C252.607 488.143 252.579 488.257 252.579 490.208C252.579 492.047 252.635 492.302 253.427 493.093C253.879 493.575 254.813 494.253 255.464 494.593C256.115 494.933 257.98 495.921 259.565 496.8C261.149 497.675 262.846 498.468 263.299 498.582C263.752 498.694 264.487 499.034 264.911 499.316C265.336 499.627 265.788 499.853 265.929 499.853C266.155 499.853 268.504 500.985 273.141 503.304C274.02 503.758 274.953 504.095 275.179 504.095C275.433 504.095 275.631 504.21 275.631 504.379C275.631 504.52 275.801 504.662 276.028 504.662C276.254 504.662 276.48 504.746 276.508 504.888C276.649 505.201 278.883 506.36 279.338 506.36C279.564 506.36 280.383 506.812 281.203 507.35C282.024 507.887 282.788 508.339 282.901 508.339C283.014 508.339 283.58 508.707 284.117 509.131C284.655 509.584 285.559 510.15 286.125 510.433C286.691 510.687 287.54 511.252 288.021 511.677C289.83 513.288 290.312 513.685 290.877 513.969C291.189 514.138 292.066 515.071 292.8 516.033C293.536 516.995 294.3 517.927 294.47 518.07C294.893 518.466 296.308 520.7 296.308 520.983C296.308 521.124 296.648 522.03 297.044 523.048C298.768 527.262 299.364 534.136 298.43 539.368C297.976 541.971 296.592 546.356 295.657 548.08C294.752 549.777 291.669 553.624 290.454 554.587C289.859 555.039 288.925 555.858 288.388 556.34C287.851 556.848 287.258 557.245 287.059 557.245C286.718 557.245 284.683 558.321 284.429 558.659C284.343 558.744 283.522 559.14 282.59 559.507C281.655 559.875 280.78 560.271 280.609 560.356C279.931 560.81 275.518 561.686 271.982 562.055C267.486 562.505 258.688 562.762 258.688 562.422C258.688 562.225 254.106 562.111 243.64 562.055C235.353 562.025 227.998 561.968 227.32 561.968L226.047 561.941L225.962 568.363C225.877 575.264 225.821 575.547 224.519 573.933" fill="#ffcb08" fill-rule="nonzero" opacity="1" stroke="none"/>
<path d="M727.974 548.222L727.974 533.796L726.617 533.401C724.637 532.806 720.96 531.307 719.63 530.544C719.008 530.176 718.158 529.808 717.764 529.723C717.367 529.637 716.801 529.328 716.49 529.044C716.18 528.761 715.19 528.026 714.256 527.403C710.579 524.914 706.591 520.332 704.866 516.656C703.961 514.704 702.772 510.688 702.462 508.537C702.32 507.547 702.206 496.799 702.206 484.608L702.206 462.459L716.689 462.545L731.171 462.63L731.314 483.419C731.426 497.986 731.567 504.463 731.793 505.115C732.133 506.05 733.857 507.774 735.385 508.736C736.602 509.5 740.165 510.319 742.202 510.319C746.389 510.319 750.292 508.962 751.903 506.982C753.884 504.521 753.8 505.143 753.999 492.359C754.111 485.993 754.279 480.392 754.366 479.912C755.44 475.273 756.768 472.248 758.919 469.56C761.578 466.279 765.991 463.621 769.977 462.914C774.816 462.036 776.286 461.98 787.231 461.951L798.604 461.951L798.604 455.672C798.604 449.675 798.632 449.391 799.112 449.987C799.396 450.326 800.103 450.92 800.725 451.316C801.346 451.712 802.62 452.758 803.524 453.606C804.431 454.455 805.306 455.191 805.449 455.191C805.59 455.191 806.664 456.068 807.854 457.172C809.04 458.273 810.114 459.15 810.257 459.15C810.398 459.15 810.88 459.517 811.332 459.999C811.783 460.451 813.539 461.951 815.207 463.281C816.876 464.638 818.488 465.967 818.8 466.251C819.112 466.534 820.129 467.382 821.063 468.116C821.996 468.852 822.987 469.73 823.268 470.098C823.551 470.435 823.948 470.748 824.146 470.748C824.344 470.748 825.39 471.568 826.465 472.586L828.416 474.425L826.861 475.897C826.012 476.717 824.796 477.764 824.146 478.243C822.562 479.432 817.188 483.9 815.348 485.541C814.529 486.277 813.737 486.899 813.624 486.899C813.511 486.899 812.662 487.606 811.728 488.482C810.795 489.36 809.579 490.351 809.04 490.69C808.504 491.057 807.287 492.046 806.354 492.924C805.42 493.801 804.572 494.508 804.431 494.508C804.289 494.508 803.213 495.384 802.027 496.487C800.838 497.562 799.707 498.468 799.508 498.468C799.312 498.468 799.17 498.609 799.17 498.75C799.17 498.92 799.056 499.034 798.886 499.034C798.716 499.034 798.574 496.658 798.548 492.896L798.462 486.758L792.013 486.674C784.969 486.588 783.498 486.786 783.245 487.804C783.16 488.144 783.075 492.075 783.075 496.487C783.075 504.917 782.82 508.678 782.028 511.763C781.491 513.911 779.653 518.097 778.379 520.105C777.333 521.718 773.712 525.48 771.45 527.262C769.668 528.677 763.05 531.958 759.654 533.147L757.335 533.966L757.335 562.705L727.918 562.705L727.974 548.222ZM665.745 501.127L665.745 491.679L665.011 489.7C664.134 487.352 663.71 486.956 660.936 485.682C659.043 484.834 658.505 484.721 655.705 484.608C652.084 484.466 649.991 484.806 647.728 485.852C645.579 486.843 645.209 487.21 644.307 489.077L643.542 490.633L643.457 500.588L643.373 510.545L665.718 510.545L665.745 501.127ZM614.266 525.48C614.266 483.985 614.154 486.306 616.274 480.477C617.463 477.225 618.141 475.982 619.951 473.802C620.545 473.067 621.026 472.36 621.026 472.219C621.026 472.078 621.818 471.257 622.781 470.408C623.742 469.56 624.986 468.456 625.524 467.975C626.06 467.467 626.627 467.042 626.826 467.042C627.023 467.042 627.674 466.674 628.297 466.222C629.767 465.148 633.812 463.082 634.433 463.082C634.689 463.082 635.395 462.885 635.961 462.63C639.159 461.243 644.674 460.113 650.217 459.688C657.006 459.15 664.501 459.943 670.526 461.81C671.856 462.234 673.525 462.715 674.231 462.941C675.902 463.422 678.787 464.892 680.454 466.052C681.162 466.562 682.01 467.042 682.322 467.156C682.632 467.241 683.566 467.975 684.414 468.768C685.264 469.56 686.223 470.408 686.593 470.634C686.96 470.89 687.779 471.823 688.403 472.757C689.025 473.69 689.788 474.68 690.071 474.962C691.429 476.32 693.749 482.289 694.428 486.164C694.795 488.341 694.852 493.545 694.852 525.651L694.852 562.62L665.745 562.62L665.745 533.768L643.401 533.768L643.401 562.62L614.266 562.62L614.266 525.48ZM513.004 563.921C509.723 563.439 507.318 562.846 503.755 561.63C500.218 560.442 499.709 560.187 497.277 558.518C496.287 557.838 495.354 557.274 495.269 557.274C495.156 557.274 494.082 556.312 492.837 555.123C489.188 551.588 487.179 548.42 485.623 543.697C483.814 538.209 483.87 539.652 483.87 499.26L483.87 462.517L498.438 462.517C509.893 462.517 513.004 462.602 513.004 462.856C513.004 463.054 513.033 479.12 513.06 498.551C513.116 532.579 513.146 533.966 513.682 535.182C514.276 536.568 515.182 537.728 515.691 537.728C515.86 537.728 516.427 537.927 516.908 538.18C518.208 538.831 521.036 539.143 523.158 538.887C526.666 538.437 528.958 536.852 529.692 534.305C529.862 533.712 529.975 520.021 529.975 497.93L529.975 462.517L544.373 462.517C557.242 462.517 558.798 462.573 558.939 462.969C559.026 463.223 559.109 479.347 559.109 498.808C559.109 532.61 559.137 534.249 559.646 535.352C559.93 535.974 560.495 536.766 560.864 537.135C562.872 538.972 568.359 539.567 571.696 538.322C573.789 537.53 573.959 537.416 574.893 535.804L575.656 534.504L575.797 498.582L575.94 462.658L605.243 462.489L605.131 499.91C605.046 534.079 604.989 537.502 604.537 539.313C603.857 542.112 602.782 545.112 601.963 546.554C601.566 547.232 601.256 547.996 601.256 548.25C601.256 548.929 598.314 552.663 596.049 554.87C594.919 555.945 593.137 557.415 592.063 558.094C590.987 558.772 589.658 559.622 589.091 559.961C588.555 560.3 587.594 560.753 586.971 560.95C586.349 561.149 585.472 561.46 584.991 561.657C583.578 562.25 580.323 563.128 577.637 563.665C573.959 564.401 563.946 564.401 560.524 563.665C558.233 563.184 554.979 562.195 553.452 561.545C553.055 561.374 552.434 561.176 552.038 561.093C551.417 560.95 546.154 557.981 545.816 557.557C545.731 557.471 545.391 557.216 545.024 557.019C544.317 556.623 543.553 556.934 540.951 558.745C540.243 559.253 539.224 559.904 538.687 560.187C536.707 561.317 530.682 563.271 527.147 563.865C524.206 564.43 516.456 564.43 513.004 563.921" fill="#009743" fill-rule="nonzero" opacity="1" stroke="none"/>
</g>
</g>
</svg>
