<svg width="8" height="7" xmlns="http://www.w3.org/2000/svg"><g fill="none" fill-rule="evenodd"><path d="m4.47.757.003-.005.059.122.082-.045a2.31 2.31 0 0 1 1.11-.268c.37 0 .721.086 1.048.26a2.7 2.7 0 0 1 .411.262l.486-.516.115.835.004-.004L8 2.988l-1.594-.18.002-.003-.797-.087.462-.48-.006-.003a.19.19 0 0 1-.006-.004.697.697 0 0 0-.388-.107c-.177 0-.273.045-.33.1a.27.27 0 0 0-.09.21c0 .043.011.077.07.12.116.084.278.193.489.326l.536.327c.291.173.523.382.676.632.16.254.227.566.227.914 0 .384-.101.74-.304 1.06a2.048 2.048 0 0 1-.827.742c-.356.181-.767.266-1.223.266A2.782 2.782 0 0 1 3.59 6.49c-.04.023-.08.045-.122.066-.356.181-.767.266-1.223.266a2.782 2.782 0 0 1-1.176-.264C.683 6.371.346 6.073.055 5.68a.28.28 0 0 1 .052-.387l.826-.65a.28.28 0 0 1 .403.06c.123.176.273.317.451.425.18.1.359.148.542.148.192 0 .318-.046.403-.111.072-.055.11-.125.11-.242 0-.057-.017-.093-.067-.131a3.85 3.85 0 0 0-.442-.314l-.521-.32H1.81l-.002-.001-.001-.001a2.453 2.453 0 0 1-.68-.626C.942 3.256.86 2.92.86 2.544c0-.368.1-.706.3-1.007l.001-.001c.202-.3.47-.535.801-.707a2.31 2.31 0 0 1 1.11-.268c.246 0 .484.038.711.114L4.1 0l.37.757Zm.084 4.427c.141.061.283.09.427.09.192 0 .318-.045.403-.11.072-.055.11-.125.11-.242 0-.057-.017-.093-.067-.131l-.002-.002-.002-.002a3.85 3.85 0 0 0-.438-.31l-.456-.28c.048.171.07.358.07.556 0 .148-.015.292-.045.431Zm-.958-2.039a2.01 2.01 0 0 1-.084-.601v-.006l-.663.14c.089.06.192.126.311.202l.436.265Zm-.51-1.019a.88.88 0 0 0-.065-.002c-.177 0-.273.045-.33.1a.27.27 0 0 0-.09.21c0 .043.011.077.07.12.045.032.097.069.155.108l.26-.536Z" fill="#FFF"/><path d="M1.106 4.863c.147.208.327.377.54.506.22.124.447.186.683.186.12 0 .227-.015.323-.043 0 .058.017.117.055.167.186.252.392.465.617.635-.306.151-.665.227-1.08.227-.359 0-.71-.078-1.053-.236C.853 6.142.55 5.878.28 5.512ZM4.11.603l.697 1.446-1.57.325.216-.438a1.001 1.001 0 0 0-.432-.092c-.225 0-.4.06-.523.177a.549.549 0 0 0-.177.413c0 .14.062.256.185.346.124.09.293.203.506.337l.54.33c.264.157.458.337.582.54.124.196.185.452.185.766 0 .095-.007.187-.02.277a1.515 1.515 0 0 1-.312-.328.28.28 0 0 0-.402-.06l-.468.37a.72.72 0 0 0 .005-.09.424.424 0 0 0-.177-.354 4.124 4.124 0 0 0-.464-.329l-.523-.32a2.173 2.173 0 0 1-.599-.549c-.146-.213-.219-.489-.219-.826 0-.315.085-.599.253-.852a1.86 1.86 0 0 1 .7-.615A2.03 2.03 0 0 1 3.071.84c.293 0 .57.06.832.183l.207-.42Z" fill="#F6E338" fill-rule="nonzero"/><path d="M5.008 2.23a.574.574 0 0 0-.035.204c0 .14.061.256.185.346.124.09.292.203.506.337l.54.33c.264.157.458.337.582.54.123.196.185.452.185.766 0 .332-.087.636-.261.911-.169.27-.408.484-.717.641-.31.158-.675.236-1.096.236-.36 0-.711-.078-1.054-.236-.338-.163-.641-.427-.911-.793l.826-.649c.146.208.326.377.54.506.22.124.447.186.683.186.236 0 .427-.057.573-.169a.553.553 0 0 0 .22-.464.424.424 0 0 0-.177-.354 4.122 4.122 0 0 0-.464-.329l-.523-.32a2.173 2.173 0 0 1-.599-.549c-.146-.213-.219-.489-.219-.826l.001-.062 1.215-.252ZM5.723.84c.326 0 .633.076.92.228.197.103.376.23.535.378l.308-.319.225 1.589-1.595-.168.354-.367a2.086 2.086 0 0 0-.258-.185.976.976 0 0 0-.54-.152c-.224 0-.399.06-.522.177a.64.64 0 0 0-.043.045l-.453-.94.09-.05a2.03 2.03 0 0 1 .98-.235Z" fill="#F05138" fill-rule="nonzero"/></g></svg>