<svg viewBox="0 0 24 24" xmlns="http://www.w3.org/2000/svg"><path d="m22 14.775-.002-.003c.033-.118.072-.235.102-.352C23.42 9.277 20.197 3.198 14.749 0c2.388 3.166 3.444 7 2.505 10.353-.084.3-.183.587-.294.866a7.33 7.33 0 0 0-.48-.276S11.065 7.67 5.184 1.878c-.153-.15 3.136 4.597 6.865 8.45-1.758-.963-6.655-4.449-9.757-7.224a13.81 13.81 0 0 0 1.332 1.795c2.59 3.21 5.97 7.17 10.012 10.216-2.841 1.702-6.859 1.834-10.858 0-.99-.452-1.92-.997-2.778-1.62a16.553 16.553 0 0 0 7.47 6.267c3.787 1.59 7.549 1.482 10.351.027l.042-.024a7.03 7.03 0 0 0 .34-.185c1.35-.683 4.008-1.379 5.436 1.338.348.666 1.092-2.857-1.638-6.143Z" fill="#F05138"/></svg>