<svg viewBox="0 0 8 8" xmlns="http://www.w3.org/2000/svg"><path d="m7.295 5.472-.001-.001c.011-.04.024-.08.034-.12.44-1.753-.634-3.825-2.45-4.915.796 1.079 1.148 2.386.835 3.529-.028.102-.061.2-.098.295a2.43 2.43 0 0 0-.16-.094S3.65 3.05 1.69 1.076c-.051-.051 1.045 1.567 2.288 2.88C3.392 3.628 1.76 2.44.726 1.494c.127.212.278.415.444.612C2.033 3.2 3.16 4.55 4.507 5.588c-.947.58-2.286.625-3.619 0-.33-.154-.64-.34-.926-.552a5.55 5.55 0 0 0 2.49 2.136c1.262.542 2.516.505 3.45.009l.014-.008c.038-.02.076-.041.113-.063.45-.233 1.336-.47 1.812.456.116.227.364-.974-.546-2.094Z" fill="#F05138" fill-rule="nonzero"/></svg>