<svg viewBox="0 0 24 24" xmlns="http://www.w3.org/2000/svg"><path d="M14.15 24h3.7A6.152 6.152 0 0 0 24 17.85V6.15A6.152 6.152 0 0 0 17.85 0h-3.718a.149.149 0 0 0-.15.15v23.68c0 .095.075.17.169.17Zm4.567-13.226a2.44 2.44 0 0 1 2.434 2.434 2.44 2.44 0 0 1-2.434 2.434 2.44 2.44 0 0 1-2.434-2.434c.019-1.34 1.094-2.434 2.434-2.434ZM3.736 7.208A2.27 2.27 0 0 0 6 9.472a2.27 2.27 0 0 0 2.264-2.264A2.27 2.27 0 0 0 6 4.943c-1.264 0-2.264 1-2.264 2.265ZM11.396 0H6.151A6.152 6.152 0 0 0 0 6.15v11.7A6.152 6.152 0 0 0 6.15 24h5.246a.17.17 0 0 0 .17-.17V.17a.17.17 0 0 0-.17-.17ZM9.642 22.076H6.15A4.12 4.12 0 0 1 3.17 20.83a4.197 4.197 0 0 1-1.245-2.98V6.15A4.12 4.12 0 0 1 3.17 3.17a4.197 4.197 0 0 1 2.98-1.245h3.492v20.15Z" fill="#e60012"/></svg>