<?xml version="1.0" encoding="UTF-8" standalone="no"?>
<!DOCTYPE svg PUBLIC "-//W3C//DTD SVG 1.1//EN" "http://www.w3.org/Graphics/SVG/1.1/DTD/svg11.dtd">
<!-- Created with Vectornator (http://vectornator.io/) -->
<svg height="100%" stroke-miterlimit="10" style="fill-rule:nonzero;clip-rule:evenodd;stroke-linecap:round;stroke-linejoin:round;" version="1.1" viewBox="0 0 595 842" width="100%" xml:space="preserve" xmlns="http://www.w3.org/2000/svg" xmlns:vectornator="http://vectornator.io" xmlns:xlink="http://www.w3.org/1999/xlink">
<defs/>
<g id="Untitled" vectornator:layerName="Untitled">
<g opacity="1">
<clipPath id="ClipPath">
<path d="M0 0L595 0L595 842L0 842L0 0Z"/>
</clipPath>
<g clip-path="url(#ClipPath)">
<path d="M161.145 261.219L158.148 274.098C156.285 282.102 144.891 282.105 143.023 274.105L140.023 261.262C138.84 256.188 133.09 253.696 128.578 256.301L100.121 272.73C94.941 275.719 94.941 283.191 100.121 286.18L146.746 313.102C149.148 314.489 152.109 314.489 154.512 313.102L201.137 286.18C206.313 283.191 206.313 275.719 201.133 272.73L172.594 256.254C168.078 253.645 162.328 256.141 161.145 261.219" fill="#f07c3f" fill-rule="evenodd" opacity="1" stroke="none"/>
<path d="M91.0781 346.141L103.734 342.297C111.594 339.91 117.297 349.773 111.301 355.395L101.676 364.414C97.8751 367.977 98.5901 374.199 103.105 376.805L131.563 393.234C136.738 396.223 143.211 392.488 143.211 386.512L143.211 332.672C143.211 329.898 141.73 327.336 139.328 325.949L92.7031 299.027C87.5271 296.039 81.0551 299.777 81.0551 305.754L81.0551 338.711C81.0551 343.926 86.0901 347.656 91.0781 346.141" fill="#f07c3f" fill-rule="evenodd" opacity="1" stroke="none"/>
<path d="M210.18 346.141L197.523 342.297C189.66 339.91 183.961 349.773 189.957 355.395L199.578 364.414C203.383 367.977 202.664 374.199 198.152 376.805L169.695 393.234C164.516 396.223 158.047 392.488 158.047 386.512L158.047 332.672C158.047 329.898 159.523 327.336 161.93 325.949L208.551 299.027C213.73 296.039 220.199 299.777 220.199 305.754L220.199 338.711C220.199 343.926 215.168 347.656 210.18 346.141" fill="#f07c3f" fill-rule="evenodd" opacity="1" stroke="none"/>
<path d="M195.008 456.863L201.457 451.258C202.449 450.34 203.016 449.047 203.016 447.691C203.016 447.691 203.02 428.859 203.016 428.824C202.941 427.922 202.18 427.258 201.289 427.25C201.281 427.242 194.219 427.25 194.203 427.254C193.34 427.324 192.707 428.019 192.641 428.855C192.625 428.898 192.539 444.625 192.531 444.695C192.352 446.441 190.914 447.734 189.211 447.804L189.203 447.808L178.609 447.988C178.609 447.988 178.621 428.91 178.617 428.855C178.609 428.769 178.523 428.476 178.496 428.402C178.449 428.277 178.387 428.172 178.313 428.062C178.262 427.984 178.035 427.738 177.977 427.691C177.719 427.472 177.418 427.304 177.055 427.269C176.996 427.261 176.688 427.277 176.676 427.277C176.676 427.277 169.738 427.301 169.668 427.316C169.547 427.336 169.43 427.363 169.316 427.406C169.258 427.433 169.203 427.468 169.145 427.5C169.012 427.574 168.887 427.648 168.777 427.754C168.715 427.812 168.672 427.879 168.621 427.941C168.547 428.035 168.473 428.117 168.418 428.222C168.305 428.429 168.227 428.652 168.211 428.894C168.211 428.906 168.168 447.781 168.168 447.781C168.168 447.781 157.754 447.793 157.668 447.781C155.953 447.605 154.656 446.222 154.543 444.562C154.539 444.543 154.543 429.195 154.543 429.195C154.555 428.164 153.941 427.398 152.988 427.301C152.961 427.297 152.867 427.293 152.848 427.293C152.848 427.293 145.629 427.289 145.629 427.293C145.215 427.336 144.848 427.543 144.566 427.832C144.441 427.965 144.328 428.101 144.246 428.265C144.156 428.437 144.098 428.629 144.07 428.836C144.07 428.84 144.066 428.91 144.066 428.933C144.063 428.933 144.039 450.062 144.039 450.07C144.004 451.195 144.16 452.234 144.344 452.968C144.344 452.972 144.348 452.98 144.348 452.988C144.488 453.425 144.672 453.851 144.891 454.254C144.938 454.34 145 454.418 145.051 454.504C145.238 454.812 145.43 455.113 145.656 455.394C145.77 455.531 145.902 455.652 146.023 455.785C146.215 455.984 146.398 456.187 146.613 456.367C146.793 456.523 146.996 456.656 147.191 456.797C147.371 456.922 147.547 457.05 147.738 457.164C147.98 457.304 148.234 457.418 148.492 457.531C148.668 457.609 148.84 457.687 149.023 457.754C149.301 457.851 149.59 457.922 149.883 457.988C150.004 458.019 150.117 458.066 150.242 458.09C150.297 458.101 150.348 458.113 150.402 458.121C150.539 458.144 150.664 458.187 150.801 458.203C150.945 458.218 151.672 458.273 151.906 458.273L168.648 458.273L168.652 477.742L157.664 477.742C157.473 477.742 157.27 477.664 157.063 477.586C155.66 477.187 154.66 475.949 154.555 474.496C154.551 474.449 154.555 466.441 154.555 466.441C154.555 465.633 153.617 464.976 152.809 464.98L145.68 465C144.875 465 144.055 465.828 144.055 466.633L144.086 480.832L144.121 480.867C144.176 484.566 146.953 487.73 150.727 488.117C151.121 488.16 151.512 488.164 151.898 488.14L151.91 488.152L195.215 488.152C199.266 488.175 202.734 485.445 202.98 481.547L202.992 462.254C203.016 461.797 202.684 461.394 202.223 461.347C201.969 461.32 201.734 461.41 201.559 461.566L193.582 468.836C192.938 469.433 192.57 469.961 192.57 470.84C192.57 470.84 192.555 474.316 192.555 474.332C192.551 474.429 192.563 474.519 192.555 474.617C192.379 476.312 191.012 477.593 189.371 477.726C189.332 477.73 178.371 477.742 178.371 477.742L178.367 458.269L191.422 458.269C192.75 458.269 194.031 457.765 195.008 456.863" fill="#3c3c37" fill-rule="evenodd" opacity="1" stroke="none"/>
<path d="M124.969 457.703L124.977 457.699C127.785 454.902 129.695 451.164 130.133 446.91C131.141 437.109 124.012 428.351 114.211 427.344C113.516 427.269 112.82 427.242 112.137 427.25L87.1048 427.25C86.2698 427.266 85.5158 428 85.4298 428.848L84.7768 435.797C84.6798 436.754 85.4408 437.707 86.4568 437.707C86.7228 437.707 113.098 437.703 113.145 437.707C117.137 437.762 119.926 441.676 119.746 445.844C119.566 449.922 115.895 452.519 111.641 452.445L93.1598 452.629C92.1288 452.699 91.5978 453.328 91.4528 454.015C91.4298 454.055 90.5548 461.058 90.5548 461.058C90.4998 461.969 91.1838 462.828 92.1168 462.883L113.215 463.023C117.074 463.094 120.234 467.074 119.816 471.137C119.43 474.89 116.441 477.687 112.617 477.687L86.2968 477.687C85.3478 477.715 84.6558 478.562 84.5978 479.598L83.9488 486.621C83.9058 487.508 84.6408 488.098 85.5468 488.144L112.5 488.18C121.496 488.137 129.195 481.32 130.137 472.168C130.707 466.601 128.648 461.371 124.969 457.703" fill="#3c3c37" fill-rule="evenodd" opacity="1" stroke="none"/>
<path d="M235.152 429.066C235.145 429.058 223.988 427.332 223.988 427.332C223.988 427.332 223.727 427.308 223.629 427.316C223.328 427.343 223.066 427.461 222.832 427.617C222.789 427.629 217.52 431.992 217.5 432.031C217.129 432.339 216.898 432.785 216.883 433.289C216.867 433.324 216.879 444.211 216.879 444.211C216.914 444.687 217.336 445.054 217.816 445.007C218.09 444.98 218.391 444.726 218.582 444.543C218.582 444.543 235.68 430.488 235.684 430.48C235.832 430.312 235.914 430.086 235.895 429.839C235.863 429.429 235.543 429.125 235.148 429.066L235.152 429.066Z" fill="#3c3c37" fill-rule="evenodd" opacity="1" stroke="none"/>
<path d="M270.348 444.734L241.707 444.734L241.566 444.738C240.711 444.808 240.082 445.496 240.008 446.324L239.973 453.492L239.98 453.547C240.051 454.422 240.766 455.062 241.617 455.113C241.617 455.113 263.379 455.129 263.391 455.129C264.699 455.086 265.98 455.777 266.613 457.019C266.902 457.589 267.008 458.199 266.973 458.793C266.973 458.804 266.965 474.082 266.965 474.097C266.969 474.136 266.961 474.171 266.961 474.207C266.984 475.5 266.297 476.75 265.07 477.375C264.484 477.675 263.855 477.781 263.246 477.734C263.172 477.738 251.859 477.75 251.859 477.75C251.859 477.75 251.762 477.757 251.719 477.761C250.836 477.832 250.188 478.558 250.148 479.425L250.219 486.636C250.316 487.429 251.02 488.047 251.785 488.16C251.785 488.16 270.07 488.183 270.254 488.148C273.809 487.933 276.867 485.203 277.242 481.547C277.273 481.238 277.25 480.941 277.246 480.64C277.246 480.621 277.25 480.601 277.25 480.586L277.426 451.808C277.426 450.078 276.777 448.707 275.828 447.504C274.531 445.863 272.605 444.734 270.348 444.734" fill="#3c3c37" fill-rule="evenodd" opacity="1" stroke="none"/>
<path d="M279.305 430.957C279.41 429.109 278.059 427.484 276.195 427.293L275.922 427.277L241.676 427.273C241.664 427.273 241.598 427.273 241.57 427.277C240.711 427.348 240.043 428.035 239.969 428.863C239.961 428.887 239.969 436.012 239.969 436.012L239.969 436.121C240.035 436.934 240.676 437.598 241.488 437.707C242.305 437.816 277.641 437.723 277.641 437.723C277.656 437.723 277.703 437.715 277.715 437.715C278.574 437.644 279.242 436.957 279.316 436.125C279.328 436.09 279.305 430.957 279.305 430.957" fill="#3c3c37" fill-rule="evenodd" opacity="1" stroke="none"/>
<path d="M232.113 442.828C231.922 442.844 231.758 442.933 231.625 443.047L217.902 454.035C217.234 454.629 216.859 455.484 216.875 456.375L216.988 462.465C217.027 462.945 217.445 463.301 217.926 463.265C218.137 463.246 218.313 463.148 218.48 463.023L222.715 460.047L222.605 486.234L222.605 486.23C222.605 486.234 222.641 486.609 222.641 486.609C222.734 487.398 223.332 488.058 224.156 488.141L224.273 488.152L231.41 488.086C232.242 488.031 232.953 487.418 233.039 486.558C233.047 486.496 233.051 486.355 233.051 486.355L233.051 443.785C233.051 443.785 233.055 443.68 233.051 443.629C233.012 443.148 232.59 442.793 232.113 442.832L232.113 442.828Z" fill="#3c3c37" fill-rule="evenodd" opacity="1" stroke="none"/>
<path d="M74.8521 427.309L32.3051 427.309L32.3201 425.321C32.3361 424.789 31.9921 424.414 31.5161 424.364C31.3401 424.344 31.1801 424.395 31.0351 424.469C31.0231 424.465 22.6521 431.082 22.6521 431.082C22.2701 431.364 21.9961 431.789 21.9451 432.297C21.9381 432.356 21.9341 432.411 21.9341 432.465C21.9341 433.004 22.2031 433.481 22.6021 433.805C22.6091 433.852 30.9101 440.071 30.9141 440.071C31.0351 440.164 31.1721 440.235 31.3361 440.25C31.8161 440.301 32.2421 439.954 32.2931 439.473C32.2971 439.438 32.2891 439.356 32.2891 439.352L32.3051 437.211L73.9061 437.211C74.6131 437.211 75.3711 436.594 75.4961 435.899C75.4961 435.899 76.4301 429.067 76.3981 428.985C76.3551 428.145 75.7151 427.395 74.8521 427.309" fill="#3c3c37" fill-rule="evenodd" opacity="1" stroke="none"/>
<path d="M57.2852 446.078C57.3832 445.121 56.6912 444.234 55.6292 444.168L48.9692 444.199C48.9532 444.195 48.8242 444.199 48.7702 444.199L48.4612 444.226C47.7112 444.355 47.0942 444.941 47.0122 445.738C47.0122 445.769 47.0162 445.84 47.0162 445.84L46.4412 486.379C46.4692 487.234 47.0942 487.969 47.9732 488.058C48.0592 488.066 48.2422 488.058 48.2422 488.058L55.5472 488.027C56.3552 487.949 57.0312 487.344 57.1212 486.504C57.1212 486.504 57.2812 446.133 57.2852 446.078" fill="#3c3c37" fill-rule="evenodd" opacity="1" stroke="none"/>
<path d="M454.332 261.219L451.336 274.098C449.473 282.102 438.078 282.105 436.211 274.105L433.211 261.262C432.023 256.188 426.277 253.696 421.766 256.301L393.309 272.73C388.129 275.719 388.129 283.191 393.309 286.18L439.93 313.102C442.336 314.489 445.293 314.489 447.695 313.102L494.32 286.18C499.5 283.191 499.5 275.719 494.32 272.73L465.781 256.254C461.266 253.645 455.516 256.141 454.332 261.219" fill="#c5c7c8" fill-rule="evenodd" opacity="1" stroke="none"/>
<path d="M384.262 346.141L396.918 342.297C404.782 339.91 410.481 349.773 404.485 355.395L394.864 364.414C391.063 367.977 391.778 374.199 396.289 376.805L424.746 393.234C429.926 396.223 436.395 392.488 436.395 386.512L436.395 332.672C436.395 329.898 434.918 327.336 432.512 325.949L385.891 299.027C380.711 296.039 374.242 299.777 374.242 305.754L374.242 338.711C374.242 343.926 379.274 347.656 384.262 346.141" fill="#c5c7c8" fill-rule="evenodd" opacity="1" stroke="none"/>
<path d="M503.363 346.141L490.711 342.297C482.847 339.91 477.148 349.773 483.14 355.395L492.765 364.414C496.566 367.977 495.851 374.199 491.34 376.805L462.879 393.234C457.703 396.223 451.23 392.488 451.23 386.512L451.23 332.672C451.23 329.898 452.711 327.336 455.113 325.949L501.738 299.027C506.918 296.039 513.386 299.777 513.386 305.754L513.386 338.711C513.386 343.926 508.351 347.656 503.363 346.141" fill="#c5c7c8" fill-rule="evenodd" opacity="1" stroke="none"/>
<path d="M488.191 456.863L494.644 451.258C495.636 450.34 496.203 449.047 496.203 447.691C496.203 447.691 496.207 428.859 496.203 428.824C496.128 427.922 495.363 427.258 494.476 427.25C494.468 427.242 487.402 427.25 487.39 427.254C486.527 427.324 485.894 428.019 485.828 428.855C485.812 428.898 485.726 444.625 485.718 444.695C485.539 446.441 484.101 447.734 482.398 447.804L482.39 447.808L471.793 447.988C471.793 447.988 471.808 428.91 471.804 428.855C471.796 428.769 471.711 428.476 471.683 428.402C471.636 428.277 471.574 428.172 471.5 428.062C471.449 427.984 471.222 427.738 471.164 427.691C470.906 427.472 470.601 427.304 470.242 427.269C470.183 427.261 469.875 427.277 469.863 427.277C469.863 427.277 462.925 427.301 462.855 427.316C462.73 427.336 462.617 427.363 462.504 427.406C462.441 427.433 462.39 427.468 462.332 427.5C462.199 427.574 462.074 427.648 461.961 427.754C461.902 427.812 461.859 427.879 461.808 427.941C461.734 428.035 461.656 428.117 461.605 428.222C461.492 428.429 461.41 428.652 461.398 428.894C461.394 428.906 461.351 447.781 461.351 447.781C461.351 447.781 450.941 447.793 450.855 447.781C449.14 447.605 447.839 446.222 447.73 444.562C447.726 444.543 447.73 429.195 447.73 429.195C447.742 428.164 447.125 427.398 446.175 427.301C446.148 427.297 446.054 427.293 446.031 427.293C446.031 427.293 438.816 427.289 438.816 427.293C438.398 427.336 438.035 427.543 437.753 427.832C437.628 427.965 437.515 428.101 437.433 428.265C437.343 428.437 437.281 428.629 437.257 428.836C437.257 428.84 437.253 428.91 437.253 428.933C437.25 428.933 437.226 450.062 437.226 450.07C437.187 451.195 437.343 452.234 437.527 452.968C437.531 452.972 437.535 452.98 437.535 452.988C437.675 453.425 437.859 453.851 438.078 454.254C438.125 454.34 438.187 454.418 438.238 454.504C438.421 454.812 438.617 455.113 438.843 455.394C438.957 455.531 439.086 455.652 439.211 455.785C439.398 455.984 439.586 456.187 439.8 456.367C439.98 456.523 440.179 456.656 440.378 456.797C440.558 456.922 440.734 457.05 440.925 457.164C441.164 457.304 441.421 457.418 441.679 457.531C441.855 457.609 442.027 457.687 442.211 457.754C442.488 457.851 442.773 457.922 443.066 457.988C443.191 458.019 443.304 458.066 443.429 458.09C443.484 458.101 443.535 458.113 443.589 458.121C443.726 458.144 443.851 458.187 443.988 458.203C444.128 458.218 444.859 458.273 445.089 458.273L461.836 458.273L461.839 477.742L450.851 477.742C450.66 477.742 450.453 477.664 450.25 477.586C448.847 477.187 447.843 475.949 447.742 474.496C447.738 474.449 447.742 466.441 447.742 466.441C447.742 465.633 446.804 464.976 445.992 464.98L438.867 465C438.062 465 437.242 465.828 437.242 466.633L437.273 480.832L437.308 480.867C437.359 484.566 440.14 487.73 443.914 488.117C444.308 488.16 444.699 488.164 445.086 488.14L445.093 488.152L488.402 488.152C492.453 488.175 495.921 485.445 496.168 481.547L496.179 462.254C496.203 461.797 495.871 461.394 495.406 461.347C495.156 461.32 494.921 461.41 494.746 461.566L486.765 468.836C486.125 469.433 485.757 469.961 485.757 470.84C485.757 470.84 485.742 474.316 485.742 474.332C485.738 474.429 485.75 474.519 485.742 474.617C485.566 476.312 484.199 477.593 482.558 477.726C482.519 477.73 471.558 477.742 471.558 477.742L471.554 458.269L484.609 458.269C485.937 458.269 487.218 457.765 488.191 456.863" fill="#c5c7c8" fill-rule="evenodd" opacity="1" stroke="none"/>
<path d="M418.156 457.703L418.16 457.699C420.972 454.902 422.883 451.164 423.32 446.91C424.328 437.109 417.199 428.351 407.398 427.344C406.699 427.269 406.008 427.242 405.32 427.25L380.293 427.25C379.457 427.266 378.703 428 378.617 428.848L377.965 435.797C377.867 436.754 378.629 437.707 379.644 437.707C379.91 437.707 406.285 437.703 406.332 437.707C410.324 437.762 413.113 441.676 412.933 445.844C412.754 449.922 409.082 452.519 404.828 452.445L386.347 452.629C385.316 452.699 384.785 453.328 384.64 454.015C384.617 454.055 383.742 461.058 383.742 461.058C383.683 461.969 384.371 462.828 385.304 462.883L406.402 463.023C410.261 463.094 413.422 467.074 413.004 471.137C412.617 474.89 409.629 477.687 405.804 477.687L379.484 477.687C378.535 477.715 377.84 478.562 377.785 479.598L377.136 486.621C377.093 487.508 377.828 488.098 378.734 488.144L405.687 488.18C414.679 488.137 422.383 481.32 423.324 472.168C423.894 466.601 421.836 461.371 418.156 457.703" fill="#c5c7c8" fill-rule="evenodd" opacity="1" stroke="none"/>
<path d="M528.336 429.066C528.328 429.058 517.176 427.332 517.176 427.332C517.176 427.332 516.91 427.308 516.816 427.316C516.516 427.343 516.254 427.461 516.02 427.617C515.977 427.629 510.707 431.992 510.688 432.031C510.316 432.339 510.086 432.785 510.07 433.289C510.051 433.324 510.063 444.211 510.063 444.211C510.102 444.687 510.524 445.054 511 445.007C511.277 444.98 511.574 444.726 511.77 444.543C511.77 444.543 528.867 430.488 528.871 430.48C529.02 430.312 529.102 430.086 529.082 429.839C529.047 429.429 528.731 429.125 528.336 429.066" fill="#c5c7c8" fill-rule="evenodd" opacity="1" stroke="none"/>
<path d="M563.535 444.734L534.894 444.734L534.754 444.738C533.898 444.808 533.269 445.496 533.195 446.324L533.16 453.492L533.168 453.547C533.238 454.422 533.953 455.062 534.805 455.113C534.805 455.113 556.566 455.129 556.578 455.129C557.887 455.086 559.164 455.777 559.801 457.019C560.09 457.589 560.191 458.199 560.16 458.793C560.16 458.804 560.152 474.082 560.152 474.097C560.152 474.136 560.144 474.171 560.144 474.207C560.168 475.5 559.484 476.75 558.258 477.375C557.672 477.675 557.043 477.781 556.43 477.734C556.359 477.738 545.047 477.75 545.047 477.75C545.047 477.75 544.945 477.757 544.906 477.761C544.019 477.832 543.375 478.558 543.336 479.425L543.402 486.636C543.504 487.429 544.203 488.047 544.973 488.16C544.973 488.16 563.254 488.183 563.441 488.148C566.996 487.933 570.051 485.203 570.43 481.547C570.461 481.238 570.437 480.941 570.43 480.64C570.43 480.621 570.437 480.601 570.437 480.586L570.609 451.808C570.609 450.078 569.961 448.707 569.012 447.504C567.719 445.863 565.789 444.734 563.535 444.734" fill="#c5c7c8" fill-rule="evenodd" opacity="1" stroke="none"/>
<path d="M572.492 430.957C572.597 429.109 571.242 427.484 569.383 427.293L569.109 427.277L534.863 427.273C534.851 427.273 534.785 427.273 534.758 427.277C533.898 427.348 533.23 428.035 533.156 428.863C533.148 428.887 533.156 436.012 533.156 436.012C533.156 436.031 533.152 436.102 533.156 436.121C533.219 436.934 533.863 437.598 534.676 437.707C535.492 437.816 570.828 437.723 570.828 437.723C570.844 437.723 570.89 437.715 570.902 437.715C571.762 437.644 572.43 436.957 572.504 436.125C572.515 436.09 572.492 430.957 572.492 430.957" fill="#c5c7c8" fill-rule="evenodd" opacity="1" stroke="none"/>
<path d="M525.297 442.828C525.11 442.844 524.945 442.933 524.813 443.047L511.09 454.035C510.422 454.629 510.047 455.484 510.063 456.375L510.172 462.465C510.215 462.945 510.633 463.301 511.113 463.265C511.324 463.246 511.5 463.148 511.668 463.023L515.899 460.047L515.793 486.234L515.789 486.23C515.789 486.234 515.828 486.609 515.828 486.609C515.922 487.398 516.52 488.058 517.344 488.141L517.461 488.152L524.594 488.086C525.43 488.031 526.137 487.418 526.227 486.558C526.231 486.496 526.238 486.355 526.238 486.355L526.238 443.785C526.238 443.785 526.238 443.68 526.234 443.629C526.199 443.148 525.777 442.793 525.297 442.832L525.297 442.828Z" fill="#c5c7c8" fill-rule="evenodd" opacity="1" stroke="none"/>
<path d="M368.035 427.309L325.492 427.309L325.504 425.321C325.523 424.789 325.18 424.414 324.703 424.364C324.527 424.344 324.367 424.395 324.222 424.469C324.211 424.465 315.84 431.082 315.84 431.082C315.457 431.364 315.183 431.789 315.129 432.297C315.125 432.356 315.121 432.411 315.121 432.465C315.121 433.004 315.39 433.481 315.789 433.805C315.793 433.852 324.097 440.071 324.097 440.071C324.222 440.164 324.359 440.235 324.523 440.25C325 440.301 325.43 439.954 325.476 439.473C325.48 439.438 325.476 439.356 325.476 439.352L325.492 437.211L367.094 437.211C367.801 437.211 368.558 436.594 368.683 435.899C368.683 435.899 369.617 429.067 369.586 428.985C369.543 428.145 368.902 427.395 368.035 427.309" fill="#c5c7c8" fill-rule="evenodd" opacity="1" stroke="none"/>
<path d="M350.473 446.078C350.571 445.121 349.879 444.234 348.817 444.168L342.157 444.199C342.141 444.195 342.008 444.199 341.957 444.199L341.649 444.226C340.895 444.355 340.282 444.941 340.2 445.738C340.196 445.769 340.2 445.84 340.2 445.84L339.629 486.379C339.653 487.234 340.282 487.969 341.16 488.058C341.243 488.066 341.43 488.058 341.43 488.058L348.731 488.027C349.543 487.949 350.219 487.344 350.305 486.504C350.305 486.504 350.465 446.133 350.473 446.078" fill="#c5c7c8" fill-rule="evenodd" opacity="1" stroke="none"/>
</g>
</g>
</g>
</svg>
