<svg viewBox="0 0 24 24" xmlns="http://www.w3.org/2000/svg"><path d="m13.814 1.042-.517 2.222c-.321 1.38-2.286 1.38-2.609 0l-.517-2.214A1.34 1.34 0 0 0 8.197.194L3.289 3.028a1.339 1.339 0 0 0 0 2.32L11.33 9.99c.414.24.925.24 1.34 0l8.041-4.643a1.34 1.34 0 0 0 0-2.32L15.788.186a1.34 1.34 0 0 0-1.975.856M1.73 15.69l2.183-.663c1.355-.411 2.34 1.29 1.305 2.26l-1.66 1.555a1.34 1.34 0 0 0 .246 2.137l4.909 2.834a1.34 1.34 0 0 0 2.009-1.16v-9.286c0-.479-.256-.92-.67-1.16L2.01 7.564A1.34 1.34 0 0 0 0 8.724v5.685c0 .9.868 1.543 1.729 1.281m20.543 0-2.183-.663c-1.356-.411-2.34 1.29-1.305 2.26l1.66 1.555a1.34 1.34 0 0 1-.247 2.137l-4.908 2.834a1.34 1.34 0 0 1-2.01-1.16v-9.286c0-.479.255-.92.67-1.16l8.042-4.643A1.34 1.34 0 0 1 24 8.724v5.685c0 .9-.868 1.543-1.728 1.281" fill="#f07c3f"/></svg>