<svg xmlns="http://www.w3.org/2000/svg" width="1187" height="480"><path style="fill:#f5812a;fill-opacity:1" d="M167.73 476.8c-15.965-3.55-26.16-14.862-27.898-30.958-2.84-26.29 12.823-42.98 40.399-43.048 7.748-.02 9.834.362 14.997 2.745 3.298 1.521 7.035 3.741 8.303 4.933 1.958 1.84 2.445 1.944 3.236.692.85-1.346.71-3.702-.657-11.107-.843-4.56-6.864-10.528-12.642-12.527-6.99-2.418-26.557-2.335-36.723.157-3.91.958-7.353 1.498-7.651 1.2-1.091-1.092 6.326-12.195 9.31-13.938 4.59-2.681 22.702-4.12 36.077-2.865 25.27 2.369 36.786 10.667 40.236 28.993.558 2.962 1.014 16.095 1.014 29.184 0 13.09.434 24.94.965 26.336.893 2.351 2.647 3.274 7.594 3.998 2.735.4 2.79 2.477.188 7.001-3.436 5.972-6.76 7.936-14.237 8.413-3.558.226-8.08.11-10.049-.26-3.888-.73-11.461-6.86-11.461-9.279 0-1.011-1.132-.493-3.537 1.618-9.692 8.51-23.71 11.77-37.463 8.712zm31.34-18.272c5.503-3.56 8.074-9.763 8.043-19.4-.02-6.092-.498-8.426-2.454-12-4.331-7.916-15.55-11.276-23.839-7.14-9.562 4.772-13.539 18.964-8.604 30.702 4.413 10.496 17.045 14.183 26.853 7.838zm95.558 18.135c-18.655-4.528-31.024-17.144-35.515-36.223-2.16-9.177-1.415-28.42 1.407-36.337 5.807-16.294 14.913-25.239 30.71-30.166 8.276-2.582 24.619-2.99 33.5-.836 19.294 4.677 31.892 18.563 35.651 39.294 4.567 25.182-4.658 49.406-22.516 59.125-11.182 6.087-30.088 8.335-43.237 5.143zm22.357-16.057c8.715-4.156 13.735-21.344 12.241-41.916-1.282-17.667-5.344-26.622-13.567-29.912-5.72-2.288-9.924-1.98-14.636 1.076-7.617 4.939-11.243 15.76-11.275 33.645-.038 21.563 4.302 34.103 13.003 37.575 3.798 1.515 10.54 1.293 14.234-.468zM431.731 476.8c-6.616-1.471-12.657-4.496-17.118-8.57l-3.297-3.012-1.817 2.87c-.999 1.577-3.596 4.046-5.77 5.485-3.435 2.273-4.978 2.612-11.727 2.575-8.976-.048-12.855-1.65-16.735-6.91-4.075-5.522-3.105-9.048 2.489-9.048 1.024 0 2.562-1 3.418-2.222 1.358-1.94 1.557-8.545 1.557-51.778 0-55.862.38-53.12-7.63-55.137-4.195-1.056-4.471-1.324-3.866-3.75 1.79-7.174 10.532-13.113 19.304-13.113 11.39 0 19.763 5.192 22.132 13.723.577 2.077 1.051 10.642 1.054 19.033l.006 15.257 4.073-2.95c6.682-4.841 13.13-6.566 24.427-6.536 18.816.05 31.914 7.528 39.54 22.575 8.384 16.542 7.636 44.832-1.603 60.597-6.527 11.136-16.197 18.296-28.128 20.824-8.093 1.714-12.895 1.735-20.309.087zm12.132-18.479c7.807-4.95 11.216-14.837 11.254-32.63.055-25.334-7.22-38.5-21.271-38.5-6.305 0-8.995 1.033-12.931 4.97-5.427 5.426-7.801 12.306-8.712 25.249-1.911 27.142 6.398 43.599 22.082 43.736 3.896.034 6.091-.613 9.578-2.825zm87.892 18.332c-16.212-4.552-25.808-16.957-26.8-34.645-.853-15.24 6.502-28.613 19.313-35.109 5.336-2.706 18.42-4.93 24.85-4.225 7.813.858 15.958 4.002 20.346 7.855l3.57 3.134-.511-7.141c-.926-12.934-6.89-18.498-21.994-20.519-6.975-.933-10.39-.84-19.86.538-6.291.915-12.45 1.939-13.688 2.273-1.608.436-2.25.179-2.25-.898 0-2.465 6.458-11.087 9.741-13.006 4.42-2.583 22.504-3.97 36.145-2.773 22.569 1.98 33.815 9.098 38.793 24.553 1.261 3.917 1.705 10.847 2.05 32 .494 30.326.617 30.876 7.141 31.978 3.763.636 3.911.799 3.145 3.468-2.35 8.193-8.456 12.054-19.063 12.054-5.99 0-8.044-.45-11.614-2.542-2.386-1.398-4.352-2.86-4.37-3.25-.017-.39-.67-1.55-1.45-2.58-1.356-1.792-1.636-1.712-6.498 1.858-2.795 2.051-7.315 4.578-10.045 5.616-6.958 2.643-20.03 3.304-26.95 1.36zm30.976-17.076c7.066-3.805 9.946-9.58 9.978-20.015.025-8.102-1.547-12.696-5.646-16.5-4.236-3.93-6.658-4.872-12.516-4.868-11.015.008-17.671 7.24-18.6 20.208-.418 5.851-.13 7.445 2.213 12.234 2.87 5.864 6.836 9.387 11.936 10.599 3.771.896 9.218.182 12.635-1.658zm101 17.987c-22.438-4.325-35.857-18.342-39.639-41.403-3.401-20.738 2.261-41.152 14.454-52.115 16.917-15.21 48.325-16.959 68.046-3.79 13.758 9.187 20.094 23.347 20.124 44.974.036 25.79-10.565 42.6-31.566 50.052-4.362 1.548-8.944 2.187-17.42 2.432-6.324.182-12.624.115-14-.15zM684 459.653c7.397-5.027 10.742-15.925 10.713-34.897-.032-20.013-4.15-31.5-12.802-35.71-8.4-4.086-17.455-.668-21.934 8.28-2.725 5.443-3.1 7.135-4.142 18.664-1.46 16.15 1.213 33.52 6.118 39.756 5.416 6.886 15.13 8.607 22.047 3.907zm65.948 16.874c-10.344-5.099-10.539-20.416-.332-26.153 4.939-2.775 9.57-2.75 14.51.083 6.915 3.964 9.264 11.544 6.059 19.554-2.837 7.09-12.657 10.252-20.237 6.516zm74.557.137c-8.565-1.705-19.23-7.298-25.09-13.158-12.38-12.379-17.731-34.864-12.657-53.175 2.92-10.536 6.45-16.838 13.049-23.295 9.937-9.724 25.684-15.73 41.423-15.798 7.365-.032 21.946 3.247 30.768 6.92 7.52 3.13 7.732 3.313 7.732 6.658 0 4.575-2.248 9.734-5.117 11.743-1.35.946-4.301 1.631-7.025 1.631-4.217 0-5.242-.495-10.028-4.848-7.088-6.447-9.038-7.352-15.83-7.352-12.95 0-21.651 10.064-24.154 27.935-2.985 21.313 5.785 42.568 19.089 46.264 6.305 1.751 14.575 1.164 22.59-1.604 8.625-2.978 12.834-2.716 17.221 1.073l2.754 2.378-2.888 3.026c-3.95 4.138-14.983 9.768-22.715 11.59-7.733 1.823-19.995 1.828-29.122.012zm106.488.012c-17.46-3.793-31.13-17.484-35.432-35.486-1.694-7.088-1.638-25.922.097-33 1.994-8.132 7.27-17.892 12.46-23.05 13.327-13.24 39.547-17.673 59.262-10.018 13.146 5.105 21.228 13.183 26.58 26.568 3.073 7.689 3.2 8.564 3.234 22.5.03 12.518-.277 15.434-2.254 21.334-5.48 16.35-16.33 26.425-33.12 30.755-8.696 2.243-21.569 2.409-30.827.397zm24.68-17.446c7.03-5.005 10.777-20.324 9.792-40.03-.689-13.786-3.555-22.71-8.821-27.469-8.454-7.637-20.563-5.136-25.822 5.335-3.45 6.87-4.595 14.129-4.512 28.624.112 19.762 3.068 28.623 11.444 34.315 4.585 3.116 12.964 2.754 17.92-.775zM85.53 474.83c-1.486-.66-3.891-2.31-5.345-3.67-5.566-5.2-5.453-4.055-5.453-55.23 0-46.281-.047-47.412-2.039-49.55-1.914-2.055-2.916-2.189-16.333-2.189-7.862 0-16.855.514-19.985 1.143-3.13.629-5.952.882-6.271.562-.32-.319.634-3.062 2.118-6.096 2.713-5.544 6.868-9.582 11.51-11.184 1.375-.475 25-.903 52.5-.953 31.479-.056 51.574-.48 54.25-1.146 5.32-1.323 5.532-.095 1.272 7.334-5.13 8.943-7.077 9.76-24.671 10.34-13.166.435-15.43.754-17.29 2.44-2.133 1.935-2.14 2.09-1.85 45.171l.289 43.23 2.359 2.51c1.338 1.424 4.035 2.793 6.232 3.164 3.832.648 3.858.683 2.476 3.32-2.043 3.9-7.526 8.838-11.785 10.614-4.439 1.852-17.976 1.968-21.984.19zm935.895.72c-.381-.38-.693-18.864-.693-41.073v-40.381l-2.646-2.453c-1.455-1.348-3.444-2.452-4.418-2.452-5.636 0-6.296-2.822-2.038-8.7 3.623-5.002 9.095-7.3 17.379-7.3 8.293 0 12.41 1.305 16.439 5.21 2.815 2.728 3.617 3.05 5.064 2.032 11.796-8.3 23.366-10.87 37.157-8.254 6.981 1.324 11.565 3.619 16.38 8.2 2.205 2.096 4.185 3.812 4.4 3.812.215 0 1.83-1.383 3.587-3.072 7.02-6.75 20.059-10.605 32.196-9.52 10.52.941 16.187 3.18 21.47 8.486 7.726 7.759 8.296 10.644 9.01 45.606.336 16.5.983 30.804 1.437 31.786.453.983 2.819 2.32 5.257 2.972 4.037 1.08 4.378 1.41 3.834 3.714-.768 3.245-3.397 6.856-6.893 9.466-2.329 1.739-4.228 2.062-12.115 2.062-10.847 0-13.321-1.214-17.5-8.588-2.495-4.402-2.501-4.484-3-37.412-.46-30.316-.657-33.26-2.43-36.19-3.028-5.004-7.034-6.64-15.014-6.133-6.3.402-7.06.704-10.11 4.034-1.815 1.98-3.78 5.33-4.367 7.445-.667 2.402-1.07 17.63-1.073 40.594l-.01 36.75h-14.5c-10.921 0-14.506-.308-14.524-1.25-.013-.687 0-17.225.022-36.75.049-38.64-.478-43.284-5.447-47.952-4.75-4.462-17.582-4.028-22.13.748-4.828 5.068-4.894 5.633-5.421 46.204l-.5 38.5-14.057.276c-7.732.152-14.369-.035-14.75-.416zm99.307-181.883c-17.195-2.692-34.822-8.333-50.132-16.042l-7.09-3.57.648-7.682c.922-10.936 1.706-17.624 2.114-18.045.194-.2 4.311 1.338 9.15 3.416 9.259 3.977 19.131 5.454 26.818 4.012 5.36-1.006 11.93-7.94 13.95-14.722 2.648-8.894 3.582-31.812 3.476-85.343-.055-28.05-.042-52.912.03-55.25.073-2.429-.33-4.25-.94-4.25-.588 0-3.514 3.713-6.503 8.25-6.799 10.322-15.447 22.525-22.261 31.414-2.882 3.76-5.245 7.138-5.25 7.506-.01.37 4.603 4.465 10.24 9.103 9.736 8.01 22.75 20.919 22.75 22.566 0 .422-4.36 4.343-9.69 8.714-8.265 6.778-17.026 14.21-29.551 25.07-1.508 1.308-2.935 2.377-3.172 2.377-.237 0-3.706-4.837-7.708-10.75-7.441-10.993-12.83-18.36-14.084-19.25-.386-.275-5.561 4.241-11.499 10.035-15.077 14.714-30.684 28.226-38.93 33.705a863.486 863.486 0 0 0-7.366 5.023c-5.227 3.595-9.475 6.221-16.737 10.349l-3.238 1.84-9.044-11.978c-4.975-6.587-9.293-12.625-9.597-13.416-.374-.975 1.132-2.345 4.671-4.248 2.873-1.546 5.948-3.265 6.834-3.822 22.058-13.857 41.476-32 58.408-54.573l2.688-3.584-5.16-5.916c-6.07-6.956-24.869-25.415-25.885-25.415-.387 0-1.97 1.688-3.518 3.75-1.549 2.063-4.865 5.909-7.369 8.548-2.504 2.638-4.669 5.122-4.81 5.52-.14.397.984 2.094 2.5 3.771 10.044 11.111 18.083 21.84 17.159 22.903-.221.253-7.827 7.925-16.902 17.047-13.77 13.843-16.666 16.318-17.5 14.963-.55-.894-2.923-4.635-5.273-8.313-2.35-3.679-5.896-9.276-7.88-12.439-1.985-3.162-4.155-5.75-4.823-5.75-.668 0-2.071.967-3.12 2.15-2.25 2.539-31.772 28.26-35.422 30.861l-2.518 1.795-6.765-6.442c-3.721-3.542-7.2-6.172-7.732-5.843-.599.37-.967 17.329-.967 44.538v43.941h-60v-257h60v9.941c0 5.468.402 10.19.893 10.493.492.304 2.63-.08 4.75-.853 67.08-24.452 113.924-34.587 159.8-34.576 50.52.012 83.88 11.9 105.758 37.684 6.945 8.186 11.513 22.013 12.82 38.807 1.174 15.089 1.178 93.084.01 129.504-.906 28.145-2.182 38.963-6.012 50.95-5.287 16.551-16.133 26.537-31.567 29.064-7.243 1.186-8.687 1.147-19.449-.538zM902.37 169.868c9.162-6.757 27.36-26.204 27.36-29.239 0-.754-3.383-5.403-7.518-10.331-6.622-7.893-10.945-12.111-21.777-21.25l-2.796-2.358 7.796-10.185c4.287-5.602 8.375-10.215 9.083-10.25 1.378-.07 16.142 9.557 25.212 16.439 3.025 2.295 6.7 4.947 8.165 5.894l2.665 1.721 4.683-8.59c4.118-7.556 14.775-30.103 18.949-40.092l1.47-3.518 22.284 11.178c12.256 6.148 22.483 11.354 22.727 11.567.244.214-.978 3.842-2.716 8.063-1.737 4.221-3.062 7.722-2.943 7.78.924.454 24.25 15.46 28.118 18.09 2.696 1.833 5.275 3.103 5.731 2.82 2.79-1.723 14.191-32.07 18.96-50.463 1.776-6.85 3.37-12.63 3.544-12.847.361-.45 7.204 3.506 29.792 17.221 8.761 5.32 16.365 9.672 16.897 9.672 1.596 0 .048-22.813-1.934-28.5-2.365-6.787-10.383-14.576-18.095-17.577-8.115-3.158-29.093-3.812-46.413-1.448-47.384 6.468-113.112 25.69-154.634 45.224l-3.25 1.529v46.886c0 39.36.223 46.886 1.39 46.886.764 0 4.027-1.945 7.25-4.322zM274.73 293.537c-15.352-2.34-22.644-3.68-25.411-4.667l-3.307-1.18 3.228-13.285c1.775-7.307 3.399-13.448 3.609-13.647.21-.2 6.23.983 13.38 2.627 28.024 6.442 46.18 2.374 56.26-12.604 6.95-10.33 6.74-7.406 6.74-94.09v-78l-2.419-7.212c-3.983-11.87-12.443-19.947-25.188-24.047-6.837-2.199-35.708-2.448-46.392-.4-16.822 3.224-53.357 13.44-57.382 16.045-1.345.87 4.818 3.15 12.87 4.76 1.68.337 3.285.986 3.569 1.445.815 1.32-4.018 10.085-9.517 17.26-2.772 3.617-5.04 6.813-5.04 7.104 0 .29 25.762.644 57.25.786l57.25.258v24l-32.75.264-32.75.263v27.946l32.75.263 32.75.264v24l-32.75.264-32.75.263v23.987c0 18.53.284 23.983 1.25 23.972 1.634-.02 20.677-9.4 23.2-11.43 1.928-1.551 1.924-1.664-.363-10.312-1.272-4.81-2.519-9.65-2.77-10.756-.411-1.802 1.135-2.516 14.75-6.812 8.366-2.64 15.564-4.434 15.997-3.987.432.446 3.259 6.886 6.28 14.311a6509.194 6509.194 0 0 0 10.659 26c6.938 16.796 9.078 23 7.932 23-.527 0-9.047 3.375-18.935 7.5-9.888 4.125-18.146 7.5-18.352 7.5-.207 0-1.64-4.938-3.186-10.973-1.546-6.036-3.132-11.492-3.523-12.126-.492-.795-2.066-.23-5.076 1.825-14.845 10.133-38.061 19.188-58.363 22.764-19.73 3.475-52.612 4.701-65.066 2.426-24.688-4.509-37.63-25.312-36.034-57.916.31-6.325.85-12.512 1.198-13.75l.635-2.25h47.818l-.668 13.304c-.748 14.908.015 18.877 4.39 22.83 3.383 3.059 11.126 5.697 17.727 6.04l5 .26.266-27.717.266-27.717H126.73v-25h9.469c7.196 0 9.338-.3 8.927-1.25-.298-.687-4.334-4.383-8.969-8.212-4.635-3.83-8.415-7.205-8.4-7.5.015-.296 1.385-2.113 3.045-4.038 5.581-6.473 16.038-20.937 20.622-28.524.656-1.087 3.735-6.172 6.84-11.301 3.107-5.13 5.444-9.53 5.195-9.78-.25-.248-4.78 1.411-10.067 3.689-8.65 3.725-10.189 4.807-15.334 10.778-7.487 8.69-18.485 20.42-20.125 21.464-.844.538-6.504-2.163-16.243-7.75-8.22-4.717-15.4-8.576-15.953-8.576-2.139 0-.836-2.76 3.092-6.547 16.732-16.137 34.696-47.164 46.09-79.608l3.04-8.654 7.135 2.022c3.925 1.113 8.486 2.363 10.136 2.778 3.868.974 28.604 7.934 30.27 8.517.885.31-.408 3.792-4.258 11.468-6.291 12.544-6.499 12.206 5.488 8.923 17.313-4.743 45.922-10.298 63.994-12.427 16.342-1.925 47.714-1.92 59.506.009 23.635 3.867 39.493 10.78 52.116 22.718 12.072 11.417 16.138 22.218 18.936 50.301.383 3.85.845 7.814 1.026 8.807 1.228 6.745 2.565 51.316 2.017 67.193-.728 21.04-3.078 52.454-4.678 62.5-5.077 31.898-26.48 52.554-60.622 58.508-7.848 1.369-37.177 1.924-44.295.839zm-81-160.347v-14l-8.75.1-8.75.1-13.402 13.9-13.402 13.9h44.304v-14zM43.23 280.68c-5.5-3.538-12.7-8.043-16-10.01-3.3-1.967-9.6-5.823-14-8.57s-8.675-5.415-9.5-5.928c-1.19-.741 2.162-4.511 16.186-18.208 28.86-28.187 45.76-47.603 52.033-59.774 7.87-15.272 2.455-29.34-15.442-40.121-3.998-2.409-12.896-7.918-19.773-12.243-6.877-4.325-13.739-8.6-15.248-9.5-1.509-.9-2.746-1.96-2.75-2.357-.003-.397 2.806-5.03 6.244-10.296 3.437-5.266 8.05-12.335 10.25-15.71 2.2-3.373 4.456-6.28 5.013-6.457.557-.179 6.182 3.563 12.5 8.314 15.108 11.362 15.345 11.562 30.743 26.066 11.726 11.045 13.677 13.36 16.898 20.057 4.864 10.113 5.57 20.76 2.395 36.138-3.99 19.333-9.53 34.6-21.81 60.11-6.43 13.357-11.847 24.886-21.014 44.727-2.599 5.626-5.175 10.221-5.725 10.213-.55-.01-5.5-2.912-11-6.45zm392.725-15.24.275-15.75 67.75-.257 67.75-.257V177.19h-94.06l.28-12.75.28-12.75 46.75-.26 46.75-.26v-29.98H490.858l-.314 3.25-.313 3.25h-54v-95h54l.3 5.757c.279 5.352.455 5.721 2.5 5.257 1.987-.451 52.78-6.45 68.7-8.114 11.608-1.213 11-.362 11-15.39V7.16l30.25.265 30.25.265.286 10.375.287 10.375 5.713-.621c17.343-1.887 37.182-2.915 56.714-2.939 64.168-.079 90.787 12.474 90.787 42.81 0 5.884-.591 9.535-2.235 13.804-3.098 8.04-10.613 18.914-18.72 27.08-7.315 7.371-24.118 20.873-25.388 20.401-.422-.156-3.845-3.208-7.606-6.78-6.73-6.392-6.843-6.451-7.155-3.75l-.316 2.745H633.731v29.982l52.75.26 52.75.258.28 12.75.28 12.75H633.73v72h144v32H435.68l.276-15.75zm275.73-174.287c16.902-12.293 21.372-22.745 13.342-31.2-3.738-3.936-8.848-6.45-17.026-8.376-9.371-2.207-53.14-1.377-79.829 1.514-41.53 4.499-87.898 11.413-121.122 18.061-8.35 1.671-15.437 3.038-15.75 3.038-.314 0-.57 4.95-.57 11v11h214.031l6.925-5.037zm-20.725 151.549c-15.62-4.39-24.21-14.683-24.21-29.012 0-12.191 5.995-21.327 17.794-27.116 5.002-2.454 6.83-2.791 15.186-2.802 7.806-.01 10.48.411 15 2.362 6.429 2.775 12.012 7.742 15.8 14.056 2.406 4.01 2.698 5.48 2.679 13.5-.019 8.076-.312 9.49-2.857 13.771-7.487 12.593-24.874 19.32-39.392 15.24zm-626.73-174.2c-6.992-.903-15.612-4.762-19.973-8.94-6.666-6.388-9.812-13.337-9.76-21.561.106-17.047 13.153-29.64 31.716-30.615 10.32-.541 17.118 1.32 24.73 6.77 14.679 10.512 16.113 32.364 2.94 44.8-5.047 4.765-11.77 7.966-19.291 9.187-3.5.567-6.587.968-6.862.89-.275-.078-1.85-.317-3.5-.53z"/></svg>