<?xml version="1.0" encoding="UTF-8" standalone="no"?>
<!-- Created with Inkscape (http://www.inkscape.org/) -->

<svg
   xmlns:dc="http://purl.org/dc/elements/1.1/"
   xmlns:cc="http://creativecommons.org/ns#"
   xmlns:rdf="http://www.w3.org/1999/02/22-rdf-syntax-ns#"
   xmlns:svg="http://www.w3.org/2000/svg"
   xmlns="http://www.w3.org/2000/svg"
   xmlns:sodipodi="http://sodipodi.sourceforge.net/DTD/sodipodi-0.dtd"
   xmlns:inkscape="http://www.inkscape.org/namespaces/inkscape"
   id="svg3039"
   version="1.1"
   inkscape:version="0.48.1 r9760"
   width="1187"
   height="480"
   sodipodi:docname="Taobao_Marketplace_Logo.jpg">
  <metadata
     id="metadata3045">
    <rdf:RDF>
      <cc:Work
         rdf:about="">
        <dc:format>image/svg+xml</dc:format>
        <dc:type
           rdf:resource="http://purl.org/dc/dcmitype/StillImage" />
        <dc:title></dc:title>
      </cc:Work>
    </rdf:RDF>
  </metadata>
  <defs
     id="defs3043" />
  <sodipodi:namedview
     pagecolor="#ffffff"
     bordercolor="#666666"
     borderopacity="1"
     objecttolerance="10"
     gridtolerance="10"
     guidetolerance="10"
     inkscape:pageopacity="0"
     inkscape:pageshadow="2"
     inkscape:window-width="1366"
     inkscape:window-height="695"
     id="namedview3041"
     showgrid="false"
     inkscape:zoom="0.64931287"
     inkscape:cx="319.36405"
     inkscape:cy="240"
     inkscape:window-x="0"
     inkscape:window-y="25"
     inkscape:window-maximized="1"
     inkscape:current-layer="svg3039" />
  <path
     style="fill:#f5812a;fill-opacity:1"
     d="m 167.73091,476.79961 c -15.96575,-3.54986 -26.16003,-14.86175 -27.89887,-30.95745 -2.84019,-26.29046 12.82249,-42.98044 40.39887,-43.04859 7.74837,-0.0191 9.83401,0.36259 14.99705,2.74493 3.29838,1.52195 7.03459,3.74188 8.30267,4.93319 1.95882,1.8402 2.44563,1.94433 3.23642,0.69222 0.84991,-1.34572 0.71047,-3.70213 -0.65723,-11.10654 -0.8425,-4.56106 -6.8642,-10.5281 -12.64167,-12.52692 -6.98992,-2.41828 -26.55746,-2.33502 -36.72331,0.15625 -3.90974,0.95813 -7.35262,1.49806 -7.65084,1.19984 -1.09112,-1.09113 6.32613,-12.19484 9.31036,-13.93772 4.59043,-2.68096 22.70149,-4.11937 36.07655,-2.86527 25.27065,2.36948 36.78627,10.66735 40.23601,28.99305 0.5577,2.96257 1.01399,16.09577 1.01399,29.1849 0,13.08913 0.43408,24.94014 0.96463,26.33558 0.89382,2.35092 2.64737,3.27407 7.59419,3.99793 2.73518,0.40024 2.7911,2.47746 0.18846,7.00108 -3.43594,5.97198 -6.76054,7.9364 -14.23734,8.41249 -3.55768,0.22654 -8.07968,0.10963 -10.04889,-0.2598 -3.88752,-0.7293 -11.46105,-6.86068 -11.46105,-9.27862 0,-1.0113 -1.13187,-0.49344 -3.53692,1.61822 -9.69234,8.50999 -23.70919,11.7693 -37.46308,8.71123 z m 31.33838,-18.27162 c 5.50324,-3.56031 8.07495,-9.76317 8.04334,-19.4002 -0.02,-6.09141 -0.49716,-8.42548 -2.45327,-12 -4.33178,-7.91576 -15.55059,-11.27571 -23.83914,-7.13965 -9.5618,4.77143 -13.53925,18.96389 -8.60427,30.70197 4.41274,10.49591 17.04541,14.1831 26.85334,7.83788 z m 95.55825,18.13529 c -18.65463,-4.52836 -31.02344,-17.14409 -35.5142,-36.22315 -2.16015,-9.17747 -1.41536,-28.41999 1.40645,-36.33719 5.8074,-16.29392 14.91359,-25.2386 30.71112,-30.16643 8.27499,-2.58128 24.61792,-2.98887 33.5,-0.8355 19.29292,4.67738 31.89143,18.56348 35.65055,39.29411 4.56626,25.18182 -4.65882,49.40615 -22.51601,59.12525 -11.18254,6.0863 -30.08805,8.33501 -43.23791,5.14291 z m 22.35789,-16.0575 c 8.71506,-4.15592 13.73462,-21.34381 12.24107,-41.91567 -1.28264,-17.66686 -5.34444,-26.62188 -13.56745,-29.91208 -5.71939,-2.28844 -9.92407,-1.97939 -14.63583,1.07578 -7.61687,4.93887 -11.24329,15.76018 -11.27495,33.64475 -0.0382,21.56304 4.30159,34.10368 13.0032,37.57551 3.79714,1.51501 10.54014,1.29317 14.23396,-0.46829 z m 114.74548,16.19383 c -6.61542,-1.47089 -12.65704,-4.49563 -17.11817,-8.57025 l -3.29698,-3.01133 -1.81663,2.86917 c -0.99915,1.57805 -3.59609,4.04677 -5.77099,5.48604 -3.43367,2.2723 -4.97764,2.61135 -11.72579,2.57495 -8.97637,-0.0484 -12.85511,-1.6498 -16.73561,-6.90951 -4.07463,-5.52286 -3.10471,-9.04857 2.48925,-9.04857 1.02383,0 2.56203,-1.00013 3.41822,-2.22251 1.35809,-1.93895 1.5567,-8.54482 1.5567,-51.77749 0,-55.86189 0.37942,-53.12026 -7.63054,-55.13719 -4.1947,-1.05624 -4.47079,-1.32408 -3.86554,-3.75014 1.78981,-7.17428 10.53195,-13.11267 19.30368,-13.11267 11.38978,0 19.76323,5.19178 22.13227,13.72267 0.57694,2.07753 1.05149,10.64265 1.05455,19.0336 l 0.006,15.25627 4.0722,-2.94988 c 6.6826,-4.84086 13.13072,-6.56613 24.4278,-6.53594 18.81576,0.0503 31.91365,7.52838 39.53986,22.57491 8.38416,16.54197 7.63558,44.83187 -1.60345,60.5971 -6.5265,11.13661 -16.19687,18.29584 -28.1281,20.82393 -8.09226,1.71467 -12.89469,1.7352 -20.30831,0.0868 z m 12.13257,-18.47862 c 7.80605,-4.95045 11.21594,-14.8374 11.254,-32.63088 0.0542,-25.33329 -7.22061,-38.5 -21.27181,-38.5 -6.30454,0 -8.99499,1.03407 -12.9309,4.96998 -5.42702,5.42703 -7.80094,12.30727 -8.71204,25.2498 -1.9107,27.14235 6.39823,43.59888 22.0824,43.73602 3.89614,0.0341 6.09084,-0.6132 9.57835,-2.82492 z m 87.89167,18.33183 c -16.21205,-4.55139 -25.80824,-16.95694 -26.79939,-34.64512 -0.85399,-15.24034 6.50155,-28.61234 19.31218,-35.10861 5.33631,-2.70604 18.4197,-4.93042 24.84944,-4.22479 7.81384,0.85752 15.95835,4.00166 20.34677,7.85475 l 3.56933,3.1339 -0.51096,-7.14134 c -0.92537,-12.93327 -6.88951,-18.49748 -21.99309,-20.51832 -6.97541,-0.9333 -10.39046,-0.84086 -19.86119,0.5376 -6.29053,0.91558 -12.44983,1.9387 -13.68733,2.27359 -1.60755,0.43503 -2.25,0.17847 -2.25,-0.89855 0,-2.46458 6.45819,-11.08695 9.74123,-13.00557 4.41982,-2.58295 22.50415,-3.97078 36.14444,-2.77379 22.56901,1.98051 33.81517,9.09862 38.793,24.55354 1.2617,3.91724 1.70572,10.84689 2.05043,32 0.49418,30.32562 0.61706,30.87584 7.14144,31.97813 3.76289,0.63573 3.91051,0.79849 3.14504,3.46756 -2.34977,8.19317 -8.45616,12.05431 -19.06388,12.05431 -5.98898,0 -8.04328,-0.44967 -11.61384,-2.54215 -2.38582,-1.39819 -4.35217,-2.86069 -4.36966,-3.25 -0.0175,-0.38932 -0.66981,-1.55033 -1.44959,-2.58003 -1.35671,-1.79155 -1.63661,-1.71154 -6.49899,1.85778 -2.79467,2.05147 -7.31474,4.57863 -10.04461,5.6159 -6.95744,2.64361 -20.03084,3.30392 -26.95077,1.36121 z m 30.97576,-17.07608 c 7.06658,-3.80485 9.94589,-9.58033 9.97804,-20.01451 0.025,-8.10235 -1.54703,-12.69624 -5.64613,-16.49993 -4.23553,-3.93028 -6.65804,-4.87257 -12.51617,-4.86845 -11.01433,0.008 -17.67094,7.24028 -18.59877,20.20794 -0.41866,5.85125 -0.13043,7.4449 2.21258,12.23385 2.86926,5.86456 6.83578,9.38712 11.93513,10.59926 3.77157,0.89652 9.21812,0.18176 12.63532,-1.65816 z m 101,17.98684 c -22.43746,-4.32482 -35.85692,-18.34132 -39.6389,-41.40243 -3.40099,-20.73806 2.261,-41.15233 14.4544,-52.11525 16.91623,-15.20914 48.32509,-16.95856 68.04517,-3.79 13.75847,9.18756 20.09422,23.34662 20.12455,44.97411 0.0362,25.78974 -10.5653,42.5997 -31.56595,50.05181 -4.36248,1.54803 -8.94381,2.18767 -17.41927,2.43205 -6.325,0.18237 -12.625,0.11475 -14,-0.15029 z m 20.27004,-17.911 c 7.39665,-5.02615 10.74236,-15.92476 10.7126,-34.89613 -0.0314,-20.01372 -4.14928,-31.50101 -12.80108,-35.7101 -8.3997,-4.08644 -17.4554,-0.66796 -21.93456,8.28018 -2.72448,5.44276 -3.09989,7.1343 -4.142,18.66319 -1.4599,16.15103 1.21307,33.52114 6.11788,39.7566 5.41634,6.88576 15.12975,8.60676 22.04716,3.90626 z m 65.94814,16.87445 c -10.34454,-5.09862 -10.53895,-20.41617 -0.33194,-26.15283 4.93856,-2.77562 9.57044,-2.74933 14.50966,0.0824 6.91545,3.96468 9.26407,11.5444 6.05907,19.55448 -2.83705,7.09049 -12.65642,10.2522 -20.23679,6.51599 z m 74.55688,0.13681 c -8.56534,-1.70459 -19.23038,-7.29747 -25.09085,-13.15794 -12.3785,-12.3785 -17.73028,-34.86389 -12.65614,-53.17453 2.91985,-10.53664 6.44969,-16.83839 13.04863,-23.29545 9.93735,-9.7237 25.68467,-15.72932 41.4233,-15.79778 7.36534,-0.032 21.94593,3.24713 30.76774,6.91966 7.51995,3.13056 7.73226,3.31337 7.73226,6.65775 0,4.5751 -2.24793,9.73438 -5.11687,11.74387 -1.35016,0.94568 -4.30118,1.63069 -7.02505,1.63069 -4.21691,0 -5.24166,-0.49542 -10.02749,-4.84785 -7.08886,-6.44689 -9.03806,-7.35215 -15.83059,-7.35215 -12.94944,0 -21.65137,10.06404 -24.15406,27.93491 -2.98474,21.31298 5.78519,42.56782 19.08871,46.26349 6.30506,1.75153 14.57577,1.16455 22.59075,-1.60327 8.62448,-2.9783 12.83382,-2.71617 17.22066,1.07236 l 2.75394,2.37835 -2.88779,3.02562 c -3.94985,4.13837 -14.98337,9.76852 -22.71532,11.5911 -7.73297,1.82282 -19.99494,1.82752 -29.12183,0.0112 z m 106.4876,0.0122 c -17.46041,-3.79346 -31.13039,-17.48436 -35.43167,-35.48593 -1.69358,-7.08793 -1.63798,-25.92232 0.0974,-33 1.99402,-8.13243 7.27027,-17.8926 12.46037,-23.04958 13.32587,-13.24082 39.54659,-17.6736 59.26105,-10.01845 13.14607,5.10464 21.22803,13.18309 26.57956,26.56803 3.07411,7.6888 3.19993,8.56404 3.23457,22.5 0.0311,12.51764 -0.27707,15.43425 -2.25418,21.33358 -5.47966,16.3503 -16.32875,26.42488 -33.11974,30.75536 -8.69601,2.24274 -21.5686,2.40849 -30.82738,0.39695 z m 24.68107,-17.44582 c 7.02919,-5.00523 10.77628,-20.32392 9.79159,-40.02957 -0.68895,-13.78712 -3.5548,-22.71124 -8.82136,-27.46927 -8.45407,-7.63774 -20.56272,-5.13623 -25.82205,5.33456 -3.45046,6.86952 -4.59474,14.12873 -4.51206,28.62421 0.11271,19.7617 3.06782,28.6226 11.44395,34.3147 4.58558,3.1162 12.96443,2.754 17.91993,-0.77463 z M 85.529181,474.82855 c -1.485951,-0.65951 -3.891208,-2.31046 -5.345014,-3.66878 -5.566338,-5.20071 -5.453256,-4.05541 -5.453256,-55.23144 0,-46.28047 -0.04652,-47.41103 -2.038955,-49.54966 -1.913824,-2.05425 -2.916196,-2.18856 -16.333219,-2.18856 -7.861845,0 -16.855038,0.51428 -19.984873,1.14284 -3.129836,0.62856 -5.951751,0.8817 -6.270922,0.56252 -0.319171,-0.31917 0.63411,-3.06249 2.118402,-6.09628 2.712533,-5.54422 6.867721,-9.58197 11.509567,-11.18428 1.375,-0.47463 25,-0.90324 52.5,-0.95246 31.478719,-0.0563 51.574309,-0.48109 54.249999,-1.14665 5.3193,-1.32312 5.53243,-0.0944 1.27207,7.33382 -5.12928,8.94326 -7.07746,9.75981 -24.67123,10.34049 -13.16534,0.43452 -15.42945,0.75415 -17.28953,2.44076 -2.13305,1.93412 -2.13937,2.08836 -1.85083,45.17044 l 0.28952,43.22969 2.35905,2.51008 c 1.3383,1.42399 4.03476,2.79319 6.23181,3.16438 3.83185,0.64739 3.85801,0.68246 2.47627,3.31948 -2.04352,3.9 -7.52634,8.83825 -11.78501,10.61449 -4.43889,1.85141 -17.976176,1.96786 -21.983849,0.18912 z m 935.894619,0.72117 c -0.3811,-0.38112 -0.6929,-18.86443 -0.6929,-41.07403 l 0,-40.38108 -2.646,-2.45225 c -1.4553,-1.34874 -3.4435,-2.45225 -4.4182,-2.45225 -5.6353,0 -6.2962,-2.82199 -2.0377,-8.7006 3.6227,-5.00108 9.0947,-7.2994 17.3787,-7.2994 8.2936,0 12.4104,1.3045 16.4388,5.20898 2.8154,2.72882 3.6177,3.05076 5.0648,2.03259 11.7959,-8.29893 23.3658,-10.86889 37.1569,-8.25345 6.9812,1.32395 11.5647,3.61827 16.3804,8.19936 2.2043,2.09689 4.184,3.81252 4.3993,3.81252 0.2153,0 1.8296,-1.38263 3.5872,-3.07252 7.02,-6.74925 20.0588,-10.60435 32.1958,-9.51915 10.5205,0.94066 16.1867,3.18013 21.4698,8.48569 7.7259,7.75879 8.2959,10.64394 9.0095,45.60598 0.3368,16.5 0.9836,30.80377 1.4374,31.78617 0.4538,0.98239 2.8194,2.31957 5.257,2.97152 4.0375,1.07988 4.3787,1.41037 3.834,3.71384 -0.7675,3.24521 -3.397,6.85668 -6.8928,9.46668 -2.3287,1.7386 -4.2277,2.06179 -12.1149,2.06179 -10.8465,0 -13.321,-1.21438 -17.5,-8.58858 -2.4945,-4.40174 -2.5011,-4.48383 -3,-37.41142 -0.4593,-30.31587 -0.657,-33.25941 -2.4298,-36.18935 -3.0285,-5.00517 -7.0339,-6.64146 -15.0138,-6.13335 -6.3008,0.40121 -7.0594,0.70386 -10.111,4.0338 -1.8146,1.98003 -3.7796,5.33004 -4.3667,7.44448 -0.6671,2.40225 -1.0696,17.63053 -1.0731,40.59442 l -0.01,36.75 -14.5,0 c -10.9206,0 -14.5059,-0.30857 -14.5238,-1.25 -0.013,-0.6875 0,-17.225 0.022,-36.75 0.049,-38.64084 -0.478,-43.28415 -5.4471,-47.95237 -4.7489,-4.46133 -17.5816,-4.02756 -22.1303,0.74803 -4.8271,5.06779 -4.8935,5.63348 -5.4204,46.20434 l -0.5,38.5 -14.0571,0.27628 c -7.7313,0.15195 -14.3688,-0.0356 -14.75,-0.41667 z m 99.3071,-181.8839 c -17.1954,-2.69176 -34.8223,-8.33235 -50.132,-16.04221 l -7.0901,-3.57051 0.6478,-7.68149 c 0.9224,-10.93567 1.7061,-17.62399 2.1143,-18.04433 0.1938,-0.19956 4.3113,1.33757 9.15,3.41583 9.2586,3.97666 19.1315,5.45348 26.8179,4.0115 5.3607,-1.00567 11.9309,-7.93929 13.9503,-14.72196 2.648,-8.89381 3.5815,-31.81206 3.4762,-85.34254 -0.055,-28.05 -0.042,-52.9125 0.029,-55.25 0.074,-2.428921 -0.3288,-4.25 -0.9395,-4.25 -0.5877,0 -3.5139,3.7125 -6.5027,8.25 -6.799,10.32192 -15.4468,22.52538 -22.2613,31.41436 -2.8822,3.7596 -5.2447,7.13728 -5.25,7.50595 -0.01,0.36867 4.6029,4.4649 10.2404,9.10273 9.7359,8.00948 22.75,20.91847 22.75,22.56625 0,0.42137 -4.3606,4.3424 -9.6903,8.71341 -8.2645,6.77796 -17.0259,14.21098 -29.551,25.07051 -1.5078,1.30723 -2.9353,2.37679 -3.1723,2.37679 -0.237,0 -3.7054,-4.8375 -7.7076,-10.75 -7.4415,-10.9933 -12.8305,-18.35927 -14.0836,-19.25 -0.3869,-0.275 -5.5616,4.24093 -11.4993,10.03539 -15.0774,14.71358 -30.6838,28.22551 -38.9294,33.70492 -1.0266,0.68217 -4.34149,2.94241 -7.36649,5.02274 -5.22693,3.59463 -9.47514,6.22129 -16.73743,10.34871 l -3.23743,1.83995 -9.04456,-11.97743 c -4.97451,-6.58758 -9.29303,-12.62495 -9.59673,-13.41636 -0.37411,-0.97491 1.13215,-2.34493 4.67089,-4.24843 2.87269,-1.54522 5.94806,-3.26495 6.83416,-3.82162 22.05761,-13.85715 41.47579,-32.00038 58.40739,-54.57254 l 2.6889,-3.58467 -5.1605,-5.91533 c -6.0693,-6.9568 -24.86883,-25.41533 -25.88517,-25.41533 -0.38634,0 -1.96944,1.6875 -3.518,3.75 -1.54855,2.0625 -4.86446,5.90891 -7.36869,8.54759 -2.50422,2.63867 -4.66861,5.12262 -4.80976,5.51988 -0.14114,0.39726 0.98386,2.09455 2.5,3.77176 10.04373,11.11067 18.08252,21.84053 17.15822,22.90223 -0.2209,0.25372 -7.82659,7.92525 -16.90159,17.04786 -13.77017,13.84241 -16.66544,16.3178 -17.5,14.96216 -0.55,-0.89341 -2.92269,-4.63424 -5.27265,-8.31293 -2.34995,-3.6787 -5.89638,-9.27605 -7.88095,-12.43855 -1.98457,-3.1625 -4.15464,-5.75 -4.82237,-5.75 -0.66773,0 -2.0713,0.96723 -3.11904,2.14939 -2.25052,2.53925 -31.77279,28.26012 -35.42271,30.86154 l -2.51771,1.79446 -6.76549,-6.44119 c -3.72101,-3.54266 -7.20054,-6.17231 -7.73228,-5.84368 -0.59867,0.36999 -0.9668,17.32918 -0.9668,44.5385 l 0,43.94098 -30,0 -30,0 0,-128.5 0,-128.499999 30,0 30,0 0,9.94098 c 0,5.46754 0.40208,10.18949 0.89352,10.49321 0.49144,0.30373 2.62894,-0.0804 4.75,-0.85351 67.08046,-24.45171 113.92317,-34.5871602 159.79917,-34.5760702 50.5201,0.0122 83.8811,11.8996102 105.7581,37.6843702 6.9456,8.18628 11.5131,22.01243 12.8198,38.80644 1.174,15.089027 1.178,93.084739 0.01,129.504579 -0.9053,28.14528 -2.1816,38.96332 -6.0112,50.95034 -5.2877,16.55093 -16.1334,26.5366 -31.5672,29.06393 -7.2432,1.1861 -8.6867,1.14613 -19.4488,-0.53856 z m -218.36,-123.79746 c 9.16215,-6.75707 27.36001,-26.20462 27.36001,-29.23888 0,-0.75427 -3.38309,-5.40361 -7.51798,-10.33186 -6.62238,-7.89303 -10.9448,-12.11066 -21.77726,-21.24934 l -2.79524,-2.35817 7.79524,-10.185494 c 4.28738,-5.602025 8.375,-10.214525 9.0836,-10.249995 1.37793,-0.069 16.14201,9.557753 25.21164,16.438959 3.025,2.29509 6.69935,4.94747 8.16522,5.89417 l 2.66522,1.72128 4.68248,-8.59013 c 4.11852,-7.55553 14.77552,-30.103339 18.9488,-40.091419 l 1.47031,-3.51895 22.28399,11.17858 c 12.25617,6.14822 22.48337,11.35348 22.72707,11.56724 0.2437,0.21377 -0.9784,3.84213 -2.7158,8.06303 -1.7375,4.220904 -3.0619,7.722026 -2.9431,7.780271 0.9243,0.453508 24.2498,15.459928 28.118,18.089688 2.6962,1.83298 5.2752,3.10218 5.731,2.82043 2.7891,-1.72375 14.1909,-32.071309 18.9597,-50.463909 1.7759,-6.84956 3.3709,-12.63061 3.5444,-12.84677 0.3608,-0.44958 7.2041,3.50616 29.7919,17.22109 8.761,5.31956 16.3647,9.67193 16.8971,9.67193 1.5958,0 0.048,-22.81306 -1.934,-28.5 -2.3652,-6.78739 -10.3835,-14.57599 -18.0955,-17.57706 -8.1144,-3.15769 -29.0923,-3.81219 -46.4127,-1.44807 -47.3845,6.46766 -113.1122,25.69028 -154.63409,45.22407 l -3.25,1.52894 0,46.886059 c 0,39.36062 0.2231,46.88606 1.38999,46.88606 0.7645,0 4.027,-1.94479 7.25,-4.32175 z M 274.73091,293.53661 c -15.35207,-2.3405 -22.64346,-3.67963 -25.41139,-4.66702 l -3.30641,-1.17948 3.2275,-13.28527 c 1.77513,-7.30689 3.39913,-13.44805 3.6089,-13.64701 0.20977,-0.19896 6.2314,0.9831 13.3814,2.62682 28.02312,6.44222 46.17979,2.37451 56.25871,-12.60386 6.95078,-10.3296 6.74129,-7.40572 6.74129,-94.09068 l 0,-77.999999 -2.41962,-7.21107 c -3.98303,-11.87048 -12.44315,-19.94721 -25.18813,-24.04668 -6.83701,-2.19915 -35.70865,-2.44835 -46.39225,-0.40043 -16.8217,3.22454 -53.3567,13.44044 -57.38208,16.04516 -1.34516,0.87042 4.81845,3.15029 12.87053,4.76071 1.67924,0.33585 3.28493,0.98564 3.5682,1.44398 0.81564,1.31973 -4.01744,10.08528 -9.51698,17.26054 -2.77182,3.6164 -5.03967,6.812904 -5.03967,7.103341 0,0.290438 25.7625,0.644254 57.25,0.786258 l 57.25,0.25819 0,12 0,12 -32.75,0.26366 -32.75,0.26367 0,13.97267 0,13.97267 32.75,0.26367 32.75,0.26366 0,12 0,12 -32.75,0.26366 -32.75,0.26367 0,23.98633 c 0,18.53007 0.28434,23.98307 1.25,23.97196 1.63413,-0.0188 20.67681,-9.40063 23.19964,-11.42987 1.92839,-1.5511 1.92443,-1.66349 -0.36269,-10.31197 -1.27177,-4.80908 -2.51864,-9.64941 -2.77081,-10.75629 -0.41045,-1.80161 1.13545,-2.51543 14.75126,-6.81143 8.36536,-2.6394 15.56375,-4.43377 15.99643,-3.98748 0.43267,0.44628 3.25911,6.88642 6.28098,14.31142 3.02187,7.425 7.81801,19.125 10.65811,26 6.93854,16.79612 9.07809,23 7.93204,23 -0.52652,0 -9.04725,3.375 -18.93496,7.5 -9.88771,4.125 -18.14627,7.5 -18.35236,7.5 -0.2061,0 -1.63964,-4.93799 -3.18567,-10.97331 -1.54602,-6.03532 -3.1315,-11.49197 -3.52329,-12.1259 -0.49146,-0.7952 -2.06527,-0.22918 -5.07551,1.82541 -14.8453,10.1324 -38.06138,19.18731 -58.36317,22.76325 -19.72959,3.47515 -52.61202,4.70156 -65.06634,2.42676 -24.6877,-4.50924 -37.63039,-25.31192 -36.03343,-57.91621 0.30979,-6.325 0.84896,-12.5125 1.19815,-13.75 l 0.63488,-2.25 23.90875,0 23.90875,0 -0.66766,13.30386 c -0.74815,14.90759 0.015,18.87668 4.39002,22.83085 3.38317,3.05777 11.12643,5.69569 17.72688,6.03908 l 5,0.26012 0.26582,-27.71695 0.26582,-27.71696 -33.51582,0 -33.51582,0 0,-12.5 0,-12.5 9.46862,0 c 7.19693,0 9.33874,-0.2999 8.92729,-1.25 -0.29773,-0.6875 -4.3336,-4.38312 -8.96862,-8.2125 -4.63501,-3.82937 -8.41518,-7.20437 -8.40039,-7.5 0.0148,-0.29562 1.38501,-2.1125 3.04493,-4.0375 5.58136,-6.47271 16.03833,-20.93665 20.62192,-28.523958 0.65656,-1.086823 3.73504,-6.172561 6.84106,-11.301641 3.10602,-5.12909 5.44348,-9.52944 5.19435,-9.77857 -0.24913,-0.24913 -4.77949,1.41038 -10.06746,3.68782 -8.64933,3.7251 -10.18863,4.80712 -15.33371,10.77856 -7.487,8.689507 -18.48518,20.419459 -20.12452,21.463519 -0.84472,0.53798 -6.50487,-2.16265 -16.24292,-7.75 -8.220512,-4.71665 -15.399575,-8.57573 -15.953469,-8.57573 -2.138878,0 -0.835884,-2.759208 3.091746,-6.547049 16.732193,-16.1367 34.696103,-47.16426 46.090093,-79.6076 l 3.03948,-8.6546402 7.1358,2.02243 c 3.92469,1.11233 8.4858,2.3623 10.1358,2.7777 3.86819,0.97385 28.60405,7.9338202 30.27021,8.5171702 0.88457,0.30971 -0.40825,3.79146 -4.25836,11.46836 -6.29082,12.54355 -6.4987,12.20559 5.48815,8.92217 17.31287,-4.74232 45.92242,-10.29791 63.99387,-12.42675 16.34226,-1.92514 47.71388,-1.92057 59.50613,0.009 23.63464,3.86668 39.49311,10.77949 52.11599,22.71769 12.07234,11.4175 16.13841,22.21869 18.93599,50.30185 0.38353,3.85 0.84532,7.813079 1.0262,8.806839 1.2277,6.74495 2.56531,51.31554 2.01653,67.19316 -0.72717,21.0393 -3.07807,52.4534 -4.67723,62.5 -5.07719,31.89708 -26.48054,52.55393 -60.62206,58.50771 -7.84811,1.3686 -37.17731,1.92398 -44.29542,0.83879 z m -81,-160.3465 0,-14 -8.75,0.1 -8.75,0.1 -13.40206,13.90005 -13.40207,13.89995 22.15207,0 22.15206,0 0,-14 z M 43.230911,280.68046 c -5.5,-3.53875 -12.7,-8.04341 -16,-10.01033 -3.3,-1.96693 -9.6,-5.82359 -14,-8.57036 -4.4000006,-2.74676 -8.6750006,-5.41442 -9.5000006,-5.92813 -1.189392,-0.7406 2.1622325,-4.51092 16.1858086,-18.20777 28.85955,-28.18718 45.760764,-47.60272 52.033009,-59.77376 7.870128,-15.27167 2.455177,-29.34084 -15.441953,-40.1214 -3.997973,-2.40823 -12.895802,-7.91725 -19.772953,-12.24226 -6.877151,-4.32502 -13.738566,-8.60002 -15.247588,-9.5 -1.509023,-0.89999 -2.746523,-1.96085 -2.75,-2.35748 -0.0035,-0.39663 2.806177,-5.02987 6.243677,-10.29609 3.4375,-5.266221 8.05,-12.335299 10.25,-15.709069 2.2,-3.37376 4.455867,-6.27998 5.013037,-6.45825 0.55717,-0.17828 6.18217,3.56315 12.5,8.31428 15.108385,11.361799 15.345272,11.562649 30.743166,26.066129 11.725675,11.04457 13.676656,13.36035 16.897836,20.05746 4.86375,10.11216 5.56948,20.75909 2.39535,36.13758 -3.990289,19.33275 -9.529779,34.59934 -21.810624,60.1091 -6.430605,13.35765 -11.84689,24.8865 -21.013464,44.7283 -2.598916,5.62556 -5.175301,10.22106 -5.725301,10.21223 -0.55,-0.009 -5.5,-2.91142 -11,-6.45018 z m 392.724609,-15.24035 0.27539,-15.75 67.75,-0.25699 67.75,-0.25699 0,-35.99301 0,-35.99301 -47.02988,0 -47.02987,0 0.27987,-12.75 0.27988,-12.75 46.75,-0.25989 46.75,-0.25989 0,-14.99011 0,-14.99011 -40.43664,0 -40.43664,0 -0.31336,3.25 -0.31336,3.25 -27,0 -27,0 0,-47.499999 0,-47.5 27,0 27,0 0.3001,5.75648 c 0.27901,5.35196 0.45468,5.7214 2.5,5.25736 1.98744,-0.45091 52.7802,-6.44991 68.6999,-8.11396 11.60847,-1.21341 11,-0.36212 11,-15.38979 l 0,-13.0394202 30.25,0.26467 30.25,0.26466 0.28636,10.3750502 0.28637,10.37505 5.71363,-0.62156 c 17.34237,-1.88659 37.1822,-2.91456 56.71364,-2.93853 64.16801,-0.0787 90.78738,12.4734 90.78738,42.80999 0,5.88372 -0.5914,9.53527 -2.23562,13.80367 -3.09745,8.04098 -10.61316,18.914059 -18.7188,27.080759 -7.31542,7.37052 -24.11881,20.87289 -25.38848,20.40092 -0.4222,-0.15694 -3.84493,-3.208 -7.60606,-6.78012 -6.73064,-6.39241 -6.84341,-6.45152 -7.15484,-3.75 l -0.31642,2.74477 -45.93358,0 -45.93358,0 0,14.99116 0,14.99116 52.75,0.25884 52.75,0.25884 0.27988,12.75 0.27987,12.75 -53.02987,0 -53.02988,0 0,36 0,36 72,0 72,0 0,16 0,16 -171.02539,0 -171.0254,0 0.2754,-15.75 z M 711.68689,91.153041 c 16.90158,-12.29318 21.37088,-22.74497 13.34154,-31.20019 -3.73795,-3.93622 -8.84884,-6.45055 -17.0262,-8.37612 -9.37142,-2.20675 -53.13987,-1.37638 -79.8291,1.51449 -41.53,4.49838 -87.89806,11.41253 -121.12257,18.06113 -8.34919,1.67077 -15.43669,3.03776 -15.75,3.03776 -0.31331,0 -0.56965,4.95 -0.56965,11 l 0,10.999999 107.01531,0 107.01532,0 6.92535,-5.037069 z M 690.96106,242.70171 c -15.62092,-4.3893 -24.21061,-14.68234 -24.21061,-29.0116 0,-12.19127 5.99526,-21.32715 17.79458,-27.11623 5.00156,-2.45392 6.82924,-2.79114 15.18588,-2.80193 7.80629,-0.0101 10.48057,0.41104 15,2.36208 6.4291,2.77543 12.01206,7.74212 15.80018,14.05608 2.40598,4.01024 2.69753,5.47952 2.67878,13.5 -0.0189,8.07609 -0.31221,9.48977 -2.85733,13.771 -7.48606,12.59252 -24.87388,19.31988 -39.39148,15.2406 z M 64.230911,68.502731 c -6.991411,-0.90356 -15.611973,-4.76274 -19.973015,-8.94136 -6.666302,-6.38744 -9.81221,-13.33656 -9.760724,-21.56084 0.106715,-17.04666 13.153514,-29.6398802 31.71686,-30.6142002 10.320599,-0.54169 17.117948,1.31909 24.72979,6.7698102 14.679228,10.51156 16.113058,32.36339 2.939644,44.80047 -5.046152,4.7641 -11.769384,7.96566 -19.290654,9.18609 -3.499046,0.56776 -6.586901,0.96828 -6.861901,0.89002 -0.275,-0.0782 -1.85,-0.31675 -3.5,-0.52999 z"
     id="path3049"
     inkscape:connector-curvature="0" />
</svg>
