<svg viewBox="0 0 24 24" xmlns="http://www.w3.org/2000/svg"><defs><linearGradient gradientTransform="translate(-8.334 -11.21) scale(1.84042)" gradientUnits="userSpaceOnUse" id="a" x1="4.528" x2="17.569" y1="12.612" y2="12.612"><stop offset="0" stop-color="#2aabee"/><stop offset="1" stop-color="#229ed9"/></linearGradient></defs><path d="M22.78 2.075c-.827.018-2.158.434-8.282 2.99-2.151.901-6.389 2.784-12.825 5.58-1.03.422-1.613.802-1.668 1.207-.092.772 1.037 1.054 2.416 1.495 1.14.368 2.66.787 3.45.805.718.019 1.476-.313 2.359-.92 6.013-4.064 9.114-6.117 9.317-6.154.147-.036.331-.053.46.058.129.11.133.29.115.345-.11.46-5.765 5.65-6.097 5.981-1.25 1.287-2.648 2.074-.46 3.509 1.894 1.25 2.94 2.009 4.889 3.278 1.232.809 2.221 1.778 3.508 1.668.589-.056 1.183-.588 1.496-2.243.735-3.899 2.2-12.38 2.53-15.874.037-.294-.02-.679-.057-.863-.037-.184-.067-.448-.288-.632-.276-.22-.679-.23-.863-.23Z" fill="url(#a)"/></svg>