<svg viewBox="0 0 24 24" xmlns="http://www.w3.org/2000/svg"><path d="M22.409 11.199a5.534 5.534 0 0 0-3.962-1.67c-1.346 0-2.504.464-3.515 1.287-.441.36-.904.79-1.486 1.354l-6.51 6.317c-.348-.001-.85-.006-1.293-.021-1.252-.043-2.014-.523-2.441-.946a3.399 3.399 0 0 1-.053-4.797 3.424 3.424 0 0 1 2.412-1.014c.59-.003 1.391.169 2.297.919.446.37 1.452 1.255 1.85 1.616l1.563-1.525c-.716-.647-1.76-1.58-2.38-2.043a5.667 5.667 0 0 0-2.08-1l.024.004A5.281 5.281 0 0 1 12 5.483c2.108 0 3.958 1.272 4.792 3.074.013.029.036.038.058.032a6.396 6.396 0 0 1 2.106-.22c.07.006.098-.034.075-.098A7.46 7.46 0 0 0 12 3.3c-3.724 0-6.81 2.738-7.368 6.305h.005a5.55 5.55 0 0 0-3.046 1.593c-2.152 2.2-2.119 5.747.086 7.913.886.87 1.958 1.348 3.102 1.536.439 0 1.043.047 1.582.05.504.004 10.131-.014 10.534-.014.811 0 1.339-.009 1.906-.05 1.3-.095 2.529-.576 3.522-1.552a5.572 5.572 0 0 0 .086-7.883Zm-1.61 6.321c-.428.423-1.19.95-2.442.993-.578.02-1.254.069-1.563.069H10.07c2.447-2.441 4.58-4.496 4.823-4.73.221-.216.72-.717 1.15-1.104.945-.85 1.795-1.033 2.396-1.028a3.419 3.419 0 0 1 2.412 1.01 3.392 3.392 0 0 1-.053 4.79Z" fill="#006eff"/><path d="M6.936 18.487s-.85-.006-1.293-.021c-1.252-.043-2.014-.523-2.441-.946a3.399 3.399 0 0 1-.053-4.797 3.424 3.424 0 0 1 2.412-1.014c.59-.003 1.391.169 2.297.919.446.37 1.452 1.255 1.85 1.616l1.563-1.525c-.716-.647-1.76-1.58-2.38-2.043-.641-.48-1.513-.891-2.08-1-.534-.103-1.634-.134-2.174-.07-.993.117-2.243.774-3.046 1.593-2.152 2.2-2.119 5.747.086 7.913.886.87 1.8 1.32 2.944 1.509l.463.031c.44 0 1.277.047 1.277.047l.575-2.212Z" fill="#00c8dc"/><path d="M22.409 11.199a5.534 5.534 0 0 0-3.962-1.67c-1.346 0-2.504.464-3.515 1.287-.441.36-.904.79-1.486 1.354l-6.51 6.317-2.265 2.142s.771.07 1.96.07l10.264-.015c.811 0 1.339-.009 1.906-.05 1.3-.095 2.529-.576 3.522-1.552a5.572 5.572 0 0 0 .086-7.883Zm-1.61 6.321c-.428.423-1.19.95-2.442.993-.578.02-1.254.069-1.563.069H10.07c2.447-2.441 4.58-4.496 4.823-4.73.221-.216.72-.717 1.15-1.104.945-.85 1.795-1.033 2.396-1.028a3.419 3.419 0 0 1 2.412 1.01 3.392 3.392 0 0 1-.053 4.79Z" fill="#00a3ff"/></svg>