<svg clip-rule="evenodd" fill-rule="evenodd" viewBox="0 0 560 400" xmlns="http://www.w3.org/2000/svg"><path d="m22.354 166.858-2.354 9.177h21.807l-8.001 32.005-5.883 23.612h14.277l5.883-23.612 8.001-32.005h21.728l2.275-9.178h-57.733v.001zm435.829.706c-1.161 4.769-2.228 8.491-3.294 11.688h-5.334l1.725-1.098c2.975-1.93 4.44-2.922 4.472-3.06-1.588-3.586-2.931-6.062-4.157-7.295-.035-.223-2.3 1.161-6.668 4.001l-1.49.941c.031.069.21.335.548.784 1.538 1.999 2.837 3.881 3.844 5.727h-4.392l-1.412 6.589h9.883l-.706 1.334-.706 1.334h-10.668l-1.334 6.589h7.373c-3.147 3.841-6.89 6.925-11.217 9.257l6.903-32.947h-19.062l-7.138 34.045c-.191.891-.408 1.739-.628 2.588-1.659 6.587-4.129 12.495-7.452 17.729 2.015 1.779 3.656 3.686 5.021 5.726 3.994-5.698 7.132-12.993 9.492-21.964h4.157l-2.354 11.139c-.185 1.525-1.735 2.212-4.549 1.961.587 2.727.838 5.457.628 8.315 6.793-.044 10.222-1.575 10.354-4.706l3.844-18.2.234-1.255c.408.404.8.823 1.177 1.255.916 1.08 1.629 2.141 2.119 3.216 1.041-.514 2.277-1.305 3.686-2.51l-2.51 8.158h22.827l-.393 2.118c-.904 4.406-2.174 6.546-3.765 6.276l1.255-6.276h-24.475l-1.412 6.511h19.925c1.139 2.457 1.625 4.973 1.412 7.609 6.357-.207 10.251-1.186 11.767-2.981.473-.524.972-1.433 1.49-2.981 1.038-3.109 2.255-7.656 3.765-13.649l.863-3.451h-8.472l.471-2.04.628-3.137c1.506 1.317 2.842 2.343 4 3.137.857.587 1.613 1.036 2.275 1.334.364-.455.738-.904 1.098-1.334 2.185-2.651 4.259-4.861 6.198-6.667-5.115-1.456-8.861-3.546-11.218-6.276h11.218l1.333-6.589h-20.16c.54-.791 1.042-1.641 1.412-2.667h16.631l1.333-6.589h-5.961c2.604-2.545 4.894-4.638 6.981-6.276l-6.981-4.314c-2.237 2.855-4.65 5.635-7.296 8.315l4.236 2.588h-6.04l.864-2.745 1.098-2.746c.916-2.313 1.669-4.07 2.196-5.178.05-.454-.247-.684-1.177-.784-1.759-.276-4.524-.458-8.315-.549zm42.203.549c-2.128.706-5.435 1.995-10.041 3.922 1.449 4.132 2.494 8.255 3.216 12.394 1.629-.619 5.161-1.833 10.511-3.766-2.23-8.032-3.507-12.233-3.686-12.55zm7.766 3.53-1.648 7.609h6.276l-2.981 14.198h-7.845l-1.647 7.609h7.922l-1.49 6.981-4.785 22.67h8.786l4.707-22.67 1.49-6.981h6.275l-1.255 5.726c-.091.423-.157.838-.235 1.255-1.607 8.412-.781 14.992 2.432 19.689 1.957 2.784 4.321 3.961 7.138 3.531 2.918.15 5.84-4.56 8.707-14.12-2.367-1.074-4.746-2.12-7.138-3.138-1.424 4.381-2.309 5.802-2.667 4.237-.561-2.234-.445-5.633.314-10.199.245-1.474.559-3.059.941-4.785l6.668-31.612zm-130.295.784-2.98 12.081h-11.453l-2.196 8.943h41.889zm50.518 5.727h4.157l-1.961 9.334h-4.079zm93.112 1.098h6.59l-2.981 14.198h-6.589zm-425.005 2.588c-8.704 0-16.253 2.276-22.67 6.825-6.382 4.616-10.527 10.662-12.394 18.12-.11.437-.226.829-.313 1.255-1.434 6.926-.164 12.574 3.843 16.866 4.27 4.518 10.86 6.746 19.768 6.746 15.183 0 26.821-9.263 28.004-10.276l-6.589-1.49c-1.55.357-9.991 2.802-18.434 2.039-10.653-.957-13.068-8.757-12.472-12.629h42.751l.392-1.255.314-1.334c1.939-7.775.913-13.89-3.059-18.277-4.005-4.424-10.349-6.59-19.141-6.59zm126.686 0c-9.159 0-17.443 2.376-24.945 7.217-7.515 4.845-12.125 10.847-13.885 17.886-.097.385-.238.718-.313 1.098-1.315 6.533.426 12.059 5.177 16.551 5.039 4.713 12.171 7.06 21.415 7.06 5.601 0 11.478-1.161 17.649-3.451l3.609-14.355c-4.104 3.16-7.546 5.259-10.276 6.355-2.817 1.129-5.865 1.725-9.178 1.725-5.193 0-9.121-1.393-11.766-4.236-2.341-2.56-3.179-5.811-2.511-9.649.075-.423.204-.818.314-1.255 1.082-4.323 3.687-7.957 7.844-10.824 4.148-2.868 8.846-4.315 14.041-4.315 3.311 0 5.991.562 8.158 1.726 2.21 1.126 4.525 3.241 6.903 6.275l3.609-14.512c-4.678-2.226-9.956-3.296-15.845-3.296zm51.694 0c-8.708 0-16.256 2.276-22.67 6.825-6.385 4.616-10.53 10.662-12.394 18.12-.11.437-.224.829-.314 1.255-1.437 6.926-.17 12.574 3.844 16.866 4.264 4.518 10.863 6.746 19.768 6.746 15.177 0 26.824-9.263 28.004-10.276l-6.589-1.49c-1.55.357-9.991 2.802-18.435 2.039-10.649-.957-13.074-8.757-12.472-12.629h42.752l.392-1.255.314-1.334c1.945-7.775.985-13.89-2.981-18.277-4.004-4.424-10.424-6.59-19.219-6.59zm-111.233 1.334c-6.049 0-11.963 1.87-17.728 5.648l-12.786-4.314-5.884 23.532-5.883 23.612h13.885l5.647-22.748.236-.864c1.443-5.421 3.379-9.287 5.726-11.53 2.516-2.385 6.012-3.53 10.59-3.53 4.21 0 6.937.856 8.079 2.667 1.189 1.769 1.164 5.001 0 9.648l-.628 2.745-5.961 23.612h13.884l5.884-23.612 1.333-5.333c1.666-6.649 1.208-11.409-1.412-14.355-3.021-3.452-8.029-5.178-14.982-5.178zm177.204 0c-6.053 0-11.958 1.87-17.728 5.648l-12.787-4.314-5.883 23.532-5.883 23.612h13.884l5.648-22.748.235-.864c1.45-5.421 3.373-9.287 5.726-11.53 2.52-2.385 6.006-3.53 10.59-3.53 4.208 0 6.934.856 8.08 2.667 1.186 1.769 1.164 5.001 0 9.648l-.706 2.745-5.884 23.612h13.885l5.883-23.612 1.334-5.333c1.666-6.649 1.205-11.409-1.412-14.355-3.018-3.452-8.036-5.178-14.982-5.178zm140.962 4.942-1.648 7.688h7.767l-2.589 12.236-1.648 8.159c-.357 1.707-1.722 3.486-4.079 5.412-.693.571-1.12.939-1.176 1.099.863 2.702 2.4 5.337 4.549 7.766.167.044 1.086-.766 2.667-2.354 2.36-2.5 8.346-8.013 18.042-16.551-.031-.11-.565-1.255-1.568-3.373l-.079-.157-1.412-3.137-1.569 1.333c-.753.662-1.481 1.271-2.118 1.804-1.694 1.469-2.98 2.546-3.844 3.216l.707-3.216 4.157-19.924h-16.159zm-387.509 3.53c7.361 0 11.296 2.893 11.766 8.707h-27.69c.784-1.355 1.694-2.542 2.824-3.608 1.12-1.061 2.384-2.006 3.765-2.746 1.418-.779 2.903-1.337 4.472-1.726 1.586-.421 3.221-.632 4.863-.627zm178.38 0c7.361 0 11.301 2.893 11.766 8.707h-27.691c.791-1.355 1.704-2.542 2.824-3.608 1.127-1.061 2.401-2.006 3.766-2.746 1.43-.779 2.902-1.337 4.471-1.726 1.587-.421 3.222-.632 4.864-.627zm152.414 2.353h4.079l-1.804 8.708h-4.079zm30.045 1.098h2.431c.337.964.785 1.885 1.334 2.746h-5.962l1.099-1.412zm-82.994.393-3.137 12.55-5.962 23.612h13.806l5.962-23.612 3.137-12.55zm74.521 8.55h9.805l-.784 4-.548 2.276h-6.747c.252-.841.477-1.594.707-2.276.26-.784.47-1.452.706-2.039-.33-.189-.53-.314-.706-.314h-4.08z" fill="#006cb6"/></svg>