<?xml version="1.0" encoding="utf-8"?>
<!-- Generator: Adobe Illustrator 19.0.0, SVG Export Plug-In . SVG Version: 6.00 Build 0)  -->
<svg version="1.1" id="圖層_1" xmlns="http://www.w3.org/2000/svg" xmlns:xlink="http://www.w3.org/1999/xlink" x="0px" y="0px"
	 viewBox="0 0 329.5381775 92.6494293" style="enable-background:new 0 0 329.5381775 92.6494293;" xml:space="preserve">
<style type="text/css">
	.st0{fill:#006EFF;}
	.st1{fill:#00C8DC;}
	.st2{fill:#00A3FF;}
</style>
<g id="XMLID_32_">
	<g id="XMLID_2_">
		<rect id="XMLID_14_" x="167.0035706" y="63.0047493" width="27.3715267" height="5.0208244"/>
		<g id="XMLID_1_">
			<path id="XMLID_15_" d="M244.5145111,23.0271111h13.2040558v18.3009949h-13.2040558V23.0271111z M263.2401123,18.0062866
				h-34.6923218v5.0208244h10.4432983v18.3009949h-11.9683838v5.0208244h11.9683838v30.6939087h5.5234222V46.3489304h13.2040558
				v30.0503387h10.4280701v-5.0226822h-4.9065247V18.0062866z"/>
			<path id="XMLID_10_" d="M160.4036102,35.0718613h-7.0313721V23.1529655h7.0313721V35.0718613z M153.3741455,39.589962h7.0313721
				v12.0140724h-7.0313721V39.589962z M148.3533783,53.7135811c0,9.1276627-0.7387543,16.0581551-2.2581177,22.1965675
				c-0.1599274,0.5693054,0.0133209,0.7216568,0.3122406,0.7216568h5.0322113
				c1.6812134-8.4345856,1.9001617-15.4317856,1.9287262-20.5096703h7.0351715v15.6087761h-4.9960175
				c-0.2436981,0-0.4302979,0.1580429-0.3027344,0.5064392l1.3765717,4.5125275h8.9334564V18.1321411h-17.0615082V53.7135811z"/>
			<path id="XMLID_7_" d="M190.1663361,38.4821396c1.2033234,1.9782333,2.4980164,3.7052193,3.83461,5.2207031h-16.433197
				c1.2756653-1.4716721,2.5113373-3.1891327,3.6613312-5.2207031H190.1663361z M196.3123779,38.4821396h6.7400513v-4.5181007
				h-19.6394806c0.5940247-1.4432068,1.1271362-2.9911137,1.6126709-4.6684799h16.7949524v-4.518219h-4.9198761
				c0.8187103-2.7911148,1.7859192-6.0869293,1.8411407-6.2773952c0.098999-0.3331738-0.078064-0.4626293-0.2932129-0.4626293
				h-4.2744141l-1.9801331,6.7400246h-6.0413208c0.5635834-2.612154,1.0548096-5.5062313,1.5003357-8.7525387
				c0.0514069-0.3750076-0.1504211-0.4512405-0.399826-0.4512405h-4.8646545
				c-0.4988556,3.4518814-1.0186462,6.4240513-1.6850281,9.2037792h-2.9625854l-1.9801331-6.7400246h-4.2744141
				c-0.217041,0-0.3922119,0.1294556-0.295105,0.4626293c0.0571136,0.1904659,1.0224152,3.4862804,1.8430328,6.2773952h-4.7922974
				v4.518219h11.1896515c-0.4550476,1.4279804-1.1233368,3.1072044-1.8392334,4.6684799h-10.5803833v4.5181007h7.9471893
				c-3.2043915,4.5486679-6.6296539,6.6429901-7.9966888,7.4788857v5.1692238c0,0.260891,0.2056122,0.5370026,1.0243225,0.0723991
				c1.4851074-0.8415909,3.0711212-1.7954369,4.6761627-2.9815865h18.6970215l-0.1561279,6.7647781h-14.7615051l0.2227783-4.0440826
				c0-0.1751289-0.1256714-0.3064461-0.3065491-0.3064461h-4.7199402l-0.4759979,8.5640488
				c0,0.1751289,0.1275635,0.3065605,0.3065338,0.3065605h25.4675598v12.2158127h-11.4771576
				c-0.2437134,0-0.4322052,0.1580429-0.3027344,0.5045776l1.3746796,4.5143814h15.9286346V54.9858398h-6.2355194
				l0.2056274-8.7849579c2.3304749,2.1686974,4.697113,3.7813339,6.8486023,5.0017662
				c0.816803,0.4646034,1.0224304,0.1884918,1.0224304-0.0723991v-5.1692238
				C202.9362946,45.1251297,199.5148621,43.0269699,196.3123779,38.4821396"/>
			<path id="XMLID_6_" d="M232.0478821,59.5134735c-0.0933075,0.0705376-4.7770844,3.6194572-9.3104553,7.0562286V33.9335899
				h-12.9013062v5.5215721h7.4159698v31.2689133c-1.7668915,1.3384933-2.9644928,2.246788-2.9644928,2.246788l3.0292206,4.0039902
				l15.2298889-11.5399323v-5.6853104C232.5467072,59.4773331,232.2458801,59.3630981,232.0478821,59.5134735"/>
			<path id="XMLID_5_" d="M217.9803619,28.9902763h6.0336914c0.2684479,0,0.3769836-0.28936,0.2589264-0.4701824
				c-0.1085205-0.1675739-7.6120758-11.6256981-7.6120758-11.6256981h-6.0337067
				c-0.2303619,0-0.394104,0.2646084-0.2684631,0.4569359C210.4844055,17.5436573,217.9803619,28.9902763,217.9803619,28.9902763"/>
			<rect id="XMLID_4_" x="279.8197021" y="19.3466454" width="43.5800705" height="5.5215707"/>
			<path id="XMLID_3_" d="M295.6265259,45.7373199h33.9116516v-5.5214539h-55.85495v5.5214539h15.4945068
				c-3.2005615,8.4041443-11.2315369,29.4945145-11.2867432,29.6468658
				c-0.0875854,0.2436905,0.0723572,0.4264832,0.2836914,0.4264832h48.1781616c0.2265625,0,0.3579407-0.2247467,0.276062-0.4379883
				c-0.0513916-0.1331787-7.1836853-18.8854141-7.1836853-18.8854141h-5.9975281
				c-0.2265625,0-0.3636475,0.2207985-0.2874756,0.4188194c0.0761414,0.1998787,5.0835876,13.3830147,5.0835876,13.3830147
				h-31.9429626L295.6265259,45.7373199z"/>
		</g>
	</g>
	<g id="XMLID_31_">
		<path id="XMLID_52_" class="st0" d="M119.3293762,42.0579834c-5.3499756-5.4549561-12.8059692-8.8929443-21.0960083-8.8929443
			c-7.1660156-0.0010376-13.3339844,2.4699707-18.7210083,6.855957c-2.3469849,1.9119873-4.8099976,4.2009888-7.9089966,7.210022
			c-1.0289917,1-21.3339844,20.7030029-34.6669922,33.6389771c-1.8569946-0.006958-4.5230103-0.032959-6.8880024-0.1129761
			c-6.6640015-0.2269897-10.7229614-2.7839966-12.9979858-5.0360107c-7.091979-7.0169678-7.2570181-18.4140015-0.2789917-25.5449829
			c3.2609863-3.3079834,7.8239746-5.3560181,12.8410034-5.4030151c3.1430073-0.0130005,7.4099751,0.9000244,12.2309589,4.8959961
			c2.3740234,1.9680176,7.7330322,6.6829834,9.8550415,8.6040039l8.3219604-8.1190186
			c-3.8109741-3.447998-9.3729858-8.4190063-12.6779785-10.8800049c-3.4099731-2.552002-7.0880127-4.3659668-11.0720215-5.3249512
			c0.0420532,0.0089722,0.0840454,0.0139771,0.125,0.0239868c2.6870117-12.8240356,14.0240479-22.3500366,27.5060425-22.3500366
			c11.2279663,0,21.0789795,6.7730103,25.5199585,16.3690186c0.0700073,0.151001,0.1880493,0.2009888,0.3099976,0.1680298
			c3.3390503-0.9180298,7.3439941-1.4510498,11.2120361-1.1660156c0.3770142,0.0280151,0.5219727-0.184021,0.3999634-0.5280151
			C95.8854065,11.0490112,81.188385,0,63.9013977,0C44.0723572,0,27.6393719,14.5820313,24.6643963,33.5759888
			c0.0079956-0.0019531,0.0169678,0.0010376,0.026001-0.0009766c-6.3170166,1.0579834-11.9410391,4.1229858-16.217041,8.4829712
			C-2.986604,53.7720337-2.8106396,72.6648483,8.931365,84.1958542c4.7150269,4.6300049,10.427001,7.1778488,16.5170288,8.1778488
			h-0.0010376c2.3390503,0,5.5549927,0.2556839,8.4240131,0.2736893c2.6870117,0.0169678,53.9509888-0.0776901,56.0969849-0.0776901
			c4.3190308,0,7.1290283-0.0483704,10.1490479-0.2693176c6.9239502-0.5050049,13.4660034-3.067215,18.7539673-8.2602081
			C130.6133728,72.5091705,130.7903748,53.7720337,119.3293762,42.0579834z M110.7533875,75.7210083
			c-2.276001,2.2520142-6.335022,5.0603561-12.9979858,5.2863693c-3.0820313,0.1049805-6.6790161,0.3663254-8.3260498,0.3663254
			H53.6263733c13.0269775-13,24.3900146-23.9383469,25.6790161-25.190361
			c1.1809692-1.1469727,3.8359985-3.8131676,6.1270142-5.8761559c5.0289917-4.5280151,9.5569458-5.5015526,12.7589722-5.4715843
			c5.0170288,0.0469971,9.5789795,2.063736,12.8410034,5.3717194
			C118.0093689,57.3383026,117.8443909,68.7040405,110.7533875,75.7210083z"/>
		<path id="XMLID_47_" class="st1" d="M36.9363708,80.8699951c0,0-4.5230103-0.032959-6.8880024-0.1129761
			c-6.6640015-0.2269897-10.7229614-2.7839966-12.9979858-5.0360107c-7.091979-7.0169678-7.2570181-18.4140015-0.2789917-25.5449829
			c3.2609863-3.3079834,7.8239746-5.3560181,12.8410034-5.4030151c3.1430073-0.0130005,7.4099751,0.9000244,12.2309589,4.8959961
			c2.3740234,1.9680176,7.7330322,6.6829834,9.8550415,8.6040039l8.3219604-8.1190186
			c-3.8109741-3.447998-9.3729858-8.4190063-12.6779785-10.8800049c-3.4099731-2.552002-8.0556145-4.7458801-11.0720215-5.3249512
			c-2.8445587-0.5460777-8.7035942-0.7149658-11.579958-0.3740234c-5.288147,0.6268196-11.9410391,4.1229858-16.217041,8.4829712
			C-2.986604,53.7720337-2.8106396,72.6648483,8.931365,84.1958542c4.7150269,4.6300049,9.5872431,7.0343552,15.6772699,8.0343552
			l2.4648857,0.1683273c2.3390503,0,6.7978477,0.2488556,6.7978477,0.2488556L36.9363708,80.8699951z"/>
		<path id="XMLID_53_" class="st2" d="M119.3293762,42.0579834c-5.3499756-5.4549561-12.8059692-8.8929443-21.0960083-8.8929443
			c-7.1660156-0.0010376-13.3339844,2.4699707-18.7210083,6.855957c-2.3469849,1.9119873-4.8099976,4.2009888-7.9089966,7.210022
			c-1.0289917,1-34.6669922,33.6389771-34.6669922,33.6389771L24.8734703,92.2740707c0,0,4.106905,0.3753586,10.440239,0.3753586
			c3.1979179,0,53.176075-0.0797272,54.654644-0.0797272c4.3190308,0,7.1290283-0.0483704,10.1490479-0.2693176
			c6.9239502-0.5050049,13.4660034-3.067215,18.7539673-8.2602081
			C130.6133728,72.5091705,130.7903748,53.7720337,119.3293762,42.0579834z M110.7533875,75.7210083
			c-2.276001,2.2520142-6.335022,5.0603561-12.9979858,5.2863693c-3.0820313,0.1049805-6.6790161,0.3663254-8.3260498,0.3663254
			H53.6263733c13.0269775-13,24.3900146-23.9383469,25.6790161-25.190361
			c1.1809692-1.1469727,3.8359985-3.8131676,6.1270142-5.8761559c5.0289917-4.5280151,9.5569458-5.5015526,12.7589722-5.4715843
			c5.0170288,0.0469971,9.5789795,2.063736,12.8410034,5.3717194
			C118.0093689,57.3383026,117.8443909,68.7040405,110.7533875,75.7210083z"/>
	</g>
</g>
</svg>
