<svg viewBox="0 0 24 24" xmlns="http://www.w3.org/2000/svg"><path d="M12.001 23.949 15.36 5.066c3.2 0 4.21.35 4.356 1.783 0 0 2.146-.8 3.23-2.426-4.226-1.958-8.472-2.047-8.472-2.047l-2.477 3.018H12L9.524 2.376s-4.246.088-8.47 2.046C2.134 6.048 4.282 6.85 4.282 6.85c.147-1.433 1.155-1.784 4.334-1.786L12 23.949ZM12 1.505c3.416-.026 7.325.528 11.328 2.273.535-.963.672-1.389.672-1.389C19.625.66 15.528.066 12 .051 8.471.066 4.374.66 0 2.39c0 0 .195.525.672 1.389 4.001-1.745 7.912-2.3 11.327-2.273H12Z" fill="#e82127"/></svg>