<svg width="48" height="48" xmlns="http://www.w3.org/2000/svg"><path d="M36.811 0a11.12 11.12 0 0 1 7.909 3.28A11.121 11.121 0 0 1 48 11.196v25.606c0 2.993-1.166 5.804-3.28 7.918A11.1 11.1 0 0 1 36.811 48H11.19a11.12 11.12 0 0 1-7.909-3.28A11.095 11.095 0 0 1 0 36.815V11.197C0 8.204 1.166 5.393 3.28 3.28A11.1 11.1 0 0 1 11.189 0H36.81Zm-.574 2.725H11.763c-4.988 0-9.049 4.06-9.049 9.047v24.456c0 4.987 4.06 9.047 9.05 9.047h24.473c4.988 0 9.049-4.06 9.049-9.047V11.772c0-4.987-4.06-9.047-9.05-9.047Zm.746 33.746c.377.183.548.629.377.983a.755.755 0 0 1-.16.228l-.126.126A18.989 18.989 0 0 1 24 43.007 18.957 18.957 0 0 1 11.017 37.9a2.35 2.35 0 0 1-.14-.13l-.077-.076-.074-.087a.7.7 0 0 1 .303-1.056 1.647 1.647 0 0 1 1.668.309c.08.068.149.125.206.183A17.062 17.062 0 0 0 24 41.122c4.389 0 8.4-1.657 11.429-4.365l.028-.019.029-.027.113-.095a1.367 1.367 0 0 1 1.384-.145ZM21.76 24.577c.543.845-.392 1.814-.558 1.976l-.025.024-.036.035c-.163.162-.864.855-1.612 1.586l-.322.313a57.69 57.69 0 0 1-1.573 1.493c-.768.67-2.852 1.686-3.018 1.786l-.01.008-6.755 3.177c-.525.297-1.417.057-1.748-.526-.332-.583-.08-1.165.354-1.6l.054-.052c.208-.205.998-.98 1.832-1.784l.344-.332c.803-.772 1.579-1.503 1.85-1.716.416-.328 1.195-.771 1.993-1.192l.4-.208.352-.18.504-.252c.752-.372 1.323-.636 1.323-.636s1.024-.494 2.094-1l.401-.19c.8-.376 1.557-.725 1.859-.844.743-.297 1.703-.811 2.297.114Zm5.6.446c.434 0 .811.114.811.114s1.08.296 2.23.62l.434.123c.865.245 1.7.489 2.08.617.965.329 2.889 1.616 3.041 1.718l.01.007 6.125 4.262c.515.308.755 1.2.423 1.76-.24.41-.628.57-1.04.57-.171 0-.354-.034-.525-.08 0 0-1.235-.339-2.535-.71l-.46-.132c-1.07-.31-2.091-.615-2.411-.746-.491-.194-1.265-.646-2.029-1.126l-.38-.241c-1.065-.685-2.014-1.352-2.014-1.352s-3.303-2.25-3.931-2.754c-.618-.49-1.543-1.074-1.04-2.045.262-.48.765-.605 1.211-.605ZM19.394 6.307a.801.801 0 0 1 .023.331c-.08.537-.457.994-.971 1.166-.046.011-.092.034-.137.046-6.663 2.342-11.44 8.695-11.44 16.156 0 .994.091 1.965.251 2.913.008.046.015.097.026.153l.02.087.019.14c.031.423-.161.837-.51 1.094a.836.836 0 0 1-1.178-.205.747.747 0 0 1-.107-.198l-.03-.11-.011-.058-.012-.057a18.588 18.588 0 0 1-.377-3.77c0-8.57 5.669-15.814 13.463-18.18l.011-.01h.012l.1-.025a.761.761 0 0 1 .848.527Zm9.966-.571c.286.08.526.148.709.217C37.61 8.489 43.04 15.608 43.04 24.006c0 1.222-.114 2.41-.331 3.565-.016.076-.03.162-.05.255l-.03.144-.03.1a.687.687 0 0 1-1.045.312 1.58 1.58 0 0 1-.64-1.554c.012-.057.012-.114.023-.16.137-.868.206-1.76.206-2.662 0-7.221-4.469-13.403-10.8-15.916a7.202 7.202 0 0 0-.418-.16l-.165-.058-.142-.055a1.817 1.817 0 0 1-1.058-1.339.64.64 0 0 1 .8-.742Zm-5.646-1.908c.675 0 1.063.514 1.212 1.108 0 0 .321 1.24.649 2.552l.115.464c.267 1.081.513 2.118.561 2.457.07.478.07 1.27.044 2.093l-.018.45a66.405 66.405 0 0 1-.174 2.644s-.297 3.988-.423 4.788c-.12.75-.157 1.781-1.108 1.917l-.15.014h-.045c-.996 0-1.346-1.354-1.38-1.496l-.006-.025c-.033-.128-.317-1.216-.604-2.346l-.115-.451a66.2 66.2 0 0 1-.478-1.978c-.208-1.01-.048-3.313-.035-3.496l.001-.012.629-7.438c0-.605.662-1.245 1.325-1.245Z" fill="#0176DF" fill-rule="nonzero"/></svg>