<svg viewBox="0 0 24 24" xmlns="http://www.w3.org/2000/svg"><path d="M13.837 14.49c.224-.232.386-.523.448-.869.883.468 1.766-.015 2.07-1.086 1.04.802 2.322.497 2.702-.786 1.218.804 2.496-.427 2.532-1.633a2.124 2.124 0 0 0 1.835-.697c.826-.898.738-2.273-.1-3.105.058-.176.107-.354.138-.535.596-3.442-6.278-1.513-7.95-.903a.478.478 0 0 0-.043-.149c-.727-1.52-3.118-2.526-4.72-2.577-1.574-.051-2.023 1.219-2.06 2.511-1.281-.988-2.831-1.23-4.444-.223C2.538 5.503 2.21 7.58 2.826 9.317 1.61 9.427.558 10.82.701 11.995c.143 1.175 1.152 2.046 2.278 2.248-2.171 1.012-4.225 3.449-2.056 5.616 1.324 1.323 3.88 1.153 5.569 1.367 3.958.502 7.937-.035 11.9.579 1.824.282 6.849-.665 4.853-3.742-1.966-3.03-5.719-3.63-9.408-3.573Zm.986-1.717c.282-.114.563-.232.843-.35-.09.403-.374.515-.843.35Zm2.318-1.005c.372-.176.74-.356 1.105-.546l.115-.062c.018.698-.39.9-1.22.607Zm2.005-1.056c.469-.286.954-.614 1.425-.978.022.014.042.033.064.047.4.945-.81 1.823-1.49.93Zm3.655-1.92c-.322.508-.84.651-1.36.59a1.483 1.483 0 0 0-.151-.245c.614-.552 1.16-1.166 1.56-1.821.262.449.284.95-.05 1.477Zm-3.356 12.004a34.869 34.869 0 0 1-2.493-.374c-2.517-.439-5.18-.172-7.724-.195-1.38-.013-2.737-.15-4.105-.325a17.68 17.68 0 0 1-2.33-.318c-.842-2.986-.273-4.563 1.704-4.731.677-.14.388-1.16-.284-1.03l-.005.002a.26.26 0 0 0-.161-.144c-.983-.278-1.997-.592-2.294-1.694-.285-1.06.78-1.357 1.526-1.759.29.286.91.015.733-.42C2.545 6.196 6.26 2.996 8.957 6.48c.376.484 1.008-.06.923-.537-.854-4.779 3.136-1.613 5.017-.644.028.014.054.02.081.028-.138.421.158.963.672.758A15.801 15.801 0 0 1 20.045 5a5.456 5.456 0 0 1 1.755.104c1.496.35-1.003 2.71-1.35 3.06-3.322 3.349-8.394 3.916-12.292 6.357-.194.121-.247.3-.211.463-.26.217-.186.706.249.73 2.455.142 4.91-.022 7.369.058 2.02.066 4.102.37 5.76 1.654.416 2.573-.21 3.696-1.88 3.37Zm-5.911-7.51c.087 1.065-1.255 1.564-1.892.742.63-.249 1.261-.495 1.892-.742Zm-2.173 1.323c-.488.036-.97.076-1.435.118.407-.174.818-.34 1.229-.506.049.151.12.277.206.388Zm7.066-7.56c-.01-.813-1.25-.813-1.261 0l-.003.191c-.01.816 1.277.816 1.266 0l-.002-.192Zm2.89-1.023a78.698 78.698 0 0 1-.19-.194c-.047-.047-.098-.07-.148-.1a.317.317 0 0 0-.302-.189.322.322 0 0 0-.32.22c-.303.204-.466.637-.13.967l.194.19c.583.572 1.468-.312.895-.894ZM8.138 8.276c-.227-.567-.81-1.06-1.433-1.258-.091-.105-.236-.155-.383-.078-.075-.009-.15-.017-.225-.016-.479.013-.832.337-.878.811-.026.27.047.542.162.803-.076.56.06 1.106.572 1.385.948.517 2.643-.503 2.185-1.647Zm5.226-1.97c-.049-.351-.344-.608-.689-.804a1.037 1.037 0 0 0-.4-.387l.016-.028c.168-.284-.242-.617-.466-.358l-.125.15c-.183-.055-.363-.1-.517-.143a.413.413 0 0 0-.517.394c.001.406-.02.825.207 1.181.074.115.372.364.391.474.02.112.11.2.217.252.104.204.382.295.576.166.134.025.268.036.393.025.507-.046.992-.355.914-.922Z" fill="#121212"/></svg>