<svg width="1326" height="512" viewBox="0 0 1326 512" fill="none" xmlns="http://www.w3.org/2000/svg">
<rect width="512" height="512" rx="89" fill="#FCFCFC"/>
<path d="M280.805 289.614C283.826 286.489 286.01 282.558 286.843 277.889C298.775 284.203 310.689 277.677 314.802 263.226C328.821 274.046 346.133 269.937 351.27 252.611C367.716 263.466 384.966 246.853 385.445 230.569C394.303 231.595 403.341 228.63 410.223 221.154C421.374 209.034 420.19 190.465 408.869 179.239C409.652 176.857 410.315 174.454 410.739 172.016C418.789 125.55 325.988 151.595 303.412 159.826C303.331 159.166 303.152 158.492 302.831 157.821C293.017 137.296 260.743 123.717 239.104 123.02C217.869 122.336 211.799 139.482 211.311 156.924C194.007 143.59 173.079 140.309 151.302 153.909C128.266 168.295 123.83 196.336 132.156 219.777C115.735 221.275 101.534 240.073 103.465 255.927C105.397 271.801 119.015 283.547 134.222 286.274C104.907 299.945 77.1754 332.84 106.456 362.094C124.339 379.962 158.847 377.664 181.637 380.554C235.082 387.327 288.786 380.083 342.287 388.36C366.92 392.173 434.752 379.395 407.802 337.85C381.267 296.948 330.601 288.842 280.805 289.614ZM294.111 266.439C297.919 264.892 301.709 263.306 305.493 261.706C304.279 267.153 300.442 268.667 294.111 266.439ZM325.408 252.861C330.42 250.499 335.402 248.063 340.325 245.491C340.828 245.228 341.359 244.927 341.87 244.656C342.118 254.086 336.616 256.802 325.408 252.861ZM352.465 238.607C358.797 234.757 365.352 230.324 371.714 225.407C372.007 225.604 372.28 225.855 372.578 226.04C377.983 238.805 361.625 250.65 352.465 238.607ZM401.81 212.701C397.461 219.554 390.476 221.485 383.442 220.658C382.881 219.516 382.216 218.402 381.409 217.344C389.704 209.903 397.082 201.614 402.482 192.763C406.012 198.827 406.31 205.602 401.81 212.701ZM356.508 374.749C345.227 373.471 334.005 371.788 322.848 369.699C288.878 363.77 252.921 367.375 218.575 367.063C199.941 366.893 181.624 365.027 163.166 362.674C152.59 361.947 142.103 360.516 131.704 358.389C120.345 318.078 128.017 296.786 154.714 294.515C163.848 292.624 159.945 278.857 150.88 280.618C150.855 280.623 150.828 280.631 150.805 280.636C150.359 279.76 149.7 279.001 148.63 278.697C135.369 274.943 121.669 270.705 117.662 255.821C113.814 241.527 128.187 237.498 138.264 232.081C142.188 235.936 150.544 232.283 148.163 226.418C128.359 177.636 178.504 134.431 214.926 181.467C219.99 188.007 228.53 180.644 227.381 174.222C215.854 109.703 269.713 152.438 295.115 165.528C295.484 165.718 295.841 165.783 296.207 165.897C294.344 171.591 298.331 178.908 305.271 176.14C324.347 168.527 344.125 163.411 364.606 161.494C372.552 160.75 380.537 161.092 388.303 162.909C408.492 167.632 374.757 199.5 370.07 204.22C325.229 249.421 256.749 257.078 204.13 290.028C201.512 291.667 200.798 294.094 201.282 296.285C197.762 299.216 198.773 305.814 204.642 306.151C237.786 308.059 270.94 305.841 304.121 306.923C331.4 307.812 359.502 311.913 381.879 329.255C387.5 363.98 379.043 379.145 356.508 374.749ZM276.709 273.367C277.885 287.74 259.77 294.474 251.163 283.376C259.671 280.016 268.192 276.699 276.709 273.367ZM247.376 291.216C240.782 291.707 234.278 292.247 227.995 292.809C233.499 290.469 239.038 288.213 244.592 285.986C245.247 288.026 246.219 289.727 247.376 291.216Z" fill="#121212"/>
<path d="M342.764 189.151C342.62 178.184 325.886 178.184 325.741 189.151C325.729 190.014 325.719 190.878 325.706 191.741C325.559 202.754 342.943 202.754 342.795 191.741L342.764 189.151Z" fill="#121212"/>
<path d="M381.77 175.345C380.911 174.474 380.057 173.603 379.202 172.73C378.575 172.092 377.887 171.781 377.214 171.394C376.537 169.951 375.217 168.831 373.136 168.831C370.849 168.831 369.422 170.146 368.828 171.799C364.723 174.55 362.521 180.396 367.069 184.854C367.939 185.708 368.813 186.564 369.685 187.419C377.558 195.14 389.495 183.209 381.77 175.345Z" fill="#121212"/>
<path d="M203.883 205.729C200.817 198.068 192.953 191.417 184.534 188.74C183.301 187.326 181.346 186.649 179.364 187.687C178.345 187.574 177.324 187.454 176.32 187.48C169.861 187.65 165.09 192.019 164.473 198.422C164.122 202.058 165.11 205.738 166.652 209.267C165.63 216.812 167.476 224.2 174.374 227.962C187.171 234.939 210.055 221.164 203.883 205.729Z" fill="#121212"/>
<path d="M274.428 179.127C273.773 174.393 269.779 170.917 265.13 168.28C263.911 166.087 262.022 164.381 259.734 163.056C259.805 162.933 259.865 162.801 259.937 162.679C262.217 158.842 256.673 154.342 253.656 157.836C253.085 158.499 252.526 159.19 251.968 159.879C249.493 159.13 247.057 158.519 244.99 157.932C241.539 156.952 237.988 159.685 238.001 163.252C238.021 168.742 237.723 174.396 240.798 179.199C241.792 180.751 245.826 184.117 246.082 185.604C246.342 187.116 247.555 188.288 249.002 188.999C250.418 191.756 254.165 192.987 256.786 191.245C258.596 191.581 260.406 191.733 262.09 191.579C268.939 190.953 275.485 186.791 274.428 179.127Z" fill="#121212"/>
<path d="M720.868 81.3947C718.65 82.3905 716.089 82.5869 713.454 82.9798C703.453 84.3684 693.26 85.1677 683.258 86.1566C679.845 86.5563 677.442 86.3598 677.053 86.9559C675.264 90.5257 678.848 145.501 679.251 154.015C679.661 161.365 679.858 167.312 679.66 168.918C679.463 171.099 676.042 173.28 671.468 173.28C666.061 173.28 655.862 170.902 652.066 161.968C651.494 160.359 651.156 158.678 651.062 156.976C649.253 143.286 649.854 103.396 649.854 89.916C643.648 90.3089 633.244 91.1014 627.052 91.1014C625.715 91.1497 624.376 91.084 623.051 90.905C616.046 90.3224 603.683 83.5759 603.048 77.4253C602.447 72.8667 607.642 71.2748 611.65 71.2748C613.65 71.2748 616.046 71.4713 618.647 71.4713C619.388 71.4955 620.128 71.4295 620.853 71.2748C632.247 70.2791 653.622 64.5011 688.263 64.5011C695.847 64.5011 704.06 64.6976 712.84 65.4901C718.049 65.8897 724.644 69.6627 725.251 75.2103C725.654 78.6175 723.258 80.6022 720.868 81.3947Z" fill="#FCFCFC"/>
<path d="M792.525 65.314C782.721 67.5087 772.119 69.2902 767.948 70.0556C763.94 70.8481 760.732 71.6406 758.335 72.2367C756.97 83.1559 754.526 114.911 753.126 128.797C761.728 126.02 767.525 123.243 777.13 123.046C789.938 122.843 802.738 130.782 803.141 134.954C802.738 140.312 793.938 145.067 788.34 145.067H786.545C778.352 145.067 762.131 150.832 753.775 153.196C753.966 154.192 753.966 155.58 754.164 157.368C754.553 160.545 754.963 164.142 755.174 167.095C755.366 169.08 755.366 170.482 755.762 171.261C758.95 170.665 762.159 169.676 765.565 168.681C770.972 167.292 777.567 165.707 781.561 165.707C788.169 165.707 805.176 171.458 805.565 175.434C806.575 183.969 776.168 190.512 769.573 192.294C764.555 193.493 759.332 195.87 754.362 195.87C750.355 195.87 744.961 194.515 741.391 189.923C735.595 182.77 732.386 171.065 730.98 158.96C728.59 140.306 729.389 117.681 730.788 99.4195C732.154 81.957 733.997 68.8567 734.202 67.2716C733.799 64.6908 731.99 62.3133 731.601 59.3261C731.403 56.9553 731.99 52.7827 737.008 51.9902C747.003 50.6016 756.806 48.4204 764.999 46.6254C773.594 44.8439 781.383 43.4553 787.002 43.4553C791.59 43.4553 811.006 48.6169 811.579 56.7521C811.729 59.3599 802.916 62.9432 792.525 65.314Z" fill="#FCFCFC"/>
<path d="M909.984 93.7025C907.574 95.8836 901.191 100.639 893.797 106.403C887.98 110.969 881.386 116.123 876.388 120.689C883.584 126.846 892.985 135.374 895.586 137.555C897.107 138.81 898.106 140.578 898.392 142.52C898.979 147.086 894.575 150.066 890.199 150.066C884.403 150.066 877.808 144.505 873.391 141.132C869.814 138.551 866.195 135.571 863 133.003C858.604 136.58 854.992 140.543 850.999 144.519C847.203 148.285 839.393 156.827 833.2 156.827C828.422 156.827 825.199 152.654 824.598 147.892C824.279 144.484 824.606 141.047 825.561 137.759C827.548 132.204 837.74 121.678 842.956 116.516C837.549 111.775 822.762 100.842 821.943 94.0954C821.554 90.9185 825.561 88.541 829.548 88.541C830.954 88.541 834.163 88.7374 836.15 90.3224C837.549 91.3182 847.954 97.6651 857.156 104.222C865.95 95.0911 884.744 79.6132 888.752 76.6261C890.196 75.5057 892.001 74.9447 893.831 75.0478C901.225 75.0478 910.619 83.3726 911.418 89.1371C911.559 89.9563 911.503 90.7971 911.254 91.5907C911.004 92.3842 910.569 93.1079 909.984 93.7025V93.7025Z" fill="#FCFCFC"/>
<path d="M955.65 159.787C936.042 159.787 922.04 144.112 920.053 128.235C917.637 108.781 931.257 75.6438 959.65 75.6438C963.234 75.6438 968.641 76.0367 972.847 79.8029C981.251 80.2093 993.656 85.9602 996.25 107.196C996.461 109.58 996.851 112.357 996.851 115.128C997.055 135.374 976.861 159.787 955.65 159.787ZM972.656 99.2569C971.254 98.7028 969.754 98.4311 968.245 98.4576C954.434 98.4576 939.435 119.3 941.047 131.208C941.436 134.385 942.446 136.167 945.825 136.167C952.441 136.167 962.442 129.82 965.829 124.651C970.027 117.878 973.222 104.798 972.656 99.4398V99.2569Z" fill="#FCFCFC"/>
<path d="M1133.52 156.014C1134.12 163.56 1122.33 166.533 1117.72 166.533C1115.91 166.533 1113.52 166.337 1111.52 165.145C1106.51 161.968 1092.72 148.475 1079.31 135.374C1071.12 127.246 1062.72 118.901 1053.91 110.989C1054.9 131.032 1055.72 163.973 1054.9 172.508C1054.71 175.684 1052.51 178.658 1048.31 178.658C1040.11 178.658 1030.91 167.542 1030.11 161.399C1028.91 150.879 1031.74 92.3139 1030.31 78.4008C1029.92 73.0428 1036.71 69.8659 1041.92 69.8659C1044.17 69.88 1046.38 70.4978 1048.31 71.6542C1050.92 73.6388 1066.52 88.9203 1081.72 104.005C1091.91 114.166 1102.53 124.448 1109.54 131.588C1108.72 111.944 1107.49 69.6762 1109.54 57.5649C1110.12 53.7987 1113.31 52.4101 1116.32 52.4101C1125.33 52.4101 1133.93 61.541 1135.14 69.473C1135.53 72.6499 1135.53 77.6015 1135.14 83.5623C1133.92 107.792 1131.92 131.601 1133.52 156.014Z" fill="#FCFCFC"/>
<path d="M1174.42 86.1566C1171.21 87.7485 1164.42 90.1328 1159.81 90.1328C1157.01 90.1328 1152.81 88.9339 1152.22 85.1677C1151.42 78.8207 1174.63 45.8803 1180.82 43.2927C1182.28 42.7597 1183.83 42.4913 1185.39 42.5002C1189.8 42.5002 1200 45.4739 1200.8 51.6244C1201.61 58.1745 1182.61 81.9908 1174.42 86.1566Z" fill="#FCFCFC"/>
<path d="M1313.83 88.3445C1312.08 88.3997 1310.35 87.9854 1308.82 87.1456C1307.46 86.3599 1304.84 85.5673 1300.03 85.5673C1275.23 85.5673 1226.98 103.626 1216.63 114.146C1219.12 114.893 1221.65 115.488 1224.22 115.927C1234.63 118.108 1273.63 126.047 1280.2 130.016C1283.61 132.001 1292.6 140.732 1293.41 148.475C1293.8 151.448 1293.2 154.429 1290.2 156.603C1283.8 161.765 1249.99 176.646 1241.59 176.646C1233.99 176.646 1219.4 170.895 1218.78 165.734C1218.59 164.542 1219.19 163.35 1219.79 162.347C1223.8 156 1265.79 148.854 1266.6 144.288C1266.41 144.099 1266 144.288 1265.59 144.099C1264.39 143.896 1262.4 143.496 1260.61 143.103C1244.6 138.937 1210.8 135.557 1198.79 123.256C1196.19 120.675 1194.79 116.11 1194.38 112.54C1193.8 107.575 1194.38 100.436 1198.39 96.6626C1207.79 87.9246 1256.99 64.7111 1294.19 64.7111C1306.21 64.7111 1316.21 68.2877 1324.62 77.8115C1325.29 78.6859 1325.76 79.7032 1325.98 80.7851C1326.43 84.3684 1318.83 88.3445 1313.83 88.3445Z" fill="#FCFCFC"/>
<path d="M820.161 407.805C809.087 419.415 766.603 450.872 749.358 450.872C739.506 450.872 729.354 445.677 719.51 438.68C715.509 435.916 713.652 429.501 712.737 424.001C709.658 399.284 709.324 312.845 715.195 289.645C717.353 280.765 725.975 277.73 732.741 277.73C747.828 277.73 759.209 288.399 760.731 301.235C762.581 317.417 759.188 363.228 761.967 396.229C769.668 392.246 790.279 380.04 800.13 380.04C807.824 380.04 822.297 384.612 823.84 397.15C824.136 399.089 823.955 401.07 823.315 402.925C822.674 404.779 821.592 406.454 820.161 407.805V407.805Z" fill="#FCFCFC"/>
<path d="M1006.48 458.506C1001.55 464.603 991.089 469.5 982.166 469.5C978.465 469.5 971.7 468.904 966.778 463.404C962.463 458.506 952.304 414.538 949.532 404.147C927.379 408.72 899.695 413.001 887.973 414.538C883.351 423.093 876.9 446.002 871.042 451.17C867.663 454.232 863.034 454.855 858.112 454.855C850.418 454.855 834.101 451.468 832.572 437.447C829.159 410.264 901.211 290.526 909.833 286.272C919.219 281.65 929.519 279.145 939.995 278.936C948.304 278.936 957.841 281.645 961.534 288.71C977.516 317.106 1004.92 415.439 1008.31 444.18C1009.21 449.653 1008.92 455.451 1006.48 458.506ZM932.888 317.106C930.417 317.404 919.651 347.648 908.564 370.848C919.533 368.248 930.63 366.214 941.811 364.752C939.654 349.484 934.431 317.106 932.888 317.106Z" fill="#FCFCFC"/>
<path d="M1137.38 374.824C1149.39 381.544 1161.08 391.636 1162.94 405.367C1167.25 441.098 1109.06 462.191 1079.21 462.191C1064.43 462.191 1046.89 446.612 1044.11 433.166C1043.81 431.025 1043.19 428.269 1042.88 425.532C1037.96 383.677 1048.12 274.038 1057.68 266.709C1065.99 260.295 1087.23 258.757 1104.79 258.757C1132.49 258.757 1171.28 262.733 1188.51 272.806C1201.13 280.142 1216.5 296.331 1218.37 311.3C1221.72 338.172 1166.91 363.573 1137.38 374.824ZM1091.81 394.055C1091.2 403.829 1090.89 416.035 1090.89 426.108C1101.05 422.721 1111.82 417.255 1110.59 409.024C1109.99 403.538 1102.59 397.733 1091.81 394.055ZM1121.98 295.999C1114.37 295.979 1106.76 296.395 1099.19 297.245C1097.66 309.153 1096.13 332.976 1094.89 349.145C1125.05 340.908 1167.25 326.562 1165.08 303.958C1164.46 299.081 1150 296.019 1122 296.019L1121.98 295.999Z" fill="#FCFCFC"/>
</svg>
