<svg viewBox="0 0 24 24" xmlns="http://www.w3.org/2000/svg"><path d="M22.9 7.436c.902-.864 1.476-2.138.812-3.311-.82-1.466-2.571-2.12-4.245-2.079-.853-1.637-2.8-1.476-3.295.259-1.329-.013-1.8 1.02-1.476 2.198-1.257-.031-1.792.871-1.407 2.049-.749-.054-1.5.193-1.526.834a1.438 1.438 0 0 0-1.216-.415 1.51 1.51 0 0 0-1.202 1.04c-.28-.313-.633-.54-1.07-.42-.495.136-.698.609-.768 1.107-.447-.391-.962-.511-1.36-.236-.065-.515-.476-.958-1-1.228.315-.27.553-.614.444-1.037-.105-.38-.424-.601-.782-.738.553-.554.755-1.32.05-2.006-.554-.53-1.292-.434-1.662.085a1.417 1.417 0 0 0-1.188-.155C-.07 3.89-.034 7.046.014 8.705c.092 3.212 2.262 5.744 5.33 6.593a.166.166 0 0 0 .124-.015c-.019.912.121 1.95.43 2.464.5.827.935 1.307.343 2.34-.246.427-.631.62-.845.986-.456.777 1.179 1.43 1.624 1.61 1.543.622 5.38.668 6.795-.781.62.369 1.902.304 2.457.317 1.143.026 2.043-.223 2.706-1.18 1.262-1.824-1.846-2.332-3.276-2.216a3.742 3.742 0 0 1-.094-1.242 3.016 3.016 0 0 0 1.476-1.674c.107-.27.19-.548.25-.832.064 0 .128.018.195.031.157.493.474 1.008 1.044.997.57-.011.923-.513 1.108-.973a1.55 1.55 0 0 0-.23-1.57c-.45-.554-1.267-.593-1.939-.506 0-1.108-.085-2.232.111-3.304 1.689.792 4.404.425 4.393-1.661.119-.066.235-.137.347-.214.016.058.035.115.057.172-.122.454.574.812.854.34.113-.185.205-.385.078-.6a1.212 1.212 0 0 0-.452-.351ZM18.644 2.12c-.41.066-.809.18-1.19.34-.235.103-.46.227-.675.369 0-.015.017-.024.02-.04.219-1.223 1.177-1.47 1.845-.669Zm-2.29.912c.04.004.08.004.12 0a6.22 6.22 0 0 0-1.15 1.13c-.163-.602-.117-1.293 1.03-1.13Zm-1.745 2.181c-.232.392-.445.8-.639 1.213-.24-.677-.055-1.19.64-1.213Zm-1.006 2.03c-.171.41-.332.816-.483 1.208-.267-.15-.55-.27-.844-.358a.185.185 0 0 0 .017-.106c.369-.692.806-.937 1.31-.74v-.003Zm-2.47.739a2.584 2.584 0 0 0-.686.196c-.146.064-.299.136-.456.21.213-.648.672-.716 1.143-.4v-.006Zm-2.94.685c.436-.157.739-.106.923.144-.32.15-.65.295-.981.424.004-.19.023-.38.059-.568Zm-2.03.45c.456-.862.98-.114 1.24.37-.476.15-.981.19-1.476.12.07-.168.148-.332.236-.49Zm-.882-.04a.37.37 0 0 0-.016.24c-.407-.285-.739-.772-.923-1.566v-.037c.729.16 1.306.554.935 1.362h.004ZM4.246 6.982c-.026-.295-.052-.625-.087-.965.09.02.185.033.273.063.663.18.166.666-.186.902Zm-.21-1.805a3.354 3.354 0 0 0-.486-1.303c.657-.43 1.567.54.485 1.303ZM17.21 19.71c.343.044.674.155.976.325.42.247-.043.701-.227.934-.447.565-1.687.406-2.305.37-.33-.023-.888-.197-1.357-.228.456-1.476-1.13-2.18-2.584-2.325.323-.329.556-.734.678-1.178.987.312 1.954.406 2.768.162-.08.464-.026.923-.127 1.394a.4.4 0 0 0 .275.483c.594.139 1.284-.03 1.903.063Zm.286-6.03c.489-.022 1.06 0 1.386.342.184.197.184.511.086.817a1.404 1.404 0 0 1-.184.344c-.026.03-.055.057-.085.085l-.018.018h-.015a.46.46 0 0 1-.057.032l-.034.01h-.033l-.035-.018s-.052-.046-.063-.059l-.046-.068c-.028-.05-.054-.101-.077-.153a2.44 2.44 0 0 1-.115-.37.391.391 0 0 0-.369-.284 2.93 2.93 0 0 1-.38-.048c.015-.208.03-.426.039-.647Zm4.355-6.474c-1.82 1.224-3.453-.253-4.35-1.798-.277-.474-.95-.059-.723.423.17.358.376.697.618 1.011a.543.543 0 0 0-.21.046 2.055 2.055 0 0 0-.416.202c-.59.336 0 1.148.499.847.157-.115.304-.233.454-.356a.393.393 0 0 0 .112-.244c.115.114.235.223.358.325a.45.45 0 0 0-.158.618l.142.306c.184.37.755.185.755-.204v-.238c.741.395 1.61.48 2.414.234-.777 1.212-2.65 1.177-3.808.31-.236-.185-.58.015-.651.266-.923 3.178 1.14 9.115-4.297 7.829h-.048c.057-.847-.185-1.689-.762-2.117-.296-.216-.554.185-.447.445.332.738.532 1.275.31 2.102-.15.554-.504 1.168-1.04 1.425a.258.258 0 0 0-.14.16c-.114.017-.227.04-.339.07-.51.148-.297.909.218.792a4.497 4.497 0 0 1 2.19.106 1.011 1.011 0 0 1 .111 1.925 7.034 7.034 0 0 1-1.827.369 14.11 14.11 0 0 1-2.497 0 5.371 5.371 0 0 1-1.072-.185c-.29-.147-.567-.316-.84-.489.596-.469 1.499-1.818 1.292-2.4-.343-.965-1.063-1.634-1.246-2.692-.273-1.576-.184-3 1.602-3.507.273-.077.229-.54-.07-.51-1.16.12-1.95.588-2.342 1.723a4.025 4.025 0 0 0-.16.963C2.493 13.412.828 11.123.85 7.807c0-1.065.146-2.17.659-3.12l1.648.215c.1.307.161.625.184.946.061.537.078 1.076.137 1.613.127 1.187.674 2.553 1.966 2.876 2.785.694 5.254-2.4 7.692-.904.434.264.807-.338.488-.656 1.692-3.322 3.929-7.445 8.305-5.24 1.722.875 1.297 2.736-.078 3.668Zm-6.419 5.642c-.537-.483-1.519-.4-2.143-.155-.184.072-.184.38.05.37.52-.03 1.16-.161 1.573.208a.67.67 0 0 1 .184.707c-.012.05-.027.1-.046.147-.02.043-.129.21-.083.152a.797.797 0 0 1-.074.083c-.014.013-.016.018-.022.022l-.052.03h-.024s-.047-.015-.022 0h-.046a.101.101 0 0 0 .026 0l-.044-.027a.723.723 0 0 1-.074-.075c-.116-.127-.207-.473-.37-.643-.162-.17-.51-.107-.553.144-.085.578.441 1.34 1.061 1.346.506 0 .851-.474.995-.906.17-.493.04-1.04-.336-1.403Zm6.296-7.401a2.745 2.745 0 0 0-.034-.651.432.432 0 0 0-.819 0 2.24 2.24 0 0 0-.028.52c0 .303-.044.57.104.843 0 .019.027.026.04.041v.018c.045.29.541.29.584 0V6.2c0-.005.03-.022.038-.04.107-.222.147-.47.115-.713Zm-1.379-.362a.49.49 0 0 0-.271-.275.369.369 0 0 0-.703.02v.047a7.194 7.194 0 0 0-.076 1.26c-.019.57.834.554.878 0 .013-.275.296-.738.172-1.052Z" fill="#040000"/></svg>