<svg id="图层_1" data-name="图层 1" xmlns="http://www.w3.org/2000/svg" viewBox="0 0 460.09 152.09"><defs><style>.cls-1{fill:#fff;}.cls-2{fill:#040000;}</style></defs><rect class="cls-1" width="146.87" height="152.09" rx="24.94"/><path class="cls-2" d="M136.68,61.62c4.89-4.68,8-11.58,4.4-17.94-4.44-7.94-13.93-11.48-23-11.26-4.62-8.87-15.17-8-17.85,1.4-7.2-.07-9.75,5.53-8,11.91-6.81-.17-9.71,4.72-7.62,11.1-4.06-.29-8.13,1.05-8.27,4.52a7.79,7.79,0,0,0-6.59-2.25,8.18,8.18,0,0,0-6.51,5.64c-1.52-1.7-3.43-2.93-5.8-2.28-2.68.74-3.78,3.3-4.16,6-2.42-2.12-5.21-2.77-7.37-1.28-.35-2.79-2.58-5.19-5.42-6.65,1.71-1.47,3-3.33,2.41-5.62-.57-2.06-2.3-3.26-4.24-4,3-3,4.09-7.15.27-10.87-3-2.87-7-2.35-9,.46a7.68,7.68,0,0,0-6.44-.84C12.23,42.41,12.42,59.51,12.68,68.5c.5,17.4,12.26,31.12,28.88,35.72a.9.9,0,0,0,.67-.08c-.1,4.94.66,10.56,2.33,13.35,2.71,4.48,5.07,7.08,1.86,12.68-1.33,2.31-3.42,3.36-4.58,5.34-2.47,4.21,6.39,7.75,8.8,8.72C59,147.6,79.79,147.85,87.46,140c3.36,2,10.3,1.65,13.31,1.72,6.19.14,11.07-1.21,14.66-6.4,6.84-9.88-10-12.63-17.75-12a20.28,20.28,0,0,1-.51-6.73,16.34,16.34,0,0,0,8-9.07,27.4,27.4,0,0,0,1.35-4.51c.35,0,.7.1,1.06.17.85,2.67,2.57,5.46,5.66,5.4s5-2.78,6-5.27a8.4,8.4,0,0,0-1.25-8.51c-2.43-3-6.86-3.21-10.5-2.74,0-6-.46-12.09.6-17.9,9.15,4.29,23.86,2.3,23.8-9A22.35,22.35,0,0,0,133.77,64a9.21,9.21,0,0,0,.31.93c-.66,2.46,3.11,4.4,4.63,1.84.61-1,1.11-2.08.42-3.25A6.57,6.57,0,0,0,136.68,61.62Zm-23.06-28.8a28.6,28.6,0,0,0-6.45,1.84,24.55,24.55,0,0,0-3.65,2c0-.08.09-.13.11-.22C104.81,29.82,110,28.48,113.62,32.82Zm-12.41,4.94a3.5,3.5,0,0,0,.65,0,33.7,33.7,0,0,0-6.23,6.12C94.75,40.62,95,36.88,101.21,37.76ZM91.76,49.58c-1.26,2.12-2.41,4.33-3.46,6.57C87,52.48,88,49.7,91.76,49.58Zm-5.45,11c-.93,2.22-1.8,4.42-2.62,6.54a22.4,22.4,0,0,0-4.57-1.94,1,1,0,0,0,.09-.57C81.21,60.86,83.58,59.53,86.31,60.6Zm-13.38,4a14,14,0,0,0-3.72,1.06c-.79.35-1.62.74-2.47,1.14C67.89,63.27,70.38,62.9,72.93,64.61ZM57,68.29c2.36-.85,4-.57,5,.78-1.74.81-3.52,1.6-5.32,2.3A18.87,18.87,0,0,1,57,68.29ZM46,70.73c2.47-4.67,5.31-.62,6.72,2a18,18,0,0,1-8,.65A25.14,25.14,0,0,1,46,70.73Zm-4.78-.22a2,2,0,0,0-.09,1.3c-2.2-1.54-4-4.18-5-8.48a1.42,1.42,0,0,0,0-.2C40.08,64,43.21,66.13,41.2,70.51ZM35.61,59.17c-.14-1.6-.28-3.39-.47-5.23.49.11,1,.18,1.48.34C40.21,55.26,37.52,57.89,35.61,59.17Zm-1.14-9.78a18.17,18.17,0,0,0-2.63-7.06C35.4,40,40.33,45.25,34.47,49.39Zm71.38,78.73a14.51,14.51,0,0,1,5.29,1.76c2.28,1.34-.23,3.8-1.23,5.06-2.42,3.06-9.14,2.2-12.49,2-1.79-.12-4.81-1.06-7.35-1.23,2.47-8-6.12-11.81-14-12.6a14.64,14.64,0,0,0,3.67-6.38c5.35,1.69,10.59,2.2,15,.88-.43,2.51-.14,5-.69,7.55a2.17,2.17,0,0,0,1.49,2.62C98.76,128.53,102.5,127.61,105.85,128.12Zm1.55-32.67c2.65-.12,5.74,0,7.51,1.85,1,1.07,1,2.77.47,4.43a7.62,7.62,0,0,1-1,1.86c-.14.16-.3.31-.46.46l-.1.1s0,0-.08,0a2.38,2.38,0,0,1-.31.17l-.18.06h-.18l-.19-.1s-.28-.25-.34-.32,0,0-.25-.37a9.23,9.23,0,0,1-.42-.83,13.21,13.21,0,0,1-.62-2,2.12,2.12,0,0,0-2-1.54,15.89,15.89,0,0,1-2.06-.26C107.27,97.83,107.35,96.65,107.4,95.45ZM131,60.37C121.14,67,112.29,59,107.43,50.63c-1.5-2.57-5.15-.32-3.92,2.29a30.11,30.11,0,0,0,3.35,5.48,2.94,2.94,0,0,0-1.14.25,11.13,11.13,0,0,0-2.25,1.09c-3.2,1.82,0,6.22,2.7,4.59v0c.85-.62,1.65-1.26,2.46-1.93l0,0a2.13,2.13,0,0,0,.61-1.32c.62.62,1.27,1.21,1.94,1.76a2.44,2.44,0,0,0-.86,3.35l.77,1.66c1,2,4.09,1,4.09-1.11,0-.32,0-.63,0-.94,0-.11,0-.24,0-.35a17.14,17.14,0,0,0,13.08,1.27c-4.21,6.57-14.36,6.38-20.63,1.68-1.28-1-3.14.08-3.53,1.44-5,17.22,6.18,49.39-23.28,42.42-.09,0-.17,0-.26,0,.31-4.59-1-9.15-4.13-11.47-1.6-1.17-3,1-2.42,2.41,1.8,4,2.88,6.91,1.68,11.39-.81,3-2.73,6.33-5.64,7.72a1.4,1.4,0,0,0-.75.87,16.51,16.51,0,0,0-1.84.38c-2.76.8-1.61,4.92,1.18,4.29a24.37,24.37,0,0,1,11.87.57,5.48,5.48,0,0,1,.6,10.43,38.11,38.11,0,0,1-9.9,2,76.43,76.43,0,0,1-13.53,0,29.14,29.14,0,0,1-5.81-1c-1.57-.8-3.07-1.71-4.55-2.65,3.23-2.54,8.12-9.85,7-13-1.86-5.23-5.76-8.86-6.75-14.59-1.48-8.54-1-16.25,8.68-19,1.48-.42,1.24-2.93-.38-2.76-6.28.65-10.57,3.18-12.69,9.33a21.81,21.81,0,0,0-.87,5.22C26.12,94,17.1,81.6,17.21,63.63c0-5.77.79-11.76,3.57-16.9l8.93,1.16a21.81,21.81,0,0,1,1,5.13c.33,2.91.42,5.83.74,8.74.69,6.43,3.65,13.83,10.65,15.58,15.09,3.76,28.47-13,41.68-4.9,2.35,1.43,4.37-1.83,2.64-3.55,9.17-18,21.29-40.34,45-28.39C140.75,45.24,138.45,55.32,131,60.37Z" transform="translate(-4.18 -9.33)"/><path class="cls-2" d="M96.22,90.94c-2.91-2.62-8.23-2.17-11.61-.84-1,.39-1,2.06.27,2,2.82-.16,6.28-.87,8.52,1.13a3.63,3.63,0,0,1,1,3.83,6,6,0,0,1-.25.8c-.11.23-.7,1.14-.45.82a4.28,4.28,0,0,1-.4.45c-.08.07-.09.1-.12.12l0,0-.28.16-.13,0h0s-.26-.08-.12,0h0l0,0h0l0,0H92.4a.59.59,0,0,0,.14,0l-.24-.14a3.87,3.87,0,0,1-.4-.41c-.63-.69-1.12-2.56-2-3.48s-2.77-.58-3,.78c-.46,3.13,2.39,7.26,5.75,7.29,2.74,0,4.61-2.57,5.39-4.91A7.27,7.27,0,0,0,96.22,90.94Z" transform="translate(-4.18 -9.33)"/><rect class="cls-2" x="88.36" y="90.13"/><path class="cls-2" d="M130.33,50.84a14.89,14.89,0,0,0-.18-3.53,2.34,2.34,0,0,0-4.44,0,12.11,12.11,0,0,0-.15,2.82c0,1.64-.24,3.09.56,4.57,0,.1.15.14.22.22a.34.34,0,0,0,0,.1c.24,1.57,2.93,1.57,3.16,0,0,0,0-.07,0-.1s.16-.12.21-.22A6.8,6.8,0,0,0,130.33,50.84Z" transform="translate(-4.18 -9.33)"/><path class="cls-2" d="M122.86,48.88a2.66,2.66,0,0,0-1.47-1.49,2,2,0,0,0-3.81.11l0,.15s0,.06,0,.1a39,39,0,0,0-.41,6.83c-.1,3.09,4.52,3,4.76,0C122,53.09,123.53,50.58,122.86,48.88Z" transform="translate(-4.18 -9.33)"/><path class="cls-1" d="M237.82,31.11a1.2,1.2,0,0,1-.16.57c-.82,1.15-18.78,2-19.43,3.61A14.64,14.64,0,0,0,218,38.9c0,8.6,1.56,29.43,1.56,33,0,.65-.25,1-1.72,1-2,0-4.92-.9-6.07-3.69-.74-2.87-1-17.13-1-26.32V35.45c.08-.16-7.71.74-11.57.74-2.78,0-7.54-2.54-7.78-4.35,0-.73.82-.9,1.88-.9.82,0,1.89.17,2.87.17,4.51,0,13.28-3.12,28.45-3.12,3.77,0,13-.57,13.2,2.87Z" transform="translate(-4.18 -9.33)"/><path class="cls-1" d="M248.32,28.57C247.58,33,246,57.43,246,57.43c3.77-.82,7.3-3.12,11.56-3.28,4.59,0,9,2.05,9.1,3.19,0,.91-2.21,2.71-4.34,2.71-3.28,0-8.69,1.72-15.66,3.94a5.4,5.4,0,0,0-.17,1.39c0,3.36,1.72,9.84,2.38,9.92.9.16,8.36-2.46,11.15-2.46,2,0,7.54,1.07,7.71,2.38,0,2.62-15,5.66-16.81,6.48a5.86,5.86,0,0,1-2.46.57c-6.81,0-8.28-14.51-8.28-27a270,270,0,0,1,1.72-27.22c0-.65-1.07-2.78-1.07-4,0-.58.17-1,.74-1.07,8.28-1.31,16.15-3.69,20.25-3.69,3,0,7.79,2.05,8,3.77v.08C269.88,24.79,252.17,26.93,248.32,28.57Z" transform="translate(-4.18 -9.33)"/><path class="cls-1" d="M292.59,51.36c4.43,4,10,10,10,10.08A1.6,1.6,0,0,1,300.87,63c-2,0-7.05-5-11.32-8.36-5.08,4.51-9.18,11.48-12.05,11.48-1.15,0-1.56-1.64-1.56-3.28a8.89,8.89,0,0,1,.41-2.79c.82-2.79,6.73-9.43,7.71-10.33-2.21-2.79-7.71-6.56-9.34-10.33-.09-.08-.09-.08-.09-.17,0-.49.66-.65,1.48-.65a2.41,2.41,0,0,1,1.47.33c.58.49,6,4.18,10.09,7.54,2.79-3.61,11.89-12.3,13.69-13.78a1.62,1.62,0,0,1,1-.32c2,0,5,3,5.24,4.59C307.59,38.08,297.67,45.7,292.59,51.36Z" transform="translate(-4.18 -9.33)"/><path class="cls-1" d="M324.4,67.35c-8.61,0-12.79-8.45-12.79-15.5,0-13.61,9.84-19.27,14.51-19.27a5.24,5.24,0,0,1,4.51,1.89c2.95,0,8,1.15,8.78,14.18C339.41,57.26,331.94,67.35,324.4,67.35Zm4.76-28.13c-6.56,0-12.63,9.68-12.63,16,0,3.69,2.05,5.09,4.18,5.09,3.45,0,8-3.28,9.51-6.07a29.72,29.72,0,0,0,2.87-11.64v-1C332.85,39.39,330.47,39.22,329.16,39.22Z" transform="translate(-4.18 -9.33)"/><path class="cls-1" d="M392.7,31.52c0,5.33-.74,14.92-.74,25,0,3.45.08,7,.33,10.42,0,1.47-2.71,2.87-4.84,2.87a2.39,2.39,0,0,1-1.39-.33c-3.86-2.54-21.73-22.71-26.73-26.65.41,6.07.9,20.58.9,27.8,0,3.19.08,4.51-1.15,4.51-1.56,0-4.34-2.63-5.25-5.25-.32-.33-.32-3.45-.32-7.54,0-5.91.08-14.11.08-20.58,0-4-.17-7.38-.17-9.11,0-1.23,1.56-1.88,3-1.88a2.57,2.57,0,0,1,1.47.33c1.81,1.39,24.76,26.23,28.37,29.68,0,0-.9-16.65-.9-28,0-5.25-.24-9.84,1.56-9.84,1.64,0,5.66,2.54,5.66,5.74C392.7,29.47,392.7,30.37,392.7,31.52Z" transform="translate(-4.18 -9.33)"/><path class="cls-1" d="M416.23,21.68c0,2.54-6.64,13.36-9.68,15.17a13,13,0,0,1-5.08,1.72,1.17,1.17,0,0,1-1-.33c0-1.89,7.79-17.87,10.33-19.1a2.51,2.51,0,0,1,1.14-.25c1.65,0,4.27,1.48,4.27,2.62Z" transform="translate(-4.18 -9.33)"/><path class="cls-1" d="M461,34.88c-1.31,0-2.86-1.23-5.73-1.23-11.07,0-33.7,9.26-36.16,14.59v.09c.24,1.63,24.84,6.8,27.63,8.6,1.15.74,4.59,4.35,4.59,7.06a2.13,2.13,0,0,1-.74,1.8c-1.88,1.64-15.49,8.53-18.86,8.53-2.62,0-7.13-1.64-7.29-3,0-1.72,19.51-6.14,19.51-9.67,0-.08-.08-.08-.08-.16-.82-3.37-22.55-4-28.37-10.34-.74-.82-1.39-3.19-1.39-5.41a5.8,5.8,0,0,1,1.23-3.93c3.52-3.61,23.2-13.78,38-13.78a13.1,13.1,0,0,1,11,5.25C464.27,34.06,462.47,34.88,461,34.88Z" transform="translate(-4.18 -9.33)"/><path class="cls-1" d="M294.66,134.32c-3,3.11-14.26,11.56-18.86,11.56-2.62,0-5.33-1.4-7.95-3.28-1.06-.74-1.56-2.46-1.8-3.94-.82-6.64-.91-29.84.65-36.07.58-2.38,2.87-3.2,4.68-3.2a7.35,7.35,0,0,1,7.46,6.31c.49,4.35-.41,16.65.33,25.5,2.05-1.07,7.54-4.34,10.16-4.34,2.05,0,5.91,1.23,6.32,4.59A3.31,3.31,0,0,1,294.66,134.32Z" transform="translate(-4.18 -9.33)"/><path class="cls-1" d="M344.26,147.93a9.06,9.06,0,0,1-6.47,2.95,5.35,5.35,0,0,1-4.1-1.64c-1.15-1.31-3.86-13.12-4.59-15.91-5.91,1.23-13.29,2.38-16.4,2.79-1.23,2.3-2.95,8.45-4.51,9.84a4.9,4.9,0,0,1-3.44,1c-2.05,0-6.4-.9-6.81-4.67-.9-7.3,18.28-39.44,20.58-40.59a19,19,0,0,1,8-2c2.22,0,4.76.73,5.74,2.62,4.27,7.63,11.57,34,12.47,41.73C345,145.55,344.92,147.11,344.26,147.93Zm-19.59-38c-.66.08-3.53,8.19-6.48,14.43a84.07,84.07,0,0,1,8.86-1.64C326.47,118.66,325.08,110,324.67,110Z" transform="translate(-4.18 -9.33)"/><path class="cls-1" d="M379.11,125.46c3.2,1.81,6.31,4.51,6.81,8.2,1.14,9.59-14.35,15.25-22.31,15.25-3.93,0-8.6-4.18-9.34-7.79-.09-.57-.25-1.31-.33-2.05-1.31-11.23,1.39-40.67,3.93-42.63,2.22-1.73,7.88-2.14,12.55-2.14,7.38,0,17.71,1.07,22.3,3.78,3.36,2,7.46,6.31,7.95,10.33C401.58,115.62,387,122.43,379.11,125.46ZM367,130.63c-.17,2.62-.25,5.9-.25,8.61,2.71-.91,5.57-2.38,5.25-4.6C371.81,133.17,369.85,131.61,367,130.63Zm8-26.32a52.06,52.06,0,0,0-6.07.33c-.41,3.19-.82,9.59-1.15,13.93,8-2.21,19.27-6.06,18.7-12.13C386.33,105.13,382.47,104.31,375,104.31Z" transform="translate(-4.18 -9.33)"/></svg>