<svg viewBox="0 0 24 24" xmlns="http://www.w3.org/2000/svg"><path d="M3.913 6.204c-.074.033-.159.04-.246.053-.332.046-.67.072-1.003.105-.113.013-.193.007-.206.027-.06.118.06 1.943.073 2.226.014.244.02.441.014.494-.007.073-.12.145-.272.145-.18 0-.518-.079-.644-.375a.592.592 0 0 1-.034-.166c-.06-.455-.04-1.779-.04-2.226-.206.013-.551.04-.757.04a.782.782 0 0 1-.132-.007C.433 6.5.023 6.276.002 6.072c-.02-.151.152-.204.285-.204.067 0 .146.007.232.007.025 0 .05-.002.074-.007.378-.033 1.087-.225 2.237-.225.252 0 .525.007.816.033.173.013.392.139.412.323.014.113-.066.179-.145.205ZM6.29 5.67c-.325.073-.677.132-.816.158-.133.026-.24.052-.319.072-.045.362-.126 1.417-.173 1.877.286-.092.478-.184.797-.19.425-.007.85.256.864.395-.014.178-.306.336-.492.336h-.06c-.271 0-.81.19-1.087.27.006.032.006.079.013.138.013.105.026.225.033.323.007.066.007.112.02.138.106-.02.212-.053.325-.086.18-.046.399-.098.531-.098.22 0 .784.19.797.323.034.283-.976.5-1.195.56-.166.04-.34.118-.505.118a.541.541 0 0 1-.43-.197c-.193-.238-.299-.626-.346-1.028-.079-.62-.053-1.37-.006-1.977.045-.58.106-1.014.113-1.067-.013-.086-.073-.164-.086-.264-.007-.078.013-.217.18-.243.331-.046.657-.119.929-.178.285-.06.543-.105.73-.105.152 0 .797.17.816.44.005.088-.288.206-.633.285Zm3.9.943c-.08.072-.293.23-.538.421-.193.152-.412.323-.578.474.239.205.551.488.637.56.05.042.084.1.094.165.019.152-.127.25-.272.25-.193 0-.412-.184-.558-.296-.12-.086-.24-.185-.345-.27-.146.119-.266.25-.399.382-.126.125-.385.409-.59.409-.16 0-.266-.139-.286-.297a.904.904 0 0 1 .032-.336c.066-.184.404-.534.577-.705-.18-.158-.67-.52-.697-.744-.013-.106.12-.185.252-.185.047 0 .153.007.22.06.046.032.391.243.697.46.292-.302.916-.816 1.049-.915a.252.252 0 0 1 .168-.053c.246 0 .557.277.584.468a.174.174 0 0 1-.048.152Zm1.515 2.193c-.65 0-1.115-.52-1.181-1.047-.08-.646.371-1.746 1.314-1.746.119 0 .298.013.438.138.28.014.69.205.777.91.007.079.02.17.02.263.007.672-.664 1.482-1.368 1.482Zm.565-2.01a.38.38 0 0 0-.147-.026c-.458 0-.956.692-.902 1.088.012.105.046.164.158.164.22 0 .552-.21.664-.382.14-.225.245-.66.227-.837v-.006Zm5.34 1.885c.02.25-.372.35-.525.35a.404.404 0 0 1-.206-.047c-.166-.105-.624-.553-1.069-.988-.272-.27-.55-.547-.843-.81.033.666.06 1.76.033 2.042a.209.209 0 0 1-.219.205c-.272 0-.578-.37-.604-.573-.04-.35.054-2.294.007-2.755-.013-.178.212-.284.385-.284.075 0 .148.021.212.06.087.066.605.573 1.11 1.074.337.337.69.678.923.915-.028-.652-.068-2.055 0-2.457.019-.125.125-.171.225-.171.299 0 .584.303.624.566.013.106.013.27 0 .468-.04.804-.107 1.595-.053 2.405Zm1.357-2.319a1.341 1.341 0 0 1-.485.132c-.093 0-.232-.04-.252-.165-.026-.21.744-1.304.95-1.39a.435.435 0 0 1 .151-.026c.147 0 .485.099.512.303.027.217-.604 1.008-.876 1.146Zm4.628.073a.325.325 0 0 1-.166-.04c-.045-.026-.132-.053-.292-.053-.823 0-2.425.6-2.769.95.083.024.167.044.252.058.346.073 1.64.336 1.859.468.113.066.411.356.438.613.013.098-.007.197-.106.27-.213.17-1.335.665-1.614.665-.252 0-.737-.191-.757-.362-.006-.04.014-.08.033-.113.134-.21 1.527-.448 1.554-.6-.006-.006-.02 0-.033-.006a4.026 4.026 0 0 1-.166-.033c-.531-.138-1.653-.25-2.052-.658-.086-.086-.133-.238-.146-.356-.02-.165 0-.402.133-.527.312-.29 1.945-1.06 3.18-1.06.4 0 .731.118 1.01.434a.241.241 0 0 1 .045.099c.015.119-.237.25-.403.25ZM7.209 17.039c-.368.386-1.778 1.43-2.35 1.43-.328 0-.665-.173-.991-.405-.133-.092-.195-.305-.225-.487-.102-.82-.114-3.69.081-4.46.072-.295.358-.396.583-.396.5 0 .878.354.929.78.061.538-.051 2.058.04 3.154.257-.132.94-.538 1.268-.538.255 0 .736.152.787.569a.402.402 0 0 1-.122.353Zm6.184 1.683c-.163.203-.51.365-.807.365-.122 0-.347-.02-.51-.202-.144-.163-.48-1.622-.573-1.967-.735.152-1.654.294-2.043.345-.154.284-.368 1.044-.562 1.216-.112.101-.266.122-.43.122-.255 0-.797-.112-.847-.578-.114-.902 2.278-4.877 2.564-5.018a2.374 2.374 0 0 1 1.002-.244c.275 0 .592.09.715.325.53.942 1.44 4.207 1.552 5.16.03.182.02.375-.06.476Zm-2.442-4.694c-.082.01-.44 1.014-.808 1.784.364-.086.733-.153 1.104-.202-.072-.507-.245-1.582-.296-1.582Zm6.788 1.916c.398.223.787.558.848 1.014.143 1.186-1.788 1.887-2.78 1.887-.49 0-1.072-.518-1.164-.964-.01-.071-.03-.163-.041-.253-.164-1.39.174-5.03.491-5.273.276-.212.981-.264 1.564-.264.92 0 2.207.133 2.779.467.419.243.93.78.991 1.278.111.892-1.708 1.735-2.688 2.108Zm-1.513.639c-.02.324-.03.73-.03 1.064.337-.113.694-.294.653-.567-.02-.182-.265-.375-.623-.497Zm1.002-3.255c-.253 0-.506.013-.757.041-.05.395-.102 1.186-.143 1.723 1.002-.274 2.402-.75 2.33-1.5-.02-.162-.5-.264-1.43-.264Z"/></svg>