<svg viewBox="0 0 8 7" xmlns="http://www.w3.org/2000/svg"><defs><linearGradient x1="0%" y1="50%" x2="99.97%" y2="50%" id="a"><stop stop-color="#90CEA1" offset="0%"/><stop stop-color="#3CBEC9" offset="56%"/><stop stop-color="#00B3E5" offset="100%"/></linearGradient></defs><path d="M5.403 4.587c.117 0 .234.015.348.043a.801.801 0 0 1 .291.13c.084.064.15.146.196.24a.8.8 0 0 1 .072.356.731.731 0 0 1-.263.566.844.844 0 0 1-.274.145c-.106.034-.216.05-.327.05h-.547l-.003-1.53Zm1.966 0c.067 0 .134.004.2.013a.558.558 0 0 1 .18.056.34.34 0 0 1 .13.118.36.36 0 0 1 .05.201.32.32 0 0 1-.073.216.401.401 0 0 1-.191.122c.048.011.094.026.137.048a.337.337 0 0 1 .174.193.397.397 0 0 1 .024.138.369.369 0 0 1-.052.203.407.407 0 0 1-.134.13.578.578 0 0 1-.185.07.999.999 0 0 1-.204.022h-.627v-1.53Zm-3.711 0a.764.764 0 0 1 .763.765l-.006.104a.764.764 0 0 1-.757.66H.896a.764.764 0 0 1-.764-.764l.01-.12a.764.764 0 0 1 .754-.645Zm3.732.897h-.255l-.002.347h.303a.384.384 0 0 0 .079-.01.207.207 0 0 0 .072-.03.16.16 0 0 0 .073-.14.135.135 0 0 0-.026-.086.173.173 0 0 0-.069-.05.337.337 0 0 0-.086-.025.656.656 0 0 0-.089-.006Zm-1.955-.586h-.199l-.002.908h.18a.932.932 0 0 0 .216-.024.47.47 0 0 0 .172-.079.375.375 0 0 0 .116-.144.515.515 0 0 0 0-.415.39.39 0 0 0-.113-.138.505.505 0 0 0-.168-.08.754.754 0 0 0-.202-.028Zm1.93-.026h-.23l-.004.327h.249a.351.351 0 0 0 .076-.009.206.206 0 0 0 .068-.028.145.145 0 0 0 .067-.13.14.14 0 0 0-.02-.078.144.144 0 0 0-.053-.05.25.25 0 0 0-.074-.024.466.466 0 0 0-.08-.008ZM.561 2.47l.352.999.359-.999h.508V4h-.337V2.826l-.407 1.173H.782L.393 2.826.39 3.999H.054L.052 2.47h.51Zm2.406 0a.767.767 0 0 1 .753.645l.009.12a.764.764 0 0 1-.66.757l-.102.006-.101-.006a.764.764 0 0 1-.653-.653l-.007-.104a.764.764 0 0 1 .643-.755l.118-.01Zm1.328 0 .378 1.003.39-1.003h.36l-.63 1.529h-.27L3.91 2.469h.385Zm1.967 0v1.529h-.337V2.469h.337Zm1.662 0v.311h-.703v.286h.664v.311h-.664v.311h.741v.31H6.885l.002-1.529h1.038ZM1.21.351V.65H.774V1.88H.437V.65H0V.35h1.21Zm.81 0v.571h.655v-.57h.337v1.53h-.337V1.22h-.652v.661h-.337V.351h.335Zm2.486 0v.312h-.703v.285h.664v.311h-.664v.311h.746v.311h-1.08V.351h1.037Zm2.696 0a.764.764 0 0 1 .764.765l-.007.104a.764.764 0 0 1-.757.66H5.78a.764.764 0 0 1-.764-.764l.01-.12A.764.764 0 0 1 5.78.351Z" fill="url(#a)" fill-rule="nonzero"/></svg>