<svg viewBox="0 0 24 24" xmlns="http://www.w3.org/2000/svg"><path d="M10.688 0c3.576.024 6.352 1.2 8.25 3.497.937 1.132 1.625 2.498 2.062 4.083l-2.053.539c-.36-1.288-.908-2.392-1.634-3.27-1.48-1.791-3.712-2.71-6.632-2.731-2.9.02-5.093.935-6.519 2.717C2.827 6.505 2.137 8.915 2.111 12c.026 3.085.716 5.496 2.051 7.165 1.426 1.782 3.619 2.696 6.519 2.717 2.614-.019 4.344-.63 5.783-2.044 1.642-1.613 1.611-3.592 1.086-4.797-.309-.708-.868-1.297-1.623-1.745-.184 1.347-.6 2.416-1.259 3.241-.866 1.086-2.109 1.68-3.692 1.766-1.2.064-2.354-.22-3.25-.802-1.06-.688-1.68-1.74-1.746-2.965-.13-2.413 1.816-4.15 4.845-4.32 1.075-.061 2.08-.013 3.01.142-.123-.742-.373-1.33-.745-1.756-.513-.585-1.304-.885-2.353-.891h-.029c-.842 0-1.985.231-2.714 1.318L6.242 7.848c.976-1.455 2.56-2.255 4.465-2.255h.043c3.186.02 5.083 1.974 5.27 5.388.11.045.216.093.321.143 1.486.7 2.573 1.762 3.143 3.069.795 1.822.867 4.79-1.544 7.158-1.842 1.81-4.079 2.627-7.252 2.649h-.014c-3.57-.024-6.314-1.205-8.158-3.51C.875 18.44.029 15.586 0 12.008v-.016C.029 8.414.875 5.56 2.516 3.51 4.36 1.205 7.104.024 10.674 0Zm.992 12.309c-.241 0-.487.006-.736.02-2.183.124-2.906 1.162-2.856 2.092.068 1.255 1.447 1.84 2.774 1.767 1.3-.07 2.775-.571 3.026-3.659a10.543 10.543 0 0 0-2.208-.22Z"/></svg>