<svg viewBox="0 0 24 24" xmlns="http://www.w3.org/2000/svg"><path d="M9.659 9.452v-.936a6.906 6.906 0 0 0-.982-.084 7.275 7.275 0 0 0-4.17 13.246A7.267 7.267 0 0 1 9.658 9.452Zm.176 10.594a3.327 3.327 0 0 0 3.32-3.182V1.004h2.897A5.435 5.435 0 0 1 15.967 0h-3.963v15.845a3.327 3.327 0 0 1-3.32 3.204 3.372 3.372 0 0 1-1.532-.383 3.327 3.327 0 0 0 2.683 1.38Zm11.628-13.66v-.882a5.411 5.411 0 0 1-2.997-.905 5.496 5.496 0 0 0 2.997 1.786Z" fill="#25f4ee"/><path d="M18.466 4.6A5.458 5.458 0 0 1 17.11.995h-1.057A5.489 5.489 0 0 0 18.466 4.6Zm-9.789 7.795a3.327 3.327 0 0 0-1.533 6.27 3.32 3.32 0 0 1 2.69-5.265c.334.004.664.056.982.153V9.521a6.947 6.947 0 0 0-.981-.077h-.176v3.066a3.409 3.409 0 0 0-.982-.115Zm12.787-6.01v3.067a9.406 9.406 0 0 1-5.497-1.786v8.056a7.29 7.29 0 0 1-7.29 7.275 7.213 7.213 0 0 1-4.17-1.319 7.275 7.275 0 0 0 12.602-4.951V8.693a9.421 9.421 0 0 0 5.504 1.763V6.508a5.62 5.62 0 0 1-1.15-.123Z" fill="#fe2c55"/><path d="M15.967 15.722V7.666a9.405 9.405 0 0 0 5.504 1.763V6.362A5.497 5.497 0 0 1 18.466 4.6 5.489 5.489 0 0 1 16.052.996h-2.898v15.869a3.327 3.327 0 0 1-6.018 1.816 3.327 3.327 0 0 1 1.534-6.27c.332.003.663.054.98.153V9.498A7.267 7.267 0 0 0 4.5 21.763a7.214 7.214 0 0 0 4.177 1.234 7.29 7.29 0 0 0 7.29-7.275Z"/></svg>