<svg viewBox="0 0 8 8" xmlns="http://www.w3.org/2000/svg"><g fill-rule="nonzero" fill="none"><path d="M5.263 7.055v.461a.042.042 0 0 1-.017.027.038.038 0 0 1-.015.006.038.038 0 0 1-.016 0c-.231-.037-.757-.124-1.148.282a.063.063 0 0 1-.008.005.21.21 0 0 1-.009.005.044.044 0 0 1-.009.002.044.044 0 0 1-.01 0h-.01a.092.092 0 0 1-.008-.002.04.04 0 0 1-.009-.005.063.063 0 0 1-.008-.005c-.391-.406-.916-.32-1.148-.281a.038.038 0 0 1-.016 0 .038.038 0 0 1-.015-.007.052.052 0 0 1-.01-.011.048.048 0 0 1-.006-.016v-.461H1.719a.041.041 0 0 1-.038-.026.043.043 0 0 1-.002-.025.046.046 0 0 1 .011-.021l.608-.601-2.25-1.713a.05.05 0 0 1-.014-.019.046.046 0 0 1 .008-.044.05.05 0 0 1 .02-.012c.244-.08.929-.417.33-1.565a.045.045 0 0 1-.005-.027.049.049 0 0 1 .013-.024.045.045 0 0 1 .052-.008c1.146.599 1.484-.087 1.564-.33a.038.038 0 0 1 .013-.02.039.039 0 0 1 .02-.01.045.045 0 0 1 .023.002.039.039 0 0 1 .02.013l.663.872-.17-2.45c0-.008.001-.016.005-.023a.042.042 0 0 1 .015-.017A.036.036 0 0 1 2.626 1c.009 0 .016 0 .023.004.23.116.952.362 1.34-.873A.043.043 0 0 1 4.03.1a.044.044 0 0 1 .043.031c.388 1.235 1.11.989 1.34.873A.043.043 0 0 1 5.435 1c.008 0 .015.002.021.007.007.004.012.01.016.017a.049.049 0 0 1 .004.022l-.17 2.451.664-.872a.046.046 0 0 1 .02-.013.045.045 0 0 1 .043.008c.006.006.01.012.012.02.08.244.418.93 1.565.33a.051.051 0 0 1 .027-.005.045.045 0 0 1 .037.037c.002.01 0 .02-.004.028-.6 1.147.086 1.484.33 1.564a.04.04 0 0 1 .02.013.042.042 0 0 1 .01.02.044.044 0 0 1-.002.023.048.048 0 0 1-.014.02l-2.25 1.712.607.602c.006.006.01.013.01.02a.04.04 0 0 1-.002.024.047.047 0 0 1-.014.019.044.044 0 0 1-.023.008h-1.08Z" fill="#CF0A2C"/><path d="M4.055 3.588c.031.044.034.042.068.093.033.05 0 .085-.05.097-.362.088-.71.183-1.05.276-.033.145-.105.48-.181.837l-.077.36c-.089.415-.168.787-.183.852-.013.06-.048.093-.124.068a2.407 2.407 0 0 1-.178-.063c-.076-.029-.065-.088-.053-.134.109-.45.17-.774.229-1.019l.095-.39.048-.188.055-.221c-.291.09-.674.204-.756.232-.103.037-.12.001-.157-.056-.03-.046-.02-.028-.037-.057-.03-.053-.061-.107.044-.14.23-.07 1.32-.389 2.173-.574.071-.016.1-.02.134.027Zm2.26.64.04.026c.029.019.045.027.05.045.008.031-.005.043-.034.079l-.015.017c-.06.076-.127.173-.047.284l.037.048a2.623 2.623 0 0 1 .104.15.43.43 0 0 1 .053.135.383.383 0 0 1 .006.048c.014.217-.098.364-.333.414-.13.028-.25.017-.32-.066a.137.137 0 0 1-.037-.075.13.13 0 0 1 .014-.082l.009-.017.01-.017.024-.031.008-.009a.057.057 0 0 1 .019-.013l.01-.004c.031-.004.043.011.065.072.028.076.085.113.149.1.022-.006.099-.027.107-.112.006-.061-.024-.128-.088-.204a.57.57 0 0 1-.141-.275 5.07 5.07 0 0 0-.124.24c-.155.32-.224.478-.372.574a.379.379 0 0 1-.016.01l-.015.008a.377.377 0 0 1-.017.009l-.028.013a.321.321 0 0 1-.114.029c-.204.009-.218-.188-.22-.226-.007-.114.012-.27.056-.475-.175.26-.376.657-.411.721a.087.087 0 0 1-.02.028.084.084 0 0 1-.03.019.096.096 0 0 1-.034.005.098.098 0 0 1-.034-.007l-.093-.037c-.063-.026-.083-.046-.078-.116a7.96 7.96 0 0 1 .08-.58c-.207.294-.452.755-.497.84-.034.063-.09.051-.127.037-.037-.013-.049-.02-.075-.03-.056-.022-.075-.04-.066-.13.007-.079.026-.205.045-.316-.147.331-.273.491-.372.565l-.023.015-.024.014a.324.324 0 0 1-.106.035.347.347 0 0 1-.056.006c-.107-.004-.2-.068-.207-.254-.009-.246.113-.723.162-.912.02-.079.053-.106.121-.08.047.017.083.03.122.049.063.028.08.049.057.138-.06.231-.115.473-.137.621-.007.042-.02.144.023.17.011.008.032.013.071-.009.09-.05.275-.377.472-.938.014-.035.024-.064.03-.082.02-.049.04-.082.115-.054.043.016.082.031.127.053.06.027.061.06.044.131-.018.077-.067.305-.122.571.164-.283.414-.657.502-.776a.077.077 0 0 1 .02-.022.093.093 0 0 1 .028-.014.084.084 0 0 1 .06.005l.089.035.034.015c.048.02.06.039.042.12-.02.094-.053.228-.1.53l.105-.182.11-.18a6.528 6.528 0 0 1 .235-.349c.036-.05.075-.074.142-.047.034.014.044.021.095.042.058.026.082.045.053.14a2.729 2.729 0 0 0-.11.517c-.006.054-.02.142.04.173a.054.054 0 0 0 .019.002.08.08 0 0 0 .016-.006c.054-.028.115-.145.236-.393l.036-.074.077-.146.04-.072a4.6 4.6 0 0 1 .175-.279c.033-.048.083-.115.118-.154.026-.03.056-.06.083-.067.019-.006.031-.003.058.014Zm-2.803-.06a.176.176 0 0 1 .115.072.18.18 0 0 1 .029.063.227.227 0 0 1-.134.265l-.016.004-.016.004a.186.186 0 0 1-.069.001.186.186 0 0 1-.115-.072.18.18 0 0 1-.029-.063.227.227 0 0 1 .135-.264l.016-.005.015-.004a.176.176 0 0 1 .069 0Z" fill="#FBFAFA"/></g></svg>