<?xml version="1.0" encoding="UTF-8"?>
<svg viewBox="0 0 8 8" version="1.1" xmlns="http://www.w3.org/2000/svg" xmlns:xlink="http://www.w3.org/1999/xlink">
    <title>Tim Hortons</title>
    <g id="Page-1" stroke="none" stroke-width="1" fill="none" fill-rule="evenodd">
        <g id="Tim-Hortons" transform="translate(0.031250, 0.100000)" fill-rule="nonzero">
            <path d="M5.23173526,6.95454726 L5.23173526,7.41628941 C5.23072044,7.42170178 5.22869081,7.42677587 5.22564635,7.43151168 C5.2226019,7.43590923 5.2188809,7.43979936 5.21448335,7.44318209 C5.21008581,7.44622654 5.20518086,7.44825618 5.19976849,7.449271 C5.19435613,7.45062409 5.18894377,7.45079322 5.18353141,7.4497784 C4.95266033,7.41172273 4.42698464,7.32546321 4.03526492,7.73088297 C4.03289701,7.73291261 4.03035997,7.73477311 4.02765379,7.73646447 C4.02494761,7.73781756 4.02207229,7.73917065 4.01902784,7.74052374 C4.01598338,7.74153856 4.01293893,7.7422151 4.00989447,7.74255338 C4.00685002,7.74322992 4.00363643,7.74356819 4.0002537,7.74356819 C3.99720925,7.74356819 3.99399566,7.74339906 3.99061293,7.74306079 C3.98756848,7.74238424 3.98452403,7.74153856 3.98147957,7.74052374 C3.97843512,7.73950892 3.9755598,7.73815583 3.97285362,7.73646447 C3.97014744,7.73477311 3.96761039,7.73291261 3.96524249,7.73088297 C3.57352277,7.32546321 3.04835449,7.41172273 2.816976,7.4497784 C2.81156364,7.45079322 2.80615128,7.45062409 2.80073891,7.449271 C2.79532655,7.44825618 2.7904216,7.44622654 2.78602405,7.44318209 C2.78162651,7.43979936 2.77790551,7.43590923 2.77486106,7.43151168 C2.77215488,7.42677587 2.77029438,7.42170178 2.76927956,7.41628941 L2.76927956,6.95454726 L1.68799106,6.95454726 C1.67987251,6.95403985 1.67175397,6.9515028 1.66515765,6.94693612 C1.65856134,6.94236944 1.65348725,6.93577312 1.65044279,6.92816199 C1.64739834,6.92055086 1.64638352,6.91243231 1.64790575,6.90431377 C1.64942798,6.89670263 1.65348725,6.8890915 1.65906875,6.88300259 L2.26694468,6.28172297 L0.0160785215,4.56921772 C0.00998961397,4.56414363 0.0054229333,4.55754731 0.00237847952,4.55044359 C-0.000158565301,4.54283245 -0.000665974265,4.53471391 0.000856252626,4.52710277 C0.00237847952,4.51949164 0.00593034226,4.51238791 0.0110044319,4.50629901 C0.0160785215,4.50071751 0.023182247,4.49615083 0.0302859725,4.49361378 C0.274349684,4.41395058 0.959351785,4.07703102 0.360609208,2.92927195 C0.356549936,2.9211534 0.3545203,2.91151263 0.356042527,2.90237927 C0.357564754,2.89324591 0.362131435,2.88461996 0.368727751,2.87751623 C0.375324068,2.87091992 0.38395002,2.86686064 0.393083382,2.86533842 C0.402216743,2.86381619 0.411857513,2.86533842 0.420483466,2.8699051 C1.56722772,3.46864768 1.90465468,2.78313817 1.9848253,2.53958186 C1.98685494,2.53197073 1.99142162,2.52537441 1.99751052,2.52030032 C2.00309202,2.51471882 2.01019575,2.51167437 2.01780688,2.51015214 C2.02592543,2.50862992 2.03353656,2.50913733 2.0411477,2.51167437 C2.04875883,2.51421142 2.05535515,2.5187781 2.05992183,2.524867 L2.72361275,3.39710301 L2.55413816,0.946317717 C2.55363075,0.938706583 2.55515298,0.931095448 2.55870484,0.923991723 C2.5622567,0.916887997 2.56733079,0.91079909 2.57392711,0.906739818 C2.58001602,0.902173137 2.58762715,0.899636093 2.59523828,0.899636093 C2.60335683,0.899128684 2.61096796,0.900650911 2.61756428,0.904202773 C2.84691313,1.01989202 3.5699709,1.26598536 3.95763135,0.0309519468 C3.9601684,0.0223259944 3.96574989,0.014207451 3.97336103,0.00862595238 C3.98097216,0.00304445378 3.99061293,0 3.9997463,0 C4.00938707,0 4.01852043,0.00304445378 4.02613156,0.00862595238 C4.0337427,0.014207451 4.03932419,0.0223259944 4.04236865,0.0309519468 C4.43053651,1.26598536 5.15308687,1.01989202 5.38192831,0.904202773 C5.38903204,0.900650911 5.39664317,0.899128684 5.40425431,0.899636093 C5.41237285,0.899636093 5.41947658,0.902173137 5.42607289,0.906739818 C5.43266921,0.91079909 5.4377433,0.916887997 5.44129516,0.923991723 C5.44433962,0.931095448 5.44586184,0.938706583 5.44535443,0.946317717 L5.27638725,3.39710301 L5.94007817,2.52537441 C5.94515226,2.5192855 5.95124117,2.51471882 5.9588523,2.51167437 C5.96646344,2.50913733 5.97407457,2.50862992 5.98219312,2.51015214 C5.98980425,2.51167437 5.99690798,2.51522623 6.00299688,2.52030032 C6.00857838,2.52588182 6.01314506,2.53247814 6.0151747,2.54008927 C6.09534532,2.78364557 6.43226487,3.46915508 7.57951653,2.8699051 C7.58814249,2.86584583 7.59778326,2.8643236 7.60691662,2.86533842 C7.61604998,2.86686064 7.62467593,2.87142733 7.63127225,2.87802364 C7.63786857,2.88461996 7.64243525,2.89324591 7.64395747,2.90237927 C7.6454797,2.91202004 7.64345006,2.9211534 7.63939079,2.92977936 C7.04064821,4.07652361 7.72565032,4.41395058 7.96971403,4.49412119 C7.97681775,4.49615083 7.98392148,4.50071751 7.98899557,4.50680642 C7.99406966,4.51238791 7.99762152,4.51949164 7.99914375,4.52761018 C8.00066597,4.53522132 8.00015857,4.54333986 7.99762152,4.55044359 C7.99457707,4.55805472 7.99001039,4.56465104 7.98392148,4.56972513 L5.73305532,6.28172297 L6.34093125,6.88401741 C6.34651275,6.88959891 6.35006462,6.89721004 6.35107943,6.90482118 C6.35260166,6.91293972 6.35158684,6.92105826 6.34854239,6.92816199 C6.34549793,6.93577312 6.34042385,6.94186203 6.33433494,6.94693612 C6.32773862,6.9515028 6.32012749,6.95403985 6.31200894,6.95454726 L5.23173526,6.95454726 Z" id="Layer" fill="#CF0A2C"></path>
            <path d="M4.02359452,3.48843663 C4.05505387,3.53156639 4.05759092,3.53004416 4.09158732,3.58078506 C4.12507631,3.63101854 4.09209473,3.66552235 4.04186124,3.67770017 C3.68007865,3.76598933 3.3319961,3.8608748 2.99101728,3.95423805 C2.95874607,4.09895109 2.88701873,4.43323212 2.8105177,4.791268 L2.73370996,5.15108094 C2.64524175,5.56577118 2.56601153,5.93756438 2.5510937,6.00315545 C2.53739366,6.06353712 2.50238244,6.09550388 2.42677851,6.07114825 C2.35117457,6.04730003 2.30956704,6.03157035 2.24867796,6.00772213 C2.17307403,5.97930723 2.18423702,5.92044779 2.19540002,5.87376616 C2.30449295,5.42420182 2.36538202,5.09996749 2.42474887,4.85539637 C2.46280454,4.6968945 2.49386749,4.57021668 2.52021212,4.46425839 L2.56728421,4.27667762 C2.58834862,4.19341003 2.606211,4.12345894 2.62314578,4.05571985 C2.33138562,4.14553123 1.94829186,4.25969825 1.86710642,4.28811315 C1.76359499,4.3246466 1.7468505,4.28912797 1.70980964,4.23179076 C1.68037992,4.18561654 1.68951328,4.20388326 1.67276879,4.17496095 C1.64181684,4.12219042 1.6113723,4.06789766 1.71691337,4.03542349 C1.94676963,3.96438623 3.0376989,3.64624081 3.89014596,3.46052913 C3.96118321,3.44479945 3.98909071,3.44124759 4.02359452,3.48843663 Z M6.28410145,4.12827933 C6.30541263,4.14197937 6.3094719,4.14451642 6.32367935,4.15364978 C6.35260166,4.17293132 6.36833134,4.18104986 6.37391284,4.19931658 C6.38152397,4.23026853 6.36883875,4.24244635 6.33940903,4.27796497 L6.32520158,4.29521688 C6.26481991,4.37082081 6.19784193,4.46824333 6.27750513,4.5793659 L6.3150534,4.62706234 C6.32723121,4.64329943 6.33923989,4.65970565 6.35107943,4.67628101 C6.36291898,4.6925181 6.37442025,4.70909346 6.38558324,4.72600709 C6.39708451,4.74258245 6.40824751,4.75949608 6.41907223,4.77674798 C6.42752905,4.79061716 6.43514018,4.80482461 6.44190564,4.81937034 C6.44867109,4.83425433 6.45459086,4.8494766 6.45966495,4.86503714 C6.46473904,4.88059769 6.46879831,4.89632736 6.47184277,4.91222618 C6.47488722,4.92812499 6.47691686,4.94419294 6.47793167,4.96043003 C6.49213913,5.17658625 6.37949434,5.32373485 6.14507139,5.37447574 C6.01415988,5.40238324 5.89542618,5.39071283 5.82388152,5.30800517 C5.81424075,5.29785699 5.8056148,5.28618658 5.79952589,5.27350136 C5.79343698,5.26081614 5.78937771,5.24711609 5.78734807,5.23341605 C5.78531844,5.2192086 5.78531844,5.20500115 5.78785548,5.19130111 C5.79039253,5.17709366 5.79495921,5.16390102 5.80155553,5.1512158 C5.80459998,5.14546516 5.80764443,5.13971453 5.81068889,5.13396389 L5.82134448,5.1172194 L5.8451927,5.08576004 L5.85280383,5.07713409 C5.85551001,5.07442791 5.85838533,5.07206 5.86142978,5.07003037 C5.86481251,5.06800073 5.86819524,5.06614023 5.87157796,5.06444887 L5.88223355,5.06038959 C5.9131855,5.05633032 5.9248559,5.07104518 5.9471819,5.13244167 C5.97508939,5.20753819 6.0319192,5.24508646 6.09534532,5.23138642 C6.11817872,5.22631233 6.19479747,5.20500115 6.20291602,5.12026385 C6.20849751,5.05886737 6.17856039,4.99188938 6.11513427,4.91628545 C6.03293401,4.8173407 5.98726721,4.73057377 5.97356716,4.64126979 C5.93094481,4.71738114 5.88832246,4.80110361 5.84925197,4.88076682 C5.69449223,5.20144929 5.62548462,5.35925347 5.4773212,5.45515377 C5.47224711,5.4585365 5.46717302,5.46175009 5.46209893,5.46479454 L5.44636925,5.47342049 C5.44095689,5.47646495 5.43554453,5.47934026 5.43013216,5.48204644 L5.40171726,5.49523908 C5.38987772,5.5004823 5.38091349,5.50386503 5.37178013,5.50690948 C5.36264677,5.50995394 5.35351341,5.51266012 5.34438005,5.51502803 C5.33490842,5.51705766 5.32543678,5.51891816 5.31596515,5.52060953 C5.30649351,5.52196262 5.29702188,5.52297743 5.28755025,5.52365398 C5.08357184,5.53278734 5.0698718,5.33642007 5.06784216,5.2983644 C5.06073844,5.18419738 5.07951257,5.02842283 5.12416456,4.8229222 C4.94860106,5.08220818 4.74766711,5.48001681 4.71265589,5.54445775 C4.7075818,5.55511333 4.70047807,5.5647541 4.69185212,5.57236524 C4.68322617,5.58048378 4.6735854,5.58657269 4.6624224,5.59063196 C4.65176681,5.59469123 4.64009641,5.59621346 4.628426,5.59621346 C4.6167556,5.59570605 4.60508519,5.59316901 4.5944296,5.58860233 L4.50157376,5.55206888 C4.43916246,5.52619102 4.4188661,5.50640207 4.42394019,5.43637964 C4.4356106,5.27806804 4.4756959,5.02385615 4.50309599,4.85641119 C4.29658054,5.14969357 4.05200942,5.61092832 4.00634261,5.69566562 C3.97234621,5.75858433 3.91602382,5.74742133 3.87949037,5.73321388 C3.84295693,5.71951384 3.83077911,5.71393234 3.80490125,5.70378416 C3.74857886,5.68145817 3.72929732,5.66268403 3.73843068,5.57338006 C3.74604181,5.49422426 3.76430854,5.36838684 3.78359008,5.25726427 C3.63694889,5.58809492 3.51060405,5.74843615 3.41216672,5.82201045 L3.3888259,5.83735957 L3.36447027,5.85093276 C3.34789491,5.85972785 3.33081215,5.86700071 3.31322197,5.87275135 C3.29529352,5.87884025 3.27719593,5.88340693 3.25892921,5.88645139 C3.24032421,5.88983411 3.22171922,5.89169461 3.20311422,5.89203289 C3.09605093,5.88797361 3.00319509,5.82404009 2.99609137,5.6383284 C2.986958,5.39172765 3.10924356,4.91476322 3.15744742,4.72600709 C3.17723637,4.6473587 3.21072536,4.62046602 3.27922557,4.64583647 C3.32590719,4.66308838 3.36193323,4.67628101 3.40100372,4.69454773 C3.46392243,4.72296263 3.48015952,4.7437664 3.45783352,4.83256297 C3.39846667,5.06444887 3.3431591,5.30648294 3.32032569,5.45413895 C3.31372938,5.49574649 3.30104415,5.59773569 3.34366651,5.62462836 C3.3548295,5.63173209 3.37614068,5.63680618 3.41470376,5.615495 C3.50400774,5.56526151 3.69022683,5.23849014 3.88710151,4.67729583 C3.90080155,4.6417772 3.91094973,4.61285489 3.91754604,4.59458817 C3.93581277,4.54638431 3.95610912,4.51340273 4.03222047,4.54131023 C4.07484282,4.5570399 4.11391331,4.57226217 4.15907271,4.59357335 C4.21894697,4.62148084 4.21996179,4.65395502 4.20270988,4.72549968 C4.18444316,4.80161102 4.1357319,5.02994506 4.08042432,5.29633476 C4.24431742,5.01320056 4.49497744,4.63924016 4.58275919,4.51999905 C4.58783328,4.5113731 4.59493701,4.50376196 4.60305555,4.49767305 C4.6111741,4.49158415 4.62081487,4.48701747 4.63045564,4.48397301 C4.64009641,4.48092856 4.650752,4.47991374 4.66090018,4.48092856 C4.67104835,4.48143597 4.68119653,4.48448042 4.6903299,4.48853969 L4.77963387,4.52428384 C4.79169893,4.52930155 4.80280555,4.53403736 4.81363027,4.53877318 C4.86132672,4.55856213 4.87350453,4.57784367 4.85574522,4.65953651 C4.83494145,4.75340717 4.80297469,4.88736314 4.75527824,5.18977888 C4.78944378,5.12855153 4.824455,5.06766246 4.8603119,5.00711165 L4.97041964,4.82748888 C5.00762963,4.76829117 5.04585444,4.70960086 5.08509407,4.65141797 C5.1243337,4.59323508 5.164419,4.53555959 5.20534999,4.47839151 C5.24188344,4.42714321 5.28095393,4.4038024 5.34793191,4.43120248 C5.3814209,4.44540993 5.39207649,4.45200625 5.44230998,4.47331742 C5.50066201,4.49919528 5.52501764,4.51847682 5.49609533,4.61285489 C5.48256442,4.6548007 5.47004834,4.69708478 5.45854707,4.73970713 C5.44738407,4.78232948 5.43706675,4.82529011 5.42759512,4.86858901 C5.41846176,4.9118879 5.41034321,4.95535594 5.40323949,4.99899311 C5.39613576,5.04263028 5.39021599,5.08626745 5.38548018,5.12990462 C5.37989868,5.18419738 5.36518382,5.27197913 5.4265803,5.30293108 C5.43825071,5.30529899 5.44129516,5.30529899 5.44433962,5.30496072 C5.45567175,5.30191626 5.45837793,5.30073231 5.46108411,5.29937922 C5.51436205,5.27096431 5.57525113,5.15375284 5.69702928,4.90613727 L5.73318217,4.83192871 L5.80942036,4.68592178 L5.84975938,4.61437712 C5.87715946,4.56668067 5.90540523,4.51949164 5.93449667,4.47281001 C5.96392639,4.42646666 5.99403266,4.38063072 6.02481547,4.33530219 C6.05779705,4.28709833 6.10803054,4.22012035 6.14253435,4.18054245 C6.16841221,4.15009791 6.19885674,4.12066819 6.22574942,4.11356447 C6.24452355,4.10849038 6.25670137,4.11102742 6.28410145,4.12827933 Z M3.48066693,4.06840507 C3.50350033,4.07246434 3.52531891,4.08058289 3.54510786,4.09326811 C3.56489681,4.10544593 3.58164131,4.12168301 3.59534135,4.14045714 C3.60904139,4.15923128 3.61868216,4.18054245 3.62426366,4.20286845 C3.63085998,4.22925371 3.63288961,4.2566538 3.63035257,4.28354647 C3.62730812,4.31043915 3.61918957,4.33682441 3.60701176,4.36067263 C3.59483394,4.38502826 3.57808945,4.40684685 3.5583005,4.42511357 C3.53800414,4.4433803 3.51466333,4.45758775 3.48980029,4.46773593 C3.47948297,4.47094952 3.47694593,4.47162606 3.47457802,4.47230261 C3.46409157,4.47500879 3.46155452,4.47568533 3.45884834,4.47636188 C3.43601494,4.48092856 3.41267412,4.48143597 3.38984072,4.4773767 C3.36700732,4.47281001 3.34518873,4.46469147 3.32539978,4.45200625 C3.30611824,4.43982843 3.28886634,4.42359135 3.2751663,4.40481721 C3.26146625,4.38604308 3.25182548,4.36473191 3.24624398,4.34240591 C3.23964767,4.31602065 3.23761803,4.28912797 3.24066249,4.26172789 C3.24319953,4.23483521 3.25131807,4.20895735 3.26349589,4.18460172 C3.2756737,4.16024609 3.2924182,4.13842751 3.31220715,4.12066819 C3.33250351,4.10240147 3.35584432,4.08768661 3.38070736,4.07753843 L3.39643704,4.07297175 L3.41165931,4.06891248 C3.43449271,4.0643458 3.45783352,4.06383839 3.48066693,4.06840507 Z" id="Combined-Shape" fill="#FBFAFA"></path>
        </g>
    </g>
</svg>
