<svg viewBox="0 0 24 24" xmlns="http://www.w3.org/2000/svg"><defs><linearGradient gradientTransform="matrix(0.194969 0 0 0.194969 1.7423 0.0086643)" gradientUnits="userSpaceOnUse" id="LinearGradient" x1="105" x2="0.223957" y1="-0.0444394" y2="123.052"><stop offset="0" stop-color="#ff7854"/><stop offset="1" stop-color="#fd267d"/></linearGradient></defs><path d="M7.88382 9.67912C12.4656 8.09988 13.2455 3.98603 12.6606 0.203633C12.6606 0.067155 12.7775-0.0303295 12.8945 0.0086643C17.2813 2.15332 22.214 6.83258 22.214 13.8515C22.214 19.2326 18.0417 23.9898 11.9782 23.9898C7.52729 24.1922 3.50561 21.3512 2.20889 17.0886C0.912181 12.826 2.67047 8.22672 6.48004 5.91622C6.59702 5.83824 6.753 5.91622 6.753 6.0527C6.81149 6.77409 7.00646 8.5873 7.80583 9.67913C7.80583 9.67913 7.88382 9.67913 7.88382 9.67912Z" fill="url(#LinearGradient)"/></svg>
