<?xml version="1.0" encoding="UTF-8"?><svg xmlns="http://www.w3.org/2000/svg" viewBox="0 0 594.16 180.59"><defs><style>.d{fill:#2699ca;}.e,.f{fill:#044e8f;}.f{fill-rule:evenodd;}</style></defs><g id="a"/><g id="b"><g id="c"><g><g><polygon class="d" points="9.36 180.39 81.74 37.63 41.57 37.63 34.34 37.66 0 0 134.25 0 42.72 180.39 9.36 180.39 9.36 180.39"/><polygon class="d" points="144.67 0 250.26 0 207.15 37.62 202.81 37.63 182.54 37.63 110.14 180.39 53.18 180.39 144.67 0 144.67 0"/><polygon class="f" points="267.92 0 325.13 0 219.06 91.9 161.86 91.9 267.92 0 267.92 0"/><polygon class="f" points="286.66 180.57 219.07 91.89 161.86 91.89 229.43 180.57 286.66 180.57 286.66 180.57"/></g><g><polygon class="f" points="318.77 132.49 383.93 132.49 383.93 138.33 318.77 138.33 318.77 132.49 318.77 132.49"/><polygon class="f" points="318.77 150.26 383.93 150.26 383.93 156.1 318.77 156.1 318.77 150.26 318.77 150.26"/><polygon class="f" points="344.28 132.49 355.96 132.49 355.96 159.95 344.28 159.95 344.28 132.49 344.28 132.49"/><polygon class="f" points="317.69 180.36 330.84 180.36 357.31 155.79 344.15 155.79 317.69 180.36 317.69 180.36"/><polygon class="f" points="383.73 180.36 370.58 180.36 344.11 155.79 357.28 155.79 383.73 180.36 383.73 180.36"/><polygon class="f" points="388.91 132.49 454.05 132.49 454.05 138.33 388.91 138.33 388.91 132.49 388.91 132.49"/><polygon class="f" points="388.91 150.26 454.05 150.26 454.05 156.1 388.91 156.1 388.91 150.26 388.91 150.26"/><polygon class="f" points="414.43 132.49 426.09 132.49 426.09 159.95 414.43 159.95 414.43 132.49 414.43 132.49"/><polygon class="f" points="387.79 180.36 400.97 180.36 427.44 155.79 414.28 155.79 387.79 180.36 387.79 180.36"/><polygon class="f" points="453.87 180.36 440.7 180.36 414.23 155.79 427.38 155.79 453.87 180.36 453.87 180.36"/><polygon class="f" points="458.98 139.06 466.05 139.06 466.05 177.52 458.98 177.52 458.98 139.06 458.98 139.06"/><polygon class="f" points="458.98 139.06 483.15 139.06 483.15 145.54 458.98 145.54 458.98 139.06 458.98 139.06"/><polygon class="f" points="467.85 132.72 479.96 132.72 479.96 180.59 467.85 180.59 467.85 132.72 467.85 132.72"/><polygon class="f" points="485 134.08 523.02 134.08 523.02 139.63 485 139.63 485 134.08 485 134.08"/><polygon class="f" points="482.98 156.29 523.77 156.29 523.77 161.84 482.98 161.84 482.98 156.29 482.98 156.29"/><polygon class="f" points="511.68 134.08 523.77 134.08 523.77 161.84 511.68 161.84 511.68 134.08 511.68 134.08"/><polygon class="f" points="494.32 132.72 506.4 132.72 506.4 162.4 494.32 162.4 494.32 132.72 494.32 132.72"/><polygon class="f" points="480.54 180.59 490.94 180.59 505.05 158.59 494.69 158.59 480.54 180.59 480.54 180.59"/><polygon class="f" points="525.17 180.59 514.79 180.59 498.68 158.59 509.06 158.59 525.17 180.59 525.17 180.59"/><polygon class="f" points="531.42 132.37 541.15 132.37 544.81 139.87 535.11 139.87 531.42 132.37 531.42 132.37"/><polygon class="f" points="529.32 141.43 544.32 141.43 544.32 147.93 529.32 147.93 529.32 141.43 529.32 141.43"/><polygon class="f" points="532.6 143.05 544.25 143.05 544.25 180.22 532.6 180.22 532.6 143.05 532.6 143.05"/><polygon class="f" points="552.61 174.13 594.16 174.13 594.16 180.22 552 180.22 552.61 174.13 552.61 174.13"/><polygon class="f" points="549.56 134.33 594.16 134.33 594.16 139.85 549.56 139.85 549.56 134.33 549.56 134.33"/><polygon class="f" points="549.56 143.36 594.16 143.36 594.16 148.88 549.56 148.88 549.56 143.36 549.56 143.36"/><polygon class="f" points="549.56 153 594.16 153 594.16 158.56 549.56 158.56 549.56 153 549.56 153"/><polygon class="f" points="566.04 134.33 577.69 134.33 577.69 173.01 566.04 173.01 566.04 134.33 566.04 134.33"/><polygon class="f" points="554.62 162.42 565.37 162.42 560.37 172.6 549.61 172.6 554.62 162.42 554.62 162.42"/><polygon class="f" points="584.16 134.46 594.16 134.46 594.16 148.88 584.16 148.88 584.16 134.46 584.16 134.46"/><polygon class="f" points="584.16 153.17 594.16 153.17 594.16 167.6 584.16 167.6 584.16 153.17 584.16 153.17"/><polygon class="f" points="579.65 165.83 594.16 165.83 594.16 171.36 579.65 171.36 579.65 165.83 579.65 165.83"/><polygon class="f" points="554.38 132.37 564.1 132.37 567.25 138.71 557.52 138.71 554.38 132.37 554.38 132.37"/><polygon class="f" points="589 132.37 579.29 132.37 576.15 138.71 585.88 138.71 589 132.37 589 132.37"/><polygon class="f" points="549.56 143.55 559.53 143.55 559.53 158 549.56 158 549.56 143.55 549.56 143.55"/><polygon class="f" points="534.24 173.42 548.63 180.21 552 180.22 563.25 178.64 544.29 170.44 534.24 173.42 534.24 173.42"/><path class="e" d="M516.46,114.28l12.37,.06c1.63,6.89,9.66,6.51,11.6,3.66,.59-.91,1.22-2.73-.12-4.37-3.76-2.54-22.31-1.88-22.31-11.67,0-12.45,32.71-12.83,34.85,.19l-12.1-.04c-2.63-8.44-19.64-.75-5.59,1.48,9.4,1.5,19.07,3.38,19.07,10.85,0,14.79-34.83,14.42-37.79-.17h0Z"/><polygon class="e" points="479.9 93.36 514.39 93.36 514.39 100.04 492.81 100.04 492.81 105.04 512.82 105.04 512.82 111.38 492.81 111.38 492.81 117.56 515.02 117.56 515.02 124.64 479.9 124.64 479.9 93.36 479.9 93.36"/><path class="e" d="M437.55,124.64v-31.28c6.48,0,25.54-.47,30.57,.77,9.18,2.25,10.76,14.4-3.04,16.7,2.7,2.86,7.9,8.05,13.45,13.81h-12.74c-1.43-2.02-10.42-11.62-11.35-12.71-.97,.05-2.35,0-3.96,0v12.71h-12.93Zm12.93-18.61c3.86,0,11.72,.69,11.72-3.2s-6.2-3.17-11.72-3.17v6.36h0Z"/><path class="e" d="M400.62,93.36h21.4c17.33,0,15.85,12.99,10.15,17.02-4.56,3.16-12.12,2.64-18.61,2.64v11.62h-12.94v-31.28h0Zm12.94,13.34c3.77,0,9.87,.42,9.87-3.45s-5.67-3.53-9.87-3.53v6.98h0Z"/><polygon class="e" points="355.26 93.36 369.44 93.36 376.82 102.99 383.97 93.36 398.03 93.36 385.05 108.51 399.22 124.64 384.77 124.64 376.55 114.56 368.32 124.64 353.94 124.64 368.32 108.34 355.26 93.36 355.26 93.36"/><polygon class="e" points="318.78 93.36 353.28 93.36 353.28 100.04 331.68 100.04 331.68 105.04 351.69 105.04 351.69 111.38 331.68 111.38 331.68 117.56 353.9 117.56 353.9 124.64 318.78 124.64 318.78 93.36 318.78 93.36"/><path class="e" d="M556.3,114.28l12.35,.06c1.63,6.89,9.66,6.51,11.63,3.66,.59-.91,1.21-2.73-.14-4.37-3.76-2.54-22.31-1.88-22.31-11.67,0-12.45,32.71-12.83,34.86,.19l-12.12-.04c-2.62-8.44-19.63-.75-5.56,1.48,9.36,1.5,19.04,3.38,19.04,10.85,0,14.79-34.83,14.42-37.77-.17h0Z"/></g></g></g></g></svg>