<svg viewBox="0 0 24 24" xmlns="http://www.w3.org/2000/svg">
<defs>
<linearGradient gradientTransform="matrix(0.129663 0 0 0.129663 0 3.35148)" gradientUnits="userSpaceOnUse" id="LinearGradient" x1="0" x2="185.04" y1="66.7" y2="66.7">
<stop offset="0" stop-color="#90cea1"/>
<stop offset="0.56" stop-color="#3cbec9"/>
<stop offset="1" stop-color="#00b3e5"/>
</linearGradient>
</defs>
<path d="M6.62058 12L6.62058 12C6.61954 11.3917 6.86047 10.8079 7.29026 10.3774C7.72004 9.94687 8.30339 9.70495 8.91172 9.70495L8.89875 9.70495C9.50707 9.70495 10.0904 9.94687 10.5202 10.3774C10.95 10.8079 11.1909 11.3917 11.1899 12L11.1899 12C11.1899 13.2653 10.1641 14.2911 8.89875 14.2911L8.91172 14.2911C7.64635 14.2911 6.62058 13.2653 6.62058 12ZM17.3398 7.93765L21.6057 7.93765C22.8711 7.93765 23.8968 6.91187 23.8968 5.64651L23.8968 5.64651C23.8979 5.03819 23.6569 4.45443 23.2271 4.02391C22.7974 3.5934 22.214 3.35148 21.6057 3.35148L17.3398 3.35148C16.7315 3.35148 16.1481 3.5934 15.7183 4.02391C15.2885 4.45443 15.0476 5.03819 15.0487 5.64651L15.0487 5.64651C15.0487 6.91187 16.0744 7.93765 17.3398 7.93765ZM2.68791 20.6446L10.9734 20.6446C12.2387 20.6446 13.2645 19.6188 13.2645 18.3534L13.2645 18.3534C13.2655 17.7451 13.0246 17.1614 12.5948 16.7309C12.165 16.3003 11.5817 16.0584 10.9734 16.0584L2.68791 16.0584C2.07958 16.0584 1.49623 16.3003 1.06645 16.7309C0.636666 17.1614 0.395735 17.7451 0.396768 18.3534L0.396768 18.3534C0.396768 19.6188 1.42255 20.6446 2.68791 20.6446ZM13.5692 14.2911L14.3796 14.2911L16.2727 9.70495L15.19 9.70495L14.036 12.7131L14.023 12.7131L12.8885 9.70495L11.7345 9.70495L13.5692 14.2911ZM17.7768 14.2911L18.7881 14.2911L18.7881 9.70495L17.7768 9.70495L17.7768 14.2911ZM20.6553 14.2911L23.8903 14.2911L23.8903 13.3614L21.6666 13.3614L21.6666 12.4279L23.657 12.4279L23.657 11.4943L21.6666 11.4943L21.6666 10.6385L23.7737 10.6385L23.7737 9.70495L20.6617 9.70495L20.6553 14.2911ZM1.30959 7.94154L2.32096 7.94154L2.32096 4.24615L3.63055 4.24615L3.63055 3.35148L0 3.35148L0 4.24615L1.30959 4.24615L1.30959 7.94154ZM5.05684 7.94154L6.06821 7.94154L6.06821 5.9577L8.02612 5.9577L8.02612 7.94154L9.03749 7.94154L9.03749 3.35148L8.02612 3.35148L8.02612 5.06303L6.06173 5.06303L6.06173 3.35148L5.05684 3.35148L5.05684 7.94154ZM10.4054 7.94154L13.647 7.94154L13.647 7.00797L11.4103 7.00797L11.4103 6.07439L13.4006 6.07439L13.4006 5.14082L11.4103 5.14082L11.4103 4.28505L13.5173 4.28505L13.5173 3.35148L10.4054 3.35148L10.4054 7.94154ZM0.162078 14.295L1.16696 14.295L1.16696 10.7747L1.17993 10.7747L2.34689 14.295L3.1119 14.295L4.31777 10.7747L4.33073 10.7747L4.33073 14.295L5.3421 14.295L5.3421 9.70495L3.81857 9.70495L2.75533 12.7002L2.74237 12.7002L1.68561 9.70495L0.155595 9.70495L0.162078 14.295ZM14.696 20.6485L16.3375 20.6485C16.67 20.6502 17.0008 20.5999 17.3177 20.4994C17.6169 20.4059 17.8961 20.2578 18.1411 20.0624C18.3794 19.8685 18.5727 19.6252 18.7077 19.3493C18.8574 19.0434 18.9337 18.7069 18.9308 18.3664C18.9413 17.9978 18.8668 17.6318 18.7129 17.2967C18.5777 17.0143 18.3767 16.7684 18.1268 16.5797C17.8651 16.392 17.5684 16.2589 17.2542 16.1881C16.912 16.1026 16.5606 16.059 16.2078 16.0584L14.6895 16.0584L14.696 20.6485ZM15.7086 16.992L16.3051 16.992C16.5096 16.9913 16.7133 17.0183 16.9106 17.0724C17.092 17.1217 17.2626 17.2044 17.4137 17.3161C17.5573 17.4255 17.6736 17.5666 17.7534 17.7285C17.8425 17.9108 17.8869 18.1117 17.8831 18.3146C17.8886 18.541 17.8444 18.7658 17.7534 18.9732C17.6759 19.1442 17.5569 19.293 17.4072 19.4063C17.2523 19.5199 17.0758 19.6007 16.8886 19.6436C16.676 19.6926 16.4584 19.7165 16.2403 19.7149L15.7022 19.7149L15.7086 16.992ZM20.3946 20.6485L22.2748 20.6485C22.4809 20.648 22.6864 20.6263 22.8881 20.5836C23.0835 20.5447 23.2708 20.4723 23.4417 20.3697C23.604 20.2729 23.7416 20.1397 23.8437 19.9807C23.953 19.7977 24.007 19.5869 23.9993 19.3739C24.0004 19.2324 23.9762 19.0919 23.928 18.959C23.8832 18.8334 23.814 18.718 23.7244 18.6193C23.6342 18.5204 23.5265 18.4391 23.4067 18.3794C23.2775 18.3134 23.1381 18.2696 22.9944 18.2497L22.9944 18.2368C23.2171 18.1727 23.4165 18.0458 23.5688 17.8711C23.7179 17.6888 23.7949 17.4581 23.7853 17.2228C23.7956 17.0116 23.7438 16.8019 23.6362 16.6199C23.5397 16.4699 23.4056 16.3479 23.2472 16.2659C23.0779 16.1794 22.895 16.1224 22.7065 16.0973C22.5076 16.07 22.307 16.0561 22.1062 16.0558L20.3946 16.0558L20.3946 20.6485ZM21.406 16.9142L22.0932 16.9142C22.1737 16.9146 22.2539 16.922 22.3331 16.9362C22.4101 16.9496 22.4844 16.975 22.5535 17.0114C22.6183 17.0459 22.6732 17.0964 22.713 17.158C22.7563 17.2288 22.7776 17.311 22.774 17.3939C22.7762 17.4751 22.7575 17.5555 22.7195 17.6273C22.6844 17.6906 22.634 17.7441 22.573 17.7829C22.5107 17.823 22.4418 17.8515 22.3694 17.8672C22.2937 17.8843 22.2163 17.893 22.1386 17.8931L21.3943 17.8931L21.406 16.9142ZM21.406 18.7489L22.171 18.7489C22.26 18.7494 22.3488 18.7559 22.4368 18.7684C22.5261 18.7805 22.6133 18.8045 22.6962 18.8397C22.776 18.8724 22.8464 18.9246 22.901 18.9914C22.9568 19.066 22.9852 19.1576 22.9814 19.2507C22.9847 19.339 22.9636 19.4265 22.9205 19.5036C22.8807 19.5711 22.8262 19.6287 22.761 19.6721C22.6952 19.7159 22.6218 19.7467 22.5444 19.7629C22.4665 19.7797 22.3869 19.7884 22.3072 19.7888L21.3995 19.7888L21.406 18.7489Z" fill="url(#LinearGradient)"/></svg>
