<svg xmlns="http://www.w3.org/2000/svg" width="336" height="253pt" viewBox="0 0 252 253"><path style="stroke:none;fill-rule:evenodd;fill:#005bac;fill-opacity:1" d="M7.137 126.438c0 65.906 53.25 119.44 118.87 119.44v-4.968c-62.948 0-113.898-51.238-113.898-114.472 0-63.11 50.95-114.59 113.899-114.59 62.82 0 114.008 51.48 114.008 114.59 0 63.234-51.188 114.472-114.008 114.472v4.969c65.488 0 118.855-53.535 118.855-119.441 0-65.77-53.367-119.317-118.855-119.317-65.621 0-118.871 53.547-118.871 119.317"/><path style="stroke:none;fill-rule:evenodd;fill:#005bac;fill-opacity:1" d="M40.129 126.438c0 47.609 38.445 86.37 85.879 86.37v-3.265c-45.61 0-82.606-37.191-82.606-83.106 0-45.789 36.996-82.98 82.606-82.98 45.594 0 82.59 37.191 82.59 82.98 0 45.915-36.996 83.106-82.59 83.106v3.266c47.297 0 85.863-38.762 85.863-86.371 0-47.485-38.566-86.247-85.863-86.247-47.434 0-85.88 38.762-85.88 86.246"/><path style="stroke:none;fill-rule:evenodd;fill:#005bac;fill-opacity:1" d="M97.98 58.484c-.242.977-.601 1.942-1.332 3.153-.972.965-1.703 1.691-2.664 2.414l.961 2.172c1.703-1.207 2.793-2.532 3.77-3.86l4.113 9.07 3.402-1.558-5.335-12.484ZM115.809 65.266v2.304c-1.336.118-2.305 0-3.028-.363-1.215-.484-1.703-1.227-2.308-2.309l3.765-.847c.235.61.48.847.844.965.117.25.363.25.727.25m0-11.75v2.058c-.25 0-.364 0-.61.239-.726 0-1.324.37-1.695.738-.363.363-.602 1.203-.363 1.933 0 .977.363 1.578.968 1.942.364.242 1.09.347 1.7.242v2.05c-1.7.239-3.028 0-4.36-.718-1.215-.613-1.941-1.574-2.187-2.91-.117-1.336.246-2.54 1.336-3.633.968-.988 2.543-1.57 4.484-1.941Zm4.37.953c-1.093-.828-2.671-1.196-4.37-.953v2.058c.37 0 .976.239 1.578.61.488.367.972.96 1.09 1.695 0 .851-.118 1.324-.602 1.95-.367.35-1.09.839-1.695.839h-.371v2.05c1.336-.116 2.55-.718 3.394-1.706 0 1.59-.117 2.68-.48 3.277-.602.61-1.215.977-1.938.977-.363.125-.73.125-.976 0v2.304h.976c2.055-.363 3.871-1.347 4.969-2.554 1.34-1.325 1.695-3.266 1.34-5.813-.371-2.289-1.34-3.992-2.914-4.734M133.035 53.148v2.063c-.363.246-.488.246-.726.246-.371.117-.735.48-.973.969-.363.719-.606 1.941-.727 3.402-.242 1.559-.242 2.774 0 3.262.121.601.364.96.727 1.32.363.25.726.488 1.21.488h.49v2.07h-.727c-1.942-.245-3.403-.745-4.61-2.07-.972-.964-1.582-2.898-1.09-5.695.118-2.414 1.09-4.11 2.418-5.078 1.22-.852 2.309-1.215 4.008-.977m.844 0h-.844v2.063c.242 0 .363 0 .606.246.363 0 .726 0 1.214.355.36.126.477.614.727 1.102.121.594.121 1.934 0 3.512-.25 1.574-.367 2.664-.727 3.265-.242.598-.605.97-.976.97-.238.237-.602.237-.844.237v2.07c1.578.239 2.906-.245 4-.745 1.453-.957 2.309-2.895 2.55-5.45.372-2.406 0-4.347-1.331-5.68-.98-.968-2.55-1.82-4.375-1.945M145.523 55.457l-.968 2.05 8.25 3.505c-2.301.738-4.25 1.707-5.946 3.039-1.691 1.586-2.906 3.156-3.64 4.851l3.52 1.332c.363-1.09 1.09-2.058 2.187-3.511 1.203-1.086 2.543-2.063 4.117-3.032 1.457-.734 3.035-1.328 4.125-1.691l.852-1.82ZM56.738 59.203c-.965-1.082-3.261-3.39-5.699-5.078-2.172-1.82-4.484-2.902-5.82-1.941-1.332.964-.969 1.457-1.082 2.66-.371.73-.977 1.34-1.586 1.945-.727.602-2.422 1.695-3.27 2.898-.125.739-1.34.376-1.457.981-.246.48-.61.969-.37 1.453.733 2.54 6.07 7.754 6.07 7.754s2.55 2.543 2.55 2.305c1.696 1.933 3.633 3.507 4.125 3.87.965.114 2.18 0 1.93-.362-.965-1.825-3.637-3.508-4.723-5.09-1.578-2.055-3.27-3.63-4.855-5.582-.356-.356-.727-1.082-1.09-1.688-.242-.238-.242-.726 0-1.328.121-.363.734-.988 1.336-1.82.726-1.332 1.941-2.672 2.422-3.996.484-.371 1.21-.973 1.21-.973.61-.606 1.704-.367 2.313-.117.73.117 2.906 2.05 5.574 4.734 1.817 1.809 2.313 1.559 2.786 3.617.253.844-.727.606-.727.965-.355.98-.355 1.813 1.586 2.313.36.246 1.09.593 1.45.246.241-.246 0-.621-.122-1.332-.852-2.309-.363-3.274-2.55-6.434"/><path style="stroke:none;fill-rule:evenodd;fill:#005bac;fill-opacity:1" d="M47.527 61.148c0-.48-.37-1.086-.972-1.32-.852-.14-2.305 1.922-2.063 2.293 0 .598.246 1.207.61.969.363 0 2.668-.969 2.425-1.942M51.41 62.957c-.972.133-2.062.371-2.3.371-.731.961-.977 1.57-2.07 2.652.116 0-.247.989.116 1.336.25.61.86.977 1.586 1.34.606.246 2.059.602 2.668-.969.238-.718-.734-1.101-1.21-1.34v-.367h.6c0-.113 1.329.368 1.7.368.488-.957 1.215-2.297.488-3.391-.488-.594-.86-.238-1.578 0M91.8 24.57c.235-.129.235-.129.49-.363-.853-.969-1.942-2.672-2.306-2.547-.254.238-.37.238-.617.848-.355.613-.242 1.086.98 1.933.598.13.962.13 1.454.13M100.531 25.883c.117.265.364.62.364.984-.247.844-.61 1.207-.852 1.57-.363.614-.121 1.333.242 1.575 1.336.37 1.578-1.825 1.578-3.633 0-.844-.242-1.578-.242-2.172.242-.613 1.328-1.086 1.578-.969.121.602.356 1.563.965 2.547.363.95 1.34 1.926 1.703 2.05 1.7.602.965-.73.965-1.952 0-.098-.238-.098-.363-.098-.48 0-.844.098-1.215-.25-.117-.12-1.328-2.652-1.328-3.027.238-.363 1.21-.848 1.328-1.332.25-.496 0-1.211-.117-1.211-.492.246-3.153 3.273-3.516 3.629-.355.246-.726.246-.973 0-.117-.125-.363-1.45 1.7-4.242.601-.961.48-.961 0-1.332-.364-.118-.852.37-1.453.37-.61 0-.973-.132-.973-.37-.242-.356 0-.961-.242-1.325-.364-.976-1.942-.363-2.664.602-.73.96-3.032 5.328-2.07 6.172.976.488 1.952-1.57 2.792-2.54.977-.964 1.942-.964 2.184-.964.973 0-1.207 3.273-.363 5.82 0 .594-.97 1.32-1.579.95 0 0-.964-1.563-1.695-1.934-.363 0-.972 1.578-.363 2.304.363.97 2.305.606-.61 4.493-.73.71-.73 1.82-.73 2.656 0 1.09.363 2.059 1.094 2.059.972.238 1.586-.97 1.703-1.34.36-.348.965-1.918 1.21-3.633.126-1.195-.245-2.29.126-3.266.48-.73.965-1.34 1.816-2.191M91.066 28.805c.97-1.332.606-2.426-.964-3.39-.489-.243-.118 1.089-.118 2.058.118.238 0 1.332 0 1.695-.254.484 0 1.816 1.082-.363M93.016 38.617V35.95c-.246-.605-1.344-2.058-2.313-4.965-.246-.601-.973-.601-.973 0 0 .356 1.215 3.989 1.336 6.297.243 1.95.371 3.88.606 5.813.129 1.09 1.95 3.277 2.312 3.035.36-.133.598-.492.121-2.309a225.73 225.73 0 0 1-1.09-5.203"/><path style="stroke:none;fill-rule:evenodd;fill:#005bac;fill-opacity:1" d="M114.11 23.238c-.235-.117-.606.23-.97.23-1.574.126-2.906.372-3.995.126-.372 0-.852-.125-.852-.473-.121-.238 0-.613 0-1.223 0-.363-.121-.968-.484-.968-.614 0-1.215.605-1.34.968-.48.364-.602.61-.602 1.696-.242.613-.242.976.121 1.207.48.37 1.453.37 2.305.37 1.82.243 3.875.614 4.61.243.843-.242 1.57-.844 1.816-.973.125-.484.125-.972-.61-1.203M107.809 28.68c-.614-.242-.977.125-1.579.738-.605.594-.242 3.016-.976 4 0-.125-.363-.363-.61-.984-.117-.356-.117-.836-.718-1.094-.371-.242-.371.375-.727.738-.61.844-.972 1.34-1.215 1.559-.972.375-.488-1.559-1.336-2.04-.363-.613-1.09.481-.968 1.458 0 .582.363 1.57.363 2.156.242.621.242 1.465.242 1.71.363.97.61 2.177 1.211 2.915.488.719 1.332.594.852-1.219 0-.972-.852-2.668-.364-3.644.364-.594 1.215-.594 1.57-.11.372.48.372 1.688.727 1.813.364.605.973-.125 1.223-.727.121-.117.121-.976.484-1.937 0-.594.48-.957.606-1.578.238-.72.238-1.336.847-1.336.73-.114 1.09.863 1.454 1.336 0 .62.25.984.367 1.82.246.61 0 2.422 0 3.637-.117.605-.117.976-.117 1.207.363.367.726.492 1.09-2.176.238-2.91.363-2.91 0-4.961 0-1.578-1.704-3.156-2.426-3.281M164.941 23.957c-.976.484-3.16 1.926-4.488 3.754-1.453 1.707-1.707 2.3-2.32 1.941-.477 0-.356 0-1.328-.601-1.09-.371-1.942-.371-2.785-.613-.852-.25-1.942.613-2.18 1.214-.371.73 0 .73.594 1.094.37.352 2.43.969 3.043.969.359-.117.964 0 .847.363 0 .23-2.543 2.176-3.52 2.895-.964.613-2.906 1.949-3.269 2.547-.734.734.238 1.347.844 1.347.355 0 1.328-.738 2.789-1.222 1.695-.364 2.91-1.094 3.637-1.696.851-.605 2.304-2.312 2.668-2.531.484-.125 3.64 2.168 4.492 2.168.36-.242.976-.723 1.453-1.207.61-.488.238-1.086-.477-1.086-.855-.238-2.554-.86-3.523-1.332-.965-.621-.129-.977.363-1.578.48-.613 2.793-2.672 3.875-3.88 1.336-1.089 1.586-1.933 1.336-2.062-.238-.601-1.086-.601-2.05-.484M160.313 37.645c-.356 0-.84.972-1.204 1.453-.109.367.246 1.093.246 1.82.118.852 1.098 2.539 1.692 2.902.371.246.734-.363 1.586-1.445.719-1.215.719-1.215-.246-2.54-.735-1.218-1.34-2.19-2.075-2.19M218.543 60.668c-.363-.84-2.79-1.578-3.402-1.938-.97-.363-.243-.976-.243-1.222-.113-.363-.96-.117-1.328-.594-.363-.363-.363-.977-.12-1.102 0-.238.12-.355-.243-.718-.363-.489-.363 0-1.578 0-1.09 0-1.09.117-1.09.363 0 .355 0 .727-.61.969-.726.125-1.331.363-1.69.965-.614.73-.977.976-.977 1.093 0 .246.363.364.61.364.366 0 1.694-.727 2.296-.97.371-.124 1.703-.487 1.95-.37.362.246.362.86.116.86-.117.116-.363.116-.718 0-.614 0-2.188.48-2.684.835-.594.484-.844.977-.48 1.223.48.586 3.765.586 4.492.347.117 0 .363-.945 1.328-.945.613 0 1.34.598 1.703.84.355.344.73.344.605.719 0 .363-.605.363-1.218.613-.364 0-.477-.25-.477-.613 0-.375-.246-.614-.847-.375-.489 0-1.34.625-2.067.738-.969.25-2.906.371-3.273.371-.36 0-2.301-2.918-2.914-3.273-.352-.48-.121-.727-.121-1.094 0-.246 3.64-2.297 4.726-2.91 1.34-.614 1.582-1.203 1.582-1.696-.242-.843-1.582-.476-2.305.125-.734.368-2.55 1.82-2.914 2.301-.48.364-1.09 1.215-1.453.977-.605-.125-.605-1.34-.844-1.707-.125-.375-.488-.375-1.097-.375-.852.136-1.215.988-3.024 1.957-.859.488-1.214.488-1.578.965-.246.117-.246.73 0 .976.364.363 1.328.117 1.934 0 .488 0 .972-.488 1.336-.613.117 0 1.332 1.336 2.058 1.934.735.492 3.278 3.64 3.641 3.757 1.34.844 2.914 3.14 2.914 3.278.117.246.363.593 0 .847-.61.356-.61.356-.61.723.239.25 1.7 1.332 2.188 1.582.48 0 1.82 0 2.055-.617.367-.113-.234-.602-.36-.965-.363-.367-.363-1.324-.968-1.707-.727-.363-3.278-3.496-3.278-3.496 0-.133 1.7-.488 2.063-.371.488.238.488.972 1.215 1.215.363 0 .363-.243.726-.243.602-.246.602 0 2.543 0 1.942-.246 2.067-.363 2.43-1.09.363-.48.602-1.214 0-1.933M205.684 65.266c-.121-.368-2.426-2.903-3.032-3.266-.609-.25-.972-.25-1.336 0-.238.363-.726.957-.964 1.09-.118.238.601.844.964.96.364.36.973 1.216 1.336 1.34.606.247 1.332 0 1.215.59 0 .368-1.215 1.336-1.824 1.227-1.09 0-2.059-1.816-3.273-2.797-.36-.36-1.09-.36-1.45-.36-.363-.359-.851 0-.851.24 0 .37.488.726.488 1.1.121.59.484.833 1.09 1.196.973.621 1.937 1.59 2.305 1.957.238.36.601.715-.614 1.332-.968.602-2.297.965-3.394.602-1.211-.602-1.942-1.332-2.063-2.184-.242-.606-.601.25-.851.852-.118.48-.727 1.332-.594 1.695.23.355.23.594 1.203.969.977.12 3.281.726 4.254.609 2.059-.238 2.785-1.82 3.27-1.82.117 0 .48.597.843.836.246.132.852 1.347 1.578 1.347.61 0 1.348-.246.973-1.586-.238-.597-.727-.597-1.578-1.695 0-.355.488-1.207.605-1.207.246.25 2.668.25 3.032 0 .246-.117.609-1.324.492-1.57 0-.375-1.582-1.332-1.824-1.457M76.64 123.652c-.245.371-.488.61-.734.852-1.941 3.148-4.61 13.683-3.758 18.531.852 4.48 1.215 7.387 4.493 11.39Zm0-42.394v9.808c-1.94 1.82-4.003 2.184-3.163 3.383.488.973 1.703.86 3.164 1.34v6.656c-.614-.238-1.336-.238-2.063-.238-4.008.238-6.312 2.305-6.312 4.004 0 1.816 1.941 22.035 1.34 25.437-.614 3.516-4.981 14.895-3.645 20.47 1.578 5.331 7.16 10.417 8.492 10.417.484-.12 1.328-.496 2.188-.86v20.122c-4.493-4.953-13.223-15.145-16.016-21.203-3.887-8.352-1.336-13.442-.238-21.926 1.207-8.477.843-22.172-.371-29.68C58.684 98.7 61.719 97.98 64.996 94.7c3.024-3.02 6.3-3.633 7.152-8.113.364-3.277-1.941-4.734-2.183-6.535-.246-1.461 4.25-.735 6.676 1.207m0 9.808v-9.808c.48.363.964.847 1.207 1.332 1.574 2.656 1.691 5.562-.606 7.863-.12.25-.363.492-.601.613m0 11.38c2.18.495 3.632 2.066 4.722 2.425v.254-5.934c-.246-.492-.488-.613-.843-.96-1.336-1.586-2.797-2.192-3.88-2.442Zm0 51.98c.238.37.48.61.843.965 1.09 1.082 2.664 1.937 3.88 2.664v-10.059c-.247-.355-.489-.73-.489-.844-1.336-2.422-2.781-7.02-1.809-12.351.727-5.09.356-6.801 2.051-7.75l.246-.133v-8.106c-1.941 1.934-3.758 3.63-4.722 4.84Zm0 27.37c1.699 1.946 2.78 3.028 2.78 3.028s-.6 1.942-1.327 3.516c-.61 1.703.972 2.058 1.824 2.058.23 0 .957-.726 1.445-1.695V171.5c-1.824-1.094-3.27-3.027-3.879-4.605-.363-1.438-1.941-2.426.61-3.02.48 0 1.824 0 3.27.125v-3.273c-.844.238-1.825.238-2.544.238-.86.117-1.578.363-2.18.71Zm5.574-9.804v14.89c-.242.364-.606 1.09-.852 1.579V171.5c.246.25.61.363.852.492m0-11.265v3.39c-.242 0-.606 0-.852-.117v-3.273Zm0-11.266v9.074l-.852-.48v-10.059c.246.492.61.977.852 1.465m0-31.5v8.36c-.242.117-.606.359-.852.597v-8.106Zm0-17.45v4.614c-.242.117-.48 0-.852 0v-5.934c.371.36.61.844.852 1.32m12.367 92.677a41.167 41.167 0 0 0 5.461 1.816v-11.867c-1.09-.246-2.063-.864-1.328-2.68.238-.836.844-1.809 1.328-2.781v-5.926c-1.453 2.184-3.758 4.828-5.461 5.926Zm5.461-84.786c-2.063 0-4.367 0-5.461-.25v3.746c1.703-.613 4.008-1.199 5.461-1.199Zm-5.461 38.141c1.34-5.086 3.156-10.652 4.008-13.676.125-.375.969-.254 1.453-.613v-3.633c-.121 0-.363-.246-.121-.621 0-.105.121-.594.121-.95v-7.64.121c-.484 1.582-1.09 3.508-1.816 5.45-.965 3.394.117 4.367-2.668 4.98h-.977v2.906c.73 0 1.34 0 1.094.121-.117.594-.364 2.54-1.094 4.836Zm5.461 9.828c-1.328-.254-3.758 0-5.461 0v2.89c.977.126 1.82.126 2.434.364 1.328 0 1.937.121 3.027 2.297v.25Zm0 38.633v-11.867c.605.117 1.453.117 1.941.117.364 0 .844.238 1.215.238v11.988c-.851 0-1.578 0-2.304-.238-.247 0-.61-.238-.852-.238m0-67.953v-7.64c1.453-3.872 2.305-6.661 2.305-8.352 0-.36-.727-.614-2.305-.36v-2.297h3.156v9.559c-.972 2.539-2.187 6.062-3.156 9.09m0 5.203c.242 0 .605 0 .852-.375.117-.348.37-1.688.117-2.531 0-.602-.48-.602-.969-.727Zm3.156 26.652v15.754c-.972.594-2.187 1.68-3.156 3.016v-5.926c.969-1.219 1.578-2.07 1.578-2.547.363-1.34-.61-4.734-1.578-7.031v-5.8c.242 0 .488.1.605.1 1.215.493 1.7.856 2.551 2.434m0 36.574c1.446.125 3.031.368 4.242.368v-12.356c-.972.613-2.55.25-4.242 0Zm0-77.52c.727-2.66 1.328-4.355 1.446-4.722.246-.62 1.824-.488 2.796-.488v-3.762c-.609-.355-2.304-.586-4.242-.586Zm4.242 48.208c-2.187.238-2.914.238-3.757-3.996-.13-1.578-.364-2.547-.485-3.266v15.754c.121-.246.485-.246.485-.246.843 0 1.82 3.149 2.183 4.594.363.844 1.09 1.933 1.574 2.914v.242-10.172c-.246-.613-.484-.98 0-1.586Zm0-40.82c-.847 1.941-1.816 3.886-2.187 4.843-1.934 5.211-2.305 10.18-1.09 14.051 1.09 3.64 2.305 6.18 3.277 8v.238Zm0 70.5v-12.356c.368-.355.368-.726 0-1.328v-10.062c.125.25.368.613.489 1.21.601 1.696 1.332 2.903 2.304 6.176.844 2.07 1.332 3.278 1.934 3.766v18.894c-1.09.856-2.66-.613-2.66-.613s.363-1.09.605-2.05c.36-.614.36-1.34.727-2.06.363-1.206-.969-1.206-3.399-1.577m0-83.098c.125 0 .125 0 .368-.133.964-.344 1.336-2.527-.368-3.629Zm4.727 3.746v10.422c-1.328 1.082-1.695 4.613-1.934 6.664-.609 4.129.606 7.148 1.934 9.695v27.86c-.363-.125-.719-.125-1.09-.375-2.305-1.082-2.547-1.559-3.512-.356h-.125v-4.238c.125 0 .125-.238.368-.238 2.304 0 4.12 0 4.12-1.93 0-1.703-.726-5.094-1.695-6.55-.726-1.333-1.703-2.786-2.793-4.97v-27.132a68.271 68.271 0 0 1 2.43-5.453c.727-1.696 1.332-2.297 2.297-3.399m0-17.918v4.606c-.602-.614-.965-1.32-.719-2.914.117-.72.356-1.32.719-1.692m0 103.57c0-.12.246-.12.246-.12.367-.606.844-1.821 1.09-3.278.371-1.809.734-2.29.734-2.29s2.547.118 5.453.345V185.8c-.488-.133-.851-.371-.968-.738-1.215-1.926-.246-4.481.968-7.75v-9.45c-1.214.239-1.57-3.27-1.57-5.21-.246-1.688-.734-1.926-.371-4.598 0-.961.973-.356 1.941.363v-6.3c-1.941-1.212-4.246-3.145-5.582-5.204-.605-.965-1.328-2.184-1.941-3.512v-.125 27.86c1.707.965 2.676 1.812 3.64 2.175 1.215.622 1.579 1.458.735 4.852-.984 3.395-1.461 5.578-2.797 5.684-.605 0-1.215 0-1.578-.594Zm7.523-100.183c-.968-1.082-1.57-2.297-2.304-2.774-.965-.863-3.883-2.3-5.219-.613v4.606c.973.726 2.55.601 4.254 1.203 2.055.484 2.781 2.433 2.3 3.394-1.699 2.918-3.64 4.836-5.464 7.145-.477.738-.844 1.219-1.09 1.57v10.422c.246-.238.246-.48.613-.48 1.457-.356 4.727 3.753 6.91 5.21v-7.507c-1.332-2.434-2.906-5.692-1.57-8.602.238-.977.719-1.812 1.57-2.789Zm6.426 37.668v21.57c-.48-.238-.96 0-1.332.125-.972.348-1.336 2.168-2.062 5.442-.606 3.398-.97 3.273-2.305 7.89-.238.723-.356 1.68-.727 2.531v.121-9.449c1.098-.117 1.34-3.394 1.461-4.84.602-2.296.965-2.785-.12-3.636a5.885 5.885 0 0 1-1.34-.969v-6.3.124c1.097.602 2.062.957 2.788.957.852 0 2.547-7.867 3.637-13.566m0-10.047v3.402c-1.453-.375-4.12 0-5.699-.734-.238-.125-.356-.375-.727-.606v-7.507.23c.489 1.098 1.34 2.067 1.7 2.918.968 1.332 2.906 2.059 4.726 2.297m-6.426 67.219V185.8v.242c1.461.484 4.121.113 6.426-.375v11.273h-.363c-1.332 0-3.758 0-6.063-.136m6.426-91.934v3.156c-.96.375-1.695.72-2.668 1.332-1.332.961-2.66 2.059-3.758 3.391v-10.785c1.098 1.82 2.305 3.277 3.032 3.16.726 0 2.062-.254 3.394-.254m0 92.07c1.945 0 6.192-.136 10.074-.136h.114v-10.41h-.114c-1.824.605-2.914.132-2.312-.965.371-.72 1.453-2.176 2.312-2.664h.114v-4.84s-.114 0-.114.238c-.25 1.688-4.254 5.328-6.55 6.547-.735.113-2.188.719-3.524.957Zm10.188-34.289-.114-.117c-2.312-2.789-9.828-7.02-9.828-7.02-.246-.363-.246-.718-.246-1.09v-.968c.246-4.617 3.524-14.289 4.13-17.93 0-.605.12-1.332.362-2.539.364-.86 2.79 0 2.293-3.277 0-.727-.593-2.422-.593-2.793 1.332-4.223 2.668-8.957 3.882-12.356l.114-.238v-11.383h-.114c-2.312 0-4.492.243-6.187.97-1.098.476-2.55.85-3.887.96v3.156a59.998 59.998 0 0 0 4.856-1.57c3.277-.973 3.64 1.2 3.64 1.2s.364 1.827-1.578 7.03c-1.941 5.458-3.394 14.297-4.73 14.899-.606.125-1.332.125-2.188 0v3.402c.61 0 .856.223.856.594 0 .367-.246 2.676-.856 5.586v22.035c.973.125 1.945 1.332 3.278 1.82 1.94 1.211 3.277 1.809 3.64 5.817.363 4.11 2.906 6.902 3.156 8.722h.114Zm0-48.328c.968-2.668 1.695-4.84 1.949-5.203.726-1.34 3.262-2.05 4-2.3 2.18-.126 1.7-1.337.723-2.434-.485-.602-2.657-.953-5.332-1.203-.61-.243-.973-.243-1.34-.243Zm10.554 6.176v17.21c-.12 1.333-.609 2.661-.726 3.747-.238 2.91 0 5.086.726 6.426v26.406c-.964.719-1.941 1.34-2.906 2.05-2.676 1.587-2.676 3.513-2.062 5.458.246 1.695 3.027 3.027 4.968 3.266v15.753c-1.086 1.211-2.906.364-2.906.364 0-1.336-.363-.973.238-2.067.364-1.32.606-2.308.606-2.308h-8.492v-10.41c1.949-.727 2.183-.727 2.554-2.547.121-1.332-.976-1.575-1.941-1.332-.246 0-.363 0-.613.25v-20.114c.367.25.613.614.613.985.965 2.531 2.062 11.37 3.27 11.617 1.09.129 4.246-3.504 4.73-5.211 1.215-3.504-3.64-7.508-5.094-10.043-1.57-2.55-3.883-12.848-1.336-21.332 1.098-4.11 5.102-12.348 8.371-18.168m0 80.316c.368-.37.606-.972.73-1.703.24-1.218.24-2.172.602-3.265.246-.243 1.582-.368 3.887-.97.602 0 1.09-.237 1.703-.362v-12.352c-.613 0-.738-.734-.738-2.543 0-1.332.367-2.918.738-4.238v-9.813l-.25.235c-.488.734-.851 1.336-1.453 1.09-.61 0-1.344-.965-2.543-3.258-.98-1.961-1.46-4.375.238-6.188.73-.719 1.457-1.078 2.305-1.078.602-.254 1.09 0 1.703 0v-4.254c-.613-.238-1.101-.238-1.703-.363-1.344 0-2.305-.606-2.906-.848-.734-.734-1.707-1.445-2.313-2.91v-.113 26.406c1.215-.851 2.067-1.574 3.04-2.187.605-.352 1.808-.723 2.18 0 .124.378.124.972 0 1.945-.24.367-.24.613-.24.723-1.335 3.52-2.066 10.054-4.01 10.292h-.97Zm6.922-88.918c-.613.375-1.101.852-1.703 1.34-1.21.961-2.18 1.946-2.668 2.907-.61 1.09-1.582 2.43-2.55 4.105v17.46-.25c.968-4.472 2.55-8.839 3.038-9.808.836-1.332 1.207-.601 2.18.243.356.105.602.48.965.48.125 0 .488.246.738.371Zm0-13.57c-.613 0-1.101 0-1.703.25-.61 0-.973.121-1.344.613-2.543 2.41-.96 3.75 1.344 4.594.602.125 1.09.356 1.703.356Zm4.602 51.25v8.84c-1.332 2.785-1.942 7.152-2.547 9.445-.36 1.57-.973 3.516-1.453 5.575-.246.609-.363 1.222-.602 1.945v-9.813c.239-.36.356-.738.602-1.101.117-.973.363-2.297.726-4.106.727-2.664.243-3.398-.726-3.633-.246-.257-.363-.257-.363-.257l-.239-.102v-4.254h.602c1.094 0 2.297-.238 3.031-.605.363-.114.606-.969.969-1.934m-4.602 44.938v-12.352c.239.11.356.11.602.11.726-.11 1.941-.715 3.75-1.333h.25v11.649c-1.578.719-2.906 1.324-4 1.687-.246 0-.363 0-.602.239m4.602-85.77v4.492c-.606.489-.969 1.086-1.332 1.45-1.336 2.304-2.188 2.91-1.7 7.019.126 3.035 1.454 4.73 3.032 5.7v4.241c-1.332-.367-2.906-1.687-4-2.414-.246-.25-.363-.488-.602-.488v-16.848c.239-.242.356-.242.602-.48 1.094-.973 2.668-1.691 4-2.672m0-8.836v5.813c-.727-.48-1.578-.852-2.305-.961-.363-.25-1.215-.25-1.695-.375-.246 0-.363 0-.602-.246v-5.813h.602c1.094.25 2.422.863 3.637 1.34 0 0 .113.242.363.242m0-31.008v1.575c-2.668-1.332-2.668-2.184 0-1.575m0 123.688c.972-.371 1.93-.985 3.035-1.348v-11.754c-.965.496-2.063 1.094-3.035 1.453Zm3.035-89.406c-.727-1.32-1.945-2.547-3.035-3.274v5.813c.972.488 1.93 1.097 2.664 1.453-.734.48-1.692.976-2.664 1.57v4.492c.726-.965 1.93-1.953 3.035-2.918Zm0 47.722c-.602-.12-.371-2.066 0-5.207v-17.453c-.965.129-2.063 0-3.035-.84v4.242c.363.23.726.48 1.09.48.84-.25 1.816-.48 1.945-.597v.117c-.129 1.22-.965 7.02-1.7 9.684-.363 1.945-.718 5.934-1.335 8.246v8.84c.363-.969.726-1.453 1.336-1.945.594-.102 1.097-.477 1.699-.727Zm0-81.031c-.371 0-.602-.25-.965-.375-.734-.242-1.453-.355-2.07-.598v1.575c.617.363 1.09.484 1.93.957.378.375.734.496 1.105.746Zm-79.203 35.25c1.09-.125 1.453-2.184 0-4.613Zm0 21.195v-8.36c4.004-3.636 8.133-7.26 7.887-8-.118-3.265-1.7-2.179-3.641-4.237-1.457-2.184-.606-6.055 4.484-3.153 2.309 1.34.727 4.125 3.04 5.457.12.125.359.125.597.125v3.746c-.477.125-.848.375-1.328.497-2.55 1.804-3.64 1.804-5.219 4.476-2.906 5.324 0 6.168 1.09 8.84 1.578 3.035 3.277 4.25 5.457 4.25v2.906c-1.21 0-2.91.121-3.879-.375-1.691-.96-2.914-2.3-5.336-5.441-1.21-1.453-2.18-1.219-3.152-.73m0 60.562v-14.89c.37.109.726.234 1.21.359.614.128 1.579-1.946 1.942-3.88.367-1.933 1.332-3.261.367-3.878-.125 0-1.695-.23-3.52-.477v-3.39c1.454 0 2.544 0 2.544-.489 0-.367-1.09-.976-2.543-1.703v-9.074c2.914 3.738 5.937 5.336 6.91 5.203 1.223-.238 1.941-6.668 3.645-10.664.601-1.703 1.335-4.004 1.812-6.176v8.844c-1.328 5.086-2.293 9.328-1.812 9.45.246.253.964.253 1.812.253v2.89c-1.566-.241-3.144 0-3.516.739-.12.965 2.305 4.234 1.95 5.457-.98 2.043-3.649-.246-4.004.95-1.223 3.636-2.313 7.269-2.551 8.253-.125 1.555 1.574 1.32 2.906 2.3 1.578.716 1.7 2.528 4.004 1.571.363-.242.734-.367 1.211-.855v15.512c-4.969-2.184-10.187-5.215-12.129-6.793 0 0-.117.132-.238.488m86.234-12.836v12.836a2.97 2.97 0 0 1-.851.601c-2.18 1.465-4.246 2.559-6.18 3.52v-11.516c3.156-1.925 5.937-4.355 7.031-5.441m0-23.504v4.61a1.31 1.31 0 0 0-.851-.356c-1.692 0-4.246.355-6.18.95v-4.84c2.18.355 5.336-.364 7.031-.364m0-46.402v13.457a191.56 191.56 0 0 0-2.183 7.382c-.239.98 1.332 1.938 1.332 3.02-.243 3.531-2.657 2.918-2.907 4.129-1.34 4.957-2.43 9.93-3.273 13.445v-17.328c.363-.246.598-.246.844-.246 1.09-.594 1.703-4.598 2.312-7.254.48-2.785 2.418-8.473 3.024-10.3.609-1.458.37-4.36-2.18-2.79-1.094.496-2.43 1.465-4 2.664v-7.136c.969 1.203 1.57 2.058 1.934 2.902 1.703-.844 3.03-1.324 3.64-1.574.488-.125.977-.246 1.457-.371m0-30.516v4.484c-2.183-2.296-4.61-4.484-7.031-5.93v-2.304c2.305.848 4.723 2.172 7.031 3.75m0 4.484v-4.484c3.516 2.54 6.91 5.691 9.828 8.719h.246v8.722h-.246c-.73-1.328-1.464-2.664-2.672-4.117-1.453-1.937-4.125-5.562-7.156-8.84m0 39.489V104.14c2.18-.356 3.758.246 3.758.246s7.398 1.336-.242 3.765c-.485.118-1.817 4.004-3.516 9.446m0 69.285v-12.836l.125-.113c1.453-1.582 3.762-7.04 3.762-8.723 0-1.574-1.824-8.363-3.887-10.059v-4.609c.363-.121.61 0 .852 0 1.328.605 3.64 7.875 3.879 8.477 0 0-.973-34.997 1.09-43.48.734-3.267 2.542-5.813 4.007-7.759h.246v6.781h-.246c-.48 1.102-.73 2.067-.73 2.672 0 1.34.25 3.016.73 2.91h.246v43.352c0 .14 0 .14-.246.14 0 .364-.117.833-.367 1.196-1.328 3.402-3.031 5.574-3.031 5.574-1.7 2.668-2.543 4.848.969 2.074.964-1.101 1.699-2.074 2.43-3.046.245 0 .245-.23.245-.23v8.358h-.246c-2.43 2.657-5.824 6.41-9.828 9.32m22.074-89.991c-1.457-2.192-6.3-8.38-12-14.547v8.722c4.368 7.164 5.575 12.473 5.575 12.473s-2.914 1.332-5.575 4.242v6.781c.965-2.167 2.66-4.472 3.875-5.574 2.063-1.918 3.028 0 2.79.973-.125 2.312-1.934 3.996-3.278 4.727-3.273 2.546-2.305 4.722-3.273 5.207-.114 0-.114 0-.114.25v43.351c1.934-5.195 1.696-8.344 1.567-14.656-.238-7.383-.602-14.645.129-13.438.965 1.09 3.27 10.547 3.27 15.141-.235 9.082-.235 12.48-4.966 18.66v8.36c.965-.985 1.934-1.934 2.66-2.793 6.31-5.93 7.883-15.145 8.973-18.04.969-3.03.242-7.27-1.687-12.73-1.578-5.2-3.637-12.469-4.617-16.95-1.09-4.355-1.454-8.12-.125-10.058 1.105-1.808 1.335-2.066 3.164-1.09 1.578.727 2.3 2.672 1.578 10.535-.73 8.364.238 10.293 2.539 5.211 1.828-4.597 1.695-9.57 1.828-12.718.476-3.266.965-6.18 1.816-7.645.727-1.558-1.34-10.047-4.129-14.394M25.094 159.625c-.367-.238-.73-.363-1.094-.605-1.941-.965-3.277-2.649-3.887-4.97-.48-2.171-.117-4.226.856-6.167 1.09-1.934 3.031-3.258 5.453-3.883.601-.238 1.453-.371 1.941-.371h.246v2.914c-.37 0-.734.125-1.34.125-2.664.598-4.484 1.82-5.57 3.266-.976 1.214-.976 2.546-.73 3.886.363 1.57 1.332 2.653 2.785 3.274.484.234.851.355 1.215.355.363.25.722.25 1.328.25h.125c.484 0 .848 0 .973-.25h.968l.246-.12v2.91c-1.214 0-2.312-.239-3.515-.614m3.515.613c.727 0 1.332-.238 2.059-.492 2.3-.726 4.242-1.816 5.457-3.75 1.09-2.176 1.453-4.117.848-6.172-.485-2.183-1.7-3.629-3.641-4.855-.363-.239-.719-.344-.973-.602-.117 0-.117 0-.117-.125-.355 0-.734-.242-1.21-.242v-.238c-.364 0-.731 0-1.09-.133h-1.333v2.914c1.57-.348 2.668-.348 3.75-.238v.238c.489 0 .852.125 1.223.125 1.328.598 2.063 1.82 2.543 3.156.363 1.574.121 2.903-.605 3.996-1.211 1.332-3.16 2.551-5.82 3.274-.364.234-.735.234-1.09.234ZM19.996 132.867l12.363-.988.254 2.566c.235.477 0 1.082-.254 1.446-.117.601-.355.84-.851 1.195-.23.137-.84.137-1.567.375l.239.613 3.765-.613-.976-13.438H29.21v.48c.73 0 1.34 0 1.703.477.594.125.727.489.973.98.117.36.117.958.355 1.692v1.934l-12.484.98c-.977 0-1.465 0-1.942-.25-.37-.125-.726-.73-.726-1.57v-.5l-.371.129.37 7.027h.595v-.601c-.239-.606 0-1.219.132-1.59.477-.223.965-.223 2.18-.344M46.43 175.629c.61.113.976.351 1.34 1.074l.246.61.363-.122-2.55-5.199-.61.11.484.378c.125.594.371 1.196.125 1.567-.125.367-.726.723-1.578 1.336l-8.605 4.238 6.55-14.789-2.066-3.867h-.363c.363.605.363.71.363 1.207.125.363.125.851 0 1.094 0 .37 0 .734-.363 1.566l-10.43 5.211c-.727.363-1.34.488-1.691.488-.622 0-.739-.363-1.223-.851l-.125-.594-.606.117 2.672 5.211.364-.125-.118-.613c-.37-.602-.37-1.196-.246-1.574.246-.11.602-.602 1.578-1.09l8.977-4.606-6.914 15.867.238.243 12.496-6.301c.965-.473 1.461-.586 1.692-.586M55.656 197.895l.364-.102-4.247-5.106-.363.5c.606.36.719.848.719 1.09v.727c-.113.476-.48.844-1.09 1.215l-3.633 3.265c-.613-.37-1.207-.613-1.578-.976-.61-.235-.973-.715-1.578-1.082-.484-.848-.848-1.82-1.09-2.91-.246-1.207 0-2.54.606-3.887.484-1.207 1.453-2.29 2.664-3.496 1.586-1.09 3.277-1.938 4.98-2.07 1.942-.239 3.633.367 4.965 2.07.98 1.207 1.348 2.539 1.348 3.87-.125.974-.621 1.935-1.094 3.032l.11.48 3.886-3.753-.363-.364c-.36.23-.61.364-.852.364-.12 0-.36 0-.36-.133-.124-.23-.366-.363-.366-.957-.364-.723-.723-1.332-.961-1.945-.125-.348-.621-.961-.985-1.332-.965-1.333-2.297-2.172-3.386-2.653-1.704-.488-3.278-.605-5.22-.25-1.339.356-2.667.977-3.882 1.938-1.453 1.336-2.426 2.91-2.79 4.836-.605 2.672.122 5.214 2.306 7.629.726.855 1.453 1.59 2.308 2.187.719.363 1.696.973 2.418 1.34l4.008-3.277c.605-.594 1.215-.965 1.586-.965.355-.239.957.246 1.324.613ZM69.844 200.445c.484-.238.972 0 1.453.371l.61.364.241-.364-5.582-4.355-.238.344.36.375c.488.246.605.613.851.965v.726c0 .242-.363.613-.973 1.336l-7.156 8.848c-.36.601-.726.84-1.09.84-.36.125-.597.125-.722 0-.243-.239-.243-.598 0-.961.125-.72.125-1.332.125-1.582 0-.368-.125-.368-.368-.606-.253-.355-.617-.355-.98-.355-.355 0-.602.234-.719.593-.37.368-.613.743-.37 1.332 0 .618.487 1.227 1.089 1.579.61.609 1.586.98 2.309.98.968 0 1.703-.371 2.308-.855.727-.364 1.567-.965 2.305-2.047l5.215-6.196c.48-.96.968-1.332 1.332-1.332M75.543 203.488l.61.473c.363.125.605.371.726.726.242.25.242.614.242.731 0 .234-.363.852-.605 1.566l-5.582 9.215c-.364.856-.727 1.332-1.09 1.574-.364.239-.969 0-1.578-.242l-.61-.363-.117.363 6.063 3.754.246-.605-.371-.246c-.356-.118-.606-.48-.965-.72-.239-.37-.239-.612-.239-.73 0-.484.364-.84.848-1.586l5.336-9.183c.61-.863.965-1.469 1.082-1.59.61-.234 1.215 0 1.824.36l.371.242.125-.48-5.953-3.392ZM106.832 216.45l.61.113c.73.242 1.09.492 1.331.968.122.242.122.969-.242 1.946l-1.574 6.539c-.363 1.8-.969 2.89-1.332 3.754-.488.48-1.098.968-2.07 1.085-1.207.372-1.934.372-3.024 0-.972-.117-1.578-.355-1.941-.96-.61-.372-.973-.739-1.211-1.336-.117-.618-.117-1.094 0-2.063 0-.851 0-1.57.238-2.184l1.942-7.144c.12-.969.363-1.34.726-1.695.246-.239.727-.364 1.336-.239l.727.239v-.364l-6.79-1.82-.246.488.727.118c.61.253.977.37 1.223.847.117.367.117.969 0 1.82l-1.703 6.426c-.489 1.938-.614 3.266-.614 3.989.125 1.214.614 2.18 1.34 2.918.73.96 2.059 1.57 3.758 2.175 1.578.364 3.156.364 4.121 0 1.09-.605 1.824-1.215 2.43-1.933.601-.856.972-2.196 1.336-3.64l1.695-6.544c.246-.969.488-1.578.61-1.808.605-.372 1.214-.614 1.695-.372l.601.239.25-.48-5.824-1.466ZM127.7 218.375h.605c.722 0 1.09.125 1.336.61.125.117.363.968.363 1.812l-.363 9.703-9.578-12.969-4.618-.133v.614c.61 0 .977 0 1.098.133.48.23.844.23.965.355.367.238.613.602 1.215 1.453l-.364 11.274c0 .957-.238 1.574-.484 1.937-.367.371-.73.61-1.453.61h-.613v.347l5.699.238v-.351h-.477c-.613 0-1.215-.473-1.34-.606-.238-.367-.488-.968-.238-2.175l.238-9.942 10.555 13.695h.363l.364-14.183c0-.844.12-1.453.363-1.695.363-.364.726-.602 1.566-.602h.496v-.355l-5.699-.372ZM146.5 232.07h-1.215c-.367-.25-.488-.25-.73-.363 0-.48-.121-.969-.364-1.812l-1.937-10.551c-.363-.969-.363-1.57-.117-1.946.355-.343.726-.593 1.328-.835l.488-.114v-.383l-7.035 1.332.117.375h1.824c.121.239.36.239.485.372.242.23.242.957.48 1.808l2.067 10.547c.246.965.246 1.57 0 1.934 0 .367-.614.601-1.34.73l-.363.238v.371l6.914-1.34v-.363ZM160.453 211.238l.238.606.125-.242c.602 0 .965 0 1.446.242.125 0 .37.113.37.355.118.363.118 1.09.118 2.067l-.488 10.418-7.153-7.88c-.726-.738-1.09-1.093-1.09-1.57-.238-.367-.238-.492 0-.726.118-.36.481-.613 1.333-.973l-.243-.363-6.308 2.3v.356c.61-.117.972-.117 1.328-.117.25 0 .605.117.976.117 0 .238.364.371.973 1.227l10.555 11.504.355-.243.977-15.144c0-.973.12-1.57.36-2.18.366-.367.616-.73 1.093-.972l-.117-.364ZM186.16 210.875c.25 1.082 0 2.063 0 2.66-.12.613-.363 1.207-.601 1.332-.371.367-.727.844-1.707 1.332l-2.305 1.574c-.363.239-.606.239-.969.239-.121.133-.121 0-.36 0-.128-.239-.366-.48-.73-1.207l-3.031-4.36 3.031-2.183c.602-.367.969-.606 1.453-.606.243 0 .606 0 .97.239.245 0 .609.609 1.214 1.097l.129-.367-3.035-4.848-.367.493c.605.714.605 1.332.605 1.945-.238.344-.605.84-1.328 1.441l-3.16 1.946-3.633-5.575 3.875-2.539c.726-.383 1.098-.726 1.586-.726.363-.25.726 0 1.082.242.363.101.973.351 1.578 1.082l.36-.125-2.18-3.145-10.668 6.91.238.59.488-.343c.364-.371.97-.621 1.332-.371.485 0 .856.613 1.336 1.453l5.946 8.957c.488.726.851 1.09.851 1.465 0 .238 0 .476-.25.84-.113.363-.363.48-.726.73l-.371.371.125.355 10.8-6.906-1.215-4.363ZM191.125 191.004v1.684h-.117c-.61 0-.965.25-1.578.62-.239.239-.364.368-.602.606-.36.121-.726.727-1.09 1.328l3.387 3.871v3.399l-3.996-4.239c-.719-.722-1.332-1.332-1.57-1.332-.496 0-.98.239-1.461.61l-.371.594-.473-.352 4.484-4.246c1.328-1.203 2.305-1.942 3.032-2.305.238-.238.355-.238.355-.238m13.23 7.867c-.488.242-1.703.242-2.792-.121l-5.946-.957c.852-1.215 1.34-2.313 1.34-3.277-.242-1.207-.613-1.926-1.34-2.786-.601-.488-1.336-1.101-2.304-1.101h-.61c-.363 0-.965 0-1.332.133l-.246.242v1.684h.246c.969 0 1.695.5 2.43 1.226.851.727.965 1.566.965 2.664-.114.973-.727 2.172-1.93 3.266 0 0-.133 0-.133.238 0 0-.242.125-.363.125l-1.215-1.094v3.399l3.527 3.515c.48.598.965 1.2.965 1.325.125.62 0 1.207-.601 1.703l-.364.488.114.352 5.218-5.208-.246-.242-.476.493c-.492.48-.852.48-1.348.48-.473 0-.957-.367-1.57-1.086l-3.508-3.516c.23 0 .23-.125.476-.125 0-.246.118-.246.118-.246.25-.238.37-.601.851-.73l9.34 1.465 3.285-2.907-.379-.378c-.843.613-1.57.976-2.172.976M214.297 180.832c-.484-.375-1.09-.613-1.7-.613-.726-.235-1.331 0-2.058.238-.734 0-1.941.484-3.523 1.34-1.817.969-3.149 1.457-4 1.457-.61.238-.973 0-1.453-.117-.485-.621-.852-.973-.973-1.707 0-.848.12-1.578.488-2.422.484-.477.965-.844 1.817-1.332.726-.363 1.46-.485 2.304-.363.727 0 1.453.25 2.426.851l.363-.488-4.73-3.262-.242.356c.242.238.363.613.363.613v.597c-.121.235-.484.36-.973.723-.844.61-1.453 1.223-2.054 1.945-.727.973-1.09 2.293-.977 3.516.25 1.328.86 2.305 1.703 3.031.602.235 1.211.606 1.817.606.726.242 1.335 0 2.062-.133.727-.238 1.95-.844 3.395-1.445 1.453-.73 2.304-1.086 2.793-1.332.484-.125 1.09-.125 1.453-.125.609 0 .851.125 1.214.488.727.488 1.086.969 1.086 1.809 0 .738-.113 1.703-.726 2.421-.602.856-1.211 1.22-1.938 1.575-.718.363-1.332.613-2.066.613-.84 0-1.57-.363-2.66-.723l-.246.11 4.61 3.53.245-.37c-.246-.489-.488-.614-.488-.856 0-.12 0-.12.242-.36 0-.241.363-.605 1.09-1.218.61-.363 1.21-.726 1.21-.836.368-.488.727-.61.97-1.222.972-1.2 1.09-2.532 1.09-3.88-.356-1.331-.97-2.288-1.934-3.015M224.367 170.043c-.25.363-.367.488-.855.719-.121.25-.36.25-.723.25-.242 0-.73-.25-1.332-.606l-9.586-4.836c-.969-.613-1.582-.976-1.703-1.101-.238-.594-.238-.973.121-1.567l.25-.605-.371-.125-3.152 6.3.492.243.117-.613c.246-.356.363-.602.727-.832.246-.13.613-.375.851-.375.125.246.727.375 1.453.851l9.586 4.734c.969.47 1.453.833 1.578 1.196.239.37.239.984-.125 1.578l-.238.488.363.238 3.274-6.3-.367-.246ZM230.063 152.844c-.122.613-.364.976-.727 1.207-.363.133-.965.133-1.938-.23l-12.257-3.278.613-2.305c.121-.597.36-1.086.726-1.57.364-.125.735-.473 1.336-.473.239-.246.727-.246 1.329 0l.242-.496-3.633-.969-3.637 13.325 3.637 1.207.121-.598c-.734-.246-1.09-.61-1.578-.965-.36-.37-.484-.734-.484-1.226 0-.356 0-.957.125-1.676l.601-1.953 12.246 3.273c.973.254 1.34.613 1.703.848.239.363.239.965 0 1.453v.602l.485.242 1.695-7.02h-.356ZM233.941 129.71l-.238.606c0 .602-.125 1.215-.61 1.332-.116.23-.964.48-1.808.23l-4.254-.23-5.937-4.359c-.852-.61-1.336-1.207-1.578-1.578-.371-.242-.61-.606-.735-1.207-.238-.363-.238-.48-.238-.852v-.25h-.488l-.477 5.832h.602c0-.488 0-.859.238-.988.125-.246.125-.351.363-.351.125-.243.364-.243.606-.243.492 0 .855.348 1.707.723l4.972 3.754-5.582 3.035c-.968.363-1.34.727-1.703.727a1.108 1.108 0 0 1-.726-.727c-.239-.242-.239-.605-.239-.969v-.375h-.37l-.602 7.164h.37c0-.496.231-.613.231-.851.371-.5.61-.965.973-1.09.125-.242.727-.375 1.46-.969l7.27-4.125 3.891.496c.965 0 1.574 0 1.7.356.605.12.84.726.605 1.457v.597h.36l.605-7.144Zm0 0"/></svg>