<svg viewBox="0 0 24 24" xmlns="http://www.w3.org/2000/svg"><path d="M7.56 2.454h8.88a7.56 7.56 0 0 1 7.56 7.56v3.972a7.56 7.56 0 0 1-7.56 7.56H7.56A7.56 7.56 0 0 1 0 13.986v-3.972a7.56 7.56 0 0 1 7.56-7.56Z" fill="#fff"/><path d="M4.341 8.81h15.48s-1.89-5.004-7.753-4.983C6.205 3.847 4.34 8.81 4.34 8.81Z" fill="#00b0ed"/><path d="M4.052 9.48h16.002c.552 1.361.494 3.603.011 4.787H4.041c-.49-1.119-.495-3.622.011-4.788Z" fill="#35b256"/><path d="M4.318 14.855h15.48s-1.89 5.004-7.753 4.983c-5.863-.02-7.727-4.983-7.727-4.983Z" fill="#ee3845"/></svg>