<svg viewBox="0 0 24 24" xmlns="http://www.w3.org/2000/svg"><path d="M21.543 7.104c.015.212.015.423.015.637 0 6.506-4.953 14.01-14.01 14.01v-.004A13.94 13.94 0 0 1 0 19.539a9.887 9.887 0 0 0 7.287-2.04 4.93 4.93 0 0 1-4.6-3.42 4.908 4.908 0 0 0 2.223-.085A4.924 4.924 0 0 1 .96 9.169v-.062c.685.381 1.451.593 2.235.616a4.93 4.93 0 0 1-1.524-6.575A13.975 13.975 0 0 0 11.82 8.292a4.93 4.93 0 0 1 8.391-4.49 9.88 9.88 0 0 0 3.127-1.197 4.943 4.943 0 0 1-2.165 2.724A9.793 9.793 0 0 0 24 4.553a10.004 10.004 0 0 1-2.457 2.551Z" fill="#1d9bf0"/></svg>