<svg viewBox="0 0 24 24" version="1.1" xmlns="http://www.w3.org/2000/svg" xmlns:xlink="http://www.w3.org/1999/xlink">
    <title>Twitch</title>
    <polygon fill="#FFFFFF" points="18.8503254 11.1428571 15.4229935 14.5714286 11.9956616 14.5714286 8.9967462 17.5714286 8.9967462 14.5714286 5.14099783 14.5714286 5.14099783 1.71428571 18.8503254 1.71428571"></polygon>
    <path d="M20.5639913,0 L20.5639913,12 L12.8524946,19.7142857 L9.42516269,19.7142857 L5.14099783,24 L5.14099783,19.7142857 L0,19.7142857 L0,4.28571429 L4.28416486,0 L20.5639913,0 Z M18.8503254,1.71428571 L5.14099783,1.71428571 L5.14099783,14.5714286 L8.9967462,14.5714286 L8.9967462,17.5714286 L11.9956616,14.5714286 L15.4229935,14.5714286 L18.8503254,11.1428571 L18.8503254,1.71428571 Z M16.2798265,4.71428571 L16.2798265,9.85714286 L14.5661605,9.85714286 L14.5661605,4.71428571 L16.2798265,4.71428571 Z M11.5672451,4.71428571 L11.5672451,9.85714286 L9.85357918,9.85714286 L9.85357918,4.71428571 L11.5672451,4.71428571 Z" fill="#9146FF"></path>
</svg>
