<?xml version="1.0" encoding="UTF-8" standalone="no"?>
<!-- Created with Inkscape (http://www.inkscape.org/) -->

<svg
   xmlns:dc="http://purl.org/dc/elements/1.1/"
   xmlns:cc="http://creativecommons.org/ns#"
   xmlns:rdf="http://www.w3.org/1999/02/22-rdf-syntax-ns#"
   xmlns:svg="http://www.w3.org/2000/svg"
   xmlns="http://www.w3.org/2000/svg"
   xmlns:sodipodi="http://sodipodi.sourceforge.net/DTD/sodipodi-0.dtd"
   xmlns:inkscape="http://www.inkscape.org/namespaces/inkscape"
   width="207"
   height="229"
   id="svg2"
   sodipodi:version="0.32"
   inkscape:version="0.92.3 (2405546, 2018-03-11)"
   version="1.0"
   inkscape:output_extension="org.inkscape.output.svg.inkscape"
   sodipodi:docname="Unilever_logo_2004.svg">
  <metadata
     id="metadata59">
    <rdf:RDF>
      <cc:Work
         rdf:about="">
        <dc:format>image/svg+xml</dc:format>
        <dc:type
           rdf:resource="http://purl.org/dc/dcmitype/StillImage" />
      </cc:Work>
    </rdf:RDF>
  </metadata>
  <defs
     id="defs57" />
  <sodipodi:namedview
     pagecolor="#ffffff"
     bordercolor="#666666"
     borderopacity="1"
     objecttolerance="10"
     gridtolerance="10"
     guidetolerance="10"
     inkscape:pageopacity="0"
     inkscape:pageshadow="2"
     inkscape:window-width="1366"
     inkscape:window-height="705"
     id="namedview55"
     showgrid="false"
     inkscape:zoom="1.0305677"
     inkscape:cx="-1.8446754"
     inkscape:cy="114.5"
     inkscape:window-x="-8"
     inkscape:window-y="-8"
     inkscape:window-maximized="1"
     inkscape:current-layer="layer1" />
  <g
     inkscape:label="Layer 1"
     inkscape:groupmode="layer"
     id="layer1"
     transform="translate(-125.78778,-6.1813767)">
    <g
       id="g7579"
       clip-path="none"
       transform="matrix(2.8259216,0,0,-2.8259216,-10.998226,2264.5446)"
       style="fill:#0f0e9a;fill-opacity:1">
      <g
         id="g7581"
         transform="translate(77.8214,720.1417)"
         style="fill:#0f0e9a;fill-opacity:1">
        <path
           id="path7583"
           d="M 0,0 C 0.63,0 1.713,0.204 2.565,1.569 C 2.078,2.652 1.731,4.84 1.681,5.636 C 1.43,9.711 3,13.544 4.719,13.649 C 5.978,13.725 6.986,12.533 7.102,10.602 C 7.411,5.525 5.721,3.405 4.875,1.578 C 5.018,0.869 6.219,-0.338 7.354,-0.338 C 7.773,-0.338 8.28,-0.128 8.407,0.042 C 8.322,0.334 8.237,0.713 8.237,1.261 C 8.237,4.203 10.129,6.683 11.768,6.683 C 13.071,6.683 13.827,4.96 13.827,3.823 C 13.827,2.48 12.692,1.385 11.012,0.334 C 11.307,0.042 11.851,-0.171 12.315,-0.171 C 14.712,-0.171 15.967,2.73 16.896,5.379 C 17.064,5.885 17.359,6.599 17.946,6.599 C 18.956,6.599 19.377,-0.042 21.054,-0.042 C 21.77,-0.042 22.358,1.43 22.358,2.562 C 22.358,3.403 22.064,3.487 22.064,4.707 C 22.064,6.05 22.779,7.184 23.747,7.184 C 24.335,7.184 24.547,6.599 24.547,5.885 C 24.547,3.195 22.612,-1.807 19.757,-1.807 C 17.61,-1.807 17.778,1.891 17.022,1.891 C 16.178,1.891 15.001,-1.85 10.844,-1.85 C 10.168,-1.85 9.456,-1.514 8.869,-0.84 C 7.861,-1.514 7.018,-1.807 6.051,-1.807 C 4.498,-1.807 3.825,-0.21 3.195,-0.21 C 2.437,-0.21 1.599,-1.85 -0.925,-1.85 C -2.942,-1.85 -3.279,0.838 -3.991,0.838 C -4.623,0.838 -5.589,-1.85 -6.639,-1.85 C -8.407,-1.85 -8.782,2.815 -10.339,2.815 C -11.558,2.815 -15.409,-1.923 -16.454,-1.815 C -16.875,-1.771 -17.051,-1.456 -17.007,-1.036 C -16.948,-0.455 -16.448,1.101 -16.244,1.838 C -15.904,3.116 -15.592,4.517 -15.418,4.964 C -15.245,5.414 -14.778,5.736 -14.404,5.701 C -14.215,5.683 -14.158,5.331 -14.1,5.041 C -13.888,4.002 -13.591,2.942 -13.257,2.942 C -12.667,2.942 -10.717,6.683 -9.583,6.683 C -8.194,6.683 -8.027,0.798 -6.138,0.798 C -5.506,0.798 -5.042,1.553 -4.623,2.48 C -4.58,4.038 -4.161,6.26 -2.9,6.26 C -2.016,6.26 -1.595,4.287 -2.228,2.562 C -2.228,0.504 -0.884,0 0,0 M 33.621,5.042 C 33.1,2.882 31.521,-0.296 29.165,-0.296 C 28.62,-0.296 27.652,-0.085 27.652,0.462 C 27.652,1.051 31.353,1.132 31.353,3.95 C 31.353,4.999 30.387,6.472 28.957,6.472 C 27.066,6.472 25.221,4.411 25.221,1.553 C 25.221,-1.009 26.813,-1.85 28.409,-1.85 C 31.185,-1.85 32.865,0.422 33.747,2.312 C 34.169,1.051 34.418,-1.85 35.472,-1.85 C 35.891,-1.85 36.187,-1.639 36.693,-0.506 C 37.949,2.312 39.169,5.547 40.852,5.547 C 41.481,5.547 41.104,4.411 42.617,4.411 C 43.33,4.411 43.832,4.999 43.832,5.675 C 43.832,6.642 42.951,7.396 41.607,7.396 C 37.657,7.396 36.818,1.47 36.187,1.47 C 35.135,1.47 35.472,6.219 34.714,6.219 C 34.041,6.219 33.711,5.417 33.621,5.042 M 5.741,9.468 C 5.668,10.642 5.384,11.172 4.753,11.13 C 3.916,11.079 3.529,8.445 3.7,5.678 C 3.809,3.872 4.078,3.594 4.328,3.611 C 4.791,3.638 5.902,6.865 5.741,9.468 M -1.094,11.936 C -1.153,12.609 -1.681,13.069 -2.396,13.069 C -3.194,13.069 -3.945,12.232 -3.865,11.18 C -3.814,10.488 -3.405,9.917 -2.603,9.917 C -1.681,9.917 -1.009,10.968 -1.094,11.936 M 11.979,3.363 C 11.979,4.076 11.599,4.664 11.14,4.664 C 10.758,4.664 9.878,4.246 9.878,2.9 C 9.878,1.846 10.253,1.346 10.424,1.132 C 11.641,1.511 11.979,2.522 11.979,3.363 M 28.409,4.788 C 29.293,4.788 29.546,3.742 29.336,3.11 C 29.124,2.48 28.369,1.763 27.192,1.553 C 26.939,2.185 26.813,4.788 28.409,4.788 M -19.983,7.772 C -20.104,8.154 -20.453,9.013 -20.549,9.647 C -20.759,11.051 -20.025,11.976 -19.351,12.188 C -18.594,12.399 -18.299,12.02 -18.007,11.136 C -17.628,9.792 -17.586,8.028 -17.713,5.506 C -17.879,2.059 -19.603,-2.102 -23.889,-2.016 C -27.589,-1.935 -29.226,0.462 -29.396,4.118 C -29.476,5.841 -29.354,7.563 -28.639,10.001 C -28.261,11.305 -27.923,11.769 -26.748,12.02 C -25.824,12.188 -25.907,11.223 -26.117,10.084 C -26.578,7.563 -26.791,6.346 -26.621,3.487 C -26.456,0.462 -25.066,-0.716 -23.553,-0.716 C -21.284,-0.759 -20.276,1.132 -19.854,3.866 C -19.52,6.05 -19.771,7.101 -19.983,7.772"
           style="fill:#0f0e9a;fill-rule:nonzero;stroke:none;fill-opacity:1" />
      </g>
      <g
         id="g7585"
         transform="translate(107.4074,782.5911)"
         style="fill:#0f0e9a;fill-opacity:1">
        <path
           id="path7587"
           d="M 0,0 C 0.291,-2.118 3.5,-4.973 4.37,-4.906 C 4.951,-4.856 5.174,-2.14 5.174,0 C 5.174,1.226 5.241,2.186 4.594,2.41 C 3.567,0.335 0.871,-0.089 0,0 M 0.178,0.937 C 2.495,0.937 4.616,2.788 4.616,4.416 C 4.616,5.175 4.258,5.799 3.344,5.91 C 3.5,5.709 3.567,5.553 3.567,5.197 C 3.567,3.97 1.697,2.609 -0.334,2.609 C -1.071,2.609 -1.294,2.097 -1.294,1.829 C -1.294,1.204 -0.691,0.937 0.178,0.937 M -0.312,3.457 C -0.624,3.457 -1.071,3.457 -1.317,3.947 C -1.518,4.349 -1.451,4.996 -1.83,5.286 C -1.451,5.175 -1.049,5.175 -0.736,5.175 C 0.269,5.175 1.229,5.866 1.965,5.866 C 2.451,5.866 2.607,5.553 2.607,5.242 C 2.607,4.259 0.626,3.457 -0.312,3.457"
           style="fill:#0f0e9a;fill-rule:nonzero;stroke:none;fill-opacity:1" />
      </g>
      <g
         id="g7589"
         transform="translate(57.2107,768.5641)"
         style="fill:#0f0e9a;fill-opacity:1">
        <path
           id="path7591"
           d="M 0,0 C 0.757,0 0.601,4.639 1.828,4.639 C 2.118,4.639 2.207,4.349 2.207,3.992 C 2.207,2.944 1.694,1.405 1.694,0.558 C 1.694,0.134 1.805,0 2.006,0 C 2.542,0 3.478,5.108 4.393,5.108 C 4.683,5.108 4.816,4.818 4.816,4.527 C 4.816,3.457 3.456,0.38 3.456,-0.49 C 3.456,-0.623 3.501,-0.735 3.612,-0.735 C 4.17,-0.735 5.285,1.673 5.641,2.877 C 5.842,3.502 6.11,3.837 6.355,3.837 C 6.578,3.837 6.779,3.591 6.779,3.078 C 6.779,1.874 5.663,-0.958 4.683,-2.855 C 3.925,-4.326 2.743,-6.444 2.743,-7.626 C 2.743,-8.228 2.853,-8.852 3.724,-9.611 C 2.296,-9.522 1.716,-9.388 1.182,-8.273 C -1.204,-13.023 5.575,-12.555 3.255,-16.769 C 2.831,-16.012 -0.514,-15.231 -0.514,-10.815 C -0.514,-7.002 2.831,-4.772 2.831,-3.188 C 2.831,-2.877 2.721,-2.609 2.43,-2.363 C 1.694,-1.738 1.671,-1.227 1.093,-1.227 C 0.668,-1.227 0.155,-2.207 0.69,-3.077 C 0.869,-3.367 1.025,-3.545 1.025,-3.813 C 1.025,-4.437 0.043,-6.109 -0.647,-6.109 C -1.338,-6.109 -1.873,-4.394 -1.873,-1.627 C -1.873,0.826 -1.316,3.301 -0.625,3.301 C -0.424,3.301 -0.357,3.167 -0.357,2.989 C -0.357,2.699 -0.446,2.119 -0.446,1.139 C -0.446,0.09 -0.201,0 0,0"
           style="fill:#0f0e9a;fill-rule:nonzero;stroke:none;fill-opacity:1" />
      </g>
      <g
         id="g7593"
         transform="translate(62.8963,762.0309)"
         style="fill:#0f0e9a;fill-opacity:1">
        <path
           id="path7595"
           d="M 0,0 C 0.938,0 1.717,0.692 1.717,2.229 L 1.717,4.505 C 1.717,5.374 1.784,6.355 2.365,7.047 C 2.298,6.757 2.298,6.444 2.298,6.155 C 2.298,4.237 3.368,2.921 3.368,1.07 C 3.368,0.38 3.167,0 2.633,0 C 2.119,0 2.164,0.469 2.052,0.469 C 1.963,0.469 1.829,0.179 1.829,-0.134 C 1.829,-0.602 2.164,-1.338 3.1,-1.338 C 3.904,-1.338 4.55,-0.602 4.55,0.223 C 4.55,2.229 2.989,4.46 2.989,6.6 C 2.989,7.538 3.234,8.162 3.435,8.653 C 3.435,4.214 7.204,0.981 7.204,-0.869 C 7.204,-1.293 6.892,-1.628 6.424,-1.628 C 5.91,-1.628 5.665,-1.226 5.665,-0.913 C 5.665,-0.757 5.642,-0.713 5.576,-0.713 C 5.443,-0.713 5.041,-1.159 5.041,-1.74 C 5.041,-2.475 5.642,-3.368 6.758,-3.368 C 8.028,-3.368 8.72,-2.296 8.72,-1.338 C 8.72,1.003 4.148,4.549 4.148,8.34 C 4.148,8.987 4.259,10.035 4.728,10.838 C 1.784,8.943 0.871,6.422 0.871,4.214 C 0.871,2.296 0.804,1.339 -0.177,1.339 C -0.691,1.339 -0.824,1.806 -1.003,1.806 C -1.137,1.806 -1.204,1.405 -1.204,1.294 C -1.204,0.469 -0.601,0 0,0"
           style="fill:#0f0e9a;fill-rule:nonzero;stroke:none;fill-opacity:1" />
      </g>
      <g
         id="g7597"
         transform="translate(101.5443,784.3086)"
         style="fill:#0f0e9a;fill-opacity:1">
        <path
           id="path7599"
           d="M 0,0 C 0.982,0 1.719,0.446 1.719,0.714 C 1.719,0.802 1.585,0.87 1.294,0.87 C 1.004,0.87 0.424,0.892 -0.67,1.07 C -1.608,1.227 -2.322,1.583 -2.59,1.583 C -2.679,1.583 -2.724,1.539 -2.724,1.472 C -2.724,0.892 -1.652,0 0,0 M -4.861,2.832 C -4.578,3.022 -3.322,2.721 -1.696,3.524 C -1.496,3.635 -1.295,3.68 -1.117,3.68 C -0.335,3.68 -0.537,2.788 0.179,2.788 C 0.736,2.788 1.451,3.257 1.875,3.257 C 2.54,3.257 3.499,1.16 3.499,0.179 C 3.499,-0.959 1.786,-1.65 -0.246,-1.65 C -3.209,-1.65 -4.996,0.936 -4.996,2.609 C -4.996,2.743 -4.928,2.788 -4.861,2.832"
           style="fill:#0f0e9a;fill-rule:nonzero;stroke:none;fill-opacity:1" />
      </g>
      <g
         id="g7601"
         transform="translate(63.365,753.6239)"
         style="fill:#0f0e9a;fill-opacity:1">
        <path
           id="path7603"
           d="M 0,0 C -0.735,-0.179 -1.918,-1.337 -1.918,-3.168 C -1.918,-5.353 0.424,-8.721 4.282,-8.721 C 7.537,-8.721 8.34,-6.469 8.34,-4.951 C 8.34,-1.583 6.267,0.781 3.569,0.781 C 2.097,0.781 0.781,-0.291 0.781,-1.873 C 0.781,-3.346 1.896,-5.553 4.55,-5.553 C 5.799,-5.553 6.534,-4.661 6.534,-3.636 C 6.534,-2.632 5.62,-1.25 4.282,-1.25 C 3.88,-1.25 3.591,-1.516 3.591,-1.94 C 3.591,-2.475 4.327,-3.011 5.241,-3.011 C 5.464,-3.011 5.642,-2.967 5.732,-2.922 C 5.776,-2.989 5.799,-3.101 5.799,-3.19 C 5.799,-3.703 5.307,-4.016 4.55,-4.016 C 3.413,-4.016 2.319,-3.168 2.319,-1.828 C 2.319,-1.027 3.011,-0.447 4.014,-0.447 C 5.999,-0.447 7.181,-2.208 7.181,-3.971 C 7.181,-5.553 6.312,-6.469 4.528,-6.469 C 0.959,-6.469 -0.78,-3.257 0,0"
           style="fill:#0f0e9a;fill-rule:nonzero;stroke:none;fill-opacity:1" />
      </g>
      <g
         id="g7605"
         transform="translate(87.0924,745.0145)"
         style="fill:#0f0e9a;fill-opacity:1">
        <path
           id="path7607"
           d="M 0,0 C 0,-0.491 0.402,-0.892 0.892,-0.892 C 1.383,-0.892 1.784,-0.491 1.784,0 C 1.784,0.491 1.383,0.893 0.892,0.893 C 0.402,0.893 0,0.491 0,0 M 1.729,-4.457 C 2.798,-4.457 2.743,-4.368 3.078,-4.368 C 3.412,-4.368 3.435,-4.569 3.435,-4.703 C 3.435,-5.194 2.341,-5.797 0.402,-5.797 C -0.736,-5.797 -1.427,-5.194 -1.628,-4.525 C -2.742,-5.238 -4.437,-5.885 -6.11,-5.885 C -10.681,-5.885 -11.841,-3.899 -13.268,-3.254 C -14.362,-2.763 -16.034,-3.723 -18.375,-1.113 C -18.063,-1.18 -17.639,-1.203 -17.304,-1.203 C -15.254,-1.203 -14.161,-0.2 -14.161,1.407 C -14.161,1.608 -14.183,1.828 -14.206,2.028 C -13.581,1.783 -12.153,0.714 -11.819,-1.18 C -11.774,-1.404 -10.86,-1.604 -10.281,-1.604 C -9.477,-1.604 -8.451,-1.269 -8.296,0.045 C -5.619,0.268 -3.812,1.851 -3.433,3.86 C -2.475,3.547 -1.383,2.677 -1.115,2.23 C -0.736,2.364 -0.29,2.431 0.223,2.431 C 0.936,2.431 1.74,2.297 2.698,2.006 C 2.743,2.297 2.788,2.654 3.234,2.654 C 3.903,2.654 3.724,1.918 3.947,1.496 C 4.059,1.273 4.618,1.139 4.618,0.693 C 4.618,0.268 4.259,0.112 4.037,0.112 C 3.947,0.112 3.836,0.134 3.768,0.156 C 3.323,0 3.301,-3.21 1.427,-3.21 C 0.045,-3.21 -1.226,-2.073 -1.784,-0.647 C -1.941,-0.223 -2.274,0.045 -2.587,0.045 C -2.943,0.045 -3.144,-0.022 -3.567,-0.491 C -4.771,-1.805 -6.779,-2.942 -9.254,-2.942 C -10.013,-2.942 -10.614,-2.875 -10.771,-2.875 C -10.86,-2.875 -10.86,-2.897 -10.86,-2.919 C -10.86,-3.076 -10.102,-3.679 -8.451,-3.679 C -4.527,-3.679 -3.567,-1.47 -2.943,-1.47 C -2.854,-1.47 -2.587,-1.47 -2.431,-1.827 C -1.517,-3.966 0.48,-4.457 1.729,-4.457"
           style="fill:#0f0e9a;fill-rule:nonzero;stroke:none;fill-opacity:1" />
      </g>
      <g
         id="g7609"
         transform="translate(102.3477,754.7618)"
         style="fill:#0f0e9a;fill-opacity:1">
        <path
           id="path7611"
           d="M 0,0 C -0.468,0 -3.059,-3.457 -4.727,-3.457 C -5.129,-3.457 -5.463,-2.698 -5.463,-2.121 C -5.463,-1.808 -5.264,-1.585 -4.548,-1.429 C -0.714,-0.558 -1.562,2.319 1.714,2.319 C 3.52,2.319 5.529,1.092 5.529,-1.674 C 5.529,-4.618 1.339,-8.274 0.714,-8.274 C 0.2,-8.274 -0.357,-7.539 -0.357,-7.048 C -0.357,-6.893 -0.29,-6.691 0.156,-6.513 C 2.294,-5.664 3.52,-3.703 3.52,-2.698 C 3.52,-2.475 3.409,-2.255 3.118,-2.255 C 2.74,-2.255 1.116,-5.955 -0.692,-5.955 C -1.942,-5.955 -3.214,-4.819 -3.214,-4.283 C -3.214,-3.391 0.401,-1.741 0.401,-0.491 C 0.401,-0.022 0.179,0 0,0 M 2.405,1.382 C 2.093,1.382 1.759,1.136 1.759,0.533 C 1.759,-0.134 2.272,-0.558 2.562,-0.692 C 2.718,-0.781 2.964,-0.871 3.207,-0.871 C 3.855,-0.871 4.368,-0.692 4.368,-0.156 C 4.368,0.533 3.364,1.382 2.405,1.382"
           style="fill:#0f0e9a;fill-rule:nonzero;stroke:none;fill-opacity:1" />
      </g>
      <g
         id="g7613"
         transform="translate(63.0973,781.9675)"
         style="fill:#0f0e9a;fill-opacity:1">
        <path
           id="path7615"
           d="M 0,0 C 0,-0.491 0.402,-0.893 0.893,-0.893 C 1.383,-0.893 1.784,-0.491 1.784,0 C 1.784,0.49 1.383,0.892 0.893,0.892 C 0.402,0.892 0,0.49 0,0 M -1.159,2.007 C -1.159,1.517 -0.758,1.115 -0.268,1.115 C 0.223,1.115 0.625,1.517 0.625,2.007 C 0.625,2.497 0.223,2.899 -0.268,2.899 C -0.758,2.899 -1.159,2.497 -1.159,2.007 M -1.962,-4.103 C -2.476,-4.237 -3.545,-4.862 -3.545,-5.976 C -3.545,-6.779 -2.922,-7.292 -2.14,-7.292 C -1.739,-7.292 -1.449,-7.203 -1.271,-7.069 C -1.895,-6.467 -2.118,-5.798 -2.118,-5.13 C -2.118,-4.661 -2.051,-4.371 -1.962,-4.103 M -7.425,-4.416 C -7.447,-4.528 -7.447,-4.639 -7.447,-4.75 C -7.447,-5.798 -6.89,-6.378 -6.154,-6.378 C -5.598,-6.378 -4.95,-6.043 -4.371,-5.307 C -4.616,-5.351 -4.906,-5.373 -5.174,-5.373 C -5.998,-5.373 -6.89,-5.152 -7.425,-4.416 M -8.206,-6.4 C -8.206,-8.095 -7.693,-8.898 -6.779,-8.898 C -6.065,-8.898 -5.106,-8.385 -3.97,-7.404 C -4.839,-7.605 -5.508,-7.738 -6.11,-7.738 C -6.913,-7.738 -7.536,-7.426 -8.206,-6.4 M -2.43,2.52 C -2.319,2.877 -2.23,3.322 -2.23,3.813 C -2.23,4.883 -2.721,6.512 -4.237,6.512 C -5.106,6.512 -5.732,5.821 -5.732,4.995 C -5.732,3.233 -3.97,2.52 -2.43,2.52 M -4.327,-3.1 C -5.062,-3.1 -5.865,-2.186 -5.865,-1.361 C -5.865,-0.915 -5.531,-0.357 -5.285,-0.357 C -5.196,-0.357 -5.151,-0.424 -5.129,-0.581 C -4.995,-1.673 -4.282,-2.298 -3.612,-2.609 C -3.545,-2.654 -3.501,-2.676 -3.501,-2.721 C -3.501,-2.877 -3.925,-3.1 -4.327,-3.1 M -2.274,-0.379 C -2.12,-0.589 -1.694,-0.848 -1.694,-1.004 C -1.694,-1.316 -1.873,-1.718 -2.23,-1.718 C -3.011,-1.718 -3.635,-0.536 -3.635,0.134 C -3.635,0.557 -3.389,0.601 -3.056,0.601 C -2.899,0.601 -2.833,0.579 -2.721,0.512 C -2.52,0.401 -2.52,-0.045 -2.274,-0.379 M -7.514,-3.145 C -7.556,-3.214 -7.581,-3.301 -7.581,-3.391 C -7.581,-3.591 -7.358,-3.814 -7.158,-3.814 C -6.979,-3.814 -6.868,-3.77 -6.779,-3.77 C -6.244,-3.77 -5.642,-4.148 -4.772,-4.148 C -4.26,-4.148 -3.657,-3.992 -2.899,-3.614 C -1.294,-2.81 -0.668,-0.826 -0.668,-0.491 C -0.668,-0.067 -1.009,-0.122 -1.294,0.268 C -1.578,0.656 -1.469,1.001 -1.65,1.182 C -1.754,1.286 -2.073,1.293 -2.476,1.338 C -2.61,1.353 -2.788,1.36 -2.966,1.36 C -3.702,1.36 -4.574,1.27 -5.553,0.646 C -7.488,-0.588 -7.203,-2.632 -7.514,-3.145 M -0.111,-2.253 C -0.602,-2.832 -1.115,-3.814 -1.115,-4.817 C -1.115,-6.021 -0.378,-7.024 0.759,-7.024 C 1.851,-7.024 2.364,-6.088 2.364,-5.13 C 2.364,-3.636 1.004,-2.587 -0.111,-2.253 M -4.883,2.029 C -4.883,2.029 -5.531,1.539 -6.333,1.539 C -7.291,1.539 -8.05,2.252 -8.05,3.255 C -8.05,3.947 -7.693,4.66 -6.868,5.017 C -6.89,4.883 -6.89,4.772 -6.89,4.638 C -6.89,3.367 -6.177,2.408 -4.883,2.029"
           style="fill:#0f0e9a;fill-rule:nonzero;stroke:none;fill-opacity:1" />
      </g>
      <g
         id="g7617"
         transform="translate(97.5309,776.594)"
         style="fill:#0f0e9a;fill-opacity:1">
        <path
           id="path7619"
           d="M 0,0 C 0,-0.514 0.425,-0.938 0.932,-0.938 C 1.446,-0.938 1.87,-0.514 1.87,0 C 1.87,0.512 1.446,0.935 0.932,0.935 C 0.425,0.935 0,0.512 0,0 M 0.067,-2.81 C 0.067,-3.391 0.536,-3.859 1.112,-3.859 C 1.692,-3.859 2.161,-3.391 2.161,-2.81 C 2.161,-2.231 1.692,-1.763 1.112,-1.763 C 0.536,-1.763 0.067,-2.231 0.067,-2.81 M -3.146,-4.706 C -3.146,-5.553 -2.455,-6.245 -1.606,-6.245 C -0.759,-6.245 -0.066,-5.553 -0.066,-4.706 C -0.066,-3.859 -0.759,-3.167 -1.606,-3.167 C -2.455,-3.167 -3.146,-3.859 -3.146,-4.706 M -2.321,-1.562 C -2.321,-2.053 -1.92,-2.454 -1.428,-2.454 C -0.937,-2.454 -0.536,-2.053 -0.536,-1.562 C -0.536,-1.072 -0.937,-0.67 -1.428,-0.67 C -1.92,-0.67 -2.321,-1.072 -2.321,-1.562 M -5.241,-3.346 C -5.241,-3.837 -4.839,-4.237 -4.353,-4.237 C -3.861,-4.237 -3.459,-3.837 -3.459,-3.346 C -3.459,-2.855 -3.861,-2.454 -4.353,-2.454 C -4.839,-2.454 -5.241,-2.855 -5.241,-3.346 M -2.946,1.871 C -2.946,1.091 -2.299,0.445 -1.518,0.445 C -0.736,0.445 -0.089,1.091 -0.089,1.871 C -0.089,2.653 -0.736,3.299 -1.518,3.299 C -2.299,3.299 -2.946,2.653 -2.946,1.871 M -1.272,4.615 C -1.272,4.147 -0.893,3.768 -0.424,3.768 C 0.045,3.768 0.425,4.147 0.425,4.615 C 0.425,5.083 0.045,5.463 -0.424,5.463 C -0.893,5.463 -1.272,5.083 -1.272,4.615 M -5.307,2.474 C -5.307,2.005 -4.928,1.626 -4.464,1.626 C -3.995,1.626 -3.616,2.005 -3.616,2.474 C -3.616,2.942 -3.995,3.321 -4.464,3.321 C -4.928,3.321 -5.307,2.942 -5.307,2.474 M -5.419,-0.424 C -5.419,-1.183 -4.816,-1.785 -4.063,-1.785 C -3.304,-1.785 -2.7,-1.183 -2.7,-0.424 C -2.7,0.333 -3.304,0.935 -4.063,0.935 C -4.816,0.935 -5.419,0.333 -5.419,-0.424 M -8.23,-1.852 C -8.23,-2.544 -7.651,-3.122 -6.959,-3.122 C -6.268,-3.122 -5.687,-2.544 -5.687,-1.852 C -5.687,-1.161 -6.268,-0.581 -6.959,-0.581 C -7.651,-0.581 -8.23,-1.161 -8.23,-1.852 M -7.472,1.292 C -7.472,0.802 -7.07,0.4 -6.581,0.4 C -6.089,0.4 -5.687,0.802 -5.687,1.292 C -5.687,1.782 -6.089,2.184 -6.581,2.184 C -7.07,2.184 -7.472,1.782 -7.472,1.292 M 0.357,-5.576 C 0.357,-5.13 0.759,-4.751 1.2,-4.751 C 1.692,-4.751 2.071,-5.13 2.071,-5.576 C 2.071,-6.089 1.692,-6.446 1.2,-6.446 C 0.759,-6.446 0.357,-6.089 0.357,-5.576"
           style="fill:#0f0e9a;fill-rule:nonzero;stroke:none;fill-opacity:1" />
      </g>
      <g
         id="g7621"
         transform="translate(98.4633,745.3718)"
         style="fill:#0f0e9a;fill-opacity:1">
        <path
           id="path7623"
           d="M 0,0 C 0.112,0 0.246,-0.066 0.246,-0.469 C 0.246,-0.959 0.023,-1.605 -0.776,-2.118 C -1.334,-2.497 -2.093,-2.81 -3.209,-2.83 C -3.031,-2.296 -2.897,-1.738 -2.897,-1.205 C -2.897,-1.026 -2.918,-0.892 -2.941,-0.692 L -2.65,-0.692 C -0.888,-0.692 -0.128,0 0,0 M 0.179,2.208 C 0.36,2.361 0.402,2.609 0.402,2.855 L 0.402,3.368 C 0.402,4.015 -0.575,4.393 -1.915,4.393 C -3.544,4.393 -4.414,3.659 -4.414,3.346 L -4.414,2.319 C -4.414,1.895 -3.432,1.471 -2.227,1.471 C -1.267,1.471 -0.396,1.716 0.179,2.208 M 1.339,1.962 C 0.759,1.515 -0.597,0.514 -2.852,0.514 C -4.057,0.514 -4.593,0.893 -4.772,0.893 C -4.995,0.893 -5.241,0.67 -5.486,0.379 C -6.016,-0.246 -6.708,-1.406 -6.708,-2.676 C -6.708,-3.568 -6.016,-4.457 -4.727,-4.457 C -0.553,-4.457 2.567,-1.849 2.567,0.268 C 2.567,1.471 1.854,1.962 1.339,1.962"
           style="fill:#0f0e9a;fill-rule:nonzero;stroke:none;fill-opacity:1" />
      </g>
      <g
         id="g7625"
         transform="translate(100.5839,766.0889)"
         style="fill:#0f0e9a;fill-opacity:1">
        <path
           id="path7627"
           d="M 0,0 C 0,-0.557 0.179,-1.204 0.737,-1.204 C 1.205,-1.204 1.607,-0.491 1.607,0.29 C 1.607,1.182 1.451,1.874 1.451,2.231 C 1.451,2.386 1.518,2.453 1.607,2.453 C 1.942,2.431 2.255,1.517 2.612,1.517 C 3.014,1.517 3.612,2.253 3.857,2.253 C 3.924,2.253 3.946,2.164 3.946,2.142 C 3.946,1.807 3.433,1.07 3.433,0.781 C 3.433,0.536 4.727,0.491 4.727,0.268 C 4.727,-0.067 3.371,-0.067 2.724,-0.357 C 2.099,-0.624 1.719,-0.959 1.719,-1.405 C 1.719,-1.851 2.165,-1.939 2.791,-1.939 C 4.281,-1.939 5.329,-1.137 5.663,-1.137 C 5.73,-1.137 5.774,-1.182 5.774,-1.249 C 5.774,-1.472 5.016,-2.207 5.016,-2.542 C 5.016,-2.921 6.4,-3.366 6.378,-3.589 C 6.356,-3.656 6.266,-3.678 6.11,-3.678 C 5.864,-3.678 5.485,-3.612 5.194,-3.612 C 5.016,-3.612 4.86,-3.634 4.792,-3.723 C 4.638,-3.902 4.837,-5.083 4.527,-5.083 C 4.236,-5.083 3.477,-2.453 1.764,-2.453 C 1.518,-2.453 1.34,-2.653 1.34,-2.988 C 1.34,-3.879 2.21,-4.905 3.036,-5.396 C 3.41,-5.641 4.036,-5.887 4.036,-6.021 C 4.036,-6.287 2.612,-6.043 2.612,-6.488 C 2.612,-6.89 2.791,-7.493 2.791,-7.849 C 2.791,-7.961 2.768,-8.094 2.634,-8.094 C 2.367,-8.094 1.719,-6.868 1.406,-6.868 C 1.139,-6.868 0.559,-7.603 0.312,-7.603 C 0.246,-7.603 0.202,-7.536 0.202,-7.471 C 0.202,-6.957 1.027,-5.798 1.027,-4.66 C 1.027,-4.125 0.96,-2.965 0.312,-2.965 C -0.223,-2.965 -0.826,-3.812 -1.094,-4.66 C -1.25,-5.15 -1.138,-7.046 -1.495,-7.046 C -1.83,-7.046 -1.741,-5.775 -2.188,-5.775 C -2.517,-5.775 -3.231,-6.377 -3.477,-6.377 C -3.521,-6.377 -3.566,-6.354 -3.566,-6.31 C -3.566,-6.043 -2.919,-5.173 -2.919,-4.994 C -2.919,-4.66 -4.392,-4.616 -4.392,-4.348 C -4.392,-4.192 -3.812,-4.08 -3.276,-3.991 C -2.142,-3.79 -0.468,-2.965 -0.468,-1.807 C -0.468,-0.513 -1.719,0.045 -2.539,0.581 C -2.964,0.848 -3.432,1.07 -3.432,1.249 C -3.432,1.428 -2.896,1.428 -2.673,1.428 C -2.339,1.428 -2.008,1.45 -2.008,1.717 C -2.008,1.919 -2.054,2.319 -2.054,2.631 C -2.054,2.855 -2.031,3.034 -1.941,3.034 C -1.607,3.034 -1.138,1.941 -0.915,1.941 C -0.558,1.941 -0.067,2.833 0.269,2.833 C 0.379,2.833 0.424,2.765 0.424,2.565 C 0.424,1.74 0,0.804 0,0 M -10.637,6.534 C -10.391,4.639 -7.847,5.598 -7.847,3.301 C -7.847,2.966 -7.936,2.475 -7.936,2.053 C -7.936,1.561 -7.892,1.137 -7.517,1.137 C -7.138,1.137 -7.048,1.405 -7.048,1.762 C -7.048,2.12 -7.138,2.565 -7.138,2.81 C -7.138,3.591 -6.58,3.769 -6.245,3.769 C -5.396,3.769 -4.749,2.899 -3.477,2.899 C -3.767,1.472 -6.714,1.852 -6.714,0.29 C -6.714,-0.491 -5.932,-0.668 -5.419,-0.668 C -4.95,-0.668 -4.793,-0.601 -4.793,-0.201 C -4.793,0.023 -4.839,0.268 -4.839,0.424 C -4.839,0.514 -4.771,0.603 -4.659,0.603 C -4.168,0.603 -1.763,-1.226 -1.763,-1.784 C -1.763,-2.296 -4.303,-2.809 -5.039,-2.809 C -5.262,-2.809 -5.307,-2.653 -5.307,-2.564 C -5.307,-2.408 -4.928,-1.939 -4.928,-1.672 C -4.928,-1.472 -5.262,-1.338 -6.156,-1.338 C -6.58,-1.338 -6.892,-1.382 -6.892,-1.718 C -6.892,-2.319 -5.91,-3.055 -5.91,-3.612 C -5.91,-4.058 -6.178,-4.326 -6.892,-4.326 C -7.495,-4.326 -8.405,-3.857 -8.405,-3.077 C -8.405,-2.453 -7.762,-1.829 -7.762,-1.45 C -7.762,-1.338 -7.847,-1.159 -8.115,-1.159 C -8.941,-1.159 -9.164,-3.344 -12.087,-3.589 C -11.618,-3.166 -11.217,-2.698 -11.217,-1.74 C -11.217,-1.271 -11.328,-0.891 -11.328,-0.379 C -11.328,0.29 -11.016,0.625 -10.57,0.625 C -9.745,0.625 -9.344,-0.534 -8.807,-0.534 C -8.516,-0.534 -8.204,-0.268 -8.204,0.134 C -8.204,1.829 -11.462,1.584 -11.462,3.97 C -11.462,4.617 -11.24,5.419 -10.637,6.534"
           style="fill:#0f0e9a;fill-rule:nonzero;stroke:none;fill-opacity:1" />
      </g>
      <g
         id="g7629"
         transform="translate(94.183,758.1284)"
         style="fill:#0f0e9a;fill-opacity:1">
        <path
           id="path7631"
           d="M 0,0 C 0,-0.312 0.223,-0.558 0.536,-0.558 C 0.893,-0.558 1.117,-0.245 1.117,0.112 C 1.117,0.579 0.692,1.227 0.29,1.227 C 0.111,1.227 0.179,0.959 0.133,0.669 C 0.111,0.447 0,0.179 0,0 M -1.16,2.966 C 1.183,2.52 2.455,0.758 2.455,-0.892 C 2.455,-2.03 1.741,-3.076 0.491,-3.076 C -0.647,-3.076 -1.468,-2.297 -1.468,-1.047 C -1.468,-0.111 -0.737,0.87 -0.737,1.829 C -0.737,2.208 -0.848,2.587 -1.16,2.966 M -4.124,-0.826 C -3.902,-1.047 -3.834,-1.271 -3.834,-1.494 C -3.834,-1.829 -3.99,-2.186 -3.99,-2.565 C -3.99,-3.099 -3.589,-3.568 -3.01,-3.568 C -2.384,-3.568 -1.959,-3.076 -1.959,-2.499 C -1.959,-1.651 -2.832,-0.826 -4.124,-0.826 M 3.259,0.601 C 3.415,0.358 3.482,0.112 3.482,-0.111 C 3.482,-0.736 3.058,-1.315 3.058,-1.963 C 3.058,-2.699 3.616,-3.3 4.46,-3.3 C 5.375,-3.3 6,-2.565 6,-1.695 C 6,-0.513 4.929,0.49 3.259,0.601 M -3.589,1.785 C -2.562,1.651 -2.316,1.294 -2.316,1.003 C -2.316,0.513 -2.763,0.358 -3.188,0.358 C -3.5,0.358 -3.857,0.424 -4.236,0.424 C -4.727,0.424 -5.217,0.313 -5.619,-0.156 C -5.329,-0.201 -4.905,-0.401 -4.905,-0.848 C -4.905,-2.141 -8.496,-1.07 -8.496,-4.394 C -8.496,-6.155 -6.667,-8.074 -3.902,-8.074 C -2.473,-8.074 -1.558,-7.605 -1.558,-7.069 C -1.558,-6.646 -2.316,-6.935 -2.316,-6.578 C -2.316,-6.422 -2.049,-6.131 -2.049,-5.886 C -2.049,-5.777 -2.138,-5.576 -2.316,-5.576 C -2.719,-5.576 -3.477,-6.221 -5.017,-6.221 C -6.221,-6.221 -7.403,-5.531 -7.403,-4.594 C -7.403,-4.394 -7.314,-4.281 -7.18,-4.281 C -7.046,-4.281 -6.868,-4.371 -6.712,-4.371 C -6.577,-4.371 -6.555,-4.281 -6.555,-4.036 C -6.555,-3.791 -6.555,-3.099 -6.132,-3.099 C -5.708,-3.099 -4.905,-4.661 -1.825,-4.661 C -0.803,-4.661 1.183,-4.46 1.92,-3.791 C 1.897,-6.244 -0.022,-9.477 -4.035,-9.477 C -8.205,-9.477 -10.436,-6.131 -10.436,-3.054 C -10.436,0.358 -7.649,3.456 -3.834,3.456 C -2.854,3.456 -2.027,3.123 -2.027,2.699 C -2.027,2.118 -3.477,2.475 -3.589,1.785"
           style="fill:#0f0e9a;fill-rule:nonzero;stroke:none;fill-opacity:1" />
      </g>
      <g
         id="g7633"
         transform="translate(76.1656,785.3788)"
         style="fill:#0f0e9a;fill-opacity:1">
        <path
           id="path7635"
           d="M 0,0 C 1.472,0 2.14,-1.271 2.14,-2.698 C 2.14,-3.322 1.963,-4.237 1.673,-4.237 C 1.383,-4.237 1.427,-3.724 1.383,-3.255 C 1.338,-2.654 1.227,-2.52 1.026,-2.52 C 0.646,-2.52 0.402,-3.411 0.402,-4.237 C 0.402,-4.749 0.491,-5.33 0.892,-5.33 C 1.115,-5.33 1.316,-5.218 1.449,-5.084 C 1.36,-6.11 0.601,-7.003 -0.469,-7.003 C -2.431,-7.003 -3.167,-4.705 -3.39,-3.367 C -4.572,-4.616 -5.664,-5.531 -7.627,-5.531 C -9.455,-5.531 -10.281,-4.193 -10.281,-2.922 C -10.281,-2.542 -10.147,-1.561 -9.678,-1.561 C -9.121,-1.561 -9.611,-3.389 -8.519,-3.389 C -8.251,-3.389 -7.761,-3.166 -7.493,-2.431 C -7.337,-1.984 -7.247,-1.517 -7.247,-1.115 C -7.247,-0.512 -7.381,-0.134 -7.826,-0.134 C -8.206,-0.134 -8.675,-0.423 -8.831,-0.579 C -8.295,1.027 -7.002,1.852 -5.576,1.852 C -3.813,1.852 -2.877,0.29 -2.877,-1.449 C -2.877,-1.694 -2.9,-1.962 -2.944,-2.207 C -2.186,-0.958 -1.137,0 0,0 M -1.718,-2.631 C -1.718,-2.252 -1.807,-2.163 -1.896,-2.163 C -2.119,-2.163 -2.364,-2.431 -2.721,-3.033 C -2.676,-3.836 -2.542,-4.193 -2.319,-4.193 C -2.075,-4.193 -1.718,-3.411 -1.718,-2.631 M -4.773,-3.545 C -4.528,-3.545 -4.215,-3.277 -3.635,-2.631 C -3.59,-2.341 -3.59,-2.073 -3.59,-1.739 C -3.59,-1.293 -3.769,-0.802 -4.036,-0.802 C -4.706,-0.802 -5.04,-2.587 -5.04,-3.056 C -5.04,-3.322 -4.907,-3.545 -4.773,-3.545 M -1.137,-5.531 C -0.58,-5.531 0.044,-3.389 0.044,-2.051 C 0.044,-1.761 0,-1.449 -0.134,-1.449 C -0.603,-1.449 -1.383,-3.657 -1.383,-4.861 C -1.383,-5.33 -1.271,-5.531 -1.137,-5.531 M -6.6,-4.304 C -5.842,-4.304 -4.974,-0.201 -4.974,0.491 C -4.974,0.67 -5.04,0.804 -5.196,0.804 C -5.887,0.804 -6.846,-3.099 -6.846,-3.969 C -6.846,-4.126 -6.801,-4.304 -6.6,-4.304"
           style="fill:#0f0e9a;fill-rule:nonzero;stroke:none;fill-opacity:1" />
      </g>
      <g
         id="g7637"
         transform="translate(71.9949,779.3808)"
         style="fill:#0f0e9a;fill-opacity:1">
        <path
           id="path7639"
           d="M 0,0 C -0.959,0 -1.003,-1.161 -1.003,-3.501 C -1.716,-1.963 -2.898,-0.313 -4.281,-0.313 C -5.217,-0.313 -5.574,-0.938 -5.574,-2.029 C -5.574,-2.253 -5.552,-2.588 -5.507,-2.787 C -5.396,-2.409 -5.038,-2.253 -4.593,-2.253 C -3.634,-2.253 -2.474,-2.988 -1.716,-3.992 C -2.586,-3.836 -3.434,-3.68 -4.147,-3.68 C -4.593,-3.68 -4.995,-3.725 -5.329,-3.881 C -5.976,-4.17 -6.846,-5.129 -6.846,-6.579 C -6.846,-6.802 -6.823,-7.047 -6.778,-7.315 C -5.998,-5.575 -3.924,-4.795 -2.586,-4.795 C -2.318,-4.795 -2.118,-4.817 -1.962,-4.839 C -2.653,-5.463 -2.809,-6.557 -2.854,-7.292 C -2.876,-7.649 -3.01,-7.672 -3.255,-7.672 C -3.255,-8.407 -2.675,-9.501 -2.675,-10.058 C -2.675,-10.258 -2.787,-10.437 -2.898,-10.482 C -2.898,-11.463 -1.917,-12.177 -1.917,-12.801 C -1.917,-12.957 -1.962,-13.091 -2.029,-13.158 C -1.962,-13.56 -0.883,-14.235 -0.743,-14.573 C -0.572,-14.984 -0.379,-15.054 -0.267,-15.054 C 0.112,-15.054 0.713,-14.607 0.713,-14.206 C 0.713,-14.072 0.602,-13.916 0.514,-13.849 C 0.09,-13.537 -0.134,-12.868 -0.312,-12.422 C -0.469,-12.422 -0.671,-12.356 -0.741,-12.094 C -0.863,-11.632 -0.869,-10.772 -1.048,-10.258 C -1.338,-10.192 -1.472,-10.08 -1.472,-9.479 C -1.472,-9.188 -1.293,-8.051 -1.293,-7.649 C -1.427,-7.649 -1.605,-7.56 -1.605,-7.292 C -1.605,-6.579 -0.891,-6.021 -0.691,-5.107 C 0.581,-6.043 0.892,-7.002 0.892,-7.85 C 0.892,-8.295 0.825,-8.72 0.736,-9.122 C 1.673,-8.653 3.078,-7.962 3.078,-6.557 C 3.078,-5.731 2.699,-4.817 0.179,-4.46 C 0.959,-4.17 1.941,-4.015 2.766,-4.015 C 4.193,-4.015 5.018,-4.46 5.196,-5.463 C 5.486,-5.018 5.71,-4.504 5.71,-4.037 C 5.71,-2.943 4.794,-2.23 3.635,-2.23 C 2.275,-2.23 1.071,-2.943 -0.223,-3.814 C 0.358,-2.61 0.758,-1.896 1.472,-1.896 C 1.584,-1.896 1.696,-1.919 1.807,-1.941 C 1.539,-0.96 0.536,0 0,0"
           style="fill:#0f0e9a;fill-rule:nonzero;stroke:none;fill-opacity:1" />
      </g>
      <g
         id="g7641"
         transform="translate(109.5688,763.3025)"
         style="fill:#0f0e9a;fill-opacity:1">
        <path
           id="path7643"
           d="M 0,0 C 1.116,0 2.008,-1.45 2.008,-3.145 C 2.008,-4.95 1.16,-6.913 -0.352,-8.25 C -0.375,-5.241 -4.059,-6.2 -4.059,-4.014 C -4.059,-3.078 -3.389,-2.453 -2.585,-2.453 C -1.87,-2.453 -1.313,-2.654 -0.911,-3.056 C -1.313,-2.677 -1.514,-2.141 -1.514,-1.629 C -1.514,-0.78 -0.978,0 0,0"
           style="fill:#0f0e9a;fill-rule:nonzero;stroke:none;fill-opacity:1" />
      </g>
      <g
         id="g7645"
         transform="translate(93.0228,786.1155)"
         style="fill:#0f0e9a;fill-opacity:1">
        <path
           id="path7647"
           d="M 0,0 C -0.179,0.29 -0.844,0.445 -1.156,0.445 C -2.139,0.445 -2.808,-0.246 -2.942,-0.871 C -3.031,-0.647 -3.099,-0.38 -3.099,-0.112 C -3.099,0.869 -2.429,2.073 -0.799,2.073 C 0.625,2.073 1.182,1.315 1.384,1.315 C 1.606,1.315 1.83,1.539 2.009,1.539 C 2.254,1.539 2.254,1.159 2.254,0.891 C 2.254,0 1.853,-1.539 0.848,-2.097 C 0.669,-1.717 0.312,-1.294 -0.264,-1.027 C -0.42,-0.96 -0.487,-0.826 -0.487,-0.692 C -0.487,-0.447 -0.264,-0.134 0,0 M -3.366,-1.628 C -2.786,-2.186 -2.274,-2.431 -1.649,-2.431 C -1.402,-2.431 -1.112,-2.365 -0.955,-2.365 C -0.755,-2.365 -0.621,-2.453 -0.621,-2.609 C -0.621,-2.855 -0.844,-3.256 -1.112,-3.48 C -0.844,-3.591 -0.554,-3.636 -0.241,-3.636 C 1.026,-3.636 2.477,-2.832 2.477,-0.826 C 2.745,-1.182 2.902,-1.919 2.902,-2.253 C 2.902,-4.684 1.116,-5.62 -0.531,-5.62 C -1.603,-5.62 -2.139,-5.263 -2.274,-5.263 C -2.696,-5.263 -2.674,-6.111 -2.964,-6.089 C -3.478,-6 -3.945,-4.862 -3.945,-3.658 C -3.945,-2.944 -3.767,-2.186 -3.366,-1.628"
           style="fill:#0f0e9a;fill-rule:nonzero;stroke:none;fill-opacity:1" />
      </g>
      <g
         id="g7649"
         transform="translate(70.5679,798.6702)"
         style="fill:#0f0e9a;fill-opacity:1">
        <path
           id="path7651"
           d="M 0,0 C 0,0.134 -0.669,0.268 -1.583,0.268 C -3.032,0.268 -2.832,-0.937 -3.946,-0.937 C -5.106,-0.937 -4.817,0.313 -6.289,0.313 C -7.181,0.313 -8.005,0.156 -8.005,-0.044 C -8.005,-0.312 -6.957,-0.201 -6.957,-0.937 C -6.957,-1.717 -9.209,-1.941 -9.209,-2.409 C -9.209,-2.564 -9.032,-2.631 -8.809,-2.631 C -8.318,-2.631 -7.538,-2.409 -6.98,-2.409 C -6.667,-2.409 -6.377,-2.475 -6.377,-2.765 C -6.377,-3.323 -7.582,-4.327 -7.582,-4.773 C -7.582,-4.907 -7.471,-4.952 -7.359,-4.952 C -6.913,-4.952 -6.155,-3.814 -5.441,-3.814 C -4.259,-3.814 -5.039,-6.334 -4.393,-6.334 C -3.723,-6.334 -4.013,-3.858 -3.055,-3.858 C -2.273,-3.858 -1.694,-5.575 -1.159,-5.575 C -1.025,-5.575 -0.913,-5.464 -0.913,-5.307 C -0.913,-4.84 -1.583,-3.88 -1.583,-3.256 C -1.583,-2.877 -1.315,-2.698 -0.958,-2.698 C -0.446,-2.698 0.246,-3.01 0.624,-3.01 C 0.758,-3.01 0.892,-2.966 0.892,-2.81 C 0.892,-2.275 -1.092,-1.695 -1.092,-1.004 C -1.092,-0.312 0,-0.312 0,0 M 5.241,-2.275 C 5.241,-2.676 6.646,-3.546 7.293,-3.546 C 7.671,-3.546 7.783,-3.033 7.783,-2.497 C 7.783,-1.829 7.494,-1.807 6.913,-1.807 C 6.178,-1.807 5.241,-2.008 5.241,-2.275 M 7.561,-6.69 C 7.561,-5.352 3.942,-2.922 3.903,-1.874 C 3.899,-1.778 3.951,-1.683 4.032,-1.597 C 4.652,-0.944 7.226,-0.467 7.226,0.09 C 7.226,0.379 6.69,0.379 6.422,0.379 C 4.349,0.379 1.316,-0.379 1.316,-1.115 C 1.316,-1.874 4.036,-3.725 4.036,-4.639 C 4.036,-4.885 3.88,-4.974 3.634,-4.974 C 2.877,-4.974 1.226,-4.059 0.446,-4.059 C 0.089,-4.059 -0.045,-4.304 -0.045,-4.661 C -0.045,-5.732 1.226,-7.761 1.226,-8.362 C 1.226,-8.429 1.204,-8.518 1.115,-8.518 C 0.713,-8.518 -1.181,-6.289 -1.851,-6.289 C -2.096,-6.289 -2.118,-6.623 -2.118,-7.114 L -2.118,-7.872 C -2.118,-8.385 -2.141,-8.697 -2.385,-8.697 C -2.965,-8.697 -3.234,-7.069 -3.79,-7.069 C -4.37,-7.069 -4.482,-9.968 -5.039,-9.968 C -5.686,-9.968 -5.128,-6.779 -5.753,-6.779 C -6.444,-6.779 -7.225,-8.898 -7.716,-8.898 C -7.894,-8.898 -7.938,-8.719 -7.938,-8.563 C -7.938,-7.917 -7.56,-6.869 -7.56,-6.245 C -7.56,-5.932 -7.649,-5.754 -7.916,-5.754 C -8.608,-5.754 -10.125,-6.869 -10.704,-6.869 C -10.793,-6.869 -10.904,-6.824 -10.904,-6.735 C -10.904,-6.2 -8.474,-4.505 -8.474,-3.747 C -8.474,-3.01 -11.82,-3.502 -11.82,-2.654 C -11.82,-1.941 -9.432,-1.204 -9.432,-0.469 C -9.432,0.179 -12.265,0.468 -13.357,0.468 C -14.674,0.468 -15.386,0.313 -15.386,-0.067 C -15.386,-0.647 -12.398,-0.826 -12.398,-1.338 C -12.398,-1.829 -15.498,-3.144 -15.498,-3.902 C -15.498,-4.572 -11.128,-3.947 -11.128,-4.639 C -11.128,-5.397 -14.94,-8.674 -14.94,-9.767 C -14.94,-10.013 -14.761,-10.124 -14.517,-10.124 C -13.357,-10.124 -10.348,-7.917 -9.522,-7.917 C -9.232,-7.917 -9.209,-8.273 -9.209,-8.585 C -9.209,-9.166 -9.41,-10.057 -9.41,-10.704 C -9.41,-11.217 -9.276,-11.574 -8.831,-11.574 C -8.005,-11.574 -7.247,-10.169 -6.69,-10.169 C -5.977,-10.169 -6.399,-14.294 -5.329,-14.294 C -4.415,-14.294 -4.036,-9.834 -3.457,-9.834 C -2.876,-9.834 -2.407,-11.128 -1.873,-11.128 C -1.204,-11.128 -1.516,-8.876 -0.802,-8.876 C -0.022,-8.876 2.207,-11.552 3.212,-11.552 C 3.523,-11.552 3.634,-11.306 3.634,-10.993 C 3.634,-9.812 1.985,-7.137 1.985,-6.289 C 1.985,-6.066 2.051,-5.999 2.296,-5.999 C 3.167,-5.999 5.709,-7.203 6.913,-7.203 C 7.315,-7.203 7.561,-6.98 7.561,-6.69 M -12.801,-5.397 C -12.801,-5.843 -14.495,-7.336 -15.096,-7.336 C -15.319,-7.336 -15.386,-7.069 -15.386,-6.824 C -15.386,-6.379 -15.186,-5.754 -14.94,-5.553 C -14.651,-5.285 -13.982,-5.153 -13.469,-5.153 C -13.158,-5.153 -12.801,-5.218 -12.801,-5.397 M 3.59,-7.694 C 3.59,-8.474 6.378,-12.287 6.913,-12.287 C 7.36,-12.287 7.693,-11.507 7.693,-10.837 C 7.693,-10.66 7.649,-10.482 7.561,-10.347 C 7.159,-9.79 4.327,-7.56 3.702,-7.56 C 3.634,-7.56 3.59,-7.627 3.59,-7.694"
           style="fill:#0f0e9a;fill-rule:nonzero;stroke:none;fill-opacity:1" />
      </g>
      <g
         id="g7653"
         transform="translate(109.9702,797.7327)"
         style="fill:#0f0e9a;fill-opacity:1">
        <path
           id="path7655"
           d="M 0,0 C 0,-0.311 0.245,-0.556 0.558,-0.556 C 0.87,-0.556 1.116,-0.311 1.116,0 C 1.116,0.313 0.87,0.558 0.558,0.558 C 0.245,0.558 0,0.313 0,0 M -3.634,-4.928 C -3.634,-3.344 -7.422,-2.943 -7.422,-2.586 C -7.422,-2.297 -5.306,-1.805 -4.214,-1.783 C -5.886,0.357 -8.27,0.134 -8.27,0.513 C -8.27,0.737 -6.485,1.183 -4.837,1.183 C -3.455,1.183 -2.161,0.871 -2.161,-0.177 C -2.161,-0.758 -2.629,-1.36 -2.629,-2.252 C -2.629,-2.743 -2.385,-3.166 -1.736,-3.166 C -1.044,-3.166 -0.888,-2.43 -0.888,-1.649 C -0.888,-1.003 -1,-0.512 -1,-0.2 C -1,0.737 -0.357,1.361 0.558,1.361 C 1.317,1.361 1.495,1.027 2.611,1.027 C 2.008,0.67 1.786,0.022 1.786,-0.289 C 1.786,-1.226 2.389,-1.873 2.389,-3.791 C 2.389,-7.313 -0.911,-8.562 -4.949,-8.562 C -6.06,-8.562 -7.243,-8.473 -8.404,-8.295 C -8.582,-8.273 -8.627,-8.228 -8.627,-8.117 C -8.627,-7.826 -7.042,-7.67 -7.042,-6.244 C -7.042,-5.686 -7.221,-5.151 -7.221,-4.95 C -7.221,-4.839 -7.132,-4.772 -7.042,-4.772 C -6.707,-4.772 -6.037,-6.065 -4.792,-6.065 C -4.46,-6.065 -3.634,-5.953 -3.634,-4.928 M 0.133,-2.676 C 0.133,-4.66 -1.312,-6.177 -3.925,-6.6 C -3.634,-6.622 -3.366,-6.622 -3.098,-6.622 C -0.045,-6.622 1.071,-5.24 1.071,-4.081 C 1.071,-3.434 0.714,-2.854 0.133,-2.676"
           style="fill:#0f0e9a;fill-rule:nonzero;stroke:none;fill-opacity:1" />
      </g>
      <g
         id="g7657"
         transform="translate(108.5688,766.3125)"
         style="fill:#0f0e9a;fill-opacity:1">
        <path
           id="path7659"
           d="M 0,0 C 0.357,1.115 0.804,1.896 1.535,3.1 C 0.804,3.478 -1.138,4.282 -1.138,5.598 C -1.138,7.136 0.781,8.34 1.178,8.34 C 1.356,8.34 1.401,8.184 1.401,7.894 C 1.401,7.092 1.022,5.798 1.022,5.107 C 1.022,4.483 1.424,3.88 1.781,3.88 C 2.16,3.88 3.209,5.218 3.209,6.534 C 3.209,8.899 1.133,9.612 0.491,9.612 C -0.112,9.612 -1.205,8.631 -3.771,8.631 C -8.564,8.631 -9.658,13.379 -9.658,15.454 C -9.658,15.543 -9.636,15.566 -9.614,15.566 C -9.502,15.566 -9.033,14.985 -7.516,14.985 C -6.735,14.985 -6.021,15.186 -4.882,15.186 C -2.21,15.186 -1.027,13.334 0.625,10.972 C 1.624,10.348 4.013,9.344 4.013,6.512 C 4.013,4.014 1.356,2.631 0.714,-0.044 C 1.736,0.066 2.339,1.896 3.387,1.896 C 3.923,1.896 4.169,1.472 4.169,0.802 C 4.169,-0.178 3.611,-1.651 2.539,-2.565 C 2.562,-2.475 2.562,-2.364 2.562,-2.23 C 2.562,-1.606 2.317,-0.715 1.602,-0.715 C 0.491,-0.715 0.133,-1.918 -0.491,-2.921 C -1.138,-0.648 -2.009,1.405 -3.569,2.654 C -5.149,3.925 -7.873,3.234 -7.873,5.553 C -7.873,6.178 -7.471,7.069 -7.471,7.783 C -7.471,8.028 -7.516,8.251 -7.65,8.43 C -5.507,7.626 -6.266,6.2 -4.949,4.728 C -4.128,3.791 -1.853,2.899 -0.535,-0.959 C -0.514,-0.847 -0.491,-0.558 -0.491,-0.357 C -0.491,2.944 -4.86,6.178 -5.239,7.516 C -2.701,7.226 -2.255,6.601 -1.049,3.256 C -0.804,2.564 0,0.847 0,0 M -0.58,10.816 C -0.58,11.284 -1.764,11.328 -1.875,12.644 C -1.898,12.845 -1.964,13.201 -2.21,13.201 C -2.612,13.201 -2.3,11.975 -2.746,11.975 C -3.771,11.975 -4.105,13.982 -4.485,13.982 C -4.575,13.982 -4.681,13.915 -4.681,13.647 C -4.681,13.402 -4.636,13.245 -4.636,12.957 C -4.636,12.666 -4.703,12.466 -4.971,12.466 C -5.574,12.466 -6.109,13.87 -6.623,13.87 C -6.735,13.87 -6.846,13.803 -6.846,13.692 C -6.846,13.424 -6.4,12.934 -6.4,12.688 C -6.4,12.153 -7.85,12.443 -7.85,11.997 C -7.85,11.796 -7.65,11.73 -7.382,11.73 C -6.913,11.73 -6.176,11.93 -5.797,11.93 C -5.574,11.93 -5.239,11.885 -5.239,11.596 C -5.239,11.284 -6.042,10.883 -6.042,10.593 C -6.042,10.459 -5.908,10.393 -5.797,10.393 C -5.194,10.393 -4.128,11.44 -3.369,11.44 C -3.236,11.44 -2.902,11.373 -2.902,11.172 C -2.902,10.883 -3.659,10.371 -3.659,9.947 C -3.659,9.835 -3.592,9.701 -3.458,9.701 C -3.059,9.701 -2.523,10.749 -1.764,10.749 C -1.473,10.749 -1.049,10.637 -0.826,10.637 C -0.647,10.637 -0.58,10.749 -0.58,10.816"
           style="fill:#0f0e9a;fill-rule:nonzero;stroke:none;fill-opacity:1" />
      </g>
      <g
         id="g7661"
         transform="translate(91.3742,790.4869)"
         style="fill:#0f0e9a;fill-opacity:1">
        <path
           id="path7663"
           d="M 0,0 C 0.358,0 0.425,-0.871 0.493,-1.383 C 0.537,-1.651 0.582,-1.673 0.694,-1.673 C 0.962,-1.673 1.385,-0.647 1.671,-0.647 C 2.094,-0.647 3.233,-1.829 5.13,-1.829 C 7.827,-1.829 10.371,0.067 10.371,3.411 C 10.371,6.644 8.094,8.54 4.951,8.54 C 3.457,8.54 2.362,7.804 1.782,7.804 C 1.43,7.782 0.894,8.673 0.626,8.673 C 0.515,8.673 0.403,8.451 0.403,8.072 C 0.403,7.826 0.403,7.046 0.135,7.046 C -0.402,7.046 -2.475,8.584 -2.475,8.027 C -2.475,7.514 -1.093,5.953 -1.093,5.552 C -1.093,5.15 -2.453,4.771 -2.453,4.503 C -2.453,4.013 -1.003,3.924 -1.003,3.299 C -1.003,2.675 -2.52,2.184 -2.52,1.715 C -2.52,1.337 -1.003,1.604 -1.003,1.136 C -1.003,0.668 -2.118,-0.893 -2.118,-1.338 C -2.118,-1.45 -2.096,-1.45 -2.007,-1.45 C -1.584,-1.45 -0.313,0 0,0 M 0.649,3.656 C 0.649,3.901 -0.223,4.369 -0.223,4.637 C -0.223,4.681 -0.179,4.704 -0.111,4.704 C 0.135,4.704 0.559,4.614 0.894,4.614 C 1.185,4.614 1.229,5.863 1.448,5.863 C 1.603,5.863 1.871,4.681 2.118,4.681 C 2.407,4.681 2.942,5.016 3.166,5.016 C 3.211,5.016 3.255,4.994 3.255,4.949 C 3.255,4.793 2.697,4.192 2.697,4.013 C 2.697,3.812 3.947,3.567 3.947,3.388 C 3.947,3.165 2.675,3.187 2.675,2.986 C 2.675,2.831 3.144,2.206 3.144,2.006 C 3.144,1.961 3.121,1.938 3.077,1.938 C 2.898,1.938 2.206,2.251 2.005,2.251 C 1.76,2.251 1.363,1.337 1.162,1.337 C 1.095,1.337 1.051,1.426 1.051,1.538 L 1.005,2.43 C 1.005,2.519 0.962,2.608 0.85,2.608 C 0.582,2.608 0.068,2.631 -0.089,2.631 C -0.201,2.631 -0.245,2.653 -0.245,2.697 C -0.245,2.876 0.649,3.5 0.649,3.656 M 4.996,-0.581 C 3.434,-0.581 2.407,0.199 2.407,0.601 C 2.407,0.802 2.541,0.935 2.72,0.935 C 3.211,0.935 4.282,0.178 4.639,0.178 C 4.728,0.178 4.795,0.222 4.795,0.356 C 4.795,0.758 4.416,1.426 4.416,1.76 C 4.416,1.849 4.483,1.916 4.617,1.916 C 5.219,1.916 6.113,1.67 6.582,1.67 C 6.737,1.67 6.781,1.76 6.781,1.849 C 6.781,2.34 5.331,3.299 5.331,3.589 C 5.331,3.857 7.134,4.259 7.134,4.681 C 7.134,5.128 4.683,4.816 4.683,5.239 C 4.683,5.552 5.152,6.087 5.152,6.332 C 5.152,6.444 5.063,6.488 4.907,6.488 C 4.706,6.488 3.635,6.064 3.189,6.064 C 2.965,6.064 2.697,6.109 2.697,6.421 C 2.697,6.935 3.568,7.492 4.929,7.492 C 7.134,7.492 8.452,5.975 8.452,3.433 C 8.452,0.222 6.201,-0.581 4.996,-0.581"
           style="fill:#0f0e9a;fill-rule:nonzero;stroke:none;fill-opacity:1" />
      </g>
      <g
         id="g7665"
         transform="translate(81.2725,751.3269)"
         style="fill:#0f0e9a;fill-opacity:1">
        <path
           id="path7667"
           d="M 0,0 C 0,-0.201 -0.067,-0.425 -0.246,-0.647 C -0.49,-0.201 -1.182,0.023 -1.495,0.022 C -3.791,0.022 -2.922,-3.301 -5.375,-3.301 C -6.4,-3.301 -6.49,-3.167 -6.869,-3.167 C -7.025,-3.167 -7.114,-3.234 -7.114,-3.368 C -7.114,-3.949 -6.289,-5.375 -3.992,-5.375 C -1.695,-5.375 0.513,-3.971 0.513,-2.229 C 0.513,-1.94 0.446,-1.63 0.312,-1.317 C 0.401,-1.183 0.625,-1.094 0.826,-1.094 C 1.182,-1.094 1.383,-1.496 1.717,-1.496 C 2.075,-1.496 2.342,-1.228 2.342,-0.871 C 2.342,-0.581 2.186,-0.38 1.918,-0.245 C 2.097,-0.112 2.23,0.112 2.23,0.357 C 2.23,0.736 1.963,1.091 1.516,1.091 C 1.315,1.091 1.182,1.024 1.026,0.87 C 0.982,1.27 0.759,1.649 0.335,1.649 C 0,1.649 -0.246,1.404 -0.246,1.024 C -0.246,0.67 0,0.379 0,0"
           style="fill:#0f0e9a;fill-rule:nonzero;stroke:none;fill-opacity:1" />
      </g>
      <g
         id="g7669"
         transform="translate(75.2738,750.4785)"
         style="fill:#0f0e9a;fill-opacity:1">
        <path
           id="path7671"
           d="M 0,0 C -0.669,0 -1.673,0.714 -1.673,1.116 C -1.673,1.451 -1.36,1.63 -1.116,1.63 C -0.558,1.63 0.445,0.938 0.445,0.358 C 0.445,0.201 0.333,0 0,0 M -6.222,4.995 C -4.438,4.551 -3.546,3.592 -3.368,2.453 C -3.189,1.362 -2.966,0.469 -2.543,0.023 C -1.985,-0.603 -0.893,-1.158 0.067,-1.158 C 0.87,-1.158 1.515,-0.893 1.515,-0.156 C 1.515,0.647 0.423,2.453 -1.183,2.453 C -1.338,2.453 -1.539,2.43 -1.762,2.43 C -1.963,2.43 -2.253,2.475 -2.432,2.631 C -2.788,2.944 -2.899,4.617 -3.569,5.62 C -4.304,6.735 -5.107,7.048 -6.199,7.048 C -6.979,7.048 -7.85,6.624 -7.85,5.999 C -7.85,5.62 -7.649,5.353 -6.222,4.995"
           style="fill:#0f0e9a;fill-rule:nonzero;stroke:none;fill-opacity:1" />
      </g>
      <g
         id="g7673"
         transform="translate(80.2467,758.1957)"
         style="fill:#0f0e9a;fill-opacity:1">
        <path
           id="path7675"
           d="M 0,0 C 0,1.003 -2.075,1.025 -2.075,2.542 C -2.075,2.922 -1.829,3.568 -1.338,4.26 C -1.137,3.1 -0.669,2.498 0.335,2.118 C 2.319,1.383 2.587,0.268 2.587,-0.915 C 2.587,-2.923 1.182,-5.42 -2.43,-5.42 C -5.33,-5.42 -7.404,-2.833 -7.404,-0.648 C -7.404,-0.045 -7.248,0.624 -6.869,0.624 C -6.534,0.624 -6.422,0.357 -6.156,0.089 C -5.151,-0.915 -4.059,-1.182 -2.475,-1.182 C -1.048,-1.182 0,-0.603 0,0 M 0.089,-1.606 C -0.676,-1.956 -0.981,-1.896 -0.981,-2.678 C -0.981,-2.967 -1.048,-3.345 -1.048,-3.546 C -1.048,-3.813 -1.003,-3.97 -0.692,-3.97 C 0.112,-3.97 1.383,-2.61 1.383,-1.45 C 1.383,-1.137 1.204,-1.005 1.003,-1.005 C 0.824,-1.005 0.625,-1.361 0.089,-1.606 M -7.025,9.655 C -7.025,11.083 -3.635,11.841 -3.635,13.603 C -3.635,13.893 -3.746,14.405 -3.947,14.785 C -2.765,14.138 -1.896,13.044 -1.896,12.153 C -1.896,10.614 -3.501,9.901 -3.501,8.941 C -3.501,7.826 -1.784,7.648 -1.784,6.265 C -1.784,5.129 -3.413,3.813 -3.413,2.341 C -3.413,1.204 -2.609,0.268 -1.383,0.112 C -1.784,0.022 -2.141,-0.045 -2.52,-0.045 C -4.773,-0.045 -7.092,1.805 -7.092,4.014 C -7.092,5.107 -6.623,6.064 -5.91,6.756 C -5.285,6.221 -4.661,5.864 -4.26,5.864 C -3.903,5.864 -3.746,6.042 -3.746,6.31 C -3.746,7.136 -7.025,7.893 -7.025,9.655"
           style="fill:#0f0e9a;fill-rule:nonzero;stroke:none;fill-opacity:1" />
      </g>
      <g
         id="g7677"
         transform="translate(60.2869,756.8351)"
         style="fill:#0f0e9a;fill-opacity:1">
        <path
           id="path7679"
           d="M 0,0 C 0.094,-0.762 0.804,-1.339 1.606,-1.25 C 1.895,-1.218 2.164,-1.138 2.343,-1.027 C 2.521,-1.74 3.12,-2.199 3.929,-2.093 C 4.75,-1.986 5.309,-1.339 5.22,-0.513 C 5.196,-0.291 5.153,-0.156 5.086,0 C 5.086,0 5.195,0.011 5.277,0.027 C 6.082,0.179 6.625,0.825 6.558,1.606 C 6.469,2.408 5.749,3.004 4.998,2.912 C 4.708,2.876 4.439,2.766 4.26,2.609 C 4.059,3.277 3.43,3.859 2.571,3.716 C 1.796,3.588 1.283,2.93 1.361,2.096 C 1.373,1.961 1.405,1.806 1.472,1.651 C 1.472,1.651 1.341,1.631 1.251,1.618 C 0.6,1.521 -0.106,0.866 0,0 M 4.167,0.877 C 4.222,0.411 3.889,-0.009 3.423,-0.064 C 2.958,-0.118 2.536,0.216 2.483,0.681 C 2.428,1.147 2.761,1.569 3.227,1.623 C 3.693,1.678 4.114,1.344 4.167,0.877"
           style="fill:#0f0e9a;fill-rule:nonzero;stroke:none;fill-opacity:1" />
      </g>
    </g>
  </g>
</svg>
