<svg viewBox="0 0 24 24" xmlns="http://www.w3.org/2000/svg"><path d="M4.7 4.494h5.99c.837 0 1.357.681 1.162 1.52l-2.79 11.974c-.196.836-1.033 1.518-1.87 1.518h-5.99c-.835 0-1.356-.682-1.161-1.518L2.83 6.014c.195-.839 1.032-1.52 1.87-1.52" fill="#e21836"/><path d="M10.192 4.494h6.889c.836 0 .459.681.262 1.52l-2.788 11.974c-.196.836-.135 1.518-.973 1.518H6.693c-.837 0-1.356-.682-1.16-1.518l2.79-11.974c.197-.839 1.032-1.52 1.869-1.52" fill="#00447c"/><path d="M16.807 4.494h5.99c.838 0 1.358.681 1.161 1.52L21.17 17.988c-.197.836-1.035 1.518-1.872 1.518h-5.987c-.838 0-1.358-.682-1.162-1.518l2.79-11.974c.194-.839 1.03-1.52 1.868-1.52" fill="#007b84"/><path d="M6.265 8.331c-.616.006-.798 0-.857-.014l-.439 2.025c-.09.388-.154.665-.376.844a.67.67 0 0 1-.442.153c-.273 0-.432-.135-.459-.392l-.005-.089.083-.522s.437-1.748.515-1.979a.168.168 0 0 0 .006-.026c-.85.007-1 0-1.01-.014-.006.02-.027.127-.027.127l-.445 1.97-.038.167-.075.546c0 .162.032.295.096.406.203.355.782.408 1.11.408.421 0 .817-.09 1.084-.253.465-.274.586-.703.694-1.084l.05-.196s.45-1.815.526-2.05c.003-.014.005-.02.009-.027Zm1.529 1.464c-.109 0-.307.026-.485.114-.064.033-.125.07-.19.109l.059-.21-.032-.035c-.377.076-.462.086-.81.136l-.03.019c-.04.335-.076.587-.226 1.247-.057.243-.116.488-.175.73l.016.031a8.68 8.68 0 0 1 .775-.014l.025-.027c.04-.202.045-.25.132-.658.041-.194.127-.62.169-.772a.579.579 0 0 1 .227-.071c.174 0 .153.152.146.212-.007.102-.07.433-.136.718l-.043.183c-.03.136-.064.268-.094.402l.013.027a8.36 8.36 0 0 1 .76-.014l.035-.027c.055-.315.07-.4.167-.859l.049-.21c.094-.414.141-.623.07-.794-.076-.19-.256-.237-.422-.237Zm1.708.432c-.187.036-.307.06-.425.076a18.97 18.97 0 0 1-.413.06l-.014.014-.013.01c-.02.135-.032.251-.057.388a7.095 7.095 0 0 1-.107.533 2.094 2.094 0 0 1-.086.3c-.022.063-.048.123-.094.297l.011.016.01.015c.168-.008.279-.014.392-.015.114-.004.231 0 .413.001l.016-.013.017-.014c.026-.157.03-.199.046-.275.016-.082.044-.196.111-.5l.1-.43.105-.43-.005-.017-.007-.016Zm.004-.583c-.17-.1-.468-.068-.67.07-.2.136-.222.33-.053.43.167.098.467.07.666-.07.2-.14.224-.33.057-.43Zm1.028 2.324c.343 0 .696-.095.961-.376.204-.229.298-.568.33-.708.106-.463.024-.679-.08-.81-.156-.201-.433-.266-.72-.266-.174 0-.586.017-.907.314-.231.214-.338.504-.402.782-.065.284-.14.794.33.984.144.063.353.08.488.08Zm-.027-1.043c.079-.35.173-.645.412-.645.187 0 .2.22.117.571-.015.078-.083.369-.176.492-.064.092-.14.147-.225.147-.025 0-.174 0-.177-.222 0-.11.021-.221.049-.343Zm2.178.997.027-.027c.038-.202.044-.25.129-.658.042-.194.13-.62.17-.772.078-.036.153-.071.228-.071.173 0 .152.152.145.212-.006.102-.07.433-.136.717l-.04.184c-.032.136-.066.268-.097.402l.014.027a8.26 8.26 0 0 1 .758-.014l.037-.027c.053-.315.067-.4.166-.859l.048-.21c.094-.414.142-.623.072-.794-.077-.19-.26-.237-.423-.237a1.181 1.181 0 0 0-.673.223l.054-.21-.03-.035c-.376.076-.462.087-.81.136l-.027.019c-.042.335-.076.587-.226 1.247-.057.243-.117.488-.176.73l.016.031c.357-.019.464-.019.774-.014Zm2.594.014.155-.75s.112-.472.12-.489c0 0 .034-.049.07-.068h.052c.49 0 1.044 0 1.478-.32.296-.218.497-.542.588-.935.023-.096.04-.21.04-.326 0-.15-.03-.299-.117-.415-.222-.31-.662-.316-1.171-.318l-.251.002c-.652.008-.913.006-1.02-.007l-.026.132-.234 1.083-.584 2.407c.569-.007.802-.007.9.004Zm.432-1.92.247-1.076.008-.055.004-.042.099.01.523.045c.202.078.286.28.227.542a.789.789 0 0 1-.409.54c-.165.082-.366.09-.574.09H15.7l.01-.055Zm1.545.93c-.066.279-.141.79.326.971a.912.912 0 0 0 .418.076.69.69 0 0 0 .399-.183l-.034.127.022.028c.336-.014.44-.014.804-.012l.033-.025c.053-.312.103-.616.241-1.214l.204-.855-.011-.03c-.376.069-.476.084-.838.135l-.027.022-.011.085a.517.517 0 0 0-.264-.217c-.16-.063-.538.019-.863.314-.228.211-.337.5-.4.777Zm.789.017c.08-.345.173-.636.412-.636.152 0 .232.14.215.378-.013.06-.026.122-.043.193-.024.102-.05.203-.075.305a.744.744 0 0 1-.089.179c-.061.087-.208.141-.292.141-.024 0-.172 0-.177-.218-.001-.108.021-.22.049-.342Zm4.122-1.138-.03-.033c-.371.075-.438.087-.78.134l-.025.025-.004.016-.001-.006c-.255.587-.247.46-.454.922l-.003-.056-.051-1.002-.033-.033c-.39.075-.399.087-.758.134L20 9.95c-.004.012-.004.025-.007.04l.003.004c.045.23.034.179.079.542.02.177.049.356.07.532.035.294.055.44.099.888-.243.401-.3.553-.535.905l.002.003-.165.26c-.019.028-.036.047-.06.055a.248.248 0 0 1-.108.015h-.09l-.137.452.466.008c.273-.002.445-.13.537-.301l.293-.501h-.005l.03-.036c.198-.423 1.695-2.992 1.695-2.992Zm-4.911 5.926h-.198l.73-2.417h.243l.077-.249.008.277c-.01.171.125.323.479.298h.409l.14-.466h-.153c-.089 0-.13-.022-.125-.07l-.007-.282H18.1v.002c-.244.005-.976.024-1.124.063-.179.046-.368.182-.368.182l.075-.25h-.709l-.147.495-.74 2.454h-.144l-.141.462h1.41l-.047.154h.696l.046-.154h.195l.153-.5Zm-.58-1.926c-.113.032-.324.127-.324.127l.188-.618h.563l-.136.45s-.174.01-.29.041Zm.012.883s-.177.022-.294.048c-.114.035-.33.144-.33.144l.195-.643h.566l-.137.45Zm-.316 1.048h-.564l.163-.542h.563l-.162.542Zm1.36-1.498h.814l-.117.378h-.825l-.124.414h.722l-.547.77a.225.225 0 0 1-.11.092.325.325 0 0 1-.147.042h-.2l-.137.454h.523a.637.637 0 0 0 .552-.287l.374-.512.08.52a.245.245 0 0 0 .136.177c.052.026.106.072.183.078.082.004.14.006.18.006h.258l.154-.507H19.4c-.059 0-.159-.01-.176-.028-.017-.022-.017-.056-.026-.108l-.082-.522h-.334l.146-.175h.823l.127-.414h-.762l.119-.378h.76l.14-.468H17.87l-.138.468Zm-6.874 1.604.19-.632h.78l.143-.47h-.781l.12-.39h.763l.141-.454h-1.91l-.139.455h.434l-.116.389h-.435l-.144.478h.434l-.253.836c-.035.11.016.153.048.204.032.05.065.084.14.102a.84.84 0 0 0 .2.028h.88l.156-.521-.39.053c-.075 0-.284-.008-.26-.078Zm.09-3.025-.198.357a.415.415 0 0 1-.115.15c-.03.018-.09.026-.177.026h-.103l-.138.457h.343c.165 0 .291-.06.352-.09.065-.035.082-.015.132-.064l.116-.1h1.07l.142-.476h-.783l.137-.26h-.778Zm1.58 3.034c-.018-.026-.005-.072.023-.169l.293-.968h1.04a7.02 7.02 0 0 0 .333-.01.683.683 0 0 0 .25-.084.468.468 0 0 0 .182-.168c.045-.062.118-.197.18-.407l.368-1.225-1.08.006s-.333.049-.48.103c-.147.06-.358.23-.358.23l.097-.337h-.667l-.934 3.098c-.034.12-.056.208-.06.26-.002.057.07.113.118.155.056.042.138.035.218.042.083.007.202.01.365.01h.513l.157-.53-.459.042a.12.12 0 0 1-.099-.048Zm.504-1.792h1.094l-.07.218c-.01.005-.033-.01-.144.003h-.947l.067-.22Zm.22-.73h1.102l-.08.262s-.52-.005-.602.01c-.367.064-.58.26-.58.26l.16-.532Zm.829 1.678a.116.116 0 0 1-.044.067c-.022.014-.058.02-.112.02h-.155l.009-.266h-.648l-.026 1.297c-.001.094.008.148.076.191.069.055.28.061.564.061h.406l.146-.485-.353.02-.118.006c-.016-.007-.031-.013-.048-.03-.015-.015-.04-.006-.036-.1l.003-.332.37-.015a.48.48 0 0 0 .359-.127c.07-.06.092-.128.119-.22l.062-.295h-.51l-.064.208Z" fill="#fefefe"/></svg>