<svg viewBox="0 0 24 24" xmlns="http://www.w3.org/2000/svg"><path d="M.67 0v6.397c0 1.797 1.402 3.186 3.19 3.186 1.794 0 3.164-1.389 3.164-3.186V0h-1.87v6.397c0 .726-.573 1.31-1.293 1.31a1.298 1.298 0 0 1-1.293-1.31V0H.67Zm8.953 0v9.579h1.94V4.092l2.515 5.487h1.946V0h-1.946v5.477L11.565 0H9.623Zm9.57 0v9.579h1.95V0h-1.95ZM3.86 12.485A3.17 3.17 0 0 0 .67 15.65v3.247a3.19 3.19 0 0 0 3.816 3.107L5.153 24h1.871l-.886-2.879c.518-.592.886-1.398.886-2.225v-3.248a3.142 3.142 0 0 0-3.163-3.163Zm0 1.871c.722 0 1.292.577 1.292 1.293v3.247c0 .63-.57 1.217-1.292 1.217-.716 0-1.293-.587-1.293-1.217v-3.248a1.29 1.29 0 0 1 1.293-1.292Zm5.762-1.87v9.573h6.401v-1.946h-4.46v-7.628H9.623Zm10.54 0a3.144 3.144 0 0 0-3.164 3.162v3.248a3.162 3.162 0 0 0 3.164 3.168 3.168 3.168 0 0 0 3.168-3.168v-3.248a3.15 3.15 0 0 0-3.168-3.163Zm0 1.87a1.3 1.3 0 0 1 1.301 1.293v3.247c0 .63-.59 1.217-1.301 1.217-.716 0-1.297-.587-1.297-1.217v-3.248c0-.715.58-1.292 1.297-1.292Z" fill="#ed1d24"/></svg>