<svg viewBox="0 0 24 24" xmlns="http://www.w3.org/2000/svg"><path d="M0.0481888 1.60135C0.0217591 1.60135 0.00033368 1.62277 0.00033368 1.6492C0.00033368 1.67563 0.0217592 1.69706 0.0481888 1.69706L8.01606 1.69706C8.04249 1.69706 8.06392 1.67563 8.06392 1.6492C8.06392 1.62277 8.04249 1.60135 8.01606 1.60135C8.0005 1.60135 0.0637511 1.60135 0.0481888 1.60135ZM0.0601526 1.60359C0.0479895 1.60033 0.0354023 1.60165 0.0242612 1.60808C0.00142015 1.62126-0.00693072 1.65019 0.00631557 1.67313L11.9581 22.3749C11.9714 22.3979 12.0011 22.4053 12.0239 22.3921C12.0468 22.379 12.0551 22.35 12.0419 22.3271L0.090062 1.62528C0.083516 1.61394 0.0725142 1.6069 0.0601526 1.60359ZM8.05794 1.62528L16.0258 15.4262C16.039 15.4491 16.0307 15.4788 16.0079 15.492C15.985 15.5053 15.9553 15.497 15.9421 15.4741L7.97419 1.67313C7.96094 1.65019 7.96929 1.62126 7.99214 1.60808C8.00328 1.60164 8.01586 1.60033 8.02803 1.60359C8.04039 1.6069 8.05139 1.61394 8.05794 1.62528ZM16.0079 15.4083C16.0307 15.4215 16.039 15.4512 16.0258 15.4741L12.0419 22.3749C12.0286 22.3979 11.9989 22.4053 11.9761 22.3921C11.9532 22.379 11.9449 22.35 11.9581 22.3271L15.9421 15.4262C15.9485 15.4151 15.9598 15.4071 15.972 15.4038C15.9841 15.4005 15.9967 15.4019 16.0079 15.4083ZM15.9839 1.60135C15.9575 1.60135 15.9361 1.62277 15.9361 1.6492C15.9361 1.67563 15.9575 1.69706 15.9839 1.69706L23.9518 1.69706C23.9782 1.69706 23.9997 1.67563 23.9997 1.6492C23.9997 1.62277 23.9782 1.60135 23.9518 1.60135C23.9362 1.60135 15.9995 1.60135 15.9839 1.60135ZM23.9398 1.60359C23.9275 1.6069 23.9165 1.61394 23.9099 1.62528L19.926 8.52613C19.9128 8.54904 19.9211 8.57873 19.9439 8.59193C19.9669 8.60516 19.9965 8.59685 20.0097 8.57399L23.9937 1.67313C24.0069 1.65019 23.9986 1.62126 23.9757 1.60808C23.9646 1.60165 23.952 1.60033 23.9398 1.60359ZM15.972 1.60359C15.9596 1.6069 15.9486 1.61394 15.9421 1.62528C15.9288 1.64819 15.9371 1.67787 15.96 1.69108L19.9425 3.99036C19.9653 4.00354 19.995 3.99615 20.0083 3.97317C20.0215 3.95026 20.0132 3.92057 19.9903 3.90737L16.0079 1.60808C15.9967 1.60164 15.9841 1.60033 15.972 1.60359ZM19.9679 3.90138C19.9414 3.90138 19.92 3.92281 19.92 3.94924L19.92 8.55006C19.92 8.57649 19.9414 8.59791 19.9679 8.59791C19.9943 8.59791 20.0157 8.57649 20.0157 8.55006L20.0157 3.94924C20.0157 3.92281 19.9943 3.90138 19.9679 3.90138Z" fill="#001c29"/></svg>
