<svg viewBox="0 0 24 24" xmlns="http://www.w3.org/2000/svg"><path d="M15.632 8.112c-1.704 0-3.227.883-3.227 2.515 0 1.871 2.701 2 2.701 2.941 0 .396-.454.75-1.229.75-1.1 0-1.921-.495-1.921-.495l-.352 1.647s.947.418 2.204.418c1.863 0 3.33-.927 3.33-2.586 0-1.978-2.713-2.103-2.713-2.976 0-.31.373-.65 1.145-.65.872 0 1.583.36 1.583.36l.344-1.59s-.773-.334-1.865-.334Zm-15.59.12L0 8.472s.717.131 1.363.393c.831.3.89.475 1.03 1.017l1.526 5.882h2.045l3.151-7.532h-2.04L5.05 13.353l-.826-4.34c-.076-.498-.46-.781-.93-.781H.041Zm9.894 0-1.6 7.532h1.945l1.595-7.532h-1.94Zm10.853 0c-.47 0-.718.251-.9.69l-2.851 6.842h2.04l.395-1.14h2.486l.24 1.14H24l-1.57-7.532h-1.641Zm.265 2.035.605 2.827h-1.62l1.015-2.827Z" fill="#1434cb"/></svg>