<svg viewBox="0 0 24 24" xmlns="http://www.w3.org/2000/svg"><path d="M18.888 12a3.382 3.382 0 0 0-1.812-2.998L8.36 5.046a.413.413 0 0 0-.605.364v2.32c0 .31.184.576.447.698l7.088 2.944a.682.682 0 0 1 0 1.257l-7.088 2.943a.769.769 0 0 0-.447.698v2.32a.413.413 0 0 0 .605.364l8.715-3.956a3.383 3.383 0 0 0 1.812-2.997V12ZM24 12c0 6.627-5.373 12-12 12-6.628 0-12-5.373-12-12S5.372 0 12 0c6.627 0 12 5.373 12 12M12 2.059c-5.543 0-10.038 4.451-10.038 9.943 0 5.489 4.495 9.94 10.038 9.94 5.542 0 10.037-4.451 10.037-9.94 0-5.492-4.495-9.943-10.037-9.943" fill="#f5b919"/></svg>