<svg viewBox="0 0 24 24" xmlns="http://www.w3.org/2000/svg"><path d="M8.36 2.255a1.194 1.194 0 0 0-1.011-.571H1.2a1.2 1.2 0 0 0-1.017 1.84l1.583 2.325L9.68 4.135l-1.32-1.88Z" fill="#c9f4ff"/><path d="M9.714 4.18a1.206 1.206 0 0 0-1.017-.57H2.571A1.194 1.194 0 0 0 1.52 5.46l1.766 2.8 8.177-1.28-1.749-2.8Z" fill="#51b9ff"/><path d="M3.211 8.147a1.223 1.223 0 0 1-.108-1.075c.184-.469.64-.774 1.143-.765h6.125a1.2 1.2 0 0 1 1.018.571l5.502 8.726a1.212 1.212 0 0 1 0 1.28l-3.074 4.874a1.206 1.206 0 0 1-2.034 0L3.21 8.147Zm15.498 2.788a1.205 1.205 0 0 0 2.034 0L21.8 9.261l2.017-3.2a1.21 1.21 0 0 0 0-1.28l-1.6-2.526a1.205 1.205 0 0 0-1.017-.571h-6.149a1.2 1.2 0 0 0-1.2 1.2c-.002.227.064.45.189.64l4.669 7.411Z" fill="#007bfc"/></svg>