<?xml version="1.0" encoding="UTF-8"?>
<svg width="132.3mm" height="28.879mm" version="1.1" viewBox="0 0 132.29549 28.879726" xmlns="http://www.w3.org/2000/svg" xmlns:cc="http://creativecommons.org/ns#" xmlns:dc="http://purl.org/dc/elements/1.1/" xmlns:rdf="http://www.w3.org/1999/02/22-rdf-syntax-ns#"><metadata><rdf:RDF><cc:Work rdf:about=""><dc:format>image/svg+xml</dc:format><dc:type rdf:resource="http://purl.org/dc/dcmitype/StillImage"/><dc:title/></cc:Work></rdf:RDF></metadata><g fill="#2d7bc8" fill-rule="evenodd" stroke-width="2.2207"><path d="m77.438 15.049c0-3.1134-1.3302-5.8537-5.8226-5.8537-2.3095 0-4.1393 0.64621-5.1386 1.2258l0.72838 2.5027c0.91713-0.57959 2.3694-1.0526 3.7485-1.0526 2.2806-0.0067 2.6515 1.288 2.6515 2.1207v0.1932c-4.9698-0.0067-8.1099 1.7166-8.1099 5.2208 0 2.1429 1.6011 4.1482 4.3791 4.1482 1.7144 0 3.1445-0.67952 3.9994-1.7743h0.08661s0.56849 2.3717 3.693 1.4679c-0.15989-0.99264-0.2154-2.0452-0.2154-3.3132zm-3.7085 3.2888c0 0.25538-0.02665 0.51519-0.09327 0.7417-0.28646 0.95266-1.2747 1.7588-2.5093 1.7588-1.0237 0-1.8454-0.58626-1.8454-1.8187 0-1.8876 2.0785-2.4094 4.448-2.3983z"/><path d="m-9.0565e-4 4.9676s3.2466 13.306 3.7685 15.462c0.6018 2.5249 1.6944 3.4509 4.8344 2.8291l2.0297-8.2542c0.51297-2.0497 0.85718-3.5086 1.1881-5.5961h0.05774c0.23317 2.1074 0.56405 3.5553 0.9882 5.605 0 0 0.82387 3.744 1.2458 5.7138 0.42415 1.9631 1.6033 3.2044 4.6812 2.5316l4.8344-18.292h-3.8995l-1.6544 7.9078c-0.44191 2.3006-0.84607 4.0993-1.1525 6.2045h-0.05552c-0.28424-2.083-0.64177-3.8107-1.0926-6.0535l-1.7188-8.0588h-4.0638l-1.8365 7.8545c-0.52186 2.3872-1.0104 4.317-1.3191 6.3511h-0.055517c-0.31755-1.9164-0.7417-4.3392-1.1969-6.6487 0 0-1.0926-5.6227-1.4745-7.5569z"/><path d="m34.71 15.049c0-3.1134-1.328-5.8537-5.8226-5.8537-2.3095 0-4.1393 0.64621-5.1408 1.2258l0.73282 2.5027c0.91491-0.57959 2.3694-1.0526 3.7485-1.0526 2.2784-0.0067 2.6537 1.288 2.6537 2.1207v0.1932c-4.9743-0.0067-8.1121 1.7166-8.1121 5.2208 0 2.1429 1.5989 4.1482 4.3769 4.1482 1.7121 0 3.1445-0.67952 3.9994-1.7743h0.08439s0.57071 2.3717 3.6974 1.4679c-0.16433-0.99264-0.21762-2.0452-0.21762-3.3132zm-3.7107 3.2888c0 0.25538-0.02221 0.51519-0.09105 0.7417-0.28646 0.95266-1.2724 1.7588-2.5071 1.7588-1.0259 0-1.8432-0.58626-1.8432-1.8187 0-1.8876 2.0741-2.4094 4.4413-2.3983z"/><path d="m40.901 19.38v-14.408h-3.7129v18.294h3.7129z"/><path d="m89.496 4.9676v13.495c0 1.8543 0.34642 3.16 1.0992 3.9572 0.65288 0.69507 1.7277 1.1459 3.0201 1.1459 1.0992 0 2.1807-0.20652 2.6892-0.39528l-0.04886-2.9046c-0.37751 0.09105-0.81498 0.16433-1.4101 0.16433-1.2636 0-1.6877-0.80388-1.6877-2.4783v-5.1586h3.2333v-3.4998h-3.2333v-4.3259z"/><path d="m79.903 9.52v13.739h3.8306v-7.0373c0-0.37751 0.02443-0.71061 0.08217-1.0148 0.28646-1.4723 1.4123-2.4139 3.0312-2.4139 0.44413 0 0.76169 0.04663 1.1037 0.09771v-3.5953c-0.28647-0.059958-0.47967-0.086606-0.84386-0.086606-1.4301 0-3.0534 0.92158-3.7352 2.9024h-0.10881v-2.5915z"/><path d="m43.504 9.52v13.739h3.7329v-8.0588c0-0.37751 0.04219-0.77723 0.17543-1.1237 0.30867-0.81054 1.0637-1.7632 2.2695-1.7632 1.5078 0 2.2096 1.2747 2.2096 3.1134v7.8323h3.7307v-8.1543c0-0.36197 0.04885-0.795 0.15545-1.1148 0.30645-0.92158 1.1214-1.6766 2.2429-1.6766 1.5256 0 2.2562 1.2525 2.2562 3.4176v7.528h3.7352v-8.0943c0-4.2681-2.1674-5.9558-4.6145-5.9558-1.0859 0-1.9386 0.27092-2.7092 0.74392-0.65288 0.40194-1.2325 0.96599-1.7432 1.7144h-0.0533c-0.59069-1.4812-1.9786-2.4583-3.7862-2.4583-2.3228 0-3.3687 1.177-4.0016 2.1763h-0.05552v-1.8654z"/></g><g fill="#fab41d" fill-rule="evenodd" stroke-width="2.2207"><path d="m117.21 9.7198c0.67286 0 1.2302-0.35086 1.308-0.80832l0.6662-7.5525c0-0.74614-0.87494-1.359-1.972-1.359-1.0992 0-1.972 0.6129-1.972 1.359l0.6662 7.5525c0.0733 0.45746 0.63511 0.80832 1.308 0.80832z"/><path d="m113.12 12.074c0.33754-0.58403 0.31089-1.2436-0.0444-1.5323l-6.2112-4.3569c-0.64399-0.37307-1.6144 0.075503-2.1607 1.0282-0.55295 0.95266-0.45524 2.0164 0.18875 2.3894l6.8752 3.2022c0.42858 0.15989 1.0171-0.151 1.3546-0.73282z"/><path d="m121.3 12.074c0.33976 0.58404 0.9238 0.89271 1.3524 0.73282l6.8774-3.2022c0.64621-0.37307 0.73948-1.4368 0.18653-2.3894-0.54628-0.95044-1.5145-1.4012-2.1629-1.0259l-6.2068 4.3547c-0.3553 0.28869-0.37973 0.95044-0.0444 1.5323z"/><path d="m117.21 19.158c0.67286 0 1.2302 0.35086 1.308 0.80832l0.6662 7.5525c0 0.74614-0.87494 1.3613-1.972 1.3613-1.0992 0-1.972-0.61512-1.972-1.3613l0.6662-7.5525c0.0733-0.45746 0.63511-0.80832 1.308-0.80832z"/><path d="m121.3 16.804c0.33976-0.58403 0.9238-0.89271 1.3524-0.73282l6.8774 3.2c0.64621 0.37529 0.73948 1.4368 0.18653 2.3917-0.54628 0.94822-1.5145 1.4035-2.1629 1.0304l-6.2068-4.3569c-0.3553-0.29313-0.37973-0.95266-0.0444-1.5345z"/><path d="m113.12 16.804c0.33754 0.58404 0.31089 1.2414-0.0444 1.5367l-6.2112 4.3503c-0.64399 0.37529-1.6144-0.0755-2.1607-1.0259-0.55295-0.95266-0.45524-2.0164 0.18875-2.3917l6.8752-3.1978c0.42858-0.16433 1.0171 0.14434 1.3546 0.7306z"/><path d="m130.16 23.91c0.0688 0.03997 0.17321 0.07772 0.28202 0.07772 0.13769 0 0.21319-0.0644 0.21319-0.15989 0-0.09105-0.06-0.14212-0.20874-0.19542-0.19098-0.07106-0.31534-0.17099-0.31534-0.33976 0-0.19542 0.15767-0.34198 0.41527-0.34198 0.12435 0 0.21984 0.02887 0.2798 0.05996l-0.0533 0.17543c-0.0422-0.02443-0.12213-0.05774-0.23095-0.05774-0.13768 0-0.19319 0.07328-0.19319 0.14212 0 0.09327 0.0666 0.13324 0.22206 0.1932 0.20208 0.07328 0.30201 0.17987 0.30201 0.34642 0 0.18876-0.14212 0.35086-0.44413 0.35086-0.12436 0-0.25316-0.03331-0.31755-0.07106z"/><path d="m132.07 23.666c-9e-3 -0.151-0.0178-0.33088-0.0178-0.49077h-4e-3c-0.0355 0.14212-0.0866 0.30201-0.1399 0.44857l-0.16877 0.50853h-0.16433l-0.15767-0.50187c-0.0444-0.151-0.0866-0.30867-0.11547-0.45524h-7e-3c-4e-3 0.15101-0.0133 0.33754-0.02 0.49965l-0.0266 0.47078h-0.19986l0.0777-1.1703h0.2798l0.15767 0.47078c0.0422 0.13546 0.0755 0.27536 0.10881 0.40416h4e-3c0.0289-0.12436 0.0711-0.27092 0.11548-0.40638l0.15988-0.46856h0.27759l0.0711 1.1703h-0.20874z"/></g></svg>
