<svg viewBox="0 0 24 24" xmlns="http://www.w3.org/2000/svg"><path d="M12 8.077c.558 0 1.022-.291 1.086-.671l.554-6.277C13.64.51 12.913 0 12 0c-.913 0-1.639.51-1.639 1.13l.554 6.276c.06.38.528.671 1.087.671h-.004Zm-3.4 1.957C8.88 9.548 8.86 9 8.564 8.76L3.402 5.14c-.535-.31-1.342.062-1.796.854-.46.792-.378 1.676.157 1.986l5.714 2.66c.356.134.845-.125 1.125-.608l-.002.002Zm6.798 0c.283.485.768.742 1.124.609l5.715-2.661c.537-.31.615-1.194.155-1.986-.454-.79-1.258-1.164-1.797-.853l-5.158 3.62c-.295.24-.316.79-.037 1.273l-.002-.002ZM12 15.92c.56 0 1.023.291 1.087.672l.554 6.276c0 .62-.727 1.131-1.639 1.131-.913 0-1.639-.511-1.639-1.131l.554-6.276c.06-.38.528-.672 1.087-.672h-.004Zm3.4-1.957c.282-.485.767-.741 1.123-.609l5.715 2.66c.537.312.615 1.194.155 1.987-.454.788-1.258 1.167-1.797.857l-5.158-3.621c-.295-.244-.316-.792-.037-1.275l-.002.002Zm-6.799 0c.28.486.259 1.032-.036 1.277l-5.162 3.616c-.535.312-1.342-.063-1.796-.853-.46-.792-.378-1.676.157-1.987l5.714-2.658c.356-.136.845.12 1.125.607l-.002-.002Z" fill="#fab41d"/></svg>