<svg viewBox="0 0 24 24" version="1.1" xmlns="http://www.w3.org/2000/svg" xmlns:xlink="http://www.w3.org/1999/xlink">
    <title>WARP</title>
        <path d="M12,0 C15.1788886,0.0121563309 18.2239997,1.28034419 20.4718886,3.52814375 C22.7196663,5.77595441 23.9878886,8.8211427 24,12 C24,14.3733305 23.2962219,16.6934411 21.9776663,18.6668852 C20.6591108,20.6402181 18.7848886,22.1783289 16.5922219,23.086551 C14.3994441,23.994773 11.9866663,24.2324396 9.6589219,23.7694397 C7.33114412,23.3064398 5.19295523,22.1635512 3.5147219,20.4852182 C1.83648856,18.8069963 0.693604118,16.6688856 0.230581896,14.3411083 C-0.232440326,12.013331 0.00519905157,9.60050921 0.913450785,7.40779853 C1.82169967,5.21508786 3.35976634,3.34094378 5.33315523,2.02236627 C7.30655523,0.703787638 9.6266219,0 12,0 Z M12.2701108,19.4112184 C12.0015552,19.3577739 11.7231108,19.3852184 11.4701108,19.4899961 C11.2171108,19.5947739 11.0008775,19.7722183 10.848733,19.999996 C10.6965886,20.2276627 10.6153886,20.4953293 10.6153886,20.7692181 C10.6089441,20.9527736 10.6403441,21.1356625 10.7076441,21.3066624 C10.7749441,21.4775513 10.8767108,21.6327735 11.0065886,21.7626624 C11.1364441,21.8925512 11.2916663,21.994329 11.4625552,22.0615512 C11.6335552,22.1288845 11.8164441,22.1603289 11.9999997,22.1538845 C12.2738886,22.1538845 12.5415552,22.0726623 12.7692219,21.9204401 C12.9969997,21.768329 13.1744441,21.5521068 13.2792219,21.2991069 C13.3839997,21.0461069 13.4114441,20.7676626 13.3579997,20.4991071 C13.3045552,20.2305516 13.1726663,19.9837738 12.9791108,19.7901072 C12.7854441,19.5965517 12.5386663,19.4646628 12.2701108,19.4112184 Z M11.9999997,13.558664 C11.1754441,13.558664 10.3683441,13.7961084 9.67519967,14.242775 C8.98205523,14.6893304 8.4322219,15.3261081 8.09143301,16.0769968 C7.75065523,16.8277744 7.63334412,17.6608854 7.75354412,18.476663 C7.87374412,19.2924406 8.22636634,20.0563294 8.76923301,20.6768848 C8.76923301,19.8201072 9.1096219,18.9983296 9.71549967,18.3924408 C10.3213886,17.786552 11.1431108,17.4461077 11.9999997,17.4461077 C12.8568886,17.4461077 13.6786663,17.786552 14.2845552,18.3924408 C14.890333,18.9983296 15.2307775,19.8201072 15.2307775,20.6768848 C15.7736663,20.0563294 16.1262219,19.2924406 16.2464441,18.476663 C16.3666663,17.6608854 16.249333,16.8277744 15.9085552,16.0769968 C15.5677775,15.3261081 15.0179997,14.6893304 14.3247775,14.242775 C13.6316663,13.7961084 12.8245552,13.558664 11.9999997,13.558664 Z M11.9999997,7.66153182 C10.0781997,7.66153182 8.23511078,8.424965 6.87619967,9.78388695 C5.51727745,11.1427756 4.75384412,12.9858863 4.75384412,14.9076637 C4.75679967,16.3053301 5.17443301,17.6706632 5.95384412,18.830774 C5.87756634,18.513663 5.84649967,18.1873297 5.86154412,17.861552 C5.85545523,17.0515522 6.00973301,16.2483301 6.31548856,15.4982192 C6.62124412,14.7482193 7.07244412,14.0659972 7.64305523,13.4911084 C8.21366634,12.9162197 8.89243301,12.4598864 9.64019967,12.1485532 C10.3879775,11.8372199 11.1899997,11.6768866 11.9999997,11.6768866 C12.8099997,11.6768866 13.6119997,11.8372199 14.3597775,12.1485532 C15.1075552,12.4598864 15.786333,12.9162197 16.3569997,13.4911084 C16.9275552,14.0659972 17.3787775,14.7482193 17.6845552,15.4982192 C17.9902219,16.2483301 18.1445552,17.0515522 18.1384441,17.861552 C18.1535552,18.1873297 18.1224441,18.513663 18.0461108,18.830774 C18.8255552,17.6706632 19.2432219,16.3053301 19.2461108,14.9076637 C19.2461108,12.9858863 18.4827775,11.1427756 17.1237775,9.78388695 C15.7648886,8.424965 13.9217775,7.66153182 11.9999997,7.66153182 Z M11.9999997,1.84615519 C9.31077745,1.85829963 6.73515523,2.93196609 4.83356634,4.8335546 C2.93197745,6.73514311 1.85829967,9.31076482 1.84615523,11.9999976 C1.85589967,13.7636639 2.31666634,15.4954414 3.1846219,17.0307744 C2.99904412,16.3384412 2.9059219,15.6244414 2.90769967,14.9076637 C2.90769967,12.4962197 3.86563301,10.183598 5.57076634,8.47845388 C7.27591078,6.77332088 9.58857745,5.81537663 11.9999997,5.81537663 C14.4114441,5.81537663 16.7241108,6.77332088 18.4292219,8.47845388 C20.134333,10.183598 21.092333,12.4962197 21.092333,14.9076637 C21.0941108,15.6244414 21.0009997,16.3384412 20.815333,17.0307744 C21.683333,15.4954414 22.1441108,13.7636639 22.1538886,11.9999976 C22.1416663,9.31076482 21.0679997,6.73514311 19.1664441,4.8335546 C17.2648886,2.93196609 14.6892219,1.85829963 11.9999997,1.84615519 Z" fill="#36393A" fill-rule="nonzero"></path>
</svg>
