<svg width="216" height="216" fill="none" xmlns="http://www.w3.org/2000/svg"><path d="M108 0a108 108 0 1 0 108 108A108.415 108.415 0 0 0 108 0Zm0 16.615A91.8 91.8 0 0 1 199.385 108a93.046 93.046 0 0 1-12.047 45.277 73.074 73.074 0 0 0 2.493-19.108 81.832 81.832 0 0 0-163.662 0 73.107 73.107 0 0 0 2.493 19.108A93.047 93.047 0 0 1 16.615 108 91.8 91.8 0 0 1 108 16.615ZM78.923 186.092a38.627 38.627 0 0 1-6.1-41.399A38.626 38.626 0 0 1 108 122.028a38.624 38.624 0 0 1 35.177 22.665 38.628 38.628 0 0 1-6.1 41.399A29.08 29.08 0 0 0 108 157.015a29.077 29.077 0 0 0-29.077 29.077Zm29.077-81a55.257 55.257 0 0 0-39.213 16.328 55.252 55.252 0 0 0-16.033 39.334 31.155 31.155 0 0 0 .83 8.723 63.554 63.554 0 0 1-10.8-35.308 65.215 65.215 0 0 1 130.431 0 63.547 63.547 0 0 1-10.8 35.308c.687-2.854.967-5.791.831-8.723a55.261 55.261 0 0 0-4.085-21.27A55.25 55.25 0 0 0 108 105.092Zm-12.462 81.831a12.46 12.46 0 0 1 14.893-12.222 12.471 12.471 0 0 1 6.381 3.41 12.471 12.471 0 0 1 2.701 13.581 12.454 12.454 0 0 1-4.59 5.592 12.454 12.454 0 0 1-6.923 2.101 12.047 12.047 0 0 1-12.462-12.462Z" fill="#36393A"/></svg>