<svg viewBox="0 0 24 24" xmlns="http://www.w3.org/2000/svg"><path d="M12 0a12.046 12.046 0 0 1 12 12A12 12 0 1 1 12 0Zm.27 19.411a1.385 1.385 0 0 0-1.655 1.358A1.339 1.339 0 0 0 12 22.154a1.384 1.384 0 0 0 .27-2.743ZM12 13.56a4.292 4.292 0 0 0-3.23 7.118 3.23 3.23 0 0 1 6.46 0A4.292 4.292 0 0 0 12 13.559Zm0-5.897a7.246 7.246 0 0 0-7.246 7.246 7.062 7.062 0 0 0 1.2 3.923 3.462 3.462 0 0 1-.092-.97 6.139 6.139 0 1 1 12.276 0c.016.326-.016.653-.092.97a7.06 7.06 0 0 0 1.2-3.923A7.246 7.246 0 0 0 12 7.662Zm0-5.816A10.2 10.2 0 0 0 1.846 12c.01 1.764.47 3.495 1.339 5.03a8.123 8.123 0 0 1-.277-2.122 9.092 9.092 0 1 1 18.184 0 8.12 8.12 0 0 1-.277 2.123A10.338 10.338 0 0 0 22.154 12 10.2 10.2 0 0 0 12 1.846Z" fill="#36393A"/></svg>