<svg width="216" height="216" viewBox="0 0 216 216" fill="none" xmlns="http://www.w3.org/2000/svg">
<path d="M108 0C86.6396 0 65.759 6.33409 47.9984 18.2013C30.2379 30.0685 16.3953 46.9358 8.22106 66.6702C0.0467944 86.4046 -2.09196 108.12 2.07524 129.07C6.24244 150.02 16.5284 169.263 31.6325 184.367C46.7366 199.472 65.9803 209.758 86.9303 213.925C107.88 218.092 129.595 215.953 149.33 207.779C169.064 199.605 185.932 185.762 197.799 168.002C209.666 150.241 216 129.36 216 108C215.891 79.3903 204.477 51.9836 184.247 31.7533C164.016 11.5231 136.61 0.109407 108 0V0ZM108 16.6154C132.203 16.7247 155.384 26.3877 172.498 43.502C189.612 60.6163 199.275 83.7969 199.385 108C199.297 123.873 195.15 139.459 187.338 153.277C189.009 147.046 189.847 140.62 189.831 134.169C189.831 112.466 181.209 91.6524 165.863 76.3061C150.517 60.9599 129.703 52.3384 108 52.3384C86.2972 52.3384 65.4832 60.9599 50.1369 76.3061C34.7907 91.6524 26.1693 112.466 26.1693 134.169C26.1533 140.62 26.9914 147.046 28.6616 153.277C20.85 139.459 16.7031 123.873 16.6154 108C16.7247 83.7969 26.3878 60.6163 43.5021 43.502C60.6164 26.3877 83.797 16.7247 108 16.6154V16.6154ZM78.9231 186.092C74.0373 180.507 70.8637 173.632 69.7819 166.29C68.7001 158.948 69.7559 151.45 72.8229 144.693C75.89 137.935 80.8385 132.204 87.0768 128.185C93.3151 124.165 100.579 122.028 108 122.028C115.421 122.028 122.685 124.165 128.923 128.185C135.162 132.204 140.11 137.935 143.177 144.693C146.244 151.45 147.3 158.948 146.218 166.29C145.136 173.632 141.963 180.507 137.077 186.092C137.077 178.381 134.013 170.985 128.561 165.532C123.108 160.079 115.712 157.015 108 157.015C100.288 157.015 92.8925 160.079 87.4395 165.532C81.9866 170.985 78.9231 178.381 78.9231 186.092ZM108 105.092C100.71 105.092 93.4918 106.535 86.7618 109.337C80.0319 112.139 73.923 116.246 68.7875 121.42C63.652 126.594 59.5912 132.734 56.8394 139.484C54.0876 146.235 52.6991 153.464 52.7539 160.754C52.6185 163.686 52.8981 166.623 53.5846 169.477C46.5699 159.036 42.8112 146.748 42.7846 134.169C42.7847 116.873 49.6555 100.285 61.8858 88.055C74.116 75.8247 90.7038 68.9538 108 68.9538C125.296 68.9538 141.884 75.8247 154.114 88.055C166.345 100.285 173.215 116.873 173.215 134.169C173.189 146.748 169.43 159.036 162.415 169.477C163.102 166.623 163.382 163.686 163.246 160.754C163.301 153.464 161.912 146.235 159.161 139.484C156.409 132.734 152.348 126.594 147.213 121.42C142.077 116.246 135.968 112.139 129.238 109.337C122.508 106.535 115.29 105.092 108 105.092V105.092ZM95.5385 186.923C95.5385 184.458 96.2693 182.049 97.6386 180C99.0079 177.95 100.954 176.353 103.231 175.41C105.508 174.467 108.014 174.22 110.431 174.701C112.848 175.182 115.069 176.369 116.812 178.111C118.554 179.854 119.741 182.075 120.222 184.492C120.703 186.909 120.456 189.415 119.513 191.692C118.57 193.969 116.973 195.915 114.923 197.284C112.874 198.654 110.465 199.385 108 199.385C106.348 199.443 104.702 199.16 103.163 198.554C101.625 197.949 100.228 197.033 99.0593 195.864C97.8904 194.695 96.9745 193.298 96.3688 191.76C95.7631 190.221 95.4805 188.575 95.5385 186.923V186.923Z" fill="#36393A"/>
</svg>
