<svg viewBox="0 0 24 24" xmlns="http://www.w3.org/2000/svg"><path d="M0 21.578c.005-.045-.012-7.797.022-8.361.047-.79.14-1.652.21-1.98.016-.077.048-.252.071-.388.023-.136.054-.287.07-.336.016-.048.048-.184.072-.3.023-.117.055-.252.07-.3.015-.05.048-.16.072-.248a7.26 7.26 0 0 1 .228-.689c.025-.058.058-.146.072-.194.083-.285.657-1.485.744-1.557.028-.023.05-.057.05-.075 0-.057.522-.815.762-1.107.324-.394.784-.858 1.2-1.209 1.928-1.652 3.964-2.103 6.04-2.354.167-.02.707-.04.87-.058.106-.015 3.176-.025 6.82-.023L24 2.402V6.45c0 1.241-.001 2.165-.007 2.881.102 3.496-.964 7.373-3.524 9.863a9.64 9.64 0 0 1-6.302 2.376c-.039.025-14.142.034-14.167.009Z" fill="#019fa0"/><path d="M9.252 16.366c.9-.173 1.205-.678 1.528-1.442a82.76 82.76 0 0 0 1.257-3.032c.437 1.28 1.195 3.149 1.763 3.93.448.42.877.594 1.463.592 1.145-.098 1.735-.626 2.06-1.49.661-2.085 1.314-4.137 1.904-6.082.148-.489.128-.98-.223-1.306-.459-.373-1.028-.322-1.388 0-.167.198-.285.45-.381.723a205.18 205.18 0 0 1-1.979 6.099c-.616-1.195-1.028-2.484-1.486-3.66-.24-.6-.502-1.359-.883-1.742a1.222 1.222 0 0 0-.896-.38c-.547-.009-1 .335-1.304 1.004-.052.115-.206.495-.342.845-.136.35-.37.946-.519 1.325-.149.38-.284.731-.299.782a2.189 2.189 0 0 1-.08.212 7.595 7.595 0 0 0-.132.332 8.32 8.32 0 0 1-.14.353 12.44 12.44 0 0 0-.194.502c-.072.198-.154.38-.18.402-.057.046-.152.02-.172-.046-.769-2.188-1.422-4.635-2.131-6.495a1.388 1.388 0 0 0-.24-.301.823.823 0 0 0-.67-.219 1.018 1.018 0 0 0-.562.241c-.307.27-.414.617-.323 1.055.622 1.993 1.175 3.828 1.744 5.656.24.766.291.912.396 1.105.253.466.756.876 1.227.999.371.119.804.125 1.182.038Z" fill="#fff"/><path d="M0 19.259v2.319c1.641.015 3.28.016 4.92.015 2.967.006 5.469.018 8.196-.005.312 0 .568-.012.856-.012 1.439.016 2.681-.228 3.859-.743.223-.088.454-.186.698-.294.414-.22.85-.495 1.316-.846.121-.091.245-.188.373-.288.063-.049.123-.102.186-.155L0 19.259Z" fill="#e71a11"/></svg>