<svg width="512" height="512" viewBox="0 0 512 512" fill="none" xmlns="http://www.w3.org/2000/svg">
<rect width="512" height="512" rx="112" fill="url(#paint0_linear_3_4)"/>
<circle cx="345" cy="214" r="92" fill="url(#paint1_linear_3_4)"/>
<g filter="url(#filter0_bi_3_4)">
<path d="M321 387.876C363.918 385.512 398 349.535 398 305.5C398 259.936 361.511 223 316.5 223C310.914 223 305.46 223.569 300.19 224.652C288.048 188.794 254.27 163 214.5 163C165.13 163 124.993 202.751 124.018 252.16C96.1918 260.995 76 287.355 76 318.5C76 356.375 105.861 387.174 143 387.984V388H321V387.876Z" fill="url(#paint2_linear_3_4)"/>
</g>
<defs>
<filter id="filter0_bi_3_4" x="46" y="133" width="382" height="285" filterUnits="userSpaceOnUse" color-interpolation-filters="sRGB">
<feFlood flood-opacity="0" result="BackgroundImageFix"/>
<feGaussianBlur in="BackgroundImageFix" stdDeviation="15"/>
<feComposite in2="SourceAlpha" operator="in" result="effect1_backgroundBlur_3_4"/>
<feBlend mode="normal" in="SourceGraphic" in2="effect1_backgroundBlur_3_4" result="shape"/>
<feColorMatrix in="SourceAlpha" type="matrix" values="0 0 0 0 0 0 0 0 0 0 0 0 0 0 0 0 0 0 127 0" result="hardAlpha"/>
<feOffset dx="3" dy="2"/>
<feGaussianBlur stdDeviation="5"/>
<feComposite in2="hardAlpha" operator="arithmetic" k2="-1" k3="1"/>
<feColorMatrix type="matrix" values="0 0 0 0 1 0 0 0 0 1 0 0 0 0 1 0 0 0 0.4 0"/>
<feBlend mode="normal" in2="shape" result="effect2_innerShadow_3_4"/>
</filter>
<linearGradient id="paint0_linear_3_4" x1="256" y1="0" x2="256" y2="512" gradientUnits="userSpaceOnUse">
<stop stop-color="#2654AA"/>
<stop offset="1" stop-color="#49A2F7"/>
</linearGradient>
<linearGradient id="paint1_linear_3_4" x1="345" y1="122" x2="345" y2="306" gradientUnits="userSpaceOnUse">
<stop stop-color="#FFC600"/>
<stop offset="1" stop-color="#FEE400"/>
</linearGradient>
<linearGradient id="paint2_linear_3_4" x1="237" y1="163" x2="237" y2="388" gradientUnits="userSpaceOnUse">
<stop stop-color="white"/>
<stop offset="1" stop-color="white" stop-opacity="0.5"/>
</linearGradient>
</defs>
</svg>
