<svg viewBox="0 0 24 24" xmlns="http://www.w3.org/2000/svg"><path d="M8.733 14.747a.766.766 0 0 1-.36.082.79.79 0 0 1-.697-.41l-.056-.11-2.197-4.722c-.027-.056-.027-.109-.027-.164 0-.22.167-.385.39-.385.084 0 .167.026.25.082l2.587 1.812c.194.109.417.191.667.191.14 0 .277-.026.417-.082l12.129-5.325c-2.17-2.526-5.757-4.173-9.82-4.173C5.396 1.543 0 5.963 0 11.423c0 2.963 1.613 5.654 4.143 7.466a.808.808 0 0 1 .334.631.748.748 0 0 1-.057.247c-.193.74-.53 1.95-.53 2.003a.992.992 0 0 0-.056.302c0 .22.167.385.39.385a.318.318 0 0 0 .223-.082l2.614-1.51a1.34 1.34 0 0 1 .64-.19c.11 0 .25.026.36.055 1.223.355 2.56.55 3.923.55 6.62 0 12.016-4.42 12.016-9.881 0-1.648-.5-3.21-1.363-4.584L8.817 14.69l-.084.056Z" fill="#09bb07"/></svg>