<svg viewBox="0 0 24 24" xmlns="http://www.w3.org/2000/svg"><path d="M16.245 8.168c.273 0 .546.025.817.049-.73-3.39-4.395-5.923-8.569-5.923C3.825 2.311 0 5.465 0 9.472c0 2.31 1.275 4.214 3.393 5.689l-.855 2.53 2.973-1.473c1.065.208 1.92.416 2.972.416.272 0 .532-.012.791-.036a6.431 6.431 0 0 1-.259-1.77c.012-3.673 3.195-6.659 7.232-6.659l-.002-.001Zm-4.569-2.283c.645 0 1.065.417 1.065 1.057 0 .625-.42 1.056-1.065 1.056-.632 0-1.275-.418-1.275-1.056 0-.64.643-1.057 1.275-1.057ZM5.731 7.998c-.63 0-1.274-.418-1.274-1.056 0-.64.645-1.057 1.274-1.057.632 0 1.066.417 1.066 1.057 0 .625-.42 1.056-1.066 1.056ZM24 14.74c0-3.367-3.393-6.118-7.221-6.118-4.037 0-7.22 2.752-7.22 6.118 0 3.378 3.183 6.12 7.22 6.12.843 0 1.698-.21 2.552-.42l2.327 1.266-.643-2.101C22.725 18.315 24 16.63 24 14.74Zm-9.561-1.057c-.42 0-.855-.417-.855-.848 0-.417.435-.848.855-.848.645 0 1.065.418 1.065.848 0 .431-.42.848-1.065.848Zm4.67 0c-.422 0-.844-.417-.844-.848 0-.417.42-.848.843-.848.644 0 1.065.418 1.065.848 0 .431-.421.848-1.064.848Z" fill="#09bb07"/></svg>