<svg viewBox="0 0 68.04 68.04" xmlns="http://www.w3.org/2000/svg"><path d="M67.99 33.022S69.564.01 33.279.01C1.189.01.187 31.677.187 31.677S-4.533 68.05 34.018 68.05c36.975 0 33.972-35.027 33.972-35.027ZM23.127 21.486c6.808-4.165 15.506-1.619 18.765 4.644.618 1.187.696 3.015.305 4.26-1.35 4.3-4.54 6.71-8.916 7.735 1.29-1.105 2.317-2.358 2.644-4.088a5.988 5.988 0 0 0-1.03-4.753 6.07 6.07 0 0 0-6.989-2.13c-2.694 1.023-4.17 3.483-3.904 6.506.247 2.808 2.377 4.628 6.364 5.319-.596.315-1.055.547-1.504.797a14.499 14.499 0 0 0-4.66 4.053c-.404.546-.682.59-1.298.213-8.015-4.9-8.53-17.201.223-22.556Zm-6 30.285c-1.287.327-2.535.81-3.85 1.242.643-4.343 5.73-8.343 10.031-7.887A11.086 11.086 0 0 0 21.212 51c-1.43.263-2.776.44-4.084.772ZM44.525 9.364c1.273.047 2.547.027 3.82.057.319.021.634.065.946.132-.285.437-.606.85-.96 1.232-.456.425-.97.84-1.626.195-.158-.155-.53-.12-.805-.123-1.266-.017-2.534-.058-3.798-.01-1.097.035-2.19.147-3.272.334-.203.037-.506.71-.413.959.22.586.541 1.233 1.016 1.608 1.756 1.386 3.623 2.63 5.386 4.006 1.714 1.337 3.31 2.803 4.282 4.82 1.266 2.629 1.303 5.385.757 8.154-.912 4.621-3.251 8.45-7.039 11.232-1.526 1.12-3.415 1.756-5.163 2.561-1.538.709-3.12 1.318-4.661 2.02-2.779 1.262-4.34 4.278-3.88 7.413.421 2.877 2.945 5.278 5.836 5.773 3.469.595 7.048-1.66 7.896-5.184.954-3.965-1.2-7.504-5.231-8.576-.178-.048-.356-.093-.726-.188 1.078-.482 2.01-.825 2.87-1.298a78.94 78.94 0 0 0 4.418-2.623c.425-.271.655-.272 1.017.042 2.773 2.397 4.427 5.379 4.891 9.035.768 6.052-2.097 11.612-7.501 14.461-8.36 4.41-18.59-.609-20.437-9.877-1.582-7.939 4.021-15.14 10.765-16.53 2.9-.598 5.552-1.805 7.614-4.039 1.33-1.441 1.975-2.678 2.195-3.235a8.974 8.974 0 0 0 .617-3.282 7.678 7.678 0 0 0-.673-2.812c-.704-1.604-3.4-4.157-4.068-4.695l-6.351-4.972c-.224-.184-.476-.171-1.023-.134-.648.044-2.307.136-3.023-.052.579-.438 2.158-1.076 2.835-1.589-2.058-1.39-4.407-.888-6.564-1.303.499-.93 2.967-2.357 4.37-2.516a20.747 20.747 0 0 0-.382-2.331c-.086-.316-.438-.622-.745-.802-.746-.437-1.536-.798-2.393-1.232a4.975 4.975 0 0 1 2.57-.795 9.598 9.598 0 0 1 2.574.25c1.53.35 2.75.122 3.967-.918-.958-.385-1.915-.738-2.844-1.154a27.899 27.899 0 0 1-2.672-1.397c2.41.335 4.74 1.238 7.203.908l.063-.336-5.722-1.332C33.87.91 37.047.857 40.054 2.322c.846.412 1.732.753 2.543 1.224.396.23.662.682.986 1.034.258.28.465.654.782.823 1.202.639 2.525.664 3.874.632l.03-.452c1.356.424 2.883 1.989 2.88 3.131-2.197 0-4.394-.008-6.59.012-.234.003-.467.174-.701.267.222.13.44.363.667.371Z" fill="#88171a"/><path d="M41.689 6.112a.336.336 0 0 0-.043.537.506.506 0 0 0 .697.186c.211-.106.419-.22.675-.355-.206-.176-.371-.32-.541-.46-.3-.247-.547-.093-.788.092Z"/></svg>