<svg viewBox="0 0 24 24" xmlns="http://www.w3.org/2000/svg"><path d="M12.01 9.64s.025 0 .037.024c3.589 2.724 9.725 9.475 7.852 11.372a11.994 11.994 0 0 1-15.789 0c-1.885-1.91 4.264-8.657 7.867-11.372.025 0 .037-.024.049-.024m6.24-7.876a11.97 11.97 0 0 0-12.51 0 .045.045 0 0 0-.024.06c0 .025.036.025.057.025 2.318-.506 5.862 1.513 6.185 1.703a.036.036 0 0 0 .049 0c.336-.203 3.855-2.209 6.185-1.703a.042.042 0 0 0 .057-.025.04.04 0 0 0 0-.06M3.617 3.458a.166.166 0 0 0-.049.037 11.988 11.988 0 0 0-1.092 15.774c0 .024.036.024.06.024.025 0 .025-.037 0-.06C1.63 16.408 6.296 9.55 8.723 6.683a.045.045 0 0 0 0-.036s0-.037-.025-.037C5.07 2.965 3.823 3.35 3.617 3.458M15.3 6.602s-.024.025-.024.037v.036c2.402 2.871 7.086 9.725 6.184 12.548v.06a.046.046 0 0 0 .06-.024 12.016 12.016 0 0 0-1.067-15.776l-.049-.037c-.205-.097-1.452-.48-5.104 3.156" fill="#107c10"/></svg>