<svg viewBox="0 0 24 24" xmlns="http://www.w3.org/2000/svg"><path d="M23.742 4.34c.129 0 .258.103.258.258v14.83c0 .128-.103.258-.258.258h-3.256a.259.259 0 0 1-.258-.259V4.573c0-.13.103-.259.258-.259h3.256v.026Zm-14.106 0c2.454 0 5.012.103 6.278 1.37 1.24 1.24 1.37 3.72 1.395 6.122v7.57c0 .129-.103.258-.258.258h-3.255a.259.259 0 0 1-.259-.259v-7.698c0-1.343-.077-2.739-.775-3.41-.594-.594-1.705-.724-2.867-.775H4.03a.259.259 0 0 0-.258.258v11.651c0 .13-.104.259-.259.259H.258A.259.259 0 0 1 0 19.427V4.573c0-.13.103-.259.258-.259h9.378v.026Zm.724 5.89c.129 0 .258.104.258.259V19.4c0 .13-.104.259-.258.259H6.95a.259.259 0 0 1-.259-.259V10.49c0-.13.103-.259.258-.259h3.41Z" fill="#ff6900"/></svg>