<svg clip-rule="evenodd" fill-rule="evenodd" stroke-linejoin="round" stroke-miterlimit="2" viewBox="0 0 560 400" xmlns="http://www.w3.org/2000/svg"><path d="m386.92 93.26c-25.56-25.38-62.1-28.26-106.92-28.26s-81.54 2.88-106.92 28.26c-25.56 25.56-28.08 62.1-28.08 106.92s2.52 81.36 28.08 106.92c25.38 25.38 62.1 27.9 106.92 27.9s81.54-2.52 106.92-28.08c25.38-25.38 28.08-62.1 28.08-106.92 0-44.64-2.7-81.36-28.08-106.74z" fill="#ff6900"/><g fill="#fff"><path d="m361.9 149.42c.9 0 1.8.72 1.8 1.8v103.32c0 .9-.72 1.8-1.8 1.8h-22.68c-.9 0-1.8-.72-1.8-1.8v-103.5c0-.9.72-1.8 1.8-1.8h22.68z"/><path d="m263.62 149.42c17.1 0 34.92.72 43.74 9.54 8.64 8.64 9.54 25.92 9.72 42.66v52.74c0 .9-.72 1.8-1.8 1.8h-22.68c-.9 0-1.8-.72-1.8-1.8v-53.64c0-9.36-.54-19.08-5.4-23.76-4.14-4.14-11.88-5.04-19.98-5.4h-40.86c-.9 0-1.8.72-1.8 1.8v81.18c0 .9-.72 1.8-1.8 1.8h-22.68c-.9 0-1.8-.72-1.8-1.8v-103.5c0-.9.72-1.8 1.8-1.8h65.34z"/><path d="m268.66 190.46c.9 0 1.8.72 1.8 1.8v62.1c0 .9-.72 1.8-1.8 1.8h-23.76c-.9 0-1.8-.72-1.8-1.8v-62.1c0-.9.72-1.8 1.8-1.8z"/></g></svg>