<svg viewBox="0 0 24 24" xmlns="http://www.w3.org/2000/svg"><path d="M3.059 7.785h1.57c.014 2.325.009 4.651.01 6.976.008.476-.115 1.004-.52 1.301-.444.346-1.036.23-1.559.25a29.968 29.968 0 0 1-.593-1.35c.276 0 .553.006.828-.01a.242.242 0 0 0 .245-.3c.012-2.29 0-4.58.019-6.867Zm6.458-.104c.539-.008 1.078 0 1.612 0-.28.717-.68 1.393-.898 2.13.451.192 1.008.032 1.497.09-.402.939-.851 1.859-1.23 2.81.346.07.71.045 1.065.045-.196.448-.396.893-.595 1.338-.61-.01-1.222.026-1.831-.016-.336 0-.644-.345-.52-.682.222-.681.568-1.314.832-1.98-.38-.024-.835.084-1.145-.197-.242-.241-.101-.593.013-.86.408-.89.808-1.783 1.2-2.678Zm8.378.006h1.594v.599c.764-.03 1.655-.028 2.207.591.593.656.401 1.601.436 2.405.575.01 1.22.146 1.575.646.418.59.253 1.35.287 2.025-.022.641.137 1.416-.393 1.907-.557.602-1.45.418-2.182.46-.223-.45-.413-.914-.608-1.376.444-.013.889.017 1.332-.015a.26.26 0 0 0 .244-.275c.022-.425.022-.851 0-1.276.008-.3-.304-.492-.576-.469-.776-.011-1.55 0-2.327 0v3.406H17.89v-3.408h-1.594v-1.6c.53 0 1.06 0 1.59-.009.01-.46.01-.924 0-1.391-.352-.006-.704-.01-1.058-.007V8.296h1.057l.01-.61Zm1.586 2.209c0 .468.003.936.01 1.404h1.076c0-.421.027-.844-.017-1.266-.263-.279-.724-.089-1.07-.138Zm-7.277-1.608h3.652v1.604h-1.004v4.81c.513.006 1.026 0 1.539.006v1.6h-5.348c.24-.534.482-1.068.73-1.6.478 0 .957 0 1.435-.006V9.896h-1c-.005-.538-.007-1.074-.004-1.608Zm10.52.147c.403-.334 1.072-.115 1.223.377.192.451-.169 1.01-.648 1.054-.298.026-.597.011-.896.01.02-.483-.126-1.106.32-1.44ZM.39 9.89c.527 0 1.052.008 1.577-.013-.032.9-.132 1.797-.189 2.695-.067 1.056-.306 2.143-.951 3.006A64.662 64.662 0 0 1 0 13.735c.083-.224.134-.46.152-.698.073-1.042.154-2.097.238-3.147Zm5.31 0h1.592c.08 1.047.164 2.093.24 3.14.015.242.067.481.152.708-.27.617-.542 1.232-.826 1.843-.597-.796-.849-1.79-.933-2.764-.084-.973-.149-1.953-.226-2.927Zm1.975 6.298c.244-.537.49-1.073.738-1.607.82.211 1.673.091 2.51.124-.24.536-.485 1.07-.731 1.604-.837-.045-1.701.12-2.517-.121Z" fill="#ff2741"/></svg>