<?xml version="1.0" encoding="utf-8"?>
<!-- Generator: Adobe Illustrator 25.4.1, SVG Export Plug-In . SVG Version: 6.00 Build 0)  -->
<svg version="1.2" baseProfile="tiny" id="Layer_1" xmlns="http://www.w3.org/2000/svg" xmlns:xlink="http://www.w3.org/1999/xlink"
	 x="0px" y="0px" viewBox="0 0 1972 548" overflow="visible" xml:space="preserve">
<g transform="translate(0.000000,589.000000) scale(0.100000,-0.100000)">
	<path d="M37.5,5834c-38-55-46-79-29-86c5-1,44-79,86-173c43-93,93-204,112-245c60-127,80-174,88-198c4-13,52-118,106-234
		c54-115,99-211,99-213s39-85,86-185c47-100,98-214,114-253c15-40,83-189,150-332c154-328,227-488,250-545c19-48,174-385,246-537
		l44-93V1618l1-1123l40-42l40-43h369h369l40,43l40,42l1,1110v1109l34,76c19,41,68,152,110,245c41,94,124,277,185,407
		c60,131,135,295,164,365c30,70,86,196,125,278c175,376,272,586,272,591c0,7,52,125,98,224c192,411,392,856,392,873c0,5-13,28-30,52
		c-16,24-30,48-30,54c0,8-126,11-411,11c-349,0-413-2-425-15c-8-8-21-18-28-22c-13-8-52-85-151-303c-29-63-80-171-113-240
		c-62-131-122-265-122-274c0-3-20-47-44-98s-75-160-114-243c-38-82-112-242-164-355s-119-260-148-327l-53-121l-44,96
		c-164,358-249,546-273,607c-15,39-58,135-95,215s-101,219-142,310s-88,194-105,230c-16,36-46,103-65,150s-62,144-95,217
		c-50,108-66,134-90,144c-15,6-28,15-28,20s-182,9-412,9l-413-1L37.5,5834z"/>
	<path d="M4387.5,5845l-38-42V3149l1-2654l40-42l40-43h1473h1473l46,42l47,42v361v361l-44,37l-45,37h-1065h-1066v710v710h983h983
		l47,48l47,48v350v350l-48,47l-48,47h-982h-982v705v705h1068l1067,1l43,40l42,40v358v357l-47,42l-46,42l-1476-1l-1476-1L4387.5,5845
		z"/>
	<path d="M8327.5,5845l-38-42V3149l1-2654l40-42l40-43h1478h1479l41,41l41,41v363v363l-42,36l-42,36h-1068h-1068v710v710h983h983
		l42,43l42,43v360v360l-43,42l-43,42h-982h-982v705v705h1066h1067l43,36l44,35v364v364l-42,40l-43,40h-1480l-1480-1L8327.5,5845z"/>
	<path d="M12351.5,5847l-42-42v-363v-362l41-38l42-37l923-5l923-5l-40-70c-23-38-71-128-107-200c-84-167-223-430-327-620
		c-92-168-148-275-151-290c-1-6-27-56-59-113l-57-102h-438h-438l-41-46l-41-47v-356v-355l42-43l42-43h209h208l-47-87
		c-26-49-64-117-84-153c-21-36-76-139-122-230c-47-91-145-275-218-410s-175-326-225-425s-101-196-113-215c-21-34-22-44-22-365l1-330
		l40-43l40-42h1520h1520l45,42l44,41v364v363l-41,38l-42,37l-1028,5l-1029,5l95,175c52,96,133,249,179,340c107,212,284,549,375,715
		c39,72,74,140,77,153l6,22h447h447l42,43l42,43v354v355l-41,47l-40,48l-219,2l-218,3l80,150c44,83,114,213,156,290s110,208,152,290
		c42,83,130,249,195,370s149,279,187,350l67,130v310v310l-40,43l-40,42h-1417l-1417-1L12351.5,5847z"/>
	<path d="M16081.5,5837c-18-29-32-58-32-64s11-35,24-64c13-30,42-97,64-149s66-149,97-215s79-169,107-230c28-60,69-150,93-200
		c23-49,53-117,68-150c75-174,152-343,357-780c23-49,58-128,77-175c20-47,83-186,140-310c159-340,269-582,278-609c4-14,23-56,41-95
		l34-70V1610l1-1115l40-42l40-43h369h370l35,38l34,37l1,1112v1111l49,104c97,206,234,504,246,538c14,39,91,210,130,292
		c42,85,271,590,285,628c8,19,53,120,102,223c48,104,88,190,88,192s41,90,91,197c50,106,102,221,115,255s57,134,99,223
		c41,89,75,163,75,165s27,61,60,130l61,125l-26,28c-14,15-31,39-38,55l-12,27h-412c-227,0-413-4-413-8c0-5-11-14-25-20
		c-26-12-106-166-170-327c-15-38-50-117-78-175c-27-58-73-157-102-220s-77-167-108-230c-77-163-128-273-131-285s-14-37-114-255
		c-44-96-109-236-144-310c-36-74-67-142-70-150c-5-14-74,120-93,181c-4,13-48,112-98,219c-173,376-299,656-327,725
		c-15,39-56,131-90,205s-97,212-140,305c-43,94-92,201-109,238c-21,44-40,72-56,79c-14,6-25,15-25,20c0,4-186,8-413,8h-413
		L16081.5,5837z"/>
</g>
</svg>
