<?xml version="1.0" encoding="UTF-8" standalone="no"?>
<!DOCTYPE svg PUBLIC "-//W3C//DTD SVG 1.1//EN" "http://www.w3.org/Graphics/SVG/1.1/DTD/svg11.dtd">
<!-- Created with Vectornator (http://vectornator.io/) -->
<svg stroke-miterlimit="10" style="fill-rule:nonzero;clip-rule:evenodd;stroke-linecap:round;stroke-linejoin:round;" version="1.1" viewBox="0 0 24 24" xml:space="preserve" xmlns="http://www.w3.org/2000/svg" xmlns:xlink="http://www.w3.org/1999/xlink">
<defs/>
<clipPath id="ArtboardFrame">
<rect height="24" width="24" x="0" y="0"/>
</clipPath>
<g clip-path="url(#ArtboardFrame)" id="layer1">
<g opacity="1">
<path d="M11.2976 6.82229C11.2976 6.43035 11.6153 6.11262 12.0073 6.11262C12.3992 6.11262 12.717 6.43035 12.717 6.82229C12.717 7.21423 12.3992 7.53196 12.0073 7.53196C11.6153 7.53196 11.2976 7.21423 11.2976 6.82229Z" fill="#000000" fill-rule="nonzero" opacity="1" stroke="none"/>
<path d="M11.2976 3.78251C11.2976 3.39057 11.6153 3.07284 12.0073 3.07284C12.3992 3.07284 12.717 3.39057 12.717 3.78251C12.717 4.17445 12.3992 4.49218 12.0073 4.49218C11.6153 4.49218 11.2976 4.17445 11.2976 3.78251Z" fill="#000000" fill-rule="nonzero" opacity="1" stroke="none"/>
<path d="M11.2976 0.709671C11.2976 0.317731 11.6153-1.77636e-15 12.0073-1.77636e-15C12.3992-1.77636e-15 12.717 0.317731 12.717 0.709671C12.717 1.10161 12.3992 1.41934 12.0073 1.41934C11.6153 1.41934 11.2976 1.10161 11.2976 0.709671Z" fill="#000000" fill-rule="nonzero" opacity="1" stroke="none"/>
<path d="M14.9807 8.32925C14.9807 7.93731 15.2984 7.61958 15.6904 7.61958C16.0823 7.61958 16.4001 7.93731 16.4001 8.32925C16.4001 8.72119 16.0823 9.03892 15.6904 9.03892C15.2984 9.03892 14.9807 8.72119 14.9807 8.32925Z" fill="#000000" fill-rule="nonzero" opacity="1" stroke="none"/>
<path d="M17.1325 6.1857C17.1325 5.79376 17.4502 5.47603 17.8422 5.47603C18.2341 5.47603 18.5519 5.79376 18.5519 6.1857C18.5519 6.57764 18.2341 6.89537 17.8422 6.89537C17.4502 6.89537 17.1325 6.57764 17.1325 6.1857Z" fill="#000000" fill-rule="nonzero" opacity="1" stroke="none"/>
<path d="M19.2861 4.02728C19.2861 3.63534 19.6038 3.3176 19.9958 3.3176C20.3877 3.3176 20.7054 3.63534 20.7054 4.02728C20.7054 4.41922 20.3877 4.73695 19.9958 4.73695C19.6038 4.73695 19.2861 4.41922 19.2861 4.02728Z" fill="#000000" fill-rule="nonzero" opacity="1" stroke="none"/>
<path d="M11.2976 23.2903C11.2976 22.8984 11.6153 22.5807 12.0073 22.5807C12.3992 22.5807 12.717 22.8984 12.717 23.2903C12.717 23.6823 12.3992 24 12.0073 24C11.6153 24 11.2976 23.6823 11.2976 23.2903Z" fill="#000000" fill-rule="nonzero" opacity="1" stroke="none"/>
<path d="M11.2976 20.2505C11.2976 19.8586 11.6153 19.5409 12.0073 19.5409C12.3992 19.5409 12.717 19.8586 12.717 20.2505C12.717 20.6425 12.3992 20.9602 12.0073 20.9602C11.6153 20.9602 11.2976 20.6425 11.2976 20.2505Z" fill="#000000" fill-rule="nonzero" opacity="1" stroke="none"/>
<path d="M11.2976 17.1777C11.2976 16.7858 11.6153 16.468 12.0073 16.468C12.3992 16.468 12.717 16.7858 12.717 17.1777C12.717 17.5696 12.3992 17.8874 12.0073 17.8874C11.6153 17.8874 11.2976 17.5696 11.2976 17.1777Z" fill="#000000" fill-rule="nonzero" opacity="1" stroke="none"/>
<path d="M3.31848 19.9915C3.31848 19.5995 3.63621 19.2818 4.02815 19.2818C4.42009 19.2818 4.73782 19.5995 4.73782 19.9915C4.73782 20.3834 4.42009 20.7011 4.02815 20.7011C3.63621 20.7011 3.31848 20.3834 3.31848 19.9915Z" fill="#000000" fill-rule="nonzero" opacity="1" stroke="none"/>
<path d="M5.47029 17.8479C5.47029 17.456 5.78802 17.1383 6.17996 17.1383C6.5719 17.1383 6.88963 17.456 6.88963 17.8479C6.88963 18.2399 6.5719 18.5576 6.17996 18.5576C5.78802 18.5576 5.47029 18.2399 5.47029 17.8479Z" fill="#000000" fill-rule="nonzero" opacity="1" stroke="none"/>
<path d="M7.62388 15.6895C7.62388 15.2976 7.94161 14.9798 8.33355 14.9798C8.72549 14.9798 9.04322 15.2976 9.04322 15.6895C9.04322 16.0814 8.72549 16.3992 8.33355 16.3992C7.94161 16.3992 7.62388 16.0814 7.62388 15.6895Z" fill="#000000" fill-rule="nonzero" opacity="1" stroke="none"/>
<path d="M16.5018 12.0072C16.5018 11.6153 16.8196 11.2976 17.2115 11.2976C17.6035 11.2976 17.9212 11.6153 17.9212 12.0072C17.9212 12.3992 17.6035 12.7169 17.2115 12.7169C16.8196 12.7169 16.5018 12.3992 16.5018 12.0072Z" fill="#000000" fill-rule="nonzero" opacity="1" stroke="none"/>
<path d="M19.5391 12.0072C19.5391 11.6153 19.8568 11.2976 20.2488 11.2976C20.6407 11.2976 20.9585 11.6153 20.9585 12.0072C20.9585 12.3992 20.6407 12.7169 20.2488 12.7169C19.8568 12.7169 19.5391 12.3992 19.5391 12.0072Z" fill="#000000" fill-rule="nonzero" opacity="1" stroke="none"/>
<path d="M22.5764 12.0072C22.5764 11.6153 22.8941 11.2976 23.2861 11.2976C23.678 11.2976 23.9957 11.6153 23.9957 12.0072C23.9957 12.3992 23.678 12.7169 23.2861 12.7169C22.8941 12.7169 22.5764 12.3992 22.5764 12.0072Z" fill="#000000" fill-rule="nonzero" opacity="1" stroke="none"/>
<path d="M0.00426411 12.0072C0.00426411 11.6153 0.321995 11.2976 0.713935 11.2976C1.10588 11.2976 1.42361 11.6153 1.42361 12.0072C1.42361 12.3992 1.10588 12.7169 0.713935 12.7169C0.321995 12.7169 0.00426411 12.3992 0.00426411 12.0072Z" fill="#000000" fill-rule="nonzero" opacity="1" stroke="none"/>
<path d="M3.04154 12.0072C3.04154 11.6153 3.35927 11.2976 3.75121 11.2976C4.14315 11.2976 4.46088 11.6153 4.46088 12.0072C4.46088 12.3992 4.14315 12.7169 3.75121 12.7169C3.35927 12.7169 3.04154 12.3992 3.04154 12.0072Z" fill="#000000" fill-rule="nonzero" opacity="1" stroke="none"/>
<path d="M6.07882 12.0072C6.07882 11.6153 6.39655 11.2976 6.78849 11.2976C7.18043 11.2976 7.49816 11.6153 7.49816 12.0072C7.49816 12.3992 7.18043 12.7169 6.78849 12.7169C6.39655 12.7169 6.07882 12.3992 6.07882 12.0072Z" fill="#000000" fill-rule="nonzero" opacity="1" stroke="none"/>
<path d="M3.31403 4.02618C3.31403 3.63424 3.63176 3.31651 4.0237 3.31651C4.41564 3.31651 4.73338 3.63424 4.73338 4.02618C4.73338 4.41812 4.41564 4.73585 4.0237 4.73585C3.63176 4.73585 3.31403 4.41812 3.31403 4.02618Z" fill="#000000" fill-rule="nonzero" opacity="1" stroke="none"/>
<path d="M5.4642 6.17977C5.4642 5.78783 5.78193 5.4701 6.17387 5.4701C6.56581 5.4701 6.88354 5.78783 6.88354 6.17977C6.88354 6.57171 6.56581 6.88944 6.17387 6.88944C5.78193 6.88944 5.4642 6.57171 5.4642 6.17977Z" fill="#000000" fill-rule="nonzero" opacity="1" stroke="none"/>
<path d="M7.62426 8.33571C7.62426 7.94376 7.942 7.62603 8.33394 7.62603C8.72588 7.62603 9.04361 7.94376 9.04361 8.33571C9.04361 8.72765 8.72588 9.04538 8.33394 9.04538C7.942 9.04538 7.62426 8.72765 7.62426 8.33571Z" fill="#000000" fill-rule="nonzero" opacity="1" stroke="none"/>
<path d="M14.9701 15.6859C14.9701 15.2939 15.2878 14.9762 15.6798 14.9762C16.0717 14.9762 16.3894 15.2939 16.3894 15.6859C16.3894 16.0778 16.0717 16.3956 15.6798 16.3956C15.2878 16.3956 14.9701 16.0778 14.9701 15.6859Z" fill="#000000" fill-rule="nonzero" opacity="1" stroke="none"/>
<path d="M17.1202 17.8395C17.1202 17.4475 17.438 17.1298 17.8299 17.1298C18.2218 17.1298 18.5396 17.4475 18.5396 17.8395C18.5396 18.2314 18.2218 18.5491 17.8299 18.5491C17.438 18.5491 17.1202 18.2314 17.1202 17.8395Z" fill="#000000" fill-rule="nonzero" opacity="1" stroke="none"/>
<path d="M19.2803 19.9954C19.2803 19.6035 19.598 19.2857 19.99 19.2857C20.3819 19.2857 20.6997 19.6035 20.6997 19.9954C20.6997 20.3874 20.3819 20.7051 19.99 20.7051C19.598 20.7051 19.2803 20.3874 19.2803 19.9954Z" fill="#000000" fill-rule="nonzero" opacity="1" stroke="none"/>
</g>
</g>
</svg>
