<svg viewBox="0 0 24 24" xmlns="http://www.w3.org/2000/svg"><path d="M11.298 6.822a.71.71 0 1 1 1.419 0 .71.71 0 0 1-1.42 0Zm0-3.04a.71.71 0 1 1 1.419 0 .71.71 0 0 1-1.42 0Zm0-3.072a.71.71 0 1 1 1.419 0 .71.71 0 0 1-1.42 0Zm3.683 7.62a.71.71 0 1 1 1.419 0 .71.71 0 0 1-1.42 0Zm2.152-2.144a.71.71 0 1 1 1.419 0 .71.71 0 0 1-1.42 0Zm2.153-2.159a.71.71 0 1 1 1.42 0 .71.71 0 0 1-1.42 0ZM11.298 23.29a.71.71 0 1 1 1.419 0 .71.71 0 0 1-1.42 0Zm0-3.04a.71.71 0 1 1 1.419 0 .71.71 0 0 1-1.42 0Zm0-3.072a.71.71 0 1 1 1.419 0 .71.71 0 0 1-1.42 0Zm-7.98 2.813a.71.71 0 1 1 1.42 0 .71.71 0 0 1-1.42 0Zm2.152-2.143a.71.71 0 1 1 1.42 0 .71.71 0 0 1-1.42 0Zm2.154-2.158a.71.71 0 1 1 1.42 0 .71.71 0 0 1-1.42 0Zm8.878-3.683a.71.71 0 1 1 1.42 0 .71.71 0 0 1-1.42 0Zm3.037 0a.71.71 0 1 1 1.42 0 .71.71 0 0 1-1.42 0Zm3.037 0a.71.71 0 1 1 1.42 0 .71.71 0 0 1-1.42 0Zm-22.572 0a.71.71 0 1 1 1.42 0 .71.71 0 0 1-1.42 0Zm3.038 0a.71.71 0 1 1 1.419 0 .71.71 0 0 1-1.42 0Zm3.037 0a.71.71 0 1 1 1.42 0 .71.71 0 0 1-1.42 0Zm-2.765-7.98a.71.71 0 1 1 1.42 0 .71.71 0 0 1-1.42 0Zm2.15 2.153a.71.71 0 1 1 1.42 0 .71.71 0 0 1-1.42 0Zm2.16 2.156a.71.71 0 1 1 1.42 0 .71.71 0 0 1-1.42 0Zm7.346 7.35a.71.71 0 1 1 1.42 0 .71.71 0 0 1-1.42 0Zm2.15 2.154a.71.71 0 1 1 1.42 0 .71.71 0 0 1-1.42 0Zm2.16 2.155a.71.71 0 1 1 1.42 0 .71.71 0 0 1-1.42 0Z"/></svg>