<?xml version="1.0" encoding="UTF-8"?>
<svg viewBox="0 0 8 9" version="1.1" xmlns="http://www.w3.org/2000/svg" xmlns:xlink="http://www.w3.org/1999/xlink">
    <title>Group</title>
    <g id="Page-1" stroke="none" stroke-width="1" fill="none" fill-rule="evenodd">
        <g id="Group" transform="translate(0.470412, 0.184177)" fill-rule="nonzero">
            <path d="M1.54615,0.000342753959 C1.20569036,0.0075327053 0.868022127,0.127149788 0.601084499,0.33900393 C0.264203075,0.603138141 0.0428094404,1.01015413 0.00760934688,1.43725238 C-0.0541878687,2.04270036 0.275661414,2.66039293 0.807838195,2.95320846 C1.41693673,3.30729945 2.02914229,3.65616711 2.63719761,4.01234315 C3.68147701,4.61700878 4.72706246,5.21882807 5.77134103,5.82375483 C6.11552329,5.62376374 6.40704087,5.32987743 6.58929952,4.97448337 C6.82736059,4.51818097 6.88708646,3.97377515 6.7601029,3.47549298 C6.6537186,3.05048033 6.40861254,2.66170204 6.06990612,2.3840091 C5.89599096,2.23773205 5.69311323,2.13291969 5.49781536,2.01845361 C4.46266095,1.42108881 3.42778278,0.823185231 2.39236667,0.226080468 C2.20489306,0.11682963 1.99706738,0.0401950047 1.78143447,0.0135989998 C1.70340638,0.00303891589 1.62471772,-0.00131633667 1.54615,0.000342753959 L1.54615,0.000342753959 Z" id="path9-path" fill="#FC0160"></path>
            <path d="M2.61193976,3.99750472 C2.0085779,4.35081256 1.40442309,4.70256909 0.798455007,5.05118391 C0.41385627,5.26838427 0.129110217,5.65242001 0.0370672711,6.08473336 C-0.0536690708,6.48706107 0.0242914346,6.92358395 0.24774861,7.27037485 C0.46651257,7.61846796 0.828417515,7.87213653 1.22996439,7.96078982 C1.61847316,8.05126758 2.03803486,7.98272239 2.38091054,7.78038507 C3.51123844,7.12878518 4.64153812,6.47665745 5.7713412,5.82375475 C4.72706369,5.21882796 3.68147734,4.61700864 2.6371976,4.01234297 L2.61193976,3.99750472 Z" id="path18-path" fill="#08A9FD"></path>
        </g>
    </g>
</svg>