<?xml version="1.0" encoding="UTF-8" standalone="no"?>
<svg
   xmlns:dc="http://purl.org/dc/elements/1.1/"
   xmlns:cc="http://creativecommons.org/ns#"
   xmlns:rdf="http://www.w3.org/1999/02/22-rdf-syntax-ns#"
   xmlns:svg="http://www.w3.org/2000/svg"
   xmlns="http://www.w3.org/2000/svg"
   xmlns:sodipodi="http://sodipodi.sourceforge.net/DTD/sodipodi-0.dtd"
   xmlns:inkscape="http://www.inkscape.org/namespaces/inkscape"
   width="100"
   height="20"
   viewBox="0 0 75.000003 14.999999"
   version="1.1"
   id="svg24"
   sodipodi:docname="YK.svg"
   inkscape:version="1.0.1 (3bc2e813f5, 2020-09-07)">
  <title
     id="title32">Youku logo</title>
  <metadata
     id="metadata30">
    <rdf:RDF>
      <cc:Work
         rdf:about="">
        <dc:format>image/svg+xml</dc:format>
        <dc:type
           rdf:resource="http://purl.org/dc/dcmitype/StillImage" />
        <dc:title>Youku logo</dc:title>
        <cc:license
           rdf:resource="http://scripts.sil.org/OFL" />
        <dc:date>10 dic 2020</dc:date>
      </cc:Work>
      <cc:License
         rdf:about="http://scripts.sil.org/OFL">
        <cc:permits
           rdf:resource="http://scripts.sil.org/pub/OFL/Reproduction" />
        <cc:permits
           rdf:resource="http://scripts.sil.org/pub/OFL/Distribution" />
        <cc:permits
           rdf:resource="http://scripts.sil.org/pub/OFL/Embedding" />
        <cc:permits
           rdf:resource="http://scripts.sil.org/pub/OFL/DerivativeWorks" />
        <cc:requires
           rdf:resource="http://scripts.sil.org/pub/OFL/Notice" />
        <cc:requires
           rdf:resource="http://scripts.sil.org/pub/OFL/Attribution" />
        <cc:requires
           rdf:resource="http://scripts.sil.org/pub/OFL/ShareAlike" />
        <cc:requires
           rdf:resource="http://scripts.sil.org/pub/OFL/DerivativeRenaming" />
        <cc:requires
           rdf:resource="http://scripts.sil.org/pub/OFL/BundlingWhenSelling" />
      </cc:License>
    </rdf:RDF>
  </metadata>
  <defs
     id="defs28" />
  <sodipodi:namedview
     pagecolor="#ffffff"
     bordercolor="#666666"
     borderopacity="1"
     objecttolerance="10"
     gridtolerance="10"
     guidetolerance="10"
     inkscape:pageopacity="0"
     inkscape:pageshadow="2"
     inkscape:window-width="1366"
     inkscape:window-height="745"
     id="namedview26"
     showgrid="false"
     showborder="true"
     inkscape:showpageshadow="false"
     units="px"
     inkscape:zoom="1"
     inkscape:cx="111.46756"
     inkscape:cy="3.8208363"
     inkscape:window-x="-8"
     inkscape:window-y="-8"
     inkscape:window-maximized="1"
     inkscape:current-layer="svg24"
     inkscape:document-rotation="0" />
  <g
     id="#ff3c70ff"
     transform="matrix(0.13962218,0,0,0.13962218,-8.627835,-48.101413)"
     style="fill:#fc0160;fill-opacity:1" />
  <g
     id="#00bfffff"
     transform="matrix(0.14061978,0,0,0.14061978,-8.8910677,-51.447651)"
     style="fill:#00ff00">
    <g
       id="g171">
      <path
         id="path9"
         style="fill:#fc0160;fill-opacity:1;stroke-width:3.06671"
         d="m -543.39258,-257.19922 c -12.18939,0.25742 -24.27884,4.54004 -33.83594,12.125 -12.06128,9.45673 -19.98778,24.02902 -21.24804,39.32031 -2.21251,21.6767 9.597,43.79179 28.65039,54.27539 21.8074,12.67743 43.72604,25.16785 65.49609,37.91993 37.38807,21.64869 74.8229,43.195473 112.21094,64.853512 12.32267,-7.16023 22.7598,-17.682167 29.28516,-30.40625 8.52324,-16.336879 10.66159,-35.828102 6.11523,-53.667972 -3.80885,-15.21662 -12.58432,-29.13595 -24.71094,-39.07812 -6.22664,-5.23712 -13.49022,-8.98969 -20.48242,-13.08789 -37.06137,-21.3873 -74.11285,-42.79389 -111.18359,-64.17188 -6.71207,-3.91148 -14.1528,-6.65521 -21.87305,-7.60742 -2.79362,-0.37808 -5.61089,-0.53401 -8.42383,-0.47461 z m -1265.58982,24.14649 c -5.1304,-0.0714 -10.2865,1.32463 -14.5664,4.22265 -13.8922,8.03477 -16.2832,29.25502 -4.5684,40.20313 26.435,26.89493 53.1453,53.51503 79.7949,80.19531 0.5214,30.23765 -0.1846,60.443388 0.2754,90.65039 -0.6746,14.6281411 13.8625,27.3557245 28.3067,24.9023438 14.1374,0.1840084 24.932,-14.1674675 24.4414,-27.5996098 0,-29.44029 -0.062,-58.881947 -0.031,-88.322264 26.1896,-26.40426 52.564,-52.59418 78.6309,-79.1211 13.0335,-11.83747 9.3221,-35.75675 -7.0235,-42.6875 -10.7947,-5.18271 -24.0732,-1.71824 -31.832,7.14454 -22.2642,22.1722 -44.2529,44.65179 -66.7012,66.60937 -23.1535,-22.75494 -45.8151,-45.9697 -68.9687,-68.72461 -4.6058,-4.86456 -11.1616,-7.38088 -17.7578,-7.47265 z m 617.5918,0.0488 c -12.3186,0.24005 -24.4271,9.02135 -25.625,21.95899 -1.1654,37.81239 0.1829,75.71747 -0.6758,113.560545 -0.92,20.761551 -14.2595,40.542443 -33.7637,48.117187 -22.5709,9.997448 -51.1538,1.287286 -64.8926,-19.044921 -6.624,-9.322741 -9.6292,-20.730775 -10.0585,-32.046871 -0.552,-36.83106 0.4905,-73.72306 -0.5215,-110.52344 -1.5027,-16.83616 -20.9455,-25.91461 -35.8496,-20.08789 -11.5615,4.56939 -17.204,17.41898 -16.5293,29.28711 0.061,33.7337 -0.2454,67.46747 -0.092,101.20117 0.552,30.298977 12.88,60.598466 35.8496,80.777342 33.6416,31.341674 88.2607,36.186687 127.1465,11.898438 31.0656,-18.522856 50.8145,-53.545032 51.6425,-89.609375 0.031,-35.757735 -0.2142,-71.545625 -0.1836,-107.333985 0.5521,-10.97879 -5.9503,-22.14065 -16.2851,-26.25 -3.2469,-1.36851 -6.7129,-1.97151 -10.1621,-1.9043 z m -308.1699,0.73438 c -13.4884,-0.02 -26.9529,1.50542 -39.3887,7.08008 -28.3363,11.37746 -51.1435,35.5152 -60.8653,64.46484 -7.7588,21.19092 -5.2766,44.15544 -5.3691,66.265626 0.46,54.587159 50.3511,103.358736 105.0918,101.5800778 0.1776,0.00997 0.3541,-0.00997 0.5313,0 0.1777,-0.00997 0.3531,0.00997 0.5312,0 54.7404,1.7786582 104.6298,-46.9929188 105.0898,-101.5800778 -0.093,-22.110186 2.3898,-45.074706 -5.3691,-66.265626 -9.7213,-28.94964 -32.5291,-53.08738 -60.8652,-64.46484 -12.436,-5.5746 -25.8983,-7.10088 -39.3867,-7.08008 z m 0,51.71875 v 0 c 27.4469,0.6016 53.447,24.10935 52.8691,52.51758 -0.5213,17.69484 3.072,36.849246 -5.5762,53.164059 -8.8012,17.234866 -27.318,29.47081 -46.8222,29.533203 -0.1602,0.0076 -0.3123,-0.03531 -0.4707,-0.0293 -0.16,-0.0049 -0.3136,0.03731 -0.4727,0.0293 -19.5043,-0.06329 -38.0207,-12.298337 -46.8223,-29.533203 -8.6481,-16.314789 -5.0547,-35.469219 -5.5761,-53.164059 -0.5772,-28.40823 25.4224,-51.91598 52.8691,-52.51758 z"
         transform="matrix(0.35889657,0,0,0.35889657,723.30875,459.15818)" />
      <path
         id="path18"
         style="fill:#08a9fd;fill-opacity:1;stroke-width:3.06671"
         d="m -886.60547,-233.17383 c -2.57127,0.0643 -5.15622,0.52405 -7.67187,1.42969 -11.04012,3.92536 -18.33799,15.30221 -17.41797,26.98633 0.12279,37.78172 -0.61416,75.59463 0.36719,113.345701 2.26937,53.575209 51.52122,100.373804 105.34179,98.5644528 54.61791,3.0053782 105.27928,-44.2830798 107.64063,-98.6249998 0.49039,-35.727064 -0.0298,-71.454004 0.24609,-107.150394 -0.12265,-7.97341 0.67451,-16.8056 -4.63086,-23.42968 -6.65476,-10.21214 -20.57785,-13.15605 -31.55664,-9.13868 -10.39609,4.23203 -16.95864,15.3628 -16.5293,26.4336 -0.0613,35.75771 0.1214,71.5163 -0.0625,107.304685 -0.12268,19.381516 -12.41968,37.720243 -29.5625,46.429687 -15.42553,7.942762 -34.86866,7.788901 -50.04882,-0.644531 -16.56018,-8.832098 -28.0296,-26.679467 -28.24415,-45.570312 -0.98136,-36.800409 0.27606,-73.662509 -0.61328,-110.462889 0.10349,-14.64542 -13.37296,-25.8199 -27.25781,-25.47266 z m -68.97851,0.11914 c -1.3438,-0.0159 -2.69654,0.0915 -4.04493,0.33008 -8.15739,-0.33731 -14.38249,5.73444 -19.81054,10.97852 -26.92565,27.20162 -54.27975,54.00327 -81.11325,81.29687 -15.1496,14.53617 -14.997,41.002769 0.3672,55.32422 28.3669,28.550981 56.7638,57.102012 85.43745,85.37695312 12.29747,12.84949488 36.21896,7.05332718 42.29102,-9.35351562 3.28139,-9.9054155 1.80895,-21.9280375 -6.28711,-29.1347655 -24.77892,-24.993606 -49.83379,-49.71012 -74.58206,-74.734372 24.1656,-24.44158 48.60709,-48.60743 72.83401,-72.95703 5.8574,-5.82672 10.21197,-13.6166 9.44531,-22.11133 0.61141,-13.31236 -11.54704,-24.86161 -24.5371,-25.01563 z m -154.40432,0.10547 c -3.7334,-0.0974 -7.4896,0.50294 -10.9492,1.78711 -10.2121,4.23206 -16.7432,15.24272 -16.2832,26.16016 0,61.45667 0.03,122.881216 -0.031,184.337888 -0.5213,10.9481112 6.0725,21.9579985 16.254,26.2207026 15.9161,6.9920694 37.1981,-5.09062603 36.2168,-23.2148436 0.1535,-62.407335 -0.03,-124.815317 0.062,-187.222657 0.1534,-6.01073 -0.5527,-12.23527 -4.3554,-17.11133 -4.5963,-7.14733 -12.7005,-10.74281 -20.9141,-10.95703 z m 604.75392,118.85938 c -21.60201,12.64939 -43.23241,25.243239 -64.92773,37.724606 -13.76969,7.776369 -23.96438,21.525902 -27.25977,37.003906 -3.24861,14.404436 -0.45741,30.0331529 7.54297,42.4492186 7.83235,12.4626884 20.78954,21.5447194 35.16602,24.7187504 13.90968,3.239352 28.93114,0.785246 41.20703,-6.458985 40.46884,-23.3290641 80.93667,-46.677026 121.38672,-70.052734 -37.388,-21.658039 -74.82286,-43.204822 -112.21094,-64.853512 z"
         transform="matrix(0.35889659,0,0,0.35889659,723.30876,459.15818)" />
    </g>
  </g>
</svg>
