<svg viewBox="0 0 8 9" xmlns="http://www.w3.org/2000/svg"><g fill-rule="nonzero" fill="none"><path d="M2.017.185a1.58 1.58 0 0 0-.738 2.953c.608.353 1.22.702 1.829 1.059l3.134 1.81c.344-.2.635-.493.818-.848.238-.457.297-1.001.17-1.5a2.072 2.072 0 0 0-.69-1.09c-.174-.147-.376-.252-.572-.366L2.863.41a1.614 1.614 0 0 0-.846-.225Z" fill="#FC0160"/><path d="M3.082 4.182c-.603.353-1.207.705-1.813 1.053a1.58 1.58 0 0 0-.55 2.22c.218.348.58.601.981.69.389.09.808.022 1.151-.18 1.13-.652 2.261-1.304 3.39-1.957-1.044-.605-2.09-1.207-3.133-1.811l-.026-.015Z" fill="#08A9FD"/></g></svg>