<svg viewBox="0 0 24 24" xmlns="http://www.w3.org/2000/svg"><path d="M12 24c6.627 0 12-5.373 12-12S18.627 0 12 0 0 5.373 0 12s5.373 12 12 12" fill="#e60013"/><path d="M17.842 10.917c.127-.23.167-.514.074-.813a.95.95 0 0 0-.566-.603 1.052 1.052 0 0 0-.538-.062 1.049 1.049 0 0 0-.049.009l-2.163.381c-.332.062-.721-.252-.657-.749l.331-2.583a1.246 1.246 0 0 0-1.236-1.405.824.824 0 0 0-.804.644L11.87 7.36c-.342 1.525-.708 2.98-1.94 4.265v6.063l6.825-1.203a.954.954 0 0 0 .766-1.233.87.87 0 0 1 .099-.743 1.123 1.123 0 0 0 .074-1.096.842.842 0 0 1 .03-.781 1.121 1.121 0 0 0 .063-.987.84.84 0 0 1 .055-.727M7.119 12.629c0-.295.21-.546.5-.598l1.665-.293V17.8l-1.454.256a.606.606 0 0 1-.711-.597v-4.832" fill="#fff"/></svg>