<?xml version="1.0" encoding="utf-8"?>
<!-- Generator: Adobe Illustrator 19.0.0, SVG Export Plug-In . SVG Version: 6.00 Build 0)  -->
<svg version="1.1" id="圖層_1" xmlns="http://www.w3.org/2000/svg" xmlns:xlink="http://www.w3.org/1999/xlink" x="0px" y="0px"
	 viewBox="0 0 36.0111694 12.3764648" style="enable-background:new 0 0 36.0111694 12.3764648;" xml:space="preserve">
<style type="text/css">
	.st0{fill-rule:evenodd;clip-rule:evenodd;fill:#231815;}
</style>
<polygon class="st0" points="25.5352783,4.6889648 25.5352783,4.6889648 25.6482544,4.4940186 23.755249,4.4940186 
	23.755249,2.3339844 26.49823,2.3339844 26.49823,0 28.6582642,0 28.6582642,2.3339844 31.4012451,2.3339844 31.4012451,4.4940186 
	29.5092773,4.4940186 29.6192627,4.6889648 30.7032471,6.559021 28.833252,7.6439819 27.8032227,5.867981 27.5772705,5.4719849 
	27.3502197,5.867981 26.321228,7.6439819 24.4522705,6.559021 "/>
<rect x="19.1431885" y="2.3339844" class="st0" width="2.1640015" height="2.1599731"/>
<path class="st0" d="M27.5772705,12.3764648c3.7669678,0,6.9659424-2.4349976,8.1119995-5.8149414h-2.1620483
	c-1.039978,2.2469482-3.3139648,3.7999878-5.9499512,3.7999878c-2.6360474,0-4.90802-1.5530396-5.9480591-3.7999878h-2.1619873
	C20.6122437,9.9414673,23.8112183,12.3764648,27.5772705,12.3764648"/>
<rect x="33.8511963" y="2.3339844" class="st0" width="2.1599731" height="2.1599731"/>
<path class="st0" d="M9.699707,10.8520508H8.9666748H8.9306641v-0.0319824V9.7260742V9.6900635h0.0360107h0.7150269H9.718689
	v0.0360107v0.1170044v0.0300293H9.6817017h-0.519043v0.2769775h0.4300537h0.0379639v0.0349731v0.1160278v0.0349731H9.5927124
	H9.1626587v0.3300171H9.699707h0.0359497v0.0350342v0.1189575v0.0319824H9.699707z M13.0316772,9.868103L13.0316772,9.868103
	h-0.2680054v0.3379517h0.2680054c0.0950317,0,0.1690063-0.0739746,0.1690063-0.1640015
	C13.2006836,9.946106,13.126709,9.868103,13.0316772,9.868103 M16.2746582,10.8291016
	c-0.0809937-0.0320435-0.1519775-0.0740356-0.2099609-0.1279907l-0.026001-0.0230103l0.026001-0.0230103l0.0939941-0.0960083
	l0.0230103-0.0289917l0.0289917,0.0249634c0.0410156,0.0390015,0.0910034,0.0720215,0.1480103,0.0960083
	c0.0529785,0.0209961,0.1090088,0.0310059,0.1669922,0.0310059c0.0719604,0,0.1309814-0.0119629,0.1679688-0.0390015
	c0.0350342-0.0249634,0.0540161-0.0620117,0.0540161-0.1040039c0-0.0899658-0.0819702-0.1220093-0.1829834-0.1610107
	l-0.0020142-0.0029907l-0.1790161-0.0669556c-0.0579834-0.0230103-0.1269531-0.0550537-0.1789551-0.1040039
	c-0.0540161-0.0500488-0.0930176-0.1170044-0.0930176-0.2090454c0-0.0959473,0.0469971-0.177002,0.1270142-0.2329712
	c0.072998-0.0570068,0.1799927-0.09198,0.2989502-0.09198c0.0780029,0,0.1480103,0.0159912,0.2140503,0.039978
	c0.0689697,0.0250244,0.1300049,0.0609741,0.1759644,0.1060181l0.026001,0.0230103l-0.0219727,0.0229492l-0.0820313,0.0900269
	l-0.0230103,0.0249634l-0.0299683-0.0249634c-0.0369873-0.0239868-0.0759888-0.0529785-0.1170044-0.0650024
	c-0.0449829-0.0189819-0.0900269-0.0269775-0.1420288-0.0269775v0.0019531c-0.0599976,0-0.1129761,0.0110474-0.1459961,0.03302
	c-0.0289917,0.0209961-0.0489502,0.0529785-0.0489502,0.09198c0,0.0809937,0.09198,0.1160278,0.177002,0.1470337
	l0.0059814,0.0020142l0.1779785,0.0679932c0.0759888,0.0299683,0.1439819,0.0639648,0.1940308,0.1170044
	c0.0539551,0.0509644,0.0839844,0.1139526,0.0839844,0.2069702c0,0.0969849-0.0479736,0.1879883-0.132019,0.2509766
	c-0.0799561,0.0580444-0.1929932,0.0940552-0.3280029,0.0940552C16.4326782,10.8731079,16.3486938,10.8570557,16.2746582,10.8291016
	 M15.1137085,10.8291016c-0.0800171-0.0320435-0.151001-0.0740356-0.210022-0.1279907l-0.026001-0.0230103l0.026001-0.0230103
	l0.09198-0.0960083l0.0270386-0.0289917l0.0279541,0.0249634c0.0400391,0.0390015,0.0930176,0.0720215,0.1480103,0.0960083
	c0.0510254,0.0209961,0.1100464,0.0310059,0.1680298,0.0310059c0.0709839,0,0.1289673-0.0119629,0.1669922-0.0390015
	c0.0349731-0.0249634,0.0540161-0.0620117,0.0540161-0.1040039c0-0.0899658-0.0800171-0.1220093-0.1830444-0.1610107
	l-0.0029907-0.0029907l-0.1759644-0.0669556c-0.0610352-0.0230103-0.1300049-0.0550537-0.1830444-0.1040039
	c-0.052002-0.0500488-0.0910034-0.1170044-0.0910034-0.2090454c0-0.0959473,0.0460205-0.177002,0.125-0.2329712
	c0.0770264-0.0570068,0.1810303-0.09198,0.302002-0.09198c0.0760498,0,0.1470337,0.0159912,0.2130127,0.039978
	c0.0670166,0.0250244,0.1279907,0.0609741,0.1760254,0.1060181l0.0239868,0.0230103l-0.0209961,0.0229492l-0.0830078,0.0900269
	l-0.0250244,0.0249634l-0.026001-0.0249634c-0.0349731-0.0239868-0.0759888-0.0529785-0.1169434-0.0650024
	c-0.0430298-0.0189819-0.0900269-0.0269775-0.1410522-0.0269775v0.0019531c-0.0599976,0-0.1129761,0.0110474-0.1449585,0.03302
	c-0.03302,0.0209961-0.0510254,0.0529785-0.0510254,0.09198c0,0.0809937,0.0910034,0.1160278,0.177002,0.1470337
	l0.0079956,0.0020142l0.1749878,0.0679932c0.0770264,0.0299683,0.1450195,0.0639648,0.1940308,0.1170044
	c0.0529785,0.0509644,0.0849609,0.1139526,0.0849609,0.2069702c0,0.0969849-0.0479736,0.1879883-0.1339722,0.2509766
	c-0.0800171,0.0580444-0.1900024,0.0940552-0.3250122,0.0940552C15.2716675,10.8731079,15.1886597,10.8570557,15.1137085,10.8291016
	 M14.5776978,10.8520508h-0.7330322h-0.0369873v-0.0319824V9.7260742V9.6900635h0.0369873h0.7150269h0.0360107v0.0360107v0.1170044
	v0.0300293h-0.0360107h-0.5189819v0.2769775h0.4309692h0.0369873v0.0349731v0.1160278v0.0349731h-0.0369873h-0.4309692v0.3300171
	h0.5369873h0.0379639v0.0350342v0.1189575v0.0319824H14.5776978z M13.1696777,10.361084l0.2890015,0.4400024l0.0350342,0.0509644
	h-0.0640259h-0.1799927h-0.0200195L13.218689,10.835083l-0.2880249-0.4459839h-0.1669922v0.4309692v0.0319824h-0.0339966h-0.15802
	H12.534668v-0.0319824V9.7260742V9.6940918h0.0369873h0.3850098c0.0859985,0,0.1780396,0.0029907,0.257019,0.0339966
	c0.1220093,0.0449829,0.2119751,0.1589966,0.2139893,0.3040161C13.4276733,10.2120972,13.324707,10.3131104,13.1696777,10.361084
	 M11.4976807,9.868103v0.3849487h0.2600098c0.1079712,0,0.1950073-0.0879517,0.1950073-0.1919556
	c0-0.1090088-0.0870361-0.1929932-0.1950073-0.1929932H11.4976807z M11.4627075,10.8520508h-0.15802h-0.0369873v-0.0319824
	V9.7260742V9.6940918h0.0369873h0.3800049c0.1669922,0.0009766,0.2539673,0.0159912,0.3439941,0.0719604
	c0.1010132,0.0650024,0.1469727,0.1760254,0.1450195,0.2900391c0,0.1019897-0.0390015,0.2009888-0.1279907,0.2669678
	c-0.0860596,0.0640259-0.210022,0.1119995-0.3590088,0.1119995h-0.1890259v0.3850098v0.0319824H11.4627075z M10.1837158,10.8520508
	h-0.1660156H9.9547119l0.0319824-0.0509644l0.348999-0.5480347l-0.3259888-0.5119629l-0.03302-0.0510254h0.0620117h0.1759644
	h0.0200195l0.0109863,0.0200195l0.1700439,0.2810059l0.0289917,0.0449829
	c0.0109863,0.0180054,0.0219727,0.0419922,0.0379639,0.0629883c0.0200195-0.0419922,0.0390015-0.0739746,0.0599976-0.1079712
	l0.1630249-0.2810059l0.0120239-0.0200195h0.0229492h0.1660156h0.0620117l-0.0310059,0.0510254l-0.3259888,0.5159912
	l0.3510132,0.5440063l0.0310059,0.0509644h-0.0620117h-0.1760254h-0.0200195l-0.0109863-0.0169678l-0.1829834-0.2960205
	l-0.007019-0.0109863c-0.0219727-0.0360107-0.0440063-0.0720215-0.0700073-0.1159668
	c-0.0079956,0.0189819-0.0149536,0.0309448-0.0219727,0.0439453c-0.0170288,0.0280151-0.0339966,0.0570068-0.0490112,0.0830078
	l-0.1790161,0.2960205l-0.0099487,0.0169678H10.1837158z"/>
<path class="st0" d="M8.8930664,2.3393555h0.6419678V1.694397h1.1660156v0.6449585v0.8730469v4.43396l6.2449951,0.0020142
	c0,0.4819946-0.3909912,0.8770142-0.8740234,0.8770142l-4.8670044-0.0020142
	c-0.2810059-0.0239868-0.5039673-0.2600098-0.5039673-0.5469971c0,0.2869873-0.2200317,0.5230103-0.5020142,0.5469971
	L8.8930664,8.5253906V7.6483765h0.6419678V3.2124023H8.8930664V2.3393555z M11.1690674,2.3393555h2.0709839V1.6373901h1.164978
	v0.7019653h2.0750122v0.8730469h-2.059021v0.032959c-0.0100098,1.2700195,0.8510132,2.4280396,2.059021,2.8070068v1.1270142
	c-1.1600342-0.257019-2.1030273-0.9920044-2.6569824-1.992981c-0.552002,1.0009766-1.4949951,1.7359619-2.6539917,1.992981
	V6.0523682c1.2059937-0.3789673,2.0649414-1.5369873,2.0599976-2.8070068v-0.032959h-2.0599976V2.3393555z"/>
<path class="st0" d="M7.7628174,7.6479492c0,0.4800415-0.394043,0.8770142-0.8760376,0.8770142H4.3187866v-0.848999h2.302002
	V3.1849976h-2.302002V1.6369629h1.1669922v0.7020264h2.2770386V7.6479492z"/>
<path class="st0" d="M1.1691895,7.6759644h1.5170288v-0.492981H1.1691895V7.6759644z M3.7351685,7.6479492
	c0,0.4819946-0.3909912,0.8770142-0.8759766,0.8770142h-2.742981V5.1129761h3.6189575V7.6479492z M1.1691895,6.3649902h1.5170288
	V5.867981H1.1691895V6.3649902z"/>
<path class="st0" d="M3.1599731,3.5858765C3.1939697,3.539917,3.2269897,3.494873,3.256958,3.4439087
	c0.0310059-0.0570068,0.0599976-0.1150513,0.0859985-0.1750488C3.367981,3.2119141,3.3889771,3.1519165,3.4069824,3.0869141
	l0.0059814-0.0210571h0.0200195h0.4219971V2.2799072H2.5100098H2.4819946V2.2518921V1.6369019H1.3709717v0.6149902v0.0280151
	H1.3429565H0v0.7859497h0.4159546h0.0220337l0.007019,0.0210571c0.0159912,0.0549927,0.0339966,0.1069946,0.0529785,0.1569824
	c0.0239868,0.0559692,0.0469971,0.1029663,0.0720215,0.1549683c0.0339966,0.059021,0.0689697,0.1150513,0.1079712,0.1630249
	c0.039978,0.0549927,0.0830078,0.1060181,0.1279907,0.1539917L0.855957,3.7648926H0.7839966H0v0.8179932h3.8549805V3.7648926
	H3.0679932H2.9970093l0.0509644-0.0490112C3.0849609,3.6748657,3.1229858,3.631897,3.1599731,3.5858765 M1.4240112,3.0658569
	h0.0349731h0.9370117h0.0319824c-0.007019,0.0490112-0.007019,0.0980225-0.0189819,0.1460571
	C2.3859863,3.2998657,2.3410034,3.3828735,2.2730103,3.447876C2.1859741,3.5379028,2.0619507,3.5908813,1.9279785,3.5908813
	c-0.1370239,0-0.2609863-0.0529785-0.3480225-0.1430054C1.5149536,3.3848877,1.46698,3.303894,1.4450073,3.2119141
	C1.43396,3.1679077,1.4320068,3.1168823,1.4240112,3.0658569"/>
<path class="st0" d="M6.0402222,3.7670898h-1.632019v0.8150024h0.5540161h0.0279541v0.0310059V6.302124v0.0310059H4.9622192
	H4.4082031V7.151123h0.7979736c0.2300415-0.0020142,0.4379883-0.0999756,0.5900269-0.25
	c0.151001-0.1550293,0.2440186-0.3629761,0.2440186-0.5950317V6.3041382V6.302124V6.288147V3.7670898z"/>
</svg>
