<svg viewBox="0 0 24 24" xmlns="http://www.w3.org/2000/svg"><path d="M13.959 21.068h1.917l.631 2.159 3.439-2.159H24V3.262H13.959v17.806Zm2.04-15.873h5.96v13.94h-2.286L17.39 20.57l-.416-1.43-.975-.003V5.196Zm-3.736 6.215H7.981c.142-2.218.18-4.223.18-6.013h4.187s.161-1.847-.702-1.826H4.402A35.486 35.486 0 0 1 5.476.242s-1.97 0-2.641 1.766c-.278.728-1.082 3.53-2.513 6.394.482-.053 2.077-.097 3.016-1.818.172-.482.205-.545.42-1.19h2.363c0 .86-.098 5.475-.138 6.012H1.705c-.961 0-1.274 1.933-1.274 1.933H5.8C5.44 17.421 3.506 20.86 0 23.58c1.677.479 3.349-.076 4.174-.81 0 0 1.882-1.711 2.913-5.67l4.417 5.317s.648-2.201-.101-3.274c-.621-.73-2.297-2.705-3.012-3.421l-1.197.95c.357-1.144.572-2.256.645-3.33h5.046s-.007-1.933-.622-1.933v.002Z" fill="#0f88eb"/></svg>