<svg viewBox="0 0 24 24" xmlns="http://www.w3.org/2000/svg"><path d="m6.974 5.04.055.05 5.557 5.558a.865.865 0 0 1-1.168 1.273l-.056-.05-4.944-4.945-4.941 4.94a.865.865 0 0 1-1.169.051l-.055-.05a.865.865 0 0 1-.05-1.169l.05-.055 5.553-5.552a.865.865 0 0 1 1.168-.051m11.166 7.039.055.05 5.551 5.552a.865.865 0 0 1-1.168 1.275l-.054-.051-4.945-4.944-4.996 4.951a.865.865 0 0 1-1.166.047l-.055-.05-4.944-4.945-4.941 4.94a.866.866 0 0 1-1.169.052l-.055-.051a.864.864 0 0 1-.05-1.168l.05-.056 5.553-5.552a.865.865 0 0 1 1.168-.05l.055.05 4.948 4.948 4.997-4.95a.865.865 0 0 1 1.166-.048" fill="#01c384"/></svg>