<svg viewBox="0 0 24 24" xmlns="http://www.w3.org/2000/svg"><path d="m9.805 7.593 8.322.001c-.067.14-.138.28-.208.42H9.594l.21-.421Zm10.38.029a5.57 5.57 0 0 1 1.477.046c.354.063.7.171 1.017.345-1.351 0-2.702.002-4.053-.001a5.191 5.191 0 0 1 1.56-.39ZM9.21 8.785l.242-.487c2.776.002 5.552 0 8.328.002-.043.09-.09.178-.135.267.138-.093.275-.198.426-.267 1.674-.004 3.349 0 5.023-.002.163.143.312.306.43.487H9.21Zm-.38.762c.078-.159.156-.319.237-.478h14.625c.078.152.137.314.187.48-5.018 0-10.035 0-15.05-.002Zm2.794.287h2.94l-.243.484c-.98.002-1.96.002-2.938 0 .077-.162.16-.322.241-.484Zm4.77 0h2.788a2.288 2.288 0 0 0-.56.486l-2.537-.002a6.2 6.2 0 0 1 .31-.484Zm4.741 0h2.81c.028.16.044.322.054.484l-2.513.002a.884.884 0 0 0-.35-.486Zm-9.897.77h2.941l-.24.479h-2.945c.083-.159.164-.318.244-.478Zm4.692 0h2.473a4.247 4.247 0 0 0-.277.479l-2.413.001c.065-.163.138-.323.217-.48Zm5.607 0H24c-.002.16-.015.32-.036.48l-2.416-.001c.018-.159-.003-.32-.012-.478Zm-5.936.763c.798.002 1.6 0 2.398.002-.062.159-.118.32-.168.485h-2.385c.046-.164.101-.324.155-.487Zm-4.75.002c.982 0 1.963-.002 2.943 0-.079.162-.16.323-.241.485-.98 0-1.962.002-2.943-.002.08-.16.162-.322.241-.483Zm10.676-.002c.799.002 1.598 0 2.396 0a6.562 6.562 0 0 1-.1.487h-2.386c.035-.162.07-.323.09-.487Zm-11.06.772h2.943c-.078.16-.16.32-.238.48h-2.945l.24-.48Zm4.903 0h2.386c-.038.158-.071.317-.094.48h-2.394a6.38 6.38 0 0 1 .102-.48Zm5.99 0h2.387c-.044.162-.098.32-.153.48h-2.396c.06-.16.115-.318.162-.48ZM9.844 13.383c.08-.161.159-.321.24-.48h2.943l-.24.48H9.845Zm5.38-.48h2.406c-.001.16-.003.32.018.48-.82-.002-1.64 0-2.46 0 .001-.161.018-.321.036-.48Zm5.58.48c.1-.154.19-.314.27-.48h2.408a6.267 6.267 0 0 1-.215.48h-2.462Zm-11.11.291c.984-.002 1.965 0 2.949 0l-.24.478c-.982 0-1.965.002-2.947 0 .078-.16.159-.32.238-.478Zm5.493 0c.839-.002 1.68 0 2.52-.002.053.183.146.354.29.48H15.24a3.681 3.681 0 0 1-.054-.478Zm5.406-.002c.838.002 1.677 0 2.515.002a6.54 6.54 0 0 1-.305.478h-2.77a2.25 2.25 0 0 0 .56-.48Zm-11.28.773.005-.008c.98.003 1.962 0 2.942.001l-.24.478c-.98 0-1.958.002-2.937 0 .076-.157.16-.312.23-.47Zm5.99-.007h7.282a5.44 5.44 0 0 1-.436.478c-2.222.002-4.443 0-6.663.002a2.983 2.983 0 0 1-.183-.48Zm-6.606 1.25.24-.48h2.938l-.24.48H8.697Zm6.955-.48c2.06 0 4.118.002 6.178 0a4.586 4.586 0 0 1-.677.476c-1.692.005-3.385.003-5.077.002a2.12 2.12 0 0 1-.425-.478Zm-7.098.764h2.938c-.067.147-.143.29-.214.435H8.331c.076-.143.145-.292.223-.435Zm7.924.002c1.371-.004 2.745-.002 4.116-.002a5.091 5.091 0 0 1-1.671.416c-.5.036-1.01.027-1.503-.07a3.088 3.088 0 0 1-.942-.344Z" fill="#009dda"/><path d="M3.43 7.593h6.375l-.21.42-.144.285-.242.487-.143.284-.238.478c-.034.052-.084.09-.126.135L3.94 14.443c1.792.002 3.583-.001 5.374.002-.07.159-.154.314-.23.471-.05.097-.098.195-.146.292l-.24.48-.143.284c-.078.143-.147.292-.223.435H0c.323-.649.644-1.298.97-1.944.017-.032.044-.056.07-.082.49-.486.973-.978 1.467-1.46 1.121-1.117 2.236-2.24 3.362-3.353H2.46c.32-.66.647-1.316.97-1.975Z" fill="#0074bb"/></svg>