<svg version="1.2" xmlns="http://www.w3.org/2000/svg" viewBox="0 0 1502 1122" width="1502" height="1122">
	<title>sddsfsdfsdf-svg</title>
	<style>
		.s0 { fill: #0074bb } 
		.s1 { fill: #009dda } 
	</style>
	<g id="#0074bbff">
		<path id="Layer" class="s0" d="m309.4 0.1q184.8 0 369.5 0c-4.1 8.1-8.1 16.3-12.2 24.4q-4.1 8.3-8.3 16.5-7 14.1-14 28.2-4.2 8.3-8.3 16.5c-4.7 9.2-9.2 18.5-13.8 27.7-2 3-4.9 5.2-7.3 7.8-92 92-184.1 184-276.1 276 103.9 0.1 207.7-0.1 311.5 0.1-4.1 9.2-8.9 18.2-13.3 27.3-2.9 5.6-5.7 11.3-8.5 16.9q-7 13.9-13.9 27.8c-2.8 5.5-5.5 11-8.3 16.5-4.5 8.3-8.5 16.9-12.9 25.2q-241.4 0-482.9 0c18.7-37.6 37.3-75.2 56.2-112.7 1-1.8 2.6-3.2 4.1-4.7 28.4-28.2 56.4-56.7 85-84.6 65-64.8 129.6-129.9 194.9-194.4-65.9 0-131.7 0-197.6 0 18.5-38.3 37.5-76.3 56.2-114.5z"/>
		<path id="Layer" fill-rule="evenodd" class="s0" d="m1027.2 605.6q26.1-0.1 52.2-0.1c-4.5 18.2-9.3 36.3-13.7 54.5 17.6 0.2 35.5-0.9 53 1.9 6.3 1.2 13.8 3.5 16.4 10.1 2.5 7.4 0.7 15.4-0.8 22.9-4.8 20.6-10.4 41-15.4 61.5q9 0 18 0-4.3 17.5-8.9 34.9c-25.1 0-50.2 0-75.3 0 11.9 32.8 31.8 62.1 54.8 87.9-3.9 15.1-7.8 30.1-12 45.1-18.9-15.5-35.4-33.8-49.3-53.9-11.3-16.2-21-33.5-31-50.6-13.2 25.7-27.2 51.8-48.6 71.8-20.1 19.2-47.2 30-74.8 32.3 1.3-5.8 2.7-11.6 4.2-17.4 20.2-15.2 37.8-33.7 51.6-54.9 12.4-18.9 22.3-39.4 30.9-60.3q-26.9 0-53.8 0c2.8-11.6 5.9-23.2 8.8-34.8 18.6-0.1 37.1-0.1 55.6-0.1 5.2-20.6 10.5-41.2 15.6-61.9q-28.3 0-56.6 0c3.1-11.6 6-23.3 8.9-34.9 18.8-0.3 37.6 0.5 56.5 0.3 4.5-18.1 9.2-36.2 13.7-54.3zm30.4 88.9q-8 30.9-16.1 61.9c10.4 0.1 20.8 0 31.2 0 5.1-20.6 10.2-41.3 15.4-61.9-10.2-0.1-20.3 0-30.5 0zm-819.7-87.8c17.7 0 35.3-0.1 52.9 0-4.7 17.6-9.4 35.3-14.1 52.9 28.9 0 57.9 0 86.8 0 8.9 0 18.1 0.3 26.4 3.8 5.8 2.5 10.7 7.8 11.5 14.2 1.3 6.7-1.6 13.1-3.4 19.3-13.2 49-26.3 98-39.4 147-17.9 0-35.8-0.1-53.6 0q3.5-13.3 7-26.7c-25.9 0-51.7 0-77.6 0-9.5 35.2-18.8 70.3-28.3 105.5-17.6 0-35.3 0-52.9 0 9.4-35.2 18.9-70.3 28.2-105.5-26.1 0-52.2 0-78.3 0-2.5 8.9-5 17.8-7.2 26.7-17.9-0.1-35.7 0-53.6 0 16.5-61.4 32.9-122.9 49.4-184.3 44 0 88 0 132 0q7.1-26.5 14.2-52.9zm-103.8 94.9c-6.6 24.3-13 48.6-19.6 72.9 26.1-0.1 52.3 0 78.4-0.1 6.6-24.2 13-48.5 19.6-72.8q-39.2 0-78.4 0zm111.8 72.8c25.9 0.1 51.8 0 77.7 0 6.4-24.3 13-48.5 19.5-72.8q-38.8 0-77.7 0c-6.6 24.3-13 48.6-19.5 72.8zm222.6-145.7c13.3-7.1 26.5-14.7 39.9-21.8 4.7 9.6 9.5 19.1 14.5 28.6 3.1 5.9 5.6 12.6 5 19.5-0.8 8.8-6.4 16.9-14.2 21.1q-10.2 5.7-20.5 11.3c-8.2-19.6-16.6-39-24.7-58.7zm93.8-21.3c76 0 152 0 228 0-3.4 12.5-6.6 25-10.1 37.5-26.1 12.3-52.2 24.5-78.3 36.9 13.4-0.1 26.7-0.1 40.1-0.1 7 0.1 15 2 19.2 8.2 3.8 5.7 3.7 13.1 2.1 19.6-11.3 42.1-22.6 84.3-33.9 126.4-2.1 7.7-5.6 15.1-10.9 21.1-6.3 6.6-15.4 10.7-24.7 10.4-11.6-0.6-23.3-0.1-35-0.3 2.7-10.1 5.4-20.3 8.2-30.4q4.8 0 9.7 0c2.4-9.8 5.2-19.5 7.7-29.2q-17.1 0-34.2 0-8.5 31.5-16.9 63c-17.5 0-35 0-52.4 0 5.7-21 11.3-42 16.9-63.1-12.2 0.1-24.5 0.1-36.7 0.1-5.4 19.6-10.5 39.3-15.9 58.9q-26.1 0-52.3 0c16.6-61.6 33-123.1 49.5-184.7 24.6 0.1 49.2 0 73.7 0.1-11.9-7.3-23.9-14.4-35.7-21.7 7.3-6.2 14.7-12.5 21.9-18.9-16.3 0-32.7 0-49 0 3-11.3 6-22.5 9-33.8zm53.6 33.8c15.5 9.5 31 19.2 46.6 28.6 20-9.6 40.2-18.9 60.3-28.6q-53.5 0-106.9 0zm-29 69.8c-1.8 6.5-3.4 13-5.2 19.5 12.3 0 24.5 0.1 36.7 0 1.7-6.5 3.5-13 5.2-19.5q-18.3 0-36.7 0zm89.2 0q-2.7 9.7-5.3 19.5c11.4 0.1 22.9 0 34.3 0 1.7-6.5 3.5-13 5.2-19.5-11.4-0.1-22.8 0.1-34.2 0zm-102.1 48.4q-2.6 9.6-5.2 19.2 18.4 0 36.8 0c1.7-6.4 3.3-12.8 5.1-19.2-12.3 0-24.5 0.1-36.7 0zm83.9 19.2c11.4-0.1 22.9 0 34.3-0.1 1.7-6.4 3.4-12.7 5.1-19.1q-17.1 0-34.2 0c-1.8 6.4-3.5 12.8-5.2 19.2zm237.6-171.6q24.1 0 48.2 0.1c-6.7 26.4-13.6 52.8-20.2 79.3q4.4-2.4 8.8-4.9c5.1 9.3 9.6 18.9 14.6 28.3 3.7 6.6 6.3 14.3 4.9 22-1.4 7.9-6.7 14.9-13.7 18.8-6.9 3.9-13.8 7.7-20.6 11.5-2.8-6.5-5.6-12.9-8.2-19.4-15.3 60.5-30.2 121.1-45.7 181.5q-24 0-48.1 0c26.6-105.8 53.4-211.4 80-317.2zm307.9 21.8c13.3-7.3 26.5-14.6 39.7-21.9 5.3 9.5 9.8 19.5 15 29.1 2.9 5.4 5 11.5 4.8 17.8-0.3 9-5.8 17.5-13.6 22-7 3.9-14.1 7.8-21.1 11.6-8.3-19.5-16.6-39.1-24.8-58.6zm114-22.5c18.3-0.1 36.6 0 54.9 0 5.6 9.4 11.1 18.8 16.6 28.1 6.8 0.1 13.5 0 20.2 0.1 9.1-9.3 17.9-18.9 27-28.2 16.4 0 32.9-0.1 49.3 0-8.4 9.5-17 18.7-25.5 28.2 9 0.4 18.1-0.8 27.2 0.2 7.1 0.8 13.8 6 14.9 13.4v6.3c-5.7 24.6-12.9 49-19.3 73.5-28 0-56 0-83.9 0-2.2 8.2-4.4 16.3-6.6 24.4 17.6 0 35.2 0 52.8 0 7.1-0.1 15 1.7 20.1 7.2 5 5.6 5.2 13.9 3.5 20.9-3.4 13.2-7 26.2-10.5 39.3-3.1 10.6-4.8 21.8-11.1 31.1-5.9 9.3-16.3 16.4-27.6 16.4q-20.8-0.1-41.7-0.1 4.1-15.1 8.1-30.3 7.6-0.1 15.2-0.1 6.7-24.9 13.5-49.9-15.7 0-31.5 0c-7.6 27.9-14.9 55.8-22.5 83.7q-26.2 0-52.3 0c4.5-16.9 9.1-33.9 13.6-50.9-31.1 14.9-62.1 30-93.3 44.9q4.8-18.1 9.6-36c30.6-13.9 61.3-27.7 91.8-41.7q-40.3 0-80.6 0c8.4-31.1 16.7-62.3 25.1-93.4 27.1 0 54.2 0 81.3 0 2.1-8.2 4.3-16.3 6.5-24.4q-40.7 0-81.3 0c3-11.6 6.2-23 9.2-34.5q21.6-0.1 43.2 0c-5.2-9.5-10.6-18.8-15.9-28.2zm97.3 62.6c-2.5 8.1-4.4 16.3-6.7 24.5 10.5 0 21 0 31.5 0 2.2-8.2 4.4-16.3 6.6-24.4-10.5-0.1-20.9 0-31.4-0.1zm-97.1 59q-3.4 12.2-6.6 24.4 14.4 0 28.9 0c2.1-8.1 4.3-16.2 6.4-24.4-9.6 0-19.1 0-28.7 0zm-501.1-49.9c15.7 0 31.3 0 47 0-12.4 49.8-24.9 99.6-37.3 149.3q-23.8 0.1-47.7 0c12.6-49.8 25.3-99.5 38-149.3zm-367.3 22.9c12.5 0 25-0.1 37.5 0 7.4 0.2 15.5 2.9 19.7 9.5 3.8 6.5 3.1 14.3 1.3 21.3-10.9 40.9-22 81.8-32.8 122.7 6.1 12.6 18.6 20.6 31.9 23.4 22 5 44.7 2.3 67 3.6 22-0.2 44.1 1.1 66.1 0 25.9 0.2 51.7-0.8 77.6-0.8-4 14-7.5 28.1-11.4 42.2-21.6-1.2-43.2 0.2-64.8-0.9-14.5 0-29 0-43.5 0-22-0.9-44.1 0.3-66.2-0.7-22.5 0.3-46.3-0.8-66.3-12.1-8.4-4.7-15.5-11.4-20.9-19.3-18.2 10.9-36.3 22.1-54.6 32.8 4.4-16.9 9.1-33.7 13.5-50.6 6-5.5 11.5-11.6 17.5-17 1.5-1.2 2.3-2.8 2.7-4.5 9.5-35.5 19-71 28.5-106.4q-7.2-0.1-14.4-0.1c4-14.4 7.7-28.8 11.6-43.1zm734.9 0c12.4-0.1 24.8 0 37.1 0 8.2 0.1 17.7 3.4 21.2 11.4 2.5 6.1 1.9 13 0.3 19.3-11 40.8-21.9 81.8-32.9 122.7 5.1 10.6 15 18.4 26.2 21.9 14.5 5 30.1 4.3 45.2 4.9 26.1-0.1 52.1 0.8 78.2 0.7 31-0.6 62.1-0.7 93.2-1.4-4 14.1-7.6 28.3-11.5 42.4-21.2-1.2-42.5 0.2-63.8-0.8-42-0.1-84-0.4-126-0.8-19.7-0.9-40.4-3.9-56.8-15.8-6-4.2-10.9-9.7-15.1-15.6-18.2 11-36.2 22.1-54.5 32.9q6.6-24.1 13-48.3c0.3-1.7 1-3.3 2.4-4.4 5.5-5 10.7-10.3 16-15.5q1.8-1.8 2.3-4.3c9.4-35.4 19-70.8 28.4-106.2q-7.2 0-14.4 0c3.9-14.3 7.7-28.7 11.5-43.1zm-830.3 281c15.3-2.4 31.9-2.2 46.1 4.7 12.5 6.2 20.5 19.3 21.9 33 1.7 19.6-3.8 39.2-12.9 56.4-12.4 23.1-35.5 40.6-61.8 44.3-14.8 1.9-30.8 1.8-44.5-5-12.3-6-20.3-18.9-21.8-32.3-1.9-18.1 2.9-36.3 10.6-52.6 11.6-24.7 35.1-44.2 62.4-48.5zm1.3 25.5c-16.6 4.1-27.3 19.3-32.9 34.4-4.1 11.6-7.6 24.3-4.9 36.7 1.3 6.9 6 13.4 12.8 15.6 11.2 3.6 23.9 0.1 32.6-7.5 13.1-10.9 19.3-27.7 22.5-44 1.8-9.4 1.9-20.2-4-28.3-5.9-7.9-17.2-9.2-26.1-6.9zm874.7-17.7c26.3-12.3 57.7-10.5 84.1 0.6-2.8 10.6-5.7 21.1-8.4 31.6-4 0.7-6.5-2.8-9.3-4.8-12.8-9.4-29.7-12.8-45.2-9.3-6.1 1.3-12.4 4.4-15.3 10.2-1.7 3.1-1.5 7.5 1.5 9.9 3.4 2.4 7.6 3.4 11.6 4.5 12.8 3.1 26.4 5 37.7 12.3 6.4 4 10.9 11 11.1 18.7 0.5 16.3-8.2 32.1-21.2 41.7-15.5 12.1-35.8 16.7-55.2 16.2-16.1 0.4-32-3.4-46.4-10.3 2.8-10.9 5.7-21.7 8.7-32.6 1 0.1 3 0.1 4.1 0.1 13.2 13.2 32.8 19.6 51.3 17 6.4-0.6 13.1-2.6 17.6-7.4 2.7-3.3 4.6-8.5 1.8-12.3-3.9-4.9-10.6-5.7-16.3-7.1-13.3-3-27.9-5.4-38.1-15.2-8.2-8.1-7.9-20.9-4.6-31.2 4.4-14.9 16.8-26 30.5-32.6zm131.3 2c26.9-14.6 60.3-12.9 88-1.4-2.7 10.5-5.6 21.1-8.5 31.6-4 0.7-6.4-2.8-9.3-4.9-11.6-8.4-26.5-12.1-40.6-10-6.6 0.9-13.6 3-18.1 8.2-2.5 3.3-4.2 8.4-1.1 11.9 2.8 2.7 6.9 3.6 10.5 4.7 13.4 3.5 27.8 5.2 39.7 12.9 6.4 3.9 10.9 11 11.1 18.7 0.4 16.3-8.2 32.1-21.2 41.7-15.6 12.2-35.9 16.8-55.4 16.2-16 0.4-31.9-3.4-46.3-10.3 2.9-10.9 5.8-21.7 8.8-32.5 1.1 0 3.2 0 4.3 0 11.6 12.1 28.8 18.1 45.4 17.6 8.2-0.5 17.3-1.7 23.2-7.9 2.6-3.4 4.8-8.5 1.9-12.3-3.8-4.9-10.4-5.8-16-7.2-13.1-2.9-27.3-5.2-37.6-14.4-8.3-7.4-8.9-19.9-5.9-29.9 3.5-14.4 14.4-25.8 27.1-32.7zm-1328.4 20.7c2.3-8.8 4.7-17.5 6.9-26.3 34.5 0.1 69 0 103.5 0-2.7 8.8-4.1 18.2-7.6 26.6-28.5 27.6-57.7 54.7-86.2 82.3q34 0 68.1 0-3.4 13.1-7.1 26.2-55 0.1-110 0c2.1-7.6 4.1-15.3 6.2-23 0.5-3 3.1-4.7 5-6.7 27.7-26.3 55.2-52.9 83-79.1-20.6 0-41.2 0-61.8 0zm131.6-26.3c38.5 0.1 77 0 115.5 0-2.2 8.8-4.6 17.5-6.9 26.3-13.6 0-27.2 0-40.8 0-9.6 36.3-19.5 72.6-29.1 108.8-11.4 0-22.8 0.1-34.2 0q14.6-54.4 29.2-108.8c-13.6 0-27.2 0-40.8 0 2.3-8.8 4.7-17.5 7.1-26.3zm353.3 0c31.5 0.1 63.1-0.1 94.7 0.1-2.4 8.7-4.7 17.5-7 26.2-20.3 0-40.6 0-60.9 0-2 7.6-4.1 15.2-6.1 22.9 18.8 0 37.7 0 56.5 0q-3.6 13.3-7.2 26.6c-18.8 0.1-37.7 0-56.6 0.1-2.8 11-5.8 22-8.7 33 20.3 0 40.6-0.1 60.9 0-2.3 8.7-4.8 17.4-7 26.2-31.6 0.1-63.3 0-94.9 0 12.1-45 24.1-90.1 36.3-135.1zm118.3 0.1c13.1-0.1 26.2-0.1 39.3-0.1 5.3 13.9 10.6 27.9 15.8 41.8 12.9-14 26-27.9 39-41.8 12.6 0 25.3 0 37.9 0.1-21.1 21.9-42.3 43.7-63.3 65.7 9.1 23.1 18.4 46.2 27.6 69.3-13.1 0.1-26.3 0-39.4 0q-8.1-21.8-16-43.7c-13.6 14.4-26.8 29.2-40.3 43.8-12.5-0.1-25.1 0-37.6-0.1 21.2-22.8 42.9-45.4 64.4-68-9.2-22.3-18.3-44.7-27.4-67zm158.5-0.1c20.1 0.1 40.2 0 60.3 0.1 11.8 0.4 25.2 2.9 32.9 12.7 7.4 9.3 6 22.2 2.7 32.8-7.5 24.7-31.2 43-56.8 45.3-9.8 0.7-19.7 0.2-29.5 0.4q-5.8 21.9-11.8 43.9-17.1-0.1-34.1-0.1c12.1-45 24.2-90 36.3-135.1zm27.3 25.6q-5.4 19.8-10.7 39.7c9.9-0.2 20.5 1.2 29.9-2.9 9-3.9 14.4-13.3 15.4-22.8 0.5-5.6-3.4-11-8.8-12.4-8.4-2.6-17.3-1.4-25.8-1.6zm114.3-25.6c20.4 0.1 40.9 0 61.4 0.1 10.4 0.4 21.8 0.9 30 8.1 6.7 5.3 9.7 14.3 8.3 22.6-1.8 11.8-6.8 23.5-15.5 31.8-6.3 6.4-14.1 11.1-22.2 14.8 9.3 19.3 18.6 38.6 28 57.8-13.9-0.1-27.8 0-41.7-0.1-7.4-16.5-14.9-32.9-22.1-49.4-5.1-0.1-10.2-0.1-15.2-0.1q-6.7 24.8-13.3 49.6c-11.3-0.1-22.6-0.1-34 0 12-45.1 24.2-90.1 36.3-135.2zm27.2 25.2c-3.3 12-6.4 24-9.7 36 11.2-0.4 23.6 1.6 33.6-4.6 7.4-4.2 11.6-12.9 11.7-21.3-0.1-4.9-4.6-8.3-9-9.1-8.8-1.6-17.8-0.9-26.6-1zm120.6-25.2c31.6 0 63.3 0.1 94.9 0-2.4 8.7-4.6 17.5-7.1 26.3-20.3 0-40.6 0-60.9 0-1.9 7.7-4.1 15.3-6.1 22.9q28.3 0 56.6 0c-2.5 8.9-4.7 17.8-7.3 26.7-18.8-0.1-37.6-0.1-56.4 0-3 11-5.9 22-8.8 33 20.2 0 40.5 0 60.8 0-2.3 8.8-4.7 17.5-7.1 26.3-31.6-0.1-63.2 0-94.8 0 12.1-45.1 24.2-90.1 36.2-135.2z"/>
	</g>
	<g id="#009ddaff">
		<path id="Layer" class="s1" d="m678.9 0.1c160.8 0.1 321.6 0 482.4 0.1-3.9 8.1-8 16.2-12.1 24.3-160.8 0-321.7 0-482.5 0 4.1-8.1 8.1-16.3 12.2-24.4zm601.7 1.7c28.5-2.7 57.4-2.2 85.6 2.7 20.5 3.6 40.6 9.9 58.9 20-78.3 0-156.6 0.1-234.9-0.1 28.7-12.4 59.4-19.6 90.4-22.6zm-636.2 67.4q7-14.1 14-28.2c160.9 0.1 321.8 0 482.7 0.1-2.5 5.2-5.2 10.3-7.8 15.5 8-5.4 15.9-11.5 24.7-15.5 97-0.2 194.1 0 291.1-0.1 9.5 8.3 18.1 17.7 25 28.2-276.6 0-553.2 0-829.7 0zm-22.1 44.2c4.6-9.2 9.1-18.5 13.8-27.7 282.5 0 565.1 0 847.7 0 4.5 8.8 7.9 18.2 10.8 27.8-290.8 0-581.6 0-872.3-0.1zm162 16.6c56.8 0 113.6 0 170.4 0-4.7 9.4-9.4 18.8-14.1 28.1q-85.2 0.1-170.3 0c4.5-9.4 9.3-18.7 14-28.1zm276.5 0c53.9 0 107.8 0 161.6 0-12.5 7.3-23 17.3-32.5 28.2q-73.5-0.1-147-0.1c5.5-9.6 11.5-19 17.9-28.1zm274.8 0c54.3 0 108.6 0 162.9 0 1.6 9.3 2.5 18.7 3.1 28.1q-72.8 0-145.7 0.1c-2.9-11.7-10.8-21.2-20.3-28.2zm-573.7 44.7q85.2 0 170.5 0c-4.6 9.2-9.3 18.4-13.9 27.7-56.9 0.1-113.8 0-170.7 0 4.8-9.2 9.5-18.4 14.1-27.7zm272 0c47.8-0.1 95.5 0 143.3-0.1-6 8.9-11.2 18.2-16 27.8-46.6 0.1-93.3 0-139.9 0.1q5.7-14.2 12.6-27.8zm325 0c47.6-0.1 95.2 0 142.8 0-0.1 9.2-0.9 18.5-2.1 27.8-46.6-0.1-93.3-0.1-140-0.1 1-9.2-0.2-18.5-0.7-27.7zm-344.1 44.2c46.3 0.1 92.7 0 139 0.1q-5.4 13.8-9.7 28.1-69.1 0-138.3 0c2.7-9.5 5.9-18.8 9-28.2zm-275.3 0.1c56.9 0 113.8-0.1 170.6 0-4.6 9.4-9.3 18.7-14 28.1-56.8 0-113.7 0.1-170.6-0.1 4.7-9.3 9.4-18.7 14-28zm618.8-0.1c46.3 0.1 92.6 0 138.9 0-1.5 9.5-3.6 18.9-5.8 28.2-46.1 0-92.2 0-138.3 0 2-9.4 4-18.7 5.2-28.2zm-641.1 44.7c56.9 0 113.8 0 170.6 0-4.5 9.3-9.2 18.6-13.8 27.8-56.9 0-113.8 0-170.7 0q7-13.9 13.9-27.8zm284.2 0c46.1 0 92.2 0 138.3 0-2.2 9.2-4.1 18.4-5.4 27.8q-69.4 0-138.8 0c1.6-9.4 3.6-18.6 5.9-27.8zm347.2 0c46.1 0 92.2 0.1 138.4 0-2.6 9.4-5.7 18.6-8.9 27.8q-69.5 0-138.9 0c3.5-9.2 6.7-18.4 9.4-27.8zm-667.4 72.1c4.6-9.3 9.2-18.6 13.9-27.8 56.8 0 113.7 0 170.6 0-4.6 9.3-9.3 18.5-13.9 27.8q-85.3 0-170.6 0zm311.8-27.8c46.5 0 93 0 139.5 0-0.1 9.3-0.2 18.6 1 27.8-47.5-0.1-95 0-142.6 0 0.1-9.3 1.1-18.6 2.1-27.8zm323.5 27.8c5.8-8.9 11-18.2 15.6-27.8 46.5 0 93.1 0 139.6 0-3.8 9.4-7.9 18.7-12.5 27.8-47.6 0-95.1 0-142.7 0zm-644 16.9c57-0.1 113.9 0 170.9 0q-7 13.9-13.9 27.7c-56.9 0-113.9 0.1-170.8 0 4.5-9.3 9.2-18.5 13.8-27.7zm318.4 0c48.6-0.1 97.3 0 146-0.1 3.1 10.6 8.5 20.5 16.8 27.8q-79.9 0-159.7 0c-1.8-9.1-2.5-18.4-3.1-27.7zm313.3-0.1c48.6 0.1 97.2 0 145.8 0.1-5.5 9.5-11.4 18.7-17.7 27.7q-80.3 0.1-160.5 0c12.3-7.3 23.1-16.9 32.4-27.8zm-653.8 44.8l0.3-0.5c56.8 0.2 113.7 0 170.5 0.1-4.6 9.2-9.2 18.5-13.9 27.7-56.8 0-113.5 0.1-170.2 0 4.4-9.1 9.2-18.1 13.3-27.3zm347.2-0.4c140.8-0.1 281.4 0 422.1 0-7.9 9.7-16.3 19-25.3 27.7-128.8 0.1-257.5 0-386.2 0.1-4.4-8.9-7.8-18.3-10.6-27.8zm-382.9 72.4q6.9-13.9 13.9-27.8 85.1 0 170.3 0-7 13.9-13.9 27.8c-56.8 0-113.5 0-170.3 0zm403.1-27.8c119.4 0 238.7 0.1 358.1 0-12.3 10.2-25.3 19.8-39.2 27.6-98.1 0.3-196.2 0.2-294.3 0.1-9.6-7.7-17.7-17.4-24.6-27.7zm-411.4 44.3c56.7 0 113.5 0 170.3 0-3.9 8.5-8.3 16.8-12.4 25.2q-85.4-0.1-170.8 0c4.4-8.3 8.4-16.9 12.9-25.2zm459.3 0.1c79.5-0.2 159.1-0.1 238.6-0.1-30.5 13.8-63.6 21.3-96.9 24.1-29 2.1-58.5 1.6-87.1-4.1-19-4-37.9-10-54.6-19.9z"/>
	</g>
</svg>